  <svg
              xmlns="http://www.w3.org/2000/svg"
              width="100%"
              height="100%"
              viewBox="0 0 54 55"
              fill="none"
            >
              <g id="Icon">
                <g id="Group">
                  <path
                    id="Vector"
                    d="M33.1748 38.0744L32.9731 28.1101C36.4962 28.0677 41.091 27.3249 45.0492 26.9959C45.0385 26.6563 45.081 26.3168 45.1765 25.9878C45.2508 25.6801 45.3781 25.3829 45.5373 25.1177C46.1315 24.2051 47.7339 23.8443 48.3175 24.916L51.2888 33.4372L49.644 39.8147C49.5803 40.08 49.4636 40.3241 49.315 40.5469C49.315 40.5469 48.7951 41.4065 48.2963 42.1599H35.0318C33.8857 41.1094 33.2172 39.6343 33.1748 38.0744Z"
                    fill="#EFCDB1"
                  />
                  <path
                    id="Vector_2"
                    d="M49.3035 46.0863C49.3141 46.4683 48.9215 46.7654 48.4334 46.776H46.7037L34.6383 46.8715C34.1501 46.8715 33.7469 46.5744 33.7469 46.203L33.6938 42.733C33.6938 42.3616 34.0865 42.0539 34.5746 42.0539L46.7037 41.9584L48.3591 41.9371C48.8578 41.9371 49.2505 42.2343 49.2611 42.6057L49.3035 46.0863Z"
                    fill="#D1D0DF"
                  />
                  <path
                    id="Vector_3"
                    d="M49.3044 46.0863C49.315 46.4683 48.9224 46.7654 48.4343 46.776H46.7046V41.969L48.36 41.9478C48.8587 41.9478 49.2514 42.2449 49.262 42.6163L49.3044 46.0863Z"
                    fill="#B5B5C6"
                  />
                  <path
                    id="Vector_4"
                    d="M50.7998 54.8832H34.9673C40.3049 54.8832 44.9847 51.9544 47.5633 46.7441L50.6725 46.7229L50.7998 54.8832Z"
                    fill="#EFB703"
                  />
                  <path
                    id="Vector_5"
                    d="M47.5636 46.7441C44.985 51.9544 40.3053 54.8833 34.9677 54.8833H32.5164L32.389 46.8609L47.5636 46.7441Z"
                    fill="#FFC700"
                  />
                  <path
                    id="Vector_6"
                    d="M27.9636 30.4553L31.476 38.4353L52.0307 29.3942C53.0388 28.9591 53.4951 27.7812 53.0494 26.7837C53.0494 26.7837 53.0494 26.7837 53.0494 26.7731L44.1569 6.53676L35.8692 10.1872C35.6994 10.2614 35.5084 10.1872 35.4341 10.0174C35.4129 9.96431 35.4023 9.90064 35.4129 9.83698C35.519 8.96682 35.6251 7.32202 35.0415 6.28208C33.9591 4.35077 31.5184 3.66102 29.5871 4.7434C27.6558 5.82579 26.9661 8.26646 28.0484 10.1978C28.5684 11.121 29.428 11.8001 30.4467 12.0972C30.574 12.1291 30.6589 12.2564 30.6271 12.3838C30.6059 12.4687 30.5528 12.5323 30.4785 12.5642L21.7876 16.3737L25.5972 25.0434C25.6396 25.1708 25.7776 25.2344 25.9049 25.192C25.9792 25.1601 26.0429 25.0965 26.0641 25.0222C26.6796 22.8893 28.8974 21.6583 31.0303 22.2738C33.1632 22.8893 34.3942 25.1071 33.7787 27.24C33.4922 28.2587 32.8025 29.1183 31.8792 29.6382C30.8287 30.2219 29.1839 30.1158 28.3137 29.999C28.1227 29.9884 27.9636 30.1264 27.9529 30.3174C27.9317 30.3492 27.9423 30.4023 27.9636 30.4553Z"
                    fill="#FFC700"
                  />
                  <path
                    id="Vector_7"
                    d="M28.399 31.4423L31.4764 38.4353L52.0311 29.3942C53.0392 28.9592 53.4955 27.7813 53.0498 26.7838C53.0498 26.7838 53.0498 26.7838 53.0498 26.7732L52.6996 25.9773C51.8189 26.4336 50.9169 26.8687 49.9937 27.2719C43.2023 30.2644 35.8166 31.6863 28.399 31.4423Z"
                    fill="#EFB703"
                  />
                  <path
                    id="Vector_8"
                    d="M43.0112 35.7717C43.2235 35.3048 43.4781 34.806 43.7753 34.2755C44.6348 32.7792 46.131 32.1637 46.131 32.1637C46.131 32.1637 45.4837 28.2587 45.2821 26.9534C45.1442 26.0408 45.314 25.107 45.7703 24.3005C46.3963 23.3243 48.0305 22.921 48.6248 24.0353L51.4793 32.9702L49.6753 39.7404"
                    fill="#EFCDB1"
                  />
                  <path
                    id="Vector_9"
                    d="M20.1008 18.0822L20.3025 28.0465C16.7794 28.0783 12.1846 28.8317 8.22645 29.1607C8.22645 29.5003 8.184 29.8398 8.09911 30.1688C8.02483 30.4765 7.89749 30.7631 7.73831 31.039C7.14406 31.9516 5.54171 32.3124 4.94746 31.2406L1.98682 22.7195L3.63162 16.3419C3.69529 16.0766 3.81201 15.8219 3.96058 15.5991C3.96058 15.5991 4.48055 14.7501 4.97929 13.9967H18.2438C19.3899 15.0473 20.069 16.5223 20.1008 18.0822Z"
                    fill="#EFCDB1"
                  />
                  <path
                    id="Vector_10"
                    d="M19.5809 13.4131L19.5278 9.93249C19.5278 9.56108 19.1246 9.26396 18.6364 9.27457L4.84134 9.38068C4.3532 9.38068 3.96057 9.68842 3.96057 10.0598L4.01363 13.5298C4.01363 13.9118 4.41687 14.209 4.90501 14.1984L18.7001 14.0922C19.1882 14.0922 19.5809 13.7845 19.5809 13.4131Z"
                    fill="#D1D0DF"
                  />
                  <path
                    id="Vector_11"
                    d="M6.57104 14.1665H4.62911C4.26832 14.1665 3.97119 13.8694 3.97119 13.5086V13.4979V10.2083C3.97119 9.77327 4.33199 9.41248 4.76706 9.41248H6.57104V14.1665Z"
                    fill="#B5B5C6"
                  />
                  <path
                    id="Vector_12"
                    d="M2.47485 0H18.3074C12.9697 0 8.29002 4.19159 5.7114 9.4125L2.59158 9.43373L2.47485 0Z"
                    fill="#035D7C"
                  />
                  <path
                    id="Vector_13"
                    d="M5.71143 9.4125C8.29005 4.19159 12.9698 0 18.3074 0H20.7587L20.8754 9.28516L5.71143 9.4125Z"
                    fill="#02648E"
                  />
                  <path
                    id="Vector_14"
                    d="M33.673 24.8948C34.2355 26.6988 33.4608 28.6513 31.8266 29.5852C30.7761 30.1688 29.1313 30.0839 28.2611 29.9778C28.0807 29.9566 27.9215 30.0839 27.9003 30.2643C27.8897 30.3174 27.9003 30.381 27.9215 30.4341L31.0626 37.459C31.3809 38.17 31.0626 39.0083 30.3516 39.3266L23.0084 42.6162C22.8916 42.6799 22.7431 42.6268 22.6794 42.5101C22.6476 42.4358 22.6476 42.3509 22.6794 42.2873C23.6557 40.2923 22.828 37.894 20.833 36.9178C18.838 35.9415 16.4398 36.7692 15.4635 38.7642C14.9966 39.7086 14.9329 40.8016 15.2619 41.7991C15.6439 42.9346 16.9385 43.9533 17.6601 44.4626C17.8087 44.5794 17.8405 44.7916 17.7238 44.9402C17.692 44.9826 17.6495 45.0144 17.6071 45.0357L9.34061 48.7285L0.172177 28.2375C-0.273511 27.2294 0.172177 26.0515 1.18028 25.5952L20.5677 16.9255C21.162 16.6496 21.8729 16.9149 22.1382 17.5198C22.1382 17.5198 22.1382 17.5304 22.1488 17.5304C23.0402 19.536 24.7805 23.4092 25.5127 25.0434C25.5552 25.1707 25.7037 25.2344 25.8311 25.1919C25.9053 25.1601 25.969 25.0964 25.9796 25.0116C26.5739 22.8786 28.7917 21.6264 30.9246 22.2207C32.2299 22.5921 33.2698 23.6002 33.673 24.8948Z"
                    fill="#D22732"
                  />
                  <path
                    id="Vector_15"
                    d="M31.8262 29.5852C30.7757 30.1688 29.1309 30.0839 28.2607 29.9778C28.0803 29.9566 27.9211 30.0839 27.8999 30.2643C27.8893 30.3174 27.8999 30.381 27.9211 30.4341L31.0622 37.459C31.3805 38.17 31.0622 39.0083 30.3512 39.3266L22.9973 42.6268C22.8806 42.6799 22.7321 42.6374 22.6684 42.5101C22.6365 42.4358 22.6365 42.3509 22.679 42.2873C23.6553 40.2923 22.8276 37.894 20.8326 36.9178C18.8376 35.9415 16.4394 36.7692 15.4631 38.7642C14.9962 39.7086 14.9325 40.8016 15.2615 41.7991C15.6435 42.9346 16.9381 43.9639 17.6597 44.4626C17.8083 44.5794 17.8401 44.7916 17.7234 44.9402C17.6915 44.9826 17.6491 45.0144 17.6066 45.0357L9.34019 48.7285L7.18604 43.9108C14.1791 38.7748 18.8376 29.5852 18.8376 19.1115C18.8376 18.634 18.827 18.1671 18.8058 17.7001L20.5567 16.9255C21.1509 16.6496 21.8619 16.9149 22.1272 17.5198C22.1272 17.5198 22.1272 17.5304 22.1378 17.5304C23.0292 19.536 24.7695 23.4092 25.5017 25.0434C25.5441 25.1707 25.6927 25.2344 25.82 25.1919C25.8943 25.1601 25.958 25.0964 25.9686 25.0116C26.5628 22.8786 28.7807 21.6264 30.9136 22.2207C32.2294 22.5815 33.2588 23.5896 33.662 24.8948C34.2244 26.6988 33.4604 28.6407 31.8262 29.5852Z"
                    fill="#C11F2F"
                  />
                  <path
                    id="Vector_16"
                    d="M10.2635 20.3849C10.0512 20.8412 9.79657 21.3505 9.48883 21.8811C8.6399 23.3774 7.14366 23.9928 7.14366 23.9928C7.14366 23.9928 7.79097 27.8979 7.99259 29.2031C8.13054 30.1157 7.96076 31.0496 7.50446 31.856C6.87837 32.8217 5.23357 33.2355 4.64993 32.1213L1.79541 23.1757L3.59938 16.4161"
                    fill="#EFCDB1"
                  />
                  <g id="Group_2">
                    <path
                      id="Vector_17"
                      d="M12.5052 50.4668L13.6373 49.8823L15.1083 52.7313L13.9762 53.3158L12.5052 50.4668Z"
                      fill="#808285"
                    />
                    <path
                      id="Vector_18"
                      d="M3.31982 52.7822L4.79079 49.9332L5.92283 50.5177L4.45187 53.3667L3.31982 52.7822Z"
                      fill="#808285"
                    />
                    <path
                      id="Vector_19"
                      d="M8.52295 54.9039L8.59986 51.6992L9.87326 51.7298L9.79634 54.9345L8.52295 54.9039Z"
                      fill="#808285"
                    />
                    <path
                      id="Vector_20"
                      d="M39.4214 2.35706L40.5534 1.77257L42.0244 4.62155L40.8923 5.20604L39.4214 2.35706Z"
                      fill="#808285"
                    />
                    <path
                      id="Vector_21"
                      d="M48.6155 4.65442L50.0864 1.80544L51.2185 2.38992L49.7475 5.23891L48.6155 4.65442Z"
                      fill="#808285"
                    />
                    <path
                      id="Vector_22"
                      d="M44.5552 3.31848L44.6321 0.113772L45.9055 0.144334L45.8286 3.34904L44.5552 3.31848Z"
                      fill="#808285"
                    />
                  </g>
                </g>
              </g>
            </svg>