<svg width="46" height="46" viewBox="0 0 46 46" fill="none" xmlns="http://www.w3.org/2000/svg">
<g clip-path="url(#clip0_62_745)">
<path d="M37.4822 25.3358L37.6846 24.6807L38.8731 20.7082L39.0157 20.231C39.3199 19.2108 40.3728 18.6098 41.406 18.8665L39.4996 29.1255C39.0862 30.3519 38.2881 31.4118 37.2244 32.1487L33.0611 35.0173C32.6567 35.2598 32.3599 35.6476 32.2318 36.101L31.5313 39.7797L31.4857 39.8395L26.0938 35.714L26.1175 35.6828C26.2869 35.3159 26.386 34.9207 26.4094 34.517L26.4729 33.4162C26.7611 31.3739 28.1665 29.6644 30.1145 28.9866L30.4721 28.8622C31.0322 28.6668 31.5414 28.3478 31.961 27.9285L33.7816 26.1076V26.1068L34.2997 25.5883C35.1547 24.7345 36.5028 24.6275 37.4822 25.3358Z" fill="#F8EC7D"/>
<path d="M38.873 20.7082L37.6846 24.6806L37.4821 25.3358C37.0194 25.0004 36.4541 24.8366 35.8837 24.8734L36.6484 22.3215L36.843 21.6712C37.1 20.885 38.0697 20.4868 38.8675 20.7063L38.873 20.7082Z" fill="#E2D574"/>
<path d="M36.6484 22.3215L35.8837 24.8734C35.2861 24.9105 34.7231 25.1649 34.2997 25.5883L33.7816 26.1068L34.4111 23.978C34.6733 22.9904 35.5677 22.303 36.5894 22.3037L36.6484 22.3215Z" fill="#E2D574"/>
<path d="M32.4194 40.5544V45.4294L24.7103 40.3361V34.6552L26.0938 35.7141L31.4857 39.8395L32.4194 40.5544Z" fill="#E48E66"/>
<path d="M30.6774 13.2892V14.0279C30.6774 16.8869 28.3603 19.2044 25.5013 19.2052H24.7615V18.4654C24.7615 15.6067 27.079 13.2892 29.9376 13.2892H30.6774Z" fill="#E48E66"/>
<path d="M28.9869 6.48753C28.9869 9.75469 26.3385 12.4031 23.0713 12.4031C19.8042 12.4031 17.1554 9.75469 17.1554 6.48753C17.1554 3.22038 19.8042 0.57196 23.0713 0.57196C26.3385 0.57196 28.9869 3.22038 28.9869 6.48753Z" fill="#6FE3FF"/>
<path d="M21.4319 34.6552V40.3361L13.7233 45.4294V40.5544L14.657 39.8395L20.0489 35.7141L21.4319 34.6552Z" fill="#E48E66"/>
<path d="M21.3807 18.4654V19.2052H20.6408C17.7822 19.2044 15.4651 16.8869 15.4651 14.0279V13.2892H16.2045C19.0635 13.2892 21.381 15.6067 21.3807 18.4654Z" fill="#E48E66"/>
<path d="M10.2586 24.8734C10.8562 24.9105 11.4196 25.165 11.8426 25.5883L12.3607 26.1068V26.1076L14.1816 27.9285C14.6013 28.3478 15.1101 28.6668 15.6706 28.8622L16.0278 28.9866C17.9758 29.6644 19.3815 31.3739 19.6694 33.4162L19.7332 34.517C19.7566 34.9207 19.8554 35.3159 20.0252 35.6828L20.0489 35.714L14.657 39.8395L14.6113 39.7797L13.9105 36.101C13.7824 35.6476 13.486 35.2598 13.0816 35.0173L8.91823 32.1487C7.85418 31.4118 7.05643 30.3519 6.64306 29.1255L4.73669 18.8665C5.76991 18.6098 6.82245 19.2108 7.12699 20.231L7.26961 20.7082L8.45807 24.6807L8.66048 25.3358C9.12324 25.0004 9.6885 24.8366 10.2586 24.8734Z" fill="#F8EC7D"/>
<path d="M11.7315 23.978L12.3607 26.1068L11.8426 25.5883C11.4196 25.1649 10.8562 24.9105 10.2586 24.8734L9.49426 22.3215L9.55331 22.3037C10.575 22.303 11.469 22.9904 11.7315 23.978Z" fill="#E2D574"/>
<path d="M9.49419 22.3215L10.2585 24.8734C9.68842 24.8366 9.12316 25.0004 8.6604 25.3358L8.45799 24.6806L7.26953 20.7082L7.2751 20.7063C8.07286 20.4868 9.04257 20.885 9.2992 21.6712L9.49419 22.3215Z" fill="#E2D574"/>
<path d="M29.9376 12.7188C26.7655 12.7225 24.1948 15.2933 24.191 18.4653V19.2052C24.191 19.5201 24.4466 19.7756 24.7615 19.7756H25.5013C28.6738 19.7715 31.2446 17.2004 31.2479 14.0279V13.2892C31.2479 12.9743 30.9924 12.7188 30.6774 12.7188H29.9376ZM30.107 14.0279C30.1044 16.5709 28.0439 18.6314 25.5013 18.6347H25.332V18.4653C25.3353 15.9231 27.3954 13.863 29.9376 13.8597H30.107V14.0279Z" fill="#63316D"/>
<path d="M23.6417 10.8354V10.3266C24.7422 10.0399 25.4586 8.9799 25.3138 7.8516C25.1693 6.72368 24.2085 5.87838 23.0713 5.87876C22.4525 5.87876 21.9511 5.37737 21.9511 4.75863C21.9511 4.14026 22.4525 3.63887 23.0713 3.63887C23.6896 3.63887 24.191 4.14026 24.191 4.75863C24.191 5.07394 24.4465 5.32909 24.7615 5.32909C25.0768 5.32909 25.332 5.07394 25.332 4.75863C25.3308 3.73024 24.6363 2.83183 23.6417 2.57111V2.13955C23.6417 1.82461 23.3862 1.56909 23.0713 1.56909C22.756 1.56909 22.5008 1.82461 22.5008 2.13955V2.57111C21.4 2.8582 20.6839 3.91816 20.8284 5.04646C20.9733 6.17476 21.9337 7.02005 23.0713 7.02005C23.6856 7.02414 24.1817 7.52255 24.1829 8.13683C24.1843 8.75149 23.69 9.25176 23.0757 9.25882H23.0664C22.4503 9.25585 21.9523 8.75595 21.9511 8.13981C21.9511 7.82486 21.6956 7.56934 21.3807 7.56934C21.0657 7.56934 20.8102 7.82486 20.8102 8.13981C20.8117 9.1682 21.5062 10.0662 22.5008 10.3266V10.835C22.5008 11.1503 22.756 11.4055 23.0713 11.4055C23.3862 11.4055 23.6417 11.1503 23.6417 10.835V10.8354Z" fill="#63316D"/>
<path d="M29.5574 6.48749C29.5581 2.9793 26.7693 0.10619 23.2626 0.00294258C19.7559 -0.100677 16.8026 2.6027 16.5965 6.10496C16.3903 9.60721 19.0061 12.6385 22.5009 12.9472V21.6322C22.5009 21.9475 22.7561 22.2027 23.0714 22.2027C23.3863 22.2027 23.6418 21.9475 23.6418 21.6322V12.9472C26.9877 12.6482 29.5529 9.84676 29.5574 6.48749ZM17.7259 6.48749C17.7259 3.53528 20.1191 1.14238 23.0714 1.14238C26.0232 1.14238 28.4165 3.53528 28.4165 6.48749C28.4165 9.43971 26.0232 11.8326 23.0714 11.8326C20.1206 11.8293 17.7292 9.43822 17.7259 6.48749Z" fill="#63316D"/>
<path d="M14.8947 13.2892V14.0279C14.898 17.2004 17.4684 19.7715 20.6409 19.7756H21.3807C21.6956 19.7756 21.9512 19.5201 21.9512 19.2052V18.4653C21.9474 15.2933 19.377 12.7225 16.2046 12.7188H15.4651C15.1498 12.7188 14.8947 12.9743 14.8947 13.2892ZM16.0356 13.8597H16.2046C18.7471 13.863 20.8073 15.9231 20.8102 18.4653V18.6347H20.6409C18.0983 18.6314 16.0382 16.5709 16.0356 14.0279V13.8597Z" fill="#63316D"/>
<path d="M23.0713 22.6335C22.756 22.6335 22.5009 22.889 22.5009 23.2039V25.0275C22.5009 25.3424 22.756 25.598 23.0713 25.598C23.3863 25.598 23.6418 25.3424 23.6418 25.0275V23.2039C23.6418 22.889 23.3863 22.6335 23.0713 22.6335Z" fill="#63316D"/>
<path d="M23.0713 26.5421C22.756 26.5421 22.5009 26.7976 22.5009 27.1125V29.4315C22.5009 29.7464 22.756 30.002 23.0713 30.002C23.3863 30.002 23.6418 29.7464 23.6418 29.4315V27.1125C23.6418 26.7976 23.3863 26.5421 23.0713 26.5421Z" fill="#63316D"/>
<path d="M21.6845 34.1434C21.4899 34.0475 21.2578 34.0702 21.0855 34.202L20.3367 34.7751C20.32 34.6789 20.3089 34.5816 20.3029 34.4843L20.2394 33.3831C20.2383 33.3675 20.2368 33.3519 20.2346 33.3363C19.9219 31.0805 18.3687 29.1912 16.2161 28.4477L15.8585 28.3232C15.3794 28.1557 14.9445 27.8828 14.5853 27.5247L12.8676 25.8067L12.2812 23.8231C11.983 22.7219 11.0526 21.9078 9.92172 21.7592L9.84596 21.5078C9.84485 21.5033 9.84336 21.4989 9.84188 21.4944C9.55739 20.6235 8.63559 20.053 7.6759 20.0761L7.67367 20.0679C7.28334 18.7543 5.92849 17.981 4.59927 18.313C4.30624 18.3858 4.12054 18.6744 4.17588 18.9712L6.08188 29.2298C6.08708 29.2562 6.09376 29.2826 6.1023 29.3078C6.558 30.6493 7.43115 31.8095 8.59436 32.6188L12.7577 35.4871C12.7674 35.4941 12.7778 35.5004 12.7878 35.5064C13.0611 35.6698 13.2635 35.9294 13.3553 36.2343L14.0008 39.6233L13.3764 40.1017C13.2353 40.2094 13.1529 40.3769 13.1529 40.5544V45.4293C13.1529 45.6391 13.268 45.8319 13.4529 45.9314C13.6379 46.031 13.8626 46.0209 14.0375 45.9051L21.7466 40.8118C21.9063 40.7063 22.0024 40.5273 22.0024 40.336V34.6551C22.0024 34.4379 21.8791 34.2396 21.6845 34.1434ZM11.18 24.1243C11.1815 24.1295 11.183 24.1347 11.1845 24.1395L11.3048 24.5469C11.1106 24.4626 10.9078 24.3987 10.6998 24.3568L10.3095 23.0543C10.7395 23.2701 11.0563 23.6596 11.18 24.1243ZM8.75555 21.8424L9.50911 24.3568C9.33566 24.3917 9.16594 24.4411 9.00141 24.5053L8.02761 21.2519C8.3667 21.334 8.6575 21.552 8.75517 21.8428L8.75555 21.8424ZM13.3913 34.5382L9.24282 31.6799C8.29279 31.0188 7.57637 30.074 7.19606 28.981L5.41411 19.3912C5.966 19.4681 6.4217 19.8603 6.58029 20.3943L7.91285 24.8488L8.00421 25.1445C7.9901 25.1582 7.9745 25.1708 7.96039 25.185C7.85046 25.2949 7.78992 25.4453 7.79326 25.6013C7.79698 25.7569 7.86383 25.9044 7.97896 26.0095L10.0651 27.9151C10.6667 28.4651 11.2171 29.069 11.7096 29.7189C11.8998 29.97 12.2574 30.0194 12.5089 29.8292C12.7599 29.6391 12.8093 29.2811 12.6192 29.03C12.0847 28.3247 11.4875 27.6696 10.835 27.0728L9.26213 25.6362C9.98895 25.2756 10.8651 25.4186 11.4392 25.9916L11.9507 26.503C11.9525 26.5053 11.9544 26.5075 11.9562 26.5094L11.9573 26.5108L13.7783 28.3318C14.2592 28.8113 14.842 29.1767 15.483 29.4007L15.8406 29.5254C17.5814 30.126 18.8404 31.6502 19.1019 33.473L19.1639 34.5504C19.1836 34.8832 19.2471 35.2122 19.3525 35.5283L15.015 38.8475L14.4717 35.9944C14.4683 35.9781 14.4646 35.9621 14.4602 35.9461C14.2949 35.3582 13.9127 34.8553 13.3913 34.5382ZM20.8615 40.0289L14.2938 44.3682V40.8363L20.8615 35.8102V40.0289Z" fill="#63316D"/>
<path d="M41.5433 18.3131C40.2141 17.9811 38.8589 18.7547 38.4689 20.0679L38.4663 20.0765C37.5066 20.0531 36.5848 20.6235 36.3007 21.4941C36.2992 21.4985 36.2977 21.503 36.2966 21.5074L36.2212 21.7596C35.0903 21.9082 34.1596 22.7223 33.8618 23.8235L33.2753 25.8075L31.5576 27.5252C31.1985 27.8832 30.7632 28.1562 30.2841 28.3237L29.9268 28.4481C27.7742 29.1916 26.2211 31.0809 25.9084 33.3367C25.9061 33.3523 25.9046 33.3679 25.9035 33.3835L25.8396 34.4843C25.8341 34.582 25.8226 34.6793 25.8062 34.7755L25.0571 34.2025C24.8848 34.0706 24.6523 34.0476 24.4577 34.1438C24.2631 34.24 24.1398 34.4383 24.1398 34.6556V40.3364C24.1398 40.5277 24.236 40.7067 24.396 40.8122L32.1047 45.9055C32.28 46.0213 32.5043 46.0314 32.6893 45.9318C32.8742 45.8323 32.9897 45.6396 32.9897 45.4297V40.5544C32.9897 40.3769 32.9069 40.2098 32.7662 40.1017L32.1415 39.6237L32.787 36.2347C32.8787 35.9294 33.0811 35.6698 33.3544 35.5064C33.3648 35.5001 33.3749 35.4938 33.3845 35.4875L37.549 32.6181C38.7118 31.8092 39.5846 30.649 40.0399 29.3078C40.0485 29.2826 40.0555 29.2566 40.0603 29.2299L41.9667 18.9712C42.0217 18.6745 41.8364 18.3859 41.5433 18.3131ZM37.387 21.8432C37.4851 21.5524 37.7759 21.334 38.115 21.2519L37.1416 24.5057C36.9767 24.4415 36.8069 24.3917 36.6335 24.3572L37.387 21.8432ZM34.9626 24.125C35.087 23.6604 35.4038 23.2712 35.8335 23.0554L35.4439 24.3583C35.2359 24.3999 35.0331 24.4637 34.8385 24.5484L34.9589 24.1406C34.9596 24.1347 34.9611 24.1295 34.9622 24.1243L34.9626 24.125ZM31.8488 44.3686L25.2807 40.0289V35.8102L31.8488 40.8363V44.3686ZM38.9462 28.981C38.5662 30.0737 37.8502 31.0185 36.9005 31.6796L32.7509 34.5382C32.2299 34.8554 31.8481 35.3586 31.6828 35.9462C31.6783 35.9621 31.6746 35.9781 31.6713 35.9944L31.1279 38.8475L26.7904 35.5283C26.8959 35.2119 26.9594 34.8832 26.9791 34.5501L27.0411 33.473C27.3026 31.6502 28.5612 30.126 30.3023 29.5251L30.6596 29.4007C31.301 29.1767 31.8833 28.8113 32.3643 28.3318L34.1853 26.5109C34.1864 26.5094 34.1875 26.5079 34.189 26.5064L34.7022 25.9924C35.2768 25.4186 36.1533 25.2752 36.8805 25.6362L35.3076 27.0728C34.6547 27.6696 34.0575 28.3248 33.5234 29.03C33.3333 29.2811 33.3827 29.6391 33.6337 29.8293C33.8848 30.0194 34.2428 29.97 34.433 29.719C34.9254 29.069 35.4758 28.4652 36.0779 27.9151L38.1636 26.0095C38.2788 25.9044 38.3456 25.7569 38.3493 25.6013C38.3527 25.4453 38.2925 25.2949 38.1822 25.185C38.1681 25.1709 38.1529 25.1583 38.1384 25.1445L38.2312 24.8441L39.5623 20.3944C39.7209 19.8607 40.1766 19.4685 40.7281 19.3916L38.9462 28.981Z" fill="#63316D"/>
</g>
<defs>
<clipPath id="clip0_62_745">
<rect width="46" height="46" fill="white"/>
</clipPath>
</defs>
</svg>
