<svg width="80" height="80" viewBox="0 0 80 80" fill="none" xmlns="http://www.w3.org/2000/svg">
<path d="M49.2051 43.9308C48.8757 43.9308 48.5536 43.8269 48.2796 43.632C48.0056 43.4371 47.7921 43.1602 47.666 42.8361C47.5398 42.512 47.5068 42.1553 47.571 41.8112C47.6352 41.4671 47.7938 41.151 48.0267 40.9029C48.2596 40.6547 48.5564 40.4857 48.8795 40.4172C49.2026 40.3487 49.5376 40.3838 49.842 40.518C50.1464 40.6522 50.4066 40.8795 50.5896 41.1712C50.7727 41.4628 50.8705 41.8058 50.8705 42.1566C50.87 42.6269 50.6944 43.0777 50.3822 43.4103C50.07 43.7429 49.6467 43.9301 49.2051 43.9308ZM30.7949 43.9308C30.4654 43.9308 30.1434 43.8269 29.8694 43.632C29.5954 43.4371 29.3819 43.1602 29.2557 42.8361C29.1296 42.512 29.0966 42.1553 29.1608 41.8112C29.225 41.4671 29.3836 41.151 29.6165 40.9029C29.8494 40.6547 30.1462 40.4857 30.4693 40.4172C30.7924 40.3487 31.1273 40.3838 31.4317 40.518C31.7361 40.6522 31.9963 40.8795 32.1794 41.1712C32.3625 41.4628 32.4603 41.8058 32.4603 42.1566C32.4599 42.6269 32.2843 43.0778 31.9721 43.4104C31.6599 43.743 31.2365 43.9301 30.7949 43.9308ZM49.8024 33.2466L53.1311 27.1072C53.1766 27.0233 53.2062 26.9307 53.2181 26.8347C53.23 26.7387 53.2241 26.6411 53.2006 26.5475C53.1771 26.4539 53.1365 26.3662 53.0812 26.2893C53.0259 26.2124 52.9569 26.1479 52.8781 26.0994C52.7994 26.0509 52.7124 26.0195 52.6222 26.0068C52.5321 25.9941 52.4404 26.0004 52.3525 26.0254C52.2647 26.0504 52.1823 26.0936 52.1101 26.1526C52.0379 26.2115 51.9773 26.285 51.9318 26.3688L48.561 32.5858C45.9835 31.333 43.0886 30.6355 39.9997 30.6355C36.9108 30.6355 34.0162 31.3341 31.4387 32.5858L28.0682 26.3688C28.0228 26.285 27.9622 26.2114 27.8901 26.1525C27.8179 26.0935 27.7356 26.0502 27.6477 26.0252C27.5599 26.0001 27.4683 25.9937 27.3781 26.0063C27.2879 26.0189 27.201 26.0503 27.1222 26.0988C27.0434 26.1472 26.9744 26.2116 26.919 26.2885C26.8636 26.3653 26.823 26.453 26.7995 26.5465C26.7759 26.6401 26.7699 26.7377 26.7818 26.8337C26.7936 26.9297 26.8231 27.0223 26.8686 27.1062L30.1976 33.2466C24.4816 36.5573 20.5719 42.7195 20 50H60C59.4275 42.7195 55.5181 36.5573 49.8024 33.2466Z" fill="#3DDC84"/>
</svg>
