<svg width="80" height="80" viewBox="0 0 80 80" fill="none" xmlns="http://www.w3.org/2000/svg">
<g clip-path="url(#clip0_110_543)">
<path d="M56.8723 32.1013C53.9229 33.9238 52.1012 37.0482 52.1012 40.5198C52.1012 44.4253 54.4434 47.9836 58 49.459C57.306 51.7155 56.2651 53.7985 54.9639 55.7078C53.0554 58.3983 51.0602 61.1755 48.1108 61.1755C45.1614 61.1755 44.294 59.4397 40.8241 59.4397C37.441 59.4397 36.2265 61.2623 33.4506 61.2623C30.6747 61.2623 28.7663 58.7454 26.5976 55.621C23.7349 51.2816 22.0867 46.2478 22 40.9537C22 32.3616 27.5518 27.7618 33.1036 27.7618C36.053 27.7618 38.4819 29.6712 40.3036 29.6712C42.0386 29.6712 44.8145 27.675 48.1108 27.675C51.5807 27.5882 54.8771 29.2372 56.8723 32.1013ZM46.5494 24.0299C48.0241 22.2941 48.8048 20.1244 48.8916 17.8679C48.8916 17.6075 48.8916 17.2604 48.8048 17C46.2892 17.2604 43.947 18.4754 42.2988 20.3848C40.8241 22.0338 39.9566 24.1167 39.8699 26.3732C39.8699 26.6336 39.8699 26.8939 39.9566 27.1543C40.1301 27.1543 40.3904 27.2411 40.5639 27.2411C42.906 27.0675 45.0747 25.8525 46.5494 24.0299Z" fill="black"/>
</g>
<defs>
<clipPath id="clip0_110_543">
<rect width="36" height="44.2623" fill="white" transform="translate(22 17)"/>
</clipPath>
</defs>
</svg>
