<svg width="80" height="80" viewBox="0 0 80 80" fill="none" xmlns="http://www.w3.org/2000/svg">
<circle cx="40" cy="40" r="20" fill="#3B9BD0"/>
<path d="M35.0367 27.1674H27.2L29.2897 53.2899L40 56.4246L50.7102 53.2899L52.8 27.1674H44.9632L39.7387 25.6001L35.0367 27.1674Z" fill="white"/>
<path d="M37.4624 37.888V43.4944C37.4624 43.7504 37.5392 43.968 37.6928 44.1472C37.8464 44.3264 38.0448 44.4416 38.288 44.4928L38.96 44.6272V44.8H33.6608V44.6272L34.3328 44.4928C34.576 44.4416 34.7744 44.3264 34.928 44.1472C35.0816 43.968 35.1584 43.7504 35.1584 43.4944V32.6656C35.1584 32.4096 35.0816 32.192 34.928 32.0128C34.7744 31.8336 34.576 31.7184 34.3328 31.6672L33.6608 31.5328V31.36H38.96V31.5328L38.288 31.6672C38.0448 31.7184 37.8464 31.8336 37.6928 32.0128C37.5392 32.192 37.4624 32.4096 37.4624 32.6656V37.504H42.3968V32.6656C42.3968 32.4096 42.32 32.192 42.1664 32.0128C42.0128 31.8336 41.8144 31.7184 41.5712 31.6672L40.8992 31.5328V31.36H46.1984V31.5328L45.5264 31.6672C45.2832 31.7184 45.0848 31.8336 44.9312 32.0128C44.7776 32.192 44.7008 32.4096 44.7008 32.6656V43.4944C44.7008 43.7504 44.7776 43.968 44.9312 44.1472C45.0848 44.3264 45.2832 44.4416 45.5264 44.4928L46.1984 44.6272V44.8H40.8992V44.6272L41.5712 44.4928C41.8144 44.4416 42.0128 44.3264 42.1664 44.1472C42.32 43.968 42.3968 43.7504 42.3968 43.4944V37.888H37.4624Z" fill="black"/>
<path d="M33.8293 47.1024C34.0309 47.1024 34.2101 47.1472 34.3669 47.2368C34.5237 47.3232 34.6453 47.4528 34.7317 47.6256C34.8213 47.7952 34.8661 48 34.8661 48.24V49.8H34.1941V48.3312C34.1941 48.12 34.1413 47.9584 34.0357 47.8464C33.9301 47.7312 33.7861 47.6736 33.6037 47.6736C33.4181 47.6736 33.2709 47.7312 33.1621 47.8464C33.0565 47.9584 33.0037 48.12 33.0037 48.3312V49.8H32.3317V46.248H33.0037V47.472C33.0901 47.3568 33.2053 47.2672 33.3493 47.2032C33.4933 47.136 33.6533 47.1024 33.8293 47.1024ZM38.0491 47.1408L36.4027 51.0576H35.6875L36.2635 49.7328L35.1979 47.1408H35.9515L36.6379 48.9984L37.3339 47.1408H38.0491ZM39.0834 47.5296C39.1698 47.4016 39.2882 47.2976 39.4386 47.2176C39.5922 47.1376 39.7666 47.0976 39.9618 47.0976C40.189 47.0976 40.3938 47.1536 40.5762 47.2656C40.7618 47.3776 40.9074 47.5376 41.013 47.7456C41.1218 47.9504 41.1762 48.1888 41.1762 48.4608C41.1762 48.7328 41.1218 48.9744 41.013 49.1856C40.9074 49.3936 40.7618 49.5552 40.5762 49.6704C40.3938 49.7856 40.189 49.8432 39.9618 49.8432C39.7634 49.8432 39.589 49.8048 39.4386 49.728C39.2914 49.648 39.173 49.5456 39.0834 49.4208V49.8H38.4114V46.248H39.0834V47.5296ZM40.4898 48.4608C40.4898 48.3008 40.4562 48.1632 40.389 48.048C40.325 47.9296 40.2386 47.84 40.1298 47.7792C40.0242 47.7184 39.909 47.688 39.7842 47.688C39.6626 47.688 39.5474 47.72 39.4386 47.784C39.333 47.8448 39.2466 47.9344 39.1794 48.0528C39.1154 48.1712 39.0834 48.3104 39.0834 48.4704C39.0834 48.6304 39.1154 48.7696 39.1794 48.888C39.2466 49.0064 39.333 49.0976 39.4386 49.1616C39.5474 49.2224 39.6626 49.2528 39.7842 49.2528C39.909 49.2528 40.0242 49.2208 40.1298 49.1568C40.2386 49.0928 40.325 49.0016 40.389 48.8832C40.4562 48.7648 40.4898 48.624 40.4898 48.4608ZM42.3365 47.5536C42.4229 47.4128 42.5349 47.3024 42.6725 47.2224C42.8133 47.1424 42.9733 47.1024 43.1525 47.1024V47.808H42.9749C42.7637 47.808 42.6037 47.8576 42.4949 47.9568C42.3893 48.056 42.3365 48.2288 42.3365 48.4752V49.8H41.6645V47.1408H42.3365V47.5536ZM43.9459 46.824C43.8275 46.824 43.7283 46.7872 43.6483 46.7136C43.5715 46.6368 43.5331 46.5424 43.5331 46.4304C43.5331 46.3184 43.5715 46.2256 43.6483 46.152C43.7283 46.0752 43.8275 46.0368 43.9459 46.0368C44.0643 46.0368 44.1619 46.0752 44.2387 46.152C44.3187 46.2256 44.3587 46.3184 44.3587 46.4304C44.3587 46.5424 44.3187 46.6368 44.2387 46.7136C44.1619 46.7872 44.0643 46.824 43.9459 46.824ZM44.2771 47.1408V49.8H43.6051V47.1408H44.2771ZM44.7683 48.4608C44.7683 48.192 44.8211 47.9536 44.9267 47.7456C45.0355 47.5376 45.1827 47.3776 45.3683 47.2656C45.5539 47.1536 45.7603 47.0976 45.9875 47.0976C46.1603 47.0976 46.3251 47.136 46.4819 47.2128C46.6387 47.2864 46.7635 47.3856 46.8563 47.5104V46.248H47.5379V49.8H46.8563V49.4064C46.7731 49.5376 46.6563 49.6432 46.5059 49.7232C46.3555 49.8032 46.1811 49.8432 45.9827 49.8432C45.7587 49.8432 45.5539 49.7856 45.3683 49.6704C45.1827 49.5552 45.0355 49.3936 44.9267 49.1856C44.8211 48.9744 44.7683 48.7328 44.7683 48.4608ZM46.8611 48.4704C46.8611 48.3072 46.8291 48.168 46.7651 48.0528C46.7011 47.9344 46.6147 47.8448 46.5059 47.784C46.3971 47.72 46.2803 47.688 46.1555 47.688C46.0307 47.688 45.9155 47.7184 45.8099 47.7792C45.7043 47.84 45.6179 47.9296 45.5507 48.048C45.4867 48.1632 45.4547 48.3008 45.4547 48.4608C45.4547 48.6208 45.4867 48.7616 45.5507 48.8832C45.6179 49.0016 45.7043 49.0928 45.8099 49.1568C45.9187 49.2208 46.0339 49.2528 46.1555 49.2528C46.2803 49.2528 46.3971 49.2224 46.5059 49.1616C46.6147 49.0976 46.7011 49.008 46.7651 48.8928C46.8291 48.7744 46.8611 48.6336 46.8611 48.4704Z" fill="black"/>
</svg>
