<svg width="80" height="80" viewBox="0 0 80 80" fill="none" xmlns="http://www.w3.org/2000/svg">
<path d="M61 39.7938C61 36.9984 57.5157 34.3492 52.1737 32.7063C53.4064 27.2359 52.8585 22.8837 50.4444 21.4903C49.8879 21.1634 49.2373 21.0086 48.5267 21.0086V22.9267C48.9205 22.9267 49.2373 23.0041 49.5026 23.1503C50.6669 23.8212 51.172 26.3758 50.7782 29.6615C50.6841 30.47 50.53 31.3215 50.3416 32.1903C48.6637 31.7774 46.8316 31.4591 44.9054 31.2527C43.7497 29.6615 42.5512 28.2165 41.3441 26.9521C44.1349 24.3459 46.7546 22.9181 48.5353 22.9181V21C46.181 21 43.0991 22.6858 39.9829 25.6103C36.8667 22.7031 33.7848 21.0344 31.4305 21.0344V22.9525C33.2026 22.9525 35.8308 24.3717 38.6217 26.9607C37.4232 28.2251 36.2246 29.6615 35.086 31.2527C33.1512 31.4591 31.3192 31.7774 29.6413 32.1989C29.4444 31.3387 29.2988 30.5044 29.1961 29.7045C28.7937 26.4188 29.2903 23.8642 30.446 23.1847C30.7028 23.0299 31.0367 22.9611 31.4305 22.9611V21.043C30.7114 21.043 30.0607 21.1978 29.4957 21.5247C27.0901 22.9181 26.5508 27.2617 27.7921 32.7149C22.4672 34.3664 19 37.007 19 39.7938C19 42.5892 22.4843 45.2384 27.8263 46.8812C26.5936 52.3516 27.1415 56.7039 29.5556 58.0973C30.1121 58.4241 30.7627 58.5789 31.4819 58.5789C33.8361 58.5789 36.9181 56.8931 40.0342 53.9687C43.1504 56.8759 46.2324 58.5445 48.5866 58.5445C49.3057 58.5445 49.9564 58.3897 50.5214 58.0629C52.927 56.6695 53.4664 52.3258 52.225 46.8726C57.5328 45.2298 61 42.5806 61 39.7938ZM49.8536 34.0567C49.5369 35.1663 49.1431 36.3103 48.6979 37.4542C48.3469 36.7661 47.9788 36.078 47.5764 35.3899C47.1826 34.7018 46.7631 34.0309 46.3437 33.3772C47.5593 33.5579 48.7322 33.7815 49.8536 34.0567ZM45.9327 43.2171C45.265 44.3783 44.5801 45.4792 43.8695 46.5028C42.594 46.6146 41.3013 46.6748 40 46.6748C38.7073 46.6748 37.4146 46.6146 36.1476 46.5114C35.437 45.4878 34.7436 44.3955 34.0758 43.2429C33.4252 42.1161 32.8345 40.9721 32.2951 39.8196C32.8259 38.667 33.4252 37.5144 34.0673 36.3877C34.735 35.2265 35.4199 34.1255 36.1305 33.102C37.406 32.9902 38.6987 32.93 40 32.93C41.2927 32.93 42.5854 32.9902 43.8524 33.0934C44.563 34.1169 45.2564 35.2093 45.9242 36.3619C46.5748 37.4886 47.1655 38.6326 47.7049 39.7852C47.1655 40.9377 46.5748 42.0903 45.9327 43.2171ZM48.6979 42.0989C49.1602 43.2515 49.554 44.4041 49.8793 45.5222C48.7578 45.7975 47.5764 46.0297 46.3522 46.2103C46.7717 45.548 47.1912 44.8685 47.585 44.1718C47.9788 43.4837 48.3469 42.787 48.6979 42.0989ZM40.0171 51.2765C39.221 50.4507 38.4248 49.5304 37.6372 48.5241C38.4077 48.5585 39.1953 48.5843 39.9914 48.5843C40.7962 48.5843 41.5923 48.5671 42.3714 48.5241C41.6009 49.5304 40.8047 50.4507 40.0171 51.2765ZM33.6478 46.2103C32.4321 46.0297 31.2593 45.8061 30.1378 45.5308C30.4545 44.4213 30.8483 43.2773 31.2935 42.1333C31.6445 42.8214 32.0126 43.5095 32.415 44.1976C32.8174 44.8857 33.2283 45.5566 33.6478 46.2103ZM39.9743 28.3111C40.7705 29.1368 41.5667 30.0571 42.3543 31.0635C41.5838 31.0291 40.7962 31.0033 40 31.0033C39.1953 31.0033 38.3991 31.0205 37.6201 31.0635C38.3905 30.0571 39.1867 29.1368 39.9743 28.3111ZM33.6392 33.3772C33.2197 34.0395 32.8002 34.719 32.4064 35.4157C32.0126 36.1038 31.6445 36.7919 31.2935 37.48C30.8312 36.3275 30.4374 35.1749 30.1121 34.0567C31.2336 33.7901 32.415 33.5579 33.6392 33.3772ZM25.8916 44.146C22.861 42.8472 20.9005 41.1442 20.9005 39.7938C20.9005 38.4434 22.861 36.7317 25.8916 35.4415C26.6278 35.1233 27.4325 34.8394 28.2629 34.5728C28.7509 36.2587 29.393 38.0133 30.1892 39.811C29.4015 41.6 28.768 43.3461 28.2886 45.0233C27.4411 44.7567 26.6364 44.4643 25.8916 44.146ZM30.4974 56.4372C29.3331 55.7663 28.828 53.2118 29.2218 49.9261C29.3159 49.1175 29.47 48.266 29.6584 47.3973C31.3363 47.8102 33.1684 48.1284 35.0946 48.3348C36.2503 49.9261 37.4488 51.3711 38.6559 52.6355C35.8651 55.2417 33.2454 56.6695 31.4647 56.6695C31.0795 56.6609 30.7542 56.5835 30.4974 56.4372ZM50.8039 49.8831C51.2063 53.1687 50.7097 55.7233 49.554 56.4028C49.2972 56.5577 48.9633 56.6265 48.5695 56.6265C46.7974 56.6265 44.1692 55.2073 41.3783 52.6183C42.5768 51.3539 43.7754 49.9175 44.914 48.3262C46.8488 48.1198 48.6808 47.8016 50.3587 47.3801C50.5556 48.2488 50.7097 49.0831 50.8039 49.8831ZM54.0999 44.146C53.3636 44.4643 52.5589 44.7481 51.7285 45.0147C51.2405 43.3289 50.5984 41.5742 49.8023 39.7766C50.5899 37.9875 51.2234 36.2415 51.7028 34.5642C52.5503 34.8308 53.3551 35.1233 54.1084 35.4415C57.139 36.7403 59.0995 38.4434 59.0995 39.7938C59.0909 41.1442 57.1305 42.8558 54.0999 44.146Z" fill="#61DAFB"/>
<path d="M39.9912 43.7246C42.1519 43.7246 43.9036 41.9647 43.9036 39.7938C43.9036 37.6229 42.1519 35.863 39.9912 35.863C37.8305 35.863 36.0789 37.6229 36.0789 39.7938C36.0789 41.9647 37.8305 43.7246 39.9912 43.7246Z" fill="#61DAFB"/>
</svg>
