<svg width="80" height="80" viewBox="0 0 80 80" fill="none" xmlns="http://www.w3.org/2000/svg">
<path d="M40.0475 31.3918C35.2597 31.3918 31.3777 35.2694 31.3777 40.0517C31.3777 44.834 35.2597 48.7116 40.0475 48.7116C44.8353 48.7116 48.7173 44.834 48.7173 40.0517C48.6914 35.2694 44.8094 31.3918 40.0475 31.3918Z" fill="#3880FF"/>
<path d="M52.4701 32.1673C54.657 32.1673 56.4298 30.3965 56.4298 28.2122C56.4298 26.0278 54.657 24.2571 52.4701 24.2571C50.2833 24.2571 48.5105 26.0278 48.5105 28.2122C48.5105 30.3965 50.2833 32.1673 52.4701 32.1673Z" fill="#3880FF"/>
<path d="M57.3356 32.1673L57.1803 31.8054L56.9215 32.1156C56.2745 32.8395 55.4463 33.4082 54.5405 33.7442L54.2817 33.8476L54.3852 34.1061C55.1875 35.9932 55.5757 38.0095 55.5757 40.0517C55.5757 48.6082 48.614 55.5878 40.0218 55.5878C31.4296 55.5878 24.4938 48.6082 24.4938 40.0517C24.4938 31.4952 31.4555 24.5156 40.0477 24.5156C42.3769 24.5156 44.6026 25.0327 46.6989 26.015L46.9318 26.1184L47.0353 25.8599C47.4235 24.9551 48.0187 24.1796 48.7951 23.5592L49.1057 23.3007L48.7434 23.1197C46.026 21.7238 43.1015 21 40.0218 21C29.5404 21 21 29.5306 21 40C21 50.4694 29.5404 59 40.0218 59C50.5032 59 59.0436 50.4694 59.0436 40C59.0436 37.3116 58.4743 34.6748 57.3356 32.1673Z" fill="#3880FF"/>
</svg>
