<svg width="80" height="80" viewBox="0 0 80 80" fill="none" xmlns="http://www.w3.org/2000/svg">
<path d="M57.9975 31.9153C57.9954 31.5552 57.9914 31.1954 57.9814 30.8349C57.9603 30.0509 57.9137 29.2597 57.7735 28.4841C57.6313 27.6963 57.3988 26.9639 57.0325 26.2483C56.6729 25.5455 56.2027 24.9025 55.6419 24.3448C55.0812 23.7871 54.4345 23.3197 53.7275 22.9619C53.0085 22.598 52.2718 22.367 51.4803 22.2255C50.6998 22.0858 49.9042 22.0397 49.1151 22.0185C48.7528 22.0087 48.3909 22.0046 48.0287 22.0024C47.5988 22 47.1686 22 46.7388 22H37.2091H33.2612C32.831 22 32.4013 22 31.9716 22.0025C31.6093 22.0047 31.2469 22.0088 30.8851 22.0186C30.6879 22.0239 30.4902 22.0307 30.2924 22.0402C29.6991 22.0687 29.1049 22.1208 28.5199 22.2256C27.9263 22.3317 27.3634 22.4882 26.8158 22.7133C26.6333 22.7883 26.4524 22.871 26.2726 22.9619C25.7424 23.2303 25.2459 23.5603 24.7944 23.9437C24.6439 24.0716 24.4983 24.2053 24.3582 24.3447C23.7973 24.9024 23.3271 25.5455 22.9675 26.2482C22.6011 26.9638 22.369 27.6963 22.2267 28.484C22.0866 29.2597 22.0401 30.0508 22.0189 30.8349C22.0089 31.1953 22.0048 31.5552 22.0024 31.9152C21.9997 32.3428 22 32.7704 22 33.1979V39.0336V46.5996C22 47.0275 21.9996 47.4547 22.0024 47.8826C22.0048 48.2426 22.0089 48.6025 22.0189 48.9623C22.0401 49.7468 22.0866 50.5381 22.2267 51.3135C22.369 52.101 22.6011 52.8341 22.9675 53.5495C23.3271 54.2524 23.7973 54.8953 24.3582 55.4527C24.9187 56.0106 25.5656 56.478 26.2727 56.836C26.9918 57.2 27.7284 57.4307 28.5201 57.5721C29.3001 57.7117 30.0963 57.7582 30.8852 57.7791C31.247 57.7887 31.6093 57.793 31.9716 57.795C32.4014 57.7981 32.8311 57.7977 33.2613 57.7977H46.7388C47.1686 57.7977 47.5988 57.7981 48.0286 57.795C48.3908 57.793 48.7527 57.7887 49.115 57.7791C49.9041 57.7582 50.6998 57.7117 51.4802 57.5721C52.2717 57.4307 53.0084 57.1999 53.7274 56.836C54.4345 56.478 55.0812 56.0106 55.6418 55.4527C56.2027 54.8952 56.6729 54.2524 57.0324 53.5495C57.3988 52.8341 57.6312 52.101 57.7735 51.3135C57.9136 50.5381 57.9602 49.7468 57.9813 48.9623C57.9912 48.6025 57.9952 48.2427 57.9974 47.8826C58.0002 47.4547 58 47.0275 58 46.5996V33.1979C58 32.7704 58.0002 32.3428 57.9975 31.9153Z" fill="#F05138"/>
<path d="M50.5259 44.0971C50.525 44.096 50.5243 44.0953 50.5233 44.0942C50.5632 43.9595 50.6043 43.8255 50.6391 43.6874C52.1333 37.7679 48.4866 30.7694 42.3157 27.0845C45.0199 30.7298 46.2156 35.1452 45.1533 39.0065C45.0585 39.3509 44.9446 39.6815 44.8187 40.0027C44.6821 39.9135 44.5099 39.8121 44.2788 39.6854C44.2788 39.6854 38.1403 35.9166 31.4872 29.2505C31.3126 29.0755 35.0349 34.5408 39.2593 38.9788C37.269 37.8681 31.7225 33.8552 28.2111 30.6595C28.6425 31.3749 29.1556 32.0638 29.7197 32.727C32.6519 36.4248 36.476 40.9873 41.0573 44.4907C37.8384 46.4495 33.29 46.6018 28.7614 44.4928C27.6413 43.9708 26.5883 43.341 25.6135 42.6254C27.5305 45.6744 30.4829 48.305 34.0762 49.8408C38.3614 51.672 42.6227 51.5478 45.7966 49.8708L45.7941 49.8744C45.8086 49.8653 45.827 49.8554 45.842 49.8461C45.9723 49.7765 46.1017 49.7055 46.2282 49.6306C47.7531 48.8435 50.7651 48.045 52.3818 51.1729C52.7777 51.9384 53.619 47.8817 50.5259 44.0971Z" fill="white"/>
</svg>
