<svg width="60" height="56" viewBox="0 0 60 56" fill="none" xmlns="http://www.w3.org/2000/svg">
<path d="M53.7089 35.3633L49.4781 42.6825C49.1925 43.1902 48.5473 43.37 48.0396 43.0738C47.7921 42.9215 44.949 41.2937 44.6973 41.1488C42.4762 43.4123 39.705 45.1892 36.6271 46.2575H36.6165C36.056 46.4585 35.4848 46.6383 34.9031 46.7863V50.6575C34.9031 51.2392 34.4271 51.7152 33.8454 51.7152H25.3838C24.8021 51.7152 24.3261 51.2392 24.3261 50.6575V46.7863C20.7067 45.8651 17.2375 43.9115 14.5319 41.1488C14.2802 41.2937 11.4371 42.9215 11.1896 43.0738C10.6819 43.37 10.0367 43.1902 9.75113 42.6825L5.52036 35.3633C5.22421 34.8556 5.39344 34.2104 5.90113 33.9142L9.24344 31.9786C8.17517 28.0969 8.22805 24.3632 9.24344 20.6825L5.90113 18.7469C5.39344 18.4507 5.22421 17.8055 5.52036 17.2979L9.75113 9.97862C10.0367 9.47093 10.6819 9.29112 11.1896 9.58727L14.5319 11.5123C17.1761 8.81516 20.5502 6.84785 24.3261 5.87477V2.00362C24.3261 1.42188 24.8021 0.945923 25.3838 0.945923H33.8454C34.4271 0.945923 34.9031 1.42188 34.9031 2.00362V5.87477C38.679 6.84785 42.0531 8.81516 44.6973 11.5123L48.0396 9.58727C48.5473 9.29112 49.1925 9.47093 49.4781 9.97862L53.7089 17.2979C54.005 17.8055 53.8358 18.4507 53.3281 18.7469L49.9858 20.6825C51.054 24.5642 51.0012 28.2979 49.9858 31.9786L53.3281 33.9142C53.8358 34.2104 54.005 34.8556 53.7089 35.3633Z" fill="#0A5078"/>
<path d="M47.0872 41.6566L46.5372 42.2066C45.8074 41.7835 45.0458 41.3499 44.6968 41.1489C42.4756 43.4124 39.7045 45.1893 36.6266 46.2576C36.9122 45.6441 37.3247 45.0729 37.8218 44.5758L43.8189 38.5681C44.6545 37.7431 46.0083 37.5845 46.9179 38.3249C47.9651 39.1816 48.0179 40.7258 47.0872 41.6566Z" fill="#023058"/>
<path d="M22.602 46.2469C21.6077 45.919 20.6558 45.4959 19.7356 45.0094H19.725C17.8 43.994 16.0443 42.693 14.5318 41.1488C14.1827 41.3497 13.4212 41.7834 12.6914 42.2065L12.1414 41.6565C11.2106 40.7257 11.2635 39.1815 12.3106 38.3247C13.2202 37.5843 14.5741 37.743 15.4096 38.568L21.4068 44.5757C21.9039 45.0622 22.3058 45.6334 22.602 46.2469Z" fill="#023058"/>
<path d="M56.7583 34.8206C55.7186 34.9899 54.9983 35.9672 54.9983 37.0206V42.5957C54.9983 42.9701 54.8005 43.3171 54.4779 43.5075L46.908 47.9667C46.1021 48.4416 45.0497 48.2364 44.487 47.4453C43.9571 46.7006 44.1305 45.6599 44.7768 45.0136L47.0878 42.7036C48.0175 41.7739 47.9604 40.2297 46.9165 39.3751C46.0079 38.6315 44.6551 38.7912 43.8248 39.6204L37.8203 45.625C36.6283 46.8159 35.9598 48.43 35.9598 50.1128V55.9459H46.5368V55.5303C46.5368 54.4683 47.0677 53.4773 47.9509 52.8892L58.2856 46.0078C58.8748 45.6154 59.2291 44.9544 59.2291 44.2468V36.9075C59.2291 35.6224 58.0836 34.6059 56.7583 34.8206Z" fill="#F0C8A0"/>
<path d="M15.4049 39.6204C14.5746 38.7901 13.2219 38.6315 12.3133 39.3751C11.2683 40.2297 11.2112 41.7739 12.142 42.7036L14.453 45.0136C15.0993 45.6599 15.2717 46.7006 14.7428 47.4453C14.1801 48.2353 13.1288 48.4416 12.3218 47.9667L4.75079 43.5075C4.42819 43.3171 4.23041 42.9712 4.23041 42.5957V37.0206C4.23041 35.9672 3.51012 34.9899 2.4704 34.8206C1.14512 34.6059 -0.000366211 35.6224 -0.000366211 36.9075V44.2468C-0.000366211 44.9544 0.353961 45.6154 0.943096 46.0078L11.2778 52.8892C12.161 53.4773 12.692 54.4683 12.692 55.5303V55.9459H23.2689V50.1128C23.2689 48.43 22.6004 46.8159 21.4105 45.625L15.4049 39.6204Z" fill="#F0C8A0"/>
<path d="M29.6155 42.1961C38.0856 42.1961 44.952 35.3296 44.952 26.8595C44.952 18.3894 38.0856 11.5229 29.6155 11.5229C21.1453 11.5229 14.2789 18.3894 14.2789 26.8595C14.2789 35.3296 21.1453 42.1961 29.6155 42.1961Z" fill="#F0F0F0"/>
<path d="M38.2003 20.8231L36.7047 19.3275C36.2911 18.9139 35.6216 18.9139 35.2091 19.3275L27.4954 27.0413L24.0187 23.5646C23.6052 23.1511 22.9357 23.1511 22.5232 23.5646L21.0276 25.0602C20.614 25.4738 20.614 26.1433 21.0276 26.5558L26.7486 32.2768C27.1622 32.6904 27.8317 32.6904 28.2442 32.2768C31.3433 29.1778 30.1089 30.4121 38.2013 22.3197C38.6128 21.9062 38.6128 21.2356 38.2003 20.8231Z" fill="#D2D2D2"/>
<path d="M26.7467 33.3348L21.0256 27.6137C20.6121 27.2001 20.6121 26.5306 21.0256 26.1181L22.5212 24.6225C22.9348 24.209 23.6043 24.209 24.0168 24.6225L30.4856 31.0914L28.2412 33.3358C27.8298 33.7473 27.1592 33.7473 26.7467 33.3348Z" fill="#00A0C8"/>
<path d="M26.7508 33.3345L24.5063 31.0901L35.2123 20.3841C35.6259 19.9706 36.2954 19.9706 36.7079 20.3841L38.2035 21.8797C38.617 22.2933 38.617 22.9628 38.2035 23.3753L28.2464 33.3324C27.8339 33.747 27.1633 33.747 26.7508 33.3345Z" fill="#C80A50"/>
</svg>
