<svg width="80" height="80" viewBox="0 0 80 80" fill="none" xmlns="http://www.w3.org/2000/svg">
<path d="M49.205 2.49361V1.28376C49.205 0.766577 48.7854 0.347046 48.2683 0.347046C47.7511 0.347046 47.3315 0.766577 47.3315 1.28376V2.49361C47.3315 3.0108 47.7511 3.43033 48.2683 3.43033C48.7854 3.43033 49.205 3.0108 49.205 2.49361Z" fill="#1D1A45"/>
<path d="M14.5822 55.5633C12.8722 54.2642 10.2822 54.3691 8.73863 55.9137L2.45504 62.1961C2.27941 62.3717 2.18066 62.6095 2.18066 62.8583C2.18066 63.107 2.27941 63.3448 2.45504 63.5205L18.3139 79.3783C18.68 79.7444 19.2725 79.7442 19.6385 79.3783L25.9208 73.0959C27.4371 71.5797 27.6243 69.2298 26.4838 67.5069L27.41 66.5806C28.315 65.6756 29.6774 65.372 30.886 65.8134L37.9307 68.3734C45.0997 70.9756 49.8163 66.7833 58.4961 64.1498C60.7744 63.3034 62.788 61.8569 64.3199 59.9628L76.8224 44.4625C77.7408 43.3172 78.0433 41.85 77.6518 40.4364C77.2602 39.0253 76.2455 37.9239 74.8796 37.4191C73.2147 36.7787 71.1463 37.2337 69.873 38.5289L58.576 49.7908C57.2036 47.923 54.8861 46.8827 52.5163 47.22L45.6619 48.2067C43.2958 48.5422 40.9224 48.1336 38.8002 47.0187L38.5868 46.9053C34.0863 44.5367 28.5613 44.9844 24.5097 48.0494L14.5822 55.5633ZM24.5964 71.7716L18.9763 77.3917L4.44191 62.8584L10.0632 57.2383C11.0316 56.2662 12.7232 56.2675 13.6916 57.2383L24.5964 68.1419C25.5966 69.1433 25.5966 70.7702 24.5964 71.7716ZM37.7124 48.5631L37.9271 48.6766C40.4018 49.9755 43.1679 50.4523 45.9266 50.0608L52.7822 49.0741C54.7714 48.7911 56.7144 49.8656 57.5436 51.6853C57.7779 52.1914 57.7741 52.7744 57.5339 53.283C57.29 53.7989 56.835 54.177 56.285 54.322L43.3336 57.7066C42.8324 57.837 42.5335 58.3494 42.6641 58.8494C42.795 59.3512 43.3091 59.6492 43.8069 59.5189L56.7594 56.1344C57.8474 55.8478 58.7474 55.1001 59.228 54.0817C59.606 53.2814 59.6758 52.3898 59.463 51.5516L71.2025 39.8498C71.9733 39.0631 73.1918 38.7766 74.2186 39.1717C75.0249 39.4705 75.6188 40.1133 75.8469 40.9378C76.0761 41.7623 75.8982 42.6197 75.3627 43.2881L62.8627 58.7861C61.543 60.418 59.8075 61.6644 57.8427 62.395C48.88 65.1717 44.8613 68.892 38.57 66.6125L31.5254 64.0525C29.6349 63.3658 27.5018 63.8403 26.0858 65.2562L25.2229 66.1192L15.9664 56.8637L25.6394 49.5437C29.1152 46.9166 33.8535 46.5323 37.7124 48.5631Z" fill="#1D1A45"/>
<path d="M32.495 21.1235L47.5222 40.7012C47.9256 41.2281 48.667 41.1439 49.0076 40.7012L64.0422 21.1235C64.3298 20.7493 64.2442 20.4253 64.069 20.0246C62.2592 17.4275 59.258 13.0862 59.0211 12.782C58.8333 12.5425 58.5448 12.4178 58.2903 12.4178C45.6881 12.4054 50.2747 12.4081 38.2492 12.4081C38.248 12.4081 38.248 12.4081 38.248 12.4081C37.9539 12.4081 37.6869 12.5514 37.5119 12.7793C37.5015 12.7925 37.4842 12.7967 37.4747 12.8106L32.4681 20.015C32.2445 20.3351 32.2686 20.8287 32.495 21.1235ZM42.5325 21.495L46.2281 35.939L35.1378 21.4896C35.2661 21.4896 43.0275 21.4953 42.5325 21.495ZM61.5031 19.616C61.3767 19.616 54.6562 19.6134 55.0801 19.6135L58.2906 14.9937L61.5031 19.616ZM45.0595 19.6137L48.27 14.9939L51.4825 19.6162C51.3562 19.616 44.6358 19.6135 45.0595 19.6137ZM52.0712 21.4945L48.2673 36.352L44.4645 21.4895C44.5926 21.4895 52.5662 21.4948 52.0712 21.4945ZM54.0058 21.4895C54.134 21.4895 61.8908 21.494 61.3959 21.4937L50.3092 35.9304L54.0058 21.4895ZM56.4878 14.29L53.2773 18.9098L50.0614 14.2826L56.4878 14.29ZM46.4672 14.29L43.2567 18.9098L40.0408 14.2826L46.4672 14.29ZM38.2444 14.9864L41.462 19.616C41.3356 19.616 34.6044 19.6134 35.0281 19.6135L38.2444 14.9864Z" fill="#1D1A45"/>
<path d="M69.2195 23.1726C69.7367 23.1726 70.1563 22.7531 70.1563 22.2359C70.1563 21.7187 69.7367 21.2992 69.2195 21.2992H68.0109C67.4938 21.2992 67.0742 21.7187 67.0742 22.2359C67.0742 22.7531 67.4938 23.1726 68.0109 23.1726H69.2195Z" fill="#1D1A45"/>
<path d="M28.5262 23.1714C29.0434 23.1714 29.4629 22.7519 29.4629 22.2347C29.4629 21.7175 29.0434 21.298 28.5262 21.298H27.3176C26.8004 21.298 26.3809 21.7175 26.3809 22.2347C26.3809 22.7519 26.8004 23.1714 27.3176 23.1714H28.5262Z" fill="#1D1A45"/>
<path d="M62.8907 8.93824L63.7457 8.08324C64.1117 7.7173 64.1117 7.12464 63.7457 6.75871C63.3798 6.39277 62.7871 6.39277 62.4212 6.75871L61.5662 7.61371C61.2003 7.97964 61.2003 8.5723 61.5662 8.93824C61.9321 9.30418 62.5248 9.30402 62.8907 8.93824Z" fill="#1D1A45"/>
<path d="M33.6461 35.5325L32.7911 36.3875C32.4251 36.7534 32.4251 37.3461 32.7911 37.712C33.1571 38.0781 33.7496 38.078 34.1156 37.712L34.9706 36.857C35.3365 36.4911 35.3365 35.8984 34.9706 35.5325C34.6046 35.1666 34.012 35.1666 33.6461 35.5325Z" fill="#1D1A45"/>
<path d="M61.5662 35.5325C61.2003 35.8984 61.2003 36.4911 61.5662 36.857L62.4212 37.712C62.7873 38.0781 63.3798 38.078 63.7457 37.712C64.1117 37.3461 64.1117 36.7534 63.7457 36.3875L62.8907 35.5325C62.5248 35.1666 61.9321 35.1666 61.5662 35.5325Z" fill="#1D1A45"/>
<path d="M34.9718 8.93702C35.3377 8.57108 35.3377 7.97842 34.9718 7.61249L34.1168 6.75749C33.7509 6.39155 33.1582 6.39155 32.7923 6.75749C32.4263 7.12342 32.4263 7.71608 32.7923 8.08202L33.6473 8.93702C34.0134 9.30295 34.6059 9.30295 34.9718 8.93702Z" fill="#1D1A45"/>
</svg>
