<svg width="80" height="80" viewBox="0 0 80 80" fill="none" xmlns="http://www.w3.org/2000/svg">
<g clip-path="url(#clip0_110_737)">
<path d="M80.9697 50.6667C80.8485 50.6667 80.6061 50.6667 80.4848 50.5455C80.3636 50.4243 80.2424 50.4243 80.1212 50.3031C80 50.1819 79.8788 50.0606 79.8788 49.9394C79.7576 49.8182 79.7576 49.697 79.7576 49.4546C79.7576 49.0909 79.8788 48.8485 80.1212 48.6061C80.2424 48.4849 80.3636 48.3637 80.4848 48.3637C80.9697 48.1212 81.4545 48.2425 81.8182 48.6061C82.0606 48.8485 82.1818 49.2122 82.1818 49.4546C82.1818 49.5758 82.1818 49.8182 82.0606 49.9394C81.9394 50.0606 81.9394 50.1819 81.8182 50.3031C81.697 50.4243 81.5757 50.5455 81.4545 50.5455C81.3333 50.5455 81.0909 50.6667 80.9697 50.6667Z" fill="#1D1A45"/>
<path d="M69.8181 58.4243H46.7878C46.0605 58.4243 45.5757 57.9395 45.5757 57.2122V43.5152C45.5757 41.2122 46.5454 38.9092 48.2424 37.2122C49.8181 35.5152 51.9999 34.5455 54.5454 34.5455C59.3939 34.5455 63.3939 38.5455 63.3939 43.394V49.4546C63.3939 51.1516 64.1211 52.8486 65.3333 54.0607C66.4242 55.2728 68.1211 56.0001 69.8181 56.0001C70.5454 56.0001 71.0302 56.4849 71.0302 57.2122C71.0302 57.9395 70.5454 58.4243 69.8181 58.4243ZM47.9999 56.0001H63.8787C63.7575 55.8789 63.7575 55.8789 63.6363 55.7577C61.9393 54.0607 60.9696 51.8789 60.9696 49.4546V43.394C60.9696 39.7577 58.1817 36.9698 54.5454 36.9698C52.7272 36.9698 51.1514 37.697 49.9393 38.9092C48.606 40.2425 47.9999 41.8183 47.9999 43.5152V56.0001Z" fill="#1D1A45"/>
<path d="M41.9394 77.9395H7.27276C3.87882 77.9395 1.21216 75.2728 1.21216 71.8789V40.6061C1.21216 37.2122 3.87882 34.5455 7.27276 34.5455H54.4243C55.1516 34.5455 55.6364 35.0304 55.6364 35.7577C55.6364 36.4849 55.1516 36.9698 54.4243 36.9698H7.27276C5.21216 36.9698 3.6364 38.5455 3.6364 40.6061V71.8789C3.6364 73.9395 5.21216 75.5152 7.27276 75.5152H41.9394C44 75.5152 45.5758 73.9395 45.5758 71.8789V57.2122C45.5758 56.4849 46.0606 56.0001 46.7879 56.0001C47.5152 56.0001 48 56.4849 48 57.2122V71.8789C48 75.2728 45.3334 77.9395 41.9394 77.9395Z" fill="#1D1A45"/>
<path d="M77.5758 47.6364C76.8485 47.6364 76.3636 47.1516 76.3636 46.4243V8.00006C76.3636 5.93945 74.7879 4.3637 72.7273 4.3637H37.8182C35.7576 4.3637 34.1818 5.93945 34.1818 8.00006V35.7576C34.1818 36.4849 33.697 36.9698 32.9697 36.9698C32.2424 36.9698 31.7576 36.4849 31.7576 35.7576V8.00006C31.7576 4.60612 34.4242 1.93945 37.8182 1.93945H72.7273C76.1212 1.93945 78.7879 4.60612 78.7879 8.00006V46.4243C78.7879 47.1516 78.303 47.6364 77.5758 47.6364Z" fill="#1D1A45"/>
<path d="M69.9394 58.5455C67.6364 58.5455 65.5758 57.697 63.6364 55.8788C61.9394 54.1819 60.9697 51.8788 60.9697 49.5758V46.4243C60.9697 45.697 61.4546 45.2122 62.1818 45.2122C62.9091 45.2122 63.394 45.697 63.394 46.4243V49.5758C63.394 51.2728 64.1212 52.9697 65.3334 54.1819C66.7879 55.5152 68.2425 56.1212 69.9394 56.1212C73.5758 56.1212 76.3637 53.3334 76.3637 49.697V46.5455C76.3637 45.8182 76.8485 45.3334 77.5758 45.3334C78.3031 45.3334 78.7879 45.8182 78.7879 46.5455V49.697C78.7879 54.5455 74.7879 58.5455 69.9394 58.5455Z" fill="#1D1A45"/>
<path d="M24.8485 72.7273C21.9394 72.7273 19.5151 70.3031 19.5151 67.394C19.5151 64.4849 21.9394 62.0607 24.8485 62.0607C27.7576 62.0607 30.1818 64.4849 30.1818 67.394C30.1818 70.3031 27.7576 72.7273 24.8485 72.7273ZM24.8485 64.4849C23.2727 64.4849 21.9394 65.8182 21.9394 67.394C21.9394 68.9698 23.2727 70.3031 24.8485 70.3031C26.4242 70.3031 27.7576 68.9698 27.7576 67.394C27.7576 65.8182 26.4242 64.4849 24.8485 64.4849Z" fill="#1D1A45"/>
<path d="M60.8485 10.6667H49.697C48.9697 10.6667 48.4849 10.1818 48.4849 9.45455C48.4849 8.72728 48.9697 8.24243 49.697 8.24243H60.8485C61.5758 8.24243 62.0606 8.72728 62.0606 9.45455C62.0606 10.1818 61.5758 10.6667 60.8485 10.6667Z" fill="#1D1A45"/>
<path d="M51.0304 27.6364H44.1213C43.394 27.6364 42.9092 27.1516 42.9092 26.4243V18.4243C42.9092 17.697 43.394 17.2122 44.1213 17.2122H51.0304C51.7577 17.2122 52.2425 17.697 52.2425 18.4243V26.4243C52.2425 27.1516 51.7577 27.6364 51.0304 27.6364ZM45.3334 25.2122H49.8183V19.6364H45.3334V25.2122Z" fill="#1D1A45"/>
<path d="M68.1212 27.6364H61.2121C60.4848 27.6364 60 27.1516 60 26.4243V18.4243C60 17.697 60.4848 17.2122 61.2121 17.2122H68.1212C68.8485 17.2122 69.3333 17.697 69.3333 18.4243V26.4243C69.3333 27.1516 68.8485 27.6364 68.1212 27.6364ZM62.4242 25.2122H66.9091V19.6364H62.4242V25.2122Z" fill="#1D1A45"/>
<path d="M35.7577 48.8486H13.8183C13.091 48.8486 12.6062 48.3637 12.6062 47.6364C12.6062 46.9092 13.091 46.4243 13.8183 46.4243H35.7577C36.485 46.4243 36.9698 46.9092 36.9698 47.6364C36.9698 48.3637 36.485 48.8486 35.7577 48.8486Z" fill="#1D1A45"/>
<path d="M35.7577 56.6061H13.8183C13.091 56.6061 12.6062 56.1213 12.6062 55.394C12.6062 54.6667 13.091 54.1819 13.8183 54.1819H35.7577C36.485 54.1819 36.9698 54.6667 36.9698 55.394C36.9698 56.1213 36.485 56.6061 35.7577 56.6061Z" fill="#1D1A45"/>
</g>
<defs>
<clipPath id="clip0_110_737">
<rect width="80" height="80" fill="white"/>
</clipPath>
</defs>
</svg>
