<svg width="69" height="69" viewBox="0 0 69 69" fill="none" xmlns="http://www.w3.org/2000/svg">
<path d="M46.3594 60.375H6.46875V8.625C6.46875 6.24234 8.39859 4.3125 10.7812 4.3125H46.9416C45.9173 5.45531 45.2812 6.96469 45.2812 8.625V27.4922C45.2812 28.0852 45.7664 28.5703 46.3594 28.5703C46.9523 28.5703 47.4375 28.0852 47.4375 27.4922V21.5625H57.1406C57.7336 21.5625 58.2188 21.0773 58.2188 20.4844V8.625C58.2188 5.05641 55.3186 2.15625 51.75 2.15625H10.7812C7.21266 2.15625 4.3125 5.05641 4.3125 8.625V61.4531C4.3125 62.0461 4.79766 62.5312 5.39062 62.5312H46.3594C46.9523 62.5312 47.4375 62.0461 47.4375 61.4531C47.4375 60.8602 46.9523 60.375 46.3594 60.375ZM56.0625 8.625V19.4062H47.4375V8.625C47.4375 6.24234 49.3673 4.3125 51.75 4.3125C54.1327 4.3125 56.0625 6.24234 56.0625 8.625Z" fill="#1D1A45"/>
<path d="M10.7812 28.0312H15.0938C15.6867 28.0312 16.1719 27.5461 16.1719 26.9531V16.1719C16.1719 15.5789 15.6867 15.0938 15.0938 15.0938H10.7812C10.1883 15.0938 9.70312 15.5789 9.70312 16.1719V26.9531C9.70312 27.5461 10.1883 28.0312 10.7812 28.0312ZM11.8594 17.25H14.0156V25.875H11.8594V17.25Z" fill="#1D1A45"/>
<path d="M23.7188 28.0312C24.3117 28.0312 24.7969 27.5461 24.7969 26.9531V11.8594C24.7969 11.2664 24.3117 10.7812 23.7188 10.7812H19.4062C18.8133 10.7812 18.3281 11.2664 18.3281 11.8594V26.9531C18.3281 27.5461 18.8133 28.0312 19.4062 28.0312H23.7188ZM20.4844 12.9375H22.6406V25.875H20.4844V12.9375Z" fill="#1D1A45"/>
<path d="M33.4219 26.9531V16.1719C33.4219 15.5789 32.9367 15.0938 32.3438 15.0938H28.0312C27.4383 15.0938 26.9531 15.5789 26.9531 16.1719V26.9531C26.9531 27.5461 27.4383 28.0312 28.0312 28.0312H32.3438C32.9367 28.0312 33.4219 27.5461 33.4219 26.9531ZM31.2656 25.875H29.1094V17.25H31.2656V25.875Z" fill="#1D1A45"/>
<path d="M36.6562 8.625C36.0633 8.625 35.5781 9.11016 35.5781 9.70312V26.9531C35.5781 27.5461 36.0633 28.0312 36.6562 28.0312H40.9688C41.5617 28.0312 42.0469 27.5461 42.0469 26.9531V9.70312C42.0469 9.11016 41.5617 8.625 40.9688 8.625H36.6562ZM39.8906 25.875H37.7344V10.7812H39.8906V25.875Z" fill="#1D1A45"/>
<path d="M16.1719 42.0469C16.1719 41.4539 15.6867 40.9688 15.0938 40.9688H10.7812C10.1883 40.9688 9.70312 41.4539 9.70312 42.0469V46.3594C9.70312 46.9523 10.1883 47.4375 10.7812 47.4375H15.0938C15.6867 47.4375 16.1719 46.9523 16.1719 46.3594V42.0469ZM14.0156 45.2812H11.8594V43.125H14.0156V45.2812Z" fill="#1D1A45"/>
<path d="M16.8618 31.5136C16.3982 31.1362 15.719 31.1901 15.3417 31.6537L12.5817 34.9743L11.6113 33.81C11.234 33.3572 10.5548 33.2925 10.0912 33.6698C9.63838 34.0472 9.57369 34.7264 9.95103 35.19L11.7515 37.3462C11.9563 37.5942 12.2582 37.7343 12.5817 37.7343C12.9051 37.7343 13.207 37.5942 13.4118 37.3462L17.002 33.0337C17.3793 32.5809 17.3254 31.9017 16.8618 31.5136Z" fill="#1D1A45"/>
<path d="M30.5972 32.3438C30.5972 31.7508 30.112 31.2656 29.5191 31.2656H20.4844C19.8914 31.2656 19.4062 31.7508 19.4062 32.3438C19.4062 32.9367 19.8914 33.4219 20.4844 33.4219H29.5191C30.112 33.4219 30.5972 32.9367 30.5972 32.3438Z" fill="#1D1A45"/>
<path d="M25.875 35.5781H20.4844C19.8914 35.5781 19.4062 36.0633 19.4062 36.6562C19.4062 37.2492 19.8914 37.7344 20.4844 37.7344H25.875C26.468 37.7344 26.9531 37.2492 26.9531 36.6562C26.9531 36.0633 26.468 35.5781 25.875 35.5781Z" fill="#1D1A45"/>
<path d="M20.4844 43.125H24.937C25.53 43.125 26.0152 42.6398 26.0152 42.0469C26.0152 41.4539 25.53 40.9688 24.937 40.9688H20.4844C19.8914 40.9688 19.4062 41.4539 19.4062 42.0469C19.4062 42.6398 19.8914 43.125 20.4844 43.125Z" fill="#1D1A45"/>
<path d="M20.4844 47.4375H25.875C26.468 47.4375 26.9531 46.9523 26.9531 46.3594C26.9531 45.7664 26.468 45.2812 25.875 45.2812H20.4844C19.8914 45.2812 19.4062 45.7664 19.4062 46.3594C19.4062 46.9523 19.8914 47.4375 20.4844 47.4375Z" fill="#1D1A45"/>
<path d="M15.0938 50.6719H10.7812C10.1883 50.6719 9.70312 51.157 9.70312 51.75V56.0625C9.70312 56.6555 10.1883 57.1406 10.7812 57.1406H15.0938C15.6867 57.1406 16.1719 56.6555 16.1719 56.0625V51.75C16.1719 51.157 15.6867 50.6719 15.0938 50.6719ZM14.0156 54.9844H11.8594V52.8281H14.0156V54.9844Z" fill="#1D1A45"/>
<path d="M27.6108 51.75C27.6108 51.157 27.1256 50.6719 26.5327 50.6719H20.4844C19.8914 50.6719 19.4062 51.157 19.4062 51.75C19.4062 52.343 19.8914 52.8281 20.4844 52.8281H26.5327C27.1256 52.8281 27.6108 52.343 27.6108 51.75Z" fill="#1D1A45"/>
<path d="M20.4844 54.9844C19.8914 54.9844 19.4062 55.4695 19.4062 56.0625C19.4062 56.6555 19.8914 57.1406 20.4844 57.1406H25.875C26.468 57.1406 26.9531 56.6555 26.9531 56.0625C26.9531 55.4695 26.468 54.9844 25.875 54.9844H20.4844Z" fill="#1D1A45"/>
<path d="M51.6319 43.718C51.4917 43.4269 48.0309 36.6562 42.0473 36.6562C36.0637 36.6562 32.603 43.4377 32.4628 43.718C32.3119 44.0198 32.3119 44.3756 32.4628 44.6775C32.603 44.9686 36.0637 51.7392 42.0473 51.7392C48.0309 51.7392 51.4917 44.9578 51.6319 44.6775C51.7828 44.3756 51.7828 44.0198 51.6319 43.718ZM42.0473 49.5938C38.1984 49.5938 35.4923 45.6047 34.6622 44.2031C35.4923 42.8016 38.1984 38.8125 42.0473 38.8125C45.8962 38.8125 48.6023 42.8016 49.4325 44.2031C48.6023 45.6047 45.8962 49.5938 42.0473 49.5938Z" fill="#1D1A45"/>
<path d="M42.0469 40.9688C40.268 40.9688 38.8125 42.4242 38.8125 44.2031C38.8125 45.982 40.268 47.4375 42.0469 47.4375C43.8258 47.4375 45.2812 45.982 45.2812 44.2031C45.2812 42.4242 43.8258 40.9688 42.0469 40.9688ZM42.0469 45.2812C41.4539 45.2812 40.9688 44.7961 40.9688 44.2031C40.9688 43.6102 41.4539 43.125 42.0469 43.125C42.6398 43.125 43.125 43.6102 43.125 44.2031C43.125 44.7961 42.6398 45.2812 42.0469 45.2812Z" fill="#1D1A45"/>
<path d="M64.3748 61.41L57.1838 54.2189C56.7741 53.8092 56.0625 53.8092 55.6636 54.2189L54.6286 55.2539L52.6772 53.3025C54.7795 50.8551 56.0625 47.6747 56.0625 44.1923C56.0625 36.4622 49.777 30.1767 42.0469 30.1767C34.3167 30.1767 28.0312 36.4622 28.0312 44.1923C28.0312 51.9225 34.3167 58.2079 42.0469 58.2079C45.5184 58.2079 48.6989 56.925 51.157 54.8226L53.1084 56.774L52.0734 57.809C51.653 58.2295 51.653 58.9087 52.0734 59.3292L59.2645 66.5203C59.4694 66.7251 59.7389 66.8329 60.03 66.8329C60.3211 66.8329 60.5906 66.7144 60.7955 66.5203L64.3856 62.9301C64.8061 62.5097 64.8061 61.8304 64.3856 61.41H64.3748ZM30.1875 44.2031C30.1875 37.6589 35.5027 32.3437 42.0469 32.3437C48.5911 32.3437 53.9062 37.6589 53.9062 44.2031C53.9062 50.7473 48.5911 56.0625 42.0469 56.0625C35.5027 56.0625 30.1875 50.7473 30.1875 44.2031ZM60.0192 64.2454L54.3591 58.5853L56.4291 56.5153L62.0892 62.1754L60.0192 64.2454Z" fill="#1D1A45"/>
</svg>
