<svg width="80" height="80" viewBox="0 0 80 80" fill="none" xmlns="http://www.w3.org/2000/svg">
<path fill-rule="evenodd" clip-rule="evenodd" d="M44.747 68.3172C43.1386 68.3172 41.5294 68.011 40.0122 67.3947L23.5277 61.2801C22.4671 60.8886 21.4181 60.5999 20.4074 60.4216C18.3526 60.0353 16.2353 59.9934 14.1057 60.2956L11.2743 60.7187C10.8247 60.7858 10.4059 60.4763 10.3389 60.0271C10.2723 59.578 10.5815 59.1597 11.0298 59.0925L13.8692 58.6681C16.1828 58.3402 18.4792 58.3862 20.7029 58.804C21.8011 58.9973 22.9453 59.3124 24.0985 59.7382L40.5964 65.8572C40.6047 65.8604 40.6131 65.8636 40.6202 65.8668C43.4881 67.0349 46.735 66.9301 49.5298 65.5781L72.7177 54.3682C73.3786 54.0528 73.8706 53.4991 74.1088 52.8069C74.3472 52.1111 74.2987 51.3672 73.9705 50.7116C73.5026 49.7856 72.5702 49.208 71.541 49.208C71.32 49.2079 71.0686 49.2427 70.816 49.3083L51.3956 55.0805C50.9601 55.2099 50.5017 54.9621 50.3734 54.5269C50.2439 54.0914 50.4918 53.634 50.9272 53.5045L70.361 47.7283C70.3695 47.7257 70.3764 47.7234 70.3849 47.7213C70.778 47.6181 71.177 47.5637 71.541 47.5637C73.193 47.5635 74.687 48.4866 75.4406 49.9724C75.969 51.0297 76.0472 52.2249 75.6633 53.3413C75.2812 54.4542 74.487 55.3455 73.4279 55.8505L50.2465 67.0583C48.5154 67.8958 46.6309 68.3173 44.747 68.3172Z" fill="#1D1A45"/>
<path fill-rule="evenodd" clip-rule="evenodd" d="M48.0457 58.2321C47.65 58.2321 47.2472 58.1723 46.8505 58.0464L32.4485 53.6264C32.0149 53.4931 31.7704 53.0333 31.9046 52.5992C32.0374 52.1652 32.4969 51.9211 32.9309 52.0546L47.3391 56.4764C48.528 56.8521 49.7766 56.2245 50.189 55.0487C50.2777 54.7832 50.3218 54.5268 50.3218 54.2764C50.322 54.1891 50.3218 54.1069 50.3146 54.0509C50.3137 54.0439 50.3132 54.0373 50.3118 54.0307C50.2264 53.3111 49.8122 52.6709 49.1999 52.3083L31.5152 45.1171C27.6074 43.5161 23.3048 42.887 19.0698 43.2969L11.2451 44.1935C10.7955 44.2455 10.3857 43.9214 10.3343 43.4704C10.2836 43.019 10.607 42.6116 11.058 42.5598L18.8899 41.6624C18.8944 41.6618 18.8999 41.6613 18.9042 41.6609C23.4066 41.2241 27.9823 41.8929 32.1373 43.5949L49.8724 50.806C49.9038 50.8192 49.9349 50.8345 49.9649 50.8516C51.053 51.4647 51.792 52.5768 51.9432 53.8277C51.9664 53.9958 51.9661 54.1512 51.9661 54.2764C51.9664 54.7061 51.8947 55.1328 51.7449 55.5806C51.1725 57.215 49.6695 58.2322 48.0451 58.2322L48.0457 58.2321Z" fill="#1D1A45"/>
<path fill-rule="evenodd" clip-rule="evenodd" d="M5.74129 62.3471H7.88855C9.23418 62.3471 10.3287 61.2519 10.3287 59.9058L10.3294 43.3764C10.3294 42.0305 9.23399 40.9355 7.88799 40.9355L5.74129 40.9353V62.3471ZM7.88855 63.9911H4.91913C4.46436 63.9911 4.09692 63.6233 4.09692 63.1693L4.09697 40.1132C4.09697 39.6591 4.4638 39.2912 4.91913 39.2912L7.88855 39.291C10.1405 39.291 11.973 41.1239 11.973 43.3767L11.9737 59.9057C11.9737 62.1586 10.1404 63.9913 7.88799 63.9913L7.88855 63.9911Z" fill="#1D1A45"/>
<path fill-rule="evenodd" clip-rule="evenodd" d="M26.3325 36.4845H69.8542V13.3269H26.3325V36.4845ZM69.9428 38.1288H26.2284C25.3793 38.1288 24.688 37.4307 24.688 36.5725L24.6882 13.239C24.6882 12.3808 25.386 11.6828 26.2452 11.6828L69.9428 11.6826C70.8003 11.6826 71.4982 12.381 71.4982 13.2392L71.4985 36.5725C71.4985 37.4306 70.8002 38.1289 69.9428 38.1288Z" fill="#1D1A45"/>
<path fill-rule="evenodd" clip-rule="evenodd" d="M34.421 32.6011H61.734C62.0949 30.5464 63.7875 28.9225 65.9213 28.5861L65.9218 21.2098C64.8839 21.0475 63.926 20.5788 63.1652 19.8499C62.4019 19.1187 61.9077 18.1965 61.7335 17.1942L34.4229 17.194C34.2502 18.2047 33.7616 19.1344 33.0051 19.8704C32.2404 20.615 31.2765 21.0826 30.2318 21.227L30.2319 28.569C31.2711 28.7151 32.2329 29.1846 33.0007 29.9321C33.7588 30.6691 34.2483 31.5964 34.421 32.6011ZM62.4848 34.2454H33.6688C33.4505 34.2454 33.2421 34.1589 33.0878 34.0047C32.9341 33.8504 32.8467 33.6415 32.8467 33.4234C32.8467 32.5545 32.4941 31.7333 31.8546 31.1108C31.2023 30.476 30.343 30.14 29.4324 30.166C29.2099 30.1729 28.9956 30.0882 28.8372 29.9335C28.6775 29.7785 28.5874 29.5661 28.5874 29.3441L28.5875 20.4512C28.5875 20.2293 28.6773 20.0169 28.8372 19.8621C28.996 19.707 29.2168 19.6235 29.4324 19.6295C30.3475 19.6547 31.2124 19.3217 31.8589 18.6919C32.4959 18.072 32.8467 17.2483 32.8467 16.3721C32.8467 16.1538 32.9337 15.9449 33.0878 15.7908C33.2424 15.6364 33.4503 15.5499 33.6688 15.5499L62.4848 15.5497C62.7033 15.5497 62.9125 15.6366 63.0667 15.7908C63.2209 15.9447 63.3065 16.154 63.3065 16.3721C63.3069 17.2345 63.6604 18.048 64.3013 18.6624C64.9525 19.2857 65.82 19.6291 66.7435 19.6291C66.9624 19.629 67.1703 19.7158 67.3245 19.8699C67.4787 20.024 67.5657 20.2332 67.5657 20.4513L67.5662 29.344C67.5662 29.798 67.1974 30.1663 66.7435 30.1663C64.8485 30.1661 63.3065 31.6275 63.3065 33.4234C63.3069 33.8774 62.9396 34.2456 62.4843 34.2456L62.4848 34.2454Z" fill="#1D1A45"/>
<path fill-rule="evenodd" clip-rule="evenodd" d="M48.0765 20.1801C45.472 20.1801 43.3506 22.3001 43.3506 24.9059C43.3511 27.5114 45.4717 29.6316 48.0765 29.6316C50.6831 29.6314 52.8025 27.5117 52.8025 24.9059C52.8027 22.3 50.683 20.1802 48.0765 20.1801ZM48.0765 31.2757C44.5644 31.2757 41.7078 28.4183 41.7078 24.9059C41.7081 21.3934 44.564 18.536 48.0765 18.536C51.5894 18.5358 54.4469 21.3935 54.4469 24.9059C54.447 28.418 51.5894 31.2759 48.0765 31.2757Z" fill="#1D1A45"/>
<path fill-rule="evenodd" clip-rule="evenodd" d="M46.1683 23.8021C45.952 23.8021 45.7401 23.7152 45.586 23.5611C45.5491 23.5237 45.5146 23.4825 45.4846 23.4369C45.4548 23.3926 45.429 23.3441 45.409 23.2956C45.3879 23.2455 45.3718 23.1942 45.3619 23.1414C45.3508 23.0885 45.3462 23.0344 45.3462 22.9801C45.3462 22.9273 45.3505 22.8731 45.3619 22.8203C45.3719 22.7673 45.3876 22.7161 45.409 22.6661C45.4291 22.616 45.4547 22.569 45.4846 22.5234C45.5152 22.4789 45.5488 22.4363 45.586 22.3992C45.7778 22.2079 46.0612 22.1208 46.3283 22.1751C46.3817 22.1851 46.4323 22.2008 46.4824 22.2207C46.5326 22.2419 46.5793 22.2679 46.6236 22.2964C46.6694 22.3264 46.7107 22.3606 46.7492 22.3992C46.7882 22.4362 46.8221 22.4791 46.852 22.5234C46.8807 22.5689 46.9062 22.6161 46.9277 22.6661C46.9481 22.716 46.9634 22.7675 46.9733 22.8203C46.9853 22.873 46.9905 22.9273 46.9905 22.9801C46.9905 23.1971 46.902 23.4098 46.7492 23.5611C46.7112 23.5995 46.6694 23.6338 46.6236 23.6638C46.5794 23.6935 46.5323 23.7195 46.4824 23.7394C46.4323 23.7594 46.381 23.7766 46.3283 23.7865C46.2757 23.7963 46.2211 23.8022 46.1683 23.8021Z" fill="#1D1A45"/>
<path fill-rule="evenodd" clip-rule="evenodd" d="M49.9865 27.6373C49.932 27.6373 49.8777 27.6318 49.8248 27.6205C49.7721 27.6103 49.7206 27.5948 49.6708 27.5748C49.6224 27.5531 49.5737 27.5276 49.5294 27.4991C49.4843 27.469 49.4423 27.4335 49.4037 27.3963C49.3667 27.3576 49.3324 27.3164 49.3024 27.2707C49.273 27.2263 49.2467 27.1794 49.2269 27.1294C49.2055 27.0794 49.1897 27.0281 49.1797 26.9753C49.1702 26.9224 49.1641 26.8682 49.1641 26.8154C49.1644 26.7609 49.1697 26.7069 49.1797 26.6541C49.1901 26.6013 49.2055 26.5499 49.2269 26.4999C49.2472 26.4513 49.2725 26.4029 49.3024 26.3587C49.3327 26.3129 49.3667 26.2716 49.4037 26.2331C49.5954 26.0431 49.8791 25.9547 50.146 26.0089C50.1992 26.0187 50.2503 26.0346 50.3002 26.0561C50.3508 26.0759 50.3973 26.1017 50.4415 26.1317C50.4876 26.1616 50.5286 26.1959 50.5671 26.2331C50.6057 26.2715 50.6399 26.313 50.6698 26.3587C50.6989 26.4028 50.7241 26.4515 50.7456 26.4999C50.7657 26.5499 50.7813 26.6013 50.7926 26.6541C50.8029 26.7069 50.8084 26.7612 50.8084 26.8154C50.8087 27.0306 50.7198 27.2437 50.5671 27.3963C50.5287 27.4334 50.4872 27.4692 50.4415 27.4991C50.3976 27.5275 50.3502 27.5533 50.3002 27.5748C50.2506 27.5946 50.1989 27.6104 50.146 27.6205C50.0932 27.6318 50.0393 27.6373 49.9865 27.6373Z" fill="#1D1A45"/>
<path fill-rule="evenodd" clip-rule="evenodd" d="M46.2501 27.5554C46.0388 27.5554 45.8288 27.4752 45.6689 27.3147C45.3483 26.9934 45.3477 26.4731 45.6689 26.1521L49.3403 22.4805C49.6614 22.1593 50.1808 22.1596 50.5018 22.4808C50.8234 22.8016 50.8231 23.3223 50.5018 23.6433L46.8308 27.3145C46.6715 27.4751 46.4597 27.5554 46.2501 27.5554Z" fill="#1D1A45"/>
<path fill-rule="evenodd" clip-rule="evenodd" d="M36.0185 23.8515C35.4378 23.8515 34.9649 24.3245 34.9649 24.9058C34.965 25.4871 35.4373 25.9601 36.0183 25.9601C36.601 25.9598 37.0731 25.4872 37.0731 24.9058C37.0731 24.3242 36.6006 23.8516 36.0185 23.8515ZM36.0185 27.6041C34.5315 27.6041 33.3206 26.3938 33.3206 24.9058C33.3207 23.4176 34.531 22.2073 36.0183 22.2073C37.5073 22.2072 38.7174 23.4178 38.7174 24.9058C38.7174 26.3937 37.507 27.6044 36.0185 27.6041Z" fill="#1D1A45"/>
<path fill-rule="evenodd" clip-rule="evenodd" d="M60.153 23.8515C59.5703 23.8515 59.0975 24.3245 59.0975 24.9058C59.0976 25.4871 59.5699 25.9601 60.1523 25.9601C60.7335 25.9598 61.2057 25.4872 61.2057 24.9058C61.2057 24.3242 60.7332 23.8516 60.1523 23.8516L60.153 23.8515ZM60.153 27.6041C58.664 27.6041 57.4531 26.3938 57.4531 24.9058C57.4533 23.4176 58.6635 22.2073 60.1523 22.2073C61.6399 22.2072 62.85 23.4178 62.85 24.9058C62.85 26.3937 61.6396 27.6044 60.1523 27.6044L60.153 27.6041Z" fill="#1D1A45"/>
</svg>
