<svg width="80" height="80" viewBox="0 0 80 80" fill="none" xmlns="http://www.w3.org/2000/svg">
<g clip-path="url(#clip0_110_800)">
<path d="M55.9827 52.1812L53.6702 51.4312C53.3687 50.3578 52.9405 49.3281 52.3937 48.3562L53.4983 46.1906C53.7437 45.7093 53.6515 45.1234 53.2702 44.7406L50.553 42.0203C50.1702 41.6375 49.5858 41.5453 49.103 41.7906L46.9327 42.8953C45.9608 42.3515 44.9312 41.925 43.8593 41.6234L43.1062 39.3093C42.939 38.7953 42.4593 38.4468 41.9187 38.4468H38.078C37.5374 38.4468 37.0577 38.7953 36.8905 39.3093L36.1374 41.6234C35.0655 41.925 34.0358 42.3515 33.064 42.8953L30.8937 41.7906C30.4108 41.5453 29.8249 41.639 29.4421 42.0218L26.728 44.7406C26.3452 45.1234 26.253 45.7093 26.4983 46.1921L27.603 48.3578C27.0562 49.3296 26.6296 50.3593 26.3265 51.4328L24.014 52.1828C23.4983 52.35 23.1499 52.8296 23.1499 53.3703V57.214C23.1499 57.7546 23.4983 58.2343 24.014 58.4015L26.3265 59.1531C26.628 60.2249 27.0562 61.2546 27.603 62.2265L26.4983 64.3921C26.2515 64.875 26.3452 65.4609 26.728 65.8437L29.4421 68.5624C29.8249 68.9468 30.4108 69.039 30.8937 68.7937L33.064 67.689C34.0358 68.2328 35.0655 68.6593 36.1374 68.9609L36.889 71.2781C37.0562 71.7921 37.5358 72.1421 38.0765 72.1421H41.9171C42.4577 72.1421 42.9374 71.7937 43.1046 71.2781L43.8562 68.9609C44.928 68.6593 45.9577 68.2328 46.9296 67.689L49.0999 68.7937C49.5827 69.039 50.1671 68.9468 50.5499 68.564L53.2671 65.8437C53.6483 65.4609 53.7405 64.8765 53.4952 64.3937L52.3905 62.2281C52.9374 61.2562 53.364 60.2265 53.6671 59.1546L55.9796 58.4031C56.4937 58.2359 56.8437 57.7562 56.8437 57.2156V53.3718C56.8468 52.8281 56.4968 52.3484 55.9827 52.1812ZM54.3483 56.3062L52.2421 56.9921C51.8249 57.1281 51.5093 57.4734 51.4124 57.9015C51.1202 59.1843 50.6155 60.3984 49.914 61.5109C49.6796 61.8828 49.6577 62.3515 49.8562 62.7437L50.8624 64.7203L49.4296 66.1546L47.4577 65.1499C47.0655 64.95 46.5983 64.9703 46.2265 65.2046C45.1108 65.9046 43.8937 66.4093 42.6093 66.7015C42.1812 66.7984 41.8343 67.1156 41.6983 67.5328L41.0124 69.6421H38.9874L38.3015 67.5328C38.1655 67.1156 37.8202 66.7984 37.3905 66.7015C36.1062 66.4093 34.889 65.9062 33.7733 65.2046C33.4015 64.9703 32.9327 64.95 32.5421 65.1499L30.5718 66.1546L29.139 64.7187L30.1437 62.7437C30.3437 62.3515 30.3218 61.8828 30.0858 61.5109C29.3827 60.3984 28.878 59.1828 28.5874 57.9015C28.4905 57.4734 28.1749 57.1281 27.7577 56.9921L25.6515 56.3062V54.2781L27.7546 53.5984C28.1749 53.4625 28.4905 53.1156 28.589 52.6859C28.8812 51.4015 29.3843 50.1859 30.0874 49.0718C30.3218 48.7 30.3437 48.2312 30.1452 47.839L29.1405 45.864L30.5733 44.4281L32.5437 45.4328C32.9358 45.6328 33.403 45.6125 33.7749 45.3781C34.8905 44.6781 36.1077 44.1734 37.3921 43.8812C37.8202 43.7843 38.1671 43.4671 38.303 43.0499L38.9874 40.9453H41.0124L41.6968 43.0499C41.8327 43.4671 42.178 43.7843 42.6077 43.8812C43.8921 44.1734 45.1093 44.6765 46.2249 45.3781C46.5968 45.6125 47.0655 45.6328 47.4562 45.4328L49.428 44.4281L50.8608 45.8624L49.8546 47.839C49.6546 48.2312 49.6765 48.7 49.9124 49.0718C50.6155 50.1859 51.1202 51.4015 51.4108 52.6859C51.5077 53.1156 51.8249 53.4625 52.2452 53.5984L54.3483 54.2781V56.3062ZM40.0015 46.65C35.2374 46.65 31.3608 50.5265 31.3608 55.2906C31.3608 60.0562 35.2374 63.9312 40.0015 63.9312C44.764 63.9312 48.639 60.0546 48.639 55.2906C48.639 50.5265 44.764 46.65 40.0015 46.65ZM40.0015 61.4343C36.614 61.4343 33.8577 58.6781 33.8577 55.2906C33.8577 51.9031 36.614 49.1468 40.0015 49.1468C43.3858 49.1468 46.1405 51.9031 46.1405 55.2906C46.1405 58.6781 43.3874 61.4343 40.0015 61.4343ZM79.6733 43.2921L69.1093 31.6265C68.8718 31.3656 68.5359 31.2156 68.1843 31.2156C67.8312 31.2156 67.4952 31.364 67.2593 31.6265L56.6921 43.2921C56.3608 43.6578 56.2765 44.1859 56.4765 44.6375C56.6765 45.089 57.1249 45.3796 57.6187 45.3796H63.1108V60.2703C63.1108 60.9609 63.6702 61.5187 64.3593 61.5187H72.0124C72.703 61.5187 73.2608 60.9593 73.2608 60.2703V45.3796H78.7483C79.2421 45.3796 79.6905 45.089 79.8905 44.6375C80.0905 44.1859 80.0062 43.6578 79.6733 43.2921ZM72.0108 42.8812C71.3218 42.8812 70.7624 43.4406 70.7624 44.1296V59.0203H65.6062V44.1296C65.6062 43.439 65.0468 42.8812 64.3577 42.8812H60.4327L68.1843 34.325L75.9327 42.8812H72.0108ZM23.5249 44.6359C23.7249 44.1843 23.6405 43.6578 23.3093 43.2906L12.7405 31.625C12.503 31.364 12.1671 31.214 11.814 31.214C11.4608 31.214 11.1249 31.364 10.889 31.625L0.326472 43.2921C-0.00477824 43.6578 -0.0891533 44.1859 0.110847 44.6375C0.310847 45.089 0.759284 45.3796 1.25303 45.3796H6.74053V60.2703C6.74053 60.9609 7.29991 61.5187 7.98897 61.5187H15.6421C16.3312 61.5187 16.8905 60.9593 16.8905 60.2703V45.3796H22.3827C22.8765 45.3796 23.3249 45.0875 23.5249 44.6359ZM15.6421 42.8812C14.9515 42.8812 14.3937 43.4406 14.3937 44.1296V59.0203H9.23741V44.1296C9.23741 43.439 8.67803 42.8812 7.98897 42.8812H4.0671L11.8155 34.325L19.5671 42.8812H15.6421ZM9.23741 64.7218V73.625C9.23741 74.3156 8.67803 74.8734 7.98897 74.8734C7.29991 74.8734 6.74053 74.314 6.74053 73.625V64.7218C6.74053 64.0312 7.29991 63.4734 7.98897 63.4734C8.67803 63.4734 9.23741 64.0312 9.23741 64.7218ZM13.064 66.914V75.8171C13.064 76.5078 12.5046 77.0656 11.8155 77.0656C11.1265 77.0656 10.5671 76.5062 10.5671 75.8171V66.914C10.5671 66.2234 11.1265 65.6656 11.8155 65.6656C12.5046 65.6656 13.064 66.2234 13.064 66.914ZM16.8905 63.3968V72.2999C16.8905 72.9906 16.3312 73.5484 15.6421 73.5484C14.953 73.5484 14.3937 72.989 14.3937 72.2999V63.3968C14.3937 62.7062 14.953 62.1484 15.6421 62.1484C16.3312 62.1484 16.8905 62.7078 16.8905 63.3968ZM29.4343 17.0984H34.9265V31.989C34.9265 32.6796 35.4858 33.2375 36.1749 33.2375H43.828C44.5187 33.2375 45.0765 32.6781 45.0765 31.989V17.0984H50.564C51.0577 17.0984 51.5062 16.8078 51.7062 16.3562C51.9062 15.9046 51.8218 15.3781 51.4905 15.0109L40.9265 3.34526C40.689 3.08433 40.353 2.93433 40.0015 2.93433C39.6483 2.93433 39.3124 3.08276 39.0765 3.34526L28.5093 15.0109C28.178 15.3765 28.0937 15.9046 28.2937 16.3562C28.4921 16.8078 28.9405 17.0984 29.4343 17.0984ZM40.0015 6.0437L47.7499 14.6H43.8296C43.139 14.6 42.5812 15.1593 42.5812 15.8484V30.739H37.4249V15.8484C37.4249 15.1578 36.8655 14.6 36.1765 14.6H32.2515L40.0015 6.0437ZM73.2608 64.7218V73.625C73.2608 74.3156 72.7015 74.8734 72.0124 74.8734C71.3233 74.8734 70.764 74.314 70.764 73.625V64.7218C70.764 64.0312 71.3233 63.4734 72.0124 63.4734C72.7015 63.4734 73.2608 64.0312 73.2608 64.7218ZM69.4343 66.914V75.8171C69.4343 76.5078 68.8749 77.0656 68.1859 77.0656C67.4968 77.0656 66.9374 76.5062 66.9374 75.8171V66.914C66.9374 66.2234 67.4968 65.6656 68.1859 65.6656C68.8749 65.6656 69.4343 66.2234 69.4343 66.914ZM65.6077 63.3968V72.2999C65.6077 72.9906 65.0483 73.5484 64.3593 73.5484C63.6702 73.5484 63.1108 72.989 63.1108 72.2999V63.3968C63.1108 62.7062 63.6702 62.1484 64.3593 62.1484C65.0483 62.1484 65.6077 62.7078 65.6077 63.3968Z" fill="#1D1A45" stroke="#F1F3F7" stroke-width="0.5"/>
</g>
<defs>
<clipPath id="clip0_110_800">
<rect width="80" height="80" fill="white"/>
</clipPath>
</defs>
</svg>
