<svg width="78" height="80" viewBox="0 0 78 80" fill="none" xmlns="http://www.w3.org/2000/svg">
<path fill-rule="evenodd" clip-rule="evenodd" d="M39.4943 14.834L61.0134 24.058C61.4747 24.2558 61.7739 24.7095 61.7739 25.2114V42.6121C61.7739 55.3278 52.5196 66.3161 40.0002 68.4986L39.2161 68.6357C39.073 68.6607 38.9268 68.6607 38.7837 68.6357L38.0002 68.4986C25.4802 66.3161 16.2259 55.3278 16.2259 42.6121V25.2114C16.2259 24.7095 16.5251 24.2558 16.9864 24.058L38.5055 14.834C38.8212 14.6987 39.1786 14.6987 39.4943 14.834ZM38.9999 17.3526L18.7357 26.0389V42.6121C18.7357 54.1136 27.1069 64.0521 38.4313 66.0262L38.9999 66.1256L39.5685 66.0262C50.8929 64.0521 59.2641 54.1136 59.2641 42.6121V26.0389L38.9999 17.3526ZM48.8843 36.5943H49.5662C51.1288 36.5943 52.396 37.8681 52.396 39.4241V56.2191C52.396 57.7818 51.1288 59.0489 49.5662 59.0489H28.4372C26.8754 59.0489 25.6038 57.781 25.6038 56.2191V39.4241C25.6038 37.8688 26.8754 36.5943 28.4372 36.5943H29.1155V34.2241C29.1155 28.7871 33.5648 24.3379 39.0018 24.3379C44.439 24.3379 48.8843 28.787 48.8843 34.2241V36.5943ZM31.6253 36.5943H33.0694V34.2241C33.0694 30.9663 35.7485 28.2881 39.0018 28.2881C42.255 28.2881 44.934 30.9663 44.934 34.2241V36.5943H46.3745V34.2241C46.3745 30.1677 43.0583 26.8477 39.0018 26.8477C34.945 26.8477 31.6253 30.1675 31.6253 34.2241V36.5943ZM35.5792 36.5943H42.4242V34.2241C42.4242 32.3441 40.8791 30.7979 39.0018 30.7979C37.1245 30.7979 35.5792 32.3441 35.5792 34.2241V36.5943ZM28.4372 39.1041C28.2597 39.1041 28.1136 39.2474 28.1136 39.4241V56.2191C28.1136 56.3967 28.2597 56.5391 28.4372 56.5391H49.5662C49.743 56.5391 49.8862 56.3959 49.8862 56.2191V39.4241C49.8862 39.2481 49.743 39.1041 49.5662 39.1041H28.4372ZM39.0018 40.5738C41.39 40.5738 43.3262 42.5136 43.3262 44.9019C43.3262 46.1942 42.7637 47.3518 41.8681 48.144V52.2031C41.8681 53.7826 40.5746 55.0695 39.0018 55.0695C37.4223 55.0695 36.1353 53.7826 36.1353 52.2031C36.1353 52.2031 36.1353 48.1441 36.1354 48.1443C35.2388 47.352 34.6736 46.194 34.6736 44.9019C34.6736 42.514 36.6139 40.5738 39.0018 40.5738ZM39.0018 43.0836C37.9985 43.0836 37.1834 43.8987 37.1834 44.9019C37.1834 45.5572 37.5298 46.1302 38.0488 46.4502C38.4195 46.6787 38.6451 47.083 38.6451 47.5183V52.2031C38.6451 52.3995 38.8052 52.5597 39.0018 52.5597C39.1974 52.5597 39.3583 52.3995 39.3583 52.2031V47.5183C39.3583 47.083 39.5841 46.6787 39.9546 46.4502C40.4735 46.1302 40.8164 45.557 40.8164 44.9019C40.8164 43.8991 40.0045 43.0836 39.0018 43.0836ZM11.5136 1.09802C17.2391 1.09802 21.8873 5.74634 21.8873 11.4717C21.8873 17.197 17.2391 21.8453 11.5136 21.8453C5.78829 21.8453 1.14014 17.197 1.14014 11.4717C1.14014 5.74634 5.78829 1.09802 11.5136 1.09802ZM11.5136 3.60783C7.17355 3.60783 3.64994 7.13143 3.64994 11.4717C3.64994 15.8117 7.17355 19.3355 11.5136 19.3355C15.8539 19.3355 19.3775 15.8117 19.3775 11.4717C19.3775 7.13143 15.8539 3.60783 11.5136 3.60783ZM6.57104 12.6039C6.08084 12.1145 6.08022 11.3194 6.56947 10.8292C7.05888 10.339 7.85402 10.3383 8.34422 10.8276L9.86437 12.3454L14.7268 7.93661C15.2399 7.47136 16.0343 7.51026 16.4995 8.02336C16.9646 8.53645 16.9259 9.33081 16.4128 9.79591L10.6658 15.0067C10.1703 15.4558 9.40947 15.4376 8.93622 14.9652L6.57104 12.6039ZM66.4862 1.09802C72.2115 1.09802 76.8597 5.74634 76.8597 11.4717C76.8597 17.197 72.2115 21.8453 66.4862 21.8453C60.7607 21.8453 56.1125 17.197 56.1125 11.4717C56.1125 5.74634 60.7607 1.09802 66.4862 1.09802ZM66.4862 3.60783C62.1459 3.60783 58.6223 7.13143 58.6223 11.4717C58.6223 15.8117 62.1459 19.3355 66.4862 19.3355C70.8263 19.3355 74.3499 15.8117 74.3499 11.4717C74.3499 7.13143 70.8263 3.60783 66.4862 3.60783ZM61.5434 12.6039C61.0532 12.1145 61.0526 11.3194 61.5419 10.8292C62.0313 10.339 62.8264 10.3383 63.3166 10.8276L64.8369 12.3454L69.6994 7.93661C70.2125 7.47136 71.0066 7.51026 71.4719 8.02336C71.9372 8.53645 71.8983 9.33081 71.3852 9.79591L65.6382 15.0067C65.1426 15.4558 64.382 15.4376 63.9086 14.9652L61.5434 12.6039ZM66.4862 58.1547C72.2115 58.1547 76.8597 62.803 76.8597 68.5283C76.8597 74.2536 72.2115 78.9019 66.4862 78.9019C60.7607 78.9019 56.1125 74.2536 56.1125 68.5283C56.1125 62.803 60.7607 58.1547 66.4862 58.1547ZM66.4862 60.6645C62.1459 60.6645 58.6223 64.1882 58.6223 68.5283C58.6223 72.8685 62.1459 76.3921 66.4862 76.3921C70.8263 76.3921 74.3499 72.8685 74.3499 68.5283C74.3499 64.1882 70.8263 60.6645 66.4862 60.6645ZM61.5434 69.6605C61.0532 69.1713 61.0526 68.376 61.5419 67.8858C62.0313 67.3958 62.8264 67.395 63.3166 67.8844L64.8369 69.402L69.6994 64.9932C70.2125 64.5281 71.0066 64.567 71.4719 65.08C71.9372 65.5931 71.8983 66.3874 71.3852 66.8527L65.6382 72.0634C65.1426 72.5126 64.382 72.4943 63.9086 72.0218L61.5434 69.6605ZM11.5136 58.1547C17.2391 58.1547 21.8873 62.803 21.8873 68.5283C21.8873 74.2536 17.2391 78.9019 11.5136 78.9019C5.78829 78.9019 1.14014 74.2536 1.14014 68.5283C1.14014 62.803 5.78829 58.1547 11.5136 58.1547ZM11.5136 60.6645C7.17355 60.6645 3.64994 64.1882 3.64994 68.5283C3.64994 72.8685 7.17355 76.3921 11.5136 76.3921C15.8539 76.3921 19.3775 72.8685 19.3775 68.5283C19.3775 64.1882 15.8539 60.6645 11.5136 60.6645ZM6.57104 69.6605C6.08084 69.1713 6.08022 68.376 6.56947 67.8858C7.05888 67.3958 7.85402 67.395 8.34422 67.8844L9.86437 69.402L14.7268 64.9932C15.2399 64.5281 16.0343 64.567 16.4995 65.08C16.9646 65.5931 16.9259 66.3874 16.4128 66.8527L10.6658 72.0634C10.1703 72.5126 9.40947 72.4943 8.93622 72.0218L6.57104 69.6605ZM8.45543 54.4792C8.72351 55.1178 8.42249 55.8539 7.78374 56.1219C7.14516 56.3898 6.40916 56.0889 6.14108 55.4502C4.36492 51.2168 3.3828 46.5689 3.3828 41.6935C3.3828 35.5987 4.91723 29.8596 7.61982 24.8412C7.94829 24.2315 8.71002 24.003 9.31975 24.3314C9.92963 24.6597 10.158 25.4215 9.82955 26.0314C7.31786 30.6952 5.89261 36.0293 5.89261 41.6935C5.89261 46.2248 6.80461 50.5446 8.45543 54.4792ZM51.8324 72.2183C52.4705 71.9493 53.2071 72.2491 53.476 72.8874C53.745 73.5256 53.4452 74.2621 52.807 74.5311C48.5601 76.3208 43.8946 77.3106 38.9999 77.3106C33.87 77.3106 28.9921 76.2234 24.5837 74.2676C23.9506 73.9868 23.6647 73.2449 23.9455 72.6117C24.2264 71.9787 24.9684 71.6927 25.6015 71.9735C29.6986 73.791 34.2322 74.8008 38.9999 74.8008C43.5491 74.8008 47.8852 73.8816 51.8324 72.2183ZM68.1326 25.9617C67.8027 25.3526 68.0294 24.5904 68.6383 24.2605C69.2474 23.9307 70.0096 24.1573 70.3395 24.7663C73.0672 29.8025 74.617 35.5685 74.617 41.6935C74.617 46.5692 73.6349 51.2174 71.8584 55.451C71.5903 56.0897 70.8543 56.3906 70.2156 56.1227C69.577 55.8547 69.276 55.1186 69.5441 54.48C71.195 50.5451 72.1072 46.2249 72.1072 41.6935C72.1072 36.0011 70.6677 30.6422 68.1326 25.9617ZM26.4771 11.0401C25.8361 11.3026 25.1026 10.9951 24.8402 10.3542C24.5778 9.71324 24.8851 8.97991 25.526 8.71747C29.6834 7.0152 34.2328 6.07638 38.9999 6.07638C43.8666 6.07638 48.5064 7.05489 52.7337 8.82508C53.3726 9.09253 53.6741 9.82837 53.4065 10.4673C53.139 11.1062 52.4032 11.4077 51.7643 11.1401C47.8355 9.49489 43.5229 8.58618 38.9999 8.58618C34.5693 8.58618 30.3409 9.45802 26.4771 11.0401Z" fill="#1D1A45" stroke="#F1F3F7" stroke-width="0.5"/>
</svg>
