<svg width="23" height="30" viewBox="0 0 23 30" fill="none" xmlns="http://www.w3.org/2000/svg">
<path d="M14.7947 29.6275L4.1971 29.6276C2.91666 29.6225 1.83444 28.6733 1.83986 27.5601L1.95268 4.35631C1.95811 3.24251 3.00131 2.34354 4.2825 2.34865L14.929 2.3914C16.2094 2.39657 17.2427 3.30291 17.2373 4.41608L17.1245 27.6199C17.1191 28.7337 16.0759 29.6327 14.7947 29.6275Z" fill="#1A2E35"/>
<path d="M14.9109 3.27339L12.8468 3.26512C12.57 3.26404 12.3445 3.46711 12.3434 3.71862L12.3417 4.04414C12.3406 4.29572 12.1151 4.49878 11.8383 4.49765L7.8148 4.48148C7.53802 4.48041 7.31458 4.27553 7.31579 4.02394L7.31739 3.69845C7.31859 3.44688 7.09515 3.242 6.81833 3.24091L6.09238 3.23797L4.28574 3.23073C3.3885 3.22716 2.65789 3.85672 2.65408 4.63677L2.54396 27.2854C2.54015 28.0651 3.26386 28.6998 4.16063 28.7034L14.7858 28.746C15.683 28.7496 16.4136 28.1201 16.4175 27.34L16.5276 4.69134C16.5313 3.91175 15.8077 3.27702 14.9109 3.27339Z" fill="#E6E8EA"/>
<mask id="mask0_250_1511" style="mask-type:luminance" maskUnits="userSpaceOnUse" x="2" y="3" width="15" height="26">
<path d="M14.91 3.27351L12.8458 3.26524C12.569 3.26416 12.3435 3.46723 12.3424 3.71874L12.3407 4.04426C12.3396 4.29584 12.1141 4.4989 11.8373 4.49778L7.81383 4.4816C7.53705 4.48053 7.3136 4.27565 7.31482 4.02406L7.31641 3.69857C7.31761 3.44701 7.09418 3.24212 6.81736 3.24103L6.0914 3.23809L4.28476 3.23085C3.38753 3.22728 2.65691 3.85684 2.65311 4.6369L2.54298 27.2855C2.53918 28.0652 3.26289 28.6999 4.15966 28.7035L14.7848 28.7461C15.682 28.7498 16.4126 28.1202 16.4165 27.3401L16.5266 4.69146C16.5304 3.91187 15.8067 3.27714 14.91 3.27351Z" fill="white"/>
</mask>
<g mask="url(#mask0_250_1511)">
<path d="M27.3085 14.0737L27.1793 13.8841L24.8773 15.0701C24.5432 14.8133 23.3203 13.874 23.2157 13.806C23.1076 13.7357 20.3732 12.1653 19.9302 11.9109C20.7896 10.805 20.8301 9.41889 20.8316 9.3426L20.832 9.32735L20.8275 9.31258C20.8053 9.23954 20.2759 7.5149 19.5153 6.7703C19.3174 6.57648 19.2824 6.11781 19.4143 5.47424L21.4302 5.72316L27.0009 7.12606L27.1244 6.75562L21.5386 5.34893L19.505 5.09689C19.8058 3.99628 20.404 2.88831 20.588 2.80888C21.0098 2.64982 23.6511 1.28539 23.7633 1.22739L23.6337 1.03794C23.6064 1.05209 20.8943 2.45315 20.4871 2.60669C20.1418 2.73692 19.5263 4.06016 19.2529 5.06565L18.8759 5.01893C19.1749 3.91178 19.7792 2.79087 19.9643 2.71094C20.3861 2.55186 23.0274 1.18743 23.1397 1.12943L23.0101 0.939981C22.9828 0.954129 20.2706 2.35519 19.8634 2.50875C19.5158 2.63986 18.8945 3.97981 18.6239 4.98769L17.3434 4.82899L15.2893 5.4617L13.2273 5.38485L12.0077 4.66876C11.28 4.24237 10.4453 3.75207 9.61829 3.26477L10.3755 2.80928L13.4744 -1.25592L13.36 -2.09216L12.9195 -2.04662L13.0147 -1.35096L10.0529 2.53437L9.22451 3.03261C7.28369 1.88784 5.48744 0.819158 5.34643 0.708197C5.34811 0.709529 5.36323 0.721711 5.37789 0.743065L4.99691 0.940674C5.03635 0.998119 5.06748 1.0435 8.43817 3.03445C8.59297 3.1259 8.74788 3.21732 8.90153 3.30795L6.58046 5.9116L3.97083 7.30515C3.62774 7.028 3.30448 6.77216 3.01723 6.54484C2.87981 6.43609 2.7481 6.33183 2.62694 6.23515L5.05403 4.40546L5.06653 4.39605L6.19648 2.95072L5.30524 2.37096L5.15335 2.5474L5.85068 3.001L5.31707 3.68351L4.79812 3.09262L4.59663 3.22636L5.16686 3.87564L4.87545 4.24837L4.78693 4.31511L4.06374 3.2662L3.8463 3.3795L4.59245 4.46172L2.43954 6.08474C2.22773 5.91339 2.06992 5.77999 2.00878 5.71227C1.55619 5.21096 0.594072 3.73877 0.584389 3.72397L0.0882735 3.96862C0.128589 4.03042 1.08123 5.48803 1.56008 6.01842C1.69862 6.17189 2.07046 6.46614 2.63327 6.91155C2.87884 7.10589 3.16149 7.32967 3.46578 7.57485L0.980287 8.90211L0.585662 9.33777C-0.205489 8.22118 -0.774177 7.43313 -0.827266 7.3986L-0.97912 7.57508C-0.98835 7.56907 -0.993578 7.56377 -0.993842 7.56349C-0.924604 7.63442 -0.346577 8.44166 0.418158 9.5227L-0.604969 10.6522L-1.51013 10.9936L-1.40926 11.1958L-0.935456 11.0171L-2.81475 13.0919L-2.46619 13.3305L-0.0778513 10.6937L0.906462 10.3225L0.961096 10.2916C1.67996 11.3114 2.4838 12.4574 3.16578 13.4326L2.02397 13.69L-3.0156 16.7305L-2.76265 17.0474L-0.900809 15.9241L0.439258 17.9025L1.14514 19.0944L-1.35638 19.4738C-1.44239 19.2877 -1.66129 18.8176 -1.89203 18.35C-2.51499 17.0877 -2.60854 17.073 -2.69903 17.0588L-2.74406 17.2757C-2.76885 17.2718 -2.78201 17.2618 -2.78225 17.2616C-2.65061 17.3637 -2.0953 18.4636 -1.61149 19.5125L-3.30664 19.7696L-3.26307 19.9867L-1.53803 19.7251L-1.31923 20.7712L0.0137689 21.6383L-1.18354 25.5741L-0.938478 25.6304L0.244193 21.7429L3.68048 22.9297L3.59295 23.3509L0.478554 29.0622L0.707639 29.1566L3.83643 23.4189L3.92083 23.0127L5.58916 23.5889C4.22345 25.4299 2.2629 28.4459 2.15155 28.6174L2.37231 28.7258C2.40834 28.6703 5.90618 23.2892 6.82555 22.4617C6.38724 23.1614 6.05558 23.736 5.8682 24.1585C4.53966 26.0009 2.87749 28.5578 2.77521 28.7154L2.99596 28.8237C3.01871 28.7887 4.42058 26.6321 5.68285 24.8377C5.6609 25.0452 5.63245 25.2599 5.60438 25.4692C5.47729 26.4171 5.35725 27.3124 5.77326 27.8335C6.23853 28.4164 8.67855 30.7484 8.7822 30.8474L9.20401 30.5136C9.17888 30.4896 6.68589 28.1071 6.24185 27.5508C5.94876 27.1837 6.06171 26.3413 6.17093 25.5267C6.20581 25.2666 6.24185 24.9977 6.26532 24.7402C6.29427 24.4226 6.76388 23.5953 7.35942 22.6464C7.41563 22.5889 7.46559 22.5426 7.50768 22.5101C8.09774 22.0546 10.3255 20.3079 11.9284 18.9675C12.0199 19.1561 12.0801 19.3015 12.0993 19.3893C12.1623 19.6762 11.7263 21.2894 11.376 22.5856C10.6434 25.2958 10.3244 26.6145 10.5626 26.9973C10.6395 27.1208 10.8371 27.4058 11.1049 27.7839L9.06713 29.6509L9.25104 29.8026L11.2426 27.9779C11.7887 28.7455 12.556 29.8058 13.2116 30.708C13.0527 30.8591 12.9521 30.9524 12.9263 30.9715C12.9285 30.9699 12.9304 30.9688 12.9318 30.968L13.0764 31.149C13.0972 31.1364 13.195 31.0473 13.3511 30.8999C13.9734 31.7558 14.4662 32.4301 14.5195 32.503L15.0009 32.2371C14.987 32.218 14.4364 31.4647 13.7496 30.5197C14.6372 29.6669 16.2177 28.1214 17.3872 26.9752L19.9312 28.957C19.1031 29.7905 17.8225 31.0571 17.6739 31.1438C17.6742 31.1435 17.6823 31.1389 17.6963 31.1353L17.7675 31.3468C17.8239 31.3325 17.8877 31.3162 19.0663 30.154C19.5069 29.7194 19.9418 29.2833 20.12 29.1041L23.3219 31.5985L23.4911 31.4343L21.596 29.958L23.5118 28.3157L24.6168 29.2161L24.8768 28.9748L22.0679 26.6861L22.0593 26.6792L20.3975 25.6254L21.2851 24.8435L24.3728 27.45L24.5494 27.2919L21.2813 24.5331L20.1905 25.4941L20.1895 25.4935L18.447 23.7466L19.6766 23.0863L21.0136 23.1291L21.7966 22.7938L21.797 22.7939L21.7973 22.7935L22.6046 22.4477L24.9724 23.7478L25.1078 23.5615L22.6199 22.1954L22.0448 22.4418L24.6527 18.736C25.1689 19.9026 25.6673 21.0017 25.6726 21.0135L25.9085 20.9327C25.9027 20.92 25.3281 19.6527 24.7737 18.3952C23.9799 16.5947 23.7795 16.0669 23.7342 15.9152L24.7883 15.3721L25.9554 18.6987L26.1979 18.6344L25.0127 15.2565L27.3085 14.0737ZM24.6481 15.1881L22.029 16.5375L20.9416 15.3075L22.3355 14.905L22.8243 13.8417C22.9609 13.9211 23.0478 13.972 23.0638 13.9824C23.1388 14.0312 24.008 14.6961 24.6481 15.1881ZM22.6087 13.7168L22.1439 14.7282L20.5233 15.196L21.8093 16.6507L21.4786 16.821L21.4786 16.8211L20.1834 17.4884L20.1595 17.5007L19.7305 18.0397L18.7193 18.3723L18.4951 18.4917L16.8563 14.2379C17.5498 13.6569 18.2489 13.1402 18.8421 12.8272C19.2239 12.6257 19.5323 12.3703 19.7816 12.0897C20.4663 12.4828 21.8794 13.2949 22.6087 13.7168ZM12.8331 18.194C13.213 17.8588 13.4901 17.5948 13.5994 17.4509C13.9654 16.9691 15.2776 15.5881 16.6548 14.4087L18.2733 18.61L14.4564 20.6443L12.8331 18.194ZM4.00363 21.3746L2.14669 20.4884L2.29114 20.1704L4.10567 20.8835L4.00363 21.3746ZM4.17437 20.5529L4.15212 20.6599L2.38436 19.9651L2.54286 19.6162L4.21378 19.8786L4.17437 20.5529ZM2.78379 19.0858C3.36755 19.1224 4.00435 19.2002 4.24888 19.2784L4.22676 19.6567L2.63782 19.4072L2.78379 19.0858ZM3.55653 18.9332C3.28095 18.9015 3.00888 18.8805 2.84973 18.8695L3.12843 17.5283L4.33879 17.7402L4.26209 19.0524C4.11215 19.0116 3.88964 18.9716 3.55653 18.9332ZM4.84294 13.4529L8.30178 12.6731C8.36124 12.7735 8.41964 12.8735 8.47695 12.973L8.41454 13.4373L6.41778 15.0211C5.74022 14.9351 5.0035 14.8328 4.76489 14.7858L4.84294 13.4529ZM4.95354 11.0092C4.9488 11.0041 4.47342 10.4945 3.99418 9.99529C3.7123 9.70168 3.48407 9.46892 3.31586 9.30349C3.22016 9.20938 3.14786 9.13982 3.09027 9.08845L4.40373 8.34622C5.67835 9.41974 7.07276 10.7134 7.78926 11.8386C7.89214 12.0002 7.99266 12.1616 8.09077 12.3222L4.86658 13.0491L4.98411 11.042L4.95354 11.0092ZM16.8659 8.59925C16.5746 8.56867 15.9031 8.49725 15.7315 8.47505C15.7158 8.4569 15.6955 8.42637 15.6718 8.38638L17.0319 7.41361L16.8659 8.59925ZM15.6562 8.68774C15.774 8.70625 16.6719 8.80085 16.8353 8.818L16.6722 9.98343L16.1271 10.3572L15.6493 9.94961L13.2277 10.9596L12.7476 10.3413L13.0593 10.2551L15.4744 8.52757C15.5722 8.67429 15.6202 8.6821 15.6562 8.68774ZM11.0146 12.1417L11.989 13.1945L11.6717 13.4122L10.5761 12.3964L11.0146 12.1417ZM12.1881 13.058L11.2396 12.0333L13.14 11.2407L13.7301 12.0008L12.1881 13.058ZM10.9777 11.8981L9.1174 12.9789C9.01981 12.8062 8.91999 12.6337 8.81856 12.4623L11.8896 10.5788L12.4959 10.411L12.9966 11.056L10.9777 11.8981ZM10.3625 12.5206L11.4719 13.5491L9.96974 14.5791C9.93686 14.5276 9.91075 14.4868 9.89231 14.458C9.69384 14.0431 9.46945 13.6117 9.2294 13.1789L10.3625 12.5206ZM11.646 13.7105L11.6929 13.7541L11.7002 13.7608L14.3637 15.5229C13.6013 16.2668 12.9957 16.9268 12.7642 17.2316C12.6604 17.3682 12.3897 17.6249 12.0168 17.9531C11.401 16.8521 10.5119 15.4334 10.094 14.7746L11.646 13.7105ZM14.5335 15.3583L11.8706 13.5966L11.8457 13.5735L14.8831 11.4908L16.3709 13.7252C15.7393 14.235 15.0998 14.8133 14.5335 15.3583ZM13.9297 11.8639L13.371 11.1443L15.5987 10.2152L15.9264 10.4948L13.9297 11.8639ZM12.8433 9.91008L12.489 10.0081L11.8044 9.12632C12.887 8.60294 14.0296 8.05282 15.0136 7.58056C15.1183 7.82886 15.2049 8.02038 15.2774 8.16908L12.8433 9.91008ZM12.2372 10.0778L11.6898 10.2293L8.61146 12.1173C8.50472 11.9421 8.39678 11.7688 8.2883 11.5985C8.17179 11.4155 8.03914 11.2296 7.89449 11.0421C8.31625 10.82 9.85124 10.0711 11.582 9.23385L12.2372 10.0778ZM11.3615 9.08842C8.85524 10.3009 8.03156 10.7119 7.75173 10.8615C7.46829 10.5112 7.14423 10.1566 6.79649 9.80499L10.0169 7.21786L11.4397 9.05058C11.4137 9.06319 11.3876 9.0758 11.3615 9.08842ZM8.68324 13.3372C8.94678 13.8108 9.18271 14.2677 9.38475 14.6937L8.89466 15.503L8.47319 17.5313L8.09243 17.7333L8.68324 13.3372ZM10.7207 16.8317C11.0442 17.368 11.3487 17.8876 11.5894 18.3227C10.7285 19.0565 9.55719 20.0025 8.56409 20.7929C8.66325 20.6435 8.7606 20.4971 8.85486 20.3554C9.95602 18.6996 10.6349 17.6658 10.7131 17.2895C10.7395 17.1624 10.7409 17.0082 10.7207 16.8317ZM12.1331 18.1631C12.552 17.7961 12.8593 17.5063 12.9757 17.353C13.381 16.8195 14.9456 15.1843 16.4743 13.9404L16.5659 14.1781C15.1395 15.3888 13.7656 16.8322 13.3879 17.3295C13.2509 17.5099 12.8235 17.8991 12.2534 18.3863C12.2151 18.3142 12.175 18.2397 12.1331 18.1631ZM19.3258 6.91662C20.01 7.58654 20.5234 9.18064 20.5776 9.35362C20.569 9.55514 20.435 11.7289 18.7106 12.6388C18.1288 12.9458 17.4475 13.4446 16.7679 14.0086L16.6785 13.7765C17.2212 13.3468 17.7525 12.9751 18.2184 12.7293C20.1368 11.717 20.206 9.3451 20.208 9.24463L20.2083 9.22936L20.2038 9.21462C20.1816 9.14157 19.6522 7.41696 18.8917 6.67234C18.6958 6.48055 18.6593 6.02964 18.7863 5.39668L19.1629 5.44319C19.0141 6.16902 19.0682 6.66442 19.3258 6.91662ZM6.88158 6.20341L9.26943 3.52485C10.6001 4.30904 11.746 4.98048 11.7596 4.98845L13.0829 5.76547L15.3563 5.85021L17.3888 5.22412L18.5349 5.36564C18.3912 6.0805 18.4469 6.56881 18.7021 6.81866C19.3863 7.4886 19.8997 9.0827 19.954 9.25567C19.9453 9.45719 19.8114 11.6309 18.0869 12.5409C17.6246 12.7848 17.0994 13.15 16.5622 13.5726L15.0842 11.3529L16.9112 10.1002L17.3157 7.21062L17.3912 7.15656L17.5634 6.32784L17.1269 6.25928L16.9836 6.94867L15.4838 8.02141C15.3913 7.82687 15.2897 7.59759 15.2013 7.38444L15.1509 7.26294L15.0208 7.32535C15.0035 7.33362 13.3719 8.11661 11.6621 8.94307L10.0618 6.88173L6.63003 9.63864C5.89229 8.90985 5.06582 8.2002 4.30672 7.57839L6.88158 6.20341ZM1.27986 9.19473L3.80226 7.84777C3.93766 7.95836 4.07587 8.07217 4.21633 8.18924L1.04192 9.98309C0.97124 9.88294 0.901567 9.78428 0.833321 9.68773L1.27986 9.19473ZM0.786088 10.1277L0.25263 10.3288L0.665633 9.87286C0.719288 9.94883 0.773623 10.0258 0.828541 10.1037L0.786088 10.1277ZM1.17448 10.171L2.87323 9.21109C3.12858 9.42579 4.10401 10.4488 4.72602 11.1152L4.6096 13.1071L3.42203 13.3748C2.67392 12.3047 1.87535 11.1651 1.17448 10.171ZM4.58599 13.5108L4.35179 17.5176L3.02617 17.2856L2.07865 17.4581L2.7395 15.7052L2.04935 14.1442L2.21192 14.0461L4.58599 13.5108ZM1.83497 14.2735L2.47052 15.7111L1.79222 17.5102L0.613165 17.7249L-0.691957 15.7981L1.83497 14.2735ZM0.738983 17.9272L2.8685 17.5395L2.59094 18.8751L1.40676 19.0547L0.738983 17.9272ZM-1.28828 19.6872L1.18433 19.3121L1.01612 20.2522L0.126005 21.436L-1.08761 20.6466L-1.28828 19.6872ZM0.349202 21.542L1.25822 20.3331L1.44803 19.2721L2.499 19.1127L1.82881 20.5881L3.9561 21.6033L3.72647 22.7084L0.349202 21.542ZM4.42529 20.5851L4.50329 19.2531L4.57068 19.2291C4.55934 19.205 4.5414 19.1806 4.50898 19.1561L4.60134 17.5789L4.60525 17.562L4.60236 17.5615L4.6419 16.8863L6.36659 17.1388L6.4087 16.9214L4.65488 16.6647L4.75185 15.0086C4.99116 15.058 5.47108 15.1243 6.44066 15.2468L6.50003 15.2542L8.36969 13.7712L7.81396 17.9064L4.97594 21.6558L4.67061 23.0345L3.96683 22.7914L4.42529 20.5851ZM6.71568 22.2473C6.51339 22.4035 6.15721 22.8333 5.73007 23.4004L4.9104 23.1173L5.21532 21.7405L8.02661 18.0264L8.7024 17.6679L9.13716 15.5756L9.50912 14.9614C9.9818 16.0016 10.2299 16.8252 10.1518 17.2013C10.0873 17.5115 9.17023 18.8905 8.36108 20.1071C7.93686 20.745 7.54694 21.3346 7.20365 21.8673C6.99028 22.0343 6.82209 22.1652 6.71568 22.2473ZM7.76004 22.0179C7.88823 21.8194 8.01875 21.6194 8.14909 21.421C9.21356 20.5798 10.6624 19.4192 11.7042 18.5329C11.7456 18.6097 11.7843 18.6829 11.8202 18.7523C10.4824 19.8725 8.66013 21.3139 7.76004 22.0179ZM11.0666 26.7649C11.0455 26.7128 11.0022 26.4603 11.2552 25.3315C11.4164 24.6123 11.651 23.7365 11.8833 22.8762L13.4926 23.1289L13.5377 22.912L11.9414 22.6613C12.44 20.816 12.7406 19.6655 12.6596 19.2963C12.628 19.1521 12.5203 18.9064 12.3644 18.5997C12.4296 18.5441 12.4932 18.4896 12.5548 18.4365L14.3839 21.1973L15.5898 21.3867L16.7823 22.5823L11.5111 27.4118C11.2929 27.1027 11.1335 26.8719 11.0666 26.7649ZM15.8824 23.727L18.2374 25.8088C17.9617 26.0796 17.6683 26.3674 17.3665 26.6631L14.8324 24.689L15.8824 23.727ZM13.6094 30.3266C12.9397 29.4045 12.1711 28.3419 11.6486 27.606L14.6578 24.8489L17.1983 26.828C15.8808 28.119 14.4377 29.5281 13.6094 30.3266ZM19.9306 25.7384L21.8164 26.9343L23.3267 28.1648L21.4069 29.8107L17.5554 26.8103C17.9417 26.4316 18.2733 26.106 18.5056 25.8779L18.5841 25.8009L16.057 23.567L16.9492 22.7495L19.9164 25.7243L19.9306 25.7384ZM17.2223 22.5187L18.1764 21.7798L19.4441 22.9521L18.2788 23.5779L17.2223 22.5187ZM20.959 22.9069L19.6995 22.8665L18.192 21.4725L17.0562 22.3522L15.7893 21.0821L14.6253 20.8992L14.583 20.8354L18.8314 18.571L19.894 18.2216L20.3365 17.6657L21.5809 17.0245L23.239 20.3225L21.6193 22.624L20.959 22.9069ZM24.537 18.4741C24.5374 18.4749 24.5377 18.4757 24.5381 18.4765L23.4004 20.0931L21.8007 16.9113L23.5085 16.0315C23.5184 16.0603 23.5298 16.0914 23.5422 16.1252C23.5927 16.2626 23.672 16.4613 23.7779 16.7158C23.9556 17.1431 24.211 17.7347 24.537 18.4741ZM23.6623 15.9522L23.6624 15.9522C23.6623 15.9522 23.6623 15.9522 23.6623 15.9522ZM16.8263 19.322L16.6114 19.4389L15.6119 18.0502L15.8268 17.9333L16.8263 19.322ZM19.11 11.5635L17.7833 10.4747L18.3102 9.2525L18.5476 9.32985L18.0798 10.4149L19.284 11.4032L19.11 11.5635Z" fill="#DCDEE0"/>
</g>
<path d="M13.0426 2.05582L4.10938 1.16937L3.41211 6.48008L12.3454 7.36652L13.0426 2.05582Z" fill="#C7882C"/>
<path d="M12.1195 6.98719L3.45996 6.1278L4.11096 1.17004L12.7705 2.02943L12.1195 6.98719Z" fill="url(#paint0_linear_250_1511)"/>
<path d="M4.11004 1.17137L4.00684 1.9574L12.9401 2.84384L13.0433 2.05782L4.11004 1.17137Z" fill="#B27524"/>
<path d="M13.227 1.82581L3.99023 0.909241L3.87772 1.76622L13.1145 2.68278L13.227 1.82581Z" fill="#F0B74A"/>
<path d="M5.10146 2.06353C5.2152 2.06353 5.3074 1.98337 5.3074 1.88449C5.3074 1.7856 5.2152 1.70544 5.10146 1.70544C4.98771 1.70544 4.89551 1.7856 4.89551 1.88449C4.89551 1.98337 4.98771 2.06353 5.10146 2.06353Z" fill="#B27524"/>
<path d="M6.17763 2.1704C6.29137 2.1704 6.38358 2.09024 6.38358 1.99136C6.38358 1.89248 6.29137 1.81232 6.17763 1.81232C6.06389 1.81232 5.97168 1.89248 5.97168 1.99136C5.97168 2.09024 6.06389 2.1704 6.17763 2.1704Z" fill="#B27524"/>
<path d="M7.32021 2.2838C7.43395 2.2838 7.52616 2.20364 7.52616 2.10476C7.52616 2.00588 7.43395 1.92572 7.32021 1.92572C7.20647 1.92572 7.11426 2.00588 7.11426 2.10476C7.11426 2.20364 7.20647 2.2838 7.32021 2.2838Z" fill="#B27524"/>
<path d="M8.46474 2.39721C8.57848 2.39721 8.67068 2.31705 8.67068 2.21817C8.67068 2.11928 8.57848 2.03912 8.46474 2.03912C8.35099 2.03912 8.25879 2.11928 8.25879 2.21817C8.25879 2.31705 8.35099 2.39721 8.46474 2.39721Z" fill="#B27524"/>
<path d="M9.60731 2.51073C9.72106 2.51073 9.81327 2.43057 9.81327 2.33169C9.81327 2.23281 9.72106 2.15265 9.60731 2.15265C9.49357 2.15265 9.40137 2.23281 9.40137 2.33169C9.40137 2.43057 9.49357 2.51073 9.60731 2.51073Z" fill="#B27524"/>
<path d="M10.7499 2.62426C10.8636 2.62426 10.9558 2.5441 10.9558 2.44522C10.9558 2.34633 10.8636 2.26617 10.7499 2.26617C10.6362 2.26617 10.5439 2.34633 10.5439 2.44522C10.5439 2.5441 10.6362 2.62426 10.7499 2.62426Z" fill="#B27524"/>
<path d="M11.8934 2.7376C12.0072 2.7376 12.0994 2.65744 12.0994 2.55856C12.0994 2.45968 12.0072 2.37952 11.8934 2.37952C11.7797 2.37952 11.6875 2.45968 11.6875 2.55856C11.6875 2.65744 11.7797 2.7376 11.8934 2.7376Z" fill="#B27524"/>
<path d="M6.21717 3.65804L5.46616 3.58349L5.23734 4.2596L4.76953 4.21316L5.34163 2.51575L6.63712 2.64433L6.53065 2.96024L5.7043 2.87826L5.57263 3.26879L6.32364 3.34334L6.21717 3.65804Z" fill="#FFE356"/>
<path d="M7.08686 4.46717C6.88045 4.44263 6.72225 4.36676 6.61239 4.2394C6.5024 4.11198 6.45202 3.95117 6.46098 3.75689C6.46425 3.66085 6.48774 3.54965 6.53098 3.42344C6.57447 3.29723 6.63698 3.18324 6.71874 3.08125C6.80038 2.97937 6.89668 2.89733 7.00739 2.83526C7.19296 2.73074 7.39586 2.69146 7.61607 2.71726C7.7515 2.73317 7.86681 2.77213 7.96178 2.8341C8.0565 2.89618 8.12821 2.979 8.17654 3.08257C8.22463 3.18619 8.24571 3.30065 8.23953 3.42618C8.23505 3.5149 8.21591 3.61436 8.18151 3.72467C8.14723 3.83492 8.0972 3.93839 8.03131 4.035C7.96541 4.13167 7.88595 4.21471 7.7928 4.28421C7.69953 4.35371 7.59366 4.40562 7.47507 4.44006C7.35637 4.47444 7.227 4.48349 7.08686 4.46717ZM7.77075 3.37599C7.78759 3.17692 7.71261 3.06503 7.54582 3.04044C7.41706 3.02212 7.30417 3.05602 7.20677 3.14238C7.10951 3.22867 7.03513 3.36288 6.98341 3.5449C6.95119 3.65732 6.93326 3.74509 6.92963 3.80822C6.91218 4.01045 6.98789 4.12282 7.15687 4.14519C7.26746 4.16099 7.36787 4.13582 7.45787 4.06969C7.54787 4.00351 7.61982 3.90142 7.67397 3.76341C7.72824 3.62541 7.76046 3.49625 7.77075 3.37599Z" fill="#FFE356"/>
<path d="M8.97748 4.65498C8.77107 4.63044 8.61288 4.55452 8.50313 4.42715C8.39315 4.29979 8.34264 4.13898 8.3516 3.9447C8.35499 3.84866 8.37837 3.73746 8.42174 3.61125C8.4651 3.48504 8.52773 3.37099 8.60937 3.269C8.69113 3.16718 8.7873 3.08514 8.89814 3.02301C9.08372 2.91855 9.28649 2.87927 9.5067 2.90507C9.64237 2.92097 9.75757 2.95994 9.85241 3.0219C9.94738 3.08398 10.0188 3.1668 10.0672 3.27037C10.1154 3.37394 10.1365 3.48846 10.1302 3.61398C10.1258 3.7027 10.1065 3.80211 10.0721 3.91242C10.0379 4.02268 9.98783 4.12619 9.92194 4.22276C9.85616 4.31948 9.7767 4.40252 9.68343 4.47202C9.59028 4.54147 9.48441 4.59344 9.36583 4.62787C9.24712 4.6622 9.11775 4.6713 8.97748 4.65498ZM9.6615 3.56381C9.67834 3.36473 9.60336 3.25284 9.43657 3.22825C9.3078 3.20987 9.19491 3.24383 9.09752 3.33019C9.00025 3.41643 8.92588 3.5507 8.87415 3.73267C8.84193 3.84513 8.82389 3.9329 8.82025 3.99598C8.80292 4.19822 8.87863 4.31063 9.04761 4.33301C9.1582 4.34875 9.25862 4.32364 9.3485 4.25745C9.43861 4.19127 9.51057 4.08923 9.56471 3.95117C9.61887 3.81322 9.65109 3.68406 9.6615 3.56381Z" fill="#FFE356"/>
<path d="M10.0488 4.73704L10.6208 3.03967L11.2062 3.09891C11.3787 3.11602 11.524 3.17046 11.6423 3.26208C11.7604 3.3537 11.8376 3.47038 11.8734 3.61212C11.9042 3.73643 11.9014 3.86706 11.8648 4.00401L11.8458 4.07562C11.8007 4.22858 11.723 4.36341 11.6125 4.48015C11.5019 4.59694 11.3681 4.68381 11.2109 4.74094C11.0538 4.79807 10.8895 4.81886 10.7177 4.80344L10.0488 4.73704ZM10.9837 3.40093L10.6233 4.46756L10.7599 4.48236C10.9204 4.49826 11.0564 4.45708 11.1676 4.35889C11.279 4.26074 11.3582 4.10152 11.4056 3.88132L11.4135 3.84231C11.4366 3.71616 11.4264 3.61759 11.3832 3.54661C11.3397 3.47564 11.2664 3.43341 11.1627 3.41993L10.9837 3.40093Z" fill="#FFE356"/>
<path d="M4.52441 5.56211L4.84239 4.61841L5.16786 4.65137C5.26368 4.66085 5.34435 4.69118 5.41024 4.74209C5.4759 4.79301 5.51878 4.85788 5.53865 4.93664C5.55584 5.00583 5.55427 5.07844 5.53404 5.15457L5.52339 5.19443C5.49831 5.27942 5.45506 5.3544 5.39366 5.41926C5.33212 5.48419 5.25787 5.53247 5.17053 5.56427C5.08308 5.59602 4.99174 5.6076 4.89629 5.59902L4.52441 5.56211ZM5.04406 4.81928L4.84383 5.4123L4.91978 5.42047C5.00893 5.42931 5.08439 5.40646 5.14629 5.35191C5.20819 5.29731 5.2524 5.20875 5.27869 5.08638L5.28305 5.06469C5.29601 4.99456 5.29019 4.93975 5.26609 4.90021C5.2421 4.86082 5.20129 4.83734 5.14375 4.82987L5.04406 4.81928Z" fill="#FFE356"/>
<path d="M6.31055 5.32553L5.90367 5.28514L5.82712 5.5106L6.30849 5.55841L6.24925 5.73343L5.50781 5.65982L5.8259 4.71613L6.56892 4.78989L6.50969 4.96549L6.02758 4.91763L5.95975 5.11655L6.36748 5.15699L6.31055 5.32553Z" fill="#FFE356"/>
<path d="M6.6816 5.59532L7.13258 5.64008L7.07334 5.81509L6.3623 5.74448L6.6804 4.80084L6.94131 4.82675L6.6816 5.59532Z" fill="#FFE356"/>
<path d="M7.46612 5.85415L7.20605 5.82835L7.525 4.8847L7.78433 4.91045L7.46612 5.85415Z" fill="#FFE356"/>
<path d="M8.15631 5.65439L8.58717 4.98992L8.88527 5.01945L8.22341 5.92903L7.939 5.90081L7.87988 4.91968L8.16127 4.94763L8.15631 5.65439Z" fill="#FFE356"/>
<path d="M9.46094 5.6379L9.05406 5.59752L8.97751 5.82297L9.45888 5.87078L9.39965 6.04575L8.6582 5.9722L8.97629 5.0285L9.71931 5.10222L9.66008 5.27787L9.17797 5.23L9.11014 5.42892L9.51787 5.46936L9.46094 5.6379Z" fill="#FFE356"/>
<path d="M10.0275 5.76337L9.88309 5.749L9.76983 6.08271L9.50977 6.05691L9.82786 5.11322L10.2186 5.15265C10.3439 5.16508 10.437 5.20015 10.4981 5.2577C10.559 5.3153 10.5802 5.38775 10.5617 5.4751C10.5469 5.54412 10.5162 5.59941 10.4696 5.64095C10.4232 5.68249 10.3617 5.71288 10.2851 5.73204L10.3837 6.1322L10.3821 6.14347L10.1044 6.11594L10.0275 5.76337ZM9.94147 5.57393L10.0935 5.59041C10.1349 5.59451 10.1723 5.5893 10.2053 5.57461C10.2382 5.55997 10.2634 5.53796 10.2805 5.50858C10.2978 5.4792 10.3053 5.44977 10.3038 5.42055C10.3 5.37047 10.2674 5.34109 10.206 5.33225L10.0295 5.31403L9.94147 5.57393Z" fill="#FFE356"/>
<path d="M11.037 5.65505L11.3715 5.26626L11.6644 5.29533L11.1043 5.8754L10.9942 6.20406L10.7296 6.17784L10.8479 5.82785L10.7061 5.20087L10.9769 5.22709L11.037 5.65505Z" fill="#FFE356"/>
<path d="M10.7755 10.1353L9.06878 10.2862L9.60499 7.1315L8.91675 6.94782L8.94333 6.73862L8.64402 6.84546L8.66664 6.98048L7.95551 6.71202L7.86037 6.8068L7.53618 6.76512L7.54749 6.83263L7.16087 6.70233L7.11035 6.87419L7.1375 7.03622L7.63932 7.09677L8.81822 7.26523C8.81822 7.26523 8.03775 9.8702 7.97062 10.3395C7.90349 10.8088 8.48948 11.36 8.48948 11.36L11.061 11.4924L10.7755 10.1353Z" fill="#FFE356"/>
<path d="M11.4758 27.8939L8.86738 27.4124C8.70814 27.383 8.60647 27.247 8.64028 27.1086L8.65634 27.0428C8.69015 26.9044 8.84665 26.816 9.00588 26.8454L11.6143 27.3269C11.7735 27.3563 11.8752 27.4923 11.8414 27.6307L11.8253 27.6965C11.7915 27.8349 11.635 27.9233 11.4758 27.8939Z" fill="#3A3333"/>
<path d="M10.0124 15.7842L2.09961 19.5611L2.57554 20.3903L10.2251 17.959L10.0124 15.7842Z" fill="#FFE356"/>
<path d="M15.5315 16.6615L20.365 23.1439L19.6351 23.7292L14.1045 18.7097L15.5315 16.6615Z" fill="#FFE356"/>
<path d="M10.6535 15.3083L5.04199 17.809L6.93335 19.9692L12.0957 17.301L16.3054 21.4962L18.7754 20.5676L14.8791 15.7155L10.6535 15.3083Z" fill="#29CD79"/>
<path d="M14.5663 7.72479C15.6503 7.9249 16.7162 8.53349 16.7162 8.53349C16.8564 7.51633 16.2852 6.20583 15.0916 5.98551C13.5362 5.69839 12.7969 6.7556 12.4141 7.73934C12.4141 7.73934 13.4994 7.52785 14.5663 7.72479Z" fill="#4452F2"/>
<path d="M16.7162 8.53349C16.7421 8.34541 16.7434 8.14726 16.7212 7.94785C16.4324 7.58348 15.7277 7.23878 14.8524 7.07721C13.8884 6.89926 13.0095 6.99717 12.6179 7.28777C12.5409 7.43677 12.4727 7.58871 12.4141 7.73935C12.4141 7.73935 13.4994 7.52785 14.5663 7.72479C15.6503 7.9249 16.7162 8.53349 16.7162 8.53349Z" fill="#29CD79"/>
<path d="M16.721 8.65495C16.6304 9.02574 15.58 9.14599 14.3749 8.92353C13.1698 8.70107 12.2663 8.22015 12.3568 7.84936C12.4474 7.47857 13.5106 7.30568 14.7157 7.52814C15.9209 7.7506 16.8115 8.28417 16.721 8.65495Z" fill="#A3B7AA"/>
<path d="M16.5763 8.62824C16.6593 8.28813 15.8083 7.8429 14.6754 7.63378C13.5425 7.42466 12.5567 7.53084 12.4736 7.87094C12.3906 8.21105 13.2416 8.65628 14.3745 8.8654C15.5075 9.07453 16.4932 8.96834 16.5763 8.62824Z" fill="#190F0E"/>
<path d="M15.6578 10.1009C16.4141 10.5835 16.7603 11.1025 16.8451 11.2792L14.9283 15.6003L15.2348 16.0287L10.1768 15.4096L10.6778 15.0757C10.6778 15.0757 11.2343 10.3802 11.5808 9.86182C12.1152 9.60925 13.2161 9.64471 13.2161 9.64471C13.64 9.78585 15.6578 10.1009 15.6578 10.1009Z" fill="#5865F2"/>
<path d="M11.7354 9.80237L10.6213 10.0778L10.4229 11.8415L12.095 11.6005L11.7354 9.80237Z" fill="#5865F2"/>
<path d="M16.147 8.9499C16.0419 10.0326 14.9544 10.5732 14.0147 10.3997C13.075 10.2262 12.4844 9.38455 12.744 8.32172C12.9051 7.66186 13.291 7.66291 14.4454 7.87896C15.8122 8.13475 16.2289 8.10694 16.147 8.9499Z" fill="#FFE356"/>
<path d="M14.9028 9.46404C14.8269 9.77456 14.4759 9.97284 14.1187 9.9069C13.7615 9.84097 13.5334 9.53579 13.6093 9.22526C13.6851 8.91474 13.8988 9.27871 14.256 9.34465C14.6132 9.41059 14.9786 9.15352 14.9028 9.46404Z" fill="white"/>
<path d="M16.1511 8.87514C16.1994 8.11086 15.7684 8.12668 14.4447 7.87897C13.2985 7.66446 12.9103 7.66267 12.7471 8.30847C13.2878 8.28573 13.9411 8.33276 14.6331 8.4605C15.1994 8.56504 15.7163 8.71001 16.1511 8.87514Z" fill="#D8BA39"/>
<path d="M9.56183 14.1142L7.5957 13.8683L7.71456 13.3817L9.68762 13.5992L9.56183 14.1142Z" fill="#4E4B47"/>
<path d="M16.5469 15.4038L18.4583 15.8737L18.5771 15.3871L16.6727 14.8888L16.5469 15.4038Z" fill="#4E4B47"/>
<path d="M17.5036 12.2112C17.81 12.7561 18.5049 13.8772 18.6401 14.2737C18.6461 14.3491 18.72 15.0739 18.0436 15.2463C18.0471 15.3849 18.0605 15.4299 18.0605 15.4299C18.0605 15.4299 17.9461 15.7484 17.8593 15.7536C17.7726 15.7588 17.2978 15.703 17.2978 15.703L17.2312 15.7757L17.0567 15.6904L17.084 15.5786L17.1684 15.2333L17.0197 15.1422L17.475 14.8541L17.448 14.0536L16.1777 12.8333L17.5036 12.2112Z" fill="#FFE356"/>
<path d="M16.427 10.7206L17.7528 12.4107L16.3082 13.4861L15.4209 12.3787C15.4209 12.3787 15.5564 10.6642 16.427 10.7206Z" fill="#5865F2"/>
<path d="M16.2139 15.9117L9.60041 14.6909L9.36426 14.0776L16.7164 15.4347L16.2139 15.9117Z" fill="#D63495"/>
<path d="M9.36426 14.0779C9.48155 13.5976 9.59623 13.1281 10.616 13.2325L15.9678 14.2204C16.8141 14.3766 16.8337 14.9548 16.7164 15.435L9.36426 14.0779Z" fill="#EB459F"/>
<path d="M6.47867 24.7571L7.37457 20.706L8.689 16.4975C8.8911 15.6701 10.9629 15.3515 12.8709 15.7037C14.7789 16.0559 16.5231 17.0789 16.321 17.9063L15.5549 22.216L14.4799 26.2341C14.0758 27.8889 6.07448 26.4119 6.47867 24.7571Z" fill="#EB459F"/>
<path d="M14.48 26.2342L15.5549 22.2162L15.8494 20.5595C15.1644 21.7819 14.1263 21.427 13.4988 21.362C12.965 21.3067 10.2603 20.7301 9.33712 20.5597C8.7123 20.4443 8.08903 19.9055 7.8714 19.1154L7.37457 20.7062L6.47867 24.7572C6.07448 26.4121 14.0758 27.8891 14.48 26.2342Z" fill="#D63495"/>
<path d="M8.35501 25.1191C7.8793 24.6124 6.97319 20.829 8.99167 20.9454C10.5081 21.0328 12.8172 21.3557 14.0065 21.8711C15.7331 22.6193 13.3926 25.6136 12.6374 25.9096C11.1005 26.512 9.0993 25.9119 8.35501 25.1191Z" fill="#BF0F76"/>
<path d="M10.5222 29.9914L8.72187 29.659C8.47542 29.6135 8.31806 29.403 8.37039 29.1887L9.76748 23.4687C9.81981 23.2545 10.062 23.1177 10.3085 23.1631L12.1087 23.4955C12.3552 23.541 12.5125 23.7515 12.4602 23.9658L11.0631 29.6858C11.0108 29.9 10.7686 30.0368 10.5222 29.9914Z" fill="#22393F"/>
<path d="M8.15107 22.9131C7.66575 22.5299 8.2219 21.1088 9.26127 21.1329C10.3006 21.157 11.1931 21.3217 11.6547 21.4069C12.1163 21.4921 12.7649 21.6678 13.6312 21.9395C14.4975 22.2113 14.5353 23.9658 13.8135 23.9583C13.4435 23.9545 8.24848 22.99 8.15107 22.9131Z" fill="#22393F"/>
<path d="M11.8309 19.9677C11.1422 19.8406 10.695 19.2682 10.8127 18.6647L11.8118 14.3513L14.4736 14.8426L13.3704 19.1364C13.1958 19.7299 12.5197 20.0949 11.8309 19.9677Z" fill="#D63495"/>
<path d="M11.8903 19.717C11.297 19.6075 10.9087 19.1106 11.0102 18.5908L11.8332 14.6178L14.3259 15.0779L13.2209 18.9988C13.0706 19.5097 12.4836 19.8265 11.8903 19.717Z" fill="#EB459F"/>
<path d="M13.2738 15.5924C14.1903 15.5924 14.9333 14.9465 14.9333 14.1497C14.9333 13.3529 14.1903 12.707 13.2738 12.707C12.3573 12.707 11.6143 13.3529 11.6143 14.1497C11.6143 14.9465 12.3573 15.5924 13.2738 15.5924Z" fill="#EB459F"/>
<path d="M13.2733 15.5241C14.1464 15.5241 14.8541 14.9088 14.8541 14.1498C14.8541 13.3908 14.1464 12.7755 13.2733 12.7755C12.4002 12.7755 11.6924 13.3908 11.6924 14.1498C11.6924 14.9088 12.4002 15.5241 13.2733 15.5241Z" fill="#D63495"/>
<path d="M13.2758 15.3463C14.036 15.3463 14.6522 14.8105 14.6522 14.1497C14.6522 13.4888 14.036 12.9531 13.2758 12.9531C12.5156 12.9531 11.8994 13.4888 11.8994 14.1497C11.8994 14.8105 12.5156 15.3463 13.2758 15.3463Z" fill="white"/>
<path d="M13.2754 15.1617C13.9182 15.1617 14.4394 14.7086 14.4394 14.1497C14.4394 13.5908 13.9182 13.1378 13.2754 13.1378C12.6325 13.1378 12.1113 13.5908 12.1113 14.1497C12.1113 14.7086 12.6325 15.1617 13.2754 15.1617Z" fill="#868785"/>
<path d="M13.3882 14.3546C13.705 14.3546 13.9619 14.1313 13.9619 13.8558C13.9619 13.5804 13.705 13.3571 13.3882 13.3571C13.0713 13.3571 12.8145 13.5804 12.8145 13.8558C12.8145 14.1313 13.0713 14.3546 13.3882 14.3546Z" fill="white"/>
<path d="M12.981 14.7661C13.1074 14.7661 13.21 14.677 13.21 14.567C13.21 14.4571 13.1074 14.3679 12.981 14.3679C12.8545 14.3679 12.752 14.4571 12.752 14.567C12.752 14.677 12.8545 14.7661 12.981 14.7661Z" fill="white"/>
<path d="M12.3178 25.2634C12.6266 25.3204 13.4763 24.8815 13.4816 24.6445L13.5619 22.6542C13.5683 22.3695 13.3896 22.0981 13.0904 21.9822C12.1618 21.6225 11.0282 21.4238 10.1977 21.4483C9.87043 21.4579 9.58004 21.6333 9.45283 21.8957L8.59592 23.7427C8.49002 23.9611 9.06124 24.6622 9.37004 24.7192C9.80146 24.7988 11.8864 25.1837 12.3178 25.2634Z" fill="#EB459F"/>
<path d="M9.36283 24.7171C9.72469 23.5311 9.76067 22.3158 9.63655 21.6614C9.55998 21.7276 9.49632 21.8061 9.45284 21.8958L8.59593 23.7427C8.49081 23.9595 9.05249 24.6511 9.36283 24.7171Z" fill="#D63495"/>
<path d="M12.3252 25.2642C12.5489 24.0527 13.0841 22.9294 13.5034 22.3754C13.5424 22.4629 13.5639 22.5571 13.5617 22.6544L13.4814 24.6447C13.4761 24.88 12.6396 25.3135 12.3252 25.2642Z" fill="#D63495"/>
<path d="M2.46037 19.3925C2.46037 19.3925 1.44032 19.0202 1.3552 18.9355C1.27008 18.8508 0.874384 18.4673 0.801143 18.4423C0.617815 18.489 0.543786 18.5213 0.543786 18.5213C0.539884 18.808 0.542478 19.1764 0.729972 19.3835C0.917459 19.5906 2.14115 21.0707 2.14115 21.0707L2.38189 20.8023L2.4936 20.7726L2.82216 20.4021L2.84366 20.3141C2.84366 20.3141 2.54287 20.213 2.51159 20.1033C2.3905 19.6785 2.46037 19.3925 2.46037 19.3925Z" fill="#5865F2"/>
<path d="M0.813888 18.45C0.810149 18.448 0.803967 18.4433 0.801146 18.4423C0.617818 18.489 0.543786 18.5213 0.543786 18.5213C0.539884 18.808 0.542478 19.1764 0.729972 19.3835C0.917459 19.5906 2.14115 21.0707 2.14115 21.0707L2.38189 20.8023C2.38189 20.8023 0.77865 18.8756 0.748031 18.6778C0.725278 18.5308 0.75689 18.4758 0.813888 18.45Z" fill="#EAEAEA"/>
<path d="M2.41961 19.4464C2.53063 19.3084 2.39558 19.0878 2.38491 19.0075C2.37666 18.9456 2.73595 18.7948 2.69331 19.0868C2.65067 19.3788 2.48199 19.4695 2.41961 19.4464Z" fill="#5865F2"/>
<path d="M20.2019 22.823C20.2019 22.823 21.3079 22.8432 21.4253 22.7958C21.5427 22.7485 22.0835 22.5379 22.1621 22.5409C22.3078 22.6483 22.3603 22.704 22.3603 22.704C22.2299 22.9674 22.0553 23.3031 21.7872 23.4261C21.5191 23.549 19.7091 24.4692 19.7091 24.4692L19.6146 24.1389L19.5264 24.0723L19.3994 23.6177L19.4209 23.5297C19.4209 23.5297 19.743 23.5436 19.8228 23.4544C20.132 23.109 20.2019 22.823 20.2019 22.823Z" fill="#5865F2"/>
<path d="M22.1475 22.5434C22.1518 22.5429 22.1597 22.5408 22.1627 22.5409C22.3084 22.6483 22.3609 22.704 22.3609 22.704C22.2305 22.9673 22.0559 23.303 21.7878 23.426C21.5197 23.549 19.7098 24.4691 19.7098 24.4691L19.6152 24.1389C19.6152 24.1389 21.9807 22.9447 22.1012 22.7748C22.1906 22.6486 22.1875 22.5872 22.1475 22.5434Z" fill="#EAEAEA"/>
<path d="M20.215 22.8866C20.178 22.7214 20.4046 22.5675 20.4518 22.498C20.4883 22.4442 20.2305 22.1796 20.133 22.4614C20.0355 22.7433 20.1472 22.8857 20.215 22.8866Z" fill="#5865F2"/>
<path d="M17.8116 13.9263C18.1471 13.9263 18.4191 13.6898 18.4191 13.3981C18.4191 13.1065 18.1471 12.87 17.8116 12.87C17.4761 12.87 17.2041 13.1065 17.2041 13.3981C17.2041 13.6898 17.4761 13.9263 17.8116 13.9263Z" fill="#4E4B47"/>
<path d="M15.8085 14.2774L15.4434 14.21C15.554 14.0938 15.6111 14.0133 15.8138 13.8881C16.0738 13.7734 17.3069 13.5652 17.4716 13.381C17.538 13.3542 17.7155 13.3935 17.664 13.4815C17.6126 13.5696 17.3939 13.6073 17.12 13.6869C16.8462 13.7664 15.8385 13.9707 15.7723 14.0886C15.7484 14.1557 15.835 14.2303 15.8085 14.2774Z" fill="#4E4B47"/>
<path d="M17.9156 12.9698C17.8231 12.9527 17.7318 12.9605 17.6484 12.9854L17.501 13.4295L18.27 13.2206C18.2066 13.097 18.0796 13 17.9156 12.9698Z" fill="#9B9B9B"/>
<path d="M9.49033 12.3905C9.82585 12.3905 10.0978 12.1541 10.0978 11.8624C10.0978 11.5707 9.82585 11.3342 9.49033 11.3342C9.15481 11.3342 8.88281 11.5707 8.88281 11.8624C8.88281 12.1541 9.15481 12.3905 9.49033 12.3905Z" fill="#4E4B47"/>
<path d="M10.9095 13.3734L11.2747 13.4408C11.2278 13.2956 11.2133 13.2018 11.0866 13.0158C10.9027 12.8193 9.8733 12.1934 9.80891 11.9668C9.76076 11.9189 9.58024 11.8921 9.58608 11.9908C9.59191 12.0894 9.77414 12.2011 9.98717 12.3705C10.2002 12.54 11.0254 13.0826 11.0308 13.2137C11.0213 13.2835 10.9073 13.321 10.9095 13.3734Z" fill="#4E4B47"/>
<path d="M9.59432 11.4341C9.68687 11.4512 9.76668 11.4905 9.83123 11.5427L9.75833 12.0006L9.15332 11.5381C9.26905 11.4475 9.4304 11.4038 9.59432 11.4341Z" fill="#9B9B9B"/>
<path d="M12.119 19.5518C12.6082 19.5518 13.0047 19.2071 13.0047 18.7818C13.0047 18.3566 12.6082 18.0119 12.119 18.0119C11.6299 18.0119 11.2334 18.3566 11.2334 18.7818C11.2334 19.2071 11.6299 19.5518 12.119 19.5518Z" fill="#D63495"/>
<path d="M12.1178 19.4521C12.5436 19.4521 12.8889 19.152 12.8889 18.7817C12.8889 18.4115 12.5436 18.1114 12.1178 18.1114C11.6919 18.1114 11.3467 18.4115 11.3467 18.7817C11.3467 19.152 11.6919 19.4521 12.1178 19.4521Z" fill="white"/>
<path d="M12.1189 19.3486C12.4791 19.3486 12.771 19.0947 12.771 18.7816C12.771 18.4685 12.4791 18.2147 12.1189 18.2147C11.7588 18.2147 11.4668 18.4685 11.4668 18.7816C11.4668 19.0947 11.7588 19.3486 12.1189 19.3486Z" fill="#868785"/>
<path d="M12.3107 19.0146C12.4882 19.0146 12.6321 18.8895 12.6321 18.7352C12.6321 18.5809 12.4882 18.4557 12.3107 18.4557C12.1332 18.4557 11.9893 18.5809 11.9893 18.7352C11.9893 18.8895 12.1332 19.0146 12.3107 19.0146Z" fill="white"/>
<path d="M11.8041 18.9042C11.8749 18.9042 11.9324 18.8543 11.9324 18.7927C11.9324 18.7311 11.8749 18.6812 11.8041 18.6812C11.7332 18.6812 11.6758 18.7311 11.6758 18.7927C11.6758 18.8543 11.7332 18.9042 11.8041 18.9042Z" fill="white"/>
<path d="M11.0631 29.6858L11.7659 26.8084C11.6953 26.0524 11.2597 25.7086 10.6847 25.6025C10.0576 25.4867 9.44988 25.6875 9.02316 26.5161L8.37039 29.1887C8.31806 29.403 8.47542 29.6135 8.72187 29.659L10.5222 29.9913C10.7686 30.0368 11.0108 29.9 11.0631 29.6858Z" fill="#31474C"/>
<defs>
<linearGradient id="paint0_linear_250_1511" x1="3.45996" y1="4.07861" x2="12.7705" y2="4.07861" gradientUnits="userSpaceOnUse">
<stop stop-color="#F0B74A" stop-opacity="0"/>
<stop offset="1" stop-color="#F0B74A" stop-opacity="0.7"/>
</linearGradient>
</defs>
</svg>
