<svg width="30" height="23" viewBox="0 0 30 23" fill="none" xmlns="http://www.w3.org/2000/svg">
<path d="M27.1482 12.3475C27.1357 13.1543 26.9857 13.9455 26.7908 14.7038C26.5617 15.5965 26.2635 16.4388 25.9068 17.2281C25.3384 18.4888 24.6225 19.6143 23.8033 20.5942L23.6439 20.799C23.5524 20.916 23.4335 20.9814 23.3102 20.9814H2.66627C2.19066 20.9814 1.73183 20.6926 1.4349 20.1684C1.3079 19.9443 1.22076 19.699 1.20955 19.4606C1.17032 18.6438 1.39133 17.8071 1.79722 17.2282C1.89434 17.0887 2.00266 16.9642 2.12094 16.8584C2.89787 16.1624 3.91821 16.3373 4.77108 15.8493C4.86073 15.7976 4.94851 15.7384 5.03379 15.6725C5.59594 15.2348 6.03794 14.4896 6.23529 13.6249C6.4289 12.7776 6.39589 11.8482 6.61316 11.0121C6.74826 10.4917 6.9761 10.0279 7.2357 9.61269C8.84247 7.041 11.6607 6.4085 13.9367 7.59941C15.0367 8.17462 16.0608 9.12712 17.2268 9.30639C17.8792 9.40663 18.518 9.25783 19.1498 9.00073C20.7834 8.33711 22.3752 6.95072 24.0567 7.26075C25.7742 7.57697 27.1861 9.9009 27.1482 12.3475Z" fill="#CCD3FF"/>
<path d="M25.9068 17.2283C25.3384 18.489 24.6225 19.6145 23.8033 20.5944L23.6439 20.7992C23.5524 20.9163 23.4335 20.9816 23.3102 20.9816H2.66627C2.19066 20.9816 1.73183 20.6928 1.4349 20.1686C1.3079 19.9445 1.22076 19.6992 1.20955 19.4607C1.17032 18.644 1.39133 17.8073 1.79722 17.2283H25.9068Z" fill="#7386FF"/>
<path d="M18.5521 17.2281H3.57644C3.49971 17.2281 3.4375 17.2903 3.4375 17.367C3.4375 17.4438 3.49969 17.506 3.57644 17.506H5.82335C5.74663 17.506 5.68441 17.5682 5.68441 17.6449C5.68441 17.7216 5.74661 17.7838 5.82335 17.7838H6.46074C6.41857 17.8077 6.38976 17.8524 6.38976 17.9043C6.38976 17.9811 6.45195 18.0433 6.5287 18.0433H5.5724C5.49567 18.0433 5.43346 18.1055 5.43346 18.1822C5.43346 18.2589 5.49566 18.3212 5.5724 18.3212H9.3116C9.38833 18.3212 9.45054 18.2589 9.45054 18.1822C9.45054 18.1055 9.38833 18.0433 9.3116 18.0433H7.89881C7.97554 18.0433 8.03775 17.9811 8.03775 17.9043C8.03775 17.8524 8.00895 17.8077 7.96676 17.7838H9.74151C9.69933 17.8077 9.67053 17.8524 9.67053 17.9043C9.67053 17.9811 9.73274 18.0433 9.80947 18.0433H11.1796C11.2563 18.0433 11.3185 17.9811 11.3185 17.9043C11.3185 17.8524 11.2897 17.8077 11.2475 17.7838H17.9521C18.0288 17.7838 18.091 17.7216 18.091 17.6449C18.091 17.5682 18.0288 17.506 17.9521 17.506H18.5521C18.6288 17.506 18.691 17.4438 18.691 17.367C18.691 17.2903 18.6288 17.2281 18.5521 17.2281Z" fill="#8F9EFF"/>
<path d="M10.2844 18.5493H6.54519C6.46846 18.5493 6.40625 18.6115 6.40625 18.6883C6.40625 18.765 6.46844 18.8272 6.54519 18.8272H10.2844C10.3611 18.8272 10.4233 18.765 10.4233 18.6883C10.4233 18.6115 10.3611 18.5493 10.2844 18.5493Z" fill="#8F9EFF"/>
<path d="M14.6389 18.1821H10.8997C10.823 18.1821 10.7607 18.2443 10.7607 18.3211C10.7607 18.3978 10.823 18.46 10.8997 18.46H14.6389C14.7156 18.46 14.7778 18.3978 14.7778 18.3211C14.7778 18.2443 14.7156 18.1821 14.6389 18.1821Z" fill="#8F9EFF"/>
<path d="M10.388 12.168C10.2867 12.0554 10.1451 11.9753 9.94756 11.9622C9.94756 11.9622 9.42073 11.9253 9.2258 12.1202C9.2258 12.1202 9.16257 11.2404 8.31436 11.2351C8.31436 11.2351 8.56662 9.75746 7.03797 9.80214C5.59587 9.84429 5.68626 11.6595 5.68626 11.6595C5.68626 11.6595 4.58434 11.6595 4.42102 12.4329C4.41973 12.4389 4.4173 12.4447 4.41552 12.4505C4.31166 12.7929 4.57388 13.137 4.93166 13.137H9.92825C10.4288 13.137 10.7226 12.5402 10.388 12.168Z" fill="#EAEDFC"/>
<path d="M5.95117 17.2283C5.95117 17.2283 6.6443 16.5428 7.35284 16.6429C8.06138 16.743 8.09218 16.8662 8.82383 16.8354C9.55548 16.8046 9.65559 16.1962 10.3025 16.3579C10.9494 16.5196 11.3243 17.2283 11.3243 17.2283L5.95117 17.2283Z" fill="#22348C"/>
<path d="M16.2831 20.4892C16.2709 20.4859 16.2588 20.4827 16.2468 20.4795C15.045 20.1575 13.0332 20.3146 10.3246 20.4795C7.61598 20.6444 7.28203 19.706 4.64763 19.6451C3.26412 19.6132 2.01366 20.0754 1.13805 20.5217C0.745328 20.7218 0.889699 21.3154 1.33046 21.3154L16.1747 21.3153C16.666 21.3152 16.7576 20.6164 16.2831 20.4892Z" fill="#FFE7A1"/>
<path d="M7.65438 20.249H4.66308C4.66308 20.249 4.20676 20.0747 3.60104 19.6358L1.66495 17.4781C1.61327 17.3878 1.56222 17.295 1.51367 17.1985H4.01752L4.34621 17.5503C4.60581 17.9612 5.09512 18.6017 5.91998 19.233C6.14908 19.4079 6.40368 19.5823 6.68695 19.751C6.71559 19.7678 6.74486 19.7852 6.77411 19.802C7.04243 19.9576 7.33503 20.1083 7.65438 20.249Z" fill="#FF8585"/>
<path d="M8.10621 21.2687L7.23958 20.3421H7.77511C7.83207 20.3421 7.87826 20.2959 7.87826 20.239C7.87826 20.182 7.83207 20.1358 7.77511 20.1358H4.78379C4.77026 20.1358 4.75687 20.1385 4.74438 20.1436L4.24226 20.3513L3.6005 19.636L2.90353 18.8592C2.89759 18.8195 2.86874 18.7858 2.82804 18.7751L1.66454 17.4783L1.4139 17.1988H4.01717L4.34566 17.5505L5.9196 19.2332C6.14856 19.4081 6.40333 19.5824 6.68644 19.751L4.13732 17.0255C4.11772 17.0044 4.09039 16.9925 4.06203 16.9925H1.18288C1.14215 16.9925 1.10552 17.0167 1.08902 17.0539C1.07252 17.091 1.07923 17.1343 1.10603 17.1648L2.68546 18.925L2.18538 21.2502C2.17729 21.2877 2.19068 21.3265 2.22012 21.3511C2.23901 21.3668 2.26245 21.3751 2.28622 21.3751C2.29952 21.3751 2.31289 21.3725 2.32561 21.3672L4.18639 20.5977L4.91348 21.408C4.93307 21.4296 4.96092 21.4425 4.99032 21.4425H8.03092C8.07165 21.4425 8.10877 21.4178 8.12527 21.3801C8.14178 21.3425 8.13404 21.2986 8.10621 21.2687ZM2.42835 21.1015L2.85567 19.1146L4.0403 20.4348L2.42835 21.1015ZM5.03622 21.2362L4.38836 20.5142L4.80429 20.3421H6.95694L7.79316 21.2362H5.03622Z" fill="#2E3978"/>
<path d="M6.77175 19.802C3.70637 20.4009 2.47874 18.3129 2.0498 17.1985H4.01515L4.34385 17.5503C4.60345 17.9612 5.09276 18.6017 5.91762 19.233C6.14671 19.4079 6.40132 19.5823 6.68459 19.751C6.71322 19.7678 6.7425 19.7852 6.77175 19.802Z" fill="#FFABAB"/>
<path d="M12.8348 5.87552C12.8348 5.87552 12.256 4.44115 12.0289 4.35608L12.0105 4.77206C12.0105 4.77206 11.8121 3.83799 11.6374 3.77191C11.4628 3.70583 11.6175 4.22117 11.6175 4.22117C11.6175 4.22117 11.1994 2.7022 11.164 2.96738C11.1285 3.23256 11.1847 3.56848 11.1847 3.56848C11.1847 3.56848 10.7913 2.22679 10.6268 2.13142C10.4623 2.03605 10.6053 2.61755 10.6053 2.61755C10.6053 2.61755 10.3242 1.94657 9.88698 1.79386C9.44979 1.64115 10.0225 2.14163 10.0225 2.14163C10.0225 2.14163 9.52574 1.73065 8.97529 1.72992C8.42484 1.72918 9.674 2.1929 9.80324 2.28199C9.93247 2.37107 9.00236 2.12152 9.17148 2.3124C9.3406 2.50329 10.1271 2.78814 10.1271 2.78814C10.1271 2.78814 9.0456 2.54856 9.11764 2.7268C9.18967 2.90504 10.379 3.3161 10.3439 3.30621C10.3088 3.29633 9.57111 3.11364 9.74025 3.30452C9.90938 3.49539 10.5844 3.69198 10.5844 3.69198C10.5844 3.69198 9.83629 3.54218 9.98952 3.69067C10.1428 3.83917 10.9452 4.16641 10.9452 4.16641C10.9452 4.16641 10.2374 4.11009 10.3566 4.22373C10.4759 4.33738 11.3093 4.56597 11.3093 4.56597C11.3093 4.56597 10.5601 4.44113 10.6871 4.58012C10.8142 4.71911 11.5772 4.93264 11.5772 4.93264C11.5772 4.93264 10.9312 4.74989 11.078 4.91056C11.2248 5.07123 12.8348 5.87552 12.8348 5.87552Z" fill="#E0B73A"/>
<path d="M11.8691 5.22237C11.8691 5.22237 13.3864 4.92174 13.5819 5.06524L13.2438 5.30831C13.2438 5.30831 14.1342 4.96315 14.285 5.07316C14.4359 5.18318 13.9199 5.33569 13.9199 5.33569C13.9199 5.33569 15.4201 4.85435 15.2175 5.02912C15.015 5.20389 14.7031 5.34072 14.7031 5.34072C14.7031 5.34072 16.0413 4.93572 16.2112 5.02118C16.381 5.10665 15.8161 5.30524 15.8161 5.30524C15.8161 5.30524 16.5315 5.17326 16.8985 5.45557C17.2656 5.73788 16.5333 5.53244 16.5333 5.53244C16.5333 5.53244 17.1491 5.72331 17.451 6.1836C17.7529 6.6439 16.6811 5.85222 16.5358 5.79281C16.3906 5.73339 17.1085 6.37527 16.8562 6.33817C16.6038 6.30109 15.935 5.79875 15.935 5.79875C15.935 5.79875 16.7274 6.57279 16.5388 6.61005C16.3502 6.64731 15.3552 5.87689 15.3827 5.90084C15.4102 5.92479 15.9668 6.44224 15.7145 6.40516C15.4622 6.36807 14.9283 5.91074 14.9283 5.91074C14.9283 5.91074 15.4631 6.45485 15.2549 6.40786C15.0468 6.36088 14.3337 5.86844 14.3337 5.86844C14.3337 5.86844 14.7683 6.43001 14.6079 6.39238C14.4475 6.35476 13.8 5.78238 13.8 5.78238C13.8 5.78238 14.3146 6.34108 14.1287 6.31082C13.9428 6.28057 13.3465 5.75885 13.3465 5.75885C13.3465 5.75885 13.853 6.19948 13.6382 6.16456C13.4234 6.12964 11.8691 5.22237 11.8691 5.22237Z" fill="#E0B73A"/>
<path d="M17.3648 17.8147H15.9452C15.9107 17.4618 15.8724 17.1166 15.8307 16.7791C15.8252 16.731 15.8192 16.6833 15.8128 16.6361C15.7647 16.2547 15.7124 15.8836 15.6562 15.5222C15.6485 15.4732 15.6409 15.4247 15.6328 15.3762C15.5655 14.9518 15.4932 14.5415 15.4166 14.1453C15.4072 14.0959 15.3974 14.0469 15.388 13.998C15.3216 13.6626 15.2527 13.3374 15.1816 13.0228C15.1701 12.9722 15.1586 12.9215 15.1471 12.8713C15.0679 12.5274 14.9858 12.1958 14.9024 11.877C14.8887 11.8259 14.8756 11.7748 14.8619 11.7246C14.7781 11.4105 14.6925 11.1091 14.6061 10.8205C14.5912 10.7699 14.5759 10.7197 14.5606 10.6699C14.4674 10.363 14.3733 10.071 14.2796 9.79303C14.2626 9.74281 14.2456 9.69301 14.2286 9.64406C14.1328 9.36611 14.0374 9.10306 13.9438 8.85534C13.9251 8.80554 13.9064 8.75659 13.8876 8.7085C13.7659 8.39181 13.6467 8.10111 13.5326 7.83678C13.516 7.79805 13.4999 7.76016 13.4833 7.72272C13.359 7.43839 13.2419 7.18599 13.1347 6.96592C13.1155 6.92591 13.0963 6.88718 13.0776 6.84971C12.9474 6.58624 12.8342 6.37426 12.7448 6.21379C12.6694 6.07887 12.6111 5.98054 12.5737 5.9184C12.566 5.90648 12.5596 5.89627 12.5541 5.8869C12.5341 5.85456 12.5234 5.83837 12.5234 5.83837L12.6448 5.82176L12.7099 5.81282L12.8039 5.79963L12.8252 5.79707V5.79665L12.8733 5.79027L13.1266 5.75537C13.1427 5.77367 13.1589 5.7924 13.1751 5.81155C13.2406 5.88773 13.3053 5.96819 13.3696 6.05162C13.3696 6.05204 13.3696 6.05204 13.3696 6.05204C15.8503 9.29076 17.3648 17.8147 17.3648 17.8147Z" fill="#7D2323"/>
<path d="M12.9485 5.80121C12.9485 5.80121 11.6576 5.9884 11.0136 7.65396L11.5022 7.10987C11.5022 7.10987 10.8581 7.9557 10.8359 8.6154C10.8359 8.6154 11.1885 7.82884 11.4883 7.59566C11.4883 7.59566 11.1052 8.22405 10.9969 8.95916L11.4466 8.22856C11.4466 8.22856 11.33 8.67957 11.3051 9.29934L11.5715 8.61996C11.5715 8.61996 11.4217 9.87259 11.4217 10.1373L11.6437 9.52214C11.6437 9.52214 11.6215 10.1202 11.8547 10.8316L11.9297 9.5027L12.2378 9.97256L12.0129 8.62828L12.4127 9.16142L12.1046 8.14527L12.4876 8.47839C12.4876 8.47839 12.2794 7.91209 12.1129 7.52902L12.5237 7.91209L12.3211 7.04601L12.5959 7.35414L12.5237 6.60463L12.6542 6.88777C12.6542 6.88781 12.6432 6.16365 12.9485 5.80121Z" fill="#E0B73A"/>
<path d="M12.8714 6.00768C12.8714 6.00768 12.1819 4.95838 10.7856 4.99168L11.2297 5.23319C11.2297 5.23319 10.1888 5.04165 9.64746 5.25817C9.64746 5.25817 10.1971 5.29981 10.4636 5.39974C10.4636 5.39974 9.35597 5.42472 8.823 5.76616C8.823 5.76616 9.41428 5.69953 9.53919 5.72451C9.53919 5.72451 8.75638 5.87441 8.27337 6.27415C8.27337 6.27415 8.53986 6.21586 8.84798 6.18254C8.84798 6.18254 7.97356 6.49067 7.7154 6.99866C7.7154 6.99866 8.08183 6.79046 8.23173 6.76547C8.23173 6.76547 7.68209 7.2235 7.39062 7.68154C7.39062 7.68154 7.93194 7.27348 8.08183 7.19853C8.08183 7.19853 7.41561 8.04797 7.39062 8.68922C7.39062 8.68922 8.16512 7.55663 8.34 7.49834L8.28171 8.0563C8.28171 8.0563 8.86466 7.31513 9.18944 6.94869C9.18944 6.94869 9.00622 7.49 9.04786 7.47334C9.08951 7.45668 9.82236 6.54063 9.83068 6.66554C9.839 6.79046 9.75573 7.0736 9.75573 7.0736C9.75573 7.0736 10.5136 6.07427 10.5136 6.32409C10.5136 6.57392 10.372 6.8071 10.5219 6.66553C10.6718 6.52395 11.2464 5.80776 11.1798 6.03261C11.1132 6.25747 10.7967 6.6322 11.1048 6.39902C11.413 6.16584 11.8127 5.84975 11.8044 5.88704C11.7961 5.92434 11.438 6.30741 11.7294 6.14086C12.0209 5.97436 12.3811 5.93273 12.8714 6.00768Z" fill="#FCE495"/>
<path d="M12.7796 6.06613C12.7796 6.06613 12.3244 4.89468 12.4687 4.13963C12.6131 3.38458 12.6575 4.33395 12.6575 4.33395C12.6575 4.33395 12.8074 2.5518 12.9795 2.74612L13.0222 3.24578C13.0222 3.24578 13.2127 2.21869 13.5208 1.97718L13.4625 2.5518C13.4625 2.5518 13.7956 1.54412 14.2453 1.36092L14.0871 1.90303C14.0871 1.90303 14.6034 1.16939 14.8949 1.06112L14.7283 1.52748C14.7283 1.52748 15.4362 0.777969 15.7443 0.711361L15.4112 1.26099C15.4112 1.26099 16.194 0.653056 16.6687 0.636414L15.7277 1.47753C15.7277 1.47753 16.5771 1.40259 16.6687 1.41091C16.7603 1.41923 15.3779 1.95222 15.4612 1.96054C15.5445 1.96886 16.5521 1.97833 16.3772 2.07353C16.2024 2.16874 14.8116 2.51851 14.8533 2.52683C14.8949 2.53515 15.7027 2.39358 15.5361 2.56848C15.3696 2.74335 14.3869 3.09313 14.3869 3.09313C14.3869 3.09313 15.278 2.95987 15.2114 3.10979C15.1447 3.25968 13.8789 3.80099 13.8789 3.80099C13.8789 3.80099 14.8763 3.56781 14.6858 3.77601C14.4952 3.98421 13.5208 4.5255 13.5625 4.5255C13.6041 4.5255 14.6451 4.284 14.4202 4.48386C14.1954 4.68372 13.3043 5.38327 13.2793 5.40825C13.2543 5.43323 13.9872 5.10844 13.6957 5.40825C13.4042 5.70804 12.7796 6.06613 12.7796 6.06613Z" fill="#FCE495"/>
<path d="M13.4296 6.80416C13.3389 6.87057 13.2329 6.92418 13.1342 6.9659C13.115 6.92589 13.0959 6.88715 13.0771 6.84969C13.3138 6.77351 13.5675 6.7037 13.4296 6.80416Z" fill="#A85757"/>
<path d="M13.7902 7.69087C13.7106 7.74875 13.6195 7.79728 13.5318 7.83686C13.5152 7.79812 13.499 7.76024 13.4824 7.72279C13.7046 7.65257 13.9196 7.59681 13.7902 7.69087Z" fill="#A85757"/>
<path d="M14.26 8.65528C14.1907 8.73955 14.0621 8.80723 13.9429 8.85532C13.9242 8.80552 13.9055 8.75657 13.8867 8.70848C14.1042 8.62592 14.3477 8.54844 14.26 8.65528Z" fill="#A85757"/>
<path d="M14.6082 9.58841C14.5367 9.67524 14.4017 9.74463 14.2796 9.79314C14.2626 9.74292 14.2455 9.69312 14.2285 9.64418C14.4477 9.56033 14.6967 9.48073 14.6082 9.58841Z" fill="#A85757"/>
<path d="M14.9619 10.6434C14.881 10.7256 14.7346 10.783 14.6061 10.8205C14.5912 10.7699 14.5759 10.7196 14.5605 10.6698C14.7904 10.6043 15.0624 10.5413 14.9619 10.6434Z" fill="#A85757"/>
<path d="M15.2747 11.6948C15.1905 11.7807 15.0351 11.8399 14.9027 11.8769C14.8891 11.8259 14.8759 11.7748 14.8623 11.7246C15.0943 11.6577 15.3769 11.5909 15.2747 11.6948Z" fill="#A85757"/>
<path d="M15.6267 12.822C15.5263 12.9242 15.325 12.9884 15.1819 13.0229C15.1704 12.9722 15.159 12.9216 15.1475 12.8714C15.3871 12.7999 15.7391 12.7079 15.6267 12.822Z" fill="#A85757"/>
<path d="M15.9514 13.9848C15.8212 14.0912 15.5581 14.1312 15.4172 14.1452C15.4078 14.0959 15.398 14.0469 15.3887 13.998C15.6241 13.952 16.0897 13.8715 15.9514 13.9848Z" fill="#A85757"/>
<path d="M16.2172 15.3587C16.0785 15.4728 15.7878 15.5107 15.6562 15.5222C15.6486 15.4732 15.6409 15.4247 15.6328 15.3762C15.8597 15.331 16.3598 15.2416 16.2172 15.3587Z" fill="#A85757"/>
<path d="M16.426 16.6136C16.2736 16.7383 15.9386 16.7715 15.8314 16.7792C15.8258 16.7311 15.8199 16.6834 15.8135 16.6362C16.0237 16.594 16.5749 16.4915 16.426 16.6136Z" fill="#A85757"/>
<path d="M28.836 13.9443C28.0447 16.0123 26.908 18.3799 24.5355 20.3751C24.2952 20.5774 23.9964 20.616 23.7368 20.5326C23.4336 20.4348 23.184 20.1703 23.146 19.8055C22.9623 18.0449 23.1647 14.7685 25.9985 10.8534C25.9985 10.8534 28.2035 7.80356 29.2101 7.99779C29.2301 8.00153 29.2494 8.00651 29.268 8.01273C29.865 8.21446 29.865 11.2555 28.836 13.9443Z" fill="#E0B73A"/>
<path d="M28.8355 13.9443C28.0443 16.0124 26.9075 18.3799 24.535 20.3751C24.2947 20.5775 23.9959 20.6161 23.7363 20.5326C25.8231 19.1357 28.0978 14.9746 28.7801 12.3855C29.3055 10.3934 29.2651 8.72374 29.2097 7.99786C29.2296 8.00161 29.2489 8.00659 29.2676 8.0128C29.8646 8.21451 29.8646 11.2556 28.8355 13.9443Z" fill="#FCE495"/>
<path d="M24.923 1.67886V1.67856L24.206 1.58845V1.58849C24.0783 1.56629 23.9448 1.55882 23.8075 1.56812L17.6293 1.98736C16.8393 2.04097 16.207 2.72379 16.207 3.51316V19.9653C16.207 20.7546 16.8393 21.4623 17.6293 21.5469L23.8075 22.2089C23.9088 22.2197 24.0078 22.221 24.1041 22.2143V22.2147L24.1101 22.2139C24.1671 22.2097 24.2232 22.2027 24.2781 22.1927L24.923 22.1113V22.1087C25.6817 22.0688 26.2669 21.5012 26.2669 20.7413V3.099C26.2669 2.33916 25.6817 1.74854 24.923 1.67886Z" fill="#08090D"/>
<path d="M23.8075 22.2089L17.6293 21.547C16.8393 21.4623 16.207 20.7547 16.207 19.9653V3.51319C16.207 2.72382 16.8393 2.04099 17.6293 1.98739L23.8075 1.56816C24.7003 1.50758 25.434 2.15122 25.434 3.0066V20.8344C25.434 21.6898 24.7003 22.3046 23.8075 22.2089Z" fill="#20243D"/>
<path d="M25.9636 7.22349H25.6871C25.6576 7.22349 25.6338 7.19964 25.6338 7.1702V4.76819C25.6338 4.73876 25.6576 4.7149 25.6871 4.7149H25.9636C25.993 4.7149 26.0169 4.73876 26.0169 4.76819V7.1702C26.0169 7.19962 25.993 7.22349 25.9636 7.22349Z" fill="#20243D"/>
<path d="M26.0632 7.21438H25.7867C25.7573 7.21438 25.7334 7.19052 25.7334 7.16109V4.7591C25.7334 4.72967 25.7573 4.70581 25.7867 4.70581H26.0632C26.0926 4.70581 26.1165 4.72967 26.1165 4.7591V7.16111C26.1165 7.19052 26.0926 7.21438 26.0632 7.21438Z" fill="#343B63"/>
<path d="M25.9636 10.1274H25.6871C25.6576 10.1274 25.6338 10.1035 25.6338 10.0741V7.67213C25.6338 7.64269 25.6576 7.61884 25.6871 7.61884H25.9636C25.993 7.61884 26.0169 7.64269 26.0169 7.67213V10.0741C26.0169 10.1035 25.993 10.1274 25.9636 10.1274Z" fill="#20243D"/>
<path d="M26.0632 10.1182H25.7867C25.7573 10.1182 25.7334 10.0943 25.7334 10.0649V7.66291C25.7334 7.63348 25.7573 7.60962 25.7867 7.60962H26.0632C26.0926 7.60962 26.1165 7.63348 26.1165 7.66291V10.0649C26.1165 10.0943 26.0926 10.1182 26.0632 10.1182Z" fill="#343B63"/>
<path d="M29.9259 18.4384C29.8992 18.3041 29.87 18.1766 29.8385 18.0552C29.6727 17.4144 29.4441 16.948 29.1865 16.6091C28.9217 16.2606 28.6265 16.0468 28.3372 15.9162C28.1152 15.8157 27.8968 15.7644 27.6986 15.739C27.6986 15.739 27.6463 15.7365 27.5581 15.743C27.4177 15.7535 27.1862 15.7875 26.9308 15.8927C26.7186 15.9805 26.4896 16.1175 26.2829 16.3313C26.1173 16.5025 25.9658 16.723 25.8481 17.007C25.7011 17.3613 25.6068 17.8146 25.6037 18.3942C25.6037 18.4057 25.6035 18.417 25.6035 18.4282C25.603 19.196 25.7223 19.8158 25.9233 20.3053C26.2073 20.997 26.6541 21.429 27.1553 21.6527C27.5712 21.8384 28.0247 21.8805 28.4537 21.8088C28.7949 21.7515 29.0673 21.6044 29.2826 21.3983C29.5998 21.0949 29.7928 20.6637 29.8974 20.2061C30.0404 19.5812 30.0191 18.9064 29.9259 18.4384ZM28.6176 19.5254C28.612 19.6018 28.6036 19.6755 28.592 19.7457C28.5556 19.9662 28.482 20.1397 28.3865 20.2591C28.2893 20.3805 28.1695 20.4463 28.0434 20.4497C27.9119 20.4532 27.7736 20.389 27.6464 20.2495C27.5269 20.1183 27.4172 19.9204 27.3327 19.6495C27.2911 19.5171 27.2556 19.3672 27.228 19.1991C27.1848 18.9371 27.1652 18.7069 27.1628 18.5054C27.1601 18.2554 27.1833 18.0494 27.2202 17.881C27.2418 17.7816 27.2682 17.6951 27.2967 17.6204C27.3732 17.4193 27.4646 17.3032 27.5198 17.2461C27.5498 17.2149 27.569 17.2014 27.569 17.2014C27.6214 17.1646 27.6737 17.1435 27.7248 17.136C27.8114 17.1235 27.8952 17.1511 27.9746 17.2103C28.0027 17.2312 28.0304 17.2563 28.0573 17.2848C28.1586 17.3922 28.2511 17.5508 28.3307 17.7407C28.4194 17.9525 28.492 18.2033 28.5431 18.4653C28.6123 18.821 28.6418 19.1975 28.6176 19.5254Z" fill="#364FD9"/>
<path d="M29.8389 18.0554C29.5869 18.2642 29.0138 18.4835 28.5435 18.4655C28.4924 18.2035 28.4197 17.9527 28.3311 17.7409C28.5287 17.5361 28.9553 17.0672 29.1868 16.6093C29.4445 16.9482 29.673 17.4146 29.8389 18.0554Z" fill="#6A7CD9"/>
<path d="M29.8977 20.2062C29.793 20.6639 29.6001 21.095 29.2828 21.3984C29.1787 21.0532 28.9267 20.4609 28.3867 20.2592C28.4823 20.1399 28.5559 19.9664 28.5922 19.7458C28.6038 19.6757 28.6122 19.6019 28.6178 19.5256C28.9245 19.6448 29.5643 19.914 29.8977 20.2062Z" fill="#6A7CD9"/>
<path d="M27.646 20.2497C27.6182 20.5906 27.5174 21.229 27.1549 21.6529C26.6536 21.4293 26.2068 20.9972 25.9229 20.3055C26.3217 20.2317 26.935 20.0566 27.3322 19.6498C27.4167 19.9207 27.5265 20.1185 27.646 20.2497Z" fill="#6A7CD9"/>
<path d="M27.2202 17.8811C27.1833 18.0495 27.1601 18.2555 27.1628 18.5055C26.8101 18.4103 26.0472 18.2423 25.6035 18.4283C25.6035 18.4171 25.6037 18.4058 25.6037 18.3944C25.6068 17.8148 25.7011 17.3614 25.8481 17.0071C26.1898 17.187 26.8528 17.5546 27.2202 17.8811Z" fill="#6A7CD9"/>
<path d="M28.0581 17.2848C28.0312 17.2563 28.0036 17.2312 27.9755 17.2103C27.8961 17.1511 27.8123 17.1235 27.7256 17.136C27.6746 17.1435 27.6222 17.1646 27.5699 17.2014C27.5699 17.2014 27.5507 17.2149 27.5207 17.2461C27.4593 16.9165 27.291 16.2138 26.9316 15.8927C27.1871 15.7875 27.4186 15.7535 27.559 15.743C27.6471 15.7365 27.6995 15.739 27.6995 15.739C27.8977 15.7644 28.1161 15.8157 28.3381 15.9162C28.3944 16.3333 28.1822 16.97 28.0581 17.2848Z" fill="#6A7CD9"/>
<path opacity="0.5" d="M27.3076 16.9924C27.3076 16.9924 26.9219 17.3372 26.8513 18.3717C26.7807 19.4061 27.2906 20.6429 27.86 20.7704C27.86 20.7704 27.0911 19.9145 27.0403 18.8289C26.9911 17.7795 27.175 17.3447 27.3076 16.9924Z" fill="white"/>
<path d="M26.8802 22.5214C26.5406 22.5499 25.7186 22.4421 25.8562 21.8815C25.859 21.8699 25.8622 21.858 25.8659 21.846C25.8681 21.839 25.8703 21.8322 25.8725 21.8253C25.8903 21.7725 25.9125 21.7235 25.9382 21.6782C25.9447 21.6666 25.9515 21.6551 25.9586 21.644C25.9826 21.6058 26.0092 21.5703 26.0377 21.5375C26.0442 21.5298 26.0509 21.5223 26.0577 21.515C26.0838 21.4867 26.1112 21.4604 26.1396 21.4361C26.1464 21.4302 26.1532 21.4244 26.1601 21.4188C26.1848 21.3986 26.2101 21.3797 26.2356 21.3622C26.2377 21.3607 26.2398 21.3593 26.242 21.3579C26.2493 21.3529 26.2567 21.3479 26.2642 21.3431C26.2907 21.326 26.3177 21.3101 26.3451 21.2955C26.3532 21.291 26.3615 21.2867 26.3697 21.2826C26.3958 21.2694 26.4223 21.2572 26.449 21.2462C26.4581 21.2424 26.4673 21.2388 26.4765 21.2354C26.5021 21.2256 26.5279 21.2169 26.554 21.2091C26.5641 21.2061 26.5742 21.2033 26.5844 21.2006C26.6094 21.1939 26.6344 21.1882 26.6597 21.1834C26.6708 21.1813 26.6819 21.1793 26.693 21.1776C26.7174 21.1737 26.7417 21.1708 26.7662 21.1686C26.7782 21.1675 26.7901 21.1667 26.8021 21.1661C26.8249 21.1648 26.8477 21.1643 26.8706 21.1646C26.8818 21.1647 26.8931 21.165 26.9043 21.1655C26.9285 21.1664 26.9527 21.1683 26.9769 21.171C26.9874 21.1721 26.9978 21.1734 27.0082 21.1749C27.0339 21.1784 27.0595 21.1829 27.085 21.1884C27.0945 21.1904 27.104 21.1926 27.1135 21.1948C27.1406 21.2013 27.1675 21.2089 27.1944 21.2176C27.2029 21.2203 27.2115 21.2232 27.22 21.2262C27.2484 21.236 27.2767 21.2471 27.3047 21.2595C27.3124 21.2628 27.3201 21.2663 27.3277 21.2699C27.3367 21.2741 27.3457 21.2784 27.3547 21.2829C27.375 21.2929 27.3954 21.3037 27.4155 21.3153C27.4225 21.3193 27.4295 21.3234 27.4365 21.3277C27.467 21.3461 27.4971 21.3663 27.5263 21.3885C27.533 21.3935 27.5397 21.3988 27.5463 21.4041C27.5774 21.4291 27.6075 21.4563 27.6359 21.4862C27.6428 21.4934 27.6496 21.5008 27.6563 21.5083C27.6865 21.5424 27.7146 21.5795 27.74 21.6201C27.7473 21.6316 27.7543 21.6433 27.761 21.6553C27.7709 21.6728 27.7802 21.6909 27.789 21.7097C28.0522 22.2697 27.2274 22.5013 26.8802 22.5214Z" fill="#FFE7A1"/>
<path d="M27.7614 21.6552C27.758 21.696 27.7523 21.7365 27.7441 21.7768C27.7313 21.8426 27.711 21.9073 27.6848 21.9697C27.6584 22.032 27.6241 22.0913 27.5839 22.1463C27.5635 22.1737 27.5413 22.1996 27.5177 22.2244C27.4941 22.249 27.4693 22.2727 27.4426 22.2942C27.416 22.3156 27.3884 22.336 27.3595 22.3542L27.3488 22.3611L27.3377 22.3677C27.3304 22.3721 27.3232 22.3766 27.3157 22.3807C27.3006 22.3887 27.2857 22.3971 27.2703 22.4043C27.2398 22.4196 27.2083 22.4328 27.1765 22.4448C27.1604 22.4503 27.1445 22.4565 27.1282 22.4613L27.1039 22.4689C27.0957 22.4712 27.0875 22.4734 27.0794 22.4756C27.0137 22.493 26.947 22.5053 26.8799 22.5116C26.888 22.5097 26.8962 22.5077 26.9044 22.5058C26.9044 22.5058 26.9045 22.5058 26.9045 22.5058C26.9164 22.5029 26.9283 22.4999 26.9401 22.4968C26.9852 22.4852 27.0297 22.4721 27.0733 22.4566C27.0756 22.4558 27.0779 22.4549 27.0803 22.4541C27.1408 22.4327 27.1996 22.4069 27.2552 22.3763C27.2777 22.3638 27.2998 22.3507 27.3213 22.3366C27.3549 22.3148 27.3871 22.291 27.4173 22.2649C27.4422 22.2437 27.4658 22.2212 27.4881 22.1974C27.5103 22.1736 27.5313 22.1486 27.5504 22.1224C27.5894 22.0704 27.6223 22.0139 27.649 21.9545C27.6761 21.8954 27.6965 21.8333 27.7127 21.77C27.7248 21.7207 27.7341 21.6706 27.7404 21.6201C27.7477 21.6315 27.7546 21.6432 27.7614 21.6552Z" fill="#DBBF69"/>
<path d="M27.6568 21.5085C27.657 21.5355 27.6565 21.5625 27.6553 21.5896C27.6539 21.623 27.6508 21.6563 27.6469 21.6896C27.6431 21.7229 27.6379 21.756 27.6312 21.789C27.6246 21.8219 27.6168 21.8547 27.6076 21.8871C27.589 21.9519 27.5641 22.0152 27.5332 22.0758C27.5175 22.1059 27.5 22.1352 27.4809 22.1634C27.4616 22.1916 27.4411 22.219 27.4183 22.2446C27.3955 22.2701 27.3712 22.2943 27.3454 22.3169C27.3376 22.3237 27.3297 22.3304 27.3215 22.3368C27.3028 22.3518 27.2832 22.3656 27.2633 22.3787L27.2415 22.3925L27.2193 22.4054C27.212 22.4097 27.2043 22.4137 27.1967 22.4176C27.1891 22.4214 27.1817 22.4256 27.1738 22.4291L27.1505 22.4397C27.1426 22.4432 27.1346 22.4462 27.1268 22.4495C27.1111 22.4562 27.0948 22.4615 27.0788 22.4673C27.0219 22.4856 26.9636 22.4987 26.9047 22.5059C26.9047 22.5059 26.9046 22.506 26.9046 22.5059C26.8964 22.507 26.8881 22.5079 26.8799 22.5087C26.8883 22.5068 26.8967 22.5047 26.905 22.5026L26.9052 22.5026C26.9247 22.4977 26.9442 22.4925 26.9635 22.4867C26.9641 22.4866 26.9647 22.4864 26.9654 22.4862C26.9721 22.4842 26.9788 22.4822 26.9855 22.48C27.0147 22.4708 27.0435 22.4605 27.0717 22.4487C27.1244 22.4267 27.1749 22.4001 27.2219 22.3687C27.2297 22.3636 27.2374 22.3583 27.245 22.3528C27.352 22.2763 27.437 22.1732 27.4963 22.0573C27.5266 21.9996 27.5508 21.9388 27.57 21.8763C27.5897 21.814 27.6038 21.7499 27.6149 21.6852C27.6204 21.6529 27.6246 21.6203 27.6282 21.5876C27.6319 21.555 27.6346 21.5221 27.6363 21.4892C27.6364 21.4883 27.6364 21.4873 27.6365 21.4863C27.6434 21.4935 27.6502 21.5009 27.6568 21.5085Z" fill="#DBBF69"/>
<path d="M27.5461 21.4043C27.5475 21.4371 27.548 21.47 27.5479 21.5029C27.5478 21.5364 27.5464 21.57 27.5444 21.6035C27.5425 21.6371 27.5396 21.6706 27.5354 21.704C27.5313 21.7374 27.5263 21.7708 27.5202 21.804C27.5077 21.8703 27.4908 21.936 27.4684 22.0002C27.4455 22.0642 27.4169 22.1266 27.3812 22.1851C27.3631 22.2143 27.3431 22.2423 27.3215 22.269C27.3107 22.2825 27.2992 22.2953 27.2875 22.308L27.2693 22.3263C27.2631 22.3323 27.2566 22.3381 27.2504 22.3439C27.2408 22.3525 27.2311 22.3607 27.2211 22.3688C27.2042 22.3824 27.1867 22.3953 27.1684 22.4071C27.14 22.425 27.1104 22.4408 27.0798 22.4543C27.0789 22.4547 27.078 22.4551 27.0771 22.4555L27.0532 22.4652C27.0452 22.4682 27.037 22.4709 27.0289 22.4738C27.0209 22.4768 27.0126 22.4791 27.0044 22.4815C26.9962 22.4838 26.988 22.4866 26.9796 22.4883C26.9664 22.4917 26.953 22.4946 26.9396 22.497C26.9279 22.4992 26.9162 22.501 26.9044 22.5026L26.9042 22.5026C26.8958 22.5038 26.8873 22.5048 26.8789 22.5057L26.9036 22.4995C26.9037 22.4995 26.9037 22.4995 26.9037 22.4995L26.9159 22.4965L26.9281 22.4929C26.9362 22.4904 26.9444 22.4883 26.9524 22.4857L26.9763 22.4776C27.0079 22.466 27.039 22.4535 27.0684 22.4377C27.0881 22.4273 27.1074 22.4161 27.1259 22.404C27.1351 22.398 27.1441 22.3918 27.153 22.3854C27.1795 22.3656 27.2048 22.3444 27.2281 22.3212C27.2747 22.2749 27.3146 22.2222 27.3476 22.1656C27.3806 22.109 27.408 22.0491 27.4293 21.987C27.4516 21.9252 27.4684 21.8613 27.4818 21.7968C27.4957 21.7322 27.5047 21.6667 27.5122 21.6009C27.516 21.5681 27.5185 21.5351 27.5209 21.502C27.5232 21.4689 27.5248 21.4357 27.5257 21.4026C27.5259 21.3979 27.526 21.3933 27.5261 21.3887C27.5328 21.3937 27.5395 21.3989 27.5461 21.4043Z" fill="#DBBF69"/>
<path d="M27.4365 21.3276C27.4382 21.3574 27.4393 21.3873 27.4401 21.4172C27.4411 21.451 27.4408 21.4848 27.4402 21.5187C27.4393 21.5865 27.4346 21.6542 27.4273 21.7218C27.4197 21.7893 27.4084 21.8566 27.3933 21.9232C27.3773 21.9896 27.3576 22.0554 27.3311 22.1189C27.3178 22.1507 27.3028 22.1818 27.2859 22.212C27.2692 22.2422 27.2503 22.2714 27.2292 22.299C27.208 22.3265 27.1848 22.3527 27.1589 22.3762C27.1484 22.3858 27.1375 22.395 27.1262 22.4038C27.1099 22.4164 27.0929 22.4281 27.0752 22.4387C27.0466 22.4557 27.0162 22.4694 26.985 22.4798C26.9782 22.4821 26.9716 22.4841 26.9648 22.486C26.9642 22.4862 26.9636 22.4864 26.963 22.4865C26.9436 22.492 26.9238 22.4962 26.9039 22.4993C26.9039 22.4993 26.9039 22.4993 26.9038 22.4993C26.8956 22.5005 26.8872 22.5016 26.8789 22.5024C26.8874 22.5004 26.8958 22.4983 26.9041 22.4959C26.9511 22.4829 26.9963 22.4645 27.0372 22.4397C27.0374 22.4397 27.0375 22.4395 27.0376 22.4394C27.0467 22.434 27.0555 22.4282 27.0641 22.422C27.1191 22.3838 27.1651 22.3348 27.203 22.2806C27.2403 22.2258 27.271 22.1667 27.2948 22.1048C27.3068 22.0738 27.3179 22.0425 27.3275 22.0107C27.3371 21.9789 27.3455 21.9467 27.353 21.9142C27.3684 21.8494 27.3798 21.7835 27.3884 21.7173C27.3929 21.6842 27.3969 21.651 27.3999 21.6176C27.403 21.5843 27.4057 21.5509 27.408 21.5175C27.4103 21.4841 27.4116 21.4505 27.413 21.417C27.4144 21.3835 27.4152 21.3499 27.4155 21.3163C27.4155 21.3159 27.4155 21.3156 27.4155 21.3152C27.4225 21.3192 27.4295 21.3233 27.4365 21.3276Z" fill="#DBBF69"/>
<path d="M27.328 21.27C27.3293 21.2911 27.3304 21.3122 27.3314 21.3333C27.333 21.3676 27.3338 21.4019 27.3343 21.4362C27.3355 21.5048 27.3335 21.5735 27.3299 21.6422C27.3281 21.6765 27.3251 21.7108 27.3218 21.7451C27.3185 21.7794 27.3145 21.8136 27.3096 21.8478C27.3045 21.8819 27.2986 21.916 27.2918 21.9499C27.2848 21.9838 27.2774 22.0176 27.268 22.051C27.2494 22.1178 27.2267 22.184 27.1946 22.2464C27.1787 22.2776 27.1611 22.3081 27.1402 22.3365C27.1193 22.3649 27.0958 22.3916 27.0692 22.415C27.0591 22.4237 27.0487 22.4319 27.0378 22.4396C27.0377 22.4397 27.0376 22.4398 27.0374 22.4399C27.0194 22.4526 27.0003 22.4637 26.9803 22.4726C26.956 22.4836 26.9304 22.4915 26.9043 22.4961C26.8959 22.4976 26.8874 22.4987 26.8789 22.4995C26.8909 22.4968 26.9028 22.4935 26.9144 22.4896C26.9272 22.4853 26.9397 22.4804 26.9518 22.4747C26.952 22.4747 26.9522 22.4745 26.9524 22.4745C26.9602 22.4708 26.9678 22.4669 26.9752 22.4627C27.0048 22.4458 27.0318 22.4248 27.0553 22.4007C27.1029 22.3527 27.1378 22.2941 27.1656 22.233C27.1793 22.2023 27.1913 22.1707 27.2022 22.1389C27.2129 22.1069 27.2221 22.0743 27.2302 22.0416C27.2468 21.976 27.2595 21.9094 27.2687 21.8422C27.2788 21.7752 27.2857 21.7076 27.2909 21.6398C27.2936 21.6059 27.2959 21.572 27.2976 21.538C27.2992 21.504 27.3008 21.47 27.302 21.4359C27.3038 21.3772 27.3048 21.3185 27.305 21.2596C27.3126 21.2629 27.3203 21.2664 27.328 21.27Z" fill="#DBBF69"/>
<path d="M27.2205 21.2264C27.2211 21.2345 27.2216 21.2427 27.2221 21.2509C27.2244 21.2857 27.2258 21.3206 27.2271 21.3555L27.2288 21.4079L27.2296 21.4604C27.23 21.4953 27.2299 21.5303 27.2295 21.5653C27.2291 21.6003 27.2277 21.6353 27.2262 21.6703C27.2246 21.7052 27.2225 21.7402 27.2198 21.7752C27.2139 21.845 27.2063 21.9149 27.1946 21.9843C27.1888 22.019 27.1819 22.0536 27.174 22.0879C27.1701 22.1052 27.1658 22.1222 27.1613 22.1393L27.1539 22.1648C27.1514 22.1733 27.1486 22.1818 27.146 22.1901C27.1243 22.2574 27.0964 22.3239 27.0545 22.3824C27.0332 22.4114 27.0084 22.4382 26.9787 22.459C26.9702 22.4645 26.9615 22.4698 26.9526 22.4745C26.9524 22.4746 26.9522 22.4747 26.952 22.4748C26.9452 22.4784 26.9382 22.4816 26.9309 22.4841C26.9255 22.4863 26.9201 22.4881 26.9146 22.4896C26.9028 22.493 26.8908 22.4951 26.8789 22.4966C26.9135 22.4884 26.9453 22.4722 26.9718 22.4501C26.998 22.4277 27.0197 22.4007 27.0376 22.3715C27.0557 22.3424 27.0705 22.3113 27.083 22.2794C27.0953 22.2473 27.1061 22.2146 27.1151 22.1814C27.133 22.1149 27.1463 22.047 27.1561 21.9786C27.1661 21.9102 27.1736 21.8413 27.1786 21.7722C27.1844 21.7031 27.1879 21.6338 27.1903 21.5644C27.1933 21.4951 27.1939 21.4256 27.1949 21.3561C27.1952 21.31 27.1952 21.2639 27.1948 21.2178C27.2034 21.2205 27.2119 21.2233 27.2205 21.2264Z" fill="#DBBF69"/>
<path d="M27.1142 21.1947C27.1161 21.222 27.1177 21.2494 27.1193 21.2767C27.1235 21.3481 27.1254 21.4196 27.127 21.4911C27.128 21.5627 27.1277 21.6343 27.1259 21.7059C27.1235 21.7775 27.12 21.8492 27.1137 21.9207C27.1069 21.9922 27.0988 22.0637 27.0852 22.1345C27.072 22.2052 27.0544 22.2758 27.0264 22.3431C27.0121 22.3765 26.995 22.4093 26.9713 22.4377L26.9669 22.443L26.9621 22.448C26.9588 22.4512 26.9557 22.4547 26.9523 22.4578L26.9417 22.4668C26.9382 22.4698 26.9341 22.472 26.9303 22.4747C26.9146 22.4845 26.897 22.4914 26.8789 22.4932C26.8966 22.489 26.9129 22.4807 26.9267 22.4698C26.93 22.4668 26.9337 22.4644 26.9367 22.4612L26.946 22.4517C26.9489 22.4485 26.9516 22.4449 26.9544 22.4415L26.9585 22.4364L26.9622 22.4309C26.9646 22.4273 26.9671 22.4237 26.9695 22.42L26.9761 22.4085C26.9783 22.4048 26.9803 22.4009 26.9822 22.397L26.9882 22.3852C26.9917 22.3771 26.9953 22.3691 26.9985 22.3609C27.0015 22.3526 27.0049 22.3445 27.0075 22.3361C27.019 22.3028 27.0279 22.2686 27.0351 22.234C27.0424 22.1994 27.0486 22.1646 27.0534 22.1295C27.0631 22.0593 27.0703 21.9887 27.0748 21.9179C27.0796 21.847 27.083 21.776 27.0846 21.7049C27.087 21.6338 27.0876 21.5627 27.0878 21.4915C27.0881 21.4559 27.088 21.4203 27.0879 21.3847L27.087 21.2778C27.0866 21.248 27.0862 21.2181 27.0857 21.1882C27.0952 21.1902 27.1047 21.1924 27.1142 21.1947Z" fill="#DBBF69"/>
<path d="M27.0091 21.1749L27.011 21.2008C27.0136 21.2375 27.016 21.2742 27.0178 21.3109L27.0233 21.4211C27.0262 21.4947 27.0281 21.5682 27.0293 21.6418C27.0297 21.7154 27.0297 21.7891 27.0277 21.8628C27.0252 21.9364 27.0222 22.0101 27.0154 22.0837C27.0089 22.1572 26.9998 22.2307 26.9843 22.3034C26.976 22.3396 26.9666 22.3757 26.9521 22.4103C26.9448 22.4275 26.9364 22.4445 26.925 22.4596C26.9192 22.4672 26.9126 22.4741 26.905 22.4798C26.8973 22.4854 26.8882 22.4893 26.8789 22.4903C26.888 22.4882 26.8961 22.4834 26.9029 22.4774C26.9096 22.4712 26.9151 22.4639 26.9198 22.4562C26.9293 22.4408 26.9359 22.4238 26.9414 22.4065C26.9523 22.3718 26.9592 22.336 26.9643 22.2999C26.9697 22.2639 26.9736 22.2275 26.9764 22.1911C26.9792 22.1547 26.9817 22.1182 26.9833 22.0817C26.9862 22.0086 26.9884 21.9354 26.9886 21.8621C26.9892 21.789 26.9891 21.7157 26.9879 21.6424C26.9874 21.5691 26.9859 21.4958 26.9841 21.4225C26.983 21.3491 26.9803 21.2758 26.9787 21.2024C26.9785 21.1919 26.9781 21.1814 26.9779 21.171C26.9883 21.1721 26.9987 21.1734 27.0091 21.1749Z" fill="#DBBF69"/>
<path d="M26.9183 21.3555C26.9229 21.4314 26.9267 21.5074 26.9304 21.5834C26.9334 21.6594 26.9362 21.7355 26.9379 21.8117C26.9391 21.8878 26.9404 21.9639 26.9391 22.0402C26.9384 22.1164 26.936 22.1926 26.9306 22.2688C26.9276 22.3069 26.9242 22.345 26.9183 22.3829C26.9153 22.4018 26.9118 22.4207 26.9069 22.4393C26.9043 22.4486 26.9014 22.4578 26.8974 22.4666C26.8954 22.471 26.893 22.4753 26.8901 22.4793C26.8872 22.4831 26.8832 22.4867 26.8783 22.4873C26.8831 22.4861 26.8863 22.4823 26.8887 22.4783C26.8911 22.4743 26.8929 22.47 26.8944 22.4655C26.8973 22.4566 26.8992 22.4473 26.9008 22.438C26.9039 22.4194 26.9057 22.4006 26.9069 22.3817C26.9093 22.3439 26.9103 22.306 26.9104 22.2681C26.9107 22.2302 26.9104 22.1923 26.9097 22.1543C26.9088 22.1164 26.9082 22.0785 26.907 22.0406C26.9044 21.9647 26.9022 21.8888 26.8988 21.813C26.8958 21.7371 26.8928 21.6612 26.8891 21.5853L26.8711 21.1646C26.8824 21.1647 26.8936 21.165 26.9049 21.1655C26.91 21.2288 26.914 21.2921 26.9183 21.3555Z" fill="#DBBF69"/>
<path d="M26.8312 21.5334L26.8469 21.7708C26.8514 21.85 26.8566 21.9291 26.8604 22.0084C26.8685 22.1668 26.8752 22.3254 26.878 22.4842C26.8582 22.3266 26.8425 22.1687 26.8283 22.0107C26.8207 21.9317 26.8147 21.8526 26.808 21.7736L26.79 21.5363L26.7742 21.2989C26.7718 21.2554 26.7691 21.2121 26.7666 21.1686C26.7786 21.1675 26.7905 21.1667 26.8025 21.1661C26.8062 21.2094 26.8097 21.2527 26.8133 21.2961L26.8312 21.5334Z" fill="#DBBF69"/>
<path d="M26.8782 22.4873C26.8733 22.4872 26.8687 22.4848 26.8648 22.4818C26.861 22.4787 26.8578 22.475 26.8548 22.4711C26.8489 22.4633 26.8442 22.4548 26.8399 22.4461C26.8314 22.4287 26.8248 22.4106 26.8186 22.3924C26.8065 22.356 26.7972 22.3188 26.7882 22.2815C26.7713 22.2069 26.7577 22.1316 26.7461 22.0562C26.7401 22.0185 26.7345 21.9807 26.7296 21.9428C26.7246 21.905 26.7198 21.8672 26.7152 21.8293C26.7063 21.7536 26.6986 21.6776 26.6911 21.6018C26.6845 21.5259 26.6779 21.4499 26.6724 21.3739C26.6681 21.3104 26.6636 21.2469 26.6602 21.1834C26.6712 21.1813 26.6823 21.1793 26.6935 21.1776L26.7323 21.598C26.7391 21.6737 26.7465 21.7495 26.7541 21.8251C26.7612 21.9008 26.7698 21.9763 26.778 22.0519C26.7823 22.0896 26.7872 22.1273 26.7919 22.165C26.7967 22.2027 26.8021 22.2403 26.8082 22.2777C26.814 22.3152 26.8209 22.3526 26.8296 22.3894C26.8341 22.4077 26.839 22.426 26.8456 22.4437C26.8489 22.4526 26.8526 22.4613 26.8574 22.4694C26.8599 22.4733 26.8626 22.4772 26.8659 22.4805C26.8693 22.4838 26.8733 22.4867 26.8782 22.4873Z" fill="#DBBF69"/>
<path d="M26.8787 22.4904C26.8597 22.4904 26.8415 22.4812 26.8268 22.4694C26.8119 22.4574 26.7997 22.4426 26.7888 22.4272C26.7672 22.3961 26.751 22.3621 26.7365 22.3277C26.7082 22.2584 26.6876 22.1867 26.6701 22.1146C26.6657 22.0965 26.6615 22.0784 26.6575 22.0603C26.6535 22.0422 26.6498 22.0241 26.6462 22.0058C26.639 21.9694 26.6323 21.933 26.6261 21.8965C26.6139 21.8234 26.6038 21.7501 26.5945 21.6767C26.586 21.6032 26.5782 21.5297 26.5717 21.456C26.5657 21.3823 26.5598 21.3087 26.5561 21.2348C26.5556 21.2263 26.5552 21.2177 26.5547 21.2092C26.5648 21.2062 26.575 21.2033 26.5851 21.2007L26.5882 21.2324C26.5957 21.3057 26.6024 21.3791 26.6106 21.4523C26.6184 21.5255 26.6263 21.5987 26.6356 21.6718C26.6441 21.7449 26.6539 21.8178 26.6648 21.8905C26.6751 21.9633 26.6878 22.0357 26.7017 22.1078C26.7087 22.1438 26.7168 22.1795 26.7254 22.2152C26.7341 22.2508 26.7438 22.2861 26.7555 22.3207C26.767 22.3554 26.7805 22.3895 26.7985 22.4212C26.8076 22.4369 26.8179 22.4521 26.8309 22.4648C26.8438 22.4776 26.8599 22.4879 26.8787 22.4904Z" fill="#DBBF69"/>
<path d="M26.8774 22.4935C26.859 22.4929 26.8406 22.4897 26.8231 22.4833C26.8187 22.4818 26.8146 22.4796 26.8103 22.4778L26.8039 22.4749C26.8018 22.4739 26.7999 22.4726 26.7979 22.4715L26.7857 22.4644L26.7744 22.4564L26.7687 22.4523L26.7633 22.4478L26.7527 22.4388C26.7461 22.4324 26.7393 22.4259 26.7331 22.4191C26.7207 22.4053 26.7089 22.391 26.6984 22.3759C26.6564 22.3152 26.6263 22.2479 26.6013 22.1796C26.5762 22.1112 26.5572 22.0411 26.5402 21.9707C26.5238 21.9 26.5105 21.8289 26.4986 21.7576C26.4876 21.6862 26.4781 21.6146 26.4704 21.5428C26.4632 21.471 26.4566 21.3992 26.4525 21.3271C26.4509 21.3002 26.4495 21.2733 26.4482 21.2464C26.4573 21.2426 26.4665 21.239 26.4757 21.2355C26.4786 21.2652 26.4816 21.2949 26.4846 21.3245L26.4964 21.4315C26.5003 21.4672 26.5047 21.5028 26.5093 21.5384C26.5139 21.5739 26.5183 21.6095 26.5234 21.645C26.5284 21.6804 26.5337 21.7158 26.5395 21.7512C26.5506 21.822 26.5634 21.8924 26.5785 21.9622C26.5859 21.9971 26.5938 22.032 26.6028 22.0666C26.6073 22.0838 26.6118 22.101 26.6168 22.1182C26.6216 22.1354 26.6268 22.1524 26.632 22.1694C26.6427 22.2034 26.6549 22.2369 26.6684 22.2698C26.6818 22.3026 26.6973 22.3347 26.7156 22.365C26.7338 22.3953 26.7549 22.4243 26.7817 22.4476L26.7918 22.4563L26.8026 22.4641C26.8045 22.4653 26.8062 22.4667 26.8081 22.4679L26.8139 22.4712C26.8178 22.4733 26.8216 22.4758 26.8257 22.4776C26.8417 22.4857 26.8592 22.4906 26.8774 22.4935Z" fill="#DBBF69"/>
<path d="M26.88 22.4964C26.871 22.4959 26.862 22.4957 26.853 22.4949C26.8519 22.4947 26.8508 22.4946 26.8497 22.4944C26.8419 22.4933 26.834 22.4924 26.8262 22.4908C26.8084 22.487 26.7909 22.4819 26.7741 22.4748C26.7691 22.4729 26.7643 22.4707 26.7594 22.4684C26.7312 22.4552 26.7052 22.4375 26.6814 22.4175C26.6537 22.3937 26.6293 22.3666 26.6074 22.3377C26.5856 22.3089 26.5667 22.2781 26.5493 22.2466C26.5451 22.2386 26.5407 22.2308 26.5367 22.2227L26.5246 22.1986C26.5171 22.1823 26.5097 22.166 26.503 22.1494C26.4893 22.1163 26.4768 22.0829 26.4655 22.049C26.4433 21.9811 26.4257 21.9122 26.4105 21.8427C26.3962 21.7732 26.3842 21.7032 26.3747 21.633C26.3658 21.5627 26.358 21.4923 26.3534 21.4217C26.3503 21.3796 26.3482 21.3376 26.3467 21.2955C26.3548 21.291 26.3631 21.2867 26.3713 21.2826C26.3757 21.3281 26.3804 21.3734 26.3855 21.4187C26.3896 21.4537 26.394 21.4885 26.3984 21.5233C26.403 21.5581 26.408 21.5928 26.4134 21.6275C26.419 21.6622 26.4243 21.6968 26.4306 21.7313C26.4368 21.7658 26.4436 21.8001 26.451 21.8343C26.4583 21.8686 26.4661 21.9027 26.4746 21.9365C26.4832 21.9705 26.4929 22.004 26.503 22.0374C26.5233 22.1041 26.5477 22.1696 26.5781 22.2321C26.5933 22.2633 26.6105 22.2935 26.6297 22.3224C26.6488 22.3513 26.6705 22.3786 26.6953 22.4028C26.7198 22.4273 26.7479 22.4485 26.779 22.4647C26.81 22.4809 26.8443 22.4917 26.88 22.4964Z" fill="#DBBF69"/>
<path d="M26.8789 22.4994C26.87 22.4993 26.8612 22.499 26.8524 22.4984C26.8524 22.4984 26.8523 22.4984 26.8523 22.4984C26.8257 22.4966 26.7992 22.4926 26.7732 22.4861C26.7385 22.4776 26.7048 22.4645 26.6729 22.4479C26.6686 22.4456 26.6643 22.4433 26.66 22.4408C26.633 22.4254 26.6077 22.4072 26.584 22.3872C26.5567 22.3639 26.532 22.3378 26.5093 22.3103C26.4635 22.2552 26.4281 22.193 26.3975 22.1293C26.3823 22.0974 26.3695 22.0645 26.3572 22.0315C26.345 21.9984 26.3341 21.965 26.3243 21.9312C26.3051 21.8637 26.2897 21.7952 26.2777 21.7263C26.2662 21.6573 26.2567 21.588 26.2512 21.5185C26.2465 21.465 26.2436 21.4115 26.2422 21.3579C26.2495 21.3529 26.257 21.3479 26.2644 21.3431C26.2695 21.4006 26.2759 21.458 26.2832 21.515C26.2878 21.5493 26.2928 21.5835 26.298 21.6175C26.3034 21.6516 26.3095 21.6856 26.3161 21.7194C26.3293 21.787 26.3445 21.8541 26.364 21.92C26.3827 21.9861 26.4056 22.0509 26.4333 22.1135C26.4471 22.1448 26.4623 22.1754 26.4791 22.2051L26.4921 22.2272L26.5057 22.2488C26.5151 22.2631 26.5246 22.2773 26.5349 22.2908C26.5553 22.3182 26.5779 22.3438 26.6025 22.3675C26.627 22.3912 26.6539 22.4126 26.6832 22.4306C26.7068 22.4456 26.7318 22.4582 26.758 22.4684C26.787 22.4799 26.8173 22.4885 26.8483 22.4944C26.8584 22.4964 26.8686 22.498 26.8789 22.4994Z" fill="#DBBF69"/>
<path d="M26.8799 22.5025C26.8712 22.5024 26.8624 22.5021 26.8537 22.5018C26.8536 22.5018 26.8535 22.5018 26.8535 22.5018C26.8408 22.5011 26.8281 22.5003 26.8154 22.499C26.8019 22.4977 26.7885 22.496 26.775 22.4938C26.7499 22.4895 26.7249 22.4839 26.7003 22.4768C26.6909 22.474 26.6816 22.4712 26.6723 22.468C26.6389 22.4562 26.6064 22.4416 26.5752 22.4245L26.5568 22.4137L26.5522 22.411L26.53 22.3964C26.5225 22.3916 26.5156 22.386 26.5084 22.3808C26.5011 22.3757 26.4942 22.3701 26.4874 22.3645C26.4317 22.3201 26.3854 22.2655 26.3455 22.2075C26.3256 22.1784 26.3082 22.1478 26.292 22.1167C26.276 22.0856 26.2612 22.0538 26.2482 22.0213C26.2227 21.9563 26.2021 21.8896 26.1865 21.822C26.1711 21.7543 26.1594 21.6859 26.1522 21.6171C26.1455 21.5569 26.1418 21.4965 26.1406 21.4361C26.1474 21.4302 26.1543 21.4245 26.1612 21.4188C26.1665 21.4839 26.1742 21.5487 26.1841 21.613C26.1894 21.6466 26.1954 21.6802 26.2019 21.7136C26.2085 21.747 26.216 21.7801 26.2245 21.813C26.2411 21.8788 26.2613 21.9437 26.2867 22.0064C26.3117 22.0692 26.3418 22.13 26.3784 22.1865C26.3967 22.2149 26.4165 22.2422 26.4381 22.2679L26.4547 22.287L26.4721 22.3054C26.4778 22.3117 26.484 22.3173 26.49 22.3233C26.4959 22.3293 26.5022 22.3349 26.5085 22.3405C26.5538 22.381 26.6052 22.4148 26.6608 22.4409C26.6671 22.4439 26.6734 22.4467 26.6798 22.4494C26.7112 22.4631 26.7441 22.4737 26.7775 22.4827L26.8027 22.4889C26.8112 22.4909 26.8197 22.4923 26.8283 22.494C26.8365 22.4959 26.8448 22.4973 26.8531 22.4985C26.8532 22.4985 26.8532 22.4985 26.8532 22.4985C26.8621 22.4998 26.871 22.501 26.8799 22.5025Z" fill="#DBBF69"/>
<path d="M26.8785 22.5058C26.87 22.5057 26.8616 22.5056 26.8531 22.5052C26.853 22.5052 26.853 22.5052 26.853 22.5052C26.842 22.5049 26.831 22.5043 26.82 22.5036C26.77 22.5002 26.7201 22.4928 26.6709 22.4816L26.6455 22.4749C26.637 22.4727 26.6286 22.4702 26.6202 22.4675C26.6158 22.4661 26.6113 22.4647 26.6068 22.4633C26.6029 22.4621 26.599 22.4609 26.5951 22.4595L26.5703 22.4505C26.562 22.4477 26.554 22.444 26.5458 22.4406C26.5377 22.4372 26.5296 22.4339 26.5217 22.4299L26.4979 22.4185L26.4746 22.4061C26.4658 22.4012 26.4571 22.3962 26.4486 22.391C26.427 22.3779 26.406 22.3638 26.386 22.3484C26.3581 22.3268 26.3316 22.3035 26.3068 22.2785C26.2819 22.2536 26.2596 22.2263 26.2386 22.1982C26.2177 22.1701 26.1984 22.1408 26.1811 22.1104C26.1471 22.0494 26.1195 21.9852 26.0984 21.9193C26.0778 21.8531 26.062 21.7856 26.0524 21.7175C26.0435 21.6578 26.0387 21.5977 26.0371 21.5377C26.0436 21.5301 26.0503 21.5226 26.0572 21.5152C26.0627 21.5814 26.0717 21.6473 26.0841 21.7122C26.0973 21.7783 26.1135 21.8438 26.1356 21.9073C26.1573 21.9708 26.184 22.0325 26.2173 22.0906C26.25 22.1488 26.2894 22.2034 26.3354 22.2521C26.3582 22.2764 26.3827 22.2993 26.4087 22.3206L26.4286 22.3361C26.4352 22.3412 26.4422 22.3459 26.449 22.3509C26.4524 22.3533 26.4558 22.3559 26.4593 22.3582L26.4698 22.3651C26.4769 22.3697 26.4837 22.3746 26.4911 22.3788C26.5118 22.3915 26.5332 22.4031 26.5551 22.4138C26.5941 22.4329 26.6348 22.449 26.6765 22.4623C26.7333 22.4803 26.7922 22.4928 26.8519 22.5019C26.8519 22.5019 26.852 22.5019 26.852 22.5019C26.8608 22.5033 26.8696 22.5046 26.8785 22.5058Z" fill="#DBBF69"/>
<path d="M26.8796 22.5087C26.8714 22.5087 26.8631 22.5086 26.8549 22.5083C26.7938 22.5069 26.7327 22.5009 26.6722 22.4907C26.6036 22.4786 26.5355 22.4613 26.4704 22.4355C26.4261 22.4188 26.3835 22.3981 26.3426 22.3741C26.3229 22.3626 26.3035 22.3501 26.2848 22.3371L26.2634 22.3216L26.2428 22.3052C26.2358 22.2998 26.2294 22.2938 26.2227 22.2882L26.2127 22.2795L26.2031 22.2705C26.1774 22.2466 26.1531 22.2212 26.1311 22.194C26.0871 22.1394 26.0501 22.0795 26.0214 22.0162C25.9931 21.9527 25.9716 21.8865 25.9579 21.8189C25.951 21.7852 25.9454 21.7512 25.9418 21.7171C25.9405 21.7042 25.9394 21.6913 25.9385 21.6783C25.945 21.6667 25.9518 21.6553 25.9589 21.6441C25.9653 21.7008 25.9753 21.7569 25.9893 21.8119C26.0062 21.8767 26.0278 21.9402 26.0569 22.0001C26.0856 22.0602 26.121 22.1171 26.1633 22.1685C26.2394 22.2628 26.3388 22.3376 26.4495 22.3909C26.4605 22.3963 26.4717 22.4014 26.4829 22.4063C26.4983 22.4135 26.5142 22.4193 26.53 22.4257C26.5379 22.4287 26.5459 22.4315 26.5539 22.4344C26.5619 22.4371 26.5699 22.4403 26.578 22.4428C26.5943 22.4481 26.6104 22.4535 26.6269 22.458C26.6351 22.4603 26.6433 22.4628 26.6516 22.4649L26.6765 22.4712C26.6842 22.4731 26.6918 22.475 26.6995 22.4768C26.7375 22.4857 26.7759 22.493 26.8146 22.4991C26.8277 22.5013 26.8408 22.5033 26.8539 22.5051C26.8539 22.5051 26.8539 22.5051 26.8539 22.5051C26.8625 22.5063 26.871 22.5075 26.8796 22.5087Z" fill="#DBBF69"/>
<path d="M26.8798 22.5118C26.8104 22.5115 26.7411 22.5066 26.6721 22.4979C26.6548 22.4958 26.6376 22.4928 26.6205 22.4903C26.6032 22.4875 26.5862 22.4841 26.569 22.4811C26.552 22.4775 26.5349 22.4739 26.5179 22.4698L26.4926 22.4634L26.4798 22.4602L26.4673 22.4566C26.4336 22.4473 26.4003 22.4364 26.3676 22.4239C26.3593 22.421 26.3513 22.4175 26.3431 22.4143C26.3351 22.4109 26.3269 22.4077 26.3189 22.4042C26.3029 22.3969 26.2868 22.39 26.2712 22.382C26.2396 22.3666 26.2093 22.3488 26.1797 22.3297C26.1649 22.3203 26.1507 22.31 26.1364 22.2998C26.1224 22.2891 26.1084 22.2785 26.095 22.267C26.0416 22.2214 25.9939 22.1687 25.9555 22.1101C25.9173 22.0515 25.8871 21.9878 25.8673 21.9213C25.8633 21.9082 25.8597 21.895 25.8564 21.8816C25.8592 21.87 25.8625 21.8581 25.8662 21.8461C25.8683 21.8392 25.8706 21.8323 25.8728 21.8254C25.8798 21.8546 25.8878 21.8834 25.8979 21.9115C25.9205 21.9742 25.95 22.0343 25.9882 22.0889C26.0071 22.1162 26.0275 22.1425 26.0499 22.1671C26.0724 22.1917 26.0965 22.2147 26.1221 22.2362C26.1347 22.2472 26.1479 22.2574 26.1611 22.2677C26.1748 22.2776 26.1882 22.2875 26.2023 22.2966C26.2092 22.3013 26.2162 22.306 26.2235 22.3103C26.2307 22.3146 26.2377 22.3192 26.245 22.3234C26.2597 22.3317 26.2743 22.34 26.2893 22.3478C26.3068 22.3571 26.3246 22.3659 26.3426 22.3741C26.3862 22.394 26.4313 22.4108 26.4769 22.4262C26.5198 22.4404 26.5634 22.4527 26.6076 22.4632C26.6301 22.4686 26.6528 22.4737 26.6755 22.4782C26.7235 22.4882 26.7721 22.4963 26.8209 22.5035C26.8322 22.5052 26.8436 22.5067 26.8549 22.5083C26.8632 22.5095 26.8715 22.5107 26.8798 22.5118Z" fill="#DBBF69"/>
<path d="M24.9651 3.03269V20.7906C24.9651 21.3981 24.4428 21.8389 23.8072 21.7729L18.2093 21.1933L17.6291 21.1336C17.4847 21.1187 17.3477 21.0744 17.2232 21.0072C16.8615 20.8124 16.6094 20.4239 16.6094 20.0031V3.49087C16.6094 2.92623 17.0645 2.43692 17.6291 2.4008L23.8071 2.00424C24.4428 1.96378 24.9651 2.42448 24.9651 3.03269Z" fill="#A3B0FF"/>
<path d="M24.9651 5.12671V20.7904C24.9651 21.398 24.4428 21.8387 23.8072 21.7727L18.2093 21.1932L17.6291 21.1334C17.4847 21.1185 17.3477 21.0743 17.2232 21.007C16.8615 20.8122 16.6094 20.4237 16.6094 20.0029V17.166C17.4517 16.7856 18.7061 16.0635 18.6395 15.2399C18.5417 14.0415 17.5674 13.4918 18.0549 11.6397C18.5417 9.78706 20.1983 10.8192 20.9777 10.2708C21.7577 9.72169 20.7181 8.20206 22.0497 7.56522C23.3813 6.92835 23.9335 7.66482 24.2261 6.77708C24.4409 6.12403 24.4976 5.44234 24.9651 5.12671Z" fill="#CCD1EB"/>
<path d="M21.3019 13.9181C21.0317 14.5655 21.1768 15.1507 21.3448 15.828C21.478 16.3634 21.6225 16.9474 21.5621 17.616C22.0695 17.662 23.172 17.7523 24.0989 17.7629C24.7121 17.7697 24.9008 18.2055 24.9655 18.7042V20.7604C24.6605 20.4087 24.6443 19.8385 24.63 19.3255C24.6063 18.5025 24.549 18.1414 24.0946 18.1364C23.1433 18.1259 22.0122 18.0318 21.5079 17.9858C21.4644 18.2005 21.3984 18.4234 21.3025 18.6562C20.8537 19.7476 19.4585 20.6116 18.2097 21.1931L17.6295 21.1333C17.4851 21.1184 17.3481 21.0742 17.2236 21.007C18.5179 20.4865 20.3152 19.5832 20.7846 18.4427C21.1786 17.484 20.9869 16.7108 20.8007 15.9632C20.6252 15.2541 20.4428 14.5207 20.7852 13.7021C21.0149 13.1512 21.3455 12.815 21.714 12.5709L21.4575 12.2286C21.2197 11.911 21.2764 11.4678 21.587 11.2188C21.9748 10.9081 22.4337 10.3684 22.4156 9.56346C22.4137 9.46073 22.4953 9.37482 22.598 9.37295C22.7007 9.36859 22.7866 9.45201 22.7891 9.55535C22.8109 10.5128 22.2743 11.1472 21.8205 11.5107C21.6686 11.6321 21.6399 11.8494 21.7563 12.0044L22.039 12.3817C22.2108 12.292 22.3864 12.2136 22.5607 12.1364C23.0786 11.9073 23.5673 11.69 23.934 11.1802C24.1892 10.8253 24.3542 10.458 24.5136 10.1032C24.6505 9.79938 24.7844 9.50057 24.9655 9.2254V10.4636C24.8167 10.7929 24.6431 11.1546 24.3891 11.5076C23.9334 12.1407 23.3252 12.4109 22.7879 12.6487C22.1585 12.9277 21.615 13.1692 21.3019 13.9181Z" fill="white"/>
<path opacity="0.4" d="M21.2337 16.0649C21.0267 15.9536 20.7687 16.0311 20.6573 16.238C20.6261 16.2961 20.6097 16.3581 20.6069 16.4198C20.6062 16.4337 20.6063 16.4475 20.607 16.4613L20.607 16.4615C20.6074 16.4679 20.6078 16.4743 20.6085 16.4806L20.6571 17.1365L21.2313 16.8157C21.2369 16.8127 21.2425 16.8096 21.248 16.8064L21.2481 16.8063C21.2601 16.7993 21.2717 16.7917 21.2829 16.7835C21.3328 16.7471 21.3756 16.6993 21.4068 16.6413C21.5181 16.4343 21.4406 16.1763 21.2337 16.0649Z" fill="black"/>
<path d="M20.6575 15.9488C20.4281 15.9488 20.2422 16.1347 20.2422 16.3641C20.2422 16.4283 20.2568 16.4892 20.2829 16.5436C20.2888 16.5558 20.2952 16.5677 20.3022 16.5792L20.3023 16.5794C20.3055 16.5847 20.3089 16.5899 20.3123 16.5951L20.6575 17.1362L21.0026 16.5951C21.006 16.5899 21.0094 16.5847 21.0126 16.5794L21.0127 16.5792C21.0197 16.5677 21.0261 16.5558 21.032 16.5436C21.0581 16.4892 21.0727 16.4283 21.0727 16.3641C21.0727 16.1347 20.8868 15.9488 20.6575 15.9488Z" fill="#F23D3D"/>
<path d="M20.6417 16.1661C20.6323 16.1661 20.6247 16.1737 20.6247 16.183V16.2399C20.6247 16.2492 20.6172 16.2568 20.6078 16.2568C20.5984 16.2568 20.5909 16.2492 20.5909 16.2399V16.183C20.5909 16.1737 20.5833 16.1661 20.5739 16.1661C20.5646 16.1661 20.557 16.1737 20.557 16.183V16.2399C20.557 16.2492 20.5494 16.2568 20.5401 16.2568C20.5307 16.2568 20.5231 16.2492 20.5231 16.2399V16.183C20.5231 16.1737 20.5155 16.1661 20.5062 16.1661C20.4968 16.1661 20.4893 16.1737 20.4893 16.183V16.2508C20.4893 16.287 20.5119 16.3178 20.5438 16.33V16.5823C20.5438 16.599 20.5573 16.6125 20.574 16.6125C20.5906 16.6125 20.6042 16.599 20.6042 16.5823V16.33C20.636 16.3178 20.6587 16.287 20.6587 16.2508V16.183C20.6586 16.1737 20.651 16.1661 20.6417 16.1661Z" fill="white"/>
<path d="M20.8152 16.1661C20.77 16.1661 20.7334 16.2027 20.7334 16.2478V16.4184C20.7334 16.4243 20.7382 16.4291 20.7441 16.4291C20.75 16.4291 20.7548 16.4339 20.7548 16.4398V16.5823C20.7548 16.599 20.7683 16.6125 20.785 16.6125C20.8016 16.6125 20.8152 16.599 20.8152 16.5823V16.4291V16.3105V16.1661Z" fill="white"/>
<path opacity="0.4" d="M23.8715 10.5748C23.659 10.4605 23.3941 10.5401 23.2798 10.7526C23.2477 10.8121 23.2309 10.8758 23.228 10.9392C23.2273 10.9534 23.2274 10.9677 23.2281 10.9819L23.2281 10.9821C23.2285 10.9886 23.229 10.9951 23.2296 11.0016L23.2796 11.675L23.8691 11.3457C23.8749 11.3426 23.8806 11.3394 23.8862 11.3361L23.8864 11.336C23.8986 11.3288 23.9105 11.321 23.9221 11.3126C23.9733 11.2753 24.0172 11.2261 24.0493 11.1666C24.1636 10.9541 24.084 10.6892 23.8715 10.5748Z" fill="black"/>
<path d="M23.2799 10.4559C23.0444 10.4559 22.8535 10.6468 22.8535 10.8822C22.8535 10.9483 22.8685 11.0108 22.8953 11.0665C22.9013 11.0791 22.908 11.0913 22.9151 11.1031L22.9153 11.1033C22.9186 11.1088 22.922 11.1142 22.9255 11.1194L23.2799 11.675L23.6342 11.1194C23.6378 11.1142 23.6412 11.1088 23.6445 11.1033L23.6446 11.1031C23.6518 11.0913 23.6584 11.0791 23.6644 11.0665C23.6912 11.0108 23.7062 10.9483 23.7062 10.8822C23.7063 10.6468 23.5154 10.4559 23.2799 10.4559Z" fill="#F23D3D"/>
<path d="M23.4923 10.8214L23.3022 10.7032C23.2892 10.6951 23.2728 10.6951 23.2599 10.7032L23.0698 10.8214C23.0619 10.8263 23.0654 10.8384 23.0746 10.8384H23.1062V11.0837H23.2301V10.9788C23.2301 10.9506 23.2529 10.9278 23.281 10.9278C23.3092 10.9278 23.332 10.9506 23.332 10.9788V11.0837H23.4559V10.8384H23.4875C23.4967 10.8384 23.5001 10.8263 23.4923 10.8214Z" fill="white"/>
<path opacity="0.4" d="M23.0275 8.6683C22.8348 8.56459 22.5944 8.63677 22.4907 8.82953C22.4617 8.88356 22.4464 8.94132 22.4438 8.99879C22.4432 9.01173 22.4432 9.02465 22.4439 9.03749L22.4439 9.03767C22.4442 9.0436 22.4447 9.04952 22.4452 9.05541L22.4906 9.66625L23.0253 9.36752C23.0306 9.36475 23.0358 9.36187 23.0409 9.35885L23.041 9.35876C23.0521 9.35224 23.0629 9.34517 23.0734 9.33752C23.1199 9.30367 23.1597 9.2591 23.1888 9.20509C23.2925 9.01233 23.2203 8.77201 23.0275 8.6683Z" fill="black"/>
<path d="M22.4903 8.5603C22.2767 8.5603 22.1035 8.73345 22.1035 8.94705C22.1035 9.00692 22.1171 9.06362 22.1414 9.11422C22.1469 9.12562 22.1529 9.1367 22.1594 9.14744L22.1595 9.14758C22.1625 9.15254 22.1656 9.15741 22.1689 9.16221L22.4903 9.66618L22.8117 9.16221C22.8149 9.15741 22.818 9.15254 22.821 9.14758L22.8211 9.14744C22.8276 9.1367 22.8336 9.12562 22.8391 9.11422C22.8634 9.06362 22.877 9.00692 22.877 8.94705C22.877 8.73345 22.7039 8.5603 22.4903 8.5603Z" fill="#F23D3D"/>
<path d="M22.5123 9.03708L22.5197 9.02848L22.6572 8.86972C22.6714 8.85346 22.6598 8.82819 22.6382 8.82819H22.3416C22.32 8.82819 22.3085 8.85344 22.3226 8.86972L22.4601 9.02848L22.4676 9.03708V9.11806C22.4676 9.11836 22.4676 9.12692 22.4676 9.13737C22.4676 9.1587 22.4503 9.17601 22.429 9.17601H22.3808C22.3742 9.17601 22.3681 9.1805 22.3668 9.18701C22.3652 9.19576 22.3718 9.20343 22.3803 9.20343H22.599C22.6057 9.20343 22.6117 9.19894 22.613 9.19244C22.6147 9.18368 22.608 9.176 22.5996 9.176H22.5509C22.5295 9.176 22.5122 9.15866 22.5123 9.13733C22.5123 9.13252 22.5123 9.12919 22.5123 9.12897V9.03708ZM22.3957 8.89454L22.3712 8.86242H22.6089L22.5814 8.89454H22.3957Z" fill="white"/>
<path d="M19.7609 4.03781C19.7609 4.03781 18.3968 4.23269 18.1044 5.43446C17.8121 6.63624 18.4455 6.34392 18.9327 6.49007C19.4199 6.63622 20.1344 6.39263 20.3131 5.84047C20.4917 5.28831 19.8216 5.01628 20.5343 4.71179C21.2469 4.40726 20.5707 3.73916 19.7609 4.03781Z" fill="#CCD1EB"/>
<path d="M18.3724 7.02025C18.3724 7.02025 17.8426 7.00181 17.8487 7.45247C17.8548 7.90314 18.3237 7.64735 18.6952 7.64735C19.0667 7.64735 19.1763 7.06305 18.3724 7.02025Z" fill="#CCD1EB"/>
<path opacity="0.4" d="M21.4652 9.59834C21.2653 9.49078 21.0161 9.56565 20.9085 9.76557C20.8784 9.8216 20.8625 9.88152 20.8598 9.94112C20.8592 9.95453 20.8592 9.96794 20.8599 9.98125L20.8599 9.98144C20.8603 9.98759 20.8607 9.99372 20.8613 9.99982L20.9083 10.6334L21.4629 10.3235C21.4684 10.3207 21.4737 10.3177 21.479 10.3145L21.4792 10.3144C21.4907 10.3077 21.5019 10.3003 21.5128 10.2924C21.561 10.2573 21.6023 10.2111 21.6324 10.1551C21.74 9.95514 21.6651 9.7059 21.4652 9.59834Z" fill="black"/>
<path d="M20.9089 9.48651C20.6874 9.48651 20.5078 9.66609 20.5078 9.88763C20.5078 9.94973 20.5219 10.0085 20.5471 10.061C20.5528 10.0728 20.559 10.0843 20.5658 10.0954L20.5659 10.0956C20.569 10.1008 20.5722 10.1058 20.5756 10.1108L20.9089 10.6335L21.2423 10.1108C21.2456 10.1058 21.2488 10.1008 21.252 10.0956L21.2521 10.0954C21.2588 10.0843 21.2651 10.0728 21.2707 10.061C21.2959 10.0085 21.31 9.94971 21.31 9.88763C21.31 9.66609 21.1304 9.48651 20.9089 9.48651Z" fill="#F23D3D"/>
<path d="M20.7021 9.8504V9.99813C20.7021 10.0324 20.7299 10.0602 20.7642 10.0602H21.0538C21.0881 10.0602 21.1159 10.0324 21.1159 9.99813V9.8504C21.1159 9.81611 21.0881 9.78833 21.0538 9.78833H20.7642C20.7299 9.78833 20.7021 9.81611 20.7021 9.8504ZM20.9186 10.0177C20.8592 10.0236 20.8097 9.97407 20.8156 9.91468C20.82 9.87073 20.8555 9.83517 20.8994 9.83081C20.9588 9.82492 21.0084 9.87443 21.0025 9.93383C20.9981 9.9778 20.9626 10.0134 20.9186 10.0177Z" fill="white"/>
<path d="M20.8496 9.70978H20.7598V9.7663H20.8496V9.70978Z" fill="white"/>
<path opacity="0.4" d="M19.4337 4.55762C19.1872 4.42497 18.8798 4.5173 18.7471 4.76384C18.71 4.83294 18.6904 4.90685 18.6871 4.98034C18.6863 4.99688 18.6864 5.01341 18.6872 5.02985L18.6872 5.03009C18.6876 5.03768 18.6882 5.04524 18.6889 5.05276L18.7469 5.83407L19.4309 5.45196C19.4376 5.44843 19.4442 5.44473 19.4508 5.44087L19.451 5.44076C19.4651 5.43241 19.479 5.42338 19.4923 5.4136C19.5518 5.37031 19.6028 5.31331 19.6399 5.24421C19.7726 4.99768 19.6802 4.69027 19.4337 4.55762Z" fill="black"/>
<path d="M18.7486 4.41943C18.4754 4.41943 18.2539 4.64091 18.2539 4.9141C18.2539 4.99069 18.2713 5.0632 18.3024 5.12792C18.3094 5.14249 18.3171 5.15666 18.3254 5.1704L18.3255 5.1706C18.3294 5.17694 18.3334 5.18317 18.3375 5.18931L18.7486 5.83393L19.1597 5.18931C19.1638 5.18319 19.1678 5.17694 19.1716 5.1706L19.1718 5.1704C19.1801 5.15666 19.1878 5.14249 19.1948 5.12792C19.2259 5.0632 19.2433 4.99069 19.2433 4.9141C19.2433 4.6409 19.0218 4.41943 18.7486 4.41943Z" fill="#F23D3D"/>
<path d="M19.0007 4.82152H18.8518C18.8386 4.82152 18.827 4.81305 18.8229 4.80053L18.7769 4.65892C18.7678 4.63094 18.7282 4.63094 18.7191 4.65892L18.6731 4.80053C18.669 4.81305 18.6573 4.82152 18.6442 4.82152H18.4953C18.4659 4.82152 18.4536 4.85917 18.4774 4.87646L18.5979 4.96398C18.6085 4.97172 18.613 4.98542 18.6089 4.99794L18.5629 5.13955C18.5538 5.16753 18.5858 5.19081 18.6096 5.17351L18.7301 5.08599C18.7407 5.07825 18.7551 5.07825 18.7658 5.08599L18.8862 5.17351C18.91 5.19081 18.9421 5.16753 18.933 5.13955L18.887 4.99794C18.8829 4.98542 18.8873 4.97172 18.898 4.96398L19.0185 4.87646C19.0424 4.85917 19.0301 4.82152 19.0007 4.82152Z" fill="white"/>
<path d="M18.1077 20.8579C18.1146 20.9723 17.9938 21.1093 17.8325 21.2448C17.8053 21.2679 17.7765 21.2906 17.7473 21.3137C17.6312 21.4041 17.5038 21.4927 17.3925 21.5705C17.3577 21.5952 17.324 21.6186 17.2934 21.6406C17.2571 21.6671 17.2245 21.6911 17.1962 21.7136C16.9346 21.9222 16.6308 21.8831 16.9289 21.5898C16.9565 21.5624 16.9828 21.532 17.0069 21.4983C17.0325 21.465 17.0563 21.4289 17.0785 21.3905C17.1329 21.2997 17.1788 21.1992 17.2174 21.1009C17.2314 21.0661 17.2441 21.0315 17.2557 20.9982C17.2754 20.9422 17.2925 20.8892 17.3071 20.8405C17.3227 20.7893 17.3307 20.7357 17.3321 20.6833C17.4181 20.3946 17.5833 20.3968 17.7072 20.4496C17.7392 20.4634 17.7685 20.4811 17.7929 20.4974C17.7972 20.5018 17.802 20.5059 17.8065 20.5096C17.8249 20.526 17.8448 20.5406 17.8656 20.5546C17.9758 20.6327 18.0971 20.6946 18.1077 20.8579Z" fill="#DB9972"/>
<path d="M18.1118 20.734C18.1118 20.734 18.0417 20.9602 17.7896 21.218C17.7283 21.1799 17.6578 21.1392 17.5828 21.1033C17.7165 20.8814 17.7781 20.6586 17.8059 20.5095C17.8014 20.5059 17.7966 20.5017 17.7923 20.4973C17.7679 20.481 17.7386 20.4633 17.7065 20.4495C17.6653 20.7501 17.5444 20.9841 17.4975 21.0652C17.4165 21.0323 17.334 21.0071 17.2551 20.9981C17.2435 21.0314 17.2307 21.066 17.2168 21.1008C17.3146 21.1247 17.5233 21.185 17.7111 21.2931C17.6722 21.3285 17.6305 21.3641 17.5842 21.3995C17.5096 21.4567 17.4381 21.5071 17.3705 21.552C17.2943 21.4873 17.1899 21.4162 17.0779 21.3904C17.0557 21.4288 17.0319 21.4649 17.0063 21.4982C17.0794 21.5128 17.1753 21.5468 17.2661 21.6187C17.008 21.7778 16.832 21.8416 16.832 21.8416L16.8776 21.9547C16.8776 21.9547 17.2208 21.8496 17.692 21.5011C18.1632 21.1527 18.2478 20.8645 18.2478 20.8645L18.1118 20.734Z" fill="#080C21"/>
<path d="M17.6209 20.6819C17.7137 20.5217 17.6064 20.3706 17.5767 20.3324C17.5716 20.3272 17.5689 20.324 17.5689 20.324L15.7964 18.0915L15.6262 17.8777C15.6262 17.8777 15.4178 17.6156 15.1304 17.9075C14.9982 18.0404 14.9857 18.1922 15.0101 18.3174C15.0349 18.4472 15.106 18.5632 15.2031 18.6533C15.2154 18.6652 15.2281 18.6764 15.241 18.6888C16.0665 19.4557 16.8137 20.1776 17.1426 20.4966C17.173 20.526 17.1996 20.5577 17.2235 20.5913C17.3043 20.686 17.5141 20.8673 17.6209 20.6819Z" fill="#DB9972"/>
<path d="M15.0113 18.3174L14.9033 15.905L16.0715 16.0146L15.7977 18.0915L15.0113 18.3174Z" fill="#DB9972"/>
<path d="M16.4758 21.97C16.661 21.8951 16.6698 21.6952 16.6699 21.643C16.6689 21.6352 16.6687 21.6307 16.6687 21.6307L16.6386 18.5543L16.6353 18.2593C16.6353 18.2593 16.6315 17.8979 16.1932 17.9561C15.9926 17.9817 15.8813 18.1027 15.819 18.2255C15.7541 18.3526 15.7379 18.4985 15.7608 18.6395C15.7634 18.6578 15.7668 18.6759 15.7696 18.695C15.9645 19.8952 16.1225 21.0055 16.1912 21.4952C16.1976 21.5404 16.1992 21.5849 16.1973 21.6294C16.2034 21.7637 16.262 22.0572 16.4758 21.97Z" fill="#F2C0A2"/>
<path d="M16.7359 22.4096C16.6696 22.522 16.4681 22.5745 16.2294 22.5997C16.1889 22.6042 16.1472 22.6073 16.1049 22.6105C15.9376 22.6219 15.7607 22.6244 15.606 22.6269C15.5573 22.6282 15.5106 22.6288 15.4676 22.6301C15.4165 22.632 15.3704 22.6338 15.3293 22.637C14.9491 22.6673 14.687 22.4368 15.1556 22.3496C15.1992 22.3414 15.2434 22.3294 15.2876 22.313C15.3331 22.2978 15.3786 22.2789 15.4241 22.2568C15.5333 22.2056 15.6407 22.1399 15.7399 22.0717C15.7752 22.0477 15.8093 22.0231 15.8416 21.9991C15.8959 21.9587 15.9458 21.9195 15.9906 21.8829C16.038 21.8444 16.0797 21.7989 16.1144 21.7502C16.3797 21.5323 16.5344 21.6397 16.6178 21.7686C16.6393 21.802 16.6557 21.8374 16.6683 21.8684C16.6696 21.8753 16.6715 21.8823 16.6734 21.8886C16.6803 21.9157 16.6898 21.9423 16.7005 21.9688C16.7549 22.1128 16.83 22.2485 16.7359 22.4096Z" fill="#F2C0A2"/>
<path d="M16.8193 22.2957C16.8193 22.2957 16.6089 22.4647 16.2063 22.5476C16.1727 22.4724 16.132 22.3891 16.084 22.3073C16.3518 22.1829 16.552 22.0117 16.6733 21.8886C16.6714 21.8822 16.6695 21.8753 16.6683 21.8684C16.6556 21.8374 16.6392 21.802 16.6177 21.7686C16.3872 22.0262 16.1238 22.1703 16.0278 22.217C15.9722 22.1342 15.9103 22.0578 15.8415 21.9991C15.8093 22.0231 15.7752 22.0477 15.7398 22.0717C15.817 22.1567 15.9757 22.3466 16.0843 22.5685C16.025 22.5772 15.9628 22.5842 15.8966 22.5882C15.7897 22.5946 15.6899 22.5966 15.5974 22.5959C15.5666 22.4863 15.5133 22.3525 15.424 22.2568C15.3785 22.2789 15.333 22.2979 15.2875 22.313C15.3473 22.3734 15.4163 22.4666 15.4563 22.5925C15.1109 22.5782 14.904 22.5264 14.904 22.5264L14.875 22.6623C14.875 22.6623 15.2663 22.7818 15.9336 22.7529C16.6009 22.7241 16.8646 22.5058 16.8646 22.5058L16.8193 22.2957Z" fill="#080C21"/>
<path d="M15.751 18.5849L15.7804 15.6719L16.9008 15.8078L16.6353 18.2592L15.751 18.5849Z" fill="#F2C0A2"/>
<path d="M14.7498 13.8102C14.7239 13.9564 14.5752 16.5426 14.5752 16.5426H15.5394V16.705H16.9787C16.9787 16.705 17.3441 15.2109 17.1858 13.8711L14.7498 13.8102Z" fill="#FF8585"/>
<path d="M15.5397 16.5425C15.5397 16.5425 15.6305 15.0605 15.5191 15.2575C15.4077 15.4544 15.1758 16.5425 15.1758 16.5425H15.5397Z" fill="#D66767"/>
<path d="M13.834 11.8566C13.834 11.8566 13.9076 12.6206 14.1767 12.6856C14.4459 12.7506 14.6557 12.573 14.795 12.2228L14.8762 11.5244L14.1048 11.4838L13.834 11.8566Z" fill="#DB9972"/>
<path d="M14.876 7.2777C14.876 7.2777 15.165 6.53295 15.4287 6.48993C15.4287 6.48993 16.1843 6.60787 16.4511 6.97423L16.4002 7.69247L14.876 7.2777Z" fill="#FFD24A"/>
<path d="M17.3207 10.4557H14.1758C14.1758 10.4557 14.3359 9.92855 14.6398 9.72193C14.9433 9.51531 15.2694 9.46315 15.3621 9.34182C15.3932 9.30083 15.4089 9.21634 15.4151 9.12193C15.4284 8.93436 15.4072 8.42564 15.4072 8.42564L15.748 8.4248L16.0892 8.42564C16.0892 8.42564 16.0789 8.81717 16.0772 8.94637C16.0751 9.0975 16.0843 9.27639 16.1344 9.34182C16.2271 9.46315 16.6607 9.46315 16.9642 9.66977C17.2681 9.87639 17.3207 10.4557 17.3207 10.4557Z" fill="#F2C0A2"/>
<path d="M16.0902 8.42564C16.0902 8.42564 16.0798 8.81717 16.0782 8.94637C15.8347 9.11737 15.5755 9.13313 15.4161 9.12193C15.4293 8.93436 15.4082 8.42564 15.4082 8.42564L15.749 8.4248L16.0902 8.42564Z" fill="#DB9972"/>
<path d="M16.7886 8.02168C16.8585 7.77021 16.386 7.41919 15.7331 7.23765C15.0803 7.05611 14.4944 7.1128 14.4245 7.36426C14.3545 7.61573 14.8271 7.96675 15.4799 8.14829C16.1328 8.32983 16.7187 8.27314 16.7886 8.02168Z" fill="#F2B705"/>
<path d="M16.1662 8.36009C16.1491 8.47693 16.1093 8.58873 16.0493 8.68789C15.9969 8.77632 15.9287 8.8559 15.8459 8.91969C15.7979 8.95759 15.7531 8.98412 15.7177 8.99486C15.6773 9.00749 15.5712 9.02075 15.5282 9.02075C15.1171 8.91528 14.9535 8.43336 14.8859 8.04807C14.8543 7.8668 14.8436 7.70636 14.8392 7.61732C14.8354 7.54468 14.8688 7.48405 14.9225 7.43479C15.0861 7.40447 15.4089 7.37541 15.8144 7.49606C15.9539 7.53774 16.0746 7.58828 16.1775 7.64195C16.2116 7.84912 16.1996 8.12638 16.1662 8.36009Z" fill="#F2C0A2"/>
<path d="M16.1847 8.19823C16.1985 8.22305 16.224 8.24262 16.2564 8.24856C16.2891 8.25456 16.3324 8.2496 16.3746 8.20572C16.4591 8.11796 16.4877 7.93626 16.4036 7.83067C16.3195 7.72509 16.1723 7.77544 16.1358 7.92831C16.1089 8.04107 16.1574 8.14925 16.1847 8.19823Z" fill="#F2C0A2"/>
<path d="M16.3998 7.93826C16.3998 7.93826 16.3742 7.84099 16.2636 7.84891C16.153 7.85685 16.165 8.13983 16.2511 8.14248C16.3372 8.14512 16.3755 8.06427 16.3575 8.00878C16.3394 7.95329 16.2818 7.97609 16.2818 7.97609C16.2818 7.97609 16.3184 7.86395 16.3998 7.93826Z" fill="#C27D55"/>
<path d="M13.6094 11.5081L14.5919 11.703L14.5432 14.342C14.5432 14.342 15.0989 14.5288 15.5193 14.4882L15.5582 13.9685L15.6962 14.4939C15.6962 14.4939 16.657 14.5044 17.3215 14.3663L17.2763 11.9303L17.8724 11.8654C17.8724 11.8654 17.6726 9.41311 16.2906 9.2832L15.5194 10.2414C15.5194 10.2414 15.2585 9.79868 15.3216 9.38106C15.3216 9.38106 13.9748 9.48621 13.6094 11.5081Z" fill="#2E3978"/>
<path d="M14.1332 11.3971L13.7295 10.3096H14.3L14.6836 11.3971H14.1332Z" fill="#080C21"/>
<path d="M14.2341 11.2242C14.0529 10.9482 14.1888 10.7422 14.0511 10.734C13.9133 10.7258 13.8758 10.8658 13.7687 11.1706C13.6615 11.4754 13.8081 11.797 13.8081 11.797C13.8246 11.8546 13.8584 11.8951 13.8995 11.9235C14.0241 12.0097 14.1927 11.9022 14.1774 11.7514C14.3061 11.702 14.4154 11.5002 14.2341 11.2242Z" fill="#F2C0A2"/>
<path d="M17.5867 11.8965C17.2378 11.9251 16.857 11.9883 16.857 11.9883L16.8074 12.4228L15.7288 11.8509C15.5178 11.739 15.3312 11.587 15.1787 11.4031C15.124 11.3371 15.0466 11.2596 14.9373 11.1747C14.6535 10.9541 14.0943 10.8422 14.0681 10.8863C14.0511 10.9149 14.0316 10.9583 14.0825 10.997C14.1038 11.0132 14.1261 11.0285 14.1499 11.04C14.1908 11.0598 14.2318 11.0794 14.2692 11.1052L14.2802 11.1129C14.2802 11.1129 14.3065 11.306 14.3034 11.3956C14.3003 11.4852 14.3233 11.5895 14.3233 11.5895C14.3348 11.6385 14.372 11.724 14.4914 11.7663C14.4916 11.7662 14.4916 11.7662 14.4917 11.7663C14.4924 11.7666 14.4933 11.7667 14.4944 11.767C14.4978 11.7679 14.5006 11.7684 14.5039 11.7692C14.5107 11.7708 14.5175 11.7726 14.5235 11.7737C14.5279 11.7745 14.5312 11.7749 14.5351 11.7755C14.5394 11.7762 14.5441 11.7771 14.5477 11.7775C14.5529 11.7781 14.5566 11.7784 14.5603 11.7787C14.5618 11.7788 14.5638 11.779 14.565 11.7791C14.5693 11.7794 14.5722 11.7795 14.5734 11.7796C14.6018 11.7821 14.7282 11.8148 14.7361 11.8169C14.7364 11.8168 14.7365 11.8169 14.7365 11.8169C14.764 11.828 14.7907 11.8381 14.8171 11.8468C14.8975 11.8732 14.9721 11.885 15.0445 11.8593C15.0445 11.8593 16.3568 13.3286 17.1917 13.1478C17.1917 13.1478 17.2113 13.1384 17.2315 13.1169C17.4599 12.9635 17.6313 11.8929 17.5867 11.8965Z" fill="#F2C0A2"/>
<path d="M15.5207 10.2415C15.5207 10.2415 14.8977 10.1258 14.9465 10.0101C14.9952 9.89434 15.1474 9.81518 15.1474 9.81518C15.1474 9.81518 14.7785 9.91262 14.8412 9.81518C14.9038 9.71773 15.1535 9.3706 15.2875 9.34014C15.4215 9.30971 15.2362 9.57767 15.5207 10.2415Z" fill="#4455B3"/>
<path d="M15.5186 10.2415C15.5186 10.2415 16.0999 9.43156 16.1981 9.20014C16.1981 9.20014 16.3298 9.19708 16.5156 9.49246C16.7013 9.78783 16.345 9.70256 16.2111 9.69648C16.0771 9.69039 16.1806 9.73607 16.3359 9.77261C16.4912 9.80914 15.8461 10.202 15.5186 10.2415Z" fill="#4455B3"/>
<path d="M14.842 7.66525C14.842 7.66525 15.2752 7.79247 15.7401 7.69236C15.7401 7.69236 15.9248 8.03698 16.1685 8.09468L16.2628 7.69236C16.2628 7.69236 16.0253 7.37606 15.3341 7.35474C14.6429 7.33343 14.842 7.66525 14.842 7.66525Z" fill="#F23D3D"/>
<path d="M16.1796 7.98693L15.8881 7.95513C15.8904 7.92722 15.8914 7.90875 15.8914 7.90875C15.8914 7.90875 15.5457 7.87693 15.3634 7.91149C15.2985 7.89468 15.2638 7.91191 15.2638 7.91191C15.0805 7.8826 14.7715 7.9235 14.7715 7.9235C14.7715 7.9235 14.7925 8.18684 14.8486 8.24267C14.9046 8.29851 15.1288 8.32296 15.2276 8.2436C15.3041 8.18217 15.2839 8.01749 15.2708 7.94605C15.3062 7.93217 15.3414 7.93869 15.362 7.94525C15.3606 8.01667 15.3663 8.18244 15.4447 8.24182C15.5457 8.31831 15.7691 8.28743 15.8235 8.23001C15.8537 8.19818 15.8713 8.10297 15.8809 8.02437C15.9555 8.03279 16.1662 8.05646 16.1779 8.05664C16.1922 8.0569 16.1796 7.98693 16.1796 7.98693Z" fill="#080C21"/>
<path d="M23.4761 15.27C22.2389 15.27 21.2363 16.2726 21.2363 17.509C21.2363 17.531 21.2363 17.5529 21.237 17.5748C21.2377 17.591 21.2385 17.608 21.2392 17.6242C21.3211 19.6117 23.4761 22.3136 23.4761 22.3136C23.4761 22.3136 25.6303 19.6117 25.7123 17.6242C25.713 17.608 25.7137 17.591 25.7144 17.5748C25.7151 17.5529 25.7151 17.531 25.7151 17.509C25.7151 16.2726 24.7125 15.27 23.4761 15.27ZM23.4761 18.4919C22.9327 18.4919 22.4926 18.0517 22.4926 17.509C22.4926 16.9664 22.9327 16.5262 23.4761 16.5262C24.0187 16.5262 24.4589 16.9664 24.4589 17.509C24.4589 18.0517 24.0187 18.4919 23.4761 18.4919Z" fill="#F23D3D"/>
<path d="M25.7166 17.5089C25.7166 17.5309 25.7166 17.5528 25.7159 17.5747C25.7152 17.5909 25.7145 17.6079 25.7138 17.6241C25.6318 19.6116 23.4775 22.3134 23.4775 22.3134V18.4917C24.0202 18.4917 24.4603 18.0516 24.4603 17.5089C24.4603 16.9663 24.0202 16.5261 23.4775 16.5261V15.2699C24.714 15.2699 25.7166 16.2725 25.7166 17.5089Z" fill="#C73232"/>
<path d="M23.4752 18.4909C24.0176 18.4909 24.4573 18.0512 24.4573 17.5088C24.4573 16.9664 24.0176 16.5267 23.4752 16.5267C22.9329 16.5267 22.4932 16.9664 22.4932 17.5088C22.4932 18.0512 22.9329 18.4909 23.4752 18.4909Z" fill="white"/>
<path opacity="0.4" d="M28.0426 20.463L28.0414 20.4499C28.2917 20.4431 28.517 20.1903 28.5898 19.7458C28.7542 18.751 28.301 17.0527 27.7227 17.1362C27.7227 17.1362 27.9815 17.0005 28.4122 17.4232C29.2581 18.2535 29.1399 20.6202 28.0426 20.463Z" fill="black"/>
<path d="M24.7246 21.4653C24.7246 21.4653 24.7815 20.5883 24.8465 20.5234C24.9114 20.4584 25.1388 20.9161 25.2443 21.2151C25.2443 21.2151 25.7315 21.1131 25.8371 21.1877C25.9427 21.2623 25.4555 21.7088 25.4555 21.7088C25.4555 21.7088 25.8654 22.0979 25.8918 22.3054C25.9183 22.5128 25.1307 22.2228 25.1307 22.2228C25.1307 22.2228 24.749 22.7654 24.4404 22.7203C24.4404 22.7203 24.5541 22.2702 24.684 21.9571C24.684 21.9571 24.2374 21.8524 24.0832 21.7848C23.9289 21.717 24.4161 21.5384 24.7246 21.4653Z" fill="#FFC7C7"/>
<path d="M24.2109 21.7569C24.2109 21.7569 24.8936 21.5207 25.069 21.5086C25.069 21.5086 24.9065 20.688 24.9351 20.685C24.9636 20.682 25.1634 21.3167 25.1634 21.4629C25.1634 21.4629 25.7334 21.2209 25.7334 21.2818C25.7334 21.3427 25.2424 21.6347 25.2424 21.6347C25.2424 21.6347 25.7817 22.1462 25.7943 22.2623C25.807 22.3785 25.1969 21.7724 25.1969 21.7724C25.1969 21.7724 24.8078 22.4998 24.5824 22.6277L25.066 21.6747C25.066 21.6747 24.3406 21.8025 24.2109 21.7569Z" fill="#FF9999"/>
</svg>
