<svg width="31" height="17" viewBox="0 0 31 17" fill="none" xmlns="http://www.w3.org/2000/svg">
<path d="M5.9094 15.9033C5.55249 15.9033 5.22762 15.6097 5.18379 15.2476L3.49223 1.66129C3.47031 1.48022 3.52281 1.3163 3.6254 1.19763" stroke="white" stroke-width="0.0708002" stroke-miterlimit="10" stroke-linecap="round" stroke-linejoin="round"/>
<path d="M11.493 0.61377H4.63318C4.27627 0.61377 4.02354 0.907341 4.0687 1.26947L5.81206 15.2476C5.85723 15.6097 6.18317 15.9033 6.54009 15.9033H13.3999C13.7568 15.9033 14.0096 15.6097 13.9644 15.2476L12.221 1.26947C12.1759 0.907341 11.8499 0.61377 11.493 0.61377Z" fill="#6C74D8" stroke="white" stroke-width="0.0708002" stroke-miterlimit="10" stroke-linecap="round" stroke-linejoin="round"/>
<path d="M11.3974 1.04657H4.83596C4.58694 1.04657 4.41061 1.2514 4.44212 1.50407L6.12698 15.0131C6.15849 15.2658 6.38591 15.4706 6.63495 15.4706H13.1964C13.4454 15.4706 13.6218 15.2658 13.5902 15.0131L11.9054 1.50407C11.8739 1.2514 11.6464 1.04657 11.3974 1.04657Z" fill="#5C63C6"/>
<path d="M7.37783 11.3189H11.4473C11.6097 11.3189 11.7246 11.1854 11.7041 11.0207L10.8277 3.99423C10.8072 3.82951 10.6589 3.69598 10.4966 3.69598H6.42709C6.26475 3.69598 6.1498 3.82951 6.17034 3.99423L7.04668 11.0207C7.06723 11.1854 7.21549 11.3189 7.37783 11.3189Z" fill="#6C74D8"/>
<path d="M5.62544 3.99423C5.6049 3.82951 5.45664 3.69598 5.2943 3.69598H4.71484L5.66557 11.3189H6.24503C6.40737 11.3189 6.52231 11.1854 6.50177 11.0207L5.62544 3.99423Z" fill="#6C74D8"/>
<path d="M12.178 3.69598H11.6292C11.4669 3.69598 11.352 3.82951 11.3725 3.99423L12.2488 11.0207C12.2694 11.1854 12.4176 11.3189 12.58 11.3189H13.1287L12.178 3.69598Z" fill="#6C74D8"/>
<path d="M8.37598 15.1901H11.3866" stroke="white" stroke-width="0.0708002" stroke-miterlimit="10" stroke-linecap="round" stroke-linejoin="round"/>
<path d="M12.9147 14.0085H6.71159C6.51587 14.0085 6.33715 13.8476 6.31238 13.649L6.13568 12.2322C6.1109 12.0337 6.24949 11.8727 6.44519 11.8727H12.6483C12.844 11.8727 13.0227 12.0337 13.0475 12.2322L13.2242 13.649C13.2489 13.8476 13.1104 14.0085 12.9147 14.0085Z" fill="#6C74D8"/>
<path d="M6.85059 12.5998H9.02133" stroke="#D0D7F7" stroke-width="0.236001" stroke-linecap="round" stroke-linejoin="round"/>
<path d="M6.85645 13.2885H10.4202" stroke="#D0D7F7" stroke-width="0.236001" stroke-linecap="round" stroke-linejoin="round"/>
<path d="M12.4396 13.2443H11.6903C11.5249 13.2443 11.3739 13.1083 11.353 12.9405C11.3321 12.7728 11.4492 12.6368 11.6145 12.6368H12.3638C12.5292 12.6368 12.6802 12.7728 12.7011 12.9405C12.722 13.1083 12.6049 13.2443 12.4396 13.2443Z" fill="#D0D7F7"/>
<path d="M13.2968 10.8838H17.3663C17.5286 10.8838 17.6435 10.7503 17.623 10.5855L16.7467 3.55911C16.7261 3.39439 16.5779 3.26086 16.4155 3.26086H12.346C12.1837 3.26086 12.0687 3.39439 12.0893 3.55911L12.9656 10.5855C12.9862 10.7503 13.1344 10.8838 13.2968 10.8838Z" fill="white"/>
<path d="M15.7307 6.75651C15.7798 6.75602 16.3804 6.52569 16.4164 6.50008C16.7505 6.26199 15.6854 6.0936 15.6783 5.99481C15.6713 5.89603 15.65 5.7879 15.5872 5.69624C15.2907 5.26281 14.7407 5.07833 14.6162 5.11377C14.4349 5.16539 14.2503 5.22795 14.1382 5.36708C14.0456 5.48196 14.0109 5.64139 14.0186 5.80608C14.0247 5.93479 14.0447 6.13743 14.1249 6.26353C14.2005 6.3825 14.3703 6.34641 14.472 6.34702C14.8039 6.34903 14.6797 6.76692 15.7307 6.75651Z" fill="#EFD2FF"/>
<path d="M13.8828 8.19855H16.0536" stroke="#D0D7F7" stroke-width="0.236001" stroke-linecap="round" stroke-linejoin="round"/>
<path d="M13.2402 8.71747H16.804" stroke="#D0D7F7" stroke-width="0.236001" stroke-linecap="round" stroke-linejoin="round"/>
<path d="M13.4717 9.94373H14.0421" stroke="#D0D7F7" stroke-width="0.236001" stroke-linecap="round" stroke-linejoin="round"/>
<path d="M16.797 10.2473H16.0477C15.8824 10.2473 15.7314 10.1113 15.7104 9.94358C15.6895 9.77583 15.8066 9.63983 15.9719 9.63983H16.7212C16.8866 9.63983 17.0376 9.77583 17.0585 9.94358C17.0794 10.1113 16.9624 10.2473 16.797 10.2473Z" fill="#FF5963"/>
<path d="M16.1191 9.76172L16.1452 9.76185C16.1693 9.76197 16.1925 9.77773 16.2028 9.80093L16.2924 10.002C16.3027 10.0252 16.3259 10.0409 16.35 10.041L16.5062 10.0418C16.5284 10.0419 16.547 10.0287 16.5533 10.008L16.5999 9.85707L16.2271 9.8555" stroke="white" stroke-width="0.0472001" stroke-miterlimit="10" stroke-linecap="round" stroke-linejoin="round"/>
<path d="M16.3889 10.1404C16.3905 10.1542 16.3807 10.1653 16.367 10.1652C16.3532 10.1651 16.3407 10.1539 16.3391 10.1402C16.3374 10.1264 16.3472 10.1153 16.3609 10.1154C16.3747 10.1155 16.3872 10.1267 16.3889 10.1404Z" fill="white" stroke="white" stroke-width="0.0472001" stroke-miterlimit="10" stroke-linecap="round" stroke-linejoin="round"/>
<path d="M16.5354 10.1412C16.537 10.1549 16.5272 10.166 16.5135 10.1659C16.4997 10.1659 16.4872 10.1547 16.4855 10.1409C16.4839 10.1272 16.4937 10.1161 16.5074 10.1162C16.5212 10.1162 16.5337 10.1274 16.5354 10.1412Z" fill="white" stroke="white" stroke-width="0.0472001" stroke-miterlimit="10" stroke-linecap="round" stroke-linejoin="round"/>
<path d="M16.1507 4.13247C16.3251 4.01881 16.4028 3.92574 16.3478 3.80291C16.315 3.72968 16.1673 3.65781 16.1104 3.80913" stroke="#FF5963" stroke-width="0.0472001" stroke-linecap="round" stroke-linejoin="round"/>
<path d="M16.151 4.13241C15.9483 4.01875 15.8474 3.92568 15.8717 3.80285C15.8863 3.72962 16.016 3.65775 16.1107 3.80907" stroke="#FF5963" stroke-width="0.0472001" stroke-linecap="round" stroke-linejoin="round"/>
<path d="M14.7617 5.05196C14.5241 5.00938 13.6862 5.00354 13.7774 5.9237C13.7945 6.09595 13.9449 6.27821 14.1324 6.34835C14.1405 6.35138 14.1466 6.35339 14.1503 6.3541C14.5998 6.41712 15.3745 6.47536 15.6621 6.18823C15.8206 6.03003 15.0604 5.10549 14.7617 5.05196Z" stroke="#6C74D8" stroke-width="0.0708002" stroke-linecap="round" stroke-linejoin="round"/>
<path d="M15.6413 5.97579C15.9084 6.00744 16.4029 6.14329 16.4299 6.29532C16.4555 6.43945 16.17 6.65818 15.6819 6.75143C15.103 6.86205 14.149 6.35005 14.149 6.35005C14.149 6.35005 13.9613 5.08886 14.7613 5.052" stroke="#6C74D8" stroke-width="0.0708002" stroke-linecap="round" stroke-linejoin="round"/>
<path d="M15.4858 6.00837C15.3816 5.72412 15.1592 5.58735 15.1133 5.57317C15.105 5.57063 15.0966 5.56901 15.0896 5.57071C15.0809 5.57285 15.0759 5.57992 15.072 5.58726C15.0492 5.63102 15.0562 5.69119 15.0695 5.74951C15.0887 5.83326 15.1203 5.9187 15.1631 6.00238C15.1801 6.03564 15.2001 6.07015 15.2308 6.09594C15.254 6.0873 15.265 6.0634 15.2643 6.03679C15.2636 6.01017 15.2526 5.9811 15.2383 5.95324C15.2153 5.90821 15.1826 5.86362 15.1402 5.82979C15.0978 5.79598 15.0449 5.77421 15.002 5.77883" stroke="#6C74D8" stroke-width="0.0708002" stroke-linecap="round" stroke-linejoin="round"/>
<path d="M2.89149 10.8838H6.96098C7.12332 10.8838 7.23826 10.7503 7.21772 10.5856L6.34139 3.55917C6.32085 3.39445 6.17259 3.26093 6.01025 3.26093H1.94076C1.77842 3.26093 1.66348 3.39445 1.68402 3.55917L2.56035 10.5856C2.5809 10.7503 2.72916 10.8838 2.89149 10.8838Z" fill="white"/>
<path d="M5.3586 6.54499C5.18019 6.53286 5.00044 6.51373 4.82084 6.49461C4.66241 6.47773 4.50334 6.46075 4.3434 6.42196C4.19763 6.3866 4.05268 6.3335 3.90828 6.28014C3.71977 6.2105 3.53137 6.14017 3.34308 6.06916C3.26805 6.04086 3.18763 6.00872 3.13352 5.94507C3.09473 5.89942 3.07512 5.84357 3.06395 5.79006C3.02197 5.58906 3.09036 5.3956 3.23845 5.29642C3.34676 5.22388 3.54452 5.31913 3.68691 5.3098C3.82184 5.30095 3.89858 5.06108 4.04017 5.09301C4.40947 5.17626 4.75259 5.57304 5.10461 5.76363C5.43563 5.94286 5.82032 6.04416 6.08059 6.3258C6.28376 6.54565 5.53501 6.55698 5.3586 6.54499Z" fill="#AEF4B1"/>
<path d="M3.53027 8.19873H5.70101" stroke="#D0D7F7" stroke-width="0.236001" stroke-linecap="round" stroke-linejoin="round"/>
<path d="M2.8877 8.71765H6.45149" stroke="#D0D7F7" stroke-width="0.236001" stroke-linecap="round" stroke-linejoin="round"/>
<path d="M3.06641 9.94373H3.63678" stroke="#D0D7F7" stroke-width="0.236001" stroke-linecap="round" stroke-linejoin="round"/>
<path d="M6.39175 10.2474H5.64241C5.47708 10.2474 5.32608 10.1114 5.30515 9.94364C5.28423 9.77589 5.4013 9.63989 5.56663 9.63989H6.31597C6.4813 9.63989 6.6323 9.77589 6.65323 9.94364C6.67415 10.1114 6.55708 10.2474 6.39175 10.2474Z" fill="#FF5963"/>
<path d="M5.74639 4.13271C5.92078 4.01905 5.99851 3.92598 5.94348 3.80315C5.91066 3.72992 5.76302 3.65806 5.70605 3.80938" stroke="#FF5963" stroke-width="0.0472001" stroke-linecap="round" stroke-linejoin="round"/>
<path d="M5.74675 4.13271C5.54401 4.01905 5.44306 3.92598 5.46745 3.80315C5.48199 3.72992 5.61171 3.65806 5.70643 3.80938" stroke="#FF5963" stroke-width="0.0472001" stroke-linecap="round" stroke-linejoin="round"/>
<path d="M3.29939 5.38003C3.646 5.37845 4.08024 5.63345 3.9799 5.16975C3.95771 4.99182 4.67251 5.56399 4.86463 5.71438C5.09059 5.89142 6.0814 6.3128 6.09649 6.45838C6.11462 6.63343 5.57718 6.74954 5.30732 6.75578C4.87098 6.76587 3.95299 6.6078 3.73002 6.62295C3.50705 6.6381 3.02801 6.62742 2.88005 6.53387C2.77576 6.46806 3.11841 6.05329 3.14327 5.97313C3.20213 5.78287 3.18618 5.38003 3.29939 5.38003Z" stroke="#6C74D8" stroke-width="0.0708002" stroke-linecap="round" stroke-linejoin="round"/>
<path d="M5.88026 6.54477C5.05585 6.66339 4.21828 6.25369 3.92246 6.0703C3.58447 5.86077 3.2353 5.84385 3.14355 5.97324" stroke="#6C74D8" stroke-width="0.0708002" stroke-linecap="round" stroke-linejoin="round"/>
<path d="M4.51681 5.79631C4.48304 5.70181 4.59657 5.59639 4.69827 5.54963C4.71547 5.54181 4.82758 5.47924 4.87903 5.51124C4.90605 5.52817 4.89047 5.56861 4.88575 5.58C4.85752 5.64785 4.79284 5.70532 4.74243 5.76499C4.73554 5.77314 4.68891 5.84285 4.71896 5.84911C4.74424 5.85436 4.76004 5.83925 4.7698 5.83364C4.83737 5.79486 4.90657 5.75716 4.96554 5.71378C5.01454 5.6777 4.99343 5.6889 5.04462 5.6564C5.05202 5.65169 5.07233 5.63763 5.07038 5.64442C5.05126 5.71179 4.98495 5.76806 4.95974 5.83406C4.95448 5.84782 4.93617 5.89996 4.96487 5.92196C4.99356 5.94396 5.01992 5.92932 5.03919 5.92224C5.10996 5.89639 5.17588 5.86758 5.23637 5.83518C5.26073 5.82206 5.32651 5.81915 5.30979 5.79621C5.3036 5.7876 5.21748 5.87321 5.2166 5.87443C5.19418 5.90592 5.1346 5.97166 5.18803 6.02044C5.22497 6.05427 5.37487 5.96664 5.39595 5.95305C5.40739 5.94563 5.4157 5.9366 5.42685 5.92901C5.43773 5.9217 5.46252 5.89716 5.46162 5.90804C5.45767 5.95576 5.37052 5.98843 5.3965 6.04645C5.40893 6.07411 5.485 6.03311 5.49289 6.02958C5.49971 6.02648 5.51982 6.01873 5.51812 6.02397C5.50818 6.05494 5.48412 6.0862 5.46924 6.11582" stroke="#6C74D8" stroke-width="0.0708002" stroke-linecap="round" stroke-linejoin="round"/>
<path d="M5.70801 9.76166L5.73408 9.76179C5.75814 9.7619 5.78138 9.77767 5.79171 9.80087L5.88124 10.0019C5.89158 10.0251 5.91479 10.0408 5.93886 10.041L6.09508 10.0418C6.11731 10.0419 6.13582 10.0286 6.1422 10.008L6.18881 9.857L5.81601 9.85544" stroke="white" stroke-width="0.0472001" stroke-miterlimit="10" stroke-linecap="round" stroke-linejoin="round"/>
<path d="M5.97774 10.1404C5.97941 10.1542 5.96961 10.1653 5.95585 10.1652C5.9421 10.1651 5.92959 10.1539 5.92792 10.1402C5.92625 10.1264 5.93605 10.1153 5.9498 10.1154C5.96356 10.1155 5.97607 10.1267 5.97774 10.1404Z" fill="white" stroke="white" stroke-width="0.0472001" stroke-miterlimit="10" stroke-linecap="round" stroke-linejoin="round"/>
<path d="M6.12422 10.1411C6.1259 10.1548 6.1161 10.1659 6.10234 10.1659C6.08858 10.1658 6.07606 10.1546 6.0744 10.1409C6.07273 10.1271 6.08253 10.116 6.09629 10.1161C6.11003 10.1161 6.12255 10.1273 6.12422 10.1411Z" fill="white" stroke="white" stroke-width="0.0472001" stroke-miterlimit="10" stroke-linecap="round" stroke-linejoin="round"/>
<path d="M8.0917 10.8838H12.1612C12.3235 10.8838 12.4385 10.7503 12.4179 10.5855L11.5416 3.55911C11.5211 3.39439 11.3728 3.26086 11.2105 3.26086H7.14096C6.97861 3.26086 6.86367 3.39439 6.88421 3.55911L7.76055 10.5855C7.7811 10.7503 7.92935 10.8838 8.0917 10.8838Z" fill="white"/>
<path d="M8.24785 5.70704C8.19902 6.04571 8.16715 6.39471 8.22266 6.75732C8.25345 6.9585 8.31075 7.16114 8.3679 7.36306C8.37553 7.39007 8.38565 7.42053 8.41049 7.4376C8.42487 7.44748 8.4415 7.45076 8.45735 7.45364C8.73383 7.50365 9.00821 7.51987 9.27194 7.50177C9.38272 7.49417 9.50105 7.47519 9.55521 7.38972C9.59483 7.3272 9.59199 7.24107 9.59335 7.16011C9.59666 6.96106 9.63141 6.76999 9.69601 6.59527C9.8092 6.70291 9.85081 6.85503 9.87448 6.99366C9.89816 7.1323 9.91373 7.27709 9.9962 7.40624C10.022 7.44658 10.0558 7.48591 10.0985 7.50668C10.1378 7.52579 10.1792 7.52681 10.2187 7.52724C10.4828 7.53016 10.7455 7.52727 11.0066 7.51856C11.0272 7.51788 11.0488 7.51688 11.0641 7.50621C11.0897 7.48847 11.0905 7.45017 11.0883 7.41557C11.0662 7.06848 10.9179 6.71118 10.8481 6.3586C10.8022 6.12691 10.7902 5.89709 10.7305 5.66516C10.647 5.34032 10.4738 5.02468 10.3028 4.71437C10.2834 4.6792 10.2635 4.64336 10.2353 4.61322C10.1932 4.56826 10.1365 4.5404 10.0811 4.52056C9.90446 4.45729 9.72773 4.4618 9.55405 4.45793C9.37591 4.45393 9.19557 4.44016 9.01412 4.41672C8.88821 4.40046 8.69819 4.3321 8.59047 4.38262C8.49989 4.4251 8.48451 4.55689 8.4608 4.64791C8.41829 4.81106 8.38 4.97613 8.34593 5.14298C8.30795 5.32889 8.27525 5.517 8.24785 5.70704Z" fill="#FFFCC5"/>
<path d="M8.67676 8.19855H10.8475" stroke="#D0D7F7" stroke-width="0.236001" stroke-linecap="round" stroke-linejoin="round"/>
<path d="M8.03418 8.71747H11.598" stroke="#D0D7F7" stroke-width="0.236001" stroke-linecap="round" stroke-linejoin="round"/>
<path d="M8.2666 9.9436H9.35195" stroke="#D0D7F7" stroke-width="0.236001" stroke-linecap="round" stroke-linejoin="round"/>
<path d="M11.5919 10.2473H10.8426C10.6773 10.2473 10.5263 10.1113 10.5054 9.94358C10.4844 9.77583 10.6015 9.63983 10.7668 9.63983H11.5162C11.6815 9.63983 11.8325 9.77583 11.8534 9.94358C11.8743 10.1113 11.7573 10.2473 11.5919 10.2473Z" fill="#FF5963"/>
<path d="M10.9446 4.13271C11.119 4.01905 11.1968 3.92598 11.1417 3.80315C11.1089 3.72992 10.9613 3.65806 10.9043 3.80938" stroke="#FF5963" stroke-width="0.0472001" stroke-linecap="round" stroke-linejoin="round"/>
<path d="M10.944 4.13271C10.7413 4.01905 10.6403 3.92598 10.6647 3.80315C10.6793 3.72992 10.809 3.65806 10.9037 3.80938" stroke="#FF5963" stroke-width="0.0472001" stroke-linecap="round" stroke-linejoin="round"/>
<path d="M10.9062 9.76184L10.9323 9.76197C10.9564 9.76209 10.9796 9.77785 10.99 9.80105L11.0795 10.0021C11.0898 10.0253 11.113 10.041 11.1371 10.0412L11.2933 10.0419C11.3156 10.0421 11.3341 10.0288 11.3404 10.0081L11.3871 9.85719L11.0143 9.85562" stroke="white" stroke-width="0.0472001" stroke-miterlimit="10" stroke-linecap="round" stroke-linejoin="round"/>
<path d="M11.176 10.1405C11.1777 10.1542 11.1679 10.1653 11.1541 10.1653C11.1403 10.1652 11.1278 10.154 11.1262 10.1403C11.1245 10.1265 11.1343 10.1154 11.148 10.1155C11.1618 10.1155 11.1743 10.1267 11.176 10.1405Z" fill="white" stroke="white" stroke-width="0.0472001" stroke-miterlimit="10" stroke-linecap="round" stroke-linejoin="round"/>
<path d="M11.3225 10.1413C11.3241 10.155 11.3143 10.1661 11.3006 10.1661C11.2868 10.166 11.2743 10.1548 11.2726 10.141C11.271 10.1273 11.2808 10.1162 11.2945 10.1163C11.3083 10.1163 11.3208 10.1275 11.3225 10.1413Z" fill="white" stroke="white" stroke-width="0.0472001" stroke-miterlimit="10" stroke-linecap="round" stroke-linejoin="round"/>
<path d="M9.88281 7.30841C10.2154 7.38946 10.5338 7.41119 10.8355 7.36396" stroke="#6C74D8" stroke-width="0.0708002" stroke-linecap="round" stroke-linejoin="round"/>
<path d="M8.5957 7.36072C8.9377 7.41608 9.26255 7.40467 9.5671 7.31409" stroke="#6C74D8" stroke-width="0.0708002" stroke-linecap="round" stroke-linejoin="round"/>
<path d="M9.60821 6.04481L9.88889 7.48383C10.314 7.58742 10.7157 7.5941 11.0892 7.48383C11.0592 7.25236 10.7903 5.77963 10.7208 5.55195C10.4725 4.73936 10.2001 4.32867 10.2001 4.32867H8.48866C8.48866 4.32867 8.33849 4.90135 8.27766 5.48774C8.25303 5.72522 8.27336 6.19488 8.3013 6.43865L8.36897 7.47222C8.796 7.57538 9.19851 7.58292 9.5707 7.47222L9.50996 6.04481C9.50258 5.9857 9.60085 5.9857 9.60821 6.04481Z" stroke="#6C74D8" stroke-width="0.0708002" stroke-linecap="round" stroke-linejoin="round"/>
<path d="M9.49948 4.32867C9.49948 4.32867 9.73194 5.6543 9.55133 5.74121H9.50284L9.35352 4.54389" stroke="#6C74D8" stroke-width="0.0708002" stroke-linecap="round" stroke-linejoin="round"/>
<path d="M9.89453 4.67914C10.1163 5.39091 10.5388 5.26622 10.5388 5.26622" stroke="#6C74D8" stroke-width="0.0708002" stroke-linecap="round" stroke-linejoin="round"/>
<path d="M8.8404 4.80896C8.75105 5.38326 8.38184 5.25366 8.38184 5.25366" stroke="#6C74D8" stroke-width="0.0708002" stroke-linecap="round" stroke-linejoin="round"/>
<path d="M8.88123 4.54376C8.88238 4.59531 8.87974 4.64133 8.87402 4.68238" stroke="#6C74D8" stroke-width="0.0708002" stroke-linecap="round" stroke-linejoin="round"/>
<path d="M10.2538 4.49994C9.78859 4.55877 9.07935 4.55632 8.5791 4.49994" stroke="#6C74D8" stroke-width="0.0708002" stroke-linecap="round" stroke-linejoin="round"/>
<path d="M11.332 1.96215L10.7539 1.95929" stroke="white" stroke-width="0.0472001" stroke-miterlimit="10" stroke-linecap="round" stroke-linejoin="round"/>
<path d="M11.2922 2.08785L10.8047 2.08545" stroke="white" stroke-width="0.0472001" stroke-miterlimit="10" stroke-linecap="round" stroke-linejoin="round"/>
<path d="M10.6838 1.83284L11.3707 1.83628L11.2736 2.15075C11.2604 2.19374 11.2218 2.2214 11.1755 2.22117L10.8501 2.21953C10.7999 2.21928 10.7516 2.18647 10.73 2.13813L10.5435 1.71937C10.522 1.67103 10.4736 1.63822 10.4235 1.63797L10.3691 1.6377" stroke="white" stroke-width="0.0472001" stroke-miterlimit="10" stroke-linecap="round" stroke-linejoin="round"/>
<path d="M10.9526 2.35867C10.9563 2.38958 10.9346 2.41451 10.9041 2.41435C10.8736 2.4142 10.8459 2.38901 10.8422 2.35811C10.8385 2.3272 10.8602 2.30227 10.8907 2.30243C10.9212 2.30258 10.9489 2.32775 10.9526 2.35867Z" stroke="white" stroke-width="0.0472001" stroke-miterlimit="10" stroke-linecap="round" stroke-linejoin="round"/>
<path d="M11.2182 2.36001C11.2219 2.39092 11.2002 2.41585 11.1697 2.41569C11.1393 2.41555 11.1115 2.39035 11.1078 2.35946C11.1041 2.32855 11.1258 2.30361 11.1563 2.30377C11.1868 2.30392 11.2145 2.3291 11.2182 2.36001Z" stroke="white" stroke-width="0.0472001" stroke-miterlimit="10" stroke-linecap="round" stroke-linejoin="round"/>
<path d="M11.611 1.79972C11.591 1.90688 11.4858 1.96636 11.376 1.93258C11.2662 1.89879 11.1933 1.78452 11.2132 1.67736C11.2332 1.5702 11.3384 1.51072 11.4482 1.5445C11.558 1.57829 11.6309 1.69254 11.611 1.79972Z" fill="#FF5963"/>
<path d="M7.90182 2.05502C7.84289 2.16573 7.69922 2.19564 7.58091 2.12184C7.46261 2.04804 7.41447 1.89848 7.4734 1.78778C7.53233 1.67708 7.676 1.64717 7.79431 1.72096C7.91261 1.79477 7.96075 1.94434 7.90182 2.05502Z" stroke="white" stroke-width="0.0472001" stroke-miterlimit="10" stroke-linecap="round" stroke-linejoin="round"/>
<path d="M7.91912 2.00885L8.22329 2.20458C8.24839 2.22024 8.25861 2.25198 8.24611 2.27546C8.23361 2.29894 8.20312 2.3053 8.17802 2.28964L7.87305 2.09514" stroke="white" stroke-width="0.0472001" stroke-miterlimit="10" stroke-linecap="round" stroke-linejoin="round"/>
<path d="M5.08789 1.74274H5.63288" stroke="white" stroke-width="0.0708002" stroke-linejoin="round"/>
<path d="M5.11719 1.97668H5.66216" stroke="white" stroke-width="0.0708002" stroke-linejoin="round"/>
<path d="M5.14551 2.21057H5.69048" stroke="white" stroke-width="0.0708002" stroke-linejoin="round"/>
<path d="M9.61473 2.21655C9.72968 2.09229 9.71022 1.88427 9.57125 1.75191C9.43227 1.61955 9.22642 1.61298 9.11147 1.73724C8.99651 1.86149 9.01598 2.06952 9.15495 2.20188C9.29392 2.33423 9.49977 2.3408 9.61473 2.21655Z" stroke="white" stroke-width="0.0472001" stroke-miterlimit="10" stroke-linecap="round" stroke-linejoin="round"/>
<path d="M9.45476 1.90983C9.46171 1.9656 9.42279 2.01082 9.36782 2.01082C9.31286 2.01082 9.26265 1.9656 9.25569 1.90983C9.24873 1.85406 9.28765 1.80884 9.34264 1.80884C9.39759 1.80884 9.44779 1.85406 9.45476 1.90983Z" stroke="white" stroke-width="0.0413615" stroke-miterlimit="10" stroke-linecap="round" stroke-linejoin="round"/>
<path d="M9.22883 2.1843C9.21766 2.09475 9.28015 2.02216 9.36842 2.02216C9.45667 2.02216 9.53728 2.09475 9.54844 2.1843" stroke="white" stroke-width="0.0413615" stroke-miterlimit="10" stroke-linecap="round" stroke-linejoin="round"/>
<path d="M13.9213 0.272766H17.0027C17.2237 0.272766 17.4257 0.454621 17.4536 0.67894L17.5877 1.75409C17.6157 1.97841 17.4591 2.16025 17.2381 2.16026H14.7829C14.6748 2.3141 14.4848 2.4333 14.3216 2.5107C14.2541 2.54273 14.1709 2.47221 14.1879 2.39751C14.2053 2.32143 14.2099 2.23648 14.209 2.16026H14.1567C13.9356 2.16026 13.7337 1.97841 13.7057 1.75409L13.5716 0.67894C13.5436 0.454607 13.7002 0.272766 13.9213 0.272766Z" fill="#5ED363"/>
<path d="M15.7684 1.62628H14.5188C14.4721 1.62628 14.4294 1.58786 14.4235 1.54049C14.4176 1.49313 14.4507 1.45471 14.4974 1.45471H15.747C15.7937 1.45471 15.8364 1.49313 15.8423 1.54049C15.8482 1.58786 15.8151 1.62628 15.7684 1.62628Z" fill="white"/>
<path d="M14.4494 1.07588H16.8468C16.8935 1.07588 16.9265 1.03746 16.9206 0.99008C16.9147 0.942711 16.8721 0.904297 16.8254 0.904297H14.428C14.3813 0.904297 14.3483 0.942711 14.3542 0.99008C14.3601 1.03746 14.4028 1.07588 14.4494 1.07588Z" fill="white"/>
<path d="M24.3789 11.9681C24.7022 10.3689 25.7349 9.21715 26.6322 10.9448C28.6301 8.73679 30.8212 8.89316 29.6294 12.3886C28.7039 15.103 25.3473 15.9039 25.3473 15.9039" stroke="#6C74D8" stroke-width="0.0708002" stroke-miterlimit="10" stroke-linecap="round" stroke-linejoin="round"/>
<path d="M25.9617 11.114C25.9617 11.114 25.7917 14.589 25.2129 15.4122C27.3788 14.4807 28.7044 11.4856 28.7044 11.4856" stroke="#6C74D8" stroke-width="0.0708002" stroke-miterlimit="10" stroke-linecap="round" stroke-linejoin="round"/>
<path d="M26.6316 10.9448C26.6316 10.9448 27.1617 12.0927 26.5498 13.4765" stroke="#6C74D8" stroke-width="0.0708002" stroke-miterlimit="10" stroke-linecap="round" stroke-linejoin="round"/>
<path d="M27.921 10.5404C28.418 11.7439 27.2578 13.7739 27.2578 13.7739" stroke="#6C74D8" stroke-width="0.0708002" stroke-miterlimit="10" stroke-linecap="round" stroke-linejoin="round"/>
<path d="M25.2129 12.7663C25.5402 13.0361 25.6346 14.0954 25.6346 14.0954" stroke="#6C74D8" stroke-width="0.0708002" stroke-miterlimit="10" stroke-linecap="round" stroke-linejoin="round"/>
<path d="M28.192 14.4359C29.6894 14.3875 29.9996 15.1742 29.9996 15.1742C29.9996 15.1742 27.9486 15.904 26.958 15.904" stroke="#6C74D8" stroke-width="0.0708002" stroke-miterlimit="10" stroke-linecap="round" stroke-linejoin="round"/>
<path d="M26.958 15.5204C29.3324 14.3784 29.9996 15.1742 29.9996 15.1742" stroke="#6C74D8" stroke-width="0.0708002" stroke-miterlimit="10" stroke-linecap="round" stroke-linejoin="round"/>
<path d="M0.90918 15.9038H2.83779C2.83779 15.9038 1.97662 13.7345 2.3553 14.1187C2.77979 14.5494 2.85759 15.0395 2.98679 15.5879C3.01341 15.7009 3.05802 14.6411 3.4495 14.6411C3.62303 14.6411 3.11731 15.9037 3.11731 15.9037H3.53894C3.53894 15.9037 3.60593 15.5892 3.93693 15.537C4.26794 15.4848 3.62957 15.9037 3.62957 15.9037H4.13395L29.457 15.9029" stroke="white" stroke-width="0.0708002" stroke-miterlimit="10" stroke-linecap="round" stroke-linejoin="round"/>
<path d="M20.9245 4.03873C20.1338 3.98849 19.9744 3.81615 19.7277 3.55011C19.4326 3.23193 19.2539 2.14677 19.1392 1.96491C18.9469 1.65974 18.1313 1.73311 18.1682 1.92948C18.1754 1.96781 18.2841 1.97247 18.4124 1.99085C18.4877 2.00164 18.2112 2.30736 18.422 2.5093C18.6464 2.8251 18.6003 3.73332 19.0997 4.33652C19.8361 5.22598 20.8213 5.14124 20.8213 5.14124C20.8213 5.14124 21.2799 4.06131 20.9245 4.03873Z" fill="#FDB78F"/>
<path d="M20.9249 4.03885C20.1342 3.98861 19.9748 3.81627 19.7281 3.55023C19.433 3.23205 19.2543 2.1469 19.1396 1.96503" stroke="#E58863" stroke-width="0.0472001" stroke-miterlimit="10" stroke-linecap="round" stroke-linejoin="round"/>
<path d="M18.6338 1.97801L18.4124 1.99085C18.2829 1.98817 18.1754 1.96781 18.1682 1.92948C18.1313 1.73311 18.9469 1.65974 19.1392 1.96491" stroke="#E58863" stroke-width="0.0472001" stroke-miterlimit="10" stroke-linecap="round" stroke-linejoin="round"/>
<path d="M22.0031 4.08891C21.6311 3.96783 20.7644 3.9885 20.2952 3.86932C19.8302 3.86916 19.71 5.0777 19.7295 5.09924C19.9003 5.28736 20.6377 5.34486 20.7155 5.77791C21.3208 5.29936 22.0031 4.08891 22.0031 4.08891Z" fill="#FF5963"/>
<path d="M18.75 14.8398C18.6281 14.4192 19.3834 13.7851 19.7329 12.9088C19.6659 12.7449 18.2635 13.187 18.2042 13.3449C18.1398 13.4679 17.9078 14.3593 17.0917 14.1621C17.0917 14.1621 16.5013 14.2938 17.1044 14.5992C17.4476 14.7731 18.75 14.8398 18.75 14.8398Z" fill="#FDB78F"/>
<path d="M16.5885 14.7968C16.5885 14.7968 16.8752 14.9567 17.4549 15.1084C17.8307 15.2067 18.356 15.5528 18.6787 15.4815C18.8212 15.45 18.8517 14.9644 18.7868 14.783C18.7412 14.4522 17.7961 14.6557 17.6688 14.3852C17.5989 14.2365 17.9813 14.0509 17.8223 13.9353C17.8009 13.9258 17.6166 14.0051 17.3522 14.0399C16.9759 14.0894 16.1362 14.115 16.0937 14.2121C16.0318 14.3534 16.1967 14.6503 16.5885 14.7968Z" fill="white" stroke="#5C63C6" stroke-width="0.0708002" stroke-miterlimit="10" stroke-linecap="round" stroke-linejoin="round"/>
<path d="M17.3164 13.9758L17.3696 14.272" stroke="#5C63C6" stroke-width="0.0708002" stroke-miterlimit="10" stroke-linecap="round" stroke-linejoin="round"/>
<path d="M17.1045 14.0038L17.1534 14.2509" stroke="#5C63C6" stroke-width="0.0708002" stroke-miterlimit="10" stroke-linecap="round" stroke-linejoin="round"/>
<path d="M16.8936 14.0411L16.937 14.2363" stroke="#5C63C6" stroke-width="0.0708002" stroke-miterlimit="10" stroke-linecap="round" stroke-linejoin="round"/>
<path d="M16.7021 14.071L16.7237 14.2065" stroke="#5C63C6" stroke-width="0.0708002" stroke-miterlimit="10" stroke-linecap="round" stroke-linejoin="round"/>
<path d="M16.166 14.2603C16.2623 14.661 17.2311 14.978 17.9783 14.9872C18.6181 14.995 18.7093 15.2817 18.7093 15.2817" stroke="#5C63C6" stroke-width="0.0708002" stroke-miterlimit="10" stroke-linecap="round" stroke-linejoin="round"/>
<path d="M24.4898 14.9738C24.1804 14.4972 23.9127 13.5837 23.8609 12.6398C23.7315 12.5206 22.7871 13.4857 22.8313 13.6486C22.8511 13.7865 23.7247 15.4008 22.9518 15.7317C22.8094 15.8958 22.3131 16.2338 23.2168 16.0765C23.5949 16.0107 24.4898 14.9738 24.4898 14.9738Z" fill="#FDB78F"/>
<path d="M18.0293 13.5942C18.3125 12.7975 19.2144 11.0044 19.525 10.0938C20.1418 8.28521 21.1028 6.48848 21.1669 6.4245C23.1724 6.74994 23.2462 7.64228 23.2462 7.64228C23.1017 7.91359 21.6278 9.95504 20.9809 10.8743C20.5008 11.7592 19.7973 13.7178 19.5146 14.1274C19.1166 14.2916 18.1135 13.7736 18.0293 13.5942Z" fill="white"/>
<path d="M20.9346 6.84349C21.156 8.37995 21.7041 10.4588 21.8186 11.0043C22.0678 12.1919 23.0975 14.72 23.0975 14.72C23.0975 14.72 24.0316 14.5897 24.5104 14.182C23.9226 11.6532 23.5285 11.6187 23.5174 11.3024C23.4419 9.13233 23.6378 8.34397 22.784 7.02664C22.6466 6.81457 20.9346 6.84349 20.9346 6.84349Z" fill="white"/>
<path d="M22.6709 8.99841C22.9924 9.95644 22.6918 10.9234 23.0614 11.8046C23.2459 12.2443 23.6694 12.8864 23.9525 14.1591" stroke="#5C63C6" stroke-width="0.0708002" stroke-linecap="round" stroke-linejoin="round" stroke-dasharray="0.26 0.26"/>
<path d="M20.9346 6.84351C21.156 8.37996 21.7041 10.4588 21.8186 11.0043C21.8694 11.2463 21.9745 11.4968 22.1174 11.6187" stroke="#5C63C6" stroke-width="0.0708002" stroke-miterlimit="10" stroke-linecap="round" stroke-linejoin="round"/>
<path d="M22.0488 6.69739C22.0883 7.37846 22.6648 7.51465 22.9017 7.50664" stroke="#5C63C6" stroke-width="0.0708002" stroke-miterlimit="10" stroke-linecap="round" stroke-linejoin="round"/>
<path d="M21.6633 4.63827C21.584 4.54965 21.2524 4.47782 20.9954 4.67343C20.757 4.85484 20.5468 5.15722 20.3975 5.41335C20.5545 5.49765 20.684 5.60878 20.7148 5.7762C20.7151 5.77662 20.7153 5.77703 20.7156 5.77745C21.051 5.5121 21.4099 5.02231 21.6633 4.63827Z" fill="#2E2E2E"/>
<path d="M20.4654 6.96736C20.5982 6.30229 20.5174 5.53516 20.9622 4.75273C21.3681 4.03876 22.0167 4.15285 22.3179 4.17789C22.6782 4.20783 23.7707 4.24954 24.9007 5.52915C24.7526 5.80784 24.3554 6.09121 23.9852 6.38942C23.9818 6.36389 23.3713 5.83377 23.3713 5.83377C23.3713 5.83377 23.6613 8.92769 23.7763 9.16981C23.8725 9.37255 23.7734 9.39982 23.6667 9.4078C22.2861 9.51119 20.9924 8.38176 20.1802 8.41969C19.7684 8.43895 20.3326 7.63244 20.4654 6.96736Z" fill="#FF5963"/>
<path d="M23.247 5.73578C22.8727 6.04182 22.3501 6.28657 21.833 6.53916L23.8796 6.00957L23.247 5.73578Z" fill="#2E2E2E"/>
<path d="M23.0127 9.76988L27.3648 8.0903C27.587 8.00911 27.6951 7.77443 27.606 7.56535L26.6234 5.23383C26.5341 5.01952 26.2809 4.90412 26.0581 4.97687L21.6958 6.49082C21.4736 6.57252 21.3666 6.82401 21.4568 7.05172L22.4486 9.53091C22.5384 9.7534 22.791 9.86005 23.0127 9.76988Z" fill="#15B1FF"/>
<path d="M22.2888 9.11873L22.4497 9.52228C22.4753 9.58963 22.5185 9.64923 22.5724 9.69598L22.5773 9.70049L22.5827 9.7045L22.5934 9.71249C22.6007 9.71765 22.6074 9.7236 22.6151 9.72808C22.6305 9.73711 22.6452 9.74728 22.6616 9.75432C22.6697 9.75808 22.6775 9.7623 22.6858 9.76567L22.7108 9.7749C22.715 9.77638 22.7191 9.77812 22.7233 9.77938L22.7362 9.78278L22.762 9.78955C22.8316 9.80354 22.9045 9.80114 22.9728 9.78108C22.9896 9.77506 23.0065 9.76976 23.0232 9.76317L23.0734 9.74388L23.1737 9.70531C23.1737 9.70531 23.5942 9.54569 23.5932 9.54612L23.4779 9.59841L23.379 9.64079L23.1813 9.72541L23.0822 9.76683L23.0326 9.78748C23.0245 9.79096 23.0157 9.7943 23.0069 9.79759L22.9805 9.80752C22.9085 9.83083 22.8304 9.83459 22.7555 9.82105C22.681 9.80578 22.6089 9.7733 22.5497 9.72338C22.5354 9.71046 22.5204 9.69817 22.5077 9.68337C22.5013 9.67615 22.4943 9.66931 22.4883 9.66173L22.4707 9.63845C22.4678 9.63453 22.4648 9.63072 22.462 9.62671L22.4544 9.61424L22.4393 9.58923C22.4347 9.58062 22.4307 9.57168 22.4265 9.56289C22.4224 9.55418 22.4177 9.54492 22.4145 9.53678L22.2514 9.13415L22.0917 8.73009C22.0397 8.59491 21.9865 8.46022 21.9357 8.32454C21.9101 8.25675 21.8841 8.18917 21.859 8.12122L21.7835 7.91738L21.71 7.71276L21.6733 7.61043L21.6055 7.42145L22.2888 9.11873Z" fill="#5C63C6"/>
<path d="M27.5064 7.34864L27.4097 7.13028L27.2164 6.69207L26.8345 5.80794L26.739 5.58568L26.6447 5.36254L26.5976 5.25075C26.5957 5.24598 26.5937 5.24146 26.5916 5.23737L26.5854 5.22463C26.5812 5.2162 26.5777 5.20742 26.5723 5.19951L26.5574 5.1752C26.552 5.16738 26.546 5.15991 26.5403 5.15221C26.5165 5.12227 26.4892 5.09438 26.4573 5.07192C26.4258 5.0491 26.3915 5.02932 26.3547 5.01591C26.3182 5.00213 26.2799 4.99195 26.2412 4.98885L26.2268 4.98722L26.2123 4.98696C26.2026 4.98699 26.1929 4.98608 26.1833 4.9868L26.1546 4.98893C26.1498 4.98908 26.1451 4.98994 26.1404 4.99081L26.1263 4.99326L26.1122 4.99567C26.1075 4.99638 26.103 4.99808 26.0984 4.99921L26.071 5.00677L26.0129 5.02601L25.8966 5.06466L25.4313 5.22045L24.499 5.53231L24.0329 5.69103L23.7999 5.77098L23.5664 5.85009L25.4167 5.18487L25.8826 5.03085L25.9991 4.99264L26.0573 4.97359L26.0872 4.96544C26.0923 4.96421 26.0971 4.96243 26.1023 4.96165L26.1177 4.95905L26.1331 4.95646C26.1382 4.95554 26.1433 4.95466 26.1486 4.95448L26.18 4.95229C26.1904 4.95158 26.201 4.95252 26.2116 4.95258L26.2274 4.95297L26.2432 4.95476C26.2854 4.95839 26.327 4.96955 26.3667 4.98473C26.4067 4.99951 26.444 5.02111 26.4781 5.04606C26.5126 5.07065 26.5424 5.10104 26.5681 5.13368C26.5946 5.166 26.6131 5.20314 26.6295 5.24022L26.6762 5.35209L26.8628 5.79842L27.6172 7.59461L27.5064 7.34864Z" fill="#5C63C6"/>
<path d="M24.258 8.06171C24.2722 8.09649 24.2552 8.13551 24.2198 8.14889C24.1845 8.16229 24.1443 8.14493 24.13 8.11011C24.1158 8.07527 24.1329 8.0362 24.1682 8.02285C24.2035 8.00953 24.2437 8.02693 24.258 8.06171Z" fill="white"/>
<path d="M24.4699 7.98186C24.4842 8.01655 24.4671 8.05544 24.4317 8.06876C24.3964 8.0821 24.3562 8.06476 24.3419 8.03003C24.3277 7.99527 24.3448 7.95634 24.3801 7.94306C24.4155 7.92978 24.4557 7.94716 24.4699 7.98186Z" fill="white"/>
<path d="M25.0637 7.76096C25.0779 7.7954 25.0608 7.83396 25.0255 7.84709C24.9901 7.86024 24.9499 7.84296 24.9357 7.80846C24.9214 7.77395 24.9385 7.73536 24.9739 7.72226C25.0092 7.70918 25.0495 7.72651 25.0637 7.76096Z" fill="white"/>
<path d="M25.2746 7.68253C25.2889 7.71688 25.2718 7.75531 25.2364 7.76838C25.2011 7.78146 25.1609 7.76419 25.1466 7.72979C25.1324 7.69537 25.1495 7.6569 25.1848 7.64386C25.2202 7.63083 25.2604 7.64816 25.2746 7.68253Z" fill="white"/>
<path d="M24.7685 7.70447L24.6846 8.05504" stroke="white" stroke-width="0.0472001" stroke-linecap="round" stroke-linejoin="round"/>
<path d="M22.9199 9.24301L23.6567 8.9516" stroke="white" stroke-width="0.0472001" stroke-linecap="round" stroke-linejoin="round"/>
<path d="M23.876 8.86574L25.038 8.41956" stroke="white" stroke-width="0.0472001" stroke-linecap="round" stroke-linejoin="round"/>
<path d="M22.4894 8.25024C22.5037 8.28581 22.4867 8.32573 22.4514 8.33943C22.4161 8.35315 22.3758 8.33543 22.3615 8.2998C22.3472 8.26417 22.3642 8.22419 22.3995 8.21053C22.4349 8.19688 22.4751 8.21465 22.4894 8.25024Z" fill="white"/>
<path d="M22.7013 8.16826C22.7156 8.20374 22.6986 8.24353 22.6633 8.25717C22.628 8.27083 22.5877 8.25311 22.5734 8.21758C22.5591 8.18204 22.5761 8.14219 22.6115 8.12859C22.6468 8.115 22.687 8.13277 22.7013 8.16826Z" fill="white"/>
<path d="M22.9133 8.08694C22.9276 8.12234 22.9105 8.162 22.8752 8.17558C22.8399 8.18917 22.7996 8.17147 22.7853 8.13604C22.771 8.10058 22.7881 8.06086 22.8234 8.04732C22.8587 8.0338 22.899 8.05154 22.9133 8.08694Z" fill="white"/>
<path d="M23.1252 8.00588C23.1395 8.04119 23.1224 8.08074 23.0871 8.09425C23.0518 8.10777 23.0115 8.0901 22.9972 8.05473C22.9829 8.01936 23 7.97976 23.0353 7.96629C23.0706 7.95284 23.1109 7.97057 23.1252 8.00588Z" fill="white"/>
<path d="M23.6613 7.8027C23.6756 7.83778 23.6586 7.87702 23.6232 7.89035C23.5879 7.90371 23.5477 7.88607 23.5334 7.85094C23.5191 7.8158 23.5361 7.7765 23.5715 7.76321C23.6068 7.74992 23.6471 7.76761 23.6613 7.8027Z" fill="white"/>
<path d="M23.8733 7.72315C23.8875 7.75814 23.8705 7.79725 23.8351 7.81053C23.7998 7.82383 23.7596 7.80621 23.7453 7.77116C23.731 7.73611 23.7481 7.69694 23.7834 7.68371C23.8188 7.67049 23.859 7.68815 23.8733 7.72315Z" fill="white"/>
<path d="M24.0852 7.64387C24.0995 7.67877 24.0824 7.71776 24.047 7.73097C24.0117 7.74419 23.9715 7.72659 23.9572 7.69163C23.9429 7.65665 23.96 7.61761 23.9953 7.60445C24.0307 7.5913 24.0709 7.60895 24.0852 7.64387Z" fill="white"/>
<path d="M24.2971 7.565C24.3114 7.59981 24.2943 7.63868 24.2589 7.65182C24.2236 7.66499 24.1834 7.6474 24.1691 7.61253C24.1548 7.57765 24.1719 7.53873 24.2073 7.52563C24.2426 7.51254 24.2828 7.53017 24.2971 7.565Z" fill="white"/>
<path d="M24.8909 7.34696C24.9051 7.38153 24.888 7.42005 24.8527 7.43301C24.8173 7.44598 24.7771 7.42845 24.7628 7.39382C24.7486 7.35918 24.7657 7.32062 24.8011 7.30771C24.8364 7.29479 24.8766 7.31238 24.8909 7.34696Z" fill="white"/>
<path d="M25.1018 7.26957C25.1161 7.30405 25.099 7.34245 25.0636 7.35533C25.0282 7.36824 24.988 7.35072 24.9738 7.31618C24.9595 7.28164 24.9766 7.2432 25.012 7.23034C25.0474 7.2175 25.0876 7.23507 25.1018 7.26957Z" fill="white"/>
<path d="M24.0852 7.64374C24.0995 7.67865 24.0824 7.71764 24.047 7.73085C24.0117 7.74407 23.9715 7.72646 23.9572 7.6915C23.9429 7.65653 23.96 7.61749 23.9953 7.60433C24.0307 7.59118 24.0709 7.60883 24.0852 7.64374Z" fill="white"/>
<path d="M24.2971 7.56488C24.3114 7.59969 24.2943 7.63855 24.2589 7.6517C24.2236 7.66487 24.1834 7.64728 24.1691 7.6124C24.1548 7.57753 24.1719 7.53861 24.2073 7.5255C24.2426 7.51241 24.2828 7.53005 24.2971 7.56488Z" fill="white"/>
<path d="M24.0852 7.64374C24.0995 7.67865 24.0824 7.71764 24.047 7.73085C24.0117 7.74407 23.9715 7.72646 23.9572 7.6915C23.9429 7.65653 23.96 7.61749 23.9953 7.60433C24.0307 7.59118 24.0709 7.60883 24.0852 7.64374Z" fill="white"/>
<path d="M24.2971 7.56488C24.3114 7.59969 24.2943 7.63855 24.2589 7.6517C24.2236 7.66487 24.1834 7.64728 24.1691 7.6124C24.1548 7.57753 24.1719 7.53861 24.2073 7.5255C24.2426 7.51241 24.2828 7.53005 24.2971 7.56488Z" fill="white"/>
<path d="M25.3147 7.19258C25.329 7.22698 25.3119 7.26525 25.2765 7.27808C25.2411 7.29092 25.2009 7.27342 25.1867 7.23897C25.1724 7.2045 25.1895 7.16619 25.2249 7.1534C25.2603 7.14063 25.3005 7.15818 25.3147 7.19258Z" fill="white"/>
<path d="M25.5267 7.11616C25.5409 7.15046 25.5237 7.1886 25.4884 7.20137C25.453 7.21414 25.4128 7.19667 25.3986 7.16231C25.3843 7.12794 25.4015 7.08974 25.4368 7.07702C25.4722 7.0643 25.5124 7.08185 25.5267 7.11616Z" fill="white"/>
<path d="M26.1419 6.89586C26.1561 6.92992 26.139 6.96769 26.1036 6.98026C26.0682 6.99284 26.028 6.97542 26.0138 6.94131C25.9996 6.90719 26.0167 6.86936 26.0521 6.85683C26.0875 6.84431 26.1277 6.8618 26.1419 6.89586Z" fill="white"/>
<path d="M26.3539 6.82097C26.3681 6.85494 26.3509 6.89258 26.3155 6.90509C26.2801 6.9176 26.2399 6.90019 26.2257 6.86617C26.2115 6.83214 26.2286 6.79444 26.264 6.78197C26.2994 6.76952 26.3396 6.78699 26.3539 6.82097Z" fill="white"/>
<path d="M26.5668 6.74636C26.581 6.78025 26.5638 6.81778 26.5284 6.83022C26.493 6.84267 26.4528 6.82527 26.4386 6.79134C26.4244 6.75739 26.4415 6.71982 26.4769 6.70741C26.5123 6.69503 26.5525 6.71248 26.5668 6.74636Z" fill="white"/>
<path d="M26.7787 6.67214C26.7929 6.70593 26.7757 6.74334 26.7403 6.7557C26.7049 6.76808 26.6647 6.75071 26.6505 6.71687C26.6363 6.68301 26.6535 6.64556 26.6889 6.63322C26.7243 6.62091 26.7645 6.63834 26.7787 6.67214Z" fill="white"/>
<path d="M22.8401 7.49288L22.2732 7.7072C22.2019 7.73433 22.1208 7.69786 22.0919 7.62563L21.9673 7.31352C21.9384 7.24106 21.9727 7.16067 22.044 7.13401L22.6111 6.92343C22.6824 6.89718 22.7636 6.93413 22.7925 7.00589L22.8295 7.09806L22.9169 7.31503C22.9457 7.38657 22.9114 7.46615 22.8401 7.49288Z" stroke="white" stroke-width="0.0472001" stroke-linecap="round" stroke-linejoin="round"/>
<path d="M22.0879 7.11812L22.1091 7.17136C22.1309 7.22573 22.1919 7.2535 22.2455 7.23343L22.8015 7.02667" stroke="white" stroke-width="0.0472001" stroke-linecap="round" stroke-linejoin="round"/>
<path d="M22.8544 7.16058L22.0293 7.4697" stroke="white" stroke-width="0.0472001" stroke-linecap="round" stroke-linejoin="round"/>
<path d="M22.7973 7.50927L22.7761 7.45655C22.7544 7.40268 22.6934 7.37523 22.6398 7.39531L22.084 7.60511" stroke="white" stroke-width="0.0472001" stroke-linecap="round" stroke-linejoin="round"/>
<path d="M22.3877 7.17981L22.4957 7.44916" stroke="white" stroke-width="0.0472001" stroke-linecap="round" stroke-linejoin="round"/>
<path d="M22.983 4.51762C23.3351 4.36764 24.7822 4.91495 25.2653 6.45105C25.5349 7.308 25.2972 8.1637 25.1717 8.42741C24.9963 8.79598 24.7795 9.08804 24.5775 9.05703C24.2999 9.0144 24.5598 8.706 24.5176 8.46055C24.496 8.33518 24.3708 8.63476 24.2244 8.50122C24.1965 8.47572 24.4484 8.11748 24.4977 7.97579C24.5922 7.7037 24.6469 7.29346 24.5047 6.79162C24.3519 6.25263 23.7831 5.92361 23.165 5.56196C22.7259 5.30505 22.983 4.51762 22.983 4.51762Z" fill="#FDB78F"/>
<path d="M22.2992 4.20958C22.6594 4.23952 23.7704 4.24943 24.9005 5.52905C24.7523 5.80773 24.3551 6.0911 23.985 6.38931C23.9816 6.36379 22.7705 5.50661 22.7705 5.50661C22.7705 5.50661 21.998 4.18456 22.2992 4.20958Z" fill="#FF5963"/>
<path d="M24.6895 8.93723C24.8699 8.66745 24.8842 8.54974 24.8842 8.54974" stroke="#E58863" stroke-width="0.0472001" stroke-miterlimit="10" stroke-linecap="round" stroke-linejoin="round"/>
<path d="M24.5264 8.93619C24.7178 8.67433 24.7557 8.48047 24.7557 8.48047" stroke="#E58863" stroke-width="0.0472001" stroke-miterlimit="10" stroke-linecap="round" stroke-linejoin="round"/>
<path d="M24.9463 8.70918C24.9895 8.63871 25.0219 8.57786 25.0461 8.52673" stroke="#E58863" stroke-width="0.0472001" stroke-miterlimit="10" stroke-linecap="round" stroke-linejoin="round"/>
<path d="M24.6777 5.50671C24.4547 5.85122 23.8594 6.26998 23.8594 6.26998" stroke="white" stroke-width="0.0472001" stroke-miterlimit="10" stroke-linecap="round"/>
<path d="M20.3704 3.93414C19.9967 3.99346 19.834 4.87893 19.834 5.07853" stroke="white" stroke-width="0.0472001" stroke-miterlimit="10" stroke-linecap="round"/>
<path d="M22.7448 3.59814C22.7451 3.68924 22.7036 3.93983 22.6685 4.03614C22.6611 4.05659 22.6448 4.17538 22.6552 4.29198C22.6554 4.29388 22.6566 4.29624 22.6584 4.29663C22.7804 4.32372 22.7055 4.57969 22.4028 4.64469C21.796 4.77506 21.6215 4.42936 21.7591 4.28973C21.9539 4.12268 21.948 4.03179 22.0896 3.7332L22.7448 3.59814Z" fill="#FDB78F"/>
<path d="M21.9932 3.9513C22.0914 3.93935 22.2409 3.91687 22.3481 3.78381L22.076 3.76147C22.041 3.83688 22.0155 3.89836 21.9932 3.9513Z" fill="#2E2E2E"/>
<path d="M22.2599 2.63702C22.2166 2.628 22.0218 2.78721 22.0557 3.02519C22.0906 3.26987 22.3461 2.94972 22.3628 2.8608C22.3796 2.77189 22.2599 2.63702 22.2599 2.63702Z" fill="#2E2E2E"/>
<path d="M22.6203 3.75062C22.3651 3.87865 21.9214 3.82722 21.8464 3.71462C21.8112 3.64012 21.8142 3.39349 21.899 3.20394C21.9764 3.03098 22.095 2.86007 22.2386 2.78243C22.4898 2.64659 22.7276 2.79111 22.8538 3.05002C22.98 3.30892 22.8754 3.62259 22.6203 3.75062Z" fill="#FDB78F"/>
<path d="M22.253 2.53073C22.0301 2.91229 22.7993 3.08817 22.5199 3.5399C22.519 3.57449 22.5267 3.58211 22.543 3.59234C22.543 3.59234 22.7267 3.4589 22.7445 3.59808C22.7537 3.67067 22.6892 3.70339 22.6631 3.79156C22.6398 3.87024 22.6516 3.96151 22.6682 4.03607C22.7619 3.81702 22.9589 3.68573 23.0599 3.51511C23.2282 3.23068 23.0857 2.78878 22.7466 2.69884C22.4406 2.61769 22.4058 2.26919 22.253 2.53073Z" fill="#362E8B"/>
<path d="M22.2922 3.273C22.2963 3.26383 22.2415 3.23203 22.2277 3.23196C22.2253 3.23057 22.2007 3.2819 22.2058 3.30345C22.2108 3.32486 22.2431 3.32989 22.2591 3.31952C22.2741 3.3097 22.255 3.28331 22.2922 3.273Z" fill="#010101"/>
<path d="M22.0551 3.0949C22.0589 3.08725 22.0134 3.05852 22.0017 3.05801C21.9997 3.05675 21.9772 3.09947 21.9809 3.11792C21.9845 3.13623 22.0117 3.14154 22.0256 3.13326C22.0386 3.12545 22.0232 3.10243 22.0551 3.0949Z" fill="#010101"/>
<path d="M21.9243 3.46039C21.9121 3.53684 21.9359 3.59049 21.9487 3.5956C22.0973 3.65535 22.0727 3.54698 22.156 3.51883C22.0562 3.5427 21.9243 3.46039 21.9243 3.46039Z" fill="#010101"/>
<path d="M21.9344 3.46021C21.9344 3.46021 21.9299 3.49326 21.9351 3.50763C21.9404 3.522 22.0386 3.57323 22.0863 3.53822C22.1313 3.51438 22.0096 3.50802 22.0096 3.50802L21.9344 3.46021Z" fill="white"/>
<path d="M22.1732 3.49847C22.1612 3.49252 22.1382 3.51265 22.1259 3.5141C22.1001 3.51712 22.0641 3.51359 22.0389 3.50536C21.9979 3.49198 21.963 3.46565 21.9355 3.4338C21.928 3.42508 21.9071 3.446 21.9225 3.46562C21.9524 3.50385 22.0298 3.54302 22.078 3.5407C22.1022 3.53952 22.121 3.52623 22.1446 3.52598C22.1516 3.52591 22.15 3.58638 22.1673 3.56242C22.1745 3.55254 22.1898 3.50669 22.1732 3.49847Z" fill="#E58863"/>
<path d="M21.9561 3.6554C21.9803 3.6554 22.0033 3.6677 22.0033 3.6677" stroke="#E58863" stroke-width="0.0472001" stroke-miterlimit="10" stroke-linecap="round" stroke-linejoin="round"/>
<path d="M22.4099 3.23282C22.3304 3.15849 22.235 3.09629 22.1798 3.12459C22.1178 3.15638 22.0698 3.25421 21.9523 3.27524C21.9042 3.28386 21.9181 3.35828 21.9489 3.39887" stroke="#E58863" stroke-width="0.0472001" stroke-miterlimit="10" stroke-linecap="round" stroke-linejoin="round"/>
<path d="M22.1456 3.02435C22.0801 2.96744 22.0206 2.97926 22.0176 2.97754" stroke="#E58863" stroke-width="0.0472001" stroke-miterlimit="10" stroke-linecap="round" stroke-linejoin="round"/>
<path d="M22.7441 4.28534C22.7441 4.28534 22.9277 4.45495 22.5983 4.63866C21.9928 4.97631 21.3287 4.48212 21.779 4.21655" stroke="white" stroke-width="0.0472001" stroke-miterlimit="10" stroke-linecap="round"/>
<path d="M18.0586 13.3634C18.4817 13.851 19.054 13.9025 19.4071 13.9343" stroke="#5C63C6" stroke-width="0.0708002" stroke-miterlimit="10" stroke-linecap="round" stroke-linejoin="round"/>
<path d="M23.5469 14.4182C23.9844 14.3063 24.2822 14.1278 24.4021 14.0038" stroke="#5C63C6" stroke-width="0.0708002" stroke-miterlimit="10" stroke-linecap="round" stroke-linejoin="round"/>
<path d="M23.1172 14.4968C23.2332 14.4834 23.2847 14.4768 23.3874 14.4545" stroke="#5C63C6" stroke-width="0.0708002" stroke-miterlimit="10" stroke-linecap="round" stroke-linejoin="round"/>
<path d="M21.4681 9.51489C21.1264 10.0332 20.4861 10.8156 20.3758 11.1234C20.2654 11.4312 19.1338 13.8145 19.1338 13.8145" stroke="#5C63C6" stroke-width="0.0708002" stroke-linecap="round" stroke-linejoin="round" stroke-dasharray="0.26 0.26"/>
<path d="M23.4869 15.5058C23.4532 15.1714 23.3103 15.1171 23.1994 15.1053C23.0885 15.0936 22.9354 15.7967 22.5789 16.0932C22.533 16.1314 22.3688 16.2076 22.2879 16.2774C22.2071 16.3473 22.3954 16.6414 22.8057 16.6359C23.216 16.6304 23.6587 16.4085 24.2066 16.0841C24.5765 15.865 24.9807 15.7128 24.9448 15.4124C24.9123 15.1402 24.4891 14.7997 24.4891 14.7997C24.3734 14.7238 24.3286 14.7639 24.1024 15.2598C23.8748 15.7583 23.4869 15.5058 23.4869 15.5058Z" fill="white" stroke="#5C63C6" stroke-width="0.0708002" stroke-miterlimit="10" stroke-linecap="round" stroke-linejoin="round"/>
<path d="M22.2881 16.2775C22.569 16.2007 22.4025 16.6667 23.0499 16.4803C24.2615 16.1313 24.2287 15.1617 24.7896 15.2609" stroke="#5C63C6" stroke-width="0.0708002" stroke-miterlimit="10" stroke-linecap="round" stroke-linejoin="round"/>
<path d="M22.5635 16.0798C22.7585 16.0952 22.8224 16.186 22.8224 16.186" stroke="#5C63C6" stroke-width="0.0708002" stroke-miterlimit="10" stroke-linecap="round" stroke-linejoin="round"/>
<path d="M22.6738 15.9365C22.8314 15.9365 22.9889 16.0491 22.9889 16.0491" stroke="#5C63C6" stroke-width="0.0708002" stroke-miterlimit="10" stroke-linecap="round" stroke-linejoin="round"/>
<path d="M22.8584 15.6515C23.0559 15.5967 23.3131 15.8031 23.3131 15.8031" stroke="#5C63C6" stroke-width="0.0708002" stroke-miterlimit="10" stroke-linecap="round" stroke-linejoin="round"/>
<path d="M22.7646 15.7896C22.944 15.7574 23.1424 15.9161 23.1424 15.9161" stroke="#5C63C6" stroke-width="0.0708002" stroke-miterlimit="10" stroke-linecap="round" stroke-linejoin="round"/>
<path d="M18.9516 1.94086C18.8832 1.97557 18.6455 2.10717 18.5842 2.15296C18.5158 2.20397 18.6302 2.30603 18.8521 2.21504C18.7356 2.31343 18.6365 2.44331 18.7016 2.59341" stroke="#E58863" stroke-width="0.0472001" stroke-miterlimit="10" stroke-linecap="round" stroke-linejoin="round"/>
<path d="M20.3193 13.2627H21.0676" stroke="white" stroke-width="0.0708002" stroke-miterlimit="10" stroke-linecap="round" stroke-linejoin="round"/>
<path d="M20.5537 13.0001H20.861" stroke="white" stroke-width="0.0708002" stroke-miterlimit="10" stroke-linecap="round" stroke-linejoin="round"/>
</svg>
