<svg width="55" height="51" viewBox="0 0 55 51" fill="none" xmlns="http://www.w3.org/2000/svg">
<path d="M12.7916 35.4487C11.3087 32.6129 10.5249 29.3697 10.5249 26.0697C10.5249 21.7443 11.8716 17.5665 14.3269 14.233L14.9426 13.5492C16.0416 12.3289 16.6469 10.7061 16.6469 8.97998C16.6469 7.25393 16.0417 5.63132 14.9426 4.41075L11.7741 0.891846L8.60545 4.41075C7.50652 5.6312 6.9012 7.25393 6.9012 8.97998C6.9012 10.7061 7.50642 12.3288 8.60535 13.5492L9.93728 15.0284C9.4977 15.884 9.11077 16.77 8.77787 17.68C7.7001 16.5109 6.21251 15.7867 4.57217 15.7867H-0.000366211V21.4784C-0.000366211 25.0415 2.66994 27.9402 5.95234 27.9402H7.37558C7.45668 29.0126 7.60525 30.0753 7.8232 31.1189H5.81817C2.60978 31.1189 -0.000366211 34.0176 -0.000366211 37.5807V42.5574H5.12454C7.63608 42.5574 9.78076 40.7808 10.5941 38.2999C12.263 41.1166 14.4964 43.4961 17.1095 45.2254L18.7591 42.1509C16.2953 40.5202 14.2317 38.2026 12.7916 35.4487Z" fill="#45E6D1"/>
<path d="M49.0478 27.9402C52.3301 27.9402 55.0004 25.0415 55.0004 21.4784V15.7867H50.4279C48.7875 15.7867 47.3 16.5109 46.2222 17.68C45.8893 16.77 45.5024 15.884 45.0628 15.0284L46.3946 13.5492C47.4936 12.3289 48.0989 10.7061 48.0989 8.97998C48.0989 7.25393 47.4936 5.63132 46.3946 4.41075L43.2261 0.891846L40.0576 4.41075C38.9586 5.6312 38.3533 7.25393 38.3533 8.97998C38.3533 10.7061 38.9586 12.3288 40.0576 13.5492L40.6726 14.2323C43.1283 17.5658 44.4753 21.744 44.4753 26.0697C44.4753 29.3697 43.6914 32.613 42.2085 35.4487C40.7684 38.2026 38.7048 40.5202 36.2408 42.1508L37.8905 45.2253C40.5037 43.4959 42.737 41.1163 44.4059 38.2996C45.2191 40.7806 47.3639 42.5572 49.8754 42.5572H55.0004V37.5806C55.0004 34.0176 52.3902 31.1188 49.1819 31.1188H47.177C47.3949 30.0751 47.5434 29.0125 47.6246 27.9401H49.0478V27.9402Z" fill="#29CCCC"/>
<path d="M23.4294 4.08801V7.66704H25.8747V17.5762H27.4967L28.2971 11.3877L27.4967 4.08801H23.4294Z" fill="#FFE800"/>
<path d="M27.4976 4.08801H29.0984V17.5762H27.4976V4.08801Z" fill="#FFD400"/>
<path d="M27.4986 41.1588L23.3062 38.329L18.609 40.5254C17.1797 41.2473 16.2622 42.8301 16.2622 44.5738V50.8919H27.4986L28.9894 46.6894L27.4986 41.1588Z" fill="#62617D"/>
<path d="M38.7348 44.5738C38.7348 42.8301 37.8173 41.2473 36.388 40.5254L31.6908 38.329L27.4984 41.1588V50.8919H38.7348V44.5738Z" fill="#584A6D"/>
<path d="M23.0674 32.7939C22.5681 33.1329 21.981 33.3282 21.3529 33.3282C19.5349 33.3282 18.0612 31.6915 18.0612 29.6725C18.0612 27.6534 19.5349 26.0167 21.3529 26.0167C22.831 26.0167 24.0816 27.0988 24.4975 28.5885" fill="#A35D62"/>
<path d="M24.8544 37.6053L23.307 38.3288V38.329C23.307 40.9004 25.184 42.9849 27.4994 42.9849L28.471 39.6334L27.4994 34.4994L25.5591 34.5482L24.8544 37.6053Z" fill="#FFD5C9"/>
<path d="M31.6918 38.329L30.1443 37.6053L29.3471 34.4529L27.4994 34.4994V42.9851C29.8148 42.9851 31.6918 40.9005 31.6918 38.329Z" fill="#FFC8B6"/>
<path d="M27.4994 26.304C25.7 26.304 24.0813 28.4114 22.8805 29.668C22.8846 29.8124 22.8924 29.9574 22.9077 30.1038L23.1289 32.2256C23.3857 34.6905 25.2653 36.5501 27.4994 36.5501L29.5957 32.0293L27.4994 26.304Z" fill="#FFE3D7"/>
<path d="M27.4996 26.304V36.5501C29.7339 36.5501 31.6134 34.6905 31.8702 32.2256L32.0914 30.1038C32.1067 29.9576 32.1145 29.8124 32.1186 29.668C30.9178 28.4114 29.2991 26.304 27.4996 26.304Z" fill="#FFD5C9"/>
<path d="M27.4996 24.3801C24.8687 24.3801 22.7992 26.8049 22.8806 29.6681C24.0815 28.4115 25.7001 27.6324 27.4996 27.6324L28.4712 26.3041L27.4996 24.3801Z" fill="#BA7D68"/>
<path d="M32.1186 29.6681C32.2 26.8049 30.1305 24.3801 27.4996 24.3801V27.6324C29.2991 27.6324 30.9178 28.4115 32.1186 29.6681Z" fill="#A35D62"/>
</svg>
