<svg width="30" height="17" viewBox="0 0 30 17" fill="none" xmlns="http://www.w3.org/2000/svg">
<path d="M0.237599 1.51154C0.237599 1.51154 0.271978 1.51741 0.333483 1.53018C0.395039 1.54295 0.483669 1.56242 0.591865 1.58883C0.700265 1.61513 0.827157 1.64885 0.967586 1.68864C1.11093 1.7267 1.26653 1.77145 1.42683 1.82381C1.5054 1.85007 1.58764 1.87755 1.67331 1.90616C1.7575 1.93466 1.84209 1.96521 1.92617 1.99811C2.09189 2.06574 2.26639 2.1346 2.42976 2.21777C2.47073 2.23851 2.51119 2.25996 2.55103 2.28229C2.59113 2.30441 2.63287 2.32561 2.67271 2.3486C2.75297 2.39416 2.83056 2.4433 2.90489 2.49653C2.97779 2.55109 3.05441 2.60355 3.12419 2.66348C3.19494 2.72253 3.26059 2.78761 3.32434 2.85596C3.38988 2.92257 3.4497 2.99312 3.50446 3.06714C3.53189 3.10412 3.55805 3.14203 3.58308 3.18075C3.60867 3.21876 3.63437 3.2559 3.65832 3.29477C3.70645 3.37196 3.75033 3.45231 3.79058 3.53507C3.80044 3.55606 3.8103 3.57685 3.82006 3.59765C3.83298 3.6214 3.84585 3.64495 3.85857 3.66845C3.88442 3.71636 3.90695 3.76295 3.92881 3.80995C4.01499 3.99712 4.07307 4.17653 4.11941 4.34945C4.16548 4.52226 4.19925 4.68813 4.22929 4.84613C4.25902 5.00322 4.28517 5.1511 4.31189 5.2874C4.32527 5.35462 4.33871 5.41914 4.3522 5.48019C4.36589 5.53949 4.37942 5.59717 4.39276 5.64902C4.4064 5.6999 4.41958 5.7471 4.43168 5.78909C4.44379 5.83088 4.45549 5.86531 4.46494 5.89489C4.48481 5.95522 4.49523 5.98704 4.49523 5.98704C4.49523 5.98704 4.46596 6.00359 4.40839 6.03C4.37973 6.04287 4.34305 6.05937 4.30019 6.0749C4.25749 6.09023 4.20748 6.10668 4.1499 6.12302C4.09295 6.13866 4.03001 6.15281 3.95905 6.16619C3.88958 6.17855 3.81342 6.18903 3.73153 6.19659C3.56944 6.21099 3.38528 6.21273 3.19055 6.19756C2.99669 6.18254 2.79138 6.15102 2.58689 6.10499C2.38246 6.05927 2.17827 5.99858 1.98845 5.93325C1.9413 5.91721 1.89399 5.89984 1.84878 5.88354C1.82579 5.87496 1.80347 5.86679 1.78023 5.85724C1.75458 5.84503 1.72899 5.83251 1.7034 5.81959C1.60113 5.7681 1.49947 5.71124 1.3995 5.64892C1.34974 5.6175 1.29948 5.58552 1.25146 5.55084C1.20405 5.51554 1.15726 5.47881 1.11113 5.44075C1.01893 5.36448 0.92958 5.28254 0.844168 5.19488C0.760594 5.10554 0.685297 5.01032 0.614597 4.91392C0.544816 4.81666 0.477846 4.71955 0.423544 4.61498C0.367709 4.51169 0.317494 4.40702 0.272591 4.30204C0.250421 4.24932 0.228353 4.19752 0.209758 4.14394C0.191419 4.09014 0.174356 4.0364 0.158469 3.98292C0.0953296 3.76837 0.0486904 3.55867 0.0280526 3.3504C0.0165076 3.24716 0.00874318 3.14627 0.00409455 3.04844C0.00200011 2.9994 -0.0001455 2.95164 7.75159e-06 2.90372C0.000467506 2.85555 0.0016425 2.80825 0.00343044 2.76191C0.0105822 2.57638 0.0276954 2.40596 0.0493549 2.25496C0.0739262 2.10217 0.104321 1.96807 0.13211 1.85814C0.160155 1.74811 0.186565 1.66162 0.205926 1.60257C0.225389 1.54331 0.237599 1.51143 0.237599 1.51154Z" fill="#B3CFF7"/>
<path d="M4.4146 5.74514C4.4146 5.74514 4.34733 5.7127 4.22953 5.65594C4.16971 5.62601 4.09707 5.58969 4.0136 5.54795C3.93007 5.50453 3.83266 5.45835 3.73166 5.39669C3.52861 5.27511 3.28034 5.13734 3.02666 4.9517C2.96229 4.90608 2.8966 4.8595 2.82968 4.81204C2.79622 4.78793 2.76245 4.76361 2.72843 4.73904C2.69573 4.71258 2.66273 4.68596 2.62948 4.65909C2.49676 4.551 2.36037 4.43754 2.22244 4.31934C2.09085 4.19398 1.96396 4.06984 1.84289 3.94867C1.8128 3.91828 1.78297 3.88814 1.75339 3.8582C1.72565 3.82663 1.69812 3.79532 1.67084 3.76431C1.61705 3.70219 1.56428 3.64115 1.51258 3.58143C1.46191 3.52166 1.41231 3.46322 1.36393 3.40616C1.31473 3.35038 1.27499 3.28913 1.23264 3.23355C1.14999 3.12055 1.07413 3.01476 1.00573 2.9179C0.934875 2.82294 0.883025 2.72782 0.833423 2.64772C0.785864 2.56731 0.744486 2.49738 0.710362 2.43976C0.645485 2.3263 0.608398 2.26147 0.608398 2.26147C0.608398 2.26147 0.659279 2.31634 0.74842 2.41243C0.792965 2.46182 0.847062 2.5218 0.909231 2.59071C0.972371 2.65957 1.03837 2.74228 1.12286 2.82432C1.2049 2.90825 1.29394 3.00045 1.38824 3.10002C1.43642 3.1489 1.48157 3.20341 1.53583 3.25276C1.58859 3.30364 1.64264 3.35579 1.69797 3.40912C1.75293 3.46322 1.80907 3.51849 1.86629 3.57474C1.89474 3.60319 1.92345 3.6319 1.95241 3.66086C1.98286 3.6885 2.01361 3.71629 2.04457 3.74439C2.16845 3.85677 2.29524 3.97437 2.42341 4.09666C2.55806 4.21196 2.68812 4.32608 2.81256 4.438C2.84362 4.466 2.87443 4.49379 2.90497 4.52137C2.93665 4.54748 2.96806 4.57332 2.99917 4.59897C3.06078 4.65056 3.12131 4.70119 3.18057 4.75079C3.41219 4.95497 3.63552 5.12104 3.81549 5.2723C3.90499 5.34883 3.99142 5.41023 4.06493 5.46811C4.13814 5.52532 4.20179 5.57513 4.25425 5.6161C4.35632 5.69824 4.4146 5.74514 4.4146 5.74514Z" fill="#D3E3FA"/>
<path d="M5.25383 0.272766C5.25383 0.272766 5.26466 0.292689 5.28294 0.329214C5.30118 0.365738 5.32698 0.418866 5.35707 0.484713C5.38731 0.550662 5.42123 0.629076 5.4575 0.716736C5.49581 0.805213 5.5356 0.902732 5.57351 1.00567C5.59169 1.05639 5.6108 1.10942 5.63072 1.16464C5.65008 1.21914 5.66858 1.27462 5.68564 1.33076C5.71787 1.44259 5.75297 1.55941 5.77636 1.67629C5.78229 1.70556 5.7876 1.73484 5.7923 1.76421C5.79715 1.79363 5.80313 1.82342 5.80747 1.85304C5.81651 1.9124 5.8227 1.97181 5.82551 2.03117C5.82704 2.09033 5.83113 2.15061 5.82867 2.21037C5.82704 2.2703 5.82024 2.33001 5.81105 2.39009C5.80344 2.45037 5.79153 2.50932 5.77585 2.56714C5.76804 2.59606 5.7592 2.62467 5.74954 2.65302C5.74045 2.68142 5.73187 2.70946 5.72165 2.73736C5.70163 2.79304 5.67828 2.8478 5.65228 2.90169C5.64554 2.91518 5.63885 2.92856 5.6322 2.94195C5.62531 2.95809 5.61841 2.97418 5.61157 2.99012C5.59757 3.02261 5.58281 3.0529 5.56763 3.08299C5.50679 3.20237 5.43865 3.30434 5.36902 3.39767C5.29934 3.49079 5.22823 3.57488 5.15973 3.65385C5.09153 3.73232 5.02655 3.80526 4.96776 3.87382C4.93884 3.90769 4.91131 3.94058 4.88556 3.97205C4.86084 4.00291 4.83683 4.0331 4.81578 4.06078C4.7953 4.08827 4.77645 4.11401 4.75995 4.13705C4.7435 4.16009 4.73063 4.17996 4.71934 4.19667C4.6965 4.23115 4.6845 4.24928 4.6845 4.24928C4.6845 4.24928 4.66427 4.24101 4.62759 4.22221C4.60946 4.21276 4.58626 4.2007 4.56108 4.18507C4.53605 4.16949 4.50749 4.15059 4.47597 4.12776C4.44502 4.10497 4.41248 4.07856 4.37707 4.04771C4.3428 4.01716 4.30673 3.98258 4.2699 3.9438C4.19731 3.86687 4.12217 3.77354 4.05152 3.668C3.98107 3.56297 3.91446 3.44553 3.85561 3.32252C3.79656 3.19972 3.74527 3.07109 3.70221 2.94787C3.69138 2.91732 3.68121 2.88616 3.6713 2.85648C3.6664 2.84131 3.66165 2.82665 3.6571 2.81092C3.65301 2.79288 3.64908 2.77475 3.64535 2.75651C3.63048 2.68356 3.61853 2.60878 3.6101 2.53261C3.60607 2.49455 3.60213 2.45604 3.6005 2.41752C3.59943 2.37911 3.59932 2.34044 3.60019 2.30151C3.60198 2.22376 3.6078 2.14509 3.61817 2.06617C3.63008 1.9875 3.64836 1.91072 3.6691 1.83578C3.69066 1.76099 3.71324 1.68763 3.74481 1.6178C3.77505 1.54766 3.80826 1.47988 3.84376 1.41464C3.86174 1.3821 3.87931 1.34992 3.89919 1.31891C3.91926 1.28785 3.9398 1.25751 3.96074 1.22778C4.04483 1.10916 4.1331 1.00081 4.23113 0.90641C4.2792 0.858953 4.32757 0.814306 4.37564 0.772519C4.39986 0.751677 4.42336 0.731345 4.44788 0.712138C4.47265 0.692981 4.49728 0.67454 4.52169 0.656763C4.61926 0.585654 4.71316 0.525733 4.79898 0.476028C4.88684 0.426988 4.96755 0.388471 5.03488 0.358434C5.10236 0.328396 5.15718 0.307095 5.19513 0.293149C5.23273 0.279356 5.25383 0.272766 5.25383 0.272766Z" fill="#B3CFF7"/>
<path d="M4.77301 4.1116C4.77301 4.1116 4.76218 4.06414 4.74322 3.98128C4.73413 3.93873 4.72315 3.88698 4.71053 3.82762C4.69878 3.7675 4.68274 3.6992 4.67324 3.62278C4.65291 3.47009 4.62251 3.28782 4.61459 3.08348C4.61189 3.0322 4.60908 2.97983 4.60622 2.92655C4.60499 2.89974 4.60382 2.87271 4.60254 2.84543C4.60285 2.81805 4.60315 2.79047 4.60341 2.76268C4.60499 2.65126 4.6079 2.53592 4.61271 2.41781C4.62369 2.30001 4.63605 2.18517 4.64928 2.07453C4.6527 2.04689 4.65613 2.01951 4.65955 1.99233C4.6645 1.96541 4.66946 1.93875 4.67436 1.91234C4.68453 1.85987 4.69454 1.80828 4.7043 1.75781C4.71457 1.70785 4.72453 1.65896 4.73434 1.6113C4.74307 1.56369 4.7585 1.51874 4.76999 1.47475C4.79467 1.38704 4.81842 1.30572 4.84064 1.23185C4.86097 1.15747 4.88892 1.09275 4.91006 1.03523C4.93223 0.978677 4.95159 0.929381 4.96748 0.88882C4.99972 0.810202 5.01816 0.765198 5.01816 0.765198C5.01816 0.765198 5.01095 0.813472 4.99829 0.897709C4.99124 0.940415 4.98265 0.992265 4.97285 1.05183C4.96345 1.11185 4.94812 1.17893 4.94061 1.25514C4.93111 1.33085 4.92023 1.4135 4.90766 1.50172C4.9023 1.54606 4.89275 1.59102 4.88958 1.63863C4.88503 1.68609 4.88028 1.73467 4.87548 1.78437C4.87017 1.83423 4.86465 1.88516 4.85913 1.93696C4.85607 1.96296 4.85305 1.98917 4.84999 2.01563C4.8482 2.04224 4.84641 2.06911 4.84463 2.09624C4.83727 2.20469 4.82843 2.31672 4.81765 2.43135C4.81306 2.54649 4.80708 2.65877 4.79993 2.76733C4.79814 2.79445 4.7963 2.82132 4.79451 2.84799C4.79385 2.87465 4.79329 2.90106 4.79267 2.92727C4.79104 2.97943 4.78946 3.03071 4.78787 3.08098C4.77643 3.28133 4.78103 3.46227 4.77561 3.61511C4.77229 3.69164 4.77546 3.76055 4.7752 3.82139C4.77515 3.88177 4.77515 3.93439 4.7751 3.97776C4.77377 4.06286 4.77301 4.1116 4.77301 4.1116Z" fill="#D3E3FA"/>
<path d="M20.1907 2.3811H17.6455V3.85988H20.1907V2.3811Z" fill="url(#paint0_linear_250_1008)"/>
<path d="M20.907 3.12061H16.9277V11.5459H20.907V3.12061Z" fill="url(#paint1_linear_250_1008)"/>
<g opacity="0.5">
<path d="M20.5543 3.70453H17.2822" stroke="white" stroke-width="3" stroke-miterlimit="10"/>
<path d="M20.5543 4.00604H17.2822" stroke="white" stroke-width="3" stroke-miterlimit="10"/>
<path d="M20.5543 4.30743H17.2822" stroke="white" stroke-width="3" stroke-miterlimit="10"/>
<path d="M20.5543 4.60919H17.2822" stroke="white" stroke-width="3" stroke-miterlimit="10"/>
<path d="M20.5543 4.91071H17.2822" stroke="white" stroke-width="3" stroke-miterlimit="10"/>
<path d="M20.5543 5.2124H17.2822" stroke="white" stroke-width="3" stroke-miterlimit="10"/>
<path d="M20.5543 5.51385H17.2822" stroke="white" stroke-width="3" stroke-miterlimit="10"/>
<path d="M20.5543 5.81537H17.2822" stroke="white" stroke-width="3" stroke-miterlimit="10"/>
<path d="M20.5543 6.11707H17.2822" stroke="white" stroke-width="3" stroke-miterlimit="10"/>
<path d="M20.5543 6.41882H17.2822" stroke="white" stroke-width="3" stroke-miterlimit="10"/>
<path d="M20.5543 6.72046H17.2822" stroke="white" stroke-width="3" stroke-miterlimit="10"/>
<path d="M20.5542 7.02185H17.2822" stroke="white" stroke-width="3" stroke-miterlimit="10"/>
<path d="M20.5543 7.32349H17.2822" stroke="white" stroke-width="3" stroke-miterlimit="10"/>
<path d="M20.5543 7.62512H17.2822" stroke="white" stroke-width="3" stroke-miterlimit="10"/>
<path d="M20.5543 7.9267H17.2822" stroke="white" stroke-width="3" stroke-miterlimit="10"/>
<path d="M20.5543 8.22815H17.2822" stroke="white" stroke-width="3" stroke-miterlimit="10"/>
<path d="M20.5543 8.52972H17.2822" stroke="white" stroke-width="3" stroke-miterlimit="10"/>
<path d="M20.5543 8.83136H17.2822" stroke="white" stroke-width="3" stroke-miterlimit="10"/>
<path d="M20.5543 9.13287H17.2822" stroke="white" stroke-width="3" stroke-miterlimit="10"/>
<path d="M20.5543 9.43439H17.2822" stroke="white" stroke-width="3" stroke-miterlimit="10"/>
<path d="M20.5543 9.73615H17.2822" stroke="white" stroke-width="3" stroke-miterlimit="10"/>
<path d="M20.5543 10.0378H17.2822" stroke="white" stroke-width="3" stroke-miterlimit="10"/>
<path d="M20.5543 10.3394H17.2822" stroke="white" stroke-width="3" stroke-miterlimit="10"/>
<path d="M20.5543 10.6408H17.2822" stroke="white" stroke-width="3" stroke-miterlimit="10"/>
<path d="M20.5543 10.9425H17.2822" stroke="white" stroke-width="3" stroke-miterlimit="10"/>
<path d="M20.5543 11.244H17.2822" stroke="white" stroke-width="3" stroke-miterlimit="10"/>
<path d="M20.5543 11.5455H17.2822" stroke="white" stroke-width="3" stroke-miterlimit="10"/>
</g>
<path d="M16.4382 0.318604H11.8545V12.99H16.4382V0.318604Z" fill="url(#paint2_linear_250_1008)"/>
<g opacity="0.5">
<path d="M12.4521 1.0036V11.7215" stroke="white" stroke-width="3" stroke-miterlimit="10"/>
<path d="M12.8271 1.00366V11.7216" stroke="white" stroke-width="3" stroke-miterlimit="10"/>
<path d="M13.2051 1.00366V11.7216" stroke="white" stroke-width="3" stroke-miterlimit="10"/>
<path d="M13.5801 1.00366V11.7216" stroke="white" stroke-width="3" stroke-miterlimit="10"/>
<path d="M13.957 1.00366V11.7216" stroke="white" stroke-width="3" stroke-miterlimit="10"/>
<path d="M14.333 1.00366V11.7216" stroke="white" stroke-width="3" stroke-miterlimit="10"/>
<path d="M14.708 1.00366V11.7216" stroke="white" stroke-width="3" stroke-miterlimit="10"/>
<path d="M15.084 1.00366V11.7216" stroke="white" stroke-width="3" stroke-miterlimit="10"/>
<path d="M15.4609 1.00366V11.7216" stroke="white" stroke-width="3" stroke-miterlimit="10"/>
<path d="M15.8369 1.00366V11.7216" stroke="white" stroke-width="3" stroke-miterlimit="10"/>
</g>
<path d="M11.3435 6.2406H6.75977V12.9902H11.3435V6.2406Z" fill="url(#paint3_linear_250_1008)"/>
<g opacity="0.5">
<path d="M7.35645 6.60547V12.3145" stroke="white" stroke-width="3" stroke-miterlimit="10"/>
<path d="M7.73242 6.60547V12.3145" stroke="white" stroke-width="3" stroke-miterlimit="10"/>
<path d="M8.10938 6.60547V12.3145" stroke="white" stroke-width="3" stroke-miterlimit="10"/>
<path d="M8.48438 6.60547V12.3144" stroke="white" stroke-width="3" stroke-miterlimit="10"/>
<path d="M8.86133 6.60547V12.3144" stroke="white" stroke-width="3" stroke-miterlimit="10"/>
<path d="M9.2373 6.60547V12.3144" stroke="white" stroke-width="3" stroke-miterlimit="10"/>
<path d="M9.61426 6.60547V12.3144" stroke="white" stroke-width="3" stroke-miterlimit="10"/>
<path d="M9.98828 6.60547V12.3145" stroke="white" stroke-width="3" stroke-miterlimit="10"/>
<path d="M10.3672 6.60547V12.3145" stroke="white" stroke-width="3" stroke-miterlimit="10"/>
<path d="M10.7412 6.60547V12.3145" stroke="white" stroke-width="3" stroke-miterlimit="10"/>
</g>
<path d="M22.3096 12.9669H26.0315V2.6778L22.3096 4.40284V12.9669Z" fill="url(#paint4_linear_250_1008)"/>
<g opacity="0.5">
<path d="M25.5439 3.23401V11.9369" stroke="white" stroke-width="3" stroke-miterlimit="10"/>
<path d="M25.2393 3.38879V11.937" stroke="white" stroke-width="3" stroke-miterlimit="10"/>
<path d="M24.9336 3.5434V11.9369" stroke="white" stroke-width="3" stroke-miterlimit="10"/>
<path d="M24.627 3.69818V11.9369" stroke="white" stroke-width="3" stroke-miterlimit="10"/>
<path d="M24.3223 3.85291V11.9369" stroke="white" stroke-width="3" stroke-miterlimit="10"/>
<path d="M24.0166 4.00769V11.937" stroke="white" stroke-width="3" stroke-miterlimit="10"/>
<path d="M23.7109 4.16229V11.9369" stroke="white" stroke-width="3" stroke-miterlimit="10"/>
<path d="M23.4053 4.31702V11.9369" stroke="white" stroke-width="3" stroke-miterlimit="10"/>
<path d="M23.1006 4.47168V11.9368" stroke="white" stroke-width="3" stroke-miterlimit="10"/>
<path d="M22.7949 4.62653V11.9369" stroke="white" stroke-width="3" stroke-miterlimit="10"/>
</g>
<path d="M26.03 12.374H21.4463V4.83832L26.03 6.96279V12.374Z" fill="url(#paint5_linear_250_1008)"/>
<g opacity="0.5">
<path d="M22.0449 5.52325V11.1053" stroke="white" stroke-width="3" stroke-miterlimit="10"/>
<path d="M22.4209 5.71381V11.1053" stroke="white" stroke-width="3" stroke-miterlimit="10"/>
<path d="M22.7979 5.90436V11.1054" stroke="white" stroke-width="3" stroke-miterlimit="10"/>
<path d="M23.1729 6.09497V11.1055" stroke="white" stroke-width="3" stroke-miterlimit="10"/>
<path d="M23.5498 6.2854V11.1054" stroke="white" stroke-width="3" stroke-miterlimit="10"/>
<path d="M23.9258 6.47583V11.1052" stroke="white" stroke-width="3" stroke-miterlimit="10"/>
<path d="M24.3008 6.6665V11.1054" stroke="white" stroke-width="3" stroke-miterlimit="10"/>
<path d="M24.6768 6.85681V11.1051" stroke="white" stroke-width="3" stroke-miterlimit="10"/>
<path d="M25.0537 7.04736V11.1052" stroke="white" stroke-width="3" stroke-miterlimit="10"/>
<path d="M25.4297 7.2381V11.1053" stroke="white" stroke-width="3" stroke-miterlimit="10"/>
</g>
<path d="M0.277344 16.3652C0.277344 16.5005 6.72753 16.6101 14.6842 16.6101C22.6409 16.6101 29.0911 16.5005 29.0911 16.3652C29.0911 16.2299 22.6409 16.1202 14.6842 16.1202C6.72748 16.1202 0.277344 16.2299 0.277344 16.3652Z" fill="#B3CFF7"/>
<path d="M12.9678 9.15109C12.9678 9.15109 12.961 9.1727 12.9473 9.21122C12.9336 9.24968 12.9131 9.30506 12.8865 9.37239C12.8599 9.43987 12.8269 9.51864 12.7888 9.60553C12.7515 9.69452 12.7088 9.79071 12.6607 9.88935C12.6368 9.93758 12.6117 9.98815 12.5857 10.0408C12.5597 10.0925 12.5325 10.1443 12.5039 10.1954C12.4456 10.2961 12.3857 10.4024 12.3176 10.5002C12.3005 10.5247 12.2831 10.5489 12.2653 10.5726C12.2473 10.5965 12.23 10.6214 12.2116 10.645C12.175 10.6927 12.1365 10.7383 12.0956 10.7815C12.054 10.8235 12.0134 10.8682 11.9685 10.9079C11.9243 10.9482 11.8764 10.9846 11.8268 11.0197C11.778 11.0559 11.7272 11.0882 11.6746 11.1169C11.6484 11.1313 11.6216 11.1448 11.5945 11.1575C11.5677 11.1705 11.5415 11.1838 11.5144 11.1958C11.4604 11.2198 11.4047 11.241 11.3478 11.2596C11.3334 11.2641 11.3191 11.2685 11.3048 11.273C11.2884 11.2792 11.272 11.2854 11.2558 11.2916C11.2227 11.3039 11.1906 11.3143 11.1583 11.3241C11.0302 11.363 10.9094 11.3845 10.7939 11.3989C10.6785 11.4132 10.5686 11.4202 10.4641 11.4254C10.3603 11.4306 10.2627 11.4342 10.1725 11.4394C10.1281 11.442 10.0853 11.445 10.0448 11.4482C10.0053 11.4517 9.96703 11.4553 9.93245 11.4593C9.89848 11.4635 9.86686 11.4678 9.83876 11.4718C9.81082 11.476 9.78753 11.4804 9.76765 11.4839C9.72699 11.4913 9.70559 11.4952 9.70559 11.4952C9.70559 11.4952 9.69752 11.4748 9.68566 11.4354C9.67989 11.4158 9.67259 11.3907 9.6664 11.3617C9.66027 11.3328 9.65415 11.2991 9.64873 11.2605C9.64372 11.2224 9.64025 11.1807 9.6379 11.1338C9.63622 11.0879 9.63621 11.0379 9.63867 10.9845C9.64388 10.8788 9.6591 10.76 9.68628 10.6359C9.7132 10.5123 9.75177 10.3829 9.79968 10.2553C9.84734 10.1276 9.90461 10.0015 9.96356 9.88501C9.97812 9.85605 9.99355 9.82713 10.0081 9.79945C10.0156 9.78545 10.0229 9.77176 10.0311 9.75771C10.0413 9.74223 10.0516 9.72686 10.0622 9.71153C10.1045 9.65023 10.1501 9.58985 10.1992 9.531C10.2238 9.50173 10.249 9.4722 10.2756 9.44431C10.3026 9.41693 10.3304 9.39006 10.3591 9.3638C10.4163 9.31119 10.4771 9.26092 10.5412 9.21372C10.6062 9.16785 10.6742 9.12785 10.7426 9.09086C10.8115 9.05459 10.8801 9.02006 10.9522 8.99442C11.0238 8.96765 11.0956 8.94461 11.1672 8.9251C11.2032 8.91549 11.2386 8.90589 11.2747 8.89874C11.311 8.89169 11.3472 8.88551 11.3831 8.87999C11.5269 8.85843 11.6661 8.84709 11.8021 8.85235C11.8697 8.85414 11.9353 8.85807 11.9987 8.86385C12.0306 8.86686 12.0615 8.86972 12.0923 8.87411C12.1233 8.87871 12.1537 8.88372 12.1834 8.88893C12.3023 8.91008 12.4106 8.93628 12.5059 8.96372C12.6021 8.99309 12.6858 9.02466 12.7541 9.05235C12.8224 9.08019 12.8758 9.10496 12.9121 9.12264C12.9485 9.14046 12.9678 9.15109 12.9678 9.15109Z" fill="#B3CFF7"/>
<path d="M9.86914 11.466C9.86914 11.466 9.89586 11.4253 9.9425 11.3542C9.96692 11.3181 9.99659 11.2744 10.0307 11.2242C10.0659 11.1741 10.104 11.1152 10.1526 11.0554C10.2486 10.935 10.359 10.7868 10.5008 10.6395C10.5359 10.602 10.5717 10.5638 10.6082 10.5248C10.6267 10.5053 10.6454 10.4857 10.6642 10.4659C10.6841 10.4472 10.7042 10.4282 10.7245 10.4092C10.8059 10.3332 10.8912 10.2553 10.9796 10.177C11.0722 10.1033 11.1636 10.0327 11.2525 9.96552C11.2749 9.94892 11.2969 9.93237 11.3189 9.91602C11.3418 9.9009 11.3644 9.88604 11.3868 9.87132C11.4318 9.84231 11.4758 9.8138 11.519 9.78586C11.5621 9.75863 11.6044 9.73207 11.6455 9.70602C11.6859 9.67935 11.7291 9.65933 11.7686 9.63711C11.8489 9.59419 11.9242 9.55501 11.9928 9.51982C12.0605 9.48288 12.1265 9.45821 12.1828 9.43364C12.2389 9.41045 12.2878 9.39027 12.3281 9.37362C12.4071 9.3424 12.4524 9.32452 12.4524 9.32452C12.4524 9.32452 12.4126 9.35277 12.3431 9.40202C12.3074 9.42654 12.2641 9.45632 12.2142 9.49044C12.1644 9.52528 12.1055 9.56073 12.0453 9.60804C11.9842 9.65371 11.9169 9.70305 11.8447 9.75516C11.8089 9.78193 11.7699 9.80624 11.7334 9.83695C11.6961 9.86657 11.6577 9.89676 11.6185 9.92772C11.5789 9.95842 11.5383 9.98974 11.4971 10.0216C11.4762 10.0374 11.4552 10.0534 11.434 10.0696C11.4137 10.0867 11.3929 10.1041 11.3722 10.1215C11.2888 10.1914 11.2019 10.2626 11.1118 10.3342C11.0256 10.4107 10.9404 10.4841 10.8573 10.5542C10.8365 10.5717 10.8158 10.589 10.7953 10.6062C10.7757 10.6241 10.7562 10.642 10.7369 10.6598C10.6981 10.6947 10.6601 10.7292 10.6228 10.7628C10.4703 10.8934 10.343 11.0219 10.2291 11.124C10.1716 11.1746 10.1241 11.2246 10.0801 11.2666C10.0365 11.3084 9.99854 11.3448 9.96722 11.3748C9.9049 11.4328 9.86914 11.466 9.86914 11.466Z" fill="#D3E3FA"/>
<path d="M10.0125 15.6098C10.0125 15.9068 9.77179 16.1475 9.47484 16.1475H3.37267C3.07572 16.1475 2.83496 15.9068 2.83496 15.6098V3.48626C2.83496 3.18931 3.07572 2.94855 3.37267 2.94855H9.47478C9.77174 2.94855 10.0125 3.18931 10.0125 3.48626V15.6098H10.0125Z" fill="#332F27"/>
<mask id="mask0_250_1008" style="mask-type:luminance" maskUnits="userSpaceOnUse" x="3" y="3" width="7" height="13">
<path d="M9.79423 15.3534C9.79423 15.6379 9.56788 15.8684 9.28871 15.8684H3.55235C3.27318 15.8684 3.04688 15.6379 3.04688 15.3534V3.74306C3.04688 3.45863 3.27318 3.22809 3.55235 3.22809H9.28871C9.56788 3.22809 9.79423 3.45863 9.79423 3.74306V15.3534Z" fill="white"/>
</mask>
<g mask="url(#mask0_250_1008)">
<path d="M9.79423 15.3534C9.79423 15.6378 9.56788 15.8684 9.28871 15.8684H3.55235C3.27318 15.8684 3.04688 15.6378 3.04688 15.3534V3.743C3.04688 3.45857 3.27318 3.22803 3.55235 3.22803H9.28871C9.56788 3.22803 9.79423 3.45857 9.79423 3.743V15.3534Z" fill="#E4E4E4"/>
</g>
<mask id="mask1_250_1008" style="mask-type:luminance" maskUnits="userSpaceOnUse" x="3" y="3" width="7" height="13">
<path d="M9.79423 15.3534C9.79423 15.6379 9.56788 15.8684 9.28871 15.8684H3.55235C3.27318 15.8684 3.04688 15.6379 3.04688 15.3534V3.74306C3.04688 3.45863 3.27318 3.22809 3.55235 3.22809H9.28871C9.56788 3.22809 9.79423 3.45863 9.79423 3.74306V15.3534Z" fill="white"/>
</mask>
<g mask="url(#mask1_250_1008)">
<path d="M3.04688 5.60559C3.04688 5.60559 10.9516 13.6878 10.8441 13.7104" stroke="white" stroke-width="4" stroke-miterlimit="10"/>
</g>
<mask id="mask2_250_1008" style="mask-type:luminance" maskUnits="userSpaceOnUse" x="3" y="3" width="7" height="13">
<path d="M9.79423 15.3534C9.79423 15.6379 9.56788 15.8684 9.28871 15.8684H3.55235C3.27318 15.8684 3.04688 15.6379 3.04688 15.3534V3.74306C3.04688 3.45863 3.27318 3.22809 3.55235 3.22809H9.28871C9.56788 3.22809 9.79423 3.45863 9.79423 3.74306V15.3534Z" fill="white"/>
</mask>
<g mask="url(#mask2_250_1008)">
<path d="M6.74805 9.40448V7.2043L11.7405 6.24091" stroke="white" stroke-width="4" stroke-miterlimit="10"/>
</g>
<mask id="mask3_250_1008" style="mask-type:luminance" maskUnits="userSpaceOnUse" x="3" y="3" width="7" height="13">
<path d="M9.79423 15.3534C9.79423 15.6379 9.56788 15.8684 9.28871 15.8684H3.55235C3.27318 15.8684 3.04688 15.6379 3.04688 15.3534V3.74306C3.04688 3.45863 3.27318 3.22809 3.55235 3.22809H9.28871C9.56788 3.22809 9.79423 3.45863 9.79423 3.74306V15.3534Z" fill="white"/>
</mask>
<g mask="url(#mask3_250_1008)">
<path d="M1.77539 11.1519L5.00108 7.60712" stroke="white" stroke-width="4" stroke-miterlimit="10"/>
</g>
<mask id="mask4_250_1008" style="mask-type:luminance" maskUnits="userSpaceOnUse" x="3" y="3" width="7" height="13">
<path d="M9.79423 15.3534C9.79423 15.6379 9.56788 15.8684 9.28871 15.8684H3.55235C3.27318 15.8684 3.04688 15.6379 3.04688 15.3534V3.74306C3.04688 3.45863 3.27318 3.22809 3.55235 3.22809H9.28871C9.56788 3.22809 9.79423 3.45863 9.79423 3.74306V15.3534Z" fill="white"/>
</mask>
<g mask="url(#mask4_250_1008)">
<path d="M4.1416 13.635L7.36739 10.0902" stroke="white" stroke-width="4" stroke-miterlimit="10"/>
</g>
<mask id="mask5_250_1008" style="mask-type:luminance" maskUnits="userSpaceOnUse" x="3" y="3" width="7" height="13">
<path d="M9.79423 15.3534C9.79423 15.6379 9.56788 15.8684 9.28871 15.8684H3.55235C3.27318 15.8684 3.04688 15.6379 3.04688 15.3534V3.74306C3.04688 3.45863 3.27318 3.22809 3.55235 3.22809H9.28871C9.56788 3.22809 9.79423 3.45863 9.79423 3.74306V15.3534Z" fill="white"/>
</mask>
<g mask="url(#mask5_250_1008)">
<path d="M4.06152 11.7569L5.76282 9.88734L4.82385 8.89197" stroke="#BAB8F9" stroke-width="16" stroke-miterlimit="10"/>
</g>
<mask id="mask6_250_1008" style="mask-type:luminance" maskUnits="userSpaceOnUse" x="3" y="3" width="7" height="13">
<path d="M9.79423 15.3534C9.79423 15.6379 9.56788 15.8684 9.28871 15.8684H3.55235C3.27318 15.8684 3.04688 15.6379 3.04688 15.3534V3.74306C3.04688 3.45863 3.27318 3.22809 3.55235 3.22809H9.28871C9.56788 3.22809 9.79423 3.45863 9.79423 3.74306V15.3534Z" fill="white"/>
</mask>
<g mask="url(#mask6_250_1008)">
<path d="M5.14258 13.8766L6.84387 12.0071" stroke="#BAB8F9" stroke-width="16" stroke-miterlimit="10"/>
</g>
<mask id="mask7_250_1008" style="mask-type:luminance" maskUnits="userSpaceOnUse" x="3" y="3" width="7" height="13">
<path d="M9.79423 15.3534C9.79423 15.6379 9.56788 15.8684 9.28871 15.8684H3.55235C3.27318 15.8684 3.04688 15.6379 3.04688 15.3534V3.74306C3.04688 3.45863 3.27318 3.22809 3.55235 3.22809H9.28871C9.56788 3.22809 9.79423 3.45863 9.79423 3.74306V15.3534Z" fill="white"/>
</mask>
<g mask="url(#mask7_250_1008)">
<path d="M12.6736 2.65594H1.41699V6.24085H12.6736V2.65594Z" fill="#F68539"/>
</g>
<mask id="mask8_250_1008" style="mask-type:luminance" maskUnits="userSpaceOnUse" x="3" y="3" width="7" height="13">
<path d="M9.79423 15.3534C9.79423 15.6379 9.56788 15.8684 9.28871 15.8684H3.55235C3.27318 15.8684 3.04688 15.6379 3.04688 15.3534V3.74306C3.04688 3.45863 3.27318 3.22809 3.55235 3.22809H9.28871C9.56788 3.22809 9.79423 3.45863 9.79423 3.74306V15.3534Z" fill="white"/>
</mask>
<g mask="url(#mask8_250_1008)">
<path d="M5.00121 4.94967C5.00121 5.34536 4.68045 5.66612 4.28481 5.66612C3.88912 5.66612 3.56836 5.34536 3.56836 4.94967C3.56836 4.55397 3.88912 4.23322 4.28481 4.23322C4.68051 4.23322 5.00121 4.55402 5.00121 4.94967Z" fill="white"/>
</g>
<mask id="mask9_250_1008" style="mask-type:luminance" maskUnits="userSpaceOnUse" x="3" y="3" width="7" height="13">
<path d="M9.79423 15.3534C9.79423 15.6379 9.56788 15.8684 9.28871 15.8684H3.55235C3.27318 15.8684 3.04688 15.6379 3.04688 15.3534V3.74306C3.04688 3.45863 3.27318 3.22809 3.55235 3.22809H9.28871C9.56788 3.22809 9.79423 3.45863 9.79423 3.74306V15.3534Z" fill="white"/>
</mask>
<g mask="url(#mask9_250_1008)">
<path d="M7.36665 4.3407H5.32324V4.62748H7.36665V4.3407Z" fill="white"/>
</g>
<mask id="mask10_250_1008" style="mask-type:luminance" maskUnits="userSpaceOnUse" x="3" y="3" width="7" height="13">
<path d="M9.79423 15.3534C9.79423 15.6379 9.56788 15.8684 9.28871 15.8684H3.55235C3.27318 15.8684 3.04688 15.6379 3.04688 15.3534V3.74306C3.04688 3.45863 3.27318 3.22809 3.55235 3.22809H9.28871C9.56788 3.22809 9.79423 3.45863 9.79423 3.74306V15.3534Z" fill="white"/>
</mask>
<g mask="url(#mask10_250_1008)">
<path d="M8.97987 5.23016H5.32324V5.35118H8.97987V5.23016Z" fill="white"/>
</g>
<mask id="mask11_250_1008" style="mask-type:luminance" maskUnits="userSpaceOnUse" x="3" y="3" width="7" height="13">
<path d="M9.79423 15.3534C9.79423 15.6379 9.56788 15.8684 9.28871 15.8684H3.55235C3.27318 15.8684 3.04688 15.6379 3.04688 15.3534V3.74306C3.04688 3.45863 3.27318 3.22809 3.55235 3.22809H9.28871C9.56788 3.22809 9.79423 3.45863 9.79423 3.74306V15.3534Z" fill="white"/>
</mask>
<g mask="url(#mask11_250_1008)">
<path d="M8.97987 5.49829H5.32324V5.61926H8.97987V5.49829Z" fill="white"/>
</g>
<mask id="mask12_250_1008" style="mask-type:luminance" maskUnits="userSpaceOnUse" x="3" y="3" width="7" height="13">
<path d="M9.79423 15.3534C9.79423 15.6379 9.56788 15.8684 9.28871 15.8684H3.55235C3.27318 15.8684 3.04688 15.6379 3.04688 15.3534V3.74306C3.04688 3.45863 3.27318 3.22809 3.55235 3.22809H9.28871C9.56788 3.22809 9.79423 3.45863 9.79423 3.74306V15.3534Z" fill="white"/>
</mask>
<g mask="url(#mask12_250_1008)">
<path d="M7.66463 3.09503H6.49951H6.3436H5.17848C5.01175 3.09503 4.95188 3.2302 5.04464 3.39689L5.16786 3.61828C5.26063 3.78497 5.47104 3.92014 5.63773 3.92014H5.88441H6.95875H7.20544C7.37218 3.92014 7.58254 3.78497 7.67531 3.61828L7.79857 3.39689C7.89124 3.2302 7.83132 3.09503 7.66463 3.09503Z" fill="#332F27"/>
</g>
<mask id="mask13_250_1008" style="mask-type:luminance" maskUnits="userSpaceOnUse" x="3" y="3" width="7" height="13">
<path d="M9.79423 15.3534C9.79423 15.6379 9.56788 15.8684 9.28871 15.8684H3.55235C3.27318 15.8684 3.04688 15.6379 3.04688 15.3534V3.74306C3.04688 3.45863 3.27318 3.22809 3.55235 3.22809H9.28871C9.56788 3.22809 9.79423 3.45863 9.79423 3.74306V15.3534Z" fill="white"/>
</mask>
<g mask="url(#mask13_250_1008)">
<path d="M10.2719 7.13618C9.57779 7.14793 7.66072 7.79792 8.28088 8.79171C8.51259 9.16298 9.0033 9.2038 9.15773 9.65272C9.29121 10.0407 9.14854 10.4597 9.3424 10.8401C9.48267 11.1152 9.78335 11.2604 10.0579 11.3638C10.5628 11.5541 11.0892 11.5118 11.6161 11.5658C11.6981 11.5741 11.6973 11.4464 11.6161 11.4381C10.918 11.3666 9.81324 11.4829 9.42781 10.7269C9.27195 10.4212 9.35313 10.0243 9.29918 9.6942C9.2457 9.36711 8.98507 9.17059 8.72112 9.01014C8.46355 8.85357 8.22325 8.61383 8.30764 8.28873C8.37267 8.03822 8.63049 7.85779 8.83641 7.72947C9.24427 7.47538 9.7857 7.27206 10.2719 7.26384C10.3541 7.26246 10.3543 7.13475 10.2719 7.13618Z" fill="#A8DAFF"/>
</g>
<mask id="mask14_250_1008" style="mask-type:luminance" maskUnits="userSpaceOnUse" x="3" y="3" width="7" height="13">
<path d="M9.79423 15.3534C9.79423 15.6379 9.56788 15.8684 9.28871 15.8684H3.55235C3.27318 15.8684 3.04688 15.6379 3.04688 15.3534V3.74306C3.04688 3.45863 3.27318 3.22809 3.55235 3.22809H9.28871C9.56788 3.22809 9.79423 3.45863 9.79423 3.74306V15.3534Z" fill="white"/>
</mask>
<g mask="url(#mask14_250_1008)">
<path d="M11.6162 13.4377H1.41699V18.2505H11.6162V13.4377Z" fill="white"/>
</g>
<path d="M4.51584 4.82485C4.51584 4.95358 4.41153 5.0579 4.2828 5.0579C4.15412 5.0579 4.0498 4.95358 4.0498 4.82485C4.0498 4.69612 4.15412 4.59186 4.2828 4.59186C4.41153 4.59186 4.51584 4.69617 4.51584 4.82485Z" fill="#E4E4E4"/>
<mask id="mask15_250_1008" style="mask-type:luminance" maskUnits="userSpaceOnUse" x="3" y="4" width="2" height="2">
<path d="M4.99926 4.94973C4.99926 5.34542 4.6785 5.66618 4.28281 5.66618C3.88711 5.66618 3.56641 5.34542 3.56641 4.94973C3.56641 4.55403 3.88716 4.23328 4.28281 4.23328C4.6785 4.23328 4.99926 4.55408 4.99926 4.94973Z" fill="white"/>
</mask>
<g mask="url(#mask15_250_1008)">
<path d="M3.90527 5.86466C3.90527 5.41921 4.07375 5.05804 4.28161 5.05804C4.48942 5.05804 4.65794 5.41916 4.65794 5.86466H3.90527Z" fill="#E4E4E4"/>
</g>
<path d="M7.75319 10.7912C8.09473 10.7912 8.37161 10.5143 8.37161 10.1728C8.37161 9.83126 8.09473 9.55438 7.75319 9.55438C7.41164 9.55438 7.13477 9.83126 7.13477 10.1728C7.13477 10.5143 7.41164 10.7912 7.75319 10.7912Z" fill="white"/>
<path d="M7.64611 9.23926C7.10049 9.23926 6.6582 9.68159 6.6582 10.2272C6.6582 10.7729 7.65235 11.7992 7.64611 11.7992C7.63993 11.7992 8.63408 10.7728 8.63408 10.2272C8.63408 9.68159 8.19179 9.23926 7.64611 9.23926ZM7.65235 10.6311C7.41899 10.6311 7.22983 10.4419 7.22983 10.2086C7.22983 9.97522 7.41899 9.78601 7.65235 9.78601C7.8857 9.78601 8.07486 9.97517 8.07486 10.2086C8.07481 10.4419 7.8857 10.6311 7.65235 10.6311Z" fill="#E63959"/>
<path d="M6.70197 14.623C6.70197 14.7764 6.57763 14.9008 6.42428 14.9008C6.27087 14.9008 6.14648 14.7764 6.14648 14.623C6.14648 14.4696 6.27082 14.3453 6.42428 14.3453C6.57763 14.3453 6.70197 14.4696 6.70197 14.623Z" fill="#F68539"/>
<path d="M4.72541 14.6231C4.72541 14.7764 4.60102 14.9008 4.44766 14.9008C4.29426 14.9008 4.16992 14.7764 4.16992 14.6231C4.16992 14.4697 4.29426 14.3453 4.44766 14.3453C4.60102 14.3453 4.72541 14.4697 4.72541 14.6231Z" fill="#F68539"/>
<path d="M8.67468 14.6231C8.67468 14.7764 8.55029 14.9008 8.39688 14.9008C8.24353 14.9008 8.11914 14.7764 8.11914 14.6231C8.11914 14.4697 8.24353 14.3453 8.39688 14.3453C8.55029 14.3453 8.67468 14.4697 8.67468 14.6231Z" fill="#F68539"/>
<path d="M4.21973 14.6229H8.37013" stroke="#F68539" stroke-width="2" stroke-miterlimit="10"/>
<path d="M8.77832 3.70447H9.32952" stroke="white" stroke-miterlimit="10"/>
<path d="M8.77832 3.85236H9.32952" stroke="white" stroke-miterlimit="10"/>
<path d="M8.77832 4.01373H9.32952" stroke="white" stroke-miterlimit="10"/>
<path d="M24.2489 9.68943C22.8321 8.3871 21.0096 7.49507 19.2012 7.28721C18.6276 7.22131 14.5109 6.88314 13.3097 10.5877C13.3097 10.5877 8.49946 10.0014 8.42773 15.1027H19.1536H19.2686H26.8923C26.8716 13.0454 25.805 11.1199 24.2489 9.68943Z" fill="#FAD024"/>
<mask id="mask16_250_1008" style="mask-type:luminance" maskUnits="userSpaceOnUse" x="8" y="7" width="19" height="9">
<path d="M24.2469 9.68955C22.8301 8.38722 21.0077 7.49519 19.1993 7.28733C18.6256 7.22143 14.5089 6.88326 13.3077 10.5879C13.3077 10.5879 8.4975 10.0016 8.42578 15.1028H19.1516H19.2666H26.8903C26.8696 13.0455 25.8031 11.12 24.2469 9.68955Z" fill="white"/>
</mask>
<g mask="url(#mask16_250_1008)">
<path d="M14.4368 14.4792C14.4368 15.6589 13.4802 16.6154 12.3004 16.6154C11.1206 16.6154 10.1641 15.6589 10.1641 14.4792C10.1641 13.2994 11.1206 12.3428 12.3004 12.3428C13.4802 12.3428 14.4368 13.2994 14.4368 14.4792Z" fill="#FAD024"/>
<path d="M25.5422 14.4793C25.5422 15.659 24.5856 16.6155 23.4058 16.6155C22.226 16.6155 21.2695 15.659 21.2695 14.4793C21.2695 13.2994 22.2261 12.3429 23.4058 12.3429C24.5857 12.3429 25.5422 13.2995 25.5422 14.4793Z" fill="#FAD024"/>
</g>
<path d="M23.8026 10.4257C23.639 10.2454 23.467 10.0719 23.2868 9.90633C22.0769 8.79403 20.5201 8.03211 18.9757 7.8546C18.499 7.79983 15.1573 7.52531 14.0322 10.4257H23.8026Z" fill="#181B22"/>
<path d="M18.7507 11.2019C18.7507 11.3137 18.6602 11.4042 18.5483 11.4042H17.6252C17.5135 11.4042 17.4229 11.3137 17.4229 11.2019C17.4229 11.0901 17.5135 10.9995 17.6252 10.9995H18.5483C18.6602 10.9995 18.7507 11.0901 18.7507 11.2019Z" fill="#EAAF0B"/>
<path d="M17.4229 11.2019C17.4229 11.3137 17.5135 11.4042 17.6252 11.4042H18.5483C18.6602 11.4042 18.7507 11.3137 18.7507 11.2019H17.4229Z" fill="white"/>
<path d="M24.0515 11.2018C24.0515 11.3136 23.9609 11.4041 23.8491 11.4041H22.926C22.8142 11.4041 22.7236 11.3136 22.7236 11.2018C22.7236 11.09 22.8142 10.9994 22.926 10.9994H23.8491C23.9609 10.9993 24.0515 11.09 24.0515 11.2018Z" fill="#EAAF0B"/>
<path d="M22.7236 11.2018C22.7236 11.3136 22.8142 11.4041 22.926 11.4041H23.8491C23.9609 11.4041 24.0515 11.3136 24.0515 11.2018H22.7236Z" fill="white"/>
<path d="M14.1471 14.4794C14.1471 15.4978 13.3214 16.3234 12.303 16.3234C11.2846 16.3234 10.459 15.4978 10.459 14.4794C10.459 13.461 11.2847 12.6354 12.303 12.6354C13.3214 12.6354 14.1471 13.461 14.1471 14.4794Z" fill="#332C36"/>
<path d="M13.7333 14.4792C13.7333 15.269 13.0928 15.9092 12.303 15.9092C11.5132 15.9092 10.873 15.2689 10.873 14.4792C10.873 13.6894 11.5132 13.049 12.303 13.049C13.0928 13.0491 13.7333 13.6894 13.7333 14.4792Z" fill="white"/>
<path d="M12.6513 14.4794C12.6513 14.6719 12.4953 14.828 12.3027 14.828C12.1103 14.828 11.9541 14.6719 11.9541 14.4794C11.9541 14.2869 12.1103 14.1307 12.3027 14.1307C12.4953 14.1307 12.6513 14.2869 12.6513 14.4794Z" fill="#332C36"/>
<path d="M11.9645 13.4262L12.1876 13.9659C12.2115 14.0238 12.2557 14.0595 12.3036 14.0595C12.3514 14.0595 12.3956 14.0239 12.4196 13.9659L12.6457 13.419C12.6697 13.3611 12.6697 13.2898 12.6457 13.2318C12.6218 13.174 12.5776 13.1382 12.5296 13.1382H12.0775H12.0774C12.0033 13.1382 11.9434 13.2221 11.9434 13.3254C11.9434 13.3626 11.9512 13.3971 11.9645 13.4262Z" fill="#332C36"/>
<path d="M11.2028 14.4851L11.785 14.4396C11.8475 14.4348 11.8951 14.4037 11.9098 14.3582C11.9246 14.3127 11.9045 14.2596 11.8567 14.2189L11.4065 13.8349C11.3587 13.7943 11.2908 13.7722 11.2283 13.7771C11.166 13.782 11.1183 13.813 11.1036 13.8586L10.9638 14.2885C10.9638 14.2885 10.9638 14.2886 10.9638 14.2887C10.9409 14.3591 11.0021 14.4421 11.1004 14.474C11.1358 14.4854 11.171 14.4887 11.2028 14.4851Z" fill="#332C36"/>
<path d="M11.9746 15.537L12.1113 14.9691C12.1261 14.9082 12.1112 14.8533 12.0725 14.8253C12.0339 14.7971 11.9771 14.7999 11.9236 14.8328L11.4193 15.1423C11.3658 15.1751 11.3239 15.2328 11.3093 15.2938C11.2946 15.3546 11.3095 15.4096 11.3482 15.4377L11.7139 15.7035C11.7139 15.7035 11.7139 15.7035 11.714 15.7035C11.7739 15.747 11.8718 15.7145 11.9326 15.6309C11.9542 15.6008 11.9684 15.5683 11.9746 15.537Z" fill="#332C36"/>
<path d="M13.2155 15.1282L12.7178 14.8226C12.6643 14.7897 12.6076 14.787 12.569 14.8151C12.5302 14.8432 12.5153 14.8981 12.53 14.9591L12.6685 15.5343C12.6832 15.5953 12.7252 15.653 12.7786 15.6858C12.832 15.7185 12.8888 15.7214 12.9275 15.6933L13.2933 15.4276C13.2933 15.4275 13.2933 15.4275 13.2934 15.4274C13.3533 15.3839 13.3525 15.2808 13.2918 15.1973C13.27 15.1673 13.2434 15.1438 13.2155 15.1282Z" fill="#332C36"/>
<path d="M13.2075 13.8237L12.7631 14.2027C12.7152 14.2433 12.695 14.2965 12.7099 14.342C12.7247 14.3874 12.7723 14.4186 12.8348 14.4234L13.4247 14.4694C13.4872 14.4744 13.5551 14.4523 13.6028 14.4116C13.6504 14.3709 13.6706 14.3177 13.6558 14.2722L13.5162 13.8423C13.5162 13.8423 13.5162 13.8423 13.5161 13.8422C13.4933 13.7718 13.3949 13.7406 13.2967 13.7725C13.2615 13.784 13.2309 13.802 13.2075 13.8237Z" fill="#332C36"/>
<path d="M25.2311 14.4793C25.2311 15.4976 24.4054 16.3232 23.3871 16.3232C22.3686 16.3232 21.543 15.4976 21.543 14.4793C21.543 13.4609 22.3686 12.6353 23.3871 12.6353C24.4054 12.6353 25.2311 13.4609 25.2311 14.4793Z" fill="#332C36"/>
<path d="M24.8182 14.4792C24.8182 15.269 24.1778 15.9092 23.3879 15.9092C22.5982 15.9092 21.958 15.2689 21.958 14.4792C21.958 13.6894 22.5982 13.049 23.3879 13.049C24.1778 13.0491 24.8182 13.6894 24.8182 14.4792Z" fill="white"/>
<path d="M23.7354 14.4793C23.7354 14.6717 23.5794 14.8278 23.3868 14.8278C23.1943 14.8278 23.0381 14.6717 23.0381 14.4793C23.0381 14.2868 23.1943 14.1306 23.3868 14.1306C23.5794 14.1306 23.7354 14.2868 23.7354 14.4793Z" fill="#332C36"/>
<path d="M23.0482 13.426L23.2714 13.9658C23.2953 14.0237 23.3395 14.0594 23.3874 14.0594C23.4354 14.0594 23.4796 14.0238 23.5034 13.9658L23.7296 13.4189C23.7536 13.361 23.7536 13.2896 23.7296 13.2317C23.7056 13.1738 23.6614 13.1381 23.6136 13.1381H23.1614C23.0873 13.1381 23.0273 13.222 23.0273 13.3253C23.0273 13.3624 23.035 13.397 23.0482 13.426Z" fill="#332C36"/>
<path d="M22.2866 14.4849L22.869 14.4395C22.9315 14.4347 22.979 14.4036 22.9939 14.3581C23.0087 14.3126 22.9884 14.2595 22.9406 14.2188L22.4903 13.8348C22.4427 13.7941 22.3748 13.7721 22.3123 13.777C22.2499 13.7819 22.2023 13.8129 22.1875 13.8584L22.0477 14.2884C22.0477 14.2884 22.0477 14.2885 22.0477 14.2886C22.0249 14.359 22.0862 14.442 22.1844 14.4739C22.2197 14.4853 22.2549 14.4886 22.2866 14.4849Z" fill="#332C36"/>
<path d="M23.0585 15.5369L23.1954 14.969C23.2101 14.9081 23.1952 14.8532 23.1565 14.8252C23.1179 14.797 23.061 14.7998 23.0076 14.8327L22.5033 15.1421C22.4499 15.1749 22.4079 15.2327 22.3932 15.2937C22.3786 15.3545 22.3935 15.4095 22.4322 15.4376L22.7979 15.7034C22.798 15.7034 22.798 15.7034 22.7981 15.7034C22.8579 15.7469 22.9557 15.7144 23.0164 15.6308C23.0382 15.6007 23.0523 15.5682 23.0585 15.5369Z" fill="#332C36"/>
<path d="M24.2966 15.128L23.7988 14.8225C23.7454 14.7896 23.6887 14.7869 23.6499 14.815C23.6114 14.8431 23.5963 14.898 23.611 14.9589L23.7496 15.5342C23.7643 15.5951 23.8062 15.6529 23.8596 15.6857C23.913 15.7184 23.9699 15.7213 24.0086 15.6932L24.3744 15.4274C24.3744 15.4273 24.3744 15.4273 24.3744 15.4273C24.4342 15.3838 24.4337 15.2807 24.3729 15.1972C24.351 15.1672 24.3245 15.1437 24.2966 15.128Z" fill="#332C36"/>
<path d="M24.2914 13.8236L23.8471 14.2026C23.7992 14.2432 23.779 14.2963 23.7938 14.3418C23.8085 14.3873 23.8561 14.4185 23.9186 14.4233L24.5085 14.4693C24.5711 14.4743 24.6391 14.4521 24.6867 14.4115C24.7343 14.3708 24.7547 14.3176 24.7397 14.2721L24.6002 13.8421C24.6002 13.8421 24.6002 13.8421 24.6 13.842C24.5772 13.7717 24.4789 13.7405 24.3806 13.7724C24.3454 13.7839 24.3148 13.8019 24.2914 13.8236Z" fill="#332C36"/>
<path d="M13.9287 10.7452V12.0383C14.7167 12.564 15.2358 13.4611 15.2358 14.4794H19.6387V10.7452" stroke="#FAD024" stroke-width="2" stroke-miterlimit="10" stroke-linecap="round"/>
<path d="M9.70336 15.1023C9.70336 15.3312 9.51778 15.5168 9.28887 15.5168H8.02587C7.79692 15.5168 7.61133 15.3312 7.61133 15.1023V14.6049C7.61133 14.3759 7.79692 14.1903 8.02587 14.1903H9.28887C9.51778 14.1903 9.70336 14.3759 9.70336 14.6049V15.1023Z" fill="#EAAF0B"/>
<path d="M27.6295 15.1023C27.6295 15.3312 27.4439 15.5168 27.2149 15.5168H26.5834C26.3545 15.5168 26.1689 15.3312 26.1689 15.1023V14.6049C26.1689 14.3759 26.3545 14.1903 26.5834 14.1903H27.2149C27.4439 14.1903 27.6295 14.3759 27.6295 14.6049V15.1023Z" fill="#EAAF0B"/>
<path d="M19.8975 7.68408H19.7139V10.6382H19.8975V7.68408Z" fill="#FAD024"/>
<path d="M9.6028 11.9918C9.34968 12.3716 9.2446 12.7464 9.36827 12.8287C9.4919 12.9111 9.79728 12.67 10.0504 12.2902C10.3037 11.9103 10.4086 11.5356 10.285 11.4532C10.1615 11.3709 9.85602 11.612 9.6028 11.9918Z" fill="white"/>
<path d="M26.7959 12.5827C26.8602 12.7573 26.7708 12.9509 26.5962 13.0151C26.4218 13.0794 26.2281 12.99 26.1638 12.8155L26.013 12.4058C25.9488 12.2313 26.0382 12.0377 26.2126 11.9735C26.3871 11.9092 26.5807 11.9986 26.645 12.1731L26.7959 12.5827Z" fill="#F4684D"/>
<mask id="mask17_250_1008" style="mask-type:luminance" maskUnits="userSpaceOnUse" x="14" y="7" width="10" height="4">
<path d="M23.8046 10.4258C23.641 10.2455 23.469 10.072 23.2888 9.90645C22.0788 8.79415 20.5221 8.03223 18.9776 7.85472C18.5009 7.79996 15.1592 7.52543 14.0342 10.4258H23.8046Z" fill="white"/>
</mask>
<g mask="url(#mask17_250_1008)">
<path opacity="0.4" d="M14.6492 6.55961L13.9287 7.28009L18.4134 11.7648L19.1339 11.0443L14.6492 6.55961Z" fill="white"/>
<path opacity="0.3" d="M19.8964 7.10882L19.5361 7.46906L24.0208 11.9537L24.3811 11.5935L19.8964 7.10882Z" fill="white"/>
<path opacity="0.2" d="M15.5058 6.17376L15.3252 6.35443L19.8106 10.8385L19.9912 10.6578L15.5058 6.17376Z" fill="white"/>
</g>
<path opacity="0.8" d="M22.1691 12.739H13.8728L13.2275 13.3693H21.5816C21.7328 13.1214 21.9334 12.907 22.1691 12.739Z" fill="url(#paint6_linear_250_1008)"/>
<defs>
<linearGradient id="paint0_linear_250_1008" x1="18.9181" y1="3.85989" x2="18.9181" y2="2.3811" gradientUnits="userSpaceOnUse">
<stop stop-color="white"/>
<stop offset="1" stop-color="#C1D3EB"/>
</linearGradient>
<linearGradient id="paint1_linear_250_1008" x1="18.9174" y1="11.5458" x2="18.9174" y2="3.12058" gradientUnits="userSpaceOnUse">
<stop stop-color="white"/>
<stop offset="1" stop-color="#C1D3EB"/>
</linearGradient>
<linearGradient id="paint2_linear_250_1008" x1="14.1463" y1="12.9901" x2="14.1463" y2="0.318619" gradientUnits="userSpaceOnUse">
<stop stop-color="white"/>
<stop offset="1" stop-color="#C1D3EB"/>
</linearGradient>
<linearGradient id="paint3_linear_250_1008" x1="9.0516" y1="12.9902" x2="9.0516" y2="6.24061" gradientUnits="userSpaceOnUse">
<stop stop-color="white"/>
<stop offset="1" stop-color="#C1D3EB"/>
</linearGradient>
<linearGradient id="paint4_linear_250_1008" x1="24.1705" y1="12.9669" x2="24.1705" y2="2.6778" gradientUnits="userSpaceOnUse">
<stop stop-color="white"/>
<stop offset="1" stop-color="#C1D3EB"/>
</linearGradient>
<linearGradient id="paint5_linear_250_1008" x1="23.7381" y1="12.374" x2="23.7381" y2="4.83834" gradientUnits="userSpaceOnUse">
<stop stop-color="white"/>
<stop offset="1" stop-color="#C1D3EB"/>
</linearGradient>
<linearGradient id="paint6_linear_250_1008" x1="13.2276" y1="13.0541" x2="22.1692" y2="13.0541" gradientUnits="userSpaceOnUse">
<stop stop-opacity="0"/>
<stop offset="0.0455" stop-color="#141414" stop-opacity="0.0458"/>
<stop offset="0.1977" stop-color="#515151" stop-opacity="0.1987"/>
<stop offset="0.3487" stop-color="#868686" stop-opacity="0.3506"/>
<stop offset="0.4949" stop-color="#B2B2B2" stop-opacity="0.4976"/>
<stop offset="0.6354" stop-color="#D3D3D3" stop-opacity="0.6388"/>
<stop offset="0.7686" stop-color="#EBEBEB" stop-opacity="0.7728"/>
<stop offset="0.8916" stop-color="#FAFAFA" stop-opacity="0.8964"/>
<stop offset="0.9946" stop-color="white"/>
</linearGradient>
</defs>
</svg>
