<svg width="20" height="30" viewBox="0 0 20 30" fill="none" xmlns="http://www.w3.org/2000/svg">
<path d="M18.8194 13.5612C18.7867 13.6404 18.8141 13.7501 18.8765 13.8765C18.8765 13.8772 18.8773 13.8772 18.8773 13.878C19.0098 14.1438 19.297 14.4835 19.4889 14.7637C19.6107 14.9411 19.6945 15.0958 19.6747 15.1932C19.6747 15.194 19.6747 15.194 19.6747 15.1948C19.6709 15.2153 19.6633 15.2336 19.6488 15.248C19.6397 15.2587 19.6298 15.2686 19.6199 15.2792C19.54 15.3661 19.4569 15.4483 19.3709 15.5275C19.3701 15.529 19.3694 15.529 19.3679 15.5305C19.2102 15.679 19.0419 15.8184 18.8576 15.9646L18.8568 15.9654C18.7951 16.0149 18.7319 16.0644 18.6664 16.1162C18.5849 16.1802 18.5644 16.2548 18.5857 16.3393V16.3401C18.6459 16.5838 19.0579 16.893 19.3313 17.1489C19.4745 17.2822 19.5803 17.401 19.5788 17.4885C19.5788 17.4893 19.5788 17.4893 19.5788 17.4901C19.5781 17.5022 19.5758 17.5144 19.5705 17.5258C19.1173 18.522 18.6619 19.2546 18.2803 19.8099C18.2795 19.8099 18.2795 19.8106 18.2795 19.8106C18.2171 19.9028 18.1554 19.9904 18.096 20.0741C17.8302 20.4488 17.6154 20.7306 17.4859 20.9584C17.3595 21.18 17.1828 21.4283 16.965 21.7001C16.604 22.151 16.1303 22.6651 15.5858 23.2241C15.47 23.3421 15.3512 23.4624 15.2301 23.585C15.1646 23.6513 15.0976 23.7176 15.0306 23.7846C14.9088 23.9064 14.7839 24.0298 14.6574 24.1547C13.7511 25.0496 12.7374 26.0199 11.7572 27C10.8837 27.8728 10.3986 29.0704 10.0496 30H0.455078C2.07565 27.3595 3.9767 24.8561 3.83884 23.6604C3.55249 21.1798 2.84648 16.7169 3.32778 15.4565C3.97435 13.7657 4.30033 12.6324 4.71163 11.4253C4.85709 10.9973 4.96602 10.442 5.07648 9.90366V9.9029C5.07724 9.90138 5.07724 9.8991 5.078 9.89758C5.09857 9.80011 5.11838 9.70491 5.13895 9.60971C5.14275 9.59293 5.14579 9.57699 5.15034 9.55945C5.15945 9.51983 5.16864 9.47799 5.17851 9.43457C5.20667 9.31045 5.2356 9.18936 5.26611 9.07435C5.26991 9.05986 5.27295 9.04619 5.27681 9.03169C5.27833 9.02637 5.27985 9.02106 5.28137 9.01567C5.46721 8.33252 5.70938 7.85577 6.12827 8.01572C6.14809 8.02331 6.16714 8.03098 6.18537 8.03933H6.18613C6.71769 8.26321 7.00487 8.68058 7.11829 9.26854C7.11829 9.27006 7.11905 9.27082 7.11905 9.27234C7.20134 9.69579 7.19215 10.2076 7.11905 10.7979C7.11905 10.8001 7.11829 10.8016 7.11829 10.8039C7.07714 11.1383 7.01626 11.497 6.93928 11.8801C6.6278 13.4261 6.6171 15.1375 6.80674 15.423C6.84098 15.4733 6.9484 15.4505 7.11822 15.3667L7.11898 15.366C7.17303 15.3393 7.23475 15.3058 7.30254 15.2662C7.30254 15.2654 7.3033 15.2654 7.3033 15.2654C8.02608 14.842 9.44721 13.7423 11.0854 12.5084C11.173 12.4429 11.2613 12.3767 11.3496 12.3096C11.6071 12.1162 11.8691 11.9205 12.1341 11.7239C12.3519 11.5625 12.572 11.4002 12.7936 11.2388C14.7136 9.83676 16.7021 8.49709 18.0958 7.96394C18.1583 7.94033 18.22 7.91748 18.2794 7.89843H18.2802C19.0661 7.62727 19.6373 7.64708 19.8605 8.10788C20.1903 8.79028 19.5079 9.76131 18.2802 10.8634L18.2794 10.8641C18.22 10.9182 18.1583 10.9731 18.0958 11.0271C17.8909 11.2053 17.6724 11.3873 17.4424 11.5717C17.3791 11.6219 17.3152 11.6729 17.2497 11.7239C17.0037 11.9166 16.7463 12.1124 16.4782 12.3096C16.389 12.3759 16.2984 12.4422 16.2062 12.5084C16.0806 12.5998 15.9519 12.6912 15.8224 12.7834C15.584 12.9525 16.0562 12.7613 16.7455 12.5084C16.9198 12.4444 17.108 12.3767 17.3022 12.3096C17.4995 12.2411 17.7036 12.174 17.9047 12.1132H17.9054C17.9641 12.0949 18.022 12.0781 18.0791 12.0621C18.0844 12.0606 18.0905 12.0591 18.0958 12.0576C18.1576 12.04 18.2192 12.0233 18.2794 12.0073H18.2802C18.4538 11.9609 18.6221 11.9228 18.7782 11.8961H18.779C19.0281 11.8519 19.2466 11.8367 19.4081 11.8664H19.4089C19.5794 11.8969 19.6869 11.9754 19.7044 12.1193C19.7052 12.1208 19.7052 12.1216 19.7052 12.1231C19.7059 12.1284 19.7067 12.1337 19.7067 12.1391C19.7234 12.4103 19.5132 12.9388 18.8643 13.5009C18.8438 13.5185 18.8293 13.5391 18.8194 13.5612Z" fill="#FF9561"/>
<path d="M19.8182 14.4805C19.9036 15.0614 19.4916 15.6031 19.0213 15.6723C18.551 15.7414 18.2007 15.3119 18.1152 14.731C18.0298 14.1501 18.2415 13.6379 18.7117 13.5687C19.182 13.4995 19.7327 13.8996 19.8182 14.4805Z" fill="#FF9561"/>
<path d="M19.6903 16.8016C19.7919 17.3553 19.4155 17.8884 18.9673 17.9707C18.5191 18.053 18.1688 17.6533 18.0672 17.0996C17.9655 16.5459 18.151 16.0479 18.5992 15.9656C19.0474 15.8833 19.5887 16.2479 19.6903 16.8016Z" fill="#FF9561"/>
<path d="M18.5706 14.0457C18.7286 14.166 19.0737 14.4918 19.103 15.0586C19.1053 15.1031 19.1538 15.1288 19.19 15.103C19.3617 14.9811 19.7114 14.6569 19.4564 14.1717C19.2347 13.7497 18.7787 13.8733 18.5839 13.9507C18.5439 13.9665 18.5363 14.0196 18.5706 14.0457Z" fill="#FFCCB8"/>
<path d="M19.6949 11.8971C19.7844 12.5055 19.3527 13.0731 18.8601 13.1455C18.3676 13.218 18.0006 12.7681 17.911 12.1595C17.8215 11.5511 18.0433 11.0144 18.5359 10.942C19.0285 10.8695 19.6053 11.2885 19.6949 11.8971Z" fill="#FF9561"/>
<path d="M18.389 11.4418C18.5545 11.5678 18.916 11.9091 18.9467 12.5028C18.9491 12.5494 18.9999 12.5763 19.0379 12.5494C19.2176 12.4216 19.584 12.0821 19.317 11.5738C19.0847 11.1317 18.607 11.2612 18.403 11.3423C18.361 11.3589 18.3531 11.4144 18.389 11.4418Z" fill="#FFCCB8"/>
<path d="M18.5308 16.4472C18.676 16.559 18.9823 16.8532 19.0096 17.3609C19.0118 17.4024 19.06 17.4247 19.0937 17.4004C19.2512 17.287 19.56 16.9942 19.3308 16.558C19.1314 16.1786 18.7236 16.2848 18.5438 16.3552C18.5049 16.3704 18.4977 16.4217 18.5308 16.4472Z" fill="#FFCCB8"/>
<path d="M5.12148 9.97896C5.30456 10.0798 5.91392 10.3231 6.20393 8.14632C6.21401 8.07072 6.17839 7.99569 6.11425 7.95868C5.99151 7.88779 5.79056 7.79431 5.67472 7.861C5.51401 7.95357 5.15089 9.53749 5.07999 9.88445C5.07233 9.92214 5.08869 9.96087 5.12148 9.97896Z" fill="#FFCCB8"/>
<path d="M17.3132 24.1554H8.08644C7.55219 24.1554 7.11914 23.7224 7.11914 23.1881V1.87642C7.11914 1.34217 7.55226 0.909119 8.08644 0.909119H17.3132C17.8475 0.909119 18.2805 1.34217 18.2805 1.87642V23.1881C18.2805 23.7223 17.8474 24.1554 17.3132 24.1554Z" fill="#141466"/>
<path d="M17.6204 23.5854H7.77872C7.51584 23.5854 7.30273 23.3723 7.30273 23.1094V2.08195C7.30273 1.81906 7.51584 1.60596 7.77872 1.60596H17.6204C17.8833 1.60596 18.0964 1.81906 18.0964 2.08195V23.1094C18.0964 23.3724 17.8833 23.5854 17.6204 23.5854Z" fill="#EFEFEF"/>
<path d="M17.629 11.5718H7.77227C7.51892 11.5718 7.31348 11.3664 7.31348 11.113V2.05365C7.31348 1.80029 7.51885 1.59485 7.77227 1.59485H17.629C17.8823 1.59485 18.0878 1.80022 18.0878 2.05365V11.113C18.0878 11.3663 17.8823 11.5718 17.629 11.5718Z" fill="#FFB0B1"/>
<path d="M17.4515 2.11283H7.94932C7.91798 2.11283 7.89258 2.08743 7.89258 2.05609V1.97117C7.89258 1.93983 7.91798 1.91443 7.94932 1.91443H17.4515C17.4829 1.91443 17.5083 1.93983 17.5083 1.97117V2.05609C17.5082 2.08743 17.4828 2.11283 17.4515 2.11283Z" fill="#F28B95"/>
<path d="M17.629 21.7007H7.77227C7.51892 21.7007 7.31348 21.4953 7.31348 21.2419V12.1826C7.31348 11.9293 7.51885 11.7238 7.77227 11.7238H17.629C17.8823 11.7238 18.0878 11.9292 18.0878 12.1826V21.2419C18.0878 21.4953 17.8823 21.7007 17.629 21.7007Z" fill="#B0C6F9"/>
<path d="M13.9884 0.977459H11.4126C11.3336 0.977459 11.2695 0.96455 11.2695 0.948603C11.2695 0.932656 11.3336 0.919678 11.4126 0.919678H13.9884C14.0674 0.919678 14.1315 0.932587 14.1315 0.948603C14.1315 0.96455 14.0674 0.977459 13.9884 0.977459Z" fill="#000035"/>
<path d="M12.4639 1.24014C12.4639 1.10967 12.5696 1.00391 12.7001 1.00391C12.8306 1.00391 12.9364 1.10967 12.9364 1.24014C12.9364 1.37061 12.8306 1.47644 12.7001 1.47644C12.5696 1.47644 12.4639 1.37068 12.4639 1.24014Z" fill="#72706F"/>
<path d="M12.6211 1.24014C12.6211 1.19665 12.6564 1.16138 12.6999 1.16138C12.7434 1.16138 12.7786 1.19665 12.7786 1.24014C12.7786 1.28364 12.7434 1.31891 12.6999 1.31891C12.6563 1.31891 12.6211 1.28364 12.6211 1.24014Z" stroke="#050101" stroke-width="1.1408" stroke-miterlimit="10"/>
<path d="M14.6637 22.8062C14.7527 22.4309 14.5207 22.0545 14.1454 21.9655C13.7701 21.8765 13.3937 22.1086 13.3047 22.4838C13.2157 22.8591 13.4478 23.2355 13.823 23.3245C14.1983 23.4135 14.5747 23.1815 14.6637 22.8062Z" fill="#09B758"/>
<path d="M14.3353 22.9835C14.319 23.0057 14.2935 23.0199 14.2659 23.0208C14.1827 23.0235 14.0609 22.9664 13.9429 22.8664C13.9385 22.8627 13.9342 22.859 13.9298 22.855C13.9128 22.8401 13.8959 22.8244 13.8793 22.8077C13.8627 22.791 13.8469 22.7741 13.8319 22.7571C13.8281 22.7528 13.8243 22.7484 13.8205 22.744C13.7204 22.6259 13.6632 22.504 13.6661 22.4208C13.6671 22.3933 13.6812 22.3679 13.7033 22.3516C13.7073 22.3487 13.7123 22.3452 13.7177 22.3416C13.7345 22.3304 13.7673 22.3251 13.7876 22.3228C13.7977 22.3217 13.8075 22.327 13.8119 22.3364C13.8348 22.3855 13.8675 22.439 13.9086 22.4936C13.9149 22.502 13.9151 22.5134 13.9092 22.5221C13.901 22.534 13.8933 22.5459 13.8862 22.5577C13.8693 22.5858 13.8645 22.6296 13.8852 22.655C13.8926 22.6639 13.9003 22.673 13.9082 22.682C13.9231 22.6988 13.9386 22.7154 13.9551 22.7319C13.9716 22.7484 13.9882 22.7639 14.005 22.7788L14.0051 22.7789C14.0141 22.7867 14.0231 22.7944 14.0321 22.8018C14.0575 22.8226 14.1013 22.8177 14.1295 22.8008C14.1427 22.7928 14.1561 22.7841 14.1694 22.7747C14.1779 22.7689 14.1891 22.7689 14.1974 22.7748C14.2512 22.8128 14.3033 22.8422 14.3505 22.8616C14.3586 22.865 14.3642 22.8722 14.3655 22.8808C14.3655 22.8811 14.3656 22.8813 14.3656 22.8816C14.3701 22.9122 14.3625 22.9434 14.3453 22.9692C14.3418 22.9744 14.3383 22.9795 14.3353 22.9835Z" fill="white"/>
<path d="M11.9119 22.1496C12.1846 22.4224 12.1846 22.8646 11.9119 23.1372C11.6392 23.4099 11.197 23.41 10.9243 23.1372C10.6515 22.8645 10.6515 22.4223 10.9243 22.1496C11.197 21.877 11.6391 21.877 11.9119 22.1496Z" fill="#EF4945"/>
<path d="M10.9308 22.6512C10.9266 22.6239 10.9346 22.5958 10.9535 22.5757C11.0103 22.5149 11.1368 22.4692 11.291 22.4566C11.2967 22.4561 11.3024 22.4557 11.3083 22.4553C11.3309 22.4539 11.3539 22.4531 11.3775 22.4531C11.4011 22.4531 11.4242 22.4539 11.4468 22.4553C11.4526 22.4557 11.4584 22.4561 11.4641 22.4566C11.6185 22.4692 11.7451 22.5151 11.8019 22.5759C11.8206 22.5961 11.8286 22.6241 11.8245 22.6512C11.8238 22.656 11.8227 22.662 11.8214 22.6684C11.8175 22.6883 11.798 22.7151 11.7853 22.7311C11.7789 22.7391 11.7682 22.7422 11.7586 22.7387C11.7077 22.7201 11.6466 22.7054 11.5789 22.6959C11.5686 22.6944 11.5603 22.6865 11.5584 22.6762C11.5558 22.662 11.5528 22.6481 11.5495 22.6347C11.5416 22.6029 11.514 22.5685 11.4814 22.5652C11.4698 22.5641 11.4581 22.5631 11.4462 22.5623C11.4237 22.561 11.4009 22.5602 11.3776 22.5602C11.3543 22.5602 11.3316 22.561 11.3092 22.5623H11.3091C11.2971 22.5632 11.2854 22.5641 11.2738 22.5652C11.2411 22.5685 11.2136 22.6029 11.2056 22.6348C11.2019 22.6499 11.1986 22.6655 11.1958 22.6815C11.194 22.6916 11.1861 22.6995 11.176 22.7012C11.1111 22.7124 11.0534 22.7284 11.0063 22.7481C10.9982 22.7515 10.9891 22.7503 10.9821 22.7451C10.9819 22.745 10.9817 22.7449 10.9815 22.7447C10.9566 22.7263 10.9399 22.6988 10.9339 22.6684C10.9326 22.6622 10.9315 22.656 10.9308 22.6512Z" fill="white"/>
<path d="M17.4515 12.5086H7.94932C7.91798 12.5086 7.89258 12.4832 7.89258 12.4518V12.3669C7.89258 12.3356 7.91798 12.3102 7.94932 12.3102H17.4515C17.4829 12.3102 17.5083 12.3356 17.5083 12.3669V12.4518C17.5082 12.4832 17.4828 12.5086 17.4515 12.5086Z" fill="#9EBAEF"/>
<mask id="mask0_250_1406" style="mask-type:luminance" maskUnits="userSpaceOnUse" x="7" y="2" width="11" height="10">
<path d="M17.6266 2.1311H7.77539V11.5715H17.6266V2.1311Z" fill="white"/>
</mask>
<g mask="url(#mask0_250_1406)">
<path d="M14.5829 8.38003C14.6408 8.46991 14.683 8.57201 14.7049 8.68344L14.9741 10.0589L13.3606 10.4146L13.0122 9.06761C12.8872 8.58361 13.1957 8.0943 13.6862 7.99807C14.0454 7.92779 14.396 8.08995 14.5829 8.38003Z" fill="#EF4945"/>
<path d="M14.9749 10.059L15.3353 11.9019L15.3811 12.1354C15.4473 12.4768 15.1851 12.8831 14.8156 12.9575C14.4023 13.0407 13.9632 12.8431 13.882 12.4289L13.8317 12.2333L13.3613 10.4146L14.9749 10.059Z" fill="#FF9561"/>
<path d="M12.7961 3.26698C12.3442 3.31655 12.3141 3.80848 12.7404 3.96637C12.9383 4.03968 10.171 8.30155 10.4113 8.68151C10.7187 9.16758 11.8436 9.82257 13.9231 9.40588C15.2722 9.13555 14.0365 7.79622 14.1287 5.8405C14.1575 5.23024 14.1447 3.90727 13.574 3.59027C13.1967 3.38068 13.0575 3.23827 12.7961 3.26698Z" fill="#320201"/>
<path d="M12.9569 6.8538C12.9569 6.8538 12.8979 7.56188 13.1142 7.71921C13.3306 7.87654 13.8945 7.73888 14.2222 7.99459C14.5501 8.25029 14.6877 9.7448 13.606 9.79071C12.5242 9.83661 11.2457 9.89591 10.8524 9.76475C10.459 9.63359 9.58462 8.37406 10.2623 8.07287C10.7408 7.86018 11.1736 7.97491 11.3113 7.54221C11.4489 7.1095 11.6291 6.00765 11.7571 6.02767C11.8852 6.04783 12.857 6.64732 12.9569 6.8538Z" fill="#FF9561"/>
<path d="M11.7569 6.0802C11.885 6.10022 12.8568 6.69978 12.9567 6.90626C12.9567 6.90626 12.9498 6.99041 12.9494 7.10715C12.9159 7.11046 12.8819 7.11274 12.8469 7.11274C12.6412 7.11274 12.4302 7.05516 12.2331 6.94885C11.9184 6.77924 11.7085 6.07261 11.7569 6.0802Z" fill="#FD6B42"/>
<path d="M12.6936 3.35448C13.4724 3.3065 13.9391 4.10032 14.0013 5.11112C14.0635 6.12198 13.6978 6.96702 12.919 7.01493C12.1403 7.06291 11.2434 6.2956 11.1812 5.28474C11.1189 4.27394 11.9149 3.40246 12.6936 3.35448Z" fill="#FF9561"/>
<path d="M12.7958 3.26711C13.0572 3.23839 13.2788 3.31833 13.5686 3.50665C14.1161 3.86239 14.2863 4.74022 14.2306 5.34861C14.1219 6.5351 14.2575 7.32029 14.0043 6.76491C13.8104 6.33952 14.012 6.03364 13.9834 5.32017C13.975 4.71916 13.4827 4.35542 12.6777 4.15771C12.2363 4.04926 12.344 3.31667 12.7958 3.26711Z" fill="#320201"/>
<path d="M12.4828 4.3319C11.951 4.46728 11.4043 5.16915 11.627 6.31683C11.7492 6.94677 11.3227 7.71815 10.8824 7.8984C10.202 8.17688 11.7438 8.47393 11.8467 9.1983C12.0642 10.729 9.22542 10.7278 8.9004 9.20569C8.64443 8.00678 9.90084 7.53466 10.1712 6.82996C10.4825 6.01888 10.2303 4.99753 10.6009 4.27267C10.9803 3.53063 11.4592 3.1974 12.1113 3.15729C13.1688 3.0924 13.0216 4.1948 12.4828 4.3319Z" fill="#320201"/>
<path d="M14.4599 12.9094C14.1272 12.7642 13.9753 12.3768 14.1205 12.0441L16.0787 9.09149L16.724 9.36576L15.3251 12.57C15.18 12.9027 14.7925 13.0547 14.4599 12.9094Z" fill="#FF9561"/>
<path d="M16.6552 9.48196L17.0581 8.84713C17.2509 8.39109 17.1298 7.65112 17.1298 7.65112C17.0961 7.51008 16.9657 7.41385 16.821 7.42317H16.8206C16.7276 7.42917 16.6427 7.47833 16.5912 7.55606L16.3282 8.08824C16.2702 8.17598 16.2306 8.2747 16.212 8.37825L16.0361 9.15309L16.6552 9.48196Z" fill="#FF9561"/>
<path d="M16.2712 8.24083C16.2694 8.17429 16.2612 8.11229 16.2468 8.05872L16.197 7.87344C16.1843 7.82601 16.1602 7.79943 16.132 7.80178H16.1319C16.088 7.8053 16.0444 7.87703 16.0287 7.97153L15.987 8.22199C15.9643 8.35826 15.9669 8.49612 15.9944 8.60409L16.0932 8.99275L16.2952 8.73622L16.2712 8.24083Z" fill="#FF9561"/>
<path d="M13.4073 6.26543L12.5742 6.2287C12.5742 6.2287 12.6377 6.48143 13.0558 6.47563C13.2772 6.4726 13.4073 6.26543 13.4073 6.26543Z" fill="white"/>
<path d="M12.0981 5.27377C12.1105 5.27612 12.1236 5.27391 12.1344 5.26645C12.3145 5.14309 12.6835 5.19756 12.6872 5.19811C12.7126 5.20197 12.7361 5.18609 12.7395 5.16255C12.7429 5.13901 12.7234 5.11596 12.6996 5.11299C12.6829 5.11043 12.2882 5.05238 12.0778 5.19652C12.0574 5.2104 12.0535 5.23739 12.0692 5.25672C12.0766 5.26583 12.087 5.27163 12.0981 5.27377Z" fill="#340819"/>
<path d="M13.432 5.24055C13.438 5.24165 13.4442 5.24152 13.4504 5.23979C13.4536 5.23889 13.7659 5.15529 13.9271 5.26803C13.9461 5.28135 13.9719 5.27617 13.9849 5.25684C13.998 5.23744 13.9933 5.211 13.9745 5.19782C13.7819 5.063 13.4438 5.15384 13.4295 5.15778C13.4073 5.16392 13.394 5.18719 13.3998 5.20983C13.4039 5.22612 13.4168 5.23765 13.432 5.24055Z" fill="#340819"/>
<path d="M12.4137 5.60818L12.4905 5.61157C12.5556 5.6144 12.6121 5.56062 12.6162 5.49193L12.6187 5.45051C12.6227 5.38189 12.5729 5.32335 12.5079 5.32045L12.4311 5.31707C12.3661 5.31417 12.3095 5.36801 12.3055 5.4367L12.303 5.47812C12.2988 5.54674 12.3487 5.60528 12.4137 5.60818Z" fill="#340819"/>
<path d="M12.1773 5.47933C12.1857 5.48092 12.1948 5.47829 12.2011 5.4716C12.3882 5.27285 12.5565 5.39041 12.5636 5.39559C12.5752 5.40401 12.5915 5.40139 12.5999 5.38972C12.6083 5.37806 12.6057 5.36183 12.594 5.35348C12.592 5.35189 12.3813 5.20437 12.1633 5.43598C12.1535 5.4464 12.154 5.4629 12.1644 5.4727C12.1682 5.47629 12.1727 5.4785 12.1773 5.47933Z" fill="#340819"/>
<path d="M13.6741 5.62329L13.5972 5.62225C13.5322 5.62135 13.4788 5.5644 13.4786 5.49557L13.4785 5.45402C13.4784 5.38526 13.5315 5.32969 13.5966 5.33051L13.6735 5.33155C13.7385 5.33245 13.7919 5.3894 13.792 5.45823L13.7921 5.49979C13.7923 5.56854 13.7391 5.62412 13.6741 5.62329Z" fill="#340819"/>
<path d="M13.9188 5.50815C13.9103 5.50925 13.9014 5.50614 13.8955 5.4991C13.7202 5.28993 13.5454 5.39762 13.538 5.40239C13.526 5.41012 13.5098 5.4066 13.5021 5.39445C13.4944 5.38237 13.4979 5.36628 13.5101 5.35862C13.5122 5.35717 13.731 5.222 13.9353 5.46576C13.9445 5.47674 13.9431 5.49317 13.9321 5.50235C13.9282 5.50559 13.9235 5.50752 13.9188 5.50815Z" fill="#340819"/>
<path d="M13.1294 6.03435C13.1336 6.03518 13.1381 6.03491 13.1424 6.03346C13.2379 6.00136 13.2848 5.86646 13.247 5.73275C13.2431 5.71908 13.2288 5.71121 13.2151 5.715C13.2014 5.71887 13.1934 5.73316 13.1974 5.7469C13.2274 5.85266 13.1947 5.96159 13.126 5.98465C13.1125 5.98921 13.1052 6.00377 13.1098 6.0173C13.1129 6.02642 13.1206 6.03263 13.1294 6.03435Z" fill="#FD6B42"/>
<path d="M14.3765 11.0684C14.5582 10.3011 14.2967 9.90544 14.3772 9.64739C14.4478 9.42117 14.7481 8.97542 14.7397 8.86317C14.708 8.43916 14.4244 7.80164 13.5036 7.80164C13.5036 7.80164 12.6271 8.76549 10.9801 7.85721C10.9801 7.85721 10.9534 7.85175 10.9084 7.84816C10.5369 7.8073 9.26459 7.81386 9.36172 9.1119C9.41722 9.85353 9.65587 11.4981 9.45326 13.0873C9.42433 13.3143 13.0998 13.3215 13.9788 13.0989C13.9859 12.1276 14.2119 11.7634 14.3765 11.0684Z" fill="#EF4945"/>
<path d="M11.0709 8.89336C11.0709 9.00023 11.0511 9.10902 11.0092 9.21451L10.4904 10.5166L8.94141 9.94157L9.37818 8.62061C9.5353 8.14607 10.0596 7.90183 10.524 8.08663C10.864 8.22208 11.0709 8.54826 11.0709 8.89336Z" fill="#EF4945"/>
<path d="M10.4902 10.5165L9.79496 12.2609L9.70694 12.482C9.55079 12.8742 9.10655 13.0653 8.71451 12.9092C8.32288 12.7529 8.13166 12.3088 8.28788 11.9167L8.35146 11.7251L8.94122 9.94153L10.4902 10.5165Z" fill="#FF9561"/>
<path d="M8.2334 12.265C8.2334 11.8787 8.54654 11.5656 8.93278 11.5656L12.4913 12.3451L12.4984 12.9643H8.93278C8.54654 12.9644 8.2334 12.6512 8.2334 12.265Z" fill="#FF9561"/>
</g>
<mask id="mask1_250_1406" style="mask-type:luminance" maskUnits="userSpaceOnUse" x="7" y="12" width="11" height="10">
<path d="M7.77185 21.7004H17.623V12.26L7.77185 12.26L7.77185 21.7004Z" fill="white"/>
</mask>
<g mask="url(#mask1_250_1406)">
<path d="M13.9375 18.2296C13.9375 18.3444 13.9588 18.4611 14.0038 18.5744L14.5608 19.9725L16.224 19.3551L15.755 17.9367C15.5863 17.4272 15.0233 17.165 14.5246 17.3633C14.1597 17.5088 13.9375 17.859 13.9375 18.2296Z" fill="#5757F2"/>
<path d="M14.5605 19.9724L15.3071 21.8454L15.4016 22.0829C15.5693 22.5039 16.0462 22.7092 16.4672 22.5415C16.8877 22.3738 17.093 21.8969 16.9253 21.4759L16.857 21.2701L16.2238 19.355L14.5605 19.9724Z" fill="#FF9561"/>
<path d="M11.4594 18.2296C11.4594 18.3444 11.4381 18.4611 11.3931 18.5744L10.8361 19.9725L9.17285 19.3551L9.64187 17.9367C9.81059 17.4272 10.3736 17.165 10.8723 17.3633C11.2373 17.5088 11.4594 17.859 11.4594 18.2296Z" fill="#5757F2"/>
<path d="M10.8363 19.9724L10.0898 21.8454L9.99527 22.0829C9.82759 22.5039 9.35063 22.7092 8.92967 22.5415C8.50918 22.3738 8.30388 21.8969 8.47156 21.4759L8.53983 21.2701L9.17308 19.355L10.8363 19.9724Z" fill="#FF9561"/>
<path d="M14.7369 17.1579L12.7035 16.8594H12.6943L10.6609 17.1579C9.9318 17.265 9.44435 17.9152 9.58746 18.5897L10.5164 19.5396L10.4895 22.9325H12.6451H12.7526H15.0804L14.9904 19.5581L15.8102 18.5897C15.9534 17.9152 15.466 17.265 14.7369 17.1579Z" fill="#5757F2"/>
<path d="M8.41309 21.7809C8.41309 21.3279 8.78028 20.9608 9.23321 20.9608L13.5877 21.7262L13.5961 22.6011H9.23321C8.78028 22.6011 8.41309 22.2339 8.41309 21.7809Z" fill="#FF9561"/>
<path d="M13.5088 21.7123L14.6818 21.5686C14.766 21.5518 14.8532 21.5754 14.9173 21.6324L15.5404 22.1858C15.6348 22.2696 15.6596 22.407 15.6005 22.5186C15.5386 22.6355 15.4018 22.6914 15.2757 22.6513L14.4274 22.3817L14.233 22.5194C14.0339 22.6603 13.7282 22.7053 13.5088 22.5989V21.7123Z" fill="#FF9561"/>
<path d="M11.943 15.896L11.8574 17.3179C11.8641 17.5885 12.0975 17.9299 12.6853 17.9385C13.4317 17.9495 13.6673 17.756 13.6504 17.076L13.6245 16.0288L11.943 15.896Z" fill="#FF9561"/>
<path d="M14.5086 15.279C14.5136 16.194 14.251 16.8854 13.5026 16.9039C12.7549 16.9224 11.8288 16.7355 11.8004 15.5892C11.7723 14.4487 12.6717 13.1941 13.5554 13.1722C14.4392 13.1504 14.5024 14.1381 14.5086 15.279Z" fill="#FF9561"/>
<path d="M13.382 16.9041C13.4782 16.9017 13.5667 16.8918 13.648 16.8741L13.6508 16.9889C12.8749 17.1926 12.4332 16.7263 12.6834 16.8111C12.9297 16.8946 13.0672 16.9118 13.382 16.9041Z" fill="#ED703E"/>
<path d="M12.4706 14.5217C12.4706 14.5217 12.8108 14.6307 13.2574 14.6579C13.8048 14.6914 14.1421 14.3212 14.3832 14.4137C15.215 14.733 14.6917 13.8499 14.3832 13.4574C14.1287 13.1335 13.6303 12.8763 13.1557 13.064C12.7508 13.2241 12.6437 13.1089 12.2844 13.0486C11.9973 13.0005 11.5414 13.1794 11.3963 13.5653C11.2511 13.9513 11.2785 14.2903 11.0824 14.6142C10.8403 15.0141 11.1465 15.7425 11.3963 15.9561C12.0377 16.5045 11.9578 16.8155 12.0254 16.4315C12.0932 16.0476 11.3886 15.7331 12.4706 14.5217Z" fill="#340819"/>
<path d="M11.7094 15.434C11.7148 15.6518 11.8178 15.7795 12.0042 15.7748C12.1905 15.7702 12.2883 15.6841 12.2829 15.4663C12.2775 15.2484 12.1209 15.0291 11.9345 15.0337C11.7482 15.0383 11.704 15.2161 11.7094 15.434Z" fill="#FF9561"/>
<path d="M12.0581 15.5318C12.0694 15.5318 12.0796 15.5239 12.0819 15.5125C12.1066 15.393 12.1141 15.3194 12.1061 15.2737C12.0924 15.196 12.0258 15.139 11.9501 15.139C11.9484 15.139 11.9466 15.139 11.9448 15.139C11.8409 15.1427 11.7984 15.24 11.7903 15.291C11.7883 15.3042 11.7973 15.3166 11.8105 15.3187C11.8237 15.3208 11.8362 15.3118 11.8384 15.2986C11.8391 15.2942 11.857 15.1908 11.9465 15.1876C12 15.1862 12.0482 15.2264 12.0582 15.2821C12.0671 15.333 12.0488 15.4323 12.0342 15.5025C12.0315 15.5157 12.04 15.5285 12.0531 15.5312C12.0548 15.5316 12.0565 15.5318 12.0581 15.5318Z" fill="#ED703E"/>
<path d="M11.9442 15.5347C11.9575 15.5347 11.9684 15.524 11.9686 15.5106C11.9688 15.4714 11.979 15.4432 11.9989 15.4267C12.0292 15.4016 12.0748 15.4094 12.0751 15.4095C12.0886 15.4116 12.1009 15.4032 12.1035 15.39C12.1059 15.3769 12.0974 15.3642 12.0842 15.3617C12.0814 15.3613 12.0165 15.3492 11.9683 15.3889C11.9366 15.415 11.9203 15.4558 11.9199 15.5102C11.9199 15.5236 11.9307 15.5346 11.9441 15.5347C11.9441 15.5347 11.9441 15.5347 11.9442 15.5347Z" fill="#ED703E"/>
<path d="M13.8844 16.2066L13.0537 16.1959C13.0537 16.1959 13.2223 16.4666 13.5457 16.4666C13.7663 16.4666 13.8844 16.2066 13.8844 16.2066Z" fill="white"/>
<path d="M12.556 15.1698C12.5454 15.1682 12.5353 15.1626 12.5283 15.1534C12.5139 15.1345 12.5176 15.1075 12.5364 15.0931C12.7326 14.9433 13.0513 15.0101 13.0646 15.013C13.0877 15.018 13.1024 15.0409 13.0975 15.0641C13.0924 15.0873 13.0704 15.1033 13.0464 15.0971C13.0438 15.0965 12.7528 15.036 12.5883 15.1615C12.5788 15.1689 12.5671 15.1715 12.556 15.1698Z" fill="#320201"/>
<path d="M13.8901 15.0781C13.8754 15.0759 13.8622 15.0661 13.8564 15.0511C13.8479 15.029 13.8588 15.0041 13.8808 14.9954C13.893 14.9907 14.181 14.8801 14.3932 15.0083C14.4135 15.0206 14.42 15.047 14.4078 15.0674C14.3956 15.0877 14.3691 15.0944 14.349 15.0821C14.173 14.976 13.9145 15.0746 13.9119 15.0756C13.9048 15.0785 13.8972 15.0792 13.8901 15.0781Z" fill="#320201"/>
<path d="M12.8536 15.5212L12.9302 15.5221C12.995 15.523 13.0487 15.4706 13.0496 15.4058L13.0501 15.3667C13.0509 15.3019 12.9986 15.2481 12.9338 15.2473L12.8572 15.2463C12.7923 15.2455 12.7386 15.2978 12.7378 15.3627L12.7373 15.4018C12.7364 15.4666 12.7887 15.5203 12.8536 15.5212Z" fill="#320201"/>
<path d="M12.664 15.3687C12.6587 15.3679 12.6536 15.3654 12.6495 15.3611C12.6399 15.351 12.6403 15.3352 12.6504 15.3255C12.7642 15.2173 12.9479 15.2554 12.9557 15.2571C12.9693 15.26 12.9779 15.2734 12.9749 15.287C12.972 15.3006 12.9582 15.3095 12.945 15.3063C12.9434 15.3061 12.7794 15.2723 12.6851 15.362C12.6793 15.3676 12.6714 15.3698 12.664 15.3687Z" fill="#320201"/>
<path d="M14.1271 15.5212L14.0505 15.5221C13.9857 15.523 13.932 15.4706 13.9312 15.4058L13.9307 15.3667C13.9298 15.3019 13.9822 15.2481 14.047 15.2473L14.1236 15.2463C14.1884 15.2455 14.2422 15.2978 14.243 15.3627L14.2435 15.4018C14.2443 15.4666 14.192 15.5203 14.1271 15.5212Z" fill="#320201"/>
<path d="M14.3154 15.3687C14.3207 15.3678 14.3258 15.3653 14.3299 15.3611C14.3394 15.351 14.3391 15.3351 14.329 15.3254C14.2152 15.2172 14.0316 15.2553 14.0238 15.257C14.0102 15.2599 14.0015 15.2733 14.0045 15.2869C14.0074 15.3005 14.0213 15.3094 14.0344 15.3063C14.036 15.306 14.2 15.2722 14.2944 15.362C14.3002 15.3676 14.308 15.3698 14.3154 15.3687Z" fill="#320201"/>
<path d="M13.5768 16.0295L13.5713 15.9921C13.5961 15.9884 13.6178 15.9708 13.6324 15.9424C13.6481 15.912 13.6535 15.8735 13.6478 15.8343L13.5926 15.461L13.6299 15.4555L13.6851 15.8288C13.6921 15.8758 13.6853 15.9222 13.666 15.9597C13.6456 15.9993 13.614 16.024 13.5768 16.0295Z" fill="#FD6B42"/>
<path d="M16.933 21.9258C17.0128 21.4799 16.716 21.0538 16.2702 20.9739L11.849 20.9601L11.6865 21.8199L15.9812 22.5886C16.427 22.6684 16.8531 22.3716 16.933 21.9258Z" fill="#FF9561"/>
<path d="M12.1028 21.8638L11.1663 21.8044C10.9061 21.7879 10.6636 21.6667 10.4942 21.4684L10.1829 21.104C10.0653 20.9664 10.0639 20.7642 10.1796 20.625L10.1798 20.6246C10.2541 20.5352 10.3661 20.4856 10.4823 20.4908L10.9362 20.5108C11.0674 20.5166 11.196 20.5492 11.3142 20.6064L12.103 20.9888L12.1028 21.8638Z" fill="#FF9561"/>
<path d="M15.5446 22.5105L11.8373 21.847L11.1663 21.8044C10.9061 21.7879 10.6636 21.6667 10.4942 21.4684L10.1829 21.104C10.0653 20.9664 10.0639 20.7642 10.1796 20.625L10.1798 20.6246C10.2541 20.5352 10.3661 20.4856 10.4823 20.4908" stroke="#ED703E" stroke-width="0.5954" stroke-miterlimit="10" stroke-linecap="round" stroke-linejoin="round"/>
</g>
</svg>
