<svg width="32" height="32" viewBox="0 0 32 32" fill="none" xmlns="http://www.w3.org/2000/svg">
<path d="M17.6646 23.7394H10.9146V26.625H17.6646V23.7394Z" fill="#445EA0"/>
<path d="M12.1547 23.7394H10.9146V26.625H12.1547V23.7394Z" fill="#2E4C89"/>
<path d="M20.821 28.125C20.821 28.2969 20.6804 28.4375 20.5085 28.4375H8.0708C7.89893 28.4375 7.7583 28.2969 7.7583 28.125V26.875C7.7583 26.7031 7.89893 26.5625 8.0708 26.5625H20.5085C20.6804 26.5625 20.821 26.7031 20.821 26.875V28.125Z" fill="#293D7C"/>
<path d="M8.99843 28.125V26.875C8.99843 26.7031 9.13905 26.5625 9.31093 26.5625H8.0708C7.89893 26.5625 7.7583 26.7031 7.7583 26.875V28.125C7.7583 28.2969 7.89893 28.4375 8.0708 28.4375H9.31093C9.13905 28.4375 8.99843 28.2969 8.99843 28.125Z" fill="#1A2B63"/>
<path d="M0 23.4025C0 23.7311 0.406222 24 0.902716 24H28V20H0V23.4025Z" fill="#293D7C"/>
<path d="M1.24013 23.1771V19.6177H0V23.1771C0 23.5209 0.28125 23.8021 0.625 23.8021H1.86513C1.52138 23.8021 1.24013 23.5209 1.24013 23.1771Z" fill="#1A2B63"/>
<path d="M18.9931 20C20.6667 20 27.8649 20 28 20V18.0327V4.67797C28 4.30506 27.6971 4 27.327 4H0.67308C0.302862 4 0 4.30506 0 4.67797V20H18.9931Z" fill="#445EA0"/>
<path d="M19.386 17.9367C19.386 17.7988 19.248 18.3061 19.3859 18.3061H27.3337L27.2051 5.15356C27.2051 4.98169 27.0645 4.84106 26.8926 4.84106H1.68652C1.51465 4.84106 1.37402 4.98169 1.37402 5.15356V17.9936C1.37402 18.1655 1.51465 18.3061 1.68652 18.3061H19.3859L19.386 17.9367Z" fill="#EEF6FF"/>
<path d="M14.2894 22.6326C14.7695 22.6326 15.1588 22.2433 15.1588 21.7631C15.1588 21.2829 14.7695 20.8937 14.2894 20.8937C13.8092 20.8937 13.4199 21.2829 13.4199 21.7631C13.4199 22.2433 13.8092 22.6326 14.2894 22.6326Z" fill="#445EA0"/>
<path d="M25.8409 25.1479C25.3225 24.8818 24.6761 25.0646 24.3956 25.5573C23.7833 26.6331 22.61 27.3016 21.3333 27.3016C20.6815 27.3016 20.065 27.1136 19.5242 26.7997L20.0319 26.3162C20.2602 26.0988 20.3295 25.7707 20.2058 25.4862C20.0821 25.2018 19.7898 25.0159 19.4666 25.0159H16.8C16.3584 25.0159 16 25.3572 16 25.7778V28.3175C16 28.6253 16.1952 28.9036 16.4939 29.0215C16.5931 29.0611 16.6965 29.0794 16.8 29.0794C17.008 29.0794 17.2128 29.0022 17.3653 28.8559L17.9765 28.2738C18.9354 28.9544 20.1077 29.3333 21.3333 29.3333C23.394 29.3333 25.2863 28.2575 26.2708 26.5255C26.5513 26.0317 26.3593 25.4161 25.8409 25.1479Z" fill="#FFC107"/>
<path d="M26.1727 18.9785C25.8741 18.8607 25.5296 18.9257 25.3013 19.1441L24.6901 19.7262C23.7312 19.0445 22.5589 18.6666 21.3334 18.6666C19.2683 18.6666 17.3761 19.7475 16.3937 21.4867C16.1153 21.9814 16.3094 22.597 16.8278 22.8622C16.9889 22.9445 17.1617 22.9831 17.3323 22.9831C17.7121 22.9831 18.0801 22.789 18.2731 22.4487C18.8822 21.3688 20.0555 20.6984 21.3334 20.6984C21.9851 20.6984 22.6027 20.8863 23.1424 21.2002L22.6347 21.6838C22.4064 21.9012 22.3371 22.2293 22.4608 22.5137C22.5845 22.7982 22.8768 22.9841 23.2 22.9841H25.8666C26.3082 22.9841 26.6666 22.6428 26.6666 22.2222V19.6825C26.6666 19.3747 26.4714 19.0963 26.1727 18.9785Z" fill="#FFC107"/>
<path d="M19.4666 25.0159H16.8C16.3584 25.0159 16 25.3572 16 25.7778V28.3175C16 28.6253 16.1952 28.9036 16.4939 29.0215C16.5931 29.0611 16.6965 29.0794 16.8 29.0794C17.008 29.0794 17.2128 29.0022 17.3653 28.8559L17.9765 28.2738C18.9354 28.9544 20.1077 29.3333 21.3333 29.3333V27.3016C20.6815 27.3016 20.065 27.1136 19.5242 26.7997L20.0319 26.3162C20.2602 26.0988 20.3295 25.7707 20.2058 25.4862C20.0821 25.2018 19.7898 25.0159 19.4666 25.0159Z" fill="#DEA806"/>
<path d="M21.3334 18.6666C19.2683 18.6666 17.3761 19.7475 16.3937 21.4867C16.1153 21.9814 16.3094 22.597 16.8278 22.8622C16.9889 22.9445 17.1617 22.9831 17.3323 22.9831C17.7121 22.9831 18.0801 22.789 18.2731 22.4487C18.8822 21.3688 20.0555 20.6984 21.3334 20.6984V18.6666Z" fill="#DEA806"/>
<path d="M9.66683 16C9.11483 16 8.66683 15.552 8.66683 15V10.6667C8.66683 10.2987 8.36816 10 8.00016 10C7.63216 10 7.3335 10.2987 7.3335 10.6667V15C7.3335 15.552 6.8855 16 6.3335 16C5.7815 16 5.3335 15.552 5.3335 15V10.6667C5.3335 9.196 6.5295 8 8.00016 8C9.47083 8 10.6668 9.196 10.6668 10.6667V15C10.6668 15.552 10.2188 16 9.66683 16Z" fill="#FFC107"/>
<path d="M9.66677 13.3334H6.33343C5.78143 13.3334 5.78143 11.3334 6.33343 11.3334H9.66677C10.2188 11.3334 10.2188 13.3334 9.66677 13.3334Z" fill="#FFC107"/>
<path d="M13 16C12.448 16 12 15.552 12 15V9C12 8.448 12.448 8 13 8H14.6667C16.1373 8 17.3333 9.196 17.3333 10.6667C17.3333 12.1373 16.1373 13.3333 14.6667 13.3333H14V15C14 15.552 13.552 16 13 16ZM14 11.3333H14.6667C15.0347 11.3333 15.3333 11.0347 15.3333 10.6667C15.3333 10.2987 15.0347 10 14.6667 10H14V11.3333Z" fill="#FFC107"/>
<path d="M19.667 16C19.115 16 18.667 15.552 18.667 15V9C18.667 8.448 19.115 8 19.667 8C20.219 8 20.667 8.448 20.667 9V15C20.667 15.552 20.219 16 19.667 16Z" fill="#FFC107"/>
<path d="M23.0003 16C22.7617 16 22.523 15.916 22.331 15.744L18.9977 12.744C18.787 12.5534 18.667 12.2827 18.667 12C18.667 11.7174 18.787 11.4467 18.9977 11.256L22.331 8.25604C22.743 7.88804 23.3737 7.92004 23.7443 8.3307C24.1137 8.74137 24.0803 9.37337 23.6697 9.74404L21.1617 12L23.6697 14.256C24.0803 14.6254 24.1137 15.2574 23.7443 15.6694C23.5457 15.8894 23.2737 16 23.0003 16Z" fill="#FFC107"/>
<path d="M5.94016 12H5.3335V15C5.3335 15.552 5.7815 16 6.3335 16C6.8855 16 7.3335 15.552 7.3335 15V13.3333H6.3335C5.99483 13.3333 5.86416 12.5813 5.94016 12ZM10.6668 12H10.0602C10.1362 12.5813 10.0055 13.3333 9.66683 13.3333H8.66683V15C8.66683 15.552 9.11483 16 9.66683 16C10.2188 16 10.6668 15.552 10.6668 15V12Z" fill="#DEA806"/>
<path d="M10.0604 12H5.94039C5.86439 12.5813 5.99505 13.3333 6.33372 13.3333H7.33372H8.66705H9.66705C10.0057 13.3333 10.1364 12.5813 10.0604 12Z" fill="#DEA806"/>
<path d="M16.976 12H12V15C12 15.552 12.448 16 13 16C13.552 16 14 15.552 14 15V13.3333H14.6667C15.652 13.3333 16.5133 12.796 16.976 12Z" fill="#DEA806"/>
<path d="M18.667 12V15C18.667 15.552 19.115 16 19.667 16C20.219 16 20.667 15.552 20.667 15V14.2453L18.9977 12.7427C18.787 12.5533 18.667 12.2827 18.667 12Z" fill="#DEA806"/>
<path d="M21.1617 12H18.667C18.667 12.2827 18.787 12.5533 18.9977 12.744L20.667 14.2453L22.331 15.7427C22.523 15.916 22.7617 16 23.0003 16C23.2737 16 23.5457 15.888 23.7443 15.6693C24.1137 15.2587 24.0803 14.6267 23.6697 14.256L21.1617 12Z" fill="#DEA806"/>
</svg>
