<svg width="32" height="32" viewBox="0 0 32 32" fill="none" xmlns="http://www.w3.org/2000/svg">
<g clip-path="url(#clip0_148_386)">
<path d="M30.2013 32H14.6165C13.9158 32 13.3477 31.4319 13.3477 30.7311V11.5781C13.3477 10.8773 13.9157 10.3092 14.6165 10.3092H30.2014C30.9022 10.3092 31.4703 10.8773 31.4703 11.5781V30.7311C31.4702 31.4319 30.9022 32 30.2013 32Z" fill="#60B7FF"/>
<path d="M30.2014 10.3092H29.5772V28.8527C29.5772 29.5535 29.0091 30.1216 28.3083 30.1216H13.3477V30.7311C13.3477 31.4318 13.9157 32 14.6165 32H30.2014C30.9022 32 31.4703 31.4319 31.4703 30.7311V11.5781C31.4703 10.8773 30.9022 10.3092 30.2014 10.3092Z" fill="#26A6FE"/>
<path d="M22.4087 22.8061C24.9054 22.8061 26.9293 20.7822 26.9293 18.2856C26.9293 15.7889 24.9054 13.765 22.4087 13.765C19.9121 13.765 17.8882 15.7889 17.8882 18.2856C17.8882 20.7822 19.9121 22.8061 22.4087 22.8061Z" fill="white"/>
<path d="M23.4006 13.8754C24.403 14.7046 25.0417 15.9577 25.0417 17.3602C25.0417 19.8569 23.0178 21.8808 20.5212 21.8808C20.1804 21.8808 19.849 21.8419 19.5298 21.7704C20.3118 22.4173 21.3151 22.8061 22.4092 22.8061C24.9058 22.8061 26.9298 20.7822 26.9298 18.2856C26.9298 16.1296 25.4201 14.3274 23.4006 13.8754Z" fill="#F8F6F6"/>
<path d="M26.5404 28.7135H18.2773C17.4475 28.7135 16.7749 28.0409 16.7749 27.2111C16.7749 26.3814 17.4475 25.7087 18.2773 25.7087H26.5404C27.3702 25.7087 28.0428 26.3814 28.0428 27.2111C28.0428 28.0409 27.3702 28.7135 26.5404 28.7135Z" fill="#FFD15B"/>
<path d="M26.5408 25.7087H26.1489C26.1505 25.737 26.1515 25.7654 26.1515 25.7941C26.1515 26.6238 25.4788 27.2964 24.6491 27.2964H16.7778C16.8221 28.0865 17.4766 28.7135 18.2776 28.7135H26.5408C27.3705 28.7135 28.0431 28.0409 28.0431 27.2111C28.0431 26.3814 27.3705 25.7087 26.5408 25.7087Z" fill="#FFC344"/>
<path d="M9.1209 31.9999H1.79915C1.0984 31.9999 0.530273 31.4318 0.530273 30.731V25.9184C0.530273 25.2177 1.09834 24.6495 1.79915 24.6495H9.12084C9.82159 24.6495 10.3897 25.2176 10.3897 25.9184V30.731C10.3897 31.4318 9.82165 31.9999 9.1209 31.9999Z" fill="#05E39C"/>
<path d="M9.1209 24.6495H8.19671V28.8504C8.19671 29.5512 7.62865 30.1193 6.92784 30.1193H0.530273V30.731C0.530273 31.4318 1.09834 31.9999 1.79915 31.9999H9.12084C9.82159 31.9999 10.3897 31.4318 10.3897 30.731V25.9184C10.3897 25.2177 9.82165 24.6495 9.1209 24.6495Z" fill="#0ED290"/>
<path d="M9.1209 21.37H1.79915C1.0984 21.37 0.530273 20.8019 0.530273 20.1011V11.5781C0.530273 10.8773 1.09834 10.3092 1.79915 10.3092H9.12084C9.82159 10.3092 10.3897 10.8773 10.3897 11.5781V20.1011C10.3897 20.8018 9.82165 21.37 9.1209 21.37Z" fill="#FFD15B"/>
<path d="M9.1209 10.3092H8.19671V18.2011C8.19671 18.9018 7.62865 19.47 6.92784 19.47H0.530273V20.1011C0.530273 20.8018 1.09834 21.37 1.79915 21.37H9.12084C9.82159 21.37 10.3897 20.8019 10.3897 20.1011V11.5781C10.3897 10.8773 9.82165 10.3092 9.1209 10.3092Z" fill="#FFC344"/>
<path d="M7.57267 28.7936H3.34717C3.08829 28.7936 2.87842 28.5837 2.87842 28.3248C2.87842 28.066 3.08829 27.8561 3.34717 27.8561H7.57267C7.83154 27.8561 8.04142 28.066 8.04142 28.3248C8.04142 28.5837 7.83154 28.7936 7.57267 28.7936Z" fill="white"/>
<path d="M8.04264 13.7731H5.45264C5.19376 13.7731 4.98389 13.5632 4.98389 13.3043C4.98389 13.0454 5.19376 12.8356 5.45264 12.8356H8.04264C8.30151 12.8356 8.51139 13.0454 8.51139 13.3043C8.51139 13.5632 8.30151 13.7731 8.04264 13.7731Z" fill="white"/>
<path d="M8.04264 16.3083H5.45264C5.19376 16.3083 4.98389 16.0985 4.98389 15.8396C4.98389 15.5807 5.19376 15.3708 5.45264 15.3708H8.04264C8.30151 15.3708 8.51139 15.5807 8.51139 15.8396C8.51139 16.0985 8.30151 16.3083 8.04264 16.3083Z" fill="white"/>
<path d="M8.04264 18.8436H5.45264C5.19376 18.8436 4.98389 18.6338 4.98389 18.3749C4.98389 18.116 5.19376 17.9061 5.45264 17.9061H8.04264C8.30151 17.9061 8.51139 18.116 8.51139 18.3749C8.51139 18.6338 8.30151 18.8436 8.04264 18.8436Z" fill="white"/>
<path d="M3.14974 13.7731H2.87793C2.61905 13.7731 2.40918 13.5632 2.40918 13.3043C2.40918 13.0454 2.61905 12.8356 2.87793 12.8356H3.14974C3.40862 12.8356 3.61849 13.0454 3.61849 13.3043C3.61849 13.5632 3.40862 13.7731 3.14974 13.7731Z" fill="white"/>
<path d="M3.14974 16.3083H2.87793C2.61905 16.3083 2.40918 16.0985 2.40918 15.8396C2.40918 15.5807 2.61905 15.3708 2.87793 15.3708H3.14974C3.40862 15.3708 3.61849 15.5807 3.61849 15.8396C3.61849 16.0985 3.40862 16.3083 3.14974 16.3083Z" fill="white"/>
<path d="M3.14974 18.8436H2.87793C2.61905 18.8436 2.40918 18.6338 2.40918 18.3749C2.40918 18.116 2.61905 17.9061 2.87793 17.9061H3.14974C3.40862 17.9061 3.61849 18.116 3.61849 18.3749C3.61849 18.6338 3.40862 18.8436 3.14974 18.8436Z" fill="white"/>
<path d="M5.10938 0.00012207C4.8505 0.00012207 4.64062 0.209997 4.64062 0.468872V4.19675C4.64062 4.45562 4.8505 4.6655 5.10938 4.6655C5.36825 4.6655 5.57812 4.45562 5.57812 4.19675V0.468872C5.57812 0.209997 5.36825 0.00012207 5.10938 0.00012207Z" fill="#60B7FF"/>
<path d="M3.12059 0.00012207C2.86171 0.00012207 2.65184 0.209997 2.65184 0.468872V3.03137C2.65184 3.20918 2.60127 3.43875 2.20721 3.63718C2.0854 3.6985 1.95152 3.73025 1.80284 3.728C1.63884 3.72781 1.49646 3.68762 1.36746 3.60518C1.06165 3.40987 0.999023 3.23556 0.999023 3.03406V0.468872C0.999023 0.209997 0.789148 0.00012207 0.530273 0.00012207C0.271398 0.00012207 0.0615234 0.209997 0.0615234 0.468872V3.03406C0.0615234 3.59762 0.331086 4.05556 0.862711 4.39518C1.14265 4.57412 1.45859 4.665 1.80159 4.6655H1.8044C2.09977 4.6655 2.37721 4.60125 2.6289 4.4745C3.42271 4.07475 3.58934 3.46906 3.58934 3.03137V0.468872C3.58934 0.209997 3.37946 0.00012207 3.12059 0.00012207Z" fill="#60B7FF"/>
<path d="M18.1794 3.92695L16.965 2.20051L17.9947 0.73876C18.1439 0.527135 18.0932 0.234697 17.8815 0.0855724C17.6697 -0.0635526 17.3774 -0.0127401 17.2284 0.198822L16.392 1.38601L15.557 0.199072C15.408 -0.0126776 15.1157 -0.0634901 14.9039 0.0853849C14.6922 0.234322 14.6413 0.52676 14.7902 0.73851L15.8185 2.20013L14.6022 3.9267C14.4531 4.13832 14.5038 4.43076 14.7154 4.57989C14.7975 4.6377 14.8917 4.66545 14.985 4.66545C15.1323 4.66545 15.2773 4.5962 15.3686 4.46664L16.3915 3.0147L17.4127 4.46645C17.504 4.5962 17.649 4.66551 17.7965 4.66551C17.8897 4.66551 17.9838 4.63782 18.0659 4.58013C18.2775 4.43107 18.3284 4.1387 18.1794 3.92695Z" fill="#60B7FF"/>
<path d="M13.478 0.00012207C13.2191 0.00012207 13.0093 0.209997 13.0093 0.468872V3.03137C13.0093 3.20918 12.9587 3.43875 12.5646 3.63718C12.4428 3.6985 12.3093 3.73025 12.1603 3.728C11.9963 3.72781 11.8539 3.68762 11.7249 3.60518C11.4191 3.40987 11.3564 3.23556 11.3564 3.03406V0.468872C11.3564 0.209997 11.1466 0.00012207 10.8877 0.00012207C10.6288 0.00012207 10.4189 0.209997 10.4189 0.468872V3.03406C10.4189 3.59762 10.6885 4.05556 11.2201 4.39518C11.5001 4.57412 11.816 4.665 12.159 4.6655H12.1618C12.4572 4.6655 12.7346 4.60125 12.9863 4.4745C13.7801 4.07475 13.9468 3.46906 13.9468 3.03137V0.468872C13.9468 0.209997 13.7369 0.00012207 13.478 0.00012207Z" fill="#60B7FF"/>
<path d="M9.04331 0.037126C8.80475 -0.0636865 8.52981 0.047876 8.429 0.286251L6.85256 4.01413C6.75175 4.25256 6.86325 4.52763 7.10169 4.62844C7.16131 4.65363 7.22319 4.66556 7.28406 4.66556C7.46675 4.66556 7.64038 4.55806 7.716 4.37925L9.29244 0.651376C9.39325 0.413001 9.28175 0.137938 9.04331 0.037126Z" fill="#60B7FF"/>
<path d="M31.4701 7.71582H0.530273C0.271398 7.71582 0.0615234 7.50595 0.0615234 7.24707C0.0615234 6.9882 0.271398 6.77832 0.530273 6.77832H31.4701C31.729 6.77832 31.9388 6.9882 31.9388 7.24707C31.9388 7.50595 31.729 7.71582 31.4701 7.71582Z" fill="#8AC9FE"/>
<path d="M31.47 0.9375H28.1528C27.8939 0.9375 27.6841 0.727625 27.6841 0.46875C27.6841 0.209875 27.8939 0 28.1528 0H31.47C31.7289 0 31.9387 0.209875 31.9387 0.46875C31.9387 0.727625 31.7288 0.9375 31.47 0.9375Z" fill="#60B7FF"/>
<path d="M31.47 2.7887H28.1528C27.8939 2.7887 27.6841 2.57882 27.6841 2.31995C27.6841 2.06107 27.8939 1.8512 28.1528 1.8512H31.47C31.7289 1.8512 31.9387 2.06107 31.9387 2.31995C31.9387 2.57882 31.7288 2.7887 31.47 2.7887Z" fill="#60B7FF"/>
<path d="M31.47 4.63989H28.1528C27.8939 4.63989 27.6841 4.43002 27.6841 4.17114C27.6841 3.91227 27.8939 3.70239 28.1528 3.70239H31.47C31.7289 3.70239 31.9387 3.91227 31.9387 4.17114C31.9387 4.43002 31.7288 4.63989 31.47 4.63989Z" fill="#60B7FF"/>
</g>
<defs>
<clipPath id="clip0_148_386">
<rect width="32" height="32" fill="white"/>
</clipPath>
</defs>
</svg>
