<svg width="32" height="32" viewBox="0 0 32 32" fill="none" xmlns="http://www.w3.org/2000/svg">
<g clip-path="url(#clip0_148_457)">
<path d="M19.5 20V16H12.5V20L8 21.5V28.5H24V21.5L19.5 20Z" fill="#5479A8"/>
<path d="M19.5 14.5H18.5V12.5C18.5 12.4223 18.5181 12.3458 18.5528 12.2763C18.5875 12.2069 18.6379 12.1465 18.7 12.1L19.9 11.2L20.5 12L19.5 12.75V14.5Z" fill="#99B2CC"/>
<path d="M1 30H27.5V31.5L31 29L27.5 26.5V28H1V30Z" fill="#D96D73"/>
<path d="M12.5 16H19.5V28H12.5V16Z" fill="#628DC4"/>
<path d="M15.5 10H16.5V14.5H15.5V10Z" fill="#99B2CC"/>
<path d="M13.5 14.5H12.5V12.75L11.5 12L12.1 11.2L13.3 12.1C13.3621 12.1465 13.4125 12.2069 13.4472 12.2763C13.4819 12.3458 13.5 12.4223 13.5 12.5V14.5Z" fill="#99B2CC"/>
<path d="M16 10.25C16.6904 10.25 17.25 9.69036 17.25 9C17.25 8.30964 16.6904 7.75 16 7.75C15.3096 7.75 14.75 8.30964 14.75 9C14.75 9.69036 15.3096 10.25 16 10.25Z" fill="#F2C14D"/>
<path d="M11 12.25C11.6904 12.25 12.25 11.6904 12.25 11C12.25 10.3096 11.6904 9.75 11 9.75C10.3096 9.75 9.75 10.3096 9.75 11C9.75 11.6904 10.3096 12.25 11 12.25Z" fill="#F2C14D"/>
<path d="M21 12.25C21.6904 12.25 22.25 11.6904 22.25 11C22.25 10.3096 21.6904 9.75 21 9.75C20.3096 9.75 19.75 10.3096 19.75 11C19.75 11.6904 20.3096 12.25 21 12.25Z" fill="#F2C14D"/>
<path d="M14.5 24.5H17.5V28H14.5V24.5Z" fill="#F2F2F2"/>
<path d="M14.25 17.5H15.25V18.5H14.25V17.5Z" fill="#F2F2F2"/>
<path d="M16.75 17.5H17.75V18.5H16.75V17.5Z" fill="#F2F2F2"/>
<path d="M14.25 19.5H15.25V20.5H14.25V19.5Z" fill="#F2F2F2"/>
<path d="M16.75 19.5H17.75V20.5H16.75V19.5Z" fill="#F2F2F2"/>
<path d="M14.25 21.5H15.25V22.5H14.25V21.5Z" fill="#F2F2F2"/>
<path d="M16.75 21.5H17.75V22.5H16.75V21.5Z" fill="#F2F2F2"/>
<path d="M8.75 23H9.75V24H8.75V23Z" fill="#E6E6E6"/>
<path d="M10.75 23H11.75V24H10.75V23Z" fill="#E6E6E6"/>
<path d="M8.75 25.5H9.75V26.5H8.75V25.5Z" fill="#E6E6E6"/>
<path d="M10.75 25.5H11.75V26.5H10.75V25.5Z" fill="#E6E6E6"/>
<path d="M20.25 23H21.25V24H20.25V23Z" fill="#E6E6E6"/>
<path d="M22.25 23H23.25V24H22.25V23Z" fill="#E6E6E6"/>
<path d="M20.25 25.5H21.25V26.5H20.25V25.5Z" fill="#E6E6E6"/>
<path d="M22.25 25.5H23.25V26.5H22.25V25.5Z" fill="#E6E6E6"/>
<path d="M30.8884 18.6645L29.6744 18.27C29.5595 18.2319 29.4616 18.1548 29.3977 18.052C29.3338 17.9493 29.3078 17.8274 29.3244 17.7075C29.4704 16.5739 29.4704 15.4262 29.3244 14.2925C29.3078 14.1726 29.3338 14.0507 29.3977 13.948C29.4616 13.8452 29.5595 13.7681 29.6744 13.73L30.8884 13.3355C31.0185 13.2932 31.1266 13.2011 31.1888 13.0792C31.2511 12.9573 31.2624 12.8157 31.2204 12.6855L30.2624 9.7355C30.2201 9.60536 30.1279 9.49732 30.006 9.43515C29.8841 9.37299 29.7425 9.36178 29.6124 9.404L28.3959 9.799C28.2807 9.83569 28.1562 9.83076 28.0443 9.78507C27.9323 9.73938 27.84 9.65583 27.7834 9.549C27.2342 8.54622 26.5596 7.61742 25.7759 6.785C25.6921 6.69798 25.6414 6.58434 25.6328 6.46385C25.6241 6.34335 25.6579 6.22363 25.7284 6.1255L26.4784 5.091C26.5182 5.03611 26.5469 4.97391 26.5627 4.90794C26.5785 4.84197 26.5812 4.77353 26.5706 4.70653C26.5599 4.63953 26.5362 4.57528 26.5007 4.51746C26.4653 4.45963 26.4188 4.40935 26.3639 4.3695L23.8564 2.55C23.8015 2.51014 23.7393 2.48148 23.6733 2.46566C23.6073 2.44983 23.5389 2.44716 23.4719 2.4578C23.4049 2.46843 23.3407 2.49216 23.2828 2.52762C23.225 2.56309 23.1747 2.6096 23.1349 2.6645L22.3834 3.7C22.3118 3.79753 22.2083 3.86684 22.0909 3.89581C21.9734 3.92478 21.8496 3.91157 21.7409 3.8585C20.7082 3.368 19.6167 3.01226 18.4934 2.8C18.3742 2.77914 18.2662 2.7171 18.1882 2.62471C18.1101 2.53231 18.067 2.41544 18.0664 2.2945V1.0165C18.0664 0.879516 18.012 0.748142 17.9151 0.651279C17.8182 0.554417 17.6869 0.5 17.5499 0.5H14.4499C14.3129 0.5 14.1815 0.554417 14.0847 0.651279C13.9878 0.748142 13.9334 0.879516 13.9334 1.0165V2.2925C13.9332 2.41379 13.8903 2.53113 13.8122 2.62394C13.7341 2.71675 13.6258 2.77908 13.5064 2.8C12.3822 3.01189 11.2899 3.36747 10.2564 3.858C10.148 3.91046 10.0247 3.92338 9.90785 3.89452C9.79097 3.86567 9.68786 3.79686 9.61637 3.7L8.86637 2.666C8.82662 2.61077 8.77635 2.56395 8.71845 2.5282C8.66055 2.49246 8.59616 2.46852 8.52898 2.45774C8.4618 2.44696 8.39314 2.44956 8.32697 2.46539C8.26079 2.48123 8.1984 2.50998 8.14337 2.55L5.63537 4.3715C5.58047 4.41135 5.53396 4.46163 5.49849 4.51946C5.46303 4.57728 5.4393 4.64153 5.42867 4.70853C5.41804 4.77553 5.42071 4.84397 5.43653 4.90994C5.45235 4.97591 5.48101 5.03811 5.52087 5.093L6.27087 6.1275C6.34101 6.22591 6.37441 6.3458 6.36528 6.4663C6.35614 6.5868 6.30504 6.70029 6.22087 6.787C5.43861 7.61935 4.76538 8.5478 4.21737 9.55C4.16074 9.65683 4.0684 9.74038 3.95646 9.78607C3.84451 9.83176 3.72008 9.83669 3.60487 9.8L2.38837 9.405C2.25822 9.36278 2.11662 9.37399 1.99473 9.43615C1.87283 9.49832 1.78062 9.60635 1.73837 9.7365L0.780371 12.6865C0.738312 12.8167 0.749651 12.9583 0.811898 13.0802C0.874146 13.2021 0.982213 13.2942 1.11237 13.3365L2.32637 13.731C2.44123 13.7691 2.53912 13.8462 2.60305 13.949C2.66698 14.0517 2.69293 14.1736 2.67637 14.2935C2.53037 15.4272 2.53037 16.5749 2.67637 17.7085C2.69293 17.8284 2.66698 17.9503 2.60305 18.053C2.53912 18.1558 2.44123 18.2329 2.32637 18.271L1.11237 18.6655C0.982293 18.7079 0.874311 18.8001 0.812082 18.9219C0.749853 19.0437 0.73845 19.1853 0.780371 19.3155L1.73837 22.2655C1.78062 22.3956 1.87283 22.5037 1.99473 22.5658C2.11662 22.628 2.25822 22.6392 2.38837 22.597L3.60487 22.2C3.72008 22.1633 3.84451 22.1682 3.95646 22.2139C4.0684 22.2596 4.16074 22.3432 4.21737 22.45C4.76655 23.4528 5.44114 24.3816 6.22487 25.214C6.23537 25.2255 6.24037 25.24 6.24987 25.2515V19.882C5.61309 18.2889 5.3764 16.564 5.56049 14.8582C5.74459 13.1524 6.34388 11.5177 7.30592 10.0972C8.26796 8.6766 9.56344 7.51341 11.079 6.70935C12.5946 5.9053 14.2842 5.48489 15.9999 5.48489C17.7155 5.48489 19.4051 5.9053 20.9207 6.70935C22.4363 7.51341 23.7318 8.6766 24.6938 10.0972C25.6559 11.5177 26.2551 13.1524 26.4392 14.8582C26.6233 16.564 26.3867 18.2889 25.7499 19.882V25.25C25.7594 25.2385 25.7644 25.224 25.7749 25.2125C26.5585 24.3805 27.2331 23.4523 27.7824 22.45C27.839 22.3432 27.9313 22.2596 28.0433 22.2139C28.1552 22.1682 28.2797 22.1633 28.3949 22.2L29.6114 22.595C29.7415 22.6372 29.8831 22.626 30.005 22.5639C30.1269 22.5017 30.2191 22.3936 30.2614 22.2635L31.2194 19.3135C31.261 19.1835 31.2496 19.0424 31.1876 18.9208C31.1256 18.7992 31.018 18.7071 30.8884 18.6645Z" fill="#62768C"/>
</g>
<defs>
<clipPath id="clip0_148_457">
<rect width="32" height="32" fill="white"/>
</clipPath>
</defs>
</svg>
