<svg width="32" height="32" viewBox="0 0 32 32" fill="none" xmlns="http://www.w3.org/2000/svg">
<g clip-path="url(#clip0_148_496)">
<path d="M15.0342 29.9073H3.70221C2.42209 29.9073 1.38428 28.8696 1.38428 27.5894V4.41034C1.38428 3.13022 2.42203 2.09241 3.70221 2.09241H15.0342C16.3143 2.09241 17.3522 3.13016 17.3522 4.41034V27.5894C17.3522 28.8696 16.3144 29.9073 15.0342 29.9073Z" fill="#EDF9D9"/>
<path d="M15.4204 2.12512V29.8747C16.5165 29.6907 17.352 28.7379 17.352 27.5894V4.41037C17.352 3.26193 16.5166 2.30912 15.4204 2.12512Z" fill="#D5EFC8"/>
<path d="M15.0342 29.9074H3.70221C2.42209 29.9074 1.38428 28.8697 1.38428 27.5895V27.1388H17.3521V27.5895C17.3522 28.8697 16.3144 29.9074 15.0342 29.9074Z" fill="#3692BC"/>
<path d="M15.4205 27.1388V27.5895C15.4205 28.8696 14.3827 29.9074 13.1025 29.9074H15.0341C16.3142 29.9074 17.352 28.8697 17.352 27.5895V27.1388H15.4205Z" fill="#0681AF"/>
<path d="M11.5262 5.95567H7.14794C6.61457 5.95567 6.18213 5.5233 6.18213 4.98986C6.18213 4.45649 6.6145 4.02405 7.14794 4.02405H11.5262C12.0596 4.02405 12.492 4.45642 12.492 4.98986C12.492 5.52324 12.0596 5.95567 11.5262 5.95567Z" fill="#3692BC"/>
<path d="M15.0342 1.62378H3.70221C2.16565 1.62378 0.915527 2.87384 0.915527 4.4104V27.5895C0.915527 29.126 2.16565 30.3761 3.70221 30.3761H15.0342C16.5708 30.3761 17.8209 29.126 17.8209 27.5895V4.4104C17.8209 2.87384 16.5708 1.62378 15.0342 1.62378ZM16.8834 27.5895C16.8834 28.6092 16.0539 29.4387 15.0342 29.4387H3.70221C2.68259 29.4387 1.85303 28.6092 1.85303 27.5895V4.4104C1.85303 3.39078 2.68253 2.56128 3.70221 2.56128H15.0342C16.0538 2.56128 16.8834 3.39078 16.8834 4.4104V27.5895Z" fill="#0681AF"/>
<path d="M14.2359 24.7424H8.99886C8.73817 24.7424 8.52686 24.5311 8.52686 24.2704V17.1018C8.52686 16.8411 8.73817 16.6298 8.99886 16.6298H14.2359C14.4965 16.6298 14.7079 16.8411 14.7079 17.1018V24.2704C14.7079 24.5311 14.4965 24.7424 14.2359 24.7424Z" fill="#FE7AB6"/>
<path d="M14.2358 16.6298H12.3042C12.5649 16.6298 12.7762 16.8411 12.7762 17.1018V24.2704C12.7762 24.5311 12.5649 24.7424 12.3042 24.7424H14.2358C14.4964 24.7424 14.7078 24.5311 14.7078 24.2704V17.1018C14.7078 16.8411 14.4964 16.6298 14.2358 16.6298Z" fill="#FE5CA7"/>
<path d="M6.09881 18.8759H0.339812C0.152125 18.8759 0 18.7237 0 18.5361V8.26999C0 8.0823 0.152125 7.93018 0.339812 7.93018H6.09881C6.2865 7.93018 6.43862 8.0823 6.43862 8.26999V18.5361C6.43862 18.7237 6.2865 18.8759 6.09881 18.8759Z" fill="#FDB441"/>
<path d="M6.09904 7.93018H4.16748C4.35517 7.93018 4.50729 8.0823 4.50729 8.26999V18.5361C4.50729 18.7237 4.35517 18.8759 4.16748 18.8759H6.09904C6.28673 18.8759 6.43886 18.7237 6.43886 18.5361V8.26999C6.43886 8.0823 6.28673 7.93018 6.09904 7.93018Z" fill="#FE9738"/>
<path d="M1.8252 10.5237H3.41338C3.67232 10.5237 3.88213 10.3138 3.88213 10.0549C3.88213 9.79606 3.67232 9.58618 3.41338 9.58618H1.8252C1.56626 9.58618 1.35645 9.79606 1.35645 10.0549C1.35645 10.3138 1.56632 10.5237 1.8252 10.5237Z" fill="#EAF6FF"/>
<path d="M3.41338 15.8531H1.8252C1.56626 15.8531 1.35645 16.063 1.35645 16.3219C1.35645 16.5808 1.56626 16.7906 1.8252 16.7906H3.41338C3.67232 16.7906 3.88213 16.5808 3.88213 16.3219C3.88213 16.063 3.67232 15.8531 3.41338 15.8531Z" fill="#EAF6FF"/>
<path d="M1.8252 12.0905H4.50713C4.76607 12.0905 4.97588 11.8806 4.97588 11.6217C4.97588 11.3628 4.76607 11.153 4.50713 11.153H1.8252C1.56626 11.153 1.35645 11.3628 1.35645 11.6217C1.35645 11.8806 1.56632 12.0905 1.8252 12.0905Z" fill="#EAF6FF"/>
<path d="M4.50713 12.7196H1.8252C1.56626 12.7196 1.35645 12.9295 1.35645 13.1884C1.35645 13.4472 1.56626 13.6571 1.8252 13.6571H4.50713C4.76607 13.6571 4.97588 13.4472 4.97588 13.1884C4.97588 12.9295 4.76607 12.7196 4.50713 12.7196Z" fill="#EAF6FF"/>
<path d="M10.2764 19.4304H11.8646C12.1235 19.4304 12.3333 19.2205 12.3333 18.9617C12.3333 18.7028 12.1235 18.4929 11.8646 18.4929H10.2764C10.0174 18.4929 9.80762 18.7028 9.80762 18.9617C9.80762 19.2205 10.0174 19.4304 10.2764 19.4304Z" fill="#EAF6FF"/>
<path d="M10.2764 20.9972H12.9583C13.2172 20.9972 13.4271 20.7873 13.4271 20.5284C13.4271 20.2696 13.2172 20.0597 12.9583 20.0597H10.2764C10.0174 20.0597 9.80762 20.2696 9.80762 20.5284C9.80762 20.7873 10.0174 20.9972 10.2764 20.9972Z" fill="#EAF6FF"/>
<path d="M12.9583 21.6265H10.2764C10.0174 21.6265 9.80762 21.8363 9.80762 22.0952C9.80762 22.3541 10.0174 22.564 10.2764 22.564H12.9583C13.2172 22.564 13.4271 22.3541 13.4271 22.0952C13.4271 21.8363 13.2172 21.6265 12.9583 21.6265Z" fill="#EAF6FF"/>
<path d="M32.0002 7.71742V24.2826C32.0002 25.0422 31.3796 25.658 30.6141 25.658H20.545C19.7794 25.658 19.1588 25.0422 19.1588 24.2826V17.881C19.1588 17.7862 19.1112 17.6977 19.0319 17.6449L16.7394 16.1174C16.6552 16.0614 16.6552 15.9385 16.7394 15.8825L19.0319 14.355C19.1112 14.3022 19.1588 14.2137 19.1588 14.1189V7.71742C19.1588 6.95785 19.7794 6.34204 20.545 6.34204H30.6141C31.3796 6.34204 32.0002 6.95779 32.0002 7.71742Z" fill="#EAF6FF"/>
<path d="M30.6137 6.34204H28.6821C29.4477 6.34204 30.0683 6.95779 30.0683 7.71742V24.2826C30.0683 25.0422 29.4477 25.658 28.6821 25.658H30.6137C31.3793 25.658 31.9999 25.0422 31.9999 24.2826V7.71742C31.9999 6.95779 31.3793 6.34204 30.6137 6.34204Z" fill="#D8ECFE"/>
<path d="M28.4586 9.47175C28.255 9.31181 27.9603 9.34719 27.8004 9.55081L25.058 13.0422L23.3695 11.5664C23.1746 11.396 22.8785 11.4159 22.7081 11.6108C22.5377 11.8058 22.5576 12.1019 22.7526 12.2723L24.813 14.0732C24.8987 14.1482 25.0085 14.189 25.1215 14.189C25.136 14.189 25.1506 14.1883 25.1651 14.1869C25.2931 14.1749 25.4106 14.1109 25.4901 14.0098L28.5377 10.1299C28.6976 9.92631 28.6622 9.63163 28.4586 9.47175Z" fill="#80D261"/>
<path d="M28.7153 23.0538H22.5987C22.3676 23.0538 22.1802 22.8664 22.1802 22.6352V17.6776C22.1802 17.4464 22.3676 17.259 22.5987 17.259H28.7153C28.9465 17.259 29.1339 17.4464 29.1339 17.6776V22.6352C29.1339 22.8664 28.9465 23.0538 28.7153 23.0538Z" fill="#FDB441"/>
<path d="M28.7153 17.259H26.7837C27.0149 17.259 27.2023 17.4464 27.2023 17.6776V22.6352C27.2023 22.8664 27.0148 23.0538 26.7837 23.0538H28.7153C28.9464 23.0538 29.1338 22.8664 29.1338 22.6352V17.6776C29.1338 17.4464 28.9464 17.259 28.7153 17.259Z" fill="#FE9738"/>
<path d="M24.4561 19.7667H26.1945C26.4534 19.7667 26.6632 19.5568 26.6632 19.298C26.6632 19.0391 26.4534 18.8292 26.1945 18.8292H24.4561C24.1971 18.8292 23.9873 19.0391 23.9873 19.298C23.9873 19.5568 24.1971 19.7667 24.4561 19.7667Z" fill="#3692BC"/>
<path d="M27.2022 20.5463H24.4561C24.1971 20.5463 23.9873 20.7561 23.9873 21.015C23.9873 21.2739 24.1971 21.4838 24.4561 21.4838H27.2022C27.4611 21.4838 27.6709 21.2739 27.6709 21.015C27.6709 20.7561 27.4611 20.5463 27.2022 20.5463Z" fill="#3692BC"/>
<path d="M11.1331 9.76262H9.65674V8.98181C9.65674 8.72294 9.44693 8.51306 9.18799 8.51306C8.92905 8.51306 8.71924 8.72294 8.71924 8.98181V10.2314C8.71924 10.4902 8.92905 10.7001 9.18799 10.7001H11.1331C11.3921 10.7001 11.6019 10.4902 11.6019 10.2314C11.6019 9.9725 11.3921 9.76262 11.1331 9.76262Z" fill="#0681AF"/>
<path d="M11.1331 11.5607H9.18799C8.92905 11.5607 8.71924 11.7705 8.71924 12.0294V13.279C8.71924 13.5379 8.92905 13.7477 9.18799 13.7477C9.44693 13.7477 9.65674 13.5379 9.65674 13.279V12.4982H11.1331C11.3921 12.4982 11.6019 12.2883 11.6019 12.0294C11.6019 11.7705 11.3921 11.5607 11.1331 11.5607Z" fill="#0681AF"/>
<path d="M14.132 8.51306C13.873 8.51306 13.6632 8.72294 13.6632 8.98181V9.76262H12.0942C11.8353 9.76262 11.6255 9.9725 11.6255 10.2314C11.6255 10.4902 11.8353 10.7001 12.0942 10.7001H14.132C14.3909 10.7001 14.6007 10.4902 14.6007 10.2314V8.98181C14.6007 8.72294 14.3909 8.51306 14.132 8.51306Z" fill="#0681AF"/>
<path d="M14.132 11.5607H12.0942C11.8353 11.5607 11.6255 11.7705 11.6255 12.0294C11.6255 12.2883 11.8353 12.4982 12.0942 12.4982H13.6632V13.279C13.6632 13.5379 13.873 13.7477 14.132 13.7477C14.3909 13.7477 14.6007 13.5379 14.6007 13.279V12.0294C14.6007 11.7705 14.3909 11.5607 14.132 11.5607Z" fill="#0681AF"/>
<path d="M11.6598 12.9691C10.9486 12.9691 10.3721 12.3925 10.3721 11.6813V10.3936C10.3721 9.6824 10.9486 9.10583 11.6598 9.10583C12.371 9.10583 12.9476 9.6824 12.9476 10.3936V11.6813C12.9475 12.3926 12.371 12.9691 11.6598 12.9691Z" fill="#3692BC"/>
</g>
<defs>
<clipPath id="clip0_148_496">
<rect width="32" height="32" fill="white"/>
</clipPath>
</defs>
</svg>
