<svg width="32" height="32" viewBox="0 0 32 32" fill="none" xmlns="http://www.w3.org/2000/svg">
<g clip-path="url(#clip0_148_543)">
<path d="M31.2814 18.2835C31.4142 18.2223 31.4992 18.0893 31.4992 17.9431V14.0556C31.4992 13.9093 31.4142 13.7764 31.2814 13.7151L28.3809 12.376L27.3177 9.80583L28.4206 6.80971C28.4711 6.67252 28.4373 6.51846 28.3339 6.41508L25.5854 3.66477C25.4819 3.56127 25.3277 3.52739 25.1904 3.57796L22.1927 4.68258L19.6226 3.61771L18.2853 0.717268C18.224 0.584393 18.0911 0.499268 17.9447 0.499268H14.0554C13.9092 0.499268 13.7762 0.584268 13.715 0.71708L12.3758 3.61771L9.80742 4.68252L6.80967 3.57789C6.67248 3.52739 6.51829 3.56114 6.41485 3.66458L3.66454 6.41489C3.5611 6.51833 3.52723 6.67252 3.57785 6.80977L4.68241 9.80571L3.61754 12.3759L0.718727 13.715C0.585977 13.7763 0.500977 13.9092 0.500977 14.0555V17.943C0.500977 18.0891 0.585977 18.2221 0.718727 18.2834L3.61754 19.6225L4.68248 22.1927L4.00516 24.0308L1.3196 26.717C0.791727 27.2438 0.501039 27.9475 0.501039 28.6984C0.501039 29.4493 0.791602 30.1532 1.31935 30.681C1.86579 31.2273 2.58348 31.5005 3.30116 31.5005C4.01891 31.5005 4.73666 31.2273 5.28304 30.6809L7.97166 27.9917L9.80735 27.316L12.3758 28.3808L13.715 31.2815C13.7762 31.4143 13.9092 31.4993 14.0554 31.4993H17.9447C18.091 31.4993 18.224 31.4141 18.2853 31.2813L19.6225 28.3809L21.7283 27.5096C22.169 29.7797 24.1711 31.4993 26.5681 31.4993C29.2871 31.4993 31.4991 29.2872 31.4991 26.5683C31.4991 24.1712 29.7795 22.1691 27.5094 21.7285L28.3808 19.6226L31.2814 18.2835H31.2814ZM16.0001 23.3405C15.0029 23.3405 14.0517 23.1403 13.184 22.7785L14.4321 21.5301C14.9419 21.6746 15.4679 21.7478 15.9992 21.7478C19.1689 21.7478 21.7477 19.1691 21.7477 15.9993C21.7477 15.3867 21.6522 14.7845 21.4638 14.2095C21.4232 14.0857 21.3214 13.9918 21.1946 13.9615C21.0678 13.9311 20.9345 13.9689 20.8424 14.061L18.3209 16.5808L15.4178 13.6778L17.9391 11.1581C18.0313 11.066 18.069 10.9326 18.0388 10.8058C18.0085 10.679 17.9146 10.577 17.7908 10.5365C17.212 10.3469 16.6092 10.2508 15.9991 10.2508C12.8294 10.2508 10.2506 12.8296 10.2506 15.9993C10.2506 16.5306 10.3237 17.0566 10.4683 17.5665L9.22054 18.8145C8.85904 17.9471 8.65892 16.9962 8.65892 15.9993C8.65892 11.9514 11.9521 8.65821 16 8.65821C20.048 8.65821 23.3412 11.9514 23.3412 15.9993C23.3412 20.0473 20.048 23.3405 16 23.3405H16.0001Z" fill="#FFC250"/>
<path d="M21.4637 14.2095C21.4232 14.0857 21.3213 13.9919 21.1945 13.9615C21.0677 13.9312 20.9345 13.9689 20.8423 14.061L18.3208 16.5809L15.4177 13.6778L17.939 11.1581C18.0312 11.066 18.069 10.9326 18.0387 10.8058C18.0085 10.679 17.9145 10.577 17.7907 10.5365C17.212 10.3469 16.6092 10.2509 15.999 10.2509C12.8293 10.2509 10.2505 12.8296 10.2505 15.9994C10.2505 16.5306 10.3237 17.0567 10.4682 17.5665L1.31954 26.7171C0.791664 27.2439 0.500977 27.9476 0.500977 28.6985C0.500977 29.4495 0.791539 30.1534 1.31929 30.6811C1.86573 31.2275 2.58341 31.5007 3.3011 31.5007C4.01885 31.5007 4.7366 31.2274 5.28298 30.681L14.432 21.5302C14.9419 21.6747 15.4679 21.7479 15.9991 21.7479C19.1689 21.7479 21.7476 19.1691 21.7476 15.9994C21.7476 15.3867 21.6521 14.7845 21.4637 14.2095Z" fill="#4A80AA"/>
<path d="M21.4637 14.2095C21.4231 14.0857 21.3212 13.9918 21.1945 13.9615C21.1366 13.9477 21.0774 13.9487 21.0213 13.9619C21.0887 14.3165 21.1236 14.6782 21.1236 15.0438C21.1236 18.2136 18.5448 20.7923 15.3751 20.7923C14.8438 20.7923 14.3177 20.7192 13.808 20.5747L4.65893 29.7255C4.1125 30.2719 3.39475 30.5451 2.67706 30.5452C1.95937 30.5452 1.24162 30.272 0.695246 29.7256C0.694434 29.7248 0.693684 29.7239 0.692871 29.7231C0.831496 30.0784 1.04237 30.4042 1.31925 30.6811C1.86568 31.2275 2.58337 31.5007 3.30106 31.5007C4.01881 31.5007 4.73656 31.2274 5.28293 30.681L14.432 21.5302C14.9418 21.6747 15.4678 21.7478 15.9991 21.7478C19.1688 21.7478 21.7476 19.1691 21.7476 15.9993C21.7476 15.3867 21.6521 14.7845 21.4637 14.2095Z" fill="#407093"/>
<path d="M14.6304 12.8907L15.4202 13.6806L17.9389 11.1582C18.0311 11.0661 18.0688 10.9327 18.0386 10.8059C18.0083 10.6791 17.9144 10.5771 17.7906 10.5366C17.5801 10.4676 17.3662 10.4114 17.1502 10.3673L14.6304 12.8908V12.8907Z" fill="#407093"/>
<path d="M15.9988 7.1582C11.1238 7.1582 7.15771 11.1243 7.15771 15.9993C7.15771 17.3698 7.47847 18.7285 8.08709 19.9479L9.21853 18.8163C8.85034 17.9281 8.65771 16.9675 8.65771 15.9993C8.65771 11.9514 11.9509 8.6582 15.9988 8.6582C20.0468 8.6582 23.3418 11.9514 23.3418 15.9993C23.3418 20.0473 20.0477 23.3405 15.9988 23.3405C15.0307 23.3405 14.07 23.148 13.1819 22.7802L12.0504 23.912C13.2697 24.52 14.6283 24.8405 15.9988 24.8405C20.8748 24.8405 24.8418 20.8743 24.8418 15.9993C24.8418 11.1243 20.8748 7.1582 15.9988 7.1582Z" fill="#F2B149"/>
<path d="M26.5682 31.4993C29.2915 31.4993 31.4992 29.2916 31.4992 26.5683C31.4992 23.845 29.2915 21.6373 26.5682 21.6373C23.8449 21.6373 21.6372 23.845 21.6372 26.5683C21.6372 29.2916 23.8449 31.4993 26.5682 31.4993Z" fill="#80B4FB"/>
<path d="M26.5679 21.6373C26.4309 21.6373 26.2957 21.6444 26.1616 21.6554C28.6911 21.8628 30.6864 23.9863 30.6864 26.5683C30.6864 29.1504 28.6911 31.2738 26.1616 31.4813C26.2957 31.4923 26.4309 31.4993 26.5679 31.4993C29.2869 31.4993 31.4989 29.2873 31.4989 26.5683C31.4989 23.8494 29.2868 21.6373 26.5679 21.6373Z" fill="#61A2F9"/>
<path d="M25.8503 28.6936C25.6582 28.6936 25.4663 28.6202 25.32 28.4739L23.8866 27.0406C23.5938 26.7476 23.5938 26.2728 23.8866 25.9799C24.1796 25.6869 24.6544 25.6869 24.9473 25.9799L25.8611 26.8937L28.1995 24.6502C28.4984 24.3635 28.9731 24.3732 29.2599 24.6721C29.5466 24.971 29.5368 25.4458 29.238 25.7326L26.3695 28.4847C26.2243 28.624 26.0372 28.6935 25.8503 28.6935L25.8503 28.6936Z" fill="#E4F6FF"/>
<path d="M16.91 0.71733L18.2473 3.61777L21.4645 4.95077L22.1923 4.68258L19.6222 3.61771L18.2849 0.717268C18.2236 0.584393 18.0907 0.499268 17.9443 0.499268H16.5693C16.7156 0.499268 16.8486 0.584393 16.9099 0.717268L16.91 0.71733Z" fill="#F2B149"/>
<path d="M31.2808 13.7151L28.3803 12.376L27.3171 9.80581L28.42 6.80968C28.4705 6.67249 28.4367 6.51843 28.3333 6.41506L25.5848 3.66474C25.4813 3.56124 25.3272 3.52737 25.1898 3.57793L24.4102 3.86524L26.9583 6.41506C27.0617 6.51843 27.0955 6.67249 27.045 6.80968L25.9421 9.80581L27.0053 12.376L29.9058 13.7151C30.0387 13.7764 30.1237 13.9093 30.1237 14.0556V17.9431C30.1237 18.0893 30.0387 18.2222 29.9058 18.2835L27.0053 19.6226L26.1642 21.6551C26.2974 21.6443 26.4317 21.6372 26.5675 21.6372C26.8895 21.6372 27.204 21.6692 27.5088 21.7284L28.3802 19.6226L31.2808 18.2835C31.4136 18.2222 31.4986 18.0893 31.4986 17.9431V14.0556C31.4986 13.9093 31.4136 13.7764 31.2808 13.7151H31.2808Z" fill="#F2B149"/>
<path d="M21.2332 27.1454L18.2471 28.381L16.9099 31.2814C16.8486 31.4143 16.7157 31.4994 16.5693 31.4994H17.9443C18.0906 31.4994 18.2236 31.4143 18.2849 31.2814L19.6221 28.381L21.7279 27.5097C21.7098 27.4165 21.6946 27.3223 21.682 27.2273L21.2332 27.1454V27.1454Z" fill="#F2B149"/>
</g>
<defs>
<clipPath id="clip0_148_543">
<rect width="32" height="32" fill="white"/>
</clipPath>
</defs>
</svg>
