<svg width="32" height="32" viewBox="0 0 32 32" fill="none" xmlns="http://www.w3.org/2000/svg">
<g clip-path="url(#clip0_148_568)">
<path d="M11.6348 2.07997C11.6348 2.34497 11.4148 2.56497 11.1498 2.56497H6.94984C6.67984 2.56497 6.46484 2.34497 6.46484 2.07997C6.46484 1.81497 6.67984 1.59497 6.94984 1.59497H11.1498C11.4198 1.59497 11.6348 1.81497 11.6348 2.07997Z" fill="#2B2F64"/>
<path d="M13.2049 2.07997C13.2049 2.34497 12.9899 2.56497 12.7199 2.56497C12.4549 2.56497 12.2349 2.34497 12.2349 2.07997C12.2349 1.81497 12.4499 1.59497 12.7149 1.59497H12.7199C12.9949 1.59497 13.2049 1.81497 13.2049 2.07997Z" fill="#2B2F64"/>
<path d="M9.83514 27.9449C9.11014 27.9449 8.51514 28.5349 8.51514 29.2649C8.51514 29.9899 9.10514 30.5799 9.83514 30.5799C10.5601 30.5799 11.1551 29.9949 11.1551 29.2649C11.1501 28.5399 10.5601 27.9449 9.83514 27.9449ZM9.83514 29.6099C9.64014 29.6099 9.48514 29.4549 9.48514 29.2649C9.48514 29.0699 9.64014 28.9149 9.83514 28.9149C10.0251 28.9149 10.1851 29.0699 10.1851 29.2649C10.1801 29.4549 10.0201 29.6099 9.83514 29.6099Z" fill="#2B2F64"/>
<path d="M13.85 13.48C14.2 12.835 14.4 12.1 14.4 11.315C14.4 8.8 12.35 6.75 9.83498 6.75C7.31998 6.75 5.26998 8.8 5.26998 11.315C5.26998 12.1 5.46998 12.835 5.81998 13.48C5.09498 13.93 4.60498 14.625 4.60498 15.275V19.895C4.60498 21.35 6.65998 22.285 9.83498 22.285H9.83998C11.43 22.285 12.74 22.05 13.65 21.635C14.56 21.22 15.075 20.62 15.075 19.895V15.275C15.07 14.62 14.58 13.925 13.85 13.48ZM9.83498 7.715C11.82 7.715 13.435 9.33 13.435 11.315C13.435 13.305 11.82 14.915 9.83498 14.915C7.84998 14.915 6.23498 13.305 6.23498 11.315C6.23498 9.33 7.84998 7.715 9.83498 7.715ZM6.92498 20.93C6.05498 20.655 5.56498 20.265 5.56498 19.89V19.125C5.92998 19.355 6.38498 19.545 6.92498 19.69V20.93ZM6.92498 18.675C6.05498 18.4 5.56498 18.005 5.56498 17.635V16.9C5.93498 17.165 6.38998 17.4 6.92498 17.58V18.675ZM9.34998 21.31C8.81498 21.29 8.32998 21.235 7.89498 21.165V19.895C8.34498 19.96 8.82998 20.005 9.34998 20.02V21.31ZM9.34998 19.05C8.81498 19.03 8.32998 18.975 7.89498 18.905V17.83C8.34998 17.915 8.83498 17.975 9.34998 18V19.05ZM11.82 21.155C11.375 21.235 10.87 21.285 10.315 21.31V20.02C10.855 20 11.355 19.955 11.82 19.885V21.155ZM11.82 18.895C11.375 18.975 10.87 19.03 10.315 19.05V18C10.85 17.975 11.35 17.92 11.82 17.82V18.895ZM14.1 19.895C14.1 20.265 13.63 20.64 12.79 20.92V19.685C13.31 19.54 13.745 19.355 14.1 19.13V19.895ZM14.1 17.635C14.1 18.005 13.63 18.38 12.79 18.66V17.565C13.3 17.385 13.74 17.16 14.1 16.9V17.635ZM9.83998 17.04C9.82998 17.035 9.82998 17.04 9.82998 17.04C7.38998 17.035 5.56998 16.105 5.56998 15.27C5.56998 14.995 5.88498 14.56 6.36998 14.275C7.20998 15.255 8.44998 15.875 9.83498 15.875C11.22 15.875 12.47 15.25 13.305 14.27C13.825 14.575 14.1 15.015 14.1 15.27C14.1 16.105 12.275 17.04 9.83998 17.04Z" fill="#2B2F64"/>
<path d="M9.83486 7.71497C7.84986 7.71497 6.23486 9.32997 6.23486 11.315C6.23486 13.305 7.84986 14.915 9.83486 14.915C11.8199 14.915 13.4349 13.305 13.4349 11.315C13.4299 9.32997 11.8149 7.71497 9.83486 7.71497ZM10.9049 12.32C10.8449 12.445 10.7699 12.555 10.6649 12.645C10.5699 12.73 10.4449 12.805 10.3049 12.86C10.1999 12.9 10.0749 12.935 9.94986 12.945L9.89986 13.39L9.87986 13.445C9.85986 13.48 9.83486 13.505 9.79986 13.52C9.76986 13.53 9.74486 13.54 9.70986 13.545C9.67986 13.55 9.63986 13.55 9.59486 13.55C9.53486 13.55 9.48986 13.55 9.45486 13.545C9.40986 13.535 9.37486 13.525 9.34986 13.51L9.31486 13.49L9.25986 13.415C9.24986 13.38 9.24486 13.345 9.24986 13.31L9.28986 12.93C9.25486 12.925 9.21986 12.92 9.19486 12.91C9.12486 12.89 9.06986 12.875 9.01486 12.855C8.95986 12.83 8.91486 12.81 8.87486 12.79C8.82486 12.765 8.79486 12.735 8.76486 12.71C8.73486 12.68 8.70986 12.63 8.69486 12.575C8.68486 12.53 8.67986 12.475 8.67986 12.39C8.67986 12.33 8.68486 12.285 8.68486 12.25C8.68986 12.2 8.69986 12.165 8.71486 12.135L8.72986 12.1L8.78986 12.04C8.81986 12.025 8.85486 12.015 8.88486 12.015C8.92986 12.015 8.97486 12.03 9.03486 12.065C9.06986 12.09 9.11486 12.115 9.17486 12.145C9.23486 12.17 9.29986 12.195 9.38486 12.22C9.46486 12.24 9.55986 12.25 9.66986 12.25C9.82986 12.25 9.94986 12.225 10.0199 12.17C10.0899 12.12 10.1149 12.065 10.1149 11.98C10.1149 11.93 10.0999 11.89 10.0749 11.86C10.0449 11.82 9.99986 11.785 9.95486 11.76C9.88986 11.725 9.82486 11.69 9.74486 11.67C9.66486 11.64 9.57986 11.605 9.49486 11.575C9.40486 11.54 9.31486 11.495 9.22986 11.455C9.13986 11.4 9.05486 11.345 8.98486 11.27C8.90486 11.19 8.84486 11.1 8.80486 10.995C8.75486 10.89 8.73486 10.76 8.73486 10.61C8.73486 10.475 8.75486 10.355 8.80486 10.24C8.84986 10.13 8.91486 10.03 8.99986 9.94497C9.08486 9.86497 9.19486 9.79497 9.31486 9.74497C9.40486 9.69997 9.51486 9.66997 9.62986 9.65497L9.66986 9.23497L9.69986 9.17497C9.71486 9.15497 9.73986 9.12997 9.77486 9.11497C9.80486 9.09997 9.83486 9.09497 9.86986 9.08997C9.89986 9.08497 9.93986 9.07997 9.97986 9.07997C10.0399 9.07997 10.0849 9.08497 10.1199 9.08997C10.1649 9.09497 10.1999 9.10997 10.2249 9.11997L10.2699 9.14497L10.3199 9.22497C10.3299 9.24997 10.3349 9.27997 10.3349 9.30497L10.2949 9.66997C10.3099 9.66997 10.3249 9.67497 10.3399 9.67997C10.3949 9.68997 10.4449 9.70497 10.4899 9.72497C10.5399 9.73997 10.5799 9.75997 10.6199 9.77497C10.6699 9.79997 10.6999 9.82497 10.7199 9.84497L10.7349 9.85997L10.7749 9.91497C10.7849 9.93497 10.7949 9.96497 10.7999 9.99497C10.8049 10.02 10.8099 10.05 10.8099 10.08C10.8149 10.11 10.8149 10.145 10.8149 10.18C10.8149 10.235 10.8149 10.275 10.8099 10.31C10.8099 10.355 10.7999 10.39 10.7899 10.415L10.7799 10.445L10.7299 10.5C10.6999 10.52 10.6699 10.53 10.6399 10.53C10.5949 10.53 10.5549 10.515 10.4949 10.485C10.4599 10.465 10.4149 10.44 10.3599 10.42C10.2999 10.395 10.2399 10.375 10.1699 10.355C10.0999 10.335 10.0249 10.325 9.94486 10.325C9.86986 10.325 9.80986 10.335 9.75986 10.345C9.71486 10.36 9.67986 10.375 9.65486 10.395C9.63486 10.415 9.61486 10.435 9.60486 10.46C9.59486 10.485 9.58986 10.515 9.58986 10.545C9.58986 10.595 9.59986 10.63 9.62486 10.665C9.65486 10.705 9.69986 10.74 9.74986 10.765C9.81486 10.8 9.87986 10.835 9.95986 10.855L10.2199 10.955C10.3099 10.99 10.3999 11.03 10.4849 11.07C10.5749 11.125 10.6649 11.18 10.7349 11.255C10.8099 11.33 10.8699 11.42 10.9149 11.525C10.9649 11.625 10.9899 11.76 10.9899 11.9C10.9849 12.06 10.9599 12.2 10.9049 12.32Z" fill="#FFDC7D"/>
<path d="M14.1003 15.275C14.1003 16.11 12.2753 17.04 9.84031 17.045L9.83531 17.04C9.83031 17.04 9.83031 17.045 9.83031 17.045C7.39031 17.04 5.57031 16.11 5.57031 15.275C5.57031 15 5.88531 14.565 6.37031 14.28C7.21031 15.26 8.45031 15.88 9.83531 15.88C11.2203 15.88 12.4703 15.255 13.3053 14.275C13.8253 14.58 14.1003 15.02 14.1003 15.275Z" fill="#FFDC7D"/>
<path d="M14.1003 15.275C14.1003 16.11 12.2753 17.04 9.84031 17.045L9.83531 17.04C9.83031 17.04 9.83031 17.045 9.83031 17.045C7.39031 17.04 5.57031 16.11 5.57031 15.275C5.57031 15 5.88531 14.565 6.37031 14.28C6.49031 14.42 6.61531 14.55 6.75531 14.68C6.51031 14.86 6.35531 15.075 6.35531 15.225C6.35531 15.815 7.84031 16.475 9.83031 16.48C9.83031 16.48 9.83031 16.475 9.83531 16.475L9.84031 16.48C11.8353 16.475 13.3203 15.815 13.3203 15.225C13.3203 15.09 13.1853 14.865 12.9203 14.675C13.0553 14.55 13.1803 14.42 13.3053 14.275C13.8253 14.58 14.1003 15.02 14.1003 15.275Z" fill="#EBC25D"/>
<path d="M10.9852 11.905C10.9852 12.06 10.9552 12.2 10.9052 12.32C10.8452 12.445 10.7702 12.555 10.6652 12.645C10.5702 12.73 10.4452 12.805 10.3052 12.86C10.2002 12.9 10.0752 12.935 9.95018 12.945L9.90018 13.39L9.88018 13.445C9.86018 13.48 9.83518 13.505 9.80018 13.52C9.77018 13.53 9.74518 13.54 9.71018 13.545C9.68018 13.55 9.64018 13.55 9.59518 13.55C9.53518 13.55 9.49018 13.55 9.45518 13.545C9.41018 13.535 9.37518 13.525 9.35018 13.51L9.31518 13.49L9.26018 13.415C9.25018 13.38 9.24518 13.345 9.25018 13.31L9.29018 12.93C9.25518 12.925 9.22018 12.92 9.19518 12.91C9.12518 12.89 9.07018 12.875 9.01518 12.855C8.96018 12.83 8.91518 12.81 8.87518 12.79C8.82518 12.765 8.79518 12.735 8.76518 12.71C8.73518 12.68 8.71018 12.63 8.69518 12.575C8.68518 12.53 8.68018 12.475 8.68018 12.39C8.68018 12.33 8.68518 12.285 8.68518 12.25C8.69018 12.2 8.70018 12.165 8.71518 12.135L8.73018 12.1L8.79018 12.04C8.82018 12.025 8.85518 12.015 8.88518 12.015C8.93018 12.015 8.97518 12.03 9.03518 12.065C9.07018 12.09 9.11518 12.115 9.17518 12.145C9.23518 12.17 9.30018 12.195 9.38518 12.22C9.46518 12.24 9.56018 12.25 9.67018 12.25C9.83018 12.25 9.95018 12.225 10.0202 12.17C10.0902 12.12 10.1152 12.065 10.1152 11.98C10.1152 11.93 10.1002 11.89 10.0752 11.86C10.0452 11.82 10.0002 11.785 9.95518 11.76C9.89018 11.725 9.82518 11.69 9.74518 11.67C9.66518 11.64 9.58018 11.605 9.49518 11.575C9.40518 11.54 9.31517 11.495 9.23018 11.455C9.14018 11.4 9.05518 11.345 8.98518 11.27C8.90518 11.19 8.84518 11.1 8.80518 10.995C8.75518 10.89 8.73518 10.76 8.73518 10.61C8.73518 10.475 8.75518 10.355 8.80518 10.24C8.85018 10.13 8.91518 10.03 9.00018 9.94496C9.08518 9.86496 9.19518 9.79496 9.31518 9.74496C9.40518 9.69996 9.51518 9.66996 9.63018 9.65496L9.67018 9.23496L9.70018 9.17496C9.71518 9.15496 9.74018 9.12996 9.77518 9.11496C9.80518 9.09996 9.83518 9.09496 9.87018 9.08996C9.90018 9.08496 9.94018 9.07996 9.98018 9.07996C10.0402 9.07996 10.0852 9.08496 10.1202 9.08996C10.1652 9.09496 10.2002 9.10996 10.2252 9.11996L10.2702 9.14496L10.3202 9.22496C10.3302 9.24996 10.3352 9.27996 10.3352 9.30496L10.2952 9.66996C10.3102 9.66996 10.3252 9.67496 10.3402 9.67996C10.3952 9.68996 10.4452 9.70496 10.4902 9.72496C10.5402 9.73996 10.5802 9.75996 10.6202 9.77496C10.6702 9.79996 10.7002 9.82496 10.7202 9.84496L10.7352 9.85996L10.7752 9.91496C10.7852 9.93496 10.7952 9.96496 10.8002 9.99496C10.8052 10.02 10.8102 10.05 10.8102 10.08C10.8152 10.11 10.8152 10.145 10.8152 10.18C10.8152 10.235 10.8152 10.275 10.8102 10.31C10.8102 10.355 10.8002 10.39 10.7902 10.415L10.7802 10.445L10.7302 10.5C10.7002 10.52 10.6702 10.53 10.6402 10.53C10.5952 10.53 10.5552 10.515 10.4952 10.485C10.4602 10.465 10.4152 10.44 10.3602 10.42C10.3002 10.395 10.2402 10.375 10.1702 10.355C10.1002 10.335 10.0252 10.325 9.94518 10.325C9.87018 10.325 9.81018 10.335 9.76018 10.345C9.71518 10.36 9.68018 10.375 9.65518 10.395C9.63518 10.415 9.61518 10.435 9.60518 10.46C9.59518 10.485 9.59018 10.515 9.59018 10.545C9.59018 10.595 9.60018 10.63 9.62518 10.665C9.65518 10.705 9.70018 10.74 9.75018 10.765C9.81518 10.8 9.88018 10.835 9.96018 10.855L10.2202 10.955C10.3102 10.99 10.4002 11.03 10.4852 11.07C10.5752 11.125 10.6652 11.18 10.7352 11.255C10.8102 11.33 10.8702 11.42 10.9152 11.525C10.9602 11.63 10.9852 11.76 10.9852 11.905Z" fill="#2B2F64"/>
<path d="M31.4401 12.93H29.5701L30.7851 12.37C30.9001 12.315 30.9951 12.22 31.0351 12.1C31.0801 11.98 31.0751 11.845 31.0201 11.725L26.6151 2.15C26.5051 1.91 26.2151 1.8 25.9701 1.91L19.5901 4.845V2.355C19.5901 1.055 18.5351 0 17.2351 0H2.43508C1.13508 0 0.0800781 1.055 0.0800781 2.355V29.64C0.0800781 30.94 1.13508 31.995 2.43508 31.995H17.2351C18.5351 31.995 19.5901 30.94 19.5901 29.64V24.44H31.4401C31.7051 24.44 31.9251 24.22 31.9251 23.955V13.415C31.9201 13.15 31.7051 12.93 31.4401 12.93ZM18.6201 29.645C18.6201 30.41 18.0001 31.03 17.2351 31.03H2.43508C1.67008 31.03 1.05008 30.41 1.05008 29.645V27.165C1.37008 27.375 1.75008 27.5 2.15508 27.5H17.5151C17.9201 27.5 18.3001 27.375 18.6201 27.165V29.645ZM18.6201 5.61V5.62V13.41V13.415V13.42V15.63V15.635V21.75V21.755V23.955V23.96V23.965V25.36C18.6201 26 18.1251 26.525 17.5151 26.525H2.15508C1.54508 26.525 1.05008 26 1.05008 25.36V5.325C1.05008 4.685 1.54508 4.16 2.15508 4.16H17.5151C18.1251 4.16 18.6201 4.685 18.6201 5.325V5.61ZM18.6201 3.525C18.3001 3.315 17.9201 3.19 17.5151 3.19H2.15508C1.75008 3.19 1.37008 3.315 1.05008 3.525V2.355C1.05008 1.595 1.67008 0.97 2.43508 0.97H17.2351C18.0001 0.97 18.6201 1.595 18.6201 2.355V3.525ZM19.5901 5.91L25.9351 2.995L29.9351 11.695L27.2451 12.93H24.2701L25.9301 12.17C26.0451 12.115 26.1401 12.02 26.1801 11.9L27.0601 9.525C27.1051 9.405 27.1001 9.27 27.0451 9.15L25.9851 6.845C25.9301 6.73 25.8351 6.635 25.7151 6.595L23.3451 5.715C23.2251 5.67 23.0901 5.675 22.9701 5.73L19.5951 7.28V5.91H19.5901ZM19.5901 8.35L23.1851 6.695L25.1801 7.43L26.0751 9.37L25.3401 11.37L21.9451 12.925H19.5901V8.35ZM19.5901 16.115H26.9151L28.4201 17.62V19.76L26.9151 21.27H19.5901V16.115ZM30.9551 23.475H19.5901V22.235H27.1151C27.2451 22.235 27.3651 22.18 27.4601 22.095L29.2501 20.3C29.3401 20.21 29.3901 20.08 29.3901 19.955V17.42C29.3901 17.29 29.3351 17.17 29.2501 17.075L27.4601 15.285C27.3701 15.2 27.2451 15.145 27.1151 15.145H19.5901V13.9H30.9551V23.475Z" fill="#2B2F64"/>
<path d="M17.5153 27.495H2.15529C1.75029 27.495 1.37029 27.37 1.05029 27.16V29.64C1.05029 30.405 1.67029 31.025 2.43529 31.025H17.2353C18.0003 31.025 18.6203 30.405 18.6203 29.64V27.16C18.3003 27.37 17.9203 27.495 17.5153 27.495ZM9.83529 30.58C9.11029 30.58 8.51529 29.995 8.51529 29.265C8.51529 28.54 9.10529 27.945 9.83529 27.945C10.5603 27.945 11.1553 28.535 11.1553 29.265C11.1503 29.995 10.5603 30.58 9.83529 30.58Z" fill="#F26E62"/>
<path d="M10.18 29.265C10.18 29.455 10.02 29.61 9.82998 29.61C9.63498 29.61 9.47998 29.455 9.47998 29.265C9.47998 29.07 9.63498 28.915 9.82998 28.915C10.02 28.915 10.18 29.07 10.18 29.265Z" fill="#FFDC7D"/>
<path d="M17.2303 0.969971H2.43529C1.67029 0.969971 1.05029 1.59497 1.05029 2.35497V3.52497C1.37029 3.31497 1.75029 3.18997 2.15529 3.18997H17.5153C17.9203 3.18997 18.3003 3.31497 18.6203 3.52497V2.35497C18.6203 1.59497 18.0003 0.969971 17.2303 0.969971ZM11.1503 2.56497H6.95029C6.68029 2.56497 6.46529 2.34497 6.46529 2.07997C6.46529 1.81497 6.68029 1.59497 6.95029 1.59497H11.1503C11.4153 1.59497 11.6353 1.81497 11.6353 2.07997C11.6353 2.34497 11.4203 2.56497 11.1503 2.56497ZM12.7203 2.56497C12.4553 2.56497 12.2353 2.34497 12.2353 2.07997C12.2353 1.81497 12.4503 1.59497 12.7153 1.59497H12.7203C12.9903 1.59497 13.2053 1.81497 13.2053 2.07997C13.2053 2.34497 12.9953 2.56497 12.7203 2.56497Z" fill="#F26E62"/>
<path d="M18.6203 27.16V29.64C18.6203 30.405 18.0003 31.025 17.2353 31.025H2.43529C1.67029 31.025 1.05029 30.405 1.05029 29.64V27.16C1.28529 27.31 1.54029 27.415 1.82029 27.465V28.915C1.82029 29.64 2.38529 30.23 3.08529 30.23H8.94029C9.17529 30.45 9.49029 30.58 9.83029 30.58C10.1753 30.58 10.4903 30.45 10.7203 30.23H16.5753C17.2753 30.23 17.8403 29.645 17.8403 28.915V27.465C18.1303 27.42 18.3853 27.31 18.6203 27.16Z" fill="#E15F5A"/>
<path d="M18.6203 2.35497V3.52497C18.3853 3.37497 18.1303 3.26997 17.8503 3.21997V3.08497C17.8503 2.36497 17.2853 1.76997 16.5853 1.76997H13.1003C13.0153 1.66497 12.8753 1.59497 12.7253 1.59497H12.7203C12.5703 1.59497 12.4403 1.66497 12.3503 1.76997H11.5253C11.4353 1.66497 11.3003 1.59497 11.1503 1.59497H6.95029C6.80029 1.59497 6.66529 1.66497 6.57529 1.76997H3.08529C2.38529 1.76997 1.82029 2.35997 1.82029 3.08497V3.21997C1.54029 3.26997 1.28029 3.37497 1.05029 3.52497V2.35497C1.05029 1.59497 1.67029 0.969971 2.43529 0.969971H17.2353C18.0003 0.969971 18.6203 1.59497 18.6203 2.35497Z" fill="#E15F5A"/>
<path d="M14.1 19.125V19.89C14.1 20.26 13.63 20.635 12.79 20.915V19.68C13.31 19.535 13.745 19.35 14.1 19.125Z" fill="#EBC25D"/>
<path d="M11.8199 19.885V21.155C11.3749 21.235 10.8699 21.285 10.3149 21.31V20.02C10.8549 20 11.3549 19.955 11.8199 19.885Z" fill="#EBC25D"/>
<path d="M9.35002 20.02V21.31C8.81502 21.29 8.33002 21.235 7.89502 21.165V19.895C8.34502 19.955 8.83002 20.005 9.35002 20.02Z" fill="#EBC25D"/>
<path d="M6.92494 19.695V20.93C6.05494 20.655 5.56494 20.265 5.56494 19.89V19.125C5.92994 19.355 6.38494 19.55 6.92494 19.695Z" fill="#EBC25D"/>
<path d="M6.92494 17.575V18.675C6.05494 18.4 5.56494 18.005 5.56494 17.635V16.9C5.93494 17.165 6.38994 17.395 6.92494 17.575Z" fill="#EBC25D"/>
<path d="M9.35002 18V19.05C8.81502 19.03 8.33002 18.975 7.89502 18.905V17.83C8.35002 17.915 8.83502 17.975 9.35002 18Z" fill="#EBC25D"/>
<path d="M11.8199 17.8199V18.8949C11.3749 18.9749 10.8699 19.0299 10.3149 19.0499V17.9999C10.8499 17.9749 11.3499 17.9149 11.8199 17.8199Z" fill="#EBC25D"/>
<path d="M14.1 16.895V17.63C14.1 18 13.63 18.375 12.79 18.655V17.56C13.3 17.38 13.74 17.155 14.1 16.895Z" fill="#EBC25D"/>
<path d="M9.83486 7.71497C7.84986 7.71497 6.23486 9.32997 6.23486 11.315C6.23486 13.305 7.84986 14.915 9.83486 14.915C11.8199 14.915 13.4349 13.305 13.4349 11.315C13.4299 9.32997 11.8149 7.71497 9.83486 7.71497ZM9.83486 14.275C8.19986 14.275 6.87486 12.95 6.87486 11.315C6.87486 9.67997 8.20486 8.35497 9.83486 8.35497C11.4649 8.35497 12.7949 9.68497 12.7949 11.315C12.7949 12.95 11.4649 14.275 9.83486 14.275Z" fill="#EBC25D"/>
<path d="M17.5153 4.16003H2.15529C1.54529 4.16003 1.05029 4.68503 1.05029 5.32503V25.365C1.05029 26.005 1.54529 26.53 2.15529 26.53H17.5153C18.1253 26.53 18.6203 26.005 18.6203 25.365V23.97C18.6203 23.97 18.6203 23.97 18.6203 23.965C18.6203 23.96 18.6203 23.96 18.6203 23.96V21.76C18.6203 21.76 18.6203 21.76 18.6203 21.755V15.635C18.6203 15.635 18.6203 15.635 18.6203 15.63V13.42C18.6203 13.42 18.6203 13.42 18.6203 13.415C18.6203 13.41 18.6203 13.41 18.6203 13.41V5.62003C18.6203 5.61503 18.6203 5.61003 18.6203 5.61003V5.32503C18.6203 4.68503 18.1253 4.16003 17.5153 4.16003ZM15.0703 19.895C15.0703 20.62 14.5553 21.22 13.6453 21.635C12.7353 22.05 11.4253 22.285 9.83529 22.285C9.83529 22.285 9.83529 22.285 9.83029 22.285C6.65529 22.285 4.60029 21.35 4.60029 19.895V15.275C4.60029 14.625 5.09029 13.93 5.81529 13.48C5.46529 12.835 5.26529 12.1 5.26529 11.315C5.26529 8.80003 7.31529 6.75003 9.83029 6.75003C12.3453 6.75003 14.3953 8.80003 14.3953 11.315C14.3953 12.1 14.1953 12.835 13.8453 13.48C14.5703 13.925 15.0603 14.62 15.0603 15.275V19.895H15.0703Z" fill="#D7E9F2"/>
<path d="M17.5153 4.16003H2.15529C1.54529 4.16003 1.05029 4.68503 1.05029 5.32503V25.365C1.05029 26.005 1.54529 26.53 2.15529 26.53H17.5153C18.1253 26.53 18.6203 26.005 18.6203 25.365V23.97C18.6203 23.97 18.6203 23.97 18.6203 23.965C18.6203 23.96 18.6203 23.96 18.6203 23.96V21.76C18.6203 21.76 18.6203 21.76 18.6203 21.755V15.635C18.6203 15.635 18.6203 15.635 18.6203 15.63V13.42C18.6203 13.42 18.6203 13.42 18.6203 13.415C18.6203 13.41 18.6203 13.41 18.6203 13.41V5.62003C18.6203 5.61503 18.6203 5.61003 18.6203 5.61003V5.32503C18.6203 4.68503 18.1253 4.16003 17.5153 4.16003ZM17.8453 6.25003V6.26003V13.54V13.545V13.55V15.615V15.62V21.33V21.335V23.39V23.395V23.4V24.705C17.8453 25.305 17.3953 25.795 16.8353 25.795H2.82529C2.26529 25.795 1.81529 25.305 1.81529 24.705V5.98503C1.81529 5.38503 2.26529 4.89503 2.82529 4.89503H16.8353C17.3953 4.89503 17.8453 5.38503 17.8453 5.98503V6.25003Z" fill="#B8DAE8"/>
<path d="M30.9548 13.9V23.475H19.5898V22.235H27.1148C27.2448 22.235 27.3648 22.18 27.4598 22.095L29.2498 20.3C29.3398 20.21 29.3898 20.08 29.3898 19.955V17.42C29.3898 17.29 29.3348 17.17 29.2498 17.075L27.4598 15.285C27.3698 15.2 27.2448 15.145 27.1148 15.145H19.5898V13.9H30.9548Z" fill="#54BF9F"/>
<path d="M30.9548 13.9V23.475H19.5898V22.905H30.3598V14.475H19.5898V13.9H30.9548Z" fill="#3DA57F"/>
<path d="M29.9352 11.695L27.2452 12.93H24.2702L25.9302 12.17C26.0452 12.115 26.1402 12.02 26.1802 11.9L27.0602 9.52499C27.1052 9.40499 27.1002 9.26999 27.0452 9.14999L25.9852 6.845C25.9302 6.73 25.8352 6.63499 25.7152 6.595L23.3452 5.715C23.2252 5.67 23.0902 5.675 22.9702 5.73L19.5952 7.28V5.91L25.9402 2.995L29.9352 11.695Z" fill="#54BF9F"/>
<path d="M29.9348 11.695L27.2448 12.93H25.7048L29.0948 11.37L25.6098 3.79L19.5898 6.555V5.91L25.9348 2.995L29.9348 11.695Z" fill="#3DA57F"/>
<path d="M26.0748 9.36995L25.3398 11.3749L21.9448 12.9299H19.5898V8.34995L23.1848 6.69495L25.1798 7.43495L26.0748 9.36995Z" fill="#FFDC7D"/>
<path d="M26.0748 9.36995L25.3398 11.3749L21.9448 12.9299H20.9448L24.9148 11.1149L25.5248 9.44495L24.7798 7.83495L23.1248 7.21995L19.5898 8.84495V8.34995L23.1848 6.69495L25.1798 7.43495L26.0748 9.36995Z" fill="#EBC25D"/>
<path d="M26.9148 16.115H19.5898V21.265H26.9148L28.4198 19.755V17.615L26.9148 16.115ZM23.3648 19.625C23.3148 19.735 23.2398 19.84 23.1448 19.92C23.0548 20 22.9398 20.07 22.8148 20.12C22.7148 20.16 22.5998 20.185 22.4798 20.2L22.4348 20.615L22.4148 20.67C22.3998 20.69 22.3798 20.715 22.3348 20.735C22.3148 20.74 22.2898 20.75 22.2548 20.755C22.2248 20.76 22.1848 20.76 22.1448 20.76C22.0898 20.76 22.0548 20.76 22.0198 20.755C21.9748 20.745 21.9448 20.74 21.9248 20.725L21.8898 20.71L21.8398 20.635C21.8298 20.605 21.8248 20.575 21.8348 20.545L21.8698 20.185C21.8348 20.18 21.7998 20.175 21.7748 20.165C21.7098 20.15 21.6598 20.13 21.6098 20.115C21.5548 20.095 21.5148 20.075 21.4798 20.055C21.4348 20.03 21.4048 20.005 21.3798 19.98C21.3498 19.95 21.3298 19.905 21.3198 19.86C21.3098 19.82 21.3048 19.765 21.3048 19.69C21.3048 19.635 21.3048 19.595 21.3098 19.555C21.3148 19.51 21.3198 19.475 21.3298 19.455L21.3448 19.425L21.3998 19.37C21.4298 19.355 21.4598 19.345 21.4898 19.345C21.5298 19.345 21.5698 19.36 21.6198 19.395C21.6598 19.415 21.6998 19.44 21.7548 19.465C21.8098 19.49 21.8748 19.515 21.9498 19.535C22.0248 19.555 22.1148 19.565 22.2148 19.565C22.3648 19.565 22.4748 19.54 22.5448 19.485C22.6098 19.44 22.6348 19.385 22.6348 19.305C22.6348 19.255 22.6198 19.22 22.5998 19.19C22.5698 19.15 22.5248 19.12 22.4798 19.095C22.4248 19.06 22.3598 19.03 22.2898 19.01C22.2098 18.98 22.1348 18.95 22.0498 18.925C21.9648 18.89 21.8798 18.85 21.8048 18.81C21.7198 18.76 21.6448 18.71 21.5748 18.64C21.4998 18.565 21.4498 18.485 21.4048 18.39C21.3648 18.29 21.3398 18.17 21.3398 18.035C21.3398 17.91 21.3648 17.795 21.4048 17.69C21.4498 17.59 21.5098 17.495 21.5898 17.42C21.6698 17.34 21.7698 17.28 21.8798 17.235C21.9648 17.195 22.0648 17.165 22.1748 17.155L22.2148 16.755L22.2348 16.705C22.2548 16.68 22.2748 16.66 22.3098 16.645C22.3348 16.635 22.3598 16.625 22.3898 16.62C22.4198 16.615 22.4548 16.615 22.4948 16.615C22.5498 16.615 22.5898 16.62 22.6248 16.625C22.6648 16.63 22.6998 16.64 22.7198 16.65L22.7598 16.67L22.8048 16.745C22.8098 16.77 22.8148 16.795 22.8148 16.82L22.7798 17.165C22.7948 17.165 22.8098 17.17 22.8298 17.175C22.8798 17.185 22.9198 17.2 22.9648 17.215C23.0098 17.23 23.0498 17.25 23.0848 17.265C23.1298 17.285 23.1598 17.305 23.1748 17.325L23.1898 17.34L23.2248 17.39C23.2348 17.415 23.2448 17.44 23.2498 17.465C23.2548 17.49 23.2598 17.52 23.2598 17.545C23.2648 17.575 23.2648 17.605 23.2648 17.64C23.2648 17.69 23.2598 17.725 23.2598 17.76C23.2548 17.805 23.2498 17.835 23.2398 17.855L23.2298 17.88L23.1848 17.93C23.1598 17.95 23.1298 17.955 23.1048 17.955C23.0648 17.955 23.0248 17.945 22.9748 17.915C22.9398 17.895 22.8948 17.875 22.8448 17.855C22.7948 17.835 22.7398 17.815 22.6698 17.795C22.6048 17.775 22.5398 17.77 22.4598 17.77C22.3898 17.77 22.3348 17.775 22.2848 17.79C22.2448 17.8 22.2098 17.815 22.1898 17.835C22.1698 17.85 22.1498 17.87 22.1398 17.895C22.1298 17.92 22.1248 17.95 22.1248 17.975C22.1248 18.025 22.1348 18.06 22.1598 18.09C22.1898 18.13 22.2298 18.165 22.2798 18.19C22.3398 18.22 22.3998 18.25 22.4748 18.27C22.5548 18.3 22.6348 18.33 22.7148 18.36C22.7948 18.395 22.8798 18.43 22.9598 18.47C23.0448 18.52 23.1248 18.57 23.1948 18.64C23.2648 18.71 23.3198 18.795 23.3648 18.89C23.4048 18.98 23.4298 19.105 23.4298 19.235C23.4398 19.38 23.4148 19.51 23.3648 19.625Z" fill="#FFDC7D"/>
<path d="M28.4148 17.62V19.76L26.9148 21.265H19.5898V20.765H26.5048L27.7998 19.55V17.83L26.5048 16.615H19.5898V16.115H26.9148L28.4148 17.62Z" fill="#EBC25D"/>
<path d="M23.4403 19.24C23.4403 19.38 23.4103 19.51 23.3603 19.63C23.3103 19.74 23.2353 19.845 23.1403 19.925C23.0503 20.005 22.9353 20.075 22.8103 20.125C22.7103 20.165 22.5953 20.19 22.4753 20.205L22.4303 20.62L22.4103 20.675C22.3953 20.695 22.3753 20.72 22.3303 20.74C22.3103 20.745 22.2853 20.755 22.2503 20.76C22.2203 20.765 22.1803 20.765 22.1403 20.765C22.0853 20.765 22.0503 20.765 22.0153 20.76C21.9703 20.75 21.9403 20.745 21.9203 20.73L21.8853 20.715L21.8353 20.64C21.8253 20.61 21.8203 20.58 21.8303 20.55L21.8653 20.19C21.8303 20.185 21.7953 20.18 21.7703 20.17C21.7053 20.155 21.6553 20.135 21.6053 20.12C21.5503 20.1 21.5103 20.08 21.4753 20.06C21.4303 20.035 21.4003 20.01 21.3753 19.985C21.3453 19.955 21.3253 19.91 21.3153 19.865C21.3053 19.825 21.3003 19.77 21.3003 19.695C21.3003 19.64 21.3003 19.6 21.3053 19.56C21.3103 19.515 21.3153 19.48 21.3253 19.46L21.3403 19.43L21.3953 19.375C21.4253 19.36 21.4553 19.35 21.4853 19.35C21.5253 19.35 21.5653 19.365 21.6153 19.4C21.6553 19.42 21.6953 19.445 21.7503 19.47C21.8053 19.495 21.8703 19.52 21.9453 19.54C22.0203 19.56 22.1103 19.57 22.2103 19.57C22.3603 19.57 22.4703 19.545 22.5403 19.49C22.6053 19.445 22.6303 19.39 22.6303 19.31C22.6303 19.26 22.6153 19.225 22.5953 19.195C22.5653 19.155 22.5203 19.125 22.4753 19.1C22.4203 19.065 22.3553 19.035 22.2853 19.015C22.2053 18.985 22.1303 18.955 22.0453 18.93C21.9603 18.895 21.8753 18.855 21.8003 18.815C21.7153 18.765 21.6403 18.715 21.5703 18.645C21.4953 18.57 21.4453 18.49 21.4003 18.395C21.3603 18.295 21.3353 18.175 21.3353 18.04C21.3353 17.915 21.3603 17.8 21.4003 17.695C21.4453 17.595 21.5053 17.5 21.5853 17.425C21.6653 17.345 21.7653 17.285 21.8753 17.24C21.9603 17.2 22.0603 17.17 22.1703 17.16L22.2103 16.76L22.2303 16.71C22.2503 16.685 22.2703 16.665 22.3053 16.65C22.3303 16.64 22.3553 16.63 22.3853 16.625C22.4153 16.62 22.4503 16.62 22.4903 16.62C22.5453 16.62 22.5853 16.625 22.6203 16.63C22.6603 16.635 22.6953 16.645 22.7153 16.655L22.7553 16.675L22.8003 16.75C22.8053 16.775 22.8103 16.8 22.8103 16.825L22.7753 17.17C22.7903 17.17 22.8053 17.175 22.8253 17.18C22.8753 17.19 22.9153 17.205 22.9603 17.22C23.0053 17.235 23.0453 17.255 23.0803 17.27C23.1253 17.29 23.1553 17.31 23.1703 17.33L23.1853 17.345L23.2203 17.395C23.2303 17.42 23.2403 17.445 23.2453 17.47C23.2503 17.495 23.2553 17.525 23.2553 17.55C23.2603 17.58 23.2603 17.61 23.2603 17.645C23.2603 17.695 23.2553 17.73 23.2553 17.765C23.2503 17.81 23.2453 17.84 23.2353 17.86L23.2253 17.885L23.1803 17.935C23.1553 17.955 23.1253 17.96 23.1003 17.96C23.0603 17.96 23.0203 17.95 22.9703 17.92C22.9353 17.9 22.8903 17.88 22.8403 17.86C22.7903 17.84 22.7353 17.82 22.6653 17.8C22.6003 17.78 22.5353 17.775 22.4553 17.775C22.3853 17.775 22.3303 17.78 22.2803 17.795C22.2403 17.805 22.2053 17.82 22.1853 17.84C22.1653 17.855 22.1453 17.875 22.1353 17.9C22.1253 17.925 22.1203 17.955 22.1203 17.98C22.1203 18.03 22.1303 18.065 22.1553 18.095C22.1853 18.135 22.2253 18.17 22.2753 18.195C22.3353 18.225 22.3953 18.255 22.4703 18.275C22.5503 18.305 22.6303 18.335 22.7103 18.365C22.7903 18.4 22.8753 18.435 22.9553 18.475C23.0403 18.525 23.1203 18.575 23.1903 18.645C23.2603 18.715 23.3153 18.8 23.3603 18.895C23.4203 18.985 23.4403 19.11 23.4403 19.24Z" fill="#2B2F64"/>
</g>
<defs>
<clipPath id="clip0_148_568">
<rect width="32" height="32" fill="white"/>
</clipPath>
</defs>
</svg>
