<svg width="50" height="50" viewBox="0 0 50 50" fill="none" xmlns="http://www.w3.org/2000/svg">
<path fill-rule="evenodd" clip-rule="evenodd" d="M40.1365 32.4268L38.574 31.4854C38.3787 31.3808 38.281 31.1715 38.281 30.9623V25C38.281 24.7908 38.3787 24.5816 38.574 24.477L40.8201 23.0126V7.53138L40.9177 7.42678V7.32218V7.21757L43.1638 2.92887C43.2615 2.71967 43.4568 2.61506 43.6521 2.61506C43.8474 2.61506 44.0427 2.71967 44.1404 2.92887L46.4841 7.21757C46.4841 7.32218 46.5818 7.42678 46.5818 7.53138V7.63598V23.0126L48.8279 24.477C49.0232 24.5816 49.1208 24.7908 49.1208 25V30.9623C49.1208 31.1715 49.0232 31.3808 48.8279 31.4854L47.2654 32.4268C48.9255 33.682 49.9998 35.6695 49.9998 37.9707C49.9998 41.4226 47.4607 44.3515 44.3357 44.6653V49.3724C44.3357 49.7908 44.0427 50 43.7498 50C43.3591 50 43.1638 49.7908 43.1638 49.3724V44.6653C39.9412 44.3515 37.4021 41.4226 37.4021 37.9707C37.4021 35.6695 38.4763 33.682 40.1365 32.4268ZM32.4216 48.0126H1.85522C0.878662 48.0126 -0.000244141 47.1757 -0.000244141 46.0251V5.75314C-0.000244141 4.60251 0.878662 3.66109 1.85522 3.66109H11.3279V1.98745C11.3279 1.77824 11.4255 1.67364 11.5232 1.46444C11.6208 1.35983 11.7185 1.35983 11.9138 1.35983H15.3318C15.6248 0.523013 16.3083 0 17.1873 0C17.9685 0 18.6521 0.523013 18.9451 1.35983H22.363C22.7537 1.35983 22.949 1.56904 22.949 1.98745V3.66109H32.4216C33.4958 3.66109 34.2771 4.60251 34.2771 5.75314V46.0251C34.2771 47.1757 33.4958 48.0126 32.4216 48.0126ZM12.4998 4.2887V4.39331V6.06695H21.7771V2.61506H18.4568C18.0662 2.61506 17.8708 2.30126 17.8708 1.98745C17.8708 1.56904 17.5779 1.25523 17.1873 1.25523C16.7966 1.25523 16.406 1.56904 16.406 1.98745C16.406 2.30126 16.2107 2.61506 15.8201 2.61506H12.4998V4.2887ZM11.3279 4.91632H1.85522C1.4646 4.91632 1.17163 5.33473 1.17163 5.75314V46.0251C1.17163 46.4435 1.4646 46.7573 1.85522 46.7573H32.4216C32.8123 46.7573 33.1052 46.4435 33.1052 46.0251V5.75314C33.1052 5.33473 32.8123 4.91632 32.4216 4.91632H22.949V6.06695H30.8591C31.5427 6.06695 32.1287 6.69456 32.1287 7.42678V44.3515C32.1287 45.0837 31.5427 45.7113 30.8591 45.7113H3.41772C2.73413 45.7113 2.24585 45.0837 2.24585 44.3515V7.42678C2.24585 6.69456 2.73413 6.06695 3.41772 6.06695H11.3279V4.91632ZM3.41772 7.32218V7.42678V44.3515V44.4561H30.8591L30.9568 44.3515V7.42678C30.9568 7.32218 30.8591 7.32218 30.8591 7.32218H3.41772ZM28.3201 13.7029H13.1833C12.8904 13.7029 12.5974 13.4937 12.5974 13.0753C12.5974 12.7615 12.8904 12.4477 13.1833 12.4477H28.3201C28.613 12.4477 28.906 12.7615 28.906 13.0753C28.906 13.4937 28.613 13.7029 28.3201 13.7029ZM28.3201 19.9791H13.1833C12.8904 19.9791 12.5974 19.7699 12.5974 19.3515C12.5974 19.0377 12.8904 18.7238 13.1833 18.7238H28.3201C28.613 18.7238 28.906 19.0377 28.906 19.3515C28.906 19.7699 28.613 19.9791 28.3201 19.9791ZM28.3201 26.3598H13.1833C12.8904 26.3598 12.5974 26.046 12.5974 25.7322C12.5974 25.3138 12.8904 25.1046 13.1833 25.1046H28.3201C28.613 25.1046 28.906 25.3138 28.906 25.7322C28.906 26.046 28.613 26.3598 28.3201 26.3598ZM28.3201 32.636H13.1833C12.8904 32.636 12.5974 32.3222 12.5974 32.0084C12.5974 31.6946 12.8904 31.3808 13.1833 31.3808H28.3201C28.613 31.3808 28.906 31.6946 28.906 32.0084C28.906 32.3222 28.613 32.636 28.3201 32.636ZM28.3201 38.9121H13.1833C12.8904 38.9121 12.5974 38.5983 12.5974 38.2845C12.5974 37.9707 12.8904 37.6569 13.1833 37.6569H28.3201C28.613 37.6569 28.906 37.9707 28.906 38.2845C28.906 38.5983 28.613 38.9121 28.3201 38.9121ZM6.93335 15.272C6.83569 15.272 6.64038 15.1674 6.54272 15.0628L5.17554 13.5983C4.88257 13.3891 4.88257 12.9707 5.17554 12.7615C5.37085 12.4477 5.76147 12.4477 5.95679 12.7615L6.93335 13.8075L10.0583 11.0879C10.3513 10.8787 10.6443 10.8787 10.9373 11.0879C11.1326 11.4017 11.0349 11.8201 10.8396 12.0293L7.32397 15.1674C7.22632 15.272 7.03101 15.272 6.93335 15.272ZM6.93335 21.5481C6.83569 21.5481 6.64038 21.5481 6.54272 21.4435L5.17554 19.8745C4.88257 19.6653 4.88257 19.2469 5.17554 19.0377C5.37085 18.8285 5.76147 18.8285 5.95679 19.0377L6.93335 20.0837L10.0583 17.364C10.3513 17.1548 10.6443 17.1548 10.9373 17.4686C11.1326 17.6778 11.0349 18.0962 10.8396 18.3054L7.32397 21.4435C7.22632 21.5481 7.03101 21.5481 6.93335 21.5481ZM6.93335 27.9289C6.83569 27.9289 6.64038 27.8243 6.54272 27.7197L5.17554 26.2552C4.88257 25.9414 4.88257 25.523 5.17554 25.3138C5.37085 25.1046 5.76147 25.1046 5.95679 25.3138L6.93335 26.3598L10.0583 23.6402C10.3513 23.431 10.6443 23.431 10.9373 23.7448C11.1326 24.0586 11.0349 24.3724 10.8396 24.5816L7.32397 27.7197C7.22632 27.8243 7.03101 27.9289 6.93335 27.9289ZM8.00757 34.5188C6.64038 34.5188 5.56616 33.3682 5.56616 32.0084C5.56616 30.5439 6.64038 29.3933 8.00757 29.3933C9.2771 29.3933 10.3513 30.5439 10.3513 32.0084C10.3513 33.3682 9.2771 34.5188 8.00757 34.5188ZM8.00757 30.6485C7.32397 30.6485 6.73804 31.2761 6.73804 32.0084C6.73804 32.7406 7.32397 33.2636 8.00757 33.2636C8.69116 33.2636 9.17944 32.7406 9.17944 32.0084C9.17944 31.2761 8.69116 30.6485 8.00757 30.6485ZM8.00757 40.8996C6.64038 40.8996 5.56616 39.749 5.56616 38.2845C5.56616 36.9247 6.64038 35.7741 8.00757 35.7741C9.2771 35.7741 10.3513 36.9247 10.3513 38.2845C10.3513 39.749 9.2771 40.8996 8.00757 40.8996ZM8.00757 37.0293C7.32397 37.0293 6.73804 37.5523 6.73804 38.2845C6.73804 39.0167 7.32397 39.6444 8.00757 39.6444C8.69116 39.6444 9.17944 39.0167 9.17944 38.2845C9.17944 37.5523 8.69116 37.0293 8.00757 37.0293ZM46.0935 31.6946L47.949 30.5439V25.3138L46.5818 24.477V25.1046C46.5818 25.9414 45.8982 26.6736 45.1169 26.6736H42.2849C41.5037 26.6736 40.8201 25.9414 40.8201 25.1046V24.477L39.4529 25.3138V30.5439L41.3083 31.6946C42.0896 31.3808 42.8708 31.1715 43.7498 31.1715C44.531 31.1715 45.4099 31.3808 46.0935 31.6946ZM43.7498 32.4268C40.9177 32.4268 38.574 34.9372 38.574 37.9707C38.574 41.0042 40.9177 43.41 43.7498 43.41C46.4841 43.41 48.8279 41.0042 48.8279 37.9707C48.8279 34.9372 46.4841 32.4268 43.7498 32.4268ZM43.7498 41.1088C42.0896 41.1088 40.7224 39.749 40.7224 37.9707C40.7224 36.1925 42.0896 34.728 43.7498 34.728C45.3123 34.728 46.6794 36.1925 46.6794 37.9707C46.6794 39.749 45.3123 41.1088 43.7498 41.1088ZM43.7498 35.9833C42.7732 35.9833 41.8943 36.9247 41.8943 37.9707C41.8943 39.0167 42.7732 39.8536 43.7498 39.8536C44.7263 39.8536 45.5076 39.0167 45.5076 37.9707C45.5076 36.9247 44.7263 35.9833 43.7498 35.9833ZM41.9919 22.4895H45.4099V8.159H41.9919V22.4895ZM45.4099 23.7448H41.9919V25.1046C41.9919 25.3138 42.1873 25.4184 42.2849 25.4184H45.1169C45.3123 25.4184 45.4099 25.3138 45.4099 25.1046V23.7448ZM42.4802 6.90377H44.9216L43.6521 4.49791L42.4802 6.90377Z" fill="black"/>
<path fill-rule="evenodd" clip-rule="evenodd" d="M12.4998 6.06696H21.7771V2.61508H18.4568C18.0662 2.61508 17.8708 2.30127 17.8708 1.98747C17.8708 1.56906 17.5779 1.25525 17.1873 1.25525C16.7966 1.25525 16.406 1.56906 16.406 1.98747C16.406 2.30127 16.2107 2.61508 15.8201 2.61508H12.4998V4.28872V4.39332V6.06696Z" fill="#665E66"/>
<path fill-rule="evenodd" clip-rule="evenodd" d="M22.949 4.91626V6.06689H30.8591C31.5427 6.06689 32.1287 6.6945 32.1287 7.42672V44.3514C32.1287 45.0836 31.5427 45.7112 30.8591 45.7112H3.41772C2.73413 45.7112 2.24585 45.0836 2.24585 44.3514V7.42672C2.24585 6.6945 2.73413 6.06689 3.41772 6.06689H11.3279V4.91626H1.85522C1.4646 4.91626 1.17163 5.33467 1.17163 5.75308V46.025C1.17163 46.4435 1.4646 46.7573 1.85522 46.7573H32.4216C32.8123 46.7573 33.1052 46.4435 33.1052 46.025V5.75308C33.1052 5.33467 32.8123 4.91626 32.4216 4.91626H22.949Z" fill="#CE9875"/>
<path fill-rule="evenodd" clip-rule="evenodd" d="M30.8591 7.32214H3.41772V7.42675V44.3514V44.456H30.8591L30.9568 44.3514V7.42675C30.9568 7.32214 30.8591 7.32214 30.8591 7.32214ZM13.1833 12.4477H28.3201C28.613 12.4477 28.906 12.7615 28.906 13.0753C28.906 13.4937 28.613 13.7029 28.3201 13.7029H13.1833C12.8904 13.7029 12.5974 13.4937 12.5974 13.0753C12.5974 12.7615 12.8904 12.4477 13.1833 12.4477ZM13.1833 18.7238H28.3201C28.613 18.7238 28.906 19.0376 28.906 19.3514C28.906 19.7698 28.613 19.979 28.3201 19.979H13.1833C12.8904 19.979 12.5974 19.7698 12.5974 19.3514C12.5974 19.0376 12.8904 18.7238 13.1833 18.7238ZM13.1833 25.1046H28.3201C28.613 25.1046 28.906 25.3138 28.906 25.7322C28.906 26.046 28.613 26.3598 28.3201 26.3598H13.1833C12.8904 26.3598 12.5974 26.046 12.5974 25.7322C12.5974 25.3138 12.8904 25.1046 13.1833 25.1046ZM13.1833 31.3807H28.3201C28.613 31.3807 28.906 31.6945 28.906 32.0083C28.906 32.3221 28.613 32.636 28.3201 32.636H13.1833C12.8904 32.636 12.5974 32.3221 12.5974 32.0083C12.5974 31.6945 12.8904 31.3807 13.1833 31.3807ZM13.1833 37.6569H28.3201C28.613 37.6569 28.906 37.9707 28.906 38.2845C28.906 38.5983 28.613 38.9121 28.3201 38.9121H13.1833C12.8904 38.9121 12.5974 38.5983 12.5974 38.2845C12.5974 37.9707 12.8904 37.6569 13.1833 37.6569ZM10.8396 12.0293L7.32397 15.1673C7.22632 15.2719 7.03101 15.2719 6.93335 15.2719C6.83569 15.2719 6.64038 15.1673 6.54272 15.0627L5.17554 13.5983C4.88257 13.3891 4.88257 12.9707 5.17554 12.7615C5.37085 12.4477 5.76147 12.4477 5.95679 12.7615L6.93335 13.8075L10.0583 11.0878C10.3513 10.8786 10.6443 10.8786 10.9373 11.0878C11.1326 11.4016 11.0349 11.8201 10.8396 12.0293ZM10.8396 18.3054L7.32397 21.4435C7.22632 21.5481 7.03101 21.5481 6.93335 21.5481C6.83569 21.5481 6.64038 21.5481 6.54272 21.4435L5.17554 19.8744C4.88257 19.6652 4.88257 19.2468 5.17554 19.0376C5.37085 18.8284 5.76147 18.8284 5.95679 19.0376L6.93335 20.0837L10.0583 17.364C10.3513 17.1548 10.6443 17.1548 10.9373 17.4686C11.1326 17.6778 11.0349 18.0962 10.8396 18.3054ZM10.0583 23.6401C10.3513 23.4309 10.6443 23.4309 10.9373 23.7447C11.1326 24.0585 11.0349 24.3724 10.8396 24.5816L7.32397 27.7196C7.22632 27.8242 7.03101 27.9288 6.93335 27.9288C6.83569 27.9288 6.64038 27.8242 6.54272 27.7196L5.17554 26.2552C4.88257 25.9414 4.88257 25.523 5.17554 25.3138C5.37085 25.1046 5.76147 25.1046 5.95679 25.3138L6.93335 26.3598L10.0583 23.6401ZM8.00757 29.3933C9.2771 29.3933 10.3513 30.5439 10.3513 32.0083C10.3513 33.3682 9.2771 34.5188 8.00757 34.5188C6.64038 34.5188 5.56616 33.3682 5.56616 32.0083C5.56616 30.5439 6.64038 29.3933 8.00757 29.3933ZM8.00757 35.774C9.2771 35.774 10.3513 36.9247 10.3513 38.2845C10.3513 39.7489 9.2771 40.8996 8.00757 40.8996C6.64038 40.8996 5.56616 39.7489 5.56616 38.2845C5.56616 36.9247 6.64038 35.774 8.00757 35.774Z" fill="#F9F6F9"/>
<path fill-rule="evenodd" clip-rule="evenodd" d="M9.17944 32.0084C9.17944 31.2762 8.69116 30.6486 8.00757 30.6486C7.32397 30.6486 6.73804 31.2762 6.73804 32.0084C6.73804 32.7406 7.32397 33.2636 8.00757 33.2636C8.69116 33.2636 9.17944 32.7406 9.17944 32.0084Z" fill="#9BD069"/>
<path fill-rule="evenodd" clip-rule="evenodd" d="M9.17944 38.2845C9.17944 37.5523 8.69116 37.0293 8.00757 37.0293C7.32397 37.0293 6.73804 37.5523 6.73804 38.2845C6.73804 39.0167 7.32397 39.6444 8.00757 39.6444C8.69116 39.6444 9.17944 39.0167 9.17944 38.2845Z" fill="#9BD069"/>
<path fill-rule="evenodd" clip-rule="evenodd" d="M42.4812 6.90378H44.9226L43.6531 4.49792L42.4812 6.90378Z" fill="#665E66"/>
<path fill-rule="evenodd" clip-rule="evenodd" d="M45.4099 8.15894H41.9919V22.4895H45.4099V8.15894Z" fill="#FF9F00"/>
<path fill-rule="evenodd" clip-rule="evenodd" d="M45.4099 23.7448H41.9919V25.1046C41.9919 25.3138 42.1873 25.4184 42.2849 25.4184H45.1169C45.3123 25.4184 45.4099 25.3138 45.4099 25.1046V23.7448Z" fill="#665E66"/>
<path fill-rule="evenodd" clip-rule="evenodd" d="M45.1179 26.6736H42.2859C41.5046 26.6736 40.821 25.9414 40.821 25.1045V24.4769L39.4539 25.3137V30.5439L41.3093 31.6945C42.0906 31.3807 42.8718 31.1715 43.7507 31.1715C44.532 31.1715 45.4109 31.3807 46.0945 31.6945L47.95 30.5439V25.3137L46.5828 24.4769V25.1045C46.5828 25.9414 45.8992 26.6736 45.1179 26.6736Z" fill="#CCCCCC"/>
<path fill-rule="evenodd" clip-rule="evenodd" d="M48.8279 37.9707C48.8279 34.9372 46.4841 32.4268 43.7498 32.4268C40.9177 32.4268 38.574 34.9372 38.574 37.9707C38.574 41.0042 40.9177 43.41 43.7498 43.41C46.4841 43.41 48.8279 41.0042 48.8279 37.9707ZM40.7224 37.9707C40.7224 36.1924 42.0896 34.728 43.7498 34.728C45.3123 34.728 46.6794 36.1924 46.6794 37.9707C46.6794 39.7489 45.3123 41.1088 43.7498 41.1088C42.0896 41.1088 40.7224 39.7489 40.7224 37.9707Z" fill="#FF9F00"/>
<path fill-rule="evenodd" clip-rule="evenodd" d="M45.5076 37.9707C45.5076 36.9247 44.7263 35.9833 43.7498 35.9833C42.7732 35.9833 41.8943 36.9247 41.8943 37.9707C41.8943 39.0167 42.7732 39.8536 43.7498 39.8536C44.7263 39.8536 45.5076 39.0167 45.5076 37.9707Z" fill="#FFBA46"/>
</svg>
