<svg width="83" height="83" viewBox="0 0 83 83" fill="none" xmlns="http://www.w3.org/2000/svg">
<rect width="82.6031" height="82.6053" rx="12" fill="#A4B408"/>
<g clip-path="url(#clip0_148_927)">
<path d="M56.3014 52.3826L43.8968 39.9772L29.4041 25.4836H28.2715L28.0402 26.0713C27.4298 27.6225 27.169 29.209 27.2861 30.6592C27.4196 32.3122 28.0475 33.7433 29.1021 34.798L40.4159 46.1125L41.9082 44.6201L52.3678 56.3166C53.4083 57.3571 55.1992 57.4189 56.3014 56.3166C57.386 55.2319 57.386 53.4672 56.3014 52.3826Z" fill="white"/>
<path d="M35.1704 43.4951L26.3095 52.3565C25.225 53.441 25.225 55.2058 26.3095 56.2904C27.3397 57.3206 29.1219 57.4116 30.2431 56.2904L39.1041 47.4289L35.1704 43.4951Z" fill="white"/>
<path d="M55.786 30.7506L50.7596 35.7773L49.4483 34.466L54.4747 29.4393L53.1635 28.1279L48.1371 33.1546L46.8259 31.8433L51.8523 26.8166L50.5411 25.5054L43.9849 32.0619C43.1828 32.864 42.7039 33.9291 42.6362 35.0609C42.6191 35.3477 42.5541 35.6298 42.4463 35.8981L46.7052 40.1572C46.9735 40.0493 47.2556 39.9843 47.5423 39.9672C48.6741 39.8997 49.739 39.4206 50.5411 38.6185L57.0973 32.062L55.786 30.7506Z" fill="white"/>
</g>
<defs>
<clipPath id="clip0_148_927">
<rect width="31.6348" height="31.6367" fill="white" transform="translate(25.4844 25.4843)"/>
</clipPath>
</defs>
</svg>
