<svg width="83" height="83" viewBox="0 0 83 83" fill="none" xmlns="http://www.w3.org/2000/svg">
<rect width="82.6031" height="82.6053" rx="12" fill="#F99A26"/>
<g clip-path="url(#clip0_148_844)">
<path d="M26.7981 26.8025C26.0701 26.8025 25.48 27.3927 25.48 28.1207C25.48 28.8487 26.0701 29.4389 26.7981 29.4389H29.1434C29.3353 29.4389 29.5224 29.4993 29.6781 29.6115C29.8338 29.7237 29.9502 29.8821 30.0109 30.0642L34.3567 43.1048C34.5497 43.6838 34.5742 44.3072 34.4262 44.8993L34.0683 46.3334C33.5433 48.4338 35.1782 50.53 37.3431 50.53H53.1605C53.8885 50.53 54.4786 49.9398 54.4786 49.2118C54.4786 48.4838 53.8885 47.8936 53.1605 47.8936H37.3431C36.8298 47.8936 36.5003 47.4724 36.6248 46.9745L36.8946 45.8966C36.9404 45.7139 37.0458 45.5518 37.1942 45.436C37.3426 45.3201 37.5255 45.2572 37.7138 45.2572H51.8424C52.4099 45.2575 52.9139 44.8945 53.0935 44.3561L56.6077 33.8105C56.8923 32.9566 56.2565 32.0749 55.3565 32.0753H34.1198C33.9279 32.0753 33.7409 32.0149 33.5852 31.9027C33.4295 31.7904 33.3131 31.6321 33.2524 31.45L32.0036 27.7036C31.824 27.1652 31.32 26.8022 30.7525 26.8025H26.7981ZM36.0249 51.8482C34.569 51.8482 33.3887 53.0285 33.3887 54.4846C33.3887 55.9406 34.569 57.121 36.0249 57.121C37.4809 57.121 38.6612 55.9406 38.6612 54.4846C38.6612 53.0285 37.4809 51.8482 36.0249 51.8482ZM51.8424 51.8482C50.3864 51.8482 49.2061 53.0285 49.2061 54.4846C49.2061 55.9406 50.3864 57.121 51.8424 57.121C53.2983 57.121 54.4786 55.9406 54.4786 54.4846C54.4786 53.0285 53.2983 51.8482 51.8424 51.8482Z" fill="white"/>
</g>
<defs>
<clipPath id="clip0_148_844">
<rect width="31.6348" height="31.6367" fill="white" transform="translate(25.4844 25.4842)"/>
</clipPath>
</defs>
</svg>
