<svg width="83" height="83" viewBox="0 0 83 83" fill="none" xmlns="http://www.w3.org/2000/svg">
<rect width="82.6031" height="82.6053" rx="12" fill="#574021"/>
<g clip-path="url(#clip0_148_859)">
<path d="M41.2994 25.4835C32.5637 25.4835 25.4819 32.5657 25.4819 41.3018C25.4819 50.0379 32.5637 57.1201 41.2994 57.1201C50.035 57.1201 57.1168 50.0379 57.1168 41.3018C57.107 32.5698 50.0309 25.4932 41.2994 25.4835ZM41.8639 30.0438L47.3627 27.8457C47.9867 28.1281 48.5905 28.4535 49.1694 28.8196L49.1839 28.8286C49.7528 29.1891 50.2965 29.5879 50.8114 30.0222L50.8557 30.0608C51.0866 30.2575 51.3111 30.4612 51.5294 30.6713C51.557 30.6983 51.5858 30.7241 51.6134 30.7516C51.8422 30.9751 52.0639 31.2055 52.2783 31.4426C52.2961 31.4627 52.3131 31.4838 52.3309 31.5039C52.5191 31.7148 52.7 31.9331 52.8756 32.155C52.9178 32.2078 52.9601 32.2606 53.001 32.3134C53.1915 32.56 53.3758 32.811 53.5499 33.07L52.4537 37.7301L47.0605 39.5282L41.8652 35.3709L41.8639 30.0438ZM29.5972 32.3164C29.6381 32.2637 29.6798 32.2109 29.7221 32.1584C29.8956 31.9382 30.075 31.7235 30.2604 31.5139C30.2804 31.4918 30.299 31.4691 30.3188 31.447C30.532 31.2094 30.7526 30.9792 30.9812 30.7562C31.0075 30.7305 31.0337 30.7035 31.0613 30.6798C31.2778 30.471 31.5005 30.2686 31.7294 30.0729L31.7821 30.0287C32.2924 29.5974 32.831 29.2012 33.3942 28.8423L33.4148 28.8292C33.9905 28.4638 34.5903 28.1389 35.2108 27.8562L40.7348 30.0438V35.3694L35.5393 39.5258L30.1461 37.7311L29.0499 33.0711C29.2254 32.8126 29.4077 32.5621 29.5972 32.3164ZM28.9618 49.393C28.8068 49.1566 28.6585 48.9159 28.5172 48.6706L28.483 48.6113C28.3424 48.3673 28.2093 48.1191 28.0839 47.867L28.0796 47.859C27.8154 47.3287 27.5835 46.7829 27.3852 46.2244V46.2193C27.2915 45.9556 27.206 45.6856 27.127 45.4139L27.0984 45.3138C27.0261 45.0586 26.9604 44.8007 26.9017 44.5399C26.8966 44.5144 26.8902 44.4902 26.885 44.4649C26.7555 43.8759 26.6626 43.2796 26.6065 42.6789L29.8253 38.8163L35.1812 40.6015L36.7356 46.8192L34.1815 50.2176L28.9618 49.393ZM44.8104 55.64C44.5468 55.7054 44.2762 55.7618 44.0056 55.8125C43.9678 55.82 43.9292 55.8261 43.8913 55.8331C43.6609 55.8743 43.4279 55.9095 43.1944 55.9384C43.1321 55.9464 43.0703 55.9549 43.0083 55.9623C42.7915 55.9876 42.5727 56.0066 42.3533 56.0223C42.2843 56.027 42.2161 56.0339 42.1471 56.0383C41.8668 56.0555 41.5841 56.0656 41.2994 56.0656C41.0386 56.0656 40.7793 56.0586 40.5216 56.045C40.4905 56.045 40.4606 56.0398 40.4294 56.0375C40.2001 56.0244 39.9717 56.0071 39.7439 55.985L39.7176 55.9801C39.2184 55.926 38.7221 55.8467 38.2309 55.743L35.1122 50.8597L37.6261 47.5073H44.9726L47.5277 50.8819L44.8104 55.64ZM55.7176 44.4655C55.7121 44.4907 55.706 44.5151 55.7006 44.5404C55.6416 44.8009 55.576 45.0589 55.5039 45.3143L55.4756 45.4145C55.3963 45.6861 55.3111 45.9551 55.2171 46.2198V46.2249C55.0189 46.7834 54.7871 47.3292 54.5228 47.8596L54.5184 47.8675C54.3922 48.1198 54.2594 48.368 54.1193 48.6119L54.0851 48.6711C53.9445 48.9172 53.7965 49.1574 53.6413 49.3925L48.4393 50.2127L45.8675 46.8171L47.4211 40.601L52.777 38.8158L55.9959 42.6784C55.94 43.2793 55.847 43.8761 55.7176 44.4655Z" fill="white"/>
</g>
<defs>
<clipPath id="clip0_148_859">
<rect width="31.6348" height="31.6367" fill="white" transform="translate(25.4844 25.4842)"/>
</clipPath>
</defs>
</svg>
