<svg width="83" height="83" viewBox="0 0 83 83" fill="none" xmlns="http://www.w3.org/2000/svg">
<rect width="82.9684" height="82.9684" rx="12" fill="#1694CE"/>
<path d="M48.2344 54.4843C48.2318 54.6824 48.1519 54.8716 48.0118 55.0117C47.8717 55.1518 47.6825 55.2317 47.4844 55.2343H35.4844C35.2855 55.2343 35.0947 55.1552 34.954 55.0146C34.8134 54.8739 34.7344 54.6832 34.7344 54.4843C34.7344 54.2853 34.8134 54.0946 34.954 53.9539C35.0947 53.8133 35.2855 53.7343 35.4844 53.7343H36.8744L37.2744 51.7343H45.6944L46.0944 53.7343H47.4844C47.6825 53.7368 47.8717 53.8167 48.0118 53.9568C48.1519 54.0969 48.2318 54.2861 48.2344 54.4843ZM55.2344 32.4843V47.4843C55.2344 48.2136 54.9446 48.9131 54.4289 49.4288C53.9132 49.9445 53.2137 50.2343 52.4844 50.2343H30.4844C29.755 50.2343 29.0556 49.9445 28.5398 49.4288C28.0241 48.9131 27.7344 48.2136 27.7344 47.4843V32.4843C27.7344 32.2853 27.8134 32.0946 27.954 31.9539C28.0947 31.8133 28.2855 31.7343 28.4844 31.7343C28.6833 31.7343 28.8741 31.8133 29.0147 31.9539C29.1554 32.0946 29.2344 32.2853 29.2344 32.4843V44.7343H53.7344V32.4843C53.7344 32.2853 53.8134 32.0946 53.954 31.9539C54.0947 31.8133 54.2855 31.7343 54.4844 31.7343C54.6833 31.7343 54.8741 31.8133 55.0147 31.9539C55.1554 32.0946 55.2344 32.2853 55.2344 32.4843ZM49.4844 27.7343H33.4844C32.755 27.7343 32.0556 28.024 31.5398 28.5397C31.0241 29.0554 30.7344 29.7549 30.7344 30.4843V43.2343H52.2344V30.4843C52.2344 29.7549 51.9446 29.0554 51.4289 28.5397C50.9132 28.024 50.2137 27.7343 49.4844 27.7343ZM40.7344 41.2743L36.6044 38.8943C36.4925 38.8263 36.3999 38.7309 36.3352 38.6172C36.2704 38.5035 36.2357 38.3751 36.2344 38.2443V33.4843L40.7344 36.0843V41.2743ZM36.9844 32.1743L41.1044 29.7943C41.2208 29.7304 41.3515 29.6969 41.4844 29.6969C41.6172 29.6969 41.7479 29.7304 41.8644 29.7943L45.9844 32.1743L41.4844 34.7743L36.9844 32.1743ZM46.7344 38.2443C46.733 38.3751 46.6983 38.5035 46.6336 38.6172C46.5689 38.7309 46.4762 38.8263 46.3644 38.8943L42.2344 41.2743V36.0743L46.7344 33.4843V38.2443Z" fill="white"/>
</svg>
