<svg width="84" height="83" viewBox="0 0 84 83" fill="none" xmlns="http://www.w3.org/2000/svg">
<rect x="0.603516" width="82.6031" height="82.6053" rx="12" fill="#7D3795"/>
<g clip-path="url(#clip0_148_898)">
<path d="M30.9405 29.2199C30.9396 29.2199 30.9387 29.2199 30.9378 29.2199C30.6386 29.2199 30.3572 29.3366 30.1447 29.5485C29.9299 29.7628 29.8115 30.0482 29.8115 30.352V47.3278C29.8115 47.9503 30.3199 48.4579 30.9449 48.4595C33.5799 48.4658 37.9945 49.015 41.04 52.2023V34.4367C41.04 34.2257 40.9861 34.0274 40.8844 33.8634C38.3848 29.8377 33.5814 29.2261 30.9405 29.2199Z" fill="white"/>
<path d="M54.0272 47.328V30.3521C54.0272 30.0483 53.9089 29.763 53.694 29.5486C53.4815 29.3367 53.1999 29.22 52.901 29.22C52.9001 29.22 52.8991 29.22 52.8983 29.22C50.2574 29.2263 45.454 29.838 42.9543 33.8636C42.8526 34.0276 42.7988 34.2259 42.7988 34.4369V52.2024C45.8443 49.0152 50.2589 48.4659 52.8939 48.4597C53.5188 48.4581 54.0272 47.9504 54.0272 47.328Z" fill="white"/>
<path d="M56.6058 33.1345H55.785V47.3275C55.785 48.9169 54.4901 50.2129 52.8983 50.2169C50.6633 50.2222 46.9781 50.6593 44.3682 53.1296C48.8821 52.0243 53.6405 52.7428 56.3524 53.3608C56.691 53.438 57.0409 53.3583 57.3122 53.1421C57.5825 52.9263 57.7376 52.6039 57.7376 52.2578V34.2664C57.7377 33.6423 57.2298 33.1345 56.6058 33.1345Z" fill="white"/>
<path d="M28.0552 47.3273V33.1343H27.2344C26.6104 33.1343 26.1025 33.6421 26.1025 34.2662V52.2573C26.1025 52.6035 26.2576 52.9258 26.528 53.1415C26.799 53.3576 27.1486 53.4376 27.4878 53.3603C30.1996 52.7422 34.9582 52.0238 39.4719 53.129C36.862 50.6588 33.1768 50.2219 30.9418 50.2165C29.3502 50.2127 28.0552 48.9167 28.0552 47.3273Z" fill="white"/>
</g>
<defs>
<clipPath id="clip0_148_898">
<rect width="31.6348" height="31.6367" fill="white" transform="translate(26.0879 25.4843)"/>
</clipPath>
</defs>
</svg>
