<svg width="84" height="83" viewBox="0 0 84 83" fill="none" xmlns="http://www.w3.org/2000/svg">
<rect x="0.603516" width="82.6031" height="82.6053" rx="12" fill="#F15324"/>
<g clip-path="url(#clip0_148_826)">
<path d="M47.4694 41.8659C47.9284 42.1911 48.5189 42.2673 49.0455 42.0692L50.5707 41.5043L50.0058 40.4535C49.6276 39.7934 49.783 38.9565 50.373 38.4762V33.9002L41.8994 28.0983L33.4258 33.9002V38.6627C33.9971 39.1775 34.1501 40.0124 33.7986 40.6964L33.5275 41.2614C34.2089 41.5795 34.9379 41.7837 35.6854 41.8659C36.0188 41.8381 36.3495 41.7833 36.674 41.702C37.2783 41.5612 37.8918 41.463 38.51 41.4083C38.6723 41.0808 38.8613 40.7671 39.0749 40.4705V36.7814C39.0749 36.1574 39.5807 35.6515 40.2047 35.6515H43.5941C44.2181 35.6515 44.7239 36.1574 44.7239 36.7814V39.8377L47.4694 41.8659ZM41.8994 34.5216C40.6514 34.5216 39.6398 33.5099 39.6398 32.2619C39.6398 31.0138 40.6514 30.0021 41.8994 30.0021C43.1474 30.0021 44.159 31.0138 44.159 32.2619C44.159 32.8612 43.921 33.436 43.4972 33.8598C43.0734 34.2836 42.4987 34.5216 41.8994 34.5216Z" fill="white"/>
<path d="M40.2051 39.3231C41.1978 38.6093 42.5065 38.5112 43.5945 39.0689V36.7809H40.2051V39.3231Z" fill="white"/>
<path d="M41.9023 33.3915C42.5263 33.3915 43.0321 32.8856 43.0321 32.2616C43.0321 31.6376 42.5263 31.1317 41.9023 31.1317C41.2783 31.1317 40.7725 31.6376 40.7725 32.2616C40.7725 32.8856 41.2783 33.3915 41.9023 33.3915Z" fill="white"/>
<path d="M31.4804 33.8599L41.5753 26.9507C41.7689 26.8163 42.0256 26.8163 42.2193 26.9507L52.3142 33.8542C52.5716 34.0305 52.9231 33.9647 53.0994 33.7074C53.2718 33.451 53.2064 33.1037 52.9525 32.9277L42.2193 25.5835C42.1248 25.5176 42.0125 25.4821 41.8973 25.4818C41.7837 25.481 41.6728 25.5166 41.5809 25.5835L30.8477 32.9277C30.7271 33.0117 30.6441 33.1394 30.6161 33.2837C30.5855 33.4323 30.616 33.5871 30.7008 33.713C30.8768 33.9669 31.2241 34.0323 31.4804 33.8599Z" fill="white"/>
<path d="M32.0331 50.4129C31.6992 50.261 31.3055 50.4074 31.1519 50.7405L30.5248 52.0964C30.3688 52.4302 30.513 52.8273 30.8468 52.9833C31.1806 53.1393 31.5777 52.9952 31.7337 52.6613L32.3608 51.3055C32.4283 51.1407 32.4283 50.9561 32.3608 50.7914C32.3076 50.6258 32.1893 50.4892 32.0331 50.4129Z" fill="white"/>
<path d="M32.829 39.7133C32.7729 39.5667 32.6582 39.45 32.5126 39.3913L26.084 36.7812V52.0346H26.5077C26.7139 52.032 26.9022 51.9172 26.9991 51.7352L32.7951 40.1709C32.8706 40.03 32.8829 39.8638 32.829 39.7133Z" fill="white"/>
<path d="M35.3419 50.9725C35.2639 50.7607 35.1056 50.5882 34.9013 50.4923C34.7891 50.4432 34.6679 50.4182 34.5454 50.4188C34.4453 50.4192 34.346 50.4364 34.2517 50.4697C34.0414 50.5479 33.8707 50.7064 33.7771 50.9103L32.8563 52.9611C32.7718 53.1694 32.7718 53.4024 32.8563 53.6107C32.9324 53.8224 33.0915 53.9938 33.297 54.0853C33.5028 54.1726 33.7352 54.1726 33.941 54.0853C34.1527 54.0072 34.3252 53.8489 34.4211 53.6446L35.3645 51.5939C35.4372 51.3916 35.4291 51.169 35.3419 50.9725Z" fill="white"/>
<path d="M49.4426 43.1031C48.5599 43.4339 47.5703 43.3025 46.8045 42.7528L43.3642 40.2445C42.539 39.6414 41.4022 39.7077 40.6526 40.4026C40.1005 40.9135 39.6567 41.5302 39.3477 42.2161L38.0371 45.1199C37.8566 45.5379 38.0197 46.0248 38.4156 46.2498H38.4551C38.8171 46.4259 39.2521 46.3379 39.5172 46.0351L41.7429 43.555L41.5395 43.3742C41.3214 43.1647 41.307 42.8206 41.5068 42.5936C41.7066 42.3665 42.0497 42.3371 42.2852 42.5268L50.4538 49.775L54.2161 48.2158L51.1147 42.476L49.4426 43.1031Z" fill="white"/>
<path d="M51.268 39.2164C51.1284 39.2653 51.017 39.3725 50.9629 39.5102C50.9183 39.6308 50.9286 39.765 50.9912 39.8774L56.7928 50.6112C56.8979 50.7841 57.0876 50.8876 57.2899 50.8824H57.7136V36.7419L51.268 39.2164Z" fill="white"/>
<path d="M42.577 44.3463L40.3456 46.832C39.964 47.2686 39.4116 47.518 38.8317 47.5156C38.5384 47.5159 38.2488 47.4503 37.9843 47.3235H37.9278C36.9592 46.8399 36.5472 45.6763 36.9957 44.6909L37.9448 42.6119C37.5889 42.6684 37.25 42.7362 36.9336 42.804C36.5246 42.9081 36.1065 42.9724 35.6852 42.9961C34.7603 42.9054 33.8581 42.655 33.0188 42.256L28.9854 50.2894L29.9118 50.7301L30.1208 50.2668C30.5376 49.367 31.6046 48.975 32.5047 49.3912C32.7525 49.5037 32.9695 49.6742 33.1374 49.8883C33.7205 49.2741 34.6328 49.1054 35.3971 49.4703C36.0182 49.7564 36.4461 50.3447 36.5269 51.0239C37.4782 50.8341 38.4258 51.3666 38.7583 52.278C38.7951 52.3868 38.8234 52.4982 38.843 52.6113C39.1689 52.5602 39.5027 52.6054 39.8033 52.7413C40.2145 52.9292 40.5335 53.2737 40.6895 53.6981C40.8454 54.1224 40.8254 54.5915 40.6338 55.001L40.2609 55.7637L41.7749 56.9896C41.9915 57.1374 42.2712 57.1563 42.5057 57.039C42.7402 56.9218 42.8929 56.6867 42.9047 56.4247C42.9064 56.2328 42.8287 56.0488 42.69 55.9162L42.0573 55.2835C41.9504 55.1774 41.8902 55.033 41.8902 54.8824C41.8902 54.7318 41.9504 54.5874 42.0573 54.4813C42.1634 54.3743 42.3078 54.3142 42.4584 54.3142C42.609 54.3142 42.7534 54.3743 42.8595 54.4813L43.4922 55.114L43.978 55.6055C44.2303 55.843 44.6239 55.843 44.8762 55.6055C44.9956 55.4877 45.0628 55.327 45.0628 55.1592C45.0628 54.9915 44.9956 54.8307 44.8762 54.7129L42.6166 52.4532C42.3951 52.2316 42.3951 51.8725 42.6166 51.6509C42.8381 51.4294 43.1972 51.4294 43.4187 51.6509L45.6784 53.9107L45.7405 53.9728C45.9186 54.1516 46.1605 54.252 46.4128 54.252C46.665 54.252 46.9069 54.1516 47.085 53.9728C47.2739 53.7879 47.3765 53.5322 47.3679 53.268C47.3593 53.0038 47.2403 52.7554 47.0398 52.5831L44.3452 50.2216C44.2504 50.1338 44.1886 50.0162 44.1701 49.8883C44.1677 49.8715 44.1677 49.8543 44.1701 49.8375C44.1609 49.6946 44.2098 49.554 44.3057 49.4477C44.3561 49.393 44.4152 49.3472 44.4808 49.3121C44.587 49.2643 44.7054 49.2505 44.8197 49.2725C44.8479 49.2698 44.8763 49.2698 44.9045 49.2725C44.9778 49.2955 45.0452 49.334 45.1022 49.3855L45.7518 49.9505L48.4973 52.3571C48.929 52.7037 49.557 52.6486 49.9219 52.2323C50.2867 51.8159 50.2589 51.1861 49.8587 50.8035L42.577 44.3463Z" fill="white"/>
<path d="M39.309 53.7691C39.2355 53.7399 39.1566 53.7264 39.0774 53.7296C38.8568 53.729 38.656 53.857 38.5634 54.0573L38.038 55.1871L37.8629 55.5656C37.8048 55.7048 37.8048 55.8615 37.8629 56.0006C37.9151 56.1408 38.0207 56.2546 38.1566 56.317C38.2935 56.3821 38.4508 56.3894 38.5932 56.3374C38.7355 56.2853 38.851 56.1782 38.9136 56.0402L39.6197 54.5092C39.6774 54.3699 39.677 54.2134 39.6187 54.0744C39.5603 53.9354 39.4488 53.8255 39.309 53.7691Z" fill="white"/>
<path d="M37.2319 52.1929C37.1212 52.1387 36.9992 52.1116 36.876 52.1138C36.7759 52.1141 36.6766 52.1313 36.5823 52.1646C36.373 52.2444 36.2028 52.4024 36.1077 52.6053L35.396 54.1419C35.1979 54.5678 35.3825 55.0737 35.8083 55.2718C36.2342 55.4699 36.74 55.2853 36.9382 54.8594L36.9834 54.7633L37.6386 53.334C37.7353 53.1302 37.7455 52.8959 37.6669 52.6844C37.5955 52.4677 37.4382 52.29 37.2319 52.1929Z" fill="white"/>
</g>
<defs>
<clipPath id="clip0_148_826">
<rect width="31.6348" height="31.6367" fill="white" transform="translate(26.0879 25.4842)"/>
</clipPath>
</defs>
</svg>
