<svg width="83" height="83" viewBox="0 0 83 83" fill="none" xmlns="http://www.w3.org/2000/svg">
<rect width="82.6031" height="82.6053" rx="12" fill="#392D2D"/>
<path d="M50.8599 26.9673C49.5926 26.9686 48.3776 27.4726 47.4815 28.3688C46.5854 29.2649 46.0814 30.48 46.0801 31.7474C46.0801 34.1795 48.0573 38.6679 50.8599 38.6679C53.6626 38.6679 55.6348 34.1795 55.6348 31.7474C55.6335 30.4809 55.1301 29.2666 54.2351 28.3705C53.3401 27.4745 52.1263 26.9699 50.8599 26.9673Z" fill="white"/>
<path d="M35.8328 49.2118L28.9473 45.2227C28.7126 45.0883 28.4424 45.0287 28.173 45.0518C27.9035 45.0749 27.6475 45.1797 27.4391 45.3521C27.2307 45.5245 27.0799 45.7564 27.0067 46.0168C26.9335 46.2772 26.9414 46.5537 27.0294 46.8094L27.8598 49.1723C27.8896 49.2576 27.9422 49.3332 28.012 49.3907C28.0817 49.4482 28.1658 49.4855 28.2553 49.4986L33.1142 50.3438L28.2503 51.1891C28.1627 51.2038 28.0806 51.2419 28.0127 51.2993C27.9449 51.3567 27.8938 51.4314 27.8648 51.5154L27.0492 53.8733C26.9519 54.1317 26.9387 54.4142 27.0114 54.6805C27.0842 54.9468 27.2393 55.1833 27.4545 55.3563C27.6636 55.5227 27.9182 55.6217 28.1848 55.6402C28.4513 55.6587 28.7172 55.5959 28.9473 55.4601L35.8229 51.5055C36.0233 51.3886 36.1895 51.2212 36.3049 51.0199C36.4202 50.8187 36.4807 50.5907 36.4803 50.3587C36.4833 50.1274 36.4249 49.8994 36.3112 49.698C36.1974 49.4965 36.0324 49.3288 35.8328 49.2118Z" fill="white"/>
<path d="M53.4348 31.7477C53.4358 31.2371 53.2853 30.7377 53.0024 30.3127C52.7195 29.8878 52.3168 29.5563 51.8455 29.3602C51.3741 29.1641 50.8551 29.1123 50.3543 29.2113C49.8534 29.3103 49.3932 29.5557 49.0319 29.9164C48.6705 30.2771 48.4243 30.7368 48.3244 31.2375C48.2244 31.7382 48.2752 32.2573 48.4703 32.729C48.6655 33.2008 48.9962 33.6041 49.4206 33.8879C49.845 34.1716 50.3441 34.3231 50.8546 34.3231C51.5381 34.3231 52.1936 34.0519 52.6774 33.5691C53.1611 33.0862 53.4335 32.4312 53.4348 31.7477ZM49.2679 31.7477C49.267 31.4324 49.3596 31.124 49.5341 30.8615C49.7086 30.599 49.9572 30.3942 50.2482 30.2731C50.5392 30.152 50.8597 30.1201 51.1689 30.1814C51.4781 30.2426 51.7621 30.3943 51.985 30.6172C52.2079 30.8401 52.3596 31.1242 52.4208 31.4334C52.4821 31.7426 52.4502 32.0631 52.3291 32.3541C52.208 32.6452 52.0032 32.8937 51.7407 33.0682C51.4782 33.2428 51.1698 33.3354 50.8546 33.3344C50.4342 33.3331 50.0314 33.1655 49.7341 32.8682C49.4368 32.5709 49.2692 32.1681 49.2679 31.7477Z" fill="#392D2D"/>
<path d="M52.1771 43.9668H39.7852C39.0825 43.9668 38.4086 43.6877 37.9118 43.1908C37.4149 42.6939 37.1358 42.02 37.1358 41.3172C37.1358 40.6145 37.4149 39.9406 37.9118 39.4437C38.4086 38.9468 39.0825 38.6677 39.7852 38.6677H51.1886C51.2641 38.6655 51.3383 38.6469 51.406 38.6133C53.9171 38.0893 55.6372 34.021 55.6372 31.7472C55.6578 31.1068 55.5495 30.4689 55.3187 29.8712C55.0878 29.2736 54.7393 28.7284 54.2936 28.2682C53.8479 27.808 53.3143 27.442 52.7245 27.1921C52.1346 26.9421 51.5005 26.8134 50.8598 26.8134C50.2192 26.8134 49.5851 26.9421 48.9952 27.1921C48.4054 27.442 47.8717 27.808 47.4261 28.2682C46.9804 28.7284 46.6318 29.2736 46.401 29.8712C46.1702 30.4689 46.0619 31.1068 46.0825 31.7472C46.1987 33.9681 47.1092 36.0733 48.6479 37.679H39.7852C38.8203 37.679 37.895 38.0623 37.2127 38.7446C36.5305 39.4269 36.1472 40.3523 36.1472 41.3172C36.1472 42.2822 36.5305 43.2076 37.2127 43.8899C37.895 44.5721 38.8203 44.9555 39.7852 44.9555H52.1771C52.8326 44.9555 53.4612 45.2159 53.9247 45.6794C54.3882 46.1429 54.6486 46.7716 54.6486 47.4271C54.6486 48.0826 54.3882 48.7113 53.9247 49.1748C53.4612 49.6383 52.8326 49.8987 52.1771 49.8987L36.3894 49.8493C36.2784 49.5811 36.0821 49.3569 35.8308 49.2116L28.9453 45.2273C28.7113 45.0908 28.441 45.0293 28.1709 45.0512C27.9009 45.0731 27.644 45.1772 27.435 45.3496C27.2259 45.522 27.0748 45.7544 27.0019 46.0154C26.9291 46.2764 26.938 46.5534 27.0274 46.8092L28.2533 50.3436L27.0423 53.873C26.9742 54.0729 26.9546 54.286 26.9849 54.495C27.0153 54.7039 27.0947 54.9026 27.2168 55.0749C27.3388 55.2471 27.5 55.388 27.6871 55.4858C27.8741 55.5837 28.0817 55.6357 28.2928 55.6378C28.522 55.6355 28.7467 55.5742 28.9453 55.4598L35.816 51.5052C36.0691 51.3567 36.2643 51.1267 36.3696 50.8527L52.187 50.9022C53.1047 50.9022 53.9848 50.5376 54.6337 49.8887C55.2825 49.2398 55.6471 48.3596 55.6471 47.4419C55.6471 46.5242 55.2825 45.6441 54.6337 44.9951C53.9848 44.3462 53.1047 43.9816 52.187 43.9816L52.1771 43.9668ZM47.0711 31.7472C47.0527 31.2381 47.1371 30.7305 47.3192 30.2547C47.5013 29.779 47.7774 29.3448 48.1311 28.9781C48.4847 28.6115 48.9086 28.3199 49.3774 28.1207C49.8463 27.9215 50.3505 27.8188 50.8598 27.8188C51.3692 27.8188 51.8734 27.9215 52.3423 28.1207C52.8111 28.3199 53.235 28.6115 53.5886 28.9781C53.9423 29.3448 54.2184 29.779 54.4005 30.2547C54.5826 30.7305 54.667 31.2381 54.6486 31.7472C54.6486 33.9766 52.8148 37.679 50.8673 37.679C48.9 37.6691 47.0711 33.9766 47.0711 31.7472ZM29.2567 50.2002L29.0689 49.6614L33.1073 50.3634L29.0689 51.0455L29.2567 50.5018C29.2881 50.4037 29.2881 50.2983 29.2567 50.2002ZM28.0803 46.1171C28.1413 46.0655 28.2179 46.0359 28.2978 46.0331C28.3572 46.0346 28.4151 46.0517 28.4658 46.0825L34.5358 49.5873L28.6982 48.5986L27.9567 46.4879C27.9337 46.4211 27.9333 46.3486 27.9557 46.2815C27.978 46.2145 28.0218 46.1567 28.0803 46.1171ZM28.451 54.5997C28.392 54.6365 28.3227 54.6535 28.2534 54.6482C28.184 54.6428 28.1182 54.6154 28.0655 54.57C28.0098 54.5271 27.9693 54.4675 27.9497 54.4C27.9302 54.3324 27.9326 54.2604 27.9567 54.1944L28.6982 52.1133L34.5308 51.1246L28.451 54.5997Z" fill="white"/>
</svg>
