<svg width="83" height="83" viewBox="0 0 83 83" fill="none" xmlns="http://www.w3.org/2000/svg">
<rect width="82.6084" height="82.6084" rx="12" fill="#355CAD"/>
<g clip-path="url(#clip0_311_937)">
<path d="M45.7539 25.4856C45.6587 25.6548 44.752 27.2655 44.6479 27.4518C44.5081 27.7019 44.2438 27.8585 43.9564 27.8585H38.653C38.3656 27.8585 38.1006 27.7023 37.9629 27.4544L37.3126 26.2659C37.1204 25.9145 37.3747 25.4856 37.7752 25.4856H45.7539ZM39.6569 43.6119H28.6493C27.1952 43.6119 26.0127 42.4294 26.0127 40.9754V33.9226C26.0127 32.4685 27.1952 31.286 28.6493 31.286H35.3066C36.7606 31.286 37.9431 32.4685 37.9431 33.9226V39.9293L40.0781 42.7676C40.3386 43.1121 40.0932 43.6119 39.6569 43.6119ZM32.3697 34.8831C32.1936 35.0034 31.9602 35.0036 31.7841 34.8833C30.3142 33.8794 28.371 35.0421 28.5062 36.7813C28.6858 39.0771 30.6346 40.6861 32.0768 40.6861C33.4589 40.6861 35.4639 39.1293 35.6473 36.78C35.7831 35.0363 33.8315 33.8846 32.3697 34.8831ZM34.3475 35.9369C33.8221 35.3214 32.8435 35.516 32.5711 36.2553C32.4036 36.7127 31.7515 36.7147 31.5818 36.2553C31.3088 35.5124 30.3292 35.3258 29.8054 35.9369C29.6241 36.1498 29.5358 36.4201 29.5575 36.6989C29.6999 38.5181 31.27 39.6314 32.0768 39.6314C32.7616 39.6314 34.4451 38.6334 34.596 36.6982C34.6178 36.4194 34.5294 36.1492 34.3475 35.9369ZM56.5968 42.4914V49.5442C56.5968 50.9982 55.4143 52.1807 53.9602 52.1807H47.3029C45.8488 52.1807 44.6663 50.9982 44.6663 49.5442V43.5374L42.5314 40.6992C42.2709 40.3547 42.5162 39.8548 42.9526 39.8548H53.9602C55.4143 39.8548 56.5968 41.0373 56.5968 42.4914ZM53.7374 43.8209C53.0331 42.9956 51.8349 42.8523 50.9572 43.452C50.781 43.5724 50.5478 43.5722 50.3716 43.452C48.9096 42.4539 46.9582 43.6049 47.0939 45.3488C47.2774 47.6986 49.2862 49.2548 50.6645 49.2548C52.9938 49.2548 55.2719 45.6164 53.7374 43.8209ZM42.9526 38.8002H49.6099C49.9011 38.8002 50.1372 38.5641 50.1372 38.2729V28.1222C50.1372 26.6661 48.9567 25.4856 47.5006 25.4856C47.2686 25.4856 46.9833 25.449 46.8131 25.7573C46.6679 26.0202 46.3346 26.5978 45.5686 27.9666C45.243 28.5486 44.6261 28.9131 43.9564 28.9131H38.6529C37.9833 28.9131 37.365 28.5493 37.0394 27.964C37.0394 27.964 35.9173 25.9138 35.8325 25.7589C35.7401 25.5902 35.5632 25.4856 35.3708 25.4856H35.1088C33.6526 25.4856 32.4722 26.6661 32.4722 28.1222V29.7041C32.4722 29.9953 32.7083 30.2314 32.9995 30.2314H35.3065C37.3451 30.2314 38.9977 31.884 38.9977 33.9226C38.9977 39.8718 38.9538 39.5185 39.1036 39.7175L40.921 42.1335C41.7035 43.1735 40.9603 44.6665 39.6568 44.6665H32.9995C32.7083 44.6665 32.4722 44.9027 32.4722 45.1939V54.4877C32.4722 55.9438 33.6526 57.1243 35.1088 57.1243H47.5006C48.9567 57.1243 50.1371 55.9438 50.1371 54.4877V53.7627C50.1371 53.4715 49.901 53.2354 49.6098 53.2354H47.3028C45.2642 53.2354 43.6116 51.5828 43.6116 49.5442V44.0663C43.6116 43.8227 43.6379 43.925 41.6883 41.3333C40.9057 40.2932 41.6494 38.8002 42.9526 38.8002ZM52.9359 44.5057C52.4105 43.8927 51.4324 44.0845 51.1595 44.8241C50.99 45.2828 50.3379 45.2822 50.1701 44.8241C50.0087 44.3864 49.5716 44.1056 49.1076 44.1425C48.6311 44.1425 48.0956 44.6302 48.1453 45.267C48.2962 47.2023 49.9797 48.2002 50.6645 48.2002C51.4713 48.2002 53.0414 47.0869 53.1837 45.2677C53.2055 44.9889 53.1172 44.7186 52.9359 44.5057Z" fill="white"/>
</g>
<defs>
<clipPath id="clip0_311_937">
<rect width="31.64" height="31.64" fill="white" transform="translate(25.4844 25.4843)"/>
</clipPath>
</defs>
</svg>
