<svg width="83" height="83" viewBox="0 0 83 83" fill="none" xmlns="http://www.w3.org/2000/svg">
<rect width="82.6084" height="82.6084" rx="12" fill="#62B04A"/>
<g clip-path="url(#clip0_148_940)">
<path fill-rule="evenodd" clip-rule="evenodd" d="M54.2994 40.5637L52.5934 36.5466C52.4944 36.3135 52.2779 36.1702 52.0246 36.1702H48.3196C47.9793 36.1702 47.7017 36.4478 47.7017 36.7882V40.3754C47.7017 40.7158 47.9793 40.9934 48.3196 40.9934H54.015C54.1219 40.9934 54.2137 40.944 54.2726 40.855C54.3316 40.7659 54.3411 40.662 54.2994 40.5637ZM37.5741 30.3042H34.2062V35.7943H37.5741V30.3042ZM25.9785 48.2874V45.5524H45.3073V49.5233H37.2054C37.2054 47.4417 35.5174 45.7537 33.4358 45.7537C31.3542 45.7537 29.6662 47.4417 29.6662 49.5233H27.2144C26.5337 49.5233 25.9785 48.9681 25.9785 48.2874ZM25.9785 44.5636V31.5401C25.9785 30.8594 26.5337 30.3042 27.2144 30.3042H33.2174V36.1651C33.2174 36.5055 33.495 36.783 33.8354 36.783H37.9449C38.2852 36.783 38.5628 36.5055 38.5628 36.1651V30.3042H44.0715C44.7522 30.3042 45.3073 30.8594 45.3073 31.5401V44.5636H25.9785ZM51.2158 48.1328C50.4474 48.1328 49.8254 48.7548 49.8254 49.5233C49.8254 50.2917 50.4473 50.9137 51.2158 50.9137C51.9842 50.9137 52.6062 50.2918 52.6062 49.5233C52.6062 48.7548 51.9842 48.1328 51.2158 48.1328ZM51.2158 46.7424C52.7516 46.7424 53.9967 47.9874 53.9967 49.5233C53.9967 51.0591 52.7516 52.3041 51.2158 52.3041C49.68 52.3041 48.4349 51.0591 48.4349 49.5233C48.4349 47.9874 49.68 46.7424 51.2158 46.7424ZM33.4357 48.1328C32.6673 48.1328 32.0454 48.7548 32.0454 49.5233C32.0454 50.2917 32.6673 50.9137 33.4357 50.9137C34.2042 50.9137 34.8262 50.2918 34.8262 49.5233C34.8262 48.7548 34.2042 48.1328 33.4357 48.1328ZM33.4357 46.7424C31.8999 46.7424 30.6549 47.9874 30.6549 49.5233C30.6549 51.0591 31.8999 52.3041 33.4357 52.3041C34.9716 52.3041 36.2166 51.0591 36.2166 49.5233C36.2167 47.9874 34.9716 46.7424 33.4357 46.7424ZM46.2962 34.2704H52.6315C53.2827 34.2704 53.8382 34.6176 54.0737 35.1721L56.5251 40.9443C56.5976 41.1151 56.6298 41.2717 56.6298 41.4549V48.5963C56.6298 49.1069 56.2134 49.5233 55.7028 49.5233H54.9854C54.9854 47.4417 53.2974 45.7537 51.2158 45.7537C49.1342 45.7537 47.4462 47.4417 47.4462 49.5233H46.2962V34.2704Z" fill="white"/>
</g>
<defs>
<clipPath id="clip0_148_940">
<rect width="31.64" height="31.64" fill="white" transform="translate(25.4844 25.4842)"/>
</clipPath>
</defs>
</svg>
