<svg width="83" height="83" viewBox="0 0 83 83" fill="none" xmlns="http://www.w3.org/2000/svg">
<rect width="82.6031" height="82.6053" rx="12" fill="#47328F"/>
<g clip-path="url(#clip0_148_875)">
<path d="M55.2667 44.8859C54.8078 44.8859 54.3678 45.0681 54.0433 45.3926C53.7189 45.7171 53.5366 46.1571 53.5366 46.616V53.7837C53.5366 54.2425 53.7189 54.6826 54.0433 55.0071C54.3678 55.3315 54.8078 55.5138 55.2667 55.5138C55.7255 55.5138 56.1655 55.3315 56.49 55.0071C56.8144 54.6826 56.9967 54.2425 56.9967 53.7837V46.616C56.9967 46.1571 56.8144 45.7171 56.49 45.3926C56.1655 45.0681 55.7255 44.8859 55.2667 44.8859Z" fill="white"/>
<path d="M50.0762 43.4042C49.6174 43.4042 49.1773 43.5865 48.8529 43.9109C48.5285 44.2354 48.3462 44.6754 48.3462 45.1343V55.2679C48.3462 55.7268 48.5285 56.1668 48.8529 56.4913C49.1773 56.8158 49.6174 56.9981 50.0762 56.9981C50.5351 56.9981 50.9751 56.8158 51.2995 56.4913C51.624 56.1668 51.8063 55.7268 51.8063 55.2679V45.1343C51.8063 44.6754 51.624 44.2354 51.2995 43.9109C50.9751 43.5865 50.5351 43.4042 50.0762 43.4042Z" fill="white"/>
<path d="M27.3418 44.8868C26.883 44.8868 26.443 45.0691 26.1185 45.3936C25.7941 45.718 25.6118 46.1581 25.6118 46.617V53.7846C25.6118 54.2435 25.7941 54.6836 26.1185 55.008C26.443 55.3325 26.883 55.5148 27.3418 55.5148C27.8007 55.5148 28.2407 55.3325 28.5652 55.008C28.8896 54.6836 29.0719 54.2435 29.0719 53.7846V46.617C29.0719 46.1581 28.8896 45.718 28.5652 45.3936C28.2407 45.0691 27.8007 44.8868 27.3418 44.8868Z" fill="white"/>
<path d="M35.9907 48.4703H46.618V51.9306H35.9907V48.4703Z" fill="white"/>
<path d="M32.5293 43.4047C32.0705 43.4047 31.6305 43.5869 31.306 43.9114C30.9816 44.2359 30.7993 44.6759 30.7993 45.1348V55.2684C30.7993 55.7273 30.9816 56.1673 31.306 56.4918C31.6305 56.8163 32.0705 56.9985 32.5293 56.9985C32.9882 56.9985 33.4282 56.8163 33.7527 56.4918C34.0771 56.1673 34.2594 55.7273 34.2594 55.2684V45.1348C34.2594 44.6759 34.0771 44.2359 33.7527 43.9114C33.4282 43.5869 32.9882 43.4047 32.5293 43.4047Z" fill="white"/>
<path d="M43.0386 31.5584C42.7268 32.1615 42.3253 32.7138 41.8478 33.1965C41.0325 33.9882 40.0417 34.5761 38.9562 34.9123V35.3716C38.9562 36.0599 38.6828 36.72 38.1961 37.2066C37.7095 37.6933 37.0494 37.9668 36.3611 37.9668C35.6729 37.9668 35.0128 37.6933 34.5262 37.2066C34.0395 36.72 33.7661 36.0599 33.7661 35.3716V30.9553C33.0194 30.7971 32.2495 30.7824 31.4973 30.9118C27.449 31.6261 24.8901 36.3741 25.7931 41.4967C25.9027 42.1196 26.0619 42.7327 26.2691 43.3302C26.7817 43.1614 27.3268 43.116 27.8603 43.1975C28.3937 43.279 28.9004 43.4852 29.3392 43.7993C29.648 43.0623 30.2024 42.4549 30.9082 42.0803C31.614 41.7057 32.4276 41.5869 33.2111 41.7441C33.9945 41.9013 34.6994 42.3248 35.206 42.9427C35.7126 43.5606 35.9898 44.3349 35.9904 45.134V46.741H44.5333C45.779 45.2339 46.6054 43.425 46.9292 41.4967C47.6879 37.1927 45.9999 33.1629 43.0386 31.5584Z" fill="white"/>
<path d="M33.4434 27.2141C34.0676 27.5911 34.5843 28.1225 34.9436 28.7572C35.3029 29.3918 35.4927 30.1082 35.4947 30.8375V35.3705C35.4947 35.5999 35.5859 35.8199 35.7481 35.9822C35.9103 36.1444 36.1303 36.2355 36.3597 36.2355C36.5891 36.2355 36.8092 36.1444 36.9714 35.9822C37.1336 35.8199 37.2247 35.5999 37.2247 35.3705V33.5523C38.4925 33.3845 39.6784 32.8325 40.623 31.9705C41.4652 31.0501 42.0109 29.8974 42.1889 28.6625C42.2083 28.5461 42.1996 28.4268 42.1636 28.3144C42.1276 28.202 42.0653 28.0998 41.9818 28.0164C41.8984 27.933 41.7963 27.8706 41.6839 27.8346C41.5715 27.7986 41.4522 27.7899 41.3358 27.8093C40.101 27.9874 38.9484 28.533 38.028 29.3753C37.6998 29.7081 37.421 30.0861 37.2 30.4979C37.1443 29.5305 36.8542 28.5911 36.3548 27.7607C35.8553 26.9304 35.1615 26.2338 34.3331 25.7312C34.1368 25.6209 33.9053 25.5915 33.6877 25.6492C33.4701 25.7069 33.2835 25.8472 33.1677 26.0403C33.0519 26.2334 33.0159 26.464 33.0674 26.6832C33.1188 26.9024 33.2537 27.0928 33.4434 27.2141Z" fill="white"/>
</g>
<defs>
<clipPath id="clip0_148_875">
<rect width="31.6348" height="31.6367" fill="white" transform="translate(25.4844 25.4842)"/>
</clipPath>
</defs>
</svg>
