<svg width="50" height="56" viewBox="0 0 50 56" fill="none" xmlns="http://www.w3.org/2000/svg">
<path fill-rule="evenodd" clip-rule="evenodd" d="M1.76511 32.3378C1.76511 32.8253 1.36993 33.2205 0.882435 33.2205C0.394944 33.2205 -0.000244141 32.8253 -0.000244141 32.3378V21.7909C-0.000244141 21.4706 0.170366 21.1902 0.425712 21.0355L26.1386 2.6533L25.4968 2.65027C25.0112 2.64838 24.6192 2.2532 24.6211 1.7676C24.623 1.282 25.0182 0.889961 25.5038 0.891853L28.8277 0.907615C29.4413 0.881891 29.901 1.48564 29.695 2.07666L28.5684 5.30058C28.4084 5.75945 27.9068 6.00181 27.4478 5.84192C26.9888 5.68202 26.7466 5.18028 26.9065 4.72129L27.1174 4.11767L1.76511 22.2418V32.3378Z" fill="#7986BF"/>
<path fill-rule="evenodd" clip-rule="evenodd" d="M19.9107 24.3447V31.1761C19.9107 31.6558 19.5193 32.0472 19.0396 32.0472H14.4557C13.976 32.0472 13.5846 31.6559 13.5846 31.1761V24.3447H11.2474C10.9629 24.3447 10.7197 24.1867 10.6039 23.9269C10.4882 23.6672 10.5335 23.3805 10.7237 23.1691L16.224 17.0562C16.3624 16.9022 16.5406 16.8229 16.7476 16.8229C16.9547 16.8229 17.1329 16.9023 17.2713 17.0562L22.7717 23.1691C22.962 23.3805 23.0072 23.667 22.8915 23.9269C22.7757 24.1867 22.5325 24.3447 22.248 24.3447H19.9108H19.9107Z" fill="#F23353"/>
<path fill-rule="evenodd" clip-rule="evenodd" d="M16.9212 32.0473H14.4557C13.976 32.0473 13.5846 31.656 13.5846 31.1762V24.3448H11.2474C10.9629 24.3448 10.7197 24.1868 10.6039 23.927C10.4882 23.6673 10.5335 23.3806 10.7237 23.1692L15.6884 17.6514L20.6531 23.1692C20.8434 23.3806 20.8887 23.6671 20.7729 23.927C20.6572 24.1868 20.4139 24.3448 20.1294 24.3448H17.7922V31.1762C17.7922 31.6559 17.4008 32.0473 16.9212 32.0473Z" fill="#FF5471"/>
<path fill-rule="evenodd" clip-rule="evenodd" d="M33.3013 16.3817V31.1761C33.3013 31.6557 32.9098 32.0472 32.4302 32.0472H27.8463C27.3668 32.0472 26.9753 31.6559 26.9753 31.1761V16.3817H24.638C24.3537 16.3817 24.1103 16.2237 23.9946 15.9639C23.8788 15.7042 23.9241 15.4175 24.1144 15.2061L29.6147 9.09314C29.7532 8.93918 29.9313 8.85986 30.1384 8.85986C30.3454 8.85986 30.5236 8.9393 30.6621 9.09314L36.1623 15.2061C36.3526 15.4174 36.3978 15.704 36.2821 15.9639C36.1663 16.2238 35.923 16.3817 35.6386 16.3817H33.3014H33.3013Z" fill="#4EB1FC"/>
<path fill-rule="evenodd" clip-rule="evenodd" d="M30.3118 32.0473H27.8463C27.3668 32.0473 26.9753 31.656 26.9753 31.1762V16.3818H24.638C24.3537 16.3818 24.1103 16.2238 23.9946 15.964C23.8788 15.7042 23.9241 15.4176 24.1144 15.2062L29.0791 9.68842L34.0437 15.2062C34.234 15.4175 34.2793 15.7041 34.1635 15.964C34.0478 16.2238 33.8044 16.3818 33.5201 16.3818H31.1829V31.1762C31.1829 31.6558 30.7915 32.0473 30.3118 32.0473Z" fill="#6FBFFC"/>
<path fill-rule="evenodd" clip-rule="evenodd" d="M46.6939 9.06173V31.1761C46.6939 31.6558 46.3025 32.0472 45.8228 32.0472H41.2389C40.7592 32.0472 40.3678 31.6559 40.3678 31.1761V9.06173H38.0306C37.7461 9.06173 37.5029 8.90373 37.3872 8.64397C37.2714 8.38421 37.3167 8.09759 37.5069 7.88613L43.0073 1.7732C43.1457 1.61923 43.3239 1.53992 43.531 1.53992C43.738 1.53992 43.9162 1.61936 44.0547 1.7732L49.5549 7.88613C49.7452 8.09746 49.7904 8.38408 49.6747 8.64397C49.5589 8.90373 49.3155 9.06173 49.0312 9.06173H46.694H46.6939Z" fill="#2DD62D"/>
<path fill-rule="evenodd" clip-rule="evenodd" d="M43.7044 32.0473H41.2389C40.7592 32.0473 40.3678 31.656 40.3678 31.1762V9.06182H38.0306C37.7461 9.06182 37.5029 8.90382 37.3872 8.64406C37.2714 8.3843 37.3167 8.09768 37.5069 7.88622L42.4716 2.36847L47.4363 7.88622C47.6266 8.09756 47.6719 8.38418 47.5561 8.64406C47.4404 8.90382 47.197 9.06182 46.9126 9.06182H44.5754V31.1762C44.5754 31.6559 44.184 32.0473 43.7044 32.0473Z" fill="#43F043"/>
<path d="M36.1512 38.003C37.5762 34.6875 36.0437 30.8444 32.7282 29.4194C29.4126 27.9943 25.5696 29.5268 24.1445 32.8424C22.7195 36.1579 24.252 40.001 27.5675 41.426C30.8831 42.8511 34.7261 41.3186 36.1512 38.003Z" fill="#2DD62D"/>
<path fill-rule="evenodd" clip-rule="evenodd" d="M29.3451 41.924C26.1121 41.532 23.6072 38.7786 23.6072 35.4398C23.6072 32.101 26.1121 29.3477 29.3451 28.9557C32.5781 29.3477 35.0831 32.101 35.0831 35.4398C35.0831 38.7786 32.5782 41.5321 29.3451 41.924Z" fill="#43F043"/>
<path fill-rule="evenodd" clip-rule="evenodd" d="M26.5533 35.4926C26.3114 35.0718 26.4566 34.5345 26.8774 34.2927C27.2981 34.0508 27.8354 34.1959 28.0773 34.6167L28.9401 36.1111L32.3411 32.7099C32.6858 32.3653 33.2446 32.3653 33.5893 32.7099C33.9339 33.0545 33.9339 33.6134 33.5893 33.958L29.3775 38.1698C28.9746 38.5724 28.2775 38.4813 27.9914 37.9836L26.5533 35.4926Z" fill="#F3F3FF"/>
<path fill-rule="evenodd" clip-rule="evenodd" d="M49.9997 35.4512V38.7579L46.5068 39.4465L44.5378 44.1991L46.521 47.1563L41.8445 51.8326L38.8873 49.8495L34.1347 51.8185L33.446 55.3115H26.8327L26.1439 51.8185L21.3914 49.8496L18.4341 51.8327L13.7577 47.1564L15.7408 44.1992L13.7718 39.4466L10.2789 38.758V35.4514H19.9542C19.9542 41.0763 24.5143 45.6362 30.1392 45.6362C35.7641 45.6362 40.3241 41.0763 40.3241 35.4514H49.9995L49.9997 35.4512Z" fill="#909CD1"/>
<path fill-rule="evenodd" clip-rule="evenodd" d="M47.8657 35.4512V38.758L44.3728 39.4466L42.4038 44.1992L44.3869 47.1564L40.5672 50.9762L38.8872 49.8496L37.1583 48.6903L32.2139 50.7387L31.3122 55.3115H26.8326L26.1438 51.8185L21.3912 49.8496H21.3911L19.6223 49.117L17.2854 50.6841L13.7577 47.1564L15.7408 44.1992L13.7718 39.4466L10.2789 38.758V35.4512H19.9542C19.9542 41.0762 24.5143 45.6361 30.1392 45.6361C35.7641 45.6361 40.3241 41.0762 40.3241 35.4512H47.8657Z" fill="#BDC7F2"/>
<path fill-rule="evenodd" clip-rule="evenodd" d="M19.9538 35.4512C19.9538 40.768 24.0279 45.1323 29.2243 45.5949C28.9229 45.6217 28.618 45.6361 28.3097 45.6361C22.6848 45.6361 18.1249 41.0762 18.1248 35.4512H19.9538Z" fill="#909CD1"/>
</svg>
