<svg width="83" height="83" viewBox="0 0 83 83" fill="none" xmlns="http://www.w3.org/2000/svg">
<rect width="82.6031" height="82.6053" rx="12" fill="#A41F4A"/>
<g clip-path="url(#clip0_148_922)">
<path d="M57.1246 41.3009C57.1246 32.5646 50.0429 25.4825 41.3072 25.4825C32.5714 25.4825 25.4897 32.5646 25.4897 41.3009C25.4897 50.0371 32.5714 57.1192 41.3072 57.1192H57.1246V54.4828H50.0397C54.462 51.5549 57.1227 46.6052 57.1246 41.3009ZM49.055 51.9655C47.2883 53.2489 44.8148 52.8576 43.5315 51.0901C42.2481 49.3233 42.6394 46.8504 44.4062 45.5663C46.1735 44.2829 48.6463 44.6742 49.9296 46.4417C51.2136 48.2085 50.8217 50.6814 49.055 51.9655ZM48.8606 34.6887C50.9375 34.0135 53.1683 35.1502 53.8434 37.2272C54.518 39.3049 53.3813 41.5358 51.3044 42.2104C49.2275 42.8855 46.9967 41.7489 46.3215 39.6718C45.647 37.5947 46.7837 35.3632 48.8606 34.6887ZM41.3072 28.1189C43.4909 28.1189 45.2615 29.8896 45.2615 32.0735C45.2615 34.2574 43.4909 36.0281 41.3072 36.0281C39.1234 36.0281 37.3528 34.2574 37.3528 32.0735C37.3528 29.8896 39.1234 28.1189 41.3072 28.1189ZM28.7709 37.2272C29.446 35.1502 31.6768 34.0135 33.7537 34.688C35.8307 35.3632 36.9673 37.5941 36.2928 39.6712C35.6176 41.7482 33.3869 42.8849 31.3099 42.2104C29.233 41.5358 28.0964 39.3049 28.7709 37.2272ZM39.0828 51.0901C37.7995 52.8576 35.3261 53.2489 33.5594 51.9655C31.7926 50.6814 31.4007 48.2085 32.6847 46.4417C33.9681 44.6749 36.4415 44.2829 38.2082 45.567C39.9749 46.8504 40.3662 49.3233 39.0828 51.0901ZM39.989 41.3009C39.989 40.5729 40.5792 39.9827 41.3072 39.9827C42.0351 39.9827 42.6253 40.5729 42.6253 41.3009C42.6253 42.0288 42.0351 42.6191 41.3072 42.6191C40.5792 42.6191 39.989 42.0288 39.989 41.3009Z" fill="white"/>
</g>
<defs>
<clipPath id="clip0_148_922">
<rect width="31.6348" height="31.6367" fill="white" transform="translate(25.4844 25.4842)"/>
</clipPath>
</defs>
</svg>
