<svg width="83" height="83" viewBox="0 0 83 83" fill="none" xmlns="http://www.w3.org/2000/svg">
<rect width="82.6031" height="82.6053" rx="12" fill="#F03224"/>
<g clip-path="url(#clip0_148_909)">
<path d="M43.5348 42.5655C43.1753 42.5655 42.8838 42.2741 42.8838 41.9146V38.9397H39.7204V41.9146C39.7204 42.2741 39.4289 42.5655 39.0694 42.5655H36.0947V45.7227H39.0694C39.4289 45.7227 39.7204 46.0142 39.7204 46.3737V49.3486H42.8773V46.3737C42.8773 46.0142 43.1688 45.7227 43.5283 45.7227H46.5095V42.5655H43.5348Z" fill="white"/>
<path d="M52.6278 32.7628H29.9757C27.9058 32.7628 25.4844 33.9411 25.4844 37.2544V51.3998C25.4844 54.7132 27.9058 55.8914 29.9757 55.8914H52.6278C54.6978 55.8914 57.1192 54.7132 57.1192 51.3998V37.2544C57.1192 33.9411 54.7043 32.7628 52.6278 32.7628ZM47.811 46.0554C47.811 46.5911 47.3768 47.0254 46.8411 47.0254H44.1854V49.6813C44.1854 50.2169 43.7511 50.6512 43.2155 50.6512H39.3881C38.8525 50.6512 38.4182 50.2169 38.4182 49.6813V47.0254H35.769C35.2333 47.0289 34.7961 46.5976 34.7926 46.0619C34.7926 46.0597 34.7926 46.0575 34.7926 46.0554V42.2343C34.7926 41.6986 35.2268 41.2644 35.7624 41.2644H38.4182V38.6084C38.4182 38.0728 38.8525 37.6385 39.3881 37.6385H43.209C43.7446 37.6385 44.1789 38.0728 44.1789 38.6084V41.2644H46.8346C47.3703 41.2608 47.8074 41.6921 47.811 42.2278C47.811 42.23 47.811 42.2321 47.811 42.2343V46.0554Z" fill="white"/>
<path d="M45.4983 26.7162C45.427 26.7121 45.3554 26.7121 45.2839 26.7162H37.3427C36.2982 26.657 35.4035 27.4557 35.3444 28.5002C35.3403 28.5716 35.3403 28.6432 35.3444 28.7146V31.6439H36.6462L36.6527 28.7146C36.6527 28.5258 36.6527 28.0181 37.3492 28.0181H45.2839C45.9804 28.0181 45.9804 28.5193 45.9804 28.7146V31.6439H47.2823V28.7146C47.3415 27.6701 46.5427 26.7754 45.4983 26.7162Z" fill="white"/>
</g>
<defs>
<clipPath id="clip0_148_909">
<rect width="31.6348" height="31.6367" fill="white" transform="translate(25.4844 25.4842)"/>
</clipPath>
</defs>
</svg>
