<svg width="51" height="56" viewBox="0 0 51 56" fill="none" xmlns="http://www.w3.org/2000/svg">
<path d="M25.2044 44.6211C37.265 44.6211 47.042 34.8441 47.042 22.7835C47.042 10.7229 37.265 0.945923 25.2044 0.945923C13.1438 0.945923 3.36682 10.7229 3.36682 22.7835C3.36682 34.8441 13.1438 44.6211 25.2044 44.6211Z" fill="#FFD15C"/>
<path d="M7.51341 35.5591L-0.000366211 48.5837L8.76932 48.1181L12.7536 55.9459L19.7044 43.8957C14.724 42.6073 10.4475 39.6083 7.51341 35.5591Z" fill="#40596B"/>
<path d="M42.9386 35.4941C40.0262 39.5542 35.7496 42.564 30.7802 43.8741L37.7526 55.9459L41.7368 48.1182L50.5065 48.5837L42.9386 35.4941Z" fill="#40596B"/>
<path d="M25.2044 38.6123C33.9463 38.6123 41.0331 31.5255 41.0331 22.7835C41.0331 14.0415 33.9463 6.95477 25.2044 6.95477C16.4624 6.95477 9.37561 14.0415 9.37561 22.7835C9.37561 31.5255 16.4624 38.6123 25.2044 38.6123Z" fill="#F8B64C"/>
<path d="M36.0532 21.0729C36.5405 20.5965 36.2698 19.7628 35.5985 19.6654L29.3515 18.7559C29.0808 18.7126 28.8534 18.5502 28.7343 18.3012L25.941 12.6388C25.6379 12.0217 24.7609 12.0217 24.4578 12.6388L21.6753 18.3012C21.5562 18.5394 21.318 18.7126 21.0582 18.7559L14.8111 19.6654C14.1399 19.7628 13.8692 20.5965 14.3564 21.0729L18.8712 25.4794C19.066 25.6742 19.1527 25.9449 19.1093 26.2048L18.0483 32.4193C17.9292 33.0906 18.6438 33.6103 19.2501 33.2855L24.8367 30.3514C25.0749 30.2215 25.3672 30.2215 25.6054 30.3514L31.192 33.2855C31.7983 33.5994 32.5021 33.0906 32.3938 32.4193L31.3219 26.2048C31.2786 25.9341 31.3653 25.6634 31.5601 25.4794L36.0532 21.0729Z" fill="white"/>
</svg>
