<svg xmlns="http://www.w3.org/2000/svg" width="100%" height="100%" viewBox="0 0 453 627" fill="none">
<path d="M26.9347 163.642L20.1293 177.694L425.813 373.416L432.618 359.365L26.9347 163.642Z" fill="#E85E00"/>
<path d="M448.774 378.891L405.593 382.9C403.116 383.13 401.339 380.57 402.423 378.332L421.954 338.004C423.039 335.765 426.155 335.566 427.512 337.65L451.162 373.969C452.473 375.983 451.17 378.669 448.774 378.891Z" fill="#FF6600"/>
<path d="M1.56627 163.136L25.243 199.399C26.6014 201.48 29.7152 201.28 30.7989 199.042L50.3302 158.714C51.4147 156.475 49.6347 153.914 47.1558 154.147L3.94782 158.211C1.55231 158.436 0.252618 161.124 1.56627 163.136Z" fill="#FF6600"/>
<path d="M423.633 155.659L21.9625 359.491L29.0489 373.403L430.719 169.571L423.633 155.659Z" fill="#E85E00"/>
<path d="M6.21232 379.335L49.4651 382.475C51.9466 382.655 53.6717 380.06 52.5432 377.845L32.2059 337.918C31.0766 335.701 27.9565 335.564 26.6418 337.675L3.72639 374.462C2.4559 376.502 3.81256 379.161 6.21232 379.335Z" fill="#FF6600"/>
<path d="M448.997 154.641L426.053 191.373C424.737 193.48 421.62 193.342 420.491 191.127L400.154 151.199C399.024 148.982 400.753 146.386 403.236 146.569L446.517 149.764C448.916 149.941 450.27 152.603 448.997 154.641Z" fill="#FF6600"/>
<path d="M129.013 331.794C129.013 331.794 124.216 354.926 130.868 368.273C136.672 379.917 153.779 384.252 153.205 377.37C152.408 367.802 142.071 372.2 142.784 356.975C143.496 341.751 146.345 364.984 154.418 366.88C162.49 368.777 144.92 335.587 144.92 329.897L129.013 331.794Z" fill="#FFB476"/>
<path d="M324.287 331.794C324.287 331.794 329.083 354.926 322.431 368.273C316.627 379.917 299.52 384.252 300.094 377.37C300.892 367.802 311.228 372.2 310.516 356.975C309.803 341.751 306.954 364.984 298.882 366.88C290.809 368.777 308.379 335.587 308.379 329.897L324.287 331.794Z" fill="#FFB476"/>
<path d="M202.182 625.39C189.106 629.169 170.35 621.096 175.857 607.18C181.36 593.436 183.943 572.992 183.943 572.992L207.689 570.243C206.311 576.599 211.47 589.484 215.771 602.369C219.905 615.083 215.259 621.782 202.182 625.39Z" fill="#302F2C"/>
<path d="M265.031 625.39C251.955 629.169 233.199 621.096 238.706 607.18C244.209 593.436 246.792 572.992 246.792 572.992L270.538 570.243C269.161 576.599 274.319 589.484 278.62 602.369C282.754 615.083 278.108 621.782 265.031 625.39Z" fill="#302F2C"/>
<path d="M176.63 564H213.796L214.96 447.76C215.061 437.689 215.758 427.631 217.047 417.63L226.665 343.016V287.369H167.393L176.63 564Z" fill="#434240"/>
<path d="M276.698 564H239.531L238.367 447.76C238.267 437.689 237.57 427.631 236.281 417.63L226.663 343.016V287.369H285.935L276.698 564Z" fill="#434240"/>
<path d="M278.548 254.48H173.646V309.281H278.548V254.48Z" fill="#D4D5D8"/>
<path d="M278.548 309.281H173.646V320.257H278.548V309.281Z" fill="#302F2C"/>
<path d="M226.679 107.298V287.344C226.679 313.801 248.014 335.104 274.512 335.104H289.823L283.972 262.948C283.804 260.544 283.631 258.138 283.631 255.733V208.488L294.814 250.235L305.479 335.104H326.646V246.112C326.646 241.989 326.302 237.866 325.268 233.914L304.622 146.469C301.866 134.958 293.264 126.025 281.909 122.761L226.679 107.298Z" fill="#302F2C"/>
<path d="M226.613 107.298V287.344C226.613 313.801 205.278 335.104 178.78 335.104H163.469L169.32 262.948C169.488 260.544 169.661 258.138 169.661 255.733V208.488L158.478 250.235L147.813 335.104H126.646V246.112C126.646 241.989 126.99 237.866 128.024 233.914L148.67 146.469C151.426 134.958 160.029 126.025 171.383 122.761L226.613 107.298Z" fill="#302F2C"/>
<path d="M272.069 274.956H246.623V280.359H272.069V274.956Z" fill="#434240"/>
<path d="M206.671 274.956H181.226V280.359H206.671V274.956Z" fill="#434240"/>
<path d="M249.154 144.922L229.197 215.36L226.614 219.483L224.207 215.36L204.073 144.922L226.614 128.773L249.154 144.922Z" fill="#D7DCE2"/>
<path d="M221.245 145.808H231.984L236.166 204.073L226.664 214.893L217.062 204.073L221.245 145.808Z" fill="#FF3333"/>
<path d="M239.239 126.214C235.519 132.756 232.426 139.265 231.982 145.807C228.403 148.294 224.823 148.295 221.243 145.807C220.799 139.264 217.671 132.756 213.986 126.214C223.041 129.825 231.459 129.825 239.239 126.214Z" fill="#F22525"/>
<path d="M207.635 107.383L226.665 128.774L207.635 153.358L202.206 123.914L207.635 107.383Z" fill="#BFC8D1"/>
<path d="M226.664 225.213C211.735 203.253 200.074 177.821 191.672 148.915L201.305 134.169L188.997 130.146L198.868 111.328L207.635 107.383C207.005 144.664 214.545 180.252 226.664 214.892V225.213Z" fill="#434240"/>
<path d="M245.693 107.383L226.663 128.774L245.693 153.358L251.122 123.914L245.693 107.383Z" fill="#BFC8D1"/>
<path d="M245.694 94.0156V107.383L226.665 128.774L207.635 107.383V94.0156H245.694Z" fill="#F4BB87"/>
<path d="M226.606 235.987C228.221 235.985 229.528 234.675 229.526 233.063C229.524 231.45 228.213 230.144 226.599 230.146C224.984 230.148 223.677 231.457 223.679 233.07C223.681 234.683 224.992 235.989 226.606 235.987Z" fill="#D7DCE2"/>
<path d="M226.614 250.275C228.229 250.275 229.538 248.967 229.538 247.354C229.538 245.742 228.229 244.434 226.614 244.434C224.999 244.434 223.69 245.742 223.69 247.354C223.69 248.967 224.999 250.275 226.614 250.275Z" fill="#D7DCE2"/>
<path d="M226.614 264.573C228.229 264.573 229.538 263.266 229.538 261.653C229.538 260.04 228.229 258.732 226.614 258.732C224.999 258.732 223.69 260.04 223.69 261.653C223.69 263.266 224.999 264.573 226.614 264.573Z" fill="#D7DCE2"/>
<path d="M229.53 275.946C229.532 274.333 228.225 273.024 226.61 273.022C224.995 273.02 223.685 274.326 223.683 275.939C223.68 277.551 224.988 278.86 226.602 278.863C228.217 278.865 229.528 277.559 229.53 275.946Z" fill="#D7DCE2"/>
<path d="M169.662 208.488L158.48 250.235L147.814 335.103H138.69L153.489 258.31L140.06 245.299L153.309 244.434L161.576 204.021L159.169 150.936L169.662 208.488Z" fill="#434240"/>
<path d="M226.629 225.213C241.558 203.253 253.219 177.821 261.621 148.915L251.988 134.169L264.295 130.146L254.424 111.328L245.658 107.383C246.288 144.664 238.748 180.252 226.629 214.892V225.213Z" fill="#434240"/>
<path d="M283.632 208.488L294.814 250.235L305.48 335.103H314.604L299.805 258.31L313.234 245.299L299.985 244.434L291.718 204.021L294.125 150.936L283.632 208.488Z" fill="#434240"/>
<path d="M263.542 73.2283C264.932 67.7757 262.765 62.518 258.7 61.485C254.636 60.4519 250.215 64.0347 248.824 69.4873C247.434 74.9399 249.602 80.1975 253.666 81.2306C257.731 82.2636 262.152 78.6809 263.542 73.2283Z" fill="#F4BB87"/>
<path d="M199.492 81.201C203.557 80.1679 205.724 74.9102 204.334 69.4576C202.944 64.005 198.523 60.4223 194.458 61.4554C190.394 62.4884 188.226 67.7461 189.616 73.1987C191.007 78.6513 195.428 82.234 199.492 81.201Z" fill="#F4BB87"/>
<path d="M193.539 48.0696L197.474 78.9298C198.622 87.9286 202.83 96.2609 209.395 102.532L215.059 107.944C217.378 110.159 220.463 111.395 223.672 111.395H229.513C232.721 111.395 235.806 110.159 238.125 107.944L243.769 102.552C250.347 96.2685 254.558 87.9167 255.697 78.8991L259.59 48.0697C259.59 15.178 230.192 19.142 210.224 24.0492C199.708 26.8915 192.799 36.1203 193.539 48.0696Z" fill="#FFCC99"/>
<path d="M256.9 22.9172C269.944 41.4377 256.9 70.9512 256.9 70.9512C256.022 55.8558 253.988 41.8756 249.56 30.0864C235.759 40.2826 219.843 42.2342 201.893 36.0607C198.143 46.3368 196.627 58.1261 196.667 70.9512C181.07 39.5259 193.077 30.8432 193.077 30.8432C182.626 22.1604 193.995 -8.0701 225.068 2.04638C256.143 12.1632 268.627 6.98538 268.627 6.98538C267.55 14.5129 256.9 22.9172 256.9 22.9172Z" fill="#434240"/>
<path d="M201.893 36.0602C198.143 46.3362 196.627 58.1255 196.667 70.9507C181.07 39.5253 193.077 30.8426 193.077 30.8426C195.697 34.0371 201.893 36.0602 201.893 36.0602Z" fill="#302F2C"/>
<path d="M256.899 70.9513C256.021 55.8558 253.987 41.8757 249.559 30.0864C249.559 30.0864 252.827 27.5753 256.899 22.9173C269.943 41.4377 256.899 70.9513 256.899 70.9513Z" fill="#302F2C"/>
</svg>