<svg width="46" height="46" viewBox="0 0 46 46" fill="none" xmlns="http://www.w3.org/2000/svg">
<path fill-rule="evenodd" clip-rule="evenodd" d="M15.7231 31.4274C15.9558 31.4274 16.1454 31.6161 16.1454 31.8497C16.1454 32.0824 15.9567 32.272 15.7231 32.272H5.60488C5.37219 32.272 5.18262 32.0833 5.18262 31.8497V11.324C5.18262 11.0913 5.37129 10.9017 5.60488 10.9017H8.21035C8.44305 10.9017 8.63262 11.0904 8.63262 11.324C8.63262 11.5567 8.44394 11.7463 8.21035 11.7463H6.02715V31.4274H15.7231Z" fill="#0085F2"/>
<path fill-rule="evenodd" clip-rule="evenodd" d="M30.3246 32.271C30.0919 32.271 29.9023 32.0823 29.9023 31.8487C29.9023 31.616 30.091 31.4265 30.3246 31.4265H40.0214V11.7453H37.8382C37.6055 11.7453 37.416 11.5566 37.416 11.323C37.416 11.0903 37.6046 10.9008 37.8382 10.9008H40.4437C40.6764 10.9008 40.866 11.0894 40.866 11.323V31.8478C40.866 32.0805 40.6773 32.2701 40.4437 32.2701L30.3246 32.271Z" fill="#0085F2"/>
<path fill-rule="evenodd" clip-rule="evenodd" d="M25.3511 24.4834C25.8883 24.6532 26.4013 24.8805 26.8829 25.159C27.3699 25.4402 27.8236 25.7736 28.2368 26.1518L30.7776 24.8329C30.978 24.7296 31.2233 24.8033 31.3347 24.9964L33.1127 28.0763C33.2295 28.2775 33.1603 28.5345 32.959 28.6513L32.9536 28.654L30.5638 30.1804C30.6123 30.4005 30.6509 30.626 30.6806 30.856C30.7237 31.1884 30.7453 31.52 30.7453 31.8479C30.7453 32.1758 30.7228 32.5074 30.6806 32.8398C30.6509 33.0698 30.6114 33.2953 30.5638 33.5145L32.9734 35.0535C33.1639 35.1748 33.2232 35.4246 33.1109 35.6186H33.1118L31.3338 38.6985C31.2197 38.8943 30.9726 38.9644 30.7731 38.8602L28.235 37.5431C27.8218 37.9213 27.3681 38.2547 26.8811 38.5359C26.3995 38.8144 25.8865 39.0417 25.3502 39.2115L25.2217 42.0667C25.2118 42.2931 25.0258 42.4692 24.8012 42.4692V42.4701H21.2443C21.0116 42.4701 20.822 42.2815 20.822 42.0479C20.822 42.0434 20.822 42.0389 20.822 42.0344L20.6954 39.2115C20.1581 39.0417 19.6451 38.8144 19.1635 38.5359C18.6766 38.2547 18.2229 37.9213 17.8096 37.5431L15.2688 38.862C15.0684 38.9653 14.8232 38.8917 14.7118 38.6985L12.9338 35.6186C12.817 35.4174 12.8861 35.1604 13.0874 35.0436L13.0928 35.0409L15.4826 33.5145C15.4341 33.2944 15.3955 33.0689 15.3658 32.8389C15.3227 32.5065 15.3011 32.1749 15.3011 31.847C15.3011 31.5191 15.3236 31.1875 15.3658 30.8551C15.3955 30.6251 15.435 30.3996 15.4826 30.1795L13.073 28.6405C12.8825 28.5192 12.8233 28.2694 12.9356 28.0754H12.9347L14.7127 24.9955C14.8268 24.7997 15.0738 24.7296 15.2733 24.8338L17.8114 26.1509C18.2247 25.7727 18.6784 25.4393 19.1653 25.1581C19.6469 24.8796 20.1599 24.6523 20.6972 24.4825L20.8256 21.6273C20.8355 21.4009 21.0215 21.2248 21.2461 21.2248V21.2239H24.803C25.0357 21.2239 25.2253 21.4125 25.2253 21.6461V21.6596L25.3511 24.4834Z" fill="#112049"/>
<path fill-rule="evenodd" clip-rule="evenodd" d="M8.21035 3.66113H19.2378C19.4705 3.66113 19.66 3.8498 19.66 4.0834V18.5644C19.66 18.7971 19.4714 18.9867 19.2378 18.9867H8.21035C7.97766 18.9867 7.78809 18.798 7.78809 18.5644V4.0834C7.78809 3.8507 7.97676 3.66113 8.21035 3.66113Z" fill="#F6FAFD"/>
<path fill-rule="evenodd" clip-rule="evenodd" d="M10.4223 7.61077C10.1896 7.61077 10 7.4221 10 7.1885C10 6.95581 10.1887 6.76624 10.4223 6.76624H17.024C17.2567 6.76624 17.4462 6.95491 17.4462 7.1885C17.4462 7.4212 17.2576 7.61077 17.024 7.61077H10.4223Z" fill="#3B566A"/>
<path fill-rule="evenodd" clip-rule="evenodd" d="M10.4223 10.3671C10.1896 10.3671 10 10.1784 10 9.94485C10 9.71215 10.1887 9.52258 10.4223 9.52258H17.024C17.2567 9.52258 17.4462 9.71126 17.4462 9.94485C17.4462 10.1775 17.2576 10.3671 17.024 10.3671H10.4223Z" fill="#3B566A"/>
<path fill-rule="evenodd" clip-rule="evenodd" d="M10.4223 13.1235C10.1896 13.1235 10 12.9348 10 12.7012C10 12.4676 10.1887 12.2789 10.4223 12.2789H17.024C17.2567 12.2789 17.4462 12.4676 17.4462 12.7012C17.4462 12.9348 17.2576 13.1235 17.024 13.1235H10.4223Z" fill="#3B566A"/>
<path fill-rule="evenodd" clip-rule="evenodd" d="M10.4223 15.8808C10.1896 15.8808 10 15.6921 10 15.4585C10 15.2258 10.1887 15.0363 10.4223 15.0363H17.024C17.2567 15.0363 17.4462 15.2249 17.4462 15.4585C17.4462 15.6912 17.2576 15.8808 17.024 15.8808H10.4223Z" fill="#3B566A"/>
<path fill-rule="evenodd" clip-rule="evenodd" d="M30.5954 3.66028C32.7112 3.66028 34.6276 4.51829 36.0139 5.90458C37.4011 7.29176 38.2582 9.20723 38.2582 11.3231C38.2582 13.4389 37.4002 15.3552 36.0139 16.7415C34.6267 18.1287 32.7112 18.9858 30.5954 18.9858C28.4796 18.9858 26.5632 18.1278 25.1769 16.7415C23.7897 15.3543 22.9326 13.4389 22.9326 11.3231C22.9326 9.20723 23.7906 7.29086 25.1769 5.90458C26.5641 4.51829 28.4796 3.66028 30.5954 3.66028Z" fill="#EF5350"/>
<path fill-rule="evenodd" clip-rule="evenodd" d="M23.0242 26.3549C24.5417 26.3549 25.9154 26.9703 26.9091 27.964C27.9036 28.9585 28.5182 30.3322 28.5182 31.8488C28.5182 33.3663 27.9027 34.74 26.9091 35.7336C25.9145 36.7282 24.5408 37.3428 23.0242 37.3428C21.5077 37.3428 20.133 36.7273 19.1394 35.7336C18.1448 34.7391 17.5303 33.3654 17.5303 31.8488C17.5303 30.3313 18.1457 28.9576 19.1394 27.964C20.133 26.9694 21.5068 26.3549 23.0242 26.3549Z" fill="#0085F2"/>
<path d="M26.0066 28.8668C25.2439 28.1031 24.1891 27.6315 23.0238 27.6315C21.8595 27.6315 20.8047 28.1031 20.041 28.8668C19.2773 29.6305 18.8057 30.6844 18.8057 31.8496C18.8057 33.014 19.2773 34.0688 20.041 34.8324C20.8038 35.5961 21.8586 36.0678 23.0238 36.0678C24.1882 36.0678 25.243 35.5961 26.0066 34.8324C26.7703 34.0697 27.242 33.0149 27.242 31.8496C27.242 30.6844 26.7694 29.6296 26.0066 28.8668Z" fill="#FEFEFE"/>
<path d="M35.2561 6.66373C34.0639 5.4715 32.4161 4.73389 30.5959 4.73389C28.7757 4.73389 27.1288 5.4715 25.9357 6.66373C24.7435 7.85596 24.0059 9.50369 24.0059 11.3239C24.0059 13.1442 24.7435 14.791 25.9357 15.9841C27.1279 17.1763 28.7757 17.914 30.5959 17.914C32.4161 17.914 34.0639 17.1763 35.2561 15.9841C36.4483 14.7919 37.1859 13.1442 37.1859 11.3239C37.1859 9.50369 36.4492 7.85596 35.2561 6.66373Z" fill="#FEFEFE"/>
<path fill-rule="evenodd" clip-rule="evenodd" d="M31.0184 4.74651C30.8791 4.73752 30.738 4.73303 30.5961 4.73303C30.4541 4.73303 30.314 4.73752 30.1738 4.74651V5.49131C30.1738 5.72401 30.3625 5.91358 30.5961 5.91358C30.8288 5.91358 31.0184 5.72491 31.0184 5.49131V4.74651Z" fill="#3B566A"/>
<path fill-rule="evenodd" clip-rule="evenodd" d="M35.2558 6.66376C35.1561 6.56404 35.0537 6.46791 34.9476 6.37537L34.4212 6.90185C34.2567 7.06626 34.2567 7.334 34.4212 7.49841C34.5856 7.66283 34.8533 7.66283 35.0177 7.49841L35.5442 6.97193C35.4517 6.86591 35.3555 6.76349 35.2558 6.66376Z" fill="#3B566A"/>
<path fill-rule="evenodd" clip-rule="evenodd" d="M37.1729 11.7453C37.1819 11.606 37.1864 11.465 37.1864 11.323C37.1864 11.1811 37.1819 11.0409 37.1729 10.9008H36.4281C36.1954 10.9008 36.0059 11.0894 36.0059 11.323C36.0059 11.5557 36.1945 11.7453 36.4281 11.7453H37.1729Z" fill="#3B566A"/>
<path fill-rule="evenodd" clip-rule="evenodd" d="M34.9486 16.2726C35.0546 16.1792 35.1571 16.083 35.2568 15.9842C35.3565 15.8845 35.4526 15.7821 35.5452 15.676L35.0187 15.1496C34.8543 14.9851 34.5866 14.9851 34.4221 15.1496C34.2577 15.314 34.2577 15.5817 34.4221 15.7461L34.9486 16.2726Z" fill="#3B566A"/>
<path fill-rule="evenodd" clip-rule="evenodd" d="M30.1748 17.9006C30.3141 17.9096 30.4551 17.9141 30.5971 17.9141C30.739 17.9141 30.8792 17.9096 31.0193 17.9006V17.1558C31.0193 16.9231 30.8307 16.7335 30.5971 16.7335C30.3644 16.7335 30.1748 16.9222 30.1748 17.1558V17.9006Z" fill="#3B566A"/>
<path fill-rule="evenodd" clip-rule="evenodd" d="M25.6475 15.676C25.7409 15.7821 25.837 15.8845 25.9359 15.9842C26.0356 16.0839 26.138 16.1801 26.244 16.2726L26.7705 15.7461C26.9349 15.5817 26.9349 15.314 26.7705 15.1496C26.6061 14.9851 26.3384 14.9851 26.1739 15.1496L25.6475 15.676Z" fill="#3B566A"/>
<path fill-rule="evenodd" clip-rule="evenodd" d="M24.0193 10.9017C24.0104 11.041 24.0059 11.182 24.0059 11.324C24.0059 11.466 24.0104 11.6061 24.0193 11.7463H24.7641C24.9968 11.7463 25.1864 11.5576 25.1864 11.324C25.1864 11.0913 24.9977 10.9017 24.7641 10.9017H24.0193Z" fill="#3B566A"/>
<path fill-rule="evenodd" clip-rule="evenodd" d="M26.244 6.37451C26.138 6.46795 26.0356 6.56408 25.9359 6.66291C25.8361 6.76264 25.74 6.86506 25.6475 6.97107L26.1739 7.49756C26.3384 7.66197 26.6061 7.66197 26.7705 7.49756C26.9349 7.33314 26.9349 7.06541 26.7705 6.901L26.244 6.37451Z" fill="#3B566A"/>
<path fill-rule="evenodd" clip-rule="evenodd" d="M30.1748 7.91531C30.1748 7.68261 30.3635 7.49304 30.5971 7.49304C30.8298 7.49304 31.0193 7.68171 31.0193 7.91531V11.324C31.0193 11.5567 30.8307 11.7462 30.5971 11.7462C30.3644 11.7462 30.1748 11.5576 30.1748 11.324V7.91531Z" fill="#3B566A"/>
<path fill-rule="evenodd" clip-rule="evenodd" d="M32.2765 12.4075C32.4409 12.5719 32.4409 12.8396 32.2765 13.004C32.1121 13.1684 31.8443 13.1684 31.6799 13.004L30.2981 11.6222C30.1337 11.4578 30.1337 11.1901 30.2981 11.0257C30.4625 10.8612 30.7303 10.8612 30.8947 11.0257L32.2765 12.4075Z" fill="#3B566A"/>
</svg>
