<svg width="46" height="46" viewBox="0 0 46 46" fill="none" xmlns="http://www.w3.org/2000/svg">
<path d="M43.1602 2.91431H11.2207C10.2283 2.91431 9.42383 3.71877 9.42383 4.71118V12.2985H24.2457C24.7418 12.2985 25.1441 12.7008 25.1441 13.1969V29.0387H43.1602C44.1526 29.0387 44.957 28.2343 44.957 27.2418V4.71118C44.957 3.71877 44.1526 2.91431 43.1602 2.91431Z" fill="#58595B"/>
<path d="M43.8989 3.07422C44.0008 3.29973 44.059 3.54913 44.059 3.81273V26.3434C44.059 27.3358 43.2545 28.1403 42.2621 28.1403H25.1445V29.0387H43.1605C44.153 29.0387 44.9574 28.2342 44.9574 27.2418V4.71117C44.9572 3.98218 44.5226 3.35615 43.8989 3.07422Z" fill="#414042"/>
<path d="M32.3171 32.5737L31.5653 29.0387H25.1445V33.5314H31.7788C31.9329 33.1967 32.1125 32.8759 32.3171 32.5737Z" fill="#939598"/>
<path d="M32.3163 32.5737L31.5645 29.0387H30.8571L31.3906 31.5477C31.5093 32.1065 31.0831 32.633 30.5117 32.633H25.1436V33.5314H31.7778C31.9321 33.1967 32.1117 32.8759 32.3163 32.5737Z" fill="#808285"/>
<path d="M31.7788 33.5315H25.1445V35.8982H31.1784C31.2338 35.0578 31.4431 34.2598 31.7788 33.5315Z" fill="#58595B"/>
<path d="M31.297 34.9996H25.1445V35.8981H31.1784C31.1986 35.5928 31.2376 35.2925 31.297 34.9996Z" fill="#414042"/>
<path d="M41.8086 5.16467H12.5732C12.0771 5.16467 11.6748 5.56699 11.6748 6.06311V12.2983H24.2463C24.7424 12.2983 25.1447 12.7006 25.1447 13.1967V25.1806H41.8088C42.3049 25.1806 42.7072 24.7783 42.7072 24.2822V6.06311C42.707 5.56681 42.3047 5.16467 41.8086 5.16467Z" fill="#F1F2F2"/>
<path d="M31.299 11.6152C30.9826 11.3751 30.5319 11.4369 30.292 11.7534L26.542 16.696L25.1445 15.4224V17.3673L26.1551 18.2882C26.2879 18.4093 26.4609 18.4756 26.6392 18.4756C26.6609 18.4756 26.6828 18.4747 26.7048 18.4726C26.9056 18.4541 27.0898 18.352 27.2117 18.1912L31.4372 12.6218C31.6769 12.3059 31.6151 11.8551 31.299 11.6152Z" fill="#648940"/>
<path d="M22.6861 6.60217H22.6357C22.4374 6.60217 22.2764 6.44117 22.2764 6.2428C22.2764 6.04442 22.4374 5.88342 22.6357 5.88342H22.6861C22.8844 5.88342 23.0454 6.04442 23.0454 6.2428C23.0454 6.44117 22.8844 6.60217 22.6861 6.60217ZM21.1982 6.60217H12.7529C12.5546 6.60217 12.3936 6.44117 12.3936 6.2428C12.3936 6.04442 12.5546 5.88342 12.7529 5.88342H21.1982C21.3966 5.88342 21.5576 6.04442 21.5576 6.2428C21.5576 6.44117 21.3966 6.60217 21.1982 6.60217Z" fill="white"/>
<path d="M41.8086 5.16467H40.9101V22.4855C40.9101 22.9816 40.5078 23.3839 40.0117 23.3839H25.1445V25.1808H41.8086C42.3047 25.1808 42.707 24.7785 42.707 24.2823V6.06311C42.707 5.56681 42.3047 5.16467 41.8086 5.16467Z" fill="#E6E7E8"/>
<path d="M41.8086 5.16467V23.3839C41.8086 23.88 41.4063 24.2823 40.9101 24.2823H25.1445V25.1808H41.8086C42.3047 25.1808 42.707 24.7785 42.707 24.2823V6.06311C42.707 5.56681 42.3047 5.16467 41.8086 5.16467Z" fill="#D1D3D4"/>
<path d="M27.19 28.0032C27.7226 28.0032 28.1544 27.5715 28.1544 27.0388C28.1544 26.5062 27.7226 26.0745 27.19 26.0745C26.6574 26.0745 26.2256 26.5062 26.2256 27.0388C26.2256 27.5715 26.6574 28.0032 27.19 28.0032Z" fill="#939598"/>
<path d="M24.2458 12.2983H8.875C8.37888 12.2983 7.97656 12.7007 7.97656 13.1968V21.0453H12.4224C12.9185 21.0453 13.3208 21.4477 13.3208 21.9438V39.4919H24.246C24.7421 39.4919 25.1444 39.0896 25.1444 38.5935V13.1968C25.1443 12.7007 24.7421 12.2983 24.2458 12.2983Z" fill="#58595B"/>
<path d="M24.2463 12.2983V37.695C24.2463 38.1911 23.844 38.5935 23.3479 38.5935H13.3213V39.4919H24.2465C24.7426 39.4919 25.1449 39.0896 25.1449 38.5935V13.1968C25.1447 12.7007 24.7426 12.2983 24.2463 12.2983Z" fill="#414042"/>
<path d="M7.97656 14.8767V21.0454H12.4224C12.9185 21.0454 13.3208 21.4477 13.3208 21.9438V35.8051H25.1444V14.8767H7.97656Z" fill="#F1F2F2"/>
<path d="M19.9602 22.4487C19.6438 22.2088 19.1929 22.2706 18.9532 22.5868L15.9426 26.5549L14.0803 24.8574C13.8675 24.6637 13.5707 24.6234 13.3213 24.7267V26.1107L15.5557 28.1471C15.6885 28.2682 15.8615 28.3345 16.0398 28.3345C16.0615 28.3345 16.0834 28.3336 16.1054 28.3314C16.3063 28.3129 16.4904 28.2109 16.6123 28.0501L20.0982 23.4554C20.3383 23.1394 20.2765 22.6885 19.9602 22.4487Z" fill="#648940"/>
<path d="M24.2463 14.8767V34.0082C24.2463 34.5043 23.844 34.9067 23.3479 34.9067H13.3213V35.8051H25.1449V14.8767H24.2463Z" fill="#E6E7E8"/>
<path d="M18.6445 13.8941H14.4768C14.3224 13.8941 14.1963 13.7678 14.1963 13.6136C14.1963 13.4593 14.3226 13.3331 14.4768 13.3331H18.6445C18.7988 13.3331 18.9249 13.4594 18.9249 13.6136C18.9249 13.768 18.7988 13.8941 18.6445 13.8941Z" fill="#939598"/>
<path d="M20.0471 13.9215C20.2171 13.9215 20.3549 13.7837 20.3549 13.6137C20.3549 13.4437 20.2171 13.3059 20.0471 13.3059C19.8771 13.3059 19.7393 13.4437 19.7393 13.6137C19.7393 13.7837 19.8771 13.9215 20.0471 13.9215Z" fill="#939598"/>
<path d="M18.2448 38.1728H14.876C14.6783 38.1728 14.5166 38.011 14.5166 37.8134V37.1696C14.5166 36.9719 14.6783 36.8102 14.876 36.8102H18.2448C18.4424 36.8102 18.6041 36.9719 18.6041 37.1696V37.8134C18.6041 38.011 18.4424 38.1728 18.2448 38.1728Z" fill="#939598"/>
<path d="M12.422 43.0856H1.94141C1.44529 43.0856 1.04297 42.6833 1.04297 42.1871V21.9437C1.04297 21.4476 1.44529 21.0453 1.94141 21.0453H12.422C12.9182 21.0453 13.3205 21.4476 13.3205 21.9437V42.1871C13.3205 42.6834 12.9182 43.0856 12.422 43.0856Z" fill="#58595B"/>
<path d="M12.422 21.0453V41.2887C12.422 41.7848 12.0197 42.1871 11.5236 42.1871H1.04297C1.04297 42.6833 1.44529 43.0856 1.94141 43.0856H12.422C12.9182 43.0856 13.3205 42.6833 13.3205 42.1871V21.9437C13.3205 21.4474 12.9182 21.0453 12.422 21.0453Z" fill="#414042"/>
<path d="M13.3203 23.1349V40.0974H1.0428V23.1349H13.3203Z" fill="#F1F2F2"/>
<path d="M6.77118 35.1766C6.59293 35.1766 6.42007 35.1103 6.2871 34.9892L4.36157 33.2343C4.06814 32.967 4.04712 32.5124 4.31449 32.2189C4.58187 31.9257 5.03665 31.9045 5.32973 32.1718L6.67379 33.397L8.94486 30.4035C9.18474 30.0871 9.63558 30.0255 9.95183 30.2654C10.2681 30.5052 10.3299 30.9561 10.09 31.2723L7.34366 34.8923C7.22165 35.0531 7.03765 35.1552 6.83676 35.1737C6.81484 35.1757 6.79292 35.1766 6.77118 35.1766Z" fill="#648940"/>
<path d="M12.422 23.1349V38.3005C12.422 38.7966 12.0197 39.1989 11.5236 39.1989H1.04297V40.0974H13.3205V23.1349H12.422Z" fill="#E6E7E8"/>
<path d="M8.87087 22.3386H5.49293C5.36787 22.3386 5.26562 22.2364 5.26562 22.1113C5.26562 21.9863 5.36787 21.884 5.49293 21.884H8.87087C8.99594 21.884 9.09818 21.9863 9.09818 22.1113C9.09818 22.2364 8.99594 22.3386 8.87087 22.3386Z" fill="#939598"/>
<path d="M10.0074 22.361C10.1452 22.361 10.257 22.2492 10.257 22.1114C10.257 21.9736 10.1452 21.8618 10.0074 21.8618C9.86956 21.8618 9.75781 21.9736 9.75781 22.1114C9.75781 22.2492 9.86956 22.361 10.0074 22.361Z" fill="#939598"/>
<path d="M8.47909 42.0166H5.88477C5.68711 42.0166 5.52539 41.8549 5.52539 41.6572V41.2716C5.52539 41.074 5.68711 40.9122 5.88477 40.9122H8.47891C8.67657 40.9122 8.83829 41.074 8.83829 41.2716V41.6572C8.83847 41.8549 8.67675 42.0166 8.47909 42.0166Z" fill="#939598"/>
<path d="M37.8994 43.0856C41.6209 43.0856 44.6377 40.0687 44.6377 36.3473C44.6377 32.6258 41.6209 29.609 37.8994 29.609C34.178 29.609 31.1611 32.6258 31.1611 36.3473C31.1611 40.0687 34.178 43.0856 37.8994 43.0856Z" fill="#648940"/>
<path d="M42.1938 31.1547C43.1591 32.3207 43.7395 33.8169 43.7395 35.4488C43.7395 39.1703 40.7227 42.1871 37.0012 42.1871C35.3693 42.1871 33.873 41.6067 32.707 40.6414C33.9429 42.1343 35.8102 43.0856 37.8996 43.0856C41.6211 43.0856 44.6379 40.0688 44.6379 36.3473C44.6379 34.2579 43.6867 32.3907 42.1938 31.1547Z" fill="#5A7A39"/>
<path d="M37.3199 39.8298C37.1416 39.8298 36.9686 39.7635 36.8358 39.6422L34.0959 37.1449C33.8025 36.8776 33.7815 36.4229 34.0489 36.1297C34.3162 35.8363 34.771 35.8152 35.0641 36.0826L37.2227 38.05L40.6558 33.5251C40.8959 33.2087 41.3465 33.1471 41.6628 33.3869C41.979 33.6268 42.0408 34.0777 41.8009 34.3939L37.8924 39.5456C37.7704 39.7064 37.5864 39.8084 37.3855 39.8269C37.3636 39.8289 37.3416 39.8298 37.3199 39.8298Z" fill="white"/>
</svg>
