<svg width="36" height="40" viewBox="0 0 36 40" fill="none" xmlns="http://www.w3.org/2000/svg">
<path fill-rule="evenodd" clip-rule="evenodd" d="M10.7226 28.4273C10.9553 28.4273 11.1449 28.616 11.1449 28.8496C11.1449 29.0823 10.9562 29.2718 10.7226 29.2718H0.604395C0.371699 29.2718 0.182129 29.0832 0.182129 28.8496V8.32388C0.182129 8.09118 0.370801 7.90161 0.604395 7.90161H3.20986C3.44256 7.90161 3.63213 8.09028 3.63213 8.32388C3.63213 8.55657 3.44346 8.74614 3.20986 8.74614H1.02666V28.4273H10.7226Z" fill="#0085F2"/>
<path fill-rule="evenodd" clip-rule="evenodd" d="M25.324 29.2709C25.0913 29.2709 24.9017 29.0823 24.9017 28.8487C24.9017 28.616 25.0904 28.4264 25.324 28.4264H35.0208V8.74523H32.8376C32.6049 8.74523 32.4154 8.55655 32.4154 8.32296C32.4154 8.09027 32.604 7.9007 32.8376 7.9007H35.4431C35.6758 7.9007 35.8654 8.08937 35.8654 8.32296V28.8478C35.8654 29.0805 35.6767 29.27 35.4431 29.27L25.324 29.2709Z" fill="#0085F2"/>
<path fill-rule="evenodd" clip-rule="evenodd" d="M20.3502 21.4833C20.8875 21.6531 21.4005 21.8804 21.882 22.1589C22.369 22.4401 22.8227 22.7734 23.236 23.1517L25.7768 21.8328C25.9771 21.7295 26.2224 21.8031 26.3338 21.9963L28.1118 25.0761C28.2286 25.2774 28.1594 25.5343 27.9582 25.6511L27.9528 25.6538L25.5629 27.1803C25.6115 27.4004 25.6501 27.6259 25.6797 27.8559C25.7229 28.1883 25.7444 28.5198 25.7444 28.8478C25.7444 29.1757 25.722 29.5072 25.6797 29.8397C25.6501 30.0697 25.6106 30.2952 25.5629 30.5144L27.9726 32.0534C28.163 32.1747 28.2223 32.4245 28.11 32.6185H28.1109L26.3329 35.6984C26.2188 35.8942 25.9717 35.9643 25.7723 35.8601L23.2342 34.543C22.8209 34.9212 22.3672 35.2545 21.8802 35.5357C21.3987 35.8143 20.8857 36.0416 20.3493 36.2114L20.2208 39.0666C20.211 39.293 20.025 39.4691 19.8004 39.4691V39.47H16.2435C16.0108 39.47 15.8212 39.2813 15.8212 39.0477C15.8212 39.0432 15.8212 39.0388 15.8212 39.0343L15.6945 36.2114C15.1572 36.0416 14.6442 35.8143 14.1627 35.5357C13.6757 35.2545 13.222 34.9212 12.8087 34.543L10.2679 35.8619C10.0676 35.9652 9.82232 35.8915 9.71091 35.6984L7.93291 32.6185C7.81611 32.4173 7.88529 32.1603 8.08654 32.0435L8.09193 32.0408L10.4818 30.5144C10.4333 30.2943 10.3946 30.0688 10.365 29.8388C10.3219 29.5063 10.3003 29.1748 10.3003 28.8469C10.3003 28.519 10.3228 28.1874 10.365 27.855C10.3946 27.625 10.4342 27.3995 10.4818 27.1794L8.07216 25.6404C7.8817 25.5191 7.8224 25.2693 7.9347 25.0752H7.93381L9.71181 21.9954C9.82591 21.7995 10.073 21.7295 10.2724 21.8337L12.8105 23.1508C13.2238 22.7725 13.6775 22.4392 14.1645 22.158C14.646 21.8795 15.159 21.6522 15.6963 21.4824L15.8248 18.6272C15.8347 18.4007 16.0206 18.2247 16.2452 18.2247V18.2238H19.8022C20.0349 18.2238 20.2244 18.4124 20.2244 18.646V18.6595L20.3502 21.4833Z" fill="#112049"/>
<path fill-rule="evenodd" clip-rule="evenodd" d="M3.20986 0.661133H14.2373C14.47 0.661133 14.6596 0.849805 14.6596 1.0834V15.5644C14.6596 15.7971 14.4709 15.9867 14.2373 15.9867H3.20986C2.97717 15.9867 2.7876 15.798 2.7876 15.5644V1.0834C2.7876 0.850703 2.97627 0.661133 3.20986 0.661133Z" fill="#F6FAFD"/>
<path fill-rule="evenodd" clip-rule="evenodd" d="M5.42178 4.61064C5.18908 4.61064 4.99951 4.42197 4.99951 4.18838C4.99951 3.95568 5.18818 3.76611 5.42178 3.76611H12.0235C12.2562 3.76611 12.4458 3.95479 12.4458 4.18838C12.4458 4.42107 12.2571 4.61064 12.0235 4.61064H5.42178Z" fill="#3B566A"/>
<path fill-rule="evenodd" clip-rule="evenodd" d="M5.42178 7.36705C5.18908 7.36705 4.99951 7.17838 4.99951 6.94479C4.99951 6.71209 5.18818 6.52252 5.42178 6.52252H12.0235C12.2562 6.52252 12.4458 6.71119 12.4458 6.94479C12.4458 7.17748 12.2571 7.36705 12.0235 7.36705H5.42178Z" fill="#3B566A"/>
<path fill-rule="evenodd" clip-rule="evenodd" d="M5.42178 10.1235C5.18908 10.1235 4.99951 9.93479 4.99951 9.7012C4.99951 9.4676 5.18818 9.27893 5.42178 9.27893H12.0235C12.2562 9.27893 12.4458 9.4676 12.4458 9.7012C12.4458 9.93479 12.2571 10.1235 12.0235 10.1235H5.42178Z" fill="#3B566A"/>
<path fill-rule="evenodd" clip-rule="evenodd" d="M5.42178 12.8808C5.18908 12.8808 4.99951 12.6921 4.99951 12.4585C4.99951 12.2258 5.18818 12.0363 5.42178 12.0363H12.0235C12.2562 12.0363 12.4458 12.2249 12.4458 12.4585C12.4458 12.6912 12.2571 12.8808 12.0235 12.8808H5.42178Z" fill="#3B566A"/>
<path fill-rule="evenodd" clip-rule="evenodd" d="M25.5954 0.660217C27.7112 0.660217 29.6276 1.51823 31.0139 2.90451C32.4011 4.2917 33.2582 6.20717 33.2582 8.32299C33.2582 10.4388 32.4002 12.3552 31.0139 13.7415C29.6267 15.1287 27.7112 15.9858 25.5954 15.9858C23.4796 15.9858 21.5632 15.1278 20.1769 13.7415C18.7897 12.3543 17.9326 10.4388 17.9326 8.32299C17.9326 6.20717 18.7906 4.2908 20.1769 2.90451C21.5641 1.51823 23.4796 0.660217 25.5954 0.660217Z" fill="#EF5350"/>
<path fill-rule="evenodd" clip-rule="evenodd" d="M18.0232 23.3547C19.5407 23.3547 20.9144 23.9702 21.9081 24.9638C22.9027 25.9584 23.5172 27.3321 23.5172 28.8487C23.5172 30.3661 22.9018 31.7399 21.9081 32.7335C20.9135 33.7281 19.5398 34.3426 18.0232 34.3426C16.5067 34.3426 15.1321 33.7272 14.1384 32.7335C13.1438 31.739 12.5293 30.3652 12.5293 28.8487C12.5293 27.3312 13.1447 25.9575 14.1384 24.9638C15.1321 23.9693 16.5058 23.3547 18.0232 23.3547Z" fill="#0085F2"/>
<path d="M21.0062 25.8668C20.2434 25.1031 19.1886 24.6314 18.0233 24.6314C16.859 24.6314 15.8042 25.1031 15.0405 25.8668C14.2769 26.6304 13.8052 27.6843 13.8052 28.8496C13.8052 30.0139 14.2769 31.0687 15.0405 31.8324C15.8033 32.5961 16.8581 33.0677 18.0233 33.0677C19.1877 33.0677 20.2425 32.5961 21.0062 31.8324C21.7698 31.0696 22.2415 30.0148 22.2415 28.8496C22.2415 27.6843 21.7689 26.6295 21.0062 25.8668Z" fill="#FEFEFE"/>
<path d="M30.2555 3.66367C29.0633 2.47144 27.4155 1.73383 25.5953 1.73383C23.7751 1.73383 22.1282 2.47144 20.9351 3.66367C19.7429 4.8559 19.0052 6.50363 19.0052 8.32387C19.0052 10.1441 19.7429 11.7909 20.9351 12.9841C22.1273 14.1763 23.7751 14.9139 25.5953 14.9139C27.4155 14.9139 29.0633 14.1763 30.2555 12.9841C31.4477 11.7918 32.1853 10.1441 32.1853 8.32387C32.1853 6.50363 31.4486 4.8559 30.2555 3.66367Z" fill="#FEFEFE"/>
<path fill-rule="evenodd" clip-rule="evenodd" d="M26.0175 1.74645C25.8782 1.73746 25.7372 1.73297 25.5952 1.73297C25.4533 1.73297 25.3131 1.73746 25.173 1.74645V2.49125C25.173 2.72395 25.3616 2.91352 25.5952 2.91352C25.8279 2.91352 26.0175 2.72485 26.0175 2.49125V1.74645Z" fill="#3B566A"/>
<path fill-rule="evenodd" clip-rule="evenodd" d="M30.2554 3.6637C30.1557 3.56398 30.0533 3.46784 29.9473 3.37531L29.4208 3.90179C29.2564 4.0662 29.2564 4.33394 29.4208 4.49835C29.5852 4.66277 29.8529 4.66277 30.0174 4.49835L30.5438 3.97187C30.4513 3.86585 30.3552 3.76343 30.2554 3.6637Z" fill="#3B566A"/>
<path fill-rule="evenodd" clip-rule="evenodd" d="M32.1728 8.74529C32.1818 8.60603 32.1863 8.46498 32.1863 8.32302C32.1863 8.18107 32.1818 8.04091 32.1728 7.90076H31.428C31.1953 7.90076 31.0057 8.08943 31.0057 8.32302C31.0057 8.55572 31.1944 8.74529 31.428 8.74529H32.1728Z" fill="#3B566A"/>
<path fill-rule="evenodd" clip-rule="evenodd" d="M29.9483 13.2725C30.0543 13.179 30.1567 13.0829 30.2564 12.9841C30.3561 12.8844 30.4523 12.7819 30.5448 12.6759L30.0183 12.1494C29.8539 11.985 29.5862 11.985 29.4218 12.1494C29.2574 12.3138 29.2574 12.5816 29.4218 12.746L29.9483 13.2725Z" fill="#3B566A"/>
<path fill-rule="evenodd" clip-rule="evenodd" d="M25.174 14.9005C25.3132 14.9095 25.4543 14.9139 25.5962 14.9139C25.7382 14.9139 25.8783 14.9095 26.0185 14.9005V14.1557C26.0185 13.923 25.8298 13.7334 25.5962 13.7334C25.3635 13.7334 25.174 13.9221 25.174 14.1557V14.9005Z" fill="#3B566A"/>
<path fill-rule="evenodd" clip-rule="evenodd" d="M20.6467 12.6759C20.7402 12.7819 20.8363 12.8844 20.9351 12.9841C21.0349 13.0838 21.1373 13.1799 21.2433 13.2725L21.7698 12.746C21.9342 12.5816 21.9342 12.3138 21.7698 12.1494C21.6054 11.985 21.3376 11.985 21.1732 12.1494L20.6467 12.6759Z" fill="#3B566A"/>
<path fill-rule="evenodd" clip-rule="evenodd" d="M19.0187 7.90167C19.0097 8.04093 19.0052 8.18199 19.0052 8.32394C19.0052 8.46589 19.0097 8.60605 19.0187 8.7462H19.7635C19.9962 8.7462 20.1858 8.55753 20.1858 8.32394C20.1858 8.09124 19.9971 7.90167 19.7635 7.90167H19.0187Z" fill="#3B566A"/>
<path fill-rule="evenodd" clip-rule="evenodd" d="M21.2433 3.37439C21.1373 3.46783 21.0349 3.56396 20.9351 3.66279C20.8354 3.76252 20.7393 3.86494 20.6467 3.97095L21.1732 4.49744C21.3376 4.66185 21.6054 4.66185 21.7698 4.49744C21.9342 4.33302 21.9342 4.06529 21.7698 3.90087L21.2433 3.37439Z" fill="#3B566A"/>
<path fill-rule="evenodd" clip-rule="evenodd" d="M25.174 4.91525C25.174 4.68255 25.3626 4.49298 25.5962 4.49298C25.8289 4.49298 26.0185 4.68165 26.0185 4.91525V8.32392C26.0185 8.55661 25.8298 8.74618 25.5962 8.74618C25.3635 8.74618 25.174 8.55751 25.174 8.32392V4.91525Z" fill="#3B566A"/>
<path fill-rule="evenodd" clip-rule="evenodd" d="M27.2762 9.40745C27.4406 9.57187 27.4406 9.8396 27.2762 10.004C27.1118 10.1684 26.8441 10.1684 26.6797 10.004L25.2979 8.62222C25.1335 8.4578 25.1335 8.19007 25.2979 8.02565C25.4623 7.86124 25.73 7.86124 25.8944 8.02565L27.2762 9.40745Z" fill="#3B566A"/>
</svg>
