<svg width="396" height="396" viewBox="0 0 396 396" fill="none" xmlns="http://www.w3.org/2000/svg">
<path d="M290.937 320.596C290.256 320.596 289.243 320.48 288.287 319.928L256.942 301.83C255.819 301.183 255.148 300.097 255.148 298.929C255.148 297.76 255.819 296.675 256.942 296.027L308.848 266.06C309.804 265.508 310.816 265.391 311.498 265.391C312.178 265.391 313.191 265.508 314.147 266.06L345.492 284.158C346.615 284.805 347.286 285.889 347.286 287.059C347.286 288.228 346.615 289.312 345.491 289.96L293.586 319.928C292.63 320.48 291.618 320.596 290.937 320.596Z" fill="#E0E0E0"/>
<path d="M225.055 360.272C220.976 360.272 217.025 359.824 213.314 358.938C209.495 358.031 206.006 356.743 202.946 355.11L202.869 355.067C202.241 354.715 201.43 354.227 200.387 353.578C199.408 352.967 198.404 352.323 197.371 351.646C196.335 350.968 195.364 350.317 194.457 349.692C193.512 349.047 192.785 348.525 192.246 348.107C189.565 346.01 187.541 343.608 186.218 340.958C184.763 338.038 184.335 334.958 184.945 331.8C185.523 328.805 187.125 325.82 189.708 322.932C192.15 320.2 195.568 317.689 200.158 315.256C205.244 312.56 210.171 310.58 214.802 309.369C219.454 308.154 223.925 307.519 228.091 307.485L228.485 307.484C232.551 307.484 236.43 307.99 240.013 308.985C243.643 309.996 247.072 311.364 250.206 313.054C251.452 313.744 252.791 314.559 254.226 315.5C255.68 316.453 256.896 317.308 257.943 318.111C259.89 319.551 261.262 321.159 262.022 322.889C262.754 324.576 262.99 326.268 262.729 327.935C262.845 327.928 262.961 327.922 263.078 327.92L263.296 327.916C264.775 327.916 266.14 328.354 267.253 329.181C268.761 330.248 269.52 332.016 269.24 333.839C269.045 335.099 268.719 336.458 268.273 337.883C267.737 339.581 266.77 341.322 265.392 343.062C264.105 344.691 262.387 346.345 260.14 348.12C257.97 349.832 255.09 351.642 251.58 353.503C247.186 355.832 242.704 357.559 238.258 358.634C233.835 359.702 229.484 360.252 225.323 360.271L225.055 360.272ZM222.277 333.43C222.418 333.533 222.578 333.643 222.757 333.761C224.161 334.68 225.548 335.222 226.886 335.372C227.136 335.399 227.38 335.414 227.614 335.414C228.213 335.414 228.773 335.322 229.311 335.135C229.181 335.043 229.038 334.945 228.88 334.841C227.464 333.913 226.058 333.357 224.704 333.186C224.459 333.156 224.216 333.14 223.981 333.14C223.394 333.14 222.831 333.236 222.277 333.43Z" fill="#E0E0E0"/>
<path d="M132.131 345.831L30.1791 287.103C28.0288 285.861 28.0288 283.849 30.1791 282.607L237.087 163.196C239.237 161.954 242.724 161.954 244.874 163.196L346.827 221.923C348.977 223.165 348.977 225.177 346.827 226.419L139.919 345.831C137.768 347.073 134.281 347.073 132.131 345.831Z" fill="#E0E0E0"/>
<path d="M125.298 47.0131L120.109 50.0093C120.135 49.7772 120.153 49.5475 120.153 49.3226V47.8194C120.153 45.144 118.275 44.0597 115.958 45.3974C115.019 45.9392 114.156 46.7977 113.457 47.8019C113.078 44.4383 110.439 43.1854 107.233 45.0355C103.767 47.0369 100.957 51.9037 100.957 55.9057V58.155C100.957 59.1917 101.149 60.0645 101.489 60.7607L97.1785 63.2491C95.893 63.9912 94.8516 65.7954 94.8516 67.2796C94.8516 68.7638 95.893 69.3649 97.1785 68.6228L125.298 52.3884C126.584 51.6463 127.625 49.8421 127.625 48.3579C127.625 46.8729 126.584 46.271 125.298 47.0131Z" fill="#EBEBEB"/>
<path d="M90.9964 33.2299L88.1342 34.3308V28.0249C88.1342 23.0258 84.1472 21.8275 79.8182 24.3271C75.4891 26.8266 71.9797 32.9052 71.9797 37.9035V38.8191C70.9977 38.427 69.7289 38.5791 68.3421 39.3798C65.2264 41.1785 62.7015 45.5527 62.7015 49.1499V49.5657L58.7106 51.8705C56.6593 53.0545 54.9961 55.935 54.9961 58.3039C54.9961 60.6727 56.6593 61.6326 58.7106 60.4486L90.9972 41.8081C93.0485 40.6233 94.7117 37.7428 94.7117 35.3739C94.7109 33.0058 93.0477 32.0451 90.9964 33.2299Z" fill="#EBEBEB"/>
<path d="M48.2603 264.175L53.6507 261.06C53.6507 261.06 56.8591 247.729 55.5808 235.733C53.783 218.868 42.6815 212.522 38.4601 213.976C34.2388 215.43 33.0159 220.338 40.0014 230.383C44.1221 236.31 49.1846 248.654 48.2603 264.175Z" fill="#27DEBF"/>
<g opacity="0.15">
<path d="M48.2603 264.175L53.6507 261.06C53.6507 261.06 56.8591 247.729 55.5808 235.733C53.783 218.868 42.6815 212.522 38.4601 213.976C34.2388 215.43 33.0159 220.338 40.0014 230.383C44.1221 236.31 49.1846 248.654 48.2603 264.175Z" fill="black"/>
</g>
<path d="M50.4934 257.626C50.4759 257.625 50.4593 257.623 50.4419 257.619C50.2391 257.581 50.1053 257.385 50.1441 257.182C53.099 241.627 47.6651 224.146 40.9355 216.873C40.7953 216.721 40.804 216.484 40.9561 216.344C41.1082 216.206 41.3442 216.214 41.4844 216.365C48.336 223.771 53.8768 241.537 50.8783 257.322C50.8442 257.507 50.6763 257.634 50.4934 257.626Z" fill="white"/>
<path d="M33.3661 274.692C32.5147 275.125 30.2496 273.187 29.6184 272.716C28.5381 271.909 27.6851 270.801 27.1434 269.568C26.5129 268.134 26.4123 266.626 26.7101 265.09C26.8646 264.293 27.1283 263.522 27.3921 262.754C27.6502 262 27.9092 261.247 28.1674 260.493C28.4224 259.749 28.6806 258.979 28.6204 258.195C28.4985 256.616 27.1616 255.446 25.9427 254.434C24.5955 253.315 23.2071 251.858 23.3101 249.969C23.3901 248.511 24.213 247.196 25.1737 246.097C26.1344 244.999 27.2574 244.042 28.1349 242.876C28.7662 242.036 29.2762 241.038 29.2335 239.988C29.2065 239.335 28.9681 238.71 28.687 238.122C28.0819 236.858 27.2582 235.687 26.8654 234.342C26.4717 232.998 26.6199 231.357 27.6993 230.464C28.5848 229.731 29.8488 229.686 30.9909 229.819C32.0474 229.943 33.0588 230.474 33.9609 231.036C36.8763 232.855 38.4088 236.494 41.5261 237.937C42.7283 238.494 44.0684 238.671 45.3309 239.073C46.5933 239.476 47.8653 240.195 48.3983 241.409C49.4493 243.801 47.1358 246.568 47.832 249.086C48.4482 251.314 50.5359 252.261 51.6328 254.296C52.112 255.186 52.1824 256.191 52.0478 257.194C51.8189 258.891 51.5069 260.128 50.5937 261.983C49.8389 263.514 47.714 266.41 47.714 266.41C47.714 266.41 33.4968 274.625 33.3661 274.692Z" fill="#27DEBF"/>
<path d="M41.6167 270.391C41.6119 270.391 41.6064 270.39 41.6064 270.39C41.3949 270.371 41.2444 270.188 41.2626 269.983C42.6273 255.187 36.4671 238.466 31.6264 233.455C31.483 233.307 31.487 233.07 31.6359 232.926C31.7848 232.782 32.0208 232.787 32.1649 232.935C37.1023 238.048 43.3915 255.048 42.0079 270.052C41.9897 270.253 41.8163 270.401 41.6167 270.391Z" fill="white"/>
<path d="M40.1486 252.147C40.1122 252.146 40.075 252.139 40.0393 252.125C35.3499 250.412 29.4257 249.853 29.3671 249.848C29.1612 249.829 29.0099 249.647 29.029 249.441C29.048 249.236 29.2127 249.081 29.436 249.103C29.4962 249.109 35.5146 249.676 40.2967 251.424C40.4908 251.494 40.5906 251.709 40.5193 251.903C40.4607 252.06 40.3078 252.156 40.1486 252.147Z" fill="white"/>
<path d="M36.92 283.354L131.71 338.071C134.786 339.847 138.411 339.884 141.599 338.256L332.436 228.07C335.442 226.334 337.88 222.451 337.881 219.398C337.882 216.345 335.445 212.463 332.438 210.727L237.999 156.203C235.006 154.474 230.106 154.474 227.112 156.203L36.92 266.012C33.9135 267.748 31.4766 271.63 31.4766 274.683C31.4766 277.736 33.9135 281.619 36.92 283.354Z" fill="#37474F"/>
<path d="M131.71 338.071L36.92 283.354C33.9135 281.618 31.4766 277.736 31.4766 274.683C31.4766 271.63 33.9135 267.747 36.92 266.012L136.868 208.306V339.429C135.093 339.445 133.325 339.004 131.71 338.071Z" fill="#263238"/>
<path d="M133.965 328.321C136.604 329.845 140.925 329.845 143.565 328.321L332.461 219.263C336.523 216.918 336.523 213.081 332.461 210.736L238.007 156.203C235.014 154.474 230.114 154.474 227.12 156.203L36.9289 266.012C33.9352 267.741 33.9352 270.569 36.9289 272.298L133.965 328.321Z" fill="#455A64"/>
<path d="M143.137 317.34C145.994 318.99 150.627 318.99 153.483 317.34L316.023 223.497C318.88 221.847 318.88 219.173 316.023 217.524L227.169 166.229C224.324 164.586 219.668 164.586 216.823 166.229L54.2821 260.073C51.4372 261.716 51.4372 264.404 54.2821 266.046L143.137 317.34Z" fill="#37474F"/>
<path d="M222.311 165.015C224.079 165.058 225.826 165.454 227.169 166.23L316.023 217.524C318.88 219.174 318.88 221.849 316.023 223.498L298.411 233.667L222.311 185.071V165.015Z" fill="#263238"/>
<path d="M216.762 170.113C219.607 168.47 224.263 168.47 227.108 170.113L315.963 221.407C316.528 221.733 316.973 222.101 317.313 222.491C316.981 222.853 316.552 223.193 316.024 223.497L153.484 317.34C150.627 318.99 145.995 318.99 143.138 317.34L54.2831 266.046C53.7255 265.724 53.2804 265.361 52.9414 264.975C53.2725 264.609 53.6906 264.263 54.2221 263.957L216.762 170.113Z" fill="#FAFAFA"/>
<path d="M283.545 193.532L267.797 184.44C266.858 183.898 266.81 183.045 267.692 182.537C268.573 182.028 270.05 182.055 270.989 182.598L286.736 191.69C287.676 192.233 287.723 193.085 286.842 193.593C285.96 194.102 284.485 194.075 283.545 193.532Z" fill="#263238"/>
<path d="M256.503 177.943C255.621 177.434 255.621 176.61 256.503 176.1C257.384 175.592 258.813 175.592 259.695 176.1C260.576 176.61 260.576 177.434 259.695 177.943C258.813 178.452 257.384 178.452 256.503 177.943Z" fill="#263238"/>
<path d="M250.12 174.253C249.239 173.744 249.239 172.919 250.12 172.41C251.002 171.901 252.43 171.901 253.312 172.41C254.193 172.919 254.193 173.743 253.312 174.253C252.43 174.761 251.002 174.761 250.12 174.253Z" fill="#263238"/>
<path d="M301.19 203.739C300.309 203.23 300.309 202.405 301.19 201.896C302.072 201.387 303.501 201.387 304.382 201.896C305.264 202.405 305.264 203.23 304.382 203.739C303.501 204.247 302.072 204.247 301.19 203.739Z" fill="#263238"/>
<path d="M294.806 200.048C293.924 199.539 293.924 198.714 294.806 198.205C295.687 197.696 297.116 197.696 297.997 198.205C298.879 198.714 298.879 199.539 297.997 200.048C297.116 200.557 295.687 200.557 294.806 200.048Z" fill="#263238"/>
<path d="M139.168 291.13V291.473C139.168 292.023 139.554 292.691 140.03 292.966L158.52 303.642C158.996 303.916 159.768 303.916 160.243 303.642L190.861 285.964C191.337 285.689 191.723 285.021 191.723 284.471V284.128C191.723 283.578 191.337 282.909 190.861 282.635L172.371 271.959C171.895 271.684 171.123 271.684 170.648 271.959L140.03 289.637C139.554 289.912 139.168 290.58 139.168 291.13Z" fill="#0085F2"/>
<path d="M139.168 291.13V291.473C139.168 292.023 139.554 292.691 140.03 292.966L158.52 303.642C158.996 303.916 159.768 303.916 160.243 303.642L190.861 285.964C191.337 285.689 191.723 285.021 191.723 284.471V284.128C191.723 283.578 191.337 282.909 190.861 282.635L172.371 271.959C171.895 271.684 171.123 271.684 170.648 271.959L140.03 289.637C139.554 289.912 139.168 290.58 139.168 291.13Z" fill="#0085F2"/>
<path opacity="0.3" d="M190.862 282.635L172.372 271.959C171.896 271.684 171.124 271.684 170.648 271.959L159.382 278.464V303.848H159.381C159.693 303.848 160.005 303.779 160.243 303.642L190.861 285.964C191.337 285.689 191.723 285.021 191.723 284.471V284.128C191.724 283.578 191.338 282.909 190.862 282.635Z" fill="white"/>
<path opacity="0.15" d="M190.862 282.635L172.372 271.959C171.896 271.684 171.124 271.684 170.648 271.959L159.382 278.464V303.848H159.381C159.693 303.848 160.005 303.779 160.243 303.642L190.861 285.964C191.337 285.689 191.723 285.021 191.723 284.471V284.128C191.724 283.578 191.338 282.909 190.862 282.635Z" fill="black"/>
<path opacity="0.3" d="M159.381 278.464L140.03 289.637C139.554 289.912 139.168 290.58 139.168 291.13V291.473C139.168 292.023 139.554 292.691 140.03 292.966L158.52 303.642C158.757 303.779 159.069 303.848 159.381 303.848H159.382V278.464H159.381Z" fill="white"/>
<path opacity="0.2" d="M159.381 278.464L140.03 289.637C139.554 289.912 139.168 290.58 139.168 291.13V291.473C139.168 292.023 139.554 292.691 140.03 292.966L158.52 303.642C158.757 303.779 159.069 303.848 159.381 303.848H159.382V278.464H159.381Z" fill="black"/>
<path d="M155.558 299.598L140.029 290.631C139.553 290.357 139.553 289.911 140.029 289.636L170.647 271.958C171.123 271.684 171.895 271.684 172.37 271.958L190.86 282.634C191.336 282.909 191.336 283.355 190.86 283.629L185.781 286.562L184.003 287.589L160.242 301.307C159.766 301.582 158.994 301.582 158.518 301.307L157.012 300.437L155.558 299.598Z" fill="#0085F2"/>
<path opacity="0.3" d="M155.558 299.598L140.029 290.631C139.553 290.357 139.553 289.911 140.029 289.636L170.647 271.958C171.123 271.684 171.895 271.684 172.37 271.958L190.86 282.634C191.336 282.909 191.336 283.355 190.86 283.629L185.781 286.562L184.003 287.589L160.242 301.307C159.766 301.582 158.994 301.582 158.518 301.307L157.012 300.437L155.558 299.598Z" fill="white"/>
<path opacity="0.15" d="M169.657 284.703L190.862 282.635L169.844 283.825L172.372 271.96C172.114 271.811 171.771 271.75 171.433 271.763L167.467 287.801L139.68 290.093C139.66 290.287 139.773 290.485 140.03 290.633L162.471 289.33L159.382 301.514L163.331 289.28L167.164 289.058C167.646 289.03 168.087 288.835 168.429 288.529H168.431L168.432 288.526C168.751 288.24 168.985 287.856 169.079 287.414L169.657 284.703Z" fill="black"/>
<path opacity="0.3" d="M146.31 289.546L167.468 287.801L168.225 284.769L168.643 283.081L171.437 271.762C171.151 271.772 170.868 271.833 170.648 271.96L155.339 280.799L140.03 289.638C139.81 289.764 139.697 289.927 139.68 290.093L143.923 289.743L146.31 289.546Z" fill="white"/>
<path d="M168.009 269.428C169.943 268.312 173.077 268.312 175.011 269.428C176.945 270.545 176.945 272.354 175.011 273.471C173.078 274.588 169.943 274.588 168.009 273.471C166.075 272.354 166.075 270.544 168.009 269.428Z" fill="#F28F8F"/>
<path d="M169.064 272.114C169.003 272.11 168.954 272.093 168.919 272.065C168.885 272.036 168.871 272.003 168.879 271.967L169.169 270.694C169.177 270.664 169.187 270.625 169.202 270.582C169.215 270.538 169.25 270.5 169.308 270.466L170.016 270.057C170.059 270.033 170.112 270.02 170.173 270.02C170.236 270.02 170.287 270.033 170.33 270.057L174.079 272.222C174.121 272.246 174.143 272.277 174.144 272.312C174.143 272.348 174.122 272.378 174.079 272.403L173.319 272.841C173.276 272.867 173.224 272.879 173.162 272.879C173.1 272.879 173.047 272.866 173.005 272.841L170.469 271.377L170.301 272.077C170.293 272.114 170.264 272.141 170.217 272.163C170.169 272.184 170.113 272.193 170.051 272.188L169.064 272.114Z" fill="#FAFAFA"/>
<path d="M203.571 277.639L182.767 265.626C182.294 265.353 182.294 264.91 182.767 264.636L258.261 221.049C258.734 220.775 259.502 220.775 259.975 221.049L280.782 233.061C281.256 233.334 281.256 233.778 280.782 234.051L205.285 277.639C204.812 277.912 204.044 277.912 203.571 277.639Z" fill="#27DEBF"/>
<path d="M199.571 264.066C199.501 264.107 199.428 264.127 199.354 264.127C199.28 264.127 199.224 264.126 199.186 264.124L194.861 263.636L197.421 265.114C197.466 265.14 197.489 265.173 197.489 265.211C197.488 265.249 197.466 265.282 197.421 265.307L196.917 265.598C196.871 265.624 196.815 265.637 196.75 265.638C196.683 265.637 196.628 265.625 196.582 265.598L192.567 263.28C192.521 263.254 192.499 263.222 192.498 263.183C192.499 263.145 192.521 263.113 192.567 263.086L193.002 262.835C193.072 262.795 193.145 262.774 193.219 262.774C193.294 262.774 193.349 262.775 193.387 262.778L197.713 263.266L195.152 261.788C195.107 261.761 195.085 261.73 195.084 261.691C195.085 261.653 195.107 261.62 195.152 261.594L195.657 261.304C195.702 261.277 195.758 261.264 195.824 261.264C195.891 261.264 195.946 261.277 195.992 261.304L200.006 263.622C200.053 263.648 200.075 263.68 200.075 263.718C200.074 263.757 200.053 263.789 200.006 263.815L199.571 264.066Z" fill="#FAFAFA"/>
<path d="M199.311 262.352C199.079 262.217 198.896 262.071 198.761 261.912C198.627 261.753 198.549 261.591 198.532 261.427C198.513 261.263 198.554 261.102 198.656 260.943C198.757 260.784 198.924 260.638 199.156 260.503C199.388 260.369 199.64 260.273 199.914 260.212C200.188 260.153 200.462 260.126 200.738 260.132C201.013 260.138 201.284 260.176 201.548 260.245C201.814 260.315 202.052 260.41 202.263 260.532L202.543 260.693C202.589 260.719 202.611 260.752 202.612 260.791C202.611 260.829 202.589 260.861 202.543 260.887L200.467 262.085C200.562 262.14 200.666 262.178 200.778 262.197C200.89 262.217 201.004 262.221 201.121 262.212C201.236 262.202 201.35 262.18 201.463 262.144C201.574 262.108 201.676 262.063 201.767 262.011C201.9 261.934 201.994 261.864 202.05 261.801C202.105 261.738 202.14 261.678 202.152 261.623C202.164 261.577 202.18 261.542 202.196 261.519C202.213 261.495 202.246 261.468 202.296 261.439L202.793 261.152C202.839 261.126 202.895 261.112 202.964 261.111C203.033 261.11 203.087 261.124 203.128 261.152C203.182 261.188 203.226 261.25 203.256 261.337C203.287 261.424 203.286 261.528 203.253 261.648C203.219 261.767 203.147 261.896 203.033 262.033C202.918 262.17 202.746 262.307 202.514 262.441C202.282 262.575 202.031 262.673 201.762 262.735C201.492 262.797 201.216 262.824 200.935 262.814C200.653 262.805 200.375 262.762 200.099 262.683C199.821 262.606 199.56 262.496 199.311 262.352ZM199.902 260.934C199.782 261.004 199.696 261.073 199.647 261.142C199.597 261.212 199.571 261.279 199.569 261.345C199.567 261.411 199.585 261.472 199.622 261.529C199.659 261.587 199.705 261.636 199.758 261.676L201.162 260.866C201.092 260.835 201.011 260.806 200.92 260.78C200.829 260.754 200.729 260.739 200.622 260.737C200.513 260.734 200.4 260.748 200.28 260.776C200.16 260.805 200.035 260.857 199.902 260.934Z" fill="#FAFAFA"/>
<path d="M206.413 258.609L205.197 257.261C205.175 257.234 205.16 257.205 205.149 257.173C205.138 257.14 205.163 257.107 205.221 257.074L205.693 256.801C205.739 256.775 205.795 256.762 205.861 256.762C205.928 256.762 205.983 256.775 206.029 256.801C206.046 256.811 206.059 256.819 206.066 256.83L207.993 259.025C208.019 259.054 208.035 259.085 208.044 259.119C208.051 259.152 208.027 259.185 207.969 259.219L207.496 259.492C207.438 259.526 207.38 259.539 207.325 259.534C207.27 259.527 207.215 259.518 207.16 259.507L204.899 258.896L205.955 260.202C205.976 260.233 205.991 260.265 206.002 260.297C206.013 260.329 205.988 260.362 205.93 260.395L205.458 260.669C205.4 260.702 205.342 260.717 205.284 260.712C205.226 260.707 205.172 260.698 205.122 260.683L201.318 259.571C201.302 259.566 201.285 259.559 201.269 259.55C201.223 259.524 201.2 259.492 201.201 259.453C201.2 259.415 201.223 259.382 201.269 259.356L201.741 259.083C201.799 259.05 201.856 259.035 201.912 259.042C201.969 259.048 202.019 259.056 202.065 259.069L204.401 259.772L203.221 258.402C203.195 258.378 203.183 258.348 203.18 258.31C203.178 258.274 203.199 258.242 203.245 258.215L203.717 257.942C203.763 257.916 203.819 257.904 203.883 257.904C203.947 257.906 203.999 257.914 204.041 257.928L206.413 258.609Z" fill="#FAFAFA"/>
<path d="M209.222 256.629C208.992 256.495 208.808 256.348 208.673 256.189C208.539 256.03 208.461 255.868 208.444 255.704C208.425 255.541 208.466 255.38 208.568 255.22C208.669 255.061 208.836 254.915 209.068 254.78C209.3 254.646 209.552 254.55 209.826 254.489C210.1 254.43 210.374 254.403 210.65 254.409C210.925 254.415 211.196 254.453 211.46 254.521C211.726 254.591 211.964 254.687 212.175 254.809L212.455 254.97C212.501 254.996 212.523 255.028 212.524 255.067C212.523 255.105 212.501 255.137 212.455 255.163L210.379 256.362C210.474 256.417 210.579 256.454 210.691 256.473C210.802 256.492 210.916 256.497 211.033 256.488C211.149 256.478 211.262 256.455 211.375 256.419C211.487 256.383 211.589 256.339 211.679 256.286C211.812 256.21 211.906 256.14 211.962 256.077C212.017 256.013 212.052 255.954 212.064 255.898C212.077 255.852 212.091 255.818 212.108 255.795C212.126 255.77 212.158 255.744 212.207 255.715L212.705 255.428C212.751 255.402 212.808 255.388 212.876 255.387C212.944 255.386 212.999 255.4 213.041 255.428C213.094 255.464 213.137 255.526 213.168 255.613C213.199 255.7 213.197 255.803 213.165 255.924C213.132 256.042 213.058 256.172 212.945 256.309C212.83 256.446 212.658 256.583 212.426 256.716C212.194 256.85 211.944 256.948 211.674 257.01C211.404 257.073 211.129 257.099 210.847 257.089C210.565 257.08 210.287 257.037 210.011 256.959C209.734 256.882 209.473 256.772 209.222 256.629ZM209.814 255.212C209.694 255.281 209.608 255.35 209.56 255.42C209.51 255.489 209.483 255.556 209.481 255.623C209.479 255.688 209.497 255.749 209.534 255.806C209.571 255.864 209.617 255.913 209.67 255.955L211.074 255.144C211.005 255.113 210.923 255.084 210.832 255.058C210.74 255.032 210.641 255.017 210.535 255.014C210.425 255.012 210.312 255.026 210.192 255.054C210.073 255.082 209.947 255.134 209.814 255.212Z" fill="#FAFAFA"/>
<path d="M212.455 253.255C212.434 253.129 212.463 253.006 212.539 252.887C212.616 252.768 212.73 252.665 212.883 252.577C213.145 252.426 213.406 252.33 213.67 252.292C213.933 252.252 214.191 252.25 214.443 252.286C214.414 252.207 214.406 252.126 214.418 252.042C214.431 251.957 214.459 251.877 214.502 251.799C214.546 251.721 214.604 251.649 214.676 251.58C214.748 251.512 214.83 251.452 214.922 251.4C215.158 251.264 215.394 251.172 215.631 251.127C215.868 251.081 216.1 251.069 216.33 251.089C216.561 251.109 216.783 251.159 216.999 251.238C217.213 251.317 217.419 251.412 217.613 251.524L219.285 252.49C219.331 252.516 219.354 252.548 219.354 252.587C219.353 252.625 219.331 252.657 219.285 252.684L218.812 252.957C218.766 252.983 218.71 252.996 218.645 252.996C218.579 252.996 218.523 252.983 218.476 252.957L216.837 252.01C216.554 251.846 216.304 251.765 216.084 251.762C215.864 251.759 215.657 251.814 215.463 251.926C215.297 252.022 215.209 252.136 215.199 252.266C215.189 252.396 215.314 252.542 215.575 252.702L217.246 253.667C217.292 253.694 217.315 253.726 217.315 253.765C217.315 253.803 217.292 253.835 217.246 253.861L216.774 254.135C216.728 254.161 216.672 254.173 216.607 254.174C216.54 254.173 216.485 254.161 216.439 254.134L214.798 253.187C214.516 253.024 214.265 252.942 214.046 252.939C213.826 252.936 213.619 252.992 213.424 253.104C213.255 253.202 213.167 253.32 213.161 253.453C213.154 253.589 213.289 253.736 213.568 253.897L215.209 254.844C215.254 254.87 215.277 254.903 215.277 254.942C215.277 254.98 215.254 255.012 215.209 255.038L214.736 255.311C214.69 255.337 214.634 255.35 214.568 255.35C214.501 255.35 214.446 255.338 214.4 255.311L211.504 253.64C211.459 253.613 211.436 253.581 211.436 253.542C211.436 253.504 211.458 253.472 211.504 253.445L211.976 253.172C212.022 253.146 212.078 253.133 212.144 253.133C212.211 253.133 212.266 253.146 212.313 253.172L212.455 253.255Z" fill="#FAFAFA"/>
<path d="M217.843 250.704C217.773 250.644 217.718 250.568 217.678 250.476C217.639 250.384 217.63 250.281 217.654 250.167C217.677 250.053 217.739 249.935 217.842 249.81C217.946 249.686 218.104 249.562 218.316 249.44C218.527 249.318 218.745 249.224 218.97 249.159C219.197 249.093 219.425 249.056 219.654 249.048C219.884 249.039 220.114 249.063 220.345 249.12C220.574 249.176 220.795 249.265 221.005 249.386L222.834 250.441C222.879 250.468 222.902 250.5 222.902 250.539C222.902 250.577 222.879 250.609 222.834 250.635L222.361 250.909C222.315 250.935 222.259 250.948 222.193 250.948C222.127 250.948 222.072 250.935 222.026 250.908L221.82 250.79C221.854 250.91 221.831 251.041 221.752 251.185C221.672 251.328 221.508 251.473 221.255 251.619C221.076 251.722 220.892 251.801 220.705 251.854C220.516 251.908 220.33 251.937 220.149 251.942C219.967 251.947 219.791 251.93 219.62 251.892C219.45 251.853 219.295 251.793 219.154 251.712C218.868 251.546 218.746 251.359 218.787 251.148C218.829 250.937 218.991 250.718 219.272 250.488L220.111 249.803C219.941 249.705 219.764 249.668 219.583 249.691C219.401 249.715 219.227 249.775 219.061 249.871C218.957 249.931 218.891 249.986 218.862 250.037C218.833 250.087 218.816 250.142 218.812 250.201C218.808 250.243 218.796 250.275 218.778 250.3C218.759 250.325 218.731 250.348 218.694 250.37L218.116 250.704C218.075 250.727 218.028 250.741 217.974 250.743C217.919 250.746 217.876 250.733 217.843 250.704ZM220.633 251.117C220.774 251.035 220.88 250.951 220.95 250.866C221.021 250.78 221.06 250.696 221.067 250.615C221.077 250.534 221.057 250.459 221.013 250.389C220.966 250.319 220.9 250.26 220.813 250.209L220.751 250.173L220.055 250.748C219.913 250.863 219.834 250.959 219.815 251.033C219.797 251.108 219.835 251.174 219.931 251.229C220.017 251.279 220.126 251.29 220.257 251.263C220.388 251.234 220.513 251.186 220.633 251.117Z" fill="#FAFAFA"/>
<path d="M220.088 247.127C220.134 247.101 220.189 247.087 220.256 247.087C220.322 247.087 220.378 247.101 220.424 247.127L220.908 247.406C220.954 247.433 220.976 247.465 220.977 247.504C220.977 247.542 220.954 247.574 220.908 247.601L220.374 247.909C220.328 247.936 220.272 247.949 220.205 247.949C220.139 247.949 220.083 247.936 220.037 247.909L219.553 247.629C219.507 247.603 219.484 247.571 219.484 247.532C219.484 247.494 219.507 247.462 219.553 247.436L220.088 247.127ZM224.469 249.498C224.515 249.525 224.537 249.557 224.538 249.596C224.537 249.634 224.515 249.666 224.469 249.692L223.996 249.965C223.95 249.991 223.894 250.004 223.829 250.005C223.763 250.004 223.707 249.992 223.661 249.965L220.765 248.294C220.719 248.267 220.697 248.235 220.697 248.196C220.696 248.158 220.718 248.126 220.764 248.099L221.237 247.826C221.283 247.8 221.339 247.787 221.406 247.787C221.471 247.787 221.528 247.801 221.574 247.827L224.469 249.498Z" fill="#FAFAFA"/>
<path d="M226.135 248.537C226.181 248.563 226.204 248.595 226.204 248.634C226.203 248.672 226.181 248.705 226.135 248.731L225.663 249.003C225.616 249.029 225.561 249.043 225.495 249.043C225.428 249.043 225.372 249.03 225.327 249.003L221.25 246.649C221.205 246.623 221.182 246.591 221.182 246.552C221.182 246.514 221.205 246.481 221.25 246.455L221.723 246.183C221.768 246.157 221.824 246.143 221.89 246.143C221.957 246.143 222.012 246.157 222.058 246.183L226.135 248.537Z" fill="#FAFAFA"/>
<path d="M201.48 267.414L263.075 231.852C263.833 231.415 264.942 231.346 265.553 231.699C266.163 232.051 266.044 232.692 265.287 233.129L203.684 268.695C202.926 269.133 201.819 269.201 201.21 268.847C200.602 268.493 200.722 267.851 201.48 267.414Z" fill="#FAFAFA"/>
<path d="M205.804 269.911L267.4 234.349C268.158 233.912 269.266 233.843 269.877 234.196C270.488 234.548 270.368 235.189 269.611 235.626L208.008 271.193C207.25 271.63 206.143 271.698 205.534 271.344C204.926 270.99 205.046 270.348 205.804 269.911Z" fill="#FAFAFA"/>
<path d="M114.347 292.993L82.1758 274.419L226.29 191.214L259.118 209.41L114.347 292.993Z" fill="#E0E0E0"/>
<path d="M105.646 177.193L242.708 98.0607L248.192 101.227C249.61 102.046 250.77 104.055 250.77 105.693V206.801C250.77 208.438 249.61 210.448 248.192 211.266L116.288 287.422C114.87 288.24 112.549 288.24 111.131 287.422L108.225 285.744C106.808 284.925 105.647 282.916 105.647 281.278L105.646 177.193Z" fill="#27DEBF"/>
<path opacity="0.2" d="M105.646 177.193L242.708 98.0607L248.192 101.227C249.61 102.046 250.77 104.055 250.77 105.693V206.801C250.77 208.438 249.61 210.448 248.192 211.266L116.288 287.422C114.87 288.24 112.549 288.24 111.131 287.422L108.225 285.744C106.808 284.925 105.647 282.916 105.647 281.278L105.646 177.193Z" fill="black"/>
<path d="M241.952 89.1721L242.513 88.8672L240.383 87.63V87.6316C240.2 87.5247 240.012 87.4328 239.818 87.3616L179.497 65.0097C177.9 64.4181 175.826 65.0778 174.864 66.4821L107.388 165.021C106.427 166.426 105.646 168.945 105.646 170.647C105.646 173.463 105.646 177.191 105.646 177.191L107.738 178.406L242.708 98.0599V91.5148C242.708 90.7181 242.417 89.8912 241.952 89.1721Z" fill="#27DEBF"/>
<path opacity="0.1" d="M177.657 66.9597C177.39 67.1648 177.154 67.4222 176.959 67.6994L109.477 166.235C108.984 166.965 108.531 167.993 108.223 169.051L106.127 167.838C106.281 167.324 106.466 166.821 106.672 166.349C106.682 166.328 106.682 166.318 106.692 166.307C106.785 166.102 106.878 165.907 106.98 165.711C107.001 165.68 107.011 165.649 107.031 165.618C107.145 165.402 107.267 165.197 107.391 165.022L174.862 66.4861C174.965 66.3316 175.078 66.2089 175.201 66.075C175.314 65.9618 175.437 65.8493 175.561 65.7463L177.657 66.9597Z" fill="black"/>
<path opacity="0.35" d="M242.488 88.8577C242.302 88.7444 242.108 88.6526 241.912 88.5805L181.582 66.22C180.308 65.7471 178.725 66.0758 177.657 66.9597L175.561 65.7471C176.639 64.8736 178.212 64.5346 179.496 65.0074L239.816 87.3577C240.011 87.4297 240.196 87.5224 240.381 87.6349L242.488 88.8577Z" fill="white"/>
<path d="M107.027 165.614C107.144 165.401 107.263 165.202 107.387 165.021C107.264 165.202 107.144 165.401 107.027 165.614Z" fill="#27DEBF"/>
<path d="M175.203 66.0758C175.316 65.9601 175.438 65.8508 175.564 65.7471C175.438 65.85 175.315 65.957 175.203 66.0758Z" fill="#27DEBF"/>
<path d="M106.123 167.841C106.277 167.324 106.464 166.817 106.671 166.345C106.463 166.817 106.277 167.323 106.123 167.841Z" fill="#27DEBF"/>
<path d="M106.689 166.303C106.781 166.097 106.88 165.902 106.979 165.713C106.88 165.902 106.782 166.097 106.689 166.303Z" fill="#27DEBF"/>
<path opacity="0.2" d="M174.863 66.4821C174.963 66.3364 175.081 66.2049 175.202 66.0758C175.079 66.2017 174.963 66.3364 174.863 66.4821Z" fill="black"/>
<path d="M176.955 67.6962L109.478 166.236C108.516 167.641 107.736 170.16 107.736 171.862C107.736 174.678 107.736 178.406 107.736 178.406L244.799 99.2685L244.797 92.7297C244.797 91.0269 243.503 89.1673 241.907 88.5757L181.586 66.2238C179.99 65.6322 177.916 66.292 176.955 67.6962Z" fill="#27DEBF"/>
<path opacity="0.05" d="M244.798 92.7297C244.798 91.9472 244.516 91.1362 244.066 90.4258L108.223 169.05C108.223 169.05 108.215 169.062 108.209 169.071C107.918 170.047 107.736 171.047 107.736 171.862C107.736 174.678 107.736 178.406 107.736 178.406L244.799 99.2685L244.798 92.7297Z" fill="black"/>
<path d="M238.945 64.9551C238.945 64.251 238.7 63.7545 238.302 63.52C237.899 63.2824 234.522 61.3373 234.119 61.1052C233.717 60.8732 233.161 60.9064 232.546 61.2612L120.123 126.166C118.895 126.875 117.898 128.6 117.898 130.019L117.899 264.656C117.899 265.365 118.148 265.863 118.55 266.096C118.953 266.329 122.323 268.274 122.726 268.506C123.128 268.738 123.685 268.705 124.299 268.35L236.721 203.445C237.951 202.735 238.946 201.01 238.946 199.592L238.945 64.9551Z" fill="#27DEBF"/>
<path opacity="0.95" d="M238.945 64.9551C238.945 64.251 238.7 63.7545 238.302 63.52C237.899 63.2824 234.522 61.3373 234.119 61.1052C233.717 60.8732 233.161 60.9064 232.546 61.2612L120.123 126.166C118.895 126.875 117.898 128.6 117.898 130.019L117.899 264.656C117.899 265.365 118.148 265.863 118.55 266.096C118.953 266.329 122.323 268.274 122.726 268.506C123.128 268.738 123.685 268.705 124.299 268.35L236.721 203.445C237.951 202.735 238.946 201.01 238.946 199.592L238.945 64.9551Z" fill="white"/>
<path d="M124.296 268.351L236.719 203.446C237.948 202.736 238.943 201.011 238.943 199.593L238.943 64.9551C238.943 63.5366 237.946 62.9608 236.718 63.6704L124.295 128.575C123.067 129.284 122.07 131.009 122.07 132.428L122.071 267.066C122.071 268.486 123.067 269.061 124.296 268.351Z" fill="#27DEBF"/>
<path opacity="0.8" d="M124.296 268.351L236.719 203.446C237.948 202.736 238.943 201.011 238.943 199.593L238.943 64.9551C238.943 63.5366 237.946 62.9608 236.718 63.6704L124.295 128.575C123.067 129.284 122.07 131.009 122.07 132.428L122.071 267.066C122.071 268.486 123.067 269.061 124.296 268.351Z" fill="white"/>
<path d="M122.068 267.066C122.068 267.693 122.264 268.155 122.592 268.422C121.842 268.001 118.924 266.305 118.554 266.1C118.143 265.864 117.896 265.371 117.896 264.662V130.016C117.896 129.308 118.143 128.527 118.554 127.827L122.726 130.232C122.315 130.93 122.069 131.722 122.069 132.431V267.066H122.068Z" fill="#27DEBF"/>
<path opacity="0.7" d="M122.068 267.066C122.068 267.693 122.264 268.155 122.592 268.422C121.842 268.001 118.924 266.305 118.554 266.1C118.143 265.864 117.896 265.371 117.896 264.662V130.016C117.896 129.308 118.143 128.527 118.554 127.827L122.726 130.232C122.315 130.93 122.069 131.722 122.069 132.431V267.066H122.068Z" fill="white"/>
<path opacity="0.05" d="M122.068 267.066C122.068 267.693 122.264 268.155 122.592 268.422C121.842 268.001 118.924 266.305 118.554 266.1C118.143 265.864 117.896 265.371 117.896 264.662V130.016C117.896 129.308 118.143 128.527 118.554 127.827L122.726 130.232C122.315 130.93 122.069 131.722 122.069 132.431V267.066H122.068Z" fill="black"/>
<path d="M163.099 165.309C162.604 177.834 163.447 204.675 163.447 204.675C163.447 204.675 176.723 208.688 185.75 207.191C194.776 205.695 214.078 192.023 214.078 192.023L210.861 162.975L163.099 165.309Z" fill="#37474F"/>
<path d="M193.922 204.219L196.079 183.76C204.54 178.715 207.294 171.73 207.294 171.73C199.593 181.814 191.559 180.182 191.559 180.182V205.301C192.328 204.97 193.118 204.608 193.922 204.219Z" fill="#263238"/>
<path d="M216.162 127.571C218.312 116.67 219.287 102.184 209.803 99.5251C207.333 98.8329 201.044 99.3136 201.044 99.3136L190.818 99.8213C185.124 100.548 177.137 101.679 175.045 102.194C169.552 103.545 167.921 112.518 165.459 132.402C163.917 144.852 162.605 154.571 162.605 166.689C172.651 175.696 204.049 172.149 211.195 166.291C211.49 152.557 212.239 147.462 216.162 127.571Z" fill="#455A64"/>
<path d="M189.085 96.1076C188.987 98.0987 191.278 101.458 194.784 103.817C198.289 106.176 201.31 107.131 201.694 108.115C200.03 108.427 198.527 109.252 197.289 112.108C196.106 114.835 196.117 114.923 192.071 112.108C188.025 109.292 184.405 102.832 184.414 100.68C184.423 98.528 187.595 94.3644 189.152 94.7177L189.085 96.1076Z" fill="#37474F"/>
<path d="M201.693 108.115C202.878 106.821 204.001 103.566 204.145 102.159C204.29 100.753 204.663 97.0557 204.663 97.0557C204.663 97.0557 205.626 97.3044 206.064 97.9649C206.501 98.6254 208.653 103.076 208.584 105.561C208.514 108.046 207.931 111.407 207.092 112.824C206.251 114.241 205.688 111.741 205.14 110.772C204.427 109.514 203.448 108.149 201.693 108.115Z" fill="#37474F"/>
<path d="M200.093 110.966C200.093 110.966 200.288 119.944 199.463 124.716C199.463 124.716 202.164 125.211 204.802 124.573C204.802 124.573 203.433 126.26 198.414 125.484C198.412 125.484 199.956 116.114 200.093 110.966Z" fill="#37474F"/>
<path d="M221.343 69.517C221.227 61.65 214.756 55.3671 206.889 55.4835C199.529 55.592 193.559 61.2643 192.914 68.4359L186.445 63.8336C186.445 63.8336 184.085 63.4653 182.279 65.3677C180.508 67.2336 181.597 72.9741 183.92 78.5782C183.92 78.5782 186.256 88.8101 187.158 90.4836C188.059 92.1571 189.876 92.6093 189.876 92.6093L189.652 86.3834L215.53 84.5254L212.97 82.7038C217.977 80.4355 221.43 75.3651 221.343 69.517Z" fill="#263238"/>
<path d="M189.275 78.9751C188.457 79.4804 187.711 77.7498 186.223 76.862C184.958 76.1072 182.116 74.7838 180.24 77.9233C178.221 81.3051 181.886 85.9811 184.453 86.9442C188.254 88.3713 189.615 85.3911 189.615 85.3911L188.83 101.233C194.006 110.661 209.368 110.053 204.144 102.158L204.772 96.0498C204.772 96.0498 208.865 96.6089 210.853 96.2715C214.16 95.71 216.206 93.0639 217.159 89.4611C218.689 83.674 219.233 79.0123 217.695 67.6978C216.01 55.2974 201.559 55.3814 193.829 60.4074C186.099 65.435 189.275 78.9751 189.275 78.9751Z" fill="#FFA8A7"/>
<path d="M220.852 56.1211C219.802 55.5485 218.532 55.5041 217.355 55.7196C217.62 53.936 216.411 52.1872 214.823 51.4665C212.9 50.593 211.162 50.9018 209.469 52.1817C209.819 50.9224 208.674 49.6394 207.397 49.3606C206.119 49.0818 204.804 49.5206 203.584 49.9879C201.767 50.6824 199.978 51.4546 198.132 52.0716C194.881 53.1582 191.419 53.7784 188.478 55.5406C187.783 55.9564 187.113 56.445 186.64 57.1016C185.978 58.0195 185.757 59.198 185.808 60.329C185.826 60.706 185.888 61.0743 185.965 61.4386C185.746 61.201 185.493 60.9911 185.194 60.8359C183.804 60.1168 182.122 60.7012 181.436 62.1411L186.335 64.6787C186.213 65.6655 186.091 66.6523 185.991 67.6415C185.727 70.2544 185.221 73.2988 185.811 75.8974C185.877 76.1912 185.926 76.5333 186.13 76.7693C186.13 76.7693 187.397 77.6881 188.678 79.2483C189.058 79.71 189.516 80.4553 190.129 80.6367C190.741 80.8173 191.606 80.4743 191.823 79.8645C191.953 79.4986 191.916 79.097 191.878 78.7105C191.72 77.1004 191.561 75.4911 191.403 73.8809C191.361 73.4509 191.32 73.0018 191.481 72.601C191.697 72.0617 192.221 71.7243 192.662 71.3473C193.788 70.3858 194.498 68.9555 194.585 67.4784C194.613 67.0143 194.582 66.5391 194.715 66.0932C194.816 65.7526 195.085 65.2212 195.474 65.2204C196.229 65.2172 200.331 66.1106 201.361 66.2516C206.729 66.9874 212.495 67.1299 217.229 64.4965C219.073 63.4709 222.18 61.3443 222.502 59.0642C222.669 57.8778 221.902 56.6937 220.852 56.1211Z" fill="#263238"/>
<path d="M204.772 96.0497C204.772 96.0497 197.351 94.6685 194.743 93.3316C192.999 92.4366 191.548 90.8629 191.115 89.8468C191.115 89.8468 191.632 92.0351 193.208 93.9898C195.136 96.38 204.57 98.0187 204.57 98.0187L204.772 96.0497Z" fill="#F28F8F"/>
<path d="M204.455 77.643C204.467 78.4405 203.854 79.0947 203.087 79.1034C202.319 79.1129 201.687 78.4738 201.676 77.6762C201.664 76.8787 202.276 76.2253 203.044 76.2158C203.811 76.2071 204.443 76.8462 204.455 77.643Z" fill="#263238"/>
<path d="M201.752 72.4609L198.493 74.0449C198.073 73.1104 198.463 71.9984 199.363 71.5612C200.262 71.1232 201.332 71.5264 201.752 72.4609Z" fill="#263238"/>
<path d="M201.791 86.3248L207.68 88.4363C207.126 90.1233 205.357 91.019 203.73 90.4361C202.104 89.8532 201.236 88.0126 201.791 86.3248Z" fill="#B16668"/>
<path d="M205.51 90.5114C205.276 88.8434 203.745 87.6713 202.071 87.8899C201.94 87.9073 201.818 87.9461 201.693 87.9786C201.898 89.0795 202.637 90.0449 203.73 90.4369C204.327 90.65 204.942 90.6611 205.51 90.5114Z" fill="#F28F8F"/>
<path d="M217.201 73.5372L214.055 71.8946C214.482 71.0313 215.532 70.6995 216.401 71.1525C217.269 71.6063 217.628 72.6739 217.201 73.5372Z" fill="#263238"/>
<path d="M215.6 77.4078C215.611 78.2053 214.998 78.8587 214.231 78.8682C213.464 78.8777 212.832 78.2386 212.82 77.441C212.809 76.6435 213.422 75.9901 214.188 75.9806C214.956 75.9711 215.588 76.6102 215.6 77.4078Z" fill="#263238"/>
<path d="M208.51 76.5437L208.787 85.5337L214.089 84.3005L208.51 76.5437Z" fill="#F28F8F"/>
<path d="M247.291 208.147C247.25 208.219 247.209 208.281 247.148 208.352L190.032 190.242C185.546 188.25 180.294 189.872 177.689 194.041L116.629 284.794L114.371 286.098L114.351 286.108C113.666 286.489 113.053 286.54 112.604 286.303L175.4 192.757C178.006 188.588 183.268 186.965 187.753 188.947L247.291 208.147Z" fill="#27DEBF"/>
<path opacity="0.4" d="M172.066 202.949L172.21 202.826L116.628 284.798L114.367 286.103L114.347 286.113C113.669 286.493 113.052 286.534 112.6 286.309L169.868 201.634L172.066 202.949Z" fill="white"/>
<path opacity="0.4" d="M247.296 208.15C247.255 208.222 247.213 208.284 247.152 208.355L190.028 190.238C185.548 188.245 180.297 189.868 177.686 194.041L175.426 192.725C178.036 188.574 183.277 186.971 187.757 188.943L247.296 208.15Z" fill="white"/>
<path d="M250.722 105.046H250.712C250.588 104.306 250.198 104.101 249.695 104.45C249.499 104.583 249.274 104.809 249.038 105.128L248.75 105.529L192.387 191.219L183.971 202.944C183.025 204.28 180.949 205.05 179.336 204.68L172.071 202.954L116.612 182.537C116.211 182.444 115.831 182.434 115.482 182.496C115.338 182.527 115.194 182.568 115.061 182.63L117.151 181.421L170.322 200.907L177.322 203.406C178.925 203.786 181.001 203.016 181.957 201.669L190.373 189.955L247.013 103.864C247.199 103.608 247.424 103.422 247.651 103.278L242.749 100.452L244.804 99.2708L248.196 101.223C249.427 101.943 250.465 103.556 250.722 105.046Z" fill="#27DEBF"/>
<path opacity="0.4" d="M192.382 191.214L183.966 202.939C183.021 204.275 180.945 205.046 179.331 204.676L172.066 202.949L172.211 202.826L172.56 202.27L177.317 203.401C178.92 203.781 180.996 203.01 181.952 201.664L190.286 190.073L192.382 191.214Z" fill="white"/>
<path opacity="0.1" d="M248.19 101.219L244.798 99.2668L242.743 100.449L247.645 103.274C247.649 103.278 247.653 103.281 247.656 103.284L247.648 103.279C247.401 103.434 247.184 103.624 247.01 103.865L190.366 189.951L190.283 190.064V190.074L192.38 191.215L248.743 105.525L249.031 105.124C249.267 104.806 249.493 104.58 249.688 104.447C250.192 104.097 250.582 104.302 250.705 105.042H250.715C250.461 103.552 249.423 101.938 248.19 101.219Z" fill="black"/>
<path d="M117.737 184.177L105.645 177.193L105.645 281.278C105.645 282.916 106.806 284.925 108.223 285.744L111.129 287.422C112.548 288.24 114.868 288.24 116.286 287.422L117.737 286.584V184.177Z" fill="#27DEBF"/>
<path opacity="0.15" d="M117.737 184.177L105.645 177.193L105.645 281.278C105.645 282.916 106.806 284.925 108.223 285.744L111.129 287.422C112.548 288.24 114.868 288.24 116.286 287.422L117.737 286.584V184.177Z" fill="black"/>
<path d="M250.773 105.694V206.799C250.773 207.652 250.465 208.587 249.972 209.409C249.561 210.087 249.047 210.693 248.461 211.104L248.358 211.156C248.297 211.197 248.255 211.238 248.194 211.269L116.292 287.414L116.272 287.424C115.584 287.814 114.967 287.866 114.514 287.63C114.114 287.424 113.836 287.003 113.744 286.397C113.723 286.253 113.713 286.099 113.713 285.934V184.82C113.713 183.186 114.998 182.158 116.611 182.539L172.07 202.956L179.335 204.682C180.948 205.052 183.024 204.281 183.97 202.945L192.385 191.22L248.749 105.531L249.036 105.13C249.992 103.803 250.773 104.05 250.773 105.694Z" fill="#27DEBF"/>
<path d="M248.191 211.269C248.251 211.239 248.301 211.199 248.361 211.16L248.46 211.1C249.045 210.693 249.562 210.088 249.969 209.413C250.457 208.603 250.759 207.679 250.769 206.847L192.389 191.22L231.483 220.916L248.191 211.269Z" fill="#27DEBF"/>
<path opacity="0.2" d="M248.191 211.269C248.251 211.239 248.301 211.199 248.361 211.16L248.46 211.1C249.045 210.693 249.562 210.088 249.969 209.413C250.457 208.603 250.759 207.679 250.769 206.847L192.389 191.22L231.483 220.916L248.191 211.269Z" fill="black"/>
<path d="M113.711 285.929C113.711 286.782 114.019 287.368 114.515 287.626C114.971 287.864 115.587 287.814 116.271 287.427L116.291 287.417L161.704 261.2L172.075 202.951L113.713 284.249L113.711 285.929Z" fill="#27DEBF"/>
<path opacity="0.15" d="M177.666 194.03L114.51 287.624C114.017 287.367 113.709 286.781 113.709 285.928L113.713 284.248L175.406 192.755C175.406 192.745 175.416 192.735 175.426 192.724L177.666 194.03Z" fill="black"/>
<path d="M249.969 209.413C249.562 210.088 249.046 210.693 248.46 211.1L248.361 211.16L116.29 287.417L116.27 287.426C115.585 287.814 114.97 287.863 114.514 287.625L177.676 194.014C180.293 189.834 185.583 188.212 190.094 190.204L249.969 209.413Z" fill="#27DEBF"/>
<path opacity="0.15" d="M106.126 167.838L108.222 169.051C107.924 170.037 107.739 171.044 107.739 171.866C107.739 174.682 107.739 178.402 107.739 178.402L105.643 177.189C105.643 177.189 105.643 173.459 105.643 170.644C105.643 169.832 105.828 168.824 106.126 167.838Z" fill="black"/>
<path d="M117.149 181.421L115.059 182.63L112.942 181.407L107.732 178.406L109.757 177.204L117.149 181.421Z" fill="#27DEBF"/>
<path opacity="0.1" d="M117.242 181.461L109.757 177.204L107.732 178.407L112.942 181.407L115.059 182.63L115.081 182.617C115.208 182.561 115.342 182.52 115.477 182.492C115.827 182.43 116.207 182.44 116.608 182.533L120.822 184.088L169.234 201.91L169.991 200.787L117.242 181.461Z" fill="black"/>
<path d="M175.045 102.194C168.325 102.677 163.718 104.277 159.387 114.682C156.587 121.408 145.612 145.579 144.55 149.574C143.301 154.267 140.496 189.929 140.496 189.929L146.909 192.335C146.909 192.335 144.711 200.009 142.856 204.395C140.718 209.45 151.162 208.39 154.516 203.793C157.88 199.183 160.157 193.048 158.324 190.89C155.901 188.038 153.233 186.181 153.233 186.181L160.254 154.365L174.977 123.067C174.977 123.067 182.363 107.684 175.045 102.194Z" fill="#FFA8A7"/>
<path d="M153.233 186.181C149.801 184.245 146.727 184.324 146.727 184.324C146.727 184.324 150.099 183.243 153.539 184.323L153.233 186.181Z" fill="#F28F8F"/>
<path d="M176.571 101.885C172.797 101.854 165.756 101.685 161.196 109.922C156.636 118.16 150.186 133.814 150.186 133.814C150.186 133.814 152.867 140.409 167.217 141.786L178.21 118.397C178.21 118.397 180.886 107.664 176.571 101.885Z" fill="#37474F"/>
<path d="M225.259 107.287C230.927 111.755 240.135 118.785 244.61 121.599C247.993 117.505 254.215 109.226 255.726 107.412C257.646 105.106 263.709 101.34 263.709 101.34L265.999 110.524C265.999 110.524 254.503 131.729 250.338 135.655C245.948 139.79 242.773 138.076 234.195 134.144C226.092 130.43 217.295 125.825 217.295 125.825C219.038 110.412 217.856 102.063 210.492 99.4641C215.443 100.079 220.502 103.537 225.259 107.287Z" fill="#FFA8A7"/>
<path d="M240.066 118.497C237.102 119.311 230.977 128.026 232.096 133.539L216.491 125.826C218.38 115.186 218.786 102.043 209.803 99.5243C209.138 99.3342 208.196 99.2392 207.174 99.1917C211.649 98.7481 214.57 98.8788 219.257 102.403C223.947 105.928 240.066 118.497 240.066 118.497Z" fill="#37474F"/>
<path d="M244.611 121.599C242.375 123.558 241.652 127.094 241.219 128.492C241.219 128.492 240.753 124.407 243.318 120.758L244.611 121.599Z" fill="#F28F8F"/>
<path d="M266.338 91.0649L271.685 87.8201C271.685 87.8201 272.301 116.684 272.321 117.622C272.34 118.561 273.443 119.476 273.443 119.476L268.095 122.717C268.095 122.717 266.991 121.802 266.972 120.865C266.952 119.927 266.338 91.0649 266.338 91.0649Z" fill="#37474F"/>
<path d="M271.942 99.8497C271.942 99.8497 273.479 100.216 274.066 102.598C274.654 104.981 274.949 109.534 273.581 111.034C272.212 112.534 270.342 113.188 269.1 112.648C266.776 111.639 267.483 106.925 269.345 105.838C272.321 104.1 271.964 102.186 271.964 102.186L271.942 99.8497Z" fill="#FFA8A7"/>
<path d="M259.754 91.152L262.098 94.0103L262.52 114.365L260.138 118.345L268.094 122.716C267.399 122.114 267.04 121.496 266.971 120.864L266.417 94.811L259.754 91.152Z" fill="#455A64"/>
<path d="M260.139 118.345L260.165 119.596L268.121 123.968L268.095 122.718L260.139 118.345Z" fill="#27DEBF"/>
<path d="M268.122 123.968L273.47 120.727L273.443 119.477L268.096 122.718L268.122 123.968Z" fill="#27DEBF"/>
<path opacity="0.1" d="M268.122 123.968L273.47 120.727L273.443 119.477L268.096 122.718L268.122 123.968Z" fill="black"/>
<path d="M261.309 77.0268C260.269 76.7694 259.064 77.2073 257.947 78.4025L257.907 78.446C255.7 80.8086 254.675 85.2319 255.618 88.3246L255.635 88.3817C256.124 89.9839 257.045 90.9121 258.125 91.1093L262.751 92.2229L265.585 78.0587L261.309 77.0268Z" fill="#27DEBF"/>
<path opacity="0.7" d="M261.309 77.0268C260.269 76.7694 259.064 77.2073 257.947 78.4025L257.907 78.446C255.7 80.8086 254.675 85.2319 255.618 88.3246L255.635 88.3817C256.124 89.9839 257.045 90.9121 258.125 91.1093L262.751 92.2229L265.585 78.0587L261.309 77.0268Z" fill="white"/>
<path opacity="0.05" d="M258.125 91.1085L262.75 92.222L263.689 87.5271L255.273 85.5771C255.255 86.545 255.361 87.4843 255.617 88.3238L255.635 88.3808C256.123 89.983 257.044 90.9121 258.125 91.1085Z" fill="black"/>
<path d="M270.684 77.4235L270.683 77.4267C269.514 77.1582 268.182 77.5898 266.916 78.7699C266.783 78.8911 266.651 79.0234 266.518 79.1643C266.362 79.3314 266.214 79.5025 266.069 79.6855C265.828 79.9848 265.601 80.3016 265.389 80.6398C264.999 81.252 264.656 81.9197 264.363 82.6254C263.581 84.5198 263.166 86.6701 263.212 88.6778C263.236 89.6908 263.377 90.665 263.649 91.5552C264.226 93.4449 265.283 94.5917 266.536 94.9235L262.133 93.9074L262.136 93.8979C260.574 93.4655 259.221 92.2553 258.654 90.3957C258.395 89.5459 258.254 88.6161 258.222 87.653C258.153 85.608 258.569 83.4047 259.37 81.4683C259.662 80.7634 260.004 80.0926 260.395 79.4827C260.608 79.1445 260.833 78.8254 261.075 78.5284C261.22 78.3446 261.37 78.1712 261.524 78.0072C261.654 77.867 261.79 77.7364 261.928 77.6136C263.194 76.4977 264.755 76.1246 266.191 76.3915L266.193 76.3884L266.315 76.4153C266.366 76.428 266.419 76.4391 266.472 76.4541L270.684 77.4235Z" fill="#27DEBF"/>
<path opacity="0.1" d="M262.134 93.9075L262.136 93.898C260.574 93.4656 259.221 92.2554 258.654 90.3958C258.395 89.546 258.254 88.6161 258.223 87.6531L263.213 88.6771C263.238 89.6901 263.379 90.6643 263.65 91.5545C264.227 93.4442 265.284 94.591 266.537 94.9228L262.134 93.9075Z" fill="black"/>
<path d="M273.672 80.822C274.855 84.7021 273.571 90.2476 270.803 93.2105C269.412 94.7018 267.908 95.2555 266.608 94.941C266.584 94.9371 266.56 94.9307 266.536 94.9236C265.283 94.5918 264.225 93.4449 263.649 91.5552C262.466 87.6752 263.75 82.1296 266.517 79.1644C267.899 77.6865 269.39 77.129 270.683 77.426C271.98 77.7222 273.08 78.8785 273.672 80.822Z" fill="#27DEBF"/>
<path opacity="0.2" d="M273.672 80.822C274.855 84.7021 273.571 90.2476 270.803 93.2105C269.412 94.7018 267.908 95.2555 266.608 94.941C266.584 94.9371 266.56 94.9307 266.536 94.9236C265.283 94.5918 264.225 93.4449 263.649 91.5552C262.466 87.6752 263.75 82.1296 266.517 79.1644C267.899 77.6865 269.39 77.129 270.683 77.426C271.98 77.7222 273.08 78.8785 273.672 80.822Z" fill="black"/>
<path d="M292.015 74.1335C292.015 74.1335 286.839 79.1532 284.366 89.8278C283.881 91.9242 283.584 93.8734 283.423 95.6474C282.759 102.906 284.334 107.287 284.334 107.287C281.139 103.365 277.452 99.4205 272.576 97.0263C269.557 95.5445 266.723 94.5481 266.723 94.5481L266.724 94.5426C265.543 94.2662 264.571 93.1788 264.039 91.4348C263.689 90.2864 263.563 88.9867 263.638 87.6514C263.68 86.8071 263.803 85.9486 263.997 85.1067C264.5 82.935 265.482 80.8743 266.818 79.4423C268.063 78.1102 269.413 77.5613 270.596 77.8322L270.597 77.8274C270.597 77.8274 273.581 78.1791 276.943 78.1759C282.375 78.1704 287.422 76.2498 292.015 74.1335Z" fill="#27DEBF"/>
<path opacity="0.7" d="M292.015 74.1335C292.015 74.1335 286.839 79.1532 284.366 89.8278C283.881 91.9242 283.584 93.8734 283.423 95.6474C282.759 102.906 284.334 107.287 284.334 107.287C281.139 103.365 277.452 99.4205 272.576 97.0263C269.557 95.5445 266.723 94.5481 266.723 94.5481L266.724 94.5426C265.543 94.2662 264.571 93.1788 264.039 91.4348C263.689 90.2864 263.563 88.9867 263.638 87.6514C263.68 86.8071 263.803 85.9486 263.997 85.1067C264.5 82.935 265.482 80.8743 266.818 79.4423C268.063 78.1102 269.413 77.5613 270.596 77.8322L270.597 77.8274C270.597 77.8274 273.581 78.1791 276.943 78.1759C282.375 78.1704 287.422 76.2498 292.015 74.1335Z" fill="white"/>
<path opacity="0.05" d="M283.423 95.6475C282.759 102.906 284.334 107.287 284.334 107.287C281.139 103.366 277.452 99.4206 272.576 97.0264C269.557 95.5446 266.723 94.5482 266.723 94.5482L266.724 94.5427C265.543 94.2663 264.571 93.1789 264.039 91.4349C263.689 90.2865 263.563 88.9868 263.638 87.6515C268.996 88.5631 277.829 90.5629 283.423 95.6475Z" fill="black"/>
<path d="M306.244 79.3648C307.477 83.4103 307.583 88.2177 306.755 92.9388L306.756 92.9412C305.694 98.9881 303.11 104.886 299.411 108.846C292.824 115.897 285.204 114.13 282.391 104.902C281.747 102.79 281.411 100.472 281.352 98.0678C281.214 92.1445 282.766 85.6968 285.59 80.5314C285.987 79.8027 286.409 79.1026 286.857 78.431C287.042 78.1514 287.234 77.8758 287.428 77.6073L287.43 77.6065C287.707 77.224 287.989 76.8533 288.282 76.4961C288.587 76.1247 288.898 75.7643 289.22 75.4214C295.809 68.3702 303.43 70.1332 306.244 79.3648Z" fill="#27DEBF"/>
<path opacity="0.1" d="M306.755 92.9412C305.694 98.9881 303.109 104.886 299.41 108.846C292.823 115.897 285.203 114.13 282.39 104.902C281.746 102.79 281.41 100.472 281.352 98.0678L281.354 98.067C282.258 99.0958 284.722 100.207 285.228 98.7481C285.289 100.898 285.592 102.953 286.157 104.807C286.966 107.459 288.21 109.42 289.755 110.479C291.073 111.382 292.569 111.59 294.198 111.09C295.783 110.609 297.446 109.464 299.012 107.79C302.159 104.422 304.461 99.3912 305.583 94.145C305.583 94.145 306.209 94.4151 306.755 92.9412Z" fill="black"/>
<path d="M305.412 80.1813C306.654 84.257 306.626 89.2949 305.585 94.1459C304.464 99.3913 302.161 104.423 299.015 107.791C297.448 109.465 295.784 110.61 294.2 111.091C292.571 111.59 291.075 111.383 289.757 110.48C288.212 109.42 286.969 107.461 286.16 104.808C285.594 102.954 285.292 100.899 285.23 98.749C285.205 97.9372 285.216 97.1111 285.26 96.2779C285.336 94.8278 285.512 93.3467 285.785 91.8831C285.841 91.5814 285.9 91.282 285.962 90.9842C286.065 90.4876 286.178 89.9902 286.305 89.5C286.728 87.8178 287.278 86.1728 287.935 84.6149C287.942 84.5991 287.952 84.5793 287.958 84.5611C288.398 83.5236 288.883 82.528 289.412 81.584C289.793 80.9044 290.196 80.2542 290.621 79.6349C290.798 79.3743 290.981 79.1208 291.167 78.8722C291.391 78.5752 291.62 78.2853 291.855 78.0017C292.084 77.7285 292.318 77.4648 292.555 77.2082C294.125 75.5252 295.79 74.3871 297.374 73.9024C300.881 72.8308 303.887 75.1822 305.412 80.1813Z" fill="#27DEBF"/>
<path opacity="0.3" d="M305.412 80.1813C306.654 84.257 306.626 89.2949 305.585 94.1459C304.464 99.3913 302.161 104.423 299.015 107.791C297.448 109.465 295.784 110.61 294.2 111.091C292.571 111.59 291.075 111.383 289.757 110.48C288.212 109.42 286.969 107.461 286.16 104.808C285.594 102.954 285.292 100.899 285.23 98.749C285.205 97.9372 285.216 97.1111 285.26 96.2779C285.336 94.8278 285.512 93.3467 285.785 91.8831C285.841 91.5814 285.9 91.282 285.962 90.9842C286.065 90.4876 286.178 89.9902 286.305 89.5C286.728 87.8178 287.278 86.1728 287.935 84.6149C287.942 84.5991 287.952 84.5793 287.958 84.5611C288.398 83.5236 288.883 82.528 289.412 81.584C289.793 80.9044 290.196 80.2542 290.621 79.6349C290.798 79.3743 290.981 79.1208 291.167 78.8722C291.391 78.5752 291.62 78.2853 291.855 78.0017C292.084 77.7285 292.318 77.4648 292.555 77.2082C294.125 75.5252 295.79 74.3871 297.374 73.9024C300.881 72.8308 303.887 75.1822 305.412 80.1813Z" fill="black"/>
<path d="M293.803 86.2006L291.614 97.23C290.025 97.1294 287.349 97.0082 285.229 97.1056C285.234 96.8308 285.245 96.5568 285.261 96.2788C285.337 94.8286 285.513 93.3476 285.786 91.884C285.842 91.5822 285.901 91.2828 285.963 90.985C286.066 90.4885 286.179 89.9911 286.306 89.5008C286.729 87.8186 287.279 86.1736 287.936 84.6158C287.943 84.5999 287.953 84.5801 287.959 84.5619C288.058 84.3338 288.155 84.1065 288.257 83.8832C290.756 85.2589 293.803 86.2006 293.803 86.2006Z" fill="#27DEBF"/>
<g opacity="0.4">
<path d="M293.803 86.2006L291.614 97.23C290.025 97.1294 287.349 97.0082 285.229 97.1056C285.234 96.8308 285.245 96.5568 285.261 96.2788C285.337 94.8286 285.513 93.3476 285.786 91.884C285.842 91.5822 285.901 91.2828 285.963 90.985C286.066 90.4885 286.179 89.9911 286.306 89.5008C286.729 87.8186 287.279 86.1736 287.936 84.6158C287.943 84.5999 287.953 84.5801 287.959 84.5619C288.058 84.3338 288.155 84.1065 288.257 83.8832C290.756 85.2589 293.803 86.2006 293.803 86.2006Z" fill="white"/>
</g>
<path d="M292.03 97.0762C290.882 97.4263 289.915 96.708 289.441 95.1548L289.427 95.1073C288.682 92.6664 289.494 89.1626 291.236 87.2974L291.271 87.261C291.735 86.7636 292.237 86.423 292.721 86.2749C293.868 85.9249 294.836 86.6432 295.31 88.1971L295.324 88.2446C296.068 90.6856 295.257 94.1894 293.514 96.0546L293.48 96.091C293.015 96.5876 292.514 96.9281 292.03 97.0762Z" fill="#27DEBF"/>
<g opacity="0.7">
<path d="M292.03 97.0762C290.882 97.4263 289.915 96.708 289.441 95.1548L289.427 95.1073C288.682 92.6664 289.494 89.1626 291.236 87.2974L291.271 87.261C291.735 86.7636 292.237 86.423 292.721 86.2749C293.868 85.9249 294.836 86.6432 295.31 88.1971L295.324 88.2446C296.068 90.6856 295.257 94.1894 293.514 96.0546L293.48 96.091C293.015 96.5876 292.514 96.9281 292.03 97.0762Z" fill="white"/>
</g>
<path d="M289.367 68.7013C288.735 68.8937 288.069 68.5381 287.876 67.9077L284.509 56.8648C284.317 56.2336 284.672 55.5667 285.303 55.3743C285.934 55.1818 286.601 55.5374 286.793 56.1679L290.16 67.2107C290.354 67.842 289.998 68.5088 289.367 68.7013Z" fill="#E0E0E0"/>
<path d="M280.14 74.4575C279.745 74.5779 279.299 74.49 278.976 74.1882L270.539 66.3078C270.057 65.8572 270.032 65.1024 270.482 64.6201C270.929 64.1393 271.686 64.1124 272.169 64.5622L280.606 72.4426C281.088 72.8933 281.113 73.6481 280.663 74.1304C280.515 74.2888 280.334 74.3981 280.14 74.4575Z" fill="#E0E0E0"/>
<path d="M285.911 130.862C285.717 130.922 285.505 130.932 285.294 130.883C284.651 130.734 284.251 130.092 284.4 129.45L287.005 118.204C287.154 117.56 287.795 117.16 288.438 117.309C289.081 117.458 289.481 118.1 289.332 118.742L286.726 129.989C286.627 130.42 286.305 130.742 285.911 130.862Z" fill="#E0E0E0"/>
<path d="M306.863 126.091C306.232 126.284 305.565 125.928 305.372 125.297L302.005 114.254C301.813 113.623 302.168 112.956 302.799 112.763C303.43 112.571 304.097 112.926 304.29 113.558L307.656 124.601C307.849 125.232 307.494 125.899 306.863 126.091Z" fill="#E0E0E0"/>
<path d="M319.287 111.02C318.892 111.141 318.446 111.053 318.123 110.751L309.686 102.871C309.203 102.421 309.178 101.666 309.628 101.183C310.076 100.703 310.833 100.675 311.316 101.126L319.754 109.005C320.236 109.455 320.261 110.211 319.811 110.693C319.663 110.852 319.481 110.961 319.287 111.02Z" fill="#E0E0E0"/>
<path d="M327.208 96.148C327.014 96.2074 326.802 96.2177 326.591 96.1694L315.345 93.563C314.702 93.4141 314.302 92.7725 314.451 92.1302C314.6 91.4871 315.241 91.088 315.884 91.2361L327.129 93.8417C327.772 93.9906 328.172 94.6322 328.024 95.2745C327.924 95.7061 327.602 96.0277 327.208 96.148Z" fill="#E0E0E0"/>
<path d="M326.635 79.3053L315.592 82.6721C314.96 82.8645 314.294 82.5089 314.101 81.8785C313.909 81.2481 314.264 80.5804 314.895 80.3879L325.938 77.0211C326.569 76.8287 327.236 77.1843 327.428 77.8147C327.621 78.446 327.266 79.1128 326.635 79.3053Z" fill="#E0E0E0"/>
<path d="M309.838 73.4437C309.443 73.5641 308.997 73.4762 308.674 73.1744C308.192 72.7246 308.166 71.969 308.616 71.4867L316.496 63.0503C316.943 62.5687 317.701 62.5426 318.184 62.9925C318.665 63.4423 318.691 64.1979 318.241 64.6802L310.361 73.1166C310.214 73.2758 310.032 73.3843 309.838 73.4437Z" fill="#E0E0E0"/>
<path d="M300.237 68.3306C300.043 68.39 299.831 68.4003 299.621 68.352C298.977 68.2031 298.578 67.5615 298.726 66.9192L301.333 55.6728C301.482 55.0297 302.124 54.6298 302.766 54.7787C303.409 54.9276 303.809 55.5691 303.66 56.2114L301.053 67.4578C300.953 67.8886 300.631 68.2102 300.237 68.3306Z" fill="#E0E0E0"/>
<path d="M255.727 107.413C258.004 104.524 258.091 102.716 259.866 101.301C261.641 99.8846 263.429 99.7936 266.07 100.551C268.062 101.123 270.398 100.837 271.205 101.577C271.434 101.73 271.076 103.011 270.141 103.47C269.016 104.022 267.198 103.887 265.857 103.895C262.804 103.911 265.307 106.906 262.368 109.944C261.119 112.123 255.727 107.413 255.727 107.413Z" fill="#FFA8A7"/>
<path d="M325.67 153.24L353.688 135.297L366.03 139.259L325.67 153.24Z" fill="#0085F2"/>
<path d="M325.67 153.24L349.886 133.045L344.504 126.831L325.67 153.24Z" fill="#0085F2"/>
<path d="M349.886 133.045V137.731L325.67 153.24L349.886 133.045Z" fill="#0085F2"/>
<path opacity="0.25" d="M349.886 133.045V137.731L325.67 153.24L349.886 133.045Z" fill="black"/>
<path d="M355.632 130.333C355.41 130.333 355.189 130.24 355.033 130.059C354.747 129.728 354.783 129.227 355.114 128.942C355.602 128.519 356.081 128.085 356.55 127.636C356.866 127.335 357.367 127.346 357.67 127.662C357.972 127.978 357.96 128.48 357.644 128.782C357.156 129.248 356.659 129.701 356.15 130.141C356 130.27 355.815 130.333 355.632 130.333Z" fill="#E0E0E0"/>
<path d="M359.8 126.18C359.614 126.18 359.428 126.115 359.278 125.983C358.949 125.695 358.916 125.195 359.204 124.866C360.033 123.92 360.842 122.914 361.61 121.876C361.869 121.524 362.365 121.449 362.717 121.709C363.068 121.969 363.144 122.465 362.884 122.816C362.09 123.891 361.252 124.932 360.395 125.91C360.239 126.088 360.02 126.18 359.8 126.18ZM364.443 119.909C364.299 119.909 364.154 119.87 364.024 119.788C363.653 119.557 363.54 119.068 363.772 118.697C364.441 117.628 365.086 116.506 365.69 115.361C365.894 114.975 366.373 114.827 366.761 115.03C367.147 115.235 367.296 115.714 367.092 116.101C366.469 117.279 365.805 118.435 365.116 119.537C364.964 119.777 364.706 119.909 364.443 119.909ZM368.089 113.007C367.982 113.007 367.873 112.986 367.77 112.94C367.37 112.763 367.189 112.295 367.366 111.895C367.879 110.733 368.364 109.53 368.804 108.32C368.954 107.91 369.408 107.699 369.819 107.847C370.23 107.997 370.442 108.452 370.292 108.863C369.84 110.105 369.343 111.34 368.814 112.535C368.683 112.831 368.393 113.007 368.089 113.007ZM370.767 105.671C370.693 105.671 370.618 105.661 370.544 105.639C370.125 105.517 369.884 105.076 370.006 104.656C370.365 103.432 370.69 102.176 370.973 100.922C371.069 100.495 371.49 100.227 371.919 100.323C372.346 100.419 372.614 100.843 372.518 101.27C372.228 102.556 371.894 103.845 371.527 105.102C371.426 105.447 371.11 105.671 370.767 105.671ZM372.483 98.0512C372.442 98.0512 372.4 98.048 372.358 98.0409C371.925 97.972 371.632 97.5657 371.7 97.134C371.902 95.8716 372.066 94.5846 372.188 93.3063C372.229 92.8707 372.626 92.5396 373.052 92.5943C373.488 92.6363 373.806 93.0228 373.764 93.4584C373.639 94.7683 373.471 96.0894 373.264 97.3835C373.202 97.7732 372.865 98.0512 372.483 98.0512ZM373.224 90.2745C373.216 90.2745 373.207 90.2745 373.199 90.2745C372.762 90.2603 372.419 89.8952 372.431 89.458C372.45 88.8481 372.46 88.2375 372.46 87.6277C372.46 86.9521 372.448 86.2773 372.425 85.6025C372.409 85.1653 372.751 84.7978 373.189 84.7836C373.641 84.7503 373.993 85.1099 374.007 85.5471C374.032 86.2401 374.044 86.9339 374.044 87.6277C374.044 88.2541 374.034 88.8806 374.015 89.5071C374.001 89.9355 373.65 90.2745 373.224 90.2745ZM372.947 82.4686C372.545 82.4686 372.203 82.1652 372.16 81.7581C372.028 80.4767 371.85 79.1936 371.631 77.9439C371.555 77.513 371.843 77.102 372.275 77.0267C372.713 76.9515 373.115 77.2406 373.192 77.6706C373.417 78.9576 373.6 80.2787 373.737 81.5966C373.782 82.0322 373.465 82.421 373.029 82.4662C373.001 82.467 372.974 82.4686 372.947 82.4686ZM371.594 74.7751C371.241 74.7751 370.919 74.5359 370.827 74.1771C370.512 72.9305 370.147 71.6887 369.742 70.4872C369.602 70.073 369.824 69.6231 370.239 69.4837C370.653 69.3412 371.102 69.5685 371.243 69.9811C371.661 71.2206 372.038 72.502 372.363 73.789C372.47 74.2128 372.213 74.6436 371.789 74.7513C371.724 74.768 371.658 74.7751 371.594 74.7751ZM369.094 67.3778C368.787 67.3778 368.496 67.1988 368.367 66.8994C367.858 65.7201 367.296 64.5567 366.697 63.4431C366.49 63.0582 366.635 62.5775 367.02 62.3708C367.404 62.1641 367.885 62.3082 368.092 62.6931C368.712 63.8471 369.294 65.0517 369.821 66.2722C369.994 66.6745 369.809 67.1402 369.408 67.3129C369.305 67.3572 369.199 67.3778 369.094 67.3778ZM365.394 60.5072C365.136 60.5072 364.884 60.3821 364.732 60.1508C364.028 59.084 363.27 58.0417 362.478 57.0525C362.204 56.7111 362.259 56.213 362.6 55.9397C362.943 55.6665 363.441 55.7219 363.713 56.0625C364.537 57.0897 365.324 58.1724 366.053 59.2804C366.294 59.6455 366.194 60.1365 365.828 60.3773C365.695 60.4644 365.543 60.5072 365.394 60.5072ZM360.52 54.412C360.311 54.412 360.102 54.3296 359.946 54.1664C359.079 53.2572 358.151 52.3544 357.188 51.4832C356.864 51.1893 356.839 50.6888 357.132 50.3641C357.425 50.0401 357.927 50.0156 358.251 50.3078C359.243 51.2052 360.199 52.1358 361.093 53.0727C361.395 53.3895 361.383 53.8908 361.067 54.1926C360.913 54.3399 360.716 54.412 360.52 54.412ZM354.731 49.1681C354.559 49.1681 354.386 49.1127 354.242 48.9979C353.251 48.2169 352.206 47.4455 351.138 46.705C350.778 46.4555 350.689 45.9621 350.937 45.6026C351.185 45.243 351.679 45.1535 352.04 45.4022C353.135 46.1609 354.205 46.9521 355.222 47.7536C355.566 48.0245 355.624 48.5227 355.354 48.8656C355.197 49.0644 354.965 49.1681 354.731 49.1681ZM348.313 44.7155C348.172 44.7155 348.03 44.6783 347.9 44.5991C346.819 43.9386 345.691 43.2915 344.548 42.6737C344.163 42.4662 344.019 41.9855 344.228 41.6014C344.435 41.2172 344.917 41.0707 345.3 41.2806C346.468 41.911 347.621 42.5724 348.726 43.2471C349.099 43.4752 349.217 43.9623 348.989 44.3361C348.839 44.5809 348.579 44.7155 348.313 44.7155ZM341.438 41.0018C341.325 41.0018 341.208 40.9773 341.098 40.9242C339.941 40.3738 338.752 39.8423 337.565 39.3465C337.161 39.1778 336.971 38.7137 337.14 38.3098C337.309 37.9051 337.774 37.7158 338.177 37.8845C339.387 38.3914 340.6 38.9323 341.779 39.4946C342.175 39.6824 342.343 40.1552 342.154 40.5496C342.018 40.8355 341.734 41.0018 341.438 41.0018ZM261.466 39.0337C261.141 39.0337 260.835 38.8317 260.721 38.5086C260.573 38.096 260.788 37.643 261.199 37.4964C262.438 37.0529 263.691 36.6268 264.922 36.2308C265.344 36.0986 265.785 36.3259 265.919 36.7424C266.053 37.159 265.824 37.6057 265.408 37.7396C264.193 38.13 262.956 38.5498 261.732 38.9878C261.645 39.0195 261.555 39.0337 261.466 39.0337ZM334.233 37.9803C334.143 37.9803 334.051 37.9645 333.961 37.932C332.77 37.4956 331.536 37.0751 330.294 36.6807C329.877 36.5484 329.647 36.1033 329.779 35.6859C329.911 35.2701 330.357 35.0365 330.774 35.1711C332.038 35.5727 333.294 36.0011 334.506 36.4439C334.916 36.5943 335.127 37.0497 334.978 37.46C334.86 37.7816 334.556 37.9803 334.233 37.9803ZM268.904 36.6411C268.56 36.6411 268.243 36.4154 268.143 36.0677C268.023 35.6471 268.265 35.2083 268.685 35.088C269.93 34.7308 271.209 34.3862 272.484 34.0655C272.909 33.9594 273.34 34.216 273.446 34.6405C273.553 35.065 273.295 35.495 272.871 35.602C271.611 35.918 270.351 36.2577 269.123 36.6102C269.049 36.6308 268.976 36.6411 268.904 36.6411ZM326.785 35.617C326.716 35.617 326.647 35.6083 326.577 35.5893C325.357 35.2582 324.091 34.943 322.816 34.6524C322.39 34.5557 322.123 34.1312 322.22 33.7043C322.317 33.279 322.734 33.0082 323.168 33.1088C324.464 33.4042 325.75 33.7241 326.991 34.0615C327.413 34.1764 327.663 34.6104 327.548 35.0333C327.453 35.385 327.133 35.617 326.785 35.617ZM276.484 34.7355C276.119 34.7355 275.791 34.4821 275.71 34.1106C275.618 33.6837 275.89 33.2624 276.317 33.1697C277.598 32.8925 278.895 32.6351 280.172 32.4031C280.609 32.3247 281.015 32.6122 281.093 33.0414C281.171 33.4723 280.885 33.8841 280.455 33.9625C279.194 34.1906 277.915 34.4449 276.651 34.7181C276.595 34.73 276.539 34.7355 276.484 34.7355ZM319.166 33.8833C319.118 33.8833 319.07 33.8794 319.021 33.8699C317.774 33.6378 316.487 33.4248 315.195 33.2355C314.762 33.1721 314.463 32.7698 314.526 32.3373C314.588 31.9041 314.988 31.5984 315.424 31.6681C316.736 31.8598 318.044 32.0768 319.31 32.312C319.74 32.392 320.023 32.8054 319.944 33.2355C319.873 33.6172 319.54 33.8833 319.166 33.8833ZM284.165 33.3432C283.779 33.3432 283.44 33.0596 283.383 32.666C283.32 32.2328 283.619 31.8313 284.052 31.7679C285.353 31.5778 286.664 31.4091 287.952 31.265C288.384 31.2214 288.778 31.5295 288.827 31.9651C288.875 32.3999 288.562 32.7912 288.127 32.8395C286.857 32.9812 285.564 33.1476 284.282 33.3345C284.242 33.3408 284.203 33.3432 284.165 33.3432ZM311.433 32.7571C311.405 32.7571 311.377 32.7555 311.348 32.7524C310.087 32.6177 308.787 32.5045 307.485 32.4134C307.049 32.3825 306.719 32.0039 306.749 31.5683C306.78 31.1319 307.163 30.8167 307.594 30.8325C308.916 30.9244 310.236 31.0408 311.516 31.1771C311.951 31.2238 312.266 31.6135 312.22 32.0491C312.177 32.4554 311.833 32.7571 311.433 32.7571ZM291.926 32.4807C291.515 32.4807 291.169 32.1647 291.137 31.7481C291.104 31.3117 291.431 30.9323 291.868 30.8991C293.178 30.8001 294.499 30.7225 295.793 30.6702C296.232 30.625 296.6 30.9917 296.616 31.4289C296.635 31.8661 296.295 32.2352 295.858 32.2526C294.582 32.3041 293.28 32.3809 291.986 32.4783C291.967 32.4799 291.947 32.4807 291.926 32.4807ZM303.637 32.2185C303.628 32.2185 303.619 32.2185 303.611 32.2178C302.479 32.1821 301.34 32.1647 300.224 32.1647L299.735 32.1655C299.733 32.1655 299.732 32.1655 299.731 32.1655C299.295 32.1655 298.941 31.8138 298.939 31.3774C298.936 30.9395 299.289 30.5839 299.727 30.5815L300.224 30.5807C301.357 30.5807 302.513 30.5989 303.661 30.6353C304.098 30.6488 304.441 31.0147 304.429 31.4511C304.414 31.8796 304.062 32.2185 303.637 32.2185Z" fill="#E0E0E0"/>
<path d="M255.9 41.176C255.589 41.176 255.293 40.9915 255.167 40.6858C255.001 40.2811 255.193 39.8178 255.598 39.6514C256.214 39.398 256.832 39.1485 257.447 38.9062C257.855 38.7486 258.314 38.9466 258.475 39.3521C258.635 39.7592 258.435 40.2193 258.029 40.3801C257.42 40.6201 256.811 40.8656 256.202 41.1166C256.103 41.157 256 41.176 255.9 41.176Z" fill="#E0E0E0"/>
<path d="M79.5508 113.383L115.971 95.531L89.705 120.507L79.5508 113.383Z" fill="#0085F2"/>
<path d="M115.971 95.531L75.8136 108.742L65.6602 101.617L115.971 95.531Z" fill="#0085F2"/>
<path d="M75.8145 108.742L77.4016 118.939L79.5519 113.383L115.972 95.531L75.8145 108.742Z" fill="#0085F2"/>
<path opacity="0.25" d="M75.8145 108.742L77.4016 118.939L79.5519 113.383L115.972 95.531L75.8145 108.742Z" fill="black"/>
<path d="M77.4004 118.939L82.9349 115.757L79.5507 113.383L77.4004 118.939Z" fill="#0085F2"/>
<path opacity="0.25" d="M79.5508 113.383L82.935 115.757L82.0519 116.265L79.5508 113.383Z" fill="black"/>
<path d="M82.288 220.279C82.1993 220.279 82.1082 220.264 82.0203 220.232C80.7357 219.77 79.4819 219.298 78.2931 218.827C77.8861 218.666 77.6873 218.206 77.8488 217.799C78.0096 217.392 78.4705 217.195 78.8768 217.355C80.0498 217.82 81.2877 218.286 82.5565 218.742C82.9683 218.89 83.1822 219.344 83.0348 219.755C82.9176 220.078 82.6127 220.279 82.288 220.279ZM74.9327 217.359C74.8266 217.359 74.718 217.337 74.6151 217.291C73.3819 216.749 72.1646 216.185 70.9964 215.612C70.6036 215.42 70.4412 214.946 70.6329 214.553C70.8254 214.161 71.2998 213.997 71.6926 214.189C72.8426 214.752 74.0401 215.308 75.2526 215.842C75.6534 216.018 75.8348 216.486 75.6589 216.885C75.5283 217.182 75.2368 217.359 74.9327 217.359ZM67.8308 213.871C67.7025 213.871 67.5718 213.84 67.4515 213.773C66.2737 213.129 65.1103 212.452 63.996 211.766C63.6229 211.536 63.5081 211.048 63.737 210.676C63.9659 210.304 64.4537 210.186 64.8268 210.417C65.9189 211.091 67.0578 211.752 68.2126 212.384C68.5959 212.595 68.7369 213.076 68.5262 213.459C68.3821 213.723 68.1104 213.871 67.8308 213.871ZM61.102 209.714C60.946 209.714 60.7884 209.667 60.6498 209.571C59.5433 208.799 58.4623 207.994 57.4374 207.178C57.0945 206.906 57.0382 206.408 57.3107 206.066C57.5823 205.724 58.0805 205.666 58.4226 205.94C59.4222 206.734 60.4763 207.519 61.5558 208.271C61.9146 208.522 62.0017 209.015 61.7522 209.375C61.5986 209.596 61.3523 209.714 61.102 209.714ZM54.9188 204.787C54.728 204.787 54.5363 204.718 54.3842 204.579C53.3903 203.671 52.428 202.723 51.5235 201.764C51.2234 201.446 51.2384 200.945 51.556 200.644C51.8736 200.343 52.3749 200.36 52.6759 200.677C53.5534 201.608 54.488 202.527 55.4534 203.409C55.7758 203.705 55.7988 204.206 55.5033 204.528C55.3473 204.7 55.1335 204.787 54.9188 204.787ZM49.5008 199.034C49.2687 199.034 49.0398 198.934 48.8838 198.739C48.0459 197.699 47.2412 196.612 46.4912 195.508C46.2457 195.146 46.3407 194.653 46.7026 194.407C47.0638 194.16 47.5564 194.256 47.8035 194.618C48.5282 195.687 49.3059 196.74 50.1169 197.746C50.3918 198.086 50.3379 198.585 49.9974 198.858C49.8508 198.977 49.675 199.034 49.5008 199.034ZM45.0656 192.492C44.7884 192.492 44.5207 192.347 44.3749 192.088C43.7239 190.934 43.1077 189.729 42.5454 188.508C42.3625 188.111 42.5359 187.641 42.9335 187.458C43.3295 187.274 43.8007 187.449 43.9837 187.846C44.5286 189.027 45.1234 190.193 45.7538 191.31C45.9685 191.69 45.8346 192.174 45.4529 192.389C45.3309 192.459 45.197 192.492 45.0656 192.492ZM41.7518 185.314C41.4303 185.314 41.127 185.116 41.0089 184.797C40.5528 183.564 40.1322 182.281 39.7568 180.983C39.6356 180.563 39.878 180.124 40.2985 180.003C40.7191 179.884 41.1578 180.124 41.279 180.544C41.6433 181.806 42.052 183.052 42.4939 184.249C42.646 184.659 42.4369 185.115 42.0259 185.266C41.9364 185.299 41.8437 185.314 41.7518 185.314ZM39.5477 177.718C39.1834 177.718 38.8555 177.466 38.7747 177.095C38.4967 175.818 38.2496 174.493 38.0389 173.156C37.9716 172.724 38.2662 172.319 38.6987 172.25C39.1311 172.185 39.5358 172.478 39.6047 172.91C39.8099 174.216 40.0514 175.51 40.3231 176.757C40.4157 177.185 40.1449 177.606 39.7172 177.699C39.661 177.713 39.6031 177.718 39.5477 177.718ZM38.3114 169.9C37.9106 169.9 37.5669 169.597 37.5249 169.191C37.3903 167.913 37.2818 166.572 37.2018 165.208C37.1757 164.772 37.5091 164.397 37.9455 164.371C38.3803 164.36 38.7557 164.679 38.7826 165.115C38.8618 166.455 38.968 167.771 39.0994 169.025C39.1454 169.461 38.8294 169.85 38.3946 169.896C38.366 169.898 38.3383 169.9 38.3114 169.9ZM37.8996 161.995C37.8948 161.995 37.89 161.995 37.8853 161.995C37.4473 161.987 37.0996 161.626 37.1076 161.189C37.1313 159.855 37.2113 158.504 37.3459 157.172C37.3903 156.737 37.7752 156.427 38.214 156.463C38.6496 156.507 38.9664 156.895 38.9228 157.331C38.7921 158.619 38.7145 159.927 38.6923 161.216C38.6836 161.65 38.3304 161.995 37.8996 161.995ZM38.69 154.122C38.6425 154.122 38.5949 154.118 38.5458 154.109C38.1158 154.03 37.8314 153.618 37.9099 153.187C38.1506 151.876 38.4476 150.556 38.7929 149.263C38.9062 148.84 39.3473 148.588 39.7623 148.702C40.1853 148.815 40.4363 149.248 40.3231 149.671C39.9881 150.924 39.7006 152.203 39.4677 153.474C39.398 153.855 39.0654 154.122 38.69 154.122ZM40.731 146.476C40.6438 146.476 40.5543 146.462 40.4672 146.43C40.0546 146.285 39.8384 145.832 39.9849 145.421C40.4284 144.164 40.9297 142.907 41.4754 141.684C41.6536 141.285 42.1193 141.103 42.5209 141.283C42.92 141.461 43.0998 141.929 42.9216 142.329C42.3942 143.513 41.9087 144.731 41.4778 145.947C41.363 146.274 41.0573 146.476 40.731 146.476ZM43.9512 139.249C43.8237 139.249 43.6938 139.218 43.5734 139.154C43.1893 138.944 43.0468 138.464 43.2559 138.08C43.8958 136.904 44.5888 135.742 45.3166 134.625C45.555 134.258 46.0445 134.155 46.4128 134.394C46.7795 134.633 46.8832 135.123 46.644 135.49C45.9384 136.572 45.2675 137.698 44.6482 138.837C44.504 139.1 44.2316 139.249 43.9512 139.249ZM48.2716 132.62C48.1029 132.62 47.9318 132.566 47.7885 132.454C47.4416 132.186 47.3782 131.689 47.6459 131.344C48.464 130.286 49.3344 129.248 50.2326 128.262C50.5272 127.941 51.0277 127.915 51.3517 128.21C51.6748 128.505 51.6986 129.006 51.4032 129.33C50.5335 130.284 49.6909 131.288 48.8989 132.312C48.742 132.514 48.5084 132.62 48.2716 132.62ZM53.601 126.775C53.3887 126.775 53.178 126.69 53.022 126.523C52.7234 126.204 52.7416 125.702 53.0616 125.404C54.0405 124.49 55.0677 123.608 56.114 122.782C56.4585 122.51 56.9559 122.568 57.2259 122.912C57.4976 123.256 57.4398 123.754 57.0961 124.024C56.0839 124.824 55.0899 125.678 54.1419 126.562C53.9882 126.704 53.7942 126.775 53.601 126.775ZM59.8079 121.871C59.552 121.871 59.2994 121.747 59.1473 121.517C58.905 121.153 59.004 120.661 59.3683 120.419C60.4779 119.681 61.6342 118.979 62.8056 118.33C63.1873 118.119 63.6704 118.256 63.8819 118.64C64.0942 119.022 63.9556 119.505 63.5722 119.716C62.4381 120.344 61.319 121.024 60.245 121.738C60.1112 121.828 59.9583 121.871 59.8079 121.871ZM66.7276 118.039C66.4258 118.039 66.1375 117.865 66.0053 117.573C65.8247 117.175 66.0021 116.705 66.4005 116.525C67.6122 115.977 68.8652 115.468 70.1237 115.013C70.5339 114.864 70.9893 115.077 71.1374 115.489C71.2863 115.901 71.0733 116.355 70.6614 116.503C69.4417 116.944 68.2276 117.438 67.0523 117.969C66.9477 118.017 66.8369 118.039 66.7276 118.039Z" fill="#E0E0E0"/>
<path d="M265.34 328.981C265.344 328.689 265.209 328.454 264.935 328.274C264.472 327.912 263.885 327.741 263.188 327.76C262.487 327.78 261.877 327.928 261.354 328.204L258.166 329.894C258.428 329.422 258.624 328.938 258.742 328.442C258.835 328.05 258.878 327.654 258.868 327.254C258.852 326.588 258.866 322.894 258.869 322.546C258.875 321.832 258.717 321.104 258.394 320.362C257.911 319.26 256.966 318.193 255.56 317.158C254.587 316.41 253.419 315.589 252.055 314.696C250.692 313.802 249.449 313.045 248.328 312.422C245.435 310.864 242.31 309.619 238.952 308.684C235.592 307.749 231.98 307.298 228.123 307.328C224.266 307.359 220.159 307.945 215.803 309.084C211.448 310.221 206.851 312.072 202.012 314.637C197.884 316.825 194.765 319.098 192.66 321.455C190.552 323.812 189.276 326.141 188.832 328.434C188.695 329.144 188.632 329.846 188.64 330.54C188.65 331.318 188.635 334.651 188.637 335.319C188.64 336.897 189.015 338.434 189.761 339.93C190.824 342.061 192.462 343.99 194.673 345.72C195.139 346.081 195.816 346.566 196.704 347.174C197.587 347.782 198.534 348.415 199.542 349.076C200.55 349.736 201.528 350.365 202.48 350.959C203.435 351.555 204.211 352.022 204.809 352.358C207.582 353.838 210.724 354.995 214.23 355.828C217.734 356.664 221.426 357.072 225.306 357.053C229.182 357.035 233.19 356.525 237.33 355.526C241.466 354.525 245.601 352.933 249.729 350.746C253.049 348.986 255.7 347.321 257.687 345.755C259.671 344.187 261.203 342.72 262.288 341.349C263.372 339.979 264.107 338.675 264.495 337.44C264.883 336.205 265.161 335.051 265.328 333.979C265.336 333.928 265.34 333.878 265.34 333.83C265.341 333.541 265.339 329.026 265.34 328.981ZM253.462 334.671C253.037 335.294 252.432 335.978 251.643 336.725C250.848 337.471 249.822 338.275 248.56 339.133C247.292 339.99 245.688 340.935 243.743 341.966C240.992 343.424 238.198 344.518 235.363 345.249C232.529 345.978 229.747 346.376 227.014 346.442C224.286 346.51 221.654 346.276 219.123 345.744C216.594 345.212 214.24 344.399 212.059 343.307C211.41 342.996 210.64 342.561 209.748 342.005C208.855 341.448 207.943 340.866 207.014 340.257C206.086 339.649 205.209 339.061 204.383 338.491C203.557 337.922 202.933 337.445 202.516 337.058C200.904 335.665 199.762 334.187 199.089 332.622C199.012 332.444 198.945 332.265 198.882 332.086C199.362 330.713 200.259 329.345 201.579 327.98C203.107 326.397 205.248 324.875 208 323.416C211.272 321.681 214.384 320.361 217.335 319.452C218.969 318.95 220.558 318.579 222.111 318.314L221.294 318.747C220.772 319.023 220.48 319.366 220.417 319.775C220.355 320.183 220.54 320.528 220.974 320.812L221.508 321.162C220.14 320.998 218.733 321.006 217.29 321.185C215.846 321.365 214.154 321.969 212.211 323C210.454 323.931 209.173 324.962 208.366 326.092C207.659 327.08 207.309 328.096 207.311 329.14C207.311 329.289 207.313 333.198 207.312 334.002C207.312 334.15 207.319 334.298 207.334 334.447C207.449 335.648 207.99 336.873 208.95 338.12C209.908 339.368 211.301 340.585 213.118 341.776C214.935 342.967 216.857 343.903 218.885 344.583C220.912 345.265 222.968 345.685 225.056 345.843C227.14 346.002 229.185 345.89 231.179 345.512C233.177 345.133 235.053 344.478 236.808 343.548C238.279 342.769 239.415 342.05 240.213 341.392C241.012 340.734 241.584 340.126 241.931 339.568C242.277 339.008 242.468 338.487 242.499 338.002C242.534 337.518 242.539 337.044 242.525 336.584C243.861 336.672 245.47 336.558 247.349 336.241C249.222 335.925 251.35 335.138 253.721 333.882C253.847 333.815 253.962 333.742 254.085 333.673C253.898 333.996 253.694 334.328 253.462 334.671ZM225.196 329.999C227.16 330.246 229.114 331.002 231.048 332.269C231.754 332.732 232.339 333.184 232.814 333.628C232.54 333.823 232.237 334.016 231.886 334.202C230.222 335.083 228.411 335.412 226.444 335.189C224.475 334.969 222.522 334.224 220.586 332.956C219.86 332.481 219.257 332.01 218.778 331.546C219.027 331.367 219.3 331.192 219.617 331.024C221.371 330.096 223.232 329.753 225.196 329.999ZM247.273 325.31C246.432 325.676 245.491 325.891 244.436 325.936C243.187 325.99 242.086 325.704 241.137 325.084L230.416 318.062C231.496 318.188 232.568 318.36 233.627 318.613C236.186 319.222 238.694 320.164 241.154 321.435C242.323 322.033 243.491 322.713 244.656 323.477C245.597 324.094 246.458 324.703 247.273 325.31Z" fill="#27DEBF"/>
<path opacity="0.2" d="M265.34 328.981C265.344 328.689 265.209 328.454 264.935 328.274C264.472 327.912 263.885 327.741 263.188 327.76C262.487 327.78 261.877 327.928 261.354 328.204L258.166 329.894C258.428 329.422 258.624 328.938 258.742 328.442C258.835 328.05 258.878 327.654 258.868 327.254C258.852 326.588 258.866 322.894 258.869 322.546C258.875 321.832 258.717 321.104 258.394 320.362C257.911 319.26 256.966 318.193 255.56 317.158C254.587 316.41 253.419 315.589 252.055 314.696C250.692 313.802 249.449 313.045 248.328 312.422C245.435 310.864 242.31 309.619 238.952 308.684C235.592 307.749 231.98 307.298 228.123 307.328C224.266 307.359 220.159 307.945 215.803 309.084C211.448 310.221 206.851 312.072 202.012 314.637C197.884 316.825 194.765 319.098 192.66 321.455C190.552 323.812 189.276 326.141 188.832 328.434C188.695 329.144 188.632 329.846 188.64 330.54C188.65 331.318 188.635 334.651 188.637 335.319C188.64 336.897 189.015 338.434 189.761 339.93C190.824 342.061 192.462 343.99 194.673 345.72C195.139 346.081 195.816 346.566 196.704 347.174C197.587 347.782 198.534 348.415 199.542 349.076C200.55 349.736 201.528 350.365 202.48 350.959C203.435 351.555 204.211 352.022 204.809 352.358C207.582 353.838 210.724 354.995 214.23 355.828C217.734 356.664 221.426 357.072 225.306 357.053C229.182 357.035 233.19 356.525 237.33 355.526C241.466 354.525 245.601 352.933 249.729 350.746C253.049 348.986 255.7 347.321 257.687 345.755C259.671 344.187 261.203 342.72 262.288 341.349C263.372 339.979 264.107 338.675 264.495 337.44C264.883 336.205 265.161 335.051 265.328 333.979C265.336 333.928 265.34 333.878 265.34 333.83C265.341 333.541 265.339 329.026 265.34 328.981ZM253.462 334.671C253.037 335.294 252.432 335.978 251.643 336.725C250.848 337.471 249.822 338.275 248.56 339.133C247.292 339.99 245.688 340.935 243.743 341.966C240.992 343.424 238.198 344.518 235.363 345.249C232.529 345.978 229.747 346.376 227.014 346.442C224.286 346.51 221.654 346.276 219.123 345.744C216.594 345.212 214.24 344.399 212.059 343.307C211.41 342.996 210.64 342.561 209.748 342.005C208.855 341.448 207.943 340.866 207.014 340.257C206.086 339.649 205.209 339.061 204.383 338.491C203.557 337.922 202.933 337.445 202.516 337.058C200.904 335.665 199.762 334.187 199.089 332.622C199.012 332.444 198.945 332.265 198.882 332.086C199.362 330.713 200.259 329.345 201.579 327.98C203.107 326.397 205.248 324.875 208 323.416C211.272 321.681 214.384 320.361 217.335 319.452C218.969 318.95 220.558 318.579 222.111 318.314L221.294 318.747C220.772 319.023 220.48 319.366 220.417 319.775C220.355 320.183 220.54 320.528 220.974 320.812L221.508 321.162C220.14 320.998 218.733 321.006 217.29 321.185C215.846 321.365 214.154 321.969 212.211 323C210.454 323.931 209.173 324.962 208.366 326.092C207.659 327.08 207.309 328.096 207.311 329.14C207.311 329.289 207.313 333.198 207.312 334.002C207.312 334.15 207.319 334.298 207.334 334.447C207.449 335.648 207.99 336.873 208.95 338.12C209.908 339.368 211.301 340.585 213.118 341.776C214.935 342.967 216.857 343.903 218.885 344.583C220.912 345.265 222.968 345.685 225.056 345.843C227.14 346.002 229.185 345.89 231.179 345.512C233.177 345.133 235.053 344.478 236.808 343.548C238.279 342.769 239.415 342.05 240.213 341.392C241.012 340.734 241.584 340.126 241.931 339.568C242.277 339.008 242.468 338.487 242.499 338.002C242.534 337.518 242.539 337.044 242.525 336.584C243.861 336.672 245.47 336.558 247.349 336.241C249.222 335.925 251.35 335.138 253.721 333.882C253.847 333.815 253.962 333.742 254.085 333.673C253.898 333.996 253.694 334.328 253.462 334.671ZM225.196 329.999C227.16 330.246 229.114 331.002 231.048 332.269C231.754 332.732 232.339 333.184 232.814 333.628C232.54 333.823 232.237 334.016 231.886 334.202C230.222 335.083 228.411 335.412 226.444 335.189C224.475 334.969 222.522 334.224 220.586 332.956C219.86 332.481 219.257 332.01 218.778 331.546C219.027 331.367 219.3 331.192 219.617 331.024C221.371 330.096 223.232 329.753 225.196 329.999ZM247.273 325.31C246.432 325.676 245.491 325.891 244.436 325.936C243.187 325.99 242.086 325.704 241.137 325.084L230.416 318.062C231.496 318.188 232.568 318.36 233.627 318.613C236.186 319.222 238.694 320.164 241.154 321.435C242.323 322.033 243.491 322.713 244.656 323.477C245.597 324.094 246.458 324.703 247.273 325.31Z" fill="black"/>
<path opacity="0.1" d="M198.881 332.086C199.362 330.713 200.257 329.345 201.577 327.98C203.105 326.397 205.247 324.875 207.998 323.416C211.27 321.681 214.381 320.361 217.333 319.452C218.967 318.95 220.556 318.579 222.109 318.314L224.993 316.786C225.513 316.51 226.123 316.373 226.821 316.379C227.513 316.387 228.079 316.532 228.513 316.816L230.417 318.062C231.496 318.188 232.568 318.36 233.628 318.613C236.187 319.222 238.695 320.164 241.154 321.435C242.324 322.033 243.491 322.713 244.656 323.477C245.598 324.093 246.459 324.703 247.274 325.309C247.428 325.242 247.586 325.179 247.733 325.102C248.681 324.598 249.233 323.99 249.389 323.275C249.542 322.562 249.034 321.766 247.865 320.887C246.893 320.138 245.823 319.382 244.656 318.618C243.491 317.855 242.324 317.175 241.154 316.577C238.695 315.305 236.187 314.364 233.628 313.755C231.065 313.145 228.444 312.907 225.772 313.037C223.095 313.168 220.279 313.688 217.333 314.594C214.382 315.504 211.27 316.823 207.998 318.558C205.247 320.016 203.105 321.539 201.577 323.122C200.046 324.705 199.082 326.293 198.68 327.886C198.282 329.481 198.416 331.058 199.088 332.622C199.011 332.443 198.944 332.265 198.881 332.086Z" fill="black"/>
<path opacity="0.1" d="M231.049 327.411C229.114 326.144 227.16 325.387 225.197 325.141C223.233 324.895 221.372 325.238 219.617 326.167C217.953 327.048 217.219 328.081 217.405 329.27C217.522 330.016 217.982 330.777 218.786 331.553C218.783 331.551 218.781 331.549 218.778 331.547C219.028 331.368 219.3 331.193 219.617 331.025C221.371 330.096 223.232 329.753 225.196 329.999C227.159 330.246 229.114 331.002 231.049 332.269C231.755 332.732 232.339 333.184 232.814 333.628C232.681 333.723 232.541 333.817 232.393 333.91C233.788 333.056 234.418 332.113 234.267 331.08C234.094 329.93 233.026 328.707 231.049 327.411Z" fill="black"/>
<path opacity="0.1" d="M225.054 340.984C222.966 340.826 220.91 340.406 218.883 339.724C216.855 339.044 214.933 338.107 213.116 336.917C211.299 335.726 209.906 334.509 208.948 333.261C207.989 332.014 207.447 330.789 207.332 329.588C207.309 329.352 207.317 329.119 207.33 328.885C207.325 328.97 207.309 329.054 207.309 329.139C207.309 329.288 207.31 333.198 207.309 334.001C207.309 334.15 207.317 334.298 207.331 334.447C207.447 335.647 207.988 336.872 208.947 338.119C209.906 339.367 211.298 340.585 213.115 341.775C214.932 342.966 216.855 343.902 218.882 344.583C220.91 345.264 222.965 345.684 225.053 345.842L225.054 340.984Z" fill="black"/>
<path opacity="0.1" d="M242.523 331.724C242.538 332.185 242.533 332.658 242.498 333.142L242.523 336.583C243.86 336.67 245.468 336.556 247.347 336.24V331.381C245.469 331.698 243.86 331.813 242.523 331.724Z" fill="black"/>
<path opacity="0.1" d="M214.23 350.969C210.723 350.136 207.581 348.979 204.809 347.5C204.209 347.163 203.434 346.696 202.479 346.1C201.527 345.506 200.549 344.877 199.541 344.217C198.533 343.556 197.586 342.923 196.703 342.315C195.815 341.708 195.138 341.222 194.673 340.861C192.461 339.131 190.824 337.202 189.76 335.071C189.009 333.566 188.642 332.018 188.645 330.428C188.645 330.465 188.64 330.502 188.64 330.54C188.65 331.318 188.635 334.651 188.637 335.319C188.64 336.897 189.015 338.434 189.761 339.93C190.824 342.061 192.462 343.99 194.673 345.72C195.139 346.081 195.816 346.566 196.704 347.174C197.587 347.782 198.534 348.415 199.542 349.076C200.55 349.736 201.528 350.365 202.48 350.959C203.435 351.555 204.211 352.022 204.809 352.358C207.582 353.838 210.724 354.995 214.23 355.828C217.734 356.664 221.426 357.072 225.306 357.053V352.195C221.426 352.213 217.733 351.805 214.23 350.969Z" fill="black"/>
<path d="M255.562 317.159C256.968 318.194 257.912 319.262 258.396 320.363C258.876 321.467 258.993 322.541 258.742 323.585C258.493 324.63 257.925 325.623 257.04 326.559C256.156 327.497 255.045 328.317 253.719 329.022C251.348 330.279 249.22 331.067 247.346 331.382C245.468 331.699 243.859 331.813 242.522 331.725C242.537 332.185 242.532 332.658 242.497 333.142C242.465 333.628 242.275 334.15 241.929 334.709C241.583 335.268 241.01 335.876 240.211 336.533C239.413 337.19 238.276 337.909 236.806 338.69C235.051 339.619 233.174 340.274 231.177 340.653C229.183 341.031 227.138 341.143 225.054 340.984C222.965 340.826 220.91 340.407 218.883 339.725C216.855 339.044 214.933 338.107 213.115 336.917C211.299 335.727 209.906 334.509 208.948 333.261C207.989 332.015 207.447 330.789 207.331 329.589C207.213 328.387 207.556 327.221 208.364 326.091C209.17 324.962 210.451 323.931 212.208 322.999C214.151 321.969 215.843 321.365 217.287 321.184C218.73 321.006 220.137 320.998 221.505 321.162L220.971 320.812C220.537 320.527 220.352 320.182 220.414 319.774C220.478 319.366 220.77 319.023 221.291 318.746L224.992 316.785C225.512 316.51 226.122 316.373 226.82 316.379C227.512 316.386 228.078 316.531 228.512 316.815L241.136 325.083C242.084 325.704 243.187 325.989 244.435 325.935C245.684 325.882 246.782 325.605 247.732 325.101C248.68 324.597 249.232 323.989 249.387 323.275C249.54 322.561 249.032 321.765 247.864 320.886C246.891 320.138 245.821 319.381 244.654 318.618C243.489 317.854 242.322 317.175 241.152 316.576C238.693 315.304 236.186 314.363 233.626 313.754C231.063 313.144 228.442 312.906 225.77 313.037C223.092 313.167 220.277 313.688 217.331 314.594C214.38 315.502 211.268 316.822 207.996 318.558C205.245 320.016 203.104 321.538 201.575 323.121C200.044 324.704 199.08 326.292 198.678 327.886C198.28 329.48 198.414 331.058 199.086 332.621C199.758 334.186 200.901 335.664 202.513 337.057C202.931 337.444 203.554 337.921 204.38 338.491C205.206 339.06 206.083 339.649 207.011 340.256C207.94 340.865 208.853 341.447 209.745 342.004C210.637 342.561 211.407 342.995 212.056 343.307C214.237 344.398 216.592 345.212 219.12 345.743C221.651 346.276 224.283 346.509 227.011 346.442C229.744 346.375 232.526 345.978 235.36 345.248C238.195 344.519 240.989 343.424 243.74 341.965C245.686 340.935 247.29 339.989 248.557 339.132C249.82 338.275 250.846 337.471 251.641 336.725C252.429 335.977 253.035 335.293 253.46 334.671C253.88 334.049 254.225 333.458 254.486 332.898C254.694 332.415 254.879 332.047 255.049 331.792C255.22 331.539 255.564 331.272 256.088 330.996L261.353 328.205C261.876 327.929 262.485 327.781 263.186 327.761C263.883 327.742 264.469 327.913 264.933 328.275C265.249 328.481 265.381 328.763 265.326 329.121C265.159 330.192 264.881 331.346 264.493 332.582C264.104 333.816 263.369 335.12 262.286 336.49C261.201 337.861 259.669 339.329 257.684 340.896C255.698 342.463 253.046 344.127 249.726 345.887C245.598 348.076 241.464 349.667 237.328 350.668C233.189 351.667 229.18 352.176 225.305 352.195C221.425 352.214 217.733 351.806 214.229 350.97C210.723 350.137 207.581 348.98 204.808 347.501C204.209 347.164 203.433 346.697 202.479 346.101C201.527 345.507 200.549 344.878 199.54 344.218C198.532 343.557 197.586 342.924 196.704 342.316C195.815 341.709 195.139 341.223 194.673 340.862C192.462 339.132 190.824 337.203 189.76 335.072C188.699 332.944 188.389 330.732 188.833 328.436C189.275 326.141 190.551 323.813 192.66 321.456C194.766 319.099 197.885 316.826 202.012 314.638C206.852 312.073 211.448 310.222 215.803 309.085C220.16 307.946 224.266 307.361 228.124 307.329C231.981 307.299 235.593 307.75 238.953 308.685C242.311 309.62 245.435 310.866 248.328 312.423C249.451 313.046 250.693 313.803 252.056 314.697C253.42 315.59 254.588 316.41 255.562 317.159ZM220.588 332.957C222.524 334.225 224.477 334.97 226.445 335.19C228.413 335.412 230.223 335.084 231.887 334.202C233.642 333.273 234.437 332.232 234.268 331.08C234.095 329.93 233.027 328.706 231.05 327.411C229.115 326.144 227.161 325.388 225.198 325.141C223.234 324.895 221.373 325.238 219.618 326.167C217.955 327.048 217.22 328.081 217.406 329.27C217.591 330.461 218.651 331.689 220.588 332.957Z" fill="#27DEBF"/>
<path d="M256.668 295.579V296.161C256.668 297.093 257.322 298.226 258.129 298.692L289.475 316.789C290.282 317.255 291.59 317.255 292.397 316.789L344.304 286.82C345.111 286.355 345.765 285.221 345.765 284.29V283.707C345.765 282.775 345.111 281.642 344.304 281.176L312.958 263.079C312.151 262.613 310.842 262.613 310.035 263.079L258.129 293.047C257.322 293.514 256.668 294.647 256.668 295.579Z" fill="#27DEBF"/>
<path d="M256.668 295.579V296.161C256.668 297.093 257.322 298.226 258.129 298.692L289.475 316.789C290.282 317.255 291.59 317.255 292.397 316.789L344.304 286.82C345.111 286.355 345.765 285.221 345.765 284.29V283.707C345.765 282.775 345.111 281.642 344.304 281.176L312.958 263.079C312.151 262.613 310.842 262.613 310.035 263.079L258.129 293.047C257.322 293.514 256.668 294.647 256.668 295.579Z" fill="#27DEBF"/>
<path opacity="0.2" d="M290.936 274.107L258.129 293.049C257.322 293.514 256.668 294.648 256.668 295.579V296.161C256.668 297.094 257.322 298.226 258.129 298.692L289.475 316.789C289.878 317.022 290.407 317.138 290.935 317.138H290.936V274.107Z" fill="black"/>
<path opacity="0.15" d="M290.936 274.107L258.129 293.049C257.322 293.514 256.668 294.648 256.668 295.579V296.161C256.668 297.094 257.322 298.226 258.129 298.692L289.475 316.789C289.878 317.022 290.407 317.138 290.935 317.138H290.936V274.107Z" fill="black"/>
<path opacity="0.2" d="M344.304 281.177L312.958 263.08C312.151 262.615 310.842 262.615 310.035 263.08L290.936 274.107V317.14C291.465 317.14 291.994 317.023 292.398 316.791L344.304 286.822C345.111 286.356 345.765 285.223 345.765 284.292V283.709C345.766 282.776 345.111 281.644 344.304 281.177Z" fill="black"/>
<path d="M284.456 309.935L258.129 294.735C257.322 294.269 257.322 293.514 258.129 293.048L310.035 263.079C310.842 262.614 312.15 262.614 312.957 263.079L344.303 281.177C345.11 281.642 345.11 282.398 344.303 282.864L335.692 287.835L332.678 289.576L292.398 312.832C291.591 313.298 290.282 313.298 289.475 312.832L286.922 311.357L284.456 309.935Z" fill="#27DEBF"/>
<path opacity="0.15" d="M308.354 284.684L344.303 281.177L308.671 283.195L312.957 263.08C312.519 262.828 311.937 262.725 311.365 262.745L304.642 289.935L257.535 293.82C257.501 294.149 257.693 294.484 258.128 294.736L296.172 292.528L290.935 313.182L297.631 292.443L304.128 292.066C304.947 292.018 305.693 291.688 306.272 291.169L306.276 291.169L306.278 291.164C306.819 290.678 307.215 290.028 307.375 289.278L308.354 284.684Z" fill="black"/>
<path opacity="0.3" d="M268.776 292.894L304.644 289.935L305.928 284.796L306.637 281.935L311.372 262.745C310.886 262.763 310.407 262.866 310.036 263.08L284.083 278.064L258.13 293.048C257.759 293.263 257.566 293.539 257.537 293.82L264.732 293.227L268.776 292.894Z" fill="white"/>
</svg>
