<svg width="60" height="60" viewBox="0 0 60 60" fill="none" xmlns="http://www.w3.org/2000/svg">
<g clip-path="url(#clip0_608_11846)">
<rect width="66.4032" height="66.4032" transform="translate(-3.00977 -3.6123)" fill="#2C6483"/>
<g clip-path="url(#clip1_608_11846)">
<path d="M39.3986 43.4141C39.6558 43.4141 39.9097 43.5119 40.1027 43.6984C41.337 44.8902 43.1373 45.287 44.7378 44.7903C43.7078 42.6445 43.565 40.1862 44.3632 37.9099C45.3538 35.0779 45.6021 32.2394 44.4747 29.3925C43.4843 26.8916 41.5729 24.8138 39.154 23.6289C39.3028 24.4223 39.3778 25.2306 39.3778 26.0475C39.3779 29.515 38.0445 32.7762 35.6236 35.2306C33.2024 37.6852 29.9567 39.0655 26.4847 39.1171C25.8396 39.1272 25.1974 39.0892 24.5625 39.0055C26.4707 42.3503 30.0695 44.5287 34.0242 44.5874C35.7541 44.6141 37.4152 44.2517 38.9621 43.513C39.1014 43.4464 39.2506 43.4141 39.3986 43.4141Z" fill="white"/>
<path d="M26.5131 15.0022C20.3538 14.8799 15.2336 19.8627 15.2188 26.0207C15.2151 27.5253 15.5088 28.984 16.0918 30.3566C16.1002 30.3765 16.1081 30.3967 16.1152 30.4172C16.9134 32.6934 16.7708 35.1517 15.7407 37.2976C17.3413 37.7941 19.1414 37.3975 20.3757 36.2056C20.6798 35.9118 21.1348 35.8379 21.5163 36.0202C23.063 36.759 24.7243 37.1225 26.4542 37.0948C32.5654 37.004 37.3524 32.1517 37.3523 26.0479C37.3524 20.0774 32.4899 15.1224 26.5131 15.0022ZM20.3824 27.6979C19.4975 27.6979 18.7801 26.9817 18.7801 26.0983C18.7801 25.2148 19.4975 24.4986 20.3824 24.4986C21.2673 24.4986 21.9847 25.2148 21.9847 26.0983C21.9847 26.9817 21.2673 27.6979 20.3824 27.6979ZM26.2856 27.6979C25.4007 27.6979 24.6833 26.9817 24.6833 26.0983C24.6833 25.2148 25.4007 24.4986 26.2856 24.4986C27.1705 24.4986 27.8879 25.2148 27.8879 26.0983C27.8879 26.9817 27.1705 27.6979 26.2856 27.6979ZM32.1888 27.6979C31.3039 27.6979 30.5865 26.9817 30.5865 26.0983C30.5865 25.2148 31.3039 24.4986 32.1888 24.4986C33.0738 24.4986 33.7912 25.2148 33.7912 26.0983C33.7912 26.9817 33.0738 27.6979 32.1888 27.6979Z" fill="white"/>
</g>
</g>
<defs>
<clipPath id="clip0_608_11846">
<rect x="0.679688" y="0.0761719" width="59.0251" height="59.025" rx="29.5125" fill="white"/>
</clipPath>
<clipPath id="clip1_608_11846">
<rect width="30" height="30" fill="white" transform="translate(15.2188 15)"/>
</clipPath>
</defs>
</svg>
