<svg width="60" height="60" viewBox="0 0 60 60" fill="none" xmlns="http://www.w3.org/2000/svg">
<g clip-path="url(#clip0_608_11800)">
<rect width="66.4032" height="66.4032" transform="translate(-3.39453 -3.68945)" fill="#2C6483"/>
<path d="M21.7187 17V15.5H17.2187C16.3917 15.5 15.7188 16.173 15.7188 17V18.5H22.2317C21.9142 18.081 21.7187 17.565 21.7187 17Z" fill="white"/>
<path d="M24.2188 18.5C25.0458 18.5 25.7188 17.827 25.7188 17V15.5H22.7188V17C22.7188 17.827 23.3917 18.5 24.2188 18.5ZM23.7188 16.5H24.7188V17.5H23.7188V16.5Z" fill="white"/>
<path d="M24.7188 28.793L28.7188 24.793V24.5H19.4258L23.7188 28.793C23.9858 29.0605 24.4518 29.0605 24.7188 28.793Z" fill="white"/>
<path d="M25.7188 29.207L25.4258 29.5C25.1038 29.8225 24.6753 30 24.2188 30C23.7623 30 23.3338 29.8225 23.0113 29.5L22.7188 29.207L19.4258 32.5H29.0118L25.7188 29.207Z" fill="white"/>
<path d="M29.7188 29.427C29.1413 29.244 28.7188 28.7095 28.7188 28.0725V26.207L26.4258 28.4995L29.7188 31.7925V29.427Z" fill="white"/>
<path d="M34.2188 23.5C35.0472 23.5 35.7188 22.8284 35.7188 22C35.7188 21.1716 35.0472 20.5 34.2188 20.5C33.3903 20.5 32.7188 21.1716 32.7188 22C32.7188 22.8284 33.3903 23.5 34.2188 23.5Z" fill="white"/>
<path d="M40.2188 23.5C41.0472 23.5 41.7188 22.8284 41.7188 22C41.7188 21.1716 41.0472 20.5 40.2188 20.5C39.3903 20.5 38.7188 21.1716 38.7188 22C38.7188 22.8284 39.3903 23.5 40.2188 23.5Z" fill="white"/>
<path d="M28.7181 17.5C28.7181 16.9485 29.1666 16.5 29.7181 16.5H32.6261C32.4191 15.9195 31.8691 15.5 31.2181 15.5H26.7181V17C26.7181 17.565 26.5226 18.081 26.2051 18.5H28.7181V17.5Z" fill="white"/>
<path d="M31.4223 28.711C31.2703 29.015 31.0162 29.235 30.7188 29.3665V32C30.7188 32.827 30.0457 33.5 29.2188 33.5H19.2188C18.3917 33.5 17.7188 32.827 17.7188 32V25C17.7188 24.173 18.3917 23.5 19.2188 23.5H28.7188V19.5H15.7188V38.5H32.7188V27.5H32.0278L31.4223 28.711Z" fill="white"/>
<path d="M29.7188 17.5V28.073C29.7188 28.308 29.9103 28.5 30.1458 28.5C30.3088 28.5 30.4553 28.4095 30.5278 28.2635L31.4097 26.5H44.7188V17.5H29.7188ZM40.2188 24.5H34.2188C32.8403 24.5 31.7188 23.3785 31.7188 22C31.7188 20.6215 32.8403 19.5 34.2188 19.5C35.5972 19.5 36.7188 20.6215 36.7188 22C36.7188 22.565 36.5232 23.081 36.2057 23.5H38.2313C37.9143 23.081 37.7188 22.565 37.7188 22C37.7188 20.6215 38.8403 19.5 40.2188 19.5C41.5972 19.5 42.7188 20.6215 42.7188 22C42.7188 23.3785 41.5972 24.5 40.2188 24.5Z" fill="white"/>
<path d="M18.7188 31.793L22.0118 28.5L18.7188 25.207V31.793Z" fill="white"/>
<path d="M15.7188 43C15.7188 43.827 16.3917 44.5 17.2188 44.5H31.2188C32.0457 44.5 32.7188 43.827 32.7188 43V39.5H15.7188V43ZM28.2188 41H30.2188V43H28.2188V41ZM22.2188 41H26.2188V43H22.2188V41ZM18.2188 41H20.2188V43H18.2188V41Z" fill="white"/>
</g>
<defs>
<clipPath id="clip0_608_11800">
<rect x="0.296875" width="59.0251" height="59.025" rx="29.5125" fill="white"/>
</clipPath>
</defs>
</svg>
