<svg width="60" height="60" viewBox="0 0 60 60" fill="none" xmlns="http://www.w3.org/2000/svg">
<g clip-path="url(#clip0_608_11828)">
<rect width="66.4032" height="66.4032" transform="translate(-3.08594 -3.6377)" fill="#2C6483"/>
<path d="M29.8308 42.3456C29.9365 42.4432 30.0751 42.4975 30.219 42.4974C30.3629 42.4974 30.5016 42.4432 30.6073 42.3455C34.2624 38.8356 41.6834 30.7006 41.6304 25.6617C41.6334 24.1612 41.3404 22.6748 40.7683 21.2877C40.1961 19.9006 39.356 18.64 38.2961 17.5779C37.2362 16.5158 35.9772 15.6733 34.5912 15.0984C33.2052 14.5235 31.7195 14.2275 30.219 14.2275C28.7185 14.2275 27.2328 14.5235 25.8468 15.0983C24.4608 15.6732 23.2018 16.5158 22.1419 17.5779C21.0819 18.6399 20.2418 19.9006 19.6697 21.2877C19.0976 22.6748 18.8046 24.1611 18.8076 25.6616C18.7497 30.6919 26.179 38.845 29.8308 42.3456ZM25.3573 25.6616C25.6157 19.2173 34.8233 19.2191 35.0807 25.6617C35.0807 26.9511 34.5685 28.1876 33.6567 29.0994C32.745 30.0111 31.5084 30.5233 30.219 30.5233C28.9296 30.5233 27.693 30.0111 26.7813 29.0994C25.8695 28.1876 25.3573 26.951 25.3573 25.6616ZM42.6489 41.9347C42.6059 47.0219 17.8319 47.022 17.7891 41.9347C17.7891 40.1116 21.0021 39.0144 24.6371 38.491C24.8929 38.8002 25.2592 39.1965 25.5317 39.5039C21.0246 40.0441 18.9145 41.2145 18.9145 41.9347C18.9145 43.0376 23.3204 44.6357 30.219 44.6357C37.1177 44.6357 41.5236 43.0376 41.5236 41.9347C41.5236 41.2145 39.4135 40.0441 34.9063 39.5039L35.3002 39.065C35.469 38.8737 35.6378 38.6824 35.8009 38.491C39.4359 39.0144 42.6489 40.1116 42.6489 41.9347Z" fill="white"/>
</g>
<defs>
<clipPath id="clip0_608_11828">
<rect x="0.601562" y="0.0507812" width="59.0251" height="59.025" rx="29.5125" fill="white"/>
</clipPath>
</defs>
</svg>
