<svg width="500" height="494" viewBox="0 0 500 494" fill="none" xmlns="http://www.w3.org/2000/svg">
<path d="M426.195 246.211C328.248 189.662 169.962 189.663 72.6522 246.213C-24.6645 302.766 -24.1488 394.452 73.7982 451.002C171.752 507.554 330.037 507.554 427.353 450.999C524.665 394.45 524.149 302.765 426.195 246.211Z" fill="#F5F5F5"/>
<path d="M354.045 308.87C322.858 290.864 272.456 290.864 241.47 308.871C214.091 324.782 211.049 349.421 232.22 367.365C215.137 366.307 197.434 369.563 184.388 377.144C161.489 390.451 161.611 412.026 184.658 425.332C207.707 438.639 244.952 438.639 267.852 425.332C286.07 414.745 289.7 398.928 278.821 386.201C305.075 389.998 333.97 385.961 354.415 374.079C385.401 356.072 385.237 326.877 354.045 308.87Z" fill="#E6E6E6"/>
<path d="M412.353 412.176L358.102 380.854C356.503 379.931 356.499 377.623 358.096 376.695L405.91 348.908C406.655 348.476 407.573 348.474 408.319 348.905L463.777 380.924C465.376 381.847 465.379 384.155 463.782 385.082L417.171 412.17C415.682 413.035 413.844 413.037 412.353 412.176Z" fill="#E6E6E6"/>
<path d="M47.3695 346.426C44.7733 347.925 44.7667 350.351 47.3387 351.845L57.9231 357.952C60.5028 359.451 64.6814 359.451 67.2787 357.952L183.367 290.928C185.957 289.433 185.977 287.009 183.398 285.51L172.814 279.403C170.242 277.907 166.048 277.907 163.459 279.403L47.3695 346.426Z" fill="#E6E6E6"/>
<path d="M79.932 356.049C77.3358 357.548 77.3292 359.973 79.9012 361.468L90.4856 367.575C93.0653 369.073 97.2439 369.073 99.8401 367.575L198.979 310.31C201.569 308.816 201.589 306.39 199.01 304.892L188.426 298.785C185.854 297.289 181.66 297.289 179.07 298.785L79.932 356.049Z" fill="#E6E6E6"/>
<path d="M268.534 10.5541L272.646 8.16504L272.404 131.195L268.293 133.583L268.534 10.5541Z" fill="#F0F0F0"/>
<path d="M268.293 133.583L272.404 131.195L319.733 158.362L315.621 160.751L268.293 133.583Z" fill="#F5F5F5"/>
<path d="M263.819 2.38965L320.607 35.0188L320.334 168.918L263.547 136.29L263.819 2.38965ZM315.62 160.752L315.862 37.7219L268.533 10.5552L268.292 133.585L315.62 160.752Z" fill="#E0E0E0"/>
<path d="M263.818 2.38906L267.93 0L324.716 32.6281L320.606 35.0171L263.818 2.38906Z" fill="#F5F5F5"/>
<path d="M320.608 35.017L324.718 32.6279L324.447 166.528L320.336 168.917L320.608 35.017Z" fill="#F0F0F0"/>
<path d="M268.303 56.2201L272.414 53.8311L315.862 78.8214V83.5753L268.303 56.2201Z" fill="#F5F5F5"/>
<path d="M268.304 56.2197L315.863 83.5749V89.0043L268.295 61.6744L268.304 56.2197Z" fill="#E0E0E0"/>
<path d="M340.933 52.2074L345.043 49.8184L344.803 172.847L340.691 175.236L340.933 52.2074Z" fill="#F0F0F0"/>
<path d="M340.691 175.236L344.803 172.847L392.13 200.015L388.02 202.404L340.691 175.236Z" fill="#F5F5F5"/>
<path d="M336.216 44.042L393.003 76.67L392.731 210.57L335.943 177.942L336.216 44.042ZM388.017 202.404L388.258 79.3743L340.93 52.2076L340.688 175.237L388.017 202.404Z" fill="#E0E0E0"/>
<path d="M336.217 44.0424L340.327 41.6533L397.115 74.2814L393.003 76.6704L336.217 44.0424Z" fill="#F5F5F5"/>
<path d="M393.003 76.6703L397.115 74.2812L396.843 208.181L392.732 210.57L393.003 76.6703Z" fill="#F0F0F0"/>
<path d="M340.701 97.8715L344.813 95.4824L388.261 120.473V125.227L340.701 97.8715Z" fill="#F5F5F5"/>
<path d="M340.702 97.8711L388.262 125.226V130.656L340.693 103.325L340.702 97.8711Z" fill="#E0E0E0"/>
<path d="M413.334 93.8539L417.445 91.4648L417.205 214.495L413.094 216.884L413.334 93.8539Z" fill="#F0F0F0"/>
<path d="M413.094 216.883L417.205 214.494L464.532 241.661L460.421 244.05L413.094 216.883Z" fill="#F5F5F5"/>
<path d="M408.62 85.6894L465.407 118.317L465.135 252.217L408.348 219.589L408.62 85.6894ZM460.421 244.05L460.662 121.021L413.334 93.8538L413.094 216.884L460.421 244.05Z" fill="#E0E0E0"/>
<path d="M408.619 85.689L412.731 83.2988L469.518 115.928L465.407 118.317L408.619 85.689Z" fill="#F5F5F5"/>
<path d="M465.406 118.318L469.517 115.929L469.245 249.827L465.135 252.217L465.406 118.318Z" fill="#F0F0F0"/>
<path d="M413.1 139.52L417.211 137.131L460.659 162.122V166.876L413.1 139.52Z" fill="#F5F5F5"/>
<path d="M413.101 139.52L460.66 166.876V172.305L413.092 144.974L413.101 139.52Z" fill="#E0E0E0"/>
<path d="M368.01 112.514C367.364 111.365 366.422 110.382 365.238 109.702L327.109 87.8283C323.769 85.912 315.863 88.5093 315.863 93.8781V115.872C315.863 118.542 317.295 121.008 319.613 122.334L349.031 139.145L343.951 136.241L346.391 143.158C346.47 143.382 346.7 143.463 346.898 143.408L346.888 143.436C347.319 143.214 349.236 142.185 350.328 141.463C350.335 141.46 350.34 141.454 350.347 141.451C350.37 141.436 350.398 141.419 350.42 141.404L350.414 141.389C350.448 141.362 350.487 141.343 350.512 141.302L351.112 140.331L357.737 144.118C363.323 147.31 368.978 143.06 368.978 138.066V116.159C368.977 114.857 368.626 113.61 368.01 112.514Z" fill="#C86868"/>
<path opacity="0.2" d="M350.511 141.302C350.486 141.343 350.447 141.362 350.413 141.39L350.419 141.404C350.396 141.418 350.369 141.436 350.346 141.451C350.339 141.454 350.334 141.46 350.327 141.463C349.236 142.185 347.319 143.214 346.887 143.436L346.897 143.408C346.99 143.382 347.077 143.334 347.137 143.238L349.499 139.412L349.032 139.145L351.111 140.331L350.511 141.302Z" fill="white"/>
<path opacity="0.4" d="M360.609 116.72C360.126 115.763 359.459 114.904 358.616 114.223C358.614 114.222 358.613 114.219 358.611 114.218C358.33 113.991 358.028 113.784 357.708 113.6L319.579 91.725C317.925 90.7762 315.863 91.9707 315.863 93.8771C315.863 88.5083 323.769 85.911 327.108 87.8273L365.237 109.701C366.421 110.381 367.362 111.363 368.009 112.514L360.609 116.72Z" fill="white"/>
<path opacity="0.2" d="M361.446 141.964V120.057C361.446 119.759 361.426 119.466 361.387 119.177C361.273 118.312 360.995 117.487 360.607 116.72L368.009 112.515C368.625 113.61 368.976 114.858 368.976 116.158V138.065C368.976 143.059 363.32 147.309 357.734 144.117C359.388 145.062 361.446 143.869 361.446 141.964Z" fill="white"/>
<path d="M348.463 113.912C349.06 114.257 349.656 114.863 350.112 115.648C351.02 117.22 351.014 118.913 350.101 119.434L337.359 126.695C336.92 126.945 336.326 126.885 335.709 126.529C335.092 126.173 334.499 125.548 334.064 124.793L329.787 117.342C328.879 115.769 328.884 114.075 329.798 113.555C330.255 113.295 330.851 113.378 331.448 113.722C332.044 114.065 332.639 114.672 333.093 115.457L335.727 120.065L346.816 113.745C347.273 113.486 347.868 113.57 348.463 113.912Z" fill="white"/>
<path d="M175.405 25.2986L175.414 25.2909C174.604 22.4478 168.831 17.0416 163.087 17.1551C162.879 17.1529 161.846 17.2587 161.473 17.4713L49.8807 80.9599C47.9831 82.0387 46.5186 83.6608 45.5907 85.5562C44.8877 86.9932 44.4844 88.5833 44.4844 90.2384V331.619C44.4844 337.768 51.5744 343.636 58.2314 340.813C58.2479 340.805 58.26 340.789 58.2766 340.782C58.4198 340.73 58.5653 340.688 58.7041 340.609L170.301 277.016C173.633 275.117 175.691 271.577 175.691 267.742V26.4623C175.691 26.0325 175.576 25.6468 175.405 25.2986Z" fill="#455A64"/>
<path d="M60.0527 115.751C60.0527 113.831 61.0831 112.061 62.7515 111.112L166.366 52.1633C168.145 51.1517 170.354 52.4366 170.354 54.4829V249.124C170.354 251.037 169.32 252.814 167.657 253.763L64.0429 312.808C62.2644 313.821 60.0527 312.536 60.0527 310.489V115.751Z" fill="#C86868"/>
<path opacity="0.2" d="M60.0527 115.751C60.0527 113.831 61.0831 112.061 62.7515 111.112L166.366 52.1633C168.145 51.1517 170.354 52.4366 170.354 54.4829V249.124C170.354 251.037 169.32 252.814 167.657 253.763L64.0429 312.808C62.2644 313.821 60.0527 312.536 60.0527 310.489V115.751Z" fill="black"/>
<path opacity="0.3" d="M44.4863 90.237V331.618C44.4863 337.767 51.5764 343.635 58.2333 340.812C58.2499 340.804 58.262 340.787 58.2785 340.781C56.5914 341.392 54.717 340.177 54.717 338.289V96.9083C54.717 94.7694 55.3759 92.7351 56.5198 91.0128L45.5949 85.5547C44.8885 86.9928 44.4863 88.5818 44.4863 90.237Z" fill="black"/>
<path opacity="0.1" d="M163.085 17.1551C162.877 17.1529 161.844 17.2587 161.471 17.4713L49.8798 80.9599C47.9822 82.0387 46.5177 83.6608 45.5898 85.5562L56.5147 91.0142C57.4238 89.6467 58.6316 88.472 60.1082 87.6312L171.701 24.1426C173.106 23.3426 174.763 23.9884 175.405 25.2986L175.413 25.2909C174.602 22.4478 168.83 17.0416 163.085 17.1551Z" fill="white"/>
<path d="M128.956 64.0032C129.739 63.5503 130.389 63.9008 130.391 64.8022C130.394 65.7025 129.749 66.821 128.964 67.2728L107.071 79.9123C106.287 80.3652 105.655 79.985 105.652 79.0836C105.65 78.1833 106.278 77.0946 107.062 76.6428L128.956 64.0032Z" fill="#263238"/>
<path d="M101.44 79.8897C102.223 79.4367 102.856 79.7971 102.859 80.6985C102.861 81.5988 102.233 82.7074 101.45 83.1592C100.666 83.6121 100.016 83.2418 100.014 82.3404C100.01 81.4401 100.656 80.3426 101.44 79.8897Z" fill="#263238"/>
<path d="M115.453 62.1643C117.019 61.2607 118.283 61.9803 118.287 63.7798C118.293 65.5793 117.038 67.792 115.472 68.6967C113.906 69.6015 112.609 68.8609 112.604 67.0625C112.598 65.2619 113.888 63.069 115.453 62.1643Z" fill="#263238"/>
<path d="M115.463 289.404C118.652 287.563 121.226 289.029 121.237 292.693C121.248 296.357 118.69 300.867 115.501 302.708C112.312 304.549 109.668 303.043 109.658 299.378C109.648 295.714 112.274 291.245 115.463 289.404Z" fill="#263238"/>
<path d="M195.834 66.707L195.842 66.7004C195.107 64.1196 189.866 59.2126 184.651 59.3151C184.463 59.314 183.525 59.4087 183.187 59.6016L81.8952 117.229C80.1728 118.208 78.8438 119.681 78.0019 121.401C77.3639 122.706 76.998 124.148 76.998 125.651V344.75C76.998 350.332 83.4335 355.657 89.4756 353.095C89.491 353.089 89.5009 353.073 89.5164 353.067C89.6464 353.019 89.7775 352.982 89.9042 352.91L191.2 295.187C194.224 293.464 196.092 290.25 196.092 286.769V67.7627C196.092 67.3737 195.988 67.0233 195.834 66.707Z" fill="#C86868"/>
<path opacity="0.2" d="M76.998 125.653V344.752C76.998 350.333 83.4335 355.659 89.4756 353.097C89.491 353.09 89.5009 353.075 89.5164 353.068C87.9846 353.624 86.2832 352.521 86.2832 350.807V131.708C86.2832 129.767 86.8805 127.92 87.9196 126.357L78.003 121.402C77.3639 122.707 76.998 124.149 76.998 125.653Z" fill="white"/>
<path opacity="0.4" d="M184.651 59.3151C184.463 59.314 183.525 59.4087 183.187 59.6016L81.8952 117.229C80.1728 118.208 78.8439 119.681 78.002 121.401L87.9185 126.355C88.7428 125.114 89.8393 124.048 91.1803 123.285L192.471 65.6569C193.747 64.9307 195.251 65.5169 195.833 66.7059L195.84 66.6993C195.105 64.1196 189.866 59.2126 184.651 59.3151Z" fill="white"/>
<path opacity="0.3" d="M195.834 66.707L195.842 66.7004C195.107 64.1196 189.866 59.2126 184.651 59.3151C184.463 59.314 183.525 59.4098 183.187 59.6016L81.8952 117.229C80.1728 118.208 78.8438 119.681 78.0019 121.401C77.3639 122.706 76.998 124.148 76.998 125.651V344.751C76.998 350.333 83.4335 355.659 89.4756 353.096C89.491 353.09 89.5009 353.074 89.5164 353.068C89.6464 353.02 89.7775 352.983 89.9042 352.911L191.2 295.188C194.224 293.465 196.092 290.251 196.092 286.77V67.7627C196.092 67.3737 195.988 67.0233 195.834 66.707Z" fill="white"/>
<path d="M187.172 224.912C188.139 224.353 188.935 224.797 188.937 225.918L188.967 246.997C188.97 248.118 188.18 249.478 187.212 250.036L94.676 303.251C93.7007 303.814 92.9128 303.365 92.9106 302.244L92.8809 281.165C92.8776 280.044 93.66 278.69 94.6352 278.127L187.172 224.912Z" fill="#C86868"/>
<g opacity="0.7">
<path d="M187.172 224.912C188.139 224.353 188.935 224.797 188.937 225.918L188.967 246.997C188.97 248.118 188.18 249.478 187.212 250.036L94.676 303.251C93.7007 303.814 92.9128 303.365 92.9106 302.244L92.8809 281.165C92.8776 280.044 93.66 278.69 94.6352 278.127L187.172 224.912Z" fill="white"/>
</g>
<path d="M187.172 255.71C188.139 255.151 188.935 255.595 188.937 256.716L188.967 277.795C188.97 278.916 188.18 280.276 187.212 280.833L94.676 334.048C93.7007 334.612 92.9128 334.163 92.9106 333.042L92.8809 311.963C92.8776 310.842 93.66 309.488 94.6352 308.925L187.172 255.71Z" fill="#C86868"/>
<g opacity="0.2">
<path d="M187.172 255.71C188.139 255.151 188.935 255.595 188.937 256.716L188.967 277.795C188.97 278.916 188.18 280.276 187.212 280.833L94.676 334.048C93.7007 334.612 92.9128 334.163 92.9106 333.042L92.8809 311.963C92.8776 310.842 93.66 309.488 94.6352 308.925L187.172 255.71Z" fill="black"/>
</g>
<path d="M187.172 99.951C188.139 99.3923 188.935 99.8364 188.937 100.957L188.967 206.436C188.97 207.557 188.18 208.917 187.212 209.474L94.676 262.689C93.7007 263.252 92.9128 262.804 92.9106 261.683L92.8809 156.204C92.8776 155.083 93.66 153.729 94.6352 153.166L187.172 99.951Z" fill="#C86868"/>
<g opacity="0.2">
<path d="M187.172 99.951C188.139 99.3923 188.935 99.8364 188.937 100.957L188.967 206.436C188.97 207.557 188.18 208.917 187.212 209.474L94.676 262.689C93.7007 263.252 92.9128 262.804 92.9106 261.683L92.8809 156.204C92.8776 155.083 93.66 153.729 94.6352 153.166L187.172 99.951Z" fill="black"/>
</g>
<path d="M164.173 220.288C163.971 217.142 163.768 213.996 163.567 210.849L129.213 209.461V214.796C123.381 223.019 121.366 232.765 121.008 247.548L164.67 222.439C164.51 221.715 164.345 220.996 164.173 220.288Z" fill="#37474F"/>
<path d="M168.382 152.05C167.895 153.188 166.558 153.731 165.913 154.789C165.418 155.601 165.41 156.685 165.891 157.504C166.372 158.324 167.322 158.844 168.272 158.809C169.222 158.774 170.131 158.183 170.549 157.329C170.726 158.332 170.799 159.37 170.564 160.36C170.33 161.349 169.651 162.294 168.672 162.573C170.162 163.962 170.56 166.272 169.88 168.19C169.2 170.11 167.318 171.541 165.286 171.683C165.675 174.448 163.873 177.439 161.593 179.051C159.313 180.663 156.384 181.17 153.604 180.911C150.824 180.652 148.158 179.685 145.6 178.562C141.718 179.923 137.536 180.769 133.441 180.376C130.82 180.124 128.077 179.421 126.261 177.513C124.445 175.605 124.021 172.207 125.962 170.427C124.898 171.295 123.045 171.117 121.833 170.469C120.621 169.822 119.863 168.411 119.993 167.042C120.123 165.673 121.132 164.43 122.445 164.023C121.568 163.437 120.89 162.292 121.044 161.249C121.197 160.205 121.992 159.284 123 158.978C122.758 159.85 122.954 160.999 123.678 161.543C124.402 162.087 125.461 162.136 126.232 161.661C126.984 161.198 127.405 160.327 127.543 159.455C127.68 158.583 127.574 157.694 127.493 156.816C127.212 153.78 127.243 150.631 128.368 147.797C129.493 144.963 131.89 142.487 134.894 141.963C136.021 138.455 138.546 135.384 141.744 133.551C144.941 131.718 148.831 131.129 152.429 131.932C155.453 132.607 158.4 134.414 159.614 137.265C160.882 136.969 162.286 136.9 163.588 136.929C164.889 136.956 166.231 137.345 167.165 138.253C168.098 139.161 168.518 140.652 167.948 141.823C167.55 142.641 166.702 143.378 166.905 144.264C167.079 145.026 167.947 145.399 168.365 146.06C168.758 146.683 168.703 147.506 168.41 148.182C168.118 148.857 167.62 149.419 167.137 149.975C166.693 150.486 166.225 151.155 166.474 151.785C166.733 152.444 168.035 152.666 168.382 152.05Z" fill="#263238"/>
<path d="M156.879 175.935L159.212 175.628C163.755 175.032 168.165 177.436 170.127 181.577L180.167 202.771C180.167 202.771 190.592 194.179 193.145 191.002C193.952 189.997 193.769 188.497 193.899 187.214C194.029 185.932 194.206 184.597 194.924 183.525C195.855 182.136 196.26 180.455 196.41 178.77C196.465 178.153 197.109 177.773 197.67 178.036C197.728 178.063 197.784 178.09 197.839 178.118C198.25 178.323 198.624 178.637 198.812 179.056C199.001 179.475 198.989 179.956 198.956 180.416C198.871 181.598 198.669 182.771 198.352 183.914C200.064 182.223 201.511 180.057 202.3 177.784C202.608 176.893 202.846 175.958 203.386 175.187C203.926 174.414 204.869 173.829 205.788 174.039C205.985 174.826 206.017 175.675 205.912 176.478C206.476 176.492 207.163 176.708 207.504 177.158C207.846 177.606 207.97 178.214 207.834 178.76C209.079 179.362 209.73 180.941 209.784 182.323C209.838 183.705 209.351 185.05 208.76 186.301C206.827 190.388 203.664 193.885 199.789 196.215C194.594 203.239 189.231 211.349 183.554 217.053C180.779 219.843 176.145 219.373 173.904 216.14C165.514 204.029 159.35 192.479 159.35 192.479L156.879 175.935Z" fill="#FFD0CF"/>
<path d="M156.879 175.935L159.212 175.628C163.755 175.032 168.165 177.436 170.127 181.577L178.034 198.269C174.236 204.159 166.456 206.198 166.456 206.198L159.347 192.474L156.879 175.935Z" fill="#E0E0E0"/>
<path opacity="0.2" d="M175.629 209.484C176.841 206.282 178.231 204.739 180.166 202.771L179.64 201.661C178.473 202.344 175.907 204.409 175.629 209.484Z" fill="black"/>
<path opacity="0.2" d="M196.605 192.666C197.801 192.089 198.761 191.039 199.228 189.796C199.695 188.553 199.663 187.13 199.143 185.909C200.206 186.944 200.627 188.567 200.134 189.967C199.64 191.365 198.082 192.526 196.605 192.666Z" fill="black"/>
<path d="M126.607 176.915L137.14 176.003C138.793 178.165 140.878 179.998 143.249 181.333C146.24 183.018 149.668 183.918 153.101 183.919C154.359 183.921 155.704 183.768 156.675 182.968C157.978 181.894 158.211 179.913 157.681 178.309C157.357 177.329 156.803 176.455 156.169 175.634H159.237C162.917 178.908 165.766 183.173 167.663 187.719C168.512 189.753 169.164 191.93 169.022 194.128C168.88 196.328 167.829 198.56 165.926 199.671C166.16 202.183 166.051 204.9 165.674 207.395C165.297 209.889 164.241 212.372 162.297 213.981C160.496 215.472 158.13 216.073 155.825 216.463C149.944 217.458 143.876 217.343 138.036 216.128C134.664 215.426 131.153 214.216 129.054 211.483C127.1 208.94 126.725 205.53 126.786 202.323C126.844 199.118 126.607 176.915 126.607 176.915Z" fill="#EBEBEB"/>
<path d="M156.675 182.969C155.704 183.77 154.36 183.921 153.101 183.92C149.669 183.917 146.241 183.017 143.25 181.333C140.878 179.998 138.794 178.165 137.141 176.003L140.688 175.696V164.288L153.013 169.045V175.634H156.168C156.803 176.455 157.356 177.329 157.68 178.309C158.211 179.913 157.979 181.894 156.675 182.969Z" fill="#FFD0CF"/>
<path opacity="0.2" d="M141.553 164.621C145.245 171.788 147.544 171.944 153.015 172.584V169.045L141.553 164.621Z" fill="black"/>
<path d="M163.896 148.049C164.969 153.439 165.039 159.028 164.091 164.442C163.734 166.481 163.141 168.65 161.527 169.947C159.536 171.546 156.689 171.307 154.156 170.986C151.395 170.636 148.591 170.274 146.04 169.162C143.489 168.051 141.18 166.065 140.345 163.41C139.024 164.279 137.133 163.833 136.02 162.71C134.907 161.589 134.466 159.946 134.426 158.365C134.39 156.931 134.762 155.311 135.993 154.571C136.831 154.068 137.911 154.095 138.821 154.451C139.731 154.808 140.496 155.457 141.18 156.155C141.527 156.509 141.867 156.884 142.305 157.117C142.743 157.349 143.311 157.41 143.718 157.127C144.219 156.776 144.29 156.076 144.32 155.464C144.442 152.974 144.695 150.391 145.968 148.247C147.242 146.104 149.815 144.538 152.222 145.188C153.325 145.486 154.32 146.214 155.462 146.246C156.374 146.271 157.234 145.844 158.033 145.402C158.048 145.394 158.063 145.385 158.078 145.377C160.674 143.941 163.316 145.14 163.896 148.049Z" fill="#FFD0CF"/>
<path d="M156.126 154.768L159.405 160.286L155.496 161.021L156.126 154.768Z" fill="#FFACAC"/>
<path d="M151.729 162.923C152.719 163.404 153.709 163.886 154.7 164.368C154.267 165.042 153.178 165.336 152.447 165.008C151.715 164.679 151.512 163.694 151.729 162.923Z" fill="#F28F8F"/>
<path opacity="0.3" d="M151.729 162.923C152.719 163.404 153.709 163.886 154.7 164.368C154.267 165.042 153.178 165.336 152.447 165.008C151.715 164.679 151.512 163.694 151.729 162.923Z" fill="black"/>
<path d="M153.478 165.104C153.121 165.167 152.753 165.145 152.447 165.007C151.872 164.749 151.628 164.087 151.652 163.441C152.074 163.444 152.496 163.581 152.823 163.848C153.199 164.157 153.429 164.622 153.478 165.104Z" fill="#F28F8F"/>
<path opacity="0.1" d="M153.478 165.104C153.121 165.167 152.753 165.145 152.447 165.007C151.872 164.749 151.628 164.087 151.652 163.441C152.074 163.444 152.496 163.581 152.823 163.848C153.199 164.157 153.429 164.622 153.478 165.104Z" fill="black"/>
<path d="M150.467 154.987C150.405 155.604 150.854 156.155 151.472 156.217C152.089 156.279 152.64 155.829 152.701 155.212C152.763 154.595 152.313 154.045 151.696 153.982C151.079 153.921 150.528 154.37 150.467 154.987Z" fill="#263238"/>
<path d="M159.881 155.569C159.819 156.186 160.269 156.737 160.886 156.799C161.503 156.862 162.054 156.411 162.115 155.794C162.177 155.177 161.728 154.626 161.11 154.564C160.494 154.503 159.943 154.953 159.881 155.569Z" fill="#263238"/>
<path d="M161.416 151.233C162.184 151.888 162.952 152.541 163.72 153.196C164.024 152.633 163.866 151.847 163.413 151.394C162.96 150.941 161.979 150.93 161.416 151.233Z" fill="#263238"/>
<path d="M151.863 150.134C150.981 150.623 150.097 151.11 149.214 151.597C149.028 150.985 149.341 150.246 149.874 149.892C150.408 149.54 151.372 149.724 151.863 150.134Z" fill="#263238"/>
<path d="M124.953 206.751L121.434 219.631L135.086 231.072C136.058 231.887 137.295 232.313 138.562 232.275C139.972 232.232 141.398 232.213 142.733 232.515C143.802 232.756 144.842 233.109 145.909 233.356C146.66 233.529 147.432 233.65 148.199 233.639C148.883 233.629 149.388 234.32 149.087 234.935C148.971 235.171 148.813 235.383 148.624 235.55C148.084 236.028 147.354 236.229 146.64 236.328C145.507 236.485 144.343 236.425 143.234 236.15C144.219 237.437 145.897 238.246 147.433 238.76C148.969 239.273 150.576 239.564 152.103 240.105C152.671 240.306 153.258 240.565 153.602 241.06C153.947 241.553 153.926 242.346 153.413 242.662C152.758 243.066 151.865 242.469 151.149 242.752C151.196 243.183 151.258 243.589 151.129 244.002C151 244.416 150.74 244.8 150.367 245.02C149.993 245.24 149.501 245.278 149.126 245.062C148.52 246.087 147.399 246.746 146.239 247.012C145.078 247.279 143.863 247.185 142.692 246.969C137.828 246.07 134.748 241.834 130.934 238.685C130.41 238.252 116.964 230.756 110.081 226.929C107.735 225.624 106.569 222.904 107.238 220.304L111.63 203.232L124.953 206.751Z" fill="#FFD0CF"/>
<path opacity="0.2" d="M113.047 219.347C114.524 218.656 119.235 218.091 121.434 219.631L121.795 218.308C120.365 217.567 116.513 216.302 113.047 219.347Z" fill="black"/>
<path d="M126.649 176.971L124.719 177.519C120.734 178.651 117.56 181.668 116.228 185.589L110.062 203.735C115.623 209.578 125.612 207.787 125.612 207.787L127.591 198.552C134.566 186.395 128.158 178.95 126.649 176.971Z" fill="#E0E0E0"/>
<g opacity="0.6">
<path d="M99.4991 132.111L99.5058 134.172L96.147 136.11L96.1514 137.501L99.0936 135.802L99.0991 137.863L96.1569 139.561L96.1646 142.16L93.7888 143.531L93.7656 135.422L99.4991 132.111Z" fill="white"/>
<path d="M105.558 134.228L107.048 135.876L104.506 137.343L103.298 135.995L102.654 136.366L102.659 138.409L100.277 139.785L100.254 131.675L103.65 129.715C105.617 128.58 106.876 129.036 106.881 130.914C106.886 132.087 106.404 133.244 105.558 134.228ZM103.511 133.809C104.169 133.428 104.479 132.893 104.477 132.302C104.476 131.712 104.164 131.534 103.506 131.914L102.643 132.412L102.648 134.307L103.511 133.809Z" fill="white"/>
<path d="M110.148 125.963L110.171 134.072L107.795 135.444L107.773 127.335L110.148 125.963Z" fill="white"/>
<path d="M117.038 121.984L117.044 124.045L113.647 126.006L113.651 126.961L116.63 125.241L116.636 127.206L113.656 128.926L113.659 129.995L117.184 127.959L117.19 130.02L111.32 133.409L111.297 125.299L117.038 121.984Z" fill="white"/>
<path d="M125.041 117.365L125.064 125.475L123.113 126.602L120.417 124.466L120.427 128.151L118.113 129.488L118.09 121.379L120.041 120.252L122.737 122.387L122.727 118.702L125.041 117.365Z" fill="white"/>
<path d="M129.672 114.692C132.032 113.33 133.662 113.929 133.669 116.449C133.677 118.962 132.055 121.439 129.695 122.801L126.222 124.805L126.199 116.696L129.672 114.692ZM129.59 120.728C130.588 120.152 131.275 119.067 131.272 117.833C131.268 116.59 130.577 116.302 129.579 116.878L128.581 117.454L128.592 121.304L129.59 120.728Z" fill="white"/>
<path d="M142.848 112.699L144.338 114.347L141.796 115.814L140.595 114.462L139.945 114.838L139.951 116.881L137.576 118.252L137.553 110.143L140.949 108.182C142.916 107.047 144.167 107.508 144.172 109.386C144.174 110.557 143.693 111.714 142.848 112.699ZM140.808 112.275C141.466 111.895 141.775 111.359 141.773 110.769C141.771 110.178 141.46 110 140.802 110.381L139.933 110.883L139.938 112.777L140.808 112.275Z" fill="white"/>
<path d="M150.808 102.491L150.813 104.551L147.41 106.516L147.412 107.472L150.4 105.746L150.405 107.711L147.418 109.436L147.421 110.505L150.953 108.466L150.96 110.526L145.09 113.914L145.066 105.805L150.808 102.491Z" fill="white"/>
<path d="M158.915 105.558L159.947 106.354C159.45 107.312 158.739 108.088 157.893 108.577C156.646 109.298 155.864 109.295 154.589 108.499C152.818 109.095 151.589 108.186 151.582 106.109C151.575 103.649 153.257 100.893 155.556 99.5651C157.848 98.2417 159.539 99.0494 159.546 101.509C159.551 103.3 158.656 105.253 157.28 106.692C157.493 106.822 157.683 106.791 157.939 106.642C158.28 106.446 158.62 106.067 158.915 105.558ZM155.573 105.832C156.451 105.325 157.152 104.155 157.148 102.894C157.145 101.625 156.438 101.267 155.561 101.773C154.684 102.28 153.976 103.455 153.979 104.725C153.983 105.984 154.696 106.339 155.573 105.832Z" fill="white"/>
<path d="M167.222 93.0137L167.235 97.4723C167.242 99.9054 165.975 102.039 163.812 103.287C161.641 104.54 160.366 103.875 160.36 101.442L160.348 96.983L162.73 95.6078L162.742 99.9881C162.746 101.222 163.155 101.456 163.821 101.071C164.487 100.687 164.901 99.977 164.898 98.7428L164.886 94.3625L167.222 93.0137Z" fill="white"/>
<path d="M174.05 89.0704L174.055 91.131L170.66 93.0914L170.663 94.0479L173.642 92.3267L173.648 94.2915L170.668 96.0116L170.671 97.0805L174.195 95.0463L174.202 97.1059L168.34 100.49L168.316 92.3807L174.05 89.0704Z" fill="white"/>
<path d="M178.05 86.5783C179.003 86.0284 179.98 85.6901 180.715 85.7452L180.009 88.1375C179.312 88.1309 178.654 88.3194 178.041 88.6731C177.345 89.0753 177.119 89.4323 177.12 89.71C177.123 90.6831 181.023 87.6218 181.032 90.6114C181.036 92.0892 179.943 93.9735 177.757 95.2364C176.577 95.9174 175.381 96.2777 174.676 96.1797L175.442 93.7443C176.108 93.8115 176.994 93.5878 177.766 93.1427C178.447 92.7493 178.688 92.4539 178.687 92.1751C178.684 91.1492 174.784 94.2292 174.775 91.2043C174.771 89.699 175.864 87.8411 178.05 86.5783Z" fill="white"/>
<path d="M187.604 81.2452L187.61 83.3654L185.545 84.5577L185.561 90.5469L183.179 91.9221L183.162 85.934L181.097 87.1253L181.092 85.0051L187.604 81.2452Z" fill="white"/>
</g>
<path d="M133.86 265.711C135.058 265.018 136.004 264.971 136.61 265.526L135.31 267.612C134.947 267.3 134.521 267.245 133.971 267.564C133.119 268.055 132.544 269.074 132.547 270.144C132.55 271.22 133.129 271.573 133.981 271.081C134.532 270.763 134.956 270.216 135.315 269.481L136.623 270.069C136.023 271.313 135.081 272.363 133.88 273.055C131.915 274.19 130.474 273.506 130.469 271.344C130.462 269.189 131.893 266.847 133.86 265.711Z" fill="#C86868"/>
<path d="M127.778 269.381L130.472 274.864L128.342 276.094L127.925 275.105L125.605 276.445L125.195 277.91L123.098 279.121L125.752 270.55L127.778 269.381ZM126.164 274.417L127.358 273.728L126.756 272.302L126.164 274.417Z" fill="#C86868"/>
<path d="M140.229 262.033C141.429 261.341 142.374 261.293 142.98 261.848L141.68 263.934C141.317 263.622 140.891 263.567 140.341 263.886C139.489 264.378 138.914 265.397 138.917 266.465C138.92 267.542 139.499 267.895 140.351 267.403C140.902 267.086 141.326 266.538 141.685 265.803L142.993 266.391C142.393 267.635 141.45 268.685 140.25 269.377C138.284 270.512 136.838 269.831 136.832 267.669C136.825 265.516 138.263 263.168 140.229 262.033Z" fill="#C86868"/>
<path d="M148.543 257.393L148.547 259.178L145.605 260.877L145.607 261.698L148.189 260.207L148.195 261.916L145.612 263.407L145.614 264.334L148.669 262.571L148.674 264.356L143.594 267.288L143.574 260.261L148.543 257.393Z" fill="#C86868"/>
<path d="M152.398 255.168C154.103 254.184 155.187 254.584 155.192 256.21C155.196 257.837 154.117 259.485 152.414 260.47L151.536 260.976L151.54 262.701L149.475 263.893L149.455 256.866L152.398 255.168ZM152.277 258.715C152.847 258.386 153.116 257.922 153.114 257.409C153.112 256.897 152.843 256.736 152.273 257.066L151.526 257.496L151.53 259.146L152.277 258.715Z" fill="#C86868"/>
<path d="M160.911 250.252L160.916 252.09L159.12 253.127L159.135 258.316L157.077 259.504L157.063 254.315L155.273 255.349L155.268 253.511L160.911 250.252Z" fill="#C86868"/>
<g opacity="0.3">
<path d="M133.86 265.711C135.058 265.018 136.004 264.971 136.61 265.526L135.31 267.612C134.947 267.3 134.521 267.245 133.971 267.564C133.119 268.055 132.544 269.074 132.547 270.144C132.55 271.22 133.129 271.573 133.981 271.081C134.532 270.763 134.956 270.216 135.315 269.481L136.623 270.069C136.023 271.313 135.081 272.363 133.88 273.055C131.915 274.19 130.474 273.506 130.469 271.344C130.462 269.189 131.893 266.847 133.86 265.711Z" fill="white"/>
<path d="M127.778 269.381L130.472 274.864L128.342 276.094L127.925 275.105L125.605 276.445L125.195 277.91L123.098 279.121L125.752 270.55L127.778 269.381ZM126.164 274.417L127.358 273.728L126.756 272.302L126.164 274.417Z" fill="white"/>
<path d="M140.229 262.033C141.429 261.341 142.374 261.293 142.98 261.848L141.68 263.934C141.317 263.622 140.891 263.567 140.341 263.886C139.489 264.378 138.914 265.397 138.917 266.465C138.92 267.542 139.499 267.895 140.351 267.403C140.902 267.086 141.326 266.538 141.685 265.803L142.993 266.391C142.393 267.635 141.45 268.685 140.25 269.377C138.284 270.512 136.838 269.831 136.832 267.669C136.825 265.516 138.263 263.168 140.229 262.033Z" fill="white"/>
<path d="M148.543 257.393L148.547 259.178L145.605 260.877L145.607 261.698L148.189 260.207L148.195 261.916L145.612 263.407L145.614 264.334L148.669 262.571L148.674 264.356L143.594 267.288L143.574 260.261L148.543 257.393Z" fill="white"/>
<path d="M152.398 255.168C154.103 254.184 155.187 254.584 155.192 256.21C155.196 257.837 154.117 259.485 152.414 260.47L151.536 260.976L151.54 262.701L149.475 263.893L149.455 256.866L152.398 255.168ZM152.277 258.715C152.847 258.386 153.116 257.922 153.114 257.409C153.112 256.897 152.843 256.736 152.273 257.066L151.526 257.496L151.53 259.146L152.277 258.715Z" fill="white"/>
<path d="M160.911 250.252L160.916 252.09L159.12 253.127L159.135 258.316L157.077 259.504L157.063 254.315L155.273 255.349L155.268 253.511L160.911 250.252Z" fill="white"/>
</g>
<g opacity="0.5">
<path d="M126.495 299.391C128.541 298.211 129.953 298.737 129.96 300.914C129.967 303.09 128.561 305.237 126.515 306.418L123.5 308.159L123.48 301.132L126.495 299.391ZM126.426 304.622C127.291 304.123 127.88 303.187 127.876 302.117C127.873 301.041 127.281 300.794 126.416 301.293L125.551 301.793L125.56 305.122L126.426 304.622Z" fill="white"/>
<path d="M135.672 294.094L135.676 295.886L132.734 297.585L132.736 298.406L135.318 296.915L135.324 298.617L132.741 300.108L132.743 301.035L135.798 299.271L135.803 301.056L130.723 303.988L130.703 296.962L135.672 294.094Z" fill="white"/>
<path d="M139.748 291.58C140.942 290.892 141.886 290.851 142.492 291.407L141.192 293.493C140.836 293.178 140.403 293.126 139.852 293.445C139 293.936 138.425 294.948 138.428 296.025C138.431 297.095 139.01 297.446 139.862 296.955C140.413 296.637 140.843 296.086 141.196 295.361L142.504 295.941C141.904 297.193 140.961 298.243 139.768 298.932C137.802 300.067 136.355 299.378 136.35 297.224C136.344 295.063 137.782 292.715 139.748 291.58Z" fill="white"/>
<path d="M145.15 288.621L145.165 293.81L147.925 292.217L147.93 294.055L143.106 296.84L143.086 289.813L145.15 288.621Z" fill="white"/>
<path d="M150.539 285.51L150.559 292.537L148.5 293.725L148.48 286.698L150.539 285.51Z" fill="white"/>
<path d="M157.563 281.454L157.583 288.481L155.885 289.461L153.556 287.615L153.565 290.801L151.553 291.962L151.533 284.935L153.23 283.955L155.56 285.809L155.551 282.615L157.563 281.454Z" fill="white"/>
<path d="M163.535 278.006L163.54 279.799L160.597 281.498L160.6 282.319L163.182 280.828L163.187 282.531L160.605 284.022L160.607 284.947L163.662 283.184L163.667 284.969L158.58 287.906L158.561 280.879L163.535 278.006Z" fill="white"/>
</g>
<path d="M256.539 246.828C245.902 254.214 233.924 259.323 225.04 269.226C208.449 287.723 208.062 317.482 221.093 338.638C234.123 359.793 258.358 372.505 283.034 375.414C308.924 378.466 336.091 371.312 356.404 354.971C376.715 338.63 389.638 313.099 389.628 287.03C389.619 260.96 376.266 235.001 354.43 220.762C334.509 207.77 305.884 204.064 285.897 218.929C275.791 226.446 269.055 237.538 258.975 245.076C258.172 245.675 257.359 246.258 256.539 246.828Z" fill="#C86868"/>
<path opacity="0.2" d="M256.539 246.828C245.902 254.214 233.924 259.323 225.04 269.226C208.449 287.723 208.062 317.482 221.093 338.638C234.123 359.793 258.358 372.505 283.034 375.414C308.924 378.466 336.091 371.312 356.404 354.971C376.715 338.63 389.638 313.099 389.628 287.03C389.619 260.96 376.266 235.001 354.43 220.762C334.509 207.77 305.884 204.064 285.897 218.929C275.791 226.446 269.055 237.538 258.975 245.076C258.172 245.675 257.359 246.258 256.539 246.828Z" fill="black"/>
<path opacity="0.1" d="M256.539 246.828C245.902 254.214 233.924 259.323 225.04 269.226C208.449 287.723 208.062 317.482 221.093 338.638C234.123 359.793 258.358 372.505 283.034 375.414C308.924 378.466 336.091 371.312 356.404 354.971C376.715 338.63 389.638 313.099 389.628 287.03C389.619 260.96 376.266 235.001 354.43 220.762C334.509 207.77 305.884 204.064 285.897 218.929C275.791 226.446 269.055 237.538 258.975 245.076C258.172 245.675 257.359 246.258 256.539 246.828Z" fill="white"/>
<path d="M375.731 283.452C375.296 261.27 364.751 239.679 347.525 225.698C336.986 217.145 324.176 211.632 310.826 209.582C308.349 209.826 305.898 210.237 303.487 210.813C318.976 211.72 334.157 217.432 346.26 227.255C363.034 240.869 373.301 261.892 373.724 283.491C374.2 307.752 362.332 332.482 341.978 349.642C326.026 363.091 304.836 372.008 281.545 375.217C282.042 375.284 282.538 375.353 283.035 375.411C285.129 375.658 287.231 375.831 289.337 375.944C310.03 371.931 328.77 363.401 343.27 351.174C364.083 333.63 376.218 308.312 375.731 283.452Z" fill="white"/>
<path opacity="0.1" d="M260.87 355.201C260.895 355.025 260.919 354.849 260.944 354.672C262.636 342.822 271.875 333.603 283.63 331.347C293.871 329.381 303.768 325.614 312.69 320.217C319.041 316.377 325.041 311.671 332.165 309.589C338.739 307.668 346.924 307.965 353.154 310.808C347.166 304.522 336.904 301.755 328.701 304.597C334.378 295.907 339.374 286.546 341.33 276.352C343.287 266.157 341.897 254.97 335.749 246.606C330.529 239.503 322.033 234.914 313.231 234.444C304.429 233.973 295.493 237.63 289.546 244.136C283.457 250.795 280.026 260.167 276.028 268.255C273.156 274.065 270.185 280.01 265.452 284.438C258.309 291.119 248.038 293.528 240.634 299.918C232.237 307.165 228.616 318.751 228.578 329.842C228.553 337.326 229.963 344.693 231.828 351.966C240.331 360.24 250.852 366.481 262.196 370.535C260.483 365.709 260.168 360.315 260.87 355.201Z" fill="black"/>
<path d="M233.756 347.094C234.839 351.413 235.053 359.2 235.053 359.2L237.925 358.118C240.709 357.069 243.85 357.784 245.905 359.935L246.046 360.083C247.114 361.2 248.874 361.28 250.038 360.263C250.643 359.735 251.002 358.978 251.027 358.176L251.413 345.952L233.756 347.094Z" fill="#FFA8A7"/>
<path d="M244.842 392.528C238.883 398.904 227.908 404.475 219.936 399.038L220.83 401.067C228.803 406.505 239.778 400.932 245.737 394.556C251.696 388.181 247.83 383.765 253.193 378.109C256.692 374.646 257.83 371.22 257.83 371.22C257.592 370.611 257.363 369.816 257.083 368.906C256.375 370.497 254.792 373.613 252.298 376.08C246.935 381.735 250.803 386.152 244.842 392.528Z" fill="#263238"/>
<path d="M254.146 362.246C252.835 360.187 252.4 358.763 252.273 357.899C252.165 357.161 251.725 356.519 251.093 356.126L251.028 358.177C251.003 358.979 250.644 359.736 250.039 360.264C248.875 361.281 247.116 361.2 246.047 360.083L245.906 359.935C243.851 357.784 240.709 357.069 237.926 358.118L235.008 359.218C234.115 359.554 233.535 360.413 233.556 361.366C233.744 369.725 229.838 380.829 225.744 386.929C221.534 388.672 217.897 394.411 219.753 398.619L219.938 399.037C227.911 404.476 238.885 398.903 244.845 392.527C250.804 386.151 246.937 381.734 252.301 376.079C254.794 373.612 256.378 370.497 257.085 368.905C256.521 367.078 255.737 364.747 254.146 362.246Z" fill="#37474F"/>
<path d="M242.487 374.315C242.982 374.565 243.588 374.353 243.839 373.858C244.087 373.369 243.911 372.757 243.425 372.506C238.841 370.137 234.908 370.924 231.977 372.525C231.799 373.184 231.61 373.838 231.408 374.49C234.785 372.774 238.21 372.151 242.487 374.315Z" fill="white"/>
<path d="M243.956 369.795C244.451 370.045 245.057 369.834 245.308 369.339C245.556 368.849 245.38 368.238 244.893 367.986C240.334 365.63 236.152 366.345 232.98 368.081C232.86 368.761 232.72 369.447 232.568 370.132C236.045 368.298 239.547 367.565 243.956 369.795Z" fill="white"/>
<path d="M240.876 378.811C241.371 379.061 241.977 378.849 242.228 378.354C242.476 377.865 242.3 377.254 241.814 377.002C237.355 374.698 233.514 375.379 230.61 376.891C230.357 377.6 230.09 378.293 229.814 378.977C233.185 377.27 236.606 376.652 240.876 378.811Z" fill="white"/>
<path d="M225.742 386.929C221.532 388.673 217.895 394.412 219.751 398.619L219.936 399.038C227.791 404.395 238.549 399.063 244.565 392.807C239.548 382.968 229.058 385.422 225.742 386.929Z" fill="white"/>
<path d="M239.113 383.203C239.608 383.453 240.214 383.243 240.465 382.748C240.713 382.259 240.537 381.647 240.051 381.396C235.581 379.086 231.731 379.776 228.824 381.296C228.468 382.076 228.101 382.823 227.727 383.541C231.202 381.708 234.704 380.975 239.113 383.203Z" fill="white"/>
<path d="M221.227 371.398C220.474 375.788 217.527 382.999 217.527 382.999L220.592 383.167C223.563 383.332 226.148 385.253 227.161 388.051L227.23 388.243C227.757 389.698 229.333 390.48 230.809 390.019C231.576 389.78 232.209 389.234 232.556 388.509L237.843 377.48L221.227 371.398Z" fill="#FFA8A7"/>
<path d="M213.033 417.442C205.007 420.87 192.717 421.538 187.617 413.345V415.562C192.717 423.755 205.007 423.086 213.033 419.659C221.058 416.231 219.303 410.63 226.493 407.62C231.092 405.865 233.516 403.189 233.516 403.189C233.544 402.536 233.655 401.717 233.766 400.771C232.477 401.941 229.771 404.151 226.493 405.403C219.303 408.413 221.058 414.014 213.033 417.442Z" fill="#263238"/>
<path d="M233.766 393.49C233.398 391.076 233.575 389.598 233.807 388.756C234.005 388.037 233.863 387.272 233.442 386.657L232.555 388.508C232.208 389.232 231.576 389.779 230.809 390.018C229.332 390.478 227.756 389.696 227.229 388.242L227.16 388.05C226.147 385.252 223.562 383.331 220.591 383.166L217.477 382.995C216.525 382.943 215.648 383.493 215.282 384.374C212.079 392.099 204.024 400.681 197.817 404.61C193.26 404.505 187.617 408.288 187.617 412.886V413.344C192.717 421.537 205.007 420.868 213.033 417.441C221.058 414.013 219.303 408.411 226.493 405.402C229.771 404.151 232.477 401.94 233.766 400.769C233.989 398.871 234.213 396.42 233.766 393.49Z" fill="#37474F"/>
<path d="M218.228 399.827C218.581 400.255 219.22 400.307 219.649 399.956C220.073 399.609 220.159 398.978 219.815 398.552C216.576 394.534 212.661 393.667 209.333 393.948C208.904 394.478 208.467 395.001 208.02 395.516C211.801 395.309 215.188 396.121 218.228 399.827Z" fill="white"/>
<path d="M221.394 396.284C221.745 396.713 222.385 396.765 222.814 396.413C223.237 396.066 223.324 395.436 222.98 395.008C219.759 391.013 215.646 389.978 212.042 390.288C211.659 390.862 211.253 391.431 210.838 391.998C214.76 391.722 218.26 392.466 221.394 396.284Z" fill="white"/>
<path d="M214.941 403.291C215.292 403.72 215.932 403.772 216.361 403.42C216.784 403.073 216.871 402.443 216.528 402.015C213.378 398.107 209.588 397.181 206.321 397.391C205.803 397.937 205.279 398.464 204.752 398.979C208.525 398.776 211.905 399.592 214.941 403.291Z" fill="white"/>
<path d="M197.817 404.611C193.26 404.507 187.617 408.29 187.617 412.888V413.345C192.642 421.417 204.637 420.882 212.666 417.586C212.047 406.558 201.459 404.569 197.817 404.611Z" fill="white"/>
<path d="M211.553 406.599C211.904 407.028 212.544 407.08 212.973 406.728C213.397 406.381 213.483 405.751 213.139 405.323C209.982 401.406 206.182 400.483 202.909 400.7C202.269 401.27 201.631 401.806 200.998 402.312C204.919 402.037 208.419 402.781 211.553 406.599Z" fill="white"/>
<path d="M268.38 266.997L228.205 289.38C220.738 293.54 216.76 302.002 218.32 310.406L226.118 352.398L219.722 372.714C225.239 380.113 237.905 380.489 237.905 380.489C244.97 366.319 250.154 360.299 254.167 348.427C258.18 336.555 260.856 328.362 260.856 328.362L294.221 319.243C309.818 314.981 321.321 301.671 323.131 285.605C323.7 280.56 323.726 277.114 323.726 277.114L268.38 266.997Z" fill="#455A64"/>
<path opacity="0.2" d="M268.685 278.285C268.675 282.725 270.298 287.15 273.177 290.529L244.828 308.274C240.668 310.878 237.587 314.896 236.153 319.589L226.119 352.4L235.168 315.859C236.21 311.656 238.855 308.027 242.538 305.75L268.716 289.571C266.039 282.883 268.685 278.285 268.685 278.285Z" fill="black"/>
<path d="M243.67 228.696C247.765 239.664 261.676 236.862 261.676 236.862C262.387 222.096 243.67 228.696 243.67 228.696Z" fill="#C86868"/>
<path opacity="0.3" d="M243.67 228.696C247.765 239.664 261.676 236.862 261.676 236.862C262.387 222.096 243.67 228.696 243.67 228.696Z" fill="black"/>
<path d="M272.73 197.969L271.694 197.98C264.753 198.058 255.972 202.78 251.682 214.893L235.01 247.184L254.044 255.623L264.455 225.143L272.73 197.969Z" fill="#FFD0CF"/>
<path opacity="0.2" d="M259.363 219.401C258.033 223.213 257.95 227.329 257.741 231.362C257.531 235.396 257.063 240.265 255.216 243.857C253.199 242.461 250.725 241.737 248.275 241.827C245.824 241.916 243.41 242.817 241.499 244.356C240.125 245.462 239.104 246.984 238.412 248.694L254.042 255.624L264.454 225.145L269.572 208.338C264.892 210.486 261.063 214.527 259.363 219.401Z" fill="black"/>
<path d="M254.22 249.796C252.819 246.197 249.423 243.451 245.61 242.835C241.798 242.219 237.475 244.21 235.011 247.185C232.933 249.693 233.26 253.086 234.57 256.067C236.623 260.743 242.349 263.456 247.267 262.082C252.187 260.709 256.072 254.555 254.22 249.796Z" fill="#FFD0CF"/>
<path d="M272.733 197.971C264.441 197.051 253.996 200.873 243.67 228.696C257.117 229.028 261.676 236.862 261.676 236.862C267.753 221.384 274.59 199.924 274.59 199.924L272.733 197.971Z" fill="#C86868"/>
<path opacity="0.1" d="M272.733 197.971C264.441 197.051 253.996 200.873 243.67 228.696C257.117 229.028 261.676 236.862 261.676 236.862C267.753 221.384 274.59 199.924 274.59 199.924L272.733 197.971Z" fill="white"/>
<path d="M324.37 280.25C317.244 287.096 283.011 288.354 265.545 271.726C267.223 259.989 266.663 247.413 265.545 234.979C264.428 222.543 257.162 200.793 271.041 198.264C289.578 194.644 298.944 197.97 314.076 201.91C327.305 223.94 325.489 256.916 324.37 280.25Z" fill="#C86868"/>
<path opacity="0.2" d="M324.37 280.25C317.244 287.096 283.011 288.354 265.545 271.726C267.223 259.989 266.663 247.413 265.545 234.979C264.428 222.543 257.162 200.793 271.041 198.264C289.578 194.644 298.944 197.97 314.076 201.91C327.305 223.94 325.489 256.916 324.37 280.25Z" fill="white"/>
<path d="M262.005 178.983C258.955 177.512 256.487 174.872 255.227 171.729C253.966 168.586 253.923 164.973 255.111 161.801C253.52 161.355 251.891 160.435 250.962 159.067C250.068 157.75 250.07 155.887 250.968 154.572C251.865 153.258 253.599 152.576 255.152 152.928C253.86 150.867 254.372 147.668 256.225 146.095C258.079 144.521 261.092 144.55 262.916 146.158C262.55 144.651 263.35 142.998 264.718 142.268C266.085 141.536 267.727 141.52 269.259 141.762C270.791 142.003 272.28 142.484 273.816 142.689C276.411 143.036 279.038 142.593 281.643 142.324C284.248 142.055 286.973 141.978 289.384 142.999C291.795 144.021 294.281 146.963 293.608 149.989C294.175 148.936 295.225 148.067 296.394 147.822C297.564 147.576 298.836 147.871 299.779 148.607C298.343 149.887 296.975 151.234 295.539 152.514C297.032 151.501 299.649 152.221 300.797 153.612C301.946 155.004 302.314 156.865 302.574 158.651C303.558 165.433 303.504 172.359 302.495 179.138C301.974 182.643 300.611 187.141 297.741 189.218L262.005 178.983Z" fill="#37474F"/>
<path d="M279.125 191.921L279.843 199.96C279.899 200.586 279.701 201.188 279.388 201.732C278.485 203.307 278.764 205.822 280.098 206.984C281.068 207.829 282.405 208.108 283.688 208.202C288.647 208.562 293.704 206.423 296.973 203.076C297.686 202.347 298.052 201.345 298.026 200.325L297.499 179.939L279.125 191.921Z" fill="#FFD0CF"/>
<path opacity="0.3" d="M297.499 179.94L279.125 191.921L279.762 199.05C283.657 198.137 287.576 197.012 290.658 194.505C294.58 191.318 298.028 188.158 297.499 179.94Z" fill="black"/>
<path d="M258.23 162.826C258.624 172.191 260.876 181.475 264.821 189.979C265.685 191.842 266.643 193.687 267.989 195.238C269.336 196.788 271.116 198.035 273.133 198.411C275.616 198.875 278.132 198 280.507 197.139C284.848 195.564 289.299 193.925 292.779 190.887C296.258 187.849 298.599 183.052 297.427 178.584C299.923 179.487 302.85 179.328 304.941 177.691C307.03 176.055 308.194 173.308 307.915 170.668C307.644 168.1 305.68 165.528 303.098 165.463C301.52 165.423 300.033 166.312 298.983 167.49C297.934 168.669 297.25 170.121 296.578 171.549C296.258 172.23 295.922 172.931 295.355 173.424C294.786 173.917 293.918 174.147 293.27 173.765C292.562 173.347 292.387 172.419 292.281 171.604L291.536 165.81C291.418 164.899 290.765 164.164 289.887 163.894C288.612 163.502 287.526 162.563 286.792 161.382C286.158 160.36 285.762 159.221 285.459 158.051C285.214 157.11 284.135 156.67 283.31 157.185C276.138 161.652 266.546 163.477 258.23 162.826Z" fill="#FFD0CF"/>
<path d="M273.318 174.551L269.674 184.158L276.04 184.234L273.318 174.551Z" fill="#FFB9B9"/>
<path d="M282.505 186.192C281.077 187.225 279.649 188.257 278.221 189.29C279.089 190.234 280.886 190.396 281.949 189.677C283.011 188.957 283.061 187.348 282.505 186.192Z" fill="#F28F8F"/>
<path opacity="0.3" d="M282.505 186.192C281.077 187.225 279.649 188.257 278.221 189.29C279.089 190.234 280.886 190.396 281.949 189.677C283.011 188.957 283.061 187.348 282.505 186.192Z" fill="black"/>
<path d="M280.348 190.115C280.929 190.116 281.502 189.978 281.947 189.676C282.78 189.111 282.984 188 282.767 186.988C282.103 187.109 281.474 187.441 281.034 187.954C280.527 188.543 280.291 189.34 280.348 190.115Z" fill="#F28F8F"/>
<path d="M282.302 173.332C282.571 174.287 282.013 175.28 281.059 175.548C280.104 175.817 279.111 175.259 278.843 174.304C278.574 173.348 279.132 172.356 280.087 172.088C281.041 171.82 282.033 172.377 282.302 173.332Z" fill="#263238"/>
<path d="M267.621 176.854C267.89 177.809 267.333 178.801 266.377 179.07C265.422 179.339 264.429 178.781 264.161 177.826C263.892 176.87 264.45 175.879 265.405 175.61C266.36 175.341 267.353 175.898 267.621 176.854Z" fill="#263238"/>
<path d="M264.003 170.442C262.972 171.685 261.943 172.929 260.913 174.171C260.278 173.368 260.311 172.084 260.899 171.246C261.487 170.408 263.031 170.119 264.003 170.442Z" fill="#263238"/>
<path d="M278.76 166.07C280.286 166.594 281.813 167.119 283.34 167.644C283.463 166.628 282.765 165.549 281.828 165.14C280.89 164.731 279.421 165.289 278.76 166.07Z" fill="#263238"/>
<path d="M273.853 279.416C273.852 279.408 273.851 279.4 273.85 279.394C273.85 279.392 273.849 279.388 273.849 279.388C273.847 279.376 273.846 279.364 273.844 279.351C273.839 279.33 273.834 279.309 273.828 279.286C273.823 279.266 273.816 279.245 273.808 279.224C273.802 279.204 273.793 279.183 273.785 279.161C273.776 279.14 273.767 279.119 273.759 279.099C273.75 279.078 273.739 279.057 273.729 279.035C273.719 279.014 273.707 278.992 273.696 278.97L273.694 278.965L261.235 255.771C261.224 255.749 261.212 255.728 261.2 255.706C261.186 255.683 261.173 255.66 261.159 255.637C261.144 255.613 261.13 255.59 261.115 255.566C261.099 255.542 261.084 255.519 261.067 255.493C261.051 255.469 261.034 255.444 261.017 255.419C260.999 255.394 260.981 255.369 260.963 255.345C260.944 255.319 260.925 255.295 260.906 255.27C260.888 255.245 260.87 255.221 260.85 255.198C260.833 255.175 260.814 255.152 260.795 255.13C260.779 255.109 260.761 255.088 260.744 255.067C260.73 255.049 260.715 255.032 260.7 255.014C260.686 254.996 260.671 254.979 260.655 254.961C260.643 254.947 260.631 254.932 260.618 254.919C260.607 254.907 260.596 254.894 260.585 254.882C260.574 254.87 260.563 254.856 260.552 254.844C260.541 254.832 260.528 254.819 260.517 254.807C260.509 254.797 260.5 254.787 260.491 254.778C260.483 254.769 260.473 254.759 260.466 254.751C260.457 254.742 260.449 254.732 260.44 254.723C260.432 254.714 260.423 254.705 260.415 254.696C260.406 254.687 260.397 254.677 260.389 254.668C260.381 254.66 260.372 254.651 260.364 254.643C260.357 254.635 260.349 254.627 260.341 254.619C260.333 254.612 260.326 254.604 260.318 254.596C260.31 254.589 260.303 254.581 260.295 254.573C260.287 254.566 260.279 254.558 260.272 254.55C260.264 254.542 260.256 254.535 260.249 254.527C260.241 254.519 260.232 254.51 260.224 254.503C260.216 254.494 260.207 254.486 260.199 254.477C260.19 254.469 260.181 254.46 260.174 254.452C260.165 254.443 260.156 254.435 260.147 254.427C260.138 254.418 260.13 254.41 260.121 254.401C260.112 254.394 260.103 254.385 260.094 254.376C260.08 254.363 260.067 254.35 260.052 254.336C260.037 254.322 260.022 254.307 260.005 254.292C259.99 254.278 259.973 254.264 259.958 254.249C259.898 254.195 259.838 254.141 259.777 254.087C259.764 254.076 259.75 254.064 259.737 254.053C259.724 254.042 259.711 254.03 259.698 254.019C259.684 254.008 259.671 253.997 259.658 253.986C259.645 253.975 259.631 253.964 259.618 253.953C259.609 253.946 259.601 253.938 259.593 253.932C259.584 253.924 259.576 253.918 259.566 253.911C259.558 253.903 259.55 253.897 259.541 253.89C259.532 253.883 259.523 253.876 259.516 253.869C259.507 253.862 259.498 253.855 259.49 253.848C259.482 253.841 259.473 253.834 259.464 253.827C259.455 253.821 259.447 253.814 259.439 253.807C259.43 253.801 259.422 253.794 259.413 253.788C259.404 253.781 259.397 253.774 259.388 253.768C259.379 253.761 259.371 253.754 259.363 253.748C259.354 253.741 259.346 253.735 259.337 253.728C259.328 253.721 259.321 253.715 259.312 253.708C259.303 253.7 259.293 253.694 259.284 253.687C259.274 253.68 259.263 253.672 259.254 253.664C259.244 253.656 259.233 253.649 259.223 253.641C259.213 253.633 259.202 253.626 259.192 253.618C259.182 253.61 259.171 253.602 259.161 253.596C259.15 253.588 259.14 253.58 259.129 253.573C259.115 253.563 259.1 253.553 259.086 253.543C259.072 253.532 259.057 253.523 259.043 253.512C259.029 253.502 259.014 253.492 259 253.482C258.985 253.471 258.969 253.46 258.953 253.45C258.932 253.437 258.912 253.423 258.892 253.41C258.872 253.396 258.852 253.383 258.831 253.37C258.808 253.354 258.786 253.34 258.763 253.326C258.738 253.31 258.712 253.294 258.688 253.278C258.663 253.263 258.636 253.246 258.611 253.231C258.584 253.214 258.557 253.199 258.53 253.184C258.514 253.175 258.498 253.165 258.482 253.156L244.159 245.099C244.148 245.092 244.136 245.085 244.125 245.08C244.097 245.064 244.07 245.05 244.042 245.036C244.014 245.021 243.988 245.007 243.962 244.994C243.935 244.981 243.909 244.969 243.883 244.955C243.857 244.943 243.831 244.931 243.806 244.919C243.781 244.908 243.755 244.897 243.731 244.886C243.705 244.875 243.679 244.865 243.655 244.855C243.63 244.845 243.604 244.836 243.581 244.827C243.555 244.819 243.53 244.81 243.504 244.802C243.477 244.793 243.451 244.787 243.426 244.781C243.407 244.777 243.391 244.773 243.373 244.77L243.369 244.769C243.361 244.768 243.353 244.766 243.346 244.764C243.316 244.758 243.287 244.754 243.261 244.751C243.224 244.748 243.191 244.747 243.16 244.749C243.063 244.755 242.991 244.784 242.944 244.837L241.235 246.793C241.245 246.781 241.28 246.793 241.294 246.783C241.152 246.89 241.142 247.12 241.347 247.501L253.805 270.695C254.254 271.53 255.474 272.694 256.551 273.3L270.875 281.358C271.614 281.773 272.056 281.783 272.12 281.48C272.111 281.524 272.118 281.582 272.092 281.612L273.802 279.656C273.824 279.631 273.839 279.601 273.849 279.566C273.856 279.542 273.86 279.515 273.861 279.487C273.857 279.463 273.857 279.44 273.853 279.416ZM241.557 246.737C241.598 246.739 241.609 246.712 241.656 246.721C241.656 246.721 241.658 246.722 241.661 246.722C241.674 246.724 241.697 246.739 241.711 246.743C241.646 246.728 241.61 246.74 241.557 246.737ZM257.98 255.985C258.112 256.097 258.25 256.202 258.374 256.321C258.25 256.203 258.112 256.098 257.98 255.985ZM258.876 256.856C258.93 256.918 258.999 256.98 259.05 257.042C258.999 256.98 258.931 256.918 258.876 256.856ZM272.134 281.383C272.127 281.261 272.086 281.112 271.983 280.919C272.074 281.086 272.124 281.228 272.141 281.343L272.142 281.348C272.144 281.364 272.133 281.369 272.134 281.383Z" fill="#455A64"/>
<path opacity="0.15" d="M273.853 279.416C273.852 279.409 273.851 279.401 273.85 279.394C273.85 279.392 273.849 279.389 273.849 279.389C273.847 279.377 273.845 279.365 273.843 279.351C273.839 279.33 273.833 279.309 273.828 279.286C273.822 279.266 273.816 279.246 273.808 279.225C273.801 279.205 273.793 279.184 273.785 279.162C273.776 279.141 273.767 279.12 273.758 279.099C273.75 279.078 273.739 279.057 273.729 279.035C273.719 279.014 273.707 278.992 273.696 278.97L273.693 278.966L261.235 255.771L259.525 257.726L271.984 280.921C272.075 281.088 272.125 281.229 272.142 281.345L272.143 281.349C272.158 281.464 272.14 281.551 272.089 281.609L273.798 279.653C273.82 279.628 273.835 279.598 273.845 279.563C273.852 279.539 273.856 279.512 273.858 279.485C273.856 279.464 273.856 279.441 273.853 279.416Z" fill="white"/>
<path opacity="0.2" d="M261.199 255.706C261.185 255.683 261.172 255.66 261.158 255.637C261.144 255.613 261.129 255.59 261.114 255.566C261.098 255.542 261.083 255.519 261.066 255.493C261.05 255.469 261.033 255.444 261.016 255.419C260.998 255.394 260.98 255.369 260.962 255.345C260.943 255.319 260.924 255.295 260.906 255.27C260.887 255.245 260.869 255.221 260.849 255.198C260.832 255.175 260.813 255.152 260.794 255.13C260.778 255.109 260.76 255.088 260.744 255.067C260.729 255.049 260.714 255.032 260.699 255.014C260.685 254.996 260.67 254.979 260.654 254.961C260.642 254.947 260.63 254.932 260.617 254.919C260.606 254.907 260.595 254.894 260.584 254.882C260.573 254.87 260.562 254.856 260.551 254.844C260.54 254.832 260.528 254.819 260.517 254.807C260.508 254.797 260.499 254.787 260.49 254.778C260.482 254.769 260.472 254.759 260.465 254.751C260.456 254.742 260.448 254.732 260.439 254.723C260.431 254.714 260.422 254.705 260.414 254.696C260.405 254.687 260.396 254.677 260.388 254.668C260.38 254.66 260.371 254.651 260.363 254.643C260.356 254.635 260.348 254.627 260.34 254.619C260.333 254.612 260.325 254.604 260.317 254.596C260.309 254.589 260.302 254.581 260.294 254.573C260.286 254.566 260.279 254.558 260.271 254.55C260.263 254.542 260.255 254.535 260.248 254.527C260.24 254.519 260.231 254.51 260.223 254.503C260.215 254.494 260.206 254.486 260.198 254.477C260.189 254.469 260.18 254.46 260.173 254.452C260.164 254.443 260.155 254.435 260.146 254.427C260.137 254.418 260.129 254.41 260.12 254.401C260.111 254.394 260.102 254.385 260.093 254.376C260.079 254.363 260.066 254.35 260.052 254.336C260.036 254.322 260.021 254.307 260.004 254.292C259.989 254.278 259.972 254.264 259.957 254.249C259.897 254.195 259.837 254.141 259.776 254.087C259.763 254.076 259.75 254.064 259.736 254.053C259.723 254.042 259.71 254.03 259.697 254.019C259.683 254.008 259.67 253.997 259.657 253.986C259.644 253.975 259.631 253.964 259.617 253.953C259.609 253.946 259.6 253.938 259.592 253.932C259.583 253.924 259.575 253.918 259.566 253.911C259.557 253.903 259.549 253.897 259.54 253.89C259.531 253.883 259.523 253.876 259.515 253.869C259.506 253.862 259.497 253.855 259.49 253.848C259.481 253.841 259.472 253.834 259.463 253.827C259.454 253.821 259.447 253.814 259.438 253.807C259.429 253.801 259.421 253.794 259.412 253.788C259.404 253.781 259.396 253.774 259.387 253.768C259.378 253.761 259.37 253.754 259.362 253.748C259.353 253.741 259.345 253.735 259.336 253.728C259.328 253.721 259.32 253.715 259.311 253.708C259.302 253.7 259.292 253.694 259.283 253.687C259.274 253.68 259.263 253.672 259.253 253.664C259.243 253.656 259.232 253.649 259.222 253.641C259.212 253.633 259.201 253.626 259.191 253.618C259.181 253.61 259.17 253.602 259.16 253.596C259.149 253.588 259.139 253.58 259.128 253.573C259.114 253.563 259.099 253.553 259.085 253.543C259.071 253.532 259.056 253.523 259.042 253.512C259.028 253.502 259.013 253.492 258.999 253.482C258.984 253.471 258.968 253.46 258.952 253.45C258.931 253.437 258.911 253.423 258.891 253.41C258.871 253.396 258.851 253.383 258.831 253.37C258.807 253.354 258.785 253.34 258.762 253.326C258.737 253.31 258.712 253.294 258.687 253.278C258.662 253.263 258.635 253.246 258.61 253.231C258.583 253.214 258.556 253.199 258.529 253.184C258.513 253.175 258.497 253.165 258.481 253.156L244.158 245.099C244.147 245.092 244.135 245.085 244.124 245.08C244.096 245.064 244.069 245.05 244.041 245.036C244.014 245.021 243.987 245.007 243.961 244.994C243.934 244.981 243.908 244.969 243.882 244.955C243.856 244.943 243.831 244.931 243.805 244.919C243.78 244.908 243.755 244.897 243.73 244.886C243.704 244.875 243.679 244.865 243.654 244.855C243.629 244.845 243.604 244.836 243.58 244.827C243.554 244.819 243.529 244.81 243.503 244.802C243.476 244.793 243.45 244.787 243.425 244.781C243.406 244.777 243.39 244.773 243.372 244.77L243.368 244.769C243.36 244.768 243.352 244.766 243.345 244.764C243.315 244.758 243.286 244.754 243.26 244.751C243.223 244.748 243.19 244.747 243.159 244.749C243.063 244.755 242.99 244.784 242.944 244.837L241.234 246.793C241.309 246.707 241.455 246.683 241.66 246.724C241.66 246.724 241.662 246.725 241.664 246.725C241.869 246.767 242.135 246.875 242.451 247.053L256.774 255.111C257.039 255.26 257.314 255.445 257.586 255.652L257.589 255.653C257.86 255.86 258.129 256.088 258.377 256.325L258.378 256.326C258.627 256.563 258.856 256.807 259.052 257.045L259.054 257.048C259.25 257.286 259.413 257.519 259.527 257.73L261.236 255.775C261.223 255.749 261.211 255.728 261.199 255.706Z" fill="white"/>
<path d="M323.242 208.155C321.213 204.668 318.1 202.214 314.077 201.911L311.665 205.593C309.154 210.181 307.867 215.337 307.926 220.567L308.359 259.272L308.367 259.274C307.417 259.66 306.472 260.061 305.527 260.453C297.692 263.706 289.001 266.602 280.63 267.976C276.425 264.428 270.429 262.586 264.928 262.648L267.042 266.582C263.038 269.145 253.998 264.525 253.998 264.525C253.334 270.167 256.989 276.024 261.835 278.987C266.681 281.95 312.95 277.6 322.762 271.246C329.212 267.069 327.687 227.164 327.687 227.164C328.137 220.524 326.589 213.905 323.242 208.155Z" fill="#FFD0CF"/>
<path d="M244.216 252.845C244.082 254.068 243.55 256.25 243.689 257.473C244.104 261.135 245.581 264.728 248.152 267.369C248.703 267.935 249.322 268.468 250.07 268.724C250.819 268.98 251.721 268.907 252.301 268.369C252.917 267.797 253.029 266.878 253.079 266.04C253.153 264.786 253.171 263.512 252.873 262.292C252.574 261.072 251.928 259.897 250.897 259.18C250.145 258.656 249.244 258.406 248.391 258.075C247.538 257.743 246.833 257.178 246.157 256.458L244.216 252.845Z" fill="#FFD0CF"/>
<path d="M314.078 201.91C325.201 202.961 331.373 210.672 328.645 244.746C320.738 249.87 306.78 245.502 306.78 245.502C304.405 208.185 310.457 204.088 314.078 201.91Z" fill="#C86868"/>
<path opacity="0.1" d="M314.078 201.91C325.201 202.961 331.373 210.672 328.645 244.746C320.738 249.87 306.78 245.502 306.78 245.502C304.405 208.185 310.457 204.088 314.078 201.91Z" fill="white"/>
<path d="M370.179 376.903L365.545 379.596L365.559 374.236L370.179 376.903Z" fill="#E6E6E6"/>
<path d="M365.744 322.214L410.835 348.248L365.744 322.214Z" fill="#CFCFCF"/>
<path d="M370.177 376.903L410.733 400.318L410.717 405.678L415.544 408.464L415.722 345.468L360.895 313.813L360.717 376.809L365.543 379.596L365.559 374.236L370.177 376.903ZM410.778 368.681L365.687 342.647L365.745 322.214L410.836 348.248L410.778 368.681ZM410.704 394.701L365.613 368.667L365.67 348.296V348.238L410.761 374.272L410.704 394.701Z" fill="#E0E0E0"/>
<path d="M365.613 368.667L365.671 348.298V348.239L410.762 374.273L410.703 394.701L365.613 368.667Z" fill="#E0E0E0"/>
<path d="M365.686 342.648L365.744 322.214L410.835 348.248L410.777 368.681L365.686 342.648Z" fill="#E0E0E0"/>
<path d="M415.722 345.467L463.588 317.65L463.409 380.646L415.543 408.463L415.722 345.467Z" fill="#EBEBEB"/>
<path d="M415.722 345.468L360.895 313.813L408.761 285.996L463.588 317.651L415.722 345.468Z" fill="#F5F5F5"/>
<path opacity="0.2" d="M370.179 376.903L365.545 379.596L365.559 374.236L370.179 376.903Z" fill="white"/>
<path d="M365.744 322.214L410.835 348.248L365.744 322.214Z" fill="#CFCFCF"/>
<path opacity="0.8" d="M365.613 368.667L365.671 348.298V348.239L410.762 374.273L410.703 394.701L365.613 368.667Z" fill="white"/>
<path opacity="0.8" d="M365.686 342.648L365.744 322.214L410.835 348.248L410.777 368.681L365.686 342.648Z" fill="white"/>
<path d="M380.445 338.301L380.465 335.48L396.081 344.497L396.061 347.318L380.445 338.301Z" fill="#E0E0E0"/>
<path d="M380.445 363.961L380.465 361.139L396.081 370.155L396.061 372.976L380.445 363.961Z" fill="#E0E0E0"/>
<path opacity="0.05" d="M426.357 302.248C420.269 298.733 410.432 298.733 404.383 302.248C398.334 305.763 398.366 311.461 404.454 314.977C410.543 318.492 420.381 318.492 426.429 314.977C432.477 311.461 432.445 305.762 426.357 302.248Z" fill="black"/>
<path d="M431.636 280.131L414.934 280.618L398.233 280.131C397.513 291.409 399.716 302.904 402.752 308.518L402.764 308.516C403.307 309.748 404.4 310.916 406.07 311.881C410.998 314.726 418.962 314.726 423.858 311.881C425.555 310.894 426.647 309.693 427.162 308.429C430.173 302.785 432.351 291.353 431.636 280.131Z" fill="white"/>
<path d="M426.705 273.289C433.248 277.067 433.284 283.193 426.782 286.97C420.28 290.748 409.706 290.748 403.162 286.97C396.619 283.193 396.585 277.068 403.086 273.289C409.588 269.512 420.162 269.512 426.705 273.289Z" fill="#EBEBEB"/>
<path d="M424.117 274.794C429.223 277.742 429.249 282.52 424.178 285.467C419.105 288.415 410.856 288.415 405.751 285.467C400.645 282.52 400.619 277.742 405.691 274.794C410.763 271.846 419.013 271.846 424.117 274.794Z" fill="#E0E0E0"/>
<g opacity="0.15">
<path d="M424.117 274.794C429.223 277.742 429.249 282.52 424.178 285.467C419.105 288.415 410.856 288.415 405.751 285.467C400.645 282.52 400.619 277.742 405.691 274.794C410.763 271.846 419.013 271.846 424.117 274.794Z" fill="black"/>
</g>
<path d="M413.54 280.603C416.343 282.9 420.1 283.752 423.337 282.831C426.564 281.912 429.195 279.249 430.202 275.89C428.16 275.002 426.553 273.694 424.84 272.169C427.226 271.54 429.997 271.638 432.43 272.437C433.746 270.43 434.083 267.541 433.003 265.198C430.124 263.934 426.815 263.698 423.948 264.572C426.486 262.375 429.711 261.354 433.103 261.687C433.437 253.48 430.905 247.623 430.905 247.623C424.678 247.947 418.641 250.63 416.605 252.561C416.259 255.051 417.293 259.176 417.293 259.176C414.449 257.599 414.4 254.898 414.4 254.898C410.503 255.872 408.837 257.818 408.229 259.302C408.515 261.741 410.766 265.82 411.917 266.775C408.257 265.669 406.773 261.593 406.773 261.593C403.178 270.119 403.864 279.772 413.54 280.603Z" fill="#C86868"/>
<path opacity="0.2" d="M413.54 280.603C416.343 282.9 420.1 283.752 423.337 282.831C426.564 281.912 429.195 279.249 430.202 275.89C428.16 275.002 426.553 273.694 424.84 272.169C427.226 271.54 429.997 271.638 432.43 272.437C433.746 270.43 434.083 267.541 433.003 265.198C430.124 263.934 426.815 263.698 423.948 264.572C426.486 262.375 429.711 261.354 433.103 261.687C433.437 253.48 430.905 247.623 430.905 247.623C424.678 247.947 418.641 250.63 416.605 252.561C416.259 255.051 417.293 259.176 417.293 259.176C414.449 257.599 414.4 254.898 414.4 254.898C410.503 255.872 408.837 257.818 408.229 259.302C408.515 261.741 410.766 265.82 411.917 266.775C408.257 265.669 406.773 261.593 406.773 261.593C403.178 270.119 403.864 279.772 413.54 280.603Z" fill="black"/>
<path opacity="0.3" d="M413.54 280.603C416.343 282.9 420.1 283.752 423.337 282.831C426.564 281.912 429.195 279.249 430.202 275.89C428.16 275.002 426.553 273.694 424.84 272.169C427.226 271.54 429.997 271.638 432.43 272.437C433.746 270.43 434.083 267.541 433.003 265.198C430.124 263.934 426.815 263.698 423.948 264.572C426.486 262.375 429.711 261.354 433.103 261.687C433.437 253.48 430.905 247.623 430.905 247.623C424.678 247.947 418.641 250.63 416.605 252.561C416.259 255.051 417.293 259.176 417.293 259.176C414.449 257.599 414.4 254.898 414.4 254.898C410.503 255.872 408.837 257.818 408.229 259.302C408.515 261.741 410.766 265.82 411.917 266.775C408.257 265.669 406.773 261.593 406.773 261.593C403.178 270.119 403.864 279.772 413.54 280.603Z" fill="white"/>
<path d="M413.322 281.527C413.313 281.527 413.304 281.527 413.294 281.526C413.095 281.51 412.948 281.338 412.962 281.14C413.557 273.276 418.056 260.295 428.782 249.589C428.923 249.449 429.15 249.448 429.291 249.59C429.432 249.731 429.432 249.958 429.291 250.099C418.704 260.667 414.266 273.455 413.68 281.195C413.665 281.384 413.508 281.527 413.322 281.527Z" fill="#F5F5F5"/>
<path d="M416.265 284.809C413.778 286.838 410.303 287.592 407.2 286.776C404.097 285.96 401.441 283.595 400.274 280.605C402.153 279.821 403.591 278.663 405.115 277.313C402.819 276.744 400.201 276.822 397.942 277.524C396.563 275.73 396.059 273.152 396.937 271.068C399.593 269.957 402.715 269.768 405.482 270.562C402.943 268.59 399.82 267.657 396.616 267.932C395.774 260.592 397.813 255.376 397.813 255.376C403.748 255.735 409.624 258.194 411.662 259.933C412.142 262.151 411.423 265.808 411.423 265.808C414.001 264.43 413.881 262.031 413.881 262.031C417.6 262.93 419.278 264.669 419.937 265.988C419.817 268.147 417.959 271.743 416.939 272.583C420.297 271.624 421.437 268.027 421.437 268.027C425.303 275.581 425.244 284.087 416.265 284.809Z" fill="#C86868"/>
<path opacity="0.3" d="M416.265 284.809C413.778 286.838 410.303 287.592 407.2 286.776C404.097 285.96 401.441 283.595 400.274 280.605C402.153 279.821 403.591 278.663 405.115 277.313C402.819 276.744 400.201 276.822 397.942 277.524C396.563 275.73 396.059 273.152 396.937 271.068C399.593 269.957 402.715 269.768 405.482 270.562C402.943 268.59 399.82 267.657 396.616 267.932C395.774 260.592 397.813 255.376 397.813 255.376C403.748 255.735 409.624 258.194 411.662 259.933C412.142 262.151 411.423 265.808 411.423 265.808C414.001 264.43 413.881 262.031 413.881 262.031C417.6 262.93 419.278 264.669 419.937 265.988C419.817 268.147 417.959 271.743 416.939 272.583C420.297 271.624 421.437 268.027 421.437 268.027C425.303 275.581 425.244 284.087 416.265 284.809Z" fill="white"/>
<path d="M416.504 285.668C416.329 285.668 416.176 285.54 416.149 285.362C415.128 278.515 410.152 267.15 399.493 257.653C399.345 257.521 399.332 257.294 399.464 257.145C399.595 256.996 399.822 256.984 399.972 257.115C410.775 266.74 415.821 278.289 416.861 285.255C416.891 285.451 416.755 285.635 416.559 285.664C416.539 285.667 416.522 285.668 416.504 285.668Z" fill="white"/>
</svg>
