<svg width="60" height="60" viewBox="0 0 60 60" fill="none" xmlns="http://www.w3.org/2000/svg">
<g clip-path="url(#clip0_608_11855)">
<rect width="66.4032" height="66.4032" transform="translate(-3.39453 -3.27246)" fill="#2C6483"/>
<g clip-path="url(#clip1_608_11855)">
<path d="M35.5521 18.6667V18C35.5521 15.8 33.7521 14 31.5521 14H18.2188C16.0188 14 14.2188 15.8 14.2188 18V42C14.2188 44.2 16.0188 46 18.2188 46H31.5521C33.7521 46 35.5521 44.2 35.5521 42V33.3333H32.8854V40.6667H16.8854V18C16.8854 17.2667 17.4854 16.6667 18.2188 16.6667H31.5521C32.2854 16.6667 32.8854 17.2667 32.8854 18V18.6667H35.5521Z" fill="white"/>
<path d="M24.8854 35.3333C26.3582 35.3333 27.5521 34.1394 27.5521 32.6667C27.5521 31.1939 26.3582 30 24.8854 30C23.4127 30 22.2188 31.1939 22.2188 32.6667C22.2188 34.1394 23.4127 35.3333 24.8854 35.3333Z" fill="white"/>
<path d="M30.2194 40.3337V40.667H19.5527V40.3337C19.5527 38.307 21.1927 36.667 23.2194 36.667H26.5527C28.5794 36.667 30.2194 38.307 30.2194 40.3337Z" fill="white"/>
<path d="M45.2188 31.333C45.0068 31.333 44.7947 31.265 44.6187 31.133L42.1974 29.317C42.0427 30.4544 41.0641 31.333 39.8854 31.333H32.5521C31.2654 31.333 30.2188 30.2864 30.2188 28.9997V22.6664C30.2188 21.7437 30.8294 20.6664 32.5521 20.6664H39.8854C41.1281 20.6664 42.1468 21.6424 42.2148 22.8677L44.5788 20.8984C44.8748 20.649 45.2908 20.5957 45.6428 20.761C45.9948 20.925 46.2188 21.2784 46.2188 21.6664V30.333C46.2188 30.7117 46.0041 31.0584 45.6654 31.2277C45.5241 31.2984 45.3708 31.333 45.2188 31.333Z" fill="white"/>
</g>
</g>
<defs>
<clipPath id="clip0_608_11855">
<rect x="0.296875" y="0.417969" width="59.0251" height="59.025" rx="29.5125" fill="white"/>
</clipPath>
<clipPath id="clip1_608_11855">
<rect width="32" height="32" fill="white" transform="translate(14.2188 14)"/>
</clipPath>
</defs>
</svg>
