<svg width="60" height="60" viewBox="0 0 60 60" fill="none" xmlns="http://www.w3.org/2000/svg">
<g clip-path="url(#clip0_608_11835)">
<rect width="66.4032" height="66.4032" transform="translate(-3.08594 -3.68945)" fill="#2C6483"/>
<path d="M21.8652 20.8878C21.8652 20.2236 22.4026 19.6802 23.0728 19.6802H37.3641C38.0343 19.6802 38.5716 20.2236 38.5716 20.8878V23.2365H39.9784V18.7504C39.9784 18.3882 39.6826 18.0923 39.3203 18.0923H28.7965C28.0781 18.0923 27.432 17.6938 27.106 17.0598L26.5324 15.9368C26.4116 15.7074 26.1762 15.5625 25.9166 15.5625H21.1407C20.7724 15.5625 20.4766 15.8583 20.4766 16.2206V23.2365H21.8652V20.8878Z" fill="white"/>
<path d="M23.0723 20.8877H37.3636V23.2364H23.0723V20.8877Z" fill="white"/>
<path d="M40.9867 24.4443H19.4501C19.0449 24.4443 18.7024 24.8032 18.7678 25.2353L20.3316 35.8134C20.3799 36.1575 20.6697 36.4111 21.0138 36.4111H23.0426V31.7439C23.0426 30.7719 23.8093 29.9749 24.7935 29.9387C26.6531 29.8481 28.072 29.4255 29.1044 28.6405C29.4425 28.393 29.8229 28.2662 30.2214 28.2662C30.6139 28.2662 30.9942 28.393 31.3203 28.6285C32.3648 29.4255 33.7837 29.8481 35.6614 29.9447C36.6214 29.9749 37.3882 30.7719 37.3882 31.7439V36.4111H39.4229C39.761 36.4111 40.0569 36.1575 40.1052 35.8194L41.669 25.2353C41.7336 24.8084 41.3978 24.4443 40.9867 24.4443Z" fill="white"/>
<path d="M35.6009 31.148C33.6508 31.0514 31.936 30.6107 30.6017 29.6024C30.3722 29.4333 30.0643 29.4333 29.8349 29.6024C28.5006 30.6107 26.7858 31.0514 24.8356 31.148C24.5096 31.1601 24.25 31.4258 24.25 31.7458V36.5518C24.25 38.7012 25.1013 40.7963 26.6892 42.2514C28.0477 43.5012 29.4485 44.1654 29.9858 44.3888C30.1368 44.4552 30.2998 44.4552 30.4507 44.3888C30.97 44.1714 32.2802 43.5556 33.5964 42.3903C33.6085 42.3842 33.6145 42.3661 33.6266 42.3601C35.2809 40.905 36.1806 38.7556 36.1806 36.5458V31.7458C36.1806 31.4258 35.927 31.1601 35.6009 31.148ZM31.1671 36.8631C31.043 36.9665 30.981 37.1216 31.0017 37.2819C31.0689 37.7266 31.1982 38.6057 31.2809 39.1693C31.3222 39.4485 31.1051 39.6967 30.8207 39.6967H29.6158C29.3314 39.6967 29.1143 39.4485 29.1556 39.1641L29.4297 37.2819C29.4555 37.1268 29.3987 36.9665 29.2745 36.8682C28.9384 36.5941 28.7265 36.1753 28.7265 35.7099C28.7265 34.7274 29.683 33.957 30.7018 34.2931C31.1413 34.4379 31.4929 34.7947 31.6325 35.229C31.8393 35.8754 31.6118 36.4959 31.1671 36.8631Z" fill="white"/>
</g>
<defs>
<clipPath id="clip0_608_11835">
<rect x="0.601562" width="59.0251" height="59.025" rx="29.5125" fill="white"/>
</clipPath>
</defs>
</svg>
