<svg width="60" height="60" viewBox="0 0 60 60" fill="none" xmlns="http://www.w3.org/2000/svg">
<g clip-path="url(#clip0_608_11865)">
<rect width="66.4032" height="66.4032" transform="translate(-3.39453 -2.85352)" fill="#2C6483"/>
<g clip-path="url(#clip1_608_11865)">
<path d="M45.5539 37.9973L34.2498 17.2175C32.4336 14.16 28.0063 14.1559 26.1877 17.2175L14.8842 37.9973C13.0276 41.1216 15.2754 45.078 18.9143 45.078H41.5228C45.1587 45.078 47.4105 41.1248 45.5539 37.9973ZM30.2187 41.328C29.1851 41.328 28.3437 40.4866 28.3437 39.453C28.3437 38.4194 29.1851 37.578 30.2187 37.578C31.2524 37.578 32.0937 38.4194 32.0937 39.453C32.0937 40.4866 31.2524 41.328 30.2187 41.328ZM32.0937 33.828C32.0937 34.8616 31.2524 35.703 30.2187 35.703C29.1851 35.703 28.3437 34.8616 28.3437 33.828V24.453C28.3437 23.4194 29.1851 22.578 30.2187 22.578C31.2524 22.578 32.0937 23.4194 32.0937 24.453V33.828Z" fill="white"/>
</g>
</g>
<defs>
<clipPath id="clip0_608_11865">
<rect x="0.296875" y="0.835938" width="59.0251" height="59.025" rx="29.5125" fill="white"/>
</clipPath>
<clipPath id="clip1_608_11865">
<rect width="32" height="32" fill="white" transform="translate(14.2188 14)"/>
</clipPath>
</defs>
</svg>
