<svg width="520" height="455" viewBox="0 0 520 455" fill="none" xmlns="http://www.w3.org/2000/svg">
<path d="M369.355 454.506H157.228C150.674 454.506 145.361 449.193 145.361 442.639V11.867C145.361 5.31286 150.674 0 157.228 0H369.355C375.909 0 381.222 5.31286 381.222 11.867V442.639C381.222 449.193 375.909 454.506 369.355 454.506Z" fill="#44393D"/>
<path d="M362.233 13.0528H305.221V24.9198C305.221 28.1963 302.564 30.8533 299.287 30.8533H227.294C224.017 30.8533 221.36 28.1963 221.36 24.9198V13.0528H164.348C161.071 13.0528 158.414 15.7098 158.414 18.9863V435.518C158.414 438.795 161.071 441.452 164.348 441.452H362.233C365.51 441.452 368.167 438.795 368.167 435.518V18.9863C368.167 15.7098 365.51 13.0528 362.233 13.0528Z" fill="#79ACB7"/>
<path d="M158.859 437.76C159.745 439.925 161.865 441.452 164.348 441.452H362.234C365.51 441.452 368.167 438.795 368.167 435.519V18.9869C368.167 17.4062 367.539 15.9786 366.531 14.9142L158.859 437.76Z" fill="#6498A5"/>
<path d="M362.233 13.0537H305.221V24.9207C305.221 28.1972 302.564 30.8542 299.287 30.8542H227.294C224.017 30.8542 221.36 28.1972 221.36 24.9207V13.0537H164.348C161.071 13.0537 158.414 15.7107 158.414 18.9872V435.519C158.414 438.795 161.071 441.452 164.348 441.452H362.233C365.51 441.452 368.167 438.795 368.167 435.519V18.9872C368.167 15.7107 365.51 13.0537 362.233 13.0537Z" stroke="#FEF9F3" stroke-miterlimit="10"/>
<path d="M268.482 21.8059H236.144C234.268 21.8059 232.732 20.2704 232.732 18.3942C232.732 16.518 234.268 14.9824 236.144 14.9824H268.482C270.358 14.9824 271.894 16.518 271.894 18.3942C271.894 20.2704 270.358 21.8059 268.482 21.8059Z" fill="#6498A5"/>
<path d="M290.436 21.8059H285.392C283.516 21.8059 281.98 20.2704 281.98 18.3942C281.98 16.518 283.516 14.9824 285.392 14.9824H290.436C292.312 14.9824 293.847 16.518 293.847 18.3942C293.847 20.2704 292.312 21.8059 290.436 21.8059Z" fill="#6498A5"/>
<path d="M304.421 263.224C333.914 263.224 357.823 239.315 357.823 209.823C357.823 180.33 333.914 156.421 304.421 156.421C274.928 156.421 251.02 180.33 251.02 209.823C251.02 239.315 274.928 263.224 304.421 263.224Z" fill="#EAE7E2"/>
<path d="M247.237 209.822C247.237 189.777 257.56 172.152 273.171 161.941C266.422 140.183 246.137 124.38 222.159 124.38C192.666 124.38 168.758 148.288 168.758 177.782C168.758 207.275 192.666 231.183 222.159 231.183C231.946 231.183 241.11 228.538 248.998 223.942C247.85 219.426 247.237 214.696 247.237 209.822Z" fill="#EAE7E2"/>
<path d="M232.352 188.083H205.426V160.46C205.426 153.446 211.112 147.758 218.128 147.758H219.651C226.665 147.758 232.353 153.444 232.353 160.46V188.083H232.352Z" fill="#5A2633"/>
<path d="M239.658 196.706H198.123C198.123 184.068 207.421 173.822 218.89 173.822C230.36 173.822 239.658 184.068 239.658 196.706Z" fill="#FEC4B8"/>
<path d="M218.89 179.202C216.833 179.202 215.166 177.535 215.166 175.478V168.442H222.614V175.478C222.614 177.535 220.946 179.202 218.89 179.202Z" fill="#FC3D2A"/>
<path d="M220.646 154.856C218.786 158.443 211.235 159.933 210.147 160.131C210.064 160.718 210.012 161.317 210.012 161.932C210.012 167.834 213.987 172.619 218.892 172.619C223.655 172.619 227.532 168.101 227.751 162.432C223.272 161.386 220.646 154.856 220.646 154.856Z" fill="#FF6A49"/>
<path d="M325.191 232.135H283.656C283.656 219.497 292.954 209.251 304.424 209.251C315.893 209.251 325.191 219.497 325.191 232.135Z" fill="#FEC4B8"/>
<path d="M304.423 214.633C302.367 214.633 300.699 212.966 300.699 210.909V203.873H308.147V210.909C308.147 212.966 306.48 214.633 304.423 214.633Z" fill="#FC3D2A"/>
<path d="M304.425 208.047C309.329 208.047 313.305 203.262 313.305 197.359C313.305 191.457 309.329 186.672 304.425 186.672C299.521 186.672 295.545 191.457 295.545 197.359C295.545 203.262 299.521 208.047 304.425 208.047Z" fill="#FF6A49"/>
<path d="M313.178 199.565H295.669C294.606 199.565 293.736 198.696 293.736 197.632C293.736 196.569 294.606 195.699 295.669 195.699H313.178C314.241 195.699 315.111 196.569 315.111 197.632C315.111 198.696 314.241 199.565 313.178 199.565Z" fill="#FF6A49"/>
<path d="M295.159 196.523C294.643 194.168 294.587 191.581 295.197 189.148C295.431 188.219 296.081 187.155 296.921 186.592C297.388 186.28 297.988 186.336 298.449 186.065C299.138 185.658 299.44 184.993 300.245 184.667C301.077 184.33 302.048 184.164 302.958 184.205C305.176 184.305 307.023 185.37 309.255 184.48C311.24 183.689 312.34 184.527 311.54 186.561C314.407 185.349 313.408 188.674 313.301 189.722C313.18 190.908 313.282 192.32 313.464 193.529C313.852 196.131 313.573 196.991 313.029 198.279C312.635 195.487 312.044 191.52 309.519 190.438C307.533 189.586 304.349 190.695 302.296 190.388C300.489 190.117 298.923 189.889 297.72 191.607C296.74 193.006 296.275 196.416 296.163 198.1C295.995 197.947 295.209 197.289 295.159 196.523Z" fill="#5A2633"/>
<path d="M281.983 86.7189C281.983 81.0382 277.377 76.4326 271.696 76.4326C268.216 76.4326 265.153 78.1711 263.292 80.8163C261.43 78.1711 258.367 76.4326 254.888 76.4326C249.207 76.4326 244.602 81.0382 244.602 86.7189C244.602 98.5076 263.292 108.694 263.292 108.694C263.292 108.694 281.983 99.4285 281.983 86.7189Z" fill="#FF6A49"/>
<path d="M281.983 86.7189C281.983 81.0382 277.377 76.4326 271.696 76.4326C268.216 76.4326 265.153 78.1711 263.292 80.8163C261.43 78.1711 258.367 76.4326 254.888 76.4326C249.207 76.4326 244.602 81.0382 244.602 86.7189C244.602 98.5076 263.292 108.694 263.292 108.694C263.292 108.694 281.983 99.4285 281.983 86.7189Z" stroke="#FEF9F3" stroke-miterlimit="10"/>
<path d="M180.74 288.076H182.842L187.785 300.15H187.956L192.899 288.076H195.001V302.621H193.354V291.57H193.211L188.666 302.621H187.075L182.53 291.57H182.388V302.621H180.74V288.076ZM202.879 302.848C201.828 302.848 200.922 302.616 200.159 302.152C199.402 301.684 198.817 301.03 198.405 300.192C197.998 299.349 197.794 298.369 197.794 297.252C197.794 296.134 197.998 295.15 198.405 294.297C198.817 293.44 199.39 292.773 200.124 292.294C200.862 291.811 201.724 291.57 202.709 291.57C203.277 291.57 203.838 291.665 204.392 291.854C204.946 292.043 205.45 292.351 205.905 292.777C206.36 293.199 206.722 293.757 206.992 294.453C207.262 295.15 207.396 296.007 207.396 297.025V297.735H198.987V296.286H205.692C205.692 295.67 205.569 295.121 205.323 294.638C205.081 294.155 204.735 293.774 204.286 293.495C203.841 293.215 203.315 293.076 202.709 293.076C202.041 293.076 201.464 293.241 200.976 293.573C200.493 293.9 200.121 294.326 199.861 294.851C199.601 295.377 199.47 295.94 199.47 296.542V297.507C199.47 298.331 199.612 299.03 199.896 299.603C200.185 300.171 200.585 300.604 201.097 300.902C201.608 301.196 202.202 301.343 202.879 301.343C203.32 301.343 203.718 301.281 204.073 301.158C204.432 301.03 204.743 300.841 205.003 300.59C205.263 300.334 205.465 300.017 205.607 299.638L207.226 300.093C207.056 300.642 206.769 301.125 206.367 301.542C205.964 301.953 205.467 302.275 204.875 302.507C204.283 302.735 203.618 302.848 202.879 302.848ZM214.52 302.848C213.469 302.848 212.562 302.616 211.8 302.152C211.042 301.684 210.458 301.03 210.046 300.192C209.638 299.349 209.435 298.369 209.435 297.252C209.435 296.134 209.638 295.15 210.046 294.297C210.458 293.44 211.03 292.773 211.764 292.294C212.503 291.811 213.365 291.57 214.35 291.57C214.918 291.57 215.479 291.665 216.033 291.854C216.587 292.043 217.091 292.351 217.546 292.777C218 293.199 218.362 293.757 218.632 294.453C218.902 295.15 219.037 296.007 219.037 297.025V297.735H210.628V296.286H217.333C217.333 295.67 217.209 295.121 216.963 294.638C216.722 294.155 216.376 293.774 215.926 293.495C215.481 293.215 214.956 293.076 214.35 293.076C213.682 293.076 213.104 293.241 212.617 293.573C212.134 293.9 211.762 294.326 211.502 294.851C211.241 295.377 211.111 295.94 211.111 296.542V297.507C211.111 298.331 211.253 299.03 211.537 299.603C211.826 300.171 212.226 300.604 212.737 300.902C213.249 301.196 213.843 301.343 214.52 301.343C214.96 301.343 215.358 301.281 215.713 301.158C216.073 301.03 216.383 300.841 216.644 300.59C216.904 300.334 217.105 300.017 217.247 299.638L218.867 300.093C218.696 300.642 218.41 301.125 218.007 301.542C217.605 301.953 217.108 302.275 216.516 302.507C215.924 302.735 215.259 302.848 214.52 302.848ZM226.331 291.712V293.132H220.678V291.712H226.331ZM222.325 289.098H224.002V299.496C224.002 299.97 224.07 300.325 224.208 300.561C224.35 300.793 224.53 300.95 224.747 301.03C224.97 301.106 225.204 301.144 225.45 301.144C225.635 301.144 225.787 301.134 225.905 301.115C226.023 301.092 226.118 301.073 226.189 301.059L226.53 302.564C226.416 302.607 226.258 302.65 226.054 302.692C225.851 302.739 225.593 302.763 225.28 302.763C224.807 302.763 224.343 302.661 223.888 302.458C223.438 302.254 223.064 301.944 222.766 301.527C222.472 301.111 222.325 300.585 222.325 299.951V289.098ZM233.455 288.076H235.472L239.506 294.865H239.676L243.71 288.076H245.727L240.472 296.627V302.621H238.71V296.627L233.455 288.076ZM250.667 302.848C249.682 302.848 248.818 302.614 248.075 302.145C247.336 301.676 246.758 301.021 246.342 300.178C245.93 299.335 245.724 298.35 245.724 297.223C245.724 296.087 245.93 295.095 246.342 294.248C246.758 293.4 247.336 292.742 248.075 292.273C248.818 291.804 249.682 291.57 250.667 291.57C251.652 291.57 252.514 291.804 253.252 292.273C253.996 292.742 254.573 293.4 254.985 294.248C255.402 295.095 255.61 296.087 255.61 297.223C255.61 298.35 255.402 299.335 254.985 300.178C254.573 301.021 253.996 301.676 253.252 302.145C252.514 302.614 251.652 302.848 250.667 302.848ZM250.667 301.343C251.415 301.343 252.031 301.151 252.514 300.767C252.997 300.384 253.354 299.88 253.586 299.255C253.818 298.63 253.934 297.953 253.934 297.223C253.934 296.494 253.818 295.815 253.586 295.185C253.354 294.555 252.997 294.046 252.514 293.658C252.031 293.27 251.415 293.076 250.667 293.076C249.919 293.076 249.303 293.27 248.82 293.658C248.338 294.046 247.98 294.555 247.748 295.185C247.516 295.815 247.4 296.494 247.4 297.223C247.4 297.953 247.516 298.63 247.748 299.255C247.98 299.88 248.338 300.384 248.82 300.767C249.303 301.151 249.919 301.343 250.667 301.343ZM265.044 298.161V291.712H266.72V302.621H265.044V300.775H264.93C264.675 301.328 264.277 301.8 263.737 302.188C263.197 302.571 262.515 302.763 261.692 302.763C261.01 302.763 260.404 302.614 259.873 302.316C259.343 302.013 258.926 301.558 258.623 300.952C258.32 300.341 258.169 299.572 258.169 298.644V291.712H259.845V298.53C259.845 299.326 260.068 299.96 260.513 300.434C260.962 300.907 261.535 301.144 262.231 301.144C262.648 301.144 263.072 301.037 263.503 300.824C263.938 300.611 264.303 300.284 264.596 299.844C264.895 299.404 265.044 298.843 265.044 298.161ZM269.79 302.621V291.712H271.409V293.36H271.523C271.722 292.82 272.082 292.382 272.602 292.046C273.123 291.71 273.71 291.542 274.364 291.542C274.487 291.542 274.641 291.544 274.825 291.549C275.01 291.553 275.15 291.56 275.244 291.57V293.275C275.188 293.26 275.057 293.239 274.854 293.211C274.655 293.177 274.444 293.161 274.222 293.161C273.691 293.161 273.218 293.272 272.801 293.495C272.389 293.712 272.063 294.016 271.821 294.404C271.584 294.787 271.466 295.225 271.466 295.718V302.621H269.79ZM283.084 288.076H285.186L290.129 300.15H290.3L295.243 288.076H297.345V302.621H295.697V291.57H295.555L291.01 302.621H289.419L284.873 291.57H284.731V302.621H283.084V288.076ZM303.86 302.877C303.168 302.877 302.541 302.747 301.977 302.486C301.414 302.221 300.967 301.84 300.635 301.343C300.304 300.841 300.138 300.235 300.138 299.525C300.138 298.9 300.261 298.393 300.507 298.005C300.753 297.612 301.083 297.304 301.494 297.081C301.906 296.859 302.361 296.693 302.858 296.584C303.36 296.471 303.864 296.381 304.371 296.314C305.034 296.229 305.571 296.165 305.983 296.123C306.4 296.075 306.703 295.997 306.892 295.888C307.086 295.779 307.183 295.59 307.183 295.32V295.263C307.183 294.562 306.992 294.018 306.608 293.63C306.229 293.241 305.654 293.047 304.882 293.047C304.082 293.047 303.455 293.222 303 293.573C302.546 293.923 302.226 294.297 302.041 294.695L300.45 294.127C300.735 293.464 301.113 292.948 301.587 292.578C302.065 292.204 302.586 291.944 303.149 291.797C303.718 291.646 304.276 291.57 304.825 291.57C305.176 291.57 305.578 291.613 306.033 291.698C306.492 291.778 306.935 291.946 307.361 292.202C307.792 292.458 308.149 292.844 308.433 293.36C308.718 293.876 308.86 294.567 308.86 295.434V302.621H307.183V301.144H307.098C306.985 301.381 306.795 301.634 306.53 301.904C306.265 302.174 305.912 302.403 305.472 302.593C305.031 302.782 304.494 302.877 303.86 302.877ZM304.115 301.371C304.778 301.371 305.337 301.241 305.791 300.98C306.251 300.72 306.596 300.384 306.828 299.972C307.065 299.56 307.183 299.127 307.183 298.672V297.138C307.112 297.223 306.956 297.301 306.715 297.373C306.478 297.439 306.203 297.498 305.891 297.55C305.583 297.597 305.282 297.64 304.989 297.678C304.7 297.711 304.466 297.739 304.286 297.763C303.85 297.82 303.443 297.912 303.064 298.04C302.69 298.163 302.387 298.35 302.155 298.601C301.928 298.847 301.814 299.184 301.814 299.61C301.814 300.192 302.03 300.632 302.46 300.931C302.896 301.224 303.448 301.371 304.115 301.371ZM316.663 291.712V293.132H311.01V291.712H316.663ZM312.657 289.098H314.334V299.496C314.334 299.97 314.402 300.325 314.54 300.561C314.682 300.793 314.862 300.95 315.079 301.03C315.302 301.106 315.536 301.144 315.782 301.144C315.967 301.144 316.119 301.134 316.237 301.115C316.355 301.092 316.45 301.073 316.521 301.059L316.862 302.564C316.748 302.607 316.59 302.65 316.386 302.692C316.183 302.739 315.925 302.763 315.612 302.763C315.139 302.763 314.675 302.661 314.22 302.458C313.77 302.254 313.396 301.944 313.098 301.527C312.804 301.111 312.657 300.585 312.657 299.951V289.098ZM323.499 302.848C322.476 302.848 321.596 302.607 320.857 302.124C320.118 301.641 319.55 300.976 319.153 300.128C318.755 299.281 318.556 298.312 318.556 297.223C318.556 296.115 318.76 295.138 319.167 294.29C319.579 293.438 320.152 292.773 320.885 292.294C321.624 291.811 322.486 291.57 323.471 291.57C324.238 291.57 324.929 291.712 325.545 291.996C326.16 292.28 326.664 292.678 327.057 293.189C327.45 293.701 327.694 294.297 327.789 294.979H326.113C325.985 294.482 325.701 294.042 325.26 293.658C324.825 293.27 324.238 293.076 323.499 293.076C322.846 293.076 322.273 293.246 321.78 293.587C321.293 293.923 320.912 294.399 320.637 295.015C320.367 295.625 320.232 296.343 320.232 297.167C320.232 298.009 320.365 298.743 320.63 299.368C320.9 299.993 321.278 300.479 321.766 300.824C322.259 301.17 322.836 301.343 323.499 301.343C323.935 301.343 324.33 301.267 324.685 301.115C325.04 300.964 325.341 300.746 325.587 300.462C325.833 300.178 326.009 299.837 326.113 299.439H327.789C327.694 300.083 327.46 300.663 327.086 301.179C326.716 301.691 326.226 302.098 325.616 302.401C325.01 302.699 324.304 302.848 323.499 302.848ZM331.915 296.059V302.621H330.239V288.076H331.915V293.417H332.057C332.313 292.853 332.697 292.406 333.208 292.074C333.724 291.738 334.411 291.57 335.268 291.57C336.011 291.57 336.662 291.719 337.221 292.017C337.779 292.311 338.213 292.763 338.52 293.374C338.833 293.98 338.989 294.752 338.989 295.689V302.621H337.313V295.803C337.313 294.936 337.088 294.266 336.638 293.793C336.193 293.315 335.575 293.076 334.785 293.076C334.235 293.076 333.743 293.192 333.307 293.424C332.876 293.656 332.536 293.994 332.285 294.439C332.038 294.884 331.915 295.424 331.915 296.059ZM349.896 288.076L349.754 298.53H348.107L347.965 288.076H349.896ZM348.931 302.735C348.58 302.735 348.28 302.609 348.029 302.358C347.778 302.107 347.652 301.807 347.652 301.456C347.652 301.106 347.778 300.805 348.029 300.554C348.28 300.303 348.58 300.178 348.931 300.178C349.281 300.178 349.582 300.303 349.833 300.554C350.084 300.805 350.209 301.106 350.209 301.456C350.209 301.688 350.15 301.901 350.031 302.096C349.918 302.29 349.764 302.446 349.57 302.564C349.38 302.678 349.167 302.735 348.931 302.735Z" fill="#44393D"/>
<path d="M313.923 373.51H212.658C203.956 373.51 196.836 366.39 196.836 357.688C196.836 348.986 203.956 341.865 212.658 341.865H313.923C322.625 341.865 329.745 348.986 329.745 357.688C329.746 366.39 322.626 373.51 313.923 373.51Z" fill="#4E7C87"/>
<path d="M313.923 369.949H212.658C203.956 369.949 196.836 362.829 196.836 354.127C196.836 345.425 203.956 338.305 212.658 338.305H313.923C322.625 338.305 329.745 345.425 329.745 354.127C329.746 362.829 322.626 369.949 313.923 369.949Z" fill="#FF6A49"/>
<path d="M232.78 348.732C232.72 348.228 232.478 347.837 232.054 347.559C231.63 347.28 231.109 347.141 230.493 347.141C230.042 347.141 229.648 347.214 229.309 347.36C228.975 347.506 228.713 347.706 228.524 347.961C228.338 348.217 228.246 348.507 228.246 348.831C228.246 349.103 228.31 349.337 228.439 349.532C228.572 349.725 228.741 349.885 228.947 350.015C229.152 350.141 229.367 350.245 229.593 350.328C229.818 350.407 230.025 350.472 230.214 350.522L231.248 350.8C231.514 350.87 231.809 350.966 232.133 351.088C232.461 351.211 232.775 351.378 233.073 351.591C233.375 351.799 233.623 352.068 233.819 352.396C234.014 352.724 234.112 353.127 234.112 353.604C234.112 354.154 233.968 354.651 233.68 355.096C233.394 355.54 232.977 355.893 232.427 356.155C231.88 356.416 231.215 356.547 230.433 356.547C229.704 356.547 229.073 356.43 228.539 356.194C228.009 355.959 227.591 355.631 227.286 355.21C226.984 354.789 226.814 354.3 226.774 353.743H228.047C228.08 354.128 228.209 354.446 228.434 354.698C228.663 354.946 228.952 355.132 229.3 355.255C229.651 355.374 230.029 355.434 230.433 355.434C230.904 355.434 231.326 355.357 231.701 355.205C232.075 355.049 232.372 354.834 232.591 354.559C232.809 354.28 232.919 353.955 232.919 353.584C232.919 353.246 232.824 352.971 232.635 352.759C232.447 352.547 232.198 352.374 231.89 352.242C231.581 352.109 231.248 351.993 230.89 351.894L229.638 351.536C228.842 351.307 228.212 350.981 227.748 350.556C227.284 350.132 227.052 349.577 227.052 348.891C227.052 348.321 227.206 347.824 227.515 347.4C227.826 346.972 228.244 346.641 228.768 346.405C229.295 346.167 229.883 346.047 230.532 346.047C231.189 346.047 231.772 346.165 232.282 346.4C232.793 346.632 233.197 346.95 233.496 347.355C233.797 347.759 233.956 348.218 233.973 348.732H232.78ZM239.301 348.732V349.726H235.344V348.732H239.301ZM236.497 346.902H237.67V354.181C237.67 354.512 237.719 354.761 237.815 354.927C237.914 355.089 238.04 355.198 238.192 355.255C238.348 355.308 238.512 355.334 238.685 355.334C238.814 355.334 238.92 355.328 239.003 355.314C239.086 355.298 239.152 355.284 239.202 355.275L239.44 356.329C239.361 356.358 239.25 356.388 239.107 356.418C238.965 356.451 238.784 356.468 238.565 356.468C238.234 356.468 237.909 356.396 237.591 356.254C237.276 356.111 237.014 355.894 236.805 355.603C236.6 355.311 236.497 354.943 236.497 354.499V346.902ZM243.313 356.547C242.829 356.547 242.39 356.456 241.996 356.274C241.601 356.088 241.288 355.821 241.056 355.473C240.824 355.122 240.708 354.698 240.708 354.201C240.708 353.763 240.794 353.409 240.967 353.137C241.139 352.862 241.369 352.646 241.658 352.49C241.946 352.335 242.264 352.219 242.612 352.142C242.964 352.063 243.317 352 243.671 351.954C244.135 351.894 244.511 351.849 244.8 351.819C245.091 351.786 245.304 351.731 245.436 351.655C245.572 351.579 245.64 351.446 245.64 351.257V351.218C245.64 350.727 245.506 350.346 245.237 350.074C244.972 349.802 244.569 349.667 244.029 349.667C243.469 349.667 243.03 349.789 242.712 350.034C242.393 350.28 242.17 350.542 242.04 350.82L240.927 350.422C241.126 349.958 241.391 349.597 241.722 349.338C242.057 349.077 242.422 348.894 242.816 348.792C243.214 348.686 243.605 348.632 243.989 348.632C244.235 348.632 244.516 348.662 244.835 348.722C245.156 348.778 245.466 348.896 245.764 349.075C246.066 349.254 246.316 349.524 246.515 349.885C246.714 350.247 246.813 350.731 246.813 351.337V356.368H245.64V355.334H245.58C245.501 355.5 245.368 355.677 245.183 355.866C244.997 356.055 244.75 356.216 244.442 356.348C244.134 356.481 243.757 356.547 243.313 356.547ZM243.492 355.493C243.956 355.493 244.347 355.402 244.665 355.22C244.987 355.038 245.229 354.802 245.391 354.514C245.557 354.226 245.64 353.922 245.64 353.604V352.53C245.59 352.59 245.481 352.645 245.312 352.694C245.146 352.741 244.954 352.782 244.735 352.819C244.52 352.852 244.309 352.882 244.104 352.908C243.902 352.931 243.737 352.951 243.612 352.968C243.307 353.007 243.022 353.072 242.756 353.162C242.495 353.248 242.282 353.379 242.12 353.554C241.961 353.727 241.881 353.962 241.881 354.26C241.881 354.668 242.032 354.976 242.334 355.185C242.639 355.391 243.025 355.493 243.492 355.493ZM248.955 356.368V348.732H250.088V349.885H250.168C250.307 349.507 250.559 349.201 250.923 348.966C251.288 348.73 251.699 348.613 252.156 348.613C252.243 348.613 252.35 348.614 252.48 348.618C252.609 348.621 252.707 348.626 252.773 348.632V349.826C252.733 349.816 252.642 349.801 252.499 349.781C252.36 349.758 252.213 349.746 252.057 349.746C251.686 349.746 251.354 349.824 251.063 349.98C250.774 350.132 250.546 350.344 250.377 350.616C250.211 350.885 250.128 351.191 250.128 351.536V356.368H248.955ZM257.963 348.732V349.726H254.006V348.732H257.963ZM255.159 346.902H256.333V354.181C256.333 354.512 256.381 354.761 256.477 354.927C256.576 355.089 256.702 355.198 256.855 355.255C257.01 355.308 257.174 355.334 257.347 355.334C257.476 355.334 257.582 355.328 257.665 355.314C257.748 355.298 257.814 355.284 257.864 355.275L258.102 356.329C258.023 356.358 257.912 356.388 257.769 356.418C257.627 356.451 257.446 356.468 257.227 356.468C256.896 356.468 256.571 356.396 256.253 356.254C255.938 356.111 255.676 355.894 255.468 355.603C255.262 355.311 255.159 354.943 255.159 354.499V346.902ZM272.018 349.368H270.785C270.712 349.014 270.584 348.702 270.402 348.434C270.223 348.165 270.004 347.94 269.746 347.757C269.491 347.572 269.207 347.433 268.896 347.34C268.584 347.247 268.259 347.201 267.921 347.201C267.305 347.201 266.746 347.356 266.246 347.668C265.749 347.98 265.353 348.439 265.058 349.045C264.766 349.652 264.62 350.396 264.62 351.277C264.62 352.159 264.766 352.903 265.058 353.51C265.353 354.116 265.749 354.575 266.246 354.887C266.746 355.198 267.305 355.354 267.921 355.354C268.259 355.354 268.584 355.308 268.896 355.215C269.207 355.122 269.491 354.985 269.746 354.802C270.004 354.617 270.223 354.39 270.402 354.121C270.584 353.849 270.712 353.538 270.785 353.186H272.018C271.925 353.707 271.756 354.173 271.511 354.583C271.266 354.994 270.961 355.344 270.596 355.632C270.231 355.918 269.822 356.135 269.368 356.284C268.917 356.433 268.435 356.507 267.921 356.507C267.053 356.507 266.281 356.295 265.605 355.871C264.928 355.447 264.396 354.844 264.009 354.061C263.621 353.279 263.427 352.351 263.427 351.277C263.427 350.204 263.621 349.275 264.009 348.493C264.396 347.711 264.928 347.108 265.605 346.684C266.281 346.259 267.053 346.047 267.921 346.047C268.435 346.047 268.917 346.122 269.368 346.271C269.822 346.42 270.231 346.639 270.596 346.927C270.961 347.212 271.266 347.56 271.511 347.971C271.756 348.379 271.925 348.845 272.018 349.368ZM275.025 351.775V356.368H273.851V346.186H275.025V349.925H275.124C275.303 349.531 275.571 349.217 275.929 348.985C276.291 348.75 276.771 348.632 277.371 348.632C277.891 348.632 278.347 348.737 278.738 348.946C279.129 349.151 279.433 349.468 279.648 349.895C279.867 350.32 279.976 350.86 279.976 351.516V356.368H278.803V351.596C278.803 350.989 278.645 350.52 278.331 350.189C278.019 349.854 277.587 349.686 277.033 349.686C276.649 349.686 276.304 349.768 275.999 349.93C275.697 350.092 275.459 350.329 275.283 350.641C275.111 350.953 275.025 351.33 275.025 351.775ZM284.37 356.547C283.886 356.547 283.447 356.456 283.052 356.274C282.658 356.088 282.345 355.821 282.113 355.473C281.881 355.122 281.765 354.698 281.765 354.201C281.765 353.763 281.851 353.409 282.023 353.137C282.196 352.862 282.426 352.646 282.714 352.49C283.003 352.335 283.321 352.219 283.669 352.142C284.02 352.063 284.373 352 284.728 351.954C285.192 351.894 285.568 351.849 285.856 351.819C286.148 351.786 286.36 351.731 286.493 351.655C286.629 351.579 286.697 351.446 286.697 351.257V351.218C286.697 350.727 286.562 350.346 286.294 350.074C286.029 349.802 285.626 349.667 285.086 349.667C284.526 349.667 284.086 349.789 283.768 350.034C283.45 350.28 283.226 350.542 283.097 350.82L281.983 350.422C282.182 349.958 282.448 349.597 282.779 349.338C283.114 349.077 283.478 348.894 283.873 348.792C284.27 348.686 284.662 348.632 285.046 348.632C285.291 348.632 285.573 348.662 285.891 348.722C286.213 348.778 286.523 348.896 286.821 349.075C287.122 349.254 287.373 349.524 287.572 349.885C287.77 350.247 287.87 350.731 287.87 351.337V356.368H286.697V355.334H286.637C286.557 355.5 286.425 355.677 286.239 355.866C286.054 356.055 285.807 356.216 285.498 356.348C285.19 356.481 284.814 356.547 284.37 356.547ZM284.549 355.493C285.013 355.493 285.404 355.402 285.722 355.22C286.044 355.038 286.286 354.802 286.448 354.514C286.614 354.226 286.697 353.922 286.697 353.604V352.53C286.647 352.59 286.537 352.645 286.368 352.694C286.203 352.741 286.01 352.782 285.792 352.819C285.576 352.852 285.366 352.882 285.16 352.908C284.958 352.931 284.794 352.951 284.668 352.968C284.363 353.007 284.078 353.072 283.813 353.162C283.551 353.248 283.339 353.379 283.177 353.554C283.018 353.727 282.938 353.962 282.938 354.26C282.938 354.668 283.089 354.976 283.39 355.185C283.695 355.391 284.081 355.493 284.549 355.493ZM293.332 348.732V349.726H289.375V348.732H293.332ZM290.528 346.902H291.702V354.181C291.702 354.512 291.75 354.761 291.846 354.927C291.945 355.089 292.071 355.198 292.224 355.255C292.379 355.308 292.544 355.334 292.716 355.334C292.845 355.334 292.951 355.328 293.034 355.314C293.117 355.298 293.183 355.284 293.233 355.275L293.472 356.329C293.392 356.358 293.281 356.388 293.138 356.418C292.996 356.451 292.815 356.468 292.597 356.468C292.265 356.468 291.94 356.396 291.622 356.254C291.307 356.111 291.045 355.894 290.837 355.603C290.631 355.311 290.528 354.943 290.528 354.499V346.902Z" fill="#FEF9F3"/>
<path d="M510.812 135.534L478.176 162.795C477.673 163.215 476.924 163.149 476.504 162.646L473.334 158.851C472.914 158.348 472.982 157.599 473.484 157.179L506.119 129.918C506.623 129.498 507.371 129.564 507.791 130.067L510.961 133.862C511.382 134.366 511.315 135.114 510.812 135.534Z" fill="#44393D"/>
<path d="M459.963 442.049V408.224H490.306V437.4C490.306 437.4 473.61 453.916 459.963 442.049Z" fill="#FC3D2A"/>
<path d="M490.306 437.4V431.068H459.963V442.048C473.61 453.915 490.306 437.4 490.306 437.4Z" fill="#EAE7E2"/>
<path d="M458.857 439.671V454.505H519.218C519.218 454.505 517.896 442.045 509.292 439.671C500.689 437.298 491.195 433.145 491.195 433.145L479.625 439.078C479.625 439.078 468.944 444.715 458.857 439.671Z" fill="#402131"/>
<path d="M392.011 327.47L425.827 326.672L426.544 357.006L397.375 357.695C397.375 357.695 380.469 341.394 392.011 327.47Z" fill="#FC3D2A"/>
<path d="M397.374 357.696L403.705 357.546L402.989 327.212L392.011 327.472C380.469 341.394 397.374 357.696 397.374 357.696Z" fill="#EAE7E2"/>
<path d="M394.363 326.311L379.533 326.661L380.958 387.004C380.958 387.004 393.384 385.389 395.554 376.732C397.723 368.075 401.652 358.486 401.652 358.486L395.447 347.059C395.447 347.059 389.558 336.514 394.363 326.311Z" fill="#402131"/>
<path d="M485.596 245.08C484.419 243.298 483.62 241.274 482.518 239.432C481.006 236.906 479.435 232.744 477.115 230.286C468.455 217.67 431.986 185.441 431.986 185.441L414.088 212.046L476.227 265.395C476.227 265.395 479.256 256.299 480.083 246.954C480.351 247.17 480.619 247.38 480.883 247.562C482.028 248.354 487.755 251.067 487.416 247.74C487.333 246.924 486.061 245.785 485.596 245.08Z" fill="#FC3D2A"/>
<path d="M465.384 236.152C465.384 236.152 506.523 322.386 490.898 427.804H459.45C459.45 427.804 449.957 346.911 438.11 337.615C396.419 304.901 382.406 259.886 382.406 259.886L465.384 236.152Z" fill="#2C6483"/>
<path d="M382.406 259.886C382.406 259.886 382.406 295.337 454.704 308.541L396.705 324.933L407.262 359.272C407.262 359.272 503.457 351.361 517.302 329.605C531.147 307.849 465.384 236.152 465.384 236.152L382.406 259.886Z" fill="#5DBDDD"/>
<path d="M517.302 329.606C518.319 328.007 518.897 326.132 519.112 324.041C484.518 349.865 423.849 248.033 423.849 248.033L382.406 259.887C382.406 259.887 382.406 295.337 454.704 308.542L396.705 324.934L407.262 359.273C407.262 359.273 503.457 351.362 517.302 329.606Z" fill="#4CA5C5"/>
<path d="M381.22 264.93L468.017 237.393C468.017 237.393 455.236 205.83 445.507 172.665C438.111 147.447 428.906 120.147 415.119 113.828C395.152 104.676 373.045 115.734 364.794 134.097C353.895 158.352 361.011 204.145 381.22 264.93Z" fill="#FFDFCA"/>
<path d="M435.005 220.848C422.119 203.261 423.85 178.003 423.85 178.003L414.741 166.136L377.569 195.804C368.67 183.92 360.475 161.723 359.76 159.764C358.984 185.516 366.739 221.371 381.22 264.929L427.461 250.258L435.005 220.848Z" fill="#FEC4B8"/>
<path d="M433.006 85.7127L427.737 81.3065C427.208 79.4695 427.787 78.2425 427.216 76.2903C422.638 60.62 409.427 64.7782 409.427 64.7782C389.019 72.487 402.022 95.4461 402.022 95.4461C402.022 95.4461 402.108 95.5457 402.255 95.7107L396.069 110.819C394.957 110.95 393.852 111.115 392.762 111.347C392.809 111.38 415.895 127.372 419.18 127.372C422.468 127.372 415.122 113.828 415.122 113.828L417.564 107.065C420.259 108.049 423.024 108.397 425.605 107.575C432.814 105.281 432.969 98.573 430.849 89.3998L432.665 88.5122C433.761 87.977 433.94 86.4936 433.006 85.7127Z" fill="#FF6A49"/>
<path d="M400.712 99.5683C401.332 97.7455 399.655 95.4528 398.574 93.9908C396.648 91.3848 394.5 88.4798 392.898 85.6673C390.24 81.0035 391.26 74.5135 394.685 70.5641C396.662 68.2845 398.663 66.6753 401.199 65.1848C403.89 63.6042 407.342 62.5705 409.151 59.8637C410.341 58.0824 410.944 57.0583 413.265 57.3585C416.002 57.7122 417.002 59.9266 418.189 61.8395C419.606 60.5638 420.299 59.6536 421.313 62.0436C421.964 63.5745 422.302 65.6263 421.714 67.1797C420.519 70.3387 418.567 71.2346 415.773 72.8818C413.27 74.3568 411.003 75.6325 408.471 77.0518C409.671 78.4415 409.736 79.7765 410.017 81.8152C410.352 84.2385 409.987 86.6511 408.61 88.6447C402.741 84.528 400.248 93.4307 406.092 94.9508C405.438 97.5853 403.27 99.0616 400.712 99.5683Z" fill="#5A2633"/>
<path d="M417.563 107.064C417.563 107.064 411.311 104.032 409.824 99.5684C409.824 99.5684 409.723 109.861 415.121 113.828L417.563 107.064Z" fill="#FC3D2A"/>
<path d="M430.85 89.3984L428.793 89.9918L431.086 90.4629L430.85 89.3984Z" fill="#FC3D2A"/>
<path d="M499.331 145.126C499.331 145.126 492.382 151.008 490.008 151.898C487.635 152.788 478.883 146.261 478.883 146.261C478.883 146.261 482.888 143.739 484.075 141.959C485.261 140.179 486.151 135.729 482.591 138.102C479.031 140.476 471.318 138.399 466.719 140.031C462.121 141.662 461.251 152.491 461.251 152.491L423.85 178.005L414.741 166.138L377.568 195.805C377.568 195.805 400.641 235.857 431.084 222.803C459.172 210.759 465.639 176.764 472.996 166.913C477.271 161.931 483.791 162.873 486.151 162.578C488.525 162.281 494.903 156.496 496.98 153.529C499.057 150.563 499.331 145.126 499.331 145.126Z" fill="#FF6A49"/>
<path d="M423.849 178.004L414.504 184.976L420.214 173.269L423.849 178.004Z" fill="#FC3D2A"/>
<path d="M424.873 251.082L443.942 277.654C443.942 277.654 459.493 276.202 438.112 246.882L424.873 251.082Z" fill="#2C6483"/>
<path d="M487.34 97.3094C497.007 97.3094 504.844 89.4726 504.844 79.8055C504.844 70.1384 497.007 62.3017 487.34 62.3017C477.673 62.3017 469.836 70.1384 469.836 79.8055C469.836 89.4726 477.673 97.3094 487.34 97.3094Z" fill="#6498A5"/>
<path d="M492.15 94.0459L502.767 126.383" stroke="#6498A5" stroke-miterlimit="10" stroke-linecap="round" stroke-linejoin="round"/>
<path d="M494.441 77.5855C494.441 75.4269 492.691 73.6777 490.533 73.6777C489.211 73.6777 488.047 74.3387 487.339 75.3426C486.632 74.3375 485.468 73.6777 484.146 73.6777C481.987 73.6777 480.238 75.4281 480.238 77.5855C480.238 82.0641 487.339 85.9351 487.339 85.9351C487.339 85.9351 494.441 82.4142 494.441 77.5855Z" fill="#FEF9F3"/>
<path d="M34.3924 141.497C33.5024 138.134 33.6697 133.995 33.7907 132.455C33.9592 130.295 30.7409 125.817 28.8778 123.7C27.0147 121.583 23.4546 110.562 21.3007 113.687C19.1468 116.81 24.2864 126.918 24.2864 126.918L10.1979 123.47C10.1979 123.47 8.84391 127.308 10.9835 130.461C13.1232 133.613 15.4538 142.474 15.4538 142.474L23.7453 147.61L34.3449 181.986L52.9049 174.174L34.3924 141.497Z" fill="#FF6A49"/>
<path d="M29.9727 167.795L34.3492 181.985L52.9092 174.173L42.0307 154.975L29.9727 167.795Z" fill="#FC3D2A"/>
<path d="M0.251242 108.271L26.4002 141.804C26.8037 142.322 27.5489 142.413 28.0663 142.011L31.9658 138.971C32.4832 138.567 32.5746 137.822 32.1723 137.304L6.02098 103.771C5.6175 103.253 4.87225 103.162 4.35604 103.564L0.456539 106.604C-0.0596755 107.008 -0.152236 107.754 0.251242 108.271Z" fill="#44393D"/>
<path d="M16.2125 124.94C15.2038 119.849 9.77937 115.56 9.77937 115.56L10.2018 123.47C10.2018 123.47 8.84782 127.308 10.9874 130.461C13.1271 133.613 15.4577 142.474 15.4577 142.474L19.629 145.057C20.8667 143.936 21.9656 142.648 22.5483 141.272C24.4256 136.841 17.2212 130.033 16.2125 124.94Z" fill="#FF6A49"/>
<path d="M89.8399 137.519C89.8399 137.519 98.161 113.248 97.9877 105.1C97.8145 96.9526 92.0934 84.6441 94.6935 77.8823C97.2935 71.1216 113.59 67.1343 113.59 67.1343C113.59 67.1343 113.59 64.0133 117.578 64.361C121.565 64.7075 134.395 67.482 135.954 74.2427C137.514 81.0033 137.176 98.1476 141.502 106.478C145.826 114.809 154.504 127.465 139.941 140.814C125.379 154.162 88.627 150.521 89.8399 137.519Z" fill="#5A2633"/>
<path d="M115.339 122.035C115.339 122.035 87.948 128.039 81.0877 140.044C75.3535 150.079 59.6487 180.136 59.6487 180.136L45.4024 159.634L30.4512 171.332C30.4512 171.332 37.7802 222.157 50.0009 222.157C62.2215 222.157 78.827 210.989 78.827 210.989L76.3622 227.757L146.321 237.294L148.166 218.534L167.049 216.089C175.588 214.983 181.634 207.135 180.42 198.609C180.399 198.455 180.375 198.301 180.353 198.144C177.995 182.482 164.273 134.683 164.273 134.683C164.273 134.683 156.881 117.318 115.339 122.035Z" fill="#FFDFCA"/>
<path d="M82.3761 185.179C82.3761 185.179 77.926 179.839 79.1127 172.125C80.2994 164.412 88.0509 160.258 89.812 154.028C89.812 154.028 77.9557 162.548 69.2939 161.823C64.1982 171.428 59.6484 180.135 59.6484 180.135C59.6484 180.135 68.9617 207.293 59.6484 220.415C69.4791 217.275 78.8279 210.989 78.8279 210.989L82.3761 185.179Z" fill="#FEC4B8"/>
<path d="M111.021 232.484L123.169 218.535H148.165L146.32 237.296L111.021 232.484Z" fill="#FEC4B8"/>
<path d="M131.625 196.452L148.832 192.892L146.323 170.642C146.323 170.642 143.739 190.816 131.625 196.452Z" fill="#FEC4B8"/>
<path d="M58.3475 384.546L39.797 416.086C39.797 416.086 36.7805 420.827 36.9952 425.352C37.2112 429.877 39.7852 436.336 36.9846 441.508C34.1828 446.679 40.4901 453.225 52.7261 453.365C63.391 453.487 62.7549 446.927 60.1276 441.508C50.0335 420.681 71.7834 405.332 75.7232 399.083L58.3475 384.546Z" fill="#FF6A49"/>
<path d="M36.9952 425.352C37.2112 429.876 39.7852 436.336 36.9846 441.507C34.1828 446.679 40.4901 453.225 52.7261 453.365C63.391 453.487 62.755 446.927 60.1276 441.507C59.806 440.843 59.5176 440.184 59.2589 439.531L59.2566 439.529C50.2768 431.42 42.3271 439.529 42.3271 439.529L39.797 416.086C39.797 416.086 36.7793 420.827 36.9952 425.352Z" fill="#5A2633"/>
<path d="M69.2285 417.862C69.2285 417.862 70.9421 442.16 74.3895 448.84C77.8368 455.52 89.3431 454.442 89.3431 454.442C89.3431 454.442 100.894 451.426 98.0926 446.254C95.2908 441.083 84.9475 426.861 83.8795 416.086L69.2285 417.862Z" fill="#FC3D2A"/>
<path d="M89.3429 454.442C89.3429 454.442 100.894 451.426 98.0924 446.254C97.3555 444.894 96.0928 442.898 94.619 440.515C92.299 439.996 89.2978 439.541 85.8362 439.53C77.6444 439.504 72.9023 444.586 72.9023 444.586C73.3557 446.327 73.8517 447.798 74.3893 448.84C77.8366 455.52 89.3429 454.442 89.3429 454.442Z" fill="#5A2633"/>
<path d="M146.315 236.208L76.3638 227.759C76.3638 227.759 58.9905 245.115 56.0238 262.323C54.309 272.27 53.3537 331.165 58.9051 372.591L46.5527 398.563L65.6147 419.406C66.6365 426.523 66.6531 427.861 66.6531 427.861L93.3538 423.708V384.547C93.3538 384.547 136.075 316.312 141.415 294.951C146.755 273.59 146.315 236.208 146.315 236.208Z" fill="#4CA5C5"/>
<path d="M76.3635 227.759C76.3635 227.759 76.1333 227.994 75.7227 228.426L146.306 241.783C146.34 238.313 146.316 236.208 146.316 236.208L76.3635 227.759Z" fill="#2C6483"/>
<path d="M58.9057 372.59L98.5344 273.586L56.0078 341.536C56.0256 351.715 57.6277 363.049 58.9057 372.59Z" fill="#2C6483"/>
<path d="M66.6516 427.86L93.3524 423.707V384.546L65.6133 419.405C66.635 426.522 66.6516 427.86 66.6516 427.86Z" fill="#2C6483"/>
<path d="M132.866 121.326L127.433 95.8555L113.59 109.397V122.457C112.583 122.712 111.195 123.08 109.54 123.567C109.54 123.567 102.485 142.161 117.086 142.26C133.249 142.372 137.655 127.305 138.726 121.792C136.904 121.572 134.942 121.419 132.866 121.326Z" fill="#FF6A49"/>
<path d="M128.042 98.7024L127.435 95.8555L113.592 109.397V119.798C125.38 113.038 128.042 98.7024 128.042 98.7024Z" fill="#FC3D2A"/>
<path d="M129.048 95.8556C117.979 92.8888 114.805 76.459 114.805 76.459C108.347 77.4784 102.124 88.4886 101.882 88.9205C101.807 92.5933 102.149 95.2741 102.149 95.2741C102.149 95.2741 102.149 111.223 111.164 113.997C118.84 116.358 126.023 105.445 129.048 95.8556Z" fill="#FF6A49"/>
<path d="M126.15 197.934C126.15 197.934 102.511 202.848 96.4396 204.366C96.1571 204.436 95.8688 204.514 95.5792 204.598C94.6975 203.855 93.4776 203.39 91.7735 203.377C87.8977 203.348 85.5528 204.433 82.4413 206.459C79.4899 208.38 77.7847 207.703 74.8452 207.22C74.4382 209.714 77.4927 212.04 79.7783 211.836C77.4488 214.798 75.6367 218.443 74.8594 222.27C74.2507 225.264 74.0869 228.367 73.166 231.179C75.2143 230.929 76.8044 230.456 78.7281 229.401C81.969 227.624 83.4713 223.927 86.641 222.275C88.0615 221.535 89.711 221.374 91.2442 220.651C92.158 220.219 93.0314 219.645 93.8277 219.063L125.886 218.536L126.15 197.934Z" fill="#FF6A49"/>
<path d="M126.151 197.934L121.24 218.612L125.886 218.536L126.151 197.934Z" fill="#FC3D2A"/>
<path d="M31.5136 79.4256C41.1807 79.4256 49.0174 71.5889 49.0174 61.9218C49.0174 52.2547 41.1807 44.418 31.5136 44.418C21.8465 44.418 14.0098 52.2547 14.0098 61.9218C14.0098 71.5889 21.8465 79.4256 31.5136 79.4256Z" fill="#6498A5"/>
<path d="M26.7041 76.1621L16.0879 108.5" stroke="#6498A5" stroke-miterlimit="10" stroke-linecap="round" stroke-linejoin="round"/>
<path d="M24.4121 59.7008C24.4121 57.5422 26.1625 55.793 28.3199 55.793C29.6419 55.793 30.8061 56.454 31.5133 57.4579C32.2206 56.4528 33.3847 55.793 34.7067 55.793C36.8653 55.793 38.6145 57.5422 38.6145 59.7008C38.6145 64.1794 31.5133 68.0504 31.5133 68.0504C31.5133 68.0504 24.4121 64.5306 24.4121 59.7008Z" fill="#FEF9F3"/>
</svg>
