<svg width="60" height="60" viewBox="0 0 60 60" fill="none" xmlns="http://www.w3.org/2000/svg">
<g clip-path="url(#clip0_608_11874)">
<rect width="66.4032" height="66.4032" transform="translate(-3.08594 -3.66309)" fill="#2C6483"/>
<g clip-path="url(#clip1_608_11874)">
<g clip-path="url(#clip2_608_11874)">
<path fill-rule="evenodd" clip-rule="evenodd" d="M36.3293 43.1695C36.3293 44.3963 35.3253 45.4004 34.0984 45.4004H20.8149C19.5879 45.4004 18.584 44.3965 18.584 43.1695V16.8813C18.584 15.6543 19.5879 14.6504 20.8149 14.6504H22.6274L23.2213 16.4783C23.3064 16.7403 23.5403 16.9102 23.8157 16.9102H31.0975C31.3729 16.9102 31.6068 16.7403 31.6919 16.4783L32.2859 14.6504H34.0984C35.3254 14.6504 36.3292 15.6544 36.3292 16.8813V21.097C35.3049 20.6161 34.1616 20.3468 32.9552 20.3468C28.5652 20.3468 25.0057 23.9064 25.0057 28.2964C25.0057 32.6864 28.5652 36.246 32.9552 36.246C34.1315 36.246 35.2802 35.9884 36.3292 35.4961V43.1695H36.3293ZM32.9553 21.5968C29.2552 21.5968 26.2557 24.5963 26.2557 28.2963C26.2557 31.9965 29.2552 34.996 32.9553 34.996C34.4677 34.996 35.863 34.4946 36.9843 33.6493L38.5904 35.2554C38.4007 35.5839 38.4458 36.0136 38.726 36.2939L43.3751 40.943C43.7093 41.2771 44.2561 41.2771 44.5903 40.943L45.602 39.9313C45.9362 39.5971 45.9362 39.0503 45.602 38.7161L40.9529 34.067C40.6727 33.7868 40.2429 33.7416 39.9144 33.9314L38.3083 32.3253C39.1536 31.204 39.6549 29.8088 39.6549 28.2963C39.6549 24.5963 36.6554 21.5968 32.9553 21.5968ZM32.9553 23.4568C30.2825 23.4568 28.1158 25.6235 28.1158 28.2963C28.1158 30.9691 30.2825 33.1359 32.9553 33.1359C35.6281 33.1359 37.7949 30.9691 37.7949 28.2963C37.7949 25.6236 35.6281 23.4568 32.9553 23.4568ZM27.4566 40.3636C26.749 40.3636 26.1754 40.9373 26.1754 41.6449C26.1754 42.3525 26.749 42.9261 27.4566 42.9261C28.1642 42.9261 28.7379 42.3525 28.7379 41.6449C28.7379 40.9373 28.1642 40.3636 27.4566 40.3636Z" fill="white"/>
</g>
</g>
</g>
<defs>
<clipPath id="clip0_608_11874">
<rect x="0.601562" y="0.0253906" width="59.0251" height="59.025" rx="29.5125" fill="white"/>
</clipPath>
<clipPath id="clip1_608_11874">
<rect width="35.9684" height="35.9684" fill="white" transform="translate(12.25 12.0146)"/>
</clipPath>
<clipPath id="clip2_608_11874">
<rect width="32" height="32" fill="white" transform="translate(16.2188 14.0254)"/>
</clipPath>
</defs>
</svg>
