<svg width="60" height="60" viewBox="0 0 60 60" fill="none" xmlns="http://www.w3.org/2000/svg">
<g clip-path="url(#clip0_608_11819)">
<rect width="66.4032" height="66.4032" transform="translate(-3.39453 -3.6875)" fill="#2C6483"/>
<path d="M40.645 44.0002C41.3892 44.0002 42.1138 43.7258 42.6719 43.2243C43.312 42.6496 43.6787 41.8273 43.6787 40.9685V19.0319C43.6787 18.173 43.312 17.3508 42.6719 16.7761C42.0332 16.2023 41.1772 15.9289 40.3237 16.0173L25.0649 17.6276C23.5181 17.7927 22.3516 19.0886 22.3516 20.6418V23.3112C22.3516 23.8634 22.7992 24.311 23.3514 24.3112C23.3513 24.3112 23.3514 24.3112 23.3514 24.3112C23.9036 24.3112 24.3516 23.8635 24.3516 23.3112V20.6418C24.3516 20.1135 24.7495 19.6726 25.2759 19.6164L40.5356 18.0061C40.8286 17.9768 41.1143 18.0651 41.3354 18.2639C41.5566 18.4626 41.6787 18.7355 41.6787 19.0319V40.9685C41.6787 41.2648 41.5566 41.5378 41.3354 41.7365C41.1152 41.9348 40.8306 42.0305 40.5337 41.9938L25.2769 40.3845C24.7495 40.3278 24.3516 39.8869 24.3516 39.3586V36.6892C24.3516 36.1369 23.9038 35.6892 23.3516 35.6892C23.3515 35.6892 23.3516 35.6892 23.3516 35.6892C22.7994 35.6893 22.3516 36.137 22.3516 36.6892V39.3586C22.3516 40.9118 23.5181 42.2077 25.0659 42.3732L40.3218 43.9826C40.4297 43.9943 40.5376 44.0002 40.645 44.0002Z" fill="white"/>
<path d="M30.3193 35.9933C30.5249 36.0816 30.7417 36.1251 30.957 36.1251C31.3599 36.1251 31.7573 35.9732 32.062 35.6852L36.373 31.6153C36.8154 31.1974 37.0693 30.609 37.0693 30.0006C37.0693 29.3922 36.8154 28.8038 36.373 28.3858L32.062 24.316C31.5942 23.8741 30.9102 23.755 30.3193 24.0079C29.728 24.2628 29.3462 24.8434 29.3462 25.4869V26.3146H18.7773C17.665 26.3146 16.7598 27.2193 16.7598 28.3316V31.6695C16.7598 32.7818 17.665 33.6866 18.7773 33.6866H29.3462V34.5143C29.3462 35.1578 29.728 35.7384 30.3193 35.9933Z" fill="white"/>
</g>
<defs>
<clipPath id="clip0_608_11819">
<rect x="0.296875" width="59.0251" height="59.025" rx="29.5125" fill="white"/>
</clipPath>
</defs>
</svg>
