<svg width="348" height="319" viewBox="0 0 348 319" fill="none" xmlns="http://www.w3.org/2000/svg">
<g filter="url(#filter0_f_245_11674)">
<circle cx="188.5" cy="159.5" r="87.5" fill="white" fill-opacity="0.4"/>
</g>
<path d="M189.84 300.119C189.84 300.119 158.339 277.318 171.666 271.73C184.993 266.141 197.715 287.656 197.715 287.656C197.715 287.656 195.595 262.879 212.255 264.65C228.914 266.421 219.525 289.614 219.525 289.614C219.525 289.614 226.171 269.953 236.889 276.612C247.607 283.271 235.578 294.136 235.578 294.136C235.578 294.136 248.3 287.873 247.997 299.779L189.84 300.119Z" fill="url(#paint0_linear_245_11674)"/>
<path d="M81.773 296.393C81.773 296.393 106.673 278.37 96.1382 273.953C85.6035 269.537 75.548 286.541 75.548 286.541C75.548 286.541 77.2241 266.957 64.0557 268.357C50.8874 269.757 58.3092 288.089 58.3092 288.089C58.3092 288.089 53.0556 272.548 44.5837 277.812C36.1118 283.075 45.6193 291.663 45.6193 291.663C45.6193 291.663 35.5638 286.713 35.803 296.123L81.773 296.393Z" fill="url(#paint1_linear_245_11674)"/>
<path d="M187.83 295.201C187.83 295.201 200.707 297.541 202.355 286.328C204.004 275.116 199.679 267.989 206.562 262.914C213.443 257.84 222.725 249.455 223.647 240.736C224.568 232.017 221.809 227.9 220.968 224.605C220.127 221.31 220.049 218.187 226.825 214.73C233.601 211.274 237.863 205.339 236.244 197.778C234.625 190.216 230.958 185.985 234.378 176.755C237.798 167.525 228.703 162.276 226.164 162.33C223.625 162.384 219.6 162.55 215.38 167.838C211.161 173.125 208.807 173.579 204.986 174.926C201.166 176.273 192.954 178.245 190.723 190.16C188.492 202.075 191.279 201.45 187.429 208.642C183.578 215.834 174.578 215.594 173.136 226.883C171.694 238.172 179.847 238.431 179.007 248.064C178.166 257.697 163.691 287.362 187.83 295.201Z" fill="url(#paint2_linear_245_11674)"/>
<path d="M188.811 289.928C188.811 289.928 185.424 225.357 221.107 177.252" stroke="#F0B2AD" stroke-width="1.6468" stroke-miterlimit="10"/>
<path d="M205.008 205.21C205.008 205.21 214.739 194.893 222.344 189.534" stroke="#F0B2AD" stroke-width="1.6468" stroke-miterlimit="10"/>
<path d="M200.381 216.89C200.381 216.89 198.544 204.582 198.115 201.439" stroke="#F0B2AD" stroke-width="1.6468" stroke-miterlimit="10"/>
<path d="M195.182 234.139C195.182 234.139 206.973 223.81 211.666 219.597" stroke="#F0B2AD" stroke-width="1.6468" stroke-miterlimit="10"/>
<path d="M192.076 248.72C192.076 248.72 188.689 240.166 186.912 233.371" stroke="#F0B2AD" stroke-width="1.6468" stroke-miterlimit="10"/>
<path d="M189.688 266.265C189.688 266.265 199.953 253.061 204.441 247.983" stroke="#F0B2AD" stroke-width="1.6468" stroke-miterlimit="10"/>
<path d="M188.795 280.505C188.795 280.505 183.226 269.423 181.809 265.409" stroke="#F0B2AD" stroke-width="1.6468" stroke-miterlimit="10"/>
<path d="M86.2166 263.576C86.2166 263.576 73.7055 267.233 70.7042 256.262C67.7029 245.291 71.133 237.762 63.6768 233.431C56.2213 229.1 45.9794 221.729 44.003 213.16C42.0266 204.591 44.2682 200.216 44.7031 196.854C45.1379 193.493 44.836 190.382 37.6825 187.648C30.5289 184.914 25.5727 179.459 26.262 171.777C26.9514 164.097 30.0811 159.511 25.5597 150.694C21.0383 141.876 29.4376 135.719 31.9673 135.51C34.497 135.301 38.5171 135.049 43.3526 139.867C48.1881 144.685 50.5826 144.892 54.543 145.835C58.5034 146.778 66.9028 147.888 70.5689 159.497C74.2344 171.105 71.3882 170.773 76.0892 177.522C80.7903 184.271 89.7039 183.1 92.5095 194.169C95.3152 205.238 87.2445 206.338 89.2515 215.824C91.2584 225.309 109.25 253.289 86.2166 263.576Z" fill="url(#paint3_linear_245_11674)"/>
<path d="M84.602 258.436C84.602 258.436 80.1157 193.922 38.8086 149.812" stroke="#F0B2AD" stroke-width="1.6468" stroke-miterlimit="10"/>
<path d="M58.203 175.929C58.203 175.929 47.2785 166.685 39.0703 162.146" stroke="#F0B2AD" stroke-width="1.6468" stroke-miterlimit="10"/>
<path d="M64.2266 187.057C64.2266 187.057 64.5552 174.636 64.5995 171.47" stroke="#F0B2AD" stroke-width="1.6468" stroke-miterlimit="10"/>
<path d="M71.485 203.659C71.485 203.659 58.5116 194.614 53.3359 190.913" stroke="#F0B2AD" stroke-width="1.6468" stroke-miterlimit="10"/>
<path d="M76.3477 217.825C76.3477 217.825 78.6726 208.975 79.6126 202.039" stroke="#F0B2AD" stroke-width="1.6468" stroke-miterlimit="10"/>
<path d="M80.8541 235.013C80.8541 235.013 69.047 222.956 63.9707 218.374" stroke="#F0B2AD" stroke-width="1.6468" stroke-miterlimit="10"/>
<path d="M83.4727 249.071C83.4727 249.071 87.6593 237.483 88.5787 233.348" stroke="#F0B2AD" stroke-width="1.6468" stroke-miterlimit="10"/>
<path d="M203.412 130.044H200.436V149.235H203.412V130.044Z" fill="#240035"/>
<path d="M74.5608 137.945H71.584V157.136H74.5608V137.945Z" fill="#240035"/>
<path d="M74.5608 166.543H71.584V185.734H74.5608V166.543Z" fill="#240035"/>
<path d="M195.463 302.57H78.7787C75.6284 302.57 73.0742 300.214 73.0742 297.308V109.905C73.0742 107 75.6284 104.644 78.7787 104.644H195.463C198.613 104.644 201.167 106.999 201.167 109.905V297.308C201.166 300.215 198.613 302.57 195.463 302.57Z" fill="#240035"/>
<path d="M189.34 295.421H84.8984C83.2094 295.421 81.8398 294.157 81.8398 292.599V114.614C81.8398 113.056 83.2094 111.793 84.8984 111.793H189.34C191.029 111.793 192.399 113.056 192.399 114.614V292.599C192.399 294.157 191.029 295.421 189.34 295.421Z" fill="#E3E4FF"/>
<path d="M153.201 118.191H121.039C118.14 118.191 115.791 116.023 115.791 113.35V104.645H158.449V113.35C158.449 116.023 156.1 118.191 153.201 118.191Z" fill="#240035"/>
<path d="M128.101 111.417C128.101 112.432 127.209 113.254 126.109 113.254C125.009 113.254 124.117 112.432 124.117 111.417C124.117 110.403 125.009 109.58 126.109 109.58C127.209 109.58 128.101 110.402 128.101 111.417Z" fill="#119CD6"/>
<path d="M149.439 112.546H132.967C132.333 112.546 131.82 112.072 131.82 111.489V111.346C131.82 110.762 132.333 110.288 132.967 110.288H149.439C150.072 110.288 150.585 110.762 150.585 111.346V111.489C150.585 112.072 150.073 112.546 149.439 112.546Z" fill="#5F008C"/>
<path d="M192.401 269.257V292.406C192.401 294.069 190.94 295.424 189.137 295.424H85.1052C83.3023 295.424 81.8418 294.07 81.8418 292.406V269.257H192.401Z" fill="#C1C2EB"/>
<path d="M101.356 282.451C101.29 285.365 98.675 287.677 95.5171 287.616C92.3576 287.555 89.8516 285.143 89.9173 282.23C89.9838 279.316 92.5983 277.003 95.7571 277.065C98.9158 277.126 101.423 279.538 101.356 282.451Z" fill="#E3E4FF"/>
<path d="M99.6863 281.447C99.7108 280.365 98.7799 279.47 97.6067 279.447C96.7714 279.43 96.0408 279.862 95.6793 280.503C95.3476 279.849 94.6368 279.389 93.8015 279.373C92.6283 279.35 91.6577 280.208 91.6332 281.291C91.6309 281.385 91.6386 281.478 91.6508 281.568L91.6493 281.569C91.6493 281.569 91.6523 281.608 91.6669 281.679C91.6684 281.686 91.6691 281.691 91.6707 281.697C91.7769 282.204 92.3761 284.119 95.5616 285.733C99.3485 284.001 99.6603 281.724 99.6603 281.724L99.6565 281.724C99.6718 281.633 99.684 281.542 99.6863 281.447Z" fill="#A9ACD9"/>
<path d="M121.967 282.292C121.997 285.14 119.519 287.47 116.433 287.497C113.346 287.525 110.82 285.24 110.789 282.392C110.76 279.545 113.238 277.215 116.325 277.187C119.412 277.159 121.937 279.446 121.967 282.292Z" fill="#E3E4FF"/>
<path d="M117.093 281.591C117.093 281.591 117.529 281.089 117.525 280.728C117.525 280.728 117.576 279.754 116.915 279.761C116.915 279.761 116.473 279.765 116.478 280.273C116.478 280.273 116.543 280.6 116.3 280.83C116.057 281.057 115.184 281.959 115.188 282.23C115.191 282.501 115.21 284.4 115.21 284.4C115.21 284.4 115.262 284.671 115.556 284.669C115.85 284.667 118.608 284.642 118.608 284.642C118.608 284.642 118.975 284.593 118.972 284.289C118.972 284.289 119.017 283.926 118.76 283.928C118.76 283.928 119.104 283.937 119.1 283.542C119.1 283.542 119.121 283.236 118.913 283.238C118.913 283.238 119.281 283.178 119.276 282.817C119.275 282.686 119.248 282.432 118.893 282.435C118.893 282.435 119.29 282.451 119.268 281.987C119.263 281.862 119.238 281.573 118.871 281.576L117.093 281.591Z" fill="#A9ACD9"/>
<path d="M114.883 284.82C114.884 284.92 114.797 285.002 114.69 285.004L113.745 285.011C113.638 285.013 113.549 284.932 113.547 284.832L113.521 282.338C113.521 282.238 113.608 282.156 113.716 282.156L114.659 282.146C114.767 282.146 114.856 282.226 114.857 282.326L114.883 284.82Z" fill="#A9ACD9"/>
<path d="M163.301 283.532C164.012 280.761 162.154 277.983 159.15 277.327C156.146 276.67 153.135 278.384 152.423 281.155C151.712 283.926 153.57 286.704 156.574 287.36C159.577 288.017 162.589 286.302 163.301 283.532Z" fill="#E3E4FF"/>
<path d="M161.443 282.525C161.443 283.032 161.32 283.512 161.098 283.941C160.523 285.064 159.285 285.839 157.851 285.839C156.416 285.839 155.178 285.065 154.603 283.941C154.382 283.512 154.258 283.032 154.258 282.525H161.443Z" fill="#A9ACD9"/>
<path d="M161.098 283.941C160.524 285.064 159.285 285.839 157.851 285.839C156.416 285.839 155.178 285.064 154.604 283.941C155.605 283.561 156.701 283.354 157.851 283.354C159 283.354 160.096 283.561 161.098 283.941Z" fill="#7E98C1"/>
<path d="M161.243 281.467C161.214 281.467 161.184 281.462 161.155 281.452L159.558 280.899C159.465 280.867 159.401 280.787 159.397 280.695C159.391 280.604 159.446 280.519 159.534 280.478L161.132 279.741C161.255 279.685 161.405 279.73 161.466 279.844C161.528 279.957 161.478 280.096 161.355 280.153L160.27 280.653L161.33 281.02C161.46 281.065 161.525 281.197 161.476 281.317C161.439 281.41 161.343 281.467 161.243 281.467Z" fill="#A9ACD9"/>
<path d="M154.455 281.467C154.355 281.467 154.259 281.41 154.222 281.318C154.173 281.199 154.238 281.066 154.368 281.022L155.428 280.654L154.343 280.154C154.22 280.097 154.17 279.959 154.232 279.845C154.293 279.732 154.443 279.685 154.566 279.742L156.164 280.479C156.252 280.52 156.307 280.605 156.301 280.697C156.296 280.788 156.232 280.868 156.14 280.9L154.543 281.453C154.514 281.462 154.485 281.467 154.455 281.467Z" fill="#A9ACD9"/>
<path d="M142.837 282.378C142.815 285.292 140.235 287.638 137.077 287.617C133.917 287.597 131.374 285.218 131.397 282.304C131.419 279.39 133.998 277.044 137.157 277.065C140.316 277.085 142.859 279.464 142.837 282.378Z" fill="#E3E4FF"/>
<path d="M140.578 280.884C140.653 281.453 140.37 281.952 139.947 281.999C139.524 282.046 139.12 281.624 139.045 281.056C138.97 280.487 139.252 279.988 139.676 279.941C140.099 279.894 140.503 280.316 140.578 280.884Z" fill="#A9ACD9"/>
<path d="M133.519 280.862C133.44 281.429 133.719 281.931 134.141 281.981C134.564 282.031 134.971 281.611 135.05 281.044C135.13 280.476 134.851 279.975 134.428 279.925C134.005 279.875 133.599 280.294 133.519 280.862Z" fill="#A9ACD9"/>
<path d="M138.734 284.33C138.725 285.423 137.987 286.304 137.084 286.299C136.182 286.293 135.457 285.402 135.465 284.309C135.473 283.216 136.212 282.335 137.114 282.341C138.017 282.346 138.742 283.238 138.734 284.33Z" fill="#A9ACD9"/>
<path d="M140.588 279.025C140.476 279.024 140.374 278.955 140.344 278.85C140.276 278.619 140.005 278.449 139.7 278.447C139.41 278.444 139.147 278.595 139.062 278.811C139.013 278.934 138.867 278.996 138.734 278.951C138.602 278.906 138.534 278.771 138.582 278.649C138.743 278.243 139.194 277.972 139.704 277.976C140.242 277.979 140.708 278.289 140.836 278.728C140.873 278.853 140.793 278.983 140.657 279.017C140.634 279.022 140.611 279.025 140.588 279.025Z" fill="#A9ACD9"/>
<path d="M133.508 278.979C133.485 278.979 133.462 278.976 133.439 278.97C133.304 278.934 133.225 278.804 133.264 278.679C133.4 278.241 133.87 277.938 134.408 277.941C134.918 277.945 135.364 278.221 135.519 278.629C135.566 278.752 135.496 278.887 135.363 278.93C135.229 278.973 135.084 278.908 135.037 278.785C134.954 278.568 134.694 278.414 134.404 278.412C134.099 278.41 133.826 278.577 133.755 278.808C133.722 278.912 133.619 278.98 133.508 278.979Z" fill="#A9ACD9"/>
<path d="M178.243 287.095C181.21 287.095 183.615 284.877 183.615 282.14C183.615 279.403 181.21 277.185 178.243 277.185C175.276 277.185 172.871 279.403 172.871 282.14C172.871 284.877 175.276 287.095 178.243 287.095Z" fill="#E3E4FF"/>
<path opacity="0.4" d="M182.367 280.458C182.367 281.142 181.766 281.697 181.024 281.697C180.283 281.697 179.682 281.142 179.682 280.458C179.682 279.775 180.283 279.22 181.024 279.22C181.766 279.22 182.367 279.775 182.367 280.458Z" fill="url(#paint4_radial_245_11674)"/>
<path opacity="0.4" d="M176.613 281.874C176.613 282.559 176.012 283.113 175.271 283.113C174.528 283.113 173.928 282.558 173.928 281.874C173.928 281.191 174.529 280.636 175.271 280.636C176.012 280.635 176.613 281.19 176.613 281.874Z" fill="url(#paint5_radial_245_11674)"/>
<path d="M178.532 280.148C178.417 280.148 178.316 280.071 178.296 279.964C178.166 279.244 178.378 278.832 178.578 278.613C178.822 278.348 179.197 278.201 179.633 278.201C180.238 278.201 180.789 278.602 181.034 279.223C181.079 279.338 181.015 279.465 180.89 279.507C180.767 279.548 180.628 279.49 180.583 279.375C180.408 278.931 180.035 278.643 179.633 278.643C179.426 278.643 179.138 278.688 178.945 278.898C178.75 279.11 178.69 279.452 178.769 279.89C178.791 280.011 178.702 280.125 178.572 280.145C178.559 280.148 178.546 280.148 178.532 280.148Z" fill="#A9ACD9"/>
<path d="M174.311 281.034C174.196 281.034 174.095 280.957 174.075 280.85C173.945 280.13 174.157 279.718 174.358 279.499C174.602 279.234 174.976 279.088 175.413 279.088C176.018 279.088 176.568 279.489 176.813 280.11C176.859 280.225 176.794 280.352 176.67 280.394C176.546 280.436 176.408 280.377 176.363 280.262C176.188 279.818 175.815 279.531 175.413 279.531C175.205 279.531 174.917 279.575 174.724 279.786C174.53 279.997 174.469 280.34 174.548 280.778C174.57 280.898 174.482 281.012 174.351 281.032C174.337 281.034 174.324 281.034 174.311 281.034Z" fill="#A9ACD9"/>
<path d="M177.233 282.909C177.007 282.909 176.793 282.889 176.597 282.849C176.063 282.739 175.717 282.491 175.622 282.149C175.59 282.031 175.668 281.91 175.796 281.881C175.924 281.851 176.055 281.922 176.087 282.041C176.134 282.21 176.357 282.347 176.7 282.417C177.106 282.499 177.614 282.479 178.132 282.357C178.651 282.236 179.109 282.032 179.423 281.781C179.689 281.569 179.815 281.35 179.769 281.181C179.737 281.062 179.814 280.942 179.942 280.912C180.07 280.882 180.201 280.954 180.233 281.072C180.327 281.414 180.151 281.784 179.737 282.115C179.367 282.41 178.839 282.648 178.25 282.785C177.904 282.868 177.557 282.909 177.233 282.909Z" fill="#A9ACD9"/>
<path opacity="0.14" d="M132.859 199.326C121.319 193.479 112.385 186.429 106.305 178.371C101.001 171.341 96.8661 162.393 99.3103 153.718C101.284 146.712 107.073 140.887 114.45 138.431C117.013 137.578 119.731 137.141 122.456 137.141C122.624 137.141 122.793 137.142 122.962 137.146C128.453 137.253 133.565 139.048 137.615 142.122C141.676 139.305 146.675 137.712 151.958 137.712C152.124 137.712 152.29 137.714 152.457 137.717C160.298 137.875 167.685 141.676 171.978 147.729C180.861 160.257 172.477 175.007 162.578 184.493C156.064 190.735 148.138 195.621 139.75 199.459L136.266 201.052L132.859 199.326Z" fill="#ED4478"/>
<path opacity="0.14" d="M111.607 144.599C114.083 142.793 116.975 141.371 120.183 140.876C120.381 140.846 120.58 140.818 120.78 140.794C121.968 140.649 123.173 140.613 124.377 140.693C129.789 141.047 134.551 143.659 137.49 147.447C140.566 144.186 144.909 141.988 149.764 141.421C149.916 141.403 150.069 141.387 150.221 141.373C151.748 141.231 153.298 141.253 154.847 141.444C160.52 142.145 165.723 145.148 168.885 149.63C171.075 152.734 172.012 156.003 172.037 159.283C172.102 167.793 166.023 176.374 159.717 182.343C156.119 185.751 152.056 188.717 147.736 191.309C145.583 192.6 143.369 193.807 141.103 194.913C140.929 194.999 140.712 195.1 140.478 195.23C140.197 195.386 138.025 196.45 137.599 196.682C137.038 196.99 134.79 196.387 134.652 196.316C128.953 193.429 123.816 190.167 119.345 186.516C116.659 184.306 114.096 181.835 111.791 179.161C106.937 173.49 102.841 166.366 103.119 159.289C103.35 153.414 106.506 148.32 111.607 144.599Z" fill="#ED4478"/>
<path d="M168.354 160.085C168.452 157.175 167.714 154.274 165.791 151.531C162.845 147.328 157.73 144.69 152.305 144.583C145.829 144.46 140.167 147.808 137.364 152.771C134.793 147.704 129.284 144.138 122.809 144.012C117.229 143.904 111.866 146.488 108.765 150.767C99.9174 162.979 113.977 178.2 123.829 185.569C127.758 188.507 132.014 191.062 136.446 193.307C137.019 193.598 141.047 191.064 141.698 190.718C143.527 189.747 145.318 188.718 147.062 187.623C150.561 185.427 153.877 182.967 156.857 180.192C162.308 175.115 168.099 167.568 168.354 160.085Z" fill="#FF5289"/>
<path d="M124.688 222.778C128.638 222.778 131.841 219.824 131.841 216.18C131.841 212.536 128.638 209.582 124.688 209.582C120.738 209.582 117.535 212.536 117.535 216.18C117.535 219.824 120.738 222.778 124.688 222.778Z" fill="#B4C3DB"/>
<path d="M122.709 214.355L126.667 218.005" stroke="#A5A7D4" stroke-width="1.4974" stroke-miterlimit="10" stroke-linecap="round" stroke-linejoin="round"/>
<path d="M122.709 218.005L126.667 214.355" stroke="#A5A7D4" stroke-width="1.4974" stroke-miterlimit="10" stroke-linecap="round" stroke-linejoin="round"/>
<path opacity="0.2" d="M149.735 223.756C154.271 223.756 157.949 220.364 157.949 216.18C157.949 211.996 154.271 208.604 149.735 208.604C145.199 208.604 141.521 211.996 141.521 216.18C141.521 220.364 145.199 223.756 149.735 223.756Z" fill="#39B54A"/>
<path opacity="0.2" d="M158.939 218.004C160.037 213.311 156.803 208.686 151.715 207.674C146.628 206.662 141.614 209.645 140.517 214.338C139.419 219.03 142.653 223.655 147.741 224.667C152.828 225.68 157.842 222.697 158.939 218.004Z" fill="#39B54A"/>
<path d="M149.737 222.778C153.687 222.778 156.89 219.824 156.89 216.18C156.89 212.536 153.687 209.582 149.737 209.582C145.786 209.582 142.584 212.536 142.584 216.18C142.584 219.824 145.786 222.778 149.737 222.778Z" fill="#39B54A"/>
<path d="M147.494 216.18L149.02 218.005L151.977 214.355" stroke="white" stroke-width="1.4974" stroke-miterlimit="10" stroke-linecap="round" stroke-linejoin="round"/>
<path d="M159.401 238.959H114.926C113.966 238.959 113.188 238.241 113.188 237.355V236.443C113.188 235.557 113.966 234.839 114.926 234.839H159.401C160.361 234.839 161.14 235.557 161.14 236.443V237.355C161.14 238.24 160.362 238.959 159.401 238.959Z" fill="white"/>
<path d="M141.701 247.196H114.928C113.968 247.196 113.189 246.478 113.189 245.592V244.68C113.189 243.795 113.968 243.076 114.928 243.076H141.701C142.661 243.076 143.44 243.794 143.44 244.68V245.592C143.44 246.478 142.661 247.196 141.701 247.196Z" fill="white"/>
<path d="M159.402 247.196H147.735C146.775 247.196 145.996 246.478 145.996 245.592V244.68C145.996 243.795 146.775 243.076 147.735 243.076H159.402C160.362 243.076 161.141 243.794 161.141 244.68V245.592C161.141 246.478 160.363 247.196 159.402 247.196Z" fill="white"/>
<path opacity="0.25" d="M201.172 119.82V169.583L160.635 104.642H191.695L201.172 119.82Z" fill="white"/>
<path d="M16.4669 184.685C15.8036 183.828 16.0191 182.636 16.9484 182.024C17.6103 181.589 18.4548 181.566 19.1266 181.898C19.0043 181.204 19.3016 180.474 19.9635 180.039C20.8928 179.427 22.1837 179.625 22.8478 180.483C22.9059 180.557 22.9541 180.636 22.9984 180.715L22.9999 180.714C22.9999 180.714 23.0205 180.747 23.0519 180.812C23.0542 180.818 23.0572 180.823 23.0595 180.828C23.275 181.288 23.9331 183.131 22.3327 186.041C18.2584 186.566 16.6527 184.894 16.6527 184.894L16.655 184.892C16.5892 184.827 16.525 184.76 16.4669 184.685Z" fill="#ED5586"/>
<path d="M4.54538 172.642C4.71734 171.932 5.47932 171.485 6.24817 171.643C6.79615 171.756 7.19815 172.146 7.32273 172.617C7.65213 172.239 8.19629 172.043 8.7435 172.156C9.51236 172.314 9.9969 173.018 9.82571 173.727C9.81042 173.789 9.78979 173.848 9.7661 173.905L9.76686 173.906C9.76686 173.906 9.75769 173.931 9.73629 173.976C9.734 173.979 9.73247 173.983 9.73094 173.987C9.57426 174.301 8.85126 175.463 6.4935 176.046C4.32298 174.358 4.51405 172.826 4.51405 172.826H4.51634C4.52245 172.765 4.5301 172.704 4.54538 172.642Z" fill="#ED5586"/>
<path d="M0.0399109 186.089C-0.144278 185.382 0.326511 184.671 1.09231 184.501C1.63799 184.379 2.18445 184.566 2.52225 184.939C2.63766 184.465 3.03278 184.069 3.57847 183.948C4.34426 183.777 5.11542 184.212 5.30037 184.919C5.31642 184.98 5.32558 185.042 5.3317 185.103H5.33323C5.33323 185.103 5.33705 185.129 5.33934 185.178C5.33934 185.182 5.33934 185.186 5.34011 185.19C5.34928 185.536 5.25451 186.873 3.41645 188.354C0.662024 187.72 0.101818 186.267 0.101818 186.267L0.104109 186.266C0.078124 186.209 0.0559605 186.15 0.0399109 186.089Z" fill="#ED5586"/>
<path d="M81.9083 144.952H127.322C129.932 144.952 132.047 146.904 132.047 149.311V161.337C132.047 163.745 129.932 165.696 127.322 165.696H89.2728L85.2749 172.81V165.696H81.9091C79.2991 165.696 77.1836 163.745 77.1836 161.337V149.311C77.1828 146.904 79.2983 144.952 81.9083 144.952Z" fill="white"/>
<path d="M95.3942 156.597C96.2088 153.401 94.061 150.202 90.597 149.451C87.133 148.699 83.6645 150.68 82.8499 153.876C82.0353 157.071 84.1831 160.27 87.6471 161.022C91.1112 161.773 94.5796 159.792 95.3942 156.597Z" fill="white"/>
<path d="M94.7077 156.445C95.4328 153.603 93.5222 150.756 90.4403 150.087C87.3584 149.418 84.2722 151.181 83.5472 154.024C82.8221 156.866 84.7328 159.713 87.8147 160.382C90.8966 161.051 93.9827 159.288 94.7077 156.445Z" fill="#E3E4FF"/>
<path d="M91.6335 153.608C91.6335 154.881 90.5146 155.913 89.1351 155.913C87.7548 155.913 86.6367 154.881 86.6367 153.608C86.6367 152.335 87.7556 151.304 89.1351 151.304C90.5154 151.304 91.6335 152.336 91.6335 153.608Z" fill="#B7BAEB"/>
<path d="M89.1348 160.522C91.157 160.522 92.9301 159.554 93.9512 158.095C93.5874 156.928 92.7391 155.95 91.6186 155.358C91.047 156.048 90.149 156.494 89.1348 156.494C88.1214 156.494 87.2233 156.048 86.6509 155.358C85.5305 155.95 84.6814 156.928 84.3184 158.095C85.3394 159.554 87.1125 160.522 89.1348 160.522Z" fill="#B7BAEB"/>
<path d="M112.069 151.715H101.169C100.53 151.715 100.012 151.237 100.012 150.647V150.503C100.012 149.914 100.53 149.436 101.169 149.436H112.069C112.708 149.436 113.226 149.914 113.226 150.503V150.647C113.226 151.237 112.708 151.715 112.069 151.715Z" fill="#7E98C1"/>
<path d="M125.385 156.475H101.169C100.53 156.475 100.012 155.997 100.012 155.408V155.264C100.012 154.674 100.53 154.196 101.169 154.196H125.385C126.024 154.196 126.542 154.674 126.542 155.264V155.408C126.542 155.997 126.024 156.475 125.385 156.475Z" fill="#E3E4FF"/>
<path d="M115.591 161.033H101.169C100.53 161.033 100.012 160.555 100.012 159.966V159.822C100.012 159.233 100.53 158.755 101.169 158.755H115.591C116.229 158.755 116.748 159.233 116.748 159.822V159.967C116.748 160.555 116.23 161.033 115.591 161.033Z" fill="#E3E4FF"/>
<path d="M125.384 161.033H119.319C118.68 161.033 118.162 160.555 118.162 159.966V159.822C118.162 159.233 118.68 158.755 119.319 158.755H125.384C126.023 158.755 126.541 159.233 126.541 159.822V159.966C126.541 160.555 126.023 161.033 125.384 161.033Z" fill="#E3E4FF"/>
<path d="M54.3792 224.13C54.3792 224.13 47.8699 259.813 47.7125 262.735C47.5543 265.658 50.8422 272.189 55.1167 276.541C59.3913 280.893 78.3451 298.513 78.3451 298.513L81.4236 295.655C81.4236 295.655 77.8384 290.273 76.3894 286.496C74.9403 282.718 67.0531 270.193 64.2406 267.714C61.4281 265.235 65.0973 259.318 65.0973 259.318C65.0973 259.318 69.4911 231.55 69.4567 225.585L54.3792 224.13Z" fill="#1C1C1C"/>
<path d="M54.2753 224.132L54.4465 230.962C54.4465 230.962 56.3296 240.152 56.322 244.108C56.3143 248.064 51.2189 266.274 51.5292 270.104C51.8388 273.933 59.0947 303.508 59.0947 303.508L62.9367 303.426C62.9367 303.426 63.1392 292.153 63.461 286.992C63.7827 281.83 62.2993 269.514 62.1656 268.438C62.0318 267.363 78.3963 247.208 77.1146 225.909L77.0818 223.645L54.4251 222.996L54.2753 224.132Z" fill="#3D3D3D"/>
<path d="M59.2118 303.505C59.2118 303.505 55.5487 306.919 54.3106 307.326C53.0725 307.734 50.9929 307.778 50.9172 308.085C50.8416 308.392 50.9402 308.999 50.9402 308.999L63.6614 308.728L62.9338 303.426L59.2118 303.505Z" fill="#677A83"/>
<path d="M78.4274 298.546C78.4274 298.546 77.7319 303.58 76.9538 304.852C76.1758 306.124 73.5704 307.259 73.6958 307.568C73.8211 307.877 74.5311 308.497 74.5311 308.497L78.4365 306.002L85.3256 299.481L81.4699 295.666L78.4274 298.546Z" fill="#677A83"/>
<path d="M49.4894 226.877C49.4894 226.877 49.2012 230.229 48.7702 230.947C48.3392 231.664 45.9944 234.584 45.9218 234.93C45.8492 235.275 46.8366 238.049 47.1714 238.332C47.5069 238.615 48.8909 241.807 49.1714 242.524C49.1714 242.524 49.7882 242.518 49.899 242.307C50.0091 242.094 48.8329 237.34 48.8329 237.34L50.5892 232.765L51.7936 231.788L53.0325 227.094L49.4894 226.877Z" fill="#FFB6A5"/>
<path d="M51.7947 231.788C51.7947 231.788 52.3748 233.617 51.9063 234.858C51.4378 236.099 50.2478 237.47 49.949 238.327L49.1113 238.482L49.6333 236.12L50.1607 232.739C50.1607 232.739 51.184 231.707 51.7947 231.788Z" fill="#FFB6A5"/>
<path d="M35.4796 194.39L28.1563 189.679C28.1288 189.662 28.125 189.626 28.1472 189.604L29.8423 187.917C29.8607 187.899 29.892 187.896 29.9142 187.911L40.62 195.019L38.947 196.434L35.4796 194.39Z" fill="#240035"/>
<path d="M54.6625 182.259C54.6625 182.259 51.5787 184.886 51.6559 189.02C51.7331 193.156 48.5996 230.059 48.5996 230.059L52.2207 230.769C52.2207 230.769 54.1933 226.295 54.5953 221.559C54.9958 216.823 54.6625 182.259 54.6625 182.259Z" fill="#24488C"/>
<path d="M60.9815 179.367L54.6618 182.26C54.6618 182.26 53.7553 183.362 53.6652 184.546C53.5796 185.668 51.338 215.172 51.1331 222.929C51.1179 223.512 51.6337 223.987 52.2673 223.973L58.2691 223.844L60.9815 179.367Z" fill="#3161BF"/>
<path d="M46.7832 157.656C46.7832 157.656 46.8535 179.594 59.2094 177.336C59.2094 177.336 60.002 183.376 59.8957 185.52C59.8957 185.52 60.6791 188.015 64.7091 185.861C68.7391 183.706 71.4217 178.921 71.9437 177.359L67.4475 170.511C67.4475 170.511 69.6684 169.651 69.4957 165.961C69.323 162.271 65.8593 161.459 64.755 162.147L63.0697 155.608L46.7832 157.656Z" fill="#FFB6A5"/>
<path d="M42.8984 156.006C42.8984 156.006 49.0745 160.742 56.5314 159.96C63.9892 159.178 65.507 157.031 65.4902 156.362C65.4031 152.901 63.6789 151.203 57.6809 151.515C51.6891 151.826 42.8984 156.006 42.8984 156.006Z" fill="#592405"/>
<path d="M64.287 156.468C64.287 156.468 59.2428 159.952 64.1433 166.447C64.1433 166.447 64.2442 164.081 65.8453 164.047C67.0147 164.022 67.7002 165.15 67.9746 166.053C68.3116 167.161 68.1924 168.279 67.3288 169.159C66.8129 169.684 65.937 170.075 65.224 169.601L68.1122 171.524C68.1122 171.524 71.5644 168.578 70.5158 161.879C69.4657 155.178 64.287 156.468 64.287 156.468Z" fill="#592405"/>
<path d="M51.0059 163.106C51.0059 163.106 53.2276 168.677 53.1351 171.374L55.444 170.842" stroke="#532001" stroke-width="0.419" stroke-miterlimit="10"/>
<path d="M58.647 166.753C58.7142 167.293 58.472 167.763 58.1059 167.802C57.7398 167.84 57.389 167.434 57.3218 166.894C57.2545 166.354 57.4968 165.884 57.8629 165.845C58.2282 165.807 58.5797 166.213 58.647 166.753Z" fill="#532001"/>
<path d="M51.2896 167.201C51.3568 167.741 51.1146 168.21 50.7485 168.249C50.3824 168.288 50.0316 167.881 49.9643 167.341C49.8971 166.801 50.1393 166.331 50.5054 166.293C50.8715 166.254 51.2223 166.661 51.2896 167.201Z" fill="#532001"/>
<path d="M59.7717 163.707C58.4366 163.434 57.0494 163.515 55.7731 163.941C55.6623 163.618 55.5515 163.295 55.4414 162.972C56.931 162.593 58.5008 162.611 59.9682 163.024C59.9032 163.252 59.8375 163.479 59.7717 163.707Z" fill="#592405"/>
<path d="M48.1469 165.172C48.8416 164.649 49.68 164.321 50.5635 164.224C50.5253 164.005 50.4871 163.786 50.4489 163.566C49.4553 163.748 48.542 164.186 47.8145 164.826C47.9245 164.942 48.0353 165.057 48.1469 165.172Z" fill="#592405"/>
<path d="M60.8746 170.357C59.301 173.592 55.2305 173.088 55.2305 173.088C55.2305 173.088 55.7173 173.535 56.4678 173.878C57.641 173.59 59.4316 173.001 60.792 171.899C60.9495 171.079 60.8746 170.357 60.8746 170.357Z" fill="white"/>
<path d="M59.1341 174.102C60.1964 173.75 60.6244 172.768 60.791 171.898C59.4314 173 57.6407 173.589 56.4668 173.877C57.1791 174.203 58.1291 174.436 59.1341 174.102Z" fill="#D4145A"/>
<path d="M65.3931 171.58C64.4492 176.515 59.2109 177.335 59.2109 177.335C59.2109 177.335 59.3959 178.745 59.5747 180.442C65.6017 178.959 65.3931 171.58 65.3931 171.58Z" fill="#E1775F"/>
<path d="M58.9036 180.575L55.8145 223.898C55.8145 223.898 64.8588 226.266 72.2454 225.221L70.3141 179.982L64.0303 181.895L61.2958 186.676L58.9036 180.575Z" fill="#FBFBFB"/>
<path d="M73.9438 178.552C73.9438 178.552 79.8623 182.312 82.0183 183.152C84.175 183.993 77.315 204.232 77.4953 215.653C77.4953 215.653 77.8049 223.723 78.6532 227.742L65.9671 231.388C65.0462 231.652 64.0832 231.114 63.9166 230.238C63.4183 227.623 62.4599 222.779 62.3728 222.281C61.4083 216.775 61.4335 211.411 62.2046 205.855C63.0079 200.069 64.418 194.375 65.7157 188.671C66.0955 187.003 66.4799 185.336 66.8835 183.673L73.9438 178.552Z" fill="#4080FE"/>
<path d="M58.0121 177.482L55.7988 185.017L59.3282 182.061L61.2947 186.675L64.1515 182.77L68.4711 185.78L74.4401 177.896L71.8775 174.701C71.8775 174.701 71.1331 173.712 69.6137 173.81L70.3237 174.89L63.0983 182.275L61.2954 186.674L59.2105 177.334L58.0121 177.482Z" fill="#FBFBFB"/>
<path d="M82.0197 183.153C82.0197 183.153 87.4521 186.878 85.6943 193.416C83.9365 199.954 80.6004 214.109 76.2808 214.004C71.9612 213.899 54.6474 207.178 45.5664 202.743L47.7958 198.066L71.7372 204.96C71.7372 204.962 78.1257 181.168 82.0197 183.153Z" fill="#5E94FE"/>
<path d="M47.7948 198.066C47.7948 198.066 44.4381 196.119 43.4988 194.859C42.5596 193.598 42.1598 192.572 40.7031 191.963C39.2464 191.354 35.5512 188.774 35.3227 188.188C35.3227 188.188 34.7533 188.889 34.923 189.28C35.0927 189.67 38.434 193.872 39.5109 194.243C39.5109 194.243 35.7423 194.478 35.4083 194.315C35.0407 194.136 30.5605 191.141 30.5605 191.141C30.5605 191.141 30.5896 193.164 30.9763 193.698C31.3638 194.231 31.908 194.663 31.908 194.663C31.908 194.663 31.6099 195.555 31.7826 196.044C31.9553 196.533 33.6291 197.285 33.6291 197.285C33.6291 197.285 33.5045 198.716 33.9417 199.1C34.3781 199.485 35.6827 200.393 37.1829 200.607C38.6832 200.821 42.1568 200.944 43.1259 201.268C44.095 201.592 45.5654 202.743 45.5654 202.743L47.7948 198.066Z" fill="#FFB6A5"/>
<path d="M31.9082 194.663C32.6182 194.961 33.3076 195.29 33.9832 195.64C34.6626 195.986 35.3268 196.354 35.984 196.732L35.9481 196.719C36.6268 196.923 37.3016 197.139 37.9559 197.39C37.2489 197.276 36.5618 197.127 35.8793 196.966L35.8618 196.962L35.8427 196.952C35.1648 196.605 34.4945 196.246 33.838 195.865C33.1799 195.489 32.5341 195.092 31.9082 194.663Z" fill="#E1775F"/>
<path d="M33.6289 197.286C34.1112 197.437 34.5758 197.618 35.0222 197.83C35.2438 197.938 35.4754 198.031 35.6894 198.152L36.3405 198.501L36.3184 198.493C36.6676 198.626 37.0177 198.759 37.3539 198.93C36.9733 198.886 36.6057 198.805 36.2374 198.724L36.2312 198.722L36.2152 198.715L35.5419 198.404C35.3149 198.305 35.1047 198.177 34.8846 198.065C34.4482 197.835 34.0294 197.576 33.6289 197.286Z" fill="#E1775F"/>
<path d="M61.0352 186.676L65.8791 184.156L63.892 182.771L61.0352 186.676Z" fill="#E3E4FF"/>
<path d="M61.0338 186.676L59.0681 182.062L58.3711 182.645L61.0338 186.676Z" fill="#E3E4FF"/>
<path d="M67.2133 167.113C67.1567 166.816 66.9565 166.542 66.7035 166.341C66.5055 166.192 66.2724 166.105 66.034 166.051C66.0615 165.974 66.0829 165.893 66.1226 165.826C66.2495 165.58 66.5667 165.523 66.9228 165.589C66.7776 165.499 66.6164 165.415 66.4092 165.408C66.3091 165.395 66.2128 165.451 66.1112 165.477C66.0248 165.525 65.9469 165.59 65.8697 165.654C65.6045 165.944 65.538 166.29 65.4814 166.613C65.4386 166.942 65.434 167.269 65.4791 167.59C65.5189 167.912 65.5808 168.23 65.7038 168.537C65.7902 167.893 65.794 167.266 65.8865 166.662C65.9002 166.561 65.9216 166.461 65.9423 166.361C66.1249 166.433 66.2977 166.516 66.4429 166.63C66.6423 166.782 66.8044 166.975 66.9175 167.208C67.0443 167.437 67.104 167.698 67.1957 167.973C67.2324 167.836 67.2515 167.694 67.2683 167.549C67.2507 167.406 67.2622 167.256 67.2133 167.113Z" fill="#E1775F"/>
<path d="M159.61 82.6221C159.61 82.6221 161.646 84.6319 162.318 84.8892C162.99 85.1459 166.103 85.9136 166.341 86.1004C166.578 86.2879 167.478 88.5269 167.42 88.866C167.362 89.2051 168.239 91.8981 168.455 92.4888C168.455 92.4888 168.057 92.775 167.869 92.6911C167.681 92.6073 165.808 89.0112 165.808 89.0112L162.157 86.9076L160.847 86.8484L157.461 84.4254L159.61 82.6221Z" stroke="#EE2A7B" stroke-width="0.1567" stroke-miterlimit="10"/>
<path d="M160.85 86.8485C160.85 86.8485 161.489 88.2923 162.474 88.8662C163.459 89.44 164.977 89.7586 165.642 90.1668L166.264 89.8722L164.626 88.6053L162.421 86.6892C162.421 86.6892 161.196 86.5094 160.85 86.8485Z" stroke="#EE2A7B" stroke-width="0.1567" stroke-miterlimit="10"/>
<path d="M160.554 50.2509C160.554 50.2509 160.068 48.8818 159.768 49.3062C159.578 49.5755 159.907 51.2209 159.907 51.2209L160.554 50.2509Z" fill="#FFB6A5"/>
<path d="M163.344 46.2019C163.4 46.1194 162.834 45.4017 162.753 45.3157C162.531 45.0781 162.04 44.7983 161.768 45.1486C161.495 45.5011 162.258 47.7888 162.258 47.7888C162.258 47.7888 163.341 46.2061 163.344 46.2019Z" fill="#FFB6A5"/>
<path d="M162.257 47.7889C162.257 47.7889 161.603 46.4241 161.221 46.3903C160.137 46.2951 161.504 48.8887 161.323 49.153L162.257 47.7889Z" fill="#FFB6A5"/>
<path d="M161.359 49.0956C161.359 49.0956 160.653 47.7266 160.216 48.1509C159.939 48.4202 160.554 50.2736 160.554 50.2736L161.359 49.0956Z" fill="#FFB6A5"/>
<path d="M159.254 53.7888L159.16 53.7339C158.777 53.5104 158.662 53.0423 158.904 52.6884L164.866 43.9764C165.109 43.6225 165.616 43.5167 166 43.7402L166.094 43.7945C166.477 44.018 166.592 44.4861 166.35 44.84L160.388 53.552C160.146 53.9066 159.638 54.0123 159.254 53.7888Z" fill="#240035"/>
<path d="M154.562 57.6839L158.274 53.3546C158.274 53.3546 158.601 49.0755 159.474 47.968C159.474 47.968 159.966 47.5654 159.966 47.968C159.966 48.3705 159.568 51.6465 161.159 52.4255L164.331 47.7896C164.331 47.7896 164.219 53.1439 163.404 53.9588C160.133 57.2306 158.111 60.3014 158.111 60.3014L154.562 57.6839Z" fill="#FFB6A5"/>
<path d="M122.336 104.632H189.802V100.504L140.414 90.042C136.048 89.1171 131.528 90.8626 129.178 94.3818L122.336 104.632Z" fill="#7B55C2"/>
<path d="M138.504 50.9785C138.504 50.9785 148.89 68.8735 152.078 73.2097C155.265 77.5453 161.07 83.9295 161.07 83.9295L158.714 85.2746C158.714 85.2746 140.455 76.1036 135.245 64.5746C130.035 53.0455 135.628 51.0793 138.504 50.9785Z" fill="#F2B529"/>
<path d="M137.799 50.197C137.799 50.197 141.735 54.1519 141.961 58.1716C142.185 62.1913 141.217 68.1504 137.02 70.7539C132.824 73.3573 130.358 74.548 130.057 77.824C129.757 81.0993 130.057 83.7796 130.057 83.7796C130.057 83.7796 113.455 95.6901 110.873 97.3277C110.873 97.3277 107.806 74.8462 118.297 56.087C128.789 37.3285 137.799 50.197 137.799 50.197Z" fill="#FDC850"/>
<path d="M151.091 23.0127C151.091 23.0127 158.971 28.5446 149.449 33.7557C149.449 33.7557 149.021 26.8597 151.091 23.0127Z" fill="#A63005"/>
<path d="M150.417 26.7578C150.417 26.7578 152.031 49.0898 141.217 45.2196L137.988 52.0683C137.988 52.0683 132.178 50.8776 130.08 45.964C130.08 45.964 132.985 42.2418 132.985 39.4134C132.985 39.4134 127.82 35.5424 131.209 31.6714C134.599 27.8005 136.859 30.3313 138.311 31.8202L150.417 26.7578Z" fill="#FFB6A5"/>
<path d="M134.436 54.5987C134.436 54.5987 131.226 48.9688 126.536 50.4436C121.847 51.9191 125.075 61.4474 127.496 66.8073C129.917 72.1672 136.759 84.0777 140.279 80.9511C143.798 77.8246 159.777 58.4697 159.777 58.4697L156.065 55.4919L140.279 69.6991L134.436 54.5987Z" fill="#FDD374"/>
<path d="M143.316 22.291C143.316 22.291 148.804 20.2064 151.548 23.4824C154.291 26.7577 145.898 34.4997 137.667 33.4577V35.0954H136.699C136.699 35.0954 135.682 30.4538 132.987 31.8201C130.29 33.1863 131.211 37.9244 134.439 38.0731C134.439 38.0731 135.73 45.5176 132.342 47.6015C128.952 49.6861 122.173 51.0256 119.591 57.7256C117.008 64.4256 116.201 70.3805 110.875 69.636C105.549 68.8916 106.032 62.0428 109.261 58.6188C112.489 55.1947 112.166 53.2589 111.036 51.3238C109.906 49.3886 110.068 42.5398 117.493 41.0509C124.917 39.562 126.208 37.1799 125.886 34.2022C125.563 31.2244 129.46 16.6336 143.316 22.291Z" fill="#B83605"/>
<path d="M141.215 45.2199C141.215 45.2199 138.955 44.4755 138.148 40.6045C138.148 40.6045 136.56 44.0433 140.139 47.5012L141.215 45.2199Z" fill="#E1775F"/>
<path d="M189.801 104.631H198.319V96.4287L196.63 101.8L189.801 100.53V104.631Z" fill="#DB351D"/>
<path d="M134.531 35.4055C134.481 35.1087 134.341 34.8274 134.17 34.5659C134.044 34.4058 133.884 34.2733 133.713 34.1549C133.843 34.0047 134.001 33.8679 134.196 33.7559C133.917 33.7735 133.649 33.9018 133.443 34.0942C133.232 34.2867 133.117 34.556 133.065 34.819C133.028 35.089 133.068 35.3533 133.14 35.6029C133.192 35.7234 133.237 35.8454 133.293 35.9603C133.367 36.0703 133.429 36.1831 133.509 36.286L133.383 35.5556C133.365 35.3188 133.328 35.0833 133.383 34.862C133.402 34.6864 133.468 34.5236 133.558 34.3706C133.687 34.4813 133.808 34.599 133.904 34.7351C134.072 34.9529 134.196 35.2003 134.289 35.4626C134.39 35.7241 134.443 36.0005 134.518 36.2867C134.546 36.1436 134.557 35.997 134.572 35.8489C134.559 35.703 134.562 35.5528 134.531 35.4055Z" fill="#E1775F"/>
<path d="M146.556 37.2505C146.421 37.7278 146.119 38.0683 145.882 38.0112C145.645 37.9541 145.563 37.5205 145.698 37.0433C145.833 36.566 146.135 36.2255 146.372 36.2826C146.609 36.3404 146.691 36.7733 146.556 37.2505Z" fill="#532001"/>
<path d="M148.103 34.6785C146.999 34.1152 145.668 34.0363 144.471 34.4712C144.38 34.2936 144.29 34.1152 144.199 33.9376C145.542 33.27 147.151 33.191 148.587 33.7303C148.426 34.0461 148.264 34.362 148.103 34.6785Z" fill="#B83605"/>
<path d="M144.885 43.6149C143.895 43.1207 143.005 42.5525 142.35 42.0957C142.567 43.8405 143.928 43.8426 144.885 43.6149Z" fill="#D4145A"/>
<path d="M142.399 40.6035C142.31 41.2056 142.301 41.6955 142.35 42.0959C143.006 42.5528 143.896 43.121 144.886 43.6151C145.43 43.4861 145.842 43.2831 145.842 43.2831C143.368 42.7868 142.399 40.6035 142.399 40.6035Z" fill="white"/>
<path d="M147.832 40.856L149.364 41.3347L150.225 34.4189L147.832 40.856Z" fill="#FFA48F"/>
<path d="M178.679 45.3662H224.092C226.702 45.3662 228.818 47.3176 228.818 49.725V61.7504C228.818 64.1579 226.702 66.1092 224.092 66.1092H186.043L182.045 73.2238V66.1092H178.679C176.069 66.1092 173.953 64.1579 173.953 61.7504V49.7243C173.953 47.3176 176.069 45.3662 178.679 45.3662Z" fill="white"/>
<path d="M188.602 61.0493C191.831 59.6693 193.235 56.1362 191.739 53.1579C190.243 50.1797 186.413 48.884 183.184 50.264C179.955 51.644 178.551 55.1771 180.047 58.1553C181.543 61.1336 185.373 62.4292 188.602 61.0493Z" fill="white"/>
<path d="M185.901 60.9353C189.067 60.9353 191.634 58.5678 191.634 55.6474C191.634 52.7269 189.067 50.3594 185.901 50.3594C182.735 50.3594 180.168 52.7269 180.168 55.6474C180.168 58.5678 182.735 60.9353 185.901 60.9353Z" fill="#E3E4FF"/>
<path d="M188.401 54.0223C188.401 55.2955 187.282 56.3269 185.903 56.3269C184.522 56.3269 183.404 55.2948 183.404 54.0223C183.404 52.7491 184.523 51.7178 185.903 51.7178C187.283 51.7171 188.401 52.7491 188.401 54.0223Z" fill="#B7BAEB"/>
<path d="M185.902 60.9357C187.925 60.9357 189.698 59.9677 190.719 58.5092C190.356 57.3417 189.507 56.3639 188.386 55.7725C187.815 56.4619 186.917 56.9082 185.902 56.9082C184.889 56.9082 183.991 56.4619 183.418 55.7725C182.298 56.3639 181.449 57.3417 181.086 58.5092C182.107 59.967 183.88 60.9357 185.902 60.9357Z" fill="#B7BAEB"/>
<path d="M208.834 52.1278H197.934C197.295 52.1278 196.777 51.6498 196.777 51.0605V50.916C196.777 50.3266 197.295 49.8486 197.934 49.8486H208.834C209.473 49.8486 209.992 50.3266 209.992 50.916V51.0598C209.992 51.6498 209.473 52.1278 208.834 52.1278Z" fill="#7E98C1"/>
<path d="M222.15 56.8888H197.934C197.295 56.8888 196.777 56.4108 196.777 55.8215V55.6777C196.777 55.0883 197.295 54.6104 197.934 54.6104H222.15C222.789 54.6104 223.307 55.0883 223.307 55.6777V55.8222C223.307 56.4108 222.789 56.8888 222.15 56.8888Z" fill="#E3E4FF"/>
<path d="M212.356 61.4452H197.934C197.295 61.4452 196.777 60.9672 196.777 60.3779V60.2333C196.777 59.644 197.295 59.166 197.934 59.166H212.356C212.995 59.166 213.513 59.644 213.513 60.2333V60.3779C213.513 60.9672 212.996 61.4452 212.356 61.4452Z" fill="#E3E4FF"/>
<path d="M222.149 61.4452H216.085C215.446 61.4452 214.928 60.9672 214.928 60.3779V60.2333C214.928 59.644 215.446 59.166 216.085 59.166H222.149C222.788 59.166 223.306 59.644 223.306 60.2333V60.3779C223.306 60.9672 222.788 61.4452 222.149 61.4452Z" fill="#E3E4FF"/>
<path d="M175.317 35.522C175.98 34.6648 175.764 33.4734 174.835 32.8615C174.173 32.4258 173.329 32.4032 172.657 32.7346C172.779 32.0409 172.482 31.3112 171.82 30.8756C170.891 30.2636 169.6 30.4624 168.936 31.3197C168.878 31.3944 168.83 31.4727 168.785 31.5516L168.784 31.5509C168.784 31.5509 168.763 31.5841 168.732 31.6489C168.729 31.6545 168.726 31.6602 168.724 31.6651C168.509 32.1255 167.85 33.969 169.451 36.8784C173.525 37.4029 175.131 35.7307 175.131 35.7307L175.129 35.7286C175.195 35.6644 175.259 35.5967 175.317 35.522Z" fill="#ED5586"/>
<path d="M187.237 23.4779C187.065 22.768 186.303 22.3211 185.534 22.479C184.986 22.5918 184.584 22.9816 184.459 23.4526C184.13 23.0747 183.586 22.8794 183.038 22.9922C182.27 23.1501 181.785 23.8537 181.956 24.5636C181.972 24.6256 181.992 24.6841 182.016 24.7419L182.015 24.7426C182.015 24.7426 182.024 24.768 182.046 24.8124C182.048 24.816 182.05 24.8202 182.051 24.8237C182.208 25.1381 182.931 26.2992 185.288 26.8829C187.459 25.1945 187.268 23.6626 187.268 23.6626H187.266C187.26 23.6013 187.251 23.54 187.237 23.4779Z" fill="#ED5586"/>
<path d="M191.744 36.9251C191.928 36.218 191.457 35.5074 190.692 35.3368C190.146 35.2155 189.599 35.4024 189.262 35.7746C189.146 35.3016 188.751 34.9054 188.206 34.7841C187.44 34.6135 186.669 35.0485 186.484 35.7549C186.468 35.8162 186.458 35.8782 186.452 35.9389H186.451C186.451 35.9389 186.447 35.9649 186.445 36.0136C186.445 36.0178 186.445 36.022 186.444 36.0263C186.435 36.3724 186.529 37.709 188.368 39.1902C191.122 38.5557 191.681 37.1028 191.681 37.1028L191.679 37.102C191.706 37.0449 191.728 36.9864 191.744 36.9251Z" fill="#ED5586"/>
<path d="M110.873 97.3284C110.873 97.3284 114.585 106.41 125.561 104.326C136.536 102.241 156.551 89.5864 156.551 89.5864L172.692 107.601H178.502C178.502 107.601 163.815 75.1451 157.519 76.9315C151.225 78.7179 130.058 83.7803 130.058 83.7803C130.058 83.7803 116.845 91.5222 110.873 97.3284Z" fill="#9173CD"/>
<path d="M172.691 107.602L177.13 114.153L186.412 115.716L180.278 112.664L178.502 107.602H172.691Z" fill="#FF4B30"/>
<defs>
<filter id="filter0_f_245_11674" x="29.8" y="0.800003" width="317.4" height="317.4" filterUnits="userSpaceOnUse" color-interpolation-filters="sRGB">
<feFlood flood-opacity="0" result="BackgroundImageFix"/>
<feBlend mode="normal" in="SourceGraphic" in2="BackgroundImageFix" result="shape"/>
<feGaussianBlur stdDeviation="35.6" result="effect1_foregroundBlur_245_11674"/>
</filter>
<linearGradient id="paint0_linear_245_11674" x1="207.9" y1="283.958" x2="209.276" y2="303.718" gradientUnits="userSpaceOnUse">
<stop stop-color="#98C240"/>
<stop offset="0.9967" stop-color="#7FAD1E"/>
</linearGradient>
<linearGradient id="paint1_linear_245_11674" x1="67.4978" y1="283.618" x2="66.4104" y2="299.238" gradientUnits="userSpaceOnUse">
<stop stop-color="#98C240"/>
<stop offset="0.9967" stop-color="#7FAD1E"/>
</linearGradient>
<linearGradient id="paint2_linear_245_11674" x1="176.945" y1="267.289" x2="230.949" y2="171.26" gradientUnits="userSpaceOnUse">
<stop stop-color="#F0746A"/>
<stop offset="0.9994" stop-color="#F03D30"/>
</linearGradient>
<linearGradient id="paint3_linear_245_11674" x1="93.6377" y1="234.715" x2="28.9891" y2="144.384" gradientUnits="userSpaceOnUse">
<stop stop-color="#F0746A"/>
<stop offset="0.9994" stop-color="#F03D30"/>
</linearGradient>
<radialGradient id="paint4_radial_245_11674" cx="0" cy="0" r="1" gradientUnits="userSpaceOnUse" gradientTransform="translate(181.024 280.459) scale(1.34297 1.23876)">
<stop stop-color="#7E98C1"/>
<stop offset="0.2006" stop-color="#819BC3" stop-opacity="0.7994"/>
<stop offset="0.3745" stop-color="#8CA3C8" stop-opacity="0.6255"/>
<stop offset="0.5385" stop-color="#9EB1D0" stop-opacity="0.4615"/>
<stop offset="0.6963" stop-color="#B7C5DC" stop-opacity="0.3037"/>
<stop offset="0.8484" stop-color="#D7DFEC" stop-opacity="0.1516"/>
<stop offset="0.9968" stop-color="#FEFEFF" stop-opacity="0.01"/>
<stop offset="1" stop-color="white" stop-opacity="0"/>
</radialGradient>
<radialGradient id="paint5_radial_245_11674" cx="0" cy="0" r="1" gradientUnits="userSpaceOnUse" gradientTransform="translate(175.27 281.874) scale(1.34297 1.23878)">
<stop stop-color="#7E98C1"/>
<stop offset="0.2006" stop-color="#819BC3" stop-opacity="0.7994"/>
<stop offset="0.3745" stop-color="#8CA3C8" stop-opacity="0.6255"/>
<stop offset="0.5385" stop-color="#9EB1D0" stop-opacity="0.4615"/>
<stop offset="0.6963" stop-color="#B7C5DC" stop-opacity="0.3037"/>
<stop offset="0.8484" stop-color="#D7DFEC" stop-opacity="0.1516"/>
<stop offset="0.9968" stop-color="#FEFEFF" stop-opacity="0.01"/>
<stop offset="1" stop-color="white" stop-opacity="0"/>
</radialGradient>
</defs>
</svg>
