<svg width="470" height="432" viewBox="0 0 470 432" fill="none" xmlns="http://www.w3.org/2000/svg">
<path d="M20.3565 277.591C13.2879 275.749 1.77903 276.585 0.181134 285.418C-1.39415 294.32 7.60545 298.634 15.5295 298.862C20.993 299.024 27.5 296.77 33.5774 295.058C37.7703 293.87 45.6301 290.004 45.6253 290.007C45.5289 290.096 29.1609 279.998 20.3565 277.591Z" fill="#9CD4CA"/>
<path d="M35.9885 262.4C28.6998 268.517 31.0366 276.997 36.0753 281.399C39.5222 284.458 45.583 286.141 51.0536 287.964C54.8158 289.221 63.2574 290.269 63.2609 290.267C63.1622 290.355 58.9848 274.479 54.6825 267.675C51.1084 262.421 43.151 256.39 35.9885 262.4Z" fill="#9CD4CA"/>
<path d="M78.2466 275.879C71.3803 279.944 72.7033 287.064 76.6939 291.143C79.428 293.977 84.5763 295.969 89.2069 297.975C92.3837 299.368 99.7176 301.019 99.72 301.016C99.6617 301.072 97.5843 288.038 94.3004 282.165C91.5829 277.613 84.9963 271.896 78.2466 275.879Z" fill="#9CD4CA"/>
<path d="M140.035 301.373C138.342 297.042 132.888 290.924 125.201 293.075C117.384 295.287 117.04 301.776 120.028 306.041C122.07 308.997 126.756 311.611 130.92 314.092C133.768 315.823 140.782 318.371 140.788 318.361C140.757 318.394 142.063 306.945 140.035 301.373Z" fill="#9CD4CA"/>
<path d="M51.7301 296.285C46.332 295.644 40.5258 294.597 36.2271 295.464C30.0199 296.699 23.8164 301.647 27.1644 308.529C30.5316 315.277 40.5722 314.299 46.012 312.005C52.9021 309.08 63.0224 298.917 63.0248 298.916C63.0165 298.925 55.428 296.739 51.7301 296.285Z" fill="#9CD4CA"/>
<path d="M87.7109 309.125C82.7518 308.256 77.4073 306.993 73.5345 307.493C67.9472 308.201 62.5491 312.197 65.9329 318.461C69.3286 324.606 78.44 324.288 83.2956 322.576C89.4444 320.384 98.1692 312.044 98.1692 312.044C98.162 312.052 91.1078 309.735 87.7109 309.125Z" fill="#9CD4CA"/>
<path d="M126.374 323.417C121.201 323.344 115.547 322.988 111.675 323.99C106.087 325.427 101.229 329.734 105.768 334.759C110.298 339.679 119.512 338.134 124.136 335.955C129.992 333.176 137.435 324.577 137.441 324.571C137.436 324.578 129.923 323.482 126.374 323.417Z" fill="#9CD4CA"/>
<path d="M157.788 330.221C159.162 330.698 160.547 331.194 161.944 331.689C161.959 331.043 162.232 330.39 162.861 329.81C163.024 329.658 163.192 329.507 163.36 329.356C162.239 328.916 161.129 328.483 160.057 328.053C154.247 325.735 148.384 323.472 142.416 321.279C142.92 319.713 141.842 317.639 141.339 316.102C140.143 312.492 138.275 308.499 133.816 305.916C132.99 305.436 131.928 306.07 132.315 306.72C134.06 309.645 134.9 312.848 136.31 315.749C136.893 316.948 137.226 318.258 137.544 319.481C126.345 315.318 115.331 310.929 104.237 306.702C103.761 304.175 99.2514 299.658 97.5547 297.316C95.3084 294.303 90.8229 289.812 87.2904 287.93C86.8204 287.686 86.2469 288.245 86.5908 288.593C90.1304 292.261 96.9813 300.929 99.3026 304.832C89.1262 301.027 78.8226 297.399 68.3751 294.504C68.3417 294.218 68.193 293.948 67.9063 293.716C62.2833 289.191 57.6015 282.963 50.6531 279.867C50.1439 279.639 49.5966 280.161 49.8845 280.596C52.0559 283.879 55.3766 286.72 58.595 289.232C60.0263 290.349 61.1732 291.732 62.4903 292.942C57.5468 291.69 52.5806 290.544 47.612 289.507C41.6618 288.266 35.3167 286.808 29.1559 287.16C27.5009 287.256 27.5913 289.336 29.1964 289.387C35.0775 289.584 41.1419 291.323 46.8339 292.614C52.3402 293.868 57.7954 295.401 63.2494 296.964C59.1732 299.393 52.5556 299.135 48.2342 301.036C47.6608 301.289 47.863 302.127 48.5138 302.171C54.0059 302.524 63.1055 302.135 66.3845 297.864C77.5507 301.112 88.4945 305.18 99.4584 309.202C97.6559 309.944 95.8355 310.656 93.8128 311.173C89.996 312.156 86.0566 312.891 82.2397 313.915C81.6389 314.077 81.5449 314.957 82.2457 314.983C90.7646 315.291 97.3085 313.643 102.954 310.493C114.269 314.687 125.408 319.172 136.994 323.071C135.093 323.616 133.24 324.222 131.25 324.714C127.682 325.6 124.05 326.373 120.489 327.314C119.587 327.553 119.873 328.522 120.877 328.558C128.903 328.857 134.914 326.977 141.326 324.539C146.841 326.411 152.325 328.332 157.788 330.221Z" fill="#4A788C"/>
<path d="M368.153 47.8854C372.254 42.6483 381.786 37.0942 389.594 43.0696C397.434 49.1109 393.678 57.3004 387.712 61.7495C383.604 64.8193 376.893 66.5816 370.915 68.5332C366.785 69.8742 357.826 71.1148 357.832 71.1158C357.971 71.132 363.13 54.4939 368.153 47.8854Z" fill="#9CD4CA"/>
<path d="M344.759 44.5509C354.949 45.3591 359.451 53.1809 358.823 59.3042C358.43 63.5296 354.99 68.0983 352.11 72.4583C350.135 75.4592 344.379 80.8199 344.375 80.8199C344.517 80.8351 335.942 66.2955 334.211 58.7107C333.071 52.716 334.745 43.7609 344.759 44.5509Z" fill="#9CD4CA"/>
<path d="M322.077 77.7602C330.414 77.2052 334.688 83.4298 334.633 88.7389C334.625 92.4062 332.12 96.7227 330.029 100.772C328.606 103.561 324.157 108.791 324.152 108.791C324.239 108.803 316.151 97.5937 314.325 91.2789C313.044 86.292 313.889 78.3162 322.077 77.7602Z" fill="#9CD4CA"/>
<path d="M293.214 130.796C291.303 126.531 290.975 118.856 298.524 116.377C306.221 113.876 311.312 118.714 312.173 123.625C312.789 127.015 311.107 131.563 309.73 135.728C308.812 138.603 305.279 144.355 305.266 144.351C305.316 144.36 295.79 136.201 293.214 130.796Z" fill="#9CD4CA"/>
<path d="M357.774 79.2679C361.475 75.8629 365.191 71.9222 369.164 70.2774C374.885 67.8872 383.37 68.3744 385.894 75.5064C388.31 82.5443 379.811 87.1981 373.893 88.3547C366.384 89.805 350.991 87.3915 350.988 87.3926C351 87.3936 355.25 81.6115 357.774 79.2679Z" fill="#9CD4CA"/>
<path d="M339.476 108.597C342.669 105.253 345.865 101.393 349.235 99.6949C354.087 97.2308 361.236 97.4131 363.277 104.085C365.221 110.672 357.93 115.336 352.898 116.628C346.508 118.245 333.551 116.491 333.551 116.491C333.565 116.496 337.302 110.9 339.476 108.597Z" fill="#9CD4CA"/>
<path d="M320.182 140.495C324.132 137.649 328.244 134.326 331.986 133.015C337.381 131.115 344.347 131.831 344.569 138.165C344.722 144.416 336.442 148.188 331.241 148.992C324.64 149.997 312.483 147.352 312.475 147.351C312.483 147.354 317.484 142.456 320.182 140.495Z" fill="#9CD4CA"/>
<path d="M300.925 162.694C300.218 163.804 299.512 164.936 298.8 166.071C298.308 165.58 297.613 165.219 296.692 165.11C296.452 165.08 296.21 165.053 295.969 165.027C296.51 164.082 297.047 163.149 297.557 162.238C300.329 157.313 303.185 152.4 306.172 147.486C304.616 146.546 303.908 144.36 303.154 142.899C301.394 139.46 299.871 135.364 301.401 130.96C301.682 130.144 302.977 130.062 303.161 130.774C303.984 133.979 305.718 136.911 306.783 139.916C307.224 141.159 307.942 142.352 308.604 143.47C314.175 134.212 319.435 124.879 324.878 115.627C323.367 113.414 323.498 107.488 323.07 104.761C322.567 101.218 322.7 95.3244 324.034 91.964C324.214 91.5224 325.076 91.6449 325.069 92.1007C325.057 96.8486 326.201 107.248 327.309 111.521C332.355 103.09 337.633 94.7299 343.565 86.8564C343.378 86.6174 343.293 86.3288 343.339 85.9946C344.326 79.4621 343.319 72.1173 346.392 65.9767C346.618 65.5271 347.43 65.6344 347.53 66.1266C348.291 69.8375 347.834 73.8269 347.21 77.5053C346.934 79.141 347.075 80.8303 346.955 82.4771C349.852 78.8432 352.841 75.2802 355.915 71.7993C359.599 67.6327 363.424 63.0832 368.455 60.0347C369.807 59.2164 371.284 60.8763 370.079 61.7818C365.674 65.1037 362.272 69.718 358.828 73.7854C355.499 77.7241 352.417 81.8502 349.358 85.9996C354.32 85.6826 359.25 81.916 364.009 81.0592C364.641 80.9468 365.108 81.7044 364.637 82.0892C360.648 85.3221 353.316 89.9252 347.602 88.3868C341.376 96.9195 335.929 105.965 330.435 114.989C332.381 114.591 334.321 114.16 336.271 113.472C339.955 112.175 343.551 110.621 347.268 109.356C347.853 109.157 348.581 109.788 348.059 110.185C341.694 115.014 335.402 117.266 328.688 117.871C323.051 127.215 317.767 136.691 311.697 145.954C313.574 145.352 315.459 144.823 317.367 144.13C320.787 142.893 324.172 141.534 327.628 140.344C328.505 140.043 329.005 140.948 328.253 141.516C322.263 146.072 316.213 147.857 309.436 149.426C306.566 153.844 303.75 158.288 300.925 162.694Z" fill="#4A788C"/>
<path d="M32.8739 96.5336C28.3134 91.4939 18.6523 86.192 12.2631 92.0966C5.79897 98.072 9.83118 106.061 15.6647 110.349C19.6898 113.307 26.1337 114.942 31.9494 116.765C35.9507 118.02 44.666 119.091 44.666 119.091C44.666 119.091 38.6206 102.885 32.8739 96.5336Z" fill="#9CD4CA"/>
<path d="M54.4804 92.9819C44.9989 93.8984 41.8734 101.56 42.9596 107.537C43.7092 111.661 47.3024 116.081 50.2769 120.316C52.3245 123.229 58.0617 128.409 58.0617 128.409C58.0617 128.409 66.0143 113.95 66.5854 106.566C67.0375 100.709 63.85 92.0764 54.4804 92.9819Z" fill="#9CD4CA"/>
<path d="M80.096 124.958C71.7912 124.579 67.8018 130.779 67.7197 136.049C67.6638 139.685 69.9982 143.928 71.8376 147.933C73.1 150.689 77.1524 155.847 77.1524 155.847C77.1524 155.847 86.4459 144.399 88.1913 138.125C89.5727 133.146 88.302 125.335 80.096 124.958Z" fill="#9CD4CA"/>
<path d="M103.104 162.852C95.2475 160.529 89.3985 165.546 87.6031 170.591C86.3645 174.071 87.2295 178.698 87.6923 182.981C88.0088 185.927 90.223 191.839 90.223 191.839C90.223 191.839 102.879 183.031 106.597 177.413C109.548 172.956 110.867 165.148 103.104 162.852Z" fill="#9CD4CA"/>
<path d="M44.8809 127.126C41.2615 123.829 37.566 120.013 33.6873 118.458C28.0667 116.202 20.1129 116.794 17.656 123.881C15.2288 130.884 23.0779 135.388 28.8389 136.429C36.0978 137.739 51.4473 135.043 51.4473 135.043C51.4473 135.043 47.3687 129.393 44.8809 127.126Z" fill="#9CD4CA"/>
<path d="M61.4285 156.012C58.5848 152.709 55.721 148.904 52.4764 147.274C47.7756 144.913 40.7475 145.222 37.8979 151.981C35.0817 158.66 41.5173 163.264 46.4608 164.46C52.6918 165.964 66.4042 163.868 66.4042 163.868C66.4042 163.868 63.388 158.28 61.4285 156.012Z" fill="#9CD4CA"/>
<path d="M75.1753 188.235C71.7535 185.371 68.2448 182.034 64.6195 180.777C59.3653 178.958 52.0088 179.849 49.8874 186.454C47.7898 192.985 55.1606 196.768 60.5182 197.469C67.2715 198.353 81.43 195.205 81.43 195.205C81.43 195.205 77.5287 190.203 75.1753 188.235Z" fill="#9CD4CA"/>
<path d="M95.8632 177.677C94.3236 180.998 91.7584 184.085 89.8024 187.25C88.9945 188.558 87.8809 189.824 86.8327 191.014C83.4751 181.481 79.8569 172.027 75.5285 162.775C77.4512 160.489 77.9961 154.512 78.6374 151.769C79.4738 148.199 79.6213 142.324 78.3173 139.022C78.1436 138.585 77.2703 138.728 77.2691 139.18C77.2632 143.876 75.3357 154.317 73.5605 158.679C69.4022 150.281 64.58 142.05 58.825 134.368C59.0141 134.126 59.1045 133.839 59.0605 133.508C58.2003 127.053 58.9177 119.818 55.4626 113.864C55.2104 113.428 54.4322 113.546 54.3715 114.029C53.9004 117.675 54.5215 121.584 55.2092 125.198C55.5149 126.805 55.396 128.474 55.5078 130.1C52.6547 126.563 49.6564 123.106 46.5427 119.737C42.8163 115.704 38.8424 111.308 33.8143 108.401C32.4675 107.621 31.186 109.267 32.3901 110.134C36.8185 113.322 40.3284 117.795 43.7705 121.741C47.1043 125.563 50.149 129.58 53.0878 133.634C48.1822 133.415 43.4052 129.775 38.765 129.013C38.1499 128.911 37.6811 129.671 38.1344 130.043C41.9668 133.175 49.0234 137.61 54.7689 135.967C60.7024 144.314 65.5009 153.247 69.8496 162.268C67.8912 161.913 65.9518 161.523 64.0422 160.872C60.4395 159.644 56.9736 158.155 53.3614 156.959C52.7915 156.77 51.9658 157.424 52.4417 157.815C58.2277 162.56 64.3182 164.708 71.2167 165.155C75.5796 174.521 79.0038 184.154 82.7101 193.716C80.8516 193.139 78.9717 192.635 77.1204 191.965C73.8009 190.764 70.5682 189.435 67.2189 188.286C66.373 187.996 65.5699 188.951 66.1981 189.528C71.2119 194.135 77.1466 195.855 84.0581 197.307C85.7345 201.887 87.1944 206.537 88.5162 211.194C89.9416 216.22 90.8732 221.69 93.0042 226.523C93.2647 227.112 94.3558 226.907 94.401 226.312C94.7948 221.221 93.536 215.601 92.4842 210.595C91.3908 205.385 89.9892 200.247 88.2664 195.165C90.2712 194.127 91.7073 191.81 92.9363 190.26C95.8299 186.611 98.4784 182.31 97.7193 177.821C97.5801 176.986 96.2059 176.938 95.8632 177.677Z" fill="#4A788C"/>
<path d="M328.448 306.614C328.448 306.614 326.858 227.675 357.375 201.718C387.892 175.762 425.917 163.005 425.917 163.005C425.917 163.005 420.558 212.676 407.223 230.003C393.886 247.33 372.832 262.733 362.892 271.455C343.152 288.77 328.448 306.614 328.448 306.614Z" fill="#B6F8CC"/>
<path d="M424.929 165.304C424.929 165.304 388.519 205.066 376.931 219.563C365.346 234.059 335.776 280.993 329.641 302.539" stroke="#7CCFAA" stroke-width="1.3191" stroke-miterlimit="10"/>
<path d="M446.285 217.026C452.903 213.419 464.675 211.099 468.528 218.873C472.429 226.741 465.103 233.424 457.541 235.9C452.323 237.61 445.266 237.276 438.749 237.32C434.266 237.35 425.197 235.773 425.197 235.773C425.197 235.773 437.948 221.572 446.285 217.026Z" fill="#9CD4CA"/>
<path d="M426.399 206.974C435.395 210.749 435.288 219.275 431.719 224.859C429.254 228.711 423.853 231.998 419.143 235.287C415.899 237.549 408.062 240.937 408.062 240.937C408.062 240.937 406.232 224.225 408.75 216.748C410.748 210.818 417.508 203.244 426.399 206.974Z" fill="#9CD4CA"/>
<path d="M387.703 230.856C396.077 232.993 397.435 240.333 395.315 245.572C393.852 249.184 389.77 252.677 386.278 256.083C383.879 258.427 377.716 262.306 377.716 262.306C377.716 262.306 373.303 248.168 374.198 241.433C374.907 236.087 379.428 228.744 387.703 230.856Z" fill="#9CD4CA"/>
<path d="M349.113 261.383C357.855 261.462 361.549 268.197 361.218 273.729C360.988 277.547 358.2 281.863 355.955 285.96C354.41 288.776 349.751 293.957 349.751 293.957C349.751 293.957 340.909 281.413 339.577 274.73C338.521 269.429 340.476 261.305 349.113 261.383Z" fill="#9CD4CA"/>
<path d="M421.635 243.656C426.592 241.489 431.843 238.831 436.331 238.466C442.832 237.938 450.453 240.929 449.924 248.683C449.403 256.346 439.756 258.426 433.621 257.714C425.893 256.815 411.834 249.5 411.834 249.5C411.834 249.5 418.224 245.146 421.635 243.656Z" fill="#9CD4CA"/>
<path d="M393.202 267.227C397.394 264.82 401.818 261.924 405.707 261.293C411.346 260.381 418.169 262.811 418.165 270.36C418.16 277.821 409.874 280.427 404.48 280.116C397.689 279.718 385 273.495 385 273.495C385 273.495 390.316 268.879 393.202 267.227Z" fill="#9CD4CA"/>
<path d="M366.143 294.946C370.725 293.145 375.589 290.906 379.701 290.762C385.658 290.55 392.563 293.659 391.905 300.837C391.25 307.93 382.379 309.445 376.787 308.517C369.738 307.346 357.045 299.947 357.045 299.947C357.045 299.947 362.992 296.178 366.143 294.946Z" fill="#9CD4CA"/>
<path d="M350.081 278.238C350.219 281.989 351.466 285.819 352.078 289.542C352.333 291.08 352.904 292.669 353.443 294.164C360.748 285.75 368.275 277.492 376.422 269.649C375.474 266.805 377.43 260.726 377.942 257.82C378.606 254.035 380.912 248.178 383.582 245.305C383.936 244.927 384.743 245.331 384.553 245.78C382.598 250.427 380.143 261.339 380.077 266.192C387.698 259.14 395.907 252.457 404.808 246.6C404.723 246.302 404.751 245.99 404.935 245.678C408.479 239.552 410.793 232.178 416.698 227.333C417.13 226.978 417.85 227.329 417.71 227.825C416.652 231.576 414.406 235.256 412.218 238.621C411.246 240.119 410.665 241.805 409.874 243.38C414.175 240.744 418.583 238.231 423.071 235.84C428.443 232.978 434.209 229.831 440.398 228.477C442.058 228.115 442.637 230.129 441.082 230.622C435.371 232.436 430.031 235.798 424.977 238.662C420.083 241.432 415.394 244.485 410.793 247.606C415.737 248.873 421.981 246.721 426.891 247.371C427.542 247.456 427.689 248.348 427.085 248.578C421.988 250.518 413.154 252.769 408.156 249.407C398.798 255.866 390.322 263.251 382.25 270.861C384.337 271.103 386.421 271.305 388.579 271.238C392.657 271.114 396.708 270.689 400.78 270.6C401.421 270.585 401.966 271.483 401.332 271.724C393.627 274.668 386.705 274.949 379.695 273.304C371.47 281.251 364.056 289.744 356.399 298.08C358.477 298.072 360.547 298.142 362.659 298.042C366.444 297.857 370.197 297.521 373.99 297.398C374.947 297.366 375.345 298.555 374.481 298.936C367.597 301.976 361.008 301.881 353.562 301.226C349.993 305.251 346.605 309.409 343.354 313.614C339.844 318.156 336.636 323.286 332.511 327.421C332.007 327.928 331.013 327.393 331.217 326.791C332.952 321.636 336.546 316.456 339.677 311.823C342.935 307 346.466 302.342 350.294 297.836C348.743 296.201 348.291 293.475 347.723 291.569C346.383 287.083 345.561 282.026 348.188 277.816C348.671 277.033 350.051 277.403 350.081 278.238Z" fill="#4A788C"/>
<path d="M330.234 319.133C330.234 319.133 372.514 281.522 397.158 275.597C421.804 269.671 442.67 278.668 453.091 287.079C465.727 297.275 470.001 317.395 470.001 317.395C470.001 317.395 448.13 308.077 440.761 305.56C433.392 303.043 416.887 310.966 398.307 318.684C379.73 326.398 330.234 319.133 330.234 319.133Z" fill="#B6F8CC"/>
<path d="M336.17 316.733C336.17 316.733 376.095 301.572 391.506 296.524C406.917 291.478 427.009 288.087 439.595 293.506C452.18 298.926 464.574 310.89 468.776 316.079" stroke="#7CCFAA" stroke-width="1.3171" stroke-miterlimit="10"/>
<path d="M117.259 227.465C76.7433 204.026 31.2539 196.856 31.2539 196.856C31.2539 196.856 49.867 251.722 69.0965 268.699C88.3271 285.673 115.642 299.026 128.906 306.957C155.247 322.711 176.129 340.006 176.129 340.006C176.129 340.006 157.774 250.902 117.259 227.465Z" fill="#B6F8CC"/>
<path d="M32.9277 199.261C32.9277 199.261 83.5082 237.118 100.075 251.239C116.64 265.358 161.449 312.574 173.758 335.653" stroke="#7CCFAA" stroke-width="1.5027" stroke-miterlimit="10"/>
<path d="M146.53 356.518L163.889 356.228C163.889 356.228 167.654 364.213 167.169 369.184C166.928 371.684 164.893 372.203 160.864 374.449C158.336 375.862 154.938 378.835 150.962 380.653C146.736 382.585 135.605 382.99 131.071 381.514C121.565 378.419 124.738 374.484 130.029 371.183C131.9 370.015 135.141 367.551 136.748 365.883C141.482 360.964 146.53 356.518 146.53 356.518Z" fill="#908492"/>
<path d="M152.31 362.728C152.31 362.728 147.582 360.951 142.598 361.48" stroke="#636372" stroke-width="0.8228" stroke-miterlimit="10"/>
<path d="M149.14 366.663C149.14 366.663 144.412 364.885 139.428 365.418" stroke="#636372" stroke-width="0.8228" stroke-miterlimit="10"/>
<path d="M166.546 367.596C166.546 367.596 161.175 369.96 157.579 372.775C153.983 375.593 151.041 379.083 146.171 380.243C141.299 381.404 130.348 381.456 125.23 378.248" stroke="#636372" stroke-width="0.8228" stroke-miterlimit="10"/>
<path d="M100.573 353.72L117.903 354.643C117.903 354.643 120.882 362.864 119.922 367.787C119.439 370.258 117.364 370.635 113.128 372.59C110.474 373.822 106.801 376.546 102.661 378.084C98.2627 379.709 87.1298 379.336 82.7526 377.552C73.5781 373.8 77.1201 370.096 82.7121 367.18C84.6907 366.146 88.159 363.918 89.9187 362.368C95.1121 357.795 100.573 353.72 100.573 353.72Z" fill="#908492"/>
<path d="M105.737 360.31C105.737 360.31 101.196 358.208 96.1777 358.389" stroke="#636372" stroke-width="0.8228" stroke-miterlimit="10"/>
<path d="M102.195 364.012C102.195 364.012 97.6533 361.91 92.6348 362.091" stroke="#636372" stroke-width="0.8228" stroke-miterlimit="10"/>
<path d="M119.612 365.305C119.612 365.305 114.085 367.387 110.296 370.013C106.506 372.641 103.323 375.972 98.3786 376.884C93.4339 377.791 82.4997 377.282 77.6191 373.819" stroke="#636372" stroke-width="0.8228" stroke-miterlimit="10"/>
<path d="M89.9866 205.593C89.9866 205.593 89.5988 181.38 89.9866 177.538C90.3745 173.697 92.597 146.151 92.597 146.151L73.9982 138.929C73.9982 138.929 72.3123 149.615 72.0398 154.484C71.7197 160.187 70.0826 170.872 71.715 179.484C73.3462 188.095 82.1554 216.147 86.3994 217.258C90.6398 218.37 89.9866 205.593 89.9866 205.593Z" fill="#FAC4A8"/>
<path d="M161.932 265.092C162.621 245.975 158.476 202.576 158.476 202.576C158.476 202.576 128.571 198.142 121.922 198.533C115.271 198.923 90.9623 204.759 90.9623 204.759C90.9623 204.759 87.1621 231.387 86.7207 253.089C86.4447 266.642 86.453 285.826 87.2906 291.889C88.8516 303.187 93.4657 332.52 95.4966 343.498C96.2986 347.839 95.3563 349.371 97.3266 352.667C99.2957 355.964 116.005 357.1 118.862 354.333C121.721 351.568 120.33 343.718 120.33 337.668C120.33 331.417 119.594 319.587 119.98 313.962C120.585 305.151 118.865 296.102 119.98 290.036C122.167 278.12 121.07 245.896 121.07 245.896C121.07 245.896 127.757 275.057 131.588 292.673C135.296 309.717 139.564 333.316 141.953 346.887C143.11 353.449 140.887 356.001 143.824 357.669C146.76 359.335 164.87 358.503 165.849 356.001C166.828 353.5 166.009 350.828 166.183 343.912C166.483 332.005 166.826 314.942 166.47 310.254C165.747 300.666 161.581 274.833 161.932 265.092Z" fill="#3B2F4F"/>
<path d="M159.735 167.365C159.938 160.219 167.022 125.828 162.323 117.67C158.804 111.565 136.528 106.43 121.493 107.148C116.448 107.388 108.686 108.33 105.819 108.975C92.7678 111.914 86.8546 120.403 86.2049 127.846C85.8789 131.623 90.8142 150.035 90.2324 166.805C89.9028 176.35 90.8035 190.925 90.9665 193.821C91.1307 196.715 87.6398 206.816 89.6625 212.288C91.1949 216.434 111.565 215.754 119.441 215.754C127.316 215.754 159.212 217.596 160.848 212.532C162.481 207.47 158.667 204.247 160.009 196.425C161.669 186.724 159.531 174.513 159.735 167.365Z" fill="#97B8B0"/>
<path d="M101.081 110.6C97.541 110.385 81.2254 117.401 78.095 124.476C74.9635 131.549 70.3566 144.265 71.0098 147.49C71.6654 150.717 83.7454 157.45 91.3731 156.606C99.0021 155.761 99.1223 135.32 100.755 128.932C102.386 122.543 104.62 110.813 101.081 110.6Z" fill="#97B8B0"/>
<path d="M158.509 229.757C158.509 229.757 146.763 227.675 143.826 218.091" stroke="#4C5B88" stroke-width="0.8228" stroke-miterlimit="10"/>
<path d="M113.445 218.533C113.445 218.533 114.535 237.085 121.073 245.896" stroke="#4C5B88" stroke-width="0.8228" stroke-miterlimit="10"/>
<path d="M109.088 233.375C109.088 233.375 117.806 242.65 119.44 242.65" stroke="#4C5B88" stroke-width="0.8228" stroke-miterlimit="10"/>
<path d="M111.671 64.6855C111.671 64.6855 122.168 58.4153 130.701 64.3229C139.235 70.2315 140.712 73.7388 140.313 78.3146C139.914 82.8894 140.866 90.1207 138.028 92.7681C135.189 95.4156 135.686 102.388 132.866 103.15C130.048 103.911 118.939 98.7902 114.003 90.1035C109.065 81.4158 108.074 67.4656 111.671 64.6855Z" fill="#894725"/>
<path d="M112.181 101.497L131.869 99.0283L136.749 110.89C136.749 110.89 129.961 123.521 122.364 123.02C114.766 122.52 111.424 111.822 111.424 111.822L112.181 101.497Z" fill="#FFC4A8"/>
<path d="M100.974 73.7237C104.01 66.2787 116.907 63.7234 124.018 66.0417C131.128 68.361 142.205 85.0781 136.325 97.0078C135.214 99.2643 129.367 107.692 120.442 108.848C112.465 109.881 101.997 100.696 99.5959 91.0333C98.4299 86.3553 97.9385 81.1688 100.974 73.7237Z" fill="#FAC4A8"/>
<path d="M134.692 83.515C131.041 86.1482 131.597 89.8884 131.764 92.7759C133.709 97.0327 143.106 94.8997 143.052 88.5637C143.219 84.9086 138.875 80.8432 134.692 83.515Z" fill="#FAC4A8"/>
<path d="M126.268 97.8457C126.268 97.8457 115.809 101.205 113.43 101.336C113.43 101.336 116.81 105.41 121.846 104.076C126.883 102.745 126.268 97.8457 126.268 97.8457Z" fill="white"/>
<path d="M122.407 92.1892C122.574 93.5129 123.967 94.471 125.523 94.3323C127.079 94.1885 128.205 93.0005 128.038 91.6767C127.872 90.352 126.476 89.3939 124.919 89.5377C123.366 89.6765 122.24 90.8675 122.407 92.1892Z" fill="#7C564F"/>
<path d="M111.276 94.1538C111.442 95.4775 110.366 96.6625 108.873 96.7982C107.377 96.9329 106.03 95.9697 105.863 94.647C105.696 93.3233 106.774 92.1383 108.27 92.0036C109.763 91.8699 111.11 92.8301 111.276 94.1538Z" fill="#7C564F"/>
<path d="M114.24 89.376C114.24 89.376 114.832 90.0272 115.378 91.0967C115.531 91.36 115.643 91.6598 115.786 91.9748C115.919 92.2979 116.043 92.621 116.132 93.0342C116.208 93.1446 116.182 93.6733 116.099 93.8718C116.024 94.1169 115.933 94.3225 115.836 94.5159C115.635 94.8977 115.428 95.24 115.224 95.5621C115.03 95.8832 114.839 96.1961 114.742 96.4402L114.666 96.661C114.659 96.6681 114.649 96.6397 114.623 96.6195L114.614 96.6124L114.608 96.6093L114.604 96.6083L114.603 96.6073C114.489 96.5 114.573 96.58 114.548 96.5567L114.6 96.6083L114.701 96.7116C114.738 96.7329 114.747 96.7471 114.786 96.7805L114.975 96.9081C115.119 96.9912 115.262 97.0752 115.418 97.1491C115.739 97.3011 116.043 97.4439 116.324 97.5765C117.493 98.091 118.312 98.5022 118.312 98.5022C118.312 98.5022 117.374 98.6329 115.99 98.4749C115.644 98.4334 115.265 98.3868 114.865 98.2835C114.665 98.2379 114.454 98.1751 114.237 98.1072L113.898 97.9766C113.767 97.9128 113.61 97.8216 113.478 97.7386L113.356 97.6525L113.295 97.61L113.212 97.53L113.185 97.4986L113.13 97.4347C112.99 97.2636 112.905 97.06 112.873 96.8858C112.803 96.5243 112.864 96.2518 112.929 96.0118C113.074 95.5368 113.279 95.1651 113.486 94.8106C113.681 94.4835 113.877 94.1574 114.069 93.8353C114.151 93.6884 114.226 93.5507 114.269 93.4433C114.3 93.2894 114.326 93.4494 114.309 93.2104C114.283 92.8782 114.257 92.5572 114.234 92.2523C114.218 91.9292 114.172 91.6264 114.171 91.3377C114.108 90.1913 114.24 89.376 114.24 89.376Z" fill="#DC8C7A"/>
<path d="M126.96 85.9218C125.692 85.9775 124.467 85.9097 123.206 86.1466C122.158 86.3431 120.668 86.6217 120.069 87.441C119.584 88.1044 120.505 88.6898 121.217 88.4183C122.14 88.0659 123.081 87.7661 124.066 87.5453C125.08 87.3174 126.144 87.359 127.145 87.0855C127.869 86.888 127.774 85.8864 126.96 85.9218Z" fill="#894725"/>
<path d="M103.487 91.0543C104.329 90.9682 105.106 90.7271 105.916 90.5226C107.117 90.2197 108.445 90.1377 109.689 90.1691C110.511 90.1904 110.889 89.1381 110.12 88.817C109.092 88.3876 107.713 88.6246 106.628 88.8211C105.43 89.0378 104.42 89.5148 103.302 89.8916C102.635 90.1154 102.645 91.1404 103.487 91.0543Z" fill="#894725"/>
<path d="M126.414 63.672C121.379 63.5575 112.251 61.0752 107.238 64.2624C102.226 67.4487 100.191 69.138 99.6569 70.6096C99.6165 70.6197 99.5725 70.6207 99.5332 70.6379C95.8806 72.2574 95.1988 78.244 95.3618 81.3381C95.4927 83.8204 95.3606 90.7337 99.2584 91.1601C99.8771 91.229 101.414 89.2561 101.734 88.8013C103.644 86.0911 104.535 84.8525 104.535 84.8525C104.535 84.8525 105.745 88.4043 107.69 87.2254C109.161 86.3352 110.353 85.0358 111.348 83.6462C111.632 85.0459 112.511 86.2947 114.1 86.402C115.871 86.5215 119.844 81.4302 119.844 81.4302C119.844 81.4302 121.003 84.0301 122.65 84.5466C124.35 85.0803 126.588 84.9841 128.044 84.024C129.605 84.7117 131.051 86.1883 131.753 89.6511C132.438 93.0297 135.212 87.347 136.541 85.7812C138.456 83.5267 136.444 63.8998 126.414 63.672Z" fill="#894725"/>
<path d="M131.347 103.513C131.347 103.513 127.471 108.032 123.15 108.792C117.641 109.763 112.635 107.229 112.635 107.229" stroke="#DC8C7A" stroke-width="0.8228" stroke-miterlimit="10"/>
<path d="M122.293 66.0137C122.293 66.0137 119.112 70.1793 119.846 73.9296" stroke="#732E11" stroke-width="0.8228" stroke-miterlimit="10"/>
<path d="M125.668 72.2754C125.668 72.2754 133.754 74.6362 134.827 80.1701" stroke="#732E11" stroke-width="0.8228" stroke-miterlimit="10"/>
<path d="M127.178 69.2715C127.178 69.2715 133.474 69.2776 135.604 74.2575" stroke="#732E11" stroke-width="0.7689" stroke-miterlimit="10"/>
<path d="M105.688 76.4456C105.688 76.4456 107.918 71.3178 116.139 68.7119" stroke="#732E11" stroke-width="0.8228" stroke-miterlimit="10"/>
<path d="M155.767 126.118C149.218 128.136 147.236 133.15 149.559 143.065C151.883 152.98 155.4 161.952 155.4 161.952L138.148 154.223L133.426 161.334C133.426 161.334 147.603 179.558 158.85 181.739C165.717 183.069 171.904 181.81 174.106 178.647C179.918 170.299 175.679 137.083 172.872 130.325C170.068 123.567 162.316 124.103 155.767 126.118Z" fill="#FAC4A8"/>
<path d="M143.254 120.475C145.434 113.518 156.875 108.417 166.681 119.084C175.789 128.99 178.776 146.107 177.983 147.683C177.191 149.258 166.986 152.16 160.688 152.938C154.561 153.698 149.606 154.023 147.068 152.474C144.532 150.927 141.075 127.43 143.254 120.475Z" fill="#97B8B0"/>
<path d="M146.86 120.521C146.86 120.521 145.772 125.159 146.135 129.797C146.497 134.434 147.587 140.308 149.404 144.637C150.53 147.322 151.947 153.912 151.947 153.912" stroke="#7F9A8B" stroke-width="0.8228" stroke-miterlimit="10"/>
<path d="M167.932 167.828C167.932 167.828 158.125 162.883 155.4 161.955" stroke="#DC8C7A" stroke-width="0.8228" stroke-miterlimit="10"/>
<path d="M153.488 196.271C153.488 196.271 147.224 199.75 134.147 200.214C121.072 200.678 118.348 200.91 118.348 200.91" stroke="#7F9A8B" stroke-width="0.8228" stroke-miterlimit="10"/>
<path d="M159.483 205.085C159.483 205.085 142.596 203.23 133.061 203.927" stroke="#7F9A8B" stroke-width="0.8228" stroke-miterlimit="10"/>
<path d="M80.2007 208.094C79.8735 212.538 80.5267 220.316 81.8319 223.649C83.1383 226.982 87.7047 229.759 87.7047 229.759C87.7047 229.759 94.2319 225.039 94.5579 218.649C94.8839 212.259 92.5995 205.871 89.3383 203.371C86.0735 200.872 80.5267 203.65 80.2007 208.094Z" fill="#FAC4A8"/>
<path d="M95.2093 215.038C95.2093 215.038 94.5573 224.759 88.0312 230.037" stroke="#3B5BA1" stroke-width="0.8228" stroke-miterlimit="10"/>
<path d="M120.13 132.095C120.13 132.095 127.717 157.698 124.948 159.561C122.178 161.424 106.098 162.739 104.781 161.784C103.461 160.83 98.3914 135.889 98.9673 134.178C99.5407 132.467 119.143 129.447 120.13 132.095Z" fill="#393131"/>
<path d="M112.942 149.168C122.004 151.468 126.492 151.095 126.492 151.095L123.926 148.65L123.11 144.347C123.11 144.347 131.173 145.751 133.862 148.261C137.001 151.203 140.994 152.634 142.125 154.728C143.255 156.831 145.515 161.863 141.011 163.5C138.885 164.271 134.14 165.184 130.307 165.088C126.816 164.999 115.362 163.339 109.709 161.167C107.059 160.148 107.857 158.215 107.857 158.215C107.857 158.215 106.402 157.571 105.947 156.972C105.495 156.372 105.989 155.378 105.989 155.378C105.989 155.378 105.131 154.64 105.069 153.24C105.008 151.839 106.055 151.459 106.055 151.459C106.055 151.459 105.358 149.746 105.989 149.258C107.044 148.44 110.09 148.447 112.942 149.168Z" fill="#FFC5AC"/>
<path d="M122.682 154.39C122.682 154.39 112.488 154.615 106.266 151.447" stroke="#DC8C7A" stroke-width="0.8228" stroke-miterlimit="10"/>
<path d="M123.139 157.571C123.139 157.571 112.969 158.232 106.568 155.337" stroke="#DC8C7A" stroke-width="0.8228" stroke-miterlimit="10"/>
<path d="M122.571 160.676C122.571 160.676 113.841 160.963 108.26 158.481" stroke="#DC8C7A" stroke-width="0.8228" stroke-miterlimit="10"/>
<path d="M109.709 161.166C107.059 160.147 107.857 158.214 107.857 158.214C107.857 158.214 106.402 157.57 105.947 156.971C105.495 156.371 105.989 155.377 105.989 155.377C105.989 155.377 105.131 154.639 105.069 153.239C105.008 151.838 106.055 151.458 106.055 151.458C106.055 151.458 105.358 149.745 105.989 149.257C107.042 148.441 110.089 148.448 112.939 149.168C114.085 149.458 115.157 149.707 116.159 149.918" stroke="#DC8C7A" stroke-width="0.8228" stroke-miterlimit="10"/>
<path d="M83.7871 220.037C83.7871 220.037 84.4391 223.372 89.0067 228.093" stroke="#DC8C7A" stroke-width="0.8228" stroke-miterlimit="10"/>
<path d="M86.3945 216.704C86.3945 216.704 87.0453 220.038 91.6142 224.759" stroke="#DC8C7A" stroke-width="0.8228" stroke-miterlimit="10"/>
<path d="M89.0078 212.258C89.0078 212.258 89.661 215.592 94.2298 220.314" stroke="#DC8C7A" stroke-width="0.8228" stroke-miterlimit="10"/>
<path d="M92.921 126.985C92.921 126.985 90.9626 138.374 90.3105 154.207" stroke="#7F9A8B" stroke-width="0.8228" stroke-miterlimit="10"/>
<path d="M157.205 234.76C157.205 234.76 157.387 235.569 157.62 236.811" stroke="#4C5B88" stroke-width="0.8228" stroke-miterlimit="10"/>
<path d="M158.037 239.281C158.381 241.575 158.668 244.315 158.513 246.428C158.187 250.871 158.187 257.257 158.513 261.425C158.839 265.592 159.165 276.146 160.145 280.312C161.125 284.478 163.735 301.143 163.735 305.034C163.735 308.923 165.04 329.198 164.713 333.922C164.483 337.263 164.088 346.03 163.878 350.87" stroke="#4C5B88" stroke-width="0.8228" stroke-miterlimit="10" stroke-dasharray="4.11 2.46"/>
<path d="M163.817 352.118C163.762 353.403 163.729 354.198 163.729 354.198" stroke="#4C5B88" stroke-width="0.8228" stroke-miterlimit="10"/>
<path d="M308.703 348.868C321.638 348.861 332.153 339.9 332.143 328.885L331.956 110.271C331.944 99.2594 321.418 90.3083 308.481 90.3164L190.042 90.3833C177.107 90.3924 166.591 99.3556 166.6 110.369L166.789 328.983C166.797 339.995 177.329 348.943 190.265 348.934L308.703 348.868Z" fill="#CACACA"/>
<path d="M308.701 347.627C320.828 347.615 330.687 339.213 330.678 328.885L330.491 110.272C330.483 99.9465 320.606 91.5545 308.481 91.5596L190.043 91.6254C177.914 91.6335 168.053 100.041 168.061 110.364L168.25 328.98C168.258 339.307 178.136 347.698 190.263 347.688L308.701 347.627Z" fill="#292929"/>
<path d="M178.094 327.156C178.098 332.625 183.358 337.096 189.783 337.092L309.136 337.025C315.561 337.02 320.814 332.543 320.809 327.074L320.634 112.093C320.63 106.624 315.37 102.152 308.945 102.155L189.593 102.223C183.168 102.227 177.915 106.705 177.92 112.174L178.094 327.156Z" fill="#E6E6E6"/>
<path d="M166.763 328.451L166.762 329.282L168.225 329.284L168.227 328.453L166.763 328.451Z" fill="#888A9A"/>
<path d="M332.135 328.323H330.672L330.673 329.152H332.138L332.135 328.323Z" fill="#888A9A"/>
<path d="M168.063 114.186H166.596V115.017H168.063V114.186Z" fill="#888A9A"/>
<path d="M178.094 327.156C178.098 332.625 183.358 337.096 189.783 337.092L309.136 337.025C315.561 337.02 320.814 332.543 320.809 327.074L320.634 112.093C320.63 106.624 315.37 102.152 308.945 102.155L189.593 102.223C183.168 102.227 177.915 106.705 177.92 112.174L178.094 327.156Z" fill="#E6E6E6"/>
<path d="M307.255 124.111H205.66C204.299 124.111 203.197 125.05 203.197 126.208V180.194C203.197 181.35 204.299 182.29 205.66 182.29H294.525L307.296 192.151L304.399 182.29H307.254C308.614 182.29 309.716 181.35 309.716 180.194V126.208C309.717 125.051 308.614 124.111 307.255 124.111Z" fill="#F9C0C7"/>
<path d="M298.6 136.072H214.309V138.547H298.6V136.072Z" fill="#E5A9A9"/>
<path d="M298.6 146.792H214.309V149.265H298.6V146.792Z" fill="#E5A9A9"/>
<path d="M298.6 157.517H214.309V159.991H298.6V157.517Z" fill="#E5A9A9"/>
<path d="M298.6 168.235H214.309V170.71H298.6V168.235Z" fill="#E5A9A9"/>
<path d="M193.076 196.276H294.671C296.031 196.276 297.133 197.215 297.133 198.373V252.359C297.133 253.515 296.03 254.454 294.671 254.454H205.807L193.035 264.316L195.932 254.454H193.077C191.716 254.454 190.613 253.514 190.613 252.359V198.373C190.612 197.215 191.715 196.276 193.076 196.276Z" fill="#ABCFC7"/>
<path d="M286.016 208.234H201.727V210.709H286.016V208.234Z" fill="#8DBBBA"/>
<path d="M286.016 218.954H201.727V221.428H286.016V218.954Z" fill="#8DBBBA"/>
<path d="M286.016 229.679H201.727V232.153H286.016V229.679Z" fill="#8DBBBA"/>
<path d="M286.016 240.397H201.727V242.873H286.016V240.397Z" fill="#8DBBBA"/>
<path d="M307.255 268.441H205.66C204.299 268.441 203.197 269.38 203.197 270.538V302.702C203.197 303.859 204.299 304.8 205.66 304.8H294.525L307.296 314.657L304.399 304.8H307.254C308.614 304.8 309.716 303.858 309.716 302.702V270.538C309.717 269.38 308.614 268.441 307.255 268.441Z" fill="#F9C0C7"/>
<path d="M298.6 280.021H214.309V282.496H298.6V280.021Z" fill="#E5A9A9"/>
<path d="M298.6 290.741H214.309V293.215H298.6V290.741Z" fill="#E5A9A9"/>
<g opacity="0.2">
<mask id="mask0_608_11883" style="mask-type:luminance" maskUnits="userSpaceOnUse" x="168" y="91" width="163" height="257">
<path d="M308.715 347.623C320.841 347.612 330.701 339.209 330.692 328.881L330.505 110.268C330.496 99.9426 320.62 91.5506 308.495 91.5557L190.057 91.6215C177.928 91.6296 168.067 100.037 168.074 110.36L168.263 328.976C168.272 339.304 178.149 347.695 190.277 347.684L308.715 347.623Z" fill="white"/>
</mask>
<g mask="url(#mask0_608_11883)">
<path d="M403.555 153.564L132.066 324.296L167.375 364.979L438.864 194.247L403.555 153.564Z" fill="white"/>
<path d="M334.86 74.405L63.3711 245.137L91.3878 277.418L362.877 106.686L334.86 74.405Z" fill="white"/>
<path d="M381.728 128.369L110.205 299.101L122.486 313.253L394.009 142.521L381.728 128.369Z" fill="white"/>
</g>
</g>
<path d="M212.023 102.15L213.383 107.362C213.383 107.362 214.411 114.797 221.091 114.797H277.654C284.331 114.797 285.359 107.362 285.359 107.362L286.72 102.15H212.023Z" fill="#212121"/>
<path d="M314.708 180.872C306.936 181.073 290.687 184.481 286.92 200.719C283.151 216.957 287.627 218.158 281.267 223.771C274.908 229.386 267.843 236.802 269.493 245.422C271.141 254.043 300.813 253.842 300.813 253.842C300.813 253.842 339.436 255.244 342.262 251.035C345.089 246.825 338.965 237.806 339.202 229.986C339.436 222.169 342.734 203.525 340.143 197.31C337.553 191.096 322.48 180.671 314.708 180.872Z" fill="#BD592A"/>
<path d="M359.677 378.01L359.648 401.804C359.648 401.804 359.928 409.538 369.036 411.941C378.14 414.349 375.314 402.587 375.314 402.587L377.777 379.726L359.677 378.01Z" fill="#FFC5AC"/>
<path d="M375.311 403.121C375.311 403.121 382.532 411.676 389.771 416.125C393.9 418.665 397.704 421.28 398.861 424.24C400.306 427.935 394.264 432.245 388.813 431.989C379.01 431.525 359.572 419.593 358.488 415.521C357.403 411.451 359.175 401.264 359.175 401.264C359.175 401.264 363.377 404.458 368.717 404.193C374.056 403.922 375.311 403.121 375.311 403.121Z" fill="#41383D"/>
<path d="M339.903 366.719L327.594 388.083C327.594 388.083 323.855 395.133 330.792 400.701C337.73 406.266 341.263 394.645 341.263 394.645L355.278 375.033L339.903 366.719Z" fill="#FFC5AC"/>
<path d="M340.985 395.122C340.985 395.122 343.056 405.51 347.26 412.213C349.657 416.039 351.725 419.813 351.236 422.904C350.624 426.763 342.975 428.372 338.209 426.106C329.644 422.022 318.343 404.031 319.471 399.967C320.598 395.906 327.448 387.418 327.448 387.418C327.448 387.418 329.576 391.862 334.51 393.617C339.444 395.374 340.985 395.122 340.985 395.122Z" fill="#41383D"/>
<path d="M313.377 306.777C313.377 306.777 340.205 309.949 358.047 315.717C364.347 317.751 372.803 321.063 375.317 323.467C377.829 325.874 380.342 335.764 380.969 345.653C382.241 365.672 382.582 387.786 381.334 388.851C379.487 390.423 355.535 388.683 354.279 386.547C353.024 384.411 357.405 349.179 354.909 345.119C352.408 341.054 321.248 345.885 308.383 344.285C295.037 342.623 280.743 335.191 277.371 328.168C274.223 321.61 281.065 304.536 281.065 304.536L313.377 306.777Z" fill="#48304F"/>
<path d="M320.557 181.48C320.557 181.48 343.424 186.083 341.519 201.049C339.925 213.589 330.104 217.89 330.104 217.89C330.104 217.89 327.096 201.635 323.062 196.757C319.03 191.876 320.557 181.48 320.557 181.48Z" fill="#BD592A"/>
<path d="M391.475 319.197C383.311 303.692 340.481 304.318 340.481 304.318L317.691 305.999C327.188 310.556 360.232 327.216 360.232 327.216C360.232 327.216 331.871 375.83 332.758 377.734C333.654 379.641 352.448 388.453 353.796 386.554C355.135 384.65 399.64 334.7 391.475 319.197Z" fill="#48304F"/>
<path d="M319.514 230.165C319.514 230.165 342.346 232.903 343.668 248.896C344.193 255.232 342.147 269.109 342.032 279.903C341.856 296.365 348.594 305.076 348.591 305.076C348.591 305.076 335.267 313.438 314.075 310.611C297.092 308.349 278.363 310.728 278.363 310.728C278.363 310.728 262.072 246.08 276.175 236.004C287.405 227.978 319.514 230.165 319.514 230.165Z" fill="#A1366D"/>
<path d="M314.395 246.491C322.213 245.54 328.525 237.938 330.525 233.285C324.856 230.811 319.51 230.165 319.51 230.165C319.51 230.165 305.531 229.214 292.793 230.873C295.964 236.062 305.602 247.56 314.395 246.491Z" fill="#FFC5AC"/>
<path d="M304.769 189.065C311.344 183.687 318.858 182.94 326.788 186.518C332.173 188.947 336.288 196.886 336.502 202.649C336.677 207.323 335.847 224.566 320.268 226.509C310.943 227.671 309.148 225.618 304.096 222.156C291.731 213.702 294.18 197.733 304.769 189.065Z" fill="#FFC5AC"/>
<path d="M320.163 217.607L319.626 233.783C319.626 233.783 318.326 243.024 312.514 243.017C306.697 243.013 300.672 230.952 300.672 230.952L307.106 212.718L320.163 217.607Z" fill="#FFC5AC"/>
<path d="M298.814 209.03C297.129 210.136 300.029 218.298 299.117 218.652C297.346 219.339 292.375 212.733 290.353 209.73C287.288 205.184 288.504 195.568 291.842 190.551C295.178 185.535 301.971 182.844 307.86 180.454C316.438 176.971 338.361 186.979 334.631 193.026C330.9 199.071 324.604 199.916 319.893 199.916C315.184 199.916 308.838 201.188 306.359 202.356C303.88 203.523 303.772 205.771 298.814 209.03Z" fill="#BD592A"/>
<path d="M294.125 202.815C294.991 201.603 296.692 200.717 298.235 201.09C299.561 201.409 303.17 204.999 303.204 208.805C303.233 211.745 300.149 212.877 298.287 213.195C296.696 213.463 295.379 212.637 294.518 211.552C292.63 209.181 292.243 205.439 294.125 202.815Z" fill="#FFC5AC"/>
<path d="M304.124 291.496C304.125 291.485 304.131 291.475 304.135 291.468C300.265 289.618 290.005 287.66 286.693 286.212C283.38 284.76 286.843 273.65 287.743 268.724C288.776 263.044 290.394 235.436 290.394 235.436C288.427 229.602 274.874 231.824 269.882 244.555C266.055 254.313 260.809 280.371 264.118 290.373C267.421 300.371 301.728 304.352 301.728 304.352L304.116 291.655C304.124 291.6 304.111 291.554 304.124 291.496Z" fill="#A1366D"/>
<path d="M316.239 209.313C316.237 210.641 314.972 211.717 313.412 211.716C311.85 211.714 310.587 210.636 310.588 209.308C310.59 207.98 311.856 206.903 313.417 206.905C314.977 206.907 316.242 207.984 316.239 209.313Z" fill="#7C564F"/>
<path d="M332.296 210.945C332.294 212.272 331.029 213.349 329.467 213.347C327.907 213.345 326.643 212.268 326.645 210.939C326.647 209.611 327.913 208.536 329.473 208.536C331.034 208.538 332.298 209.617 332.296 210.945Z" fill="#7C564F"/>
<path d="M323.565 206.23C323.627 207.077 323.57 207.876 323.527 208.654C323.504 209.04 323.491 209.424 323.49 209.777C323.485 209.953 323.5 210.124 323.519 210.261C323.517 210.395 323.633 210.511 323.517 210.359L323.711 210.684C323.785 210.899 323.927 211.216 324.041 211.52C324.162 211.83 324.276 212.153 324.361 212.498C324.444 212.844 324.512 213.206 324.48 213.626C324.457 213.838 324.418 214.066 324.286 214.318C324.217 214.443 324.125 214.571 323.999 214.682C323.917 214.749 323.909 214.758 323.743 214.856L323.616 214.912C323.553 214.944 323.357 215.005 323.232 215.04C323.087 215.08 323.002 215.081 322.886 215.104C322.669 215.131 322.463 215.148 322.261 215.152C321.855 215.171 321.465 215.137 321.078 215.11C320.307 215.048 319.552 214.921 318.811 214.751C319.572 214.673 320.323 214.585 321.058 214.49C321.425 214.441 321.786 214.375 322.128 214.305C322.301 214.273 322.464 214.228 322.614 214.182C322.677 214.157 322.781 214.13 322.808 214.109C322.853 214.076 322.848 214.103 322.937 214.039L323.047 213.964C322.958 214.017 323.016 213.964 322.995 213.973C322.988 213.961 322.983 213.945 322.981 213.92C322.976 213.868 322.962 213.772 322.931 213.662C322.874 213.442 322.771 213.174 322.657 212.902L322.28 212.051C322.148 211.749 322.016 211.467 321.899 211.062L322.093 211.387C321.874 211.155 321.815 210.953 321.767 210.789C321.729 210.627 321.715 210.486 321.71 210.356C321.704 210.095 321.74 209.868 321.779 209.649C321.864 209.21 322.011 208.809 322.178 208.418C322.335 208.026 322.547 207.652 322.769 207.286C322.999 206.919 323.25 206.564 323.565 206.23Z" fill="#DC8C7A"/>
<path d="M318.573 226.693C311.672 227.316 309.378 225.851 305.732 223.296" stroke="#DC8C7A" stroke-width="0.7917" stroke-miterlimit="10"/>
<path d="M310.996 203.739C311.031 203.729 311.067 203.719 311.102 203.709C310.279 203.663 310.268 204.794 311.102 204.805C311.787 204.813 312.42 204.676 313.122 204.728C313.911 204.785 314.64 204.874 315.413 205.001C316.029 205.102 316.708 204.406 316.099 203.997C315.4 203.527 314.549 203.47 313.68 203.47C312.676 203.47 311.885 203.465 310.932 203.729C311.203 203.905 311.474 204.081 311.747 204.257C311.735 204.287 311.723 204.317 311.712 204.348C311.943 203.933 311.48 203.548 310.996 203.739Z" fill="#B3402A"/>
<path d="M328.089 205.154C328.133 205.159 328.177 205.164 328.221 205.169C327.401 205.027 327.07 206.117 327.879 206.225C328.648 206.328 329.38 206.287 330.158 206.447C330.508 206.519 330.865 206.565 331.217 206.632C331.608 206.706 331.931 206.914 332.327 206.962C332.873 207.03 333.399 206.602 333.078 206.132C332.636 205.489 331.63 205.343 330.829 205.245C329.763 205.115 328.94 205.013 327.879 205.169C328.151 205.345 328.422 205.521 328.694 205.696C328.69 205.734 328.685 205.77 328.679 205.807C328.931 205.482 328.517 205.043 328.089 205.154Z" fill="#B3402A"/>
<path d="M337.318 270.078C337.318 270.078 338.895 297.538 346.744 297.278C354.597 297.017 358.681 294.348 358.061 286.062C357.445 277.774 342.734 263.062 342.734 263.062L337.318 270.078Z" fill="#FFC5AC"/>
<path d="M300.109 268.875C300.109 268.875 265.907 279.564 265.581 288.384C265.256 297.203 274.045 300.686 281.268 299.356C288.492 298.028 304.584 275.092 304.584 275.092L300.109 268.875Z" fill="#FFC5AC"/>
<path d="M279.934 241.354C279.934 241.354 286.034 246.951 287.141 253.119C288.391 260.071 287.629 272.883 287.629 272.883" stroke="#782A59" stroke-width="0.7917" stroke-miterlimit="10"/>
<path d="M268.254 279.365C268.254 279.365 277.03 272.484 286.921 272.885" stroke="#782A59" stroke-width="0.756" stroke-miterlimit="10"/>
<path d="M267.988 273.216C267.988 273.216 276.407 271.05 280.072 273.491" stroke="#782A59" stroke-width="0.756" stroke-miterlimit="10"/>
<path d="M334.883 239.8C334.883 239.8 337.7 246.218 336.437 252.631" stroke="#782A59" stroke-width="0.7917" stroke-miterlimit="10"/>
<path d="M299.472 312.202C299.472 312.202 297.106 321.024 282.504 321.408" stroke="#726281" stroke-width="0.7917" stroke-miterlimit="10"/>
<path d="M284.846 327.028C284.846 327.028 285.456 327.549 286.601 328.358" stroke="#726281" stroke-width="0.7917" stroke-miterlimit="10"/>
<path d="M288.828 329.832C294.092 333.103 304.197 338.007 316.863 337.48C335.704 336.697 362.082 334.715 363.959 341.131C365.498 346.399 362.568 372.477 361.47 381.639" stroke="#726281" stroke-width="0.7917" stroke-miterlimit="10" stroke-dasharray="3.95 2.37"/>
<path d="M361.325 382.838C361.171 384.104 361.078 384.829 361.078 384.829" stroke="#726281" stroke-width="0.7917" stroke-miterlimit="10"/>
<path d="M319.657 185.882C319.657 185.882 306.655 185.851 301.289 199.914" stroke="#A94A06" stroke-width="0.7917" stroke-miterlimit="10"/>
<path d="M331.5 190.446C331.5 190.446 325.244 196.926 319.705 197.726" stroke="#A94A06" stroke-width="0.7917" stroke-miterlimit="10"/>
<path d="M324.902 187.938C324.902 187.938 309.764 192.899 308.586 198.313" stroke="#A94A06" stroke-width="0.7917" stroke-miterlimit="10"/>
<path d="M312.671 215.886L324.761 218.157C324.761 218.157 319.58 224.573 315.655 222.701C311.73 220.83 312.671 215.886 312.671 215.886Z" fill="white"/>
<path d="M297.277 192.897C297.277 192.897 290.449 197.307 290.213 207.331C290.047 214.357 292.802 218.758 289.742 222.166C286.681 225.572 282.677 228.18 282.441 230.987" stroke="#A94A06" stroke-width="0.7917" stroke-miterlimit="10"/>
<path d="M296.334 219.759C296.334 219.759 297.276 221.964 295.158 223.968C293.036 225.973 292.566 228.58 292.566 228.58" stroke="#A94A06" stroke-width="0.7917" stroke-miterlimit="10"/>
<path d="M336.134 215.951C336.134 215.951 333.78 218.557 333.074 224.17C332.365 229.783 334.486 230.786 334.722 232.79" stroke="#A94A06" stroke-width="0.7917" stroke-miterlimit="10"/>
<path d="M291.555 231.858C290.37 232.68 288.163 235.453 290.668 236.111C291.743 236.394 293.375 236.304 293.333 237.706C293.322 238.085 292.996 238.855 293.271 239.207C293.745 239.813 294.94 241.07 295.998 240.737C295.654 240.845 297.569 243.102 297.798 243.247C297.78 243.235 300.736 244.563 300.525 243.655C300.818 244.921 301.245 245.952 302.515 246.697C303.495 247.27 305.075 246.115 305.516 246.979C306.139 248.196 306.736 248.79 308.308 249.152C308.711 249.245 309.245 249.157 309.633 249.009C311.048 248.473 311.367 249.596 312.586 249.759C314.073 249.958 315.116 249.593 316.264 248.755C316.811 248.355 315.648 248.262 316.417 248.734C317.042 249.119 317.797 249.173 318.535 249.219C319.582 249.283 320.877 248.606 321.393 247.857C321.67 247.46 321.878 247.08 322.043 246.643C322.204 246.294 322.058 246.311 321.607 246.694C322.075 246.851 322.557 246.921 323.049 246.988C325.771 247.369 326.766 245.227 326.54 243.286C326.319 243.429 326.097 243.572 325.876 243.715C329.323 244.871 330.039 241.072 329.352 239.157C329.181 239.347 329.012 239.535 328.842 239.725C331.578 239.587 334.039 236.904 331.672 234.997C331.316 234.71 330.65 235.101 330.966 235.46C332.127 236.77 330.6 238.736 328.842 238.826C328.512 238.844 328.227 239.101 328.333 239.395C328.694 240.391 329.158 243.858 326.155 242.855C325.855 242.754 325.46 243.012 325.491 243.285C325.71 245.122 323.952 246.532 321.757 245.796C321.51 245.714 321.163 245.886 321.117 246.106C320.789 247.671 318.667 249.308 316.647 247.785C316.448 247.636 316.108 247.594 315.915 247.785C315.024 248.667 313.883 249.294 312.343 248.718C311.794 248.513 311.384 248.065 310.793 247.927C310.421 247.84 309.927 247.997 309.589 248.074C307.714 248.502 306.523 247.477 306.43 246.224C306.415 246.01 306.28 245.882 306.055 245.803C305.351 245.558 305.405 245.593 304.646 245.739C302.354 246.177 301.728 244.38 301.385 242.902C301.332 242.674 301.011 242.534 300.761 242.599C300.08 242.776 299.695 243.194 298.952 242.916C297.202 242.263 297.736 241.714 297.193 240.671C296.762 239.841 294.14 239.002 294.18 238.37C294.229 237.611 294.552 236.519 293.603 236.045C293.021 235.756 292.226 235.691 291.583 235.571C289.026 235.098 291.234 232.845 292.027 232.257C292.35 232.015 291.881 231.634 291.555 231.858Z" fill="#E5A7B5"/>
<path d="M319.932 246.867C319.932 246.867 312.629 271.504 315.294 273.297C317.959 275.09 333.433 276.355 334.702 275.435C335.97 274.519 340.85 250.517 340.296 248.871C339.744 247.223 320.881 244.318 319.932 246.867Z" fill="#393131"/>
<path d="M337.944 255.045C337.944 255.045 344.616 263.263 344.382 266.872C344.145 270.481 338.259 275.292 330.724 273.286C323.187 271.283 326.012 265.602 327.897 260.792C329.779 255.98 334.805 252.239 337.944 255.045Z" fill="#FFC5AC"/>
<path d="M337.942 255.177C337.002 253.44 332.91 252.261 329.307 251.969C326.239 251.717 322.434 252.124 321.928 252.369C320.83 252.905 321.301 254.374 322.872 254.776C324.44 255.177 326.157 254.907 327.737 255.443C330.093 256.246 332.105 257.053 333.077 257.182" fill="#FFC5AC"/>
<path d="M333.242 256.778C333.242 256.778 331.111 255.861 328.847 255.574C325.515 255.16 319.773 254.974 320.053 256.646C320.524 259.451 330.101 259.584 330.101 259.584" fill="#FFC5AC"/>
<path d="M331.511 259.586C331.511 259.586 320.521 257.982 320.835 261.325C321.148 264.666 333.237 262.393 333.237 262.393" fill="#FFC5AC"/>
<path d="M326.845 263.295C318.125 265.507 313.807 265.151 313.807 265.151L316.276 262.797L317.061 258.653C317.061 258.653 309.3 260.006 306.715 262.423C303.694 265.254 299.851 266.628 298.762 268.646C297.677 270.669 295.501 275.509 299.833 277.086C301.88 277.828 306.447 278.708 310.134 278.614C313.493 278.528 324.513 276.93 329.956 274.841C332.505 273.861 331.737 271.999 331.737 271.999C331.737 271.999 333.138 271.379 333.573 270.804C334.01 270.224 333.534 269.269 333.534 269.269C333.534 269.269 334.359 268.56 334.418 267.21C334.478 265.865 333.47 265.498 333.47 265.498C333.47 265.498 334.141 263.852 333.533 263.38C332.522 262.595 329.59 262.6 326.845 263.295Z" fill="#FFC5AC"/>
<path d="M317.471 268.323C317.471 268.323 327.281 268.539 333.268 265.492" stroke="#DC8C7A" stroke-width="0.7917" stroke-miterlimit="10"/>
<path d="M317.037 271.381C317.037 271.381 326.824 272.017 332.984 269.229" stroke="#DC8C7A" stroke-width="0.7917" stroke-miterlimit="10"/>
<path d="M317.582 274.37C317.582 274.37 325.982 274.646 331.354 272.259" stroke="#DC8C7A" stroke-width="0.7917" stroke-miterlimit="10"/>
<path d="M329.96 274.838C332.508 273.859 331.741 271.997 331.741 271.997C331.741 271.997 333.141 271.377 333.577 270.801C334.013 270.222 333.537 269.267 333.537 269.267C333.537 269.267 334.362 268.558 334.421 267.208C334.481 265.863 333.473 265.495 333.473 265.495C333.473 265.495 334.144 263.85 333.536 263.378C332.524 262.594 329.593 262.598 326.847 263.293C325.745 263.572 324.713 263.812 323.75 264.014" stroke="#DC8C7A" stroke-width="0.7917" stroke-miterlimit="10"/>
<path d="M321.402 253.624C321.581 254.105 322.09 254.575 322.876 254.777C324.445 255.178 326.162 254.908 327.742 255.444C330.097 256.247 332.109 257.054 333.081 257.183" stroke="#DC8C7A" stroke-width="0.7917" stroke-miterlimit="10"/>
<path d="M328.843 255.577C325.511 255.163 319.769 254.976 320.049 256.649C320.52 259.454 330.097 259.587 330.097 259.587" stroke="#DC8C7A" stroke-width="0.7917" stroke-miterlimit="10"/>
<path d="M329.312 259.321C329.312 259.321 320.519 259.053 320.834 261.327C321.295 264.655 333.237 262.395 333.237 262.395" stroke="#DC8C7A" stroke-width="0.7917" stroke-miterlimit="10"/>
<path d="M342.07 311.572C347.578 312.751 353.149 314.141 358.043 315.722C364.343 317.755 372.799 321.067 375.313 323.472C377.825 325.878 380.338 335.768 380.965 345.658C381.179 349.02 381.366 352.442 381.525 355.816" stroke="#726281" stroke-width="0.7917" stroke-miterlimit="10"/>
<path d="M359.368 388.137C356.606 387.676 354.618 387.128 354.279 386.551C353.024 384.415 357.405 349.183 354.909 345.122C354.397 344.291 352.687 343.832 350.182 343.613" stroke="#726281" stroke-width="0.7917" stroke-miterlimit="10"/>
<path d="M363.949 406.886C365.139 413.301 373.071 418.026 377.433 420.728C381.515 423.255 386.136 424.958 388.935 425.116C394.884 425.453 396.471 422.078 396.471 422.078" stroke="#66545E" stroke-width="0.8" stroke-miterlimit="10"/>
<path d="M327.059 396.417C327.059 396.417 327.059 403.169 330.755 408.57C334.452 413.972 339.657 420.332 342.256 421.4C346.364 423.087 350.062 420.724 350.062 420.724" stroke="#66545E" stroke-width="0.8142" stroke-miterlimit="10"/>
<path d="M135.297 22.4849C130.755 23.2283 130.083 29.2889 130.083 29.2889C130.083 29.2889 127.965 23.4744 123.341 23.5403C119.883 23.5879 115.733 25.5831 117.79 30.887C119.847 36.192 131.651 42.1787 131.651 42.1787C131.651 42.1787 141.765 34.2586 142.498 28.7075C143.234 23.1574 138.694 21.9289 135.297 22.4849Z" fill="#FF6081"/>
<path d="M185.798 1.27822C179.479 1.30354 176.783 9.29952 176.783 9.29952C176.783 9.29952 175.659 1.03616 169.427 0.131742C164.769 -0.544802 158.604 1.24277 159.796 8.81034C160.987 16.3769 175.075 26.9515 175.075 26.9515C175.075 26.9515 191.004 18.4815 193.633 11.1823C196.261 3.88413 190.525 1.25999 185.798 1.27822Z" fill="#FF6081"/>
<path d="M158.777 61.2649C156.989 60.958 155.679 63.0849 155.679 63.0849C155.679 63.0849 155.928 60.6927 154.228 60.1275C152.958 59.7052 151.094 59.9037 150.912 62.1035C150.729 64.3012 153.986 67.9908 153.986 67.9908C153.986 67.9908 159.069 66.3876 160.313 64.4552C161.556 62.5208 160.114 61.4948 158.777 61.2649Z" fill="#FF6081"/>
<path d="M357.485 183.037C354.635 182.563 352.573 185.959 352.573 185.959C352.573 185.959 352.943 182.149 350.229 181.265C348.203 180.601 345.237 180.933 344.973 184.436C344.706 187.936 349.935 193.781 349.935 193.781C349.935 193.781 358.009 191.187 359.967 188.101C361.925 185.012 359.619 183.392 357.485 183.037Z" fill="#FF6081"/>
<path d="M360.449 129.095C353.731 130.017 352.424 138.908 352.424 138.908C352.424 138.908 349.615 130.273 342.806 130.195C337.714 130.134 331.509 132.91 334.253 140.795C337.001 148.677 354.057 157.936 354.057 157.936C354.057 157.936 369.352 146.663 370.724 138.526C372.091 130.384 365.477 128.407 360.449 129.095Z" fill="#FF6081"/>
<path d="M378.516 163.559C376.718 163.902 376.537 166.323 376.537 166.323C376.537 166.323 375.61 164.028 373.771 164.102C372.394 164.158 370.772 164.993 371.664 167.085C372.559 169.176 377.345 171.439 377.345 171.439C377.345 171.439 381.26 168.18 381.473 165.964C381.687 163.744 379.862 163.303 378.516 163.559Z" fill="#FF6081"/>
</svg>
