<svg width="388" height="372" viewBox="0 0 388 372" fill="none" xmlns="http://www.w3.org/2000/svg">
<path fill-rule="evenodd" clip-rule="evenodd" d="M156.373 226.759C156.592 226.833 202.098 307.897 193.931 321.752C189.696 328.933 117.146 316.748 95.569 314.637C85.1621 313.617 57.4188 313.199 64.4797 309.078C68.9143 306.488 69.3453 307.426 75.0103 307.632C75.3365 307.643 85.1113 304.074 88.8941 303.786C132.897 300.45 149.964 302.419 160.426 303.397C165.098 303.831 130.133 253.708 127.168 245.024C125.365 239.731 134.254 222.751 144.183 211.183C144.183 211.183 148.085 223.987 156.373 226.759Z" fill="#FFAAAC"/>
<mask id="mask0_245_12324" style="mask-type:luminance" maskUnits="userSpaceOnUse" x="63" y="211" width="132" height="113">
<path d="M156.389 226.763C156.608 226.837 202.113 307.901 193.946 321.756C189.711 328.937 117.162 316.752 95.5846 314.641C85.1777 313.621 57.4344 313.203 64.4953 309.082C68.9299 306.492 69.3609 307.43 75.0259 307.636C75.3521 307.647 85.1269 304.078 88.9097 303.79C132.913 300.454 149.98 302.423 160.442 303.401C165.113 303.835 130.148 253.712 127.184 245.028C125.38 239.735 134.27 222.755 144.198 211.187C144.2 211.188 148.101 223.991 156.389 226.763Z" fill="white"/>
</mask>
<g mask="url(#mask0_245_12324)">
<path fill-rule="evenodd" clip-rule="evenodd" d="M110.345 387.411L81.2472 363.606L93.7163 243.296C93.7163 243.296 116.846 188.613 117.461 187.595C118.076 186.579 162.362 217.125 162.362 217.125L208.14 319.628L110.345 387.411Z" fill="#002D1A"/>
<mask id="mask1_245_12324" style="mask-type:luminance" maskUnits="userSpaceOnUse" x="81" y="187" width="128" height="201">
<path d="M110.343 387.415L81.2453 363.61L93.7144 243.3C93.7144 243.3 116.844 188.617 117.459 187.599C118.074 186.583 162.36 217.129 162.36 217.129L208.138 319.632L110.343 387.415Z" fill="white"/>
</mask>
<g mask="url(#mask1_245_12324)">
<path fill-rule="evenodd" clip-rule="evenodd" d="M131.8 234.279L131.809 234.281L131.832 234.29L131.846 234.298L131.861 234.305L131.878 234.316L131.899 234.331L131.923 234.348L131.948 234.366L131.973 234.384L132.013 234.429L132.027 234.482L132.02 234.536L131.99 234.588L132.014 234.63L132.052 234.692L132.098 234.76L132.199 234.91L132.311 235.071L132.423 235.242L132.543 235.413L132.66 235.588L132.768 235.755L132.821 235.835L132.871 235.915L132.918 235.989L132.961 236.06L132.999 236.126L133.034 236.187L133.106 236.33L133.178 236.474L133.322 236.763L133.466 237.057L133.613 237.355L133.759 237.654L133.906 237.956L134.054 238.257L134.204 238.555L134.28 238.705L134.356 238.855L134.434 239.004L134.51 239.15L134.588 239.298L134.665 239.443L134.747 239.587L134.826 239.73L134.909 239.869L134.991 240.008L135.076 240.145L135.16 240.278L135.244 240.411L135.33 240.543L135.42 240.671L135.507 240.797L135.656 241.009L135.806 241.219L135.955 241.432L136.103 241.648L136.252 241.86L136.398 242.074L136.543 242.29L136.69 242.505L136.837 242.722L136.98 242.94L137.125 243.156L137.271 243.376L137.414 243.594L137.555 243.814L137.699 244.032L137.841 244.256L138.118 244.697L138.396 245.143L138.672 245.59L138.946 246.036L139.215 246.488L139.486 246.941L139.753 247.394L140.021 247.847L140.286 248.302L140.548 248.758L140.812 249.215L141.074 249.67L141.334 250.128L141.594 250.585L141.85 251.043L142.108 251.498L142.617 252.414L143.122 253.325L143.625 254.232L144.126 255.137L144.746 256.245L145.365 257.354L145.99 258.464L146.611 259.57L147.234 260.674L147.856 261.779L149.107 263.986L150.357 266.195L151.604 268.402L152.228 269.504L152.849 270.607L153.468 271.712L154.087 272.817L154.704 273.92L155.32 275.024L155.933 276.131L156.545 277.24L156.852 277.795L157.154 278.349L157.459 278.906L157.76 279.46L158.065 280.017L158.365 280.572L158.666 281.126L158.966 281.689L159.264 282.247L159.56 282.806L159.856 283.365L160.15 283.923L160.444 284.485L160.737 285.048L161.029 285.607L161.32 286.169L161.611 286.734L161.902 287.296L162.189 287.861L162.478 288.424L162.765 288.99L163.048 289.555L163.334 290.123L163.616 290.69L163.723 290.901L163.837 291.121L163.953 291.346L164.072 291.571L164.196 291.802L164.32 292.041L164.582 292.531L165.132 293.552L165.415 294.083L165.558 294.355L165.701 294.627L165.848 294.906L165.995 295.185L166.138 295.467L166.282 295.754L166.424 296.042L166.568 296.332L166.709 296.625L166.849 296.919L166.986 297.213L167.123 297.51L167.26 297.807L167.39 298.109L167.455 298.26L167.522 298.408L167.583 298.559L167.648 298.71L167.711 298.859L167.773 299.01L167.832 299.163L167.89 299.318L167.951 299.469L168.007 299.622L168.063 299.775L168.117 299.93L168.173 300.083L168.227 300.238L168.275 300.391L168.326 300.543L168.372 300.694L168.419 300.846L168.465 300.998L168.51 301.152L168.553 301.304L168.595 301.456L168.638 301.608L168.677 301.76L168.715 301.911L168.752 302.065L168.787 302.214L168.823 302.366L168.854 302.519L168.886 302.668L168.918 302.82L168.945 302.97L168.97 303.123L168.994 303.276L169.015 303.426L169.031 303.576L169.048 303.726L169.065 303.876L169.076 304.024L169.089 304.174L169.098 304.321L169.106 304.47L169.113 304.618L169.116 304.764L169.118 304.911L169.12 305.058L169.116 305.204L169.112 305.346L169.102 305.49L169.095 305.633L169.083 305.775L169.066 305.92L169.051 306.059L169.03 306.204L169.009 306.346L168.985 306.487L168.954 306.627L168.926 306.766L168.892 306.902L168.856 307.041L168.818 307.178L168.779 307.313L168.737 307.45L168.69 307.586L168.641 307.717L168.59 307.849L168.562 307.914L168.533 307.98L168.505 308.044L168.476 308.111L168.447 308.174L168.415 308.238L168.384 308.303L168.353 308.368L168.32 308.431L168.289 308.495L168.254 308.557L168.219 308.622L168.184 308.687L168.145 308.752L168.109 308.815L168.07 308.88L168.033 308.943L167.994 309.005L167.956 309.067L167.917 309.128L167.874 309.186L167.832 309.245L167.789 309.303L167.746 309.357L167.66 309.474L167.569 309.585L167.481 309.693L167.39 309.797L167.298 309.901L167.204 310L167.11 310.099L167.014 310.196L166.917 310.292L166.82 310.385L166.718 310.474L166.616 310.563L166.513 310.65L166.41 310.735L166.306 310.818L166.2 310.9L166.094 310.981L165.988 311.063L165.88 311.143L165.772 311.219L165.662 311.298L165.552 311.372L165.441 311.451L165.327 311.522L165.217 311.597L165.103 311.668L164.875 311.814L164.647 311.957L164.413 312.098L164.184 312.241L163.951 312.386L163.717 312.527L163.483 312.676L163.365 312.747L163.248 312.822L163.13 312.898L163.013 312.973L162.899 313.051L162.784 313.132L162.668 313.212L162.551 313.291L162.435 313.375L162.322 313.457L162.205 313.546L162.092 313.632L161.977 313.723L161.863 313.814L161.748 313.909L161.635 314.006L161.523 314.102L161.408 314.2L161.172 314.417L160.935 314.634L160.701 314.856L160.466 315.078L160.228 315.304L159.992 315.532L159.756 315.76L159.519 315.989L159.042 316.457L158.563 316.924L158.083 317.392L157.842 317.625L157.602 317.857L157.359 318.088L157.118 318.318L156.875 318.546L156.629 318.772L156.386 318.997L156.14 319.22L156.015 319.329L155.891 319.439L155.764 319.547L155.637 319.655L155.514 319.759L155.387 319.867L155.262 319.97L155.137 320.073L155.012 320.175L154.885 320.276L154.759 320.375L154.634 320.474L154.507 320.571L154.379 320.669L154.252 320.766L154.122 320.858L153.995 320.952L153.863 321.042L153.734 321.13L153.604 321.219L153.483 321.298L153.367 321.378L153.254 321.46L153.138 321.541L153.023 321.625L152.908 321.709L152.795 321.794L152.681 321.877L152.565 321.966L152.453 322.053L152.34 322.139L152.225 322.23L152.114 322.318L152.001 322.41L151.886 322.502L151.774 322.594L151.661 322.687L151.55 322.782L151.437 322.875L151.326 322.969L151.105 323.158L150.887 323.354L150.671 323.548L150.45 323.748L150.237 323.948L150.019 324.151L149.804 324.356L149.591 324.562L149.376 324.77L149.163 324.981L148.952 325.192L148.739 325.406L148.527 325.62L148.318 325.837L148.111 326.056L147.902 326.273L147.694 326.493L147.489 326.714L147.282 326.936L147.073 327.157L146.662 327.603L146.251 328.049L145.838 328.497L145.426 328.944L145.013 329.392L144.6 329.837L144.393 330.059L144.185 330.279L143.976 330.5L143.769 330.719L143.561 330.939L143.352 331.156L143.137 331.372L142.928 331.589L142.715 331.799L142.501 332.011L142.288 332.221L142.071 332.432L141.856 332.637L141.637 332.842L141.42 333.045L141.201 333.246L140.982 333.448L140.762 333.642L140.539 333.833L140.315 334.024L140.201 334.119L140.09 334.213L139.976 334.308L139.861 334.399L139.379 334.792L138.894 335.185L137.926 335.977L136.96 336.77L135.996 337.565L135.029 338.36L134.063 339.157L132.13 340.756L131.162 341.554L130.195 342.353L129.227 343.152L128.258 343.949L127.288 344.746L126.317 345.541L125.828 345.938L125.342 346.336L124.853 346.733L124.363 347.129L123.878 347.522L123.387 347.917L122.897 348.312L122.41 348.704L121.919 349.092L121.424 349.484L120.931 349.87L120.439 350.257L119.944 350.641L119.451 351.028L118.956 351.409L118.459 351.792L117.964 352.173L117.467 352.552L116.97 352.932L116.471 353.31L115.97 353.686L115.471 354.06L114.97 354.436L114.465 354.805L113.959 355.174L113.456 355.542L112.949 355.909L112.442 356.273L111.933 356.635L111.423 356.997L110.914 357.356L110.401 357.715L109.887 358.07L109.376 358.423L108.858 358.775L108.341 359.123L108.104 359.283L107.87 359.444L107.635 359.605L107.401 359.77L107.168 359.932L106.938 360.097L106.707 360.265L106.479 360.431L106.248 360.599L106.022 360.77L105.797 360.94L105.572 361.113L105.348 361.286L105.125 361.457L104.903 361.632L104.682 361.808L104.459 361.983L104.241 362.161L104.02 362.337L103.801 362.516L103.583 362.694L103.364 362.872L103.147 363.052L102.931 363.231L102.712 363.413L102.495 363.593L102.066 363.959L101.641 364.326L101.213 364.694L100.788 365.064L100.363 365.433L99.9391 365.805L99.5159 366.18L98.6693 366.927L97.8246 367.675L97.4032 368.048L96.978 368.422L96.5529 368.795L96.1258 369.167L95.6987 369.539L95.2696 369.909L94.8423 370.277L94.4093 370.644L94.2879 370.746L94.152 370.857L93.8505 371.102L93.5153 371.374L93.337 371.515L93.1537 371.666L92.9706 371.82L92.7804 371.979L92.5923 372.143L92.4956 372.226L92.3988 372.308L92.3041 372.393L92.2093 372.478L92.1127 372.564L92.0179 372.649L91.9271 372.737L91.8362 372.825L91.7473 372.914L91.6583 373.004L91.5695 373.094L91.4842 373.183L91.4009 373.274L91.3177 373.365L91.2361 373.455L91.1601 373.542L91.084 373.629L91.0098 373.718L90.9411 373.804L90.8724 373.891L90.8076 373.981L90.7482 374.069L90.6888 374.157L90.6348 374.243L90.5828 374.33L90.5614 374.373L90.5344 374.414L90.5148 374.458L90.4952 374.499L90.4737 374.541L90.456 374.584L90.44 374.624L90.4223 374.667L90.4062 374.707L90.3902 374.747L90.3779 374.788L90.3636 374.826L90.3513 374.866L90.3409 374.908L90.3304 374.947L90.3198 374.985L90.3146 375.021L90.3094 375.058L90.3043 375.094L90.3028 375.13L90.2994 375.164L90.298 375.2L90.2982 375.234L90.2985 375.268L90.3025 375.302L90.3027 375.337L90.3084 375.369L90.3124 375.402L90.3181 375.434L90.3256 375.465L90.3349 375.496L90.3443 375.528L90.3537 375.56L90.3687 375.593L90.3797 375.65L90.3645 375.705L90.3286 375.752L90.273 375.782L90.2124 375.791L90.1542 375.778L90.102 375.744L90.0694 375.695L90.0521 375.657L90.0347 375.615L90.0209 375.572L90.0092 375.532L89.9971 375.487L89.9871 375.445L89.9827 375.404L89.9743 375.359L89.9679 375.317L89.9673 375.275L89.9646 375.232L89.9673 375.187L89.9721 375.144L89.9748 375.099L89.9812 375.053L89.9897 375.01L89.9961 374.965L90.0045 374.921L90.0166 374.877L90.0285 374.83L90.0406 374.786L90.0544 374.74L90.0701 374.696L90.084 374.65L90.1015 374.604L90.119 374.558L90.1385 374.514L90.156 374.468L90.1773 374.422L90.1985 374.376L90.2216 374.331L90.2429 374.285L90.2678 374.239L90.2927 374.193L90.3481 374.101L90.4073 374.01L90.4682 373.916L90.5327 373.823L90.5993 373.731L90.6676 373.637L90.7417 373.548L90.8174 373.454L90.8987 373.361L90.98 373.268L91.0632 373.177L91.1482 373.084L91.2332 372.991L91.3222 372.902L91.4109 372.808L91.5015 372.717L91.5942 372.627L91.6867 372.537L91.7793 372.447L91.8719 372.357L91.9684 372.271L92.065 372.184L92.1635 372.099L92.2619 372.015L92.3567 371.93L92.5502 371.764L92.7405 371.606L92.927 371.448L93.1104 371.297L93.2921 371.151L93.6273 370.88L93.9253 370.638L94.0594 370.53L94.1792 370.429L94.6102 370.061L95.0395 369.694L95.4668 369.326L95.8939 368.954L96.321 368.582L96.7445 368.211L97.1676 367.836L97.591 367.464L98.4337 366.714L99.2803 365.967L99.7055 365.594L100.129 365.223L100.554 364.849L100.981 364.481L101.407 364.111L101.836 363.745L102.267 363.376L102.484 363.196L102.702 363.015L102.919 362.835L103.137 362.653L103.356 362.475L103.575 362.297L103.795 362.117L104.016 361.941L104.236 361.764L104.459 361.586L104.681 361.411L104.904 361.236L105.13 361.061L105.353 360.887L105.579 360.715L105.806 360.544L106.032 360.373L106.263 360.205L106.493 360.037L106.723 359.869L106.958 359.704L107.19 359.538L107.427 359.375L107.661 359.21L107.897 359.051L108.136 358.889L108.653 358.541L109.169 358.191L109.68 357.838L110.192 357.481L110.703 357.124L111.212 356.765L111.72 356.405L112.229 356.043L112.736 355.679L113.242 355.313L113.747 354.948L114.25 354.577L114.755 354.208L115.255 353.834L115.754 353.459L116.253 353.085L116.752 352.707L117.247 352.33L117.744 351.95L118.239 351.569L118.736 351.186L119.229 350.803L119.724 350.419L120.215 350.034L120.708 349.648L121.201 349.261L121.692 348.873L122.183 348.485L122.674 348.09L123.161 347.699L123.651 347.303L124.138 346.912L124.627 346.515L125.115 346.118L125.598 345.723L126.087 345.326L127.058 344.531L128.028 343.734L128.997 342.937L129.965 342.138L130.932 341.34L131.9 340.541L133.831 338.944L134.798 338.145L135.766 337.35L136.73 336.555L137.7 335.762L138.666 334.972L139.149 334.577L139.632 334.182L139.744 334.095L139.856 334.002L139.967 333.908L140.08 333.815L140.302 333.626L140.523 333.437L140.741 333.241L140.957 333.047L141.176 332.845L141.39 332.646L141.605 332.441L141.82 332.236L142.033 332.03L142.246 331.82L142.459 331.609L142.674 331.397L142.885 331.186L143.094 330.969L143.302 330.751L143.509 330.533L143.716 330.314L143.925 330.093L144.132 329.875L144.338 329.652L144.752 329.208L145.163 328.761L145.576 328.313L145.987 327.867L146.4 327.419L146.812 326.972L147.02 326.752L147.227 326.529L147.436 326.309L147.642 326.087L147.853 325.868L148.06 325.649L148.27 325.43L148.483 325.216L148.696 325.003L148.911 324.791L149.123 324.58L149.338 324.368L149.555 324.162L149.772 323.955L149.987 323.75L150.208 323.547L150.427 323.345L150.645 323.149L150.868 322.951L151.089 322.762L151.202 322.666L151.316 322.571L151.429 322.474L151.542 322.382L151.656 322.287L151.771 322.196L151.886 322.105L152.002 322.011L152.117 321.92L152.232 321.829L152.345 321.743L152.462 321.654L152.58 321.566L152.694 321.48L152.812 321.393L152.93 321.31L153.045 321.226L153.162 321.144L153.279 321.062L153.398 320.985L153.528 320.896L153.656 320.81L153.782 320.718L153.908 320.626L154.035 320.532L154.159 320.439L154.285 320.344L154.412 320.246L154.536 320.149L154.661 320.05L154.785 319.949L154.908 319.849L155.033 319.746L155.157 319.646L155.28 319.541L155.403 319.437L155.526 319.333L155.651 319.223L155.772 319.117L155.897 319.008L156.145 318.79L156.388 318.566L156.63 318.339L156.872 318.113L157.115 317.885L157.354 317.654L157.596 317.424L157.833 317.191L158.314 316.723L158.792 316.256L159.271 315.79L159.507 315.559L159.744 315.329L159.98 315.101L160.218 314.875L160.455 314.651L160.693 314.429L160.929 314.209L161.17 313.995L161.284 313.893L161.4 313.793L161.516 313.696L161.634 313.601L161.753 313.506L161.869 313.413L161.988 313.322L162.106 313.234L162.223 313.145L162.34 313.062L162.455 312.978L162.576 312.899L162.694 312.817L162.813 312.74L162.932 312.663L163.05 312.588L163.167 312.513L163.287 312.439L163.52 312.291L163.758 312.146L163.992 312.004L164.224 311.861L164.452 311.719L164.68 311.576L164.905 311.434L165.019 311.362L165.128 311.289L165.238 311.215L165.344 311.14L165.455 311.065L165.559 310.989L165.667 310.913L165.772 310.837L165.876 310.757L165.981 310.677L166.081 310.598L166.184 310.516L166.284 310.433L166.385 310.35L166.485 310.263L166.581 310.177L166.68 310.088L166.77 309.997L166.863 309.903L166.955 309.806L167.045 309.711L167.134 309.611L167.222 309.51L167.308 309.408L167.39 309.299L167.472 309.19L167.514 309.137L167.554 309.081L167.595 309.025L167.636 308.968L167.674 308.909L167.711 308.849L167.748 308.789L167.785 308.73L167.82 308.668L167.857 308.605L167.892 308.544L167.928 308.481L167.96 308.42L167.995 308.358L168.026 308.297L168.056 308.234L168.087 308.173L168.117 308.11L168.146 308.051L168.174 307.987L168.201 307.926L168.231 307.863L168.257 307.8L168.282 307.738L168.334 307.609L168.38 307.482L168.427 307.354L168.467 307.222L168.507 307.09L168.543 306.959L168.578 306.826L168.61 306.691L168.641 306.558L168.667 306.421L168.691 306.289L168.712 306.155L168.729 306.017L168.747 305.88L168.76 305.742L168.772 305.603L168.78 305.464L168.786 305.324L168.792 305.183L168.795 305.043L168.797 304.903L168.798 304.761L168.792 304.617L168.787 304.47L168.778 304.327L168.769 304.18L168.758 304.035L168.745 303.889L168.731 303.744L168.712 303.596L168.696 303.45L168.677 303.302L168.653 303.156L168.629 303.01L168.601 302.861L168.57 302.711L168.54 302.564L168.507 302.413L168.474 302.266L168.44 302.115L168.401 301.967L168.364 301.816L168.325 301.668L168.284 301.517L168.241 301.365L168.201 301.215L168.156 301.065L168.112 300.915L168.063 300.765L168.017 300.613L167.969 300.463L167.918 300.311L167.866 300.162L167.816 300.01L167.764 299.86L167.708 299.707L167.651 299.556L167.595 299.403L167.536 299.254L167.474 299.103L167.411 298.954L167.35 298.803L167.287 298.654L167.224 298.505L167.159 298.358L167.094 298.207L166.963 297.911L166.828 297.615L166.693 297.32L166.556 297.026L166.414 296.734L166.273 296.444L166.133 296.154L165.989 295.868L165.847 295.583L165.704 295.3L165.557 295.022L165.413 294.746L165.27 294.474L165.126 294.204L164.843 293.673L164.295 292.65L164.035 292.162L163.906 291.925L163.785 291.69L163.664 291.463L163.548 291.238L163.434 291.019L163.326 290.804L163.043 290.238L162.757 289.671L162.474 289.106L162.187 288.54L161.901 287.977L161.613 287.413L161.324 286.85L161.033 286.288L160.742 285.727L160.448 285.165L160.157 284.604L159.861 284.044L159.569 283.485L159.273 282.925L158.977 282.366L158.679 281.808L158.381 281.251L158.083 280.693L157.782 280.139L157.484 279.582L157.179 279.025L156.876 278.473L156.571 277.916L156.268 277.364L155.656 276.255L155.042 275.149L154.427 274.044L153.81 272.941L153.191 271.836L152.57 270.733L151.949 269.63L151.328 268.527L150.081 266.32L148.83 264.113L147.581 261.905L146.958 260.8L146.331 259.692L145.71 258.586L145.089 257.48L144.466 256.368L143.847 255.26L143.346 254.355L142.843 253.448L142.338 252.536L141.829 251.621L141.571 251.165L141.314 250.707L141.056 250.252L140.794 249.796L140.534 249.339L140.272 248.884L140.007 248.428L139.743 247.975L139.478 247.52L139.209 247.068L138.94 246.617L138.671 246.165L138.397 245.72L138.123 245.274L137.845 244.832L137.567 244.39L137.427 244.168L137.284 243.95L137.143 243.73L136.999 243.512L136.856 243.294L136.711 243.078L136.566 242.862L136.421 242.646L136.276 242.43L136.129 242.216L135.983 242.001L135.84 241.791L135.691 241.578L135.543 241.366L135.393 241.156L135.242 240.945L135.155 240.816L135.065 240.684L134.977 240.551L134.889 240.414L134.804 240.277L134.718 240.139L134.633 239.998L134.552 239.854L134.471 239.709L134.391 239.563L134.312 239.417L134.234 239.269L134.154 239.119L134.076 238.971L134 238.82L133.924 238.67L133.772 238.367L133.62 238.063L133.471 237.763L133.327 237.462L133.182 237.165L133.038 236.872L132.892 236.584L132.82 236.441L132.748 236.301L132.719 236.245L132.685 236.183L132.644 236.117L132.599 236.044L132.552 235.969L132.501 235.891L132.388 235.727L132.274 235.554L132.159 235.381L132.041 235.212L131.931 235.05L131.827 234.9L131.782 234.83L131.741 234.764L131.702 234.704L131.671 234.646L131.64 234.596L131.617 234.549L131.608 234.524L131.601 234.501L131.594 234.478L131.587 234.463L131.586 234.441L131.583 234.432L131.583 234.402L131.585 234.396L131.597 234.356L131.619 234.324L131.652 234.292L131.654 234.29L131.696 234.271L131.753 234.262L131.758 234.264L131.8 234.279Z" fill="#0061AE"/>
</g>
</g>
<path fill-rule="evenodd" clip-rule="evenodd" d="M143.261 188.875C133.265 176.909 138.58 156.429 146.813 162.086C153.418 166.624 176.874 190.414 186.896 201.734C190.083 205.334 226.981 179.694 233.412 172.31C236.504 168.757 242.73 168.976 246.046 167.451C246.046 167.451 202.406 230.118 186.049 221.027C178.715 216.949 155.674 203.731 143.261 188.875Z" fill="#FF8D90"/>
<path fill-rule="evenodd" clip-rule="evenodd" d="M324.866 100.587C325.761 95.1385 319.216 91.2829 315.716 88.9745C310.845 85.7614 308.239 85.4518 308.239 85.4518L207.544 83.9422C200.066 83.8202 192.986 89.5929 191.742 96.8255L156.137 306.898C155.022 310.591 160.248 324.063 166.023 325.488L274.781 327.508C282.258 327.63 289.339 321.857 290.582 314.625C290.582 314.625 320.718 125.83 324.866 100.587Z" fill="#002E19"/>
<path fill-rule="evenodd" clip-rule="evenodd" d="M315.766 96.5448C316.843 90.2755 312.089 85.0936 305.154 84.9805L206.65 83.3739C199.716 83.2608 193.211 88.2591 192.133 94.5283L155.741 306.244C154.663 312.514 159.417 317.696 166.352 317.809L264.856 319.416C271.79 319.529 278.295 314.531 279.373 308.261L315.766 96.5448Z" fill="#008E72"/>
<path fill-rule="evenodd" clip-rule="evenodd" d="M305.91 107.432C306.888 101.739 302.571 97.0344 296.274 96.9317L210.373 95.5307C204.077 95.428 198.17 99.9669 197.192 105.659L167.528 278.23C166.549 283.923 170.867 288.629 177.163 288.732L263.064 290.133C269.361 290.235 275.267 285.696 276.246 280.003L305.91 107.432Z" fill="#F3EDEE"/>
<path d="M219.955 293.882C214.677 292.323 208.922 294.59 207.102 298.946C205.282 303.301 208.086 308.096 213.364 309.655C218.643 311.214 224.397 308.947 226.217 304.592C228.037 300.236 225.233 295.441 219.955 293.882Z" fill="#002E19"/>
<path fill-rule="evenodd" clip-rule="evenodd" d="M230.025 1.30854C243.858 2.03068 254.443 12.797 253.646 25.3357C252.849 37.8753 240.971 47.4689 227.138 46.7467C224.587 46.6136 219.866 45.3754 219.866 45.3754L209.024 53.9854L211.524 40.7215C211.524 40.7215 209.948 39.3066 209.242 38.5335C205.338 34.2596 203.136 28.6903 203.516 22.7186C204.312 10.18 216.191 0.586349 230.025 1.30854Z" fill="#F3EEEF"/>
<path fill-rule="evenodd" clip-rule="evenodd" d="M228.948 20.045C228.948 20.045 226.116 14.7488 221.566 15.5322C218.721 16.0226 216.906 19.5987 218.492 23.8429C220.403 28.9552 229.261 35.4153 229.261 35.4153C229.261 35.4153 238.359 27.4006 239.588 21.5244C240.699 16.2104 232.526 11.9302 228.948 20.045Z" fill="#FA5D7A"/>
<path fill-rule="evenodd" clip-rule="evenodd" d="M255.128 104.805C268.961 105.527 279.546 116.293 278.749 128.832C277.953 141.371 266.074 150.965 252.241 150.243C249.691 150.11 244.969 148.872 244.969 148.872L234.127 157.481L236.628 144.218C236.628 144.218 235.052 142.803 234.345 142.03C230.442 137.756 228.24 132.186 228.619 126.215C229.417 113.676 241.294 104.082 255.128 104.805Z" fill="#FA5D7A"/>
<path fill-rule="evenodd" clip-rule="evenodd" d="M254.052 123.536C254.052 123.536 251.219 118.24 246.67 119.023C243.824 119.514 242.01 123.09 243.596 127.334C245.506 132.446 254.365 138.907 254.365 138.907C254.365 138.907 263.462 130.892 264.691 125.016C265.802 119.702 257.629 115.422 254.052 123.536Z" fill="#F3EEEF"/>
<path fill-rule="evenodd" clip-rule="evenodd" d="M130.12 75.177C130.12 70.6989 134.131 67.0634 139.071 67.0634H183.488C188.429 67.0634 192.439 70.6997 192.439 75.177V94.5705C192.439 99.0495 188.428 102.684 183.488 102.684H177.616C177.616 102.684 177.407 108.576 177.277 112.26C177.259 112.776 176.91 113.233 176.384 113.432C175.859 113.63 175.254 113.532 174.837 113.18C170.672 109.667 162.395 102.684 162.395 102.684H139.071C134.13 102.684 130.12 99.0487 130.12 94.5705V75.177Z" fill="#FA5D7A"/>
<path d="M159.847 96.1179L162.224 55.3172L160.445 55.2354L158.068 96.0361L159.847 96.1179Z" fill="white"/>
<path d="M159.878 103.942L162.183 63.9434L160.369 63.8623L158.065 103.861L159.878 103.942Z" fill="white"/>
<path d="M159.958 112.432L162.166 73.2151L160.316 73.1338L158.108 112.351L159.958 112.432Z" fill="white"/>
<path fill-rule="evenodd" clip-rule="evenodd" d="M163.025 241.422L152.803 256.782C152.803 256.782 154.539 259.655 156.358 262.402C167.6 279.378 185.883 308.456 186.608 314.985C188.243 329.656 152.417 334.971 97.8643 319.47C91.5184 317.668 80.7637 316.512 81.0814 315.041C81.397 313.572 96.2002 310.854 99.761 310.656C142.651 308.271 153.265 309.097 153.265 309.097C153.265 309.097 121.749 282.266 112.005 272.668C99.3652 260.218 94.7704 242.38 120.333 224.81C120.768 224.514 163.025 241.422 163.025 241.422Z" fill="#00472D"/>
<mask id="mask2_245_12324" style="mask-type:luminance" maskUnits="userSpaceOnUse" x="81" y="224" width="106" height="105">
<path d="M163.017 241.423L152.795 256.783C152.795 256.783 154.532 259.656 156.35 262.403C167.592 279.379 185.875 308.457 186.601 314.987C188.235 329.657 152.409 334.972 97.8564 319.471C91.5106 317.669 80.7559 316.513 81.0735 315.043C81.3891 313.573 96.1924 310.855 99.7532 310.657C142.643 308.272 153.257 309.098 153.257 309.098C153.257 309.098 121.741 282.267 111.997 272.669C99.3574 260.219 94.7626 242.381 120.325 224.811C120.76 224.515 163.017 241.423 163.017 241.423Z" fill="white"/>
</mask>
<g mask="url(#mask2_245_12324)">
<path fill-rule="evenodd" clip-rule="evenodd" d="M128.178 224.308L128.239 224.334L128.242 224.337L128.274 224.364L128.299 224.401L128.301 224.406L128.316 224.446L128.319 224.474L128.32 224.489L128.321 224.514L128.317 224.56L128.305 224.611L128.284 224.673L128.236 224.722L128.171 224.75L128.166 224.75L128.161 224.763L128.102 224.886L128.039 225.025L127.894 225.342L127.819 225.507L127.74 225.671L127.664 225.828L127.627 225.903L127.59 225.973L127.553 226.042L127.516 226.104L127.481 226.164L127.452 226.215L127.394 226.304L127.337 226.389L127.224 226.56L127.107 226.728L126.987 226.897L126.869 227.065L126.752 227.236L126.634 227.405L126.522 227.576L126.464 227.661L126.407 227.747L126.352 227.832L126.297 227.918L126.248 228.005L126.198 228.093L126.149 228.178L126.102 228.266L126.058 228.356L126.011 228.444L125.969 228.534L125.927 228.622L125.886 228.714L125.85 228.804L125.813 228.897L125.777 228.989L125.575 229.558L125.374 230.133L125.17 230.71L124.964 231.29L124.757 231.867L124.548 232.447L124.339 233.027L124.128 233.607L123.911 234.187L123.694 234.767L123.474 235.347L123.252 235.924L123.03 236.5L122.805 237.077L122.58 237.648L122.35 238.215L122.27 238.418L122.19 238.621L122.111 238.829L122.031 239.037L121.954 239.25L121.877 239.463L121.803 239.676L121.729 239.894L121.655 240.112L121.58 240.33L121.512 240.552L121.446 240.773L121.374 241.001L121.308 241.228L121.245 241.456L121.179 241.687L121.119 241.919L121.056 242.152L120.995 242.387L120.937 242.623L120.879 242.86L120.822 243.098L120.767 243.338L120.711 243.579L120.656 243.819L120.607 244.061L120.554 244.307L120.505 244.552L120.46 244.797L120.416 245.042L120.371 245.292L120.33 245.542L120.288 245.794L120.249 246.046L120.213 246.299L120.176 246.554L120.14 246.806L120.106 247.061L120.075 247.318L120.044 247.573L120.016 247.83L119.988 248.087L119.965 248.344L119.941 248.603L119.921 248.86L119.903 249.12L119.885 249.379L119.867 249.639L119.855 249.898L119.842 250.157L119.83 250.419L119.82 250.678L119.812 250.939L119.805 251.198L119.8 251.46L119.801 251.721L119.801 251.98L119.805 252.241L119.81 252.503L119.816 252.761L119.824 253.022L119.833 253.284L119.846 253.542L119.86 253.803L119.874 254.061L119.895 254.322L119.916 254.58L119.94 254.838L119.964 255.097L119.991 255.355L120.02 255.61L120.052 255.868L120.084 256.123L120.121 256.378L120.158 256.634L120.195 256.889L120.24 257.141L120.284 257.394L120.332 257.646L120.382 257.898L120.432 258.148L120.487 258.397L120.542 258.647L120.599 258.894L120.66 259.143L120.725 259.385L120.791 259.632L120.859 259.873L120.932 260.112L121.005 260.351L121.078 260.59L121.156 260.826L121.237 261.062L121.318 261.298L121.401 261.532L121.492 261.762L121.535 261.88L121.584 261.993L121.629 262.106L121.675 262.219L121.723 262.336L121.771 262.447L121.822 262.559L121.87 262.672L121.92 262.782L121.971 262.895L122.022 263.005L122.072 263.115L122.126 263.225L122.179 263.335L122.232 263.443L122.285 263.553L122.341 263.66L122.397 263.768L122.453 263.875L122.509 263.982L122.564 264.09L122.625 264.197L122.686 264.302L122.747 264.407L122.811 264.511L122.872 264.616L122.935 264.721L122.999 264.825L123.065 264.927L123.131 265.029L123.195 265.134L123.263 265.233L123.329 265.336L123.398 265.437L123.464 265.537L123.535 265.636L123.604 265.736L123.672 265.835L123.744 265.935L123.815 266.031L123.889 266.131L123.96 266.227L124.034 266.324L124.107 266.416L124.184 266.512L124.257 266.604L124.333 266.696L124.41 266.787L124.488 266.879L124.565 266.97L124.643 267.059L124.722 267.148L124.806 267.237L124.89 267.326L124.971 267.412L125.058 267.499L125.142 267.587L125.228 267.671L125.315 267.757L125.401 267.843L125.49 267.927L125.577 268.011L125.666 268.094L125.757 268.175L125.984 268.382L126.208 268.585L126.663 268.993L127.118 269.4L127.574 269.805L128.031 270.205L128.492 270.602L128.952 270.999L129.412 271.394L129.875 271.786L130.337 272.178L130.805 272.57L131.273 272.959L131.741 273.349L132.211 273.735L132.679 274.122L133.152 274.509L133.623 274.893L134.095 275.277L134.566 275.661L135.039 276.04L135.984 276.803L136.932 277.564L137.878 278.327L138.824 279.088L139.769 279.851L140.242 280.235L140.715 280.619L141.185 281.003L141.658 281.387L142.129 281.774L142.599 282.161L143.067 282.55L143.535 282.937L144.003 283.329L144.471 283.721L144.933 284.113L145.396 284.507L145.856 284.902L146.317 285.299L146.774 285.699L147.232 286.099L147.687 286.504L148.143 286.911L148.369 287.115L148.595 287.319L148.822 287.525L149.048 287.731L149.272 287.938L149.499 288.144L149.722 288.353L149.946 288.559L150.17 288.768L150.392 288.977L150.616 289.189L150.837 289.398L151.058 289.609L151.28 289.821L151.501 290.032L151.722 290.246L151.941 290.46L152.16 290.675L152.379 290.889L152.598 291.105L152.812 291.325L153.031 291.544L153.245 291.766L153.459 291.988L153.67 292.21L153.884 292.432L154.095 292.656L154.306 292.881L154.518 293.105L154.726 293.333L154.935 293.56L155.144 293.787L155.242 293.893L155.34 294.009L155.446 294.13L155.554 294.254L155.663 294.385L155.775 294.519L155.889 294.663L156.006 294.809L156.126 294.96L156.247 295.119L156.375 295.282L156.498 295.449L156.629 295.62L156.763 295.796L156.897 295.977L157.031 296.163L157.168 296.355L157.308 296.548L157.45 296.744L157.593 296.948L157.736 297.157L157.881 297.366L158.027 297.58L158.175 297.801L158.324 298.02L158.477 298.246L158.631 298.475L158.785 298.706L158.942 298.943L159.099 299.179L159.256 299.418L159.413 299.662L159.572 299.911L159.73 300.16L159.889 300.411L160.049 300.665L160.209 300.922L160.369 301.178L160.53 301.437L160.692 301.701L160.853 301.968L161.013 302.235L161.174 302.504L161.334 302.773L161.495 303.045L161.655 303.317L161.813 303.591L161.974 303.865L162.132 304.14L162.29 304.416L162.445 304.693L162.603 304.973L162.759 305.25L162.914 305.529L163.065 305.809L163.215 306.089L163.365 306.368L163.513 306.648L163.658 306.928L163.803 307.205L163.948 307.485L164.09 307.765L164.233 308.045L164.373 308.322L164.51 308.6L164.644 308.877L164.779 309.152L164.913 309.43L165.04 309.703L165.166 309.978L165.29 310.251L165.412 310.521L165.53 310.792L165.649 311.06L165.762 311.328L165.875 311.593L165.986 311.854L166.091 312.115L166.193 312.373L166.291 312.629L166.388 312.882L166.482 313.133L166.571 313.384L166.66 313.63L166.742 313.876L166.82 314.118L166.896 314.354L166.969 314.59L167.039 314.822L167.104 315.051L167.163 315.277L167.191 315.388L167.218 315.499L167.245 315.607L167.272 315.715L167.296 315.824L167.321 315.93L167.342 316.038L167.364 316.142L167.386 316.247L167.405 316.351L167.424 316.454L167.443 316.555L167.459 316.656L167.475 316.757L167.486 316.856L167.497 316.955L167.508 317.053L167.517 317.147L167.525 317.241L167.533 317.332L167.539 317.423L167.544 317.514L167.547 317.603L167.55 317.691L167.55 317.78L167.55 317.867L167.55 317.95L167.548 318.037L167.545 318.118L167.54 318.202L167.535 318.283L167.524 318.362L167.514 318.444L167.503 318.518L167.49 318.597L167.474 318.668L167.458 318.742L167.442 318.814L167.423 318.883L167.405 318.952L167.383 319.021L167.359 319.088L167.335 319.155L167.311 319.219L167.284 319.283L167.255 319.345L167.226 319.404L167.191 319.466L167.156 319.523L167.119 319.58L167.079 319.637L167.038 319.689L166.998 319.738L166.953 319.788L166.91 319.837L166.861 319.882L166.813 319.927L166.762 319.971L166.711 320.013L166.655 320.053L166.599 320.09L166.54 320.128L166.48 320.16L166.416 320.192L166.354 320.22L166.29 320.247L166.222 320.274L166.155 320.297L166.085 320.319L166.013 320.339L165.94 320.359L165.867 320.374L165.789 320.389L165.714 320.404L165.383 320.449L165.052 320.49L164.721 320.53L164.387 320.568L164.053 320.606L163.719 320.642L163.383 320.675L163.047 320.71L162.71 320.741L162.373 320.771L162.034 320.802L161.695 320.83L161.35 320.858L161.011 320.884L160.666 320.909L160.319 320.932L159.974 320.955L159.627 320.974L159.279 320.992L158.932 321.01L158.582 321.026L158.234 321.039L157.884 321.052L157.534 321.065L157.181 321.076L156.83 321.086L156.477 321.094L156.124 321.102L155.771 321.111L155.416 321.116L155.063 321.122L154.707 321.125L154.351 321.128L153.995 321.126L153.639 321.124L153.283 321.122L152.925 321.118L152.568 321.113L152.21 321.109L151.851 321.102L151.492 321.095L151.134 321.086L150.775 321.076L150.416 321.067L150.054 321.055L149.696 321.043L149.334 321.031L148.975 321.017L148.613 321.002L148.252 320.988L147.89 320.971L147.531 320.956L147.169 320.937L146.808 320.92L146.446 320.9L146.084 320.881L145.722 320.856L145.36 320.832L144.999 320.807L144.631 320.783L144.269 320.755L143.907 320.728L143.545 320.701L143.183 320.672L142.821 320.644L142.459 320.615L142.097 320.583L141.738 320.553L141.375 320.521L141.013 320.488L140.651 320.456L140.291 320.421L139.929 320.387L139.57 320.352L138.845 320.283L138.123 320.205L137.401 320.128L136.684 320.046L135.967 319.964L135.252 319.881L134.538 319.794L133.826 319.706L133.116 319.618L132.409 319.526L131.703 319.433L130.998 319.34L130.302 319.242L129.602 319.144L128.908 319.043L128.217 318.939L127.53 318.838L126.844 318.735L126.163 318.631L125.484 318.525L124.814 318.418L124.143 318.311L123.48 318.204L122.817 318.098L122.159 317.988L121.51 317.881L120.862 317.771L120.22 317.664L119.584 317.553L118.95 317.446L118.323 317.338L117.702 317.227L117.086 317.119L115.873 316.904L114.683 316.692L113.52 316.478L112.383 316.274L111.275 316.072L109.145 315.684L108.126 315.502L107.137 315.324L106.184 315.157L105.721 315.077L105.268 315L104.824 314.924L104.384 314.851L103.958 314.778L103.542 314.709L103.135 314.643L102.738 314.581L102.346 314.522L101.97 314.467L101.599 314.413L101.244 314.363L100.895 314.315L100.558 314.269L100.232 314.231L99.9198 314.194L99.6152 314.161L99.3238 314.131L99.1846 314.118L99.0456 314.107L98.9091 314.093L98.7778 314.082L98.6467 314.073L98.5208 314.064L98.3949 314.055L98.2718 314.051L98.1565 314.047L98.0413 314.043L97.9313 314.041L97.8213 314.04L97.7167 314.04L97.6121 314.041L97.5152 314.041L97.4211 314.044L97.3297 314.049L97.2408 314.052L97.1546 314.057L97.0737 314.065L96.9928 314.072L96.9198 314.08L96.8495 314.089L96.7817 314.099L96.7168 314.114L96.6571 314.128L96.5974 314.145L96.5482 314.159L96.499 314.176L96.4551 314.195L96.4138 314.212L96.3751 314.231L96.3571 314.239L96.3416 314.247L96.3262 314.255L96.3108 314.263L96.2979 314.271L96.2827 314.284L96.275 314.292L96.2622 314.3L96.2546 314.308L96.247 314.316L96.2394 314.323L96.2318 314.331L96.227 314.344L96.222 314.352L96.217 314.36L96.2122 314.373L96.1694 314.425L96.1078 314.462L96.0349 314.472L95.9663 314.456L95.9075 314.417L95.8664 314.36L95.8564 314.295L95.8753 314.23L95.8825 314.21L95.8974 314.187L95.9124 314.163L95.93 314.143L95.9476 314.119L95.9653 314.098L95.9856 314.08L96.0058 314.059L96.0262 314.041L96.0466 314.022L96.0695 314.004L96.0925 313.985L96.1181 313.969L96.1412 313.953L96.1668 313.937L96.1925 313.921L96.2492 313.894L96.3059 313.87L96.368 313.848L96.4328 313.828L96.4976 313.808L96.565 313.788L96.6378 313.774L96.7105 313.756L96.7861 313.746L96.8667 313.731L96.9502 313.723L97.0363 313.716L97.1251 313.708L97.2165 313.703L97.3105 313.697L97.4072 313.692L97.5092 313.691L97.6138 313.688L97.721 313.687L97.8284 313.689L97.9409 313.688L98.0562 313.693L98.174 313.694L98.2919 313.698L98.4178 313.707L98.5463 313.716L98.6748 313.725L98.8059 313.733L98.9423 313.744L99.0789 313.758L99.2206 313.772L99.3623 313.785L99.6564 313.814L99.9636 313.848L100.279 313.884L100.607 313.922L100.946 313.968L101.296 314.016L101.656 314.068L102.024 314.121L102.405 314.178L102.792 314.237L103.192 314.299L103.599 314.365L104.018 314.433L104.447 314.507L104.883 314.58L105.331 314.655L105.783 314.733L106.246 314.813L107.202 314.982L108.186 315.157L109.207 315.342L111.337 315.73L112.445 315.93L113.582 316.136L114.745 316.345L115.935 316.557L117.148 316.774L117.764 316.883L118.383 316.991L119.009 317.099L119.643 317.209L120.28 317.317L120.922 317.424L121.567 317.534L122.216 317.641L122.874 317.751L123.534 317.858L124.2 317.964L124.868 318.071L125.539 318.178L126.217 318.282L126.898 318.385L127.582 318.489L128.268 318.593L128.957 318.694L129.651 318.794L130.345 318.893L131.042 318.991L131.746 319.084L132.451 319.177L133.158 319.269L133.867 319.357L134.576 319.445L135.288 319.532L136.003 319.615L136.72 319.697L137.434 319.777L138.156 319.857L138.878 319.929L139.6 320.001L139.96 320.036L140.319 320.068L140.682 320.103L141.041 320.135L141.403 320.167L141.763 320.199L142.125 320.229L142.485 320.261L142.847 320.291L143.209 320.318L143.568 320.348L143.93 320.375L144.292 320.402L144.654 320.429L145.013 320.454L145.375 320.478L145.737 320.503L146.099 320.522L146.458 320.547L146.82 320.564L147.179 320.584L147.541 320.601L147.902 320.618L148.261 320.635L148.62 320.649L148.982 320.664L149.341 320.678L149.7 320.69L150.059 320.702L150.418 320.714L150.776 320.724L151.135 320.733L151.494 320.74L151.85 320.747L152.209 320.754L152.565 320.761L152.921 320.765L153.277 320.767L153.633 320.772L153.989 320.769L154.342 320.771L154.698 320.767L155.051 320.764L155.404 320.759L155.757 320.753L156.11 320.748L156.461 320.739L156.814 320.729L157.164 320.718L157.514 320.708L157.862 320.697L158.212 320.684L158.56 320.668L158.907 320.653L159.255 320.637L159.6 320.619L159.944 320.596L160.289 320.578L160.634 320.552L160.973 320.529L161.313 320.501L161.652 320.476L161.991 320.448L162.328 320.417L162.665 320.387L163.001 320.354L163.335 320.321L163.669 320.286L164.003 320.25L164.334 320.215L164.665 320.174L164.996 320.136L165.324 320.091L165.65 320.05L165.718 320.041L165.783 320.031L165.848 320.017L165.907 320L165.97 319.982L166.027 319.963L166.084 319.944L166.14 319.921L166.189 319.9L166.241 319.875L166.29 319.851L166.336 319.824L166.382 319.797L166.426 319.768L166.469 319.736L166.513 319.705L166.554 319.673L166.592 319.636L166.632 319.597L166.668 319.558L166.706 319.519L166.741 319.474L166.771 319.43L166.801 319.386L166.831 319.34L166.858 319.293L166.885 319.244L166.913 319.193L166.937 319.141L166.959 319.085L166.983 319.028L167.005 318.969L167.024 318.91L167.043 318.849L167.062 318.787L167.078 318.723L167.094 318.657L167.108 318.59L167.121 318.524L167.135 318.453L167.146 318.384L167.156 318.312L167.162 318.239L167.167 318.165L167.17 318.086L167.175 318.007L167.175 317.929L167.178 317.847L167.175 317.764L167.175 317.68L167.173 317.596L167.17 317.51L167.164 317.424L167.159 317.335L167.154 317.247L167.145 317.156L167.135 317.065L167.126 316.973L167.116 316.88L167.105 316.786L167.088 316.688L167.072 316.589L167.053 316.491L167.034 316.39L167.015 316.289L166.996 316.186L166.975 316.082L166.951 315.979L166.929 315.873L166.904 315.767L166.877 315.661L166.853 315.553L166.826 315.445L166.799 315.336L166.74 315.115L166.675 314.891L166.607 314.66L166.534 314.428L166.461 314.195L166.383 313.956L166.302 313.717L166.213 313.471L166.124 313.223L166.032 312.974L165.935 312.721L165.838 312.468L165.736 312.212L165.633 311.954L165.523 311.696L165.412 311.43L165.296 311.164L165.18 310.896L165.062 310.628L164.941 310.358L164.817 310.088L164.693 309.815L164.561 309.542L164.429 309.267L164.297 308.992L164.16 308.717L164.023 308.439L163.886 308.162L163.744 307.885L163.601 307.607L163.459 307.33L163.314 307.05L163.169 306.77L163.021 306.493L162.871 306.213L162.721 305.936L162.57 305.656L162.42 305.379L162.265 305.102L162.109 304.825L161.951 304.548L161.793 304.274L161.635 303.997L161.477 303.725L161.319 303.451L161.159 303.179L160.998 302.91L160.838 302.641L160.677 302.372L160.52 302.105L160.357 301.841L160.197 301.582L160.036 301.323L159.879 301.064L159.719 300.81L159.559 300.556L159.399 300.307L159.242 300.058L159.082 299.811L158.925 299.567L158.769 299.328L158.614 299.092L158.458 298.858L158.304 298.627L158.15 298.398L158.001 298.174L157.853 297.953L157.705 297.737L157.559 297.523L157.416 297.314L157.271 297.108L157.131 296.904L156.991 296.708L156.852 296.514L156.715 296.325L156.581 296.141L156.446 295.96L156.315 295.784L156.184 295.615L156.061 295.449L155.938 295.288L155.818 295.129L155.701 294.98L155.583 294.834L155.471 294.693L155.36 294.562L155.251 294.433L155.145 294.31L155.044 294.191L154.949 294.082L154.854 293.976L154.646 293.751L154.437 293.524L154.228 293.299L154.019 293.075L153.808 292.85L153.597 292.628L153.386 292.404L153.172 292.184L152.96 291.962L152.747 291.743L152.533 291.524L152.319 291.307L152.1 291.093L151.887 290.878L151.668 290.664L151.449 290.45L151.228 290.238L151.009 290.027L150.787 289.815L150.566 289.606L150.345 289.395L150.123 289.186L149.9 288.977L149.678 288.77L149.454 288.561L149.231 288.355L149.007 288.149L148.78 287.942L148.557 287.738L148.33 287.532L148.106 287.328L147.88 287.124L147.425 286.72L146.969 286.315L146.514 285.915L146.057 285.517L145.596 285.12L145.136 284.726L144.676 284.331L144.213 283.939L143.751 283.55L143.283 283.16L142.815 282.771L142.347 282.384L141.877 281.997L141.406 281.611L140.936 281.226L140.466 280.842L139.993 280.458L139.523 280.079L138.577 279.316L137.629 278.553L136.683 277.792L135.738 277.032L134.789 276.269L134.316 275.884L133.846 275.5L133.373 275.116L132.9 274.732L132.43 274.345L131.96 273.959L131.489 273.569L131.021 273.18L130.551 272.791L130.088 272.399L129.62 272.007L129.157 271.612L128.695 271.218L128.234 270.821L127.774 270.421L127.316 270.021L126.858 269.614L126.403 269.209L125.948 268.799L125.721 268.593L125.495 268.389L125.403 268.303L125.311 268.219L125.22 268.133L125.13 268.047L125.041 267.961L124.955 267.875L124.866 267.786L124.779 267.697L124.692 267.609L124.608 267.52L124.524 267.431L124.44 267.34L124.356 267.248L124.272 267.157L124.191 267.065L124.112 266.969L124.033 266.877L123.957 266.781L123.88 266.684L123.804 266.585L123.727 266.488L123.654 266.389L123.58 266.29L123.506 266.19L123.432 266.091L123.361 265.992L123.289 265.89L123.218 265.791L123.15 265.689L123.078 265.584L123.009 265.482L122.941 265.38L122.875 265.276L122.808 265.171L122.742 265.066L122.676 264.962L122.61 264.857L122.546 264.75L122.483 264.646L122.419 264.538L122.355 264.431L122.294 264.324L122.233 264.217L122.172 264.107L122.117 263.999L122.055 263.89L122 263.78L121.944 263.67L121.89 263.56L121.835 263.45L121.781 263.337L121.728 263.227L121.677 263.114L121.624 263.002L121.573 262.889L121.522 262.776L121.472 262.664L121.423 262.546L121.373 262.433L121.324 262.315L121.279 262.198L121.23 262.08L121.185 261.962L121.137 261.844L121.048 261.608L120.959 261.372L120.876 261.136L120.797 260.895L120.719 260.656L120.641 260.415L120.567 260.174L120.497 259.927L120.426 259.681L120.358 259.434L120.292 259.185L120.232 258.935L120.174 258.683L120.119 258.431L120.064 258.179L120.011 257.927L119.961 257.672L119.913 257.417L119.869 257.163L119.824 256.908L119.784 256.65L119.747 256.392L119.713 256.134L119.681 255.877L119.649 255.619L119.62 255.358L119.59 255.098L119.566 254.84L119.542 254.579L119.521 254.318L119.504 254.055L119.488 253.794L119.475 253.533L119.463 253.269L119.452 253.008L119.444 252.745L119.438 252.483L119.432 252.22L119.429 251.958L119.429 251.695L119.428 251.433L119.433 251.172L119.44 250.908L119.447 250.646L119.457 250.384L119.47 250.123L119.482 249.861L119.497 249.599L119.512 249.337L119.53 249.075L119.551 248.816L119.571 248.556L119.594 248.297L119.617 248.037L119.645 247.778L119.674 247.518L119.705 247.261L119.738 247.003L119.772 246.746L119.808 246.491L119.844 246.236L119.881 245.981L119.92 245.726L119.961 245.474L120.003 245.222L120.047 244.972L120.091 244.719L120.141 244.474L120.191 244.224L120.243 243.978L120.295 243.733L120.348 243.491L120.403 243.248L120.46 243.008L120.515 242.767L120.576 242.53L120.636 242.292L120.697 242.056L120.757 241.821L120.82 241.586L120.886 241.353L120.952 241.123L121.018 240.895L121.084 240.664L121.155 240.441L121.229 240.218L121.298 239.998L121.372 239.778L121.448 239.56L121.525 239.342L121.602 239.129L121.679 238.916L121.758 238.703L121.838 238.495L121.92 238.287L122 238.084L122.228 237.516L122.456 236.946L122.68 236.371L122.903 235.795L123.122 235.218L123.342 234.64L123.559 234.06L123.776 233.483L123.985 232.903L124.199 232.323L124.408 231.743L124.614 231.166L124.818 230.589L125.022 230.012L125.224 229.437L125.425 228.865L125.464 228.765L125.502 228.665L125.541 228.57L125.585 228.475L125.629 228.379L125.673 228.287L125.72 228.194L125.769 228.101L125.819 228.008L125.868 227.918L125.923 227.827L125.978 227.739L126.032 227.649L126.09 227.561L126.147 227.473L126.204 227.388L126.322 227.214L126.442 227.043L126.559 226.872L126.68 226.703L126.797 226.535L126.909 226.366L127.022 226.198L127.077 226.115L127.132 226.032L127.159 225.986L127.189 225.937L127.218 225.877L127.253 225.813L127.29 225.746L127.324 225.674L127.4 225.522L127.476 225.362L127.552 225.197L127.696 224.878L127.763 224.739L127.821 224.611L127.848 224.554L127.873 224.505L127.898 224.461L127.92 224.42L127.942 224.384L127.957 224.366L127.97 224.352L127.985 224.337L127.99 224.332L128.021 224.308L128.026 224.305L128.065 224.289L128.109 224.282L128.112 224.282L128.178 224.308Z" fill="#007C59"/>
<path fill-rule="evenodd" clip-rule="evenodd" d="M132.652 227.25L132.678 227.254L132.702 227.261L132.726 227.273L132.747 227.288L132.766 227.305L132.783 227.325L132.796 227.347L132.805 227.367L132.811 227.392L132.812 227.415L132.813 227.44L132.813 227.471L132.812 227.501L132.808 227.529L132.803 227.56L132.799 227.591L132.785 227.652L132.769 227.716L132.75 227.78L132.729 227.841L132.704 227.906L132.678 227.97L132.651 228.037L132.622 228.101L132.592 228.165L132.558 228.23L132.523 228.297L132.454 228.426L132.383 228.555L132.313 228.681L132.244 228.805L132.18 228.926L132.15 228.986L132.121 229.042L132.096 229.099L132.072 229.15L132.047 229.202L132.028 229.248L132.011 229.294L131.994 229.338L131.897 229.656L131.797 229.973L131.698 230.283L131.598 230.593L131.498 230.901L131.395 231.209L131.29 231.514L131.184 231.819L131.076 232.122L130.968 232.424L130.852 232.73L130.737 233.033L130.616 233.336L130.494 233.639L130.431 233.79L130.368 233.942L130.305 234.096L130.239 234.248L130.227 234.276L130.213 234.312L130.176 234.412L130.078 234.677L130.02 234.836L129.955 235.005L129.918 235.093L129.882 235.18L129.845 235.267L129.806 235.355L129.765 235.442L129.726 235.527L129.684 235.61L129.639 235.692L129.595 235.767L129.572 235.806L129.55 235.842L129.528 235.878L129.503 235.915L129.48 235.946L129.455 235.977L129.43 236.006L129.404 236.037L129.379 236.063L129.351 236.089L129.326 236.115L129.295 236.139L129.267 236.16L129.231 236.182L129.195 236.203L129.167 236.217L129.151 236.222L129.128 236.228L129.11 236.234L129.086 236.237L129.065 236.24L129.042 236.243L129.021 236.244L128.998 236.245L128.974 236.243L128.953 236.241L128.929 236.239L128.906 236.235L128.887 236.23L128.866 236.223L128.848 236.216L128.826 236.209L128.808 236.202L128.789 236.19L128.773 236.178L128.754 236.163L128.741 236.151L128.725 236.136L128.711 236.124L128.695 236.107L128.687 236.094L128.668 236.072L128.648 236.042L128.629 236.012L128.615 235.982L128.601 235.952L128.592 235.922L128.586 235.887L128.579 235.856L128.573 235.821L128.569 235.786L128.568 235.75L128.567 235.715L128.566 235.677L128.565 235.638L128.568 235.567L128.573 235.494L128.579 235.42L128.592 235.341L128.605 235.262L128.618 235.183L128.636 235.103L128.652 235.024L128.671 234.945L128.689 234.866L128.726 234.718L128.763 234.579L128.796 234.451L128.824 234.344L128.83 234.298L128.842 234.257L128.846 234.227L128.848 234.199L128.865 233.983L128.881 233.761L128.9 233.54L128.922 233.321L128.944 233.1L128.973 232.878L129.003 232.656L129.035 232.434L129.067 232.213L129.087 232.101L129.104 231.991L129.124 231.881L129.144 231.771L129.167 231.659L129.189 231.549L129.212 231.439L129.235 231.33L129.26 231.22L129.283 231.113L129.311 231.003L129.336 230.893L129.364 230.785L129.397 230.675L129.413 230.616L129.43 230.555L129.443 230.488L129.459 230.419L129.475 230.35L129.491 230.276L129.518 230.123L129.544 229.968L129.568 229.81L129.578 229.728L129.578 229.726L129.57 229.703L129.566 229.68L129.566 229.655L129.567 229.632L129.575 229.609L129.582 229.589L129.597 229.568L129.604 229.56L129.61 229.499L129.629 229.351L129.646 229.216L129.675 228.984L129.691 228.829L129.697 228.773L129.699 228.75L129.706 228.727L129.718 228.706L129.733 228.686L129.751 228.667L129.771 228.651L129.795 228.638L129.818 228.63L129.844 228.624L129.87 228.621L129.893 228.62L129.92 228.624L129.946 228.628L129.967 228.64L129.991 228.655L130.01 228.67L130.029 228.689L130.043 228.709L130.057 228.732L130.063 228.754L130.066 228.777L130.067 228.805L130.072 228.886L130.074 228.942L130.076 229.005L130.075 229.074L130.073 229.147L130.067 229.224L130.066 229.264L130.062 229.305L130.058 229.346L130.051 229.387L130.045 229.427L130.038 229.468L130.027 229.507L130.015 229.547L130 229.586L129.986 229.624L129.966 229.663L129.964 229.668L129.959 229.699L129.939 229.862L129.912 230.025L129.889 230.188L129.857 230.344L129.841 230.423L129.825 230.495L129.81 230.571L129.793 230.64L129.775 230.707L129.758 230.768L129.73 230.876L129.702 230.983L129.677 231.09L129.652 231.195L129.626 231.303L129.601 231.41L129.578 231.517L129.558 231.627L129.536 231.734L129.515 231.841L129.495 231.951L129.475 232.058L129.458 232.168L129.438 232.275L129.406 232.494L129.373 232.714L129.344 232.93L129.319 233.149L129.298 233.368L129.276 233.587L129.257 233.806L129.24 234.024L129.224 234.246L129.22 234.286L129.213 234.33L129.202 234.378L129.191 234.434L129.163 234.547L129.13 234.675L129.093 234.813L129.056 234.959L129.037 235.033L129.021 235.104L129.005 235.181L128.989 235.255L128.973 235.327L128.963 235.398L128.952 235.467L128.946 235.533L128.94 235.597L128.939 235.658L128.94 235.685L128.939 235.711L128.942 235.736L128.943 235.762L128.946 235.784L128.95 235.807L128.953 235.825L128.962 235.86L128.97 235.885L128.979 235.903L128.995 235.92L129 235.92L129.005 235.92L129.011 235.917L129.024 235.911L129.036 235.906L129.049 235.893L129.064 235.88L129.082 235.866L129.1 235.848L129.118 235.83L129.135 235.806L129.156 235.786L129.176 235.76L129.193 235.734L129.213 235.708L129.233 235.679L129.253 235.648L129.273 235.617L129.313 235.547L129.352 235.478L129.392 235.398L129.431 235.318L129.47 235.236L129.507 235.153L129.543 235.068L129.58 234.984L129.614 234.899L129.676 234.732L129.734 234.578L129.83 234.311L129.869 234.211L129.886 234.167L129.901 234.136L129.966 233.982L130.03 233.831L130.093 233.679L130.153 233.53L130.274 233.227L130.393 232.926L130.509 232.626L130.622 232.326L130.736 232.023L130.841 231.723L130.946 231.42L131.049 231.115L131.152 230.81L131.252 230.502L131.352 230.195L131.452 229.885L131.552 229.57L131.651 229.249L131.668 229.198L131.69 229.139L131.711 229.083L131.738 229.023L131.765 228.964L131.792 228.902L131.821 228.843L131.856 228.781L131.923 228.657L131.992 228.531L132.061 228.405L132.133 228.276L132.199 228.149L132.229 228.087L132.258 228.026L132.288 227.966L132.315 227.905L132.339 227.848L132.363 227.789L132.385 227.732L132.402 227.681L132.418 227.63L132.432 227.581L132.444 227.535L132.446 227.515L132.45 227.492L132.45 227.472L132.452 227.451L132.451 227.434L132.453 227.411L132.452 227.388L132.459 227.365L132.467 227.342L132.479 227.321L132.497 227.3L132.514 227.284L132.535 227.269L132.558 227.255L132.584 227.247L132.607 227.244L132.633 227.24L132.652 227.25Z" fill="#007C59"/>
<path fill-rule="evenodd" clip-rule="evenodd" d="M138.925 227.7L138.951 227.705L138.975 227.712L138.999 227.724L139.02 227.738L139.039 227.755L139.056 227.775L139.069 227.795L139.078 227.818L139.084 227.84L139.085 227.866L139.085 227.888L139.078 227.912L139.024 228.091L138.964 228.273L138.848 228.634L138.731 228.995L138.609 229.357L138.49 229.716L138.368 230.075L138.124 230.79L138.002 231.149L137.883 231.508L137.764 231.867L137.644 232.228L137.53 232.589L137.473 232.766L137.416 232.946L137.362 233.127L137.307 233.307L137.253 233.486L137.201 233.668L137.162 233.814L137.119 233.965L137.037 234.267L136.995 234.423L136.953 234.576L136.908 234.73L136.864 234.886L136.816 235.04L136.764 235.193L136.737 235.268L136.711 235.342L136.685 235.419L136.656 235.494L136.626 235.566L136.598 235.643L136.568 235.714L136.534 235.787L136.5 235.859L136.463 235.928L136.426 235.998L136.389 236.065L136.367 236.111L136.339 236.163L136.281 236.294L136.246 236.364L136.212 236.433L136.175 236.503L136.141 236.57L136.121 236.606L136.101 236.637L136.081 236.666L136.061 236.697L136.038 236.723L136.016 236.751L135.995 236.772L135.986 236.8L135.968 236.814L135.95 236.829L135.932 236.838L135.914 236.851L135.906 236.854L135.888 236.859L135.88 236.862L135.86 236.868L135.855 236.87L135.828 236.874L135.823 236.876L135.808 236.877L135.795 236.877L135.787 236.877L135.771 236.875L135.755 236.876L135.75 236.874L135.734 236.871L135.721 236.869L135.713 236.867L135.7 236.862L135.687 236.858L135.679 236.855L135.657 236.841L135.652 236.838L135.633 236.824L135.628 236.819L135.612 236.807L135.606 236.799L135.598 236.787L135.584 236.772L135.571 236.752L135.557 236.735L135.54 236.705L135.526 236.677L135.51 236.65L135.496 236.62L135.482 236.59L135.473 236.56L135.45 236.494L135.432 236.429L135.414 236.361L135.399 236.293L135.389 236.222L135.381 236.146L135.384 236.062L135.379 235.984L135.373 235.905L135.373 235.824L135.371 235.743L135.373 235.659L135.376 235.575L135.378 235.489L135.383 235.403L135.388 235.316L135.399 235.227L135.409 235.138L135.422 235.049L135.435 234.957L135.45 234.865L135.465 234.773L135.481 234.682L135.496 234.59L135.514 234.495L135.55 234.306L135.591 234.117L135.632 233.928L135.675 233.739L135.722 233.553L135.766 233.371L135.812 233.192L135.864 233.015L135.911 232.841L135.955 232.675L136.05 232.358L136.132 232.071L136.208 231.817L136.241 231.707L136.266 231.605L136.299 231.495L136.324 231.383L136.35 231.27L136.375 231.158L136.397 231.045L136.42 230.933L136.44 230.818L136.457 230.704L136.477 230.589L136.492 230.477L136.509 230.362L136.523 230.242L136.535 230.128L136.55 230.013L136.562 229.898L136.571 229.779L136.576 229.751L136.577 229.72L136.591 229.654L136.604 229.583L136.62 229.508L136.654 229.355L136.686 229.207L136.702 229.141L136.704 229.12L136.702 229.118L136.693 229.095L136.687 229.072L136.684 229.047L136.683 229.024L136.688 229.001L136.695 228.978L136.707 228.958L136.722 228.934L136.734 228.916L136.75 228.898L136.757 228.89L136.772 228.877L136.788 228.864L136.79 228.861L136.813 228.848L136.837 228.84L136.86 228.834L136.881 228.831L136.902 228.827L136.925 228.829L136.952 228.834L136.975 228.84L136.999 228.847L137.023 228.864L137.039 228.879L137.056 228.896L137.072 228.916L137.08 228.934L137.089 228.956L137.092 228.971L137.096 228.997L137.096 229.014L137.097 229.035L137.095 229.06L137.091 229.086L137.085 229.142L137.071 229.203L137.055 229.272L137.023 229.42L136.989 229.573L136.972 229.642L136.959 229.709L136.953 229.767L136.948 229.79L136.947 229.813L136.937 229.928L136.925 230.047L136.911 230.167L136.899 230.289L136.882 230.409L136.867 230.529L136.85 230.648L136.831 230.768L136.814 230.888L136.791 231.008L136.769 231.123L136.747 231.243L136.722 231.363L136.694 231.478L136.666 231.593L136.638 231.708L136.61 231.813L136.577 231.923L136.502 232.179L136.417 232.463L136.325 232.781L136.281 232.947L136.234 233.118L136.187 233.292L136.14 233.471L136.094 233.651L136.05 233.832L136.009 234.018L135.968 234.205L135.929 234.386L135.891 234.573L135.875 234.662L135.86 234.754L135.844 234.843L135.829 234.932L135.816 235.022L135.803 235.108L135.79 235.195L135.78 235.282L135.77 235.366L135.764 235.449L135.759 235.531L135.757 235.612L135.754 235.691L135.754 235.77L135.754 235.843L135.756 235.919L135.761 235.988L135.766 236.058L135.77 236.124L135.778 236.188L135.788 236.251L135.797 236.309L135.812 236.367L135.83 236.422L135.833 236.435L135.852 236.398L135.882 236.332L135.916 236.265L135.945 236.198L136.007 236.066L136.036 236.005L136.061 235.953L136.098 235.889L136.132 235.822L136.167 235.757L136.196 235.69L136.225 235.621L136.254 235.551L136.281 235.482L136.31 235.413L136.337 235.343L136.363 235.271L136.387 235.2L136.413 235.125L136.461 234.977L136.506 234.828L136.551 234.675L136.596 234.524L136.638 234.37L136.68 234.219L136.762 233.915L136.801 233.764L136.844 233.615L136.895 233.433L136.95 233.252L137.007 233.07L137.061 232.89L137.118 232.709L137.175 232.529L137.292 232.165L137.408 231.804L137.528 231.445L137.649 231.084L137.771 230.725L138.015 230.009L138.135 229.65L138.257 229.291L138.376 228.933L138.495 228.571L138.609 228.213L138.666 228.033L138.723 227.854L138.736 227.831L138.748 227.81L138.763 227.789L138.783 227.771L138.804 227.757L138.827 227.744L138.85 227.736L138.876 227.73L138.902 227.729L138.925 227.7Z" fill="#007C59"/>
<path fill-rule="evenodd" clip-rule="evenodd" d="M121.697 227.083L121.72 227.087L121.742 227.092L121.763 227.099L121.784 227.111L121.803 227.126L121.819 227.14L121.835 227.158L121.849 227.177L121.857 227.195L121.861 227.218L121.864 227.238L121.865 227.258L121.863 227.279L121.861 227.301L121.854 227.319L121.765 227.5L121.679 227.68L121.591 227.858L121.5 228.038L121.409 228.213L121.318 228.391L121.226 228.569L121.13 228.745L121.034 228.92L120.935 229.093L120.835 229.269L120.736 229.442L120.637 229.615L120.536 229.788L120.434 229.961L120.332 230.134L120.23 230.304L120.129 230.478L119.92 230.819L119.711 231.16L119.499 231.496L119.285 231.838L119.071 232.174L118.857 232.511L118.642 232.847L118.57 232.956L118.505 233.052L118.428 233.168L118.335 233.3L118.232 233.44L118.177 233.513L118.119 233.589L118.062 233.661L118.001 233.734L117.943 233.807L117.883 233.88L117.82 233.948L117.759 234.016L117.698 234.081L117.637 234.141L117.609 234.17L117.579 234.196L117.551 234.222L117.52 234.246L117.492 234.27L117.462 234.294L117.434 234.315L117.403 234.336L117.372 234.355L117.341 234.371L117.305 234.387L117.269 234.401L117.24 234.409L117.222 234.412L117.201 234.416L117.178 234.416L117.16 234.419L117.144 234.42L117.131 234.418L117.112 234.418L117.097 234.416L117.081 234.414L117.065 234.412L117.041 234.405L117.025 234.401L117.004 234.394L116.983 234.382L116.967 234.374L116.948 234.36L116.932 234.348L116.924 234.34L116.916 234.333L116.911 234.328L116.897 234.311L116.892 234.303L116.883 234.288L116.878 234.281L116.872 234.266L116.864 234.248L116.858 234.226L116.849 234.203L116.842 234.163L116.839 234.12L116.837 234.076L116.836 234.031L116.84 233.988L116.843 233.942L116.847 233.893L116.853 233.845L116.86 233.797L116.871 233.748L116.883 233.697L116.905 233.592L116.928 233.49L116.954 233.39L117 233.209L117.037 233.063L117.052 233.014L117.058 232.984L117.073 232.879L117.094 232.772L117.114 232.665L117.136 232.558L117.159 232.45L117.184 232.343L117.21 232.238L117.238 232.131L117.266 232.026L117.294 231.921L117.327 231.816L117.36 231.708L117.394 231.606L117.427 231.501L117.496 231.291L117.565 231.083L117.634 230.875L117.778 230.465L117.85 230.262L117.92 230.06L117.986 229.857L118.02 229.755L118.053 229.652L118.096 229.514L118.143 229.37L118.191 229.234L118.239 229.098L118.295 228.965L118.348 228.831L118.404 228.698L118.463 228.564L118.468 228.546L118.475 228.525L118.489 228.477L118.505 228.418L118.521 228.351L118.535 228.282L118.551 228.211L118.578 228.068L118.591 228.004L118.603 227.946L118.617 227.894L118.631 227.851L118.638 227.83L118.645 227.812L118.648 227.805L118.655 227.792L118.668 227.776L118.68 227.763L118.683 227.76L118.698 227.745L118.716 227.737L118.734 227.723L118.752 227.718L118.77 227.712L118.794 227.706L118.815 227.706L118.836 227.705L118.857 227.707L118.88 227.711L118.902 227.718L118.92 227.725L118.939 227.737L118.958 227.752L118.971 227.764L118.979 227.777L118.993 227.794L119.001 227.809L119.01 227.834L119.016 227.854L119.019 227.875L119.025 227.9L119.026 227.92L119.024 227.94L119.022 227.963L119.015 227.984L119.007 228.002L118.995 228.02L118.98 228.038L118.962 228.054L118.96 228.069L118.946 228.131L118.919 228.273L118.903 228.347L118.887 228.419L118.871 228.491L118.853 228.56L118.834 228.624L118.822 228.652L118.815 228.68L118.756 228.814L118.7 228.947L118.647 229.078L118.594 229.21L118.546 229.343L118.5 229.474L118.455 229.61L118.412 229.745L118.379 229.848L118.343 229.953L118.276 230.161L118.204 230.363L118.135 230.571L117.991 230.981L117.919 231.184L117.85 231.392L117.783 231.594L117.75 231.699L117.717 231.802L117.683 231.904L117.655 232.006L117.627 232.111L117.599 232.214L117.573 232.316L117.548 232.421L117.525 232.523L117.502 232.628L117.479 232.73L117.459 232.832L117.442 232.937L117.424 233.044L117.418 233.087L117.401 233.148L117.361 233.294L117.315 233.473L117.292 233.568L117.269 233.668L117.248 233.762L117.237 233.808L117.23 233.854L117.224 233.897L117.22 233.941L117.216 233.981L117.212 234.017L117.211 234.052L117.211 234.065L117.219 234.062L117.239 234.047L117.26 234.031L117.283 234.012L117.305 233.991L117.328 233.97L117.354 233.949L117.377 233.926L117.432 233.873L117.488 233.813L117.544 233.753L117.602 233.685L117.66 233.62L117.715 233.55L117.773 233.48L117.828 233.407L117.884 233.337L117.939 233.267L118.039 233.127L118.129 232.999L118.207 232.886L118.269 232.792L118.339 232.684L118.553 232.35L118.767 232.013L118.982 231.677L119.193 231.341L119.405 231.004L119.614 230.668L119.82 230.327L119.922 230.156L120.024 229.986L120.126 229.815L120.227 229.642L120.326 229.472L120.426 229.299L120.525 229.126L120.621 228.953L120.718 228.78L120.814 228.607L120.911 228.431L121.002 228.256L121.093 228.081L121.182 227.906L121.273 227.73L121.359 227.553L121.447 227.375L121.533 227.195L121.54 227.177L121.555 227.158L121.57 227.143L121.588 227.127L121.609 227.114L121.629 227.105L121.653 227.1L121.674 227.094L121.697 227.093L121.697 227.083Z" fill="#007C59"/>
<path fill-rule="evenodd" clip-rule="evenodd" d="M136.468 240.041L136.5 240.053L136.529 240.07L136.553 240.09L136.575 240.114L136.592 240.139L136.601 240.169L136.604 240.197L136.607 240.304L136.606 240.413L136.604 240.522L136.6 240.631L136.59 240.741L136.578 240.85L136.566 240.962L136.551 241.072L136.534 241.181L136.516 241.293L136.499 241.403L136.476 241.515L136.456 241.625L136.434 241.735L136.411 241.845L136.386 241.957L136.333 242.177L136.28 242.397L136.171 242.829L136.117 243.044L136.064 243.253L136.018 243.463L135.995 243.565L135.975 243.667L135.923 243.91L135.898 244.032L135.87 244.153L135.845 244.273L135.818 244.393L135.79 244.513L135.763 244.633L135.73 244.748L135.697 244.863L135.664 244.978L135.631 245.091L135.598 245.206L135.562 245.319L135.529 245.432L135.494 245.542L135.455 245.655L135.42 245.765L135.381 245.875L135.346 245.985L135.307 246.093L135.266 246.203L135.228 246.311L135.187 246.419L135.146 246.524L135.105 246.632L135.064 246.737L135.02 246.843L134.976 246.946L134.935 247.051L134.889 247.154L134.845 247.257L134.798 247.36L134.752 247.462L134.706 247.563L134.659 247.666L134.61 247.766L134.563 247.861L134.514 247.962L134.465 248.057L134.411 248.158L134.356 248.253L134.307 248.346L134.25 248.442L134.195 248.535L134.141 248.628L134.083 248.721L134.026 248.814L133.969 248.905L133.909 248.998L133.852 249.088L133.792 249.179L133.729 249.267L133.669 249.358L133.609 249.446L133.547 249.534L133.484 249.622L133.419 249.708L133.356 249.796L133.291 249.882L133.226 249.968L133.161 250.053L133.093 250.139L133.027 250.222L132.959 250.305L132.891 250.389L132.821 250.472L132.753 250.555L132.682 250.636L132.611 250.719L132.538 250.8L132.467 250.876L132.394 250.957L132.321 251.038L132.245 251.114L132.166 251.19L132.093 251.268L132.014 251.344L131.933 251.418L131.854 251.491L131.772 251.564L131.691 251.638L131.61 251.712L131.528 251.785L131.444 251.856L131.36 251.927L131.276 251.998L131.192 252.069L131.105 252.14L131.019 252.209L130.932 252.28L130.845 252.349L130.756 252.417L130.666 252.484L130.577 252.552L130.487 252.618L130.395 252.685L130.306 252.751L130.214 252.817L130.119 252.883L130.027 252.947L129.932 253.013L129.838 253.077L129.743 253.141L129.643 253.202L129.543 253.266L129.443 253.33L129.343 253.391L129.24 253.453L129.14 253.514L129.037 253.576L128.932 253.635L128.829 253.696L128.724 253.755L128.618 253.814L128.513 253.873L128.405 253.932L128.299 253.986L128.194 254.045L128.083 254.099L127.975 254.153L127.864 254.208L127.753 254.262L127.643 254.313L127.529 254.367L127.416 254.419L127.302 254.471L127.189 254.522L127.122 254.552L127.052 254.582L126.982 254.61L126.912 254.637L126.843 254.665L126.77 254.692L126.698 254.717L126.625 254.742L126.553 254.767L126.48 254.792L126.33 254.84L126.177 254.888L126.024 254.931L125.869 254.973L125.71 255.014L125.554 255.049L125.396 255.084L125.235 255.117L125.073 255.15L124.915 255.18L124.754 255.21L124.592 255.238L124.431 255.263L124.269 255.288L124.108 255.313L123.946 255.336L123.787 255.359L123.629 255.381L123.47 255.401L123.157 255.439L122.849 255.471L122.547 255.505L122.252 255.534L122.22 255.538L122.176 255.537L122.129 255.538L122.071 255.537L121.94 255.529L121.788 255.521L121.612 255.508L121.429 255.496L121.035 255.47L120.652 255.441L120.325 255.42L120.196 255.411L120.099 255.409L120.068 255.408L120.05 255.408L120.023 255.411L119.992 255.41L119.96 255.403L119.929 255.389L119.902 255.37L119.88 255.347L119.861 255.323L119.844 255.295L119.838 255.265L119.837 255.237L119.842 255.206L119.856 255.178L119.874 255.152L119.894 255.129L119.922 255.108L119.943 255.099L119.966 255.091L119.989 255.085L119.992 255.085L120.018 255.082L120.042 255.081L120.078 255.082L120.12 255.081L120.225 255.086L120.356 255.094L120.687 255.115L121.069 255.144L121.46 255.17L121.646 255.182L121.817 255.195L121.969 255.203L122.095 255.207L122.142 255.208L122.184 255.209L122.21 255.208L122.226 255.208L122.512 255.176L122.812 255.144L123.117 255.11L123.43 255.075L123.587 255.055L123.743 255.033L123.902 255.01L124.061 254.987L124.22 254.962L124.378 254.94L124.537 254.912L124.693 254.885L124.852 254.857L125.011 254.827L125.167 254.797L125.323 254.764L125.476 254.729L125.629 254.694L125.783 254.659L125.933 254.616L126.081 254.574L126.229 254.531L126.374 254.484L126.443 254.461L126.513 254.436L126.583 254.411L126.65 254.386L126.718 254.362L126.785 254.337L126.852 254.309L126.917 254.282L126.984 254.254L127.048 254.227L127.159 254.176L127.27 254.124L127.384 254.072L127.492 254.021L127.603 253.969L127.711 253.918L127.819 253.864L127.927 253.81L128.035 253.756L128.141 253.702L128.247 253.648L128.352 253.594L128.457 253.535L128.56 253.476L128.663 253.422L128.766 253.363L128.866 253.302L128.966 253.243L129.069 253.181L129.164 253.123L129.264 253.061L129.359 253L129.454 252.939L129.548 252.878L129.641 252.814L129.735 252.75L129.828 252.689L129.92 252.625L130.009 252.559L130.099 252.496L130.188 252.432L130.278 252.366L130.367 252.3L130.454 252.234L130.541 252.168L130.628 252.102L130.715 252.033L130.799 251.964L130.883 251.898L130.967 251.83L131.051 251.759L131.133 251.69L131.214 251.619L131.296 251.551L131.377 251.48L131.456 251.409L131.535 251.336L131.614 251.265L131.692 251.191L131.771 251.118L131.845 251.045L131.918 250.971L131.994 250.898L132.065 250.822L132.139 250.746L132.209 250.668L132.28 250.592L132.349 250.517L132.419 250.436L132.487 250.358L132.555 250.277L132.623 250.196L132.689 250.113L132.754 250.033L132.82 249.949L132.885 249.866L132.95 249.783L133.013 249.7L133.076 249.614L133.139 249.531L133.201 249.445L133.264 249.36L133.324 249.272L133.384 249.186L133.444 249.098L133.501 249.01L133.561 248.922L133.619 248.834L133.676 248.746L133.733 248.655L133.788 248.565L133.842 248.475L133.897 248.384L133.952 248.291L134.006 248.198L134.056 248.105L134.105 248.012L134.154 247.919L134.204 247.824L134.253 247.729L134.3 247.633L134.346 247.538L134.393 247.443L134.439 247.342L134.483 247.242L134.53 247.142L134.574 247.041L134.617 246.939L134.659 246.836L134.702 246.733L134.744 246.63L134.785 246.528L134.826 246.422L134.864 246.317L134.905 246.212L134.944 246.107L134.982 245.999L135.021 245.891L135.057 245.783L135.095 245.676L135.131 245.566L135.166 245.458L135.2 245.348L135.235 245.235L135.268 245.125L135.301 245.012L135.334 244.902L135.367 244.787L135.395 244.674L135.428 244.559L135.456 244.447L135.483 244.332L135.511 244.214L135.536 244.099L135.561 243.979L135.586 243.859L135.639 243.619L135.661 243.514L135.682 243.41L135.732 243.198L135.786 242.985L135.839 242.77L135.948 242.336L136.001 242.119L136.054 241.901L136.077 241.794L136.1 241.687L136.122 241.577L136.143 241.47L136.163 241.363L136.18 241.255L136.198 241.148L136.212 241.041L136.227 240.934L136.24 240.83L136.252 240.725L136.257 240.621L136.261 240.517L136.263 240.413L136.265 240.311L136.262 240.21L136.263 240.179L136.275 240.151L136.29 240.123L136.31 240.099L136.336 240.076L136.361 240.06L136.392 240.046L136.429 240.04L136.46 240.042L136.468 240.041Z" fill="#007C59"/>
<path fill-rule="evenodd" clip-rule="evenodd" d="M145.157 228.259L145.191 228.489L145.222 228.719L145.25 228.949L145.275 229.177L145.298 229.404L145.319 229.632L145.339 229.857L145.354 230.085L145.364 230.311L145.372 230.483L145.374 230.534L145.381 230.759L145.388 230.982L145.39 231.196L145.391 231.208L145.392 231.429L145.387 231.655L145.381 231.876L145.375 232.102L145.364 232.323L145.352 232.547L145.349 232.603L145.339 232.77L145.325 232.992L145.309 233.218L145.29 233.444L145.271 233.666L145.249 233.892L145.228 234.116L145.205 234.317L145.203 234.34L145.179 234.567L145.15 234.796L145.121 235.023L145.089 235.252L145.057 235.481L145.044 235.566L145.029 235.673L145.012 235.8L144.996 235.945L144.982 236.014L144.972 236.101L144.946 236.266L144.92 236.437L144.905 236.524L144.889 236.608L144.871 236.695L144.853 236.779L144.834 236.861L144.813 236.943L144.795 237.022L144.771 237.096L144.75 237.168L144.726 237.237L144.702 237.302L144.687 237.332L144.682 237.345L144.675 237.363L144.663 237.389L144.648 237.417L144.633 237.441L144.616 237.464L144.601 237.487L144.586 237.508L144.568 237.529L144.553 237.547L144.535 237.563L144.517 237.579L144.499 237.592L144.481 237.6L144.463 237.608L144.442 237.614L144.424 237.62L144.403 237.62L144.385 237.621L144.367 237.619L144.348 237.617L144.33 237.612L144.311 237.605L144.293 237.598L144.274 237.586L144.258 237.571L144.239 237.557L144.223 237.542L144.207 237.525L144.188 237.507L144.171 237.488L144.155 237.468L144.141 237.448L144.125 237.426L144.095 237.378L144.067 237.331L144.042 237.276L144.016 237.218L143.991 237.161L143.965 237.1L143.943 237.04L143.92 236.98L143.911 236.95L143.902 236.922L143.882 236.862L143.862 236.802L143.844 236.744L143.83 236.625L143.803 236.527L143.782 236.446L143.758 236.343L143.727 236.199L143.696 236.053L143.668 235.909L143.637 235.763L143.637 235.76L143.611 235.614L143.583 235.468L143.557 235.319L143.532 235.172L143.506 235.023L143.483 234.872L143.46 234.723L143.437 234.574L143.416 234.422L143.396 234.273L143.375 234.121L143.357 233.972L143.339 233.821L143.326 233.669L143.314 233.517L143.304 233.367L143.294 233.215L143.283 233.063L143.276 232.914L143.268 232.762L143.264 232.612L143.262 232.552L143.259 232.463L143.257 232.313L143.257 232.161L143.255 232.014L143.258 231.864L143.261 231.714L143.264 231.567L143.274 231.391L143.284 231.219L143.294 231.046L143.307 230.87L143.315 230.697L143.317 230.611L143.32 230.525L143.322 230.436L143.322 230.35L143.321 230.322L143.322 230.263L143.319 230.175L143.317 230.132L143.313 230.081L143.309 230.023L143.301 229.959L143.284 229.831L143.267 229.704L143.251 229.598L143.243 229.527L143.242 229.507L143.242 229.504L143.245 229.502L143.245 229.499L143.247 229.497L143.263 229.501L143.266 229.514L143.275 229.544L143.27 229.552L143.265 229.549L143.271 229.597L143.288 229.701L143.308 229.827L143.325 229.956L143.332 230.019L143.339 230.078L143.344 230.133L143.345 230.176L143.348 230.265L143.35 230.323L143.351 230.351L143.351 230.44L143.348 230.526L143.349 230.613L143.346 230.702L143.336 230.874L143.326 231.047L143.316 231.223L143.303 231.396L143.296 231.571L143.287 231.718L143.287 231.866L143.284 232.015L143.286 232.165L143.286 232.315L143.29 232.464L143.291 232.553L143.293 232.614L143.3 232.764L143.305 232.916L143.312 233.065L143.322 233.217L143.332 233.367L143.345 233.518L143.355 233.67L143.373 233.82L143.386 233.971L143.406 234.12L143.424 234.272L143.445 234.421L143.465 234.573L143.489 234.722L143.512 234.871L143.535 235.02L143.56 235.169L143.586 235.318L143.612 235.467L143.64 235.613L143.668 235.759L143.697 235.906L143.725 236.052L143.756 236.196L143.784 236.34L143.808 236.443L143.829 236.524L143.856 236.622L143.885 236.73L143.903 236.788L143.923 236.848L143.943 236.908L143.964 236.969L143.987 237.029L144.01 237.089L144.032 237.147L144.058 237.204L144.083 237.262L144.108 237.312L144.136 237.362L144.164 237.407L144.18 237.429L144.196 237.449L144.21 237.469L144.226 237.486L144.243 237.503L144.259 237.52L144.275 237.535L144.291 237.55L144.307 237.562L144.326 237.569L144.342 237.576L144.358 237.583L144.374 237.588L144.389 237.59L144.408 237.592L144.423 237.592L144.442 237.589L144.457 237.586L144.475 237.58L144.491 237.574L144.509 237.566L144.524 237.553L144.542 237.54L144.557 237.524L144.572 237.506L144.588 237.488L144.605 237.467L144.62 237.444L144.635 237.423L144.65 237.397L144.665 237.371L144.677 237.345L144.684 237.327L144.689 237.315L144.704 237.284L144.728 237.22L144.75 237.153L144.773 237.081L144.795 237.007L144.813 236.928L144.834 236.848L144.852 236.764L144.87 236.68L144.886 236.596L144.902 236.509L144.917 236.422L144.943 236.254L144.966 236.088L144.979 236.001L144.99 235.933L145.007 235.788L145.023 235.66L145.036 235.553L145.049 235.469L145.081 235.24L145.11 235.01L145.139 234.781L145.163 234.557L145.187 234.331L145.189 234.308L145.209 234.102L145.23 233.88L145.249 233.654L145.268 233.427L145.285 233.206L145.301 232.98L145.315 232.758L145.322 232.591L145.326 232.532L145.337 232.311L145.346 232.09L145.351 231.864L145.357 231.643L145.358 231.422L145.356 231.199L145.356 231.186L145.354 230.973L145.35 230.753L145.345 230.527L145.343 230.476L145.338 230.304L145.328 230.078L145.316 229.853L145.3 229.625L145.291 229.496L145.285 229.397L145.262 229.169L145.239 228.942L145.214 228.714L145.185 228.484L145.154 228.254L145.167 228.238L145.157 228.259Z" fill="#007C59"/>
<path fill-rule="evenodd" clip-rule="evenodd" d="M138.91 240.524L138.791 241.063L138.672 241.602L138.572 242.051L138.549 242.146L138.487 242.419L138.422 242.693L138.358 242.966L138.293 243.24L138.226 243.513L138.154 243.789L138.087 244.063L138.012 244.337L137.937 244.611L137.862 244.884L137.784 245.156L137.704 245.43L137.624 245.701L137.539 245.973L137.456 246.239L137.367 246.511L137.274 246.775L137.18 247.042L137.084 247.306L137.036 247.437L136.988 247.57L136.94 247.701L136.887 247.832L136.833 247.961L136.78 248.092L136.726 248.223L136.712 248.251L136.67 248.351L136.614 248.48L136.558 248.611L136.502 248.737L136.444 248.866L136.385 248.994L136.326 249.12L136.265 249.249L136.206 249.375L136.145 249.502L136.081 249.625L136.019 249.751L135.955 249.875L135.889 249.999L135.825 250.123L135.758 250.247L135.691 250.37L135.622 250.492L135.555 250.613L135.483 250.734L135.414 250.851L135.342 250.972L135.267 251.089L135.195 251.205L135.117 251.322L135.037 251.436L134.96 251.55L134.88 251.664L134.8 251.778L134.739 251.858L134.717 251.889L134.634 252.001L134.551 252.113L134.466 252.224L134.38 252.334L134.292 252.443L134.204 252.552L134.116 252.659L134.025 252.766L133.935 252.872L133.844 252.979L133.75 253.083L133.652 253.188L133.553 253.29L133.474 253.373L133.454 253.394L133.355 253.496L133.251 253.593L133.15 253.69L133.046 253.787L132.941 253.884L132.834 253.979L132.725 254.074L132.618 254.168L132.509 254.26L132.396 254.35L132.284 254.442L132.169 254.532L132.133 254.558L132.052 254.622L131.937 254.709L131.814 254.796L131.694 254.881L131.571 254.966L131.445 255.051L131.32 255.134L131.194 255.216L131.066 255.299L130.935 255.376L130.819 255.443L130.804 255.451L130.673 255.526L130.539 255.601L130.403 255.674L130.267 255.747L130.164 255.801L130.061 255.852L129.957 255.901L129.852 255.95L129.749 255.998L129.646 256.047L129.542 256.093L129.437 256.14L129.333 256.183L129.295 256.202L129.228 256.23L129.124 256.274L129.018 256.315L128.915 256.358L128.809 256.4L128.706 256.441L128.6 256.48L128.39 256.557L128.181 256.629L127.968 256.702L127.759 256.772L127.546 256.841L127.336 256.909L127.124 256.973L126.911 257.038L126.702 257.103L126.489 257.165L126.069 257.287L125.986 257.312L125.649 257.409L125.229 257.531L125.016 257.593L124.806 257.658L124.597 257.722L124.387 257.787L124.177 257.854L123.967 257.924L123.757 257.994L123.548 258.066L123.517 258.08L123.486 258.088L123.449 258.097L123.418 258.106L123.382 258.112L123.345 258.121L123.309 258.124L123.272 258.13L123.233 258.137L123.197 258.14L123.124 258.148L123.051 258.15L122.975 258.152L122.902 258.154L122.826 258.151L122.75 258.149L122.671 258.143L122.595 258.133L122.513 258.123L122.437 258.112L122.358 258.1L122.282 258.084L122.206 258.071L122.132 258.053L122.055 258.038L121.981 258.02L121.908 258.002L121.765 257.965L121.625 257.929L121.491 257.89L121.247 257.819L121.234 257.816L121.213 257.815L121.19 257.813L121.163 257.811L121.095 257.813L121.014 257.813L120.834 257.818L120.831 257.818L120.737 257.821L120.643 257.822L120.549 257.822L120.504 257.821L120.462 257.819L120.42 257.816L120.413 257.816L120.384 257.812L120.352 257.808L120.321 257.801L120.294 257.794L120.27 257.787L120.257 257.783L120.249 257.778L120.241 257.773L120.236 257.768L120.23 257.761L120.227 257.756L120.225 257.748L120.224 257.74L120.224 257.728L120.229 257.72L120.231 257.712L120.239 257.704L120.252 257.704L120.255 257.717L120.25 257.722L120.248 257.73L120.245 257.735L120.245 257.74L120.251 257.752L120.259 257.76L120.275 257.767L120.28 257.769L120.304 257.776L120.33 257.78L120.359 257.782L120.391 257.784L120.467 257.786L120.508 257.788L120.553 257.786L120.645 257.786L120.739 257.783L120.833 257.78L121.016 257.772L121.097 257.772L121.167 257.77L121.196 257.772L121.222 257.774L121.243 257.776L121.265 257.78L121.508 257.851L121.642 257.888L121.779 257.924L121.927 257.96L121.998 257.979L122.072 257.997L122.146 258.012L122.225 258.028L122.299 258.043L122.375 258.056L122.454 258.069L122.53 258.079L122.604 258.09L122.68 258.095L122.756 258.1L122.829 258.103L122.905 258.106L122.979 258.104L123.049 258.102L123.122 258.097L123.193 258.092L123.229 258.086L123.266 258.082L123.297 258.076L123.333 258.07L123.365 258.064L123.401 258.058L123.432 258.049L123.463 258.041L123.494 258.032L123.526 258.024L123.73 257.949L123.94 257.879L124.149 257.809L124.359 257.742L124.569 257.675L124.779 257.61L124.991 257.545L125.201 257.481L125.621 257.359L125.958 257.26L126.041 257.235L126.461 257.113L126.674 257.048L126.884 256.986L127.093 256.921L127.306 256.854L127.516 256.787L127.725 256.717L127.938 256.647L128.147 256.575L128.357 256.5L128.567 256.425L128.67 256.384L128.773 256.342L128.879 256.301L128.983 256.26L129.086 256.216L129.192 256.173L129.256 256.145L129.295 256.129L129.398 256.083L129.501 256.036L129.604 255.99L129.708 255.944L129.811 255.895L129.914 255.846L130.017 255.795L130.12 255.746L130.223 255.692L130.359 255.62L130.493 255.547L130.627 255.474L130.758 255.399L130.773 255.391L130.889 255.322L131.017 255.242L131.143 255.164L131.271 255.082L131.394 255L131.52 254.917L131.64 254.832L131.763 254.747L131.883 254.66L131.998 254.573L132.08 254.509L132.115 254.485L132.228 254.396L132.34 254.306L132.452 254.214L132.562 254.122L132.669 254.03L132.775 253.935L132.882 253.841L132.987 253.746L133.091 253.651L133.192 253.555L133.294 253.452L133.395 253.356L133.416 253.335L133.494 253.254L133.593 253.149L133.686 253.047L133.78 252.943L133.873 252.839L133.964 252.732L134.052 252.625L134.143 252.518L134.231 252.412L134.317 252.302L134.402 252.193L134.488 252.084L134.573 251.972L134.656 251.861L134.678 251.83L134.736 251.749L134.819 251.638L134.899 251.524L134.976 251.41L135.054 251.296L135.131 251.182L135.208 251.065L135.281 250.949L135.353 250.832L135.427 250.711L135.497 250.595L135.566 250.473L135.633 250.352L135.702 250.23L135.769 250.107L135.833 249.983L135.9 249.859L135.964 249.735L136.028 249.612L136.089 249.488L136.151 249.362L136.212 249.236L136.273 249.109L136.332 248.983L136.391 248.855L136.45 248.728L136.508 248.6L136.564 248.471L136.62 248.343L136.662 248.242L136.676 248.212L136.73 248.083L136.783 247.955L136.837 247.824L136.89 247.693L136.943 247.561L136.991 247.431L137.04 247.3L137.138 247.035L137.232 246.771L137.325 246.504L137.414 246.238L137.499 245.971L137.585 245.7L137.668 245.428L137.748 245.157L137.825 244.883L137.903 244.612L137.978 244.338L138.053 244.064L138.125 243.79L138.198 243.517L138.267 243.243L138.334 242.969L138.399 242.696L138.463 242.423L138.528 242.149L138.551 242.054L138.654 241.607L138.778 241.068L138.9 240.529L138.91 240.524Z" fill="#007C59"/>
</g>
<path fill-rule="evenodd" clip-rule="evenodd" d="M68.4601 310.129C69.056 310.725 72.6268 314.211 66.75 313.093C63.7445 312.52 54.6085 312.608 46.3156 318.914C42.4729 321.837 41.6908 322.155 38.6421 322.057C36.5295 321.991 36.2409 319.841 35.0411 318.933C58.9972 301.651 72.9364 300.575 74.5769 300.636C76.4067 304.558 74.5571 305.278 76.221 306.574C76.2058 307.824 70.6054 309.721 68.4601 310.129Z" fill="#001C0C"/>
<mask id="mask3_245_12324" style="mask-type:luminance" maskUnits="userSpaceOnUse" x="35" y="300" width="42" height="23">
<path d="M68.466 310.128C69.0619 310.724 72.6326 314.21 66.7559 313.092C63.7504 312.519 54.6143 312.607 46.3214 318.913C42.4788 321.836 41.6966 322.154 38.648 322.056C36.5354 321.99 36.2467 319.84 35.0469 318.932C59.003 301.65 72.9422 300.574 74.5828 300.635C76.4126 304.558 74.563 305.278 76.2269 306.574C76.2116 307.823 70.6113 309.721 68.466 310.128Z" fill="white"/>
</mask>
<g mask="url(#mask3_245_12324)">
<path d="M67.3381 305.004C68.2748 304.858 69.221 304.74 70.1781 304.653C73.3238 304.222 77.8963 303.973 78.0663 303.962C81.4045 303.812 85.3293 298.541 72.1081 300.31C54.9696 301.055 41.0975 310.247 29.2162 321.172L25.3651 325.251L25.3394 326.218L27.4515 325.315C29.3912 323.773 31.2818 322.206 33.1865 320.581L31.3626 323.461C31.0915 324.541 31.3132 324.852 32.5768 325.093C34.8253 325.179 34.6992 323.589 34.6992 323.589C36.7637 321.313 39.0307 319.13 41.4793 317.104C44.2829 316.293 55.3772 315.053 60.9417 310.173C60.9417 310.173 64.1507 307.911 65.6854 306.535C66.2486 306.032 66.8014 305.522 67.3381 305.004ZM44.484 314.769C50.2431 310.567 56.8589 307.277 64.0958 305.626C62.223 307.535 60.3393 309.15 58.316 310.814C55.875 312.818 52.9885 313.288 51.9217 313.527C49.9095 313.942 48.7956 313.908 47.7111 314.119C46.6375 314.326 45.5562 314.538 44.484 314.769ZM62.8291 308.251L64.4496 307.02C64.4496 307.02 62.5775 308.505 62.8291 308.251Z" fill="#EBEEEE"/>
</g>
<path fill-rule="evenodd" clip-rule="evenodd" d="M90.5223 314.687C91.1776 315.278 95.0993 318.73 88.8944 317.832C85.721 317.371 76.1734 317.864 67.8433 324.76C63.9835 327.956 63.1829 328.319 59.99 328.352C57.7776 328.376 57.3596 326.163 56.0561 325.276C80.1701 306.326 94.6863 304.598 96.4049 304.588C98.5301 308.569 96.6351 309.396 98.4448 310.665C98.4958 311.961 92.7433 314.171 90.5223 314.687Z" fill="#001C0C"/>
<mask id="mask4_245_12324" style="mask-type:luminance" maskUnits="userSpaceOnUse" x="56" y="304" width="43" height="25">
<path d="M90.5086 314.685C91.1639 315.276 95.0857 318.728 88.8808 317.83C85.7073 317.369 76.1597 317.862 67.8296 324.758C63.9698 327.954 63.1692 328.317 59.9764 328.35C57.7639 328.375 57.3459 326.161 56.0424 325.274C80.1564 306.324 94.6727 304.596 96.3912 304.586C98.5164 308.567 96.6214 309.394 98.4311 310.663C98.4822 311.959 92.7297 314.169 90.5086 314.685Z" fill="white"/>
</mask>
<g mask="url(#mask4_245_12324)">
<path d="M89.0561 309.438C90.0276 309.245 91.0105 309.081 92.0065 308.949C95.2723 308.364 100.04 307.905 100.217 307.885C103.699 307.583 107.518 301.952 93.7899 304.367C75.9107 305.894 61.903 316.023 50.0705 327.859L46.2642 332.251L46.2895 333.254L48.4492 332.226C50.3939 330.544 52.286 328.838 54.1897 327.072L52.4384 330.134C52.2133 331.264 52.4618 331.576 53.796 331.77C56.1515 331.76 55.9339 330.119 55.9339 330.119C57.9695 327.672 60.2219 325.312 62.6725 323.106C65.5602 322.142 77.093 320.369 82.6474 315.072C82.6474 315.072 85.8804 312.588 87.4107 311.096C87.9707 310.549 88.5212 309.997 89.0561 309.438ZM65.6863 320.555C71.4808 315.95 78.2204 312.252 85.6979 310.224C83.8428 312.283 81.9606 314.038 79.935 315.85C77.491 318.033 74.4984 318.647 73.3959 318.941C71.3144 319.459 70.1478 319.473 69.0253 319.739C67.914 320.001 66.7967 320.269 65.6863 320.555ZM84.5161 312.996L86.1457 311.65C86.1457 311.65 84.2659 313.272 84.5161 312.996Z" fill="#EBEEEE"/>
</g>
<path fill-rule="evenodd" clip-rule="evenodd" d="M197.913 143.152C198.85 155.953 196.973 167.05 192.47 168.159L180.927 167.935L176.696 176.144C176.696 176.144 172.245 185.283 174.63 198.161C176.095 206.067 171.9 213.102 166.682 244.827C166.682 244.827 151.08 249.034 120.038 224.869C120.038 224.869 129.888 218.201 130.376 215.531C132.571 203.461 131.435 183.011 143.414 169.744C150.672 161.705 175.683 166.436 168.3 160.719C158.719 153.299 157.606 131.536 171.664 127.177C196.657 119.43 196.817 128.222 197.913 143.152Z" fill="#FFAAAC"/>
<mask id="mask5_245_12324" style="mask-type:luminance" maskUnits="userSpaceOnUse" x="120" y="124" width="79" height="122">
<path d="M197.911 143.154C198.849 155.955 196.971 167.052 192.468 168.162L180.925 167.937L176.694 176.146C176.694 176.146 172.243 185.285 174.628 198.163C176.093 206.069 171.898 213.104 166.68 244.829C166.68 244.829 151.078 249.036 120.036 224.872C120.036 224.872 129.887 218.204 130.374 215.533C132.569 203.463 131.433 183.013 143.412 169.746C150.67 161.707 175.681 166.438 168.298 160.721C158.717 153.302 157.604 131.538 171.662 127.18C196.655 119.432 196.815 128.225 197.911 143.154Z" fill="white"/>
</mask>
<g mask="url(#mask5_245_12324)">
<path fill-rule="evenodd" clip-rule="evenodd" d="M149.8 163.578C149.8 163.578 155.696 185.939 141.846 201.207C133.244 210.692 125.791 199.205 125.791 199.205L110.71 232.909L169.787 252.283C169.787 252.283 194.761 206.957 180.08 176.429C180.08 176.429 168.721 182.882 159.45 162.838C157.691 159.034 151.319 168.235 149.8 163.578Z" fill="#FA5D7A"/>
</g>
<path fill-rule="evenodd" clip-rule="evenodd" d="M126.983 191.036C124.65 176.176 140.264 160.609 144.433 169.176C147.777 176.05 155.546 207.17 158.246 221.476C159.105 226.026 205.095 219.843 214.671 216.216C219.277 214.47 224.604 217.401 228.319 217.526C228.319 217.526 156.609 253.117 147.175 237.972C142.947 231.179 129.88 209.486 126.983 191.036Z" fill="#FFAAAC"/>
<path fill-rule="evenodd" clip-rule="evenodd" d="M234.328 225.156C230.7 225.099 208.837 223.395 208.29 223.091C207.952 222.905 212.159 217.234 215.102 216.059C220.159 214.038 225.967 215.733 227.567 215.758C230.056 215.799 232.494 215.503 234.932 215.116C237.03 214.782 242.99 213.248 242.913 213.66C242.807 214.208 242.133 214.56 241.625 214.803C239.709 215.723 237.824 216.639 235.67 217.232C234.967 217.424 234.268 217.618 233.567 217.81C233.207 217.909 232.506 218.152 232.506 218.152C232.506 218.152 233.265 218.07 233.644 218.036C234.37 217.968 235.113 217.765 235.842 217.728C237.986 217.619 244.08 216.225 244.976 216.352C245.223 216.389 245.874 216.35 245.794 216.769C245.682 217.356 241.381 218.759 240.199 219.037C237.716 219.625 235.028 220.371 234.355 220.557C234.273 220.579 233.681 220.682 233.636 220.755C233.568 220.868 234.24 220.82 234.278 220.825C234.871 220.91 246.384 220.344 246.196 220.658C245.768 221.37 244.54 221.656 243.598 221.915C241.215 222.57 238.628 222.698 236.121 222.884C235.265 222.95 234.416 222.993 233.553 223.098C233.419 223.115 232.662 223.087 232.582 223.215C232.533 223.297 233.135 223.23 233.212 223.241C233.686 223.307 234.385 223.236 234.922 223.313C236.863 223.588 239.102 223.515 241.075 223.545C241.875 223.558 244.062 223.413 244.107 223.699C244.251 224.628 235.907 225.183 234.328 225.156Z" fill="#FFAAAC"/>
<path fill-rule="evenodd" clip-rule="evenodd" d="M219.515 220.653L215.094 216.061C215.094 216.061 219.71 213.659 222.87 210.188C226.031 206.716 226.016 208.241 226.002 209.1C225.99 209.958 223.388 214.408 223.89 215.859C224.394 217.308 219.515 220.653 219.515 220.653Z" fill="#FFAAAC"/>
<path fill-rule="evenodd" clip-rule="evenodd" d="M188.402 121.79C188.402 121.79 196.339 120.877 201.436 126.213C206.533 131.55 202.752 139.166 199.404 145.359C199.404 145.359 190.331 147.212 186.064 139.643C186.064 139.643 168.277 154.068 172.383 169.973C176.672 186.592 187.71 183.44 186.755 197.226C185.795 211.083 161.762 220.352 148.777 203.737C139.018 191.252 143.457 174.331 146.658 163.179C146.708 163.001 143.744 164.125 139.833 167.914C130.476 176.98 127.938 198.89 127.895 198.813C109.723 167.001 136.603 162.702 141.933 149.344C146.315 138.369 143.676 125.18 159.886 118.667C172.723 113.51 181.29 118.697 188.402 121.79Z" fill="#002E19"/>
<path fill-rule="evenodd" clip-rule="evenodd" d="M307.43 49.4161C307.43 49.4161 300.599 49.4582 298.165 48.6977C294.107 47.4321 288.927 46.2536 288.38 38.5192C288.311 37.5367 282.946 36.5156 282.294 42.6009C282.079 44.6114 283.515 47.9562 283.515 47.9562L272.818 47.9222C272.818 47.9222 268.379 48.218 268.153 51.1788C267.926 54.1401 270.904 54.3154 270.904 54.3154C270.904 54.3154 267.232 54.5685 266.969 57.0634C266.599 60.554 270.476 61.344 270.476 61.344C270.476 61.344 266.863 61.6155 266.903 64.1456C266.957 67.6184 270.708 68.3368 274.047 68.4135C277.386 68.4896 306.942 69.1042 306.942 69.1042L307.43 49.4161Z" fill="#F3EEEF"/>
<path fill-rule="evenodd" clip-rule="evenodd" d="M302.285 49.0481L302.152 53.4722L301.686 69.0689C301.686 69.0689 301.691 70.0762 302.74 70.0808L311.668 70.2647C311.668 70.2647 313.411 70.3518 313.555 68.9928C313.695 67.6655 313.839 49.7486 313.839 49.7486C313.839 49.7486 314.086 48.3158 312.632 47.9976C311.179 47.6799 303.795 47.7773 303.795 47.7773C303.795 47.7773 302.429 47.5184 302.285 49.0481Z" fill="#FA5D7A"/>
<path d="M307.977 52.0005C307.504 51.9792 307.101 52.3101 307.077 52.7395C307.054 53.1688 307.419 53.5341 307.892 53.5554C308.366 53.5766 308.769 53.2458 308.792 52.8164C308.816 52.387 308.451 52.0217 307.977 52.0005Z" fill="#F3EEEF"/>
<path fill-rule="evenodd" clip-rule="evenodd" d="M118.315 116.301L119.506 119.529L122.726 120.724L119.506 121.919L118.315 125.147L117.123 121.919L113.902 120.724L117.123 119.529L118.315 116.301Z" fill="#B7B7B7"/>
<path fill-rule="evenodd" clip-rule="evenodd" d="M331.535 175.05L332.727 178.278L335.947 179.473L332.727 180.668L331.535 183.896L330.343 180.668L327.123 179.473L330.343 178.278L331.535 175.05Z" fill="#B7B7B7"/>
<path fill-rule="evenodd" clip-rule="evenodd" d="M217.443 63.4932L218.635 66.7215L221.855 67.9163L218.635 69.111L217.443 72.3394L216.252 69.111L213.031 67.9163L216.252 66.7215L217.443 63.4932Z" fill="#B7B7B7"/>
<path fill-rule="evenodd" clip-rule="evenodd" d="M155.294 26.5139L155.94 28.0653L157.685 28.6395L155.94 29.2137L155.294 30.7651L154.648 29.2137L152.902 28.6395L154.648 28.0653L155.294 26.5139Z" fill="#B7B7B7"/>
<path fill-rule="evenodd" clip-rule="evenodd" d="M385.608 65.7891L386.254 67.3405L388 67.9147L386.254 68.4889L385.608 70.0403L384.962 68.4889L383.217 67.9147L384.962 67.3405L385.608 65.7891Z" fill="#B7B7B7"/>
<path fill-rule="evenodd" clip-rule="evenodd" d="M360.12 96.6787L360.766 98.2301L362.511 98.8043L360.766 99.3785L360.12 100.93L359.474 99.3785L357.729 98.8043L359.474 98.2301L360.12 96.6787Z" fill="#B7B7B7"/>
<path fill-rule="evenodd" clip-rule="evenodd" d="M289.395 13.3994L290.041 14.9509L291.787 15.5251L290.041 16.0992L289.395 17.6507L288.749 16.0992L287.004 15.5251L288.749 14.9509L289.395 13.3994Z" fill="#B7B7B7"/>
<path fill-rule="evenodd" clip-rule="evenodd" d="M63.3193 118.605L63.9651 120.156L65.7106 120.73L63.9651 121.304L63.3193 122.856L62.6733 121.304L60.9277 120.73L62.6733 120.156L63.3193 118.605Z" fill="#B7B7B7"/>
</svg>
