<svg width="32" height="32" viewBox="0 0 32 32" fill="none" xmlns="http://www.w3.org/2000/svg">
<path d="M26.4263 30.0002C27.1704 30.0002 27.895 29.7258 28.4531 29.2243C29.0933 28.6496 29.46 27.8273 29.46 26.9685V5.03193C29.46 4.17304 29.0933 3.35078 28.4531 2.77607C27.8145 2.20234 26.9585 1.9289 26.105 2.01728L10.8462 3.62763C9.29932 3.79267 8.13281 5.08857 8.13281 6.64179V9.31123C8.13281 9.86341 8.58044 10.311 9.13263 10.3112C9.13257 10.3112 9.13269 10.3112 9.13263 10.3112C9.68488 10.3112 10.1328 9.86347 10.1328 9.31123V6.64179C10.1328 6.11347 10.5308 5.67255 11.0571 5.6164L26.3169 4.00605C26.6099 3.97675 26.8955 4.06513 27.1167 4.26386C27.3379 4.46259 27.46 4.73554 27.46 5.03193V26.9685C27.46 27.2648 27.3379 27.5378 27.1167 27.7365C26.8965 27.9348 26.6118 28.0305 26.3149 27.9938L11.0581 26.3845C10.5308 26.3278 10.1328 25.8869 10.1328 25.3586V22.6892C10.1328 22.1369 9.68506 21.6892 9.13281 21.6892C9.13275 21.6892 9.13287 21.6892 9.13281 21.6892C8.58063 21.6893 8.13281 22.137 8.13281 22.6892V25.3586C8.13281 26.9118 9.29932 28.2077 10.8472 28.3732L26.103 29.9826C26.2109 29.9943 26.3188 30.0002 26.4263 30.0002Z" fill="#FF725E"/>
<path d="M16.1006 21.9933C16.3062 22.0816 16.5229 22.1251 16.7383 22.1251C17.1411 22.1251 17.5386 21.9732 17.8433 21.6852L22.1543 17.6153C22.5967 17.1974 22.8506 16.609 22.8506 16.0006C22.8506 15.3922 22.5967 14.8038 22.1543 14.3858L17.8433 10.316C17.3755 9.87412 16.6914 9.75498 16.1006 10.0079C15.5093 10.2628 15.1274 10.8434 15.1274 11.4869V12.3146H4.55859C3.44629 12.3146 2.54102 13.2193 2.54102 14.3316V17.6695C2.54102 18.7818 3.44629 19.6866 4.55859 19.6866H15.1274V20.5143C15.1274 21.1578 15.5093 21.7384 16.1006 21.9933Z" fill="#FF725E"/>
</svg>
