<svg width="36" height="36" viewBox="0 0 36 36" fill="none" xmlns="http://www.w3.org/2000/svg">
<g clip-path="url(#clip0_608_7352)">
<g clip-path="url(#clip1_608_7352)">
<path fill-rule="evenodd" clip-rule="evenodd" d="M24.1105 31.1695C24.1105 32.3963 23.1065 33.4004 21.8797 33.4004H8.59611C7.36917 33.4004 6.36523 32.3965 6.36523 31.1695V4.88127C6.36523 3.65427 7.36917 2.65039 8.59611 2.65039H10.4086L11.0025 4.47833C11.0877 4.74027 11.3215 4.9102 11.5969 4.9102H18.8787C19.1541 4.9102 19.388 4.74027 19.4731 4.47833L20.0671 2.65039H21.8796C23.1066 2.65039 24.1105 3.65439 24.1105 4.88127V9.09702C23.0862 8.61608 21.9429 8.34683 20.7365 8.34683C16.3465 8.34683 12.7869 11.9064 12.7869 16.2964C12.7869 20.6864 16.3465 24.246 20.7365 24.246C21.9127 24.246 23.0614 23.9884 24.1105 23.4961L24.1105 31.1695ZM20.7365 9.59677C17.0365 9.59677 14.0369 12.5963 14.0369 16.2963C14.0369 19.9965 17.0365 22.996 20.7365 22.996C22.249 22.996 23.6442 22.4946 24.7655 21.6493L26.3717 23.2554C26.1819 23.5839 26.227 24.0136 26.5073 24.2939L31.1564 28.943C31.4905 29.2771 32.0374 29.2771 32.3715 28.943L33.3832 27.9313C33.7174 27.5971 33.7174 27.0503 33.3832 26.7161L28.7342 22.067C28.4539 21.7868 28.0242 21.7416 27.6957 21.9314L26.0895 20.3253C26.9349 19.204 27.4362 17.8088 27.4362 16.2963C27.4361 12.5963 24.4367 9.59677 20.7365 9.59677ZM20.7365 11.4568C18.0637 11.4568 15.897 13.6235 15.897 16.2963C15.897 18.9691 18.0638 21.1359 20.7365 21.1359C23.4094 21.1359 25.5761 18.9691 25.5761 16.2963C25.5761 13.6236 23.4094 11.4568 20.7365 11.4568ZM15.2379 28.3636C14.5302 28.3636 13.9566 28.9373 13.9566 29.6449C13.9566 30.3525 14.5302 30.9261 15.2379 30.9261C15.9455 30.9261 16.5191 30.3525 16.5191 29.6449C16.5191 28.9373 15.9455 28.3636 15.2379 28.3636Z" fill="#FF725E"/>
</g>
</g>
<defs>
<clipPath id="clip0_608_7352">
<rect width="35.9684" height="35.9684" fill="white" transform="translate(0.03125 0.0146484)"/>
</clipPath>
<clipPath id="clip1_608_7352">
<rect width="32" height="32" fill="white" transform="translate(4 2.02539)"/>
</clipPath>
</defs>
</svg>
