<svg width="32" height="33" viewBox="0 0 32 33" fill="none" xmlns="http://www.w3.org/2000/svg">
<g clip-path="url(#clip0_608_7314)">
<path d="M13.7602 10.5468L16.0007 9.61789L18.2414 10.5468C18.5416 10.6708 18.8863 10.6316 19.1514 10.4393C19.4151 10.2474 19.5601 9.93177 19.5345 9.6067L19.3439 7.18877L20.9195 5.34408C21.1314 5.09652 21.1989 4.75583 21.0982 4.44577C20.9976 4.13508 20.7426 3.89939 20.4251 3.82377L18.067 3.25739L16.8001 1.18889C16.4629 0.599766 15.5386 0.599828 15.2014 1.18889L13.9345 3.25739L11.5764 3.82377C11.2589 3.89939 11.0039 4.13508 10.9032 4.44577C10.8026 4.75583 10.8701 5.09652 11.082 5.34408L12.6576 7.18877L12.467 9.6067C12.4414 9.93177 12.5864 10.2475 12.8501 10.4393C13.1146 10.6306 13.4589 10.6718 13.7602 10.5468Z" fill="#FF725E"/>
<path d="M31.9537 8.13413C31.8531 7.82344 31.5981 7.58775 31.2806 7.51213L28.9225 6.94575L27.6556 4.87725C27.485 4.59906 27.1825 4.42969 26.8562 4.42969C26.53 4.42969 26.2275 4.59913 26.0568 4.87725L24.79 6.94575L22.4318 7.51213C22.1143 7.58775 21.8593 7.82344 21.7587 8.13413C21.6581 8.44419 21.7256 8.78487 21.9375 9.03244L23.5131 10.8771L23.3225 13.2951C23.2968 13.6201 23.4418 13.9358 23.7056 14.1277C23.97 14.319 24.3143 14.3603 24.6156 14.2352L26.8562 13.3062L29.0968 14.2352C29.397 14.3591 29.7418 14.3199 30.0068 14.1277C30.2706 13.9358 30.4156 13.6201 30.39 13.2951L30.1993 10.8771L31.775 9.03244C31.9868 8.78487 32.0543 8.44419 31.9537 8.13413Z" fill="#FF725E"/>
<path d="M7.7427 14.3064C7.9377 14.3064 8.13083 14.2458 8.29395 14.1277C8.5577 13.9358 8.7027 13.6201 8.67708 13.2951L8.48645 10.8771L10.0621 9.03244C10.274 8.78488 10.3415 8.44419 10.2408 8.13413C10.1402 7.82344 9.8852 7.58775 9.5677 7.51213L7.20958 6.94575L5.9427 4.87725C5.77208 4.59906 5.46958 4.42969 5.14333 4.42969C4.81708 4.42969 4.51458 4.59913 4.34395 4.87725L3.07708 6.94575L0.718952 7.51213C0.401452 7.58775 0.146452 7.82344 0.0458266 8.13413C-0.0547984 8.44419 0.0127016 8.78488 0.224577 9.03244L1.8002 10.8771L1.60958 13.2951C1.58395 13.6201 1.72895 13.9358 1.9927 14.1277C2.25708 14.319 2.60145 14.3603 2.9027 14.2352L5.14333 13.3062L7.38395 14.2352C7.49958 14.2827 7.62145 14.3064 7.7427 14.3064Z" fill="#FF725E"/>
<path d="M27.0367 23.2984L25.9273 29.6565C25.6486 31.2484 24.2667 32.4096 22.6511 32.4096H16.253C15.8061 32.4096 15.368 32.3202 14.9623 32.1534C14.5567 31.9846 14.1836 31.7384 13.868 31.4221C13.8486 31.4027 13.8286 31.3834 13.8086 31.364V20.8027L13.8511 20.7877C14.753 20.464 15.4561 19.7415 15.7536 18.8302L16.313 17.0402L17.0667 14.6284C17.2886 13.9502 18.0173 13.5809 18.6961 13.8027C19.9386 14.2077 20.7286 15.3627 20.7286 16.6021C20.7286 16.9059 20.6811 17.2146 20.5811 17.5184L19.7411 20.2746H24.4955C26.098 20.2746 27.313 21.7202 27.0367 23.2984Z" fill="#FF725E"/>
<path d="M11.0003 32.7469H6.66064C6.14583 32.7469 5.72852 32.3296 5.72852 31.8147V20.5757C5.72852 20.0609 6.14583 19.6436 6.66064 19.6436H11.0003C11.5151 19.6436 11.9325 20.0609 11.9325 20.5757V31.8147C11.9325 32.3296 11.5151 32.7469 11.0003 32.7469Z" fill="#FF725E"/>
</g>
<defs>
<clipPath id="clip0_608_7314">
<rect width="32" height="32" fill="white" transform="translate(0 0.74707)"/>
</clipPath>
</defs>
</svg>
