<svg width="32" height="33" viewBox="0 0 32 33" fill="none" xmlns="http://www.w3.org/2000/svg">
<path d="M19.1654 8.39129C18.9223 8.60924 18.7363 8.88339 18.6237 9.1898C18.511 9.49621 18.4752 9.82554 18.5192 10.149C17.6137 10.6189 16.8576 11.3327 16.3363 12.2096C15.8151 13.0866 15.5494 14.0918 15.5693 15.1118C15.5868 16.3916 15.3911 17.6654 14.9901 18.8809H26.01C25.6089 17.6654 25.4131 16.3916 25.4306 15.1118C25.4507 14.0903 25.1843 13.0835 24.6615 12.2056C24.1387 11.3277 23.3805 10.6138 22.4728 10.1448C22.5295 9.73982 22.4602 9.32723 22.2742 8.96305C22.0883 8.59887 21.7947 8.30076 21.4334 8.10923C21.0722 7.91769 20.6607 7.84201 20.2549 7.89247C19.8491 7.94293 19.4687 8.11711 19.1654 8.39129ZM21.4924 9.79886C20.8385 9.65154 20.1599 9.65168 19.5061 9.79928C19.5249 9.54877 19.6376 9.31461 19.8218 9.14373C20.0059 8.97284 20.2478 8.87786 20.499 8.8778C20.7503 8.87775 20.9922 8.97263 21.1764 9.14344C21.3606 9.31424 21.4735 9.54836 21.4924 9.79886ZM26.5435 21.647C26.4122 21.8716 26.2241 22.0578 25.9981 22.1866C25.772 22.3154 25.516 22.3824 25.2559 22.3809H15.7441C15.484 22.3824 15.228 22.3154 15.0019 22.1866C14.7759 22.0578 14.5878 21.8716 14.4565 21.647C14.3218 21.4207 14.2491 21.1629 14.2458 20.8995C14.2424 20.6362 14.3086 20.3766 14.4375 20.147C14.4822 20.0659 14.5282 19.9725 14.5739 19.8809H26.4265C26.4723 19.9725 26.5182 20.0659 26.563 20.147C26.6917 20.3767 26.7577 20.6363 26.7543 20.8996C26.7509 21.1629 26.6781 21.4207 26.5435 21.647ZM18.2119 23.3809H22.7881C22.5942 23.8266 22.2744 24.206 21.868 24.4724C21.4615 24.7389 20.986 24.8809 20.5 24.8809C20.014 24.8809 19.5385 24.7389 19.132 24.4724C18.7256 24.206 18.4058 23.8266 18.2119 23.3809ZM20.5 26.8809H6.5V5.88086H20.5V6.88086C20.8409 6.88157 21.1791 6.94076 21.5 7.05586V3.38086C21.4988 2.98339 21.3404 2.60253 21.0594 2.32148C20.7783 2.04043 20.3975 1.88202 20 1.88086H7C6.60253 1.88202 6.22167 2.04043 5.94062 2.32148C5.65957 2.60253 5.50116 2.98339 5.5 3.38086V30.3809C5.50116 30.7783 5.65957 31.1592 5.94062 31.4402C6.22167 31.7213 6.60253 31.8797 7 31.8809H20C20.3975 31.8797 20.7783 31.7213 21.0594 31.4402C21.3404 31.1592 21.4988 30.7783 21.5 30.3809V25.7334C21.1756 25.8309 20.8387 25.8806 20.5 25.8809V26.8809ZM15 29.8809H12C11.8674 29.8809 11.7402 29.8282 11.6464 29.7344C11.5527 29.6406 11.5 29.5135 11.5 29.3809C11.5 29.2483 11.5527 29.1211 11.6464 29.0273C11.7402 28.9335 11.8674 28.8809 12 28.8809H15C15.1326 28.8809 15.2598 28.9335 15.3536 29.0273C15.4473 29.1211 15.5 29.2483 15.5 29.3809C15.5 29.5135 15.4473 29.6406 15.3536 29.7344C15.2598 29.8282 15.1326 29.8809 15 29.8809Z" fill="#FF725E"/>
</svg>
