<svg width="34" height="34" viewBox="0 0 34 34" fill="none" xmlns="http://www.w3.org/2000/svg">
<path d="M30.6006 22.4458C30.6006 18.1164 27.0759 14.5918 22.746 14.5918C18.4116 14.5918 14.8926 18.1164 14.8926 22.4458C14.8926 26.7808 18.4116 30.3055 22.746 30.3055C27.0759 30.3055 30.6006 26.7808 30.6006 22.4458ZM22.746 21.8814C24.0006 21.8814 25.0217 22.9025 25.0217 24.1571C25.0217 25.2151 24.2925 26.0991 23.3127 26.353V26.7462C23.3127 27.059 23.0588 27.3129 22.746 27.3129C22.4332 27.3129 22.1793 27.059 22.1793 26.7462V26.353C21.1996 26.0991 20.4703 25.2151 20.4703 24.1571C20.4703 23.8443 20.7242 23.5905 21.037 23.5905C21.3498 23.5905 21.6036 23.8443 21.6036 24.1571C21.6036 24.7873 22.1159 25.2995 22.746 25.2995C23.3761 25.2995 23.8884 24.7873 23.8884 24.1571C23.8884 23.527 23.3761 23.0147 22.746 23.0147C21.4914 23.0147 20.4703 21.9942 20.4703 20.739C20.4703 19.681 21.1996 18.797 22.1793 18.5437V18.1499C22.1793 17.8371 22.4332 17.5832 22.746 17.5832C23.0588 17.5832 23.3127 17.8371 23.3127 18.1499V18.5437C24.2925 18.797 25.0217 19.681 25.0217 20.739C25.0217 21.0524 24.7679 21.3056 24.4551 21.3056C24.1423 21.3056 23.8884 21.0524 23.8884 20.739C23.8884 20.1094 23.3761 19.5966 22.746 19.5966C22.1159 19.5966 21.6036 20.1094 21.6036 20.739C21.6036 21.3691 22.1159 21.8814 22.746 21.8814Z" fill="#FF725E"/>
<path d="M13.7704 28.7183C13.8441 28.7466 13.9234 28.7637 14.0027 28.7637C14.0821 28.7637 14.1614 28.7466 14.2351 28.7183C14.2691 28.7013 14.8301 28.452 15.6857 27.9987C14.4788 26.4687 13.7591 24.5363 13.7591 22.4453C13.7591 17.487 17.7881 13.458 22.7464 13.458C23.3811 13.458 24.0044 13.526 24.6051 13.6507V7.661C24.6051 7.34934 24.3501 7.09434 24.0384 7.09434C22.4744 7.09434 21.2051 5.82501 21.2051 4.261C21.2051 3.94934 20.9501 3.69434 20.6384 3.69434H7.36706C7.0554 3.69434 6.80039 3.94934 6.80039 4.261C6.80039 5.82501 5.53106 7.09434 3.96706 7.09434C3.6554 7.09434 3.40039 7.34934 3.40039 7.661V18.1557C3.40039 24.0037 13.3511 28.5257 13.7704 28.7183ZM9.77539 15.0163C9.9964 14.7953 10.3534 14.7953 10.5744 15.0163L12.2461 16.688L16.0087 12.9253C16.2297 12.7043 16.5924 12.7043 16.8134 12.9253C17.0344 13.1463 17.0344 13.5033 16.8134 13.73L12.6484 17.8893C12.5407 17.997 12.3991 18.0537 12.2461 18.0537C12.0987 18.0537 11.9514 17.997 11.8494 17.8893L9.77539 15.8153C9.55442 15.5943 9.55442 15.2373 9.77539 15.0163Z" fill="#FF725E"/>
</svg>
