<svg width="486" height="432" viewBox="0 0 486 432" fill="none" xmlns="http://www.w3.org/2000/svg">
<path d="M415.082 347.675H67.6272C60.768 347.675 55.207 342.114 55.207 335.255V125.53C55.207 118.671 60.768 113.11 67.6272 113.11H415.082C421.941 113.11 427.502 118.671 427.502 125.53V335.255C427.503 342.114 421.942 347.675 415.082 347.675Z" fill="#654062"/>
<path d="M418.325 127.314V333.48C418.325 336.172 416.149 338.36 413.445 338.36H69.2648C66.5733 338.36 64.3848 336.172 64.3848 333.48V127.314C64.3848 124.622 66.5733 122.434 69.2648 122.434H413.445C414.522 122.434 415.516 122.784 416.323 123.37C417.541 124.258 418.325 125.698 418.325 127.314Z" fill="#FF9C71"/>
<path d="M455.534 334.148V337.671C455.534 343.322 453.545 348.519 450.221 352.58C445.892 357.846 439.338 361.216 431.99 361.216H50.7142C43.365 361.216 36.8123 357.846 32.4827 352.58C29.1588 348.519 27.1699 343.324 27.1699 337.671V334.148H455.534Z" fill="#654062"/>
<path d="M450.223 352.579C445.894 357.845 439.34 361.216 431.992 361.216H50.7159C43.3667 361.216 36.814 357.845 32.4844 352.579H450.223Z" fill="#513050"/>
<path d="M405.013 142.208H77.6942C74.8247 142.208 72.498 139.881 72.498 137.012V136.136C72.498 133.266 74.8247 130.939 77.6942 130.939H405.014C407.883 130.939 410.21 133.266 410.21 136.136V137.012C410.209 139.881 407.883 142.208 405.013 142.208Z" fill="#FBD46D"/>
<path d="M386.642 136.576C386.642 137.946 385.53 139.058 384.16 139.058C382.789 139.058 381.678 137.946 381.678 136.576C381.678 135.205 382.789 134.094 384.16 134.094C385.53 134.094 386.642 135.205 386.642 136.576Z" fill="white"/>
<path d="M395.564 136.576C395.564 137.946 394.452 139.058 393.082 139.058C391.711 139.058 390.6 137.946 390.6 136.576C390.6 135.205 391.711 134.094 393.082 134.094C394.452 134.094 395.564 135.205 395.564 136.576Z" fill="white"/>
<path d="M404.486 136.576C404.486 137.946 403.374 139.058 402.004 139.058C400.633 139.058 399.521 137.946 399.521 136.576C399.521 135.205 400.633 134.094 402.004 134.094C403.374 134.094 404.486 135.205 404.486 136.576Z" fill="white"/>
<path d="M86.0472 148.827H73.8828V149.989H86.0472V148.827Z" fill="#654062"/>
<path d="M86.0472 152.314H73.8828V153.477H86.0472V152.314Z" fill="#654062"/>
<path d="M86.0472 155.805H73.8828V156.967H86.0472V155.805Z" fill="#654062"/>
<path d="M263.793 327.177H218.916C216.137 327.177 213.885 324.925 213.885 322.145V321.296C213.885 318.517 216.137 316.265 218.916 316.265H263.793C266.572 316.265 268.824 318.517 268.824 321.296V322.145C268.825 324.924 266.572 327.177 263.793 327.177Z" fill="#654062"/>
<path d="M218.142 323.649H217.586L219.196 319.265H219.744L221.354 323.649H220.797L219.487 319.959H219.453L218.142 323.649ZM218.348 321.937H220.591V322.408H218.348V321.937ZM223.389 323.649H222.037V319.265H223.449C223.875 319.265 224.239 319.353 224.541 319.528C224.844 319.702 225.076 319.953 225.237 320.28C225.398 320.605 225.479 320.995 225.479 321.449C225.479 321.905 225.398 322.299 225.235 322.628C225.072 322.957 224.835 323.209 224.524 323.386C224.213 323.562 223.835 323.649 223.389 323.649ZM222.567 323.178H223.355C223.718 323.178 224.018 323.109 224.257 322.969C224.495 322.829 224.673 322.63 224.79 322.371C224.907 322.113 224.965 321.805 224.965 321.449C224.965 321.095 224.907 320.79 224.792 320.535C224.676 320.278 224.503 320.081 224.274 319.944C224.044 319.805 223.758 319.736 223.415 319.736H222.567V323.178ZM227.722 323.649H226.369V319.265H227.782C228.208 319.265 228.572 319.353 228.874 319.528C229.177 319.702 229.409 319.953 229.57 320.28C229.731 320.605 229.812 320.995 229.812 321.449C229.812 321.905 229.731 322.299 229.568 322.628C229.405 322.957 229.168 323.209 228.857 323.386C228.546 323.562 228.168 323.649 227.722 323.649ZM226.9 323.178H227.688C228.051 323.178 228.351 323.109 228.59 322.969C228.828 322.829 229.006 322.63 229.123 322.371C229.24 322.113 229.298 321.805 229.298 321.449C229.298 321.095 229.24 320.79 229.125 320.535C229.009 320.278 228.836 320.081 228.607 319.944C228.377 319.805 228.091 319.736 227.748 319.736H226.9V323.178ZM232.158 319.736V319.265H235.446V319.736H234.068V323.649H233.537V319.736H232.158ZM239.783 321.457C239.783 321.92 239.699 322.319 239.532 322.656C239.365 322.993 239.136 323.253 238.845 323.435C238.554 323.618 238.221 323.709 237.847 323.709C237.473 323.709 237.141 323.618 236.85 323.435C236.559 323.253 236.33 322.993 236.163 322.656C235.996 322.319 235.912 321.92 235.912 321.457C235.912 320.995 235.996 320.595 236.163 320.258C236.33 319.922 236.559 319.662 236.85 319.479C237.141 319.296 237.473 319.205 237.847 319.205C238.221 319.205 238.554 319.296 238.845 319.479C239.136 319.662 239.365 319.922 239.532 320.258C239.699 320.595 239.783 320.995 239.783 321.457ZM239.269 321.457C239.269 321.078 239.205 320.757 239.078 320.496C238.953 320.235 238.782 320.037 238.567 319.903C238.353 319.769 238.113 319.702 237.847 319.702C237.582 319.702 237.341 319.769 237.126 319.903C236.912 320.037 236.741 320.235 236.614 320.496C236.489 320.757 236.426 321.078 236.426 321.457C236.426 321.837 236.489 322.157 236.614 322.418C236.741 322.68 236.912 322.877 237.126 323.011C237.341 323.146 237.582 323.213 237.847 323.213C238.113 323.213 238.353 323.146 238.567 323.011C238.782 322.877 238.953 322.68 239.078 322.418C239.205 322.157 239.269 321.837 239.269 321.457ZM245.899 320.635H245.368C245.337 320.482 245.282 320.348 245.203 320.233C245.126 320.117 245.032 320.02 244.921 319.942C244.811 319.862 244.689 319.802 244.555 319.762C244.42 319.722 244.281 319.702 244.135 319.702C243.869 319.702 243.629 319.769 243.413 319.903C243.199 320.037 243.029 320.235 242.902 320.496C242.776 320.757 242.713 321.078 242.713 321.457C242.713 321.837 242.776 322.157 242.902 322.418C243.029 322.68 243.199 322.877 243.413 323.011C243.629 323.146 243.869 323.213 244.135 323.213C244.281 323.213 244.42 323.193 244.555 323.153C244.689 323.113 244.811 323.054 244.921 322.975C245.032 322.895 245.126 322.797 245.203 322.682C245.282 322.565 245.337 322.431 245.368 322.279H245.899C245.859 322.503 245.786 322.704 245.681 322.881C245.575 323.058 245.444 323.208 245.287 323.333C245.13 323.455 244.953 323.549 244.758 323.613C244.564 323.677 244.356 323.709 244.135 323.709C243.761 323.709 243.428 323.618 243.137 323.435C242.846 323.253 242.617 322.993 242.45 322.656C242.283 322.319 242.2 321.92 242.2 321.457C242.2 320.995 242.283 320.595 242.45 320.258C242.617 319.922 242.846 319.662 243.137 319.479C243.428 319.296 243.761 319.205 244.135 319.205C244.356 319.205 244.564 319.237 244.758 319.301C244.953 319.366 245.13 319.46 245.287 319.584C245.444 319.707 245.575 319.857 245.681 320.034C245.786 320.209 245.859 320.41 245.899 320.635ZM246.937 323.649H246.38L247.99 319.265H248.538L250.148 323.649H249.591L248.281 319.959H248.247L246.937 323.649ZM247.142 321.937H249.386V322.408H247.142V321.937ZM250.831 323.649V319.265H252.312C252.655 319.265 252.936 319.324 253.156 319.441C253.376 319.556 253.538 319.715 253.644 319.918C253.749 320.121 253.802 320.351 253.802 320.609C253.802 320.868 253.749 321.097 253.644 321.297C253.538 321.496 253.376 321.653 253.158 321.768C252.94 321.88 252.661 321.937 252.321 321.937H251.122V321.457H252.304C252.538 321.457 252.726 321.423 252.869 321.354C253.013 321.286 253.117 321.189 253.181 321.063C253.247 320.936 253.28 320.785 253.28 320.609C253.28 320.434 253.247 320.281 253.181 320.149C253.116 320.018 253.011 319.917 252.867 319.845C252.723 319.772 252.532 319.736 252.295 319.736H251.362V323.649H250.831ZM252.895 321.68L253.974 323.649H253.357L252.295 321.68H252.895ZM254.447 319.736V319.265H257.735V319.736H256.357V323.649H255.826V319.736H254.447Z" fill="white"/>
<path d="M406.8 149.162H405.844C405.844 147.741 404.687 146.585 403.267 146.585C401.846 146.585 400.689 147.741 400.689 149.162H399.733L398.477 157.196H408.056L406.8 149.162ZM403.266 147.358C404.388 147.358 405.097 148.041 405.097 149.163H401.453C401.453 148.04 402.144 147.358 403.266 147.358Z" fill="#654062"/>
<path d="M392.922 156.118L391.555 154.751C392.117 153.982 392.453 153.037 392.453 152.013C392.453 149.445 390.364 147.355 387.796 147.355C385.228 147.355 383.139 149.445 383.139 152.013C383.139 154.582 385.228 156.67 387.796 156.67C388.821 156.67 389.765 156.334 390.534 155.772L391.902 157.139C392.043 157.281 392.227 157.351 392.412 157.351C392.596 157.351 392.782 157.281 392.922 157.139C393.205 156.858 393.205 156.4 392.922 156.118ZM384.584 152.013C384.584 150.242 386.024 148.8 387.796 148.8C389.567 148.8 391.009 150.242 391.009 152.013C391.009 153.784 389.568 155.225 387.796 155.225C386.025 155.226 384.584 153.785 384.584 152.013Z" fill="#654062"/>
<path d="M178.787 326.941C178.488 326.941 178.188 326.827 177.959 326.598L173.907 322.546C173.45 322.088 173.45 321.348 173.907 320.892L177.959 316.839C178.416 316.382 179.157 316.382 179.613 316.839C180.071 317.297 180.071 318.037 179.613 318.494L176.389 321.718L179.613 324.943C180.071 325.4 180.071 326.141 179.613 326.597C179.386 326.827 179.087 326.941 178.787 326.941Z" fill="#513050"/>
<path d="M303.927 326.942C303.628 326.942 303.328 326.828 303.099 326.599C302.641 326.142 302.641 325.401 303.099 324.945L306.324 321.72L303.099 318.496C302.641 318.038 302.641 317.298 303.099 316.841C303.557 316.384 304.297 316.384 304.753 316.841L308.806 320.894C309.263 321.351 309.263 322.091 308.806 322.548L304.753 326.6C304.525 326.828 304.226 326.942 303.927 326.942Z" fill="#513050"/>
<path d="M393.685 179.344H282.855V290.163H393.685V179.344Z" fill="#FBD46D"/>
<path d="M389.117 184.876H287.422V271.277H389.117V184.876Z" fill="#E8BA52"/>
<path d="M389.117 276.09H287.422V278.113H389.117V276.09Z" fill="#E8BA52"/>
<path d="M338.27 280.362H287.422V282.386H338.27V280.362Z" fill="#E8BA52"/>
<path d="M358.322 284.633H287.422V286.656H358.322V284.633Z" fill="#E8BA52"/>
<path d="M365.226 232.49C367.66 217.615 357.575 203.583 342.7 201.149C327.825 198.715 313.793 208.8 311.359 223.675C308.924 238.55 319.01 252.582 333.885 255.016C348.76 257.45 362.792 247.365 365.226 232.49Z" fill="#FBD46D"/>
<path d="M318.863 179.344H282.855V290.163H318.863V179.344Z" fill="#DDD6C7"/>
<path d="M199.841 179.336H89.0176V290.159H199.841V179.336Z" fill="#FBD46D"/>
<path d="M195.278 184.873H93.582V271.275H195.278V184.873Z" fill="#E8BA52"/>
<path d="M195.276 276.087H93.5801V278.11H195.276V276.087Z" fill="#E8BA52"/>
<path d="M144.428 280.359H93.5801V282.383H144.428V280.359Z" fill="#E8BA52"/>
<path d="M164.48 284.63H93.5801V286.653H164.48V284.63Z" fill="#E8BA52"/>
<path d="M171.376 232.492C173.81 217.617 163.725 203.585 148.85 201.151C133.975 198.716 119.943 208.802 117.509 223.677C115.075 238.552 125.16 252.584 140.035 255.018C154.91 257.452 168.942 247.367 171.376 232.492Z" fill="#FBD46D"/>
<path d="M199.843 179.341H163.836V290.16H199.843V179.341Z" fill="#DDD6C7"/>
<path d="M307.976 152.32H174.734V307.047H307.976V152.32Z" fill="#654062"/>
<path d="M302.052 158.243H180.656V279.639H302.052V158.243Z" fill="#FBD46D"/>
<path d="M302.052 284.238H180.656V286.653H302.052V284.238Z" fill="#513050"/>
<path d="M241.354 289.336H180.656V291.751H241.354V289.336Z" fill="#513050"/>
<path d="M265.291 294.437H180.656V296.852H265.291V294.437Z" fill="#513050"/>
<path d="M300.039 296.84C300.577 296.301 300.91 295.557 300.91 294.735C300.91 293.087 299.574 291.752 297.927 291.752C296.699 291.752 295.645 292.495 295.189 293.556C294.731 292.495 293.678 291.752 292.45 291.752C290.802 291.752 289.467 293.088 289.467 294.735C289.467 295.557 289.799 296.301 290.338 296.84L290.339 296.841C290.339 296.841 290.341 296.843 290.343 296.846L295.19 301.744L300.035 296.847C300.035 296.845 300.037 296.842 300.039 296.84Z" fill="#FBD46D"/>
<path d="M241.355 261.343C269.363 261.343 292.067 259.183 292.067 256.517C292.067 253.852 269.363 251.691 241.355 251.691C213.347 251.691 190.643 253.852 190.643 256.517C190.643 259.183 213.347 261.343 241.355 261.343Z" fill="#E8BA52"/>
<path d="M211.523 235.367H227.811V213.079H206.094L211.523 235.367Z" fill="#513050"/>
<path d="M231.814 235.367V213.079H221.894C219.628 213.079 217.923 215.144 218.351 217.369L221.813 235.368H231.814V235.367Z" fill="#513050"/>
<path d="M213.81 235.367V213.079H203.89C201.624 213.079 199.919 215.144 200.347 217.369L203.808 235.368H213.81V235.367Z" fill="#654062"/>
<path d="M239.146 235.368V186.647H271.887C275.767 186.647 278.912 189.792 278.912 193.672V235.368H239.146Z" fill="#513050"/>
<path d="M228.67 235.368V192.053C228.67 189.068 231.091 186.647 234.075 186.647H263.03C266.015 186.647 268.435 189.068 268.435 192.053V235.368H228.67Z" fill="#654062"/>
<path d="M268.896 235.369V213.081H278.816C281.082 213.081 282.788 215.146 282.359 217.371L278.898 235.37H268.896V235.369Z" fill="#513050"/>
<path d="M271.181 235.369H254.895V213.081H276.611L271.181 235.369Z" fill="#513050"/>
<path d="M250.893 235.369V213.081H260.812C263.079 213.081 264.784 215.146 264.355 217.371L260.894 235.37H250.893V235.369Z" fill="#654062"/>
<path d="M250.894 235.369C250.772 233.511 250.664 231.654 250.614 229.797C250.558 227.94 250.481 226.082 250.478 224.225L250.432 218.653L250.491 213.082L250.495 212.675L250.894 212.679C252.547 212.699 254.2 212.775 255.853 212.82C257.507 212.881 259.16 212.965 260.813 213.082C259.16 213.197 257.507 213.282 255.853 213.343C254.2 213.388 252.547 213.465 250.894 213.484L251.296 213.082L251.355 218.653L251.309 224.225C251.307 226.082 251.229 227.94 251.173 229.797C251.124 231.654 251.015 233.511 250.894 235.369Z" fill="#846183"/>
<path d="M278.909 235.368H203.806L201.584 251.27C201.197 254.04 203.349 256.513 206.146 256.513H276.987C279.833 256.513 281.997 253.959 281.531 251.152L278.909 235.368Z" fill="#513050"/>
<path d="M260.893 235.368H203.808L201.549 251.534C201.181 254.165 203.225 256.513 205.881 256.513H256.52C258.936 256.513 260.893 254.555 260.893 252.14V235.368Z" fill="#654062"/>
<path d="M260.892 235.368C256.135 235.542 251.378 235.685 246.621 235.754C241.864 235.845 237.107 235.924 232.349 235.929C227.592 235.938 222.835 236.026 218.078 235.97L203.806 235.876L204.308 235.438C203.53 240.184 202.753 244.928 201.811 249.65C202.199 244.851 202.752 240.075 203.304 235.298L203.354 234.864L203.806 234.861L218.078 234.766C222.835 234.711 227.592 234.799 232.349 234.807C237.106 234.814 241.863 234.891 246.621 234.983C251.378 235.053 256.135 235.195 260.892 235.368Z" fill="#846183"/>
<path d="M302.407 405.56H220.446C219.939 405.56 219.489 405.232 219.333 404.748L198.337 339.628C198.223 339.273 198.286 338.882 198.506 338.58C198.726 338.278 199.079 338.099 199.452 338.099H323.403C323.777 338.099 324.129 338.278 324.35 338.58C324.569 338.883 324.633 339.273 324.518 339.628L303.522 404.748C303.364 405.232 302.914 405.56 302.407 405.56ZM221.299 403.219H301.555L321.795 340.439H201.058L221.299 403.219Z" fill="#FBD46D"/>
<path d="M260.76 405.559C260.113 405.559 259.59 405.035 259.59 404.389V339.268C259.59 338.622 260.113 338.099 260.76 338.099C261.406 338.099 261.929 338.622 261.929 339.268V404.389C261.929 405.035 261.406 405.559 260.76 405.559Z" fill="#FBD46D"/>
<path d="M251.847 405.561C251.236 405.561 250.721 405.086 250.68 404.469L246.358 339.348C246.316 338.704 246.804 338.146 247.448 338.103C248.084 338.073 248.65 338.549 248.693 339.193L253.015 404.313C253.057 404.957 252.57 405.515 251.925 405.559C251.9 405.56 251.874 405.561 251.847 405.561Z" fill="#FBD46D"/>
<path d="M243.325 405.559C242.759 405.559 242.262 405.149 242.17 404.573L231.815 339.452C231.714 338.814 232.149 338.215 232.787 338.113C233.434 338.004 234.025 338.447 234.126 339.084L244.481 404.205C244.582 404.844 244.147 405.443 243.509 405.544C243.447 405.555 243.385 405.559 243.325 405.559Z" fill="#FBD46D"/>
<path d="M232.009 405.56C231.479 405.56 230.999 405.196 230.871 404.658L215.512 339.537C215.364 338.909 215.752 338.278 216.383 338.129C217.008 337.984 217.641 338.371 217.791 339L233.15 404.12C233.298 404.748 232.909 405.38 232.279 405.528C232.188 405.549 232.099 405.56 232.009 405.56Z" fill="#FBD46D"/>
<path d="M269.671 405.561C269.645 405.561 269.618 405.56 269.593 405.559C268.948 405.515 268.46 404.957 268.503 404.313L272.826 339.193C272.868 338.549 273.427 338.073 274.071 338.103C274.715 338.146 275.203 338.704 275.161 339.348L270.838 404.469C270.797 405.086 270.282 405.561 269.671 405.561Z" fill="#FBD46D"/>
<path d="M278.189 405.559C278.129 405.559 278.067 405.555 278.004 405.544C277.366 405.442 276.931 404.843 277.032 404.204L287.388 339.084C287.489 338.446 288.079 338.005 288.727 338.113C289.365 338.214 289.8 338.813 289.698 339.452L279.343 404.572C279.252 405.149 278.755 405.559 278.189 405.559Z" fill="#FBD46D"/>
<path d="M289.508 405.56C289.418 405.56 289.328 405.549 289.238 405.528C288.609 405.379 288.22 404.749 288.367 404.12L303.726 339C303.876 338.372 304.504 337.984 305.134 338.129C305.763 338.278 306.152 338.908 306.005 339.537L290.646 404.658C290.518 405.196 290.037 405.56 289.508 405.56Z" fill="#FBD46D"/>
<path d="M306.839 391.801H216.008C215.361 391.801 214.838 391.277 214.838 390.631C214.838 389.984 215.361 389.461 216.008 389.461H306.839C307.486 389.461 308.009 389.984 308.009 390.631C308.009 391.277 307.486 391.801 306.839 391.801Z" fill="#FBD46D"/>
<path d="M312.419 374.519H210.435C209.789 374.519 209.266 373.996 209.266 373.35C209.266 372.703 209.789 372.18 210.435 372.18H312.418C313.064 372.18 313.588 372.703 313.588 373.35C313.589 373.996 313.066 374.519 312.419 374.519Z" fill="#FBD46D"/>
<path d="M317.99 357.233H204.865C204.219 357.233 203.695 356.71 203.695 356.063C203.695 355.417 204.219 354.894 204.865 354.894H317.99C318.637 354.894 319.16 355.417 319.16 356.063C319.16 356.71 318.637 357.233 317.99 357.233Z" fill="#FBD46D"/>
<path d="M335.905 327.198C338.458 327.198 340.527 325.837 340.527 324.157C340.527 322.478 338.458 321.116 335.905 321.116C333.353 321.116 331.283 322.478 331.283 324.157C331.283 325.837 333.353 327.198 335.905 327.198Z" fill="#282423"/>
<path d="M323.401 340.44C323.282 340.44 323.161 340.421 323.042 340.384C322.427 340.185 322.089 339.526 322.287 338.91L327.158 323.799C327.315 323.315 327.765 322.987 328.272 322.987H335.414C336.06 322.987 336.584 323.511 336.584 324.157C336.584 324.804 336.06 325.327 335.414 325.327H329.124L324.514 339.628C324.355 340.124 323.895 340.44 323.401 340.44Z" fill="#FBD46D"/>
<path d="M298.597 417.372H223.484C222.838 417.372 222.314 416.849 222.314 416.203C222.314 415.556 222.838 415.033 223.484 415.033H297.744L303.75 396.406C303.948 395.791 304.61 395.457 305.223 395.651C305.838 395.849 306.176 396.509 305.978 397.124L299.711 416.562C299.554 417.044 299.104 417.372 298.597 417.372Z" fill="#FBD46D"/>
<path d="M280.179 431.998C282.99 431.998 285.269 429.719 285.269 426.909C285.269 424.098 282.99 421.819 280.179 421.819C277.368 421.819 275.09 424.098 275.09 426.909C275.09 429.719 277.368 431.998 280.179 431.998Z" fill="#282423"/>
<path d="M280.18 428.079C279.533 428.079 279.01 427.556 279.01 426.909V416.204C279.01 415.558 279.533 415.034 280.18 415.034C280.826 415.034 281.349 415.558 281.349 416.204V426.909C281.349 427.556 280.826 428.079 280.18 428.079Z" fill="#FBD46D"/>
<path d="M246.855 426.91C246.855 429.721 244.575 431.999 241.764 431.999C238.953 431.999 236.674 429.72 236.674 426.91C236.674 424.099 238.953 421.819 241.764 421.819C244.575 421.82 246.855 424.099 246.855 426.91Z" fill="#282423"/>
<path d="M241.766 428.079C241.119 428.079 240.596 427.556 240.596 426.909V416.204C240.596 415.558 241.119 415.034 241.766 415.034C242.412 415.034 242.935 415.558 242.935 416.204V426.909C242.935 427.556 242.412 428.079 241.766 428.079Z" fill="#FBD46D"/>
<path d="M203.376 381.024H140.051V429.804H203.376V381.024Z" fill="#513050"/>
<path d="M193.717 389.432L193.046 388.671L192.464 389.432L190.72 388.538L189.156 389.432L187.948 388.671L187.098 389.432V381.024H193.717V389.432Z" fill="#FBD46D"/>
<path d="M193.717 421.397L193.046 422.158L192.464 421.397L190.72 422.292L189.156 421.397L187.948 422.158L187.098 421.397V429.805H193.717V421.397Z" fill="#FBD46D"/>
<path d="M178.509 381.024H124.307V429.804H178.509V381.024Z" fill="#654062"/>
<path d="M151.846 381.024H150.969V429.804H151.846V381.024Z" fill="#513050"/>
<path d="M178.509 404.976H124.307V405.853H178.509V404.976Z" fill="#513050"/>
<path d="M136.451 369.934H68.5801V429.804H136.451V369.934Z" fill="#513050"/>
<path d="M105.996 369.934H68.5801V429.804H105.996V369.934Z" fill="#654062"/>
<path d="M63.2148 379.738H100.631L105.997 369.934H68.5816L63.2148 379.738Z" fill="#513050"/>
<path d="M141.822 379.738H111.367L106 369.934H136.455L141.822 379.738Z" fill="#654062"/>
<path d="M94.0129 399.868C94.0129 409.318 91.0031 416.979 87.2896 416.979C83.5762 416.979 80.5664 409.318 80.5664 399.868C80.5664 390.418 83.5762 382.757 87.2896 382.757C91.0031 382.757 94.0129 390.418 94.0129 399.868Z" fill="#513050"/>
<path d="M373.557 420.898C367.015 425.705 355.996 424.149 356.1 430.098C370.514 431.629 377.769 428.162 377.769 428.162L377.802 430.074L382.831 429.438C382.831 429.438 384.779 424.587 383.431 420.655L373.557 420.898Z" fill="#282423"/>
<path d="M412.555 420.21C406.013 425.016 394.994 423.46 395.098 429.409C409.512 430.94 416.767 427.473 416.767 427.473L416.8 429.385L421.829 428.748C421.829 428.748 423.777 423.897 422.429 419.966L412.555 420.21Z" fill="#282423"/>
<path d="M413.887 286.119L371.261 286.798C371.261 286.798 365.689 341.335 373.554 420.898C376.844 422.889 380.136 422.76 383.429 420.655C383.429 420.655 386.174 354.561 390.852 307.139C391.686 307.111 402.655 374.177 412.553 420.211C415.805 422.227 419.099 422.05 422.428 419.968C422.428 419.968 416.472 372.248 413.887 286.119Z" fill="#FBD46D"/>
<path d="M390.901 294.619C390.931 293.87 389.766 293.871 389.736 294.619C389.591 298.196 389.622 301.778 389.832 305.353C389.877 306.098 391.041 306.103 390.997 305.353C390.787 301.778 390.755 298.196 390.901 294.619Z" fill="#E8BA52"/>
<path d="M415.491 368.55C414.327 352.738 413.515 336.899 413.057 321.05C412.798 312.063 412.654 303.072 412.621 294.082C412.618 293.333 411.454 293.332 411.457 294.082C411.515 310.034 411.928 325.984 412.7 341.917C413.469 357.754 414.59 373.573 416.064 389.359C416.9 398.311 417.851 407.253 418.912 416.181C418.999 416.916 420.165 416.925 420.076 416.181C418.193 400.341 416.662 384.459 415.491 368.55Z" fill="#E8BA52"/>
<path d="M387.489 307.7C385.993 322.215 384.746 336.754 383.753 351.312C382.76 365.87 382.02 380.444 381.533 395.028C381.259 403.237 381.066 411.449 380.951 419.662C380.94 420.412 382.105 420.385 382.116 419.636C382.32 405.046 382.773 390.46 383.481 375.886C384.189 361.312 385.15 346.749 386.364 332.209C387.047 324.023 387.812 315.845 388.653 307.675C388.73 306.93 387.564 306.964 387.489 307.7Z" fill="#E8BA52"/>
<path d="M412.857 220.258C412.857 220.258 430.453 240.955 431.324 301.865H424.168C424.168 301.865 422.818 264.6 410.721 241.908L412.857 220.258Z" fill="#F0D0C6"/>
<path d="M423.143 308.99C423.211 309.494 423.238 310.266 423.788 310.509C424.348 310.756 424.853 310.295 424.99 309.773C425.178 309.059 425.192 308.261 425.283 307.53C425.314 307.284 425.344 307.038 425.374 306.793C425.885 308.23 426.174 309.742 426.215 311.269C426.241 312.258 426.171 313.25 425.993 314.222C425.857 314.966 425.658 315.876 426.381 316.393C426.749 316.657 427.15 316.624 427.487 316.432C427.882 316.611 428.376 316.563 428.762 316.259C428.869 316.175 428.963 316.076 429.049 315.969C429.16 316.112 429.349 316.189 429.55 316.067C430.148 315.705 430.548 315.157 430.833 314.537C430.97 314.551 431.113 314.506 431.211 314.358C433.034 311.558 433.555 308.01 432.721 304.783C432.332 303.273 431.627 301.508 430.45 300.435C428.996 299.109 427.027 299.626 425.373 300.212C425.327 300.228 425.293 300.254 425.259 300.28C425.082 300.159 424.827 300.157 424.699 300.401C423.306 303.025 422.744 306.042 423.143 308.99Z" fill="#F0D0C6"/>
<path d="M395.244 230.838C395.244 230.838 368.644 232.926 312.545 199.187L316.603 192.653C316.603 192.653 351.387 212.55 378.962 214.372L395.244 230.838Z" fill="#F0D0C6"/>
<path d="M300.101 187.527C300.03 188.103 300.512 188.527 301.034 188.613C302.71 188.891 304.398 189.088 306.092 189.206C305.999 191.204 306.364 193.245 307.195 195.061C308.024 196.874 309.584 198.517 311.592 198.856C311.724 198.938 311.874 198.988 312.03 198.989C313.933 199.002 315.72 198.156 317.077 196.843C318.32 195.64 319.178 194.177 320.007 192.678C320.18 192.368 320.357 192.058 320.552 191.761C320.649 191.614 320.75 191.47 320.858 191.331C320.903 191.273 320.948 191.217 320.994 191.161C321.005 191.148 321.028 191.123 321.048 191.103C321.181 190.972 321.321 190.855 321.462 190.733C321.477 190.72 321.488 190.71 321.496 190.701C321.505 190.697 321.512 190.693 321.523 190.687C321.598 190.646 321.67 190.604 321.745 190.568C321.809 190.536 321.877 190.514 321.941 190.483C321.973 190.472 321.986 190.466 321.981 190.467C322.034 190.45 322.086 190.432 322.138 190.414C322.349 190.341 322.542 190.248 322.713 190.099C323.182 189.695 323.328 189.01 323.057 188.455C322.845 188.021 322.415 187.706 321.963 187.559C321.126 187.285 320.145 187.487 319.363 187.835C318.283 188.314 317.494 189.156 316.837 190.101C316.748 189.814 316.658 189.526 316.568 189.239C315.234 185.007 313.782 180.796 311.81 176.813C311.584 176.357 311.055 176.145 310.58 176.303C310.131 176.453 309.776 176.963 309.905 177.45L311.218 182.435C311.361 182.973 311.503 183.513 311.639 184.054C309.802 182.243 307.964 180.432 306.128 178.621C305.763 178.262 305.415 178.061 304.973 178.352C304.551 178.63 304.607 179.254 304.821 179.713C305.73 181.667 307.149 183.447 308.528 185.085C306.772 184.345 304.49 183.534 302.773 182.706C302.316 182.487 301.747 182.79 301.537 183.2C301.289 183.683 301.72 184.103 302.105 184.439C303.204 185.399 305.161 186.079 306.381 186.87C304.991 186.751 302.564 186.823 301.186 186.595C300.627 186.501 300.162 187.021 300.101 187.527Z" fill="#F0D0C6"/>
<path d="M407.428 214.142C415.513 217.641 423.47 236.328 423.47 236.328L410.795 243.926L407.428 214.142Z" fill="#654062"/>
<path d="M387.802 210.902C387.802 210.902 373.313 214.659 358.287 209.561L354.799 221.904C354.799 221.904 366.621 229.655 378.084 230.866L387.802 210.902Z" fill="#654062"/>
<path d="M387.802 210.903L377.87 214.143C377.87 214.143 372.766 256.723 370.336 289.555C401.611 296.169 414.963 289.483 414.963 289.483C413.104 250.824 407.429 214.142 407.429 214.142L397.563 210.902H387.802V210.903Z" fill="#654062"/>
<path d="M392.65 271.277C396.935 271.277 400.409 261.595 400.409 249.652C400.409 237.708 396.935 228.026 392.65 228.026C388.365 228.026 384.891 237.708 384.891 249.652C384.891 261.595 388.365 271.277 392.65 271.277Z" fill="#513050"/>
<path d="M405.214 188.043C403.865 192.013 401.99 195.814 399.598 199.261C398.754 200.477 397.708 201.948 396.066 201.978C394.281 202.012 393.241 200.49 392.413 199.138C388.617 192.938 380.68 191.006 376.797 184.832C375.732 183.139 375.242 180.954 374.95 178.975C374.658 176.995 374.749 174.929 375.474 173.064C376.199 171.2 377.601 169.557 379.444 168.779C381.288 168 383.566 168.187 385.115 169.451C385.141 168.659 385.527 168.003 386.196 167.578C386.866 167.154 387.666 166.984 388.453 166.904C392.896 166.454 397.499 168.884 399.631 172.808C400.47 172.451 401.575 172.682 402.29 173.247C403.006 173.813 403.476 174.628 403.868 175.45C405.666 179.228 406.559 184.084 405.214 188.043Z" fill="#282423"/>
<path d="M398.817 177.301C394.411 169.222 378.907 171.98 377.703 178.403C375.224 191.615 377.106 197.038 380.779 200.16C385.028 203.772 387.802 203.312 387.802 210.901C389.409 214.94 395.574 215.491 397.563 210.901C397.441 200.848 400.89 193.23 400.89 193.23C400.89 193.23 400.634 180.632 398.817 177.301Z" fill="#F0D0C6"/>
<path d="M397.164 179.09C394.502 182.928 389.147 182.043 389.147 182.043L392.237 179.38C392.237 179.38 384.587 183.91 376.689 182.341C376.689 182.341 375.53 179.442 379.079 174.607C381.35 171.514 387.953 170.751 393.583 171.792C399.213 172.832 401.662 175.281 401.845 179.319C402.029 183.358 402.44 188.402 402.44 188.402L400.255 190.069C396.827 187.784 397.164 179.09 397.164 179.09Z" fill="#282423"/>
<path d="M388.353 190.751C388.902 190.751 389.347 190.306 389.347 189.758C389.347 189.209 388.902 188.764 388.353 188.764C387.804 188.764 387.359 189.209 387.359 189.758C387.359 190.306 387.804 190.751 388.353 190.751Z" fill="#282423"/>
<path d="M388.352 189.485C388.352 189.685 388.189 189.848 387.989 189.848C387.788 189.848 387.625 189.685 387.625 189.485C387.625 189.284 387.788 189.121 387.989 189.121C388.189 189.121 388.352 189.284 388.352 189.485Z" fill="white"/>
<path d="M381.662 189.758C381.662 190.307 381.217 190.751 380.668 190.751C380.118 190.751 379.674 190.307 379.674 189.758C379.674 189.208 380.118 188.764 380.668 188.764C381.217 188.764 381.662 189.209 381.662 189.758Z" fill="#282423"/>
<path d="M380.667 189.485C380.667 189.685 380.504 189.848 380.303 189.848C380.102 189.848 379.939 189.685 379.939 189.485C379.939 189.284 380.102 189.121 380.303 189.121C380.504 189.121 380.667 189.284 380.667 189.485Z" fill="white"/>
<path d="M382.326 185.865C381.078 184.996 379.456 185.046 378.279 186.064C378.059 186.254 378.02 186.638 378.188 186.885C378.358 187.138 378.683 187.181 378.904 186.99C379.388 186.572 380.003 186.383 380.603 186.427C380.906 186.45 381.207 186.531 381.485 186.67C381.733 186.793 381.973 187.007 382.251 186.847C382.316 186.809 382.374 186.753 382.419 186.686C382.573 186.458 382.562 186.03 382.326 185.865Z" fill="#282423"/>
<path d="M386.201 185.865C387.632 184.996 389.493 185.046 390.842 186.064C391.094 186.254 391.138 186.638 390.946 186.885C390.75 187.138 390.378 187.181 390.125 186.99C389.572 186.572 388.866 186.392 388.178 186.437C387.831 186.46 387.487 186.541 387.165 186.676C386.881 186.795 386.603 187.006 386.287 186.847C386.211 186.809 386.145 186.753 386.094 186.686C385.917 186.458 385.929 186.03 386.201 185.865Z" fill="#282423"/>
<path d="M384.124 195.408C383.583 195.408 383.018 195.289 382.473 195.003C382.22 194.869 382.121 194.555 382.255 194.302C382.389 194.048 382.702 193.95 382.957 194.084C384.272 194.773 385.738 194.064 386.156 193.49C386.325 193.26 386.651 193.207 386.882 193.377C387.114 193.546 387.163 193.871 386.995 194.103C386.502 194.777 385.373 195.408 384.124 195.408Z" fill="#D8A99C"/>
<path d="M382.894 192.452C382.838 192.452 382.786 192.415 382.769 192.358C382.523 191.511 382.811 191.223 383.096 191.13C383.385 191.038 383.731 191.112 384.125 191.355C384.186 191.393 384.205 191.473 384.167 191.534C384.129 191.595 384.049 191.613 383.988 191.577C383.663 191.376 383.389 191.309 383.176 191.378C382.92 191.46 382.867 191.766 383.018 192.287C383.038 192.355 382.999 192.427 382.93 192.447C382.918 192.451 382.906 192.452 382.894 192.452Z" fill="#D8A99C"/>
<path d="M404.289 193.521C402.961 195.105 400.864 195.535 399.606 194.481C398.349 193.426 398.406 191.286 399.734 189.702C401.063 188.118 403.16 187.688 404.418 188.743C405.676 189.797 405.618 191.937 404.289 193.521Z" fill="#F0D0C6"/>
<path d="M403.55 189.517C402.985 189.218 402.231 189.232 401.536 189.556C401.188 189.717 400.937 189.913 400.765 190.155C400.539 190.476 400.475 190.878 400.601 191.205C400.714 191.499 400.948 191.69 401.155 191.858C401.305 191.98 401.446 192.094 401.526 192.232C401.649 192.443 401.618 192.739 401.454 192.92C401.29 193.1 400.998 193.158 400.777 193.056C400.647 192.995 400.492 193.053 400.432 193.182C400.372 193.312 400.429 193.467 400.558 193.527C400.701 193.593 400.855 193.625 401.01 193.625C401.319 193.625 401.628 193.499 401.837 193.268C402.152 192.921 402.209 192.375 401.973 191.97C401.846 191.751 401.651 191.594 401.481 191.455C401.309 191.316 401.147 191.185 401.085 191.019C401.021 190.854 401.062 190.633 401.188 190.455C401.239 190.384 401.308 190.319 401.385 190.256C401.643 190.254 401.965 190.334 402.128 190.511C402.312 190.713 402.398 191.003 402.355 191.272C402.331 191.413 402.427 191.547 402.569 191.57C402.583 191.572 402.597 191.573 402.611 191.573C402.736 191.573 402.846 191.482 402.866 191.355C402.938 190.928 402.805 190.481 402.511 190.159C402.402 190.041 402.265 189.96 402.123 189.894C402.552 189.778 402.977 189.801 403.306 189.975C403.711 190.19 404.019 190.743 403.81 191.195C403.75 191.326 403.806 191.48 403.937 191.541C404.068 191.6 404.221 191.544 404.282 191.414C404.587 190.758 404.251 189.888 403.55 189.517Z" fill="#D8A99C"/>
<path d="M293.497 41.6748H189.213V100.706H293.497V41.6748Z" fill="#654062"/>
<path d="M269.587 46.5723H253.756V50.0601H269.587V46.5723Z" fill="#513050"/>
<path d="M289.183 62.916H193.527V66.4039H289.183V62.916Z" fill="#513050"/>
<path d="M247.582 77.875H193.527V81.3629H247.582V77.875Z" fill="#513050"/>
<path d="M231.617 85.3564H193.527V88.8443H231.617V85.3564Z" fill="#513050"/>
<path d="M278.431 78.753L273.055 84.1289L278.431 89.5048L283.806 84.1289L278.431 78.753Z" fill="#FBD46D"/>
<path d="M283.808 78.753L278.432 84.1289L283.808 89.5048L289.183 84.1289L283.808 78.753Z" fill="#E8BA52"/>
<path d="M210.431 46.0127H193.527V53.2572H210.431V46.0127Z" fill="#FBD46D"/>
<path d="M286.231 50.8431H276.419C275.189 50.8431 274.191 49.8459 274.191 48.6156V48.2401C274.191 47.0098 275.189 46.0127 276.419 46.0127H286.231C287.461 46.0127 288.458 47.0098 288.458 48.2401V48.6156C288.458 49.8459 287.461 50.8431 286.231 50.8431Z" fill="white"/>
<path d="M161.691 58.6572H119.766V100.583H161.691V58.6572Z" fill="#FBD46D"/>
<path d="M138.93 90.6388V63.0887H140.695V90.6388H138.93ZM144.871 71.3537C144.741 70.2632 144.218 69.4166 143.299 68.814C142.381 68.2113 141.255 67.91 139.92 67.91C138.944 67.91 138.091 68.0678 137.359 68.3835C136.634 68.6992 136.067 69.1332 135.658 69.6857C135.257 70.2381 135.056 70.8659 135.056 71.569C135.056 72.1573 135.196 72.6631 135.476 73.0864C135.762 73.5025 136.128 73.8505 136.573 74.1303C137.018 74.4029 137.484 74.6289 137.972 74.8083C138.46 74.9804 138.909 75.1203 139.317 75.228L141.556 75.8306C142.13 75.9813 142.768 76.1893 143.471 76.4548C144.182 76.7203 144.86 77.0826 145.505 77.5417C146.158 77.9937 146.696 78.5749 147.12 79.2851C147.543 79.9954 147.755 80.8671 147.755 81.9003C147.755 83.0912 147.443 84.1674 146.818 85.1288C146.201 86.0902 145.297 86.8542 144.106 87.421C142.923 87.9878 141.484 88.2712 139.791 88.2712C138.213 88.2712 136.846 88.0165 135.691 87.5071C134.543 86.9977 133.639 86.2875 132.979 85.3763C132.326 84.4651 131.956 83.4069 131.87 82.2016H134.625C134.697 83.0338 134.977 83.7226 135.465 84.2678C135.96 84.8059 136.584 85.2077 137.337 85.4732C138.098 85.7314 138.916 85.8606 139.791 85.8606C140.81 85.8606 141.724 85.6956 142.535 85.3655C143.346 85.0283 143.988 84.562 144.462 83.9665C144.935 83.3639 145.172 82.6608 145.172 81.8572C145.172 81.1254 144.967 80.5299 144.558 80.0708C144.149 79.6116 143.611 79.2385 142.944 78.9515C142.277 78.6646 141.556 78.4134 140.781 78.1982L138.069 77.4234C136.347 76.9283 134.984 76.2216 133.98 75.3033C132.975 74.385 132.473 73.1832 132.473 71.6981C132.473 70.4641 132.807 69.3879 133.474 68.4696C134.148 67.5441 135.052 66.8266 136.186 66.3172C137.327 65.8007 138.6 65.5424 140.006 65.5424C141.427 65.5424 142.689 65.7971 143.794 66.3065C144.899 66.8087 145.775 67.4974 146.42 68.3727C147.073 69.248 147.417 70.2417 147.453 71.3537H144.871Z" fill="#E8BA52"/>
<path d="M321.014 100.583H362.939V58.6573L321.014 58.6573V100.583Z" fill="#FBD46D"/>
<path d="M350.443 73.0091H348.152C348.152 69.6032 345.382 66.833 341.977 66.833C338.571 66.833 335.801 69.6032 335.801 73.0091H333.51L330.5 92.2572H353.453L350.443 73.0091ZM341.976 68.6838C344.665 68.6838 346.364 70.3198 346.364 73.008H337.631C337.632 70.3198 339.287 68.6838 341.976 68.6838Z" fill="#E8BA52"/>
<path d="M29.5148 234.384C29.4565 233.174 28.4874 232.205 27.2841 232.153L18.7781 231.767C18.122 231.738 17.481 231.986 17.0148 232.452L6.26407 243.203C5.3457 244.121 5.35326 245.601 6.26407 246.512L15.1564 255.404C16.0672 256.315 17.5468 256.322 18.4652 255.404L29.2158 244.653C29.682 244.187 29.9303 243.545 29.9011 242.89L29.5148 234.384ZM27.2561 236.498C26.6798 237.073 25.7474 237.074 25.1711 236.498C24.5959 235.922 24.5959 234.989 25.1711 234.413C25.7474 233.838 26.6798 233.838 27.2561 234.413C27.8313 234.989 27.8313 235.922 27.2561 236.498Z" fill="#FBD46D"/>
<path d="M19.2772 263.204C8.64738 263.204 0 254.556 0 243.928C0 233.298 8.64738 224.65 19.2772 224.65C29.9059 224.65 38.5544 233.298 38.5544 243.928C38.5544 254.556 29.9059 263.204 19.2772 263.204ZM19.2772 226.712C9.78483 226.712 2.06121 234.435 2.06121 243.928C2.06121 253.42 9.78483 261.142 19.2772 261.142C28.7696 261.142 36.4921 253.42 36.4921 243.928C36.4921 234.434 28.7696 226.712 19.2772 226.712Z" fill="#FBD46D"/>
<path d="M68.7131 71.1162H66.0109H63.6044L60.7586 64.1815C60.5255 63.6106 59.8715 63.3397 59.3049 63.5728C58.7362 63.807 58.4643 64.4578 58.6974 65.0265L61.1956 71.1162H48.0179L50.5162 65.0265C50.7504 64.4578 50.4784 63.807 49.9086 63.5728C49.3421 63.3408 48.6881 63.6117 48.455 64.1815L45.6092 71.1162H43.2027H40.5004C39.8842 71.1162 39.3867 71.6148 39.3867 72.2299C39.3867 72.8451 39.8853 73.3447 40.5004 73.3447H42.3717L45.7765 84.7871C45.9168 85.2598 46.3506 85.5836 46.8438 85.5836H62.3676C62.8608 85.5836 63.2946 85.2598 63.4349 84.7871L66.8397 73.3447H68.711C69.3272 73.3447 69.8258 72.8461 69.8258 72.2299C69.8268 71.6159 69.3283 71.1162 68.7131 71.1162ZM61.5377 83.3551H47.6769L46.5945 79.7183H62.6201L61.5377 83.3551ZM63.2828 77.4909H45.9308L44.6973 73.3458H46.3538L46.3571 73.3469L46.3603 73.3458H62.8533L62.8565 73.3469L62.8597 73.3458H64.5163L63.2828 77.4909Z" fill="#FBD46D"/>
<path d="M54.6083 95.3758C43.1173 95.3758 33.7695 86.028 33.7695 74.537C33.7695 63.046 43.1173 53.6982 54.6083 53.6982C66.0982 53.6982 75.446 63.046 75.446 74.537C75.446 86.0269 66.0982 95.3758 54.6083 95.3758ZM54.6083 55.9267C44.3465 55.9267 35.998 64.2752 35.998 74.537C35.998 84.7988 44.3465 93.1473 54.6083 93.1473C64.869 93.1473 73.2175 84.7988 73.2175 74.537C73.2175 64.2752 64.8701 55.9267 54.6083 55.9267Z" fill="#FBD46D"/>
<path d="M170.495 13.5875H169.826H159.397L169.826 11.9158V8.87365C169.826 7.32504 168.456 6.25559 167.163 6.81244L152.577 13.0414C151.875 13.3425 151.43 14.0439 151.34 14.8576C151.34 14.8684 151.329 14.8911 151.34 14.9019C151.329 14.9688 151.307 15.0357 151.307 15.1026V15.1803V29.4318V31.0365C151.307 31.9171 152.02 32.6294 152.911 32.6294H170.494C171.375 32.6294 172.088 31.9161 172.088 31.0365V15.1814C172.089 14.3008 171.376 13.5875 170.495 13.5875ZM167.788 20.8977C168.702 20.8977 169.447 21.6445 169.447 22.5575C169.447 23.4824 168.701 24.2291 167.788 24.2291C166.874 24.2291 166.128 23.4824 166.128 22.5575C166.128 21.6435 166.874 20.8977 167.788 20.8977Z" fill="#FBD46D"/>
<path d="M161.698 41.6775C150.207 41.6775 140.859 32.3297 140.859 20.8388C140.859 9.34776 150.207 0 161.698 0C173.188 0 182.536 9.34776 182.536 20.8388C182.536 32.3297 173.188 41.6775 161.698 41.6775ZM161.698 2.22848C151.436 2.22848 143.088 10.5769 143.088 20.8388C143.088 31.1006 151.436 39.449 161.698 39.449C171.959 39.449 180.307 31.1006 180.307 20.8388C180.307 10.578 171.959 2.22848 161.698 2.22848Z" fill="#FBD46D"/>
<path d="M400.133 32.548H393.709C395.139 32.2177 396.621 31.6425 397.11 30.6497C397.324 30.2148 397.444 29.5015 396.804 28.5734C396.283 27.818 395.636 27.4586 394.915 27.5093C393.126 27.6302 391.375 30.3076 390.607 31.6458C389.839 30.3076 388.087 27.6291 386.298 27.5093C385.562 27.4489 384.931 27.818 384.41 28.5734C383.769 29.5015 383.889 30.2148 384.104 30.6497C384.592 31.6425 386.076 32.2177 387.505 32.548H381.079C380.557 32.548 380.133 32.9721 380.133 33.4944V36.0466C380.133 36.5689 380.556 36.9931 381.079 36.9931H400.134C400.656 36.9931 401.081 36.5689 401.081 36.0466V33.4944C401.079 32.971 400.655 32.548 400.133 32.548ZM384.878 30.2677C384.817 30.1447 384.633 29.7691 385.12 29.0633C385.442 28.5971 385.787 28.3683 386.172 28.3683C386.193 28.3683 386.216 28.3694 386.238 28.3705C387.497 28.4557 389.03 30.654 389.843 32.0537C387.926 31.8562 385.372 31.2756 384.878 30.2677ZM394.972 28.3705C394.995 28.3694 395.018 28.3683 395.039 28.3683C395.425 28.3683 395.769 28.596 396.092 29.0633C396.578 29.7691 396.394 30.1447 396.333 30.2688C395.839 31.2767 393.287 31.8562 391.369 32.0548C392.181 30.654 393.714 28.4557 394.972 28.3705Z" fill="#FBD46D"/>
<path d="M398.507 38.6875H382.708C381.966 38.6875 381.365 39.2886 381.365 40.03V52.1286C381.365 52.8699 381.966 53.471 382.708 53.471H398.507C399.248 53.471 399.849 52.8699 399.849 52.1286V40.03C399.849 39.2886 399.248 38.6875 398.507 38.6875Z" fill="#FBD46D"/>
<path d="M390.604 62.5173C379.113 62.5173 369.766 53.1696 369.766 41.6786C369.766 30.1876 379.113 20.8398 390.604 20.8398C402.095 20.8398 411.443 30.1876 411.443 41.6786C411.443 53.1696 402.095 62.5173 390.604 62.5173ZM390.604 23.0683C380.343 23.0683 371.994 31.4168 371.994 41.6786C371.994 51.9404 380.343 60.2889 390.604 60.2889C400.866 60.2889 409.215 51.9404 409.215 41.6786C409.215 31.4179 400.866 23.0683 390.604 23.0683Z" fill="#FBD46D"/>
<path d="M464.371 159.762C463.282 158.878 461.698 159.003 460.746 160.033C458.367 162.611 455.536 162.495 455.536 162.495C455.536 162.495 452.704 162.611 450.326 160.033C449.375 159.003 447.789 158.878 446.701 159.762L440.762 164.584C440.217 165.027 440.128 165.825 440.562 166.377L442.863 169.296C443.284 169.829 444.047 169.943 444.605 169.556L447.657 167.435V181.968C447.657 182.677 448.232 183.252 448.941 183.252H455.535H462.128C462.837 183.252 463.413 182.677 463.413 181.968V167.435L466.464 169.556C467.022 169.943 467.785 169.83 468.206 169.296L470.507 166.377C470.942 165.825 470.852 165.027 470.307 164.584L464.371 159.762Z" fill="#FBD46D"/>
<path d="M455.536 190.837C444.045 190.837 434.697 181.489 434.697 169.998C434.697 158.507 444.045 149.159 455.536 149.159C467.027 149.159 476.375 158.507 476.375 169.998C476.375 181.488 467.027 190.837 455.536 190.837ZM455.536 151.388C445.274 151.388 436.926 159.736 436.926 169.998C436.926 180.26 445.274 188.608 455.536 188.608C465.798 188.608 474.146 180.26 474.146 169.998C474.146 159.736 465.799 151.388 455.536 151.388Z" fill="#FBD46D"/>
<path d="M455.875 295.207L460.687 307.693H475.163L479.399 295.207H455.875Z" fill="#FBD46D"/>
<path d="M453.917 295.113H450.139V297.342H452.415L458.171 311.549H461.26V312.047C461.26 312.937 461.981 313.659 462.872 313.659C463.762 313.659 464.484 312.937 464.484 312.047V311.549H468.967V312.047C468.967 312.937 469.689 313.659 470.579 313.659C471.47 313.659 472.191 312.937 472.191 312.047V311.549H475.134V309.321H459.673L453.917 295.113Z" fill="#FBD46D"/>
<path d="M465.155 322.706C453.664 322.706 444.316 313.357 444.316 301.867C444.316 290.376 453.664 281.028 465.155 281.028C476.645 281.028 485.993 290.376 485.993 301.867C485.993 313.357 476.645 322.706 465.155 322.706ZM465.155 283.257C454.893 283.257 446.545 291.605 446.545 301.867C446.545 312.129 454.893 320.477 465.155 320.477C475.416 320.477 483.764 312.129 483.764 301.867C483.764 291.605 475.416 283.257 465.155 283.257Z" fill="#FBD46D"/>
</svg>
