<svg width="32" height="33" viewBox="0 0 32 33" fill="none" xmlns="http://www.w3.org/2000/svg">
<g clip-path="url(#clip0_608_7304)">
<path d="M13.1875 29.7578C14.7408 29.7578 16 28.4986 16 26.9453C16 25.392 14.7408 24.1328 13.1875 24.1328C11.6342 24.1328 10.375 25.392 10.375 26.9453C10.375 28.4986 11.6342 29.7578 13.1875 29.7578Z" fill="#FF725E"/>
<path d="M24.4375 29.7578C25.9908 29.7578 27.25 28.4986 27.25 26.9453C27.25 25.392 25.9908 24.1328 24.4375 24.1328C22.8842 24.1328 21.625 25.392 21.625 26.9453C21.625 28.4986 22.8842 29.7578 24.4375 29.7578Z" fill="#FF725E"/>
<path d="M0.937495 5.3828H4.97522C5.02741 5.57074 9.77176 22.6526 9.47132 21.5711C9.58394 21.9766 9.95382 22.2577 10.3749 22.2577H27.2498C27.6682 22.2577 28.0363 21.9803 28.1516 21.5775L31.9641 8.45253C32.0447 8.16966 31.9879 7.86566 31.8113 7.63041C31.6336 7.39604 31.3563 7.25779 31.0624 7.25779H7.44158L6.59109 4.19443C6.47846 3.78887 6.10859 3.50781 5.68747 3.50781H0.937495C0.41931 3.50781 0 3.92712 0 4.44531C0 4.96349 0.41931 5.3828 0.937495 5.3828ZM23.4999 18.5077H14.1249C13.6067 18.5077 13.1874 18.0884 13.1874 17.5702C13.1874 17.052 13.6067 16.6327 14.1249 16.6327H23.4999C24.018 16.6327 24.4374 17.052 24.4374 17.5702C24.4374 18.0884 24.018 18.5077 23.4999 18.5077ZM12.2499 12.8828H25.3749C25.893 12.8828 26.3123 13.3021 26.3123 13.8203C26.3123 14.3384 25.893 14.7577 25.3749 14.7577H12.2499C11.7317 14.7577 11.3124 14.3384 11.3124 13.8203C11.3124 13.3021 11.7317 12.8828 12.2499 12.8828Z" fill="#FF725E"/>
</g>
<defs>
<clipPath id="clip0_608_7304">
<rect width="32" height="32" fill="white" transform="translate(0 0.632812)"/>
</clipPath>
</defs>
</svg>
