<svg width="32" height="32" viewBox="0 0 32 32" fill="none" xmlns="http://www.w3.org/2000/svg">
<path fill-rule="evenodd" clip-rule="evenodd" d="M10.2657 17.0029C10.5737 17.0029 10.8647 16.8599 11.0547 16.6169C11.0547 16.6169 13.3627 13.6499 14.7487 10.9799C15.4147 9.69692 15.8517 8.46193 15.8517 7.58893C15.8517 4.50593 13.3487 2.00293 10.2657 2.00293C7.18272 2.00293 4.67969 4.50593 4.67969 7.58893C4.67969 8.46193 5.11671 9.69692 5.78271 10.9799C7.16872 13.6499 9.47672 16.6169 9.47672 16.6169C9.56772 16.7349 9.68369 16.8289 9.81369 16.8949L9.96069 16.9549C9.97569 16.9599 9.99171 16.9639 10.0067 16.9689C10.0907 16.9909 10.1767 17.0029 10.2657 17.0029ZM10.4427 5.99992C11.3027 5.99992 12.0007 6.69792 12.0007 7.55792C12.0007 8.41692 11.3027 9.11493 10.4427 9.11493C9.58369 9.11493 8.88571 8.41692 8.88571 7.55792C8.88571 6.69792 9.58369 5.99992 10.4427 5.99992Z" fill="#FF725E"/>
<path fill-rule="evenodd" clip-rule="evenodd" d="M30.0137 23.0004H2.01367C2.01367 23.7964 2.32967 24.5594 2.89267 25.1214C3.45467 25.6844 4.21867 26.0004 5.01367 26.0004H5.18466C5.07366 26.3134 5.01367 26.6504 5.01367 27.0004C5.01367 28.6564 6.35868 30.0014 8.01468 30.0014C9.66968 30.0014 11.0147 28.6564 11.0147 27.0004C11.0147 26.6504 10.9547 26.3134 10.8437 26.0004H20.6847C20.5737 26.3134 20.5137 26.6504 20.5137 27.0004C20.5137 28.6564 21.8587 30.0014 23.5147 30.0014C25.1697 30.0014 26.5147 28.6564 26.5147 27.0004C26.5147 26.6504 26.4547 26.3134 26.3437 26.0004H27.0137C27.8097 26.0004 28.5727 25.6844 29.1347 25.1214C29.6977 24.5594 30.0137 23.7964 30.0137 23.0004ZM8.01468 26.0004C8.56668 26.0004 9.01468 26.4484 9.01468 27.0004C9.01468 27.5534 8.56668 28.0014 8.01468 28.0014C7.46168 28.0014 7.01367 27.5534 7.01367 27.0004C7.01367 26.4484 7.46168 26.0004 8.01468 26.0004ZM23.5147 26.0004C24.0667 26.0004 24.5147 26.4484 24.5147 27.0004C24.5147 27.5534 24.0667 28.0014 23.5147 28.0014C22.9617 28.0014 22.5137 27.5534 22.5137 27.0004C22.5137 26.4484 22.9617 26.0004 23.5147 26.0004ZM19.0007 22.0004V9.00035L18.9997 8.99934L18.9987 9.00035C18.9857 9.00035 18.8427 9.00035 18.8427 9.00035C18.5737 8.23635 18.0027 7.61434 17.2737 7.27734C17.0857 7.93234 16.0227 10.6963 15.6357 11.4413C14.8047 13.0413 13.6517 14.7474 12.8357 15.8894H13.0137C13.5657 15.8894 14.0137 16.3374 14.0137 16.8894C14.0137 17.4414 13.5657 17.8894 13.0137 17.8894H8.01367C7.46167 17.8894 7.01367 17.4414 7.01367 16.8894C7.01367 16.4374 7.31368 16.0554 7.72568 15.9314C6.90768 14.7894 5.73668 13.0613 4.89468 11.4413C4.14068 9.98735 3.67966 8.57736 3.67966 7.58936C3.67966 7.49536 3.68167 7.40235 3.68567 7.31035C2.69467 7.79935 2.01367 8.82035 2.01367 10.0004V22.0004H19.0007ZM20.0007 9.00035V22.0004H30.0137V18.0004C30.0137 18.0004 26.3737 18.0004 24.0007 18.0004C23.4707 18.0004 22.9617 17.7894 22.5867 17.4144C22.2117 17.0394 22.0007 16.5304 22.0007 16.0004C22.0007 13.3484 22.0007 9.00035 22.0007 9.00035H20.0007ZM23.0137 9.11736V16.0004C23.0137 16.5524 23.4617 17.0004 24.0137 17.0004H30.0137V16.8284C30.0137 16.0334 29.6977 15.2704 29.1347 14.7074L24.3067 9.87935C23.9437 9.51635 23.4977 9.25636 23.0137 9.11736Z" fill="#FF725E"/>
</svg>
