<svg width="32" height="32" viewBox="0 0 32 32" fill="none" xmlns="http://www.w3.org/2000/svg">
<g clip-path="url(#clip0_608_7335)">
<path fill-rule="evenodd" clip-rule="evenodd" d="M12.373 31.9999C12.1387 31.9999 11.9193 31.9093 11.7549 31.7449L2.62867 22.618C2.46367 22.4537 2.37305 22.2343 2.37305 22.0005C2.37305 21.7668 2.46367 21.5474 2.62867 21.3824L18.148 5.86305C18.3124 5.69805 18.5318 5.60742 18.7655 5.60742C18.9993 5.60742 19.2187 5.69805 19.3837 5.86305L28.5105 14.9893C28.8505 15.3299 28.8505 15.8843 28.5099 16.2249L12.9905 31.7449C12.8262 31.9093 12.6068 31.9999 12.373 31.9999ZM11.4193 26.843C11.3368 26.843 11.2568 26.8099 11.198 26.7512L7.65305 23.2062C7.59492 23.148 7.5618 23.068 7.5618 22.9855C7.5618 22.9024 7.59492 22.823 7.65305 22.7643C7.91805 22.4999 8.06367 22.1474 8.06367 21.773C8.06367 21.3987 7.91805 21.0462 7.65305 20.7818C7.59492 20.723 7.5618 20.6437 7.5618 20.5605C7.5618 20.4774 7.59492 20.398 7.65305 20.3393L17.1049 10.888C17.2268 10.7655 17.4249 10.7655 17.5468 10.888C17.8118 11.1524 18.1637 11.2987 18.5387 11.2987C18.913 11.2987 19.2649 11.1524 19.5299 10.8874C19.6518 10.7655 19.8499 10.7655 19.9718 10.8874L23.5168 14.4324C23.5843 14.4999 23.6168 14.5943 23.6062 14.6893C23.5955 14.7837 23.5418 14.868 23.4612 14.9187C23.3712 14.9749 23.2868 15.0418 23.2099 15.1187C22.6637 15.6649 22.6637 16.5543 23.2105 17.1012C23.2687 17.1599 23.3018 17.2393 23.3018 17.3224C23.3018 17.4049 23.2687 17.4843 23.2105 17.543L14.3087 26.4449C14.2499 26.5037 14.1705 26.5362 14.0874 26.5362C14.0049 26.5362 13.9255 26.5037 13.8668 26.4449C13.6018 26.1799 13.2499 26.0343 12.8749 26.0343C12.5005 26.0343 12.1487 26.1799 11.8837 26.4449C11.8074 26.5212 11.7405 26.6055 11.6843 26.6955C11.6343 26.7762 11.5493 26.8299 11.4549 26.8405C11.443 26.8424 11.4312 26.843 11.4193 26.843ZM16.4743 21.3012C16.0668 21.3012 15.6587 21.1455 15.3487 20.8355C15.2262 20.713 15.2262 20.5155 15.3487 20.3937C15.4705 20.2712 15.668 20.2712 15.7905 20.3937C16.1662 20.7693 16.7768 20.7705 17.1543 20.3974L17.1587 20.393L17.163 20.3893C17.5362 20.0112 17.5343 19.4005 17.1587 19.0249C16.7812 18.6474 16.1674 18.648 15.7905 19.0249C15.4893 19.3255 15.0893 19.4912 14.6643 19.4912C14.2387 19.4912 13.8387 19.3255 13.538 19.0249C12.9924 18.4793 12.9262 17.6337 13.3387 17.0149L12.918 16.5943C12.7962 16.4724 12.7962 16.2749 12.918 16.1524C13.0405 16.0305 13.238 16.0305 13.3599 16.1524L13.7805 16.573C14.3993 16.1605 15.2449 16.2268 15.7905 16.7724C15.9124 16.8943 15.9124 17.0924 15.7905 17.2143C15.668 17.3368 15.4705 17.3362 15.3487 17.2143C14.9712 16.8368 14.3574 16.8374 13.9799 17.2143C13.6024 17.5918 13.6024 18.2055 13.9799 18.583C14.1624 18.7655 14.4055 18.8662 14.6643 18.8662C14.9224 18.8662 15.1655 18.7655 15.3487 18.583C15.9693 17.9618 16.9793 17.9618 17.6005 18.583C18.1462 19.128 18.2124 19.9737 17.7999 20.5924L18.2205 21.013C18.3424 21.1349 18.3424 21.333 18.2205 21.4549C18.1593 21.5162 18.0793 21.5462 17.9993 21.5462C17.9193 21.5462 17.8393 21.5162 17.778 21.4549L17.358 21.0343C17.0912 21.2124 16.783 21.3012 16.4743 21.3012ZM8.2993 22.9687L11.3887 26.058C11.4062 26.0393 11.4237 26.0212 11.4418 26.003C11.8249 25.6199 12.3337 25.4093 12.8755 25.4093C13.3112 25.4093 13.7262 25.5455 14.0712 25.7987L22.5643 17.3049C21.9849 16.513 22.053 15.3918 22.768 14.6762C22.7862 14.658 22.8049 14.6405 22.8237 14.623L19.7343 11.5337C19.3893 11.7868 18.9743 11.9237 18.5387 11.9237C18.1024 11.9237 17.688 11.7868 17.343 11.5337L8.2993 20.5774C8.55242 20.9224 8.68867 21.3374 8.68867 21.773C8.68867 22.2087 8.55242 22.6237 8.2993 22.9687Z" fill="#FF725E"/>
<path fill-rule="evenodd" clip-rule="evenodd" d="M14.7128 8.41503C14.5246 6.73378 14.9321 5.02253 15.8796 3.6019C16.949 1.99815 18.579 0.907529 20.4696 0.529404C22.3603 0.151904 24.284 0.533154 25.8871 1.60253L26.2265 1.82878L27.3534 0.139404C27.4196 0.040029 27.5359 -0.012471 27.6546 0.00252904C27.7728 0.018779 27.8715 0.100029 27.9096 0.213154L29.6096 5.28128C29.6403 5.37315 29.6271 5.47378 29.5734 5.55378C29.5196 5.6344 29.4315 5.68565 29.3353 5.69253L24.0034 6.07003C23.8828 6.07815 23.7709 6.01878 23.7109 5.91565C23.6509 5.81253 23.6546 5.6844 23.7209 5.58503L24.8478 3.89565L24.5084 3.6694C22.3378 2.2219 19.3946 2.81003 17.9465 4.98065C17.8428 5.1369 17.7478 5.29878 17.6634 5.4644L14.7128 8.41503Z" fill="#FF725E"/>
</g>
<defs>
<clipPath id="clip0_608_7335">
<rect width="32" height="32" fill="white"/>
</clipPath>
</defs>
</svg>
