<svg width="407" height="400" viewBox="0 0 407 400" fill="none" xmlns="http://www.w3.org/2000/svg">
<path d="M213.711 166.234V169.783L313.426 208.613V205.064L213.711 166.234Z" fill="#7F542E"/>
<path d="M213.712 147.029V150.586C227.123 155.795 186.039 139.812 280.074 176.429L261.162 165.507L213.712 147.029Z" fill="#7F542E"/>
<path d="M213.711 147.029L261.16 165.506L219.938 141.702L213.711 147.029Z" fill="#A26D42"/>
<path d="M299.414 187.592V184.035L214.373 134.936V138.492C232.851 149.152 261.25 165.565 299.414 187.592Z" fill="#6899F4"/>
<path d="M218.387 166.174L311.77 202.535V188.769L303.18 185.423V185.416L299.415 187.591L280.075 176.429L218.387 152.407C218.387 155.596 218.387 162.968 218.387 166.174Z" fill="#A5B3BF"/>
<path d="M218.978 135.394L298.625 181.38V167.936L218.978 121.95C218.978 127.008 218.978 130.413 218.978 135.394Z" fill="#A5B3BF"/>
<path d="M299.414 168.395V164.839L214.373 115.739V119.287C220.797 123.002 298.143 167.656 299.414 168.395Z" fill="#6899F4"/>
<path d="M303.178 185.417V185.424C313.228 189.339 311.235 188.563 313.426 189.415V185.86L306.847 183.302L303.178 185.417Z" fill="#7F542E"/>
<path d="M306.847 183.3L313.426 185.859L336.238 166.331L306.847 183.3Z" fill="#A26D42"/>
<path d="M311.769 202.535L218.387 166.174V162.235L213.713 166.233L313.427 205.063L332.43 188.784C332.107 187.847 331.567 186.991 330.824 186.226L311.769 202.535Z" fill="#A26D42"/>
<path d="M311.769 188.769V202.535L330.824 186.226C329.976 185.341 328.866 184.568 327.516 183.901C327.516 183.743 327.516 183.585 327.516 183.428C330.525 180.855 333.532 178.275 336.541 175.701C338.019 176.422 339.235 177.276 340.142 178.251C340.333 178.061 340.018 178.356 357.172 163.675C358.665 162.392 359.768 159.685 359.768 157.659V152.745L348.98 158.972L313.428 189.414L311.769 188.769Z" fill="#DFE3E7"/>
<path d="M313.427 205.064V208.612L332.804 192.025C332.917 190.84 332.789 189.767 332.429 188.784L313.427 205.064Z" fill="#C48B5E"/>
<path d="M313.425 185.86V189.415L348.977 158.973L336.254 166.324C336.177 166.362 336.863 165.797 313.425 185.86Z" fill="#C48B5E"/>
<path d="M327.514 183.428C332.472 185.859 334.461 189.692 332.668 195.064L341.692 187.336C343.453 182.021 341.53 178.133 336.538 175.701C333.531 178.275 330.522 180.856 327.514 183.428Z" fill="#D2898A"/>
<path d="M332.67 195.064C334.462 189.692 332.474 185.859 327.516 183.429C327.516 183.586 327.516 183.744 327.516 183.901C332.35 186.29 333.86 189.939 332.19 194.801L332.67 195.064Z" fill="#C95B68"/>
<path d="M359.271 133.887C358.838 134.06 362.933 131.723 299.413 168.395L298.626 167.937V181.381L356.038 148.238C357.861 147.18 359.316 144.644 359.316 142.551C359.315 133.889 359.335 134.27 359.271 133.887Z" fill="#DFE3E7"/>
<path d="M359.271 133.886C359.341 134.307 359.316 133.888 359.316 142.551C359.316 144.644 357.861 147.179 356.037 148.237L298.625 181.381L218.978 135.394V132.281L214.372 134.937L299.413 184.037L358.73 149.791C360.546 148.748 362.016 146.22 362.016 144.104V136.04C362.016 135.387 361.835 134.577 361.363 134.135C360.921 133.728 360.169 133.54 359.271 133.886Z" fill="#9ED2E9"/>
<path d="M359.765 152.746V157.659C359.765 159.685 358.662 162.393 357.169 163.676C337.437 180.564 340.399 177.993 340.139 178.252C340.882 179.017 341.43 179.858 341.79 180.772C341.865 180.772 341.781 180.785 360.334 164.906C361.796 163.654 362.93 160.968 362.93 158.89C362.93 149.941 362.958 150.854 362.862 150.758C362.171 151.434 361.746 151.602 359.765 152.746Z" fill="#A26D42"/>
<path d="M364.131 128.59C272.84 75.8784 279.018 79.3669 278.513 79.2944C277.98 79.2265 277.462 79.3093 276.765 79.7146L214.372 115.738L299.413 164.838C365.921 126.438 362.123 128.499 362.946 128.394C363.343 128.342 363.778 128.403 364.131 128.59Z" fill="#9ED2E9"/>
<path d="M282.418 100.359L255.358 115.981C254.249 116.622 252.452 116.622 251.344 115.981L250.009 115.212C248.9 114.571 248.9 113.533 250.009 112.894L277.069 97.2708C278.178 96.6311 279.976 96.6311 281.084 97.2708L282.418 98.0406C283.527 98.6812 283.527 99.7188 282.418 100.359Z" fill="#76B2CC"/>
<path d="M365.092 145.882C365.092 147.554 364.169 149.505 362.864 150.758C362.965 150.86 362.932 150.198 362.932 158.89C362.932 160.968 361.799 163.654 360.336 164.906C341.48 181.045 341.867 180.773 341.792 180.773C342.174 181.718 342.362 182.746 342.34 183.856C342.415 183.856 342.066 184.097 362.767 166.376C364.23 165.124 365.363 162.438 365.363 160.36V145.191C365.363 144.711 365.303 144.178 365.094 143.743V145.882H365.092Z" fill="#C48B5E"/>
<path d="M290.8 206.096C292.787 206.865 294.66 207.58 296.524 208.316C298.297 209.014 299.923 209.003 301.297 207.458C302.653 205.931 304.223 205.819 306.023 206.672C307.36 207.305 308.755 207.847 310.168 208.286C311.122 208.582 313.426 208.613 313.426 208.613V205.065C313.426 205.065 309.401 203.502 308.013 202.58C309.204 202.486 311.769 202.537 311.769 202.537V195.066C311.769 195.066 312.309 192.979 313.133 192.28C320.722 185.849 328.288 179.39 335.811 172.882C336.887 171.951 338.097 171.703 339.381 171.479C342.127 171.001 344.862 170.411 347.627 170.084C349.841 169.823 350.813 168.514 351.292 166.583C351.669 165.059 352.09 163.54 352.348 161.994C352.74 159.651 354.368 156.265 356.453 154.659C350.512 157.548 343.442 162.173 337.223 165.766C338.681 165.766 339.622 165.766 341.046 165.766C331.771 173.787 313.427 189.416 313.427 189.416V185.867L306.848 183.301L305.641 184.057C305.641 184.057 301.741 186.281 299.571 187.512C299.466 186.168 299.386 185.15 299.303 184.101C298.142 183.334 296.696 182.555 295.221 181.58C296.413 181.441 298.625 181.38 298.625 181.38C298.625 181.38 298.673 177.129 298.546 175.241C298.436 173.592 299.139 173.002 300.473 172.235C313.037 165.019 325.579 157.764 338.13 150.523C342.969 147.731 347.804 144.935 352.66 142.172C355.709 140.437 356.763 141.034 356.822 144.465C356.839 145.407 356.825 146.35 356.825 147.493C358.838 147.526 360.519 146.878 361.746 145.77C361.746 145.77 362.435 144.294 362.016 143.003C362.016 143.003 362.771 135.383 362.356 134.396C361.678 132.78 359.699 133.729 359.699 133.729C358.821 134.109 357.987 134.596 357.156 135.075C339.087 145.502 321.022 155.934 302.953 166.363C301.917 166.962 299.412 168.394 299.412 168.394V164.838L214.371 115.738V119.286L218.977 121.949V132.279L214.371 134.934V138.49L217.873 140.538C206.088 147.577 194.025 154.04 182.172 161.131C183.363 161.89 184.214 162.479 185.108 162.994C209.758 177.207 234.413 191.412 259.067 205.619C261.335 206.927 263.617 208.213 265.851 209.576C267.607 210.647 269.324 210.525 271.062 209.63C271.837 209.231 272.614 208.816 273.327 208.319C274.65 207.395 275.943 207.537 277.256 208.285C277.938 208.674 278.628 209.053 279.286 209.48C281.183 210.712 283.07 210.565 284.957 209.481C286.919 208.355 288.872 207.213 290.8 206.096Z" fill="#B0A7C2"/>
<path d="M329.838 194.725C330.89 194.725 331.821 195.064 332.669 195.064C334.462 189.414 332.253 185.57 327.515 183.429C326.471 185.18 327.168 187.705 326.509 189.815C327.634 190.25 328.654 190.644 329.837 191.102C329.838 192.19 329.838 193.358 329.838 194.725Z" fill="#C5BED1"/>
<path d="M356.452 154.658C359.197 156.47 358.209 159.357 357.78 163.045C359.092 162.5 361.595 159.941 362.908 159.396C362.908 156.33 362.864 153.615 362.864 150.757C361.097 150.979 358.666 152.832 356.452 154.658Z" fill="#C5BED1"/>
<path d="M364.439 128.807C364.044 128.444 363.465 128.326 362.946 128.394C362.122 128.499 365.905 126.447 299.412 164.838V168.394C362.764 131.819 359.085 133.832 359.87 133.72C360.386 133.652 360.966 133.769 361.363 134.133C361.836 134.575 362.016 135.385 362.016 136.038V144.103C362.016 146.218 360.546 148.746 358.73 149.789L299.413 184.035V187.591C301.121 186.605 355.704 155.09 361.806 151.568C363.592 150.548 365.092 148.024 365.092 145.881C365.092 142.001 365.092 134.605 365.092 130.712C365.092 130.06 364.911 129.25 364.439 128.807Z" fill="#82C2E8"/>
<path d="M226.294 206.055C225.995 209.15 225.395 211.47 223.976 214.306C222.828 216.602 220.775 219.476 218.831 221.166C216.653 223.066 214.01 224.364 211.461 225.754C207.613 227.84 204.045 230.065 200.336 232.29C199.388 232.853 138.413 268.07 137.392 268.489C132.347 270.614 128.585 267.56 128.585 261.814C128.186 93.5986 128.403 125.182 128.261 115.161C128.214 107.837 128.029 100.468 128.122 93.1439C128.169 88.2775 128.307 83.4567 128.214 78.5438C128.169 76.5049 128.076 74.4185 128.307 72.4251C129.175 66.3528 132.714 60.8913 136.558 57.8705C138.134 56.6191 139.942 55.6456 141.749 54.6721C144.623 53.0497 147.404 51.3817 150.185 49.7593C159.76 44.1584 169.289 38.9452 181.981 31.4968C205.152 17.7084 203.483 19.5726 209.513 15.6918C213.683 12.9992 219.243 8.64322 223.326 11.6129C226.224 13.6825 225.966 18.0515 225.875 21.2536C225.723 25.9136 226.116 24.9522 225.921 42.018C225.885 49.9573 226.416 203.548 226.294 206.055ZM167.057 46.1453C167.057 46.2382 167.057 46.3768 167.104 46.4698C167.15 46.6083 167.15 46.7013 167.243 46.7478C167.289 46.8398 167.335 46.8863 167.428 46.9328C168.041 47.2387 166.979 47.6543 185.737 36.8281C185.876 36.7351 185.969 36.6431 186.062 36.5501C186.287 36.3986 186.548 36.0657 186.618 35.8546C187.093 35.1406 186.989 34.6924 186.989 33.2587C186.989 32.8831 186.927 32.58 186.618 32.4247C186.487 32.2946 186.236 32.3206 186.062 32.3783C185.969 32.3783 185.83 32.4247 185.737 32.5177C183.002 34.1578 168.336 42.4578 167.984 42.8074C167.682 43.1096 167.473 43.2258 167.243 43.9203C166.977 44.3183 167.057 45.0835 167.057 46.1453Z" fill="url(#paint0_linear_238_1631)"/>
<path opacity="0.69" d="M200.421 59.8903L214.139 51.9706C215.821 50.9999 217.184 48.8503 217.184 47.1684C217.184 45.4874 215.821 44.9109 214.139 45.8816L200.421 53.8013C198.739 54.772 197.376 56.9216 197.376 58.6036C197.377 60.2846 198.74 60.861 200.421 59.8903Z" fill="#FCFCFC"/>
<path opacity="0.69" d="M200.421 68.4441L214.139 60.5243C215.821 59.5537 217.184 57.4031 217.184 55.7221C217.184 54.0411 215.821 53.4646 214.139 54.4353L200.421 62.355C198.739 63.3257 197.376 65.4753 197.376 67.1573C197.377 68.8383 198.74 69.4147 200.421 68.4441Z" fill="#FCFCFC"/>
<path opacity="0.69" d="M144.502 78.3425L211.086 39.9005C214.548 37.9015 217.355 33.4739 217.355 30.0115C217.355 26.549 214.548 25.3627 211.086 27.3616L144.502 65.8037C141.039 67.8027 138.232 72.2302 138.232 75.6927C138.232 79.1551 141.039 80.3415 144.502 78.3425Z" fill="#FCFCFC"/>
<path d="M185.508 32.6571C166.901 43.3894 167.672 42.6409 167.245 43.9203C167.152 44.0597 167.106 44.1983 167.106 44.3377C167.059 44.4772 167.059 44.6157 167.059 44.7552V45.8672C186.024 34.8988 184.305 35.9457 184.719 35.531C185.152 35.0987 185.508 34.4097 185.508 33.7235V32.6571Z" fill="#3F4F5D"/>
<path d="M186.063 32.3785C185.971 32.3785 185.832 32.425 185.739 32.518L185.507 32.6575C185.507 33.9526 185.527 33.9247 185.415 34.3719C185.168 35.112 184.685 35.6625 184.21 35.9479L167.06 45.8666V46.1446C167.06 46.2376 167.06 46.3761 167.107 46.4691C167.153 46.6086 167.153 46.7006 167.246 46.7471C167.292 46.8392 167.338 46.8857 167.431 46.9321C167.664 47.0484 167.579 47.0251 167.987 47.0251C168.08 46.9786 168.219 46.9321 168.312 46.8856C186.116 36.6099 186.345 36.6796 186.62 35.854C187.109 35.1213 186.991 34.5663 186.991 33.2581C186.991 33.0294 186.977 32.8583 186.852 32.6091C186.599 32.3581 186.415 32.2614 186.063 32.3785Z" fill="#5D6571"/>
<path d="M215.589 9.2502C219.095 7.19449 222.23 7.15544 224.488 8.32323C210.775 0.591304 211.039 0.29006 209.193 0.0724949C206.457 -0.239906 204.691 0.486243 202.426 1.69494L125.298 46.2381C118.843 49.8595 112.644 59.5997 112.644 68.2084C113.09 268.594 112.989 256.109 113.2 258.014C113.531 260.199 114.844 262.755 116.769 263.854C133.33 273.292 129.504 271.352 128.728 270.575C126.921 268.814 126.225 265.709 126.179 263.205L125.808 75.7628C125.808 67.8979 131.14 58.0777 138.462 53.7924L215.589 9.2502Z" fill="#8140FF"/>
<path d="M138.461 53.7934L215.589 9.25024C219.098 7.19267 222.233 7.15734 224.488 8.32326C224.488 8.36975 224.535 8.36975 224.535 8.36975C227.212 9.55985 228.289 13.5114 228.289 16.574L228.65 193.037L228.66 193.031V204.016C228.66 211.81 223.511 221.512 216.053 225.987L138.878 270.53C132.344 274.361 126.337 271.777 126.178 263.206L125.807 75.7637C125.807 67.9379 131.103 58.1001 138.461 53.7934ZM128.263 115.162C128.398 124.689 128.191 94.3609 128.588 261.815C128.588 267.551 132.341 270.617 137.394 268.49C138.385 268.083 199.423 232.834 200.339 232.29C204.047 230.065 207.616 227.84 211.463 225.754C214.013 224.363 216.654 223.066 218.833 221.166C220.773 219.478 222.828 216.606 223.978 214.306C225.397 211.469 225.995 209.151 226.296 206.055C226.409 203.726 226.272 204.725 226.252 196.475L226.249 196.473C226.249 87.1115 225.887 49.9916 225.925 42.0198C226.119 24.954 225.726 25.9144 225.878 21.2554C225.953 18.653 226.143 15.8209 224.905 13.4686C224.031 11.914 222.84 11.0986 221.66 10.8262C218.003 9.60727 212.739 13.6118 209.516 15.6926C206.133 17.871 202.471 19.725 198.902 21.6719C190.435 26.2463 184.633 30.1653 165.066 41.2323C144.37 53.031 146.903 51.7656 141.751 54.6739C138.147 56.6143 135.769 57.9904 133.13 61.3487C131.389 63.6331 130.366 65.5698 129.515 67.699C127.968 71.9536 128.117 74.1645 128.217 78.5447C128.31 83.4575 128.17 88.2784 128.125 93.1448C128.032 100.469 128.217 107.838 128.263 115.162Z" fill="#A68EFE"/>
<path opacity="0.69" d="M138.232 199.659C138.232 202.413 140.464 203.356 143.218 201.766L212.068 162.015C214.822 160.425 217.055 156.904 217.055 154.15V115.66C217.055 112.906 214.822 111.962 212.068 113.553L143.217 153.304C140.463 154.894 138.232 158.415 138.232 161.169V199.659Z" fill="#FCFCFC"/>
<path d="M168.783 169.429C165.107 166.665 166.089 159.157 170.975 152.66C175.862 146.163 182.802 143.138 186.478 145.902C190.153 148.666 189.172 156.174 184.285 162.671C179.399 169.168 172.458 172.193 168.783 169.429Z" fill="#9D8CF9"/>
<path opacity="0.69" d="M172.031 160.028C171.632 160.49 171.385 161.058 171.385 161.52C171.385 161.982 171.632 162.266 172.031 162.266H179.427C179.826 162.266 180.319 161.981 180.719 161.52C181.119 161.059 181.365 160.49 181.365 160.028V151.489C181.365 151.028 181.119 150.743 180.719 150.743C180.319 150.743 179.826 151.028 179.427 151.489L172.031 160.028Z" fill="#FCFCFC"/>
<path opacity="0.69" d="M138.232 252.299C138.232 255.053 140.464 255.997 143.218 254.407L212.068 214.656C214.822 213.066 217.055 209.545 217.055 206.791V168.3C217.055 165.546 214.822 164.604 212.068 166.193L143.217 205.945C140.463 207.534 138.232 211.055 138.232 213.809V252.299Z" fill="#FCFCFC"/>
<path d="M166.573 216.691C166.573 222.805 171.53 224.9 177.644 221.37C183.758 217.841 188.715 210.022 188.715 203.908C188.715 197.793 183.758 195.699 177.644 199.228C171.53 202.758 166.573 210.577 166.573 216.691Z" fill="#9D8CF9"/>
<path opacity="0.69" d="M172.031 212.668C171.632 213.13 171.385 213.699 171.385 214.161C171.385 214.623 171.632 214.906 172.031 214.906H179.427C179.826 214.906 180.319 214.622 180.719 214.161C181.119 213.699 181.365 213.13 181.365 212.668V204.128C181.365 203.667 181.119 203.383 180.719 203.383C180.319 203.383 179.826 203.667 179.427 204.128L172.031 212.668Z" fill="#FCFCFC"/>
<path opacity="0.69" d="M138.232 147.16C138.232 149.914 140.464 150.857 143.218 149.267L212.068 109.516C214.822 107.926 217.055 104.405 217.055 101.651V68.7396C217.055 65.9857 214.822 65.0429 212.068 66.6328L143.217 106.384C140.463 107.974 138.232 111.495 138.232 114.249V147.16Z" fill="#FCFCFC"/>
<path d="M166.573 114.342C166.573 120.456 171.53 122.551 177.644 119.021C183.758 115.492 188.715 107.673 188.715 101.559C188.715 95.4445 183.758 93.3497 177.644 96.8801C171.53 100.409 166.573 108.228 166.573 114.342Z" fill="#9D8CF9"/>
<path opacity="0.69" d="M172.031 110.319C171.632 110.78 171.385 111.349 171.385 111.811C171.385 112.273 171.632 112.557 172.031 112.557H179.427C179.826 112.557 180.319 112.272 180.719 111.811C181.119 111.35 181.365 110.781 181.365 110.319V101.78C181.365 101.318 181.119 101.034 180.719 101.034C180.319 101.034 179.826 101.319 179.427 101.78L172.031 110.319Z" fill="#FCFCFC"/>
<path d="M126.053 200.386L125.806 75.7634C125.806 75.7634 116.267 77.3487 113.948 60.9355C112.13 63.5742 112.643 80.5666 112.643 80.5666L112.927 200.898C112.927 200.898 95.5759 201.256 86.4493 201.103C78.1577 200.965 70.7168 203.086 63.6729 207.188C63.578 207.243 34.468 223.795 9.44899 238.486C6.13995 240.429 2.24425 241.805 0.000729134 246.004C5.36733 250.643 10.6856 253.772 18.094 253.66C40.5208 253.322 62.9579 253.704 85.3857 253.422C90.8899 253.353 95.5489 254.77 100.128 257.475C108.584 262.469 117.168 267.248 125.606 272.27C129.081 274.339 132.429 273.973 136.082 271.789C123.528 275.673 126.146 255.493 126.146 255.493L126.053 200.386Z" fill="#B0A7C2"/>
<path d="M88.4302 292.348V281.897C88.4302 280.442 89.4446 278.695 90.6914 277.974L32.0567 244.123C30.8043 244.845 29.7955 246.596 29.7955 248.04V258.497C29.7955 259.293 30.1089 259.766 30.4594 259.963C49.9993 271.242 69.5383 282.528 89.0727 293.808C88.5864 293.483 88.4302 292.926 88.4302 292.348Z" fill="#9F3759"/>
<path d="M32.0553 244.122L90.6899 277.973L95.547 275.165C96.9696 261.3 98.3865 247.429 99.7988 233.559L75.0727 219.285L32.0553 244.122Z" fill="#BB426A"/>
<path d="M89.3267 293.924C89.7563 294.051 90.303 293.881 90.6907 293.659L93.8436 291.833C93.9338 290.967 94.0239 290.097 94.1094 289.231C92.7762 290.004 92.5121 290.204 92.0286 290.277C91.6158 290.333 91.2374 290.181 91.1788 290.123C90.8116 289.908 90.6498 289.508 90.5838 289.088C90.5299 288.804 90.5466 289.251 90.5466 283.116C90.5466 281.672 91.5498 279.92 92.8078 279.193L95.2819 277.765C95.3721 276.9 95.4623 276.035 95.5469 275.164L90.6898 277.972C89.442 278.693 88.4286 280.44 88.4286 281.894V292.346C88.4286 292.924 88.5858 293.482 89.0711 293.806C89.0841 293.819 89.2096 293.887 89.3267 293.924Z" fill="#BB426A"/>
<path d="M90.5841 289.088C90.8174 289.001 90.6994 289.053 94.3422 286.949C94.6602 283.891 94.9735 280.828 95.2812 277.766L92.8071 279.194C91.5492 279.921 90.5459 281.672 90.5459 283.116C90.5478 289.134 90.5311 288.813 90.5841 289.088Z" fill="#C8D1DD"/>
<path d="M91.2104 290.144C91.7348 290.417 92.2936 290.282 92.8087 289.985L94.1094 289.231H94.115C94.1894 288.472 94.2694 287.713 94.3438 286.948C90.726 289.038 90.8115 289.003 90.5856 289.088C90.6516 289.508 90.8125 289.909 91.1807 290.123C91.189 290.134 91.2002 290.139 91.2104 290.144Z" fill="#CD7E8E"/>
<path d="M93.845 291.833C93.7278 293.001 93.606 294.168 93.4898 295.336C93.4424 295.824 93.6804 296.451 94.4131 296.971L103.41 303.325C104.684 304.222 106.702 304.312 107.927 303.607L113.83 245.815C113.83 244.265 113.83 242.71 113.83 241.16C113.803 240.735 114.104 240.355 114.436 240.088L114.42 240.066C113.193 240.778 111.177 240.682 109.902 239.786L100.905 233.432C100.209 232.938 99.9228 232.348 99.9861 231.802C99.9331 231.802 97.4962 256.823 93.845 291.833Z" fill="#DA926E"/>
<path d="M104.53 233.118C104.652 233.001 104.795 232.9 104.939 232.815H104.945L105.146 230.803C104.22 231.333 103.902 232.284 104.53 233.118Z" fill="#E2AE4A"/>
<path d="M104.531 233.118C104.843 233.557 104.874 233.515 109.919 237.078C111.177 237.964 113.194 238.071 114.431 237.36L152.326 215.479C144.611 210.029 146.047 211.044 144.523 209.969C101.928 234.556 104.735 232.922 104.531 233.118Z" fill="#C8D1DD"/>
<path d="M104.944 232.815L144.523 209.969L145.675 210.78L146.041 207.192L105.146 230.804L104.944 232.815Z" fill="#E2AE4A"/>
<path d="M113.83 245.814L107.927 303.606L113.83 300.198C113.83 282.071 113.83 263.948 113.83 245.814Z" fill="#DA926E"/>
<path d="M113.83 308.861C113.83 309.264 114.075 309.768 114.769 310.172L123.82 315.401C124.711 315.91 126.124 316.112 127.413 315.773C127.413 293.526 127.413 271.285 127.413 249.043C127.413 248.749 127.532 248.458 127.705 248.225C127.88 248.002 128.109 247.838 128.348 247.695C127.1 248.422 125.078 248.422 123.82 247.695C113.993 242.017 114.444 242.345 114.121 241.935C113.951 241.712 113.84 241.435 113.829 241.16C113.83 261.041 113.83 273.96 113.83 308.861Z" fill="#648F66"/>
<path d="M118.093 240.905C118.001 241.271 118.147 241.818 118.666 242.238C118.871 242.064 116.14 243.658 158.589 219.152L159.9 219.911V216.243L119.006 239.855C118.618 240.078 118.199 240.464 118.093 240.905Z" fill="#72A368"/>
<path d="M123.82 245.247C125.078 245.974 127.1 245.969 128.348 245.247L166.062 223.473C159.043 219.415 160.317 220.153 158.588 219.152C116.154 243.65 118.87 242.064 118.665 242.237C118.889 242.417 118.772 242.331 123.82 245.247Z" fill="#C8D1DD"/>
<path d="M127.415 249.043C127.415 268.799 127.415 292.208 127.415 316.708C127.415 317.105 127.66 317.615 128.35 318.013L137.406 323.242C138.653 323.959 140.67 323.975 141.934 323.242V255.54C140.67 256.273 138.653 256.257 137.406 255.54L128.35 250.311C127.89 250.041 127.415 249.581 127.415 249.043Z" fill="#5A84D9"/>
<path d="M131.677 248.746C131.583 249.122 131.757 249.703 132.25 250.078C132.455 249.904 129.724 251.499 172.173 226.993L173.484 227.752V224.084L132.59 247.695C132.202 247.923 131.783 248.311 131.677 248.746Z" fill="#6899F4"/>
<path d="M132.249 250.078C132.462 250.26 132.298 250.143 137.404 253.094C138.652 253.81 140.674 253.821 141.932 253.094L179.652 231.314C172.627 227.257 173.903 227.995 172.173 226.993C129.739 251.491 132.456 249.903 132.249 250.078Z" fill="#C8D1DD"/>
<path d="M141.933 255.54V323.241L184.951 298.41V230.702L141.933 255.54Z" fill="#6899F4"/>
<path d="M140.17 323.926C140.17 301.214 140.17 278.735 140.17 256.139C137.369 255.852 135.25 254.049 132.897 252.752C130.936 251.669 130.301 248.797 128.348 247.695C127.749 247.356 126.577 247.915 125.499 248.049C124.875 248.126 124.155 247.656 123.519 247.347C122.821 247.009 122.173 246.569 121.5 246.181C120.883 245.825 120.25 245.496 119.641 245.127C117.817 244.021 116.008 242.89 114.174 241.802C113.89 241.634 114.787 240.166 114.435 240.089C114.396 239.776 113.072 240.933 113.033 240.62C112.915 240.552 112.806 240.435 112.697 240.434C111.039 240.429 109.761 239.557 108.487 238.643C105.756 236.683 102.985 234.212 99.9902 232.084C99.781 233.897 99.6034 236.048 99.4342 237.672C98.6606 245.065 97.8908 252.457 97.133 259.852C97.0335 260.818 96.9238 262.063 96.8578 263.032C96.7732 264.268 96.3604 264.855 95.1777 265.497C91.4791 267.508 87.8363 269.624 84.213 271.77C82.5534 272.753 80.9923 273.902 79.1365 275.143C62.8926 265.856 46.8151 256.471 29.9473 246.836C29.9473 249.091 29.6228 250.931 29.7548 252.717C29.8692 254.268 29.2713 254.952 27.8572 255.675C25.4956 256.883 23.2381 258.295 20.9462 259.638C20.5195 259.888 20.1364 260.211 19.4577 260.699C36.1432 270.337 52.6019 279.845 69.2615 289.47C68.7668 289.862 68.4683 290.163 68.1132 290.369C63.0711 293.297 58.0178 296.207 52.9766 299.136C52.2161 299.578 51.158 299.873 51.238 300.993C51.3068 301.959 52.2468 302.262 52.9868 302.651C55.6246 304.038 58.3079 305.344 60.8908 306.825C62.4834 307.738 64.0891 308.192 65.9412 307.846C66.0528 308.494 65.997 309.177 66.2946 309.626C66.6311 310.131 67.255 310.476 67.8064 310.803C69.9811 312.089 72.1865 313.321 74.3612 314.608C75.887 315.511 77.409 316.37 79.5084 315.907C79.434 317.382 80.2931 318.039 81.3512 318.629C84.0103 320.111 86.6341 321.658 89.2504 323.216C90.3699 323.883 91.5711 323.936 92.8142 323.935C107.862 323.926 122.912 323.929 137.96 323.929C138.655 323.926 139.351 323.926 140.17 323.926Z" fill="#B0A7C2"/>
<path d="M105.147 230.804L146.042 207.193L143.934 205.701L100.921 230.539C99.7625 231.201 99.5756 232.488 100.905 233.432L109.903 239.786C111.176 240.684 113.194 240.779 114.42 240.067L114.436 240.089C114.667 239.892 111.664 241.649 157.422 215.225L155.325 213.749C150.973 216.261 157.206 212.662 114.43 237.361C113.194 238.072 111.176 237.966 109.918 237.079L105.13 233.697C103.821 232.768 103.97 231.476 105.147 230.804Z" fill="#EBD863"/>
<path d="M131.655 249.005C131.622 248.463 132.123 247.97 132.59 247.694L173.484 224.083L171.366 222.862C125.404 249.394 128.047 247.791 127.706 248.225C127.101 249.038 127.495 249.809 128.349 250.312L137.405 255.541C138.653 256.258 140.669 256.273 141.933 255.541L184.951 230.703L182.828 229.482C179.044 231.665 187.294 226.902 141.933 253.094C140.675 253.821 138.653 253.81 137.405 253.094C132.324 250.158 132.289 250.203 131.948 249.781C131.783 249.557 131.665 249.282 131.655 249.005Z" fill="#82C2E8"/>
<path d="M114.435 240.088C114.103 240.355 113.803 240.735 113.83 241.16C113.853 241.753 114.254 242.174 114.769 242.465L123.819 247.694C125.077 248.421 127.099 248.421 128.347 247.694L171.365 222.862L169.242 221.636C143.021 236.807 128.432 245.197 128.347 245.247C127.099 245.968 125.077 245.974 123.819 245.247C119.062 242.499 118.891 242.419 118.664 242.237C118.319 241.958 118.086 241.589 118.07 241.16C118.037 240.619 118.54 240.121 119.005 239.853L159.899 216.242L157.781 215.016C157.729 215.047 114.696 239.866 114.435 240.088Z" fill="#84BF80"/>
<path d="M81.5236 233.125L54.4637 248.748C53.3545 249.388 51.5573 249.388 50.449 248.748L49.1148 247.978C48.0056 247.337 48.0056 246.3 49.1148 245.66L76.1746 230.037C77.2838 229.396 79.0811 229.396 80.1894 230.037L81.5236 230.807C82.6328 231.447 82.6328 232.484 81.5236 233.125Z" fill="#9F3759"/>
<path d="M149.921 266.142L176.981 250.519C178.09 249.879 178.988 250.259 178.988 251.368V252.702C178.988 253.812 178.089 255.228 176.981 255.869L149.921 271.492C148.812 272.132 147.914 271.752 147.914 270.643V269.309C147.914 268.2 148.813 266.783 149.921 266.142Z" fill="#4B7CD6"/>
<path d="M149.921 275.599L176.981 259.976C178.09 259.336 178.988 259.716 178.988 260.825V262.159C178.988 263.268 178.089 264.685 176.981 265.326L149.921 280.949C148.812 281.59 147.914 281.209 147.914 280.1V278.766C147.914 277.657 148.813 276.24 149.921 275.599Z" fill="#4B7CD6"/>
<path d="M238.417 86.5518V92.6798C268.23 109.894 256.664 103.216 291.133 123.116V116.986L238.417 86.5518Z" fill="#785CAD"/>
<path d="M238.416 86.551L291.132 116.985L316.316 102.446C315.93 101.866 315.334 101.205 314.735 100.867C314.676 100.847 291.988 87.7346 291.961 87.7151C291.593 87.5106 291.224 87.0717 291.07 86.5306C290.799 85.5478 291.293 84.5055 292.241 84.1048C292.912 83.8212 293.664 83.9561 294.074 84.2294C318.248 98.1833 316.675 97.3316 316.769 97.3316C318.049 98.0903 319.08 99.1791 319.851 100.405C319.944 100.312 318.059 101.438 343.848 86.5501L291.132 56.1143L238.416 86.551Z" fill="#BFB5F4"/>
<path d="M262.826 124.623C262.774 126.156 263.109 127.701 263.71 129.033C263.712 129.04 263.715 129.046 263.719 129.051C264.34 130.51 265.643 132.372 267.632 134.081C278.792 143.81 304.195 143.737 315.139 133.628C315.114 133.19 315.173 133.027 315.173 132.934C315.811 128.787 316.473 125.118 316.473 124.93C316.571 124.345 316.866 123.801 317.354 123.409C317.354 118.265 317.354 113.12 317.354 107.976L291.131 123.116L262.818 106.771C262.818 112.829 262.818 118.89 262.818 124.95C262.818 124.84 262.821 124.731 262.826 124.623Z" fill="#8140FF"/>
<path d="M291.131 116.985V123.115L317.354 107.976C317.354 105.282 317.402 105.151 317.218 104.43C317.036 103.717 316.716 103.047 316.315 102.446L291.131 116.985Z" fill="#A68EFE"/>
<path d="M321.431 123.873C321.431 93.3951 321.431 135.433 321.431 105.408C321.463 102.585 319.593 99.0053 316.769 97.3317C316.676 97.3317 318.129 98.1137 294.074 84.2295C294.224 84.329 293.671 83.9106 292.946 83.9478C290.999 84.0324 290.28 86.5493 291.864 87.6529C292.385 88.0211 314.612 100.713 315.189 101.183C316.458 102.22 317.354 104.079 317.354 105.402C317.354 112.012 317.354 116.817 317.354 123.897C317.354 124.245 317.623 124.54 317.951 124.728C319.177 125.438 321.431 124.991 321.431 123.873Z" fill="#48413C"/>
<path d="M321.43 123.909C321.415 124.292 321.135 124.566 320.795 124.748C319.397 125.501 317.354 124.86 317.354 123.899C317.354 123.782 317.354 123.525 317.354 123.408C317.099 123.614 316.892 123.865 316.744 124.139C316.582 124.442 316.472 124.839 316.472 124.948C316.163 126.54 319.681 127.451 321.585 126.227C322.232 125.803 322.388 125.273 322.313 124.95C322.313 124.762 322.115 123.964 321.43 123.41C321.43 123.627 321.43 123.461 321.43 123.909Z" fill="#D2448D"/>
<path d="M321.431 105.622L343.848 92.6798V86.5518C318.125 101.402 319.944 100.313 319.851 100.406C320.194 100.934 320.542 101.607 320.809 102.292C321.31 103.597 321.431 104.574 321.431 105.622Z" fill="#A68EFE"/>
<path d="M322.075 125.787C320.8 127.436 316.496 126.933 316.459 125.115C316.454 124.963 316.695 123.53 315.187 132.859C315.181 132.883 315.178 132.908 315.174 132.932V132.934C314.797 134.942 316.597 136.994 319.796 136.78C322.493 136.599 323.92 134.847 323.611 132.934C323.611 132.836 322.328 125.043 322.313 124.948C322.36 125.152 322.308 125.476 322.075 125.787Z" fill="#AA226D"/>
<path d="M291.133 123.115C291.133 123.115 285.027 141.443 275.94 138.667L269.632 139.246L266.836 138.598L257.839 132.244C256.453 131.208 256.734 130.025 257.855 129.352L261.637 127.134C262.407 126.682 262.862 125.841 262.82 124.95V106.771L291.133 123.115Z" fill="#B0A7C2"/>
<path d="M181.41 179.429C181.41 179.455 181.41 179.477 181.41 179.5C181.41 181.459 184.799 181.78 184.799 183.321C184.799 184.206 182.642 185.908 182.642 187.741C182.642 191.902 187.302 192.78 191.456 192.78C192.14 192.78 192.809 192.761 193.447 192.741H193.451C193.669 190.964 194.346 189.045 195.582 187.896C192.16 186.087 190.397 179.335 181.945 179.335C181.747 179.334 181.565 179.36 181.41 179.429Z" fill="#E6A57A"/>
<path d="M258.437 183.673C257.133 182.645 255.602 181.851 253.926 181.287C253.793 182.266 253.523 183.191 253.137 183.917C252.226 184.17 251.285 184.28 250.339 184.28C247.932 184.28 245.467 183.577 243.233 182.763C243.074 182.127 242.954 181.482 242.87 180.83C239.936 181.705 237.655 182.923 235.955 184.087C233.175 185.992 229.873 187.039 226.503 187.012C217.853 186.943 208.422 190.466 202.455 188.951C200.583 188.474 198.816 187.65 196.98 187.05C196.451 187.229 195.984 187.521 195.579 187.896C194.343 189.045 193.666 190.965 193.448 192.741C193.4 193.105 193.374 193.461 193.367 193.805C204.845 201.019 217.261 198.649 227.61 201.824C230.049 202.573 231.565 205.011 231.223 207.539C229.642 219.262 226.292 232.648 230.4 236.598C230.412 236.609 230.426 236.619 230.439 236.629C234.081 239.506 239.272 241.182 246.621 241.182C253.467 241.182 258.163 236.084 260.161 229.705V229.701C260.366 229.047 260.545 228.378 260.691 227.7C260.217 225.891 259.526 222.557 259.156 218.909C259.001 217.372 258.904 215.776 258.904 214.219C258.904 204.308 261.449 196.574 261.449 191.232C261.449 189.41 261.212 187.562 260.508 186.067C260.045 185.078 259.378 184.244 258.437 183.673Z" fill="#F6BA28"/>
<path d="M224.13 302.311C221.573 302.311 219.37 304.365 219.37 306.828C219.37 312.297 231.86 318.441 237.116 318.441C240.843 318.441 241.637 315.19 241.637 311.46C241.637 310.366 241.558 309.269 241.496 308.171C241.637 305.415 239.29 305.044 239.189 304.434C238.43 304.936 239.614 307.003 238.792 307.003C236.25 307.003 234.429 304.876 232.772 302.591C231.633 304.066 231.434 305.456 231.548 307.231C229.447 304.898 226.351 302.311 224.13 302.311Z" fill="#A68EFE"/>
<path d="M255.686 289.847C255.99 291.079 256.267 292.195 256.507 293.164C256.723 294.036 257.17 294.83 257.803 295.467C258.366 296.033 258.989 296.673 259.115 296.673C261.288 296.673 263.168 298.823 263.165 291.442H263.168C262.597 287.447 261.614 233.09 260.162 229.705C258.164 236.084 253.469 241.182 246.622 241.182C239.273 241.182 234.081 239.506 230.439 236.629L230.436 236.632C229.972 239.382 229.806 242.109 229.806 244.84C229.806 244.995 232.012 294.876 232.517 303.726C232.984 305.644 233.939 306.912 236.607 307.84C237.855 308.274 238.628 308.157 239.194 307.862C240.022 307.431 240.626 306.576 240.586 305.644C240.206 296.633 244.044 257.882 247.805 251.388C250.305 259.392 253.06 279.213 255.686 289.847Z" fill="#D2448D"/>
<path d="M242.751 179.558C242.777 179.983 242.816 180.408 242.871 180.829C242.955 181.481 243.075 182.126 243.234 182.762C245.468 183.576 247.933 184.28 250.339 184.28C251.286 184.28 252.227 184.169 253.138 183.916C253.524 183.19 253.793 182.266 253.926 181.286C253.988 180.839 254.018 180.381 254.018 179.924C254.018 178.247 253.599 176.603 252.672 175.672C252.403 176.239 252.066 176.729 251.667 177.158V177.16C249.922 179.039 247.091 179.632 244.416 179.632C244.322 179.632 244.231 179.632 244.137 179.629C243.665 179.623 243.201 179.6 242.751 179.558Z" fill="#8140FF"/>
<path d="M243.828 178.054C243.955 178.577 244.055 179.102 244.136 179.63C244.23 179.633 244.321 179.633 244.415 179.633C247.091 179.633 249.922 179.04 251.666 177.161V177.159C251.64 176.387 251.624 175.615 251.618 174.837C250.441 175.135 249.257 174.996 248.015 175.398C247.208 176.056 246.176 176.526 245.096 176.756C244.668 177.185 244.246 177.623 243.828 178.054Z" fill="#E6A57A"/>
<path d="M256.256 292.147C256.081 291.438 255.89 290.668 255.687 289.846C254.031 288.598 252.1 287.703 250.258 287.703C248.001 287.703 246.111 288.981 246.111 291.406C246.111 299.42 258.434 305.643 261.94 305.643C261.969 305.643 262.001 305.643 262.031 305.643C263.465 305.305 264.57 304.19 264.57 302.452C264.57 298.765 263.838 296.17 263.169 291.442H263.166C262.698 296.388 256.655 293.757 256.256 292.147Z" fill="#A68EFE"/>
<path d="M258.904 214.22C258.904 215.776 259.001 217.372 259.157 218.909H259.16C262.484 213.986 264.596 206.696 264.596 199.824C264.596 194.58 263.367 189.583 260.509 186.067C261.213 187.562 261.45 189.411 261.45 191.233C261.449 196.575 258.904 204.309 258.904 214.22Z" fill="#F2A305"/>
<path d="M233.98 152.373C233.455 154.094 233.605 155.812 235.662 156.44C235.671 156.442 235.677 156.444 235.683 156.446C235.727 156.459 235.769 156.473 235.811 156.481C237.86 157.043 238.296 159.487 239.599 159.885C246.214 161.906 236.592 173.909 245.398 176.598C245.86 176.739 246.344 176.832 246.829 176.876C247.929 176.971 249.053 176.823 250.017 176.429C251.322 176.407 252.414 176.886 253.626 176.945C254.101 176.968 254.592 176.927 255.125 176.768C259.397 175.485 262.06 172.036 263.329 167.88C264.739 163.265 264.827 157.002 261.854 151.927C260.645 149.855 258.929 147.982 256.585 146.496C255.19 145.612 253.571 144.863 251.706 144.294C244.669 142.144 236.012 145.719 233.98 152.373Z" fill="#E06C00"/>
<path d="M235.81 156.481C235.591 157.022 235.397 157.569 235.227 158.127C233.583 163.509 233.564 176.015 239.647 177.873C241.132 178.326 242.977 178.259 245.243 177.625C245.241 177.665 245.239 177.705 245.236 177.745C245.763 177.455 246.294 177.159 246.828 176.875C246.343 176.832 245.859 176.738 245.397 176.597C236.591 173.907 246.214 161.905 239.598 159.884C238.296 159.487 237.86 157.043 235.81 156.481Z" fill="#E6A57A"/>
<path d="M70.6803 241.206C66.025 243.894 66.025 248.252 70.6803 250.94C75.3357 253.628 82.8844 253.628 87.5398 250.94C92.1951 248.252 92.1951 243.894 87.5398 241.206C82.8844 238.518 75.3366 238.518 70.6803 241.206Z" fill="#C5BED1"/>
<path d="M68.6375 137.698C68.6393 137.698 68.6421 137.698 68.644 137.697C68.829 137.592 69.028 137.481 69.2353 137.37C69.2418 137.367 69.2437 137.359 69.2409 137.354C69.2372 137.347 69.2298 137.345 69.2242 137.348C69.1442 137.396 69.0773 137.418 68.6319 137.675C68.6263 137.679 68.6235 137.686 68.6273 137.693C68.6291 137.696 68.6338 137.698 68.6375 137.698Z" fill="black"/>
<path d="M87.487 192.221C88.519 191.394 89.3242 190.261 89.3242 188.934C89.3242 187.438 89.3242 185.941 89.3242 184.445C89.3242 185.224 89.0444 185.965 88.5618 186.628C85.8683 190.329 77.545 191.216 72.7028 188.421C71.191 187.549 69.8568 186.185 69.8512 184.446C69.8512 185.942 69.8503 187.439 69.8503 188.935C69.8475 190.67 71.2068 192.047 72.7028 192.91C77.0234 195.404 84.0524 194.975 87.487 192.221Z" fill="#B19069"/>
<path d="M88.404 185.659L88.4021 185.658C88.2059 186.112 87.9177 186.523 87.583 186.882C84.6961 189.981 77.4123 190.612 73.0842 188.113C72.1108 187.551 71.1764 186.752 70.7115 185.729C70.6575 185.614 70.4205 184.998 69.8784 184.032L69.8774 184.033C69.6385 185.928 71.0452 187.463 72.703 188.42C77.5434 191.214 85.8685 190.328 88.562 186.627C89.1515 185.818 89.4471 184.883 89.2761 183.884L89.2752 183.883C88.9377 184.472 88.6448 185.062 88.404 185.659Z" fill="#C0AD88"/>
<path d="M73.9008 201.387C78.1219 204.453 85.1667 203.935 87.1843 201.417C88.009 200.389 87.8017 199.263 86.8319 198.378C84.4164 200.594 77.8541 200.848 73.8998 197.976C73.0686 197.372 72.3471 196.607 71.9269 195.717C70.9069 197.887 71.9603 199.978 73.9008 201.387Z" fill="#C0AD88"/>
<path d="M87.242 204.138C87.109 203.918 86.9258 203.683 86.8831 203.64C84.4768 205.931 77.8355 206.147 73.8998 203.289C73.0658 202.682 72.3462 201.916 71.9278 201.028C70.9023 203.206 71.9752 205.303 73.8998 206.701C76.5497 208.625 80.6537 209.241 83.8158 208.518C85.4829 208.135 87.5953 207.137 87.692 205.509V205.508C87.7208 205.036 87.5637 204.568 87.242 204.138Z" fill="#C0AD88"/>
<path d="M71.8289 206.945C71.8308 206.945 71.8327 206.944 71.8346 206.943C71.8411 206.94 71.8438 206.933 71.8401 206.926C71.6254 206.498 71.5472 206.077 71.5472 205.607C71.5472 205.6 71.5417 205.594 71.5352 205.594C71.5287 205.594 71.5231 205.599 71.5231 205.606C71.5091 206.077 71.6198 206.533 71.8187 206.936C71.8197 206.942 71.8243 206.945 71.8289 206.945Z" fill="black"/>
<path d="M71.5351 205.691C71.5369 205.691 71.5397 205.69 71.5416 205.689C71.5443 205.687 71.5462 205.686 71.5471 205.677H71.5481C71.5481 205.62 71.549 205.585 71.5527 205.536C71.5527 205.529 71.5481 205.523 71.5406 205.522C71.5248 205.522 71.5304 205.535 71.5276 205.535C71.5229 205.598 71.523 205.619 71.523 205.677C71.5249 205.686 71.5276 205.688 71.5286 205.689C71.5304 205.69 71.5323 205.691 71.5351 205.691Z" fill="black"/>
<path d="M87.6944 201.985C87.6944 201.352 87.6953 200.718 87.6953 200.086C87.6953 203.383 79.0885 205.157 73.8985 201.388C72.5095 200.379 71.5871 199.032 71.5313 197.564C71.5313 198.151 71.5313 198.737 71.5313 199.323H71.5323C71.5295 200.952 72.5736 202.329 73.8976 203.29C77.8519 206.161 84.483 205.923 86.8809 203.641C87.355 203.19 87.6953 202.631 87.6944 201.985Z" fill="#B19069"/>
<path d="M87.6953 196.672C87.6953 196.039 87.6953 195.405 87.6953 194.771C87.6935 195.519 87.2267 196.255 86.3527 196.853C83.5495 198.767 77.5265 198.71 73.8985 196.075C72.5671 195.108 71.5332 193.737 71.5332 192.11C71.5332 192.744 71.5323 193.377 71.5323 194.01C71.5323 195.644 72.5755 197.014 73.8995 197.976C77.8277 200.829 84.3946 200.614 86.8315 198.378C87.3253 197.926 87.6953 197.338 87.6953 196.672Z" fill="#B19069"/>
<path d="M73.901 196.075C77.529 198.71 83.5529 198.768 86.3552 196.854C87.88 195.81 88.1962 194.312 86.8322 193.066C84.9094 194.819 81.13 195.048 78.3862 194.514C76.0125 194.345 73.333 193.621 71.5413 192.101L71.5339 192.109C71.5348 193.749 72.5835 195.119 73.901 196.075Z" fill="#C0AD88"/>
<path d="M72.0191 207.284C72.0219 207.284 72.0238 207.283 72.0256 207.282C72.0312 207.279 72.033 207.271 72.0293 207.265C71.994 207.207 71.9475 207.131 71.9057 207.053L71.9047 207.052C71.901 207.045 71.8936 207.043 71.888 207.046C71.8834 207.049 71.8815 207.053 71.8815 207.057C71.8815 207.059 71.8824 207.061 71.8833 207.063C71.9038 207.105 71.9801 207.232 72.0089 207.279C72.0107 207.281 72.0154 207.284 72.0191 207.284Z" fill="black"/>
<path d="M72.6005 208.003C72.6033 208.003 72.607 208.002 72.6098 208C72.6144 207.995 72.6144 207.987 72.6098 207.982C72.5791 207.95 72.5512 207.921 72.5243 207.893C72.5196 207.888 72.5112 207.887 72.5066 207.892C72.5019 207.896 72.501 207.905 72.5057 207.909C72.527 207.932 72.5438 207.95 72.5912 207.998C72.594 208.002 72.5968 208.003 72.6005 208.003Z" fill="black"/>
<path d="M72.6942 208.097C72.698 208.097 72.7008 208.096 72.7035 208.094C72.7082 208.089 72.7082 208.081 72.7035 208.076C72.6719 208.046 72.6421 208.016 72.6133 207.988L72.6124 207.986L72.6115 207.985C72.6115 207.985 72.6096 207.983 72.6078 207.982C72.6031 207.977 72.5948 207.977 72.5901 207.982C72.5873 207.985 72.5864 207.988 72.5864 207.991C72.5864 207.995 72.5873 207.998 72.5901 208C72.7156 208.123 72.6766 208.083 72.6868 208.095C72.6877 208.096 72.6914 208.097 72.6942 208.097Z" fill="black"/>
<path d="M73.1061 208.456C73.1099 208.456 73.1136 208.454 73.1164 208.451C73.1182 208.449 73.1191 208.446 73.1191 208.444C73.1191 208.44 73.1173 208.436 73.1145 208.433C73.0066 208.349 72.9016 208.26 72.804 208.171C72.7993 208.166 72.791 208.167 72.7863 208.172C72.7845 208.175 72.7835 208.178 72.7826 208.18C72.7826 208.184 72.7844 208.187 72.7872 208.19C72.8858 208.279 72.9908 208.368 73.0996 208.454C73.0996 208.454 73.1034 208.456 73.1061 208.456Z" fill="black"/>
<path d="M73.901 208.991C73.9057 208.991 73.9094 208.988 73.9122 208.984C73.9131 208.982 73.9141 208.98 73.9141 208.978C73.9141 208.973 73.9113 208.969 73.9075 208.967C73.8806 208.952 73.782 208.893 73.6741 208.826C73.6686 208.822 73.6602 208.824 73.6565 208.83C73.6528 208.835 73.6546 208.844 73.6602 208.848C73.7309 208.892 73.808 208.939 73.8945 208.988C73.8963 208.99 73.8992 208.991 73.901 208.991Z" fill="black"/>
<path d="M56.2764 157.288C56.6604 142.559 73.7281 128.697 90.1235 137.423C96.8904 141.024 102.131 147.767 103.169 155.15C103.811 159.719 102.757 164.063 100.608 168.209C96.7602 175.628 90.5252 180.394 88.4016 185.659L88.3998 185.658C88.2036 186.112 87.9154 186.523 87.5807 186.882C84.6937 189.981 77.41 190.613 73.0819 188.113C72.1084 187.551 71.174 186.752 70.7091 185.729C70.6552 185.614 70.4181 184.998 69.8761 184.032C66.2472 177.54 55.9668 169.242 56.2764 157.288Z" fill="url(#paint1_linear_238_1631)"/>
<path d="M78.3877 194.513C80.7958 194.981 83.7636 194.86 85.8435 193.75C86.5036 193.396 87.1545 192.895 87.4883 192.221C85.1471 194.097 81.4466 194.731 78.3877 194.513Z" fill="#C0AD88"/>
<path d="M72.9123 208.278C72.8333 208.22 72.7533 208.148 72.6808 208.069C73.0852 208.494 74.7606 210.228 75.4756 210.964C77.2877 212.835 81.9533 212.835 83.758 210.964C83.8733 210.841 83.9895 210.726 84.1113 210.603C84.8914 209.794 85.6779 208.985 86.4654 208.17C86.5017 208.134 86.538 208.091 86.5742 208.055C86.1772 208.444 85.7003 208.784 85.1591 209.073C84.8123 209.268 84.4367 209.434 84.0471 209.579C83.9458 209.615 83.8454 209.651 83.744 209.686C83.6789 209.715 83.6213 209.73 83.5562 209.759C83.5348 209.766 83.5125 209.774 83.4911 209.774C83.4772 209.781 83.4549 209.789 83.4409 209.789C83.3107 209.832 83.188 209.868 83.0653 209.897C82.9863 209.918 82.9063 209.94 82.8273 209.954C82.7483 209.976 82.6683 209.998 82.5892 210.019C82.3075 210.084 82.0184 210.135 81.7227 210.178C81.6213 210.2 81.5135 210.215 81.4047 210.228C81.2169 210.25 81.0291 210.272 80.8338 210.286C80.6962 210.301 80.5521 210.315 80.408 210.322C80.3504 210.322 80.2993 210.33 80.2416 210.33H80.2054C79.9962 210.337 79.7934 210.345 79.5842 210.345C78.7465 210.345 77.9014 210.272 77.0934 210.121C76.927 210.092 76.768 210.056 76.61 210.019C76.5811 210.019 76.5597 210.012 76.5374 210.004C76.2418 209.939 75.9526 209.86 75.6783 209.766C74.7681 209.47 73.9378 209.065 73.2451 208.546C73.1289 208.459 73.0211 208.372 72.9123 208.278Z" fill="#C0AD88"/>
<path d="M71.5325 202.826V205.679C71.5325 206.524 71.9221 207.282 72.5144 207.903L72.6008 207.989C72.6222 208.018 72.651 208.047 72.6798 208.068C72.7524 208.141 72.8314 208.205 72.9114 208.277C73.0192 208.371 73.128 208.458 73.2433 208.544C73.9295 209.079 74.7597 209.476 75.6765 209.765C75.9508 209.859 76.2399 209.938 76.5355 210.003C76.5569 210.01 76.5792 210.018 76.6081 210.018C76.7671 210.054 76.9261 210.09 77.0916 210.119C77.9005 210.271 78.7456 210.343 79.5824 210.343C79.7916 210.343 80.0017 210.336 80.2035 210.328H80.2397C80.3262 210.321 80.4127 210.321 80.4927 210.307C80.608 210.307 80.7242 210.3 80.832 210.286C81.0263 210.271 81.2142 210.249 81.4029 210.228C81.5108 210.213 81.6195 210.199 81.7209 210.178C82.0165 210.134 82.3057 210.084 82.5874 210.019C82.7464 209.983 82.9054 209.946 83.0644 209.896C83.1871 209.867 83.3098 209.831 83.44 209.788C83.4549 209.788 83.4763 209.781 83.4902 209.773C83.5116 209.773 83.5339 209.766 83.5553 209.758C84.1262 209.578 84.6599 209.361 85.1443 209.095C85.6426 208.828 86.0908 208.517 86.4655 208.17C86.5017 208.134 86.5379 208.091 86.5742 208.055C86.5696 208.059 86.565 208.063 86.5603 208.067C86.9034 207.726 87.1935 207.358 87.398 206.943C87.636 206.445 87.716 205.99 87.6937 205.513C87.6862 205.578 87.6862 205.636 87.6723 205.701C87.6649 205.759 87.6509 205.816 87.636 205.867C87.6212 205.933 87.6072 205.99 87.5849 206.04C87.5635 206.098 87.5421 206.156 87.5133 206.213C87.4919 206.271 87.4621 206.321 87.4333 206.38C87.4045 206.43 87.3682 206.488 87.332 206.539C87.2957 206.589 87.2595 206.648 87.2167 206.698C87.1377 206.799 87.0503 206.899 86.9499 206.993C86.8997 207.044 86.8485 207.095 86.7909 207.137C86.6821 207.239 86.5668 207.325 86.4441 207.412C86.2637 207.542 86.0545 207.665 85.8378 207.78C85.7653 207.816 85.6863 207.852 85.6138 207.889C85.5338 207.932 85.4548 207.968 85.3757 207.997C84.4153 208.408 83.2308 208.683 81.9459 208.777C81.852 208.784 81.7655 208.792 81.6716 208.798C81.3248 208.813 80.9715 208.819 80.6098 208.805C80.4871 208.805 80.3643 208.798 80.2342 208.791C79.7433 208.769 79.2524 208.718 78.754 208.632C78.6964 208.632 78.6461 208.624 78.595 208.61C78.4723 208.589 78.3495 208.567 78.2342 208.538C78.2268 208.538 78.2194 208.538 78.2194 208.538C77.1288 208.314 76.053 207.953 75.0638 207.418C74.8034 207.288 74.544 207.137 74.2911 206.97C74.1609 206.884 74.0308 206.797 73.9016 206.703C73.2805 206.249 72.7533 205.728 72.3488 205.158C72.2549 205.02 72.161 204.876 72.082 204.732C72.0169 204.617 71.9593 204.508 71.9091 204.393C71.8654 204.306 71.83 204.22 71.8012 204.132C71.7649 204.046 71.7287 203.952 71.7073 203.858C71.6785 203.764 71.6497 203.67 71.6283 203.569C71.6069 203.483 71.592 203.396 71.5781 203.309C71.5706 203.272 71.5632 203.244 71.5632 203.207C71.5465 203.086 71.5325 202.955 71.5325 202.826Z" fill="#B19069"/>
<path d="M74.1581 163.713C74.3013 164.054 74.8759 164.04 75.1771 163.75C75.35 163.582 75.3732 163.401 75.3267 163.292C75.2022 162.936 74.6071 162.944 74.3012 163.241C74.1376 163.4 74.1014 163.575 74.1581 163.713Z" fill="#EDDFDF"/>
<path d="M77.9239 174.635C78.0522 174.963 78.8481 175.003 79.1168 174.683C79.1819 174.606 79.1977 174.523 79.1717 174.446C79.1596 174.421 75.3401 163.338 75.3317 163.314C75.4349 163.685 74.8985 164.058 74.4578 163.949C74.309 163.911 74.203 163.823 74.1565 163.713C75.0342 166.201 77.9007 174.635 77.9239 174.635Z" fill="#E8DDA5"/>
<path d="M77.9246 174.636C77.7191 174.041 77.5146 173.447 77.3101 172.852C76.3292 173.542 76.4454 174.531 77.5025 175.14C78.8265 175.904 81.0208 175.766 82.0389 174.889C82.9379 174.114 82.5734 173.157 81.4958 172.632C81.3117 173.373 81.3397 173.414 81.1649 173.531C80.7604 173.803 79.998 173.638 80.0566 173.282C80.1384 172.949 80.2202 172.614 80.303 172.28C79.6773 172.19 79.0292 172.222 78.4537 172.361C78.4648 172.393 79.1575 174.417 79.1724 174.446C79.2942 174.803 78.5345 175.047 78.0985 174.811C78.0232 174.769 77.9553 174.71 77.9256 174.636H77.9246Z" fill="#BAA286"/>
<path d="M76.9449 174.692C76.7663 174.483 76.6371 174.224 76.6371 173.947C76.6371 174.562 76.6362 178.358 76.6362 179.126C76.6362 179.639 77.0332 180.059 77.5009 180.329C79.3604 181.402 82.543 180.636 82.543 179.124C82.543 178.53 82.543 174.604 82.543 173.941H82.5411C82.5411 174.327 82.3263 174.639 82.0372 174.888C80.7773 175.974 77.9276 175.853 76.9449 174.692Z" fill="#8F7A67"/>
<path d="M76.6346 174.76C76.6346 176.215 76.6346 177.671 76.6346 179.126C76.6346 179.64 77.0316 180.06 77.4993 180.329C79.3095 181.374 82.5414 180.673 82.5414 179.124C82.5414 177.665 82.5414 176.207 82.5414 174.747C87.9842 175.967 89.4802 180.024 85.3419 182.413C82.2067 184.221 77.0762 184.251 73.8899 182.413C69.7506 180.023 71.2596 175.988 76.6346 174.76Z" fill="#EDE582"/>
<path d="M83.8991 157.771C83.9103 157.809 83.94 157.838 83.9698 157.863C84.3064 158.151 85.1785 158.235 85.0939 157.951C85.0827 157.914 85.053 157.885 85.0232 157.86C84.6764 157.564 83.8062 157.492 83.8991 157.771Z" fill="#EDDFDF"/>
<path d="M83.8953 157.712C82.7117 162.513 80.2738 172.385 80.0535 173.283C79.9949 173.639 80.7573 173.803 81.1617 173.531C81.238 173.481 81.3022 173.409 81.3208 173.327C81.3282 173.304 85.1188 158.013 85.0956 158.013C85.0445 158.218 84.2839 158.132 83.9697 157.863C83.9232 157.823 83.8813 157.771 83.8953 157.712Z" fill="#E8DDA5"/>
<path d="M71.5126 179.104C71.5126 184.021 71.5116 183.472 71.5144 183.57C71.5628 184.73 72.354 185.882 73.8881 186.768C77.0549 188.597 82.1956 188.595 85.3558 186.768C86.9392 185.855 87.7305 184.657 87.7305 183.458V179.104C87.7305 180.302 86.9383 181.5 85.3558 182.415C82.1946 184.24 77.0549 184.243 73.8881 182.415C72.3047 181.5 71.5126 180.302 71.5126 179.104Z" fill="#E6AD23"/>
<path d="M84.7922 152.886C85.4468 154.109 86.7884 156.54 87.8781 157.348C89.3025 158.404 90.0194 156.532 90.196 154.758C90.7297 149.414 87.2208 143.499 83.3632 141.479C82.5125 141.034 81.3633 140.699 80.9486 141.568C79.99 143.575 83.7667 150.971 84.7922 152.886Z" fill="#EDEAB9"/>
<path d="M74.8088 163.936C74.8028 163.916 74.8148 163.921 74.8088 163.936Z" fill="#BCAA9B"/>
<path d="M80.5719 174.974C80.5644 174.967 80.65 174.783 80.7615 174.565C81.232 173.647 81.5509 172.657 81.577 172.657C81.5835 172.657 81.6411 172.722 81.7034 172.801C82.2213 173.454 81.9832 174.135 81.3166 174.613C81.1474 174.733 80.597 175.001 80.5719 174.974Z" fill="#BCAA9B"/>
<path d="M69.9504 185.236C69.9504 186.008 69.9579 187.287 69.9579 189.446C70.261 190.623 70.4851 190.991 71.214 191.792C71.214 191.8 71.2279 191.807 71.2279 191.807C71.3219 191.916 71.4232 192.024 71.531 192.147C71.5385 192.154 71.5459 192.161 71.5524 192.168C71.5524 192.291 71.5524 192.406 71.5599 192.515C71.5673 193.987 71.5673 194.507 71.6389 194.898C71.6602 194.992 71.6826 195.071 71.7114 195.165C71.7188 195.201 71.7328 195.244 71.7551 195.287C71.7839 195.374 71.8202 195.468 71.8704 195.583C71.8778 195.627 71.8992 195.677 71.9206 195.728C71.9206 195.735 71.9281 195.742 71.9281 195.749C71.6175 196.572 71.5812 196.566 71.5673 197.952V198.219C71.5459 200.103 71.5961 200.103 71.9281 201.028V201.035C71.6324 201.844 71.5673 201.938 71.5599 203.165C71.5524 203.18 71.5524 203.194 71.5599 203.209C71.5524 203.635 71.5524 204.198 71.5524 204.971H71.531V205.678C71.531 206.523 71.9206 207.281 72.5128 207.902L72.5993 207.989C72.6207 208.018 72.6496 208.046 72.6784 208.068C73.0828 208.494 74.7582 210.227 75.4732 210.963C77.2853 212.834 81.9509 212.834 83.7556 210.963C83.8709 210.84 83.9871 210.725 84.1089 210.602C84.1377 210.501 84.1526 210.422 84.1526 210.364C84.16 210.155 84.1888 210.14 84.7374 209.541C84.9038 209.361 85.0479 209.202 85.1418 209.093C85.1493 209.086 85.1567 209.078 85.1567 209.072C85.2218 208.999 85.2581 208.957 85.2581 208.957C84.8462 209.21 84.4492 209.411 84.0447 209.578C83.9434 209.614 83.843 209.65 83.7416 209.686C83.6552 209.722 83.5752 209.743 83.4887 209.772C83.4748 209.78 83.4525 209.787 83.4385 209.787C83.3084 209.831 83.1856 209.866 83.0629 209.895C82.9838 209.916 82.9039 209.939 82.8249 209.952C82.0811 210.133 81.3159 210.219 80.4921 210.307C80.4633 210.314 80.4345 210.314 80.4056 210.322C80.3554 210.322 80.2968 210.329 80.2392 210.336V210.329C80.2392 209.809 80.2318 209.311 80.2318 208.791V208.776C80.2104 208.776 79.7548 208.74 79.2862 208.697C79.2286 208.69 79.1635 208.683 79.0909 208.676C78.9756 208.661 78.8604 208.647 78.7516 208.632C78.6939 208.632 78.6437 208.625 78.5926 208.611C78.4196 208.589 78.2895 208.561 78.2318 208.538C78.2244 208.538 78.217 208.538 78.217 208.538C78.2095 208.531 78.2095 208.531 78.2095 208.531C78.2021 208.523 78.1946 208.523 78.2095 208.516C78.2095 208.516 78.2095 208.516 78.217 208.516C78.2458 208.509 78.3183 208.502 78.4122 208.495C79.3941 208.495 80.7227 208.249 81.6469 207.902C83.38 207.245 84.7736 206.407 85.1567 205.353C85.2357 205.136 85.2869 204.753 85.2432 204.653C85.2432 204.645 85.2432 204.638 85.2358 204.631C85.2283 204.617 85.1205 204.653 84.9978 204.718C84.875 204.783 84.7449 204.841 84.6007 204.891C84.2037 205.035 83.7342 205.144 83.2433 205.216C83.1633 205.231 83.0843 205.245 83.0053 205.252C82.2475 205.346 81.4525 205.383 80.7812 205.389C80.7162 205.389 80.6511 205.397 80.5935 205.389C80.4707 205.397 80.348 205.397 80.2327 205.397V203.491C78.7023 203.404 78.4132 203.289 78.2402 203.289C78.2253 203.289 78.2114 203.274 78.2114 203.26C78.2114 203.253 78.2328 203.245 78.2765 203.245C78.2914 203.238 78.3127 203.238 78.3341 203.238C78.4354 203.223 78.6009 203.209 78.7888 203.201C80.0886 203.144 81.4312 202.797 82.5729 202.22C84.0819 201.454 85.18 200.602 85.339 199.627C85.3678 199.44 85.3678 199.346 85.3176 199.317C85.3176 199.317 85.3176 199.317 85.3102 199.317C85.2525 199.295 85.1372 199.346 84.9494 199.44C84.8843 199.468 84.8267 199.497 84.7616 199.526C84.7541 199.526 84.7541 199.526 84.7541 199.526C83.4329 200.075 81.5771 200.111 80.2336 200.111V200.061C80.2336 199.88 80.241 199.844 80.5442 199.468C80.8621 199.079 81.5985 198.255 81.7064 198.169C81.7352 198.147 81.9016 198.067 82.0745 197.988C83.3307 197.403 84.4501 196.299 84.9047 195.179C85.0637 194.79 85.2367 194.472 85.2078 194.269C85.2004 194.175 85.2005 194.103 85.2228 194.103C85.2516 194.103 85.3817 194.024 85.5333 193.915C85.7499 193.763 86.0167 193.554 86.1469 193.424C86.3487 193.229 86.609 192.904 86.6527 192.803C86.6676 192.767 86.6527 192.759 86.6025 192.795C86.5086 192.861 86.4072 192.926 86.3068 192.997C86.1627 193.077 86.0037 193.164 85.8447 193.243C85.7071 193.315 85.563 193.38 85.4115 193.438C84.9921 193.626 84.5375 193.785 84.0615 193.921C84.0615 193.921 84.0615 193.921 84.054 193.921C83.3679 194.117 82.6603 194.268 81.9742 194.376C81.8514 194.397 81.7287 194.412 81.606 194.426C81.5911 194.434 81.5771 194.434 81.5697 194.434C81.1653 194.491 80.7757 194.535 80.4215 194.564V194.535C80.4215 193.726 80.4065 191.207 80.4065 190.036V189.653C77.9222 189.689 76.7963 189.725 74.1242 188.642C73.915 188.562 73.4817 188.382 73.6546 188.426C73.6686 188.433 73.6983 188.44 73.7411 188.454C73.7625 188.462 73.7847 188.476 73.8136 188.483C73.9577 188.533 74.1678 188.592 74.3622 188.613C75.2213 188.707 80.1611 188.159 80.1965 188.136C80.2467 188.1 80.2402 185.184 80.2402 183.775C79.9873 183.775 79.7418 183.79 79.4963 183.79C76.6075 183.782 73.9364 182.779 72.5501 181.399C72.3046 181.154 71.9866 180.736 71.9866 180.684C71.9941 180.677 72.0591 180.692 72.2032 180.735C72.3548 180.771 72.6291 180.821 72.8243 180.842C73.0986 180.871 79.2657 180.922 79.5763 180.835C79.5763 177.766 79.6051 176.51 79.6051 173.448C79.7352 173.427 80.2187 173.657 80.2699 173.614C80.3061 173.571 84.0829 158.321 84.0829 158.082C83.989 158.024 83.8299 157.873 83.8225 157.909C83.8151 157.938 80.2987 172.243 80.2913 172.25C80.2913 172.25 78.8473 172.177 78.4643 172.372C78.428 172.372 78.3555 172.04 78.3341 172.004C78.3341 172.062 78.1537 172.51 78.0022 172.834C77.6265 173.622 78.0524 170.957 77.8432 171.592C77.8581 171.636 77.7065 171.946 77.6628 172.105C77.6126 172.292 77.5615 172.371 77.5187 172.321C77.4825 172.277 74.8112 163.959 74.8112 163.93C74.8038 163.945 74.7676 163.951 74.7025 163.959C74.3557 164.009 74.1901 163.771 74.1613 163.728C74.2989 164.162 77.2881 172.87 77.2881 172.87C77.2881 172.87 76.6671 173.238 76.6596 173.693C76.6447 174.862 76.6308 176.068 76.6308 177.454C76.2412 177.454 75.6992 177.548 75.3161 177.548C75.251 177.527 72.9043 176.552 72.8755 176.53C72.8318 176.53 72.2906 177.071 72.2906 177.115C72.2906 177.165 73.0996 177.468 73.0996 177.512C73.0996 177.533 73.0493 177.548 72.9768 177.548C72.7964 177.548 72.1828 177.664 72.0452 177.721C71.9513 177.765 71.8072 177.823 71.7272 178.032C71.5106 178.602 71.5394 178.566 71.5106 181.447C71.4315 181.527 71.4027 181.598 71.3228 181.671C70.6729 182.313 70.2759 182.971 70.0518 183.772C70.0016 183.946 69.9792 183.946 69.9653 184.184C69.9504 184.362 69.9504 184.657 69.9504 185.236Z" fill="#BCAA9B"/>
<path d="M75.8061 164.226C76.4309 164.112 76.6689 163.455 76.6493 162.821C76.1807 162.465 75.6647 161.828 75.6443 161.295C75.622 160.75 76.3025 160.468 76.8502 161.583C76.9999 161.89 77.0947 162.219 77.1347 162.544C78.1835 163.211 79.1318 162.719 79.0872 161.411C78.6204 161.055 78.1054 160.419 78.084 159.888C78.057 159.313 78.7571 159.094 79.2899 160.175C79.4368 160.478 79.5325 160.807 79.5716 161.134C80.5934 161.783 81.5724 161.345 81.526 160.005C81.062 159.652 80.5441 159.01 80.5228 158.479C80.5004 157.93 81.1838 157.658 81.7287 158.766C81.8756 159.069 81.9713 159.399 82.0113 159.725C82.3377 159.932 82.7086 160.059 83.0703 160.009C84.0289 159.883 84.1498 158.574 83.7565 157.67C83.5157 157.848 83.1772 157.747 83.062 157.471C82.677 156.543 83.5584 156.119 84.1693 157.358C84.7746 158.602 84.4956 160.327 83.1382 160.512C82.756 160.565 82.373 160.479 82.0234 160.311C81.9174 161.691 80.7868 162.297 79.5837 161.719C79.4758 163.13 78.3257 163.689 77.1458 163.131C77.0835 163.909 76.6624 164.591 75.8814 164.728C75.7326 164.754 75.596 164.634 75.5922 164.483C75.5894 164.383 75.6554 164.254 75.8061 164.226ZM76.2059 161.497C76.257 161.621 76.337 161.76 76.4346 161.893C76.3825 161.768 76.2932 161.604 76.2059 161.497ZM78.6484 160.092C78.6995 160.214 78.7766 160.351 78.8743 160.485C78.8259 160.368 78.7423 160.217 78.6484 160.092ZM81.0862 158.679C81.1373 158.803 81.2173 158.942 81.3149 159.075C81.2693 158.967 81.1717 158.786 81.0862 158.679ZM83.5277 157.278C83.5789 157.399 83.6579 157.536 83.7537 157.667C83.7053 157.549 83.6198 157.396 83.5277 157.278Z" fill="#EEE6D9"/>
<path d="M76.2048 161.498C76.256 161.622 76.336 161.761 76.4336 161.894C76.3815 161.769 76.2922 161.605 76.2048 161.498Z" fill="#EED9D9"/>
<path d="M78.6471 160.092C78.6983 160.214 78.7754 160.351 78.873 160.484C78.8247 160.368 78.741 160.217 78.6471 160.092Z" fill="#EED9D9"/>
<path d="M81.0858 158.68C81.1369 158.803 81.2168 158.943 81.3145 159.076C81.2689 158.968 81.1713 158.787 81.0858 158.68Z" fill="#EED9D9"/>
<path d="M251.075 383.813C251.075 385.694 251.97 387.577 253.762 389.459V381.474C251.97 379.593 251.075 377.711 251.075 375.83C251.075 378.49 251.075 381.151 251.075 383.813Z" fill="#AA226D"/>
<path d="M253.759 381.475V389.46L259.324 387.47V379.487L253.759 381.475Z" fill="#D2448D"/>
<path d="M257.322 374.299C257.253 374.577 257.22 374.862 257.22 375.152C257.22 376.453 257.902 377.874 259.268 379.42C259.843 378.922 260.54 378.439 261.355 377.967C264.014 376.432 266.87 375.518 269.929 375.223C272.986 374.928 275.95 375.192 278.819 376.013C281.688 376.834 284.264 377.902 286.544 379.219C289.116 380.705 291.076 382.215 292.423 383.75C293.059 383.071 293.542 382.345 293.879 381.569C294.132 380.982 294.26 380.39 294.26 379.793C294.26 378.689 293.826 377.565 292.959 376.422C291.623 374.661 289.485 372.932 286.545 371.234C284.265 369.918 281.69 368.849 278.82 368.028C275.951 367.206 272.987 366.943 269.93 367.238C266.871 367.534 264.014 368.448 261.356 369.983C259.044 371.317 257.7 372.755 257.322 374.299Z" fill="#AA226D"/>
<path d="M266.177 327.49C266.177 326.164 266.553 325.057 267.304 324.165C267.704 323.688 268.198 323.318 268.783 323.053C269.294 322.819 269.875 322.666 270.525 322.594C271.922 322.438 274.316 322.621 277.71 323.147C280.857 323.633 284.002 324.119 287.15 324.607V330.827V336.671C283.745 336.146 280.341 335.619 276.937 335.091C274.165 334.664 272.179 334.202 270.976 333.706C268.122 332.531 266.177 330.554 266.177 327.49ZM264.212 344.696C264.212 343.207 264.662 341.983 265.565 341.024C265.918 340.648 266.327 340.331 266.789 340.072V340.071C267.504 339.671 268.346 339.411 269.318 339.29C270.919 339.094 273.222 339.227 276.229 339.693C279.87 340.256 283.51 340.819 287.151 341.382V349.264V355.108C275.171 353.255 272.757 352.943 271.139 352.441C269.701 351.995 268.498 351.444 267.532 350.79C266.566 350.135 265.771 349.273 265.147 348.206C264.523 347.137 264.212 345.967 264.212 344.696ZM257.736 343.695C257.736 345.564 258.204 347.375 259.138 349.126C260.073 350.877 261.227 352.295 262.602 353.379C266.066 356.11 271.033 357.324 275.391 357.998C281.395 358.928 287.398 359.856 293.4 360.785V320.86C287.495 319.948 281.589 319.033 275.681 318.12C272.073 317.562 269.179 317.517 267 317.987C264.819 318.459 263.112 319.439 261.878 320.926C261.403 321.499 261.022 322.096 260.734 322.71C259.488 325.358 259.927 328.32 261.668 330.984C261.983 331.467 262.346 331.933 262.753 332.381C263.763 333.491 265.054 334.498 266.628 335.401C263.773 335.666 261.575 336.534 260.04 338.003C259.367 338.644 258.843 339.369 258.464 340.177C258.46 340.186 258.457 340.193 258.453 340.201C257.975 341.233 257.736 342.397 257.736 343.695Z" fill="#8140FF"/>
<path d="M260.94 334.845C260.115 336.623 259.289 338.4 258.464 340.179C258.842 339.372 259.366 338.647 260.04 338.004C261.575 336.535 263.772 335.668 266.627 335.403C265.053 334.5 263.761 333.494 262.753 332.383C262.005 333.051 261.405 333.842 260.985 334.749C260.969 334.782 260.955 334.812 260.94 334.845Z" fill="#8140FF"/>
<path d="M294.257 379.793C294.257 380.39 294.13 380.982 293.876 381.569C293.539 382.344 293.056 383.071 292.421 383.749V383.75C291.689 384.531 290.759 385.247 289.631 385.899C287.069 387.378 284.16 388.204 280.905 388.376C277.651 388.548 274.254 387.976 270.716 386.661L267.298 389.969C272.014 391.584 276.605 392.243 281.07 391.943C285.535 391.645 289.568 390.455 293.169 388.376C296.896 386.225 299.168 384.037 299.985 381.814C300.255 381.079 300.391 380.337 300.391 379.588C300.391 378.067 299.834 376.514 298.724 374.93C297.064 372.566 294.584 370.43 291.283 368.523C283.986 364.311 275.589 362.83 267.815 364.14C263.884 364.802 260.394 366.014 257.343 367.775C253.885 369.772 251.857 371.96 251.259 374.338C251.134 374.836 251.071 375.33 251.071 375.829V375.831C251.071 377.711 251.967 379.593 253.758 381.474L259.324 379.486C259.304 379.464 259.283 379.442 259.265 379.419C257.899 377.875 257.217 376.453 257.217 375.152C257.217 374.862 257.25 374.577 257.319 374.298C257.697 372.755 259.041 371.317 261.353 369.982C264.011 368.447 266.867 367.533 269.926 367.238C272.983 366.943 275.947 367.207 278.816 368.028C281.686 368.849 284.261 369.917 286.541 371.234C289.482 372.932 291.619 374.661 292.955 376.422C293.824 377.565 294.257 378.689 294.257 379.793Z" fill="#E288B9"/>
<path d="M263.242 317.295C262.403 319.1 261.567 320.906 260.729 322.71L260.732 322.711C261.021 322.098 261.4 321.5 261.875 320.927C263.11 319.439 264.818 318.459 266.997 317.989C269.177 317.518 272.07 317.563 275.678 318.121C281.586 319.035 287.492 319.949 293.398 320.862L295.93 315.409C290.024 314.495 284.116 313.581 278.21 312.668C274.602 312.108 271.707 312.066 269.527 312.536C267.347 313.007 265.64 313.985 264.405 315.474C263.923 316.054 263.536 316.661 263.242 317.295Z" fill="#A68EFE"/>
<path d="M264.211 344.695C264.211 345.966 264.523 347.136 265.145 348.204C265.768 349.27 266.563 350.133 267.53 350.788C268.496 351.442 269.7 351.994 271.137 352.439C272.755 352.941 275.17 353.253 287.148 355.107V349.262C277.781 347.812 275.246 347.475 273.667 346.985C272.23 346.54 271.027 345.988 270.06 345.334C269.093 344.677 268.298 343.817 267.675 342.749C267.19 341.918 266.894 341.026 266.787 340.071C266.325 340.329 265.916 340.646 265.563 341.023C264.661 341.982 264.211 343.206 264.211 344.695Z" fill="#A68EFE"/>
<path d="M267.304 324.165C266.552 325.056 266.177 326.164 266.177 327.49C266.177 330.554 268.121 332.531 270.977 333.705C272.18 334.2 274.166 334.663 276.938 335.09C280.342 335.618 283.746 336.145 287.15 336.67V330.826C284.589 330.429 282.029 330.033 279.469 329.636C276.699 329.208 274.711 328.747 273.508 328.251C271.09 327.256 269.182 325.623 268.784 323.052C268.198 323.318 267.704 323.688 267.304 324.165Z" fill="#A68EFE"/>
<path d="M300.39 387.574H300.391C300.391 384.912 300.391 382.25 300.391 379.589C300.391 380.339 300.255 381.08 299.985 381.815C299.168 384.038 296.896 386.226 293.169 388.377C289.568 390.456 285.535 391.646 281.07 391.945C276.605 392.245 272.014 391.586 267.297 389.971V397.955C272.014 399.57 276.605 400.229 281.07 399.929C285.535 399.629 289.568 398.441 293.169 396.362C296.896 394.211 299.168 392.024 299.985 389.799C300.255 389.065 300.39 388.324 300.39 387.574Z" fill="#D2448D"/>
<path d="M295.93 325.656V315.408L293.398 320.862V360.787L295.93 355.332V346.269V325.656Z" fill="#BFB5F4"/>
<path d="M295.931 325.656V346.268L297.661 347.268L311.812 299.173L304.898 295.181L295.931 325.656Z" fill="#AA226D"/>
<path d="M310.934 315.225C311.332 313.774 311.694 312.453 312.023 311.238C313.095 307.278 313.826 304.438 314.383 301.884C314.823 304.189 315.444 306.373 316.246 308.433C317.489 311.628 318.755 314.802 320.042 317.952L308.322 324.719C309.339 321.012 310.2 317.898 310.934 315.225ZM311.812 299.173L297.661 347.267L302.874 344.258L306.906 329.837L316.955 324.034L321.364 321.49L325.161 331.39L330.02 328.585L316.742 296.327L311.812 299.173Z" fill="#D2448D"/>
<path d="M304.897 295.181L311.812 299.173L316.74 296.328L309.826 292.336L304.897 295.181Z" fill="#E288B9"/>
<path d="M308.322 324.717L320.043 317.95L313.129 313.958L310.935 315.223C310.2 317.897 309.34 321.011 308.322 324.717Z" fill="#E288B9"/>
<path d="M314.382 301.883C313.826 304.437 313.096 307.277 312.023 311.237C312.388 312.146 312.757 313.053 313.127 313.959L320.041 317.951C318.754 314.801 317.488 311.628 316.245 308.432C315.444 306.371 314.823 304.189 314.382 301.883Z" fill="#AA226D"/>
<path d="M316.955 324.036L318.245 327.399L325.16 331.391L321.364 321.491L316.955 324.036Z" fill="#AA226D"/>
<path d="M262.752 332.384C261.228 333.594 260.631 335.468 259.897 337.057C259.449 338.027 259.14 338.777 258.673 339.737C257.353 342.447 257.554 345.099 258.463 347.646C259.136 349.127 259.787 350.235 259.787 350.235C259.13 350.173 258.616 350.103 258.1 350.079C256.006 349.98 253.913 349.88 251.818 349.815C251.094 349.792 250.352 349.734 249.836 350.503C249.708 350.694 249.159 350.656 248.808 350.639C246.224 350.506 243.639 350.376 241.058 350.194C240.124 350.128 239.628 350.519 239.279 351.346C238.642 352.854 237.931 354.332 237.18 355.975C237.681 356.159 238.073 356.363 238.488 356.441C241.19 356.955 243.889 357.486 246.603 357.928C251.101 358.659 255.611 359.31 260.111 360.024C263.115 360.501 266.109 360.9 269.173 360.868C276.749 360.788 293.398 360.787 293.398 360.787V320.863L286.665 319.821C286.665 319.821 278.852 318.517 273.603 317.781C270.735 317.667 268.421 317.36 265.93 318.303C264.945 318.676 263.95 318.988 263.106 319.768C261.1 321.374 260.213 323.164 260.032 325.449C259.939 327.199 260.235 328.53 261.665 330.987C261.971 331.415 262.369 331.858 262.752 332.384ZM287.15 349.262C287.15 349.262 281.204 349.937 278.265 349.394C276.004 348.978 273.706 348.725 271.58 347.778C268.784 346.532 267.044 344.449 266.624 341.362C266.472 340.246 266.553 340.095 267.587 339.704C269.201 339.093 271.714 339.115 273.382 339.322C277.53 339.838 287.15 341.38 287.15 341.38V349.262ZM287.15 330.825C287.15 330.825 279.642 331.154 276.129 330.293C274.362 329.861 272.628 329.398 271.146 328.264C269.773 327.211 268.939 325.852 268.65 324.154C268.498 323.26 268.669 322.971 269.554 322.712C269.904 322.61 270.282 322.559 270.647 322.555C271.758 322.545 272.884 322.459 273.978 322.601C277.724 323.085 287.148 324.605 287.148 324.605V330.825H287.15Z" fill="#B0A7C2"/>
<path d="M311.812 299.173C309.489 297.835 307.258 296.54 304.897 295.181C304.342 297.029 295.931 325.655 295.931 325.655C295.931 325.655 295.833 339.064 295.834 345.147C295.834 346.715 295.835 346.715 297.579 347.356C302.309 331.283 307.062 315.314 311.812 299.173Z" fill="#B0A7C2"/>
<path d="M288.567 386.447C290.797 385.37 292.638 384.086 293.788 381.766C294.614 380.197 294.318 378.914 293.579 377.33C292.824 375.983 291.746 374.913 290.572 373.969C286.051 370.333 280.901 368.078 275.156 367.271C273.723 367.07 272.12 367.121 270.558 367.121C270.549 368.399 270.518 369.938 270.629 371.264C270.746 372.669 269.695 373.983 269.543 375.264C271.107 375.661 272.739 375.815 274.18 376.234C277.864 377.305 281.239 379.018 284.296 381.327C286.03 382.635 287.698 384.191 288.567 386.447Z" fill="#B0A7C2"/>
<path d="M321.365 321.49C319.871 322.349 318.378 323.217 316.956 324.035C317.074 324.527 317.366 325.046 317.511 325.653C317.168 325.751 316.839 325.9 316.498 325.933C313.898 326.192 311.629 327.252 309.351 328.495C307.531 329.488 306.791 330.762 306.08 332.741C306.08 332.741 305.599 334.476 305.197 335.949C305.103 336.295 304.548 338.11 304.432 338.687C305.552 338.05 306.666 337.28 307.586 336.752C308.911 335.992 310.263 335.272 311.547 334.448C312.482 333.848 313.491 333.613 314.555 333.43C317.968 332.844 321.375 332.221 324.784 331.609C324.861 331.595 324.931 331.538 325.16 331.423C323.985 328.177 322.71 324.793 321.365 321.49Z" fill="#B0A7C2"/>
<path d="M281.208 391.919C276.403 392.189 271.872 391.575 267.292 390.001C267.292 391.645 267.292 393.057 267.292 394.507C266.881 394.568 266.6 394.671 266.336 394.64C265.395 394.527 264.7 394.879 264.088 395.585C263.403 396.377 262.636 397.096 261.844 397.907C268.121 400.374 274.596 400.026 281.172 399.922C281.309 397.268 281.246 394.718 281.208 391.919Z" fill="#B0A7C2"/>
<path d="M253.762 389.458V381.474C253.762 381.474 251.245 379.315 251.075 375.83C250.783 375.949 250.666 376.483 250.455 376.623C249.226 377.441 248.073 378.349 247.162 379.529C245.45 381.747 244.984 384.48 246.631 387.18C246.801 387.459 246.994 387.724 247.17 388C247.801 388.989 248.577 389.563 249.877 389.414C251.122 389.272 253.762 389.458 253.762 389.458Z" fill="#B0A7C2"/>
<path d="M313.138 313.949C312.544 314.314 311.389 314.88 310.936 315.224C310.936 315.224 310.904 315.462 310.796 315.809C310.403 317.062 310.107 318.346 309.722 319.82C313.234 319.277 316.57 318.634 320.016 317.967C318.234 312.745 315.28 307.385 314.385 301.883C314.193 302.613 313.904 304.044 313.716 304.776C313.286 306.454 312.524 309.578 312.026 311.237C312.026 311.237 312.114 311.573 312.551 312.439C312.77 312.878 312.91 313.356 313.138 313.949Z" fill="#B0A7C2"/>
<path d="M315.566 254.255L368.284 284.689L406.91 262.386C394.33 255.124 361.395 236.112 354.192 231.951C348.42 235.286 338.206 241.188 315.566 254.255Z" fill="#EBEEC1"/>
<path d="M339.382 268.808L356.218 285.643L364.041 283.044L339.382 268.808Z" fill="#D3D3AF"/>
<path d="M356.219 285.644L339.383 268.808L337.495 267.716L356.219 286.447V285.644Z" fill="#BEBE9E"/>
<path d="M356.218 285.644V286.447L364.916 283.545L364.041 283.045L356.218 285.644Z" fill="#BEBE9E"/>
<path d="M359.317 234.913L381.199 247.545L366.258 232.597L359.317 234.913Z" fill="#D3D3AF"/>
<path d="M368.283 284.69L315.566 254.255V255.059C321.415 258.435 368.11 285.393 368.283 285.493V284.69Z" fill="#BEBE9E"/>
<path d="M384.113 276.348L403.535 269.874L400.535 266.873L384.113 276.348Z" fill="#D3D3AF"/>
<path d="M403.535 269.874L384.113 276.348L380.844 278.243L403.535 270.677V269.874Z" fill="#BEBE9E"/>
<path d="M406.91 262.387L368.284 284.69V285.494C371.944 283.381 405.044 264.269 406.91 263.19V262.387Z" fill="#F1F1CE"/>
<path d="M308.085 249.63L316.668 254.585L358.086 230.671L349.503 225.72C349.44 225.755 311.862 247.447 308.085 249.63Z" fill="#E0BE95"/>
<path d="M308.085 250.784L316.668 255.736V254.585L308.085 249.629V250.784Z" fill="#C48B5E"/>
<path d="M316.668 255.737L358.086 231.826V230.67L316.668 254.586V255.737Z" fill="#D8AA7D"/>
<path d="M346.106 227.683C352.212 231.209 351.825 231.01 351.954 231.01C352.288 231.01 352.383 230.576 352.111 230.417L346.736 227.316L346.106 227.683Z" fill="#7F542E"/>
<path d="M342.218 229.921C348.276 233.421 347.942 233.252 348.071 233.252C348.391 233.252 348.515 232.818 348.227 232.659L342.857 229.558L342.218 229.921Z" fill="#7F542E"/>
<path d="M338.343 232.164C344.452 235.688 344.069 235.491 344.191 235.491C344.503 235.491 344.64 235.066 344.352 234.899L338.977 231.797L338.343 232.164Z" fill="#7F542E"/>
<path d="M334.462 234.404C340.583 237.935 340.188 237.73 340.311 237.73C340.64 237.73 340.748 237.299 340.471 237.138L335.096 234.036L334.462 234.404Z" fill="#7F542E"/>
<path d="M330.581 236.642C336.69 240.166 336.304 239.969 336.434 239.969C336.771 239.969 336.862 239.531 336.591 239.38L331.217 236.274L330.581 236.642Z" fill="#7F542E"/>
<path d="M326.7 238.879C332.82 242.412 332.431 242.21 332.553 242.21C332.866 242.21 333 241.789 332.714 241.618C327.271 238.476 327.377 238.516 327.335 238.516L326.7 238.879Z" fill="#7F542E"/>
<path d="M322.825 241.118C328.944 244.652 328.552 244.448 328.673 244.448C329 244.448 329.113 244.018 328.834 243.856L323.459 240.754L322.825 241.118Z" fill="#7F542E"/>
<path d="M318.945 243.363C325.065 246.894 324.671 246.689 324.793 246.689C325.122 246.689 325.23 246.258 324.954 246.097L319.579 242.995L318.945 243.363Z" fill="#7F542E"/>
<path d="M315.064 245.602C321.122 249.101 320.788 248.932 320.917 248.932C321.242 248.932 321.352 248.494 321.073 248.34L315.698 245.234L315.064 245.602Z" fill="#7F542E"/>
<path d="M311.181 247.839C317.301 251.372 316.911 251.17 317.034 251.17C317.346 251.17 317.48 250.749 317.195 250.577L311.816 247.476L311.181 247.839Z" fill="#7F542E"/>
<path d="M359.728 241.415C360.861 242.817 360.857 242.88 360.884 242.908C360.917 242.943 360.882 243.044 360.596 243.446C361.116 244.347 361.536 245.611 361.352 246.583L361.369 246.586C361.837 246.313 361.998 245.734 361.998 245.191C361.998 243.725 360.905 241.985 359.735 241.401L359.728 241.415Z" fill="#8BD0D0"/>
<path d="M315.779 268.184C315.26 268.804 314.738 269.427 314.216 270.048C314.082 270.207 314.22 270.446 314.425 270.41C315.236 270.266 316.048 270.124 316.859 269.98C317.048 269.943 317.167 269.77 317.19 269.525C317.239 268.968 316.77 268.227 316.28 268.06C316.05 267.983 315.875 268.05 315.779 268.184Z" fill="#655FBF"/>
<path d="M351.426 245.289C315.052 266.292 319.799 263.461 320.174 263.461C320.382 263.443 320.613 263.478 320.862 263.576C320.865 263.576 320.865 263.577 320.865 263.577C321.43 263.783 321.996 264.295 322.32 264.727C322.325 264.73 322.328 264.732 322.328 264.737C322.878 265.416 323.242 266.294 323.334 266.929C323.411 267.349 323.385 267.784 323.343 267.951C323.315 268.176 323.164 268.481 323.142 268.492C323.08 268.617 322.907 268.789 322.806 268.846C356.349 249.485 355.617 249.928 355.605 249.904C355.77 249.785 355.894 249.622 355.982 249.428C356.241 248.864 356.162 248.125 355.99 247.532C355.852 247.065 355.628 246.584 355.331 246.143C352.581 247.732 349.828 249.32 347.076 250.909L345.877 249.416L345.965 249.29C348.587 247.776 351.209 246.261 353.831 244.748C353.386 244.53 352.855 244.437 352.441 244.701C352.103 244.899 351.765 245.093 351.426 245.289Z" fill="#8BD0D0"/>
<path d="M319.34 263.952C319.343 263.952 319.343 263.95 319.345 263.947C319.345 263.95 319.342 263.952 319.34 263.957C319.277 264.05 319.291 264.038 319.34 263.952ZM316.861 269.98C318.692 269.658 320.523 269.333 322.352 269.012V269.009C322.326 269.009 322.314 269.015 322.359 269.006C322.448 268.994 322.502 268.983 322.608 268.943C322.622 268.936 322.636 268.931 322.65 268.927C322.806 268.859 322.945 268.753 323.044 268.629C323.092 268.576 323.099 268.553 323.142 268.491C323.147 268.489 323.147 268.486 323.147 268.484C323.203 268.385 323.255 268.274 323.294 268.148C323.3 268.134 323.352 267.929 323.352 267.894C323.442 267.218 323.296 266.557 323.037 265.93C323.037 265.927 323.034 265.922 323.032 265.92C322.92 265.644 322.745 265.318 322.496 264.959C322.465 264.908 322.323 264.726 322.321 264.725C321.945 264.255 321.37 263.743 320.805 263.555C320.529 263.456 320.224 263.442 320.105 263.467C320.092 263.467 320.016 263.483 320.013 263.483C319.936 263.497 319.836 263.537 319.799 263.556C319.6 263.655 319.557 263.706 319.426 263.838C319.399 263.875 319.704 263.509 315.819 268.138C315.931 268.026 316.094 267.997 316.281 268.061C316.771 268.226 317.24 268.968 317.191 269.526C317.168 269.769 317.049 269.942 316.861 269.98Z" fill="#D1E2EE"/>
<path d="M347.166 250.784L345.965 249.291L345.876 249.418L347.075 250.91L347.166 250.784Z" fill="#4C6E81"/>
<path d="M356.932 241.36C351.92 244.258 352.136 244.108 352.152 244.132C352.818 243.736 353.645 244.044 354.282 244.49C355.875 243.569 357.471 242.648 359.066 241.729C358.913 241.619 358.749 241.519 358.576 241.431C358.101 241.185 357.401 241.088 356.932 241.36Z" fill="#BBEBEF"/>
<path d="M354.281 244.49C353.644 244.043 352.819 243.736 352.151 244.132C351.718 244.38 351.515 244.791 351.426 245.288C351.45 245.274 352.494 244.671 352.517 244.659C352.91 244.458 353.392 244.535 353.831 244.75C353.981 244.662 354.13 244.577 354.281 244.49Z" fill="#71A7AB"/>
<path d="M356.604 248.931C356.636 247.919 356.211 246.809 355.656 245.957V245.954C355.549 246.018 355.44 246.081 355.33 246.143C355.627 246.584 355.851 247.064 355.988 247.531C356.16 248.123 356.24 248.864 355.981 249.428C355.892 249.621 355.769 249.785 355.603 249.904L355.606 249.909C355.229 250.128 354.85 250.345 354.473 250.564C354.969 250.744 355.446 250.763 355.898 250.482C356.422 250.161 356.585 249.548 356.604 248.931Z" fill="#71A7AB"/>
<path d="M359.719 241.39C359.271 241.164 358.751 241.059 358.321 241.308L358.317 241.32C358.565 241.403 358.857 241.58 359.065 241.728C359.463 241.501 359.638 241.382 359.711 241.404L359.719 241.39Z" fill="#8BD0D0"/>
<path d="M360.628 247.76C360.987 247.553 361.214 247.142 361.321 246.729C361.589 245.603 361.061 244.14 360.444 243.193C358.849 244.115 357.255 245.033 355.659 245.955C355.659 245.979 356.657 247.365 356.607 248.932C356.588 249.548 356.426 250.161 355.9 250.483C355.911 250.506 355.765 250.559 360.628 247.76Z" fill="#BBEBEF"/>
<path d="M360.442 243.194C360.477 243.247 360.512 243.306 360.55 243.364C360.641 243.233 360.732 243.108 360.82 242.977C360.694 243.049 360.568 243.122 360.442 243.194Z" fill="#4C6E81"/>
<path d="M360.888 243.03C361.011 242.851 360.878 242.865 360.69 242.976C356.183 245.579 351.674 248.181 347.168 250.783L347.076 250.908C353.671 247.103 359.917 243.494 360.821 242.975C360.733 243.106 360.642 243.231 360.551 243.363C360.565 243.389 360.581 243.416 360.597 243.444C360.694 243.308 360.792 243.167 360.888 243.03Z" fill="#5A8694"/>
<path d="M312.027 273.319C312.371 273.217 312.716 273.117 313.059 273.012C315.581 272.238 318.096 271.444 320.625 270.697C321.817 270.346 322.836 269.674 323.889 269.067C333.649 263.439 343.401 257.798 353.155 252.16C353.598 251.904 354.029 251.671 354.584 251.699C354.869 251.714 355.186 251.555 355.45 251.407C356.76 250.668 358.059 249.91 359.357 249.15C359.656 248.975 360.026 248.895 359.98 248.362C359.962 248.159 360.365 247.92 360.629 247.76C360.82 247.644 361.167 247.297 361.223 247.008C359.604 247.886 358.071 248.805 356.521 249.584C356.754 248.409 356.465 247.314 355.812 246.203C357.464 245.236 358.979 244.392 360.598 243.445C360.598 243.445 360.79 243.172 360.893 243.02C360.949 242.936 360.957 242.882 360.881 242.895C359.367 243.671 357.661 244.73 356.182 245.575C354.704 246.42 353.335 247.229 351.859 248.079C350.361 248.942 348.712 249.897 347.168 250.784C346.88 250.462 346.647 250.101 346.328 249.745C345.977 249.941 345.588 250.155 345.212 250.365C345.597 250.862 345.956 251.325 346.366 251.855C349.344 250.141 352.333 248.42 355.374 246.67C355.871 247.5 356.004 248.319 355.683 249.145C355.567 249.443 355.215 249.693 354.913 249.87C352.71 251.161 350.492 252.429 348.28 253.704C340.266 258.327 332.248 262.944 324.247 267.589C323.71 267.901 323.153 267.987 322.586 268.13C321.35 268.443 320.121 268.789 318.889 269.122C317.547 269.486 316.206 269.849 314.866 270.217C314.705 270.26 314.501 270.286 314.401 270.396C313.567 271.313 312.752 272.247 311.931 273.177C311.962 273.225 311.994 273.273 312.027 273.319Z" fill="#B0A7C2"/>
<path d="M354.066 244.527C352.837 243.594 351.949 243.804 351.6 244.984C351.79 244.916 351.945 244.877 352.082 244.808C352.472 244.61 352.852 244.523 353.303 244.652C353.527 244.716 353.81 244.574 354.066 244.527Z" fill="#C5BED1"/>
<path d="M360.926 242.904C360.524 242.408 360.128 241.911 359.726 241.414L359.733 241.4C359.728 241.395 359.724 241.393 359.716 241.391L359.709 241.405C359.62 241.379 360.201 241.07 345.962 249.292L347.163 250.785C361.327 242.604 360.864 242.842 360.926 242.904Z" fill="#71A7AB"/>
<path d="M65.3 57.7696L89.7444 43.6567C90.6844 43.1137 91.5342 42.9956 92.1693 43.2253L92.1767 43.2206L92.1971 43.2327C92.3468 43.2894 92.4798 43.3703 92.6025 43.467L96.2109 45.5506L93.298 51.8126V86.3338C93.298 88.2965 91.7072 90.8069 89.7435 91.9403L69.0813 103.869L66.8034 108.765L63.5743 106.745L63.3475 106.591C62.5088 106.007 61.7436 105.547 61.7436 104.55V63.376C61.7455 61.4133 63.3372 58.9029 65.3 57.7696Z" fill="#899DB9"/>
<path d="M69.4288 108.413L93.8732 94.2998C95.836 93.1664 97.4277 90.656 97.4277 88.6933V47.5196C97.4277 45.5569 95.8369 44.8837 93.8732 46.0171L69.4288 60.13C67.4661 61.2634 65.8743 63.7728 65.8743 65.7365V106.91C65.8743 108.874 67.4661 109.546 69.4288 108.413Z" fill="#BECBDC"/>
<path d="M71.295 74.5681L92.0083 62.6095C93.032 62.0191 93.8613 60.71 93.8613 59.6863V52.3709C93.8613 51.3472 93.032 50.9967 92.0083 51.588L71.295 63.5467C70.2713 64.1371 69.442 65.4462 69.442 66.4698V73.7852C69.442 74.808 70.2713 75.1585 71.295 74.5681Z" fill="#899DB9"/>
<path d="M87.0005 74.127L93.8594 70.1662V65.9061L87.0005 69.8659V74.127Z" fill="#B54689"/>
<path d="M78.2212 79.1953L85.0801 75.2345V70.9744L78.2212 74.9342V79.1953Z" fill="#B54689"/>
<path d="M69.4419 84.2646L76.3008 80.3038V76.0436L69.4419 80.0034V84.2646Z" fill="#B54689"/>
<path d="M87.0005 80.1193L93.8594 76.1594V71.8983L87.0005 75.8582V80.1193Z" fill="#899DB9"/>
<path d="M78.2212 85.1886L85.0801 81.2288V76.9677L78.2212 80.9275V85.1886Z" fill="#899DB9"/>
<path d="M69.4419 90.2581L76.3008 86.2982V82.0371L69.4419 85.997V90.2581Z" fill="#899DB9"/>
<path d="M87.0005 86.1132L93.8594 82.1533V77.8922L87.0005 81.8521V86.1132Z" fill="#899DB9"/>
<path d="M78.2212 91.1828L85.0801 87.2229V82.9618L78.2212 86.9216V91.1828Z" fill="#899DB9"/>
<path d="M69.4419 96.2521L76.3008 92.2922V88.0311L69.4419 91.991V96.2521Z" fill="#899DB9"/>
<path d="M87.0005 92.1067L93.8594 88.1469V83.8857L87.0005 87.8465V92.1067Z" fill="#899DB9"/>
<path d="M78.2212 97.1759L85.0801 93.2161V88.955L78.2212 92.9157V97.1759Z" fill="#899DB9"/>
<path d="M69.4419 102.244L76.3008 98.2844V94.0233L69.4419 97.984V102.244Z" fill="#899DB9"/>
<path d="M37.1626 28.2843L36.2059 30.7752C36.1278 30.9797 35.9762 31.1768 35.8005 31.3042L33.6611 32.8504C33.2195 33.1693 33.0428 33.8145 33.3626 33.9419L34.9107 34.5574C35.0381 34.6076 35.0958 34.7527 35.066 34.9451L34.7006 37.2872C34.6253 37.7707 35.0874 37.8395 35.4825 37.4034L37.396 35.2929C37.5531 35.1199 37.74 35.0112 37.8971 35.0037L39.8106 34.9052C40.2057 34.8847 40.6678 34.2822 40.5925 33.8861L40.2271 31.9662C40.1973 31.809 40.255 31.5971 40.3824 31.3999L41.9304 28.9974C42.2503 28.5009 42.0736 28.0602 41.632 28.2508L39.4926 29.175C39.3169 29.2503 39.1653 29.228 39.0872 29.1146L38.1305 27.7283C37.9306 27.4401 37.3597 27.7692 37.1626 28.2843Z" fill="#D6519A"/>
<path d="M28.5214 209.79V219.265L30.4023 226.129V216.654L28.5214 209.79Z" fill="#B7A68A"/>
<path d="M30.7486 210.446V209.135L28.5218 209.79L30.4027 216.654L42.2916 217.743L47.7559 211.55L45.2901 210.124V211.777L41.1582 216.456L32.1702 215.636L30.7486 210.446Z" fill="#F2E9DA"/>
<path d="M30.4041 216.653V226.129L30.9099 226.176L32.1716 226.289L41.1596 227.113L42.293 227.217V217.743L30.4041 216.653Z" fill="#D3C1A1"/>
<path d="M30.7503 210.445L32.1719 215.635V82.9165L30.7503 77.7266V209.134V210.445Z" fill="#D38C0F"/>
<path d="M35.06 61.9855L30.7487 77.7274L32.1712 82.9173L35.5918 63.9297C35.4142 63.2816 35.2375 62.6336 35.06 61.9855Z" fill="#C6BAA7"/>
<path d="M30.9102 226.176L32.1719 230.775V226.292V226.289L30.9102 226.176Z" fill="#A55685"/>
<path d="M32.1702 226.293V230.776L41.1582 231.597V227.114L32.1702 226.29V226.293Z" fill="#CC7AA7"/>
<path d="M32.1702 82.917V215.635L41.1582 216.455V83.738L32.1702 82.917Z" fill="#F2A305"/>
<path d="M35.5908 63.9297L32.1702 82.9173L41.1582 83.7383L38.9621 64.2374C37.838 64.1352 36.7167 64.032 35.5936 63.9297H35.5908Z" fill="#D3C7B4"/>
<path d="M35.0589 61.9854C35.2364 62.6334 35.4131 63.2815 35.5907 63.9295H35.5926L37.6445 52.538L35.0589 61.9854Z" fill="#3F4F5D"/>
<path d="M37.6444 52.5381L35.5924 63.9296C36.7165 64.0318 37.8378 64.135 38.9609 64.2373L37.6444 52.5381Z" fill="#3F4F5D"/>
<path d="M40.5117 62.4819L37.6462 52.5381L38.9636 64.2373C39.4787 63.6525 39.9966 63.0667 40.5117 62.4819Z" fill="#5D6571"/>
<path d="M45.2891 211.777V210.124V79.0586L41.1572 83.7381V216.455L45.2891 211.777Z" fill="#F6BA28"/>
<path d="M42.2916 217.744V227.218L45.2874 223.822L47.7559 221.026V211.551L42.2916 217.744Z" fill="#EAD9B5"/>
<path d="M45.2891 79.0592L40.5092 62.4824C39.9941 63.0672 39.4761 63.653 38.9611 64.2378L41.1572 83.7387L45.2891 79.0592Z" fill="#E5D9C6"/>
<path d="M45.2891 226.915V223.823L45.2863 223.821L42.2905 227.218L41.1572 227.114V231.597L45.2891 226.915Z" fill="#E0ADCC"/>
<path d="M290.358 23.3111L289.401 24.6974C289.323 24.8108 289.172 24.834 288.996 24.7578L286.856 23.8336C286.415 23.643 286.238 24.0837 286.558 24.5802L288.106 26.9827C288.232 27.1798 288.291 27.3918 288.261 27.5489L287.896 29.4689C287.821 29.865 288.283 30.4675 288.678 30.4879L290.591 30.5865C290.748 30.5949 290.935 30.7027 291.092 30.8756L293.006 32.9862C293.401 33.4223 293.863 33.3535 293.788 32.87L293.422 30.5279C293.393 30.3364 293.45 30.1913 293.578 30.1402L295.126 29.5256C295.446 29.3982 295.269 28.7539 294.827 28.4341L292.688 26.8879C292.512 26.7614 292.361 26.5634 292.283 26.3589L291.326 23.868C291.126 23.3548 290.555 23.0247 290.358 23.3111Z" fill="#7242F9"/>
<path d="M270.97 64.4868L272.654 65.4603L274.814 66.7071C274.503 66.5277 274.233 66.1846 274.121 65.6258C273.922 64.6319 274.298 63.4436 274.814 62.5501L286.012 43.1534L281.745 40.6904L270.546 60.0862C270.031 60.9807 269.655 62.1689 269.854 63.1619C269.966 63.7207 270.236 64.0638 270.546 64.2432L270.947 64.4738L270.97 64.4868Z" fill="#D2448D"/>
<path d="M274.818 62.5498L286.012 43.1502C284.801 41.5798 284.294 39.5018 284.209 37.5019C284.063 34.403 284.844 31.1497 286.02 28.274C287.316 25.1239 289.204 22.0938 291.522 19.5788C293.625 17.3037 296.337 15.1922 299.265 14.2996C301.514 13.6218 303.523 13.7762 305.111 14.6948C306.681 15.5957 307.832 17.2526 308.372 19.5621C309.068 22.5411 308.587 25.957 307.669 28.9016C306.656 32.1632 304.973 35.3225 302.896 38.0096C300.99 40.4734 298.561 42.7737 295.814 44.1981C294.037 45.125 291.985 45.7257 290.011 45.4598L278.818 64.8593C278.44 65.5027 277.934 66.121 277.333 66.5505C276.706 67.0052 275.873 67.3148 275.213 66.9364L274.818 66.7049C274.5 66.5245 274.234 66.1814 274.123 65.6236C273.926 64.6278 274.295 63.4433 274.818 62.5498ZM288.707 38.1806C288.81 38.4038 288.938 38.6102 289.076 38.8073C289.832 39.9063 290.913 40.5236 292.244 40.6445C294.081 40.7988 296.004 39.8895 297.497 38.8166C301.351 36.0357 304.381 30.7816 304.862 26.0611C305.05 24.2239 304.87 22.1041 303.815 20.5932C303.06 19.5035 301.977 18.8769 300.647 18.7653C300.406 18.7476 300.166 18.7476 299.917 18.7569C298.311 18.8518 296.69 19.6579 295.393 20.5941C291.539 23.3667 288.509 28.6292 288.028 33.3496C287.865 34.9441 287.977 36.7469 288.707 38.1806Z" fill="#E172B0"/>
<path d="M300.89 12.2554C300.875 12.247 300.86 12.2377 300.846 12.2293C299.434 11.4149 297.531 11.1155 295.181 11.7868C292.228 12.6291 289.473 14.7434 287.352 17.0186C285.006 19.5364 283.094 22.5758 281.79 25.7304C280.596 28.6183 279.806 31.8948 279.939 35.0039C280.026 37.0206 280.527 39.1098 281.746 40.6904L286.013 43.1533C284.798 41.5792 284.298 39.5003 284.206 37.4985C284.067 34.407 284.845 31.1473 286.024 28.2706C287.314 25.1224 289.208 22.0941 291.524 19.5828C293.621 17.3086 296.342 15.1916 299.265 14.3027C301.512 13.6193 303.526 13.7774 305.111 14.6932C303.704 13.8815 302.297 13.0671 300.89 12.2554Z" fill="#D2448D"/>
<path d="M288.706 38.1809C288.809 38.404 288.937 38.6104 289.075 38.8075C289.831 39.9065 290.912 40.5239 292.242 40.6447C294.08 40.7991 296.002 39.8898 297.496 38.8168C301.349 36.0359 304.379 30.7818 304.86 26.0614C305.049 24.2242 304.869 22.1043 303.813 20.5934C303.058 19.5037 301.976 18.8771 300.646 18.7655C300.405 18.7479 300.165 18.7479 299.916 18.7572C300.422 19.7697 300.662 20.9886 300.662 22.3284C300.662 26.3375 298.516 31.3582 295.014 34.8356C294.027 35.8137 292.929 36.6728 291.684 37.3078C290.758 37.7773 289.736 38.1204 288.706 38.1809Z" fill="#D2448D"/>
<path opacity="0.5" d="M288.706 38.1804C289.737 38.12 290.757 37.7769 291.685 37.3046C292.93 36.6695 294.028 35.8114 295.016 34.8323C298.518 31.3559 300.664 26.3343 300.664 22.3251C300.664 20.9863 300.423 19.7673 299.917 18.7539C298.312 18.8487 296.69 19.6548 295.393 20.5911C291.539 23.3637 288.509 28.6261 288.029 33.3466C287.865 34.9439 287.976 36.7467 288.706 38.1804Z" fill="#9ED2E9"/>
<defs>
<linearGradient id="paint0_linear_238_1631" x1="226.312" y1="139.892" x2="128.097" y2="139.892" gradientUnits="userSpaceOnUse">
<stop stop-color="#C4B8E9"/>
<stop offset="0.4166" stop-color="#B2CFDE"/>
<stop offset="1" stop-color="#FFCADE"/>
</linearGradient>
<linearGradient id="paint1_linear_238_1631" x1="79.8838" y1="151.214" x2="79.4431" y2="192.308" gradientUnits="userSpaceOnUse">
<stop stop-color="#EDE582"/>
<stop offset="1" stop-color="#ECC057"/>
</linearGradient>
</defs>
</svg>
