<svg width="370" height="321" viewBox="0 0 370 321" fill="none" xmlns="http://www.w3.org/2000/svg">
<g opacity="0.44">
<path d="M66.7612 249.016C61.7413 241.907 57.4018 234.321 53.8633 226.468L55.0935 225.965C58.5997 233.744 62.899 241.26 67.8717 248.303L66.7612 249.016Z" fill="#9E88E1"/>
<path d="M152.76 306.223C134.757 302.057 117.96 294.714 102.836 284.4L103.615 283.362C118.599 293.582 135.24 300.856 153.076 304.983L152.76 306.223Z" fill="#9E88E1"/>
<path d="M297.516 261.436L296.496 260.61C318.523 235.927 330.654 204.464 330.654 172.016C330.654 156.853 328.069 141.957 322.972 127.744L324.238 127.331C329.383 141.678 331.992 156.712 331.992 172.016C331.992 188.696 328.905 205.002 322.817 220.481C316.936 235.434 308.423 249.214 297.516 261.436Z" fill="#9E88E1"/>
<path d="M284.6 71.5943C274.934 63.0653 264.106 55.8489 252.418 50.1463L253.028 49.0107C264.825 54.7666 275.754 62.0498 285.51 70.6584L284.6 71.5943Z" fill="#9E88E1"/>
<path d="M118.643 51.704L118.004 50.5827C139.068 39.6782 162.954 33.9141 187.08 33.9141C195.448 33.9141 203.838 34.5993 212.016 35.951L211.787 37.2082C203.685 35.8692 195.372 35.19 187.08 35.19C163.176 35.19 139.511 40.9008 118.643 51.704Z" fill="#9E88E1"/>
<path d="M53.3378 224.962C52.6912 223.472 52.0643 221.952 51.4736 220.442L52.7282 219.997C53.3126 221.492 53.9339 222.999 54.575 224.474L53.3378 224.962ZM49.7795 215.862C49.2456 214.334 48.7329 212.775 48.2564 211.228L49.5409 210.869C50.0134 212.401 50.5214 213.945 51.0499 215.459L49.7795 215.862ZM46.9057 206.546C46.4875 204.988 46.0922 203.399 45.7307 201.821L47.0388 201.549C47.3971 203.111 47.7886 204.686 48.2028 206.23L46.9057 206.546ZM44.7312 197.06C44.4296 195.477 44.1532 193.865 43.909 192.268L45.2337 192.084C45.4755 193.666 45.7496 195.264 46.048 196.831L44.7312 197.06ZM43.2648 187.452C43.0805 185.85 42.923 184.223 42.7978 182.618L44.1327 182.523C44.2571 184.114 44.4123 185.726 44.595 187.312L43.2648 187.452ZM42.5079 177.771C42.441 176.165 42.4032 174.531 42.3945 172.916L43.7334 172.91C43.7421 174.51 43.7799 176.128 43.846 177.721L42.5079 177.771ZM43.7948 168.099L42.4567 168.061C42.5071 166.449 42.5875 164.817 42.6954 163.211L44.0311 163.292C43.924 164.884 43.8444 166.502 43.7948 168.099ZM44.4438 158.497L43.112 158.371C43.2798 156.766 43.479 155.142 43.7058 153.548L45.0321 153.719C44.8076 155.299 44.61 156.907 44.4438 158.497ZM45.796 148.962L44.4761 148.747C44.7612 147.161 45.0801 145.556 45.4243 143.976L46.7348 144.236C46.3946 145.801 46.078 147.392 45.796 148.962ZM47.8531 139.533L46.5529 139.229C46.9561 137.659 47.3948 136.076 47.8563 134.524L49.1448 134.871C48.6872 136.41 48.2524 137.978 47.8531 139.533ZM50.6081 130.257L49.3338 129.866C49.8528 128.328 50.408 126.779 50.9837 125.263L52.243 125.697C51.6721 127.199 51.1223 128.733 50.6081 130.257ZM54.045 121.195L52.803 120.719C53.4346 119.222 54.1033 117.715 54.79 116.24L56.0139 116.757C55.3327 118.22 54.6703 119.713 54.045 121.195ZM58.1458 112.39L56.9424 111.832C57.6828 110.382 58.4617 108.924 59.2563 107.499L60.4384 108.098C59.6509 109.511 58.8799 110.955 58.1458 112.39ZM62.8886 103.886L61.7293 103.248C62.5759 101.851 63.4603 100.449 64.3574 99.0826L65.4923 99.7596C64.6031 101.114 63.7273 102.502 62.8886 103.886ZM68.2456 95.7232L67.1359 95.0094C68.0826 93.6735 69.0678 92.3353 70.0641 91.0316L71.1462 91.7829C70.1594 93.0738 69.1836 94.4 68.2456 95.7232ZM74.1901 87.9401L73.1364 87.1536C74.1799 85.8837 75.2604 84.6145 76.3489 83.3814L77.3735 84.2025C76.2945 85.4244 75.2234 86.6815 74.1901 87.9401ZM80.6899 80.5744L79.696 79.7195C80.8293 78.5232 82.0004 77.3291 83.1763 76.1718L84.1379 77.0589C82.9731 78.2057 81.813 79.3886 80.6899 80.5744ZM87.7126 73.6605L86.7841 72.7418C88.0056 71.6205 89.261 70.5082 90.5156 69.435L91.4095 70.3844C90.1667 71.4471 88.9231 72.5497 87.7126 73.6605ZM95.2237 67.2321L94.3644 66.2534C95.6608 65.22 96.9941 64.194 98.3282 63.2033L99.1505 64.2097C97.8297 65.1907 96.509 66.2077 95.2237 67.2321ZM103.187 61.3217L102.402 60.2882C103.771 59.3433 105.177 58.4081 106.579 57.5105L107.325 58.5695C105.936 59.4589 104.544 60.385 103.187 61.3217ZM111.562 55.9576L110.854 54.8746C112.289 54.0235 113.761 53.1851 115.226 52.3828L115.893 53.4891C114.44 54.2839 112.983 55.114 111.562 55.9576Z" fill="#9E88E1"/>
<path d="M187.302 310.317C186.096 310.317 184.88 310.303 183.69 310.275L183.723 308.999C185.387 309.038 187.092 309.05 188.774 309.035L188.787 310.31C188.294 310.315 187.798 310.317 187.302 310.317ZM193.881 310.178L193.822 308.904C195.505 308.832 197.201 308.731 198.861 308.605L198.968 309.877C197.292 310.004 195.58 310.106 193.881 310.178ZM178.597 310.073C176.909 309.977 175.198 309.852 173.513 309.7L173.639 308.43C175.308 308.58 177.003 308.704 178.676 308.798L178.597 310.073ZM204.039 309.407L203.887 308.14C205.554 307.957 207.238 307.744 208.892 307.506L209.091 308.767C207.421 309.007 205.722 309.222 204.039 309.407ZM168.448 309.159C166.765 308.95 165.068 308.712 163.404 308.448L163.623 307.19C165.271 307.45 166.952 307.687 168.619 307.894L168.448 309.159ZM214.116 307.958L213.87 306.703C215.512 306.411 217.176 306.085 218.815 305.735L219.108 306.98C217.453 307.334 215.773 307.663 214.116 307.958ZM158.391 307.569C156.734 307.249 155.059 306.896 153.413 306.521L153.725 305.28C155.355 305.653 157.015 306.002 158.657 306.318L158.391 307.569ZM148.477 305.305C146.846 304.874 145.201 304.409 143.59 303.923L143.993 302.707C145.589 303.188 147.218 303.648 148.835 304.075L148.477 305.305ZM138.757 302.378C138.404 302.258 138.05 302.137 137.697 302.015L138.155 300.815C138.505 300.937 138.855 301.057 139.205 301.176L138.757 302.378Z" fill="#9E88E1"/>
<path d="M262.711 290.173L262.014 289.084C263.444 288.252 264.878 287.384 266.276 286.505L267.013 287.57C265.603 288.457 264.154 289.333 262.711 290.173ZM271.217 284.824L270.441 283.785C271.808 282.858 273.174 281.897 274.504 280.927L275.318 281.941C273.976 282.919 272.596 283.89 271.217 284.824ZM279.309 278.922L278.459 277.936C279.753 276.922 281.046 275.872 282.302 274.815L283.188 275.771C281.92 276.838 280.615 277.897 279.309 278.922ZM286.949 272.493L286.028 271.567C287.248 270.466 288.46 269.332 289.633 268.197L290.587 269.092C289.404 270.237 288.18 271.381 286.949 272.493ZM294.098 265.571L293.112 264.708C294.242 263.535 295.369 262.324 296.461 261.106L297.479 261.936C296.376 263.164 295.239 264.388 294.098 265.571Z" fill="#9E88E1"/>
<path d="M323.001 127.388L322.781 126.786L324.043 126.363L324.266 126.971L323.001 127.388ZM321.02 122.276C320.412 120.797 319.764 119.301 319.095 117.83L320.323 117.322C320.998 118.807 321.653 120.318 322.267 121.811L321.02 122.276ZM317.005 113.449C316.286 112.01 315.528 110.561 314.754 109.143L315.941 108.554C316.723 109.985 317.487 111.448 318.214 112.901L317.005 113.449ZM312.344 104.914C311.521 103.528 310.658 102.134 309.779 100.769L310.921 100.102C311.807 101.479 312.678 102.887 313.509 104.286L312.344 104.914ZM307.065 96.7133C306.139 95.3811 305.175 94.0481 304.201 92.7497L305.29 92.0082C306.272 93.3186 307.245 94.6643 308.18 96.0085L307.065 96.7133ZM301.194 88.8844C300.174 87.619 299.114 86.3529 298.046 85.1212L299.078 84.3084C300.155 85.5513 301.224 86.8295 302.255 88.1061L301.194 88.8844ZM294.762 81.4654C293.652 80.2713 292.502 79.0794 291.346 77.9214L292.316 77.0417C293.482 78.2103 294.642 79.4134 295.764 80.6188L294.762 81.4654ZM287.802 74.4937C286.603 73.3731 285.368 72.2601 284.135 71.1861L285.038 70.2441C286.283 71.3287 287.528 72.4515 288.74 73.5825L287.802 74.4937Z" fill="#9E88E1"/>
</g>
<path d="M189.869 320.999C272.741 320.999 339.923 312.354 339.923 301.69C339.923 291.026 272.741 282.381 189.869 282.381C106.996 282.381 39.8145 291.026 39.8145 301.69C39.8145 312.354 106.996 320.999 189.869 320.999Z" fill="#B0B4E1"/>
<path opacity="0.6" d="M355.098 227.962C345.739 207.792 317.401 192.583 312.2 169.481C307.001 146.378 317.66 113.437 280.222 93.6166C242.784 73.7957 183.767 71.8135 170.638 100.554C164.941 113.022 157.279 121.352 148.705 126.768C122.468 143.34 98.0895 119.216 69.4378 129.283C32.4892 142.265 20.0716 200.945 20.5442 236.016C20.9584 266.793 31.4527 290.804 38.8322 304.461C138.944 304.461 239.056 304.461 339.168 304.461C351.383 266.306 361.849 242.511 355.098 227.962Z" fill="#E5EBFC"/>
<path d="M338.839 143.626H329.547V145.099H338.839V143.626Z" fill="white"/>
<path d="M356.398 154.809H347.105V156.281H356.398V154.809Z" fill="white"/>
<path d="M356.4 161.02H351.754V162.492H356.4V161.02Z" fill="white"/>
<path d="M315.372 59.4629H271.717V60.9354H315.372V59.4629Z" fill="white"/>
<path d="M45.6597 254.793H36.3672V256.265H45.6597V254.793Z" fill="white"/>
<path d="M298.176 65.4678H271.717V66.9403H298.176V65.4678Z" fill="white"/>
<path d="M63.2398 265.977H53.9473V267.449H63.2398V265.977Z" fill="white"/>
<path d="M63.2337 272.187H58.5879V273.659H63.2337V272.187Z" fill="white"/>
<path d="M275.643 266.825H261.811V269.017H275.643V266.825Z" fill="white"/>
<path d="M301.794 283.475H287.961V285.667H301.794V283.475Z" fill="white"/>
<path d="M301.786 292.718H294.869V294.91H301.786V292.718Z" fill="white"/>
<g opacity="0.46">
<path d="M221.504 77.196C210.695 73.6745 211.346 58.8034 222.462 56.2966C222.678 56.2478 222.898 56.2006 223.121 56.154C240.944 52.4494 254.005 58.7081 285.487 41.2904C316.97 23.872 350.745 15.3647 366.266 35.8303C381.788 56.2959 347.412 83.3571 290.857 84.1482C254.38 84.6586 233.28 81.0327 221.504 77.196Z" fill="#D8E1FB"/>
<path d="M207.027 53.0802C206.921 62.4657 195.112 67.1978 187.975 60.7304C185.272 58.2814 182.307 56.0036 179.646 54.8725C172.271 51.7368 158.444 38.399 169.539 29.6696C180.635 20.9401 205.908 23.4394 206.962 49.0566C207.021 50.4901 207.042 51.8298 207.027 53.0802Z" fill="#D8E1FB"/>
</g>
<path d="M247.018 305.548H139.273C133.99 305.548 129.707 301.467 129.707 296.432V80.5183C129.707 75.4837 133.99 71.4023 139.273 71.4023H247.018C252.301 71.4023 256.585 75.4837 256.585 80.5183V296.432C256.584 301.467 252.301 305.548 247.018 305.548Z" fill="#322B50"/>
<path d="M139.27 301.511C136.331 301.511 133.941 299.232 133.941 296.433V80.5176C133.941 77.7181 136.332 75.4395 139.27 75.4395H247.015C249.953 75.4395 252.342 77.7181 252.342 80.5176V296.432C252.342 299.232 249.952 301.51 247.015 301.51H139.27V301.511Z" fill="#7C9DFC"/>
<path d="M247.015 75.4395H139.27C136.331 75.4395 133.941 77.7181 133.941 80.5176V176.162L252.342 140.172V80.5176C252.342 77.7188 249.952 75.4395 247.015 75.4395Z" fill="url(#paint0_linear_555_3161)"/>
<path d="M221.749 82.9175H164.548C163.531 82.9175 162.596 82.3862 162.113 81.5336L158.264 74.7412H228.033L224.182 81.5343C223.7 82.3862 222.765 82.9175 221.749 82.9175Z" fill="#322B50"/>
<path fill-rule="evenodd" clip-rule="evenodd" d="M238.015 266.994C238.015 266.994 250.327 266.099 250.166 257.442C250.005 248.786 258.109 256.031 265.142 249.115C272.174 242.199 273.408 241.409 272.877 233.452C272.346 225.496 275.202 222.581 282.219 219.171C289.237 215.76 285.856 208.966 289.515 203.87C293.173 198.775 288.567 193.89 282.987 197.225C277.472 200.075 277.073 205.211 266.179 208.714C261.388 210.798 254.406 215.813 253.616 221.985C252.626 229.715 240.391 231.892 239.264 246.587C238.665 254.405 236.629 257.376 236.148 260.758C235.665 264.14 236.226 265.086 238.015 266.994Z" fill="#703BBF"/>
<path fill-rule="evenodd" clip-rule="evenodd" d="M224.318 270.022C224.318 270.022 214.893 269.794 214.197 262.331C213.501 254.868 207.226 261.812 200.507 256.476C193.788 251.14 192.649 250.568 192.34 243.674C192.03 236.78 189.291 234.522 182.923 232.201C176.555 229.881 178.117 225.655 174.478 221.591C170.839 217.525 173.452 214.067 179.454 215.3C187.485 217.295 205.89 224.225 207.81 232.118C209.408 238.685 220.146 239.485 222.534 252.034C223.803 258.71 225.841 261.089 226.582 263.957C227.323 266.826 225.674 268.224 224.318 270.022Z" fill="#703BBF"/>
<path d="M276.75 210.623C276.727 210.639 268.691 216.049 255.775 235.184C242.871 254.301 236.913 272.271 236.91 272.3L235.967 272.201C235.971 272.171 241.951 253.991 254.976 234.696C267.988 215.418 276.173 209.906 276.196 209.89L276.75 210.623Z" fill="#522B8F"/>
<path d="M185.246 222.318C185.291 222.34 204.487 233.823 213.61 249.167C222.724 264.496 225.622 273.091 225.622 273.112L224.637 273.108C224.637 273.089 221.735 264.741 212.752 249.632C203.778 234.539 184.847 223.181 184.803 223.16L185.246 222.318Z" fill="#522B8F"/>
<path fill-rule="evenodd" clip-rule="evenodd" d="M231.771 262.805C231.771 262.805 220.93 257.216 224.773 249.388C228.615 241.561 218.135 245.023 214.677 235.992C211.219 226.963 210.431 225.763 214.312 218.717C218.194 211.671 216.834 207.907 211.894 202.078C206.953 196.249 212.934 191.366 211.775 185.304C210.616 179.241 216.899 176.573 220.561 181.777C224.372 186.513 222.543 191.349 230.978 198.765C234.455 202.522 238.679 209.8 236.765 215.732C234.368 223.163 244.59 229.889 239.344 243.721C236.554 251.079 237.142 254.576 236.136 257.847C235.131 261.115 234.215 261.76 231.771 262.805Z" fill="#703BBF"/>
<path d="M221.447 195.898C221.461 195.922 226.415 203.873 229.939 225.815C233.466 247.772 231.665 274.851 231.656 274.879L230.781 274.615C230.789 274.588 232.523 247.707 229.028 225.945C225.53 204.169 220.665 196.36 220.65 196.338L221.447 195.898Z" fill="#522B8F"/>
<path fill-rule="evenodd" clip-rule="evenodd" d="M249.721 271.728H213.657C212.137 271.728 210.895 272.912 210.895 274.36V274.36C210.895 275.808 212.137 276.993 213.657 276.993H214.183L220.882 306.116C221.079 306.977 221.879 307.591 222.805 307.591H231.689H240.572C241.497 307.591 242.297 306.978 242.496 306.116L249.194 276.993H249.721C251.24 276.993 252.483 275.808 252.483 274.36V274.36C252.483 272.912 251.24 271.728 249.721 271.728Z" fill="#967DDA"/>
<path fill-rule="evenodd" clip-rule="evenodd" d="M240.573 307.591C241.497 307.591 242.297 306.978 242.496 306.116L242.862 304.524C241.793 305.181 240.562 305.551 239.305 305.551C237.369 305.551 225.131 305.551 220.752 305.551L220.882 306.116C221.08 306.977 221.88 307.591 222.805 307.591H231.689H240.573Z" fill="#522B8F"/>
<path d="M215.738 277.214C215.738 277.337 215.842 277.437 215.971 277.437H249.094L249.196 276.992H215.971C215.842 276.992 215.738 277.092 215.738 277.214Z" fill="#522B8F"/>
<path d="M241.063 284.836C240.203 284.836 239.344 284.577 238.628 284.06L233.581 280.414C232.342 279.517 230.609 279.517 229.37 280.414L224.325 284.06C222.89 285.095 220.888 285.095 219.453 284.06L216.93 282.237C216.81 282.15 216.787 281.987 216.877 281.872C216.968 281.758 217.139 281.734 217.26 281.822L219.783 283.645C221.023 284.541 222.754 284.541 223.995 283.645L229.04 279.998C230.475 278.963 232.477 278.963 233.911 279.998L238.958 283.645C240.196 284.541 241.929 284.541 243.168 283.645L245.691 281.822C245.812 281.734 245.983 281.758 246.074 281.872C246.165 281.987 246.142 282.15 246.021 282.237L243.498 284.06C242.781 284.577 241.922 284.836 241.063 284.836Z" fill="#522B8F"/>
<path d="M241.064 289.474C240.205 289.474 239.346 289.215 238.629 288.698L233.583 285.052C232.343 284.156 230.611 284.156 229.372 285.052L224.326 288.698C222.892 289.733 220.89 289.733 219.455 288.698L218.176 287.773C218.056 287.686 218.033 287.523 218.123 287.408C218.214 287.294 218.386 287.271 218.506 287.358L219.785 288.283C221.025 289.178 222.757 289.178 223.996 288.283L229.042 284.636C230.476 283.601 232.478 283.6 233.913 284.636L238.959 288.283C240.199 289.178 241.931 289.178 243.17 288.283L244.449 287.358C244.568 287.271 244.74 287.294 244.831 287.408C244.923 287.523 244.899 287.686 244.779 287.773L243.5 288.698C242.783 289.215 241.924 289.474 241.064 289.474Z" fill="#522B8F"/>
<path d="M190.96 303.26L208.635 297.356L208.674 287.623C212.483 287.637 219.51 287.663 224.048 287.679L224.008 297.412C224.008 297.412 225.689 304.201 223.961 309.078L183.535 308.93C183.535 308.93 184.413 303.236 190.96 303.26Z" fill="#351431"/>
<path d="M143.103 303.26L160.777 297.356L160.817 287.623C164.626 287.637 171.653 287.663 176.19 287.679L176.151 297.412C176.151 297.412 177.831 304.201 176.103 309.078L135.678 308.93C135.678 308.93 136.555 303.236 143.103 303.26Z" fill="#351431"/>
<path d="M227.26 297.798L211.065 225.935C211.065 225.935 215.792 179.184 213.081 158.331C212.864 154.171 212.154 150.085 210.465 146.025C208.177 140.522 205.994 134.982 203.758 129.457C203.685 129.279 202.286 125.493 202.19 125.521C175.211 133.096 162.814 125.104 162.814 125.104L157.848 224.073C157.848 224.073 157.903 224.491 158.195 225.06L157.848 225.055L156.283 298.349C156.872 298.003 157.617 297.796 158.532 297.796H182.371L183.875 211.074L188.746 228.843L200.97 297.796H227.26V297.798Z" fill="#6F60B3"/>
<path d="M183.169 212.496C183.059 212.496 182.96 212.395 182.937 212.248C182.462 209.058 181.417 203.903 180.312 198.449C178.9 191.487 177.442 184.29 176.979 180.271C176.872 179.355 176.791 178.385 176.713 177.448C176.501 174.925 176.281 172.319 175.567 170.105C174.832 167.827 173.936 166.904 172.696 165.625C172.333 165.252 171.942 164.849 171.519 164.376C171.421 164.266 171.41 164.073 171.494 163.946C171.578 163.817 171.727 163.805 171.826 163.913C172.243 164.38 172.63 164.779 172.988 165.147C174.284 166.483 175.219 167.448 176.001 169.869C176.742 172.166 176.965 174.816 177.18 177.382C177.262 178.357 177.339 179.279 177.444 180.183C177.903 184.168 179.359 191.349 180.768 198.295C181.875 203.761 182.922 208.925 183.401 212.134C183.426 212.299 183.343 212.46 183.215 212.491C183.199 212.493 183.183 212.496 183.169 212.496Z" fill="#21263C"/>
<path d="M197.937 161.594C195.504 161.594 191.856 159.884 190.231 158.237C188.061 156.037 187.742 151.924 187.715 148.193C187.715 148.035 187.847 147.908 188.011 147.905H188.014C188.177 147.905 188.31 148.031 188.311 148.187C188.327 150.381 188.365 155.514 190.665 157.848C192.311 159.518 196.325 161.33 198.504 160.984C198.663 160.956 198.819 161.063 198.846 161.218C198.873 161.373 198.764 161.519 198.602 161.545C198.393 161.578 198.17 161.594 197.937 161.594Z" fill="#21263C"/>
<path d="M179.447 75.8576L180.128 61.3145H191.918L192.596 75.796L196.098 77.8367C196.098 77.8367 195.544 85.5087 185.359 85.4029C175.174 85.297 175.746 77.5283 175.746 77.5283L179.447 75.8576Z" fill="#A4402F"/>
<path d="M202.805 55.2181C206.048 57.631 207.797 61.4595 208.711 65.2827C212.653 81.766 203.37 99.5777 208.97 115.619C205.354 113.184 200.623 112.349 197.486 109.371C194.203 106.255 193.407 101.452 193.699 97.0446C193.999 92.5204 195.25 88.0907 195.554 83.5673C195.845 79.2442 195.256 74.8693 193.832 70.7564C192.838 67.8894 191.442 65.1409 190.772 62.1905C190.185 59.6072 189.836 55.4748 192.555 53.8431C195.505 52.0726 200.303 53.3568 202.805 55.2181Z" fill="#351431"/>
<path d="M177.33 62.1286C176.974 61.0516 176.12 58.5148 180.899 56.369C182.464 55.3648 184.058 54.3471 185.861 53.8225C188.589 53.0291 191.676 53.4765 194.056 54.9745C196.436 56.4718 198.075 58.9816 198.479 61.6723C198.881 64.363 198.053 67.1932 196.282 69.3232C194.845 71.0517 193.371 72.3231 191.664 73.8122C191.217 71.5786 191.396 70.2396 191.398 68.2868C190.347 67.3276 189.251 66.2978 188.879 64.9574C188.599 63.9457 188.766 62.8792 188.84 61.8352C188.915 60.7912 188.87 59.6699 188.242 58.812C187.67 58.0307 186.66 57.5871 185.66 57.5871C184.661 57.5871 183.687 58.0037 182.949 58.6461C182.388 58.3234 181.708 58.0562 181.074 57.8979C180.159 57.6704 179.135 57.8288 178.378 58.3684C177.621 58.9081 177.166 59.8305 177.273 60.7251C177.32 61.1222 177.397 61.7346 177.33 62.1286Z" fill="#4C1F45"/>
<path d="M182.038 60.6476C178.617 62.331 176.629 64.362 174.744 67.5607C176.111 63.0185 176.202 58.4935 179.305 54.8084C180.178 53.7712 181.201 52.809 182.467 52.2491C184.057 51.5458 185.856 51.5796 187.515 52.0299C188.852 52.3924 191.408 53.3021 192.169 54.5059C193.135 56.0348 189.576 57.1508 188.413 57.7122C186.308 58.7292 184.136 59.6156 182.038 60.6476Z" fill="#4C1F45"/>
<path d="M181.413 74.207L181.026 77.2039C181.074 77.2114 181.121 77.2159 181.17 77.2256C184.359 77.8658 187.524 77.4103 190.739 77.3345L191.384 70.2727L192.027 66.7512C192.045 63.8879 191.572 60.0759 189.118 58.5929C188.083 57.9677 186.972 57.7207 185.886 57.7005C182.309 57.6359 179.205 60.0557 178.383 63.3738C177.46 67.0994 177.006 72.501 181.413 74.207Z" fill="#A4402F"/>
<path d="M180.086 55.9034C183.395 53.6038 187.244 53.6128 188.254 53.7494C189.754 53.9528 193.336 54.4391 195.011 57.3767C196.719 60.3721 195.05 63.4726 193.963 65.4908C193.811 65.773 193.587 66.2105 193.139 66.2961C192.957 66.3306 191.928 66.2721 189.92 64.1278C189.224 63.384 188.351 60.9958 188.278 60.0036C182.432 61.5557 178.265 59.6403 178.265 59.6403C178.265 59.6403 176.771 58.2076 180.086 55.9034Z" fill="#351431"/>
<path d="M180.439 66.3431C180.385 66.9728 180.966 67.5597 181.613 67.5552C181.811 67.5537 181.969 67.4899 182.033 67.3023C182.1 67.1079 182.009 66.9383 181.83 66.879C180.93 66.581 181.358 66.0864 181.602 65.6091C181.778 65.2631 182.276 64.8248 181.787 64.5448C181.22 64.2199 181.141 64.9471 180.933 65.2346C180.697 65.5588 180.423 65.9183 180.439 66.3431Z" fill="#1C1C1B"/>
<path d="M182.843 69.2807C183.427 69.3851 184.023 69.3295 184.567 69.0015C184.796 68.8642 184.993 68.6623 184.861 68.4026C184.708 68.1009 184.439 68.233 184.208 68.3486C183.582 68.663 182.924 68.5587 182.267 68.4889C181.974 68.4581 181.579 68.3478 181.514 68.7494C181.441 69.2094 181.881 69.1817 182.197 69.2267C182.398 69.256 182.602 69.262 182.843 69.2807Z" fill="#1C1C1B"/>
<path d="M180.555 64.5255C180.852 64.5465 181.159 64.4557 181.19 64.1014C181.214 63.8335 181.069 63.564 180.725 63.5243C180.369 63.4837 180.125 63.6616 180.051 63.9836C179.977 64.3116 180.173 64.4827 180.555 64.5255Z" fill="#1C1C1B"/>
<path d="M184.998 65.041C185.321 65.0567 185.515 64.9291 185.541 64.6334C185.568 64.3249 185.407 64.09 185.096 64.0405C184.774 63.9887 184.538 64.1853 184.514 64.4871C184.489 64.7888 184.704 64.9734 184.998 65.041Z" fill="#1C1C1B"/>
<path d="M179.767 61.9301C179.257 61.5864 179.274 61.1751 179.717 60.9161C180.229 60.6159 181.638 60.6895 182.12 61.0407C182.553 61.3559 182.529 61.8438 182.032 62.0224C181.236 62.3076 180.444 62.2003 179.767 61.9301Z" fill="#00180C"/>
<path d="M186.72 63.496C186.438 63.3249 186.172 63.1335 186.012 62.846C185.769 62.4092 186.017 62.0107 186.531 62.0692C187.227 62.148 187.759 62.5188 188.132 63.0794C188.261 63.2723 188.277 63.4982 188.118 63.6911C187.959 63.884 187.738 63.9005 187.497 63.854C187.204 63.7977 186.963 63.6468 186.72 63.496Z" fill="#00180C"/>
<path d="M190.884 66.439C190.712 67.6159 191.331 68.6696 192.265 68.7942C193.2 68.9181 194.098 68.0647 194.27 66.8886C194.442 65.7125 193.823 64.658 192.888 64.5334C191.954 64.4096 191.056 65.2629 190.884 66.439Z" fill="#A4402F"/>
<path d="M192.074 65.7236C192.369 65.7229 192.628 65.7612 192.904 65.9083C193.185 66.0471 193.386 66.3811 193.383 66.6701C193.392 66.8134 193.376 66.9613 193.307 67.1174C193.242 67.2735 193.093 67.4146 192.938 67.4806C192.618 67.612 192.348 67.5865 192.066 67.5317C191.919 67.5032 191.825 67.3666 191.855 67.2262C191.885 67.0859 192.028 66.9958 192.175 67.0243L192.178 67.0251L192.201 67.0303C192.367 67.0656 192.589 67.0626 192.695 67.0078C192.794 66.9643 192.83 66.8735 192.823 66.7023C192.812 66.5455 192.752 66.4524 192.618 66.3789C192.49 66.3053 192.273 66.2708 192.106 66.2753L192.083 66.276C191.923 66.2805 191.79 66.1605 191.785 66.0081C191.781 65.8557 191.907 65.7289 192.066 65.7244C192.069 65.7244 192.072 65.7244 192.074 65.7236Z" fill="black"/>
<path d="M239.312 138.932C238.647 134.749 234.681 127.745 231.733 124.161C213.832 102.433 186.764 90.2035 177.331 88.5621C175.623 87.5789 160.075 94.1243 168.473 108.288C173.014 115.261 219.47 139.194 223.688 143.778C223.688 143.778 234.06 148.8 239.312 138.932Z" fill="#B14B39"/>
<path d="M243.119 84.3475C240.016 94.4197 233.747 113.765 220.475 136.524C220.475 136.524 221.816 145.834 239.416 144.283C244.69 134.316 250.657 114.189 250.935 84.1914C248.329 84.2267 245.724 84.277 243.119 84.3475Z" fill="#B14B39"/>
<path d="M153.638 134.829C139.244 135.69 122.165 132.361 109.808 129.437C110.244 131.101 109.644 133.26 108.089 134.168C106.981 134.815 105.842 135.376 104.682 135.881C120.219 143.36 135.108 149.973 149.938 150.204C149.938 150.204 157.15 148.855 157.582 145.388C158.739 134.541 153.638 134.829 153.638 134.829Z" fill="#B14B39"/>
<path d="M171.851 105.774C172.289 89.6586 163.76 87.9616 163.76 87.9616C154.082 86.9049 148.944 107.27 148.944 107.27C146.132 117.465 143.966 123.995 141.627 143.175C141.627 143.175 152.031 154.229 158.183 144.434L171.851 105.774Z" fill="#B14B39"/>
<path d="M196.38 75.9688C196.38 75.9688 212.912 81.1062 216.603 86.7329C220.293 92.3597 224.426 113.601 228.264 115.992L212.47 125.136L212.174 137.655C203.745 147.577 167.757 147.66 158.594 138.347C159.459 137.556 159.74 124.346 159.74 124.346L142.65 113.883C142.65 113.883 148.676 100.145 151.655 89.1249C154.164 79.8408 175.543 75.9695 175.543 75.9695C175.543 75.9695 176.231 83.2692 184.166 83.4981C193.908 83.7788 196.38 75.9688 196.38 75.9688Z" fill="#FFB73F"/>
<mask id="mask0_555_3161" style="mask-type:luminance" maskUnits="userSpaceOnUse" x="142" y="75" width="87" height="71">
<path d="M196.384 75.9678C196.384 75.9678 212.916 81.1052 216.607 86.7319C220.297 92.3587 224.43 113.6 228.267 115.991L212.474 125.135L212.178 137.654C203.749 147.576 167.761 147.659 158.598 138.346C159.463 137.555 159.744 124.345 159.744 124.345L142.654 113.882C142.654 113.882 148.68 100.144 151.659 89.1239C154.168 79.8398 175.547 75.9685 175.547 75.9685C175.547 75.9685 176.235 83.2682 184.17 83.4971C193.912 83.7778 196.384 75.9678 196.384 75.9678Z" fill="white"/>
</mask>
<g mask="url(#mask0_555_3161)">
<path d="M206.513 79.7367C206.479 79.7367 206.443 79.7337 206.407 79.7285C187.038 76.583 166.782 78.8969 166.579 78.9209C166.236 78.9607 165.922 78.728 165.88 78.4008C165.837 78.0728 166.082 77.7741 166.426 77.7343C166.63 77.7103 187.062 75.3739 206.618 78.5501C206.96 78.6057 207.189 78.9149 207.132 79.2399C207.08 79.5311 206.814 79.7367 206.513 79.7367Z" fill="white"/>
<path d="M219.16 90.106C219.125 90.106 219.09 90.103 219.054 90.0978C199.654 86.947 151.805 88.9359 151.324 88.9562C150.983 88.9735 150.684 88.7153 150.669 88.385C150.653 88.0548 150.921 87.7756 151.268 87.7606C151.751 87.7403 199.734 85.7454 219.265 88.9179C219.607 88.9735 219.836 89.2827 219.778 89.6077C219.726 89.8996 219.46 90.106 219.16 90.106Z" fill="white"/>
<path d="M222.576 99.3363C222.542 99.3363 222.506 99.3333 222.47 99.3273C203.064 96.175 148.781 97.2115 148.234 97.222C147.888 97.2303 147.601 96.9668 147.594 96.6366C147.587 96.3064 147.862 96.0332 148.208 96.0264C148.756 96.0159 203.157 94.9772 222.681 98.1482C223.023 98.2037 223.252 98.5129 223.194 98.8387C223.143 99.1299 222.877 99.3363 222.576 99.3363Z" fill="white"/>
<path d="M223.885 107.839C223.85 107.839 223.815 107.836 223.779 107.831C204.373 104.679 145.867 105.919 145.279 105.931C144.929 105.948 144.645 105.678 144.637 105.348C144.629 105.017 144.903 104.743 145.25 104.736C145.839 104.722 204.466 103.481 223.99 106.652C224.331 106.708 224.561 107.017 224.503 107.342C224.45 107.633 224.185 107.839 223.885 107.839Z" fill="white"/>
<path d="M228.264 116.589C228.137 116.589 228.01 116.553 227.9 116.477C226.273 115.369 219.765 114.015 212.583 115.265C212.537 115.274 212.489 115.277 212.442 115.274C197.044 114.613 176.31 114.764 161.628 115.008C161.576 115.008 161.519 115.003 161.466 114.991C151.442 112.631 142.053 115.4 141.96 115.428C141.629 115.527 141.277 115.353 141.172 115.039C141.067 114.724 141.25 114.388 141.581 114.288C141.975 114.169 151.342 111.4 161.688 113.811C176.361 113.568 197.033 113.418 212.429 114.076C219.685 112.83 226.609 114.126 228.631 115.505C228.912 115.697 228.977 116.071 228.775 116.339C228.653 116.503 228.46 116.589 228.264 116.589Z" fill="white"/>
<path d="M192.451 126.717C173.223 126.717 159.591 125.745 159.412 125.732C159.066 125.707 158.807 125.42 158.834 125.091C158.861 124.761 159.167 124.515 159.507 124.54C159.743 124.557 183.422 126.244 212.445 125.156C212.787 125.142 213.083 125.4 213.097 125.73C213.111 126.06 212.841 126.338 212.495 126.351C205.41 126.617 198.64 126.717 192.451 126.717Z" fill="white"/>
<path d="M183.229 137.848C167.604 137.848 157.178 136.131 157.016 136.103C156.675 136.045 156.447 135.734 156.508 135.409C156.568 135.084 156.894 134.867 157.236 134.925C157.489 134.968 183.009 139.169 214.17 134.316C214.514 134.262 214.835 134.484 214.891 134.81C214.947 135.135 214.714 135.443 214.373 135.496C202.916 137.28 192.212 137.848 183.229 137.848Z" fill="white"/>
</g>
<path d="M208.828 128.681V107.722L212.768 126.4L208.828 128.681Z" fill="#FF8D19"/>
<path d="M161.787 125.762L165.329 105.592L158.24 123.59L161.787 125.762Z" fill="#FF8D19"/>
<path d="M253.902 66.8048C258.127 67.9509 250.318 77.2567 249.805 79.4408C251.434 77.1959 256.928 68.2458 259.691 69.1074C261.274 69.7672 255.226 77.0714 254.389 78.6535C255.623 77.5074 259.712 72.2469 261.453 73.2691C262.499 74.2576 258.19 79.1428 257.147 80.8353C257.617 80.6004 261.604 76.0499 262.207 77.1652C262.876 78.2122 260.622 81.7599 259.361 83.4471C253.676 91.0381 247.62 99.6009 243.378 94.6309C240.208 90.9247 238.562 88.7932 240.245 75.105C240.538 72.7438 244.076 75.4585 244.54 80.2799C245.766 79.9842 253.397 66.6659 253.902 66.8048Z" fill="#B14B39"/>
<path d="M90.34 122.962C87.9387 126.467 100.239 128.612 102.129 129.94C99.3544 129.263 89.0476 125.941 87.5543 128.318C86.814 129.805 96.4058 131.54 98.1266 132.211C96.4066 132.117 89.6997 130.701 89.0877 132.561C88.9783 133.961 95.593 134.956 97.5454 135.582C97.0295 135.698 90.8881 134.755 91.2008 135.974C91.4158 137.182 95.5592 138.452 97.6722 138.938C107.188 141.115 117.653 143.794 117.435 137.391C117.277 132.612 117.053 129.974 106.362 120.693C104.517 119.093 103.714 123.353 106.682 127.283C105.553 127.826 90.6258 122.542 90.34 122.962Z" fill="#B14B39"/>
<path opacity="0.56" d="M179.593 76.2474C180.108 76.9844 183.242 76.3683 185.583 74.8409C188.204 73.1304 189.373 70.5741 189.903 68.9492C188.965 69.8731 188.067 70.5298 187.378 70.9764C185.788 72.0069 184.478 72.4565 183.036 72.9511C182.419 73.1627 181.788 73.3504 180.962 73.3669C180.357 73.3789 179.859 73.2956 179.527 73.2205C179.559 73.514 179.597 73.968 179.6 74.5242C179.608 75.7753 179.433 76.0177 179.593 76.2474Z" fill="black"/>
<path d="M179.527 73.2198C181.47 73.0156 183.336 72.6141 185.073 71.8786C186.82 71.1663 188.402 70.1426 189.904 68.9492C187.643 72.0054 183.421 73.7789 179.527 73.2198Z" fill="black"/>
<path d="M194.968 116.576C190.694 116.576 186.73 115.909 183.459 114.77C181.551 114.106 179.475 113.925 177.509 114.41C177.497 114.413 177.484 114.416 177.473 114.419C167.732 116.859 162.766 115.43 162.766 115.43L162.808 118.234C162.808 118.234 171.466 116.407 183.854 117.835C193.036 118.894 200.187 116.822 203.276 115.679C200.739 116.254 197.929 116.576 194.968 116.576Z" fill="#FF8D19"/>
<path d="M192.34 159.936L206.173 242.716L212.416 289.717L212.928 289.656L206.685 242.656L192.852 159.878L192.34 159.936Z" fill="#21263C"/>
<path d="M355.055 103.338H336.745C335.649 103.338 334.762 102.492 334.762 101.448C334.762 100.404 335.649 99.5586 336.745 99.5586H355.055C356.15 99.5586 357.038 100.405 357.038 101.448C357.038 102.492 356.15 103.338 355.055 103.338Z" fill="#D1D9F3"/>
<path d="M345.905 112.063C344.809 112.063 343.922 111.216 343.922 110.173V92.7228C343.922 91.6789 344.809 90.833 345.905 90.833C347 90.833 347.888 91.6796 347.888 92.7228V110.173C347.888 111.217 347 112.063 345.905 112.063Z" fill="#D1D9F3"/>
<path d="M55.9276 64.6694H42.4114C41.6025 64.6694 40.9473 64.0449 40.9473 63.2741C40.9473 62.5033 41.6025 61.8789 42.4114 61.8789H55.9276C56.7364 61.8789 57.3916 62.5033 57.3916 63.2741C57.3916 64.0449 56.7364 64.6694 55.9276 64.6694Z" fill="#D1D9F3"/>
<path d="M49.1613 71.1104C48.3525 71.1104 47.6973 70.4859 47.6973 69.7151V56.8337C47.6973 56.0629 48.3525 55.4385 49.1613 55.4385C49.9702 55.4385 50.6254 56.0629 50.6254 56.8337V69.7151C50.6254 70.4859 49.9702 71.1104 49.1613 71.1104Z" fill="#D1D9F3"/>
<path d="M68.0409 76.9942H58.8209C58.2696 76.9942 57.8223 76.5679 57.8223 76.0425C57.8223 75.5171 58.2696 75.0908 58.8209 75.0908H68.0409C68.5922 75.0908 69.0396 75.5171 69.0396 76.0425C69.0396 76.5679 68.5922 76.9942 68.0409 76.9942Z" fill="#D1D9F3"/>
<path d="M63.4322 81.3869C62.8809 81.3869 62.4336 80.9606 62.4336 80.4352V71.648C62.4336 71.1226 62.8809 70.6963 63.4322 70.6963C63.9843 70.6963 64.4309 71.1226 64.4309 71.648V80.4352C64.4309 80.9606 63.9843 81.3869 63.4322 81.3869Z" fill="#D1D9F3"/>
<path d="M255.867 19.7959H246.647C246.095 19.7959 245.648 19.3696 245.648 18.8443C245.648 18.3189 246.096 17.8926 246.647 17.8926H255.867C256.419 17.8926 256.866 18.3189 256.866 18.8443C256.866 19.3704 256.418 19.7959 255.867 19.7959Z" fill="#D1D9F3"/>
<path d="M251.262 24.1899C250.711 24.1899 250.264 23.7636 250.264 23.2382V14.4517C250.264 13.9263 250.711 13.5 251.262 13.5C251.814 13.5 252.261 13.9263 252.261 14.4517V23.2389C252.261 23.7636 251.814 24.1899 251.262 24.1899Z" fill="#D1D9F3"/>
<path d="M334.158 65.1065H324.938C324.386 65.1065 323.939 64.6802 323.939 64.1548C323.939 63.6294 324.387 63.2031 324.938 63.2031H334.158C334.71 63.2031 335.157 63.6294 335.157 64.1548C335.158 64.6802 334.71 65.1065 334.158 65.1065Z" fill="#D1D9F3"/>
<path d="M329.555 69.4992C329.003 69.4992 328.557 69.0729 328.557 68.5475V59.7603C328.557 59.2349 329.004 58.8086 329.555 58.8086C330.107 58.8086 330.554 59.2349 330.554 59.7603V68.5475C330.554 69.0729 330.107 69.4992 329.555 69.4992Z" fill="#D1D9F3"/>
<path d="M88.7402 292.137H79.5201C78.9688 292.137 78.5215 291.71 78.5215 291.185C78.5215 290.66 78.9688 290.233 79.5201 290.233H88.7402C89.2915 290.233 89.7388 290.66 89.7388 291.185C89.7388 291.71 89.2915 292.137 88.7402 292.137Z" fill="#D1D9F3"/>
<path d="M84.1334 296.529C83.5821 296.529 83.1348 296.103 83.1348 295.578V286.791C83.1348 286.265 83.5821 285.839 84.1334 285.839C84.6847 285.839 85.132 286.265 85.132 286.791V295.578C85.132 296.103 84.6847 296.529 84.1334 296.529Z" fill="#D1D9F3"/>
<path d="M45.6542 82.3389H36.4342C35.8829 82.3389 35.4355 81.9126 35.4355 81.3872C35.4355 80.8619 35.8829 80.4355 36.4342 80.4355H45.6542C46.2055 80.4355 46.6529 80.8619 46.6529 81.3872C46.6529 81.9126 46.2055 82.3389 45.6542 82.3389Z" fill="#D1D9F3"/>
<path d="M41.0455 86.7328C40.4942 86.7328 40.0469 86.3065 40.0469 85.7812V76.9946C40.0469 76.4693 40.4942 76.043 41.0455 76.043C41.5968 76.043 42.0441 76.4693 42.0441 76.9946V85.7812C42.0441 86.3065 41.5976 86.7328 41.0455 86.7328Z" fill="#D1D9F3"/>
<path d="M11.9978 187.313H1.17269C0.525306 187.313 0 186.813 0 186.196C0 185.579 0.524518 185.078 1.17269 185.078H11.9978C12.6452 185.078 13.1705 185.579 13.1705 186.196C13.1705 186.813 12.6452 187.313 11.9978 187.313Z" fill="#D1D9F3"/>
<path d="M6.46625 192.465C6.50248 191.881 6.0197 191.382 5.41406 191.29V181.1C6.0197 181.008 6.50248 180.509 6.46625 179.925C7.16797 179.858 7.75943 180.382 7.75943 181.036V191.353C7.76022 192.008 7.16876 192.532 6.46625 192.465Z" fill="#D1D9F3"/>
<path d="M108.135 74.3135C129.668 74.3135 147.125 57.6778 147.125 37.1567C147.125 16.6356 129.668 0 108.135 0C86.601 0 69.1445 16.6356 69.1445 37.1567C69.1445 57.6778 86.601 74.3135 108.135 74.3135Z" fill="#D1D9F3"/>
<path d="M129.759 24.0114C127.39 19.8399 121.72 18.7426 117.643 21.4633C116.182 22.4383 114.366 22.9651 112.417 22.833C108.462 22.5659 105.251 19.5292 104.941 15.7623C104.938 15.7315 104.936 15.7015 104.934 15.6707C104.788 13.6022 102.664 12.2077 100.593 12.8434C89.8605 16.1383 82.3511 26.2758 83.727 37.864C85.006 48.6402 94.0236 57.209 105.335 58.4001C120.157 59.9613 132.703 48.9434 132.703 35.1336C132.703 31.1077 131.637 27.3197 129.759 24.0114ZM93.4763 45.6921C91.0758 45.6921 89.1289 43.8375 89.1289 41.5491C89.1289 39.2615 91.075 37.4062 93.4763 37.4062C95.8768 37.4062 97.8236 39.2607 97.8236 41.5491C97.8236 43.8375 95.8775 45.6921 93.4763 45.6921ZM103.787 53.9772C101.387 53.9772 99.4397 52.1227 99.4397 49.8343C99.4397 47.5467 101.386 45.6913 103.787 45.6913C106.188 45.6913 108.134 47.5459 108.134 49.8343C108.134 52.1227 106.188 53.9772 103.787 53.9772ZM117.239 50.8873C114.839 50.8873 112.892 49.0327 112.892 46.7443C112.892 44.4567 114.838 42.6014 117.239 42.6014C119.64 42.6014 121.587 44.456 121.587 46.7443C121.587 49.0327 119.64 50.8873 117.239 50.8873Z" fill="#6F60B3"/>
<path d="M127.965 21.8729C125.169 19.5537 120.899 19.2895 117.643 21.4623C116.182 22.4373 114.366 22.9642 112.417 22.8321C108.462 22.5649 105.251 19.5282 104.941 15.7613C104.938 15.7305 104.936 15.7005 104.934 15.6697C104.788 13.6012 102.664 12.2067 100.593 12.8425C89.8605 16.1373 82.3511 26.2748 83.727 37.863C83.9152 39.4497 84.2728 40.9875 84.7792 42.4616C88.3815 46.9468 93.6503 50.1538 99.6957 51.2353C99.5303 50.7977 99.4397 50.3257 99.4397 49.8333C99.4397 47.5457 101.386 45.6904 103.787 45.6904C106.188 45.6904 108.134 47.5449 108.134 49.8333C108.134 50.3902 108.019 50.9201 107.81 51.4049C110.042 51.1017 112.177 50.5133 114.173 49.6787C113.383 48.9282 112.893 47.8902 112.893 46.7434C112.893 44.4557 114.839 42.6004 117.24 42.6004C119.06 42.6004 120.617 43.6654 121.265 45.177C125.959 40.9125 128.884 34.8962 128.884 28.2277C128.884 26.0263 128.562 23.8948 127.965 21.8729ZM93.4763 45.6919C91.0758 45.6919 89.1289 43.8373 89.1289 41.5489C89.1289 39.2613 91.075 37.406 93.4763 37.406C95.8768 37.406 97.8236 39.2605 97.8236 41.5489C97.8236 43.8373 95.8775 45.6919 93.4763 45.6919Z" fill="#9E88E1"/>
<path d="M288.033 77.7629C305.038 77.7629 318.822 64.6263 318.822 48.4215C318.822 32.2167 305.038 19.0801 288.033 19.0801C271.029 19.0801 257.244 32.2167 257.244 48.4215C257.244 64.6263 271.029 77.7629 288.033 77.7629Z" fill="#D1D9F3"/>
<path d="M300.53 35.3701H286.389H283.502L280.569 54.7174C279.773 54.3624 278.83 54.156 277.82 54.156C274.965 54.156 272.652 55.7937 272.652 57.8141C272.652 59.8345 274.966 61.4722 277.82 61.4722C280.674 61.4722 282.987 59.8345 282.987 57.8141L285.492 41.2896H299.633L297.598 54.7174C296.801 54.3624 295.859 54.156 294.848 54.156C291.994 54.156 289.681 55.7937 289.681 57.8141C289.681 59.8345 291.995 61.4722 294.848 61.4722C297.702 61.4722 300.016 59.8345 300.016 57.8141L303.418 35.3701H300.53Z" fill="#9E88E1"/>
<path d="M309.093 192.912C332.632 192.912 351.714 174.727 351.714 152.295C351.714 129.863 332.632 111.679 309.093 111.679C285.555 111.679 266.473 129.863 266.473 152.295C266.473 174.727 285.555 192.912 309.093 192.912Z" fill="#D1D9F3"/>
<path d="M348.476 149.278L288.568 120.486L269.724 156.096L329.632 184.888L348.476 149.278Z" fill="#4F3897"/>
<path d="M318.896 133.064C312.061 125.285 302.21 120.478 291.592 119.739L291.1 119.704L272.588 154.684L272.838 154.7C283.458 155.378 293.337 160.126 300.222 167.861L300.384 168.043L318.896 133.064Z" fill="#EFEDED"/>
<path d="M314.76 134.807C309.184 128.462 301.15 124.542 292.49 123.939L292.089 123.911L291.021 125.929L291.422 125.957C300.082 126.561 308.116 130.481 313.692 136.825L314.76 134.807Z" fill="#E4DCDC"/>
<path d="M312.135 139.767C306.559 133.422 298.525 129.502 289.865 128.899L289.464 128.871L288.396 130.889L288.797 130.917C297.457 131.52 305.491 135.441 311.067 141.785L312.135 139.767Z" fill="#E4DCDC"/>
<path d="M309.509 144.725C303.934 138.38 295.9 134.46 287.24 133.857L286.839 133.829L285.771 135.847L286.172 135.875C294.832 136.478 302.866 140.399 308.442 146.743L309.509 144.725Z" fill="#E4DCDC"/>
<path d="M306.886 149.685C301.311 143.34 293.277 139.42 284.617 138.817L284.216 138.789L283.148 140.807L283.549 140.835C292.209 141.438 300.243 145.359 305.819 151.703L306.886 149.685Z" fill="#E4DCDC"/>
<path d="M304.259 154.643C298.684 148.298 290.65 144.378 281.99 143.775L281.589 143.747L280.521 145.765L280.922 145.793C289.582 146.396 297.616 150.317 303.192 156.661L304.259 154.643Z" fill="#E4DCDC"/>
<path d="M301.636 159.603C296.061 153.258 288.027 149.337 279.367 148.735L278.966 148.707L277.898 150.725L278.299 150.753C286.959 151.356 294.993 155.277 300.569 161.621L301.636 159.603Z" fill="#E4DCDC"/>
<path d="M346.558 146.359C339.723 138.58 329.872 133.773 319.254 133.034L318.763 132.999L300.25 167.979L300.5 167.995C311.12 168.673 320.999 173.421 327.884 181.156L328.046 181.338L346.558 146.359Z" fill="#E4DCDC"/>
<path d="M306.789 172.102L292.72 165.341L292.625 169.274L303.526 174.513L306.789 172.102Z" fill="#4F3897"/>
<path d="M342.291 148.038C336.716 141.694 328.682 137.773 320.022 137.17L319.621 137.143L318.553 139.161L318.954 139.189C327.614 139.792 335.648 143.713 341.223 150.056L342.291 148.038Z" fill="#BFAFAF"/>
<path d="M339.666 152.998C334.091 146.654 326.057 142.733 317.397 142.13L316.996 142.103L315.928 144.121L316.329 144.148C324.989 144.752 333.023 148.673 338.598 155.016L339.666 152.998Z" fill="#BFAFAF"/>
<path d="M337.039 157.956C331.464 151.612 323.43 147.691 314.77 147.088L314.369 147.061L313.301 149.079L313.702 149.107C322.362 149.71 330.396 153.631 335.971 159.974L337.039 157.956Z" fill="#BFAFAF"/>
<path d="M334.418 162.916C328.843 156.572 320.809 152.651 312.148 152.048L311.748 152.021L310.68 154.039L311.081 154.066C319.741 154.67 327.775 158.591 333.35 164.934L334.418 162.916Z" fill="#BFAFAF"/>
<path d="M331.789 167.875C326.214 161.531 318.18 157.61 309.52 157.007L309.119 156.979L308.051 158.998L308.452 159.025C317.112 159.629 325.146 163.55 330.721 169.893L331.789 167.875Z" fill="#BFAFAF"/>
<path d="M329.168 172.834C323.593 166.49 315.559 162.569 306.899 161.966L306.498 161.938L305.43 163.957L305.831 163.984C314.491 164.588 322.525 168.509 328.1 174.852L329.168 172.834Z" fill="#BFAFAF"/>
<path d="M315.929 297.055C339.468 297.055 358.55 278.87 358.55 256.438C358.55 234.006 339.468 215.821 315.929 215.821C292.391 215.821 273.309 234.006 273.309 256.438C273.309 278.87 292.391 297.055 315.929 297.055Z" fill="#D1D9F3"/>
<path d="M294.881 230.35L283.514 267.795L336.983 282.536L348.351 245.092L294.881 230.35Z" fill="#F1F1F1"/>
<path d="M295.52 231.457L284.674 267.187L336.344 281.432L347.19 245.702L295.52 231.457Z" fill="#6F60B3"/>
<path d="M284.672 267.181L287.58 257.602L302.854 249.578L309.701 261.416L332.765 249.3L341.667 264.69L336.568 281.488L283.99 266.993" fill="#4F3897"/>
<path d="M315.109 249.851C317.422 248.746 318.358 246.064 317.199 243.86C316.041 241.655 313.226 240.763 310.913 241.868C308.6 242.972 307.664 245.654 308.823 247.859C309.982 250.063 312.796 250.955 315.109 249.851Z" fill="#9E88E1"/>
<path d="M106.592 267.361C128.044 267.361 145.434 250.789 145.434 230.346C145.434 209.903 128.044 193.33 106.592 193.33C85.1401 193.33 67.75 209.903 67.75 230.346C67.75 250.789 85.1401 267.361 106.592 267.361Z" fill="#D1D9F3"/>
<path d="M84.1364 208.845C84.824 208.191 85.9927 208.123 86.7826 208.691C98.4355 217.349 110.197 226.301 119.123 237.517C117.454 239.102 115.786 240.687 114.117 242.273C102.376 233.732 93.0178 222.497 83.9679 211.366C83.3725 210.611 83.4481 209.498 84.1364 208.845Z" fill="#9E88E1"/>
<path d="M84.1364 208.845C84.824 208.191 85.9927 208.123 86.7826 208.691C98.4355 217.349 110.197 226.301 119.123 237.517C117.454 239.102 115.786 240.687 114.117 242.273C102.376 233.732 93.0178 222.497 83.9679 211.366C83.3725 210.611 83.4481 209.498 84.1364 208.845Z" fill="#9E88E1"/>
<path d="M86.7827 208.69C86.4731 208.467 86.1054 208.343 85.7305 208.313C85.7612 208.67 85.8896 209.021 86.1227 209.317C95.1726 220.448 104.53 231.684 116.272 240.224C117.222 239.321 118.173 238.418 119.122 237.516C110.197 226.3 98.4363 217.348 86.7827 208.69Z" fill="#6F60B3"/>
<path d="M114.271 242.124L118.888 237.738C119.493 237.163 120.472 237.164 121.074 237.741C121.677 238.317 121.676 239.25 121.071 239.824L116.454 244.21C115.849 244.785 114.87 244.784 114.268 244.207C113.665 243.631 113.666 242.698 114.271 242.124Z" fill="#DADADC"/>
<path d="M116.273 242.304C116.877 242.88 117.856 242.882 118.46 242.307L121.074 239.823C121.678 239.248 121.68 238.316 121.077 237.74C120.474 237.163 119.495 237.162 118.891 237.737L116.277 240.22C115.672 240.795 115.671 241.727 116.273 242.304Z" fill="#F1F1F1"/>
<path d="M119.83 249.131C122.825 251.994 129.614 252.387 129.614 252.387C129.614 252.387 126.977 249.867 126.352 244.758C126.183 243.372 125.346 242.123 124.06 241.455C121.948 240.359 120.093 240.757 118.766 242.018C116.999 243.696 116.834 246.268 119.83 249.131Z" fill="#222028"/>
<path d="M123.332 248.18C124.583 249.375 126.494 250.139 128.296 250.624C127.538 249.357 126.673 247.407 126.35 244.759C126.18 243.373 125.343 242.124 124.057 241.456C123.507 241.17 122.974 240.987 122.463 240.894C122.397 240.95 122.331 241.007 122.268 241.067C120.501 242.745 120.337 245.316 123.332 248.18Z" fill="#2F2B36"/>
<path d="M57.9027 187.245C70.5148 187.245 80.7389 177.501 80.7389 165.482C80.7389 153.463 70.5148 143.72 57.9027 143.72C45.2905 143.72 35.0664 153.463 35.0664 165.482C35.0664 177.501 45.2905 187.245 57.9027 187.245Z" fill="#D1D9F3"/>
<path d="M60.009 167.327L49.5801 166.976L50.8205 170.92C52.3688 175.843 71.2736 170.442 69.7252 165.519L68.488 161.586L60.009 167.327Z" fill="#9E88E1"/>
<path d="M55.5223 167.176L49.5801 166.977L50.8205 170.921V170.921C50.8355 170.969 50.8528 171.017 50.8717 171.062C50.8772 171.075 50.8819 171.088 50.8874 171.101C50.9032 171.138 50.9197 171.174 50.9378 171.21C50.9426 171.219 50.9465 171.229 50.9512 171.238C50.9741 171.282 50.9977 171.324 51.0237 171.366C51.03 171.375 51.0363 171.385 51.0426 171.395C51.0639 171.428 51.0859 171.46 51.1087 171.492C51.1166 171.502 51.1245 171.514 51.1324 171.524C51.1623 171.563 51.193 171.602 51.2261 171.64C51.2292 171.643 51.2324 171.646 51.2355 171.649C51.2663 171.684 51.2978 171.717 51.3308 171.75C51.3411 171.76 51.3505 171.769 51.3608 171.779C51.3915 171.809 51.4238 171.839 51.4569 171.867C51.4632 171.872 51.4694 171.878 51.4757 171.884C51.5151 171.917 51.5561 171.949 51.5978 171.98C51.6081 171.988 51.6191 171.995 51.6293 172.003C51.664 172.028 51.6994 172.052 51.7356 172.076C51.7467 172.083 51.7577 172.091 51.7687 172.097C51.8144 172.127 51.8609 172.155 51.9097 172.182C51.916 172.186 51.9231 172.19 51.9294 172.193C51.9719 172.217 52.016 172.24 52.0609 172.263C52.0743 172.269 52.0877 172.276 52.1011 172.283C52.1483 172.306 52.1972 172.329 52.2468 172.35C52.2515 172.353 52.2554 172.355 52.2602 172.356C52.3145 172.38 52.3712 172.403 52.4279 172.425C52.4413 172.43 52.4547 172.434 52.4681 172.44C52.5153 172.458 52.5642 172.475 52.613 172.491C52.6248 172.495 52.6366 172.5 52.6492 172.504C52.7091 172.523 52.7705 172.543 52.8327 172.561C52.8414 172.563 52.8508 172.566 52.8595 172.568C52.9138 172.584 52.9698 172.598 53.0257 172.612C53.0406 172.616 53.0556 172.62 53.0706 172.624C53.2013 172.656 53.3368 172.684 53.4754 172.71C53.4903 172.713 53.5053 172.715 53.5203 172.718C53.5817 172.729 53.6431 172.739 53.7061 172.749C53.7164 172.75 53.7258 172.752 53.7361 172.753C53.8093 172.764 53.8833 172.774 53.9582 172.783C53.9684 172.785 53.9786 172.786 53.9889 172.787C54.055 172.795 54.1212 172.802 54.1889 172.809C54.2031 172.81 54.2181 172.812 54.2322 172.813C54.3866 172.828 54.5441 172.839 54.7056 172.847C54.7205 172.848 54.7355 172.849 54.7504 172.85C54.8261 172.853 54.9032 172.856 54.9804 172.858C54.9851 172.858 54.9899 172.858 54.9946 172.859C55.0789 172.861 55.1647 172.862 55.2505 172.863C55.2616 172.863 55.2718 172.863 55.2828 172.863C55.3592 172.863 55.4364 172.863 55.5136 172.862C55.5254 172.862 55.5372 172.862 55.5498 172.862C55.7239 172.86 55.9003 172.855 56.0791 172.846C56.0932 172.845 56.1074 172.844 56.1208 172.844C56.3012 172.834 56.4831 172.822 56.6674 172.807C56.6784 172.807 56.6894 172.805 56.7012 172.804C56.7863 172.798 56.8714 172.79 56.9572 172.782C56.9667 172.781 56.9761 172.78 56.9856 172.779C57.0816 172.77 57.1777 172.759 57.2746 172.749L55.5223 167.176Z" fill="#6F60B3"/>
<path d="M56.0567 154.764L38.5664 166.606L60.0095 167.327L77.4997 155.484L56.0567 154.764Z" fill="#4F3897"/>
<path d="M56.0548 154.764L77.4979 155.484L77.2411 154.67L55.7989 153.949L38.3086 165.792L38.5646 166.606L56.0548 154.764Z" fill="#513D9C"/>
<path d="M58.3378 160.279C58.1795 160.08 57.8826 160.04 57.6731 160.191L49.2729 166.237C49.1903 166.296 49.1351 166.377 49.1068 166.465C49.0768 166.538 49.0705 166.619 49.0957 166.699L51.6349 174.771C51.3151 175.012 51.1639 175.424 51.2883 175.819L51.4451 176.316C51.6081 176.833 52.1814 177.128 52.7249 176.973C53.2675 176.817 53.577 176.271 53.414 175.753L53.2572 175.256C53.1328 174.861 52.7689 174.597 52.3626 174.563L49.9471 166.885L58.2457 160.913C58.4544 160.763 58.4961 160.479 58.3378 160.279Z" fill="#F1F1F1"/>
<path d="M57.6899 194.566C40.7116 194.566 26.8984 181.402 26.8984 165.222C26.8984 149.042 40.7116 135.878 57.6899 135.878C74.6682 135.878 88.4821 149.042 88.4821 165.222C88.4821 181.402 74.669 194.566 57.6899 194.566ZM57.6899 136.884C41.2936 136.884 27.9546 149.596 27.9546 165.222C27.9546 180.847 41.2936 193.56 57.6899 193.56C74.0862 193.56 87.4252 180.847 87.4252 165.222C87.4252 149.596 74.0862 136.884 57.6899 136.884Z" fill="#B0B4E1"/>
<path d="M57.6894 194.692C40.6378 194.692 26.7656 181.473 26.7656 165.223C26.7656 148.973 40.6378 135.753 57.6894 135.753C74.741 135.753 88.6132 148.973 88.6132 165.223C88.6132 181.473 74.741 194.692 57.6894 194.692ZM57.6894 136.004C40.7835 136.004 27.0295 149.112 27.0295 165.223C27.0295 181.334 40.7835 194.441 57.6894 194.441C74.5953 194.441 88.3493 181.334 88.3493 165.223C88.3493 149.112 74.5953 136.004 57.6894 136.004ZM57.6894 193.686C41.2206 193.686 27.8218 180.917 27.8218 165.223C27.8218 149.528 41.2206 136.759 57.6894 136.759C74.1582 136.759 87.557 149.527 87.557 165.223C87.557 180.918 74.159 193.686 57.6894 193.686ZM57.6894 137.011C41.3663 137.011 28.0856 149.666 28.0856 165.223C28.0856 180.779 41.3655 193.435 57.6894 193.435C74.0133 193.435 87.2932 180.779 87.2932 165.223C87.2932 149.666 74.0133 137.011 57.6894 137.011Z" fill="#B0B4E1"/>
<path d="M54.3352 200.483C42.9919 199.517 32.8867 193.738 26.6113 184.628L27.6769 183.962C33.7372 192.759 43.496 198.341 54.4486 199.274L54.3352 200.483Z" fill="#B0B4E1"/>
<path d="M54.4599 200.619L54.3284 200.608C42.9449 199.638 32.8034 193.838 26.506 184.697L26.4336 184.592L27.7197 183.787L27.7921 183.892C33.8304 192.657 43.5529 198.218 54.4654 199.148L54.5969 199.16L54.4599 200.619ZM26.7998 184.663C33.0334 193.644 43.015 199.352 54.2205 200.345L54.3103 199.386C43.4135 198.42 33.7075 192.869 27.6441 184.134L26.7998 184.663Z" fill="#B0B4E1"/>
<path d="M76.318 195.856L75.6777 194.806C82.0925 191.256 87.1305 185.996 90.2477 179.594L91.4031 180.105C88.1764 186.734 82.9604 192.18 76.318 195.856Z" fill="#B0B4E1"/>
<path d="M76.2707 196.029L75.498 194.761L75.6122 194.698C82.0033 191.161 87.0225 185.92 90.1287 179.541L90.1846 179.427L91.5794 180.044L91.5234 180.158C88.285 186.81 83.05 192.276 76.3841 195.965L76.2707 196.029ZM75.8595 194.852L76.3667 195.684C82.8933 192.043 88.0282 186.682 91.2289 180.166L90.313 179.761C87.1989 186.098 82.205 191.311 75.8595 194.852Z" fill="#B0B4E1"/>
<path d="M92.0914 155.483C88.4835 143.892 78.5941 134.902 66.2812 132.019L66.5853 130.84C79.3359 133.825 89.5774 143.135 93.3137 155.137L92.0914 155.483Z" fill="#B0B4E1"/>
<path d="M92.0021 155.639L91.9643 155.518C88.3706 143.971 78.5166 135.013 66.2495 132.141L66.1211 132.111L66.4881 130.688L66.6165 130.718C79.4121 133.713 89.6906 143.056 93.4394 155.101L93.4772 155.222L92.0021 155.639ZM66.4408 131.927C78.6962 134.843 88.5407 143.793 92.1801 155.327L93.1488 155.053C89.4078 143.191 79.2845 133.989 66.6818 130.993L66.4408 131.927Z" fill="#B0B4E1"/>
<path d="M21.8173 165.223H20.543C20.543 150.963 29.4488 138.159 43.232 132.603L43.7281 133.721C30.4175 139.086 21.8173 151.451 21.8173 165.223Z" fill="#B0B4E1"/>
<path d="M21.9502 165.348H20.4121V165.222C20.4121 150.911 29.3494 138.062 43.1814 132.486L43.3027 132.438L43.902 133.788L43.7808 133.836C30.5189 139.182 21.9502 151.501 21.9502 165.222V165.348ZM20.6767 165.097H21.6872C21.7399 151.367 30.3079 139.049 43.5571 133.655L43.1633 132.768C29.5376 138.313 20.7279 150.979 20.6767 165.097Z" fill="#B0B4E1"/>
<defs>
<linearGradient id="paint0_linear_555_3161" x1="360.727" y1="50.8745" x2="154.513" y2="129.037" gradientUnits="userSpaceOnUse">
<stop stop-color="#4B70C1"/>
<stop offset="1" stop-color="#7C9DFC"/>
</linearGradient>
</defs>
</svg>
