<svg width="73" height="73" viewBox="0 0 73 73" fill="none" xmlns="http://www.w3.org/2000/svg">
<g clip-path="url(#clip0_555_3473)">
<rect width="72" height="72" transform="translate(0.371094 0.0195312)" fill="#EAF5FE"/>
<path d="M54.8538 44.7812H53.9697V28.9688C53.9697 28.7781 53.894 28.5953 53.7592 28.4605C53.6244 28.3257 53.4416 28.25 53.2509 28.25C53.0603 28.25 52.8775 28.3257 52.7427 28.4605C52.6079 28.5953 52.5322 28.7781 52.5322 28.9688V44.7812H39.5947C39.4041 44.7812 39.2213 44.857 39.0865 44.9918C38.9517 45.1266 38.8759 45.3094 38.8759 45.5C38.8759 45.6906 38.8002 45.8734 38.6654 46.0082C38.5306 46.143 38.3478 46.2188 38.1572 46.2188H33.8447C33.6541 46.2188 33.4713 46.143 33.3365 46.0082C33.2017 45.8734 33.1259 45.6906 33.1259 45.5C33.1259 45.3094 33.0502 45.1266 32.9154 44.9918C32.7806 44.857 32.5978 44.7812 32.4072 44.7812H19.4697V25.375C19.4699 25.1845 19.5457 25.0018 19.6805 24.867C19.8152 24.7323 19.9979 24.6565 20.1884 24.6562H41.0322C41.2228 24.6562 41.4056 24.5805 41.5404 24.4457C41.6752 24.3109 41.7509 24.1281 41.7509 23.9375C41.7509 23.7469 41.6752 23.5641 41.5404 23.4293C41.4056 23.2945 41.2228 23.2188 41.0322 23.2188H20.1884C19.6168 23.2194 19.0687 23.4468 18.6644 23.851C18.2602 24.2552 18.0328 24.8033 18.0322 25.375V44.7812H17.1481C16.7598 44.7799 16.3785 44.8844 16.0451 45.0835C15.7117 45.2826 15.4389 45.5688 15.2559 45.9113C15.1146 46.1837 15.0307 46.4821 15.0093 46.7881C14.988 47.0942 15.0297 47.4014 15.1318 47.6907L15.584 49.0597C15.7287 49.4878 16.0038 49.8599 16.3707 50.1238C16.7375 50.3877 17.1778 50.5302 17.6297 50.5312H54.3722C54.8253 50.5299 55.2666 50.3865 55.634 50.1214C56.0014 49.8562 56.2765 49.4826 56.4206 49.0531L56.8704 47.6908C56.9725 47.4015 57.0141 47.0943 56.9928 46.7882C56.9714 46.4822 56.8875 46.1838 56.7462 45.9114C56.5633 45.5688 56.2904 45.2826 55.957 45.0835C55.6235 44.8844 55.2421 44.7799 54.8538 44.7812Z" fill="#0085F2"/>
<path d="M27.5313 42.2579C27.4676 42.3677 27.4339 42.4922 27.4336 42.6191C27.4333 42.746 27.4664 42.8707 27.5295 42.9807C27.5927 43.0908 27.6837 43.1822 27.7934 43.246C27.9032 43.3097 28.0277 43.3434 28.1546 43.3438H32.4063C32.7845 43.3446 33.1559 43.4446 33.4835 43.6336C33.8111 43.8227 34.0835 44.0942 34.2736 44.4212C34.336 44.5302 34.426 44.6208 34.5345 44.684C34.643 44.7472 34.7662 44.7807 34.8917 44.7812H37.1082C37.2337 44.7807 37.3569 44.7472 37.4654 44.684C37.5739 44.6208 37.6639 44.5302 37.7263 44.4212C37.9164 44.0942 38.1888 43.8226 38.5164 43.6336C38.8441 43.4445 39.2155 43.3446 39.5938 43.3438H43.8455C43.9723 43.3434 44.0969 43.3097 44.2066 43.246C44.3163 43.1822 44.4073 43.0908 44.4705 42.9807C44.5337 42.8707 44.5668 42.746 44.5665 42.6191C44.5662 42.4922 44.5325 42.3677 44.4688 42.2579C43.9008 41.2772 43.0851 40.4628 42.1034 39.8965C41.1217 39.3303 40.0084 39.0319 38.875 39.0312H33.125C31.9917 39.0319 30.8784 39.3303 29.8967 39.8965C28.9149 40.4628 28.0992 41.2772 27.5313 42.2579Z" fill="#0085F2"/>
<path d="M36 37.5938C39.1756 37.5938 41.75 35.0194 41.75 31.8438C41.75 28.6681 39.1756 26.0938 36 26.0938C32.8244 26.0938 30.25 28.6681 30.25 31.8438C30.25 35.0194 32.8244 37.5938 36 37.5938Z" fill="#0085F2"/>
<path d="M55.4062 17.4688H44.625C44.0533 17.4694 43.5052 17.6968 43.101 18.101C42.6968 18.5052 42.4694 19.0533 42.4688 19.625V28.9688C42.4688 29.0959 42.5025 29.2208 42.5666 29.3306C42.6307 29.4405 42.7227 29.5313 42.8333 29.594C42.944 29.6567 43.0693 29.6888 43.1964 29.6873C43.3236 29.6857 43.448 29.6504 43.5571 29.585L46.8034 27.6391C46.9156 27.5698 47.0447 27.5325 47.1766 27.5312H55.4062C55.9779 27.5306 56.526 27.3032 56.9303 26.899C57.3345 26.4948 57.5619 25.9467 57.5625 25.375V19.625C57.5619 19.0533 57.3345 18.5052 56.9303 18.101C56.526 17.6968 55.9779 17.4694 55.4062 17.4688ZM46.7812 23.2188H46.0625C45.8719 23.2188 45.6891 23.143 45.5543 23.0082C45.4195 22.8734 45.3438 22.6906 45.3438 22.5C45.3438 22.3094 45.4195 22.1266 45.5543 21.9918C45.6891 21.857 45.8719 21.7812 46.0625 21.7812H46.7812C46.9719 21.7812 47.1547 21.857 47.2895 21.9918C47.4243 22.1266 47.5 22.3094 47.5 22.5C47.5 22.6906 47.4243 22.8734 47.2895 23.0082C47.1547 23.143 46.9719 23.2188 46.7812 23.2188ZM50.375 23.2188H49.6562C49.4656 23.2188 49.2828 23.143 49.148 23.0082C49.0132 22.8734 48.9375 22.6906 48.9375 22.5C48.9375 22.3094 49.0132 22.1266 49.148 21.9918C49.2828 21.857 49.4656 21.7812 49.6562 21.7812H50.375C50.5656 21.7812 50.7484 21.857 50.8832 21.9918C51.018 22.1266 51.0938 22.3094 51.0938 22.5C51.0938 22.6906 51.018 22.8734 50.8832 23.0082C50.7484 23.143 50.5656 23.2188 50.375 23.2188ZM53.9688 23.2188H53.25C53.0594 23.2188 52.8766 23.143 52.7418 23.0082C52.607 22.8734 52.5312 22.6906 52.5312 22.5C52.5312 22.3094 52.607 22.1266 52.7418 21.9918C52.8766 21.857 53.0594 21.7812 53.25 21.7812H53.9688C54.1594 21.7812 54.3422 21.857 54.477 21.9918C54.6118 22.1266 54.6875 22.3094 54.6875 22.5C54.6875 22.6906 54.6118 22.8734 54.477 23.0082C54.3422 23.143 54.1594 23.2188 53.9688 23.2188Z" fill="#0085F2"/>
</g>
<defs>
<clipPath id="clip0_555_3473">
<rect x="0.371094" y="0.0195312" width="72" height="72" rx="36" fill="white"/>
</clipPath>
</defs>
</svg>
