<svg width="73" height="73" viewBox="0 0 73 73" fill="none" xmlns="http://www.w3.org/2000/svg">
<g clip-path="url(#clip0_555_3464)">
<rect width="72" height="72" transform="translate(0.144531 0.743164)" fill="#EAF5FE"/>
<g clip-path="url(#clip1_555_3464)">
<path d="M51.6807 18.7037C51.3769 18.2633 50.8764 18 50.3417 18H32.873C30.1853 18 27.998 20.1873 27.998 22.875V24.1408C28.0614 24.1979 28.1343 24.2416 28.1944 24.3035L34.6946 30.8034C35.6158 31.7231 36.1228 32.9484 36.1228 34.2499C36.1228 35.5517 35.6158 36.777 34.6946 37.6967L28.1944 44.1966C28.1343 44.2567 28.0614 44.3007 27.998 44.359V47.25C27.998 49.9377 30.1853 52.125 32.873 52.125H38.5603C39.2349 52.125 39.8392 51.709 40.0781 51.0785L51.8595 20.2036C52.0511 19.7046 51.983 19.1441 51.6807 18.7037Z" fill="#2196F3"/>
<path d="M24.1256 42.2518C23.5195 41.9998 23.1231 41.4068 23.1231 40.7504V35.8754H16.6229C15.7261 35.8754 14.998 35.1473 14.998 34.2502C14.998 33.3534 15.7261 32.6253 16.6229 32.6253H23.1231V27.7503C23.1231 27.0939 23.5195 26.5006 24.1256 26.2489C24.7335 25.9969 25.4321 26.1367 25.8969 26.6015L32.3968 33.1014C33.0323 33.7369 33.0323 34.7638 32.3968 35.399L25.8969 41.8992C25.4321 42.364 24.7335 42.5035 24.1256 42.2518Z" fill="#607D8B"/>
<path d="M49.7127 18.1607L39.9499 21.4155C38.6321 21.8705 37.748 23.1103 37.748 24.4996V53.7496C37.748 55.542 39.2054 56.9997 40.9978 56.9997C41.3457 56.9997 41.6757 56.9494 42.033 56.8387L51.7961 53.5838C53.1139 53.1289 53.9979 51.889 53.9979 50.4998V21.2498C53.9979 19.1095 51.9163 17.4828 49.7127 18.1607Z" fill="#64B5F6"/>
</g>
</g>
<defs>
<clipPath id="clip0_555_3464">
<rect x="0.144531" y="0.743164" width="72" height="72" rx="36" fill="white"/>
</clipPath>
<clipPath id="clip1_555_3464">
<rect width="39" height="39" fill="white" transform="translate(14.998 18)"/>
</clipPath>
</defs>
</svg>
