<svg width="73" height="73" viewBox="0 0 73 73" fill="none" xmlns="http://www.w3.org/2000/svg">
<g clip-path="url(#clip0_555_3484)">
<rect width="72" height="72" transform="translate(0.683594 0.709961)" fill="#EAF5FE"/>
<path fill-rule="evenodd" clip-rule="evenodd" d="M17.3223 40.9629V45.3804C17.3223 45.7641 17.6405 46.0823 18.0242 46.0823H55.9754C56.3591 46.0823 56.6773 45.7641 56.6773 45.3804V40.9629C43.5558 40.9629 30.4437 40.9629 17.3223 40.9629ZM38.7265 43.9672H35.273C35.0297 43.9672 34.8238 43.7706 34.8238 43.5179C34.8238 43.2652 35.0297 43.0687 35.273 43.0687H38.7265C38.9699 43.0687 39.1758 43.2652 39.1758 43.5179C39.1758 43.7706 38.9699 43.9672 38.7265 43.9672Z" fill="#0085F2"/>
<path fill-rule="evenodd" clip-rule="evenodd" d="M29.8457 46.9805H44.1651V50.6773H29.8457V46.9805Z" fill="#0085F2"/>
<path fill-rule="evenodd" clip-rule="evenodd" d="M45.6235 51.5762H28.3747C27.7757 51.5762 27.2891 52.0628 27.2891 52.6618V54.1967C27.2891 54.7957 27.7757 55.2824 28.3747 55.2824H45.6235C46.2225 55.2824 46.7092 54.7957 46.7092 54.1967V52.6618C46.7092 52.0628 46.2225 51.5762 45.6235 51.5762Z" fill="#0085F2"/>
<path fill-rule="evenodd" clip-rule="evenodd" d="M38.7369 40.064V38.1267C38.7369 35.4032 40.955 33.1851 43.6785 33.1851H44.6612V32.1743C43.7721 31.6127 43.1169 30.7236 42.8362 29.6848C41.9564 29.5631 41.2732 28.805 41.2732 27.8878C41.2732 27.0174 41.8909 26.2874 42.7051 26.119V25.6978C42.7051 23.9944 44.109 22.6093 45.8311 22.6093H48.2832C50.0052 22.6093 51.4091 23.9944 51.4091 25.6978V26.119C52.2233 26.2968 52.841 27.0268 52.841 27.8878C52.841 28.805 52.1578 29.5631 51.2781 29.6848C51.0067 30.7236 50.3422 31.6127 49.453 32.1743V33.1851H50.4357C53.1592 33.1851 55.3774 35.4032 55.3774 38.1267V40.064H56.6783V21.4207C56.6783 21.037 56.3601 20.7188 55.9763 20.7188H37.4453V40.064H38.7369Z" fill="#0085F2"/>
<path fill-rule="evenodd" clip-rule="evenodd" d="M18.6138 38.1267C18.6138 35.4032 20.8319 33.1851 23.5554 33.1851H24.5381V32.1743C23.649 31.6127 22.9939 30.7236 22.7131 29.6848C21.8334 29.5631 21.1501 28.805 21.1501 27.8878C21.1501 27.0174 21.7678 26.2874 22.5821 26.119V25.6978C22.5821 23.9944 23.9859 22.6093 25.708 22.6093H28.1601C29.8822 22.6093 31.286 23.9944 31.286 25.6978V26.119C32.1003 26.2968 32.718 27.0268 32.718 27.8878C32.718 28.805 32.0348 29.5631 31.155 29.6848C30.8836 30.7236 30.2191 31.6127 29.33 32.1743V33.1851H30.3127C33.0362 33.1851 35.2543 35.4032 35.2543 38.1267V40.064H36.5552V20.7188H18.0242C17.6405 20.7188 17.3223 21.037 17.3223 21.4207V40.064H18.6138V38.1267Z" fill="#0085F2"/>
<path fill-rule="evenodd" clip-rule="evenodd" d="M34.3652 40.0644V38.127C34.3652 36.1523 32.9332 34.4957 31.0614 34.1494L28.1133 37.4438L28.6093 40.0644H34.3652Z" fill="#0085F2"/>
<path fill-rule="evenodd" clip-rule="evenodd" d="M19.5117 38.127V40.0644H25.2676L25.7636 37.4438L22.8155 34.1494C20.9343 34.4957 19.5117 36.1523 19.5117 38.127Z" fill="#0085F2"/>
<path fill-rule="evenodd" clip-rule="evenodd" d="M27.2708 37.8457H26.6063L26.1758 40.0638H27.692L27.2708 37.8457Z" fill="#0085F2"/>
<path fill-rule="evenodd" clip-rule="evenodd" d="M26.5308 36.9475H27.345L27.6258 36.283L26.9332 35.8057L26.25 36.283L26.5308 36.9475Z" fill="#0085F2"/>
<path fill-rule="evenodd" clip-rule="evenodd" d="M24.8282 34.084H23.9766L25.4927 35.7218L26.1947 35.2258L24.8282 34.084Z" fill="#0085F2"/>
<path fill-rule="evenodd" clip-rule="evenodd" d="M28.4414 32.6143C28.0108 32.764 27.5523 32.8389 27.0749 32.8389H26.7942C26.3168 32.8389 25.8583 32.764 25.4277 32.6143V33.4285L26.9252 34.6733L28.4226 33.4285L28.4414 32.6143Z" fill="#0085F2"/>
<path fill-rule="evenodd" clip-rule="evenodd" d="M29.8919 34.084H29.0496L27.6738 35.2258L28.3758 35.7218L29.8919 34.084Z" fill="#0085F2"/>
<path fill-rule="evenodd" clip-rule="evenodd" d="M23.4805 28.6182C23.4805 30.4245 24.9498 31.9407 26.803 31.9407H27.0837C28.9368 31.9407 30.4062 30.4339 30.4062 28.6182V26.8494C29.9383 26.9617 29.2363 27.0833 28.4595 27.0833C27.7389 27.0833 26.9527 26.9804 26.2414 26.6528C24.9592 26.0819 23.9297 26.3627 23.4898 26.5405L23.4805 28.6182Z" fill="#0085F2"/>
<path fill-rule="evenodd" clip-rule="evenodd" d="M26.5975 25.8386C27.9639 26.447 29.7047 26.1101 30.3973 25.9322V25.7076C30.3973 24.519 29.3771 23.5176 28.1698 23.5176H25.7177C24.5478 23.5176 23.5464 24.4628 23.4902 25.6047C24.1547 25.3894 25.2778 25.249 26.5975 25.8386Z" fill="#0085F2"/>
<path fill-rule="evenodd" clip-rule="evenodd" d="M32.0534 27.8877C32.0534 27.4853 31.8194 27.1296 31.4638 26.9518L31.3047 26.877V28.8892L31.4638 28.8143C31.8194 28.6552 32.0534 28.2902 32.0534 27.8877Z" fill="#0085F2"/>
<path fill-rule="evenodd" clip-rule="evenodd" d="M21.8242 27.8881C21.8242 28.2906 22.0582 28.6556 22.4232 28.8241L22.5823 28.8989C22.5823 28.2251 22.5823 27.5606 22.5823 26.8867L22.4232 26.9616C22.0582 27.1207 21.8242 27.4857 21.8242 27.8881Z" fill="#0085F2"/>
<path fill-rule="evenodd" clip-rule="evenodd" d="M39.6348 38.127V40.0644H45.3906L45.8866 37.4438L42.9385 34.1494C41.0667 34.4957 39.6348 36.1523 39.6348 38.127Z" fill="#0085F2"/>
<path fill-rule="evenodd" clip-rule="evenodd" d="M54.4882 40.0644V38.127C54.4882 36.1523 53.0563 34.4957 51.1844 34.1494L48.2363 37.4438L48.7324 40.0644H54.4882Z" fill="#0085F2"/>
<path fill-rule="evenodd" clip-rule="evenodd" d="M47.4017 37.8457H46.7278L46.3066 40.0638H47.8228L47.4017 37.8457Z" fill="#0085F2"/>
<path fill-rule="evenodd" clip-rule="evenodd" d="M46.373 36.283L46.6538 36.9475H47.4681L47.7488 36.283L47.0656 35.8057L46.373 36.283Z" fill="#0085F2"/>
<path fill-rule="evenodd" clip-rule="evenodd" d="M44.9497 34.084H44.1074L45.6236 35.7218L46.3255 35.2258L44.9497 34.084Z" fill="#0085F2"/>
<path fill-rule="evenodd" clip-rule="evenodd" d="M48.5629 32.6143C48.1323 32.764 47.6738 32.8389 47.1964 32.8389H46.9157C46.4383 32.8389 45.9798 32.764 45.5586 32.6143V33.4285L47.0561 34.6733L48.5535 33.4285L48.5629 32.6143Z" fill="#0085F2"/>
<path fill-rule="evenodd" clip-rule="evenodd" d="M50.0228 34.084H49.1805L47.8047 35.2258L48.5066 35.7218L50.0228 34.084Z" fill="#0085F2"/>
<path fill-rule="evenodd" clip-rule="evenodd" d="M43.6035 28.6182C43.6035 30.4245 45.0729 31.9407 46.926 31.9407H47.2068C49.0318 31.9407 50.5293 30.462 50.5293 28.6182V26.8494C50.0613 26.9617 49.3594 27.0833 48.5826 27.0833C47.8619 27.0833 47.0757 26.9804 46.3645 26.6528C45.0823 26.0819 44.0528 26.3627 43.6129 26.5405L43.6035 28.6182Z" fill="#0085F2"/>
<path fill-rule="evenodd" clip-rule="evenodd" d="M46.7186 25.8386C48.085 26.447 49.8258 26.1101 50.5183 25.9322V25.7076C50.5183 24.519 49.4982 23.5176 48.2909 23.5176H45.8388C44.6689 23.5176 43.6675 24.4628 43.6113 25.6047C44.2852 25.3894 45.4083 25.249 46.7186 25.8386Z" fill="#0085F2"/>
<path fill-rule="evenodd" clip-rule="evenodd" d="M41.9551 27.8881C41.9551 28.2906 42.1891 28.6556 42.5541 28.8241L42.7132 28.8989C42.7132 28.2251 42.7132 27.5606 42.7132 26.8867L42.5541 26.9616C42.1797 27.1207 41.9551 27.4857 41.9551 27.8881Z" fill="#0085F2"/>
<path fill-rule="evenodd" clip-rule="evenodd" d="M52.1761 27.8877C52.1761 27.4853 51.9421 27.1203 51.5771 26.9518L51.418 26.877V28.8892L51.5771 28.8143C51.9421 28.6552 52.1761 28.2902 52.1761 27.8877Z" fill="#0085F2"/>
</g>
<defs>
<clipPath id="clip0_555_3484">
<rect x="0.683594" y="0.709961" width="72" height="72" rx="36" fill="white"/>
</clipPath>
</defs>
</svg>
