<svg width="73" height="73" viewBox="0 0 73 73" fill="none" xmlns="http://www.w3.org/2000/svg">
<g clip-path="url(#clip0_555_3557)">
<rect width="72" height="72" transform="translate(0.632812 0.5)" fill="#EAF5FE"/>
<path d="M49.1562 30.875C51.4862 30.875 53.375 28.9862 53.375 26.6562C53.375 24.3263 51.4862 22.4375 49.1562 22.4375C46.8263 22.4375 44.9375 24.3263 44.9375 26.6562C44.9375 28.9862 46.8263 30.875 49.1562 30.875Z" fill="#0085F2"/>
<path d="M51.9796 30.875H49.1562H46.3329C43.9997 30.875 42.1286 32.7705 42.125 35.0938H56.1875C56.1839 32.7705 54.3128 30.875 51.9796 30.875Z" fill="#0085F2"/>
<path d="M51.9688 56.1875H29.4687C27.1388 56.1875 25.25 54.2987 25.25 51.9688L56.1875 51.9688C56.1875 54.2987 54.2987 56.1875 51.9688 56.1875Z" fill="#0085F2"/>
<path d="M50.5625 36.5H30.875C29.3217 36.5 28.0625 37.7591 28.0625 39.3125V50.5625H53.375V39.3125C53.375 37.7591 52.1158 36.5 50.5625 36.5ZM37.6536 46.5072C37.9516 46.7557 37.9914 47.1993 37.7435 47.4973C37.6041 47.6635 37.4043 47.75 37.2024 47.75C37.0438 47.75 36.8845 47.6964 36.7527 47.5866L32.5339 44.071C32.3739 43.9377 32.2812 43.74 32.2812 43.5312C32.2812 43.3225 32.3739 43.1248 32.5339 42.9915L36.7527 39.4759C37.0527 39.226 37.4956 39.2672 37.7435 39.5652C37.9914 39.8632 37.9516 40.3068 37.6536 40.5553L34.083 43.5312L37.6536 46.5072ZM40.7053 47.1842C40.638 47.5193 40.3455 47.75 40.0173 47.75C39.9706 47.75 39.9239 47.7459 39.8786 47.7363C39.4968 47.6607 39.2496 47.2899 39.3265 46.9095L40.7327 39.8783C40.8096 39.4951 41.1983 39.248 41.5595 39.3262C41.9412 39.4018 42.1884 39.7726 42.1115 40.153L40.7053 47.1842ZM48.9035 44.0713L44.6847 47.5869C44.5529 47.6968 44.3936 47.7503 44.235 47.7503C44.0331 47.7503 43.8333 47.6638 43.6939 47.4977C43.446 47.1997 43.4858 46.7561 43.7838 46.5075L47.3544 43.5316L43.7838 40.5557C43.4858 40.3071 43.446 39.8635 43.6939 39.5655C43.9418 39.2675 44.3847 39.2263 44.6847 39.4763L48.9035 42.9919C49.0635 43.1251 49.1562 43.3229 49.1562 43.5316C49.1562 43.7403 49.0635 43.9381 48.9035 44.0713Z" fill="#0085F2"/>
<path d="M24.2656 16.8125H33.2656L32.2812 19.625H25.25L24.2656 16.8125Z" fill="#0085F2"/>
<path d="M39.3125 16.8125H35.0938L34.008 20.0697C33.8166 20.6439 33.2792 21.0312 32.6739 21.0312H24.8573C24.252 21.0312 23.7147 20.6439 23.5233 20.0697L22.4375 16.8125H18.2188C17.4421 16.8125 16.8125 17.4421 16.8125 18.2188V47.75C16.8125 48.5267 17.4421 49.1562 18.2188 49.1562H26.6562V39.3125C26.6562 36.9861 28.5486 35.0938 30.875 35.0938H40.7188V18.2188C40.7188 17.4421 40.0892 16.8125 39.3125 16.8125ZM25.044 41.919L22.2315 44.7315C22.0942 44.8688 21.9143 44.9375 21.7344 44.9375C21.5545 44.9375 21.3746 44.8688 21.2372 44.7315L19.831 43.3253C19.5563 43.0506 19.5563 42.6057 19.831 42.331C20.1057 42.0563 20.5506 42.0563 20.8253 42.331L21.7344 43.2401L24.0497 40.9247C24.3244 40.6501 24.7693 40.6501 25.044 40.9247C25.3187 41.1994 25.3187 41.6443 25.044 41.919ZM25.044 33.4815L22.2315 36.294C22.0942 36.4313 21.9143 36.5 21.7344 36.5C21.5545 36.5 21.3746 36.4313 21.2372 36.294L19.831 34.8878C19.5563 34.6131 19.5563 34.1682 19.831 33.8935C20.1057 33.6188 20.5506 33.6188 20.8253 33.8935L21.7344 34.8026L24.0497 32.4872C24.3244 32.2126 24.7693 32.2126 25.044 32.4872C25.3187 32.7619 25.3187 33.2068 25.044 33.4815ZM25.044 25.044L22.2315 27.8565C22.0942 27.9938 21.9143 28.0625 21.7344 28.0625C21.5545 28.0625 21.3746 27.9938 21.2372 27.8565L19.831 26.4503C19.5563 26.1756 19.5563 25.7307 19.831 25.456C20.1057 25.1813 20.5506 25.1813 20.8253 25.456L21.7344 26.3651L24.0497 24.0497C24.3244 23.7751 24.7693 23.7751 25.044 24.0497C25.3187 24.3244 25.3187 24.7693 25.044 25.044Z" fill="#0085F2"/>
</g>
<defs>
<clipPath id="clip0_555_3557">
<rect x="0.632812" y="0.5" width="72" height="72" rx="36" fill="white"/>
</clipPath>
</defs>
</svg>
