<svg width="73" height="72" viewBox="0 0 73 72" fill="none" xmlns="http://www.w3.org/2000/svg">
<g clip-path="url(#clip0_555_3450)">
<rect width="72" height="72" transform="translate(0.628906)" fill="#EAF5FE"/>
<g clip-path="url(#clip1_555_3450)">
<path d="M44.9062 55.7988C44.9062 56.4628 44.369 57 43.7051 57H29.291C28.6271 57 28.0898 56.4628 28.0898 55.7988C28.0898 51.163 31.8622 47.3906 36.498 47.3906C41.1338 47.3906 44.9062 51.163 44.9062 55.7988Z" fill="#0085F2"/>
<path d="M36.498 47.3906C33.8482 47.3906 31.6934 45.2358 31.6934 42.5859C31.6934 39.9361 33.8482 37.7812 36.498 37.7812C39.1479 37.7812 41.3027 39.9361 41.3027 42.5859C41.3027 45.2358 39.1479 47.3906 36.498 47.3906Z" fill="#0085F2"/>
<path d="M30.0839 47.1264C27.7295 48.856 26.0959 51.5466 25.7597 54.5977H17.1992C16.5265 54.5977 15.998 54.0692 15.998 53.3965C15.998 48.76 19.8498 44.9883 24.4863 44.9883C26.6004 44.9883 28.5703 45.7811 30.0839 47.1264Z" fill="#0085F2"/>
<path d="M24.4863 44.9883C21.8365 44.9883 19.6816 42.8335 19.6816 40.1836C19.6816 37.5337 21.8365 35.3789 24.4863 35.3789C27.1362 35.3789 29.291 37.5337 29.291 40.1836C29.291 42.8335 27.1362 44.9883 24.4863 44.9883Z" fill="#0085F2"/>
<path d="M56.9979 53.3965C56.9979 54.0692 56.4695 54.5977 55.7968 54.5977H47.2363C46.9001 51.5466 45.2666 48.8561 42.9121 47.1264C44.4257 45.7811 46.3956 44.9883 48.5097 44.9883C53.1462 44.9883 56.9979 48.76 56.9979 53.3965Z" fill="#0085F2"/>
<path d="M48.5098 44.9883C45.8599 44.9883 43.7051 42.8335 43.7051 40.1836C43.7051 37.5337 45.8599 35.3789 48.5098 35.3789C51.1596 35.3789 53.3145 37.5337 53.3145 40.1836C53.3145 42.8335 51.1596 44.9883 48.5098 44.9883Z" fill="#0085F2"/>
<path d="M50.9121 16H22.084C21.4113 16 20.8828 16.5285 20.8828 17.2012V31.7754C20.8828 32.448 21.4113 32.9766 22.084 32.9766H25.6875V33.0775C27.3163 33.3513 28.7617 34.1737 29.8259 35.3485L32.1979 32.9766H40.7982L43.1702 35.3485C44.2344 34.1737 45.6798 33.3513 47.3086 33.0775V32.9766H50.9121C51.5848 32.9766 52.1133 32.448 52.1133 31.7754V17.2012C52.1133 16.5285 51.5848 16 50.9121 16ZM26.8887 20.9648C27.5613 20.9648 28.0898 21.4934 28.0898 22.166C28.0898 22.8387 27.5613 23.3672 26.8887 23.3672C26.216 23.3672 25.6875 22.8387 25.6875 22.166C25.6875 21.4934 26.216 20.9648 26.8887 20.9648ZM41.3027 28.1719H26.8887C26.216 28.1719 25.6875 27.6434 25.6875 26.9707C25.6875 26.298 26.216 25.7695 26.8887 25.7695H41.3027C41.9754 25.7695 42.5039 26.298 42.5039 26.9707C42.5039 27.6434 41.9754 28.1719 41.3027 28.1719ZM46.1074 28.1719C45.4348 28.1719 44.9062 27.6434 44.9062 26.9707C44.9062 26.298 45.4348 25.7695 46.1074 25.7695C46.7801 25.7695 47.3086 26.298 47.3086 26.9707C47.3086 27.6434 46.7801 28.1719 46.1074 28.1719ZM46.1074 23.3672H31.6934C31.0207 23.3672 30.4922 22.8387 30.4922 22.166C30.4922 21.4934 31.0207 20.9648 31.6934 20.9648H46.1074C46.7801 20.9648 47.3086 21.4934 47.3086 22.166C47.3086 22.8387 46.7801 23.3672 46.1074 23.3672Z" fill="#0085F2"/>
</g>
</g>
<defs>
<clipPath id="clip0_555_3450">
<rect x="0.628906" width="72" height="72" rx="36" fill="white"/>
</clipPath>
<clipPath id="clip1_555_3450">
<rect width="41" height="41" fill="white" transform="translate(15.998 16)"/>
</clipPath>
</defs>
</svg>
