<svg width="73" height="73" viewBox="0 0 73 73" fill="none" xmlns="http://www.w3.org/2000/svg">
<g clip-path="url(#clip0_555_3545)">
<rect width="72" height="72" transform="translate(0.855469 0.709961)" fill="#EAF5FE"/>
<path d="M41.3848 18.4844H19.6035C17.6095 18.4844 16 20.0939 16 22.0879V36.502C16 38.4958 17.6095 40.1055 19.6035 40.1055H20.8047V43.709C20.8047 44.5768 21.7032 45.2052 22.5824 44.766C22.6064 44.742 22.6546 44.742 22.6786 44.7179C29.2863 40.2868 27.8054 41.2748 29.285 40.2976C29.4771 40.1775 29.6934 40.1055 29.9336 40.1055H41.3848C43.3788 40.1055 44.9883 38.4958 44.9883 36.502V22.0879C44.9883 20.0939 43.3788 18.4844 41.3848 18.4844ZM31.7754 32.8984H22.0059C20.4225 32.8984 20.416 30.4961 22.0059 30.4961H31.7754C33.3588 30.4961 33.3653 32.8984 31.7754 32.8984ZM38.9824 28.0938H22.0059C20.4225 28.0938 20.416 25.6914 22.0059 25.6914H38.9824C40.5658 25.6914 40.5723 28.0938 38.9824 28.0938Z" fill="#0085F2"/>
<path d="M53.3965 28.0938H47.3906V36.502C47.3906 39.8172 44.7 42.5078 41.3848 42.5078H30.2939L28.0117 44.0213V46.1113C28.0117 48.1052 29.6212 49.7148 31.6152 49.7148H43.4267L50.3214 54.3273C51.2625 54.8498 52.1953 54.2144 52.1953 53.3184V49.7148H53.3965C55.3905 49.7148 57 48.1052 57 46.1113V31.6973C57 29.7033 55.3905 28.0938 53.3965 28.0938Z" fill="#0085F2"/>
</g>
<defs>
<clipPath id="clip0_555_3545">
<rect x="0.855469" y="0.709961" width="72" height="72" rx="36" fill="white"/>
</clipPath>
</defs>
</svg>
