<svg width="73" height="73" viewBox="0 0 73 73" fill="none" xmlns="http://www.w3.org/2000/svg">
<g clip-path="url(#clip0_555_3570)">
<rect width="72" height="72" transform="translate(0.402344 0.743164)" fill="#EAF5FE"/>
<path fill-rule="evenodd" clip-rule="evenodd" d="M49.4739 48.8963H52.145V49.7218H49.4739V48.8963ZM49.4739 47.2404H53.3293V48.0659H49.4739V47.2404ZM49.4739 45.5895H53.3293V46.415H49.4739V45.5895ZM47.8025 42.8108V53.5774H54.9802V42.8108H47.8025ZM39.5584 42.8108V53.5774H46.7361V42.8108H39.5584ZM37.9075 41.1855H56.6516V55.2283H49.4739C49.4725 55.4476 49.3844 55.6576 49.2288 55.8122C49.0732 55.9669 48.8627 56.0537 48.6434 56.0537H45.8901C45.6748 56.0484 45.47 55.959 45.3196 55.8048C45.1692 55.6506 45.0851 55.4437 45.0852 55.2283H37.9075V41.1855ZM38.4202 35.0332C40.7141 35.0415 42.9943 35.387 45.1877 36.0586C47.916 36.7786 50.4883 37.9952 52.7756 39.6475H36.3694V51.4395H23.188C24.0593 50.9925 24.7571 50.2681 25.1711 49.3806C25.5852 48.4931 25.692 47.493 25.4747 46.5381C25.2613 45.7343 24.8218 45.0085 24.2084 44.4469C23.595 43.8853 22.8334 43.5114 22.014 43.3695V43.2363C22.0272 42.602 22.1812 41.9786 22.465 41.4111C22.7487 40.8436 23.1551 40.3463 23.6546 39.9552C26.0808 38.2129 28.7852 36.8953 31.6526 36.0586C33.8529 35.4176 36.1288 35.0727 38.4202 35.0332ZM15.2129 30.0164C15.3421 29.9736 15.4831 29.9839 15.6047 30.045C15.7263 30.1061 15.8187 30.213 15.8615 30.3422L20.5066 44.3592C20.9401 44.2599 21.3892 44.2485 21.8272 44.3255C22.2653 44.4025 22.6835 44.5664 23.0573 44.8075C23.431 45.0487 23.7527 45.3622 24.0034 45.7295C24.2541 46.0969 24.4287 46.5108 24.517 46.9467C24.6053 47.3826 24.6054 47.8318 24.5174 48.2678C24.4294 48.7038 24.255 49.1177 24.0046 49.4853C23.7541 49.8528 23.4326 50.1665 23.059 50.4079C22.6854 50.6493 22.2673 50.8134 21.8293 50.8907C19.9067 51.3677 18.8454 51.6344 18.0354 48.4044C17.333 45.5742 18.0559 45.0154 19.5324 44.6002L14.8874 30.6649C14.8662 30.601 14.8578 30.5335 14.8627 30.4663C14.8676 30.3991 14.8856 30.3335 14.9159 30.2732C14.9461 30.213 14.9879 30.1593 15.0389 30.1153C15.0899 30.0712 15.149 30.0376 15.2129 30.0164ZM38.4202 16.5762C40.0426 16.5762 41.6286 17.0573 42.9776 17.9586C44.3266 18.86 45.378 20.1412 45.9989 21.6401C46.6197 23.139 46.7822 24.7884 46.4657 26.3796C46.1491 27.9709 45.3679 29.4326 44.2206 30.5798C43.0734 31.727 41.6118 32.5083 40.0205 32.8248C38.4293 33.1413 36.7799 32.9789 35.281 32.358C33.782 31.7371 32.5009 30.6857 31.5995 29.3367C30.6981 27.9877 30.217 26.4017 30.217 24.7793C30.217 22.6037 31.0813 20.5172 32.6197 18.9788C34.1581 17.4404 36.2446 16.5762 38.4202 16.5762Z" fill="#0085F2"/>
</g>
<defs>
<clipPath id="clip0_555_3570">
<rect x="0.402344" y="0.743164" width="72" height="72" rx="36" fill="white"/>
</clipPath>
</defs>
</svg>
