<svg width="73" height="73" viewBox="0 0 73 73" fill="none" xmlns="http://www.w3.org/2000/svg">
<g clip-path="url(#clip0_555_3518)">
<rect width="72" height="72" transform="translate(0.628906 0.90332)" fill="#EAF5FE"/>
<g clip-path="url(#clip1_555_3518)">
<path d="M40.6916 44.4203C41.2062 44.4203 41.6234 44.0031 41.6234 43.4885C41.6234 42.9738 41.2062 42.5566 40.6916 42.5566C40.177 42.5566 39.7598 42.9738 39.7598 43.4885C39.7598 44.0031 40.177 44.4203 40.6916 44.4203Z" fill="#0085F2"/>
<path d="M39.3084 37.2777C39.0669 37.0101 38.9083 36.6782 38.8516 36.3222C38.795 35.9663 38.8428 35.6015 38.9892 35.2722C39.1357 34.9428 39.3745 34.663 39.6767 34.4666C39.979 34.2702 40.3317 34.1657 40.6921 34.1657C41.0526 34.1657 41.4053 34.2702 41.7075 34.4666C42.0097 34.663 42.2486 34.9428 42.395 35.2722C42.5414 35.6015 42.5892 35.9663 42.5326 36.3222C42.476 36.6782 42.3173 37.0101 42.0759 37.2777C42.5654 37.5054 42.9901 37.8518 43.3116 38.2855C43.633 38.7193 43.8408 39.2265 43.9162 39.761H44.4194V33.2383H36.9648V39.761H37.468C37.5434 39.2265 37.7513 38.7193 38.0727 38.2855C38.3941 37.8518 38.8189 37.5054 39.3084 37.2777Z" fill="#0085F2"/>
<path d="M32.3064 45.3525C31.7696 45.3532 31.2494 45.5389 30.8335 45.8784C30.4176 46.2179 30.1315 46.6903 30.0234 47.2162H34.5893C34.4812 46.6903 34.1951 46.2179 33.7793 45.8784C33.3634 45.5389 32.8432 45.3532 32.3064 45.3525Z" fill="#0085F2"/>
<path d="M40.6912 45.3525C40.1543 45.3532 39.6341 45.5389 39.2183 45.8784C38.8024 46.2179 38.5163 46.6903 38.4082 47.2162H42.9741C42.866 46.6903 42.5799 46.2179 42.164 45.8784C41.7482 45.5389 41.228 45.3532 40.6912 45.3525Z" fill="#0085F2"/>
<path d="M38.4082 39.7612H42.9741C42.8666 39.235 42.5807 38.7622 42.1647 38.4226C41.7487 38.083 41.2282 37.8975 40.6912 37.8975C40.1541 37.8975 39.6336 38.083 39.2176 38.4226C38.8016 38.7622 38.5157 39.235 38.4082 39.7612Z" fill="#0085F2"/>
<path d="M32.3049 44.4203C32.8195 44.4203 33.2367 44.0031 33.2367 43.4885C33.2367 42.9738 32.8195 42.5566 32.3049 42.5566C31.7902 42.5566 31.373 42.9738 31.373 43.4885C31.373 44.0031 31.7902 44.4203 32.3049 44.4203Z" fill="#0085F2"/>
<path d="M30.0234 39.7612H34.5893C34.4819 39.235 34.1959 38.7622 33.7799 38.4226C33.3639 38.083 32.8434 37.8975 32.3064 37.8975C31.7694 37.8975 31.2488 38.083 30.8328 38.4226C30.4168 38.7622 30.1309 39.235 30.0234 39.7612Z" fill="#0085F2"/>
<path d="M40.6916 36.9662C41.2062 36.9662 41.6234 36.549 41.6234 36.0344C41.6234 35.5197 41.2062 35.1025 40.6916 35.1025C40.177 35.1025 39.7598 35.5197 39.7598 36.0344C39.7598 36.549 40.177 36.9662 40.6916 36.9662Z" fill="#0085F2"/>
<path d="M21.123 49.5455H51.873V30.9092H21.123V49.5455ZM27.6458 32.7728C27.6461 32.6494 27.6953 32.5311 27.7826 32.4438C27.8699 32.3565 27.9882 32.3073 28.1117 32.3069H44.8844C45.0079 32.3073 45.1262 32.3565 45.2135 32.4438C45.3008 32.5311 45.35 32.6494 45.3503 32.7728V47.6819C45.35 47.8054 45.3008 47.9237 45.2135 48.011C45.1262 48.0983 45.0079 48.1475 44.8844 48.1478H28.1117C27.9882 48.1475 27.8699 48.0983 27.7826 48.011C27.6953 47.9237 27.6461 47.8054 27.6458 47.6819V32.7728Z" fill="#0085F2"/>
<path d="M32.3049 36.9662C32.8195 36.9662 33.2367 36.549 33.2367 36.0344C33.2367 35.5197 32.8195 35.1025 32.3049 35.1025C31.7902 35.1025 31.373 35.5197 31.373 36.0344C31.373 36.549 31.7902 36.9662 32.3049 36.9662Z" fill="#0085F2"/>
<path d="M30.9216 44.7328C30.6802 44.4652 30.5216 44.1333 30.4649 43.7773C30.4083 43.4213 30.4561 43.0566 30.6025 42.7273C30.749 42.3979 30.9878 42.1181 31.29 41.9217C31.5923 41.7253 31.945 41.6208 32.3054 41.6208C32.6658 41.6208 33.0185 41.7253 33.3208 41.9217C33.623 42.1181 33.8618 42.3979 34.0083 42.7273C34.1547 43.0566 34.2025 43.4213 34.1459 43.7773C34.0892 44.1333 33.9306 44.4652 33.6891 44.7328C34.1786 44.9604 34.6034 45.3069 34.9248 45.7406C35.2463 46.1743 35.4541 46.6815 35.5295 47.2161H36.0327V40.6934H28.5781V47.2161H29.0813C29.1567 46.6815 29.3645 46.1743 29.686 45.7406C30.0074 45.3069 30.4322 44.9604 30.9216 44.7328Z" fill="#0085F2"/>
<path d="M30.9216 37.2777C30.6802 37.0101 30.5216 36.6782 30.4649 36.3222C30.4083 35.9663 30.4561 35.6015 30.6025 35.2722C30.749 34.9428 30.9878 34.663 31.29 34.4666C31.5923 34.2702 31.945 34.1657 32.3054 34.1657C32.6658 34.1657 33.0185 34.2702 33.3208 34.4666C33.623 34.663 33.8618 34.9428 34.0083 35.2722C34.1547 35.6015 34.2025 35.9663 34.1459 36.3222C34.0892 36.6782 33.9306 37.0101 33.6891 37.2777C34.1786 37.5054 34.6034 37.8518 34.9248 38.2855C35.2463 38.7193 35.4541 39.2265 35.5295 39.761H36.0327V33.2383H28.5781V39.761H29.0813C29.1567 39.2265 29.3645 38.7193 29.686 38.2855C30.0074 37.8518 30.4322 37.5054 30.9216 37.2777Z" fill="#0085F2"/>
<path d="M39.3084 44.7328C39.0669 44.4652 38.9083 44.1333 38.8516 43.7773C38.795 43.4213 38.8428 43.0566 38.9892 42.7273C39.1357 42.3979 39.3745 42.1181 39.6767 41.9217C39.979 41.7253 40.3317 41.6208 40.6921 41.6208C41.0526 41.6208 41.4053 41.7253 41.7075 41.9217C42.0097 42.1181 42.2486 42.3979 42.395 42.7273C42.5414 43.0566 42.5892 43.4213 42.5326 43.7773C42.476 44.1333 42.3173 44.4652 42.0759 44.7328C42.5654 44.9604 42.9901 45.3069 43.3116 45.7406C43.633 46.1743 43.8408 46.6815 43.9162 47.2161H44.4194V40.6934H36.9648V47.2161H37.468C37.5434 46.6815 37.7513 46.1743 38.0727 45.7406C38.3941 45.3069 38.8189 44.9604 39.3084 44.7328Z" fill="#0085F2"/>
<path d="M27.568 52.0842L28.3647 53.2723H44.6342L45.4309 52.0842C45.473 52.02 45.5303 51.9672 45.5978 51.9306C45.6653 51.894 45.7409 51.8747 45.8176 51.8746H54.204V30.4427C54.2041 30.198 54.1559 29.9556 54.0623 29.7295C53.9687 29.5033 53.8314 29.2979 53.6583 29.1248C53.4852 28.9517 53.2798 28.8145 53.0536 28.7208C52.8275 28.6272 52.5851 28.579 52.3404 28.5791H39.02L37.627 29.9768H52.3404C52.4638 29.9772 52.5821 30.0264 52.6694 30.1137C52.7567 30.201 52.8059 30.3193 52.8063 30.4427V50.0109C52.8059 50.1344 52.7567 50.2527 52.6694 50.34C52.5821 50.4273 52.4638 50.4765 52.3404 50.4768H20.6586C20.5351 50.4765 20.4168 50.4273 20.3295 50.34C20.2422 50.2527 20.193 50.1344 20.1926 50.0109V30.4427C20.193 30.3193 20.2422 30.201 20.3295 30.1137C20.4168 30.0264 20.5351 29.9772 20.6586 29.9768H35.372L33.9789 28.5791H20.6586C20.4138 28.579 20.1714 28.6272 19.9453 28.7208C19.7192 28.8145 19.5137 28.9517 19.3406 29.1248C19.1676 29.2979 19.0303 29.5033 18.9366 29.7295C18.843 29.9556 18.7949 30.198 18.7949 30.4427V51.8746H27.1813C27.2581 51.8747 27.3336 51.894 27.4011 51.9306C27.4686 51.9672 27.5259 52.02 27.568 52.0842Z" fill="#0085F2"/>
<path d="M28.5792 27.6476H34.1701C34.2936 27.6485 34.4121 27.6969 34.5009 27.7828L35.2976 28.5795L36.4996 29.7862L37.7017 28.5795L38.4984 27.7828C38.5872 27.6969 38.7057 27.6485 38.8292 27.6476H44.4201C44.5437 27.6476 44.6622 27.5986 44.7495 27.5112C44.8369 27.4238 44.886 27.3053 44.886 27.1817V16.9317C44.886 16.8082 44.8369 16.6897 44.7495 16.6023C44.6622 16.5149 44.5437 16.4658 44.4201 16.4658H28.5792C28.4556 16.4658 28.3371 16.5149 28.2497 16.6023C28.1624 16.6897 28.1133 16.8082 28.1133 16.9317V27.1817C28.1133 27.3053 28.1624 27.4238 28.2497 27.5112C28.3371 27.5986 28.4556 27.6476 28.5792 27.6476ZM29.0451 19.2613C29.0455 19.1378 29.0947 19.0195 29.182 18.9322C29.2693 18.8449 29.3876 18.7957 29.511 18.7954H30.9087V17.8635C30.9091 17.7401 30.9583 17.6218 31.0456 17.5345C31.1329 17.4472 31.2512 17.398 31.3746 17.3976H34.636C34.9976 17.398 35.3542 17.4824 35.6776 17.6441C36.001 17.8058 36.2824 18.0404 36.4996 18.3295C36.7169 18.0404 36.9983 17.8058 37.3217 17.6441C37.6451 17.4824 38.0017 17.398 38.3633 17.3976H41.6246C41.7481 17.398 41.8664 17.4472 41.9537 17.5345C42.041 17.6218 42.0902 17.7401 42.0906 17.8635V18.7954H43.4883C43.6117 18.7957 43.73 18.8449 43.8173 18.9322C43.9046 19.0195 43.9538 19.1378 43.9542 19.2613V26.2499C43.9538 26.3734 43.9046 26.4917 43.8173 26.579C43.73 26.6663 43.6117 26.7155 43.4883 26.7158H29.511C29.3876 26.7155 29.2693 26.6663 29.182 26.579C29.0947 26.4917 29.0455 26.3734 29.0451 26.2499V19.2613Z" fill="#0085F2"/>
<path d="M34.6357 24.8525H31.3743C31.2508 24.8522 31.1325 24.803 31.0452 24.7157C30.9579 24.6284 30.9087 24.5101 30.9084 24.3866V19.7275H29.9766V25.7844H35.9495C35.8534 25.5125 35.6755 25.277 35.4403 25.1102C35.2051 24.9434 34.924 24.8534 34.6357 24.8525Z" fill="#0085F2"/>
<path d="M43.0218 19.7275H42.09V24.3866C42.0896 24.5101 42.0404 24.6284 41.9531 24.7157C41.8658 24.803 41.7475 24.8522 41.6241 24.8525H38.3627C38.0743 24.8534 37.7933 24.9434 37.5581 25.1102C37.3229 25.277 37.145 25.5125 37.0488 25.7844H43.0218V19.7275Z" fill="#0085F2"/>
<path d="M46.0665 52.8066L45.2729 53.9969C45.2304 54.0607 45.1728 54.113 45.1051 54.1492C45.0375 54.1854 44.962 54.2044 44.8853 54.2044H28.1126C28.0359 54.2044 27.9604 54.1854 27.8927 54.1492C27.8251 54.113 27.7675 54.0607 27.7249 53.9969L26.9314 52.8066H16.4648V54.2044C16.4656 54.822 16.7112 55.4141 17.148 55.8508C17.5847 56.2875 18.1768 56.5332 18.7944 56.5339H54.2035C54.8211 56.5332 55.4132 56.2875 55.8499 55.8508C56.2866 55.4141 56.5323 54.822 56.533 54.2044V52.8066H46.0665Z" fill="#0085F2"/>
<path d="M38.3626 18.3291C37.9922 18.3302 37.6373 18.4778 37.3754 18.7397C37.1135 19.0016 36.9659 19.3565 36.9648 19.7268V24.3859C37.3678 24.083 37.8584 23.9195 38.3626 23.92H41.158V18.3291H38.3626ZM39.7603 22.9882H38.3626C38.239 22.9882 38.1205 22.9391 38.0331 22.8517C37.9457 22.7644 37.8967 22.6459 37.8967 22.5223C37.8967 22.3987 37.9457 22.2802 38.0331 22.1928C38.1205 22.1055 38.239 22.0564 38.3626 22.0564H39.7603C39.8839 22.0564 40.0024 22.1055 40.0897 22.1928C40.1771 22.2802 40.2262 22.3987 40.2262 22.5223C40.2262 22.6459 40.1771 22.7644 40.0897 22.8517C40.0024 22.9391 39.8839 22.9882 39.7603 22.9882ZM39.7603 21.5905H38.3626C38.239 21.5905 38.1205 21.5414 38.0331 21.454C37.9457 21.3666 37.8967 21.2481 37.8967 21.1246C37.8967 21.001 37.9457 20.8825 38.0331 20.7951C38.1205 20.7077 38.239 20.6586 38.3626 20.6586H39.7603C39.8839 20.6586 40.0024 20.7077 40.0897 20.7951C40.1771 20.8825 40.2262 21.001 40.2262 21.1246C40.2262 21.2481 40.1771 21.3666 40.0897 21.454C40.0024 21.5414 39.8839 21.5905 39.7603 21.5905ZM39.7603 20.1927H38.3626C38.239 20.1927 38.1205 20.1437 38.0331 20.0563C37.9457 19.9689 37.8967 19.8504 37.8967 19.7268C37.8967 19.6033 37.9457 19.4848 38.0331 19.3974C38.1205 19.31 38.239 19.2609 38.3626 19.2609H39.7603C39.8839 19.2609 40.0024 19.31 40.0897 19.3974C40.1771 19.4848 40.2262 19.6033 40.2262 19.7268C40.2262 19.8504 40.1771 19.9689 40.0897 20.0563C40.0024 20.1437 39.8839 20.1927 39.7603 20.1927Z" fill="#0085F2"/>
<path d="M34.6353 18.3291H31.8398V23.92H34.6353C35.1394 23.9195 35.63 24.083 36.033 24.3859V19.7268C36.0319 19.3565 35.8843 19.0016 35.6224 18.7397C35.3606 18.4778 35.0057 18.3302 34.6353 18.3291ZM34.6353 22.9882H33.2376C33.114 22.9882 32.9955 22.9391 32.9081 22.8517C32.8207 22.7644 32.7717 22.6459 32.7717 22.5223C32.7717 22.3987 32.8207 22.2802 32.9081 22.1928C32.9955 22.1055 33.114 22.0564 33.2376 22.0564H34.6353C34.7589 22.0564 34.8774 22.1055 34.9647 22.1928C35.0521 22.2802 35.1012 22.3987 35.1012 22.5223C35.1012 22.6459 35.0521 22.7644 34.9647 22.8517C34.8774 22.9391 34.7589 22.9882 34.6353 22.9882ZM34.6353 21.5905H33.2376C33.114 21.5905 32.9955 21.5414 32.9081 21.454C32.8207 21.3666 32.7717 21.2481 32.7717 21.1246C32.7717 21.001 32.8207 20.8825 32.9081 20.7951C32.9955 20.7077 33.114 20.6586 33.2376 20.6586H34.6353C34.7589 20.6586 34.8774 20.7077 34.9647 20.7951C35.0521 20.8825 35.1012 21.001 35.1012 21.1246C35.1012 21.2481 35.0521 21.3666 34.9647 21.454C34.8774 21.5414 34.7589 21.5905 34.6353 21.5905ZM34.6353 20.1927H33.2376C33.114 20.1927 32.9955 20.1437 32.9081 20.0563C32.8207 19.9689 32.7717 19.8504 32.7717 19.7268C32.7717 19.6033 32.8207 19.4848 32.9081 19.3974C32.9955 19.31 33.114 19.2609 33.2376 19.2609H34.6353C34.7589 19.2609 34.8774 19.31 34.9647 19.3974C35.0521 19.4848 35.1012 19.6033 35.1012 19.7268C35.1012 19.8504 35.0521 19.9689 34.9647 20.0563C34.8774 20.1437 34.7589 20.1927 34.6353 20.1927Z" fill="#0085F2"/>
</g>
</g>
<defs>
<clipPath id="clip0_555_3518">
<rect x="0.628906" y="0.90332" width="72" height="72" rx="36" fill="white"/>
</clipPath>
<clipPath id="clip1_555_3518">
<rect width="41" height="41" fill="white" transform="translate(15.998 16)"/>
</clipPath>
</defs>
</svg>
