<svg width="60" height="60" viewBox="0 0 60 60" fill="none" xmlns="http://www.w3.org/2000/svg">
<g clip-path="url(#clip0_630_10491)">
<rect width="66.4032" height="66.4032" transform="translate(-3.61328 -3.27246)" fill="#FFEBED"/>
<g clip-path="url(#clip1_630_10491)">
<path d="M16.7586 26.1379H33.3103C34.8314 26.1379 36.069 24.9003 36.069 23.3793C36.069 21.8583 34.8314 20.6207 33.3103 20.6207H32.6732L32.7201 19.9922C32.7465 19.8101 32.7586 19.6595 32.7586 19.5172C32.7586 17.6915 31.274 16.2069 29.4483 16.2069C27.6226 16.2069 26.1379 17.6915 26.1379 19.5172H25.0345C25.0345 18.2427 25.5808 17.0962 26.4475 16.2901C25.5372 14.8718 23.9811 14 22.2759 14C19.5383 14 17.3103 16.2274 17.3103 18.9655C17.3103 19.1676 17.3246 19.3683 17.3489 19.5673C19.1983 19.8526 20.6207 21.451 20.6207 23.3793H19.5172C19.5172 21.8583 18.2796 20.6207 16.7586 20.6207C15.2376 20.6207 14 21.8583 14 23.3793C14 24.9003 15.2376 26.1379 16.7586 26.1379ZM19.5172 18.9655H18.4138C18.4138 16.8365 20.1463 15.1034 22.2759 15.1034V16.2069C20.7548 16.2069 19.5172 17.4445 19.5172 18.9655Z" fill="#FF5948"/>
<path d="M41.5856 25.0346V16.207H32.3574C33.2771 17.0163 33.8615 18.1987 33.8615 19.5174V19.5632C35.7478 19.8439 37.1718 21.4484 37.1718 23.3794C37.1718 23.9721 37.0333 24.5319 36.7938 25.0346H41.5856Z" fill="#FF5948"/>
<path d="M29.9998 45.9999C32.0556 45.9999 34.0197 45.6061 35.8271 44.8965H24.1504C25.9944 45.6204 27.9739 45.9999 29.9998 45.9999Z" fill="#FF5948"/>
<path d="M14 38.828C14 40.349 15.2376 41.5866 16.7586 41.5866H18.4138V36.0693H16.7586C15.2376 36.0693 14 37.3069 14 38.828Z" fill="#FF5948"/>
<path d="M32.759 39.3797H21.7245V38.2762H32.759V36.0693H19.5176V38.2762H20.621V39.3797H19.5176V41.5866H32.759V39.3797Z" fill="#FF5948"/>
<path d="M16.7586 34.9654H20.6207V27.2412H16.7586C15.872 27.2412 15.0571 26.9379 14.4044 26.4336C14.1395 27.5987 14 28.7932 14 29.9999C14 31.8646 14.3206 33.6855 14.9456 35.4196C15.4863 35.1303 16.1037 34.9654 16.7586 34.9654Z" fill="#FF5948"/>
<path d="M26.297 14.4337C26.6919 14.785 27.043 15.1878 27.3398 15.6404C27.9665 15.2982 28.6849 15.1034 29.4479 15.1034C29.6348 15.1034 29.8186 15.1188 29.9996 15.1414V15.1034H42.6893V26.1379H36.0074C35.3105 26.8192 34.3587 27.2414 33.3099 27.2414H21.7237V34.9655H33.4937L38.6429 38.8276L33.4937 42.6897H20.2539C20.7792 43.0935 21.3277 43.4599 21.8937 43.7931H38.0939C40.4433 42.4095 42.4091 40.4437 43.7927 38.0943V14H29.9996C28.745 14 27.5047 14.1479 26.297 14.4337ZM22.8272 28.3448H23.9306V29.4483H22.8272V28.3448ZM40.4824 33.8621H22.8272V32.7586H40.4824V33.8621ZM42.6893 33.8621H41.5858V32.7586H42.6893V33.8621ZM42.6893 31.6552H22.8272V30.5517H42.6893V31.6552ZM42.6893 29.4483H25.0341V28.3448H42.6893V29.4483Z" fill="#FF5948"/>
<path d="M44.8965 24.1709V35.8277C45.6061 34.0203 45.9999 32.0561 45.9999 30.0004C45.9999 27.9977 45.6187 26.0192 44.8965 24.1709Z" fill="#FF5948"/>
<path d="M33.8613 41.0349L36.8037 38.828L33.8613 36.6211V41.0349Z" fill="#FF5948"/>
</g>
</g>
<defs>
<clipPath id="clip0_630_10491">
<rect x="0.078125" y="0.417969" width="59.0251" height="59.025" rx="29.5125" fill="white"/>
</clipPath>
<clipPath id="clip1_630_10491">
<rect width="32" height="32" fill="white" transform="translate(14 14)"/>
</clipPath>
</defs>
</svg>
