<svg width="60" height="60" viewBox="0 0 60 60" fill="none" xmlns="http://www.w3.org/2000/svg">
<g clip-path="url(#clip0_630_10453)">
<rect width="66.4032" height="66.4032" transform="translate(-3.61328 -3.68945)" fill="#FFEBED"/>
<path d="M22.5 20.5H19.5V22.5H22.5V20.5Z" fill="#FF5948"/>
<path d="M19.75 19.5C20.1642 19.5 20.5 19.1642 20.5 18.75C20.5 18.3358 20.1642 18 19.75 18C19.3358 18 19 18.3358 19 18.75C19 19.1642 19.3358 19.5 19.75 19.5Z" fill="#FF5948"/>
<path d="M17.5 25H19.5C19.6042 25 19.7057 25.0325 19.7905 25.093L22.2618 26.8581L22 25.6019C21.9849 25.5291 21.9861 25.4539 22.0037 25.3817C22.0213 25.3095 22.0547 25.2422 22.1016 25.1845C22.1485 25.1269 22.2076 25.0804 22.2747 25.0485C22.3418 25.0166 22.4152 25 22.4895 25H26.5C26.8978 25 27.2794 24.842 27.5607 24.5607C27.842 24.2794 28 23.8978 28 23.5V17.5C28 17.1022 27.842 16.7206 27.5607 16.4393C27.2794 16.158 26.8978 16 26.5 16H17.5C17.1022 16 16.7206 16.158 16.4393 16.4393C16.158 16.7206 16 17.1022 16 17.5V23.5C16 23.8978 16.158 24.2794 16.4393 24.5607C16.7206 24.842 17.1022 25 17.5 25ZM19.5324 17.0133C19.8002 16.9797 20.0722 17.0089 20.3269 17.0984C20.5816 17.1879 20.812 17.3353 21 17.5291C21.1603 17.3635 21.3518 17.2312 21.5634 17.1399C21.775 17.0486 22.0026 17 22.2331 16.997C22.4635 16.994 22.6923 17.0366 22.9063 17.1224C23.1202 17.2082 23.315 17.3354 23.4796 17.4968C23.6441 17.6582 23.7751 17.8506 23.865 18.0628C23.9549 18.275 24.002 18.5029 24.0034 18.7334C24.0049 18.9639 23.9607 19.1924 23.8735 19.4058C23.7863 19.6191 23.6577 19.8131 23.4952 19.9766C23.4957 19.9848 23.5 19.9917 23.5 20V20.1909L24.7758 19.5509C24.852 19.5126 24.9368 19.4945 25.022 19.4983C25.1072 19.502 25.19 19.5275 25.2626 19.5723C25.3351 19.6171 25.3951 19.6797 25.4366 19.7541C25.4782 19.8286 25.5 19.9125 25.5 19.9977V22.979C25.5 23.0637 25.4785 23.1469 25.4375 23.221C25.3965 23.295 25.3373 23.3575 25.2656 23.4024C25.1939 23.4474 25.112 23.4734 25.0274 23.4781C24.9429 23.4827 24.8586 23.4658 24.7824 23.429L23.5 22.8091V23C23.5 23.1326 23.4473 23.2598 23.3536 23.3536C23.2598 23.4473 23.1326 23.5 23 23.5H19C18.8674 23.5 18.7402 23.4473 18.6464 23.3536C18.5527 23.2598 18.5 23.1326 18.5 23V20C18.5 19.9917 18.5043 19.9848 18.5047 19.9766C18.2752 19.7444 18.1153 19.4526 18.0432 19.1342C17.971 18.8158 17.9894 18.4836 18.0964 18.1751C18.2034 17.8667 18.3946 17.5944 18.6484 17.389C18.9022 17.1837 19.2084 17.0535 19.5324 17.0133Z" fill="#FF5948"/>
<path d="M27 36.5002V33.5002C26.9996 33.1026 26.8414 32.7213 26.5602 32.4401C26.279 32.1589 25.8977 32.0007 25.5 32.0002L24.4817 31.9811C24.4059 31.9796 24.3314 31.961 24.2639 31.9265C24.1963 31.892 24.1375 31.8426 24.0918 31.7821C24.0462 31.7215 24.0149 31.6514 24.0004 31.5769C23.9859 31.5025 23.9885 31.4257 24.008 31.3524L24.2309 30.5156L21.7481 31.9344C21.6725 31.9775 21.587 32.0002 21.5 32.0002H17.5C17.1022 32.0002 16.7206 32.1583 16.4393 32.4396C16.158 32.7209 16 33.1024 16 33.5002V36.5002C16 36.8981 16.158 37.2796 16.4393 37.5609C16.7206 37.8422 17.1022 38.0002 17.5 38.0002H25.5C25.8978 38.0002 26.2794 37.8422 26.5607 37.5609C26.842 37.2796 27 36.8981 27 36.5002ZM23.5 33.5002H26V34.5002H23.5V33.5002ZM17 33.5002H22.5V34.5002H17V33.5002ZM17 36.5002V35.5002H26V36.5002H17Z" fill="#FF5948"/>
<path d="M24.5 20.8086L23.5 21.3086V21.6905L24.5 22.1905V20.8086Z" fill="#FF5948"/>
<path d="M32.5 19H36.9079C36.8052 18.7084 36.6147 18.4557 36.3626 18.2766C36.1105 18.0976 35.8092 18.0009 35.5 18H29V20H30.5125C30.7435 19.6906 31.0434 19.4391 31.3883 19.2656C31.7333 19.092 32.1139 19.0011 32.5 19Z" fill="#FF5948"/>
<path d="M22.25 19.5C22.6642 19.5 23 19.1642 23 18.75C23 18.3358 22.6642 18 22.25 18C21.8358 18 21.5 18.3358 21.5 18.75C21.5 19.1642 21.8358 19.5 22.25 19.5Z" fill="#FF5948"/>
<path d="M39.2825 30.627L37.9995 31.5434V35.2934L39.853 37.1469L39.146 37.8539L34.9278 33.6358C34.6901 33.398 34.3676 33.2645 34.0314 33.2645C33.6952 33.2645 33.3727 33.398 33.135 33.6358C33.0173 33.7535 32.9239 33.8932 32.8602 34.0471C32.7965 34.2009 32.7637 34.3657 32.7637 34.5322C32.7637 34.6987 32.7965 34.8635 32.8602 35.0174C32.9239 35.1712 33.0173 35.3109 33.135 35.4286L36.3531 38.647C36.435 38.7289 36.4859 38.8367 36.4972 38.9521C36.5084 39.0674 36.4792 39.1831 36.4146 39.2793L36.1896 39.6142C35.9782 39.9306 35.8162 40.2774 35.7092 40.6425C35.5382 41.2066 35.4983 41.8023 35.5923 42.3842C35.6864 42.9661 35.912 43.5189 36.2519 44.0004H41.4995V35.0204C41.4996 33.9314 41.1047 32.8793 40.3882 32.0592L39.2825 30.627Z" fill="#FF5948"/>
<path d="M38.5 24C39.0523 24 39.5 23.5523 39.5 23C39.5 22.4477 39.0523 22 38.5 22C37.9477 22 37.5 22.4477 37.5 23C37.5 23.5523 37.9477 24 38.5 24Z" fill="#FF5948"/>
<path d="M38.2153 27.9115L34.5 25.125L31.0234 27.7322C31.0783 28.0847 31.2572 28.4061 31.5279 28.6385C31.7985 28.8709 32.1432 28.9991 32.5 29H37.0032C37.0773 29 37.1504 29.0165 37.2174 29.0482C37.2843 29.0799 37.3434 29.1261 37.3903 29.1835C37.4371 29.2408 37.4707 29.3079 37.4885 29.3798C37.5063 29.4517 37.508 29.5266 37.4932 29.5992L37.2383 30.8581L39.7095 29.093C39.7943 29.0325 39.8958 29 40 29H42.5C42.8537 28.9993 43.1958 28.8734 43.4657 28.6448C43.7357 28.4162 43.9161 28.0995 43.975 27.7507L41.5 26.1007L38.795 27.9257C38.7089 27.9839 38.6068 28.0138 38.5029 28.0112C38.399 28.0087 38.2985 27.9738 38.2153 27.9115Z" fill="#FF5948"/>
<path d="M31.73 34.5C31.7306 34.0515 31.864 33.6132 32.1135 33.2405C32.363 32.8677 32.7173 32.5772 33.1317 32.4057C33.5461 32.2341 34.002 32.1892 34.442 32.2766C34.8819 32.3639 35.2861 32.5796 35.6035 32.8965L37 34.293V32.2574L36.7729 32.4101C36.687 32.4678 36.5849 32.4967 36.4815 32.4924C36.3781 32.4881 36.2787 32.4509 36.1979 32.3862C36.1288 32.331 36.0761 32.2579 36.0454 32.1749C36.0148 32.0918 36.0074 32.002 36.024 31.9151L36.3901 30H32.5C31.837 30 31.2011 29.7366 30.7322 29.2678C30.2634 28.7989 30 28.163 30 27.5V21.5C30 21.3321 30.0169 21.1645 30.0506 21H29V23.5C29 23.8283 28.9353 24.1534 28.8097 24.4567C28.6841 24.76 28.4999 25.0356 28.2678 25.2678C28.0356 25.4999 27.76 25.6841 27.4567 25.8097C27.1534 25.9353 26.8283 26 26.5 26H23.1099L23.4902 27.9019C23.5048 27.9744 23.503 28.0493 23.4851 28.1211C23.4672 28.1928 23.4336 28.2597 23.3867 28.317C23.3398 28.3742 23.2808 28.4203 23.2139 28.4519C23.147 28.4836 23.074 28.5 23 28.5V30.067L24.7519 29.0659C24.837 29.0174 24.9345 28.9949 25.0322 29.0013C25.1299 29.0076 25.2237 29.0425 25.3017 29.1017C25.3798 29.1608 25.4388 29.2416 25.4713 29.334C25.5039 29.4264 25.5086 29.5263 25.4849 29.6213L25.1406 31H25.5C26.163 31 26.7989 31.2634 27.2678 31.7322C27.7366 32.2011 28 32.837 28 33.5V36.5C28 37.163 27.7366 37.7989 27.2678 38.2678C26.7989 38.7366 26.163 39 25.5 39H23V40H34.8859C35.007 39.671 35.1645 39.3565 35.3555 39.0625L32.3965 36.1033C32.1849 35.8934 32.017 35.6436 31.9026 35.3684C31.7882 35.0932 31.7296 34.798 31.73 34.5Z" fill="#FF5948"/>
<path d="M42.5 20H32.5C32.1023 20.0004 31.721 20.1586 31.4398 20.4398C31.1586 20.721 31.0004 21.1023 31 21.5V26.5L34.2 24.1C34.2865 24.0351 34.3917 24 34.4998 24C34.6079 24 34.7131 24.0351 34.7996 24.1L38.5169 26.8875L41.2224 25.0838C41.3046 25.0291 41.4011 24.9999 41.4998 24.9999C41.5985 24.9999 41.695 25.0291 41.7772 25.0838L44 26.5658V21.5C43.9996 21.1023 43.8414 20.721 43.5602 20.4398C43.279 20.1586 42.8977 20.0004 42.5 20ZM38.5 25C38.1044 25 37.7178 24.8827 37.3889 24.6629C37.06 24.4432 36.8036 24.1308 36.6522 23.7654C36.5009 23.3999 36.4613 22.9978 36.5384 22.6098C36.6156 22.2219 36.8061 21.8655 37.0858 21.5858C37.3655 21.3061 37.7219 21.1156 38.1098 21.0384C38.4978 20.9613 38.8999 21.0009 39.2654 21.1522C39.6308 21.3036 39.9432 21.56 40.1629 21.8889C40.3827 22.2178 40.5 22.6044 40.5 23C40.4994 23.5303 40.2885 24.0386 39.9136 24.4136C39.5386 24.7885 39.0303 24.9994 38.5 25Z" fill="#FF5948"/>
<path d="M34.6073 41H23V42.5C23.0004 42.8977 23.1586 43.279 23.4398 43.5602C23.721 43.8414 24.1023 43.9996 24.5 44H35.0951C34.6167 43.0776 34.4457 42.0264 34.6073 41ZM30.5 43H29.5V42H30.5V43Z" fill="#FF5948"/>
</g>
<defs>
<clipPath id="clip0_630_10453">
<rect x="0.078125" width="59.0251" height="59.025" rx="29.5125" fill="white"/>
</clipPath>
</defs>
</svg>
