<svg width="60" height="60" viewBox="0 0 60 60" fill="none" xmlns="http://www.w3.org/2000/svg">
<g clip-path="url(#clip0_630_10483)">
<rect width="66.4032" height="66.4032" transform="translate(-3.30469 -3.68945)" fill="#FFEBED"/>
<path d="M33.1654 21.5104C32.9223 21.7284 32.7363 22.0025 32.6237 22.3089C32.511 22.6153 32.4752 22.9447 32.5192 23.2682C31.6137 23.7381 30.8576 24.4518 30.3363 25.3288C29.8151 26.2057 29.5494 27.211 29.5693 28.231C29.5868 29.5108 29.3911 30.7845 28.9901 32H40.01C39.6089 30.7845 39.4131 29.5108 39.4306 28.231C39.4507 27.2094 39.1843 26.2026 38.6615 25.3248C38.1387 24.4469 37.3805 23.733 36.4728 23.2639C36.5295 22.859 36.4602 22.4464 36.2742 22.0822C36.0883 21.718 35.7947 21.4199 35.4334 21.2284C35.0722 21.0368 34.6607 20.9612 34.2549 21.0116C33.8491 21.0621 33.4687 21.2362 33.1654 21.5104ZM35.4924 22.918C34.8385 22.7707 34.1599 22.7708 33.5061 22.9184C33.5249 22.6679 33.6376 22.4338 33.8218 22.2629C34.0059 22.092 34.2478 21.997 34.499 21.9969C34.7503 21.9969 34.9922 22.0918 35.1764 22.2626C35.3606 22.4334 35.4735 22.6675 35.4924 22.918ZM40.5435 34.7661C40.4122 34.9908 40.2241 35.1769 39.9981 35.3057C39.772 35.4346 39.516 35.5016 39.2559 35.5H29.7441C29.484 35.5016 29.228 35.4346 29.0019 35.3057C28.7759 35.1769 28.5878 34.9908 28.4565 34.7661C28.3218 34.5398 28.2491 34.282 28.2458 34.0187C28.2424 33.7553 28.3086 33.4958 28.4375 33.2661C28.4822 33.185 28.5282 33.0916 28.5739 33H40.4265C40.4723 33.0916 40.5182 33.185 40.563 33.2661C40.6917 33.4958 40.7577 33.7554 40.7543 34.0187C40.7509 34.2821 40.6781 34.5398 40.5435 34.7661ZM32.2119 36.5H36.7881C36.5942 36.9457 36.2744 37.3251 35.868 37.5916C35.4615 37.858 34.986 38 34.5 38C34.014 38 33.5385 37.858 33.132 37.5916C32.7256 37.3251 32.4058 36.9457 32.2119 36.5ZM34.5 40H20.5V19H34.5V20C34.8409 20.0007 35.1791 20.0599 35.5 20.175V16.5C35.4988 16.1025 35.3404 15.7217 35.0594 15.4406C34.7783 15.1596 34.3975 15.0012 34 15H21C20.6025 15.0012 20.2217 15.1596 19.9406 15.4406C19.6596 15.7217 19.5012 16.1025 19.5 16.5V43.5C19.5012 43.8975 19.6596 44.2783 19.9406 44.5594C20.2217 44.8404 20.6025 44.9988 21 45H34C34.3975 44.9988 34.7783 44.8404 35.0594 44.5594C35.3404 44.2783 35.4988 43.8975 35.5 43.5V38.8526C35.1756 38.9501 34.8387 38.9997 34.5 39V40ZM29 43H26C25.8674 43 25.7402 42.9473 25.6464 42.8536C25.5527 42.7598 25.5 42.6326 25.5 42.5C25.5 42.3674 25.5527 42.2402 25.6464 42.1464C25.7402 42.0527 25.8674 42 26 42H29C29.1326 42 29.2598 42.0527 29.3536 42.1464C29.4473 42.2402 29.5 42.3674 29.5 42.5C29.5 42.6326 29.4473 42.7598 29.3536 42.8536C29.2598 42.9473 29.1326 43 29 43Z" fill="#FF5948"/>
</g>
<defs>
<clipPath id="clip0_630_10483">
<rect x="0.382812" width="59.0251" height="59.025" rx="29.5125" fill="white"/>
</clipPath>
</defs>
</svg>
