<svg width="60" height="60" viewBox="0 0 60 60" fill="none" xmlns="http://www.w3.org/2000/svg">
<g clip-path="url(#clip0_630_10516)">
<rect width="66.4032" height="66.4032" transform="translate(-3.61328 -3.68945)" fill="#FFEBED"/>
<g clip-path="url(#clip1_630_10516)">
<path fill-rule="evenodd" clip-rule="evenodd" d="M33.9223 15.0314C33.9223 15.0314 35.0371 18.2657 35.0371 18.2642C35.9643 18.6616 36.8395 19.1676 37.6462 19.7719L41.0054 19.12C41.3954 19.0441 41.7972 19.1825 42.0592 19.4817C43.4211 21.0445 44.4674 22.8558 45.1387 24.8175C45.2681 25.194 45.1863 25.6108 44.9258 25.9114C44.9258 25.9114 42.6829 28.4937 42.6829 28.4922C42.8019 29.4939 42.8019 30.506 42.6829 31.5061L44.9258 34.0884C45.1863 34.3891 45.2681 34.8058 45.1387 35.1824C44.4674 37.144 43.4211 38.9554 42.0592 40.5182C41.7972 40.8173 41.3954 40.9557 41.0054 40.8799C41.0054 40.8799 37.6462 40.2279 37.6477 40.2279C36.8395 40.8322 35.9628 41.3383 35.0371 41.7342L33.9223 44.9684C33.7928 45.3449 33.4728 45.6233 33.0829 45.7007C31.0483 46.0995 28.9556 46.0995 26.921 45.7007C26.531 45.6233 26.2111 45.3449 26.0815 44.9684C26.0815 44.9684 24.9668 41.7342 24.9668 41.7356C24.0395 41.3382 23.1644 40.8322 22.3576 40.2279L18.9984 40.88C18.6085 40.9559 18.2066 40.8175 17.9446 40.5183C16.5828 38.9555 15.5365 37.1441 14.8652 35.1824C14.7357 34.8058 14.8176 34.3892 15.078 34.0885C15.078 34.0885 17.321 31.5062 17.321 31.5077C17.2019 30.506 17.2019 29.4939 17.321 28.4937L15.078 25.9114C14.8176 25.6107 14.7357 25.194 14.8652 24.8175C15.5365 22.8558 16.5828 21.0445 17.9446 19.4816C18.2065 19.1824 18.6084 19.044 18.9984 19.12C18.9984 19.12 22.3576 19.7719 22.3561 19.7719C23.1643 19.1676 24.041 18.6616 24.9667 18.2656L26.0815 15.0314C26.211 14.6549 26.531 14.3766 26.9209 14.2992C28.9555 13.9003 31.0482 13.9003 33.0828 14.2992C33.4728 14.3766 33.7928 14.6549 33.9223 15.0314ZM30.0019 23.4199C26.3703 23.4199 23.4218 26.3683 23.4218 30C23.4218 33.6317 26.3702 36.5801 30.0019 36.5801C33.6336 36.5801 36.582 33.6316 36.582 30C36.582 26.3683 33.6336 23.4199 30.0019 23.4199ZM30.0019 25.6525C32.4012 25.6525 34.3494 27.6008 34.3494 30C34.3494 32.3992 32.4012 34.3475 30.0019 34.3475C27.6027 34.3475 25.6544 32.3992 25.6544 30C25.6544 27.6007 27.6027 25.6525 30.0019 25.6525Z" fill="#FF5948"/>
</g>
</g>
<defs>
<clipPath id="clip0_630_10516">
<rect x="0.078125" width="59.0251" height="59.025" rx="29.5125" fill="white"/>
</clipPath>
<clipPath id="clip1_630_10516">
<rect width="32" height="32" fill="white" transform="translate(14 14)"/>
</clipPath>
</defs>
</svg>
