<svg width="60" height="60" viewBox="0 0 60 60" fill="none" xmlns="http://www.w3.org/2000/svg">
<g clip-path="url(#clip0_630_10525)">
<rect width="66.4032" height="66.4032" transform="translate(-3 -4)" fill="#FFEBED"/>
<path d="M18.0081 26.837C17.7549 26.8413 17.5495 26.9604 17.4083 27.0831C17.2669 27.206 17.1665 27.3423 17.0743 27.4874C16.89 27.7775 16.7433 28.1121 16.6019 28.4476C16.4603 28.7831 16.327 29.1187 16.2064 29.3759C16.1135 29.5739 16.0008 29.7231 15.9779 29.7638C15.9271 29.7769 15.7535 29.8409 15.5428 29.8736C15.2619 29.9173 14.9016 29.9506 14.5398 29.9923C14.1779 30.034 13.8165 30.0813 13.4862 30.1769C13.3212 30.2247 13.1615 30.2833 13.0039 30.3845C12.8461 30.4858 12.6743 30.6497 12.5996 30.8921C12.5247 31.1345 12.5747 31.3668 12.6478 31.5392C12.7212 31.7115 12.8194 31.8495 12.9291 31.9819C13.1483 32.2468 13.4215 32.4888 13.697 32.7268C13.9726 32.9648 14.2508 33.1952 14.4584 33.3893C14.6142 33.5349 14.7216 33.6861 14.7561 33.7255C14.754 33.7779 14.7604 33.9633 14.7264 34.1737C14.6811 34.4542 14.6028 34.8068 14.5308 35.1636C14.4585 35.5204 14.3913 35.8792 14.3802 36.2226C14.3739 36.3944 14.38 36.5634 14.4274 36.7445C14.4751 36.9256 14.5779 37.1391 14.7856 37.285C14.9931 37.431 15.2306 37.4563 15.4173 37.4399C15.604 37.4236 15.765 37.3724 15.9249 37.3092C16.2446 37.1827 16.5602 36.9988 16.8719 36.8104C17.1836 36.622 17.4876 36.4281 17.7365 36.2907C17.9232 36.1878 18.1014 36.1312 18.1496 36.1106C18.1985 36.1297 18.3784 36.1803 18.5682 36.2776C18.8211 36.4072 19.1309 36.592 19.4482 36.7708C19.7655 36.9497 20.0849 37.1244 20.4084 37.2411C20.5699 37.2994 20.7344 37.3457 20.9214 37.3564C21.1085 37.367 21.3446 37.335 21.5477 37.1828C21.7507 37.0306 21.8461 36.8138 21.8882 36.6313C21.9303 36.4488 21.932 36.2788 21.9212 36.1073C21.8997 35.7643 21.8215 35.4081 21.7388 35.0537C21.6559 34.6992 21.5664 34.3505 21.5125 34.0715C21.471 33.857 21.4738 33.6699 21.4685 33.6233C21.5018 33.5827 21.6052 33.4285 21.7563 33.2783C21.9578 33.078 22.2296 32.839 22.4979 32.5927C22.7661 32.3465 23.0307 32.0962 23.2417 31.8248C23.3473 31.6891 23.4417 31.5478 23.5097 31.3733C23.5778 31.1988 23.6205 30.9651 23.5382 30.7251C23.4561 30.4851 23.2792 30.3271 23.1185 30.2307C22.958 30.1342 22.7973 30.0812 22.6307 30.0384C22.2977 29.9529 21.9346 29.9164 21.5717 29.8857C21.2087 29.855 20.8474 29.8329 20.5653 29.7978C20.3487 29.7709 20.1732 29.7096 20.127 29.7001C20.0987 29.6559 19.9839 29.5101 19.8875 29.3199C19.7591 29.0664 19.6149 28.7347 19.4634 28.4037C19.312 28.0726 19.1544 27.7432 18.9613 27.4588C18.8648 27.3167 18.7604 27.183 18.6152 27.0644C18.4702 26.9461 18.2614 26.8335 18.0081 26.837ZM41.9902 26.837C41.7364 26.8332 41.5278 26.9459 41.3827 27.0644C41.2377 27.1829 41.132 27.3166 41.0355 27.4588C40.8424 27.7432 40.686 28.0726 40.5345 28.4037C40.3831 28.7347 40.2399 29.0664 40.1115 29.3199C40.0152 29.51 39.9002 29.6558 39.872 29.7C39.8257 29.7096 39.6503 29.7709 39.4337 29.7978C39.1516 29.8329 38.7903 29.855 38.4273 29.8857C38.0643 29.9164 37.7013 29.9529 37.3682 30.0384C37.2018 30.0812 37.04 30.1343 36.8794 30.2307C36.7189 30.3271 36.5429 30.4851 36.4608 30.7251C36.3787 30.965 36.4204 31.1987 36.4882 31.3732C36.5562 31.5477 36.6506 31.6891 36.7563 31.8248C36.9672 32.0962 37.2329 32.3464 37.5011 32.5927C37.7694 32.839 38.04 33.078 38.2416 33.2783C38.393 33.4285 38.4961 33.5827 38.5295 33.6232C38.5252 33.6704 38.5281 33.8575 38.4865 34.0715C38.4327 34.3505 38.343 34.6992 38.2602 35.0537C38.1771 35.4081 38.0982 35.7643 38.0767 36.1073C38.0661 36.2787 38.0682 36.4488 38.1097 36.6313C38.1518 36.8138 38.2481 37.0306 38.4514 37.1828C38.6544 37.335 38.8905 37.3671 39.0776 37.3564C39.2647 37.3458 39.4267 37.2994 39.5884 37.241C39.9119 37.1244 40.2335 36.9497 40.5508 36.7708C40.8681 36.592 41.1779 36.4072 41.4308 36.2775C41.6205 36.1803 41.8006 36.1297 41.8494 36.1106C41.8977 36.1312 42.0758 36.1877 42.2625 36.2907C42.5114 36.428 42.8154 36.622 43.1271 36.8104C43.4388 36.9987 43.7533 37.1827 44.0731 37.3092C44.2329 37.3724 44.395 37.4235 44.5817 37.4399C44.7684 37.4563 45.0059 37.431 45.2134 37.285C45.4209 37.1391 45.5228 36.9256 45.5705 36.7445C45.6181 36.5634 45.6245 36.3944 45.6188 36.2226C45.6081 35.8791 45.5403 35.5203 45.4682 35.1635C45.396 34.8067 45.3177 34.4541 45.2727 34.1737C45.2386 33.9633 45.2461 33.7778 45.2431 33.7254C45.2775 33.6861 45.3839 33.5348 45.5397 33.3892C45.7472 33.1951 46.0266 32.9648 46.3022 32.7268C46.5778 32.4887 46.8499 32.2467 47.069 31.9819C47.1787 31.8495 47.278 31.7115 47.3514 31.5391C47.4247 31.3668 47.4745 31.1344 47.3996 30.8921C47.3248 30.6497 47.1519 30.4858 46.9942 30.3845C46.8367 30.2832 46.6782 30.2247 46.513 30.1768C46.1827 30.0812 45.8213 30.034 45.4595 29.9923C45.0976 29.9506 44.7373 29.9173 44.4564 29.8736C44.2457 29.8409 44.071 29.7769 44.0202 29.7637C43.9973 29.7231 43.8854 29.5739 43.7928 29.3759C43.6721 29.1186 43.5387 28.7831 43.3973 28.4476C43.2559 28.1121 43.1092 27.7775 42.9249 27.4874C42.8326 27.3423 42.7312 27.2059 42.5898 27.0831C42.4482 26.9602 42.244 26.8409 41.9902 26.837Z" fill="#FF8174"/>
<path d="M30.0116 20.5537C29.7222 20.5531 29.4786 20.6856 29.3008 20.835C29.123 20.9843 28.9879 21.1597 28.8602 21.3535C28.6048 21.7412 28.3873 22.2097 28.1779 22.684C27.9687 23.1583 27.7691 23.6376 27.5846 24.0145C27.4003 24.3914 27.184 24.6633 27.1803 24.666C27.1761 24.6685 26.851 24.7899 26.4355 24.8472C26.02 24.9046 25.501 24.9439 24.9852 24.9945C24.4694 25.045 23.9588 25.1037 23.5109 25.2252C23.2869 25.2859 23.0765 25.3611 22.8791 25.4834C22.6818 25.6056 22.4813 25.7938 22.3913 26.0689C22.3014 26.3441 22.3514 26.6161 22.4385 26.8314C22.5257 27.0467 22.6507 27.2312 22.7956 27.4126C23.0851 27.7755 23.463 28.1248 23.8492 28.4706C24.2354 28.8164 24.6301 29.1554 24.9314 29.4473C25.2326 29.7392 25.4233 30.0297 25.4247 30.034C25.4261 30.0382 25.4417 30.3856 25.3675 30.7986C25.2935 31.2117 25.1702 31.7161 25.0587 32.2225C24.9473 32.7289 24.8455 33.2342 24.8225 33.698C24.8119 33.9299 24.8162 34.1535 24.8719 34.3791C24.9271 34.6047 25.0456 34.8545 25.2795 35.0251C25.5132 35.1958 25.7873 35.2315 26.0189 35.2152C26.2504 35.1988 26.4642 35.1365 26.6814 35.0548C27.1158 34.8914 27.5649 34.6398 28.0129 34.3791C28.461 34.1185 28.9035 33.8483 29.2742 33.6518C29.6448 33.4554 29.9805 33.3629 29.985 33.3629C29.9892 33.3629 30.3238 33.4561 30.6936 33.654C31.0634 33.852 31.5068 34.1244 31.9538 34.3868C32.4008 34.6493 32.8494 34.9029 33.2831 35.068C33.5 35.1505 33.713 35.2134 33.9445 35.2306C34.176 35.2478 34.4495 35.2136 34.6839 35.0438C34.9184 34.8741 35.0376 34.6243 35.0937 34.3989C35.1498 34.1735 35.1558 33.9508 35.1454 33.7188C35.1241 33.255 35.0261 32.7502 34.9169 32.2434C34.8074 31.7365 34.6859 31.2307 34.6136 30.8173C34.5414 30.4039 34.5573 30.0569 34.5588 30.0526C34.56 30.0484 34.7529 29.7578 35.0554 29.4671C35.3578 29.1763 35.7532 28.8401 36.1408 28.4959C36.5284 28.1517 36.9079 27.8039 37.1989 27.4423C37.3445 27.2614 37.4702 27.0771 37.5581 26.8622C37.6461 26.6472 37.6974 26.3752 37.6087 26.0997C37.5198 25.8242 37.32 25.6338 37.1231 25.5108C36.9262 25.3878 36.7173 25.3132 36.4936 25.2515C36.0461 25.1283 35.5347 25.0668 35.0192 25.0142C34.5036 24.9616 33.9853 24.9205 33.5701 24.8615C33.1548 24.8025 32.8288 24.6796 32.8252 24.6769C32.8209 24.6744 32.6049 24.402 32.422 24.0244C32.2391 23.6467 32.0428 23.1658 31.8353 22.6906C31.628 22.2154 31.4135 21.7477 31.1596 21.359C31.0327 21.1647 30.8973 20.9872 30.7202 20.8372C30.5431 20.6871 30.3009 20.5543 30.0116 20.5537Z" fill="#FF5948"/>
</g>
<defs>
<clipPath id="clip0_630_10525">
<rect x="0.695312" width="59.0251" height="59.025" rx="29.5125" fill="white"/>
</clipPath>
</defs>
</svg>
