<svg width="60" height="60" viewBox="0 0 60 60" fill="none" xmlns="http://www.w3.org/2000/svg">
<g clip-path="url(#clip0_630_10473)">
<rect width="66.4032" height="66.4032" transform="translate(-3.61328 -3.68848)" fill="#FFEBED"/>
<path d="M29.3333 30.3249C33.3834 30.3249 36.6667 27.0416 36.6667 22.9915C36.6667 18.9414 33.3834 15.6582 29.3333 15.6582C25.2832 15.6582 22 18.9414 22 22.9915C22 27.0416 25.2832 30.3249 29.3333 30.3249Z" fill="#FF5948"/>
<path fill-rule="evenodd" clip-rule="evenodd" d="M28.9993 43.0079V40.2679C28.9993 39.6479 29.2447 39.0546 29.6833 38.6173L32.3367 35.9639C32.2713 34.5186 32.6767 33.0546 33.5473 31.8226C32.2234 31.5973 30.806 31.4746 29.3327 31.4746C24.9033 31.4746 20.982 32.5826 18.5473 34.2426C16.69 35.5093 15.666 37.1186 15.666 38.8079V40.7413C15.666 41.3426 15.9047 41.9199 16.33 42.3439C16.7553 42.7693 17.3313 43.0079 17.9327 43.0079H28.9993Z" fill="#FF5948"/>
<path fill-rule="evenodd" clip-rule="evenodd" d="M38.2014 40.944C39.8174 41.1867 41.5254 40.6853 42.7694 39.4413C44.852 37.3587 44.852 33.9773 42.7694 31.896C40.688 29.8133 37.3067 29.8133 35.224 31.896C33.98 33.14 33.4787 34.848 33.7214 36.4653L30.6254 39.56C30.4374 39.748 30.332 40.0027 30.332 40.268V43.3333C30.332 43.8853 30.78 44.3333 31.332 44.3333H34.3974C34.6627 44.3333 34.9174 44.228 35.1054 44.04L38.2014 40.944ZM37.9747 36.6907C37.4107 36.1267 37.4107 35.2107 37.9747 34.6467C38.5387 34.0827 39.4547 34.0827 40.0187 34.6467C40.5827 35.2107 40.5827 36.1267 40.0187 36.6907C39.4547 37.2547 38.5387 37.2547 37.9747 36.6907Z" fill="#FF5948"/>
</g>
<defs>
<clipPath id="clip0_630_10473">
<rect x="0.078125" width="59.0251" height="59.025" rx="29.5125" fill="white"/>
</clipPath>
</defs>
</svg>
