<svg width="60" height="60" viewBox="0 0 60 60" fill="none" xmlns="http://www.w3.org/2000/svg">
<g clip-path="url(#clip0_630_10535)">
<rect width="66.4032" height="66.4032" transform="translate(-3.30469 -3.68848)" fill="#FFEBED"/>
<g clip-path="url(#clip1_630_10535)">
<path d="M28.2719 17.5142H27.9141V22.1499L32.4277 23.1529C33.2667 23.3392 34.1156 23.1693 34.8181 22.6742C35.5206 22.1792 35.9663 21.4368 36.0729 20.584L36.2921 18.8302C36.3343 18.4922 36.2334 18.1654 36.008 17.9101C35.7826 17.6547 35.4708 17.5141 35.1302 17.5141H32.9611L33.7458 15.6196C33.8655 15.3307 33.8655 15.0124 33.7458 14.7235C33.6261 14.4345 33.4011 14.2095 33.1121 14.0898C32.8233 13.9701 32.505 13.97 32.2159 14.0898C31.927 14.2095 31.7019 14.4345 31.5822 14.7235L31.2508 15.5237C30.7499 16.7329 29.5807 17.5142 28.2719 17.5142Z" fill="#FF5948"/>
<path d="M17.7144 34.3675C19.2146 34.1243 20.2337 32.7109 19.9905 31.2107C19.7473 29.7105 18.3339 28.6914 16.8337 28.9346C15.3334 29.1778 14.3143 30.5912 14.5575 32.0914C14.8007 33.5916 16.2141 34.6107 17.7144 34.3675Z" fill="#FF5948"/>
<path d="M25.7832 41.0935H24.1365C22.7259 41.0935 21.4656 40.2514 20.9257 38.9481L20.3975 37.6727C20.0524 36.824 19.2431 36.2793 18.3336 36.2793H16.2251C14.9982 36.2793 14 37.2775 14 38.5044V46.0005H20.5586V42.4235L21.8616 42.9752C22.583 43.2805 23.3484 43.4354 24.1364 43.4354H25.7832C26.4288 43.4354 26.9541 42.9101 26.9541 42.2645C26.9541 41.6187 26.4289 41.0935 25.7832 41.0935Z" fill="#FF5948"/>
<path d="M42.7209 34.4038C44.2409 34.4038 45.4731 33.1716 45.4731 31.6516C45.4731 30.1316 44.2409 28.8994 42.7209 28.8994C41.2009 28.8994 39.9688 30.1316 39.9688 31.6516C39.9688 33.1716 41.2009 34.4038 42.7209 34.4038Z" fill="#FF5948"/>
<path d="M38.1393 42.9751L39.4423 42.4235V46.0005H46.0009V38.5044C46.0009 37.2775 45.0027 36.2793 43.7758 36.2793H41.6674C40.7579 36.2793 39.9486 36.824 39.6058 37.6672L39.0753 38.9482C38.5354 40.2514 37.2752 41.0935 35.8646 41.0935H34.2178C33.5721 41.0935 33.0469 41.6187 33.0469 42.2644C33.0469 42.91 33.5721 43.4353 34.2178 43.4353H35.8645C36.6525 43.4354 37.4179 43.2805 38.1393 42.9751Z" fill="#FF5948"/>
<path d="M23.6992 17.5137H26.041V24.0723H23.6992V17.5137Z" fill="#FF5948"/>
<path d="M16.8125 18.4727H19.625V20.3477H16.8125V18.4727Z" fill="#FF5948"/>
<path d="M17.8125 15.3291L19.1381 14.0035L21.1266 15.9919L19.8009 17.3175L17.8125 15.3291Z" fill="#FF5948"/>
<path d="M17.8086 23.4912L19.797 21.5028L21.1227 22.8284L19.1342 24.8168L17.8086 23.4912Z" fill="#FF5948"/>
<path d="M40.375 18.4727H43.1875V20.3477H40.375V18.4727Z" fill="#FF5948"/>
<path d="M38.8711 15.9941L40.8595 14.0057L42.1852 15.3313L40.1967 17.3198L38.8711 15.9941Z" fill="#FF5948"/>
<path d="M38.8711 22.8311L40.1967 21.5054L42.1852 23.4939L40.8595 24.8195L38.8711 22.8311Z" fill="#FF5948"/>
</g>
</g>
<defs>
<clipPath id="clip0_630_10535">
<rect x="0.382812" width="59.0251" height="59.025" rx="29.5125" fill="white"/>
</clipPath>
<clipPath id="clip1_630_10535">
<rect width="32" height="32" fill="white" transform="translate(14 14)"/>
</clipPath>
</defs>
</svg>
