<svg width="60" height="60" viewBox="0 0 60 60" fill="none" xmlns="http://www.w3.org/2000/svg">
<g clip-path="url(#clip0_630_10507)">
<rect width="66.4032" height="66.4032" transform="translate(-3.30469 -3.27051)" fill="#FFEBED"/>
<path fill-rule="evenodd" clip-rule="evenodd" d="M30.3868 17.5827C27.9706 17.5023 25.5294 18.1615 23.4218 19.5683C21.0546 21.1501 19.4003 23.4859 18.6383 26.0971C18.4279 26.0714 18.1759 26.0827 17.8767 26.1674C16.7596 26.4843 15.9195 27.3997 15.5417 28.2058C15.0517 29.2564 14.8451 30.6459 15.063 32.0803C15.2795 33.5102 15.8836 34.6889 16.6391 35.4206C17.397 36.1528 18.2526 36.3908 19.1026 36.2121C20.3682 35.942 20.9957 35.7399 20.8185 34.5608L19.9606 28.8454C20.1336 25.7522 21.735 22.8403 24.4134 21.0496C27.9985 18.6549 32.6988 18.8082 36.1185 21.4334C38.4974 23.2573 39.8785 25.9902 40.0379 28.859L39.438 32.857C38.0999 36.5188 34.7827 39.0553 30.9441 39.4153H28.388C27.7284 39.4153 27.1973 39.9464 27.1973 40.6053V41.2331C27.1973 41.8924 27.7284 42.4235 28.388 42.4235H31.6108C32.2701 42.4235 32.799 41.8924 32.799 41.2331V40.9049C35.6935 40.1984 38.2201 38.4194 39.8653 35.9386L40.8978 36.2125C41.7379 36.4304 42.6038 36.1528 43.3612 35.421C44.1168 34.6889 44.7205 33.5106 44.9373 32.0807C45.1561 30.6463 44.9434 29.2591 44.4591 28.2062C43.9729 27.1534 43.2487 26.4847 42.4126 26.2448C42.0624 26.1439 41.6824 26.1069 41.3564 26.0971C40.6673 23.736 39.2488 21.5887 37.2042 20.0209C35.1941 18.4784 32.8031 17.6621 30.3868 17.5827Z" fill="#FF5948"/>
<path fill-rule="evenodd" clip-rule="evenodd" d="M34.1593 27.865C35.0112 27.865 35.7018 28.5556 35.7036 29.4097C35.7018 30.2616 35.0112 30.9541 34.1593 30.9541C33.3051 30.9541 32.6127 30.2616 32.6127 29.4097C32.6127 28.556 33.3055 27.865 34.1593 27.865ZM30 27.865C30.8537 27.865 31.5443 28.5556 31.5443 29.4097C31.5443 30.2616 30.8537 30.9541 30 30.9541C29.1454 30.9541 28.4548 30.2616 28.4548 29.4097C28.4548 28.556 29.1454 27.865 30 27.865ZM25.8421 27.865C26.694 27.865 27.3865 28.5556 27.3865 29.4097C27.3865 30.2616 26.694 30.9541 25.8421 30.9541C24.9884 30.9541 24.2974 30.2616 24.2974 29.4097C24.2974 28.556 24.9884 27.865 25.8421 27.865ZM30 21.2305C25.4704 21.2305 21.8203 24.7604 21.8203 29.4097C21.8203 31.6428 22.6646 33.6163 24.0401 35.0643L23.552 37.2524C23.3911 37.9724 23.8905 38.4568 24.5377 38.0964L26.6744 36.9045C27.6898 37.3453 28.813 37.589 30 37.589C34.531 37.589 38.1788 34.0613 38.1788 29.4097C38.1788 24.7604 34.531 21.2305 30 21.2305Z" fill="#FF5948"/>
</g>
<defs>
<clipPath id="clip0_630_10507">
<rect x="0.382812" y="0.417969" width="59.0251" height="59.025" rx="29.5125" fill="white"/>
</clipPath>
</defs>
</svg>
