<svg width="364" height="332" viewBox="0 0 364 332" fill="none" xmlns="http://www.w3.org/2000/svg">
<mask id="mask0_630_10041" style="mask-type:luminance" maskUnits="userSpaceOnUse" x="87" y="109" width="277" height="223">
<path d="M363.031 109.592H87.332V332H363.031V109.592Z" fill="white"/>
</mask>
<g mask="url(#mask0_630_10041)">
<path d="M201.454 314.092C181.098 360.732 189.114 421.771 193.222 438.959C199.497 465.21 234.247 457.741 246.542 445.93C269.453 423.922 265.346 352.783 264.127 336.992C261.304 300.434 214.79 283.532 201.454 314.092Z" fill="#390D9F"/>
<g opacity="0.4">
<path d="M218.283 318.093C236.672 370.3 224.779 413.813 228.888 431.002C235.163 457.253 263.457 460.439 275.753 448.628C298.664 426.62 294.557 355.481 293.338 339.691C290.514 303.131 207.183 286.584 218.283 318.093Z" fill="#101C3A"/>
</g>
<path d="M179.24 204.603L160.628 203.297C158.751 203.36 156.882 201.836 156.461 199.9L144.953 155.413C144.548 153.549 146.021 150.238 148.878 150.143L169.124 149.465C171.001 149.403 172.871 150.926 173.292 152.862L183.313 199.012C183.735 200.946 182.582 204.493 179.24 204.603Z" fill="#201030"/>
<path d="M179.24 204.604L159.196 205.268C157.319 205.331 155.449 203.807 155.03 201.871L145.007 155.722C144.601 153.857 145.687 152.281 147.445 152.112L167.693 151.435C169.57 151.373 171.438 152.897 171.859 154.833L181.882 200.981C182.302 202.917 181.117 204.542 179.24 204.604Z" fill="#7109B5"/>
<path d="M159.173 205.986C156.998 206.033 154.844 204.268 154.357 202.03L144.333 155.88C144.09 154.762 144.283 153.679 144.878 152.831C145.453 152.009 146.344 151.501 147.382 151.403L167.67 150.723C167.684 150.723 167.699 150.722 167.713 150.722C169.891 150.674 172.043 152.44 172.528 154.678L182.552 200.826C182.805 201.987 182.59 203.099 181.949 203.958C181.322 204.801 180.366 205.285 179.259 205.321L159.216 205.985C159.203 205.983 159.188 205.985 159.173 205.986ZM167.744 152.151C167.735 152.151 167.725 152.151 167.715 152.151L147.466 152.828C146.87 152.886 146.333 153.186 145.993 153.67C145.634 154.181 145.523 154.854 145.677 155.565L155.701 201.714C156.044 203.295 157.615 204.589 159.143 204.555C159.151 204.555 159.162 204.554 159.172 204.554L179.217 203.89C179.904 203.868 180.488 203.579 180.86 203.081C181.245 202.566 181.368 201.876 181.209 201.14L171.185 154.991C170.844 153.41 169.273 152.116 167.744 152.151Z" fill="#101C3A"/>
<path d="M166.471 177.488C166.657 177.482 166.812 177.41 166.906 177.282C167.006 177.148 167.036 176.962 166.992 176.758L163.042 158.566C162.936 158.074 162.427 157.657 161.954 157.672L153.992 157.939C153.826 157.958 153.694 158.031 153.609 158.153C153.516 158.284 153.489 158.466 153.531 158.664L157.482 176.856C157.588 177.348 158.096 177.765 158.569 177.75L166.471 177.488Z" fill="#201030"/>
<path d="M156.714 162.503C157.126 163.588 158.256 164.142 159.237 163.74C160.218 163.339 160.68 162.134 160.267 161.049C159.854 159.964 158.725 159.41 157.743 159.811C156.762 160.214 156.301 161.418 156.714 162.503Z" fill="white"/>
<path d="M158.383 160.39C158.916 160.379 159.418 160.748 159.632 161.309C159.767 161.666 159.77 162.05 159.64 162.39C159.516 162.714 159.284 162.96 158.987 163.082C158.863 163.132 158.733 163.16 158.598 163.162C158.065 163.175 157.563 162.805 157.349 162.244C157.076 161.524 157.365 160.728 157.994 160.471C158.118 160.42 158.249 160.393 158.383 160.39ZM158.368 159.681C158.16 159.685 157.949 159.727 157.744 159.811C156.763 160.213 156.301 161.418 156.713 162.503C157.039 163.362 157.816 163.888 158.613 163.871C158.822 163.865 159.033 163.824 159.238 163.74C160.219 163.339 160.681 162.134 160.268 161.049C159.941 160.19 159.165 159.664 158.368 159.681Z" fill="#101C3A"/>
<path d="M158.151 168.608C158.563 169.693 159.693 170.246 160.674 169.846C161.657 169.444 162.118 168.239 161.705 167.154C161.293 166.069 160.163 165.516 159.181 165.917C158.2 166.318 157.738 167.524 158.151 168.608Z" fill="white"/>
<path d="M159.821 166.494C160.354 166.482 160.856 166.852 161.07 167.414C161.205 167.77 161.208 168.153 161.078 168.493C160.954 168.817 160.722 169.064 160.425 169.185C160.301 169.236 160.17 169.263 160.037 169.266C159.502 169.278 159.001 168.908 158.787 168.347C158.514 167.626 158.803 166.833 159.432 166.574C159.556 166.525 159.687 166.497 159.821 166.494ZM159.806 165.787C159.597 165.791 159.386 165.833 159.181 165.916C158.2 166.318 157.738 167.524 158.152 168.608C158.477 169.467 159.254 169.993 160.051 169.976C160.259 169.971 160.471 169.929 160.675 169.845C161.657 169.444 162.118 168.239 161.706 167.154C161.378 166.294 160.601 165.769 159.806 165.787Z" fill="#101C3A"/>
<path d="M159.588 174.716C160.001 175.801 161.13 176.355 162.112 175.954C163.094 175.552 163.555 174.348 163.143 173.263C162.73 172.178 161.6 171.624 160.619 172.025C159.638 172.426 159.176 173.631 159.588 174.716Z" fill="white"/>
<path d="M161.258 172.602C161.792 172.591 162.293 172.96 162.507 173.521C162.78 174.242 162.491 175.036 161.862 175.294C161.738 175.345 161.607 175.371 161.473 175.374C160.94 175.387 160.438 175.016 160.224 174.455C159.95 173.736 160.24 172.941 160.869 172.683C160.994 172.634 161.125 172.606 161.258 172.602ZM161.243 171.894C161.034 171.899 160.823 171.941 160.619 172.025C159.638 172.427 159.176 173.631 159.588 174.716C159.915 175.575 160.692 176.101 161.489 176.085C161.697 176.079 161.908 176.038 162.113 175.954C163.095 175.552 163.556 174.348 163.144 173.263C162.817 172.404 162.04 171.876 161.243 171.894Z" fill="#101C3A"/>
<path d="M146.267 188.479C146.267 188.479 146.35 188.382 146.476 188.236C146.571 188.087 146.632 188.007 146.632 188.007C146.632 188.007 146.642 188.022 146.65 188.033C148.148 186.297 153.925 179.713 159.58 174.687C160.476 173.89 161.929 175.567 161.489 176.703C159.776 181.132 150.665 188.77 150.665 188.77C150.665 188.77 160.463 183.036 161.582 183.978C162.223 184.517 164.167 188.041 165.715 190.962C166.824 193.052 166.145 193.27 164.394 194.818C162.175 196.779 160.751 198.678 160.79 199.116C160.839 199.673 162.388 201.778 163.633 203.574C168.44 206.262 166.807 215.114 166.807 215.114L166.79 215.122C167.483 218.284 167.984 221.021 168.295 222.128C170.761 230.893 175.233 241.758 181.801 252.75C187.679 244.797 190.357 239.634 190.357 239.634C209.731 224.932 233.769 253.959 220.272 268.796C206.776 283.634 186.594 293.44 173.973 293.54C173.173 293.546 166.701 292.538 166.055 292.132C163.075 290.622 159.074 286.256 157.779 280.545C154.824 267.512 154.269 236.297 154.189 219.72C153.886 217.578 152.718 212.465 148.185 204.578C143.143 195.806 145.331 190.271 146.276 188.569C146.271 188.516 146.267 188.479 146.267 188.479Z" fill="#F8A3A2"/>
<path d="M165.177 189.882L155.887 195.955C155.887 195.955 161.493 191.74 165.177 189.882Z" fill="#D17F80"/>
<path d="M163.519 186.87L152.035 193.148C152.035 193.148 159.679 188.35 163.519 186.87Z" fill="#D17F80"/>
<path d="M233.854 324.627C233.707 400.087 233.304 415.846 237.413 433.033C243.688 459.283 271.982 462.469 284.278 450.658C307.188 428.651 303.082 357.512 301.863 341.721C299.04 305.164 233.918 291.081 233.854 324.627Z" fill="#390D9F"/>
<path d="M267.068 189.746C276.887 210.608 256.15 248.28 207.366 287.403C207.366 287.403 195.179 269.634 185.707 236.207C185.707 236.207 202.428 216.312 225.554 195.354C248.68 174.395 262.97 181.037 267.068 189.746Z" fill="#425FEC"/>
<path d="M187.327 228.99C185.254 232.055 182.91 235.357 182.91 235.357C182.91 235.357 183.013 238.751 183.965 242.28C191.852 271.525 211.048 299.87 211.048 299.87L220.001 290.598C209.507 273.66 191.247 243.299 187.327 228.99Z" fill="#101C3A"/>
<path d="M210.325 299.907C208.184 297.005 190.422 268.502 183.395 242.445C182.436 238.885 182.325 235.518 182.321 235.376L182.312 235.165L182.434 234.993C182.457 234.962 184.798 231.661 186.842 228.639L187.554 227.584L187.893 228.823C188.538 231.175 189.459 233.776 190.71 236.775L189.625 237.262C188.564 234.718 187.735 232.452 187.108 230.374C185.532 232.681 183.955 234.916 183.51 235.546C183.55 236.327 183.745 239.191 184.533 242.115C191.512 267.992 209.139 296.282 211.263 299.163L210.325 299.907Z" fill="white"/>
<path d="M280.156 179.273C318.17 187.679 321.304 297.371 294.72 356.679C294.72 356.679 246.042 363.169 192.055 329.04C192.055 329.04 201.477 278.536 216.838 267.09C216.838 267.09 227.921 213.43 244.009 193.634C260.098 173.839 271.319 177.319 280.156 179.273Z" fill="white"/>
<path d="M211.26 352.776C216.808 354.25 228.046 329.332 230.039 314.653C230.758 309.358 234.583 275.127 236.687 265.459C238.785 255.816 250.782 194.023 257.473 180.951C252.047 182.747 250.152 184.475 243.038 193.229C226.951 213.024 223.905 245.474 212.936 263.674C202.91 280.312 182.906 353.177 182.906 353.177C194.491 351.835 204.126 350.757 211.26 352.776Z" fill="#425FEC"/>
<path d="M223.678 316.613L222.605 316.099C225.454 309.717 225.546 304.597 224.694 287.156C223.815 269.153 232.802 216.037 232.893 215.503L233.121 214.159L233.937 215.229C235.397 217.14 237.31 219.637 238.721 221.459C238.168 219.371 237.58 216.858 237.332 215.778L237.289 215.591L237.356 215.412C242.087 202.868 255.486 182.124 255.619 181.916L256.6 182.599C256.466 182.805 243.267 203.243 238.523 215.679C239.385 219.407 240.43 223.474 240.711 223.952L240.999 224.439L240.58 224.829C240.377 224.979 240.254 225.073 239.764 224.589L239.717 224.615C239.693 224.575 239.666 224.522 239.638 224.46C238.873 223.653 237.334 221.65 233.828 217.061C232.435 225.47 225.077 270.831 225.872 287.092C226.738 304.777 226.637 309.984 223.678 316.613Z" fill="white"/>
<path d="M280.169 179.247C280.169 179.247 265.461 195.404 263.164 212.237C260.49 231.837 248.825 253.071 250.167 299.768C251.444 344.192 230.454 354.83 230.039 355.282C257.508 372.16 306.263 359.157 306.263 359.157C322.737 296.157 318.183 187.652 280.169 179.247Z" fill="#425FEC"/>
<path d="M244.134 343.932L243.059 343.425C244.926 339.172 246.6 336.431 248.076 334.012C251.62 328.201 254.421 323.612 258.123 302.593C263.035 274.715 268.874 224.257 269.668 217.334L265.327 217.98L269.803 212.436C276.748 196.475 279.604 180.523 279.631 180.364L280.794 180.585C280.766 180.745 277.873 196.897 270.846 213.018L270.76 213.159L268.213 216.313L271.019 215.896L270.93 216.687C270.866 217.247 264.544 272.952 259.285 302.816C255.539 324.07 252.685 328.746 249.072 334.67C247.547 337.169 245.966 339.755 244.134 343.932Z" fill="white"/>
<path d="M308.66 219.456L265.062 259.155C265.062 259.155 308.024 281.388 308.66 219.456Z" fill="#101C3A"/>
<path d="M244.619 124.747C240.729 131.837 242.195 149.911 252.658 161.884C263.121 173.857 257.987 182.43 257.987 182.43C257.987 182.43 284.202 174.871 289.536 168.735C289.536 168.735 286.645 164.521 286.016 157.897C286.016 157.897 288.381 163.045 292.561 166C292.561 166 299.574 167.821 304.875 159.376C304.875 159.376 292.617 152.422 287.463 133.428C282.308 114.435 269.019 112.114 262.44 112.968C255.864 113.823 248.187 118.245 244.619 124.747Z" fill="#101C3A"/>
<path d="M252.332 157.373L256.531 183.345C256.531 183.345 270.829 190.776 280.154 179.272L276.752 153.035L252.332 157.373Z" fill="#F8A3A2"/>
<path d="M254.441 168.346L255.822 176.761C271.335 179.088 275.025 158.006 275.025 158.006C258.292 161.303 254.441 168.346 254.441 168.346Z" fill="#101C3A"/>
<path d="M257.816 172.248C264.277 171.348 274.954 160.651 276.818 154.167C277.482 151.857 276.401 146.097 275.208 143.403C271.452 134.962 268.326 127.269 261.447 125.725C258.549 125.082 255.806 125.437 253.321 126.32C245.133 129.258 240.047 136.001 241.088 144.917C242.255 154.922 246.424 173.837 257.816 172.248Z" fill="#F8A3A2"/>
<path d="M250.007 156.406C249.376 156.242 246.204 155.347 245.685 153.811C245.571 153.475 245.522 152.956 245.934 152.394C248.206 149.295 247.642 145.197 247.497 144.361C247.085 143.925 245.361 142.359 242.731 143.345L242.332 142.192C245.375 141.07 247.686 142.675 248.496 143.681L248.588 143.795L248.619 143.939C248.666 144.154 249.733 149.237 246.872 153.137C246.76 153.292 246.784 153.363 246.799 153.405C247.006 154.016 248.774 154.821 250.294 155.218L250.007 156.406Z" fill="#101C3A"/>
<path d="M274.204 141.488C274.204 141.488 265.514 132.537 257.499 131.37C257.499 131.37 242.95 134.444 240.985 142.187C240.985 142.187 237.188 125.788 253.744 121.637C269.844 117.601 275.083 134.439 274.204 141.488Z" fill="#101C3A"/>
<path d="M258.411 131.985L257.277 131.639C258.616 126.925 261.701 125.199 261.832 125.128L262.383 126.212C262.354 126.228 259.602 127.794 258.411 131.985Z" fill="#425FEC"/>
<path d="M270.591 146.537C270.658 150.028 273.437 152.802 276.802 152.733C280.165 152.665 282.84 149.78 282.773 146.289C282.709 142.799 279.927 140.025 276.563 140.094C273.199 140.162 270.525 143.047 270.591 146.537Z" fill="#F8A3A2"/>
<path d="M277.589 151.122C277.461 151.157 277.33 151.179 277.197 151.185C276.741 151.206 276.321 151.04 275.982 150.702C275.191 149.914 275.533 149.151 275.759 148.647C275.975 148.164 276.145 147.783 275.802 147.105C275.509 146.526 275.057 146.168 274.621 145.821C273.942 145.287 272.922 144.477 274.042 142.908C275.595 140.738 279.429 142.92 279.591 143.013L279.016 144.084C278.22 143.624 275.768 142.559 274.992 143.639C274.565 144.235 274.593 144.259 275.338 144.847C275.825 145.234 276.434 145.715 276.85 146.535C277.463 147.75 277.082 148.601 276.83 149.162C276.618 149.637 276.624 149.644 276.801 149.818C276.906 149.925 277.009 149.968 277.145 149.961C277.597 149.941 278.197 149.384 278.419 149.121L279.312 149.922C279.221 150.03 278.49 150.878 277.589 151.122Z" fill="#101C3A"/>
<path d="M260.03 142.965C255.056 140.427 253.695 142.567 253.683 142.589L252.66 141.972C252.734 141.84 254.503 138.777 260.549 141.865L260.03 142.965Z" fill="#101C3A"/>
<path d="M249.906 161.032C250.279 163.708 252.5 165.747 255.174 165.693C258.069 165.633 260.37 163.151 260.314 160.147C260.301 159.499 260.157 158.891 259.944 158.318C256.646 159.501 253.284 160.52 249.906 161.032Z" fill="#101C3A"/>
<path d="M252.874 165.018C252.883 165.08 252.894 165.141 252.904 165.202C253.596 165.529 254.363 165.709 255.173 165.693C258.068 165.633 260.369 163.152 260.313 160.147C260.295 159.149 252.215 160.862 252.874 165.018Z" fill="#FF5069"/>
<path d="M272.409 157.486C270.665 154.718 270.779 151.99 270.889 149.351C270.983 147.089 271.072 144.952 270.04 142.798C268.999 140.625 267.378 139.182 265.811 137.786C263.964 136.141 262.053 134.44 261.227 131.612L262.357 131.256C263.084 133.743 264.782 135.256 266.581 136.857C268.238 138.333 269.951 139.858 271.097 142.254C272.265 144.691 272.165 147.088 272.069 149.406C271.962 151.963 271.863 154.379 273.396 156.817L272.409 157.486Z" fill="#101C3A"/>
<path d="M257.604 144.543C257.657 145.281 257.123 145.926 256.409 145.98C255.697 146.036 255.077 145.48 255.023 144.741C254.971 144.003 255.506 143.358 256.218 143.304C256.93 143.248 257.552 143.803 257.604 144.543Z" fill="#101C3A"/>
<path d="M246.038 147.054C246.091 147.793 245.555 148.438 244.843 148.492C244.13 148.547 243.509 147.992 243.457 147.253C243.403 146.513 243.938 145.87 244.651 145.815C245.364 145.76 245.984 146.314 246.038 147.054Z" fill="#101C3A"/>
<path d="M240.345 241.304C232.867 229.073 205.265 198.963 201.861 195.265C200.137 192.14 197.342 186.264 194.643 177.056C191.906 167.729 187.297 164.073 184.267 162.643C183.828 162.405 166.281 152.924 160.287 153.576C158.962 153.72 158.213 155.958 159.587 156.488C164.941 158.554 178.567 166.213 178.567 166.213C178.567 166.213 164.59 168.853 164.49 170.707C164.432 171.768 165.93 176.567 167.225 180.483C168.151 183.286 170.959 183.802 173.8 183.507C177.24 183.149 179.841 183.194 180.621 183.662C181.55 184.22 181.988 185.755 182.19 186.875C182.172 186.917 182.156 186.963 182.136 187.005C179.214 193.255 186.232 198.881 188.538 200.512C196.459 210.756 204.65 242.81 217.591 261.542C226.343 274.212 252.539 261.252 240.345 241.304Z" fill="#F8A3A2"/>
<path d="M167.109 179.519L180.962 177.645C180.962 177.645 171.833 177.558 167.109 179.519Z" fill="#D17F80"/>
<path d="M165.434 174.971L181.3 171.177C181.3 171.177 169.952 172.546 165.434 174.971Z" fill="#D17F80"/>
<path d="M272.357 324.129C268.628 323.583 265.233 322.721 262.789 321.393L263.338 320.308C272.737 325.418 297.867 323.302 298.118 323.28L298.219 324.501C297.435 324.569 283.425 325.747 272.357 324.129Z" fill="white"/>
<path d="M307.842 210.1C313.232 232.633 286.324 252.8 231.309 281.579C231.309 281.579 225.446 257.984 234.673 215.17C234.673 215.17 241.013 214.352 267.137 197.608C293.261 180.865 304.762 197.22 307.842 210.1Z" fill="#425FEC"/>
<path d="M232.178 281.791L231.668 280.686C278.756 257.288 301.811 238.8 308.758 218.866L309.868 219.282C302.806 239.547 279.572 258.241 232.178 281.791Z" fill="white"/>
<path d="M241.703 209.383C238.468 211.038 234.882 212.767 234.882 212.767C234.882 212.767 233.401 215.794 232.601 219.365C225.977 248.945 229.689 283.373 229.689 283.373L241.833 279.703C240.474 259.616 238.516 223.886 241.703 209.383Z" fill="#101C3A"/>
<path d="M229.037 283.044C228.503 279.429 226.127 245.562 232.024 219.225C232.832 215.625 234.292 212.616 234.355 212.49L234.447 212.3L234.633 212.212C234.668 212.194 238.25 210.465 241.442 208.832L242.555 208.264L242.28 209.518C241.754 211.905 241.359 214.644 241.068 217.896L239.892 217.783C240.139 215.026 240.461 212.624 240.873 210.486C238.422 211.725 236.005 212.9 235.322 213.23C234.996 213.935 233.839 216.545 233.178 219.501C227.32 245.655 229.677 279.27 230.207 282.857L229.037 283.044Z" fill="white"/>
</g>
<path d="M80.4944 305.939C97.997 304.108 110.755 287.904 108.991 269.745C107.227 251.586 91.6078 238.349 74.1052 240.18C56.6027 242.01 43.8443 258.215 45.6087 276.374C47.373 294.533 62.9919 307.769 80.4944 305.939Z" fill="#101C3A"/>
<path d="M113.127 274.839C113.127 293.088 98.866 307.884 81.2762 307.884C63.6854 307.884 49.4258 293.088 49.4258 274.839C49.4258 256.588 63.6864 241.793 81.2762 241.793C98.866 241.793 113.127 256.588 113.127 274.839Z" fill="#7109B5"/>
<path d="M97.3758 271.378L72.1363 259.184C71.1772 258.721 70.1041 259.541 70.2473 260.629L74.3309 291.601C74.4741 292.688 75.7206 293.18 76.5244 292.466L97.6804 273.689C98.4186 273.033 98.2573 271.804 97.3758 271.378Z" fill="white"/>
<path d="M97.6789 273.683L76.5169 292.466C75.7131 293.182 74.4786 292.69 74.3344 291.603L74.3203 291.513C74.521 291.453 74.7217 291.349 74.8942 291.2L96.0562 272.417C96.4868 272.03 96.6159 271.434 96.4435 270.927L97.3763 271.375C98.2538 271.806 98.4111 273.028 97.6789 273.683Z" fill="#101C3A"/>
<path d="M125.522 105.538C144.717 104.775 159.681 88.0122 158.945 68.0978C158.21 48.1834 142.053 32.6584 122.857 33.4217C103.662 34.185 88.6979 50.9475 89.4336 70.8619C90.1693 90.7763 106.326 106.301 125.522 105.538Z" fill="#101C3A"/>
<path d="M163.309 71.432C163.309 91.3609 147.738 107.515 128.529 107.515C109.322 107.515 93.75 91.3598 93.75 71.432C93.75 51.5032 109.321 35.3486 128.529 35.3486C147.738 35.3486 163.309 51.5032 163.309 71.432Z" fill="#FC721A"/>
<path d="M138.401 53.9902C133.728 52.7472 129.121 54.8838 126.706 58.9457C122.644 56.1604 117.307 56.3759 113.59 59.8634C109.022 64.1493 108.631 71.752 112.716 76.8467C116.802 81.9404 133.797 89.2261 133.797 89.2261C133.797 89.2261 145.635 75.0418 146.921 68.5785C148.207 62.1162 144.394 55.5849 138.401 53.9902Z" fill="white"/>
<path d="M146.925 68.5748C145.624 75.0486 133.788 89.2319 133.788 89.2319C133.788 89.2319 120.055 83.3441 114.316 78.4482C120.807 82.824 131.185 87.2637 131.185 87.2637C131.185 87.2637 143.021 73.0804 144.307 66.6066C145.168 62.2475 143.726 57.8717 140.858 54.9932C145.388 57.4824 148.023 63.0605 146.925 68.5748Z" fill="#101C3A"/>
<path d="M19.7585 58.1285L19.582 58.1463L21.0494 73.2315L32.6798 64.5573L32.2845 63.8949C29.4909 59.9617 24.8042 57.6116 19.7585 58.1285Z" fill="#FC721A"/>
<path d="M204.513 113.086L202.687 98.0156C202.684 98.0156 202.683 98.0167 202.681 98.0167L201.776 98.0857C200.573 98.2479 199.33 98.565 198.036 99.1572C196.361 99.92 194.895 101.014 193.691 102.342L204.513 113.086Z" fill="#7109B5"/>
<path d="M81.2149 4.06089C81.2149 6.30427 79.4621 8.12178 77.3008 8.12178C75.1385 8.12178 73.3867 6.30427 73.3867 4.06089C73.3867 1.81856 75.1385 0 77.3008 0C79.4621 0 81.2149 1.81856 81.2149 4.06089Z" fill="#390D9F"/>
<path d="M111.297 187.378C111.297 189.622 109.544 191.439 107.383 191.439C105.221 191.439 103.469 189.622 103.469 187.378C103.469 185.135 105.221 183.317 107.383 183.317C109.543 183.318 111.297 185.136 111.297 187.378Z" fill="#425FEC"/>
<path d="M294.968 89.2273C294.968 90.3479 294.091 91.2572 293.011 91.2572C291.93 91.2572 291.055 90.3479 291.055 89.2273C291.055 88.1056 291.93 87.1963 293.011 87.1963C294.091 87.1963 294.968 88.1056 294.968 89.2273Z" fill="#7109B5"/>
<path d="M179.915 18.9748C179.915 20.3989 178.801 21.5541 177.428 21.5541C176.055 21.5541 174.941 20.3989 174.941 18.9748C174.941 17.5497 176.054 16.3945 177.428 16.3945C178.802 16.3945 179.915 17.5497 179.915 18.9748Z" fill="#390D9F"/>
<path d="M2.75135 184.417L58.6371 194.96C60.4575 195.303 62.2012 194.052 62.532 192.162L72.695 134.181C73.0258 132.292 71.8186 130.482 69.9982 130.139L14.1125 119.595C12.2921 119.252 10.5483 120.504 10.2175 122.393L0.0545383 180.374C-0.27626 182.265 0.931957 184.074 2.75135 184.417Z" fill="#390D9F"/>
<path d="M49.8613 175.023L47.4852 174.575L53.0956 142.529L30.9876 145.812L26.6691 170.478L24.293 170.032L28.9221 143.588L56.0698 139.556L49.8613 175.023Z" fill="white"/>
<path d="M52.4581 173.164C53.5715 175.661 51.6291 179.051 48.1194 180.737C44.6097 182.422 40.861 181.765 39.7476 179.269C38.6342 176.772 40.5756 173.383 44.0863 171.697C47.596 170.012 51.3447 170.669 52.4581 173.164Z" fill="white"/>
<path d="M28.0015 168.556C29.1159 171.053 27.1735 174.443 23.6628 176.129C20.1531 177.814 16.4044 177.157 15.291 174.661C14.1765 172.165 16.1189 168.775 19.6296 167.089C23.1383 165.404 26.887 166.06 28.0015 168.556Z" fill="white"/>
<path d="M239.077 43.0114L214.973 15.8983C214.24 15.0738 214.852 13.6738 215.925 13.8067C215.933 13.8067 215.941 13.8077 215.949 13.8098L273.631 21.6386C273.64 21.6397 273.648 21.6407 273.656 21.6417C274.726 21.8008 274.969 23.317 274.057 23.9176L244.325 43.4979C242.38 44.7881 240.312 44.5066 239.077 43.0114Z" fill="#425FEC"/>
<path d="M230.759 38.3302L211.784 51.2631C210.932 51.8428 209.82 51.1187 209.952 50.0723L213.738 20.0494C213.869 19.0114 215.107 18.6043 215.791 19.3734L230.982 36.4635C231.478 37.0233 231.373 37.9116 230.759 38.3302Z" fill="#425FEC"/>
<path d="M268.921 62.2597C268.846 62.4072 268.635 62.4867 268.347 62.4888L211.301 54.7469C211.023 54.6673 210.839 54.5344 210.804 54.3723C210.764 54.1839 210.894 53.9778 211.162 53.756C211.242 53.6921 211.347 53.6231 211.461 53.5477L231.989 39.558C232.654 39.1081 233.537 39.22 234.077 39.8248L237.838 44.049C238.764 45.088 239.975 45.7095 241.243 45.8822C242.51 46.0548 243.834 45.7765 244.987 45.02L249.878 41.8035C250.55 41.363 251.431 41.4906 251.961 42.1027L268.491 61.2876C268.583 61.3912 268.667 61.4854 268.727 61.5691C268.932 61.8537 269.006 62.0881 268.921 62.2597Z" fill="#425FEC"/>
<path d="M274.223 28.2571L270.479 57.9463C270.347 58.9927 269.093 59.3955 268.414 58.6087L253.451 41.2434C252.962 40.6763 253.08 39.7879 253.699 39.3799L272.407 27.057C273.259 26.4951 274.354 27.2202 274.223 28.2571Z" fill="#425FEC"/>
<path d="M273.573 59.2237C272.937 63.3766 269.177 66.2091 265.173 65.5489C261.169 64.8897 258.44 60.9878 259.076 56.8338C259.712 52.6808 263.473 49.8484 267.476 50.5086C271.478 51.1689 274.207 55.0707 273.573 59.2237Z" fill="#FC721A"/>
<path d="M263.753 59.5034L265.185 59.5578C265.173 59.9365 265.251 60.241 265.417 60.4702C265.583 60.6993 265.806 60.8364 266.085 60.8824C266.384 60.9316 266.654 60.8563 266.895 60.6533C267.136 60.4513 267.288 60.15 267.349 59.7503C267.407 59.3715 267.354 59.0555 267.193 58.8012C267.031 58.547 266.808 58.3974 266.525 58.3503C266.339 58.3199 266.112 58.321 265.842 58.3524L266.19 57.1522C266.581 57.2275 266.893 57.1888 267.129 57.035C267.364 56.8822 267.507 56.65 267.554 56.3392C267.594 56.0745 267.551 55.8516 267.424 55.6695C267.296 55.4875 267.106 55.3755 266.855 55.3347C266.607 55.2939 266.381 55.3483 266.178 55.4979C265.976 55.6475 265.828 55.8913 265.739 56.2272L264.437 55.771C264.603 55.3117 264.801 54.9549 265.033 54.7016C265.264 54.4484 265.559 54.2685 265.92 54.1607C266.281 54.0529 266.67 54.0341 267.086 54.1031C267.799 54.2203 268.335 54.551 268.694 55.093C268.989 55.5366 269.099 56.0023 269.024 56.4888C268.919 57.1784 268.472 57.668 267.682 57.96C268.102 58.1284 268.415 58.4015 268.624 58.7803C268.833 59.1591 268.9 59.586 268.828 60.0611C268.723 60.7506 268.389 61.2989 267.829 61.7038C267.27 62.1098 266.628 62.2532 265.905 62.1339C265.219 62.0209 264.683 61.7227 264.294 61.2392C263.904 60.7548 263.725 60.1762 263.753 59.5034Z" fill="white"/>
</svg>
