<svg width="33" height="33" viewBox="0 0 33 33" fill="none" xmlns="http://www.w3.org/2000/svg">
<path d="M25.2517 26.0954H7.74805V24.813C7.74805 24.2843 8.17666 23.8557 8.70543 23.8557H24.2943C24.8231 23.8557 25.2517 24.2843 25.2517 24.813V26.0954Z" fill="#7BAC51"/>
<path d="M24.2947 23.8555H23.2129C23.7417 23.8555 24.1703 24.2841 24.1703 24.8129V26.0953H25.2521V24.8129C25.2521 24.2841 24.8234 23.8555 24.2947 23.8555Z" fill="#5D8E33"/>
<path d="M8.70543 23.8555H9.78722C9.25844 23.8555 8.82983 24.2841 8.82983 24.8129V26.0953H7.74805V24.8129C7.74805 24.2841 8.17666 23.8555 8.70543 23.8555Z" fill="#99CA6F"/>
<path d="M11.3613 22.2159H21.6377V23.8555H11.3613V22.2159Z" fill="#5D8E33"/>
<path d="M25.2517 26.3532H7.74805C7.60573 26.3532 7.49023 26.2377 7.49023 26.0954V24.813C7.49023 24.143 8.03538 23.5978 8.70543 23.5978H24.2945C24.9645 23.5978 25.5097 24.143 25.5097 24.813V26.0954C25.5095 26.2377 25.3942 26.3532 25.2517 26.3532ZM8.00586 25.8376H24.9939V24.813C24.9939 24.4274 24.68 24.1135 24.2943 24.1135H8.70543C8.31975 24.1135 8.00586 24.4274 8.00586 24.813V25.8376Z" fill="#690589"/>
<path d="M21.6377 24.1134H11.3613C11.219 24.1134 11.1035 23.9979 11.1035 23.8556V22.2161C11.1035 22.0738 11.219 21.9583 11.3613 21.9583H21.6377C21.78 21.9583 21.8955 22.0738 21.8955 22.2161V23.8556C21.8955 23.9979 21.78 24.1134 21.6377 24.1134ZM11.6191 23.5978H21.3799V22.4739H11.6191V23.5978Z" fill="#690589"/>
<path d="M28.957 22.216H4.04332C3.51455 22.216 3.08594 21.7873 3.08594 21.2586V5.91912C3.08594 5.39034 3.51455 4.96173 4.04332 4.96173H28.9572C29.4859 4.96173 29.9146 5.39034 29.9146 5.91912V21.2587C29.9144 21.7873 29.4858 22.216 28.957 22.216Z" fill="#F4EFED"/>
<path d="M15.0896 13.1129V10.2527L11.9414 10.6514V13.1129H15.0896Z" fill="#FCC24C"/>
<path d="M15.9668 13.1128H20.1791V9.6557L15.9668 10.1891V13.1128Z" fill="#FCC24C"/>
<path d="M15.0896 13.9903H11.9414V16.486L15.0896 17.0113V13.9903Z" fill="#FCC24C"/>
<path d="M15.9668 13.9903V17.0951L20.1791 17.7981V13.9903H15.9668Z" fill="#FCC24C"/>
<path d="M28.9568 4.96173H27.875C28.4038 4.96173 28.8324 5.39034 28.8324 5.91912V21.2587C28.8324 21.7875 28.4038 22.2161 27.875 22.2161H28.9568C29.4856 22.2161 29.9142 21.7875 29.9142 21.2587V5.91912C29.9142 5.39034 29.4856 4.96173 28.9568 4.96173Z" fill="#D6D1CF"/>
<path d="M4.04332 22.216H5.12511C4.59633 22.216 4.16772 21.7873 4.16772 21.2586V5.91912C4.16772 5.39034 4.59633 4.96173 5.12511 4.96173H4.04332C3.51455 4.96173 3.08594 5.39034 3.08594 5.91912V21.2587C3.08594 21.7873 3.51455 22.216 4.04332 22.216Z" fill="white"/>
<path d="M28.957 22.4739H4.04332C3.37327 22.4739 2.82812 21.9288 2.82812 21.2586V5.91912C2.82812 5.24906 3.37327 4.70392 4.04332 4.70392H28.9572C29.6272 4.70392 30.1724 5.24906 30.1724 5.91912V21.2586C30.1722 21.9286 29.6271 22.4739 28.957 22.4739ZM4.04332 5.21954C3.65751 5.21954 3.34375 5.53343 3.34375 5.91912V21.2586C3.34375 21.6444 3.65764 21.9583 4.04332 21.9583H28.9572C29.343 21.9583 29.6567 21.6444 29.6567 21.2586V5.91912C29.6567 5.53343 29.3429 5.21954 28.9572 5.21954H4.04332Z" fill="#690589"/>
<path d="M3.95117 9.15234C3.80886 9.15234 3.69336 9.03684 3.69336 8.89453V7.34766C3.69336 7.20534 3.80886 7.08984 3.95117 7.08984C4.09348 7.08984 4.20898 7.20534 4.20898 7.34766V8.89453C4.20898 9.03684 4.09361 9.15234 3.95117 9.15234Z" fill="#690589"/>
<path d="M15.0896 13.3706H11.9414C11.7991 13.3706 11.6836 13.2551 11.6836 13.1128V10.6514C11.6836 10.5214 11.7803 10.412 11.9091 10.3956L15.0571 9.99691C15.1305 9.98763 15.2044 10.0103 15.26 10.0593C15.3155 10.1082 15.3474 10.1787 15.3474 10.2527V13.1128C15.3474 13.2551 15.2319 13.3706 15.0896 13.3706ZM12.1992 12.855H14.8316V10.5453L12.1992 10.8786V12.855Z" fill="#690589"/>
<path d="M20.1791 13.3707H15.9668C15.8245 13.3707 15.709 13.2552 15.709 13.1129V10.1891C15.709 10.0592 15.8057 9.94975 15.9344 9.93338L20.1467 9.39997C20.2201 9.39056 20.2941 9.41337 20.3496 9.46236C20.4052 9.51121 20.437 9.58173 20.437 9.65572V13.1127C20.4369 13.2552 20.3215 13.3707 20.1791 13.3707ZM16.2246 12.855H19.9213V9.94834L16.2246 10.4164V12.855Z" fill="#690589"/>
<path d="M15.0894 17.2693C15.0754 17.2693 15.0611 17.2682 15.047 17.2659L11.899 16.7404C11.7747 16.7197 11.6836 16.6122 11.6836 16.4861V13.9905C11.6836 13.8482 11.7991 13.7327 11.9414 13.7327H15.0894C15.2317 13.7327 15.3472 13.8482 15.3472 13.9905V17.0117C15.3472 17.0875 15.3139 17.1594 15.256 17.2084C15.2091 17.2479 15.1499 17.2693 15.0894 17.2693ZM12.1991 16.2676L14.8315 16.707V14.2482H12.1991V16.2676Z" fill="#690589"/>
<path d="M20.1791 18.0559C20.165 18.0559 20.1507 18.0547 20.1367 18.0524L15.9244 17.3493C15.8001 17.3286 15.709 17.2211 15.709 17.095V13.9903C15.709 13.848 15.8245 13.7325 15.9668 13.7325H20.1791C20.3214 13.7325 20.4369 13.848 20.4369 13.9903V17.7981C20.4369 17.8739 20.4035 17.9458 20.3456 17.9948C20.2988 18.0345 20.2397 18.0559 20.1791 18.0559ZM16.2246 16.8766L19.9213 17.4937V14.2481H16.2246V16.8766Z" fill="#690589"/>
<path d="M8.60462 28.0383H1.27798C0.856969 28.0383 0.515625 27.6969 0.515625 27.2759V15.567C0.515625 15.146 0.856969 14.8046 1.27798 14.8046H8.60475C9.02576 14.8046 9.3671 15.146 9.3671 15.567V27.2759C9.36697 27.6969 9.02563 28.0383 8.60462 28.0383Z" fill="#F4EFED"/>
<path d="M8.60415 14.8047H7.8418C8.2628 14.8047 8.60415 15.1461 8.60415 15.5671V27.276C8.60415 27.697 8.2628 28.0384 7.8418 28.0384H8.60415C9.02516 28.0384 9.3665 27.697 9.3665 27.276V15.5671C9.3665 15.1461 9.02516 14.8047 8.60415 14.8047Z" fill="#D6D1CF"/>
<path d="M1.27798 28.0383H2.04033C1.61932 28.0383 1.27798 27.6969 1.27798 27.2759V15.567C1.27798 15.146 1.61932 14.8046 2.04033 14.8046H1.27798C0.856969 14.8046 0.515625 15.146 0.515625 15.567V27.2759C0.515625 27.6969 0.856969 28.0383 1.27798 28.0383Z" fill="white"/>
<path d="M6.64004 16.0647H3.24065C3.02641 16.0647 2.83292 15.9365 2.74926 15.7392L2.35352 14.8047H7.52717L7.13143 15.7392C7.04777 15.9364 6.85428 16.0647 6.64004 16.0647Z" fill="#7BAC51"/>
<path d="M8.60462 28.2961H1.27798C0.71543 28.2961 0.257812 27.8385 0.257812 27.276V15.5671C0.257812 15.0046 0.71543 14.5469 1.27798 14.5469H8.60462C9.16717 14.5469 9.62479 15.0046 9.62479 15.5671V27.276C9.62479 27.8385 9.16717 28.2961 8.60462 28.2961ZM1.27798 15.0626C0.999797 15.0626 0.773438 15.2889 0.773438 15.5671V27.276C0.773438 27.5541 0.999797 27.7805 1.27798 27.7805H8.60462C8.8828 27.7805 9.10916 27.5541 9.10916 27.276V15.5671C9.10916 15.2889 8.8828 15.0626 8.60462 15.0626H1.27798Z" fill="#690589"/>
<path d="M6.64187 16.3225H3.24248C2.92396 16.3225 2.63791 16.1329 2.51378 15.8397L2.11804 14.9053C2.08439 14.8256 2.09277 14.7345 2.14047 14.6623C2.18829 14.5901 2.26898 14.5468 2.35535 14.5468H7.52887C7.61537 14.5468 7.69607 14.5901 7.74376 14.6623C7.79146 14.7345 7.79997 14.8256 7.76619 14.9053L7.37045 15.8397C7.24631 16.133 6.96027 16.3225 6.64187 16.3225ZM2.74452 15.0626L2.98854 15.6387C3.03172 15.7409 3.1315 15.807 3.24248 15.807H6.64187C6.75286 15.807 6.8525 15.7409 6.89595 15.6387L7.13984 15.0626H2.74452Z" fill="#690589"/>
<path d="M31.8912 12.6733H21.663C21.3357 12.6733 21.0703 12.9387 21.0703 13.266V27.4455C21.0703 27.7728 21.3357 28.0383 21.663 28.0383H31.8912C32.2185 28.0383 32.4839 27.7728 32.4839 27.4455V13.266C32.4839 12.9387 32.2185 12.6733 31.8912 12.6733Z" fill="#7BAC51"/>
<path d="M31.8916 12.6733H30.8887C31.2161 12.6733 31.4814 12.9386 31.4814 13.266V27.4455C31.4814 27.773 31.216 28.0383 30.8887 28.0383H31.8916C32.2189 28.0383 32.4843 27.773 32.4843 27.4455V13.266C32.4843 12.9386 32.2189 12.6733 31.8916 12.6733Z" fill="#5D8E33"/>
<path d="M21.663 12.6733H22.6659C22.3386 12.6733 22.0732 12.9386 22.0732 13.266V27.4455C22.0732 27.773 22.3386 28.0383 22.6659 28.0383H21.663C21.3357 28.0383 21.0703 27.773 21.0703 27.4455V13.266C21.0703 12.9386 21.3356 12.6733 21.663 12.6733Z" fill="#99CA6F"/>
<path d="M31.8912 28.2961H21.663C21.1941 28.2961 20.8125 27.9145 20.8125 27.4455V13.266C20.8125 12.797 21.1939 12.4155 21.663 12.4155H31.8912C32.3602 12.4155 32.7417 12.797 32.7417 13.266V27.4455C32.7417 27.9145 32.3602 28.2961 31.8912 28.2961ZM21.663 12.9311C21.4784 12.9311 21.3281 13.0813 21.3281 13.266V27.4455C21.3281 27.6303 21.4784 27.7804 21.663 27.7804H31.8912C32.0759 27.7804 32.2261 27.6303 32.2261 27.4455V13.266C32.2261 13.0813 32.0758 12.9311 31.8912 12.9311H21.663Z" fill="#690589"/>
<path d="M22.207 13.8962H31.3491V25.7484H22.207V13.8962Z" fill="#F4EFED"/>
<path d="M31.3491 26.0062H22.207C22.0647 26.0062 21.9492 25.8907 21.9492 25.7484V13.8964C21.9492 13.754 22.0647 13.6385 22.207 13.6385H31.3491C31.4914 13.6385 31.6069 13.754 31.6069 13.8964V25.7484C31.6069 25.8908 31.4914 26.0062 31.3491 26.0062ZM22.4648 25.4906H31.0912V14.1542H22.4648V25.4906Z" fill="#690589"/>
<path d="M27.251 26.9183C27.251 27.1803 27.0387 27.3924 26.7769 27.3924C26.5149 27.3924 26.3027 27.1801 26.3027 26.9183C26.3027 26.6565 26.515 26.4442 26.7769 26.4442C27.0387 26.4442 27.251 26.6565 27.251 26.9183Z" fill="#690589"/>
<path d="M29.2313 22.098H24.3223V21.068C24.3223 19.7125 25.4212 18.6135 26.7768 18.6135C28.1323 18.6135 29.2313 19.7125 29.2313 21.068V22.098Z" fill="#7BAC51"/>
<path d="M29.2313 22.3558H24.3223C24.18 22.3558 24.0645 22.2403 24.0645 22.098V21.0682C24.0645 19.5726 25.2812 18.3558 26.7768 18.3558C28.2723 18.3558 29.4891 19.5726 29.4891 21.0682V22.098C29.4891 22.2403 29.3737 22.3558 29.2313 22.3558ZM24.5801 21.8402H28.9735V21.0682C28.9735 19.8569 27.988 18.8715 26.7768 18.8715C25.5656 18.8715 24.5801 19.8569 24.5801 21.0682V21.8402Z" fill="#690589"/>
<path d="M25.1752 19.41C25.1092 19.41 25.0433 19.3849 24.9929 19.3345L24.0736 18.4153C23.9729 18.3147 23.9729 18.1514 24.0736 18.0507C24.1742 17.9501 24.3374 17.9501 24.4382 18.0507L25.3576 18.97C25.4583 19.0705 25.4583 19.2338 25.3576 19.3345C25.3072 19.3849 25.2412 19.41 25.1752 19.41Z" fill="#690589"/>
<path d="M28.379 19.41C28.313 19.41 28.247 19.3849 28.1966 19.3345C28.0959 19.2338 28.0959 19.0705 28.1966 18.97L29.116 18.0507C29.2166 17.9501 29.3798 17.9501 29.4806 18.0507C29.5813 18.1514 29.5813 18.3147 29.4806 18.4153L28.5613 19.3345C28.511 19.3849 28.445 19.41 28.379 19.41Z" fill="#690589"/>
<path d="M25.6914 21.2286C25.5491 21.2286 25.4336 21.1131 25.4336 20.9708V20.484C25.4336 20.3417 25.5491 20.2262 25.6914 20.2262C25.8337 20.2262 25.9492 20.3417 25.9492 20.484V20.9708C25.9492 21.1131 25.8338 21.2286 25.6914 21.2286Z" fill="#690589"/>
<path d="M27.8633 21.2286C27.721 21.2286 27.6055 21.1131 27.6055 20.9708V20.484C27.6055 20.3417 27.721 20.2262 27.8633 20.2262C28.0056 20.2262 28.1211 20.3417 28.1211 20.484V20.9708C28.1211 21.1131 28.0056 21.2286 27.8633 21.2286Z" fill="#690589"/>
<path d="M6.32967 21.9085C6.32967 21.4485 6.61224 21.0548 7.01301 20.8904C6.70569 20.3818 6.11492 20.1508 5.13239 20.5629C5.01071 20.6139 4.87226 20.6139 4.75057 20.5629C2.364 19.5621 2.28472 22.3499 2.97992 23.7156C3.53228 24.8006 4.40549 24.4953 4.77133 24.3023C4.8778 24.2461 5.0049 24.2461 5.11138 24.3023C5.47722 24.4953 6.35043 24.8006 6.90279 23.7156C7.01339 23.4983 7.10414 23.2449 7.16937 22.9767C6.68778 22.8594 6.32967 22.4264 6.32967 21.9085Z" fill="#FF4397"/>
<path d="M5.15362 18.7667C4.8873 19.033 4.78314 19.3991 4.8387 19.7446C5.18417 19.8002 5.55026 19.696 5.81658 19.4297C6.0829 19.1634 6.18706 18.7973 6.1315 18.4518C5.78603 18.3962 5.41981 18.5004 5.15362 18.7667Z" fill="#FF4397"/>
<path d="M5.8224 24.7518C5.47526 24.7518 5.16949 24.6243 4.9916 24.5305C4.96041 24.5138 4.92315 24.514 4.89209 24.5303C4.64845 24.659 4.16493 24.8505 3.66412 24.6915C3.2872 24.5717 2.97976 24.2827 2.75057 23.8324C2.23726 22.824 2.14703 21.2497 2.831 20.5132C3.14682 20.1733 3.75346 19.8652 4.85071 20.325C4.90871 20.3494 4.9751 20.3494 5.03324 20.325C6.37992 19.7602 6.99029 20.3531 7.23418 20.7571C7.27311 20.8216 7.28201 20.8997 7.25829 20.9712C7.2347 21.0428 7.18094 21.1004 7.11134 21.129C6.79345 21.2595 6.58798 21.5655 6.58798 21.9086C6.58798 22.2979 6.85236 22.6341 7.23083 22.7263C7.36915 22.7601 7.45397 22.8994 7.42032 23.0377C7.3502 23.3264 7.25081 23.6013 7.13299 23.8326C6.9038 24.283 6.59636 24.572 6.21943 24.6916C6.08434 24.7344 5.95053 24.7518 5.8224 24.7518ZM4.94184 24.0023C5.04149 24.0023 5.14126 24.0264 5.23214 24.0743C5.40436 24.1653 5.74145 24.3023 6.06346 24.2001C6.304 24.1238 6.50921 23.9214 6.67357 23.5986C6.74318 23.462 6.80544 23.306 6.85739 23.1394C6.38469 22.9207 6.07235 22.4459 6.07235 21.9085C6.07235 21.4692 6.28105 21.0678 6.6233 20.8158C6.32166 20.5448 5.85527 20.5395 5.2324 20.8006C5.04742 20.878 4.8355 20.8779 4.65103 20.8004C3.99052 20.5233 3.50505 20.5447 3.2087 20.8641C2.69449 21.4176 2.78524 22.7642 3.20999 23.5985C3.37434 23.9213 3.57956 24.1235 3.8201 24.2C4.14224 24.3024 4.47933 24.1652 4.65155 24.0741C4.74243 24.0265 4.84207 24.0023 4.94184 24.0023Z" fill="#690589"/>
<path d="M5.01789 20.0167C4.94467 20.0167 4.87094 20.0109 4.79759 19.9991C4.68776 19.9813 4.60166 19.8953 4.58399 19.7855C4.51335 19.3465 4.65812 18.8974 4.9711 18.5844C5.28421 18.2713 5.73384 18.1271 6.17225 18.1973C6.28208 18.2151 6.36819 18.3011 6.38585 18.4108C6.45649 18.8497 6.31185 19.2988 5.99874 19.612C5.73796 19.8727 5.38296 20.0167 5.01789 20.0167ZM5.33578 18.949C5.18805 19.0967 5.10014 19.293 5.08454 19.4986C5.29014 19.4832 5.48634 19.3951 5.63419 19.2475C5.78192 19.0998 5.86983 18.9035 5.88543 18.6979C5.6797 18.7133 5.4835 18.8014 5.33578 18.949Z" fill="#690589"/>
</svg>
