<svg width="33" height="33" viewBox="0 0 33 33" fill="none" xmlns="http://www.w3.org/2000/svg">
<g clip-path="url(#clip0_749_3289)">
<path d="M32.3208 14.2401L32.3258 13.1201C32.3258 13.1232 32.3226 13.1264 32.3221 13.1295C32.3265 13.0955 32.3067 13.0594 32.2608 13.0301L32.0483 12.9101L32.2608 12.7851C32.2983 12.7651 32.3208 12.7326 32.3208 12.7051L32.3258 11.5851C32.3258 11.5881 32.3226 11.5912 32.3222 11.5943C32.327 11.5598 32.3071 11.5247 32.2608 11.4951L30.4558 10.4551L30.5558 8.86257L31.9958 8.03509C32.1983 7.91759 32.3208 7.66759 32.3233 7.31757C32.3233 6.79762 32.0608 6.19507 31.6758 5.77009C31.6908 5.67262 31.7033 5.57009 31.7033 5.45259C31.7058 4.55009 31.0683 3.44509 30.2808 2.99009C30.0858 2.87759 29.8958 2.81509 29.7258 2.80259L29.7283 2.80009C29.4958 1.96009 28.9033 1.12259 28.2158 0.722618C27.7633 0.462618 27.3533 0.437618 27.0558 0.607618L25.6133 1.44012C25.6108 1.44012 25.6108 1.44012 25.6108 1.44259L25.6058 1.44509C25.3458 1.59762 25.1733 1.90262 25.1383 2.33259L24.2933 2.82259C24.3008 2.81759 24.3108 2.81512 24.3183 2.81012C24.0458 2.95512 23.8733 3.27762 23.8733 3.74512C23.8708 4.65762 24.5133 5.77012 25.3058 6.22764L25.6833 6.44512L25.8883 10.4426L24.0733 11.4951C24.0358 11.5201 24.0158 11.5501 24.0158 11.5801V11.5826L24.0108 12.7001C24.0108 12.7327 24.0308 12.7651 24.0758 12.7852L24.2858 12.9077L24.0733 13.0302C24.0358 13.0552 24.0158 13.0852 24.0158 13.1152V13.1177L24.0108 14.2352C24.0108 14.2677 24.0308 14.3002 24.0758 14.3201L24.2858 14.4426L24.0733 14.5652C24.0358 14.5902 24.0158 14.6202 24.0158 14.6527V14.6552L24.0108 15.7702C24.0108 15.8027 24.0308 15.8352 24.0758 15.8577L25.5508 16.7102L22.4133 18.5177L14.8058 14.0952H14.8033L14.7783 4.92769C14.7783 4.76769 14.7183 4.65519 14.6258 4.60522L14.6233 4.60272C14.6208 4.60272 14.6208 4.60272 14.6183 4.60022L14.0533 4.27019C13.9633 4.21769 13.8358 4.22522 13.6958 4.30519L1.17578 11.5352C0.898281 11.6952 0.675781 12.0802 0.675781 12.4002L0.703281 21.5677L1.28078 21.9052V21.9027H1.28328L6.03328 19.1602L1.28578 21.9027H1.28328L1.28078 21.9052L1.28578 22.7402L9.21078 27.0027C9.48828 27.1627 9.93328 27.1627 10.2108 27.0027L16.9758 23.0977L19.7683 24.7052L14.5683 27.7277C14.4292 27.8074 14.368 27.916 14.384 28.0218C14.3823 28.0112 14.3783 28.0007 14.3783 27.9902L14.3808 28.4802C14.3808 28.5777 14.4433 28.6727 14.5708 28.7477L20.8808 32.3927C21.1308 32.5352 21.5408 32.5377 21.7908 32.3927L32.0983 26.3902C32.2258 26.3177 32.2883 26.2227 32.2883 26.1277L32.2858 25.6102C32.2883 25.5127 32.2283 25.4127 32.0983 25.3377L25.8233 21.7152C25.5708 21.5702 25.1633 21.5702 24.9133 21.7152L19.9533 24.5977L17.1633 22.9877L22.7308 19.7752C22.8708 19.6951 22.9408 19.5877 22.9408 19.4827L22.9358 18.9977C22.9383 18.8901 22.8708 18.7852 22.7333 18.7026L22.5983 18.6252L25.7383 16.8176L28.0283 18.1401C28.1133 18.1877 28.2433 18.1877 28.3283 18.1451L32.2608 15.8577C32.2983 15.8351 32.3208 15.8026 32.3208 15.7751L32.3258 14.6551C32.3258 14.6588 32.3226 14.6613 32.3221 14.6646C32.3265 14.6306 32.3067 14.5945 32.2608 14.5651L32.0483 14.4451L32.2608 14.3201C32.2983 14.3001 32.3208 14.2676 32.3208 14.2401ZM14.3854 28.0292C14.3917 28.0635 14.4054 28.0976 14.4283 28.1301C14.4048 28.0975 14.3922 28.0635 14.3854 28.0292Z" fill="white"/>
<path d="M0.705647 25.6544L0.701172 26.109L2.44285 27.078L4.17455 26.1083L4.17905 25.6536L2.43737 24.6846L0.705647 25.6544Z" fill="white"/>
<path d="M28.2109 21.0424L30.1633 22.1285L32.1045 21.0415L32.1095 20.5318L30.1572 19.4457L28.216 20.5327L28.2109 21.0424Z" fill="white"/>
<path d="M10.4855 30.074L10.4805 30.5837L12.4328 31.6698L14.374 30.5828L14.379 30.0731L12.4267 28.9869L10.4855 30.074Z" fill="white"/>
<path d="M14.9492 21.7175L25.2732 27.6594L25.1798 27.8218L14.8558 21.8798L14.9492 21.7175Z" fill="#AFB5BF"/>
<path d="M27.4707 15.6083L27.5641 15.7706L17.2401 21.7126L17.1467 21.5502L27.4707 15.6083Z" fill="#AFB5BF"/>
<path d="M32.2855 25.6024L32.287 26.1275C32.287 26.222 32.2252 26.3165 32.098 26.3891L21.7912 32.3922C21.5405 32.5375 21.13 32.5339 20.8794 32.3922L14.5691 28.7485C14.442 28.6722 14.3802 28.5778 14.3802 28.4797L14.3789 27.9892C14.3789 28.0836 14.4443 28.1817 14.5715 28.2544L20.8455 31.8764C21.0962 32.0217 21.503 32.0217 21.7573 31.8764L32.1002 25.864C32.2238 25.7913 32.2855 25.6968 32.2855 25.6024Z" fill="#37617B"/>
<path d="M32.098 25.3377C32.3485 25.4823 32.3521 25.7193 32.101 25.8653L21.7565 31.8769C21.5053 32.0229 21.0961 32.0215 20.8456 31.8769L14.5714 28.2545C14.3185 28.1085 14.3172 27.8728 14.5684 27.7268L24.9129 21.7153C25.1641 21.5693 25.571 21.5693 25.8238 21.7153L32.098 25.3377Z" fill="#4C7891"/>
<path d="M28.6401 23.6917C28.7399 23.7492 28.7404 23.8403 28.6413 23.8979C28.5422 23.9555 28.385 23.9555 28.2852 23.8979C28.1878 23.8416 28.185 23.7492 28.2841 23.6917C28.3832 23.6341 28.5427 23.6354 28.6401 23.6917Z" fill="#416E84"/>
<path d="M16.4631 28.6429C16.3766 28.6947 16.2333 28.6947 16.1444 28.6429L15.5983 28.329C15.5093 28.2772 15.5093 28.1931 15.5958 28.1437C15.6848 28.0918 15.8281 28.0918 15.9146 28.1437L16.4631 28.46C16.5521 28.5094 16.5521 28.5935 16.4631 28.6429Z" fill="#416E84"/>
<path d="M18.5456 29.8462C18.3998 29.9327 18.1626 29.9302 18.0168 29.8462C17.871 29.7598 17.8686 29.6263 18.0144 29.5398C18.1601 29.4558 18.3998 29.4534 18.5456 29.5374C18.6914 29.6238 18.6914 29.7622 18.5456 29.8462Z" fill="#416E84"/>
<path d="M21.0312 31.2819C20.9422 31.3313 20.8014 31.3338 20.7124 31.2819L20.1663 30.9656C20.0774 30.9162 20.0774 30.8322 20.1663 30.7803C20.2528 30.7309 20.3961 30.7309 20.4851 30.7803L21.0287 31.0966C21.1201 31.1484 21.1177 31.23 21.0312 31.2819Z" fill="#416E84"/>
<path d="M31.1034 25.8174L21.9844 31.1176L15.8281 27.5631L24.9471 22.2629L31.1034 25.8174Z" fill="white"/>
<path d="M30.9177 26.7758C30.899 26.7646 30.8729 26.7665 30.8449 26.7814L30.0951 27.2161C30.0391 27.2478 29.9962 27.3242 29.9962 27.3877C29.9962 27.4194 30.0074 27.4418 30.0242 27.453L29.985 27.4287C29.9682 27.4194 29.957 27.397 29.957 27.3653C29.957 27.3019 29.9999 27.2235 30.054 27.1918L30.8058 26.759C30.8338 26.7422 30.8599 26.7422 30.8785 26.7516L30.9177 26.7758Z" fill="#BAC1CE"/>
<path d="M30.8449 26.7821C30.9009 26.7498 30.9463 26.7756 30.9465 26.8386C30.9467 26.9029 30.9016 26.9797 30.8456 27.012L30.0953 27.4452C30.0405 27.4768 29.9963 27.4516 29.9961 27.3873C29.9959 27.3243 30.0398 27.2469 30.0946 27.2153L30.8449 26.7821Z" fill="#D4DAE8"/>
<path d="M29.8024 27.4471C29.7838 27.4359 29.7577 27.4378 29.7297 27.4527L28.9798 27.8873C28.9239 27.919 28.881 27.9955 28.881 28.0589C28.881 28.0906 28.8922 28.113 28.9089 28.1242L28.8698 28.1C28.853 28.0906 28.8418 28.0683 28.8418 28.0365C28.8418 27.9731 28.8847 27.8948 28.9388 27.8631L29.6905 27.4303C29.7185 27.4135 29.7446 27.4135 29.7633 27.4228L29.8024 27.4471Z" fill="#BAC1CE"/>
<path d="M29.7297 27.4534C29.7857 27.4211 29.8311 27.447 29.8313 27.5099C29.8314 27.5742 29.7863 27.651 29.7304 27.6833L28.98 28.1165C28.9253 28.1481 28.881 28.1229 28.8809 28.0586C28.8807 27.9957 28.9246 27.9182 28.9794 27.8866L29.7297 27.4534Z" fill="#D4DAE8"/>
<path d="M23.4541 25.2244L23.455 25.3806L21.1973 25.3845L21.2113 26.6845L20.9485 26.6884L20.9336 25.2323L23.4541 25.2244Z" fill="#F9607F"/>
<path d="M25.9957 26.6922L25.9972 28.1561L23.4833 28.1523L23.4824 27.9961L25.7267 28L25.7261 26.6922H25.9957Z" fill="#F9607F"/>
<path d="M29.4476 25.6067L29.3378 25.6705L24.8184 23.0611L24.9281 22.9974L29.4476 25.6067Z" fill="#BAC1CE"/>
<path d="M29.0843 25.8176L28.9746 25.8814L24.4551 23.2721L24.5648 23.2083L29.0843 25.8176Z" fill="#BAC1CE"/>
<path d="M28.7132 26.0334L28.6035 26.0972L24.084 23.4878L24.1937 23.4241L28.7132 26.0334Z" fill="#BAC1CE"/>
<path d="M28.3499 26.2443L28.2402 26.3081L23.7207 23.6987L23.8304 23.635L28.3499 26.2443Z" fill="#BAC1CE"/>
<path d="M27.9788 26.4601L27.8691 26.5239L23.3496 23.9146L23.4593 23.8508L27.9788 26.4601Z" fill="#BAC1CE"/>
<path d="M27.6162 26.671L27.498 26.7397L22.9785 24.1304L23.0967 24.0617L27.6162 26.671Z" fill="#BAC1CE"/>
<path d="M23.8343 29.1315L23.7246 29.1952L19.2051 26.5859L19.3148 26.5222L23.8343 29.1315Z" fill="#BAC1CE"/>
<path d="M23.471 29.3424L23.3613 29.4062L18.8418 26.7968L18.9515 26.7331L23.471 29.3424Z" fill="#BAC1CE"/>
<path d="M23.0999 29.5582L22.9902 29.622L18.4707 27.0126L18.5804 26.9489L23.0999 29.5582Z" fill="#BAC1CE"/>
<path d="M22.7366 29.7691L22.6269 29.8328L18.1074 27.2235L18.2171 27.1598L22.7366 29.7691Z" fill="#BAC1CE"/>
<path d="M22.3655 29.9849L22.2558 30.0487L17.7363 27.4394L17.8461 27.3756L22.3655 29.9849Z" fill="#BAC1CE"/>
<path d="M22.0029 30.1958L21.8847 30.2645L17.3652 27.6552L17.4834 27.5865L22.0029 30.1958Z" fill="#BAC1CE"/>
<path d="M32.3245 14.6552L32.3191 15.7757C32.3191 15.8026 32.2976 15.8349 32.2599 15.8565L28.3287 18.1452C28.2425 18.1882 28.1133 18.1882 28.0271 18.1398L24.0744 15.8565C24.0313 15.8349 24.0098 15.8026 24.0098 15.7703L24.0152 14.6498C24.0152 14.6821 24.0367 14.7145 24.0798 14.7414L28.0325 17.0247C28.1187 17.0732 28.2479 17.0732 28.3287 17.0247L32.2599 14.7414C32.303 14.7144 32.3245 14.6875 32.3245 14.6552Z" fill="#6EBA6E"/>
<path d="M32.2637 14.7414L28.3296 17.0247C28.2501 17.0724 28.1188 17.0724 28.0313 17.0247L24.0773 14.7414C23.9978 14.6937 23.9938 14.6141 24.0733 14.5664L28.0074 12.2831C28.087 12.2354 28.2222 12.2354 28.3058 12.2831L32.2598 14.5664C32.3433 14.6181 32.3433 14.6937 32.2637 14.7414Z" fill="#9AD898"/>
<path d="M24.7273 15.5686L24.7266 15.8423L27.7185 17.5697L27.7193 17.296L24.7273 15.5686Z" fill="#E63044"/>
<path d="M24.1883 15.257L24.1875 15.5307L24.4519 15.6834L24.4527 15.4096L24.1883 15.257Z" fill="#E63044"/>
<path d="M31.6091 15.5686L31.6099 15.8423L28.618 17.5697L28.6172 17.296L31.6091 15.5686Z" fill="#E4E8F4"/>
<path d="M32.1492 15.257L32.15 15.5307L31.8855 15.6834L31.8848 15.4096L32.1492 15.257Z" fill="white"/>
<path d="M32.3245 13.1199L32.3191 14.2404C32.3191 14.2673 32.2976 14.2996 32.2599 14.3212L28.3287 16.6099C28.2425 16.653 28.1133 16.653 28.0271 16.6045L24.0744 14.3212C24.0313 14.2997 24.0098 14.2673 24.0098 14.235L24.0152 13.1146C24.0152 13.1469 24.0367 13.1792 24.0798 13.2061L28.0325 15.4894C28.1187 15.5379 28.2479 15.5379 28.3287 15.4894L32.2599 13.2061C32.303 13.1792 32.3245 13.1522 32.3245 13.1199Z" fill="#6EBA6E"/>
<path d="M32.2637 13.2061L28.3296 15.4894C28.2501 15.5371 28.1188 15.5371 28.0313 15.4894L24.0773 13.2061C23.9978 13.1584 23.9938 13.0788 24.0733 13.0311L28.0074 10.7478C28.087 10.7001 28.2222 10.7001 28.3058 10.7478L32.2598 13.0311C32.3433 13.0828 32.3433 13.1584 32.2637 13.2061Z" fill="#9AD898"/>
<path d="M24.7273 14.0333L24.7266 14.307L27.7185 16.0344L27.7193 15.7607L24.7273 14.0333Z" fill="#E63044"/>
<path d="M24.1883 13.7217L24.1875 13.9954L24.4519 14.1481L24.4527 13.8744L24.1883 13.7217Z" fill="#E63044"/>
<path d="M31.6091 14.0333L31.6099 14.307L28.618 16.0344L28.6172 15.7607L31.6091 14.0333Z" fill="#E4E8F4"/>
<path d="M32.1492 13.7217L32.15 13.9954L31.8855 14.1481L31.8848 13.8744L32.1492 13.7217Z" fill="white"/>
<path d="M32.3245 11.5847L32.3191 12.7052C32.3191 12.7321 32.2976 12.7644 32.2599 12.786L28.3287 15.0747C28.2425 15.1177 28.1133 15.1177 28.0271 15.0693L24.0744 12.786C24.0313 12.7644 24.0098 12.7321 24.0098 12.6998L24.0152 11.5793C24.0152 11.6116 24.0367 11.644 24.0798 11.6709L28.0325 13.9542C28.1187 14.0027 28.2479 14.0027 28.3287 13.9542L32.2599 11.6709C32.303 11.6439 32.3245 11.617 32.3245 11.5847Z" fill="#6EBA6E"/>
<path d="M32.2637 11.6709L28.3296 13.9541C28.2501 14.0019 28.1188 14.0019 28.0313 13.9541L24.0773 11.6709C23.9978 11.6231 23.9938 11.5436 24.0733 11.4958L28.0074 9.21255C28.087 9.16483 28.2222 9.16483 28.3058 9.21255L32.2598 11.4958C32.3433 11.5476 32.3433 11.6231 32.2637 11.6709Z" fill="#9AD898"/>
<path d="M24.7273 12.498L24.7266 12.7718L27.7185 14.4992L27.7193 14.2254L24.7273 12.498Z" fill="#E63044"/>
<path d="M24.1883 12.1864L24.1875 12.4601L24.4519 12.6128L24.4527 12.3391L24.1883 12.1864Z" fill="#E63044"/>
<path d="M31.6091 12.498L31.6099 12.7718L28.618 14.4992L28.6172 14.2254L31.6091 12.498Z" fill="#E4E8F4"/>
<path d="M32.1492 12.1864L32.15 12.4601L31.8855 12.6128L31.8848 12.3391L32.1492 12.1864Z" fill="white"/>
<path d="M29.743 10.4887C28.8717 9.98754 27.4585 9.98301 26.5781 10.4932C26.0859 10.7822 25.8782 11.175 25.955 11.5497C26.0046 11.2743 26.2168 11.0079 26.5781 10.7957C27.4585 10.2855 28.8716 10.29 29.743 10.7912C30.1133 11.0079 30.33 11.2788 30.3842 11.5587C30.4654 11.1795 30.2487 10.7822 29.743 10.4887Z" fill="#2F546A"/>
<path d="M29.7431 10.7912C28.8718 10.29 27.4586 10.2855 26.5782 10.7957C26.2169 11.0079 26.0048 11.2743 25.9551 11.5497C26.0093 11.8297 26.226 12.1051 26.5962 12.3218C27.4721 12.8229 28.8808 12.8229 29.7476 12.3218C30.1179 12.1096 30.3301 11.8387 30.3843 11.5588C30.3301 11.2788 30.1134 11.0079 29.7431 10.7912Z" fill="#254656"/>
<g opacity="0.3">
<path d="M30.7835 5.23752L30.3976 11.4126C30.3951 11.7427 30.1791 12.0704 29.7495 12.3205C28.8829 12.8253 27.4702 12.8253 26.5964 12.3205C26.157 12.0656 25.9386 11.7355 25.9386 11.4005L25.623 5.22784C25.6546 5.58464 25.907 5.93907 26.3779 6.21089C27.3901 6.79589 29.031 6.79589 30.0359 6.21089C30.5019 5.94144 30.752 5.59192 30.7835 5.23752Z" fill="#748BFD"/>
</g>
<g opacity="0.3">
<path d="M30.0073 4.09164C31.0212 4.67701 31.0287 5.62486 30.0214 6.21024C29.0141 6.79564 27.3756 6.79564 26.3617 6.21026C25.3499 5.62611 25.3446 4.67704 26.3519 4.09166C27.3592 3.50626 28.9955 3.50751 30.0073 4.09164Z" fill="#576CFB"/>
</g>
<path d="M25.6078 2.05864L24.293 2.82274C24.5199 2.69084 24.8221 2.68934 25.1573 2.84224L26.4721 2.07814C26.1369 1.92524 25.8348 1.92674 25.6078 2.05864Z" fill="#4562EF"/>
<path d="M25.6055 1.44479C25.9009 1.27379 26.3113 1.29554 26.7652 1.55671C27.4524 1.95471 28.0432 2.79731 28.2764 3.63684L29.7279 2.80076C29.4947 1.96126 28.9039 1.12174 28.2168 0.723737C27.7628 0.462562 27.3524 0.437687 27.057 0.608687L25.6055 1.44479Z" fill="#576CFB"/>
<path d="M30.5455 8.86921L31.9966 8.03394C32.1977 7.91706 32.3226 7.66886 32.3236 7.31641C32.3251 6.79859 32.0603 6.19564 31.6758 5.77026L30.2246 6.60554C30.6092 7.03091 30.8739 7.63386 30.8724 8.15169C30.8714 8.50411 30.7466 8.75234 30.5455 8.86921Z" fill="#576CFB"/>
<path d="M30.2236 6.60559L31.6747 5.77031C31.6909 5.67226 31.7031 5.56964 31.7035 5.45331C31.706 4.54999 31.0669 3.44526 30.2808 2.99139C30.0842 2.87791 29.8955 2.81466 29.7265 2.80164L28.2754 3.63691C28.4444 3.64994 28.6331 3.71319 28.8296 3.82666C29.6157 4.28054 30.2549 5.38526 30.2523 6.28859C30.252 6.40491 30.2398 6.50754 30.2236 6.60559Z" fill="#4562EF"/>
<path d="M26.7645 1.55794C25.8652 1.03874 25.1342 1.45527 25.1313 2.48862C25.131 2.60267 25.1386 2.71904 25.1582 2.84227C24.4413 2.51519 23.8755 2.89454 23.8731 3.74542C23.8705 4.65787 24.5136 5.76947 25.3057 6.22677L29.7485 8.79184C30.3659 9.14829 30.8698 8.86114 30.8718 8.15172C30.8733 7.63389 30.6085 7.03094 30.224 6.60557C30.2402 6.50752 30.2524 6.40489 30.2527 6.28857C30.2553 5.38524 29.6162 4.28052 28.83 3.82664C28.6335 3.71317 28.4448 3.64992 28.2758 3.63689C28.0435 2.79679 27.4533 1.95567 26.7645 1.55794Z" fill="#748BFD"/>
<path d="M14.632 4.60797C14.5417 4.55459 14.6199 4.65994 14.4803 4.74204L1.95906 11.9706C1.68191 12.1308 1.46018 12.5167 1.46018 12.8349L1.28141 21.9044L0.702456 21.5677L0.675781 12.3991C0.675781 12.0809 0.897506 11.6949 1.17466 11.5348L13.6959 4.30617C13.8355 4.2261 13.9628 4.21789 14.0531 4.27127L14.632 4.60797Z" fill="#525566"/>
<path d="M14.2748 4.642C14.5513 4.48232 14.7762 4.61047 14.7771 4.92827L14.8031 14.0963L1.27991 21.9039L1.25391 12.7359C1.25301 12.4181 1.47641 12.0311 1.75298 11.8714L14.2748 4.642Z" fill="#5B5E71"/>
<path d="M1.87109 12.7342C1.87069 12.636 1.97614 12.4544 2.06217 12.4048L14.1638 5.41791L14.1875 13.7414L1.89394 20.8389L1.87109 12.7342Z" fill="white"/>
<path d="M1.28125 21.9041L1.28535 22.7397L9.21195 27.0029C9.48705 27.163 9.93255 27.163 10.2097 27.0029L22.7309 19.7743C22.8706 19.6942 22.9403 19.5875 22.9403 19.4828L22.9363 18.993C22.9363 19.0977 22.8665 19.2024 22.7269 19.2825L1.28125 21.9041Z" fill="#474B59"/>
<path d="M22.7285 19.2808L10.2079 26.5106C9.9303 26.6696 9.48473 26.6696 9.20933 26.5106L1.2832 21.9027L14.8047 14.0953L22.733 18.7032C23.0062 18.8621 23.0062 19.1219 22.7285 19.2808Z" fill="#525566"/>
<path d="M3.53022 23.4551L3.5293 23.7879L3.81887 23.9551L3.81982 23.6223L3.53022 23.4551Z" fill="#BAC1CE"/>
<path d="M2.79001 23.028L2.78906 23.3608L3.30379 23.658L3.30474 23.3252L2.79001 23.028Z" fill="#BAC1CE"/>
<path d="M2.29782 22.7434L2.29688 23.0762L2.58645 23.2434L2.5874 22.9106L2.29782 22.7434Z" fill="#BAC1CE"/>
<path d="M1.78217 22.4457L1.78125 22.7785L2.07082 22.9457L2.07178 22.6129L1.78217 22.4457Z" fill="#BAC1CE"/>
<path d="M18.9031 18.2958L8.50355 24.3014C8.29097 24.4252 7.94117 24.4252 7.72862 24.3014L3.28895 21.721C3.07637 21.5973 3.07907 21.3955 3.29165 21.2717L13.6912 15.2687C13.9065 15.145 14.2536 15.145 14.4661 15.2687L18.9058 17.8491C19.1184 17.9702 19.1184 18.172 18.9031 18.2958Z" fill="#D4DAE8"/>
<path d="M16.5752 22.2371L14.5028 23.4414C14.391 23.5064 14.253 23.5066 14.141 23.4419L12.8187 22.6785C12.6986 22.6092 12.6984 22.4359 12.8183 22.3662L14.8906 21.1619C15.0024 21.0969 15.1404 21.0967 15.2524 21.1614L16.5747 21.9248C16.6948 21.9941 16.6951 22.1674 16.5752 22.2371Z" fill="#CAD0DD"/>
<path d="M13.4658 16.2513C13.4438 16.2641 13.4437 16.2859 13.4655 16.2986L14.0314 16.6274C14.0533 16.6402 14.0909 16.6402 14.113 16.6274L14.681 16.2995C14.7046 16.2859 14.7031 16.265 14.6812 16.2522L14.1154 15.9234C14.0935 15.9107 14.0574 15.9098 14.0338 15.9234L13.4658 16.2513Z" fill="#525566"/>
<path d="M12.4703 16.8255C12.4467 16.8391 12.4482 16.86 12.47 16.8727L13.0359 17.2016C13.0578 17.2143 13.0939 17.2152 13.1175 17.2016L13.6855 16.8736C13.7075 16.8609 13.7076 16.8391 13.6858 16.8264L13.1199 16.4975C13.098 16.4848 13.0604 16.4848 13.0383 16.4975L12.4703 16.8255Z" fill="#525566"/>
<path d="M11.4756 17.4005C11.4536 17.4132 11.4534 17.435 11.4753 17.4477L12.0412 17.7766C12.0631 17.7893 12.1007 17.7893 12.1227 17.7766L12.6923 17.4477C12.7143 17.435 12.7129 17.4141 12.691 17.4014L12.1251 17.0726C12.1033 17.0598 12.0672 17.0589 12.0452 17.0717L11.4756 17.4005Z" fill="#525566"/>
<path d="M14.0354 17.0971C14.0118 17.1108 14.0116 17.1308 14.0351 17.1444L14.5994 17.4724C14.6213 17.4851 14.6574 17.486 14.681 17.4724L15.6927 16.8882C15.7163 16.8746 15.7148 16.8537 15.693 16.841L15.1286 16.513C15.1052 16.4994 15.0707 16.4994 15.0471 16.513L14.0354 17.0971Z" fill="#525566"/>
<path d="M13.025 17.6803C13.003 17.6931 13.0013 17.714 13.0247 17.7276L13.5891 18.0555C13.6109 18.0683 13.6486 18.0683 13.6706 18.0555L14.2386 17.7276C14.2622 17.714 14.2608 17.6931 14.2389 17.6803L13.6746 17.3524C13.6511 17.3388 13.6166 17.3388 13.593 17.3524L13.025 17.6803Z" fill="#525566"/>
<path d="M12.0094 18.2672C11.9874 18.2799 11.9857 18.3008 12.0091 18.3144L12.5734 18.6424C12.5953 18.6551 12.633 18.6551 12.655 18.6424L13.2246 18.3135C13.2466 18.3008 13.2451 18.2799 13.2233 18.2672L12.6589 17.9392C12.6355 17.9256 12.601 17.9256 12.579 17.9383L12.0094 18.2672Z" fill="#525566"/>
<path d="M10.9938 18.854C10.9717 18.8667 10.97 18.8876 10.9935 18.9012L11.5578 19.2292C11.5797 19.2419 11.6173 19.2419 11.6394 19.2292L12.2089 18.9003C12.231 18.8876 12.2311 18.8658 12.2092 18.8531L11.6449 18.5251C11.6214 18.5115 11.5854 18.5124 11.5633 18.5251L10.9938 18.854Z" fill="#525566"/>
<path d="M9.97617 19.4408C9.95415 19.4536 9.95247 19.4744 9.97592 19.4881L10.5402 19.816C10.5621 19.8287 10.5998 19.8287 10.6218 19.816L11.1914 19.4872C11.2134 19.4744 11.2135 19.4526 11.1916 19.4399L10.6273 19.112C10.6039 19.0984 10.5678 19.0993 10.5458 19.112L9.97617 19.4408Z" fill="#525566"/>
<path d="M8.96114 20.0268C8.93754 20.0404 8.93742 20.0604 8.96087 20.074L9.52519 20.402C9.54707 20.4147 9.58314 20.4156 9.60674 20.402L10.1748 20.074C10.1968 20.0613 10.1969 20.0395 10.175 20.0268L9.61072 19.6988C9.58727 19.6852 9.55119 19.6861 9.52917 19.6988L8.96114 20.0268Z" fill="#525566"/>
<path d="M7.94552 20.6137C7.92192 20.6273 7.92179 20.6473 7.94524 20.6609L8.50957 20.9889C8.53144 21.0016 8.56752 21.0025 8.59112 20.9889L9.15912 20.6609C9.18114 20.6482 9.18127 20.6264 9.15939 20.6137L8.59507 20.2857C8.57162 20.2721 8.53554 20.273 8.51352 20.2857L7.94552 20.6137Z" fill="#525566"/>
<path d="M6.92794 21.2005C6.90434 21.2141 6.90421 21.2341 6.92766 21.2477L7.49199 21.5756C7.51386 21.5884 7.54994 21.5893 7.57354 21.5756L8.14156 21.2477C8.16516 21.2341 8.16371 21.2132 8.14184 21.2005L7.57751 20.8725C7.55406 20.8589 7.51956 20.8589 7.49596 20.8725L6.92794 21.2005Z" fill="#525566"/>
<path d="M10.4801 17.9746C10.4565 17.9883 10.4579 18.0092 10.4798 18.0219L11.0457 18.3507C11.0676 18.3634 11.1037 18.3643 11.1273 18.3507L11.6953 18.0228C11.7189 18.0091 11.7174 17.9882 11.6956 17.9755L11.1297 17.6467C11.1078 17.6339 11.0717 17.633 11.0481 17.6467L10.4801 17.9746Z" fill="#525566"/>
<path d="M9.4834 18.5497C9.46137 18.5624 9.46125 18.5842 9.48312 18.5969L10.049 18.9258C10.0709 18.9385 10.1085 18.9385 10.1305 18.9258L10.7001 18.5969C10.7221 18.5842 10.7223 18.5624 10.7004 18.5497L10.1345 18.2208C10.1126 18.2081 10.075 18.2081 10.053 18.2208L9.4834 18.5497Z" fill="#525566"/>
<path d="M8.48926 19.1238C8.46723 19.1365 8.46711 19.1583 8.48898 19.171L9.05486 19.4999C9.07673 19.5126 9.11438 19.5126 9.13641 19.4999L9.70441 19.1719C9.72801 19.1583 9.72656 19.1374 9.70468 19.1247L9.13881 18.7958C9.11693 18.7831 9.08086 18.7822 9.05726 18.7958L8.48926 19.1238Z" fill="#525566"/>
<path d="M7.49571 19.698C7.47211 19.7116 7.47356 19.7325 7.49546 19.7452L8.06133 20.074C8.08321 20.0868 8.11928 20.0877 8.14288 20.074L8.71091 19.7461C8.73293 19.7334 8.73306 19.7116 8.71118 19.6988L8.14528 19.37C8.12341 19.3573 8.08576 19.3573 8.06373 19.37L7.49571 19.698Z" fill="#525566"/>
<path d="M6.49902 20.273C6.477 20.2857 6.47687 20.3075 6.49875 20.3202L7.06462 20.6491C7.0865 20.6618 7.12415 20.6618 7.14617 20.6491L7.71575 20.3202C7.73777 20.3075 7.73632 20.2866 7.71445 20.2739L7.14857 19.9451C7.1267 19.9323 7.09062 19.9314 7.0686 19.9442L6.49902 20.273Z" fill="#525566"/>
<path d="M5.50547 20.8471C5.48187 20.8607 5.48332 20.8816 5.5052 20.8944L6.07107 21.2232C6.09295 21.2359 6.12902 21.2368 6.15262 21.2232L6.72062 20.8953C6.74422 20.8816 6.74277 20.8607 6.7209 20.848L6.15502 20.5192C6.13315 20.5064 6.09707 20.5055 6.07347 20.5192L5.50547 20.8471Z" fill="#525566"/>
<path d="M4.50879 21.4221C4.48676 21.4349 4.48664 21.4567 4.50851 21.4694L5.07439 21.7982C5.09626 21.811 5.13391 21.811 5.15594 21.7982L5.72551 21.4694C5.74754 21.4567 5.74766 21.4349 5.72579 21.4221L5.15991 21.0933C5.13804 21.0806 5.10039 21.0806 5.07836 21.0933L4.50879 21.4221Z" fill="#525566"/>
<path d="M5.52306 22.0117C5.50103 22.0244 5.49933 22.0453 5.52278 22.059L6.08711 22.3869C6.10898 22.3996 6.14663 22.3996 6.16866 22.3869L7.18196 21.8019C7.20556 21.7883 7.20411 21.7674 7.18221 21.7547L6.61788 21.4267C6.59443 21.4131 6.55993 21.4131 6.53633 21.4267L5.52306 22.0117Z" fill="#525566"/>
<path d="M14.5992 17.9456C14.5772 17.9583 14.5755 17.9792 14.599 17.9928L15.1633 18.3208C15.1867 18.3344 15.2228 18.3335 15.2448 18.3208L16.7066 17.4768C16.7302 17.4632 16.7303 17.4432 16.7068 17.4296L16.1425 17.1016C16.1191 17.088 16.0846 17.088 16.061 17.1016L14.5992 17.9456Z" fill="#525566"/>
<path d="M13.5016 18.5788C13.4795 18.5915 13.4778 18.6124 13.5013 18.626L14.0656 18.954C14.0891 18.9676 14.1251 18.9667 14.1472 18.954L14.7167 18.6251C14.7388 18.6124 14.7389 18.5924 14.7154 18.5788L14.1511 18.2509C14.1277 18.2372 14.0932 18.2372 14.0711 18.25L13.5016 18.5788Z" fill="#525566"/>
<path d="M12.508 19.1529C12.4844 19.1665 12.4843 19.1865 12.5078 19.2001L13.0721 19.5281C13.0955 19.5417 13.13 19.5417 13.1536 19.5281L13.7217 19.2001C13.7453 19.1865 13.7454 19.1665 13.7219 19.1529L13.1576 18.8249C13.1342 18.8113 13.0997 18.8113 13.0761 18.8249L12.508 19.1529Z" fill="#525566"/>
<path d="M11.5113 19.7279C11.4893 19.7406 11.4876 19.7615 11.5111 19.7751L12.0754 20.1031C12.0988 20.1167 12.1349 20.1158 12.1569 20.1031L12.7265 19.7742C12.7485 19.7615 12.7502 19.7406 12.7268 19.727L12.1625 19.399C12.139 19.3854 12.1029 19.3863 12.0809 19.399L11.5113 19.7279Z" fill="#525566"/>
<path d="M10.5172 20.302C10.4952 20.3148 10.4935 20.3357 10.5169 20.3493L11.0812 20.6772C11.1047 20.6909 11.1408 20.69 11.1628 20.6772L11.7308 20.3493C11.7544 20.3357 11.7545 20.3157 11.7311 20.302L11.1667 19.9741C11.1433 19.9605 11.1088 19.9605 11.0852 19.9741L10.5172 20.302Z" fill="#525566"/>
<path d="M9.52363 20.8762C9.50003 20.8898 9.49993 20.9098 9.52338 20.9234L10.0877 21.2513C10.1112 21.265 10.1457 21.265 10.1693 21.2513L10.7373 20.9234C10.7593 20.9107 10.761 20.8898 10.7376 20.8761L10.1732 20.5482C10.1497 20.5346 10.1137 20.5355 10.0916 20.5482L9.52363 20.8762Z" fill="#525566"/>
<path d="M8.52696 21.4512C8.50494 21.464 8.50324 21.4849 8.52669 21.4985L9.09101 21.8264C9.11446 21.8401 9.15054 21.8392 9.17256 21.8264L9.74214 21.4976C9.76416 21.4849 9.76426 21.4649 9.74084 21.4513L9.17651 21.1233C9.15306 21.1097 9.11856 21.1097 9.09654 21.1224L8.52696 21.4512Z" fill="#525566"/>
<path d="M6.53673 22.6003C6.5147 22.6131 6.513 22.634 6.53645 22.6476L7.10078 22.9755C7.12423 22.9892 7.1603 22.9883 7.18233 22.9755L8.76678 22.0608C8.79038 22.0471 8.79051 22.0271 8.76706 22.0135L8.20273 21.6856C8.17928 21.6719 8.14478 21.6719 8.12118 21.6856L6.53673 22.6003Z" fill="#525566"/>
<path d="M15.5758 18.5134C15.5538 18.5261 15.5521 18.547 15.5755 18.5606L16.1398 18.8886C16.1633 18.9022 16.1994 18.9013 16.2214 18.8886L17.6831 18.0447C17.7067 18.031 17.7068 18.011 17.6834 17.9974L17.1191 17.6695C17.0956 17.6558 17.0611 17.6558 17.0375 17.6695L15.5758 18.5134Z" fill="#525566"/>
<path d="M9.54845 21.9935C9.52642 22.0062 9.52472 22.0271 9.54817 22.0408L10.1125 22.3687C10.1359 22.3823 10.172 22.3814 10.194 22.3687L15.7813 19.1429C15.8034 19.1302 15.8051 19.1093 15.7816 19.0956L15.2173 18.7677C15.1938 18.7541 15.1578 18.755 15.1357 18.7677L9.54845 21.9935Z" fill="#525566"/>
<path d="M5.72461 21.5704L5.15541 21.8982C5.13509 21.9109 5.09696 21.9109 5.07409 21.8982L4.50744 21.5704C4.49726 21.5627 4.49219 21.5551 4.49219 21.5475V21.4459C4.49219 21.4535 4.49726 21.4637 4.50744 21.4687L5.07409 21.7991C5.09696 21.8118 5.13254 21.8118 5.15541 21.7991L5.72461 21.4687C5.73731 21.4636 5.74241 21.4535 5.74241 21.4459V21.545C5.74239 21.5551 5.73731 21.5628 5.72461 21.5704Z" fill="#3F434F"/>
<path d="M5.50353 20.9936C5.49338 20.9885 5.48828 20.9809 5.48828 20.9707V20.8716C5.48828 20.8792 5.49336 20.8869 5.50353 20.8945L6.07018 21.2223C6.09306 21.235 6.12863 21.2375 6.15151 21.2223L6.72071 20.8945C6.73088 20.8894 6.73596 20.8792 6.73596 20.8716V20.9732C6.73596 20.9809 6.73088 20.9885 6.72071 20.9961L6.15151 21.3239C6.12866 21.3366 6.09306 21.3366 6.07018 21.3239L5.50353 20.9936Z" fill="#3F434F"/>
<path d="M7.49632 19.845C7.48359 19.8399 7.47852 19.8298 7.47852 19.8221V19.7205C7.47852 19.7307 7.48359 19.7383 7.49632 19.7459L8.06042 20.0737C8.08329 20.0864 8.11887 20.0864 8.14174 20.0737L8.71094 19.7459C8.72112 19.7408 8.72619 19.7307 8.72619 19.723L8.72874 19.8221C8.72874 19.8323 8.72112 19.8399 8.71094 19.8476L8.14174 20.1754C8.11887 20.1881 8.08329 20.1881 8.06042 20.1754L7.49632 19.845Z" fill="#3F434F"/>
<path d="M9.60661 20.4015L10.1733 20.0737C10.186 20.0686 10.1911 20.0584 10.1911 20.0508V20.1499C10.1911 20.1601 10.186 20.1677 10.1733 20.1754L9.60661 20.5032C9.58373 20.5159 9.54563 20.5159 9.52528 20.5032L8.96116 20.1754C8.94846 20.1677 8.94336 20.1601 8.94336 20.1499V20.0508C8.94336 20.0585 8.94843 20.0661 8.96116 20.0737L9.52528 20.4015C9.54561 20.4142 9.58118 20.4167 9.60661 20.4015Z" fill="#3F434F"/>
<path d="M9.63822 22.6783L9.64077 22.7748C9.64077 22.785 9.63314 22.7926 9.62297 22.7977L8.15932 23.6439C8.13644 23.6566 8.10087 23.6566 8.07799 23.6439L7.51389 23.3161C7.50117 23.3084 7.49609 23.3008 7.49609 23.2932V23.1916C7.49609 23.1992 7.50117 23.2094 7.51389 23.2144L8.07799 23.5422C8.10087 23.5575 8.13644 23.5549 8.15932 23.5422L9.62297 22.6986C9.63059 22.691 9.63822 22.6859 9.63822 22.6783Z" fill="#3F434F"/>
<path d="M9.48205 18.6964C9.47187 18.6913 9.4668 18.6837 9.4668 18.6735V18.5744C9.4668 18.5821 9.47187 18.5897 9.48205 18.5973L10.0487 18.9251C10.0715 18.9378 10.1071 18.9378 10.13 18.9251L10.6992 18.5973C10.7119 18.5897 10.717 18.582 10.717 18.5719V18.6735C10.717 18.6811 10.7119 18.6913 10.6992 18.6964L10.13 19.0267C10.1071 19.0394 10.0716 19.0394 10.0487 19.0267L9.48205 18.6964Z" fill="#3F434F"/>
<path d="M6.50022 20.4218C6.48752 20.4142 6.48242 20.4066 6.48242 20.3964V20.2973C6.48242 20.3049 6.4875 20.3151 6.50022 20.3202L7.06435 20.648C7.0872 20.6607 7.12532 20.6607 7.14567 20.648L7.71742 20.3202C7.72757 20.3151 7.73267 20.3049 7.73267 20.2973V20.399C7.73267 20.4066 7.7276 20.4142 7.71742 20.4218L7.14822 20.7496C7.12535 20.7623 7.08722 20.7623 7.06437 20.7496L6.50022 20.4218Z" fill="#3F434F"/>
<path d="M8.52757 21.5984C8.51484 21.5933 8.50977 21.5831 8.50977 21.5755V21.4764C8.50977 21.484 8.51484 21.4917 8.52502 21.4993L9.09167 21.8271C9.11454 21.8398 9.15012 21.8398 9.17299 21.8271L9.74219 21.4968C9.75237 21.4917 9.75744 21.484 9.75744 21.4739V21.5755C9.75744 21.5832 9.75237 21.5908 9.74219 21.5984L9.17299 21.9262C9.15012 21.9389 9.11454 21.9414 9.09167 21.9262L8.52757 21.5984Z" fill="#3F434F"/>
<path d="M8.47325 19.2478L8.4707 19.1487C8.4707 19.1564 8.47833 19.164 8.4885 19.1716L9.05515 19.4994C9.07548 19.5121 9.1136 19.5121 9.13648 19.4994L9.70315 19.1716C9.71585 19.164 9.72093 19.1563 9.72093 19.1487V19.2478C9.72093 19.258 9.71585 19.2656 9.70315 19.2733L9.13648 19.6011C9.11363 19.6138 9.0755 19.6138 9.05515 19.6011L8.4885 19.2707C8.47833 19.2656 8.47325 19.2555 8.47325 19.2478Z" fill="#3F434F"/>
<path d="M7.57536 21.5755L8.14201 21.2477C8.15471 21.2401 8.15981 21.2325 8.15981 21.2249V21.324C8.15981 21.3341 8.15473 21.3417 8.14201 21.3494L7.57536 21.6772C7.55248 21.6899 7.51438 21.6899 7.49403 21.6772L6.92991 21.3494C6.91721 21.3417 6.91211 21.3341 6.91211 21.324V21.2249C6.91211 21.2325 6.91718 21.2401 6.92991 21.2477L7.49403 21.5755C7.51436 21.5882 7.54993 21.5882 7.57536 21.5755Z" fill="#3F434F"/>
<path d="M7.18296 21.9033L6.16908 22.4878C6.14623 22.5005 6.10811 22.5005 6.08776 22.4878L5.52366 22.16C5.51096 22.1523 5.50586 22.1447 5.50586 22.1371V22.0355C5.50586 22.0431 5.51093 22.0533 5.52366 22.0583L6.08776 22.3861C6.10808 22.3988 6.14621 22.3988 6.16908 22.3861L7.18296 21.8017C7.19313 21.794 7.19821 21.7864 7.19821 21.7788V21.8779C7.19821 21.8881 7.19313 21.8957 7.18296 21.9033Z" fill="#3F434F"/>
<path d="M8.50966 21.0901L7.94553 20.7623C7.93283 20.7547 7.92773 20.7471 7.92773 20.7369V20.6378C7.92773 20.6454 7.93281 20.6531 7.94553 20.6607L8.50966 20.9885C8.52998 21.0012 8.56556 21.0012 8.59098 20.9885L9.15763 20.6607C9.17033 20.6556 9.17544 20.6454 9.17544 20.6378V20.7369C9.17544 20.7471 9.17036 20.7547 9.15763 20.7623L8.59098 21.0901C8.56811 21.1028 8.52998 21.1028 8.50966 21.0901Z" fill="#3F434F"/>
<path d="M8.76583 22.1624L7.18021 23.0772C7.15988 23.0899 7.12431 23.0899 7.09891 23.0772L6.53478 22.7469C6.52463 22.7418 6.51953 22.7342 6.51953 22.724V22.6249C6.51953 22.6325 6.52461 22.6402 6.53478 22.6478L7.09891 22.9756C7.12431 22.9883 7.15988 22.9883 7.18021 22.9756L8.76583 22.0608C8.77853 22.0531 8.78363 22.0455 8.78363 22.0379V22.137C8.78363 22.1447 8.77853 22.1548 8.76583 22.1624Z" fill="#3F434F"/>
<path d="M10.0878 21.3518L9.52366 21.024C9.51096 21.0164 9.50586 21.0088 9.50586 21.0012V20.8995C9.50586 20.9072 9.51093 20.9173 9.52111 20.9224L10.0878 21.2502C10.1106 21.2655 10.1437 21.2655 10.1691 21.2502L10.7358 20.9224C10.7485 20.9173 10.7536 20.9072 10.7536 20.8995V21.0012C10.7536 21.0088 10.7485 21.0164 10.7358 21.024L10.1691 21.3518C10.1437 21.3645 10.1106 21.3645 10.0878 21.3518Z" fill="#3F434F"/>
<path d="M11.4748 17.5479C11.4621 17.5428 11.457 17.5327 11.457 17.5251V17.4234C11.457 17.4336 11.4621 17.4412 11.4748 17.4488L12.039 17.7766C12.0618 17.7893 12.0999 17.7893 12.1203 17.7766L12.6895 17.4488C12.7022 17.4412 12.7072 17.4336 12.7072 17.426V17.5251C12.7072 17.5352 12.7022 17.5429 12.692 17.5479L12.1202 17.8783C12.0999 17.891 12.0618 17.891 12.0389 17.8783L11.4748 17.5479Z" fill="#3F434F"/>
<path d="M13.0702 19.629L12.5061 19.3012C12.4959 19.2936 12.4883 19.2859 12.4883 19.2783V19.1767C12.4883 19.1843 12.4959 19.1945 12.5061 19.1995L13.0702 19.5273C13.0931 19.5426 13.1287 19.5426 13.1515 19.5273L13.7207 19.1995C13.7309 19.1945 13.7385 19.1843 13.7385 19.1767V19.2758C13.7385 19.2859 13.7334 19.2936 13.7207 19.3012L13.1515 19.629C13.1286 19.6417 13.0956 19.6417 13.0702 19.629Z" fill="#3F434F"/>
<path d="M11.0819 20.7776L10.5178 20.4498C10.5051 20.4422 10.5 20.4345 10.5 20.4269V20.3253C10.5 20.3354 10.5051 20.3431 10.5178 20.3481L11.0819 20.6785C11.1047 20.6912 11.1404 20.6912 11.1632 20.6785L11.7324 20.3481C11.74 20.3431 11.7477 20.3354 11.7477 20.3278L11.7502 20.4269C11.7502 20.4345 11.7426 20.4422 11.7324 20.4498L11.1632 20.7776C11.1404 20.7903 11.1048 20.7903 11.0819 20.7776Z" fill="#3F434F"/>
<path d="M11.6378 19.2301L12.207 18.8997C12.2197 18.8947 12.2248 18.8845 12.2248 18.8769V18.976C12.2248 18.9862 12.2198 18.9938 12.207 19.0014L11.6378 19.3292C11.6175 19.3419 11.5794 19.3419 11.5565 19.3292L10.9924 19.0014C10.9822 18.9963 10.9746 18.9862 10.9746 18.9785V18.8769C10.9746 18.8871 10.9797 18.8947 10.9924 18.9023L11.5565 19.2301C11.5794 19.2428 11.615 19.2428 11.6378 19.2301Z" fill="#3F434F"/>
<path d="M10.6222 19.817L11.1914 19.4867C11.2041 19.4816 11.2092 19.4715 11.2092 19.4639V19.563C11.2092 19.5731 11.2041 19.5808 11.1914 19.5884L10.6222 19.9162C10.6019 19.9289 10.5638 19.9289 10.5409 19.9162L9.97676 19.5884C9.96661 19.5808 9.95898 19.5731 9.95898 19.5655V19.4639C9.95898 19.474 9.96406 19.4817 9.97676 19.4893L10.5409 19.8171C10.5638 19.8298 10.5993 19.8298 10.6222 19.817Z" fill="#3F434F"/>
<path d="M12.0741 20.2033L11.51 19.8755C11.4998 19.8679 11.4947 19.8602 11.4947 19.8526L11.4922 19.751C11.4922 19.7611 11.4998 19.7688 11.51 19.7764L12.0741 20.1042C12.097 20.1169 12.1351 20.1169 12.1554 20.1042L12.7246 19.7739C12.7373 19.7688 12.7424 19.7586 12.7424 19.751V19.8501C12.7424 19.8603 12.7373 19.8679 12.7272 19.8755L12.1554 20.2033C12.1351 20.216 12.0995 20.216 12.0741 20.2033Z" fill="#3F434F"/>
<path d="M12.4709 16.9736C12.4582 16.966 12.4531 16.9583 12.4531 16.9507V16.8491C12.4531 16.8567 12.4582 16.8669 12.4684 16.872L13.035 17.2023C13.0579 17.215 13.0935 17.215 13.1164 17.2023L13.6855 16.8745C13.6957 16.8669 13.7008 16.8592 13.7008 16.8491V16.9507C13.7008 16.9583 13.6957 16.9685 13.6855 16.9736L13.1164 17.3014C13.0935 17.3166 13.0579 17.3141 13.035 17.3014L12.4709 16.9736Z" fill="#3F434F"/>
<path d="M10.4781 18.1222C10.468 18.1171 10.4629 18.1069 10.4629 18.0993V17.9977C10.4629 18.0078 10.468 18.0155 10.4781 18.0231L11.0448 18.3509C11.0677 18.3636 11.1032 18.3636 11.1261 18.3509L11.6953 18.0231C11.7055 18.0155 11.7106 18.0078 11.7106 18.0002V18.0993C11.7106 18.107 11.7055 18.1171 11.6953 18.1222L11.1261 18.45C11.1032 18.4652 11.0677 18.4627 11.0448 18.45L10.4781 18.1222Z" fill="#3F434F"/>
<path d="M12.6535 18.6431L13.2227 18.3127C13.2303 18.3077 13.2379 18.3026 13.2379 18.2949L13.2405 18.3915C13.2405 18.3991 13.2354 18.4067 13.2227 18.4144L12.6535 18.7422C12.6331 18.7549 12.595 18.7549 12.5721 18.7422L12.008 18.4144C11.9979 18.4093 11.9902 18.3991 11.9902 18.3915V18.2899C11.9902 18.3 11.9953 18.3076 12.008 18.3153L12.5721 18.6431C12.595 18.6558 12.6306 18.6558 12.6535 18.6431Z" fill="#3F434F"/>
<path d="M13.4498 16.3765L13.4473 16.2748C13.4473 16.285 13.4549 16.2926 13.4651 16.2977L14.0317 16.628C14.052 16.6407 14.0902 16.6407 14.113 16.628L14.6797 16.3002C14.6924 16.2926 14.6975 16.285 14.6975 16.2748V16.3764C14.6975 16.3841 14.6924 16.3942 14.6797 16.3993L14.113 16.7271C14.0902 16.7398 14.0521 16.7398 14.0317 16.7271L13.4651 16.3993C13.4549 16.3917 13.4498 16.3841 13.4498 16.3765Z" fill="#3F434F"/>
<path d="M13.5897 18.1552L13.0256 17.8274C13.0154 17.8223 13.0078 17.8121 13.0078 17.8045V17.7054C13.0078 17.713 13.0129 17.7207 13.0256 17.7283L13.5897 18.0561C13.6126 18.0688 13.6482 18.0688 13.671 18.0561L14.2402 17.7283C14.2504 17.7207 14.2555 17.713 14.2555 17.7029L14.258 17.8045C14.258 17.8121 14.2504 17.8223 14.2402 17.8274L13.671 18.1552C13.6507 18.1679 13.6126 18.1679 13.5897 18.1552Z" fill="#3F434F"/>
<path d="M15.7797 19.1437C15.7924 19.1361 15.7975 19.1285 15.7975 19.1183V19.2199C15.7975 19.2276 15.7924 19.2377 15.7797 19.2428L10.1945 22.4699C10.1716 22.4827 10.136 22.4827 10.1132 22.4699L9.5465 22.1421C9.53633 22.1345 9.53125 22.1269 9.53125 22.1167V22.0176C9.53125 22.0253 9.53633 22.0354 9.5465 22.0405L10.1106 22.3683C10.136 22.3835 10.1716 22.381 10.1945 22.3683L15.7797 19.1437Z" fill="#3F434F"/>
<path d="M14.0663 19.0547L13.5021 18.7269C13.4894 18.7193 13.4844 18.7117 13.4844 18.7041V18.6024C13.4844 18.61 13.4895 18.6202 13.4996 18.6253L14.0663 18.9531C14.0891 18.9683 14.1247 18.9658 14.1476 18.9531L14.7168 18.6253C14.7269 18.6176 14.732 18.61 14.732 18.6024V18.7041C14.732 18.7117 14.727 18.7193 14.7168 18.7244L14.1476 19.0547C14.1247 19.0674 14.0891 19.0674 14.0663 19.0547Z" fill="#3F434F"/>
<path d="M14.6827 17.4716L15.6941 16.8872C15.7043 16.8821 15.7119 16.8719 15.7119 16.8643V16.966C15.7119 16.9736 15.7068 16.9812 15.6941 16.9888L14.6827 17.5733C14.6573 17.586 14.6218 17.586 14.6014 17.5733L14.0373 17.2455C14.0246 17.2379 14.0195 17.2302 14.0195 17.2201V17.121C14.0195 17.1286 14.0246 17.1388 14.0348 17.1439L14.6014 17.4717C14.6218 17.4843 14.6573 17.4869 14.6827 17.4716Z" fill="#3F434F"/>
<path d="M15.2433 18.3204L16.7044 17.4767C16.7171 17.4691 16.7222 17.4615 16.7222 17.4539L16.7248 17.553C16.7248 17.5631 16.7171 17.5708 16.707 17.5784L15.2433 18.422C15.223 18.4347 15.1849 18.4347 15.162 18.422L14.5979 18.0942C14.5877 18.0866 14.5801 18.0789 14.5801 18.0688V17.9697C14.5801 17.9773 14.5877 17.9849 14.5979 17.9925L15.162 18.3203C15.1848 18.3356 15.223 18.3331 15.2433 18.3204Z" fill="#3F434F"/>
<path d="M17.7007 18.0205V18.1221C17.7007 18.1298 17.6956 18.1374 17.6829 18.145L16.2218 18.9886C16.199 19.0013 16.1634 19.0013 16.1405 18.9886L15.5764 18.6608C15.5637 18.6532 15.5586 18.6456 15.5586 18.638V18.5363C15.5586 18.5465 15.5637 18.5541 15.5764 18.5617L16.1405 18.8895C16.1634 18.9022 16.1989 18.9022 16.2218 18.8895L17.6829 18.0434C17.6956 18.0383 17.7007 18.0281 17.7007 18.0205Z" fill="#3F434F"/>
<path d="M7.51329 23.1681C7.49127 23.1809 7.48957 23.2018 7.51302 23.2154L8.07734 23.5433C8.10079 23.557 8.13687 23.5561 8.15889 23.5433L9.62219 22.6985C9.64422 22.6858 9.64592 22.6649 9.62247 22.6513L9.05814 22.3233C9.03469 22.3097 8.99862 22.3106 8.97659 22.3233L7.51329 23.1681Z" fill="#525566"/>
<path d="M6.98242 10.6883L8.66272 9.71967V9.81357L6.98242 10.7872V10.6883Z" fill="#9CA1AB"/>
<path d="M6.83117 10.8711L2.29688 13.4953V13.3965L6.83117 10.7772V10.8711Z" fill="#9CA1AB"/>
<path d="M7.73047 11.1849V11.0886L8.66204 10.5474V10.6463L7.73047 11.1849Z" fill="#9CA1AB"/>
<path d="M8.11328 11.6989L8.66431 11.3802V11.4765L8.11328 11.7928V11.6989Z" fill="#9CA1AB"/>
<path d="M8.3872 13.0827L6.7168 14.0464V13.95L8.38472 12.9863L8.3872 13.0827Z" fill="#9CA1AB"/>
<path d="M6.50995 10.2262L2.29688 12.6651V12.5663L6.50995 10.1274V10.2262Z" fill="#9CA1AB"/>
<path d="M7.187 14.0514L2.29688 16.8806V16.7843L7.187 13.9575V14.0514Z" fill="#9CA1AB"/>
<path d="M8.02154 11.2936L6.10156 12.4007V12.3043L8.02154 11.1973V11.2936Z" fill="#9CA1AB"/>
<path d="M8.66486 11.7533L6.07031 13.2507V13.1568L8.66486 11.6569V11.7533Z" fill="#9CA1AB"/>
<path d="M5.94903 14.1526L2.29688 16.2653V16.1714L5.94903 14.0563V14.1526Z" fill="#9CA1AB"/>
<path d="M8.03521 15.2275L6.11523 16.3345V16.2382L8.03273 15.1312L8.03521 15.2275Z" fill="#9CA1AB"/>
<path d="M6.25391 13.4261V13.3273L7.33128 12.7021V12.801L6.25391 13.4261Z" fill="#9CA1AB"/>
<path d="M5.5858 11.8669L2.29688 13.7696V13.6757L5.5858 11.7706V11.8669Z" fill="#9CA1AB"/>
<path d="M8.60006 10.1273L5.91406 11.6766V11.5828L8.60006 10.0334V10.1273Z" fill="#9CA1AB"/>
<path d="M7.50977 9.83084L8.65879 9.16864V9.26254L7.50977 9.92479V9.83084Z" fill="#9CA1AB"/>
<path d="M5.78595 13.4162L2.29688 15.4351V15.3387L5.78595 13.3199V13.4162Z" fill="#9CA1AB"/>
<path d="M2.29688 20.1103L5.95892 17.9901V18.0865L2.29688 20.2066V20.1103Z" fill="#9CA1AB"/>
<path d="M5.63767 12.3933L2.29688 14.3281V14.2292L5.63767 12.2969V12.3933Z" fill="#9CA1AB"/>
<path d="M5.59815 15.8008L2.29688 17.7109V17.617L5.59815 15.7044V15.8008Z" fill="#9CA1AB"/>
<path d="M6.04045 17.4885L2.29688 19.6531V19.5542L6.04045 17.3896V17.4885Z" fill="#9CA1AB"/>
<path d="M6.3765 12.5193L2.29688 14.8791V14.7828L6.3765 12.4254V12.5193Z" fill="#9CA1AB"/>
<path d="M8.28819 13.5966V13.693L6.24219 14.8766V14.7778L8.28819 13.5966Z" fill="#9CA1AB"/>
<path d="M6.0701 11.0343L2.29688 13.2186V13.1198L6.0701 10.9379V11.0343Z" fill="#9CA1AB"/>
<path d="M6.5223 14.16L2.29688 16.6014V16.505L6.5223 14.0612V14.16Z" fill="#9CA1AB"/>
<path d="M7.60664 15.1979L5.96094 16.1443V16.0479L7.60664 15.0991V15.1979Z" fill="#9CA1AB"/>
<path d="M8.66261 11.1998L7.11328 12.0943V12.0004L8.66261 11.1034V11.1998Z" fill="#9CA1AB"/>
<path d="M5.89468 12.5218L2.29688 14.6024V14.506L5.89468 12.4254V12.5218Z" fill="#9CA1AB"/>
<path d="M6.58903 11.5679L2.29688 14.0488V13.9525L6.58655 11.4691L6.58903 11.5679Z" fill="#9CA1AB"/>
<path d="M7.84183 11.9535L2.29688 15.1584V15.062L7.84183 11.8546V11.9535Z" fill="#9CA1AB"/>
<path d="M8.6637 12.03L7.38867 12.7664V12.67L8.6637 11.9337V12.03Z" fill="#9CA1AB"/>
<path d="M7.7232 12.8529L2.29688 15.9911V15.8922L7.7232 12.754V12.8529Z" fill="#9CA1AB"/>
<path d="M5.92773 15.5166L8.61123 13.9648V14.0612L5.92773 15.6106V15.5166Z" fill="#9CA1AB"/>
<path d="M5.7983 17.3501L2.29688 19.3739V19.28L5.7983 17.2513V17.3501Z" fill="#9CA1AB"/>
<path d="M8.41502 12.7293L6.29492 13.9525V13.8586L8.41502 12.633V12.7293Z" fill="#9CA1AB"/>
<path d="M8.66306 10.3695L6.83203 11.4271V11.3307L8.66306 10.2731V10.3695Z" fill="#9CA1AB"/>
<path d="M6.5989 15.5018L2.29688 17.9876V17.8938L6.5989 15.403V15.5018Z" fill="#9CA1AB"/>
<path d="M7.17712 10.1175L2.29688 12.9394V12.8455L7.17465 10.0236L7.17712 10.1175Z" fill="#9CA1AB"/>
<path d="M5.95117 12.114L7.5944 11.1652V11.264L5.95117 12.2129V12.114Z" fill="#9CA1AB"/>
<path d="M6.08 14.9706L2.29688 17.1574V17.061L6.08 14.8717V14.9706Z" fill="#9CA1AB"/>
<path d="M7.73555 16.7843L2.29688 19.9274V19.8335L7.73555 16.6904V16.7843Z" fill="#9CA1AB"/>
<path d="M7.85418 15.8873L2.29688 19.0971V19.0008L7.85418 15.7885V15.8873Z" fill="#9CA1AB"/>
<path d="M8.27644 9.75922L6.23047 10.9428V10.8465L8.27644 9.66284V9.75922Z" fill="#9CA1AB"/>
<path d="M7.3435 16.636V16.7348L6.26367 17.36V17.2612L7.3435 16.636Z" fill="#9CA1AB"/>
<path d="M6.0281 13.5547L2.29688 15.7118V15.613L6.0281 13.4558V13.5547Z" fill="#9CA1AB"/>
<path d="M8.37548 9.14882L6.70508 10.1126V10.0161L8.37548 9.05249V9.14882Z" fill="#9CA1AB"/>
<path d="M6.30664 17.7924L8.42182 16.5693V16.6632L6.30664 17.8864V17.7924Z" fill="#9CA1AB"/>
<path d="M5.64757 16.3271L2.29688 18.2669V18.1705L5.64757 16.2307V16.3271Z" fill="#9CA1AB"/>
<path d="M5.90455 16.4556L2.29688 18.5436V18.4473L5.90455 16.3593V16.4556Z" fill="#9CA1AB"/>
<path d="M6.3864 16.4532L2.29688 18.8204V18.724L6.3864 16.3593V16.4532Z" fill="#9CA1AB"/>
<path d="M6.84105 14.805L2.29688 17.4341V17.3378L6.84105 14.7111V14.805Z" fill="#9CA1AB"/>
<path d="M6.8418 15.2646L8.67282 14.207V14.3034L6.8418 15.361V15.2646Z" fill="#9CA1AB"/>
<path d="M7.52148 13.7622L8.67051 13.1V13.1964L7.52148 13.8611V13.7622Z" fill="#9CA1AB"/>
<path d="M8.67763 15.5908V15.6871L6.0806 17.187L6.07812 17.0907L8.67763 15.5908Z" fill="#9CA1AB"/>
<path d="M7.87891 12.665L8.66716 12.2079V12.3092L7.87891 12.7614V12.665Z" fill="#9CA1AB"/>
<path d="M7.40234 16.6038L8.67739 15.8675V15.9639L7.40234 16.7002V16.6038Z" fill="#9CA1AB"/>
<path d="M7.89062 16.599L8.67643 16.1418V16.2406L7.89062 16.6953V16.599Z" fill="#9CA1AB"/>
<path d="M8.67432 15.1336L7.125 16.0281V15.9342L8.67432 15.0348V15.1336Z" fill="#9CA1AB"/>
<path d="M6.99464 14.7185L6.99219 14.6221L8.66999 13.6534V13.7474L6.99464 14.7185Z" fill="#9CA1AB"/>
<path d="M8.12552 15.7267L8.12305 15.6328L8.6741 15.314V15.4079L8.12552 15.7267Z" fill="#9CA1AB"/>
<path d="M8.67181 14.5801L7.74023 15.1188V15.0224L8.67181 14.4813V14.5801Z" fill="#9CA1AB"/>
<path d="M10.4097 8.29065L10.4125 9.24737L9.5789 9.72865L9.57617 8.77192L10.4097 8.29065Z" fill="#FED57A"/>
<path d="M11.9039 7.42773L11.9066 8.38446L11.073 8.86571L11.0703 7.90898L11.9039 7.42773Z" fill="#9AD898"/>
<path d="M13.4 6.56427L13.4027 7.521L12.5691 8.00225L12.5664 7.04552L13.4 6.56427Z" fill="#748BFD"/>
<path d="M10.4137 9.86438L10.4164 10.82L9.58278 11.3013L9.58008 10.3457L10.4137 9.86438Z" fill="#748BFD"/>
<path d="M11.9097 9.00146L11.9124 9.95709L11.0789 10.4384L11.0762 9.48274L11.9097 9.00146Z" fill="#E29C40"/>
<path d="M13.4039 8.138L13.4066 9.09363L12.573 9.5749L12.5703 8.61928L13.4039 8.138Z" fill="#797D84"/>
<path d="M10.4195 11.437L10.4222 12.3938L9.58864 12.875L9.58594 11.9183L10.4195 11.437Z" fill="#F9607F"/>
<path d="M11.9136 10.5741L11.9164 11.5308L11.0828 12.0121L11.0801 11.0553L11.9136 10.5741Z" fill="#75CA75"/>
<path d="M13.4097 9.71063L13.4124 10.6674L12.5789 11.1486L12.5762 10.1919L13.4097 9.71063Z" fill="#F9607F"/>
<path d="M13.413 11.9906L9.59037 14.1972L9.58789 13.8661L13.4105 11.657L13.413 11.9906Z" fill="#9CA1AB"/>
<path d="M13.413 12.8232L9.59037 15.0298L9.58789 14.6987L13.4105 12.4896L13.413 12.8232Z" fill="#9CA1AB"/>
<path d="M13.413 13.6559L9.59037 15.8625L9.58789 15.5314L13.4105 13.3223L13.413 13.6559Z" fill="#9CA1AB"/>
<path d="M4.17956 25.6536L4.17506 26.1083L2.44336 27.078L2.44783 26.6234L4.17956 25.6536Z" fill="#CAD0DD"/>
<path d="M2.44732 26.6233L2.44285 27.078L0.701172 26.1091L0.705672 25.6544L2.44732 26.6233Z" fill="#D4DAE8"/>
<path d="M4.17845 25.6536L2.44673 26.6233L0.705078 25.6544L2.43678 24.6847L4.17845 25.6536Z" fill="#E4E8F4"/>
<path d="M32.1103 20.5318L32.1053 21.0415L30.1641 22.1285L30.1691 21.6188L32.1103 20.5318Z" fill="#F34858"/>
<path d="M30.1683 21.6189L30.1633 22.1285L28.2109 21.0424L28.216 20.5327L30.1683 21.6189Z" fill="#FA5168"/>
<path d="M32.1084 20.5318L30.1672 21.6189L28.2148 20.5327L30.156 19.4457L32.1084 20.5318Z" fill="#F9607F"/>
<path d="M14.3798 30.0731L14.3748 30.5828L12.4336 31.6698L12.4386 31.1601L14.3798 30.0731Z" fill="#EFAC41"/>
<path d="M12.4378 31.1602L12.4328 31.6698L10.4805 30.5837L10.4855 30.074L12.4378 31.1602Z" fill="#F9BB4A"/>
<path d="M14.3779 30.0731L12.4367 31.1602L10.4844 30.074L12.4256 28.987L14.3779 30.0731Z" fill="#FED57A"/>
</g>
<defs>
<clipPath id="clip0_749_3289">
<rect width="33" height="33" fill="white"/>
</clipPath>
</defs>
</svg>
