<svg width="33" height="33" viewBox="0 0 33 33" fill="none" xmlns="http://www.w3.org/2000/svg">
<path d="M29.9062 24.75H3.09375C2.52398 24.75 2.0625 24.2885 2.0625 23.7188V7.21875H30.9375V23.7188C30.9375 24.2885 30.476 24.75 29.9062 24.75Z" fill="#F0F0F0"/>
<path d="M2.57812 15.9844H2.79623C3.03136 15.9844 3.2273 16.1473 3.29175 16.3737C3.40158 16.7573 3.5542 17.1224 3.74498 17.4632C3.85636 17.6632 3.83419 17.9102 3.67228 18.0721L3.50986 18.2346C3.30825 18.4357 3.30825 18.7626 3.50986 18.9637L4.23895 19.6928C4.44056 19.8944 4.76695 19.8944 4.96805 19.6928L5.13047 19.5303C5.29237 19.3684 5.53936 19.3457 5.73942 19.4576C6.08077 19.6484 6.44583 19.801 6.82894 19.9109C7.05581 19.9758 7.21875 20.1718 7.21875 20.4069V20.625C7.21875 20.9096 7.44975 21.1406 7.73438 21.1406H8.76562C9.05025 21.1406 9.28125 20.9096 9.28125 20.625V20.4069C9.28125 20.1718 9.44419 19.9758 9.67055 19.9114C10.0542 19.8015 10.4192 19.6484 10.7601 19.4581C10.9601 19.3462 11.2071 19.3689 11.369 19.5308L11.5314 19.6933C11.733 19.8949 12.0594 19.8949 12.2605 19.6933L12.9896 18.9642C13.1912 18.7631 13.1912 18.4362 12.9896 18.2351L12.8272 18.0727C12.6653 17.9107 12.6426 17.6638 12.7545 17.4637C12.9453 17.1224 13.0979 16.7573 13.2077 16.3742C13.2727 16.1473 13.4686 15.9844 13.7038 15.9844H13.9219C14.2065 15.9844 14.4375 15.7534 14.4375 15.4688V14.4375C14.4375 14.1529 14.2065 13.9219 13.9219 13.9219H13.7038C13.4686 13.9219 13.2727 13.7589 13.2083 13.5326C13.0984 13.149 12.9458 12.7839 12.755 12.4431C12.6436 12.2435 12.6658 11.996 12.8277 11.8341L12.9901 11.6717C13.1918 11.4701 13.1918 11.1437 12.9901 10.9426L12.261 10.2135C12.0594 10.0119 11.733 10.0119 11.532 10.2135L11.3695 10.3759C11.2076 10.5378 10.9606 10.5605 10.7606 10.4486C10.4192 10.2578 10.0542 10.1052 9.67106 9.99539C9.44419 9.93042 9.28125 9.73448 9.28125 9.49936V9.28125C9.28125 8.99663 9.05025 8.76562 8.76562 8.76562H7.73438C7.44975 8.76562 7.21875 8.99663 7.21875 9.28125V9.49936C7.21875 9.73448 7.05581 9.93042 6.82945 9.99488C6.44583 10.1047 6.08077 10.2578 5.73994 10.4481C5.53988 10.5595 5.29289 10.5373 5.13098 10.3754L4.96856 10.213C4.76695 10.0114 4.44056 10.0114 4.23947 10.213L3.51038 10.9421C3.30877 11.1437 3.30877 11.4701 3.51038 11.6712L3.6728 11.8336C3.8347 11.9955 3.85739 12.2425 3.7455 12.4425C3.55472 12.7839 3.40209 13.149 3.29227 13.5321C3.2273 13.7589 3.03136 13.9219 2.79623 13.9219H2.57812C2.2935 13.9219 2.0625 14.1529 2.0625 14.4375V15.4688C2.0625 15.7534 2.2935 15.9844 2.57812 15.9844ZM8.25 11.8594C9.95878 11.8594 11.3438 13.2443 11.3438 14.9531C11.3438 16.6619 9.95878 18.0469 8.25 18.0469C6.54122 18.0469 5.15625 16.6619 5.15625 14.9531C5.15625 13.2443 6.54122 11.8594 8.25 11.8594Z" fill="#D2D2D2"/>
<path d="M18.2683 21.5872L17.7527 20.6941C17.6104 20.4476 17.2948 20.3631 17.0483 20.5054L16.7436 20.6812C16.5765 20.7776 16.3662 20.7787 16.2084 20.6683C16.0635 20.5672 15.9098 20.4786 15.7484 20.4033C15.5736 20.3218 15.4695 20.1388 15.4695 19.9459V19.5938C15.4695 19.3091 15.2385 19.0781 14.9539 19.0781H13.9226C13.638 19.0781 13.407 19.3091 13.407 19.5938V19.9459C13.407 20.1388 13.3028 20.3218 13.128 20.4033C12.9666 20.4786 12.813 20.5672 12.6681 20.6683C12.5103 20.7787 12.2994 20.7776 12.1329 20.6812L11.8281 20.5054C11.5817 20.3631 11.2661 20.4476 11.1238 20.6941L10.6082 21.5872C10.4659 21.8336 10.5504 22.1492 10.7969 22.2915L11.3986 22.6385C11.3646 22.8221 11.3445 23.0103 11.3445 23.2031C11.3445 23.396 11.3646 23.5842 11.3981 23.7672L10.7964 24.1142C10.5716 24.2442 10.4911 24.5154 10.5844 24.7495H13.0868C12.6547 24.372 12.3757 23.8229 12.3757 23.2031C12.3757 22.0641 13.2992 21.1406 14.4382 21.1406C15.5772 21.1406 16.5007 22.0641 16.5007 23.2031C16.5007 23.8229 16.2218 24.372 15.7892 24.75H18.2915C18.3848 24.5159 18.3044 24.2447 18.0796 24.1148L17.4778 23.7677C17.5119 23.5842 17.532 23.396 17.532 23.2031C17.532 23.0103 17.5119 22.8221 17.4784 22.639L18.0801 22.292C18.326 22.1492 18.4106 21.8336 18.2683 21.5872Z" fill="#D2D2D2"/>
<path d="M30.4219 16.5C30.4219 13.083 27.6514 10.3125 24.2344 10.3125C20.8173 10.3125 18.0469 13.083 18.0469 16.5C18.0469 19.7433 20.5435 22.3988 23.7188 22.6612V23.7188C23.4341 23.7188 23.2031 23.9497 23.2031 24.2344V24.75H25.2656V24.2344C25.2656 23.9497 25.0346 23.7188 24.75 23.7188V22.6612C27.9252 22.3988 30.4219 19.7433 30.4219 16.5Z" fill="#D2D2D2"/>
<path d="M30.9375 7.21875H2.0625V5.15625C2.0625 4.58648 2.52398 4.125 3.09375 4.125H29.9062C30.476 4.125 30.9375 4.58648 30.9375 5.15625V7.21875Z" fill="#C80A50"/>
<path d="M28.875 6.1875C29.1598 6.1875 29.3906 5.95665 29.3906 5.67188C29.3906 5.3871 29.1598 5.15625 28.875 5.15625C28.5902 5.15625 28.3594 5.3871 28.3594 5.67188C28.3594 5.95665 28.5902 6.1875 28.875 6.1875Z" fill="#FAB400"/>
<path d="M26.8125 6.1875C27.0973 6.1875 27.3281 5.95665 27.3281 5.67188C27.3281 5.3871 27.0973 5.15625 26.8125 5.15625C26.5277 5.15625 26.2969 5.3871 26.2969 5.67188C26.2969 5.95665 26.5277 6.1875 26.8125 6.1875Z" fill="#00A0C8"/>
<path d="M24.75 6.1875C25.0348 6.1875 25.2656 5.95665 25.2656 5.67188C25.2656 5.3871 25.0348 5.15625 24.75 5.15625C24.4652 5.15625 24.2344 5.3871 24.2344 5.67188C24.2344 5.95665 24.4652 6.1875 24.75 6.1875Z" fill="#00143C"/>
<path d="M25.2656 23.7188H24.2344V21.6562H25.2656V23.7188Z" fill="#FAB400"/>
<path d="M25.2656 23.7188H24.2344C23.9498 23.7188 23.7188 23.9498 23.7188 24.2344V30.4219C23.7188 30.7065 23.9498 30.9375 24.2344 30.9375H25.2656C25.5502 30.9375 25.7812 30.7065 25.7812 30.4219V24.2344C25.7812 23.9498 25.5502 23.7188 25.2656 23.7188Z" fill="#C80A50"/>
<path d="M24.75 22.6875C28.1673 22.6875 30.9375 19.9173 30.9375 16.5C30.9375 13.0827 28.1673 10.3125 24.75 10.3125C21.3327 10.3125 18.5625 13.0827 18.5625 16.5C18.5625 19.9173 21.3327 22.6875 24.75 22.6875Z" fill="#FAB400"/>
<path d="M24.75 21.6562C27.5977 21.6562 29.9062 19.3477 29.9062 16.5C29.9062 13.6523 27.5977 11.3438 24.75 11.3438C21.9023 11.3438 19.5938 13.6523 19.5938 16.5C19.5938 19.3477 21.9023 21.6562 24.75 21.6562Z" fill="#0A5078"/>
<path d="M13.9219 13.4062H13.7038C13.4686 13.4062 13.2727 13.2433 13.2083 13.017C13.0984 12.6333 12.9458 12.2683 12.755 11.9274C12.6436 11.7279 12.6658 11.4804 12.8277 11.3185L12.9901 11.1561C13.1918 10.9545 13.1918 10.6281 12.9901 10.427L12.261 9.69788C12.0594 9.49627 11.733 9.49627 11.532 9.69788L11.3695 9.8603C11.2076 10.0222 10.9606 10.0449 10.7606 9.933C10.4192 9.74222 10.0542 9.58959 9.67106 9.47977C9.44419 9.4148 9.28125 9.21886 9.28125 8.98373V8.76562C9.28125 8.481 9.05025 8.25 8.76562 8.25H7.73438C7.44975 8.25 7.21875 8.481 7.21875 8.76562V8.98373C7.21875 9.21886 7.05581 9.4148 6.82945 9.47925C6.44583 9.58908 6.08077 9.74222 5.73994 9.93248C5.53988 10.0439 5.29289 10.0217 5.13098 9.85978L4.96856 9.69736C4.76695 9.49575 4.44056 9.49575 4.23947 9.69736L3.51038 10.4265C3.30877 10.6281 3.30877 10.9545 3.51038 11.1555L3.6728 11.318C3.8347 11.4799 3.85739 11.7269 3.7455 11.9269C3.55472 12.2683 3.40209 12.6333 3.29227 13.0164C3.2273 13.2433 3.03136 13.4062 2.79623 13.4062H2.57812C2.2935 13.4062 2.0625 13.6372 2.0625 13.9219V14.9531C2.0625 15.2378 2.2935 15.4688 2.57812 15.4688H2.79623C3.03136 15.4688 3.2273 15.6317 3.29175 15.858C3.40158 16.2417 3.5542 16.6067 3.74498 16.9476C3.85636 17.1476 3.83419 17.3946 3.67228 17.5565L3.50986 17.7189C3.30825 17.92 3.30825 18.2469 3.50986 18.448L4.23895 19.1771C4.44056 19.3787 4.76695 19.3787 4.96805 19.1771L5.13047 19.0147C5.29237 18.8528 5.53936 18.8301 5.73942 18.942C6.08077 19.1328 6.44583 19.2854 6.82894 19.3952C7.05581 19.4602 7.21875 19.6561 7.21875 19.8913V20.1094C7.21875 20.394 7.44975 20.625 7.73438 20.625H8.76562C9.05025 20.625 9.28125 20.394 9.28125 20.1094V19.8913C9.28125 19.6561 9.44419 19.4602 9.67055 19.3958C10.0542 19.2859 10.4192 19.1328 10.7601 18.9425C10.9601 18.8306 11.2071 18.8533 11.369 19.0152L11.5314 19.1776C11.733 19.3793 12.0594 19.3793 12.2605 19.1776L12.9896 18.4485C13.1912 18.2475 13.1912 17.9205 12.9896 17.7195L12.8272 17.557C12.6653 17.3951 12.6426 17.1481 12.7545 16.9481C12.9453 16.6067 13.0979 16.2417 13.2077 15.8586C13.2727 15.6317 13.4686 15.4688 13.7038 15.4688H13.9219C14.2065 15.4688 14.4375 15.2378 14.4375 14.9531V13.9219C14.4375 13.6372 14.2065 13.4062 13.9219 13.4062ZM8.25 17.5312C6.54122 17.5312 5.15625 16.1463 5.15625 14.4375C5.15625 12.7287 6.54122 11.3438 8.25 11.3438C9.95878 11.3438 11.3438 12.7287 11.3438 14.4375C11.3438 16.1463 9.95878 17.5312 8.25 17.5312Z" fill="#C80A50"/>
<path d="M10.7954 23.5991L11.3972 23.2516C11.3632 23.0685 11.343 22.8803 11.343 22.6875C11.343 22.4947 11.3632 22.3065 11.3967 22.1234L10.7949 21.7759C10.5485 21.6336 10.4639 21.318 10.6062 21.0715L11.1218 20.1785C11.2642 19.932 11.5797 19.8474 11.8262 19.9898L12.1309 20.1656C12.298 20.262 12.5084 20.263 12.6661 20.1527C12.811 20.0516 12.9647 19.9629 13.1261 19.8877C13.3014 19.8062 13.4055 19.6231 13.4055 19.4303V19.0781C13.4055 18.7935 13.6365 18.5625 13.9212 18.5625H14.9524C15.237 18.5625 15.468 18.7935 15.468 19.0781V19.4303C15.468 19.6231 15.5722 19.8062 15.747 19.8877C15.9084 19.9629 16.062 20.0516 16.2069 20.1527C16.3647 20.263 16.5756 20.262 16.7422 20.1656L17.0469 19.9898C17.2934 19.8474 17.6089 19.932 17.7512 20.1785L18.2669 21.0715C18.4092 21.318 18.3246 21.6336 18.0781 21.7759L17.4764 22.1234C17.5104 22.3065 17.5305 22.4947 17.5305 22.6875C17.5305 22.8803 17.5104 23.0685 17.4769 23.2516L18.0787 23.5991C18.3251 23.7414 18.4097 24.057 18.2674 24.3035L17.7517 25.1965C17.6094 25.443 17.2939 25.5276 17.0474 25.3852L16.7427 25.2094C16.5756 25.113 16.3652 25.112 16.2074 25.2223C16.0626 25.3234 15.9089 25.4121 15.7475 25.4873C15.5722 25.5688 15.468 25.7519 15.468 25.9447V26.2969C15.468 26.5815 15.237 26.8125 14.9524 26.8125H13.9212C13.6365 26.8125 13.4055 26.5815 13.4055 26.2969V25.9447C13.4055 25.7519 13.3014 25.5688 13.1266 25.4873C12.9652 25.4121 12.8115 25.3234 12.6667 25.2223C12.5089 25.112 12.298 25.113 12.1314 25.2094L11.8267 25.3852C11.5802 25.5276 11.2647 25.443 11.1224 25.1965L10.6067 24.3035C10.4644 24.057 10.549 23.7414 10.7954 23.5991ZM14.4368 24.75C15.5758 24.75 16.4993 23.8265 16.4993 22.6875C16.4993 21.5485 15.5758 20.625 14.4368 20.625C13.2978 20.625 12.3743 21.5485 12.3743 22.6875C12.3743 23.8265 13.2978 24.75 14.4368 24.75Z" fill="#FAB400"/>
<path d="M24.75 19.5938C26.4586 19.5938 27.8438 18.2086 27.8438 16.5C27.8438 14.7914 26.4586 13.4062 24.75 13.4062C23.0414 13.4062 21.6562 14.7914 21.6562 16.5C21.6562 18.2086 23.0414 19.5938 24.75 19.5938Z" fill="#F0F0F0"/>
<path d="M24.2345 18.0469C24.1025 18.0469 23.9705 17.9964 23.87 17.8958L22.8387 16.8646C22.6371 16.6629 22.6371 16.3371 22.8387 16.1355C23.0403 15.9339 23.3662 15.9339 23.5678 16.1355L24.2345 16.8022L25.9325 15.1042C26.1341 14.9026 26.4599 14.9026 26.6616 15.1042C26.8632 15.3058 26.8632 15.6317 26.6616 15.8333L24.5991 17.8958C24.4985 17.9964 24.3665 18.0469 24.2345 18.0469Z" fill="#00A0C8"/>
</svg>
