<svg width="33" height="33" viewBox="0 0 33 33" fill="none" xmlns="http://www.w3.org/2000/svg">
<path d="M25.8339 3.36573L24.5716 15.745L25.8339 29.1695V30.7717C25.8339 32.2105 25.0444 33 24.0703 33H8.93151C7.95745 33 7.16797 32.2105 7.16797 30.7717V29.1695L9.55433 16.3958L7.16797 3.36573V1.29875C7.16797 0.789477 7.95745 0 8.93151 0H24.0703C25.0444 0 25.8339 0.789477 25.8339 1.29875V3.36573Z" fill="#C8EFFE"/>
<path d="M25.8329 3.36573L24.5707 15.745L25.8329 29.1695V30.7717C25.8329 32.2105 25.0435 33 24.0694 33H21.5449C22.519 33 23.3085 32.2105 23.3085 30.7717V1.29875C23.3085 0.789477 22.519 0 21.5449 0H24.0694C25.0435 0 25.8329 0.789477 25.8329 1.29875V3.36573Z" fill="#99E6FC"/>
<path d="M25.8339 14.6282V29.1695H7.16797V3.36572H21.9011L25.8339 14.6282Z" fill="#6C7FD8"/>
<path d="M17.2067 31.5741H15.7949C15.5198 31.5741 15.2969 31.3511 15.2969 31.0761C15.2969 30.8011 15.5198 30.5781 15.7949 30.5781H17.2067C17.4817 30.5781 17.7047 30.8011 17.7047 31.0761C17.7047 31.3511 17.4817 31.5741 17.2067 31.5741Z" fill="#99E6FC"/>
<path d="M11.1375 23.0562V25.1716C11.1375 25.7406 10.4576 26.0354 10.0426 25.6457L7.82227 23.5641L11.1375 23.0562Z" fill="#4F66D0"/>
<path d="M25.8341 14.6282V29.1695H23.3096V14.6282H22.0295L19.8098 16.7105C19.3941 17.0996 18.7148 16.8048 18.7148 16.2357V4.97721C18.7148 4.08681 19.4366 3.36572 20.3263 3.36572H21.9013L25.8341 14.6282Z" fill="#4F66D0"/>
<path d="M16.9782 25.7183L15.7873 25.8092C15.3309 25.7355 14.9844 25.3412 14.9844 24.864V23.8465C14.9844 23.3707 15.333 22.9767 15.7873 22.9012L16.9221 22.9576L16.9782 25.7183Z" fill="#FEE97D"/>
<path d="M16.9608 22.8875H15.9433C15.89 22.8875 15.8381 22.8929 15.7871 22.9013C16.2423 22.976 16.5901 23.3701 16.5901 23.8465V24.864C16.5901 25.3404 16.2424 25.7345 15.7871 25.8092C15.838 25.8176 15.89 25.8231 15.9433 25.8231H16.9608C17.4904 25.8231 17.9198 25.3937 17.9198 24.864V23.8465C17.9198 23.3168 17.4905 22.8875 16.9608 22.8875Z" fill="#F9DA55"/>
<path d="M22.0993 25.7183L20.9084 25.8092C20.452 25.7355 20.1055 25.3412 20.1055 24.864V23.8465C20.1055 23.3707 20.4541 22.9767 20.9084 22.9012L22.0432 22.9576L22.0993 25.7183Z" fill="#A2E62E"/>
<path d="M22.0819 22.8875H21.0644C21.0111 22.8875 20.9592 22.8929 20.9082 22.9013C21.3634 22.976 21.7112 23.3701 21.7112 23.8465V24.864C21.7112 25.3404 21.3635 25.7345 20.9082 25.8092C20.9591 25.8176 21.0111 25.8231 21.0644 25.8231H22.0819C22.6115 25.8231 23.0409 25.3937 23.0409 24.864V23.8465C23.0409 23.3168 22.6115 22.8875 22.0819 22.8875Z" fill="#95CE25"/>
<path d="M11.6175 25.646L9.91103 24.0459C9.58096 23.7364 9.14539 23.5641 8.69288 23.5641H3.06091C2.17077 23.5641 1.44922 22.8426 1.44922 21.9524V13.9129C1.44922 13.0228 2.17077 12.3012 3.06091 12.3012H11.1005C11.9906 12.3012 12.7122 13.0228 12.7122 13.9129V25.1717C12.7121 25.7408 12.0326 26.0352 11.6175 25.646Z" fill="#FFF9DF"/>
<path d="M11.1001 12.3012H9.52539C10.4155 12.3012 11.1371 13.0228 11.1371 13.9129L11.1743 24.1236C11.1743 24.455 10.9437 24.6929 10.6692 24.7572L11.6171 25.646C12.0322 26.0352 12.7117 25.7408 12.7117 25.1718V13.9129C12.7118 13.0228 11.9902 12.3012 11.1001 12.3012Z" fill="#FFF0AD"/>
<path d="M7.08024 20.9553C8.721 20.9553 10.0511 19.6252 10.0511 17.9845C10.0511 16.3437 8.721 15.0136 7.08024 15.0136C5.43948 15.0136 4.10938 16.3437 4.10938 17.9845C4.10938 19.6252 5.43948 20.9553 7.08024 20.9553Z" fill="#62DBFB"/>
<path d="M7.08114 15.0136C6.83427 15.0136 6.59457 15.0442 6.36523 15.101C7.66007 15.4214 8.62019 16.5906 8.62019 17.9845C8.62019 19.3783 7.66007 20.5475 6.36523 20.868C6.59457 20.9247 6.83427 20.9553 7.08114 20.9553C8.72191 20.9553 10.052 19.6252 10.052 17.9845C10.052 16.3437 8.72191 15.0136 7.08114 15.0136Z" fill="#01D0FB"/>
<path d="M11.8571 9.3277L10.6662 9.41866C10.2098 9.3449 9.86328 8.95062 9.86328 8.47342V7.45593C9.86328 6.98018 10.2119 6.58618 10.6662 6.51068L11.801 6.56705L11.8571 9.3277Z" fill="#62DBFB"/>
<path d="M11.8416 6.49689H10.8241C10.7708 6.49689 10.719 6.50233 10.668 6.5107C11.1232 6.5854 11.4709 6.97954 11.4709 7.45595V8.47343C11.4709 8.94984 11.1233 9.34398 10.668 9.41868C10.7189 9.42705 10.7708 9.43249 10.8241 9.43249H11.8416C12.3713 9.43249 12.8007 9.00309 12.8007 8.47343V7.45595C12.8007 6.92629 12.3713 6.49689 11.8416 6.49689Z" fill="#01D0FB"/>
<path d="M16.9782 9.3277L15.7873 9.41866C15.3309 9.3449 14.9844 8.95062 14.9844 8.47342V7.45593C14.9844 6.98018 15.333 6.58618 15.7873 6.51068L16.9221 6.56705L16.9782 9.3277Z" fill="#ED74B7"/>
<path d="M16.9608 6.49689H15.9433C15.89 6.49689 15.8381 6.50233 15.7871 6.5107C16.2423 6.5854 16.5901 6.97954 16.5901 7.45595V8.47343C16.5901 8.94984 16.2424 9.34398 15.7871 9.41868C15.838 9.42705 15.89 9.43249 15.9433 9.43249H16.9608C17.4904 9.43249 17.9198 9.00309 17.9198 8.47343V7.45595C17.9198 6.92629 17.4905 6.49689 16.9608 6.49689Z" fill="#E759AA"/>
<path d="M31.5516 4.97721V13.0167C31.5516 13.9071 30.8298 14.6289 29.9401 14.6289H24.3082C23.8553 14.6289 23.4197 14.8009 23.0897 15.1103L21.3833 16.7105C20.9683 17.0996 20.2891 16.8054 20.2891 16.2364V4.97721C20.2891 4.08747 21.0101 3.36572 21.9006 3.36572H29.9401C30.8298 3.36572 31.5516 4.08747 31.5516 4.97721Z" fill="#FFF9DF"/>
<path d="M29.9399 3.36572H28.3652C29.2554 3.36572 29.9769 4.08727 29.9769 4.97741V13.017C29.9769 13.9071 29.2554 14.6287 28.3652 14.6287H29.9399C30.8301 14.6287 31.5516 13.9071 31.5516 13.017V4.97741C31.5516 4.08727 30.8301 3.36572 29.9399 3.36572Z" fill="#FFF0AD"/>
<path d="M24.3082 14.6289C23.8553 14.6289 23.4197 14.8009 23.0897 15.1103L21.3833 16.7105C20.9683 17.0996 20.2891 16.8054 20.2891 16.2364V16.0671C20.4252 16.0558 20.5606 16 20.6768 15.8918L21.71 14.927C21.9152 14.7351 22.1854 14.6289 22.4663 14.6289H24.3082Z" fill="#FFF0AD"/>
<path d="M22.6621 8.98268C22.5346 8.98268 22.4072 8.93408 22.3099 8.8368C22.1154 8.64232 22.1154 8.327 22.3099 8.13258C24.2523 6.1903 27.4126 6.19023 29.3551 8.13258C29.5495 8.32706 29.5495 8.64239 29.3551 8.8368C29.1605 9.03128 28.8453 9.03128 28.6508 8.8368C27.0968 7.28275 24.5682 7.28288 23.0142 8.8368C22.9169 8.93408 22.7895 8.98268 22.6621 8.98268Z" fill="#99E6FC"/>
<path d="M27.6077 10.3776C27.4803 10.3776 27.3528 10.3289 27.2555 10.2317C26.4706 9.44678 25.1935 9.44691 24.4087 10.2317C24.2142 10.4262 23.8989 10.4262 23.7045 10.2317C23.51 10.0372 23.51 9.72187 23.7045 9.52745C24.8777 8.35433 26.7866 8.35426 27.9599 9.52745C28.1543 9.72193 28.1543 10.0373 27.9599 10.2317C27.8626 10.3289 27.7351 10.3776 27.6077 10.3776Z" fill="#62DBFB"/>
<path d="M25.8319 11.8021C26.1069 11.8021 26.3298 11.5792 26.3298 11.3042C26.3298 11.0292 26.1069 10.8063 25.8319 10.8063C25.5569 10.8063 25.334 11.0292 25.334 11.3042C25.334 11.5792 25.5569 11.8021 25.8319 11.8021Z" fill="#01D0FB"/>
<path d="M7.08018 14.5156C5.16744 14.5156 3.61133 16.0717 3.61133 17.9845C3.61133 19.8972 5.16751 21.4533 7.08018 21.4533C8.99285 21.4533 10.549 19.8972 10.549 17.9845C10.549 16.0717 8.99292 14.5156 7.08018 14.5156ZM7.08018 20.3857C6.89506 20.1044 6.63478 19.27 6.63478 17.9845C6.63478 16.6989 6.89506 15.8646 7.08018 15.5832C7.2653 15.8645 7.52558 16.6989 7.52558 17.9845C7.52558 19.27 7.2653 20.1044 7.08018 20.3857ZM4.6073 17.9845C4.6073 17.0398 5.13995 16.2175 5.92053 15.8012C5.72977 16.4249 5.63887 17.206 5.63887 17.9845C5.63887 18.7629 5.72983 19.544 5.92053 20.1677C5.13995 19.7515 4.6073 18.9292 4.6073 17.9845ZM8.23983 20.1678C8.43059 19.5441 8.52149 18.763 8.52149 17.9845C8.52149 17.2061 8.43052 16.425 8.23983 15.8013C9.02034 16.2175 9.55305 17.0399 9.55305 17.9845C9.55305 18.9292 9.02041 19.7515 8.23983 20.1678Z" fill="#C8EFFE"/>
</svg>
