<svg width="33" height="33" viewBox="0 0 33 33" fill="none" xmlns="http://www.w3.org/2000/svg">
<path d="M30 24H9V22.5C9 21.045 7.76 19.88 6.28 20.01C4.965 20.125 4 21.31 4 22.63V23C2.345 23 1 24.345 1 26C1 27.655 2.345 29 4 29V29.37C4 30.69 4.965 31.875 6.28 31.99C7.76 32.12 9 30.955 9 29.5V28H22.5V30.5H24.5V29H26.5V30.5H28.5V28H30C31.105 28 32 27.105 32 26C32 24.895 31.105 24 30 24ZM4 27C3.45 27 3 26.55 3 26C3 25.445 3.45 25 4 25C4.555 25 5 25.445 5 26C5 26.55 4.555 27 4 27Z" fill="#FFAB03"/>
<path d="M14 17H17V22H14V17Z" fill="#EF4A51"/>
<path d="M19 12.5H22V22H19V12.5Z" fill="#EF4A51"/>
<path d="M24 15H27V22H24V15Z" fill="#EF4A51"/>
<path d="M29 11H32V22H29V11Z" fill="#EF4A51"/>
<path d="M29 11H32V22H29V11Z" fill="#EF4A51"/>
<path d="M7.5 3C3.91 3 1 5.91 1 9.5C1 11.295 1.73 12.92 2.905 14.095L7.5 9.5V3Z" fill="#7CB5E8"/>
<path d="M9.5 1V7.5H16C16 3.91 13.09 1 9.5 1Z" fill="#8ABA55"/>
<path d="M2.9043 14.095C4.0793 15.27 5.7043 16 7.4993 16C11.0893 16 13.9993 13.09 13.9993 9.5H7.4993L2.9043 14.095Z" fill="#4E6575"/>
<g opacity="0.3">
<path d="M30.5 18.5C30.5 19.43 31.14 20.205 32 20.43V11H30.5V18.5Z" fill="#E2E2E2"/>
</g>
<g opacity="0.3">
<path d="M25.5 18.5C25.5 19.43 26.14 20.205 27 20.43V15H25.5V18.5Z" fill="#E2E2E2"/>
</g>
<g opacity="0.3">
<path d="M20.5 18.5C20.5 19.43 21.14 20.205 22 20.43V12.5H20.5V18.5Z" fill="#E2E2E2"/>
</g>
<g opacity="0.3">
<path d="M15.5 18.5C15.5 19.43 16.14 20.205 17 20.43V17H15.5V18.5Z" fill="#E2E2E2"/>
</g>
<g opacity="0.3">
<path d="M10.0491 1.03003C10.0491 1.09003 10.0391 1.15003 10.0391 1.21503C10.0391 4.39003 12.6141 6.96003 15.7841 6.96003C15.8441 6.96003 15.9091 6.95503 15.9691 6.95003C15.7091 3.80003 13.1991 1.29003 10.0491 1.03003Z" fill="#E2E2E2"/>
</g>
<g opacity="0.3">
<path d="M30.0003 24H9.00031V22.5C9.00031 21.1 7.85031 19.975 6.44531 20.005V24.18C6.44531 25.285 7.34031 26.18 8.44531 26.18H31.9803C31.9853 26.12 32.0003 26.06 32.0003 26C32.0003 24.895 31.1053 24 30.0003 24Z" fill="white"/>
</g>
<path d="M31.5007 5.125H29.5007C29.2957 5.125 29.1257 5.295 29.1257 5.5C29.1257 5.705 29.2957 5.875 29.5007 5.875H30.5957L25.5007 10.97L20.7657 6.235C20.6207 6.09 20.3807 6.09 20.2357 6.235L16.2357 10.235C16.0907 10.38 16.0907 10.62 16.2357 10.765C16.3807 10.91 16.6207 10.91 16.7657 10.765L20.5007 7.03L25.2357 11.765C25.3107 11.84 25.4057 11.875 25.5007 11.875C25.5957 11.875 25.6907 11.84 25.7657 11.765L31.1257 6.405V7.5C31.1257 7.705 31.2957 7.875 31.5007 7.875C31.7057 7.875 31.8757 7.705 31.8757 7.5V5.5C31.8757 5.295 31.7107 5.125 31.5007 5.125Z" fill="#4E6575"/>
</svg>
