<svg width="33" height="33" viewBox="0 0 33 33" fill="none" xmlns="http://www.w3.org/2000/svg">
<path fill-rule="evenodd" clip-rule="evenodd" d="M14.0575 6.30648C13.9874 6.4368 13.8833 6.54599 13.755 6.62017C13.508 6.76307 13.2014 6.7621 12.9544 6.61927C12.6566 6.44699 12.2848 6.51782 12.0714 6.78775C11.8224 7.10254 11.6206 7.45213 11.4719 7.8248C11.344 8.14539 11.4682 8.50227 11.7672 8.67455C12.0145 8.81699 12.1689 9.08222 12.1689 9.36781C12.1689 9.65308 12.0143 9.91863 11.7671 10.0608C11.4682 10.2327 11.3441 10.5902 11.472 10.9105C11.6207 11.2832 11.8226 11.6326 12.0714 11.9476C12.1039 11.9887 12.1413 12.0257 12.1822 12.0583L12.2367 12.1017L12.2302 12.1711C12.1954 12.5435 11.8814 12.83 11.507 12.83H7.03449C6.63378 12.83 6.30836 12.5046 6.30836 12.1038C6.30836 11.4177 6.07794 10.8113 5.62258 10.2981C4.83129 9.40622 4.39648 8.25819 4.39648 7.066C4.39648 4.37837 6.58273 2.19141 9.27049 2.19141C11.6173 2.19141 13.6677 3.91114 14.071 6.22327L14.0787 6.26716L14.0575 6.30648ZM8.56222 3.96928C8.53199 3.86687 8.42455 3.80815 8.322 3.83825C7.03468 4.21678 6.09644 5.32144 5.93195 6.65324C5.91893 6.75868 5.99396 6.85562 6.09972 6.86825L6.10243 6.86858L6.1052 6.86903C6.11132 6.87006 6.11835 6.87006 6.12454 6.87006C6.22128 6.87006 6.30372 6.79716 6.31564 6.701C6.46085 5.52222 7.29172 4.54446 8.43099 4.20956C8.53334 4.17946 8.59245 4.07163 8.56222 3.96928Z" fill="#FFB800"/>
<path fill-rule="evenodd" clip-rule="evenodd" d="M11.9604 8.33931C11.8292 8.26403 11.7744 8.10883 11.8306 7.96819C11.9656 7.62994 12.1496 7.31341 12.3751 7.0275C12.4686 6.90897 12.63 6.87816 12.7606 6.95383C13.1265 7.16575 13.5822 7.16639 13.9483 6.95499C14.315 6.74326 14.5419 6.34868 14.5415 5.92535C14.5413 5.77369 14.6489 5.64975 14.7989 5.62803C15.1564 5.57634 15.527 5.57659 15.8844 5.62803C16.034 5.64955 16.1418 5.77434 16.1417 5.92535C16.1412 6.34868 16.3682 6.7432 16.7348 6.95499C17.1011 7.16652 17.5559 7.16575 17.9219 6.95383C18.0529 6.87797 18.2143 6.90936 18.308 7.02814C18.5333 7.31386 18.7165 7.63033 18.8519 7.96813C18.9082 8.10863 18.854 8.26403 18.7228 8.33938C18.3554 8.55033 18.1275 8.94427 18.1275 9.36779C18.1275 9.79112 18.3559 10.1852 18.7228 10.3962C18.8542 10.4717 18.9082 10.6271 18.8519 10.7677C18.7165 11.1055 18.5335 11.4222 18.3079 11.7078C18.2143 11.8262 18.0526 11.8568 17.922 11.7814C17.5559 11.57 17.101 11.5693 16.7348 11.7808C16.3685 11.9925 16.1411 12.3868 16.1416 12.8098C16.1418 12.9612 16.0343 13.0854 15.8845 13.1071C15.5268 13.159 15.1566 13.1589 14.7988 13.1071C14.6484 13.0853 14.5412 12.9619 14.5414 12.8098C14.5419 12.3867 14.3144 11.9925 13.9482 11.7807C13.7682 11.6766 13.5633 11.6221 13.3554 11.6221C13.1468 11.6221 12.9412 11.6771 12.7605 11.7814C12.6298 11.8568 12.4687 11.8261 12.3752 11.7077C12.1496 11.4223 11.9656 11.1053 11.8306 10.7675C11.7743 10.6268 11.829 10.4717 11.9602 10.3961C12.3267 10.1851 12.5557 9.79073 12.5557 9.36766C12.5557 8.94472 12.3273 8.54995 11.9604 8.33931ZM13.7961 9.36773C13.7961 10.2194 14.4895 10.9132 15.3413 10.9132C16.1936 10.9132 16.8867 10.2201 16.8867 9.36773C16.8867 8.51553 16.1935 7.82259 15.3413 7.82259C14.4894 7.82259 13.7961 8.51585 13.7961 9.36773Z" fill="#FD4755"/>
<path fill-rule="evenodd" clip-rule="evenodd" d="M16.5294 5.92613C16.53 5.58066 16.2827 5.29429 15.9406 5.24511C15.5462 5.18846 15.1386 5.18904 14.7442 5.24569C14.6306 5.262 14.5233 5.30544 14.4311 5.37415L14.291 5.47863L14.2326 5.31382C14.1464 5.07064 14.0421 4.83416 13.9212 4.60625L13.872 4.51357L13.9528 4.4466C14.4613 4.02521 15.0918 3.79614 15.7525 3.79614H25.7745C27.3363 3.79614 28.608 5.06671 28.608 6.62879V26.3244H12.9199V12.1355L12.9896 12.0994C13.2305 11.9749 13.5205 11.9799 13.7557 12.1156C14.0031 12.2581 14.1557 12.5241 14.1555 12.8095C14.1552 13.1556 14.402 13.4403 14.7444 13.49C14.9422 13.5188 15.1423 13.5324 15.3421 13.5324C15.5421 13.5324 15.7426 13.5188 15.9405 13.49C16.2824 13.4403 16.53 13.1555 16.5294 12.8096C16.5288 12.5239 16.6817 12.2585 16.9291 12.1156C17.1761 11.973 17.4822 11.9738 17.729 12.1165C18.0271 12.289 18.3982 12.2177 18.6117 11.9475C18.8606 11.6324 19.0631 11.2832 19.2122 10.9103C19.3402 10.5899 19.2156 10.2326 18.9164 10.0608C18.6689 9.91867 18.5152 9.65313 18.5152 9.36779C18.5152 9.08188 18.6691 8.81704 18.9169 8.67454C19.216 8.50245 19.3402 8.14537 19.2122 7.82491C19.0632 7.45212 18.8606 7.10278 18.6117 6.78773C18.3984 6.51768 18.0268 6.44704 17.729 6.61932C17.4822 6.76202 17.1761 6.76279 16.9291 6.62029C16.6818 6.47752 16.5288 6.21165 16.5294 5.92613ZM15.3421 8.20944C14.7035 8.20944 14.1838 8.72906 14.1838 9.36773C14.1838 10.0062 14.7036 10.5267 15.3421 10.5267C15.9809 10.5267 16.501 10.0065 16.501 9.36773C16.5011 8.72868 15.981 8.20944 15.3421 8.20944ZM17.5174 14.0857C17.0339 14.0857 16.6407 14.4791 16.6407 14.9626V16.9949C16.6407 17.4784 17.0338 17.8722 17.5174 17.8722H19.5503C20.0337 17.8722 20.4276 17.4783 20.4276 16.9949V14.9626C20.4276 14.4792 20.0337 14.0857 19.5503 14.0857H17.5174ZM19.048 19.006C18.9368 18.8264 18.7465 18.7197 18.5339 18.7197C18.3149 18.7197 18.12 18.8323 18.0105 19.0219L16.7189 21.2585C16.6095 21.4478 16.6099 21.6731 16.7189 21.8625C16.8286 22.0528 17.0233 22.1649 17.2428 22.1649H19.8255C20.0447 22.1649 20.239 22.0523 20.3485 21.8624C20.4577 21.673 20.4578 21.4479 20.3485 21.2585L19.048 19.006ZM22.9971 14.2822C22.0616 14.2822 21.3008 15.043 21.3008 15.9785C21.3008 16.9139 22.0615 17.6757 22.9971 17.6757C23.9327 17.6757 24.6943 16.9142 24.6943 15.9785C24.6943 15.0428 23.9326 14.2822 22.9971 14.2822ZM21.9809 18.5489C21.4973 18.5489 21.1042 18.9427 21.1042 19.4262V21.4584C21.1042 21.9419 21.4973 22.3357 21.9809 22.3357H24.0135C24.4974 22.3357 24.8908 21.9423 24.8908 21.4584V19.4262C24.8908 18.9423 24.4974 18.5489 24.0135 18.5489H21.9809ZM19.1641 5.92638C19.1641 6.03344 19.2504 6.11981 19.3575 6.11981H22.1696C22.2768 6.11981 22.363 6.03363 22.363 5.92638C22.363 5.81965 22.2764 5.73296 22.1696 5.73296H19.3575C19.2509 5.73296 19.1641 5.81978 19.1641 5.92638Z" fill="#ECEFF1"/>
<path fill-rule="evenodd" clip-rule="evenodd" d="M22.997 14.6689C23.7193 14.6689 24.3074 15.256 24.3074 15.9784C24.3074 16.7012 23.7197 17.2888 22.997 17.2888C22.2745 17.2888 21.6875 16.7008 21.6875 15.9784C21.6875 15.2564 22.2749 14.6689 22.997 14.6689Z" fill="#FD4755"/>
<path fill-rule="evenodd" clip-rule="evenodd" d="M24.013 18.9357C24.2833 18.9357 24.5034 19.1558 24.5034 19.4262V21.4584C24.5034 21.7291 24.2836 21.9489 24.013 21.9489H21.9804C21.7096 21.9489 21.4902 21.7291 21.4902 21.4584V19.4262C21.4902 19.1557 21.7099 18.9357 21.9804 18.9357H24.013Z" fill="#00E499"/>
<path fill-rule="evenodd" clip-rule="evenodd" d="M20.0138 21.452C20.0548 21.523 20.0549 21.5985 20.0138 21.6695C19.9727 21.7402 19.9074 21.7781 19.8256 21.7781H17.2429C17.1603 21.7781 17.0942 21.7403 17.0534 21.6683C17.0134 21.5976 17.0133 21.5223 17.054 21.452L18.3456 19.2154C18.3865 19.1444 18.4518 19.1066 18.5339 19.1066C18.616 19.1066 18.6811 19.1443 18.7221 19.2154L20.0138 21.452Z" fill="#FFD266"/>
<path fill-rule="evenodd" clip-rule="evenodd" d="M19.5501 14.4722C19.8207 14.4722 20.0405 14.692 20.0405 14.9627V16.9949C20.0405 17.2652 19.8205 17.4857 19.5501 17.4857H17.5172C17.2467 17.4857 17.0273 17.2651 17.0273 16.9949V14.9627C17.0273 14.6921 17.2465 14.4722 17.5172 14.4722H19.5501Z" fill="#60B7FF"/>
<path fill-rule="evenodd" clip-rule="evenodd" d="M28.6081 26.7114V27.9759C28.6081 29.538 27.3363 30.8085 25.7745 30.8085H15.7526C14.1907 30.8085 12.9199 29.5377 12.9199 27.9759V26.7114H28.6081ZM19.3575 28.4482C19.2508 28.4482 19.1641 28.5349 19.1641 28.6417C19.1641 28.7483 19.2509 28.8351 19.3575 28.8351H22.1696C22.2764 28.8351 22.363 28.7484 22.363 28.6417C22.363 28.5347 22.2765 28.4482 22.1696 28.4482H19.3575Z" fill="#4E3D4D"/>
<path fill-rule="evenodd" clip-rule="evenodd" d="M19.9014 21.6048C19.8833 21.6362 19.8601 21.6492 19.8248 21.6492H17.2421C17.2058 21.6492 17.1826 21.6362 17.1648 21.6048C17.1472 21.5738 17.1472 21.5472 17.1648 21.5164L18.4564 19.2798C18.4742 19.249 18.4969 19.2354 18.5331 19.2354C18.5692 19.2354 18.5916 19.249 18.6097 19.2798L19.9013 21.5164C19.9195 21.5471 19.9195 21.5738 19.9014 21.6048ZM19.168 18.9575C19.168 18.9575 19.168 18.9575 19.168 18.9569C19.0353 18.7282 18.7978 18.5908 18.5331 18.5908C18.2681 18.5908 18.0309 18.7281 17.8981 18.9575L16.6064 21.1941C16.4746 21.4235 16.4746 21.6974 16.6064 21.9268C16.7392 22.1571 16.9764 22.2938 17.242 22.2938H19.8247C20.0894 22.2938 20.3266 22.1571 20.4594 21.9268C20.5916 21.6975 20.5916 21.4235 20.4594 21.1941L19.168 18.9575ZM22.9963 14.7979C23.6479 14.7979 24.1778 15.3275 24.1778 15.9785C24.1778 16.6301 23.6479 17.16 22.9963 17.16C22.3453 17.16 21.8157 16.6301 21.8157 15.9785C21.8157 15.3275 22.3453 14.7979 22.9963 14.7979ZM21.1711 15.9785C21.1711 16.9853 21.9898 17.8047 22.9963 17.8047C24.0031 17.8047 24.8225 16.9853 24.8225 15.9785C24.8225 14.9718 24.0031 14.1533 22.9963 14.1533C21.9898 14.1533 21.1711 14.9717 21.1711 15.9785ZM24.3742 21.4585C24.3742 21.6583 24.2119 21.82 24.0127 21.82H21.9801C21.7807 21.82 21.6189 21.6582 21.6189 21.4585V19.4262C21.6189 19.227 21.7807 19.0646 21.9801 19.0646H24.0127C24.2119 19.0646 24.3742 19.227 24.3742 19.4262V21.4585ZM24.0127 18.42H21.9801C21.4258 18.42 20.9745 18.8712 20.9745 19.4262V21.4585C20.9745 22.0135 21.4257 22.4646 21.9801 22.4646H24.0127C24.5677 22.4646 25.0189 22.0135 25.0189 21.4585V19.4262C25.0189 18.8712 24.5677 18.42 24.0127 18.42ZM17.1557 14.9627C17.1557 14.7629 17.3175 14.6012 17.5166 14.6012H19.5495C19.7487 14.6012 19.9111 14.7629 19.9111 14.9627V16.9949C19.9111 17.1941 19.7487 17.3568 19.5495 17.3568H17.5166C17.3175 17.3568 17.1557 17.1941 17.1557 16.9949V14.9627ZM17.5166 18.0011H19.5495C20.1036 18.0011 20.5557 17.5499 20.5557 16.9949V14.9627C20.5557 14.4077 20.1036 13.9568 19.5495 13.9568H17.5166C16.9623 13.9568 16.511 14.4077 16.511 14.9627V16.9949C16.5111 17.5499 16.9623 18.0011 17.5166 18.0011ZM15.3413 8.33831C15.909 8.33831 16.3714 8.79973 16.3714 9.36769C16.3714 9.93533 15.909 10.3977 15.3413 10.3977C14.7743 10.3977 14.312 9.93539 14.312 9.36769C14.312 8.79979 14.7743 8.33831 15.3413 8.33831ZM15.3413 11.0421C16.2648 11.0421 17.0156 10.2912 17.0156 9.36775C17.0156 8.44453 16.2648 7.69371 15.3413 7.69371C14.4184 7.69371 13.6673 8.44453 13.6673 9.36775C13.6673 10.2907 14.4184 11.0421 15.3413 11.0421ZM10.9617 16.7418C10.9617 16.9195 10.8181 17.0641 10.6394 17.0641H7.90158C7.72349 17.0641 7.57924 16.9195 7.57924 16.7418C7.57924 16.564 7.72349 16.4194 7.90158 16.4194H10.6394C10.8181 16.4194 10.9617 16.5639 10.9617 16.7418ZM11.8381 15.5023C11.8381 15.68 11.6939 15.8246 11.5158 15.8246H7.0254C6.84764 15.8246 6.70339 15.68 6.70339 15.5023C6.70339 15.3245 6.84764 15.1799 7.0254 15.1799H11.5158C11.6939 15.1799 11.8381 15.3245 11.8381 15.5023ZM8.6859 3.93274C8.73631 4.10354 8.63821 4.28285 8.46741 4.33326C7.37764 4.65346 6.58273 5.58874 6.44358 6.7168C6.42366 6.87973 6.28425 6.99897 6.1246 6.99897C6.111 6.99897 6.0974 6.99839 6.08445 6.99626C5.90791 6.97512 5.78236 6.81399 5.80408 6.63745C5.97488 5.25494 6.94876 4.10754 8.28572 3.71457C8.45658 3.66417 8.6355 3.76194 8.6859 3.93274ZM11.8381 14.2628C11.8381 14.4405 11.6939 14.5851 11.5158 14.5851H7.0254C6.84764 14.5851 6.70339 14.4405 6.70339 14.2628C6.70339 14.085 6.84764 13.9404 7.0254 13.9404H11.5158C11.6939 13.9405 11.8381 14.0851 11.8381 14.2628ZM19.0344 5.92641C19.0344 5.74865 19.1789 5.60408 19.3567 5.60408H22.1688C22.3469 5.60408 22.4911 5.74865 22.4911 5.92641C22.4911 6.10507 22.3469 6.24874 22.1688 6.24874H19.3567C19.1789 6.24874 19.0344 6.10507 19.0344 5.92641ZM22.4911 28.6417C22.4911 28.8195 22.3469 28.964 22.1688 28.964H19.3567C19.1789 28.964 19.0344 28.8195 19.0344 28.6417C19.0344 28.4637 19.1789 28.3194 19.3567 28.3194H22.1688C22.3469 28.3194 22.4911 28.4637 22.4911 28.6417ZM25.7737 30.6797C27.2646 30.6797 28.4784 29.4668 28.4784 27.976V26.8403H13.048V27.976C13.048 29.4668 14.2612 30.6797 15.7518 30.6797H25.7737ZM11.5071 12.701H7.03455C6.70468 12.701 6.43726 12.433 6.43726 12.1038C6.43726 11.3861 6.1955 10.7496 5.719 10.2125C4.94885 9.34449 4.52539 8.227 4.52539 7.066C4.52539 4.44914 6.65428 2.32032 9.27049 2.32032C11.5611 2.32032 13.5526 4.00132 13.9441 6.24545C13.8861 6.35315 13.7995 6.44526 13.6906 6.50861C13.4839 6.62779 13.2267 6.62779 13.0191 6.50771C12.6654 6.30314 12.2245 6.38731 11.9704 6.70777C11.7133 7.03371 11.5053 7.39343 11.3523 7.77705C11.2002 8.1579 11.3478 8.58194 11.703 8.78626C11.9104 8.90608 12.0401 9.1285 12.0401 9.36782C12.0401 9.60681 11.9104 9.82988 11.703 9.94906C11.3478 10.1534 11.2002 10.578 11.3523 10.9583C11.5053 11.3425 11.7133 11.7022 11.9704 12.0275C12.0096 12.0774 12.0543 12.1211 12.102 12.1591C12.0735 12.4626 11.8176 12.701 11.5071 12.701ZM12.0246 8.22758C12.4311 8.46148 12.6846 8.89847 12.6846 9.36775C12.6846 9.83671 12.4311 10.2737 12.0246 10.5079C11.9486 10.5517 11.9181 10.6386 11.9504 10.7198C12.0808 11.0454 12.2579 11.3514 12.4764 11.6279C12.5304 11.6964 12.6206 11.7136 12.6961 11.6698C12.8998 11.5525 13.128 11.4933 13.3555 11.4933C13.5831 11.4933 13.8106 11.5521 14.0128 11.6692C14.4191 11.904 14.671 12.341 14.6704 12.81C14.6704 12.8979 14.7302 12.9672 14.8174 12.9796C15.162 13.0297 15.5212 13.0297 15.8661 12.9796C15.9522 12.9673 16.0128 12.8979 16.0128 12.81C16.0122 12.341 16.2642 11.904 16.6704 11.6692C17.0763 11.4348 17.5803 11.4353 17.9866 11.6698C18.062 11.7136 18.1528 11.6964 18.2069 11.6279C18.4254 11.3514 18.6019 11.046 18.7323 10.7198C18.7652 10.6386 18.7347 10.5517 18.6587 10.5079C18.2513 10.2738 17.9987 9.83671 17.9987 9.36775C17.9987 8.89847 18.2513 8.46206 18.6587 8.22758C18.7347 8.18446 18.7652 8.09719 18.7323 8.01604C18.6019 7.68978 18.4254 7.3844 18.2069 7.10796C18.1528 7.03887 18.062 7.02166 17.9866 7.06542C17.5804 7.30055 17.0763 7.30113 16.6704 7.06665C16.2642 6.83217 16.0122 6.39518 16.0128 5.92525C16.0128 5.8383 15.9522 5.76805 15.8661 5.75561C15.5217 5.70611 15.162 5.70611 14.8174 5.75561C14.7302 5.76856 14.6704 5.8383 14.6704 5.92525C14.671 6.39511 14.4191 6.8321 14.0128 7.06665C13.6069 7.30113 13.102 7.30055 12.6961 7.06542C12.6206 7.02166 12.5304 7.03887 12.4764 7.10738C12.2579 7.3844 12.0808 7.68985 11.9504 8.01604C11.9181 8.09719 11.9486 8.18446 12.0246 8.22758ZM15.7518 3.9252C15.1201 3.9252 14.519 4.14428 14.0343 4.54601C14.158 4.77934 14.2648 5.02136 14.3533 5.27092C14.4589 5.19216 14.5854 5.13815 14.725 5.11823C15.1313 5.05964 15.5525 5.05964 15.9582 5.11765C16.3634 5.17617 16.658 5.51661 16.6574 5.92647C16.6568 6.16546 16.7851 6.38879 16.9927 6.50861C17.1994 6.62779 17.4566 6.62779 17.6636 6.50771C18.0179 6.30314 18.4588 6.38731 18.712 6.70777C18.9694 7.03371 19.1777 7.39343 19.3309 7.77705C19.483 8.1579 19.3354 8.58194 18.9802 8.78626C18.772 8.90608 18.6431 9.1285 18.6431 9.36782C18.6431 9.60681 18.772 9.82988 18.9797 9.94906C19.3354 10.1534 19.483 10.578 19.3309 10.9583C19.1776 11.3425 18.9694 11.7022 18.712 12.0275C18.4587 12.3486 18.0179 12.4331 17.6636 12.2282C17.4566 12.1084 17.1995 12.1075 16.9927 12.2273C16.785 12.3468 16.6568 12.5698 16.6574 12.8095C16.658 13.2197 16.3634 13.5591 15.9582 13.6177C15.7551 13.6476 15.5474 13.6614 15.3413 13.6614C15.1348 13.6614 14.9281 13.6476 14.725 13.6177C14.319 13.5591 14.0251 13.2196 14.0257 12.8095C14.0257 12.5698 13.8975 12.3468 13.6904 12.2273C13.4928 12.1136 13.2498 12.1097 13.0479 12.2141V26.1957H28.4782V6.62901C28.4782 5.13815 27.2644 3.92527 25.7736 3.92527L15.7518 3.9252ZM25.7737 3.28061H15.7518C14.9997 3.28061 14.283 3.53081 13.6963 3.99101C13.4413 3.62343 13.1401 3.28634 12.7967 2.98934C11.8183 2.14249 10.5661 1.67566 9.27056 1.67566C6.2985 1.67566 3.88086 4.0933 3.88086 7.06594C3.88086 8.38478 4.36252 9.65438 5.23715 10.6406C5.61104 11.0619 5.79273 11.5403 5.79273 12.1037C5.79273 12.7888 6.34954 13.3456 7.03462 13.3456H11.5071C11.8596 13.3456 12.1774 13.1974 12.4034 12.9608V27.9759C12.4034 29.8216 13.9061 31.3243 15.7518 31.3243H25.7738C27.6204 31.3243 29.1213 29.8216 29.1213 27.9759V6.62895C29.1212 4.7823 27.6204 3.28061 25.7737 3.28061Z" fill="black"/>
</svg>
