<svg width="329" height="332" viewBox="0 0 329 332" fill="none" xmlns="http://www.w3.org/2000/svg">
<path fill-rule="evenodd" clip-rule="evenodd" d="M269.867 213.714C269.919 222.606 264.152 231.468 252.598 238.184L166.421 288.121C154.865 294.836 139.583 298.206 124.232 298.206C108.88 298.206 93.5605 294.836 81.9296 288.121C70.2991 281.408 64.4336 272.543 64.3828 263.651C64.3326 254.76 70.0995 245.896 81.6547 239.182L167.832 189.244C179.386 182.528 194.667 179.16 210.02 179.16C225.374 179.16 240.693 182.528 252.323 189.244C263.952 195.959 269.819 204.82 269.867 213.714ZM293.451 165.343C270.399 152.033 240.077 145.386 209.829 145.364C179.545 145.364 149.336 152.035 126.434 165.343L40.2568 215.281C17.3568 228.589 5.94056 246.111 6.0397 263.652C6.19096 281.165 17.7508 298.714 40.8024 312.024C63.8534 325.331 94.1895 331.971 124.422 332C154.667 331.977 184.917 325.331 207.817 312.022L293.994 262.084C316.895 248.774 328.273 231.233 328.212 213.715C328.074 196.193 316.502 178.65 293.451 165.343Z" fill="#AEBEFD"/>
<path fill-rule="evenodd" clip-rule="evenodd" d="M271.72 249.223L185.541 299.162C168.726 308.934 146.561 313.806 124.32 313.837C102.091 313.814 79.8589 308.934 62.9324 299.163C46.0052 289.39 37.511 276.53 37.3992 263.652C37.3782 250.769 45.6768 237.892 62.4938 228.119L148.671 178.181C165.488 168.408 187.704 163.552 209.932 163.53C232.163 163.552 254.393 168.431 271.319 178.203C288.247 187.976 296.742 200.837 296.853 213.715C296.886 226.589 288.537 239.45 271.72 249.223ZM274.415 176.407C256.621 166.131 233.274 160.987 209.918 160.995C186.574 160.995 163.195 166.133 145.557 176.384L59.3792 226.322C41.7397 236.572 32.9606 250.122 33.0238 263.652C33.1003 277.174 42.0572 290.678 59.8523 300.952C77.6062 311.204 100.991 316.371 124.334 316.371C147.69 316.363 171.017 311.211 188.657 300.96L274.835 251.022C292.473 240.771 301.305 227.234 301.229 213.715C301.165 200.185 292.168 186.655 274.415 176.407Z" fill="#D6DEFF"/>
<path opacity="0.5" fill-rule="evenodd" clip-rule="evenodd" d="M78.3934 255.925L137.156 222.458C143.562 219.531 152.731 217.201 159.258 220.598C165.204 223.693 175.001 230.027 179.332 232.497C182.622 234.374 194.043 241.216 186.93 245.084C166.004 256.463 145.295 269.261 124.045 280.82C120.027 283.006 114.147 283.796 107.976 283.283C101.832 282.773 95.5286 280.983 90.5719 278.1C87.0405 276.046 83.568 274.024 80.1516 272.035C75.5424 269.351 73.0983 266.177 72.8562 263.244C72.6194 260.377 74.4614 257.72 78.3934 255.925Z" fill="#5F7FFB"/>
<path fill-rule="evenodd" clip-rule="evenodd" d="M180.031 83.5237C208.056 106.446 199.863 157.949 192.658 179.893C191.452 183.565 190.638 189.626 188.64 190.222C188.063 190.394 186.438 189.95 184.469 189.243C180.504 187.818 170.411 183.168 169.387 182.475C162.068 177.528 164.779 174.812 165.63 167.177C168.76 139.112 167.954 107.463 151.402 89.0416L180.031 83.5237Z" fill="#282ED5"/>
<path fill-rule="evenodd" clip-rule="evenodd" d="M180.795 85.426C201.539 107.61 203.923 147.243 189.234 186.587C189.144 186.829 188.682 187.841 188.437 188.503C188.274 188.943 187.82 189.967 188.197 190.203C188.326 190.283 188.615 190.298 188.963 190.128C189.861 189.691 190.555 187.98 190.811 187.327C205.763 149.263 205.587 104.084 177.784 79.2692C175.033 80.8504 178.24 82.6934 180.795 85.426Z" fill="#3FAFF6"/>
<path fill-rule="evenodd" clip-rule="evenodd" d="M144.311 101.814C147.817 98.6177 153.216 95.5838 157.683 92.928C173.288 83.6485 179.654 86.7449 184.092 94.2727C195.26 113.211 193.236 152.445 185.566 183.919C178.71 212.055 167.723 239.396 143.433 256.2C135.094 261.97 126.173 265.028 120.482 259.801C117.454 257.02 105.769 249.154 106.47 239.232C106.799 234.569 107.066 229.831 107.294 225.047C126.893 243.136 149.333 189.502 152.279 177.411C155.994 162.163 163.133 110.049 144.311 101.814Z" fill="url(#paint0_linear_495_15915)"/>
<path fill-rule="evenodd" clip-rule="evenodd" d="M64.391 129.204C69.8428 119.088 66.9786 107.367 74.0669 97.062C89.2016 75.0575 129.636 67.0015 144.633 69.7758C159.179 72.4663 175.57 78.3555 184.014 91.006C194.749 107.089 195.614 136.518 191.27 164.535C186.615 194.551 176.653 228.814 154.498 250.72C149.477 255.684 143.861 259.97 137.64 263.266C109.057 278.412 66.2308 268.874 55.0166 238.527C42.3684 204.298 66.8552 151.785 64.391 129.204ZM121.837 130.305C115.865 154.129 111.783 208.703 110.145 231.883C108.422 256.287 129.334 265.955 143.435 256.2C167.724 239.396 178.711 212.055 185.568 183.919C193.237 152.445 195.261 114.2 184.094 95.2621C181.279 90.4892 176.667 87.5543 170.447 88.2667C162.552 89.1715 142.803 103.009 136.396 108.174C129.629 113.631 124.4 120.085 121.837 130.305Z" fill="url(#paint1_linear_495_15915)"/>
<path fill-rule="evenodd" clip-rule="evenodd" d="M109.69 134.225C109.597 139.923 109.045 146.033 108.37 152.901L102.317 213.111C101.176 224.453 100.029 240.92 92.1286 249.241C84.8366 256.922 73.7907 255.339 64.3805 248.665C54.1626 241.417 47.0009 229.78 46.8547 217.178C46.5953 194.776 53.5614 131.492 56.4247 118.657C58.1522 110.913 61.2124 103.986 65.8476 100.198C81.5627 87.3528 110.121 107.788 109.69 134.225Z" fill="#151981"/>
<path fill-rule="evenodd" clip-rule="evenodd" d="M109.64 134.248C109.548 139.942 108.996 146.046 108.321 152.909L102.273 213.067C101.134 224.4 99.9872 240.852 92.0937 249.166C84.8078 256.841 73.7716 255.26 64.3694 248.59C54.1602 241.349 47.0046 229.722 46.8586 217.13C46.5994 194.748 53.5596 131.518 56.4203 118.694C58.1464 110.957 61.2038 104.036 65.8354 100.25C81.5369 87.4163 110.071 107.834 109.64 134.248Z" fill="#151982"/>
<path fill-rule="evenodd" clip-rule="evenodd" d="M109.588 134.272C109.496 139.96 108.944 146.06 108.27 152.916L102.227 213.023C101.089 224.346 99.9438 240.784 92.057 249.091C84.7772 256.759 73.7504 255.18 64.3563 248.516C54.1559 241.281 47.0063 229.663 46.8606 217.083C46.6016 194.719 53.5558 131.544 56.4142 118.731C58.1389 111 61.1938 104.085 65.8212 100.303C81.5091 87.48 110.019 107.88 109.588 134.272Z" fill="#151983"/>
<path fill-rule="evenodd" clip-rule="evenodd" d="M109.538 134.296C109.446 139.98 108.895 146.074 108.222 152.925L102.184 212.98C101.046 224.293 99.902 240.717 92.0221 249.017C84.7489 256.679 73.7313 255.101 64.3453 248.443C54.1534 241.213 47.0102 229.606 46.8645 217.036C46.6057 194.692 53.5539 131.571 56.4098 118.769C58.1329 111.044 61.1852 104.135 65.8087 100.356C81.483 87.5443 109.968 107.927 109.538 134.296Z" fill="#161A84"/>
<path fill-rule="evenodd" clip-rule="evenodd" d="M109.489 134.319C109.397 139.998 108.846 146.087 108.173 152.932L102.141 212.936C101.004 224.24 99.861 240.65 91.9875 248.942C84.7205 256.597 73.7121 255.02 64.3342 248.368C54.1511 241.145 47.0138 229.548 46.8684 216.989C46.6099 194.664 53.552 131.596 56.4056 118.805C58.1273 111.087 61.1769 104.184 65.7965 100.408C81.4578 87.6081 109.919 107.973 109.489 134.319Z" fill="#161A85"/>
<path fill-rule="evenodd" clip-rule="evenodd" d="M109.437 134.343C109.345 140.017 108.795 146.101 108.123 152.94L102.095 212.892C100.96 224.186 99.8173 240.582 91.9507 248.868C84.6897 256.516 73.691 254.94 64.3212 248.294C54.1468 241.077 47.0158 229.49 46.8703 216.941C46.6121 194.635 53.5485 131.622 56.3993 118.842C58.1194 111.131 61.1664 104.234 65.7821 100.461C81.4303 87.6715 109.867 108.019 109.437 134.343Z" fill="#161A86"/>
<path fill-rule="evenodd" clip-rule="evenodd" d="M109.387 134.367C109.295 140.036 108.746 146.114 108.074 152.948L102.052 212.848C100.917 224.133 99.7758 240.514 91.9159 248.793C84.6611 256.434 73.6719 254.861 64.3101 248.22C54.1445 241.009 47.0195 229.432 46.8742 216.894C46.616 194.607 53.5466 131.648 56.3951 118.879C58.1138 111.174 61.1584 104.283 65.7699 100.514C81.4042 87.7351 109.816 108.065 109.387 134.367Z" fill="#161A87"/>
<path fill-rule="evenodd" clip-rule="evenodd" d="M109.337 134.39C109.245 140.054 108.696 146.128 108.025 152.955L102.008 212.804C100.874 224.079 99.734 240.447 91.8811 248.718C84.6325 256.353 73.6527 254.78 64.299 248.145C54.1422 240.941 47.0231 229.373 46.8781 216.847C46.6203 194.579 53.5447 131.674 56.3907 118.916C58.108 111.218 61.1498 104.332 65.7574 100.566C81.3784 87.7985 109.766 108.111 109.337 134.39Z" fill="#171B88"/>
<path fill-rule="evenodd" clip-rule="evenodd" d="M109.286 134.414C109.194 140.073 108.645 146.142 107.975 152.963L101.963 212.761C100.83 224.026 99.691 240.38 91.8445 248.644C84.6024 256.273 73.6318 254.701 64.2859 248.072C54.1379 240.874 47.0251 229.316 46.8801 216.8C46.6223 194.551 53.5409 131.7 56.3846 118.953C58.1003 111.262 61.1395 104.382 65.7432 100.62C81.351 87.863 109.714 108.158 109.286 134.414Z" fill="#171B89"/>
<path fill-rule="evenodd" clip-rule="evenodd" d="M109.236 134.438C109.144 140.092 108.596 146.155 107.926 152.971L101.919 212.717C100.788 223.973 99.6492 240.312 91.8097 248.569C84.5737 256.191 73.6127 254.621 64.2748 247.998C54.1355 240.806 47.0288 229.258 46.884 216.753C46.6264 194.523 53.539 131.726 56.3804 118.99C58.0947 111.305 61.1312 104.432 65.7309 100.672C81.3249 87.9264 109.664 108.204 109.236 134.438Z" fill="#171B8A"/>
<path fill-rule="evenodd" clip-rule="evenodd" d="M109.186 134.461C109.094 140.111 108.547 146.169 107.877 152.978L101.876 212.673C100.745 223.919 99.6075 240.245 91.7748 248.495C84.5452 256.11 73.5935 254.541 64.2638 247.923C54.133 240.738 47.0327 229.2 46.8879 216.706C46.6305 194.495 53.5372 131.752 56.376 119.027C58.0887 111.349 61.1229 104.481 65.7185 100.725C81.2994 87.9898 109.614 108.25 109.186 134.461Z" fill="#171B8B"/>
<path fill-rule="evenodd" clip-rule="evenodd" d="M109.136 134.485C109.044 140.129 108.497 146.182 107.828 152.986L101.832 212.629C100.702 223.865 99.566 240.177 91.74 248.42C84.5166 256.029 73.5744 254.462 64.2527 247.849C54.1307 240.669 47.0363 229.142 46.8918 216.658C46.6347 194.467 53.5353 131.778 56.3719 119.063C58.0832 111.392 61.1146 104.53 65.7062 100.777C81.2733 88.0536 109.563 108.296 109.136 134.485Z" fill="#171C8C"/>
<path fill-rule="evenodd" clip-rule="evenodd" d="M109.085 134.509C108.993 140.149 108.446 146.196 107.778 152.994L101.787 212.586C100.658 223.813 99.5225 240.11 91.7032 248.346C84.486 255.948 73.5533 254.382 64.2396 247.776C54.1264 240.602 47.038 229.084 46.8937 216.612C46.6368 194.439 53.5317 131.804 56.3655 119.101C58.0754 111.436 61.104 104.581 65.6918 100.831C81.2457 88.1178 109.511 108.343 109.085 134.509Z" fill="#181C8D"/>
<path fill-rule="evenodd" clip-rule="evenodd" d="M109.035 134.532C108.943 140.167 108.397 146.21 107.73 153.002L101.743 212.542C100.616 223.759 99.4812 240.042 91.6686 248.271C84.4573 255.867 73.5343 254.302 64.2288 247.701C54.1243 240.534 47.0422 229.026 46.8976 216.564C46.641 194.411 53.5299 131.831 56.3613 119.138C58.0696 111.48 61.0957 104.63 65.6795 100.883C81.2201 88.1813 109.461 108.389 109.035 134.532Z" fill="#181C8E"/>
<path fill-rule="evenodd" clip-rule="evenodd" d="M108.983 134.556C108.892 140.186 108.346 146.223 107.679 153.009L101.698 212.499C100.571 223.705 99.4377 239.975 91.632 248.196C84.4273 255.786 73.5134 254.222 64.2157 247.627C54.12 240.466 47.0439 228.968 46.8996 216.517C46.6432 194.383 53.5261 131.856 56.355 119.175C58.0619 111.523 61.0854 104.679 65.6654 100.936C81.1927 88.2449 109.41 108.435 108.983 134.556Z" fill="#181C8F"/>
<path fill-rule="evenodd" clip-rule="evenodd" d="M108.934 134.579C108.842 140.205 108.297 146.236 107.63 153.017L101.654 212.455C100.529 223.652 99.3962 239.907 91.5972 248.122C84.3986 255.704 73.4943 254.143 64.2046 247.553C54.1177 240.398 47.0476 228.91 46.9035 216.47C46.6473 194.355 53.5242 131.882 56.3508 119.212C58.0561 111.566 61.0771 104.729 65.6531 100.989C81.1669 88.3083 109.359 108.482 108.934 134.579Z" fill="#181D90"/>
<path fill-rule="evenodd" clip-rule="evenodd" d="M108.884 134.604C108.792 140.224 108.247 146.251 107.582 153.025L101.611 212.412C100.486 223.599 99.3546 239.84 91.5624 248.048C84.3698 255.624 73.4751 254.063 64.1936 247.479C54.1151 240.331 47.0515 228.853 46.9074 216.423C46.6514 194.327 53.5223 131.909 56.3464 119.249C58.0504 111.611 61.0686 104.779 65.6406 101.042C81.1411 88.3728 109.309 108.528 108.884 134.604Z" fill="#191D91"/>
<path fill-rule="evenodd" clip-rule="evenodd" d="M108.832 134.627C108.741 140.242 108.196 146.263 107.531 153.032L101.566 212.367C100.442 223.545 99.3112 239.772 91.5256 247.972C84.3392 255.541 73.454 253.982 64.1805 247.404C54.1109 240.262 47.0532 228.793 46.9093 216.374C46.6536 194.298 53.5185 131.933 56.3403 119.285C58.0426 111.653 61.0583 104.827 65.6265 101.093C81.1133 88.4357 109.257 108.574 108.832 134.627Z" fill="#191D92"/>
<path fill-rule="evenodd" clip-rule="evenodd" d="M108.784 134.651C108.693 140.261 108.149 146.278 107.484 153.04L101.524 212.324C100.401 223.492 99.2716 239.705 91.4929 247.898C84.3128 255.461 73.4368 253.903 64.1714 247.331C54.1105 240.194 47.059 228.736 46.9151 216.328C46.6597 194.271 53.5188 131.96 56.3378 119.323C58.0388 111.698 61.0519 104.877 65.6159 101.147C81.0894 88.4998 109.209 108.621 108.784 134.651Z" fill="#191D93"/>
<path fill-rule="evenodd" clip-rule="evenodd" d="M108.732 134.674C108.641 140.28 108.098 146.291 107.434 153.048L101.479 212.28C100.357 223.438 99.2281 239.637 91.4561 247.823C84.2823 255.38 73.4157 253.823 64.1584 247.256C54.1062 240.126 47.0607 228.678 46.9171 216.281C46.6618 194.242 53.515 131.986 56.3317 119.359C58.0313 111.741 61.0417 104.927 65.6018 101.199C81.0618 88.5634 109.157 108.667 108.732 134.674Z" fill="#191E94"/>
<path fill-rule="evenodd" clip-rule="evenodd" d="M108.683 134.698C108.592 140.299 108.049 146.304 107.385 153.055L101.435 212.236C100.314 223.385 99.1866 239.57 91.4213 247.749C84.2539 255.298 73.3965 253.743 64.1472 247.182C54.1039 240.058 47.0644 228.62 46.921 216.233C46.666 194.214 53.5131 132.012 56.3275 119.396C58.0255 111.784 61.0333 104.976 65.5895 101.252C81.036 88.627 109.106 108.713 108.683 134.698Z" fill="#191E95"/>
<path fill-rule="evenodd" clip-rule="evenodd" d="M108.633 134.722C108.541 140.318 107.999 146.319 107.336 153.064L101.392 212.193C100.272 223.332 99.1451 239.503 91.3865 247.675C84.2253 255.218 73.3774 253.664 64.1362 247.109C54.1016 239.991 47.0683 228.563 46.9249 216.187C46.6701 194.187 53.5113 132.038 56.3231 119.434C58.0197 111.829 61.0248 105.026 65.577 101.305C81.0101 88.6912 109.056 108.759 108.633 134.722Z" fill="#1A1E96"/>
<path fill-rule="evenodd" clip-rule="evenodd" d="M108.581 134.745C108.49 140.337 107.948 146.332 107.286 153.071L101.346 212.149C100.227 223.278 99.1014 239.435 91.3497 247.6C84.1947 255.136 73.3563 253.584 64.1231 247.034C54.0973 239.923 47.07 228.504 46.9268 216.139C46.6723 194.159 53.5074 132.064 56.317 119.471C58.012 111.872 61.0147 105.075 65.5628 101.358C80.9825 88.7546 109.004 108.805 108.581 134.745Z" fill="#1A1E97"/>
<path fill-rule="evenodd" clip-rule="evenodd" d="M108.531 134.769C108.44 140.355 107.899 146.345 107.237 153.079L101.302 212.105C100.184 223.225 99.0599 239.367 91.3148 247.525C84.1661 255.055 73.3371 253.504 64.112 246.96C54.0947 239.855 47.0739 228.446 46.9307 216.092C46.6764 194.13 53.5056 132.09 56.3126 119.507C58.0062 111.915 61.0062 105.125 65.5504 101.41C80.9565 88.8183 108.954 108.852 108.531 134.769Z" fill="#1A1F98"/>
<path fill-rule="evenodd" clip-rule="evenodd" d="M108.482 134.793C108.391 140.374 107.85 146.359 107.189 153.086L101.259 212.061C100.142 223.171 99.0186 239.3 91.2802 247.45C84.1377 254.974 73.3182 253.424 64.101 246.886C54.0924 239.787 47.0776 228.388 46.9346 216.045C46.6805 194.102 53.5037 132.116 56.3085 119.544C58.0006 111.959 60.9979 105.174 65.5381 101.463C80.9313 88.8819 108.904 108.898 108.482 134.793Z" fill="#1A1F99"/>
<path fill-rule="evenodd" clip-rule="evenodd" d="M108.43 134.817C108.339 140.393 107.798 146.373 107.138 153.095L101.214 212.018C100.098 223.118 98.9751 239.233 91.2435 247.376C84.1072 254.893 73.2971 253.345 64.0879 246.812C54.0881 239.719 47.0793 228.331 46.9366 215.998C46.6827 194.075 53.5001 132.142 56.3021 119.582C57.9927 112.003 60.9874 105.224 65.5237 101.516C80.9033 88.9462 108.852 108.945 108.43 134.817Z" fill="#1B1F9A"/>
<path fill-rule="evenodd" clip-rule="evenodd" d="M108.38 134.84C108.289 140.412 107.749 146.387 107.089 153.102L101.17 211.974C100.055 223.065 98.9333 239.165 91.2086 247.302C84.0785 254.812 73.2779 253.265 64.0768 246.738C54.0858 239.651 47.0832 228.273 46.9405 215.951C46.6869 194.046 53.4983 132.168 56.2979 119.619C57.9871 112.046 60.9793 105.274 65.5115 101.569C80.8774 89.0097 108.801 108.991 108.38 134.84Z" fill="#1B1F9B"/>
<path fill-rule="evenodd" clip-rule="evenodd" d="M108.33 134.864C108.24 140.431 107.7 146.4 107.04 153.11L101.127 211.93C100.012 223.011 98.8918 239.098 91.1738 247.227C84.0499 254.731 73.2588 253.185 64.0657 246.664C54.0835 239.583 47.0869 228.215 46.9444 215.903C46.691 194.018 53.4964 132.194 56.2935 119.656C57.9811 112.09 60.9707 105.323 65.4992 101.622C80.8518 89.0732 108.751 109.037 108.33 134.864Z" fill="#1B209C"/>
<path fill-rule="evenodd" clip-rule="evenodd" d="M108.279 134.887C108.188 140.449 107.649 146.413 106.99 153.117L101.081 211.886C99.9685 222.958 98.8486 239.03 91.1372 247.152C84.0194 254.649 73.2379 253.105 64.0529 246.59C54.0794 239.515 47.0888 228.157 46.9463 215.856C46.6932 193.99 53.4926 132.22 56.2874 119.692C57.9736 112.133 60.9605 105.372 65.4851 101.674C80.8243 89.1366 108.699 109.083 108.279 134.887Z" fill="#1B209D"/>
<path fill-rule="evenodd" clip-rule="evenodd" d="M108.229 134.911C108.138 140.468 107.6 146.426 106.941 153.125L101.038 211.842C99.926 222.904 98.8073 238.962 91.1026 247.077C83.991 254.568 73.219 253.025 64.0418 246.515C54.0771 239.447 47.0927 228.098 46.9502 215.809C46.6973 193.962 53.4907 132.246 56.2832 119.729C57.968 112.177 60.9521 105.422 65.4728 101.727C80.7987 89.2003 108.65 109.129 108.229 134.911Z" fill="#1B209E"/>
<path fill-rule="evenodd" clip-rule="evenodd" d="M108.179 134.935C108.089 140.487 107.55 146.441 106.893 153.133L100.994 211.799C99.8833 222.851 98.7655 238.895 91.0678 247.003C83.9624 254.487 73.1998 252.946 64.0308 246.442C54.0745 239.38 47.0964 228.041 46.9541 215.762C46.7012 193.934 53.4889 132.272 56.2788 119.767C57.962 112.221 60.9438 105.472 65.4603 101.78C80.7726 89.2647 108.599 109.176 108.179 134.935Z" fill="#1C209F"/>
<path fill-rule="evenodd" clip-rule="evenodd" d="M108.127 134.959C108.037 140.506 107.499 146.454 106.842 153.141L100.949 211.755C99.8387 222.798 98.722 238.828 91.031 246.928C83.9318 254.406 73.1787 252.866 64.0177 246.367C54.0703 239.311 47.0984 227.983 46.9561 215.715C46.7034 193.906 53.4853 132.298 56.2727 119.803C57.9545 112.264 60.9335 105.521 65.4461 101.833C80.745 89.3282 108.547 109.222 108.127 134.959Z" fill="#1C21A0"/>
<path fill-rule="evenodd" clip-rule="evenodd" d="M108.077 134.982C107.987 140.524 107.45 146.468 106.793 153.148L100.906 211.712C99.7963 222.744 98.6805 238.76 90.9961 246.854C83.9034 254.325 73.1595 252.786 64.0066 246.293C54.0679 239.243 47.102 227.925 46.96 215.667C46.7075 193.878 53.4834 132.324 56.2683 119.84C57.9485 112.308 60.925 105.57 65.4337 101.885C80.7189 89.3917 108.497 109.268 108.077 134.982Z" fill="#1C21A1"/>
<path fill-rule="evenodd" clip-rule="evenodd" d="M108.028 135.006C107.937 140.543 107.401 146.481 106.745 153.156L100.862 211.668C99.7538 222.69 98.639 238.693 90.9613 246.779C83.8748 254.243 73.1402 252.706 63.9956 246.219C54.0656 239.175 47.1057 227.867 46.9639 215.62C46.7116 193.85 53.4816 132.35 56.2642 119.877C57.943 112.351 60.9167 105.62 65.4214 101.938C80.6934 89.4553 108.447 109.314 108.028 135.006Z" fill="#1C21A2"/>
<path fill-rule="evenodd" clip-rule="evenodd" d="M107.976 135.029C107.886 140.562 107.35 146.495 106.694 153.163L100.816 211.624C99.7092 222.637 98.5953 238.625 90.9245 246.704C83.8442 254.162 73.1191 252.626 63.9825 246.145C54.0613 239.107 47.1076 227.808 46.9658 215.572C46.7138 193.821 53.4777 132.376 56.2578 119.914C57.935 112.394 60.9064 105.669 65.407 101.99C80.6658 89.519 108.395 109.36 107.976 135.029Z" fill="#1D21A3"/>
<path fill-rule="evenodd" clip-rule="evenodd" d="M107.926 135.053C107.836 140.581 107.3 146.508 106.645 153.171L100.773 211.58C99.6667 222.584 98.5538 238.558 90.8899 246.63C83.8159 254.081 73.1001 252.547 63.9714 246.071C54.059 239.04 47.1113 227.751 46.9697 215.526C46.718 193.794 53.4759 132.403 56.2536 119.951C57.9294 112.439 60.8981 105.719 65.3947 102.044C80.6399 89.5829 108.344 109.407 107.926 135.053Z" fill="#1D22A4"/>
<path fill-rule="evenodd" clip-rule="evenodd" d="M107.877 135.077C107.787 140.6 107.251 146.522 106.597 153.179L100.73 211.537C99.6243 222.53 98.5125 238.49 90.8551 246.555C83.7873 254 73.081 252.467 63.9603 245.997C54.0564 238.972 47.1152 227.693 46.9736 215.479C46.7221 193.766 53.474 132.428 56.2492 119.988C57.9237 112.482 60.8895 105.769 65.3823 102.096C80.6145 89.6466 108.294 109.453 107.877 135.077Z" fill="#1D22A5"/>
<path fill-rule="evenodd" clip-rule="evenodd" d="M107.825 135.1C107.735 140.618 107.2 146.535 106.546 153.187L100.684 211.493C99.5799 222.477 98.4688 238.423 90.8183 246.481C83.7567 253.919 73.0598 252.387 63.9473 245.923C54.0522 238.904 47.1169 227.635 46.9756 215.431C46.7243 193.737 53.4702 132.454 56.2431 120.025C57.9159 112.526 60.8795 105.818 65.3681 102.149C80.5865 89.7102 108.242 109.499 107.825 135.1Z" fill="#1D22A6"/>
<path fill-rule="evenodd" clip-rule="evenodd" d="M107.775 135.124C107.685 140.637 107.151 146.549 106.497 153.194L100.641 211.449C99.5372 222.423 98.4272 238.355 90.7834 246.406C83.7281 253.838 73.0407 252.307 63.9362 245.848C54.0498 238.836 47.1206 227.577 46.9795 215.384C46.7284 193.709 53.4686 132.48 56.2387 120.062C57.9101 112.569 60.8709 105.867 65.3556 102.201C80.5607 89.7737 108.192 109.545 107.775 135.124Z" fill="#1D22A7"/>
<path fill-rule="evenodd" clip-rule="evenodd" d="M107.725 135.147C107.635 140.656 107.101 146.562 106.449 153.202L100.597 211.405C99.4948 222.37 98.3857 238.287 90.7488 246.331C83.6995 253.756 73.0218 252.227 63.9251 245.774C54.0475 238.768 47.1245 227.519 46.9834 215.336C46.7325 193.681 53.4667 132.506 56.2345 120.099C57.9043 112.612 60.8626 105.917 65.3434 102.254C80.535 89.8374 108.142 109.591 107.725 135.147Z" fill="#1E23A8"/>
<path fill-rule="evenodd" clip-rule="evenodd" d="M107.673 135.172C107.584 140.675 107.05 146.576 106.398 153.21L100.552 211.362C99.4504 222.317 98.3425 238.22 90.7121 246.257C83.6689 253.676 73.0007 252.148 63.9121 245.701C54.0432 238.7 47.1262 227.461 46.9853 215.29C46.7347 193.653 53.4629 132.532 56.2284 120.136C57.8968 112.656 60.8523 105.966 65.3292 102.307C80.5073 89.9016 108.09 109.638 107.673 135.172Z" fill="#1E23A9"/>
<path fill-rule="evenodd" clip-rule="evenodd" d="M107.623 135.195C107.534 140.694 107.001 146.59 106.349 153.218L100.508 211.318C99.4077 222.263 98.3007 238.153 90.6772 246.182C83.6405 253.594 72.9815 252.068 63.901 245.626C54.0409 238.632 47.1301 227.403 46.9892 215.242C46.7388 193.625 53.461 132.558 56.224 120.173C57.8911 112.7 60.8438 106.016 65.317 102.36C80.4814 89.9652 108.04 109.684 107.623 135.195Z" fill="#1E23AA"/>
<path fill-rule="evenodd" clip-rule="evenodd" d="M107.574 135.219C107.484 140.712 106.952 146.603 106.301 153.225L100.465 211.274C99.3653 222.21 98.2592 238.085 90.6424 246.108C83.6117 253.513 72.9623 251.988 63.8899 245.552C54.0386 238.564 47.1338 227.345 46.9931 215.195C46.743 193.597 53.4591 132.584 56.2198 120.21C57.8853 112.743 60.8357 106.065 65.3047 102.412C80.4558 90.0288 107.989 109.731 107.574 135.219Z" fill="#1E23AB"/>
<path fill-rule="evenodd" clip-rule="evenodd" d="M107.522 135.243C107.433 140.732 106.901 146.617 106.25 153.233L100.419 211.231C99.3209 222.157 98.2157 238.018 90.6058 246.034C83.5816 253.432 72.9415 251.908 63.8771 245.479C54.0343 238.497 47.1357 227.288 46.9951 215.148C46.7451 193.569 53.4553 132.611 56.2135 120.247C57.8775 112.787 60.8252 106.115 65.2903 102.466C80.4282 90.0931 107.937 109.777 107.522 135.243Z" fill="#1F24AB"/>
<path fill-rule="evenodd" clip-rule="evenodd" d="M107.472 135.266C107.383 140.75 106.851 146.631 106.202 153.241L100.376 211.187C99.2784 222.103 98.1744 237.95 90.571 245.959C83.553 253.351 72.9223 251.828 63.8658 245.404C54.0317 238.429 47.1394 227.23 46.999 215.101C46.7493 193.541 53.4537 132.637 56.2093 120.284C57.8717 112.831 60.8169 106.165 65.278 102.518C80.4026 90.1566 107.887 109.823 107.472 135.266Z" fill="#1F24AC"/>
<path fill-rule="evenodd" clip-rule="evenodd" d="M107.423 135.29C107.334 140.769 106.803 146.644 106.153 153.248L100.333 211.143C99.236 222.05 98.1329 237.883 90.5364 245.884C83.5246 253.27 72.9034 251.749 63.8549 245.33C54.0296 238.361 47.1433 227.171 47.0029 215.054C46.7534 193.513 53.4518 132.662 56.2049 120.321C57.8659 112.874 60.8083 106.214 65.2656 102.571C80.377 90.2201 107.837 109.869 107.423 135.29Z" fill="#1F24AD"/>
<path fill-rule="evenodd" clip-rule="evenodd" d="M107.371 135.313C107.282 140.788 106.751 146.658 106.102 153.256L100.287 211.099C99.1913 221.996 98.0894 237.815 90.4996 245.809C83.494 253.188 72.8823 251.669 63.8419 245.256C54.0254 238.293 47.145 227.113 47.0048 215.006C46.7556 193.485 53.448 132.688 56.1988 120.358C57.8584 112.918 60.7983 106.263 65.2514 102.623C80.349 90.2837 107.785 109.916 107.371 135.313Z" fill="#1F24AE"/>
<path fill-rule="evenodd" clip-rule="evenodd" d="M107.323 135.337C107.234 140.806 106.704 146.671 106.056 153.264L100.245 211.056C99.1509 221.943 98.0496 237.748 90.4667 245.735C83.4674 253.107 72.8648 251.589 63.8328 245.182C54.025 238.225 47.1509 227.055 47.0107 214.959C46.7617 193.457 53.4481 132.714 56.1963 120.395C57.8544 112.961 60.7917 106.313 65.2409 102.676C80.3251 90.3472 107.737 109.962 107.323 135.337Z" fill="#2025AF"/>
<path fill-rule="evenodd" clip-rule="evenodd" d="M107.271 135.361C107.182 140.826 106.653 146.685 106.005 153.272L100.2 211.012C99.1064 221.89 98.0064 237.681 90.4299 245.661C83.4368 253.026 72.8437 251.509 63.8197 245.108C54.0207 238.157 47.1526 226.998 47.0126 214.912C46.7638 193.429 53.4443 132.74 56.1902 120.432C57.8469 113.005 60.7814 106.363 65.2267 102.729C80.2975 90.4115 107.685 110.009 107.271 135.361Z" fill="#2025B0"/>
<path fill-rule="evenodd" clip-rule="evenodd" d="M107.219 135.385C107.13 140.844 106.601 146.699 105.954 153.279L100.155 210.968C99.0618 221.836 97.9627 237.613 90.3931 245.586C83.4062 252.945 72.8226 251.429 63.8067 245.034C54.0162 238.089 47.1545 226.94 47.0146 214.865C46.766 193.401 53.4405 132.766 56.1838 120.469C57.8389 113.049 60.7711 106.412 65.2122 102.782C80.2697 90.4751 107.633 110.055 107.219 135.385Z" fill="#2025B1"/>
<path fill-rule="evenodd" clip-rule="evenodd" d="M107.17 135.408C107.081 140.863 106.552 146.712 105.906 153.287L100.111 210.925C99.0194 221.783 97.9214 237.545 90.3585 245.511C83.3778 252.864 72.8037 251.349 63.7956 244.959C54.0139 238.021 47.1582 226.881 47.0185 214.818C46.7701 193.373 53.4386 132.792 56.1797 120.506C57.8333 113.092 60.7628 106.462 65.2 102.835C80.2441 90.5385 107.582 110.1 107.17 135.408Z" fill="#2025B2"/>
<path fill-rule="evenodd" clip-rule="evenodd" d="M107.12 135.432C107.031 140.882 106.503 146.726 105.857 153.295L100.068 210.881C98.9769 221.729 97.8796 237.478 90.3237 245.436C83.3492 252.783 72.7845 251.269 63.7845 244.885C54.0116 237.953 47.1619 226.823 47.0224 214.77C46.7743 193.344 53.437 132.818 56.1755 120.542C57.8278 113.135 60.7545 106.511 65.188 102.887C80.2183 90.6021 107.532 110.147 107.12 135.432Z" fill="#2026B3"/>
<path fill-rule="evenodd" clip-rule="evenodd" d="M107.07 135.455C106.981 140.9 106.454 146.739 105.809 153.302L100.024 210.837C98.9345 221.675 97.8383 237.41 90.2888 245.362C83.3206 252.702 72.7654 251.19 63.7734 244.811C54.0092 237.885 47.1658 226.765 47.0263 214.723C46.7784 193.316 53.4351 132.844 56.1711 120.579C57.8218 113.179 60.7459 106.56 65.1755 102.94C80.1924 90.6658 107.482 110.193 107.07 135.455Z" fill="#2126B4"/>
<path fill-rule="evenodd" clip-rule="evenodd" d="M107.02 135.48C106.932 140.92 106.404 146.753 105.76 153.311L99.9806 210.794C98.8918 221.623 97.7966 237.343 90.254 245.288C83.2918 252.621 72.7462 251.11 63.7623 244.737C54.0069 237.818 47.1694 226.708 47.0302 214.676C46.7823 193.289 53.4332 132.87 56.1669 120.617C57.8162 113.223 60.7376 106.61 65.1633 102.993C80.1668 90.7301 107.432 110.24 107.02 135.48Z" fill="#2126B5"/>
<path fill-rule="evenodd" clip-rule="evenodd" d="M106.967 135.503C106.878 140.938 106.351 146.766 105.707 153.318L99.9333 210.75C98.8455 221.569 97.7512 237.276 90.2155 245.213C83.2598 252.54 72.7234 251.03 63.7473 244.663C54.0007 237.75 47.1694 226.65 47.0302 214.629C46.7828 193.261 53.4275 132.896 56.1587 120.654C57.8063 113.266 60.7254 106.66 65.1469 103.045C80.1371 90.7936 107.378 110.286 106.967 135.503Z" fill="#2126B6"/>
<path fill-rule="evenodd" clip-rule="evenodd" d="M106.919 135.526C106.83 140.957 106.304 146.78 105.661 153.325L99.8917 210.706C98.805 221.515 97.7116 237.208 90.1826 245.138C83.2331 252.458 72.7062 250.95 63.7382 244.589C54.0003 237.682 47.1751 226.591 47.036 214.582C46.7888 193.232 53.4276 132.922 56.1564 120.69C57.8027 113.31 60.719 106.709 65.1366 103.098C80.1134 90.8571 107.33 110.332 106.919 135.526Z" fill="#2127B7"/>
<path fill-rule="evenodd" clip-rule="evenodd" d="M106.869 135.551C106.781 140.976 106.255 146.794 105.612 153.334L99.8483 210.663C98.7625 221.463 97.6701 237.141 90.1478 245.064C83.2045 252.378 72.687 250.871 63.7271 244.515C53.9977 237.614 47.1787 226.534 47.0399 214.535C46.7928 193.205 53.4257 132.949 56.152 120.728C57.797 113.354 60.7105 106.759 65.1242 103.152C80.0878 90.9213 107.28 110.379 106.869 135.551Z" fill="#2227B8"/>
<path fill-rule="evenodd" clip-rule="evenodd" d="M106.817 135.574C106.729 140.995 106.203 146.808 105.561 153.341L99.8028 210.619C98.7179 221.409 97.6266 237.073 90.111 244.989C83.1739 252.296 72.6659 250.791 63.7141 244.441C53.9935 237.546 47.1807 226.476 47.0419 214.488C46.7949 193.176 53.4221 132.974 56.1459 120.765C57.7892 113.397 60.7004 106.808 65.11 103.204C80.0595 90.9851 107.227 110.425 106.817 135.574Z" fill="#2227B9"/>
<path fill-rule="evenodd" clip-rule="evenodd" d="M106.768 135.598C106.679 141.013 106.154 146.821 105.513 153.349L99.7594 210.575C98.6755 221.355 97.5851 237.006 90.0764 244.914C83.1455 252.215 72.647 250.711 63.7032 244.367C53.9914 237.478 47.1846 226.418 47.0458 214.44C46.7991 193.148 53.4203 133 56.1415 120.801C57.7834 113.441 60.6919 106.858 65.0975 103.257C80.0342 91.0485 107.177 110.471 106.768 135.598Z" fill="#2227BA"/>
<path fill-rule="evenodd" clip-rule="evenodd" d="M106.717 135.621C106.629 141.032 106.105 146.834 105.464 153.356L99.7156 210.531C98.6326 221.302 97.5433 236.938 90.0413 244.84C83.1167 252.134 72.6276 250.631 63.6919 244.293C53.9888 237.41 47.1882 226.36 47.0497 214.393C46.8032 193.12 53.4184 133.026 56.1373 120.839C57.7777 113.485 60.6836 106.907 65.0853 103.309C80.0081 91.1119 107.127 110.517 106.717 135.621Z" fill="#2228BB"/>
<path fill-rule="evenodd" clip-rule="evenodd" d="M106.666 135.645C106.578 141.051 106.054 146.848 105.414 153.364L99.6707 210.487C98.5888 221.248 97.5003 236.87 90.005 244.765C83.0866 252.053 72.6069 250.552 63.6791 244.219C53.9848 237.342 47.1902 226.302 47.0516 214.346C46.8054 193.092 53.4146 133.052 56.131 120.875C57.7699 113.528 60.6731 106.956 65.0708 103.362C79.9807 91.1755 107.075 110.563 106.666 135.645Z" fill="#2228BC"/>
<path fill-rule="evenodd" clip-rule="evenodd" d="M106.616 135.669C106.528 141.07 106.005 146.862 105.365 153.372L99.6271 210.444C98.5462 221.195 97.4588 236.803 89.9702 244.691C83.058 251.972 72.5878 250.472 63.668 244.145C53.9825 237.275 47.1939 226.244 47.0555 214.299C46.8095 193.064 53.4127 133.079 56.1268 120.913C57.7641 113.572 60.665 107.007 65.0586 103.415C79.9552 91.2398 107.025 110.61 106.616 135.669Z" fill="#2328BD"/>
<path fill-rule="evenodd" clip-rule="evenodd" d="M106.566 135.692C106.479 141.089 105.955 146.875 105.316 153.38L99.5835 210.4C98.5035 221.142 97.417 236.736 89.9353 244.616C83.0294 251.89 72.5684 250.392 63.6569 244.071C53.9801 237.207 47.1978 226.186 47.0594 214.252C46.8136 193.036 53.4108 133.105 56.1226 120.95C57.7586 113.616 60.6567 107.056 65.0464 103.468C79.9293 91.3033 106.975 110.656 106.566 135.692Z" fill="#2328BE"/>
<path fill-rule="evenodd" clip-rule="evenodd" d="M106.515 135.716C106.427 141.107 105.904 146.889 105.265 153.387L99.5379 210.356C98.4588 221.088 97.3736 236.668 89.8985 244.541C82.9988 251.809 72.5473 250.312 63.6439 243.996C53.9756 237.138 47.1995 226.128 47.0614 214.204C46.8158 193.008 53.407 133.13 56.1163 120.986C57.7508 113.659 60.6462 107.105 65.0319 103.52C79.9015 91.3669 106.923 110.702 106.515 135.716Z" fill="#2329BF"/>
<path fill-rule="evenodd" clip-rule="evenodd" d="M106.465 135.739C106.377 141.126 105.855 146.902 105.217 153.395L99.4944 210.312C98.4162 221.034 97.3318 236.6 89.8637 244.467C82.9702 251.728 72.5281 250.232 63.6328 243.922C53.9733 237.07 47.2031 226.07 47.0653 214.157C46.8199 192.98 53.4054 133.156 56.1121 121.023C57.745 113.702 60.6378 107.155 65.0197 103.573C79.8756 91.4304 106.872 110.748 106.465 135.739Z" fill="#2329C0"/>
<path fill-rule="evenodd" clip-rule="evenodd" d="M106.415 135.764C106.328 141.146 105.806 146.916 105.168 153.403L99.4512 210.269C98.3742 220.982 97.2907 236.534 89.8291 244.393C82.9418 251.647 72.5092 250.153 63.6217 243.849C53.971 237.003 47.207 226.012 47.0692 214.11C46.8241 192.952 53.4035 133.183 56.1077 121.061C57.7393 113.747 60.6295 107.205 65.0075 103.626C79.85 91.4948 106.822 110.795 106.415 135.764Z" fill="#2429C1"/>
<path fill-rule="evenodd" clip-rule="evenodd" d="M106.363 135.787C106.276 141.164 105.755 146.93 105.118 153.411L99.4057 210.225C98.3296 220.928 97.247 236.466 89.7923 244.318C82.9112 251.566 72.4881 250.073 63.6087 243.774C53.9667 236.935 47.2088 225.954 47.0711 214.063C46.8262 192.924 53.3997 133.208 56.1016 121.097C57.7315 113.79 60.6192 107.254 64.9933 103.679C79.8225 91.5584 106.77 110.841 106.363 135.787Z" fill="#2429C2"/>
<path fill-rule="evenodd" clip-rule="evenodd" d="M106.313 135.811C106.226 141.183 105.705 146.943 105.069 153.418L99.3621 210.181C98.2869 220.874 97.2055 236.398 89.7575 244.243C82.8826 251.484 72.469 249.993 63.5976 243.7C53.9644 236.867 47.2127 225.896 47.075 214.015C46.8304 192.896 53.3978 133.234 56.0972 121.134C57.7257 113.833 60.6107 107.303 64.9808 103.731C79.7964 91.622 106.72 110.887 106.313 135.811Z" fill="#242AC3"/>
<path fill-rule="evenodd" clip-rule="evenodd" d="M106.264 135.834C106.176 141.201 105.656 146.957 105.02 153.426L99.3187 210.137C98.2444 220.821 97.164 236.33 89.7226 244.168C82.854 251.403 72.4498 249.913 63.5865 243.626C53.962 236.799 47.2163 225.838 47.0789 213.968C46.8345 192.867 53.396 133.26 56.093 121.171C57.7202 113.877 60.6024 107.352 64.9685 103.784C79.7708 91.6854 106.67 110.933 106.264 135.834Z" fill="#242AC4"/>
<path fill-rule="evenodd" clip-rule="evenodd" d="M106.212 135.859C106.124 141.221 105.605 146.971 104.97 153.434L99.2731 210.094C98.2 220.768 97.1205 236.264 89.6858 244.095C82.8234 251.323 72.4287 249.834 63.5734 243.552C53.9577 236.732 47.2183 225.781 47.0809 213.922C46.8367 192.84 53.3922 133.287 56.0867 121.209C57.7122 113.921 60.5921 107.403 64.9541 103.837C79.7427 91.7497 106.617 110.98 106.212 135.859Z" fill="#242AC5"/>
<path fill-rule="evenodd" clip-rule="evenodd" d="M106.162 135.882C106.075 141.24 105.556 146.984 104.921 153.442L99.2298 210.051C98.1576 220.715 97.079 236.196 89.6512 244.02C82.7951 251.241 72.4097 249.754 63.5623 243.478C53.9552 236.664 47.2219 225.723 47.0848 213.874C46.8408 192.812 53.3905 133.313 56.0825 121.246C57.7067 113.964 60.5838 107.452 64.9419 103.89C79.7174 91.8133 106.568 111.026 106.162 135.882Z" fill="#252AC6"/>
<path fill-rule="evenodd" clip-rule="evenodd" d="M106.112 135.906C106.025 141.258 105.506 146.998 104.872 153.449L99.1862 210.006C98.1149 220.661 97.0374 236.128 89.6164 243.945C82.7665 251.16 72.3906 249.674 63.5512 243.404C53.9529 236.595 47.2256 225.664 47.0887 213.827C46.8449 192.784 53.3886 133.339 56.0781 121.282C57.7009 114.008 60.5752 107.501 64.9294 103.942C79.6915 91.8768 106.518 111.072 106.112 135.906Z" fill="#252BC7"/>
<path fill-rule="evenodd" clip-rule="evenodd" d="M106.061 135.929C105.974 141.277 105.455 147.011 104.822 153.457L99.1409 209.963C98.0705 220.607 96.994 236.061 89.5796 243.87C82.7359 251.079 72.3695 249.594 63.5382 243.329C53.9486 236.527 47.2276 225.606 47.0906 213.779C46.8471 192.755 53.3848 133.364 56.0719 121.319C57.6931 114.051 60.5649 107.551 64.9152 103.995C79.6639 91.9405 106.466 111.118 106.061 135.929Z" fill="#252BC8"/>
<path fill-rule="evenodd" clip-rule="evenodd" d="M106.011 135.953C105.924 141.296 105.406 147.024 104.773 153.464L99.0973 209.919C98.0281 220.554 96.9525 235.993 89.5448 243.795C82.7073 250.997 72.3503 249.514 63.5271 243.255C53.9463 236.459 47.2312 225.548 47.0945 213.732C46.8512 192.727 53.383 133.39 56.0678 121.356C57.6876 114.094 60.5569 107.6 64.903 104.048C79.6383 92.0039 106.415 111.164 106.011 135.953Z" fill="#252BC9"/>
<path fill-rule="evenodd" clip-rule="evenodd" d="M105.961 135.977C105.874 141.315 105.357 147.038 104.724 153.473L99.0537 209.876C97.9854 220.501 96.9107 235.926 89.5099 243.721C82.6787 250.917 72.3312 249.435 63.516 243.182C53.9439 236.392 47.2349 225.491 47.0984 213.686C46.8554 192.7 53.3811 133.417 56.0634 121.393C57.6816 114.139 60.5483 107.65 64.8905 104.101C79.612 92.0682 106.365 111.211 105.961 135.977Z" fill="#262BCA"/>
<path fill-rule="evenodd" clip-rule="evenodd" d="M105.91 136.001C105.823 141.334 105.306 147.052 104.674 153.48L99.0086 209.832C97.9412 220.448 96.8677 235.859 89.4736 243.647C82.6486 250.836 72.3103 249.355 63.5032 243.107C53.9399 236.324 47.2371 225.433 47.1004 213.638C46.8576 192.671 53.3773 133.443 56.0573 121.43C57.674 114.182 60.538 107.699 64.8763 104.153C79.5849 92.1321 106.313 111.258 105.91 136.001Z" fill="#262CCB"/>
<path fill-rule="evenodd" clip-rule="evenodd" d="M105.86 136.024C105.773 141.352 105.257 147.065 104.625 153.488L98.9652 209.788C97.8988 220.394 96.8262 235.791 89.4388 243.572C82.62 250.754 72.2911 249.275 63.4922 243.033C53.9374 236.256 47.2408 225.375 47.1043 213.591C46.8617 192.643 53.3754 133.468 56.0529 121.467C57.6681 114.225 60.5295 107.749 64.8639 104.206C79.5593 92.1953 106.263 111.303 105.86 136.024Z" fill="#262CCC"/>
<path fill-rule="evenodd" clip-rule="evenodd" d="M105.808 136.047C105.721 141.371 105.205 147.079 104.575 153.495L98.9196 209.744C97.8542 220.34 96.7825 235.723 89.402 243.497C82.5894 250.673 72.27 249.195 63.4791 242.959C53.9331 236.188 47.2425 225.316 47.1062 213.544C46.8639 192.615 53.3718 133.495 56.0468 121.504C57.6605 114.269 60.5194 107.798 64.8496 104.259C79.5313 92.2587 106.211 111.349 105.808 136.047Z" fill="#262CCD"/>
<path fill-rule="evenodd" clip-rule="evenodd" d="M105.758 136.072C105.672 141.39 105.156 147.093 104.526 153.504L98.876 209.701C97.8117 220.288 96.7409 235.656 89.3671 243.423C82.5608 250.592 72.2508 249.116 63.468 242.885C53.9307 236.12 47.2464 225.259 47.1101 213.497C46.868 192.588 53.37 133.521 56.0423 121.541C57.6548 114.313 60.5109 107.848 64.8374 104.312C79.5056 92.3232 106.161 111.396 105.758 136.072Z" fill="#262CCE"/>
<path fill-rule="evenodd" clip-rule="evenodd" d="M105.71 136.095C105.624 141.409 105.109 147.106 104.479 153.511L98.8344 209.657C97.771 220.234 96.7014 235.589 89.3343 243.348C82.5341 250.511 72.2337 249.036 63.4589 242.811C53.9304 236.052 47.252 225.201 47.116 213.45C46.8739 192.559 53.3701 133.547 56.0401 121.578C57.6509 114.356 60.5045 107.898 64.8271 104.365C79.4816 92.3866 106.112 111.442 105.71 136.095Z" fill="#272DCF"/>
<path fill-rule="evenodd" clip-rule="evenodd" d="M105.657 136.119C105.57 141.428 105.056 147.12 104.427 153.519L98.7871 209.613C97.7246 220.18 96.6559 235.521 89.2955 243.274C82.5016 250.43 72.2106 248.956 63.4439 242.737C53.9241 235.984 47.252 225.143 47.116 213.402C46.8741 192.531 53.3643 133.573 56.0321 121.615C57.6415 114.4 60.4923 107.947 64.811 104.417C79.452 92.4504 106.058 111.489 105.657 136.119Z" fill="#272DD0"/>
<path fill-rule="evenodd" clip-rule="evenodd" d="M105.607 136.142C105.52 141.446 105.006 147.133 104.378 153.526L98.7438 209.569C97.6822 220.127 96.6144 235.453 89.2609 243.199C82.4732 250.348 72.1917 248.876 63.4328 242.662C53.9218 235.916 47.2557 225.085 47.1198 213.355C46.8784 192.503 53.3624 133.598 56.0277 121.652C57.6355 114.443 60.484 107.996 64.7985 104.469C79.4262 92.514 106.008 111.535 105.607 136.142Z" fill="#272DD1"/>
<path fill-rule="evenodd" clip-rule="evenodd" d="M105.557 136.166C105.471 141.465 104.958 147.147 104.329 153.534L98.7002 209.525C97.6395 220.073 96.5729 235.386 89.2261 243.124C82.4446 250.267 72.1725 248.796 63.4217 242.588C53.9193 235.848 47.2593 225.026 47.1238 213.307C46.8823 192.475 53.3606 133.624 56.0233 121.688C57.6297 114.486 60.4754 108.045 64.786 104.522C79.4008 92.5774 105.958 111.581 105.557 136.166Z" fill="#272DD2"/>
<path fill-rule="evenodd" clip-rule="evenodd" d="M105.505 136.189C105.419 141.484 104.906 147.16 104.279 153.541L98.6546 209.482C97.5951 220.02 96.5292 235.318 89.1893 243.049C82.4141 250.186 72.1514 248.716 63.4087 242.514C53.915 235.78 47.2613 224.968 47.1257 213.26C46.8845 192.446 53.357 133.65 56.0171 121.725C57.6219 114.53 60.4652 108.095 64.7718 104.574C79.3728 92.6411 105.906 111.627 105.505 136.189Z" fill="#282ED3"/>
<path fill-rule="evenodd" clip-rule="evenodd" d="M105.456 136.213C105.369 141.503 104.857 147.174 104.23 153.55L98.6113 209.438C97.5527 219.967 96.4879 235.251 89.1545 242.975C82.3855 250.105 72.1323 248.637 63.3976 242.441C53.9127 235.713 47.2649 224.911 47.1296 213.213C46.8886 192.419 53.3552 133.677 56.013 121.763C57.6164 114.574 60.4569 108.145 64.7596 104.628C79.3472 92.7052 105.856 111.673 105.456 136.213Z" fill="#282ED4"/>
<path fill-rule="evenodd" clip-rule="evenodd" d="M105.408 136.237C105.321 141.521 104.809 147.188 104.183 153.557L98.5696 209.394C97.512 219.913 96.4481 235.184 89.1216 242.901C82.3588 250.024 72.115 248.557 63.3885 242.366C53.9123 235.645 47.2708 224.853 47.1355 213.166C46.8947 192.391 53.3552 133.703 56.0105 121.8C57.6126 114.618 60.4505 108.195 64.7491 104.681C79.323 92.7688 105.807 111.72 105.408 136.237Z" fill="#282ED5"/>
<path opacity="0.25" fill-rule="evenodd" clip-rule="evenodd" d="M89.1177 242.901C82.3549 250.024 72.1111 248.557 63.3846 242.366C53.9084 235.645 47.2669 224.853 47.1315 213.166C46.8908 192.391 53.3513 133.703 56.0066 121.8C57.6087 114.618 60.4466 108.195 64.7452 104.681C64.171 179.657 77.1976 225.595 89.1177 242.901Z" fill="#0DBDFF"/>
<path fill-rule="evenodd" clip-rule="evenodd" d="M170.765 89.9595C165.416 91.4965 160.908 93.707 157.34 97.096C167.546 99.93 178.14 95.8022 170.765 89.9595Z" fill="#282ED5"/>
<path fill-rule="evenodd" clip-rule="evenodd" d="M179.865 97.6824C184.965 95.1062 186.488 89.2598 184.784 85.2044C183.645 82.4912 180.465 79.0255 176.066 75.6332C167.066 68.6948 148.582 60.6945 137.575 59.4277C129.863 58.5407 121.537 61.6968 122.73 70.8968C130.055 68.9606 137.871 71.3286 144.917 73.9526C159.901 79.5334 178.417 90.0732 179.865 97.6824Z" fill="#4C4DFD"/>
<path opacity="0.5" fill-rule="evenodd" clip-rule="evenodd" d="M58.5759 137.225C59.0029 133.815 61.5799 132.494 64.3306 134.282L92.5184 151.721C95.2664 153.506 97.152 157.725 96.7246 161.134L95.3305 171.469C94.9032 174.878 92.3233 176.197 89.5754 174.411L61.3875 156.973C58.6361 155.185 56.7541 150.968 57.1816 147.559L58.5759 137.225Z" fill="#3FAFF6"/>
<path fill-rule="evenodd" clip-rule="evenodd" d="M87.2358 166.083C87.1948 166.412 87.0253 166.485 86.7302 166.302C86.4159 166.106 86.2806 165.844 86.3218 165.515L87.7272 154.302C87.7689 153.971 87.9458 153.904 88.2596 154.099C88.5549 154.282 88.6829 154.54 88.6417 154.87L87.2358 166.083ZM88.5624 151.848C86.2804 150.431 85.0055 150.791 84.7378 152.926L83.4083 163.531C83.2893 164.481 83.5088 165.405 84.0701 166.308C84.631 167.21 85.421 167.977 86.4404 168.61C87.4309 169.226 88.2771 169.472 88.9709 169.34C89.6684 169.21 90.0747 168.671 90.1937 167.722L91.5232 157.117C91.789 154.996 90.8017 153.24 88.5624 151.848Z" fill="#40D1F6"/>
<path fill-rule="evenodd" clip-rule="evenodd" d="M81.3535 148.95C81.0035 149.22 80.6203 149.228 80.197 148.965L79.8958 151.368L81.0012 152.054L79.4863 164.139L82.4202 165.962L84.4873 149.472L81.9542 147.898C81.9002 148.326 81.6992 148.678 81.3535 148.95Z" fill="#40D1F6"/>
<path fill-rule="evenodd" clip-rule="evenodd" d="M76.5039 153.058L78.9242 154.562L79.2256 152.159L76.8055 150.655L76.5039 153.058Z" fill="#40D1F6"/>
<path fill-rule="evenodd" clip-rule="evenodd" d="M75.9004 157.896L78.3205 159.399L78.6216 156.996L76.2015 155.492L75.9004 157.896Z" fill="#40D1F6"/>
<path fill-rule="evenodd" clip-rule="evenodd" d="M74.4425 151.529C75.5128 151.708 76.1314 151.139 76.297 149.819L76.5808 147.555C76.7081 146.542 76.4759 145.602 75.8836 144.731C75.2914 143.859 74.5589 143.149 73.6862 142.607C71.5038 141.251 70.29 141.548 70.0461 143.491L69.6629 146.549L72.254 148.159L72.6343 145.128C72.6753 144.799 72.8794 144.748 73.249 144.977C73.6038 145.198 73.7606 145.473 73.7193 145.803L73.3532 148.724C73.2725 149.368 72.8125 149.43 71.9753 148.909L71.7422 150.769C72.2273 151.071 72.5485 151.356 72.703 151.621C72.8609 151.89 72.9128 152.237 72.8579 152.673L72.3813 156.478C72.3301 156.883 72.1272 156.976 71.7726 156.755C71.4164 156.534 71.2649 156.22 71.3156 155.816L71.8049 151.914L69.1178 150.244L68.625 154.174C68.364 156.258 69.3479 157.991 71.5796 159.379C73.7798 160.745 75.0253 160.288 75.3122 157.999L75.6188 155.552C75.8268 153.893 75.4344 152.552 74.4425 151.529Z" fill="#40D1F6"/>
<path fill-rule="evenodd" clip-rule="evenodd" d="M69.2321 145.229C69.4553 143.449 69.3933 142.035 69.0486 140.984C68.702 139.931 67.845 138.979 66.4842 138.133C65.6552 137.618 64.9633 137.349 64.4076 137.327H64.2619C63.426 137.36 62.9294 138.004 62.7721 139.26L62.412 142.13L65.0412 143.763L65.3949 140.94C65.4526 140.481 65.6852 140.38 66.0915 140.632C66.4846 140.876 66.6349 141.367 66.5427 142.102C66.3665 143.507 66.0465 144.506 65.587 145.093L61.3605 150.516L61.0859 152.707L67.7735 156.862L68.0394 154.743L64.4576 152.517L68.7272 146.773C68.9767 146.441 69.1443 145.928 69.2321 145.229Z" fill="#40D1F6"/>
<path opacity="0.5" fill-rule="evenodd" clip-rule="evenodd" d="M54.1731 183.803C54.3241 182.597 55.2358 182.13 56.209 182.762L89.9853 203.404C90.9574 204.035 91.6244 205.528 91.4732 206.734L90.9802 210.39C90.829 211.596 89.9163 212.063 88.944 211.431L55.1675 190.789C54.1945 190.157 53.5284 188.665 53.6796 187.459L54.1731 183.803Z" fill="#3FAFF6"/>
<path fill-rule="evenodd" clip-rule="evenodd" d="M53.8455 183.758C53.8916 183.385 54.0052 183.067 54.1687 182.815C54.326 182.573 54.5284 182.393 54.7629 182.28C54.9997 182.167 55.2676 182.124 55.5503 182.16C55.8189 182.193 56.1007 182.298 56.3827 182.48L90.1649 203.126C90.7059 203.478 91.1592 204.062 91.4536 204.72C91.7465 205.376 91.8866 206.115 91.8036 206.778L91.3095 210.434C91.2639 210.807 91.15 211.125 90.9867 211.376C90.8292 211.618 90.6263 211.799 90.3921 211.911C90.1548 212.024 89.8873 212.067 89.604 212.032C89.3358 211.998 89.0536 211.893 88.7727 211.712L54.9905 191.066C54.4489 190.714 53.9958 190.13 53.7018 189.472C53.4085 188.816 53.2688 188.077 53.3518 187.414L53.8455 183.758ZM54.7246 183.18C54.6151 183.349 54.5374 183.574 54.5033 183.847L54.0092 187.504C53.9421 188.046 54.0599 188.657 54.305 189.206C54.5485 189.751 54.9144 190.229 55.3442 190.51L89.1237 211.153C89.3187 211.28 89.5069 211.352 89.6794 211.374C89.8329 211.393 89.9763 211.371 90.1009 211.311C90.2286 211.25 90.3411 211.149 90.4308 211.011C90.5394 210.843 90.6176 210.618 90.6517 210.344L91.1458 206.688C91.2129 206.146 91.0946 205.535 90.85 204.986C90.6063 204.441 90.2401 203.963 89.811 203.683L56.0315 183.039C55.8362 182.913 55.6481 182.84 55.4754 182.818C55.3218 182.799 55.1786 182.821 55.0541 182.88C54.9264 182.941 54.8139 183.043 54.7246 183.18Z" fill="#40D1F6"/>
<path opacity="0.5" fill-rule="evenodd" clip-rule="evenodd" d="M54.1731 183.803C54.3241 182.597 55.2358 182.13 56.209 182.762L56.7576 183.107C57.7297 183.739 58.3967 185.231 58.2452 186.437L57.752 190.093C57.601 191.299 56.6884 191.766 55.7161 191.134L55.1675 190.789C54.1945 190.157 53.5284 188.665 53.6796 187.459L54.1731 183.803Z" fill="#40D1F6"/>
<path fill-rule="evenodd" clip-rule="evenodd" d="M74.6892 180.541C75.1857 180.933 75.7314 181.867 76.0406 182.897C76.3494 183.924 76.4245 185.044 75.9871 185.815C75.5859 186.522 75.1854 187.229 74.7861 187.934C74.3009 188.791 73.7552 188.838 73.3454 188.382C72.9352 187.924 72.6567 186.956 72.707 185.78C72.7342 185.147 72.7612 184.511 72.7881 183.876C72.8147 183.24 72.8423 182.602 72.8695 181.962C72.92 180.796 74.0635 180.049 74.6892 180.541ZM70.5393 177.871C70.0224 177.601 69.3279 177.73 68.8109 178.226C68.2928 178.723 67.9523 179.583 68.1365 180.765C68.3057 181.85 68.4759 182.933 68.644 184.009C68.8481 185.317 69.3 186.007 69.7607 186.109C70.2205 186.21 70.6929 185.724 70.9378 184.671C71.0692 184.105 71.2013 183.536 71.3334 182.968C71.4653 182.4 71.5981 181.83 71.7305 181.259C71.9717 180.216 71.1898 178.211 70.5393 177.871ZM73.1631 188.562C72.9472 188.423 72.734 188.339 72.6427 188.497C72.5733 188.616 72.5331 189.462 72.5161 189.677C72.4383 190.656 73.933 191.509 74.0812 190.661C74.1204 190.437 74.2807 189.784 74.2698 189.581C74.2558 189.321 74.0715 189.143 73.8423 188.996C73.6159 188.852 73.3888 188.707 73.1631 188.562ZM69.8718 186.478C70.0892 186.618 70.2892 186.799 70.3284 187.042C70.3574 187.224 70.1854 187.986 70.1476 188.188C69.9751 189.109 68.4939 188.062 68.5755 187.165C68.5967 186.929 68.621 186.184 68.6802 186.024C68.7556 185.821 68.9564 185.891 69.1879 186.039C69.4155 186.185 69.6438 186.332 69.8718 186.478Z" fill="#00FFFF"/>
<path fill-rule="evenodd" clip-rule="evenodd" d="M78.7979 129.979C79.5676 130.428 80.2531 131.34 80.4264 132.593C80.9337 131.737 81.7677 131.711 82.5367 132.159C83.6162 132.789 84.5683 134.354 84.3126 135.874C84.1415 137.039 83.266 138.239 81.1901 139.077C80.4869 139.361 79.532 139.687 79.3563 139.595C79.3448 139.588 79.3317 139.581 79.3183 139.574C79.3086 139.567 79.2982 139.561 79.2879 139.556C79.0792 139.434 78.4161 138.154 77.9141 137.167C76.4313 134.254 76.051 132.322 76.2468 131.171C76.4744 129.633 77.7183 129.35 78.7979 129.979Z" fill="#40D1F6"/>
<path opacity="0.2" fill-rule="evenodd" clip-rule="evenodd" d="M97.8126 227.902L97.7794 227.899C96.8712 227.808 96.2085 226.998 96.2993 226.09L104.667 140.971C104.758 140.063 105.568 139.401 106.476 139.491L106.509 139.495C107.418 139.585 108.08 140.395 107.99 141.303L99.6215 226.422C99.5306 227.33 98.7209 227.993 97.8126 227.902Z" fill="#0DBDFF"/>
<path opacity="0.5" fill-rule="evenodd" clip-rule="evenodd" d="M204.113 275.014L238.397 255.489C242.134 253.781 247.483 252.422 251.291 254.403C254.761 256.209 260.476 259.904 263.003 261.346C264.923 262.441 271.586 266.433 267.436 268.689C255.227 275.328 243.145 282.794 230.748 289.538C228.403 290.814 224.973 291.275 221.373 290.975C217.788 290.678 214.11 289.633 211.219 287.951C209.158 286.753 207.132 285.573 205.139 284.413C202.45 282.847 201.024 280.995 200.883 279.284C200.745 277.611 201.819 276.062 204.113 275.014Z" fill="#5F7FFB"/>
<path fill-rule="evenodd" clip-rule="evenodd" d="M157.771 140.937C162.772 142.114 169.929 141.222 174.862 143.464C175.361 140.233 176.292 136.348 179.344 131.828C179.045 129.126 179.729 125.921 180.623 123.955C182.822 119.122 186.409 117.887 189.168 117.66C193.171 117.33 195.539 122.196 195.77 124.816C196.056 128.067 194.623 131.863 192.417 135.01C190.621 137.317 189.516 143.719 187.352 147.848C186.276 149.903 182.316 153.73 180.653 155.052C179.462 156 178.167 157.164 176.843 157.1C170.989 157.566 165.058 152.185 159.356 148.94C156.181 147.134 154.338 146.618 150.848 145.625L153.522 139.15C155.051 139.931 156.04 140.529 157.771 140.937Z" fill="url(#paint2_linear_495_15915)"/>
<path fill-rule="evenodd" clip-rule="evenodd" d="M155.443 147.062C153.851 146.429 152.693 146.15 150.848 145.625L153.522 139.15C154.606 139.704 155.308 140.09 156.417 140.533C160.758 142.267 157.09 147.715 155.443 147.062Z" fill="url(#paint3_linear_495_15915)"/>
<path fill-rule="evenodd" clip-rule="evenodd" d="M141.395 140.993C141.385 140.661 141.383 140.333 141.387 140.011C141.32 139.651 141.275 139.227 141.18 138.669C140.997 137.591 140.885 136.507 141.168 136.178C141.351 135.967 141.852 135.564 142.237 135.516C142.307 135.507 142.378 135.5 142.45 135.493C144.215 135.233 148.717 135.857 151.891 137.444C152.969 137.983 153.968 138.609 154.609 139.283C155.854 140.591 156.136 142.075 155.754 143.429C155.457 144.482 154.589 144.702 153.609 145.511C151.997 146.843 151.152 146.772 150.348 146.745C149.335 146.712 146.169 144.305 143.807 142.593C143.4 142.506 142.952 142.215 142.445 141.762C142.285 141.62 142.151 141.487 142.036 141.36C141.779 141.196 141.561 141.069 141.395 140.993Z" fill="#FFA698"/>
<path fill-rule="evenodd" clip-rule="evenodd" d="M140.717 142.593C140.93 141.631 141.165 140.832 141.423 140.175C141.551 140.744 141.777 141.165 142.447 141.762C143.583 142.777 144.424 142.977 145.174 141.9C145.463 141.484 144.818 141.023 144.078 139.515L144.106 138.278C144.425 138.093 145.489 138.162 146.606 138.352C147.44 138.786 148.354 139.373 149.351 140.017C151.68 141.521 152.356 142.311 152.073 143.743C151.845 144.893 151.763 145.894 150.236 146.727C146.957 145.895 145.303 142.944 140.717 142.593Z" fill="url(#paint4_linear_495_15915)"/>
<path fill-rule="evenodd" clip-rule="evenodd" d="M141.839 135.657C141.816 135.667 141.793 135.681 141.767 135.697C141.034 136.143 138.772 137.777 137.819 138.395C136.53 139.229 136.562 139.352 136.625 140.447L137.084 142.445C137.382 143.74 137.465 143.578 138.547 144.47C139.172 144.986 139.708 145.228 140.188 145.109C140.461 145.043 143.691 143.163 144.6 142.469C143.991 142.829 143.302 142.527 142.445 141.762C141.312 140.751 141.448 140.245 141.18 138.669C140.997 137.591 141.081 136.507 141.365 136.178C141.487 136.035 141.56 135.806 141.839 135.657Z" fill="#FF9584"/>
<path fill-rule="evenodd" clip-rule="evenodd" d="M155.067 139.798C154.428 138.973 153.032 137.146 151.685 136.089C151.192 135.703 149.184 135.696 146.266 134.364C145.282 137.055 148.164 137.189 150.023 138.796C150.817 139.481 151.412 142.246 153.644 142.695C155.229 143.015 156.02 141.027 155.067 139.798Z" fill="#FFA698"/>
<path fill-rule="evenodd" clip-rule="evenodd" d="M150.202 138.492C148.634 137.282 147.31 137.187 146.193 136.007C146.703 137.223 148.646 137.604 150.024 138.796C150.818 139.481 151.413 142.247 153.644 142.696C151.734 140.945 150.788 138.951 150.202 138.492Z" fill="#FF8978"/>
<path fill-rule="evenodd" clip-rule="evenodd" d="M156.337 140.5L157.176 140.799C158.368 141.234 158.24 142.909 157.979 143.958C157.631 145.362 156.889 146.757 156.266 147.41C156.499 147.674 157.483 148.294 158.194 148.503C158.56 148.61 158.699 148.545 158.966 148.291C160.364 146.961 161.205 143.54 160.659 141.836C159.555 141.413 157.921 140.418 156.337 140.5Z" fill="#374090"/>
<path fill-rule="evenodd" clip-rule="evenodd" d="M160.41 141.094C160.696 141.65 160.799 142.432 160.688 143.513C160.606 144.313 158.297 143.836 158.312 143.379C158.373 141.658 158.296 140.718 156.352 140.501C156.823 140.001 157.594 139.818 158.312 139.88C159.162 139.952 160.003 140.302 160.41 141.094Z" fill="#00CEDC"/>
<path fill-rule="evenodd" clip-rule="evenodd" d="M227.864 254.872C223.617 244.606 217.433 239.801 213.036 231.677C212.091 229.932 211.879 227.395 210.857 225.609C208.739 222.724 207.775 222.718 206.416 216.801C199.441 208.488 190.781 200.369 191.535 183.939C191.623 182 189.276 177.775 189.906 172.658C196.027 172.446 206.937 177.811 212.85 177.603C214.261 180.478 216.234 183.833 216.913 186.507C220.793 201.809 215.625 205.884 220.532 217.354C222.599 220.329 226.695 221.594 228.523 225.916C232.418 235.126 230.88 241.836 235.187 250.822C236.457 254.542 228.827 257.406 227.864 254.872Z" fill="url(#paint5_linear_495_15915)"/>
<path fill-rule="evenodd" clip-rule="evenodd" d="M227.441 258.877C227.141 260.745 226.874 262.842 226.745 264.079C226.471 266.713 226.44 268.916 225.134 271.71C224.391 273.299 223.485 274.442 221.666 276.512C221.839 278.476 225.984 278.142 228.006 276.48C229.005 276.586 229.848 275.781 230.923 273.846C235.283 270.579 234.946 268.692 236.072 264.012C236.35 262.854 237.204 261.681 238.322 260.423C240.933 257.479 239.607 256.519 236.943 253.084C236.774 252.867 236.67 252.49 236.51 252.272C236.088 251.696 235.556 250.836 235.182 250.149C234.1 252.538 228.775 255.035 227.319 254.401C227.629 256.019 227.662 256.333 227.633 257.524C227.624 257.935 227.529 258.329 227.441 258.877Z" fill="#FFF9F6"/>
<path fill-rule="evenodd" clip-rule="evenodd" d="M242.535 258.348C243.004 259.106 242.16 261.359 241.268 262.553C240.131 264.075 238.789 264.516 238.623 264.874C237.55 267.178 238.44 267.914 237.802 269.564C236.359 273.921 233.275 277.722 229.127 278.928C226.335 279.74 222.814 279.733 221.834 277.775C221.852 275.299 229.179 268.744 229.542 268.058C230.704 265.912 234.732 252.458 238.685 253.804C239.929 254.227 242.298 257.228 242.535 258.348Z" fill="url(#paint6_linear_495_15915)"/>
<path fill-rule="evenodd" clip-rule="evenodd" d="M227.44 258.876C227.253 260.759 226.873 262.842 226.744 264.079C226.47 266.712 226.439 268.915 225.133 271.709C224.554 272.949 223.399 273.91 222.264 275.258C220.529 277.321 222.032 278.737 224.661 278.719C225.831 278.711 227.183 278.48 228.153 278.148C233.826 276.205 236.205 269.286 237.296 264.746C237.574 263.589 238.387 262.082 239.504 260.823C242.115 257.88 240.689 254.442 237.186 252.707C236.84 252.536 236.585 252.302 236.397 252.018C235.921 254.868 231.08 257.908 227.562 257.324C227.524 257.838 227.492 258.359 227.44 258.876Z" fill="url(#paint7_linear_495_15915)"/>
<path fill-rule="evenodd" clip-rule="evenodd" d="M227.182 260.969C227.433 260.898 227.716 260.849 228.026 260.831C228.666 260.793 229.414 260.889 230.224 261.202L230.404 260.701C229.516 260.357 228.689 260.252 227.979 260.294C227.725 260.309 227.485 260.343 227.262 260.392C227.235 260.585 227.209 260.778 227.182 260.969ZM225.996 269.369C226.061 269.362 226.127 269.356 226.194 269.353C226.834 269.315 227.583 269.411 228.392 269.724L228.573 269.222C227.684 268.878 226.857 268.774 226.147 268.816L226.134 268.816C226.092 268.999 226.046 269.184 225.996 269.369ZM226.351 267.689C226.407 267.684 226.465 267.679 226.523 267.676C227.163 267.638 227.912 267.734 228.722 268.047L228.901 267.545C228.013 267.201 227.187 267.096 226.476 267.139L226.431 267.141C226.407 267.324 226.38 267.507 226.351 267.689ZM226.564 265.972C226.692 265.952 226.825 265.938 226.965 265.929C227.605 265.892 228.354 265.987 229.163 266.301L229.343 265.798C228.455 265.455 227.628 265.35 226.917 265.392C226.815 265.398 226.715 265.407 226.617 265.419C226.6 265.605 226.583 265.789 226.564 265.972ZM226.736 264.179C226.915 264.143 227.108 264.118 227.311 264.105C227.952 264.068 228.701 264.164 229.51 264.477L229.69 263.975C228.802 263.631 227.975 263.526 227.265 263.568C227.104 263.578 226.949 263.595 226.8 263.619C226.78 263.782 226.761 263.936 226.746 264.078L226.736 264.179ZM226.951 262.54C227.169 262.488 227.407 262.452 227.665 262.436C228.305 262.399 229.054 262.495 229.864 262.808L230.044 262.306C229.156 261.962 228.329 261.857 227.618 261.899C227.414 261.911 227.22 261.936 227.035 261.97L226.951 262.54Z" fill="#FFF9F6"/>
<path fill-rule="evenodd" clip-rule="evenodd" d="M204.96 215.09C198.297 207.334 190.833 199.242 191.535 183.939C191.624 182 189.276 177.775 189.906 172.658C196.027 172.447 206.937 177.811 212.851 177.603C214.262 180.478 216.234 183.834 216.913 186.507C219.626 197.207 219.068 201.958 220.121 208.045C219.766 208.284 219.145 208.515 218.863 208.444C217.472 208.096 216.539 205.303 215.858 204.151C216.24 205.815 216.461 206.997 216.362 208C216.067 211 211.884 212.864 209.76 213.888C207.93 214.769 206.456 215.144 204.96 215.09Z" fill="url(#paint8_linear_495_15915)"/>
<path fill-rule="evenodd" clip-rule="evenodd" d="M222.286 179.722L200.386 191.715C194.197 193.698 195.537 184.143 193.861 181.92C192.852 180.581 191.454 178.967 189.98 176.181C189.666 174.688 189.805 172.013 189.843 170.456C198.739 174.956 207.539 175.786 218.615 171.978C219.518 174.586 220.963 177.018 222.286 179.722Z" fill="#3E4794"/>
<path fill-rule="evenodd" clip-rule="evenodd" d="M224.649 213.372C218.473 213.383 214.607 209.396 209.97 209.002C187.343 207.077 181.681 221.337 184.877 225.372C185.629 226.322 187.249 226.854 189.15 226.796C198.449 226.51 214.228 222.767 223.355 222.798C224.243 222.802 224.936 222.812 225.459 222.824L225.494 222.907C227.611 220.186 227.98 215.507 225.703 213.283C225.364 213.332 225.018 213.371 224.649 213.372Z" fill="#FFA698"/>
<path fill-rule="evenodd" clip-rule="evenodd" d="M214.129 210.174C212.314 209.27 210.844 208.86 209.008 208.848C196.423 208.767 179.188 219.014 186.01 225.844C186.731 226.565 187.465 226.911 189.367 226.853C190.891 226.805 192.532 226.65 194.257 226.449C203.635 225.357 216.387 222.682 225.143 222.783C216.14 221.405 204.044 220.311 214.129 210.174Z" fill="url(#paint9_linear_495_15915)"/>
<path fill-rule="evenodd" clip-rule="evenodd" d="M229.225 211.773C229.935 211.05 231.119 210.523 232.424 210.392C235.276 210.106 237.639 211.273 238.716 213.95C239.329 215.473 239.513 217.274 239.077 218.505C238.42 220.358 237.907 222.339 238.44 223.773C239.398 226.35 240.725 228.859 239.915 232.044C239.111 235.204 236.315 239.991 230.379 239.839C230.296 239.837 230.213 239.834 230.128 239.83C231.329 238.137 239.266 234.999 236.844 226.195C236.379 224.506 235.528 223.283 235.722 220.598C235.927 217.758 235.861 213.936 233.147 212.718C232.172 212.281 230.69 211.697 229.225 211.773Z" fill="url(#paint10_linear_495_15915)"/>
<path fill-rule="evenodd" clip-rule="evenodd" d="M225.494 222.907C226.519 225.364 227.419 229.175 228.008 233.015C228.412 235.641 228.145 238.661 228.793 239.259C229.766 240.158 231.145 239.935 232.526 239.014C235.261 238.287 237.538 235.379 238.3 232.384C239.11 229.199 238.428 226.23 237.47 223.653C236.937 222.219 237.144 220.759 237.6 218.845C238.071 216.867 237.17 213.327 235.649 212.201C233.56 210.655 230.821 210.774 228.842 211.844C227.962 212.157 227.107 212.551 226.399 213.177C226.167 213.211 225.937 213.249 225.704 213.283C227.98 215.506 227.612 220.185 225.494 222.907Z" fill="url(#paint11_linear_495_15915)"/>
<path fill-rule="evenodd" clip-rule="evenodd" d="M230.272 224.279L230.012 224.273C228.166 224.232 227.496 224.218 226.139 224.749L226.327 225.313C227.643 224.798 228.292 224.812 230.089 224.851L230.349 224.857L230.272 224.279ZM231.538 232.054C230.23 232.025 229.147 231.906 227.882 232.346C227.907 232.552 227.982 232.823 227.986 233.03C229.345 232.531 230.199 232.601 231.615 232.632L231.538 232.054ZM231.18 230.637C229.955 230.61 228.823 230.527 227.636 230.903C227.666 231.103 227.715 231.303 227.738 231.503C228.94 231.104 230.015 231.189 231.257 231.215L231.18 230.637ZM230.975 229.095C229.697 229.067 228.559 228.981 227.322 229.391C227.369 229.586 227.413 229.78 227.453 229.974C228.677 229.561 229.784 229.646 231.051 229.673L230.975 229.095ZM230.672 227.415C229.326 227.386 228.238 227.262 226.94 227.725C227.004 227.913 227.042 228.114 227.1 228.302C228.367 227.851 229.436 227.965 230.749 227.993L230.672 227.415ZM230.5 225.715C229.258 225.611 227.959 225.644 226.54 226.139C226.619 226.323 226.638 226.529 226.71 226.71C228.152 226.315 229.08 226.26 230.576 226.293L230.5 225.715Z" fill="white"/>
<path fill-rule="evenodd" clip-rule="evenodd" d="M225.377 222.823C226.311 223.083 228.42 222.833 229.079 221.719C230.708 218.963 230.901 213.387 226.629 212.892C226.072 213.014 225.211 213.167 224.102 213.252C227.75 213.846 226.935 220.952 225.377 222.823Z" fill="#FFF9F6"/>
<path fill-rule="evenodd" clip-rule="evenodd" d="M218.741 172.724C220.168 175.879 222.834 178.628 224.164 182.109C226.565 188.394 225.361 196.461 218.5 200.696C217.949 201.037 217.017 201.723 216.523 202.194C213.845 204.749 211.447 208.252 208.218 211.052C205.658 213.274 202.485 214.076 199.67 215.76C197.814 216.869 196.184 218.879 194.734 220.099C193.307 221.3 192.313 223.185 191.337 224.615C190.241 226.22 188.533 227.063 186.623 226.608C185.858 226.426 185.074 225.971 184.352 224.641C183.131 222.39 183.006 218.823 184.293 215.23C188.565 203.297 193.782 190.751 206.757 184.092L218.741 172.724Z" fill="#FFA698"/>
<path fill-rule="evenodd" clip-rule="evenodd" d="M218.742 172.724C220.168 175.879 222.834 178.627 224.164 182.109C226.565 188.394 225.361 196.461 218.5 200.696C217.949 201.037 217.017 201.723 216.523 202.194C212.852 205.697 210.581 210.379 206.979 213.567C205.972 212.957 204.808 212.014 203.94 211.079C203.278 210.433 202.808 209.781 202.667 209.093L202.659 209.049L202.659 209.047L202.658 209.042L202.658 209.041L202.657 209.038L202.655 209.023V209.022L202.654 209.017L202.653 209.013L202.653 209.01L202.653 209.006L202.652 209.004L202.651 208.998L202.651 208.994L202.65 208.99L202.649 208.984L202.649 208.981C202.474 207.704 203.73 206.359 205.121 204.273C202.907 206.036 201.694 206.829 199.933 206.591C198.111 206.344 195.121 204.112 193.706 202.978C192.333 201.879 191.419 200.857 190.811 199.712C194.253 193.417 198.912 187.828 206.192 184.092L211.99 178.363L218.742 172.724Z" fill="url(#paint12_linear_495_15915)"/>
<path fill-rule="evenodd" clip-rule="evenodd" d="M222.562 178.432C207.697 191.413 190.975 179.958 189.703 176.64C189.573 174.872 189.62 171.967 189.658 170.41C189.075 166.975 188.169 163.208 187.987 160.75C186.251 156.629 185.659 153.217 185.36 150.185C185.219 148.762 185.543 148.672 185.642 147.093C183.816 146.061 182.651 145.125 182.281 142.25C181.497 136.163 182.832 131.732 185.518 124.48C186.791 121.043 188.145 117.888 191.552 117.572C201.418 116.655 215.305 123.39 221.001 126.368C225.529 128.736 227.224 131.571 227.842 134.297C228.345 136.518 228.125 138.679 227.355 141.707C226.434 145.333 225.433 148.228 224.261 151.012C221.765 156.939 218.105 160.694 217.749 165.957C217.391 171.251 220.294 173.796 222.562 178.432Z" fill="url(#paint13_linear_495_15915)"/>
<path fill-rule="evenodd" clip-rule="evenodd" d="M217.005 133.426C218.799 130.692 227.044 132.039 227.345 135.503C227.542 137.771 228.412 140.758 227.238 143.653C226.574 145.293 226.007 146.799 225.431 148.205C223.612 151.371 218.043 147.438 216.826 144.781C215.374 141.615 215.023 137.477 217.005 133.426Z" fill="url(#paint14_linear_495_15915)"/>
<path fill-rule="evenodd" clip-rule="evenodd" d="M216.861 181.061C218.671 179.99 223.026 176.93 224.809 178.999C225.34 179.616 227.555 182.032 227.456 182.732C227.16 183.099 226.587 183.678 225.758 184.23L222.114 185.886C220.209 184.275 218.628 182.823 216.861 181.061Z" fill="#FF8978"/>
<path fill-rule="evenodd" clip-rule="evenodd" d="M228.355 172.592C227.542 177.856 225.713 177.417 224.912 178.938C224.199 180.291 223.56 181.762 223.462 182.623C223.396 183.193 223.805 182.991 224.161 183.117C224.774 183.335 226.726 181.245 227.456 182.743C226.881 183.523 226.403 184.015 225.895 184.36C225.508 184.623 225.181 184.691 224.679 184.917C221.858 186.167 222.026 186.666 220.168 184.885C219.413 184.162 218.559 183.363 217.693 182.634C215.42 180.719 215.556 179.666 216.259 177.256C216.644 175.935 217.066 174.854 217.459 173.698C218.084 171.862 218.481 171.532 220.242 170.541C222.896 169.048 223.054 169.267 224.891 167.568C228.552 164.183 229.627 161.164 232.131 157.053C233.042 155.558 234.241 154.028 235.929 152.602C233.15 151.662 229.542 150.854 226.194 147.02C223.269 146.582 218.411 144.206 216.457 140.597C215.443 138.724 215.732 135.978 216.401 134.366C218.071 130.337 222.099 128.308 224.691 128.756C227.907 129.312 231.209 131.67 233.686 134.608C235.457 136.935 241.362 139.643 244.799 142.793C246.51 144.36 248.837 147.08 249.689 149.026C250.342 150.515 250.318 152.932 249.742 154.287C249.705 154.374 249.665 154.457 249.622 154.536C249.564 154.733 249.504 154.903 249.446 155.037C247.767 158.91 245.188 161.692 243.074 163.39C240.861 165.166 235.737 167.573 230.786 170.391C229.778 170.964 228.519 171.527 228.355 172.592Z" fill="#FFA698"/>
<path fill-rule="evenodd" clip-rule="evenodd" d="M193.149 126.704C192.784 120.937 194.717 118.604 198.329 119.114C203.651 119.865 208.429 121.799 210.557 123.482C216.444 128.136 204.921 138.096 197.93 135.383C195.177 134.314 193.456 131.554 193.149 126.704Z" fill="#FFA698"/>
<path fill-rule="evenodd" clip-rule="evenodd" d="M197.455 130.438C196.766 130.067 195.656 123.462 195.432 121.805C195.272 120.62 195.074 119.208 194.67 117.721L205.925 112.815L208.335 111.537C207.252 116.81 208.307 119.435 210.167 123.629C210.83 127.894 201.189 132.449 197.455 130.438Z" fill="url(#paint15_linear_495_15915)"/>
<path fill-rule="evenodd" clip-rule="evenodd" d="M195.137 122.026C196.589 121.552 200.511 120.437 201.834 119.932C204.729 118.827 205.057 116.493 206.726 113.153C209.422 112.163 210.53 111.094 211.129 109.705C212.55 106.409 211.613 102.179 209.551 99.44C207.749 97.0464 205.253 95.8284 202.116 95.6622C196.021 95.3394 192.456 99.0371 190.784 103.926C190.641 104.344 190.591 104.746 190.606 105.205C190.642 106.291 190.679 106.457 190.63 107.198C190.527 108.756 189.383 109.016 189.277 110.958C189.131 113.6 189.861 119.032 190.484 120.078C190.963 120.882 193.811 121.883 195.137 122.026Z" fill="#FFA698"/>
<path fill-rule="evenodd" clip-rule="evenodd" d="M191.657 101.835C191.323 102.499 191.033 103.199 190.784 103.926C190.641 104.344 190.591 104.746 190.606 105.205C190.642 106.291 190.679 106.457 190.63 107.198C190.527 108.756 189.383 109.016 189.276 110.958C189.206 112.243 189.342 114.187 189.573 115.967C192.499 119.799 196.681 117.253 197.351 116.751C200.493 114.398 201.903 109.973 201.299 105.312C198.381 105.474 194.064 104.095 191.657 101.835Z" fill="url(#paint16_linear_495_15915)"/>
<path fill-rule="evenodd" clip-rule="evenodd" d="M213.184 108.527C212.508 110.386 209.646 115.005 208.017 116.5C207.747 116.748 207.51 115.614 207.249 114.161C207.048 113.044 205.549 112.648 205.367 111.503C204.902 112.306 204.367 113.066 203.726 113.217C203.318 113.312 202.527 113.381 202.779 112.352C203.652 108.798 202.05 108.094 203.159 106.125C203.99 104.649 204.081 103.942 203.851 103.263C202.656 103.108 201.591 104.083 200.081 104.294C199.032 104.441 194.773 103.741 192.275 101.326C189.86 98.9912 190.547 95.4558 193.547 93.8884C195.216 93.0164 196.793 93.1123 199.263 92.2905C203.974 90.7224 208.685 93.0369 210.558 96.724C215.499 99.2221 214.696 104.373 213.184 108.527Z" fill="#562E65"/>
<path fill-rule="evenodd" clip-rule="evenodd" d="M206.804 109.97C209.243 109.583 208.798 112.245 208.163 113.797C207.726 114.862 206.825 114.622 206.342 115.44C205.768 116.414 204.874 116.759 204.187 116.621C202.791 116.34 204.018 114.407 204.328 113.609C204.399 112.226 205.256 110.215 206.804 109.97Z" fill="#FFA698"/>
<path fill-rule="evenodd" clip-rule="evenodd" d="M202.837 101.147C202.641 102.678 200.27 103.889 197.564 103.301C195.055 102.757 191.867 101.251 191.455 97.9088C191.31 96.7337 192.349 94.9994 193.773 94.5599C194.745 94.2597 195.784 94.6196 196.732 95.3897C198.338 96.6948 199.299 99.1548 200.468 100.017C201.58 100.836 202.857 100.985 202.837 101.147Z" fill="url(#paint17_linear_495_15915)"/>
<path fill-rule="evenodd" clip-rule="evenodd" d="M36.7179 120.669C36.7103 123.15 35.833 124.903 34.4182 125.736L32.9577 126.637C28.0614 122.944 7.9214 84.5196 8.1107 84.4034C8.63364 84.0824 9.15406 83.7638 9.67401 83.4581C11.4195 82.4129 13.6443 83.0354 15.2783 83.9658L29.0532 91.9799C33.4615 94.4881 36.919 100.609 36.9054 105.524L36.7179 120.669Z" fill="#151981"/>
<path fill-rule="evenodd" clip-rule="evenodd" d="M5.74654 89.5212C5.76038 84.5255 9.29833 82.4785 13.6495 84.9604L27.4245 92.9736C31.7711 95.4527 35.2904 101.523 35.2763 106.518L35.0889 121.665C35.0748 126.66 31.5322 128.705 27.1852 126.226L13.4111 118.212C9.059 115.731 5.54457 109.663 5.55864 104.668L5.74654 89.5212Z" fill="#8EA4FF"/>
<path fill-rule="evenodd" clip-rule="evenodd" d="M19.0033 116.378C17.7683 112.579 14.6337 104.955 14.2892 100.978C13.9382 96.9296 16.3994 94.3739 19.7866 95.2697C23.1732 96.1652 26.2032 100.174 26.5539 104.222C26.9293 108.55 21.7635 113.018 19.0033 116.378ZM19.7354 98.0564C17.6962 97.5171 16.2143 99.0564 16.4252 101.494C16.6362 103.931 18.461 106.345 20.4997 106.884C22.5394 107.424 24.0213 105.884 23.8101 103.447C23.5989 101.009 21.7743 98.5962 19.7354 98.0564Z" fill="white"/>
<path fill-rule="evenodd" clip-rule="evenodd" d="M31.1576 190.93C31.15 193.412 30.2722 195.165 28.8578 195.997L27.3974 196.899C22.5011 193.205 2.36108 154.781 2.55015 154.665C3.07333 154.344 3.59371 154.025 4.11365 153.719C5.85888 152.674 8.08393 153.296 9.71802 154.227L23.4928 162.241C27.9014 164.749 31.3587 170.87 31.345 175.785L31.1576 190.93Z" fill="#151981"/>
<path fill-rule="evenodd" clip-rule="evenodd" d="M0.187722 159.783C0.201557 154.787 3.73951 152.741 8.09069 155.222L21.8657 163.236C26.2123 165.715 29.7313 171.784 29.7175 176.78L29.53 191.927C29.516 196.922 25.9734 198.966 21.6264 196.488L7.85204 188.474C3.50016 185.993 -0.014023 179.925 4.20733e-05 174.93L0.187722 159.783Z" fill="#8EA4FF"/>
<path fill-rule="evenodd" clip-rule="evenodd" d="M20.1863 167.89C21.2105 168.697 22.3359 170.624 22.9739 172.747C23.6103 174.866 23.7655 177.177 22.8634 178.766C22.0355 180.225 21.2095 181.682 20.3857 183.137C19.3852 184.904 18.2591 185.001 17.4147 184.061C16.5683 183.117 15.9942 181.121 16.0982 178.694C16.1544 177.389 16.2098 176.077 16.2651 174.768C16.3207 173.456 16.3774 172.14 16.4336 170.821C16.5367 168.415 18.8955 166.873 20.1863 167.89ZM11.6269 162.382C10.5602 161.825 9.12787 162.092 8.06192 163.115C6.99344 164.14 6.29042 165.914 6.67087 168.352C7.01973 170.589 7.37067 172.822 7.71676 175.043C8.13756 177.739 9.06976 179.163 10.0207 179.373C10.969 179.582 11.9432 178.579 12.4484 176.407C12.7189 175.241 12.9919 174.066 13.2637 172.896C13.536 171.724 13.8097 170.547 14.0829 169.37C14.5814 167.22 12.9686 163.084 11.6269 162.382ZM17.0384 184.432C16.5934 184.146 16.1542 183.973 15.9647 184.299C15.8224 184.544 15.7396 186.289 15.7041 186.732C15.5434 188.751 18.6257 190.51 18.9315 188.761C19.0124 188.299 19.3433 186.954 19.3207 186.535C19.2918 185.999 18.9119 185.63 18.439 185.328C17.9725 185.03 17.5037 184.731 17.0384 184.432ZM10.2499 180.135C10.6985 180.422 11.111 180.797 11.1915 181.296C11.2519 181.672 10.8966 183.244 10.8187 183.662C10.4634 185.559 7.40825 183.4 7.57634 181.551C7.62061 181.064 7.67017 179.529 7.79191 179.199C7.94709 178.78 8.36145 178.923 8.83966 179.23C9.30888 179.531 9.77948 179.833 10.2499 180.135Z" fill="white"/>
<path fill-rule="evenodd" clip-rule="evenodd" d="M112.87 81.5342C112.862 84.0159 111.985 85.7692 110.57 86.6016L109.11 87.5029C104.214 83.8093 84.0737 45.3849 84.263 45.2691C84.786 44.9482 85.3064 44.6295 85.8263 44.3235C87.5718 43.2786 89.7964 43.9007 91.4307 44.8313L105.205 52.8454C109.614 55.3536 113.071 61.4744 113.058 66.3887L112.87 81.5342Z" fill="#151981"/>
<path fill-rule="evenodd" clip-rule="evenodd" d="M81.8994 50.3864C81.9132 45.391 85.4512 43.3442 89.8021 45.8258L103.577 53.839C107.923 56.3177 111.443 62.3876 111.429 67.3835L111.241 82.5304C111.227 87.5253 107.685 89.5698 103.338 87.0912L89.5635 79.0778C85.2113 76.5961 81.6969 70.5285 81.711 65.5335L81.8994 50.3864Z" fill="#8EA4FF"/>
<path fill-rule="evenodd" clip-rule="evenodd" d="M91.8285 55.318C92.9417 55.9226 94.0348 56.8938 94.903 58.1735L93.5564 69.2627L93.3154 65.5772L92.4529 65.0822V60.0448L91.2908 65.1255L90.9898 63.5832L90.5963 63.8608L90.0662 60.7801L89.6961 65.8848L89.4392 63.4271L86.9792 62.1248C86.4512 60.4652 86.2506 59.1202 86.2976 58.0623C86.3756 54.5216 89.1593 53.8686 91.8285 55.318ZM95.101 58.4776C95.6253 59.3148 96.0547 60.2731 96.336 61.339C97.2573 59.3669 99.1704 59.3063 101.071 60.339C101.516 60.5802 101.96 60.8818 102.39 61.2323L100.779 75.9077L100.636 75.976L100.331 66.6044L99.1688 68.8855L98.1541 68.2784L98.0794 61.4596L96.6696 70.53L96.4635 67.4659L95.2357 66.6351L95.101 58.4776ZM102.631 61.4359C104.678 63.2118 106.357 66.0868 106.237 68.895C106.212 70.0751 105.876 71.2704 105.12 72.4036L102.537 70.8639L102.631 61.4359ZM104.897 72.7211L102.04 71.1449L102.166 66.5828L101.212 75.6896C102.898 74.8099 104.095 73.7977 104.897 72.7211ZM100.176 76.1862L99.9076 68.5166L99.3678 69.5759L97.6599 68.5549L97.6881 66.5968L96.5944 73.1482L95.9903 67.7386L94.7505 66.9001L94.7007 63.9063L93.4381 74.3091C94.451 75.8521 95.3894 77.1927 95.7289 77.3769C95.7544 77.3903 95.78 77.4039 95.8043 77.4196C95.8363 77.4355 95.8686 77.4523 95.8979 77.4675C96.329 77.6797 98.4342 76.9289 99.9714 76.2745L100.176 76.1862ZM93.3904 74.2353L92.843 65.8703L91.9615 65.364V64.3907L91.2523 67.4915L90.6534 64.4202L90.2748 64.6861L89.9825 68.7209C90.5393 69.711 91.1674 70.7615 91.8734 71.874C92.3512 72.6275 92.8792 73.4553 93.3904 74.2353ZM89.3853 67.631L88.9769 63.7218L87.1577 62.6621C87.6534 64.0935 88.3811 65.7444 89.3853 67.631Z" fill="white"/>
<path fill-rule="evenodd" clip-rule="evenodd" d="M155.288 187.678C155.281 190.159 154.403 191.912 152.988 192.745L151.528 193.646C146.632 189.952 126.492 151.528 126.681 151.412C127.204 151.091 127.724 150.772 128.244 150.467C129.99 149.422 132.214 150.044 133.849 150.974L147.623 158.989C152.032 161.497 155.489 167.618 155.476 172.532L155.288 187.678Z" fill="#151981"/>
<path fill-rule="evenodd" clip-rule="evenodd" d="M124.317 156.53C124.331 151.534 127.869 149.487 132.22 151.969L145.995 159.982C150.341 162.461 153.861 168.531 153.847 173.526L153.659 188.674C153.645 193.668 150.103 195.713 145.755 193.234L131.981 185.221C127.629 182.739 124.115 176.672 124.129 171.677L124.317 156.53Z" fill="#8EA4FF"/>
<path opacity="0.5" fill-rule="evenodd" clip-rule="evenodd" d="M132.605 159.264C133.271 159.632 133.937 160.001 134.603 160.369C134.601 159.935 134.6 159.5 134.598 159.064C134.596 158.592 134.935 158.394 135.351 158.624C136.407 159.21 137.467 159.796 138.524 160.381C139.582 160.966 140.638 161.553 141.697 162.138C142.112 162.369 142.452 162.943 142.452 163.413C142.452 163.848 142.452 164.281 142.451 164.714C143.114 165.082 143.78 165.45 144.445 165.818C145.221 166.248 145.857 167.313 145.854 168.184C145.844 171.435 145.833 174.67 145.823 177.89C145.812 181.096 145.802 184.287 145.792 187.467C145.79 188.314 145.158 188.658 144.394 188.237C142.451 187.164 140.505 186.09 138.564 185.018C136.619 183.945 134.673 182.872 132.728 181.798C131.962 181.375 131.333 180.334 131.327 179.482C131.307 176.281 131.286 173.071 131.266 169.845C131.245 166.603 131.224 163.347 131.203 160.078C131.198 159.198 131.827 158.833 132.605 159.264Z" fill="white"/>
<path fill-rule="evenodd" clip-rule="evenodd" d="M132.236 163.728C134.336 164.889 136.435 166.052 138.535 167.213C140.631 168.373 142.731 169.534 144.829 170.696C145.375 170.997 145.822 171.747 145.82 172.358C145.817 173.151 145.815 173.942 145.812 174.728C145.81 175.339 145.361 175.591 144.817 175.29C142.726 174.133 140.632 172.976 138.542 171.82C136.449 170.663 134.355 169.505 132.262 168.348C131.716 168.046 131.265 167.296 131.261 166.681C131.256 165.891 131.251 165.094 131.246 164.296C131.242 163.681 131.688 163.425 132.236 163.728Z" fill="white"/>
<path fill-rule="evenodd" clip-rule="evenodd" d="M132.276 170.337C134.365 171.492 136.457 172.645 138.547 173.801C140.635 174.955 142.725 176.11 144.814 177.265C145.357 177.565 145.802 178.311 145.8 178.918C145.798 179.703 145.795 180.487 145.793 181.268C145.791 181.874 145.343 182.122 144.803 181.822C142.72 180.672 140.636 179.52 138.554 178.371C136.47 177.22 134.385 176.068 132.301 174.917C131.759 174.617 131.31 173.873 131.306 173.263C131.301 172.477 131.296 171.691 131.291 170.898C131.287 170.29 131.731 170.036 132.276 170.337Z" fill="white"/>
<path fill-rule="evenodd" clip-rule="evenodd" d="M132.311 177.044C134.391 178.192 136.474 179.343 138.554 180.492C140.633 181.64 142.714 182.789 144.794 183.937C145.334 184.236 145.778 184.976 145.776 185.578C145.774 186.358 145.77 187.134 145.768 187.908C145.766 188.507 145.321 188.749 144.782 188.451C142.709 187.307 140.633 186.162 138.561 185.018C136.487 183.873 134.411 182.727 132.336 181.582C131.796 181.284 131.349 180.548 131.346 179.946C131.34 179.168 131.335 178.386 131.33 177.6C131.327 176.995 131.769 176.744 132.311 177.044Z" fill="white"/>
<path fill-rule="evenodd" clip-rule="evenodd" d="M148.972 249.361C148.964 251.843 148.087 253.596 146.672 254.429L145.212 255.33C140.315 251.636 120.175 213.212 120.365 213.096C120.888 212.775 121.408 212.456 121.928 212.151C123.673 211.105 125.898 211.727 127.532 212.658L141.307 220.672C145.715 223.18 149.173 229.302 149.159 234.216L148.972 249.361Z" fill="#151981"/>
<path fill-rule="evenodd" clip-rule="evenodd" d="M118 218.214C118.014 213.219 121.552 211.172 125.903 213.653L139.678 221.667C144.025 224.145 147.544 230.215 147.53 235.211L147.343 250.358C147.329 255.353 143.786 257.397 139.439 254.919L125.665 246.905C121.313 244.424 117.798 238.356 117.813 233.361L118 218.214Z" fill="#8EA4FF"/>
<path fill-rule="evenodd" clip-rule="evenodd" d="M131.948 222.025C132.615 223.421 133.534 225.205 134.529 227.162C135.523 229.118 136.595 231.261 137.564 233.37C137.748 232.51 137.848 231.527 137.899 230.525C138.442 232.438 139.274 235.132 139.903 237.75C140.534 240.373 140.96 242.929 140.686 244.546C140.444 246.334 139.615 247.581 138.388 248.195C137.16 248.81 135.535 248.795 133.703 248.062C135.628 248.468 136.996 246.822 136.983 244.876C136.968 242.931 136.407 241.681 135.513 240.172C134.617 238.659 133.386 237.321 132.028 236.515C130.671 235.709 129.442 235.585 128.558 236.039C127.674 236.494 127.126 237.085 127.134 239.027C127.142 240.97 128.538 244.258 130.472 246.144C128.636 244.698 126.997 242.773 125.754 240.693C124.512 238.613 123.663 236.366 123.402 234.281C123.107 232.322 123.507 230.262 124.111 228.372C124.715 226.486 125.524 224.767 126.05 223.492C126.113 224.558 126.224 225.667 126.419 226.753C127.369 225.782 128.423 224.904 129.402 224.118C130.383 223.332 131.289 222.633 131.948 222.025Z" fill="white"/>
<path fill-rule="evenodd" clip-rule="evenodd" d="M150.626 6.83064C153.383 8.35682 154.996 10.1408 156.786 12.6847C156.764 12.2402 156.742 13.8703 156.757 11.3513C156.771 8.83272 155.326 4.76376 157.297 2.72524C158.077 1.91754 161.881 0.433101 162.795 0.198375C164.548 -0.252168 166.581 0.0524182 168.751 1.2385C172.051 3.04321 175.039 6.55694 177.208 10.7806C179.383 15.0142 180.733 22.0659 180.73 24.6144C180.727 27.1634 180.716 25.4952 180.692 25.9232C182.529 25.3716 184.177 25.3788 187.014 26.9479C189.851 28.5169 193.424 32.3892 195.641 36.6892C197.862 40.9993 199.258 46.0515 199.269 50.7566C199.277 54.4296 198.439 57.3469 197.014 59.3672C195.578 61.4029 192.801 62.6049 190.833 63.2577C185.191 65.2176 174.312 53.7778 168.572 50.5283C162.481 47.0803 156.418 43.6521 150.392 40.243C147.106 38.3841 144.161 34.8409 142.051 30.611C139.947 26.3912 138.677 21.4726 138.72 16.8874C138.745 14.2081 136.786 10.1876 139.321 8.2632C143.262 5.27195 147.47 5.08472 150.626 6.83064Z" fill="#6D6AFD"/>
<path fill-rule="evenodd" clip-rule="evenodd" d="M147.433 8.21633C150.192 9.74228 151.804 11.5265 153.593 14.0704C153.572 13.6256 153.55 15.2558 153.565 12.737C153.579 10.2182 154.943 4.7162 157.109 2.8859C159.275 1.05513 162.258 0.819254 165.558 2.62397C168.859 4.42868 171.847 7.94241 174.016 12.1656C176.191 16.3992 177.541 23.4514 177.538 25.9999C177.534 28.5489 177.524 26.8807 177.5 27.3084C179.337 26.7566 180.985 26.7643 183.822 28.3329C186.659 29.9019 190.233 33.7744 192.449 38.0744C194.671 42.3846 196.066 47.4159 196.077 52.1418C196.088 56.8677 194.71 60.3865 192.487 62.2394C190.272 64.0865 187.199 64.2606 183.821 62.3491C177.651 58.8566 171.492 55.3733 165.38 51.9138C159.289 48.4657 153.226 45.0376 147.2 41.6283C143.914 39.7694 140.969 36.2261 138.86 31.9965C136.755 27.7765 135.486 22.8576 135.528 18.2726C135.571 13.6874 136.915 10.2791 139.063 8.46235C141.214 6.64219 144.675 6.69016 147.433 8.21633Z" fill="url(#paint18_linear_495_15915)"/>
<path fill-rule="evenodd" clip-rule="evenodd" d="M153.804 30.9362L148.15 27.6738L157.042 43.0739L165.991 37.9738L160.339 34.7096L160.355 20.2094L153.82 16.436L153.804 30.9362Z" fill="white"/>
<path fill-rule="evenodd" clip-rule="evenodd" d="M173.396 37.218L179.049 40.4806L170.158 25.0805L161.209 30.1808L166.86 33.4448L166.845 47.945L173.38 51.7184L173.396 37.218Z" fill="white"/>
<defs>
<linearGradient id="paint0_linear_495_15915" x1="151.273" y1="175.112" x2="171.15" y2="182.566" gradientUnits="userSpaceOnUse">
<stop stop-color="#4D4BFE"/>
<stop offset="1" stop-color="#2893F4"/>
</linearGradient>
<linearGradient id="paint1_linear_495_15915" x1="96.6728" y1="175.857" x2="153.403" y2="162.421" gradientUnits="userSpaceOnUse">
<stop stop-color="#6D6AFE"/>
<stop offset="1" stop-color="#3FB0F7"/>
</linearGradient>
<linearGradient id="paint2_linear_495_15915" x1="189.281" y1="135.777" x2="158.019" y2="143.621" gradientUnits="userSpaceOnUse">
<stop stop-color="#FF8A78"/>
<stop offset="1" stop-color="#FFA799"/>
</linearGradient>
<linearGradient id="paint3_linear_495_15915" x1="155.019" y1="143.758" x2="157.245" y2="144.863" gradientUnits="userSpaceOnUse">
<stop stop-color="#FF8A78"/>
<stop offset="1" stop-color="#FFA799"/>
</linearGradient>
<linearGradient id="paint4_linear_495_15915" x1="146.406" y1="141.356" x2="146.461" y2="145.776" gradientUnits="userSpaceOnUse">
<stop stop-color="#FF8A78"/>
<stop offset="1" stop-color="#FFA799"/>
</linearGradient>
<linearGradient id="paint5_linear_495_15915" x1="214.71" y1="224.391" x2="222.115" y2="250.08" gradientUnits="userSpaceOnUse">
<stop stop-color="#FF8A78"/>
<stop offset="1" stop-color="#FFA799"/>
</linearGradient>
<linearGradient id="paint6_linear_495_15915" x1="229.997" y1="278.631" x2="233.161" y2="264.342" gradientUnits="userSpaceOnUse">
<stop stop-color="#1C8EF4"/>
<stop offset="1" stop-color="#00CFDD"/>
</linearGradient>
<linearGradient id="paint7_linear_495_15915" x1="227.546" y1="264.199" x2="234.422" y2="267.661" gradientUnits="userSpaceOnUse">
<stop stop-color="#3E4795"/>
<stop offset="1" stop-color="#273088"/>
</linearGradient>
<linearGradient id="paint8_linear_495_15915" x1="192.061" y1="193.168" x2="197.289" y2="193.787" gradientUnits="userSpaceOnUse">
<stop stop-color="#3E4795"/>
<stop offset="1" stop-color="#273088"/>
</linearGradient>
<linearGradient id="paint9_linear_495_15915" x1="195.76" y1="217.988" x2="211.841" y2="217.277" gradientUnits="userSpaceOnUse">
<stop stop-color="#FF8A78"/>
<stop offset="1" stop-color="#FFA799"/>
</linearGradient>
<linearGradient id="paint10_linear_495_15915" x1="231.118" y1="236.686" x2="235.278" y2="218.882" gradientUnits="userSpaceOnUse">
<stop stop-color="#1C8EF4"/>
<stop offset="1" stop-color="#00CFDD"/>
</linearGradient>
<linearGradient id="paint11_linear_495_15915" x1="228.838" y1="225.418" x2="234.847" y2="225.462" gradientUnits="userSpaceOnUse">
<stop stop-color="#3E4795"/>
<stop offset="1" stop-color="#273088"/>
</linearGradient>
<linearGradient id="paint12_linear_495_15915" x1="207.986" y1="192.643" x2="211.008" y2="204.569" gradientUnits="userSpaceOnUse">
<stop stop-color="#3E4795"/>
<stop offset="1" stop-color="#273088"/>
</linearGradient>
<linearGradient id="paint13_linear_495_15915" x1="197.295" y1="175.453" x2="207.496" y2="137.895" gradientUnits="userSpaceOnUse">
<stop stop-color="#1C8EF4"/>
<stop offset="1" stop-color="#00CFDD"/>
</linearGradient>
<linearGradient id="paint14_linear_495_15915" x1="220.562" y1="142.006" x2="218.853" y2="145.111" gradientUnits="userSpaceOnUse">
<stop stop-color="#FF8A78"/>
<stop offset="1" stop-color="#FFA799"/>
</linearGradient>
<linearGradient id="paint15_linear_495_15915" x1="202.907" y1="121.192" x2="204.667" y2="125.9" gradientUnits="userSpaceOnUse">
<stop stop-color="#FF8A78"/>
<stop offset="1" stop-color="#FFA799"/>
</linearGradient>
<linearGradient id="paint16_linear_495_15915" x1="195.012" y1="107.032" x2="196.111" y2="116.423" gradientUnits="userSpaceOnUse">
<stop stop-color="#FFB89E"/>
<stop offset="1" stop-color="#FFA799"/>
</linearGradient>
<linearGradient id="paint17_linear_495_15915" x1="195.007" y1="100.094" x2="197.964" y2="98.4949" gradientUnits="userSpaceOnUse">
<stop stop-color="#8A4791"/>
<stop offset="1" stop-color="#562E65"/>
</linearGradient>
<linearGradient id="paint18_linear_495_15915" x1="165.375" y1="36.25" x2="175.11" y2="15.2021" gradientUnits="userSpaceOnUse">
<stop stop-color="#6D6AFE"/>
<stop offset="1" stop-color="#3FB0F7"/>
</linearGradient>
</defs>
</svg>
