<svg width="397" height="424" viewBox="0 0 397 424" fill="none" xmlns="http://www.w3.org/2000/svg">
<path fill-rule="evenodd" clip-rule="evenodd" d="M180.524 199.502C180.509 204.524 178.718 208.06 175.855 209.724L171.312 212.456C155.725 205.805 161.51 126.817 160.56 104.362L165.346 104.746C161.322 97.7145 145.841 91.578 149.454 77.2182L103.772 55.8341C101.744 54.4549 48.4345 23.582 58.0041 17.7925C59.6045 16.8246 61.1882 15.8495 62.7692 14.9309C66.3019 12.8408 70.8052 14.1331 74.112 16.0403L165.012 68.1785C173.933 73.319 180.932 85.758 180.905 95.7045L180.524 199.502Z" fill="#461749"/>
<path fill-rule="evenodd" clip-rule="evenodd" d="M53.3575 28.0087C53.3712 23.0845 55.0766 19.5877 57.8403 17.8843C60.7506 16.0895 64.8351 16.2837 69.353 18.8928L160.253 71.0296C169.049 76.1099 176.173 88.4466 176.145 98.557L175.766 202.361C175.737 212.47 168.567 216.557 159.768 211.477L68.8696 159.34C60.0613 154.254 52.9486 141.922 52.9766 131.812L53.3575 28.0087Z" fill="url(#paint0_linear_495_15762)"/>
<path fill-rule="evenodd" clip-rule="evenodd" d="M102.467 102.137C102.47 101.078 103.22 100.662 104.143 101.21L124.994 112.992C125.916 113.54 126.663 114.845 126.66 115.904L126.659 118C126.656 119.059 125.905 119.475 124.983 118.927L104.132 107.145C103.209 106.597 102.464 105.292 102.467 104.233L102.467 102.137Z" fill="#00FFFF"/>
<path fill-rule="evenodd" clip-rule="evenodd" d="M114.517 95.0027C106.528 90.389 100.072 79.2076 100.098 70.0283C100.125 60.8465 106.623 57.1451 114.611 61.7563C122.601 66.3701 129.056 77.5495 129.029 86.731C129.004 95.9106 122.507 99.6156 114.517 95.0027ZM108.033 75.9209L108.022 82.1565C112.38 84.6964 116.737 87.2494 121.095 89.7865L121.106 83.4318C121.109 82.356 120.351 81.0421 119.414 80.501L117.927 79.6483C117.121 79.8582 116.09 79.6621 114.942 78.9991C113.809 78.3439 112.735 77.3338 111.838 76.156L109.736 74.9508C109.256 74.6728 108.82 74.6518 108.51 74.8426C108.216 75.0245 108.034 75.3969 108.033 75.9209ZM114.855 77.7549C117.063 79.0307 118.718 78.0889 118.548 75.6483C118.379 73.2087 116.451 70.1933 114.244 68.9172C112.033 67.64 110.381 68.584 110.55 71.0242C110.719 73.4654 112.646 76.4769 114.855 77.7549ZM114.507 98.8926C124.366 104.586 132.383 100.013 132.415 88.6855C132.447 77.3553 124.481 63.5595 114.621 57.8655C104.765 52.1755 96.7447 56.743 96.713 68.0727C96.6805 79.4012 104.647 93.1992 114.507 98.8926Z" fill="url(#paint1_linear_495_15762)"/>
<path opacity="0.2" fill-rule="evenodd" clip-rule="evenodd" d="M114.737 97.6587C124.297 103.178 132.084 98.7498 132.115 87.7508C132.147 76.7516 124.41 63.3646 114.849 57.8449C105.277 52.3185 97.4865 56.74 97.4554 67.7393C97.4241 78.7386 105.164 92.132 114.737 97.6587ZM134.236 81.3233C135.24 87.5342 139.491 93.0197 135.92 101.085C133.132 107.186 125.207 104.208 122.511 103.73C120.967 103.455 119.023 103.971 117.277 103.809C107.175 102.87 102.403 95.7131 99.93 86.2464C96.8502 79.7908 93.0723 73.5198 92.1644 68.3757C90.3685 56.8098 95.6052 55.0016 101.036 52.7024C104.835 50.037 113.202 51.0354 118.869 54.3069C122.766 56.5573 124.514 56.9863 128.282 62.165C132.05 67.3436 133.232 75.1117 134.236 81.3233Z" fill="url(#paint2_linear_495_15762)"/>
<path opacity="0.35" fill-rule="evenodd" clip-rule="evenodd" d="M114.406 97.8893C123.966 103.409 131.753 98.9807 131.785 87.9815C131.816 76.9827 124.079 63.5958 114.519 58.0758C104.947 52.5497 97.1557 56.9709 97.1248 67.9702C97.0935 78.97 104.834 92.3632 114.406 97.8893ZM135.465 82.7871C135.703 86.4226 135.315 90.0234 134.688 93.7928C133.526 100.761 130.178 106.437 124.427 107.001C122.691 107.17 120.646 106.633 118.262 105.257C116.074 103.994 113.6 102.023 110.818 99.2413C107.29 95.7232 103.317 90.9433 100.119 86.8219C94.3339 79.3318 91.4334 73.415 93.2913 66.0238C94.2983 61.9414 93.8679 59.9328 94.2658 55.6797C94.5682 52.3656 95.3376 50.5753 96.7743 49.9683C97.6531 49.5909 98.6775 49.6893 100.199 50.0838C101.998 50.5498 103.799 51.3249 105.653 51.4271C106.421 51.4695 107.056 51.4008 107.489 51.2775C110.577 50.8437 113.239 50.3433 115.809 51.7687C121.34 54.9609 122.852 60.4209 126.936 65.163C128.576 67.0741 130.62 68.6584 131.772 70.1444C134.646 73.8522 135.162 78.163 135.465 82.7871Z" fill="url(#paint3_linear_495_15762)"/>
<path opacity="0.5" fill-rule="evenodd" clip-rule="evenodd" d="M68.2197 89.6837C80.0526 96.515 93.0237 109.575 107.824 123.69C122.616 137.796 139.233 152.959 158.361 164.003C163.977 167.245 169.81 170.132 175.877 172.533L175.784 198.016C173.173 198.379 170.095 197.684 166.802 195.783L69.9197 140.213C61.0652 135.101 53.8194 123.121 53.0488 112.736L53.1517 84.7219C57.9921 84.8651 62.9953 86.6683 68.2197 89.6837Z" fill="url(#paint4_linear_495_15762)"/>
<path fill-rule="evenodd" clip-rule="evenodd" d="M146.74 127.207C157.819 132.863 166.65 141.538 175.949 152.575L175.767 202.361C175.739 212.471 168.568 216.557 159.77 211.477L68.8717 159.34C65.8861 157.616 63.0957 155.059 60.7116 152.039C56.0726 145.899 53.0034 138.125 52.9805 131.284L53.0716 106.426C71.014 128.48 82.0287 130.549 102.555 125.668C123.114 120.78 132.572 119.974 146.74 127.207Z" fill="url(#paint5_linear_495_15762)"/>
<path fill-rule="evenodd" clip-rule="evenodd" d="M53.0782 104.399C54.0825 105.72 55.0876 107.041 55.3583 107.364C63.7751 117.422 70.6376 122.889 77.7971 125.239C84.9319 127.582 92.4904 126.858 102.285 124.53C112.642 122.068 120.22 120.633 127.056 120.726C133.96 120.821 140.022 122.465 147.269 126.165C154.165 129.686 160.2 134.353 166.006 140.012C169.355 143.276 172.63 146.876 175.954 150.78L175.941 154.381C172.058 149.725 168.27 145.478 164.38 141.685C158.738 136.187 152.885 131.657 146.209 128.249C139.289 124.717 133.537 123.146 127.03 123.057C120.456 122.968 113.025 124.381 102.824 126.806C92.6277 129.231 84.706 129.966 77.0752 127.461C69.4705 124.964 62.281 119.277 53.5672 108.864C53.491 108.774 53.3113 108.544 53.0645 108.222L53.0782 104.399Z" fill="#00FFFF"/>
<path opacity="0.5" fill-rule="evenodd" clip-rule="evenodd" d="M186.158 202.741C186.144 207.764 184.353 211.3 181.49 212.964L177.083 215.613C174.16 217.521 170.005 217.373 165.403 214.716L149.264 205.459V64.753L154.539 62.179L170.646 71.4179C179.568 76.5585 186.567 88.9972 186.539 98.944L186.158 202.741Z" fill="#0F1C54"/>
<path opacity="0.2" fill-rule="evenodd" clip-rule="evenodd" d="M311.181 368.191L190.804 299.438C186.336 297.397 179.772 295.471 175.39 298.141L164.178 304.971C161.922 306.346 154.506 310.906 159.466 313.603C174.061 321.54 267.311 376.024 282.131 384.085C284.934 385.61 289.034 386.161 293.338 385.803C297.623 385.448 302.073 384.288 305.477 382.189L309.955 379.427C313.12 377.474 314.873 375.342 315.042 373.295C315.208 371.295 313.923 369.443 311.181 368.191Z" fill="#902EC1"/>
<path fill-rule="evenodd" clip-rule="evenodd" d="M306.784 360.137C306.766 366.09 304.644 370.28 301.251 372.252L295.866 375.49C277.394 367.607 284.249 273.994 283.123 247.381L288.796 107.715C284.027 99.3819 265.679 92.1089 269.962 75.0903L215.82 49.7463C213.417 48.1118 150.237 11.523 161.578 4.66114C163.475 3.51394 165.352 2.35834 167.225 1.26998C171.412 -1.2074 176.749 0.32425 180.668 2.58446L288.399 64.3769C298.973 70.469 307.267 85.2111 307.235 96.9995L306.784 360.137Z" fill="#461749"/>
<path fill-rule="evenodd" clip-rule="evenodd" d="M156.072 16.7682C156.088 10.9325 158.11 6.7878 161.385 4.76886C164.834 2.64174 169.675 2.8718 175.029 5.96425L282.76 67.7547C293.186 73.7757 301.628 88.3962 301.594 100.379L301.145 363.517C301.111 375.498 292.614 380.341 282.186 374.32L174.457 312.529C164.017 306.502 155.587 291.887 155.621 279.905L156.072 16.7682Z" fill="url(#paint6_linear_495_15762)"/>
<path fill-rule="evenodd" clip-rule="evenodd" d="M286.552 89.7066C289.375 91.3366 291.671 90.0271 291.68 86.7836C291.689 83.5393 289.408 79.5889 286.585 77.9586C283.762 76.3288 281.466 77.6369 281.457 80.8812C281.448 84.125 283.729 88.076 286.552 89.7066Z" fill="#461749"/>
<path fill-rule="evenodd" clip-rule="evenodd" d="M204.754 36.974C204.756 36.0905 205.382 35.7436 206.152 36.2009C217.347 42.5262 235.693 52.8527 246.888 59.1777C247.657 59.6353 248.28 60.7236 248.278 61.6074L248.277 63.3563C248.275 64.2398 247.648 64.5864 246.879 64.1294C235.684 57.8038 217.338 47.4773 206.143 41.1523C205.373 40.6947 204.751 39.6069 204.754 38.7232L204.754 36.974Z" fill="#461749"/>
<path fill-rule="evenodd" clip-rule="evenodd" d="M205.377 222.432L205.324 240.824C191.612 232.906 180.44 239.261 180.396 255.055C180.351 270.824 191.449 290.036 205.162 297.954C218.918 305.896 230.079 299.536 230.123 283.766C230.127 283.06 230.096 282.323 230.053 281.579L246.031 289.414C246.093 290.598 246.122 291.816 246.119 293C246.046 318.93 227.677 329.362 205.111 316.332C182.544 303.304 164.327 271.75 164.401 245.82C164.475 219.865 182.81 209.403 205.377 222.432Z" fill="url(#paint7_linear_495_15762)"/>
<path fill-rule="evenodd" clip-rule="evenodd" d="M216.404 274.621C217.476 276.552 218.019 278.495 218.014 280.473C218.009 282.504 217.388 283.851 216.211 284.571C214.99 285.255 213.507 285.119 211.818 284.144C210.259 283.245 208.912 281.949 207.806 280.276C206.701 278.64 205.981 276.836 205.646 274.886L209.276 276.983C209.55 277.784 209.921 278.467 210.369 279.092C210.82 279.666 211.345 280.121 211.893 280.437C212.651 280.875 213.277 280.92 213.826 280.608C214.355 280.318 214.632 279.633 214.634 278.687C214.637 277.73 214.398 276.796 213.873 275.862C213.393 274.991 212.812 274.328 212.087 273.908C211.704 273.687 211.364 273.616 210.979 273.597C210.627 273.634 210.252 273.733 209.901 273.96L207.104 271.638L209.321 261.34L217.78 266.223L217.769 269.879L211.9 266.489L211.122 269.853C211.33 269.898 211.539 269.98 211.747 270.063C211.923 270.127 212.13 270.247 212.308 270.348C213.964 271.305 215.311 272.714 216.404 274.621ZM199.831 263.891C200.271 263.589 200.483 263.08 200.484 262.286C200.486 261.453 200.279 260.652 199.798 259.856C199.35 259.042 198.836 258.466 198.221 258.113C197.596 257.751 197.036 257.705 196.584 257.963C196.101 258.239 195.889 258.799 195.888 259.594C195.886 260.426 196.092 261.177 196.541 261.991C196.989 262.768 197.548 263.367 198.239 263.767C198.852 264.121 199.413 264.167 199.831 263.891ZM198.188 254.394C199.81 255.33 201.16 256.753 202.262 258.704C203.335 260.635 203.879 262.453 203.874 264.116C203.872 264.758 203.772 265.332 203.627 265.93C203.45 266.459 203.03 267.215 202.444 268.228L197.752 276.025L194.818 272.613L198.019 267.377C196.462 266.478 195.147 265.087 194.085 263.237C193.015 261.356 192.503 259.469 192.508 257.605C192.515 255.778 193.067 254.581 194.178 253.948C195.29 253.313 196.597 253.475 198.188 254.394Z" fill="white"/>
<path fill-rule="evenodd" clip-rule="evenodd" d="M205.375 222.433C226.931 234.878 244.539 264.212 246.03 289.415L230.051 281.58C229.128 266.21 218.455 248.406 205.322 240.825L205.375 222.433Z" fill="url(#paint8_linear_495_15762)"/>
<path fill-rule="evenodd" clip-rule="evenodd" d="M281.715 350.801C282.253 350.041 282.553 348.455 282.559 345.968C282.566 343.446 282.318 341.58 281.835 340.347C281.333 339.102 280.696 338.258 279.928 337.814C279.391 337.504 278.916 337.415 278.5 337.571C278.084 337.738 277.759 338.248 277.532 339.073C277.307 339.897 277.212 341.228 277.208 343.101C277.201 345.518 277.448 347.347 277.952 348.558C278.425 349.74 279.101 350.608 279.89 351.063C280.66 351.506 281.267 351.416 281.715 350.801ZM268.306 341.662L266.419 342.842L272.376 346.281L272.366 349.652L260.807 342.978L260.812 341.223L265.987 338.158C267.235 337.446 268.067 336.764 268.485 336.119C268.902 335.475 269.126 334.801 269.128 334.069C269.13 333.337 268.91 332.628 268.466 331.859C268.053 331.143 267.508 330.607 266.839 330.222C266.142 329.818 265.594 329.794 265.117 330.1C264.67 330.402 264.415 331.057 264.373 332.057L261.288 330.277C261.385 328.249 261.966 326.93 263.021 326.363C264.076 325.797 265.413 325.953 267.042 326.893C268.064 327.482 268.953 328.252 269.71 329.166C270.507 330.139 271.112 331.187 271.586 332.367C272.028 333.578 272.278 334.643 272.275 335.629C272.272 336.768 271.985 337.814 271.405 338.794C270.835 339.792 269.808 340.737 268.306 341.662ZM284.992 341.436C285.464 343.14 285.721 345.268 285.715 347.755C285.707 350.312 285.439 352.148 284.959 353.291C284.481 354.411 283.809 355.083 282.979 355.266C282.148 355.45 281.125 355.186 279.851 354.451C278.606 353.732 277.555 352.8 276.698 351.64C275.839 350.445 275.175 349.074 274.703 347.404C274.231 345.782 273.984 343.694 273.992 341.172C274.001 337.651 274.484 335.404 275.439 334.337C276.496 333.224 277.965 333.199 279.847 334.286C281.06 334.986 282.111 335.954 282.969 337.112C283.856 338.324 284.522 339.767 284.992 341.436Z" fill="#FCB813"/>
<path fill-rule="evenodd" clip-rule="evenodd" d="M261.152 286.575L261.162 283.168L272.117 289.494L272.11 291.387L264.516 304.756L261.879 301.767L268.163 290.621L261.152 286.575ZM283.178 304.342C284.166 306.088 284.678 307.921 284.671 309.757C284.667 311.617 284.117 312.882 283 313.518C281.874 314.148 280.537 314.005 278.949 313.088C277.512 312.258 276.301 311.116 275.291 309.58C274.273 308.071 273.609 306.408 273.289 304.57L276.637 306.503C276.888 307.277 277.21 307.905 277.655 308.453C278.069 309.017 278.514 309.426 279.019 309.718C279.718 310.121 280.325 310.182 280.801 309.863C281.32 309.58 281.545 308.976 281.546 308.057C281.549 307.186 281.329 306.359 280.886 305.509C280.442 304.706 279.865 304.084 279.228 303.715C278.875 303.51 278.53 303.417 278.207 303.417C277.851 303.398 277.536 303.542 277.182 303.744L274.605 301.559L276.678 292.126L284.477 296.628L284.467 299.952L279.025 296.81L278.347 299.982C278.541 300.012 278.691 300.064 278.884 300.14C279.076 300.216 279.237 300.31 279.431 300.421C280.928 301.286 282.17 302.585 283.178 304.342Z" fill="#D31798"/>
<path opacity="0.5" fill-rule="evenodd" clip-rule="evenodd" d="M291.871 327.626C292.477 327.976 292.951 328.808 292.948 329.506L292.942 331.841C292.94 332.538 292.463 332.811 291.856 332.461L258.302 313.235C257.705 312.892 257.221 312.065 257.223 311.368L257.23 309.031C257.231 308.334 257.719 308.057 258.316 308.401L291.871 327.626Z" fill="#00FFFF"/>
<path opacity="0.5" fill-rule="evenodd" clip-rule="evenodd" d="M291.962 289.254C292.569 289.604 293.042 290.471 293.039 291.157L293.033 293.47C293.032 294.167 292.555 294.474 291.948 294.124L258.393 274.899C257.796 274.555 257.312 273.694 257.314 272.996L257.321 270.683C257.322 269.997 257.81 269.685 258.408 270.029L291.962 289.254Z" fill="#00FFFF"/>
<path fill-rule="evenodd" clip-rule="evenodd" d="M252.791 265.655C254.529 266.657 255.935 269.073 255.93 271.009C255.924 273.005 254.508 273.812 252.77 272.808C251.086 271.836 249.697 269.41 249.705 267.414C249.711 265.477 251.106 264.683 252.791 265.655Z" fill="#D31798"/>
<path fill-rule="evenodd" clip-rule="evenodd" d="M252.701 303.884C254.489 304.916 255.935 307.42 255.929 309.455C255.922 311.508 254.467 312.275 252.679 311.245C250.947 310.241 249.518 307.808 249.523 305.755C249.532 303.724 250.967 302.884 252.701 303.884Z" fill="#FCB813"/>
<path opacity="0.5" fill-rule="evenodd" clip-rule="evenodd" d="M164.395 176.971C164.399 175.455 165.473 174.841 166.793 175.604C199.296 194.246 258.086 227.916 290.588 246.559C291.907 247.321 292.975 249.171 292.971 250.686L293.039 257.678C293.036 259.194 291.96 259.806 290.641 259.045C258.138 240.402 199.349 206.732 166.846 188.089C165.525 187.328 164.458 185.478 164.463 183.962L164.395 176.971Z" fill="url(#paint9_linear_495_15762)"/>
<path fill-rule="evenodd" clip-rule="evenodd" d="M215.188 123.459C215.191 122.274 216.031 121.808 217.063 122.422L240.384 135.599C241.415 136.212 242.25 137.672 242.247 138.856L242.246 141.2C242.243 142.385 241.403 142.85 240.372 142.237L217.05 129.06C216.018 128.446 215.184 126.987 215.188 125.803L215.188 123.459Z" fill="#00FFFF"/>
<path fill-rule="evenodd" clip-rule="evenodd" d="M228.666 115.479C219.73 110.318 212.509 97.8124 212.538 87.5453C212.568 77.2763 219.837 73.1361 228.771 78.2938C237.706 83.4539 244.927 95.9579 244.897 106.227C244.869 116.494 237.602 120.638 228.666 115.479ZM221.413 94.1365L221.401 101.111C226.276 103.951 231.148 106.807 236.023 109.645L236.035 102.538C236.038 101.334 235.19 99.865 234.143 99.2594L232.479 98.3053C231.578 98.5404 230.424 98.321 229.14 97.579C227.873 96.8462 226.671 95.7167 225.669 94.3994L223.317 93.0513C222.78 92.7402 222.293 92.717 221.947 92.9302C221.618 93.1334 221.415 93.5503 221.413 94.1365ZM229.044 96.1877C231.513 97.6151 233.364 96.5612 233.174 93.8314C232.985 91.1029 230.829 87.73 228.359 86.3034C225.887 84.8746 224.039 85.9305 224.229 88.6597C224.417 91.3899 226.573 94.7583 229.044 96.1877ZM228.654 119.83C239.682 126.197 248.648 121.082 248.684 108.413C248.72 95.7411 239.81 80.3107 228.782 73.942C217.758 67.5781 208.787 72.6861 208.752 85.3585C208.716 98.029 217.626 113.462 228.654 119.83Z" fill="url(#paint10_linear_495_15762)"/>
<path opacity="0.2" fill-rule="evenodd" clip-rule="evenodd" d="M228.911 118.449C239.604 124.623 248.313 119.67 248.348 107.368C248.383 95.0659 239.73 80.0926 229.037 73.9189C218.331 67.7379 209.617 72.6834 209.582 84.9854C209.547 97.288 218.204 112.268 228.911 118.449ZM250.721 100.179C251.843 107.125 256.598 113.261 252.603 122.282C249.485 129.106 240.621 125.775 237.605 125.239C235.879 124.932 233.704 125.51 231.752 125.329C220.453 124.278 215.116 116.273 212.35 105.685C208.904 98.4643 204.679 91.4505 203.664 85.6969C201.655 72.7608 207.512 70.7382 213.586 68.1669C217.835 65.186 227.194 66.3024 233.532 69.9617C237.89 72.4783 239.846 72.9586 244.061 78.7506C248.276 84.543 249.598 93.2316 250.721 100.179Z" fill="url(#paint11_linear_495_15762)"/>
<path opacity="0.35" fill-rule="evenodd" clip-rule="evenodd" d="M228.542 118.708C239.235 124.881 247.945 119.928 247.98 107.626C248.015 95.3243 239.361 80.351 228.668 74.1773C217.962 67.996 209.248 72.9418 209.214 85.2438C209.178 97.5466 217.836 112.527 228.542 118.708ZM252.096 101.816C252.363 105.882 251.928 109.909 251.227 114.126C249.927 121.919 246.182 128.267 239.75 128.898C237.808 129.087 235.521 128.488 232.855 126.948C230.408 125.535 227.641 123.331 224.529 120.219C220.583 116.285 216.14 110.938 212.563 106.329C206.092 97.9513 202.848 91.3337 204.926 83.0663C206.052 78.5002 205.571 76.2534 206.015 71.497C206.354 67.7904 207.215 65.7877 208.822 65.109C209.804 64.6873 210.95 64.7968 212.652 65.2376C214.664 65.7591 216.679 66.6263 218.752 66.7409C219.611 66.788 220.321 66.7112 220.805 66.5734C224.259 66.088 227.237 65.5282 230.11 67.1229C236.298 70.6931 237.988 76.8001 242.556 82.104C244.391 84.2418 246.676 86.0133 247.965 87.6752C251.181 91.8227 251.757 96.6441 252.096 101.816Z" fill="url(#paint12_linear_495_15762)"/>
<path opacity="0.5" fill-rule="evenodd" clip-rule="evenodd" d="M291.901 167.47C292.274 167.686 292.652 167.915 293.036 168.159V224.626L164.395 150.355V127.575C167.519 131.486 170.548 135.051 174.177 137.147C175.399 137.852 176.688 138.391 178.072 138.72C184.005 140.074 191.481 129.655 200.381 133.239C200.857 133.435 201.321 133.664 201.774 133.925C205.649 136.163 208.701 140.682 211.916 145.306C215.127 149.914 218.497 154.615 222.999 157.214C223.333 157.409 223.674 157.59 224.021 157.759C234.274 162.766 237.065 151.212 244.652 155.334C244.8 155.415 244.947 155.496 245.09 155.579C248.523 157.561 250.334 160.191 252.36 162.955C254.378 165.698 256.598 168.568 260.829 171.01C261.149 171.195 261.482 171.378 261.828 171.558C271.16 176.448 275.541 158.026 291.901 167.47Z" fill="url(#paint13_linear_495_15762)"/>
<path fill-rule="evenodd" clip-rule="evenodd" d="M292.191 178.65C292.47 178.811 292.752 178.979 293.037 179.156V241.752L164.396 167.482V135.711C168.009 139.795 171.678 143.67 175.989 146.159C176.716 146.58 177.462 146.96 178.23 147.295C187.04 151.094 191.473 139.201 200.372 143.087C200.773 143.262 201.169 143.464 201.555 143.687C205.541 145.989 208.8 150.698 212.213 155.506C215.622 160.293 219.193 165.187 223.808 167.851C224.096 168.017 224.388 168.174 224.682 168.322C234.934 173.502 237.566 161.272 244.647 164.155C245.015 164.306 245.363 164.478 245.696 164.669C248.65 166.376 250.282 169.62 252.27 173.062C254.246 176.508 256.579 180.149 260.925 182.659C261.104 182.76 261.284 182.861 261.468 182.959C270.788 187.919 275.56 169.05 292.191 178.65Z" fill="url(#paint14_linear_495_15762)"/>
<path opacity="0.5" fill-rule="evenodd" clip-rule="evenodd" d="M164.427 142.348C166.23 144.51 168.05 146.62 169.959 148.521C171.865 150.418 173.858 152.105 176.011 153.425C176.378 153.65 176.748 153.863 177.116 154.061C177.494 154.264 177.872 154.455 178.25 154.63C182.63 156.633 185.93 154.512 189.236 152.387C192.573 150.242 195.918 148.092 200.393 150.165C200.596 150.259 200.794 150.358 200.982 150.46C201.187 150.57 201.386 150.684 201.578 150.802C205.434 153.164 208.61 157.914 211.902 162.838L212.247 163.353C213.951 165.892 215.697 168.46 217.588 170.742C219.481 173.024 221.525 175.026 223.831 176.438L224.266 176.695L224.704 176.938C230.398 179.99 233.738 177.337 236.797 174.907C239.246 172.961 241.517 171.156 244.667 172.516C244.857 172.599 245.037 172.686 245.206 172.774C245.384 172.866 245.555 172.963 245.718 173.062C248.386 174.698 249.979 177.66 251.724 180.904L252.308 181.987C253.293 183.809 254.369 185.685 255.74 187.437C257.111 189.189 258.779 190.818 260.948 192.147L261.49 192.466C265.428 194.69 268.558 192.383 272.118 189.76C276.969 186.184 282.62 182.02 292.214 187.894L293.06 188.432L293.043 190.547L292.197 190.01C282.624 184.147 276.981 188.304 272.137 191.875C268.569 194.505 265.433 196.816 261.475 194.581L260.932 194.262C258.755 192.929 257.082 191.295 255.706 189.536C254.331 187.778 253.25 185.893 252.259 184.06L251.675 182.978C249.939 179.749 248.354 176.803 245.702 175.177C245.533 175.074 245.362 174.977 245.191 174.888C245.011 174.795 244.832 174.708 244.655 174.631C241.52 173.278 239.257 175.074 236.818 177.013C233.749 179.452 230.398 182.114 224.689 179.053L224.25 178.81L223.814 178.553C221.504 177.139 219.454 175.13 217.556 172.841C215.657 170.55 213.911 167.982 212.207 165.443L211.862 164.928C208.577 160.014 205.407 155.272 201.561 152.917C201.362 152.795 201.163 152.681 200.968 152.575C200.769 152.468 200.572 152.369 200.38 152.28C195.923 150.216 192.583 152.362 189.252 154.502C185.94 156.631 182.634 158.755 178.238 156.745C177.848 156.565 177.469 156.374 177.101 156.176C176.723 155.973 176.354 155.76 175.995 155.54C173.838 154.218 171.841 152.528 169.932 150.627C168.026 148.73 166.203 146.616 164.395 144.447L164.427 142.348Z" fill="#3856D8"/>
<path fill-rule="evenodd" clip-rule="evenodd" d="M164.427 141.606C166.23 143.644 168.05 145.633 169.959 147.425C171.865 149.213 173.858 150.803 176.011 152.047C176.378 152.259 176.748 152.46 177.116 152.647C177.494 152.838 177.872 153.018 178.25 153.182C182.63 155.071 185.93 153.072 189.236 151.069C192.573 149.047 195.918 147.021 200.393 148.974C200.596 149.063 200.794 149.157 200.982 149.252C201.187 149.356 201.386 149.464 201.578 149.575C205.434 151.801 208.61 156.279 211.902 160.919L212.247 161.405C213.951 163.798 215.697 166.219 217.588 168.37C219.481 170.521 221.525 172.408 223.831 173.739L224.266 173.981L224.704 174.21C230.398 177.088 233.738 174.587 236.797 172.295C239.246 170.461 241.517 168.76 244.667 170.042C244.857 170.12 245.037 170.202 245.206 170.284C245.384 170.372 245.555 170.463 245.718 170.557C248.386 172.099 249.979 174.89 251.724 177.949L252.308 178.969C253.293 180.687 254.369 182.455 255.74 184.107C257.111 185.758 258.779 187.294 260.948 188.547L261.49 188.847C265.428 190.943 268.558 188.769 272.118 186.297C276.969 182.926 282.62 179.001 292.214 184.538L293.06 185.044L293.043 187.038L292.197 186.532C282.624 181.006 276.981 184.925 272.137 188.29C268.569 190.769 265.433 192.947 261.475 190.841L260.932 190.54C258.755 189.283 257.082 187.742 255.706 186.085C254.331 184.429 253.25 182.651 252.259 180.923L251.675 179.903C249.939 176.86 248.354 174.083 245.702 172.55C245.533 172.453 245.362 172.361 245.191 172.278C245.011 172.19 244.832 172.109 244.655 172.036C241.52 170.76 239.257 172.454 236.818 174.281C233.749 176.58 230.398 179.089 224.689 176.204L224.25 175.975L223.814 175.733C221.504 174.4 219.454 172.507 217.556 170.348C215.657 168.189 213.911 165.769 212.207 163.376L211.862 162.89C208.577 158.258 205.407 153.789 201.561 151.569C201.362 151.454 201.163 151.346 200.968 151.246C200.769 151.146 200.572 151.052 200.38 150.968C195.923 149.022 192.583 151.045 189.252 153.063C185.94 155.07 182.634 157.072 178.238 155.176C177.848 155.007 177.469 154.827 177.101 154.641C176.723 154.449 176.354 154.248 175.995 154.04C173.838 152.795 171.841 151.202 169.932 149.41C168.026 147.622 166.203 145.629 164.395 143.584L164.427 141.606Z" fill="#00FFFF"/>
<path fill-rule="evenodd" clip-rule="evenodd" d="M201.623 143.928C202.072 143.661 202.327 143.152 202.33 142.382C202.332 141.612 202.08 140.764 201.634 139.992C201.188 139.254 200.579 138.563 199.938 138.192C199.268 137.805 198.656 137.792 198.207 138.012C197.757 138.269 197.492 138.816 197.491 139.589C197.487 140.36 197.75 141.165 198.196 141.951C198.642 142.723 199.252 143.366 199.922 143.755C200.563 144.124 201.174 144.185 201.623 143.928ZM199.935 139.186C200.799 139.684 201.469 140.89 201.465 141.884C201.462 142.876 200.79 143.295 199.926 142.796C199.03 142.28 198.352 141.079 198.354 140.087C198.357 139.093 199.04 138.67 199.935 139.186ZM202.204 139.689C202.782 140.689 203.136 141.805 203.132 142.845C203.131 143.839 202.771 144.593 202.19 144.911C201.588 145.231 200.784 145.177 199.919 144.677C199.026 144.161 198.223 143.288 197.615 142.269C197.036 141.281 196.694 140.124 196.697 139.13C196.7 138.09 197.048 137.378 197.628 137.047C198.242 136.698 199.046 136.766 199.941 137.281C200.804 137.781 201.607 138.641 202.204 139.689Z" fill="white"/>
<path fill-rule="evenodd" clip-rule="evenodd" d="M244.075 160.293C244.94 160.793 245.638 162.003 245.635 162.997C245.634 163.989 244.93 164.391 244.065 163.892C243.2 163.393 242.502 162.182 242.505 161.188C242.508 160.196 243.212 159.794 244.075 160.293ZM245.763 165.024C246.212 164.768 246.468 164.214 246.47 163.478C246.472 162.707 246.22 161.858 245.774 161.086C245.358 160.368 244.75 159.677 244.078 159.288C243.408 158.902 242.796 158.888 242.379 159.126C241.93 159.382 241.673 159.937 241.67 160.707C241.669 161.443 241.922 162.292 242.368 163.064C242.782 163.819 243.392 164.463 244.063 164.849C244.734 165.238 245.344 165.298 245.763 165.024ZM246.355 160.79C245.777 159.755 244.976 158.893 244.081 158.377C243.186 157.861 242.382 157.795 241.8 158.16C241.229 158.498 240.87 159.215 240.867 160.244C240.864 161.236 241.217 162.365 241.785 163.383C242.363 164.384 243.166 165.257 244.06 165.773C244.955 166.289 245.759 166.345 246.341 166.013C246.913 165.652 247.27 164.935 247.272 163.941C247.276 162.915 246.922 161.785 246.355 160.79Z" fill="white"/>
<path fill-rule="evenodd" clip-rule="evenodd" d="M249.595 154.517C250.011 155.283 250.232 156.031 250.231 156.838C250.228 157.621 249.973 158.164 249.492 158.449C249.044 158.704 248.463 158.662 247.763 158.256C247.152 157.904 246.633 157.418 246.188 156.751C245.742 156.095 245.458 155.382 245.328 154.605L246.772 155.438C246.862 155.748 247.025 156.028 247.218 156.28C247.381 156.492 247.573 156.673 247.796 156.802C248.111 156.984 248.367 157.014 248.561 156.869C248.785 156.74 248.887 156.507 248.889 156.109C248.89 155.735 248.788 155.35 248.596 155.017C248.414 154.654 248.15 154.385 247.897 154.238C247.732 154.144 247.581 154.09 247.449 154.096C247.285 154.108 247.163 154.154 247.03 154.253L245.912 153.314L246.79 149.257L250.155 151.2L250.151 152.625L247.812 151.276L247.513 152.625L247.737 152.707L247.962 152.8C248.602 153.171 249.149 153.745 249.595 154.517ZM243.027 150.246C243.192 150.13 243.294 149.931 243.295 149.628C243.295 149.3 243.195 148.984 243.032 148.67C242.851 148.341 242.617 148.101 242.394 147.972C242.14 147.826 241.914 147.802 241.753 147.929C241.568 148.045 241.466 148.244 241.466 148.571C241.464 148.875 241.564 149.19 241.717 149.488C241.91 149.823 242.133 150.068 242.387 150.215C242.652 150.367 242.875 150.379 243.027 150.246ZM242.367 146.481C243.007 146.852 243.557 147.425 244.002 148.198C244.417 148.953 244.64 149.666 244.638 150.367C244.636 150.625 244.606 150.828 244.534 151.045C244.472 151.266 244.308 151.582 244.052 151.983L242.22 155.057L241.062 153.722L242.322 151.652C241.712 151.3 241.204 150.749 240.758 150.011C240.343 149.257 240.121 148.497 240.123 147.762C240.124 147.059 240.35 146.57 240.798 146.349C241.247 146.093 241.757 146.129 242.367 146.481Z" fill="white"/>
<path fill-rule="evenodd" clip-rule="evenodd" d="M284.454 172.232C285.317 172.73 286.016 173.954 286.015 174.946C286.011 175.939 285.307 176.341 284.443 175.842C283.58 175.342 282.869 174.125 282.872 173.131C282.875 172.14 283.589 171.732 284.454 172.232ZM286.14 176.973C286.589 176.707 286.846 176.199 286.847 175.428C286.851 174.645 286.597 173.809 286.151 173.036C285.736 172.316 285.127 171.625 284.456 171.238C283.785 170.851 283.173 170.837 282.756 171.076C282.307 171.332 282.011 171.851 282.008 172.633C282.006 173.404 282.299 174.229 282.745 175.013C283.161 175.767 283.769 176.413 284.441 176.799C285.112 177.186 285.723 177.247 286.14 176.973ZM286.723 172.734C286.156 171.705 285.353 170.843 284.459 170.327C283.563 169.81 282.759 169.745 282.178 170.111C281.607 170.448 281.218 171.137 281.215 172.175C281.212 173.169 281.595 174.35 282.164 175.333C282.74 176.333 283.543 177.206 284.438 177.723C285.333 178.239 286.137 178.295 286.709 177.958C287.291 177.638 287.649 176.884 287.652 175.892C287.653 174.851 287.301 173.735 286.723 172.734Z" fill="white"/>
<path opacity="0.5" fill-rule="evenodd" clip-rule="evenodd" d="M301.499 164.269L279.668 151.747C270.86 146.661 263.747 134.329 263.775 124.22L264.048 56.973L269.191 53.6281L289.057 65.0227C299.115 70.8187 307.005 84.842 306.974 96.0562L306.862 161.662L301.499 164.269Z" fill="black"/>
<path fill-rule="evenodd" clip-rule="evenodd" d="M396.11 188.892C396.096 193.915 394.304 197.45 391.441 199.114L386.898 201.846C378.369 198.207 363.328 83.5424 365.04 76.7404L319.358 55.3564C317.33 53.9769 264.021 23.102 273.59 17.315C275.188 16.348 276.774 15.3717 278.355 14.4529C281.888 12.363 286.391 13.6551 289.698 15.5623L380.597 67.7004C389.519 72.841 396.518 85.28 396.49 95.2265L396.11 188.892Z" fill="#461749"/>
<path fill-rule="evenodd" clip-rule="evenodd" d="M268.943 27.5304C268.957 22.6062 270.663 19.1088 273.426 17.4059C276.336 15.6123 280.421 15.8053 284.939 18.4144L375.838 70.5518C384.635 75.632 391.758 87.9685 391.73 98.0792L391.351 191.744C391.322 201.853 384.152 205.94 375.353 200.86L284.456 148.722C275.647 143.637 268.534 131.305 268.563 121.196L268.943 27.5304Z" fill="url(#paint15_linear_495_15762)"/>
<path opacity="0.2" fill-rule="evenodd" clip-rule="evenodd" d="M330.452 135.362C347.511 145.212 361.406 137.309 361.462 117.683C361.517 98.0567 347.713 74.1692 330.654 64.3202C313.573 54.4589 299.672 62.3489 299.616 81.9757C299.56 101.602 313.371 125.501 330.452 135.362ZM365.246 106.214C367.038 117.297 374.624 127.084 368.25 141.477C363.276 152.363 349.134 147.048 344.323 146.195C341.569 145.705 338.1 146.627 334.986 146.337C316.959 144.661 308.445 131.891 304.032 114.998C298.536 103.479 291.795 92.2899 290.175 83.1106C286.971 62.4733 296.315 59.2467 306.005 55.1443C312.783 50.3885 327.713 52.1696 337.825 58.0076C344.779 62.0228 347.898 62.7886 354.623 72.0289C361.347 81.269 363.455 95.131 365.246 106.214Z" fill="url(#paint16_linear_495_15762)"/>
<path opacity="0.35" fill-rule="evenodd" clip-rule="evenodd" d="M329.863 135.775C346.923 145.624 360.817 137.722 360.873 118.096C360.929 98.4694 347.124 74.5819 330.065 64.7329C312.984 54.8716 299.082 62.7619 299.027 82.3879C298.971 102.016 312.783 125.914 329.863 135.775ZM367.44 108.826C367.865 115.313 367.172 121.739 366.053 128.465C363.98 140.899 358.005 151.026 347.744 152.033C344.646 152.334 340.997 151.377 336.744 148.922C332.839 146.667 328.425 143.15 323.461 138.186C317.165 131.909 310.077 123.379 304.37 116.026C294.047 102.661 288.872 92.1029 292.186 78.9143C293.984 71.6293 293.215 68.0456 293.925 60.4569C294.465 54.5435 295.838 51.3485 298.402 50.2654C299.969 49.5924 301.797 49.7672 304.512 50.4711C307.722 51.3034 310.937 52.6865 314.245 52.8689C315.615 52.9446 316.748 52.8221 317.52 52.6016C323.03 51.8276 327.781 50.9352 332.365 53.4787C342.236 59.1743 344.933 68.9177 352.22 77.3793C355.148 80.789 358.794 83.6155 360.85 86.2672C365.98 92.8839 366.899 100.576 367.44 108.826Z" fill="url(#paint17_linear_495_15762)"/>
<path fill-rule="evenodd" clip-rule="evenodd" d="M330.814 131.739C346.424 140.751 359.146 133.516 359.197 115.556C359.248 97.5961 346.607 75.7264 330.998 66.7147C315.368 57.6901 302.639 64.9127 302.588 82.8736C302.537 100.833 315.184 122.715 330.814 131.739ZM331.022 58.2803C350.68 69.629 366.581 97.1702 366.516 119.783C366.453 142.395 350.447 151.524 330.789 140.174C311.111 128.813 295.203 101.259 295.268 78.6474C295.332 56.0355 311.343 46.9184 331.022 58.2803Z" fill="url(#paint18_linear_495_15762)"/>
<path fill-rule="evenodd" clip-rule="evenodd" d="M350.301 114.18C350.736 113.584 350.96 112.321 350.965 110.378C350.971 108.388 350.775 106.906 350.393 105.942C350.004 104.965 349.503 104.305 348.877 103.942C348.465 103.705 348.1 103.644 347.748 103.742C347.425 103.872 347.182 104.262 347.008 104.929C346.835 105.58 346.742 106.643 346.738 108.111C346.732 110.007 346.928 111.441 347.311 112.406C347.721 113.362 348.222 114.031 348.847 114.393C349.452 114.741 349.934 114.671 350.301 114.18ZM311.815 83.0438C311.553 83.1923 311.421 83.5358 311.419 84.0091C311.418 84.4841 311.548 84.9767 311.828 85.4637C312.109 85.9504 312.452 86.3229 312.865 86.5608C313.277 86.7984 313.628 86.8278 313.904 86.6628C314.166 86.4896 314.318 86.1819 314.32 85.6607C314.321 85.1871 314.171 84.7049 313.911 84.2535C313.637 83.7709 313.266 83.4061 312.833 83.1567C312.421 82.9191 312.077 82.8706 311.815 83.0438ZM314.407 93.8825C314.8 93.7144 314.994 93.3279 314.996 92.7033C314.997 92.0566 314.806 91.4239 314.395 90.7592C314.005 90.1383 313.51 89.6235 312.926 89.2856C312.321 88.9367 311.819 88.8762 311.405 89.0328C310.992 89.2208 310.777 89.6193 310.775 90.1887C310.774 90.8122 310.965 91.4214 311.355 92.074C311.746 92.7188 312.24 93.2257 312.893 93.6026C313.519 93.9629 314.035 94.0632 314.407 93.8825ZM315.611 89.2943C316.194 90.0814 316.646 90.9114 316.994 91.7851C317.316 92.6745 317.465 93.5048 317.462 94.302C317.46 95.1712 317.265 95.8816 316.892 96.3851C316.505 96.9136 316.002 97.1691 315.355 97.1666C314.721 97.1806 313.903 96.9066 312.906 96.3316C311.841 95.7157 311.003 95.058 310.371 94.3219C309.747 93.6059 309.247 92.7703 308.885 91.8414C308.495 90.8649 308.325 89.9444 308.328 89.0281C308.33 88.2303 308.463 87.5866 308.767 87.1139C309.071 86.6176 309.526 86.3021 310.133 86.1309C309.749 85.4578 309.448 84.794 309.25 84.1501C309.06 83.5403 308.951 82.9323 308.952 82.3318C308.955 81.5662 309.128 80.9461 309.461 80.4899C309.806 80.0399 310.261 79.8037 310.867 79.7824C311.452 79.7642 312.147 79.9679 312.93 80.4198C313.707 80.8685 314.38 81.4544 314.963 82.1474C315.547 82.856 315.999 83.6398 316.341 84.5085C316.689 85.3589 316.839 86.1651 316.836 86.9393C316.835 87.4844 316.744 87.9296 316.571 88.3043C316.398 88.6559 316.066 88.9871 315.611 89.2943ZM320.579 97.423C320.964 97.6452 321.314 97.998 321.575 98.4718C321.849 98.9227 321.978 99.4019 321.977 99.8432C321.976 100.294 321.844 100.589 321.568 100.755C321.306 100.904 320.955 100.876 320.57 100.652C320.178 100.427 319.856 100.067 319.596 99.616C319.315 99.1295 319.185 98.6829 319.186 98.2328C319.188 97.7904 319.319 97.4631 319.602 97.3342C319.864 97.1602 320.187 97.1972 320.579 97.423ZM329.756 102.318C330.192 101.723 330.416 100.46 330.421 98.5164C330.427 96.5261 330.231 95.0448 329.869 94.0918C329.48 93.1153 328.959 92.4428 328.354 92.0942C327.921 91.8431 327.556 91.7831 327.225 91.8927C326.901 92.0219 326.666 92.4172 326.485 93.0791C326.311 93.7306 326.226 94.7963 326.222 96.266C326.216 98.1614 326.405 99.5913 326.794 100.56C327.177 101.501 327.698 102.182 328.324 102.543C328.928 102.892 329.411 102.822 329.756 102.318ZM330.764 91.5399C331.457 92.4851 331.991 93.6166 332.359 94.9526C332.748 96.3005 332.935 97.9509 332.93 99.9416C332.924 101.955 332.728 103.384 332.333 104.28C331.938 105.175 331.42 105.699 330.765 105.843C330.118 105.991 329.292 105.792 328.316 105.228C327.32 104.653 326.503 103.904 325.83 102.994C325.138 102.071 324.624 100.977 324.235 99.6605C323.867 98.3718 323.679 96.7452 323.685 94.7545C323.693 91.9661 324.07 90.1663 324.829 89.3632C325.658 88.4651 326.801 88.4287 328.279 89.2825C329.248 89.841 330.072 90.5936 330.764 91.5399ZM340.039 108.254C340.474 107.658 340.698 106.396 340.703 104.453C340.709 102.463 340.514 100.981 340.131 100.016C339.741 99.0398 339.241 98.3791 338.615 98.0188C338.203 97.7806 337.817 97.7083 337.486 97.8184C337.163 97.9476 336.92 98.3371 336.747 99.0045C336.573 99.6558 336.48 100.717 336.476 102.187C336.47 104.083 336.667 105.516 337.056 106.484C337.439 107.425 337.96 108.107 338.585 108.468C339.19 108.816 339.672 108.747 340.039 108.254ZM341.027 97.4639C341.719 98.4099 342.253 99.5403 342.641 100.888C343.009 102.224 343.198 103.876 343.192 105.866C343.186 107.88 342.989 109.309 342.594 110.205C342.199 111.099 341.682 111.624 341.027 111.768C340.4 111.928 339.574 111.728 338.578 111.152C337.581 110.577 336.764 109.829 336.092 108.918C335.399 107.997 334.886 106.901 334.497 105.585C334.129 104.297 333.941 102.669 333.947 100.679C333.955 97.8901 334.332 96.0909 335.091 95.2872C335.913 94.386 337.062 94.3524 338.561 95.2183C339.51 95.7664 340.334 96.5188 341.027 97.4639ZM352.903 106.814C353.265 108.145 353.46 109.8 353.454 111.79C353.448 113.805 353.244 115.23 352.856 116.129C352.461 117.025 351.964 117.56 351.31 117.704C350.662 117.852 349.837 117.652 348.84 117.077C347.843 116.502 347.02 115.749 346.354 114.843C345.682 113.932 345.141 112.822 344.78 111.521C344.391 110.221 344.203 108.593 344.209 106.603C344.217 103.815 344.587 102.011 345.354 101.212C346.175 100.31 347.325 100.278 348.823 101.143C349.772 101.69 350.595 102.443 351.288 103.389C351.974 104.331 352.514 105.466 352.903 106.814Z" fill="white"/>
<path fill-rule="evenodd" clip-rule="evenodd" d="M335.058 113.306C335.14 113.551 335.18 113.899 335.179 114.349L335.173 116.536L334.355 116.065L334.36 114.177C334.361 113.751 334.321 113.459 334.211 113.245C334.123 113.043 333.993 112.865 333.8 112.754C333.649 112.667 333.539 112.65 333.408 112.679C333.298 112.718 333.215 112.789 333.173 112.914C333.104 113.049 333.082 113.289 333.081 113.66L333.077 115.327L332.252 114.851L332.257 113.057C332.258 112.711 332.238 112.453 332.198 112.28C332.157 112.106 332.088 111.964 331.999 111.841C331.917 111.714 331.807 111.603 331.697 111.539C331.546 111.452 331.415 111.424 331.311 111.467C331.201 111.507 331.112 111.574 331.07 111.724C331.008 111.838 330.979 112.098 330.978 112.47L330.974 114.112L330.156 113.64L330.167 109.913L330.985 110.384L330.983 110.803C331.114 110.705 331.294 110.681 331.445 110.674C331.617 110.695 331.81 110.758 332.002 110.87C332.222 110.995 332.394 111.143 332.565 111.368C332.743 111.574 332.874 111.824 332.955 112.092C333.087 111.947 333.259 111.872 333.458 111.884C333.631 111.857 333.844 111.933 334.064 112.06C334.297 112.195 334.517 112.37 334.689 112.594C334.86 112.82 334.99 113.069 335.058 113.306ZM329.664 109.623L328.257 110.598L329.832 113.453L328.815 112.867L327.431 110.351L327.427 112.065L326.602 111.589L326.616 106.391L327.441 106.868L327.433 109.877L328.626 109.023L329.664 109.623Z" fill="white"/>
<path fill-rule="evenodd" clip-rule="evenodd" d="M307.627 147.212C307.813 147.504 307.888 147.848 307.887 148.247L307.881 150.511L307.137 150.081L307.141 148.585C307.142 148.187 307.118 147.89 307.093 147.759C307.068 147.589 307.017 147.472 306.933 147.327C306.856 147.225 306.747 147.132 306.637 147.068C306.485 146.979 306.35 146.961 306.239 147.023C306.138 147.082 306.052 147.187 306.001 147.373C306 147.46 305.974 147.697 305.974 148.028L305.97 149.408L305.217 148.973L305.227 145.544L305.98 145.978L305.979 146.318C306.165 146.269 306.292 146.227 306.453 146.251C306.589 146.27 306.724 146.319 306.885 146.412C307.172 146.578 307.417 146.836 307.627 147.212ZM279.926 130.936C280.272 131.262 280.517 131.588 280.702 131.968C280.888 132.387 280.988 132.747 280.987 133.145C280.986 133.698 280.798 134.077 280.45 134.246C280.077 134.429 279.628 134.355 279.07 134.033C278.538 133.726 278.107 133.293 277.786 132.738C277.441 132.198 277.256 131.575 277.232 130.949L278.273 131.549C278.297 131.864 278.406 132.18 278.567 132.419C278.693 132.648 278.887 132.857 279.124 132.994C279.361 133.13 279.573 133.155 279.734 133.064C279.895 132.972 279.98 132.807 279.98 132.565C279.982 132.292 279.872 131.975 279.662 131.64C279.45 131.343 279.13 131.06 278.732 130.831L278.735 129.791C278.972 129.928 279.158 129.977 279.293 129.987C279.395 129.987 279.505 129.963 279.556 129.867C279.641 129.788 279.667 129.686 279.667 129.561C279.668 129.377 279.618 129.23 279.507 129.04C279.398 128.86 279.272 128.719 279.111 128.626C278.976 128.547 278.841 128.538 278.704 128.547C278.577 128.6 278.493 128.668 278.467 128.838L277.452 128.252C277.513 127.83 277.675 127.524 277.912 127.389C278.234 127.205 278.658 127.235 279.139 127.513C279.587 127.773 279.968 128.148 280.254 128.645C280.575 129.171 280.709 129.617 280.707 130.074C280.706 130.346 280.647 130.554 280.52 130.735C280.383 130.869 280.197 130.947 279.926 130.936ZM283.836 134.789L283.251 135.221L285.171 136.328L285.168 137.397L281.413 135.23L281.415 134.677L283.095 133.661C283.494 133.423 283.765 133.221 283.901 132.988C284.029 132.789 284.114 132.556 284.115 132.341C284.115 132.099 284.032 131.837 283.906 131.608C283.77 131.384 283.584 131.208 283.373 131.086C283.154 130.959 282.967 130.95 282.815 131.047C282.679 131.153 282.593 131.376 282.567 131.663L281.56 131.081C281.613 130.44 281.776 130.019 282.123 129.82C282.471 129.651 282.894 129.681 283.452 130.003C283.773 130.19 284.069 130.448 284.305 130.739C284.568 131.047 284.753 131.396 284.913 131.791C285.073 132.166 285.156 132.544 285.155 132.856C285.154 133.224 285.043 133.559 284.856 133.88C284.669 134.2 284.345 134.501 283.836 134.789ZM286.558 137.004C286.718 137.097 286.845 137.228 286.954 137.417C287.056 137.603 287.114 137.783 287.114 137.967C287.113 138.152 287.054 138.273 286.952 138.369C286.842 138.422 286.714 138.417 286.554 138.324C286.393 138.232 286.233 138.071 286.123 137.891C286.022 137.676 285.964 137.487 285.964 137.303C285.964 137.117 286.024 137.006 286.126 136.938C286.236 136.876 286.397 136.911 286.558 137.004ZM286.568 133.486C286.729 133.578 286.855 133.709 286.965 133.899C287.066 134.075 287.125 134.294 287.124 134.478C287.123 134.634 287.064 134.784 286.962 134.851C286.852 134.906 286.725 134.89 286.564 134.797C286.403 134.705 286.243 134.554 286.133 134.373C286.032 134.189 285.973 133.998 285.973 133.814C285.974 133.63 286.034 133.479 286.136 133.421C286.246 133.359 286.407 133.393 286.568 133.486ZM290.53 137.058C290.851 137.371 291.113 137.706 291.298 138.086C291.483 138.504 291.592 138.869 291.59 139.267C291.59 139.821 291.401 140.2 291.028 140.353C290.681 140.552 290.224 140.472 289.665 140.15C289.133 139.843 288.71 139.414 288.364 138.845C288.044 138.318 287.859 137.696 287.836 137.07L288.842 137.651C288.901 137.986 289.002 138.297 289.136 138.521C289.297 138.769 289.483 138.974 289.719 139.11C289.964 139.252 290.151 139.263 290.312 139.17C290.473 139.079 290.55 138.909 290.55 138.665C290.551 138.394 290.442 138.077 290.231 137.742C290.02 137.444 289.725 137.176 289.327 136.948L289.33 135.908C289.575 136.05 289.761 136.099 289.863 136.09C289.999 136.109 290.109 136.085 290.16 135.987C290.236 135.905 290.262 135.803 290.262 135.677C290.263 135.492 290.213 135.346 290.112 135.162C290.002 134.982 289.867 134.835 289.706 134.742C289.546 134.65 289.419 134.644 289.308 134.668C289.173 134.717 289.096 134.79 289.045 134.945L288.056 134.374C288.108 133.946 288.27 133.64 288.482 133.49C288.829 133.321 289.236 133.342 289.734 133.629C290.191 133.893 290.563 134.264 290.858 134.765C291.144 135.27 291.304 135.733 291.302 136.19C291.302 136.462 291.251 136.676 291.115 136.85C290.979 136.987 290.792 137.063 290.53 137.058ZM294.023 138.462C294.497 138.736 294.928 139.169 295.24 139.748C295.56 140.303 295.72 140.882 295.718 141.494C295.716 142.105 295.555 142.508 295.181 142.721C294.807 142.934 294.384 142.875 293.877 142.582C293.395 142.304 292.998 141.919 292.677 141.461C292.332 140.949 292.121 140.4 292.013 139.822L293.104 140.451C293.188 140.675 293.288 140.889 293.424 141.064C293.584 141.244 293.72 141.381 293.88 141.473C294.117 141.611 294.303 141.631 294.464 141.538C294.626 141.447 294.702 141.249 294.703 140.937C294.704 140.664 294.629 140.378 294.494 140.115C294.334 139.838 294.173 139.658 293.962 139.535C293.826 139.457 293.725 139.428 293.614 139.423C293.513 139.422 293.403 139.456 293.293 139.548L292.447 138.846L293.117 135.739L295.68 137.218L295.677 138.316L293.892 137.286L293.677 138.331L293.83 138.351L294.023 138.462ZM302.723 144.196C302.884 144.376 302.993 144.594 303.069 144.823C303.127 145.042 303.178 145.373 303.177 145.77L303.171 147.792L302.427 147.362L302.432 145.653C302.433 145.254 302.374 144.937 302.299 144.777C302.223 144.578 302.087 144.442 301.902 144.334C301.766 144.256 301.656 144.222 301.555 144.249C301.444 144.284 301.368 144.357 301.342 144.468C301.282 144.59 301.256 144.818 301.256 145.159L301.251 146.685L300.507 146.254L300.511 144.602C300.512 144.291 300.488 144.063 300.437 143.888C300.403 143.742 300.354 143.587 300.277 143.484C300.193 143.377 300.092 143.29 299.981 143.226C299.847 143.148 299.745 143.119 299.635 143.143C299.524 143.176 299.448 143.249 299.397 143.375C299.337 143.496 299.311 143.724 299.31 144.065L299.305 145.561L298.562 145.131L298.572 141.702L299.315 142.131L299.315 142.53C299.45 142.451 299.611 142.428 299.746 142.409C299.907 142.414 300.094 142.493 300.28 142.6C300.466 142.707 300.626 142.858 300.787 143.049C300.939 143.252 301.048 143.471 301.157 143.749C301.26 143.594 301.421 143.531 301.582 143.507C301.768 143.518 301.954 143.566 302.14 143.674C302.352 143.796 302.572 143.981 302.723 144.196ZM304.199 143.539C304.301 143.597 304.436 143.744 304.511 143.875C304.621 144.064 304.672 144.21 304.671 144.366C304.67 144.521 304.619 144.609 304.509 144.673C304.433 144.715 304.323 144.72 304.196 144.646C304.06 144.569 303.926 144.422 303.849 144.291C303.74 144.101 303.715 143.97 303.715 143.814C303.716 143.659 303.742 143.557 303.852 143.494C303.928 143.451 304.064 143.46 304.199 143.539ZM303.78 148.143L304.557 148.593L304.567 145.162L303.789 144.714L303.78 148.143Z" fill="white"/>
<path fill-rule="evenodd" clip-rule="evenodd" d="M342.786 165.914L343.538 166.348L343.525 171.09L342.772 170.655L342.786 165.914ZM317.705 151.064L318.293 150.273L319.831 151.162L319.814 157.4L318.807 156.819L318.822 151.707L317.705 151.064ZM324.004 158.437C324.191 158.213 324.268 157.674 324.271 156.878C324.273 156.052 324.198 155.425 324.038 155.031C323.878 154.628 323.668 154.35 323.431 154.214C323.244 154.106 323.084 154.08 322.948 154.12C322.813 154.196 322.736 154.367 322.651 154.619C322.574 154.887 322.547 155.328 322.546 155.941C322.543 156.737 322.618 157.335 322.777 157.699C322.937 158.103 323.148 158.37 323.419 158.527C323.655 158.664 323.867 158.64 324.004 158.437ZM324.414 153.983C324.709 154.367 324.92 154.859 325.08 155.408C325.239 155.967 325.312 156.653 325.311 157.45C325.308 158.276 325.23 158.902 325.068 159.267C324.906 159.64 324.694 159.848 324.423 159.905C324.16 159.969 323.813 159.865 323.416 159.635C322.984 159.387 322.638 159.089 322.377 158.724C322.106 158.354 321.871 157.887 321.711 157.328C321.577 156.822 321.503 156.138 321.505 155.311C321.508 154.183 321.646 153.426 321.96 153.092C322.309 152.709 322.791 152.716 323.409 153.072C323.781 153.287 324.127 153.603 324.414 153.983ZM327.69 157.898C328.188 158.185 328.594 158.605 328.905 159.184C329.226 159.739 329.41 160.333 329.409 160.944C329.407 161.556 329.219 161.944 328.846 162.157C328.498 162.384 328.05 162.311 327.543 162.017C327.06 161.739 326.663 161.355 326.343 160.897C325.997 160.385 325.787 159.836 325.679 159.258L326.777 159.893C326.853 160.111 326.963 160.33 327.115 160.515C327.25 160.681 327.385 160.817 327.571 160.924C327.782 161.046 327.969 161.066 328.13 160.974C328.291 160.883 328.377 160.688 328.378 160.378C328.378 160.106 328.32 159.829 328.16 159.551C327.999 159.274 327.848 159.098 327.627 158.971C327.526 158.912 327.39 158.863 327.281 158.857C327.179 158.857 327.068 158.892 326.966 158.989L326.114 158.282L326.791 155.18L329.345 156.654L329.342 157.753L327.558 156.722L327.343 157.765L327.529 157.805L327.69 157.898ZM335.061 162.768L333.78 163.682L335.213 166.29L334.282 165.754L333.01 163.423L333.005 165.017L332.252 164.582L332.266 159.84L333.018 160.275L333.011 162.995L334.131 162.231L335.061 162.768ZM337.08 164.644C336.793 164.478 336.581 164.473 336.395 164.549C336.234 164.641 336.123 164.822 336.122 165.132C336.121 165.404 336.231 165.709 336.391 165.988C336.542 166.259 336.762 166.484 337.049 166.65C337.371 166.835 337.642 166.866 337.828 166.7L338.411 167.524C338.088 167.795 337.639 167.778 337.047 167.437C336.514 167.13 336.117 166.725 335.822 166.214C335.511 165.665 335.377 165.158 335.378 164.701C335.379 164.361 335.456 164.104 335.591 163.9C335.728 163.678 335.939 163.587 336.202 163.582C336.474 163.582 336.736 163.646 337.083 163.846C337.379 164.018 337.649 164.231 337.885 164.524C338.122 164.778 338.307 165.108 338.442 165.43L337.832 165.477C337.723 165.258 337.587 165.082 337.486 164.965C337.376 164.843 337.241 164.737 337.08 164.644ZM341.151 168.736C341.287 168.63 341.372 168.436 341.373 168.135C341.374 167.823 341.29 167.532 341.156 167.269C340.996 166.992 340.784 166.783 340.548 166.645C340.336 166.523 340.116 166.483 339.989 166.596C339.828 166.687 339.743 166.882 339.742 167.192C339.741 167.494 339.824 167.785 339.985 168.062C340.145 168.34 340.33 168.544 340.542 168.666C340.779 168.803 340.99 168.828 341.151 168.736ZM341.343 166.764L341.345 166.395L342.097 166.829L342.087 170.259L341.334 169.825L341.335 169.455C341.208 169.566 341.047 169.572 340.886 169.566C340.751 169.547 340.591 169.483 340.405 169.375C340.033 169.16 339.686 168.785 339.425 168.294C339.13 167.783 338.996 167.278 338.997 166.763C338.999 166.238 339.135 165.889 339.398 165.699C339.67 165.525 340.017 165.542 340.415 165.771C340.575 165.863 340.761 166 340.921 166.18C341.082 166.34 341.217 166.535 341.343 166.764Z" fill="white"/>
<path fill-rule="evenodd" clip-rule="evenodd" d="M382.95 189.833C383.001 190.047 383.059 190.391 383.058 190.819L383.052 192.811L382.274 192.362L382.279 190.642C382.28 190.245 382.255 189.957 382.18 189.787C382.07 189.578 381.96 189.445 381.775 189.339C381.648 189.266 381.538 189.231 381.436 189.27C381.326 189.293 381.241 189.372 381.19 189.497C381.163 189.6 381.138 189.838 381.137 190.167L381.132 191.702L380.362 191.259L380.367 189.607C380.368 189.296 380.369 189.081 380.31 188.892C380.285 188.761 380.209 188.62 380.15 188.499C380.075 188.386 379.965 188.293 379.864 188.235C379.728 188.157 379.618 188.122 379.516 188.161C379.406 188.186 379.33 188.268 379.27 188.388C379.219 188.505 379.192 188.743 379.192 189.073L379.187 190.579L378.444 190.15L378.453 186.72L379.198 187.151L379.196 187.549C379.332 187.471 379.459 187.419 379.62 187.424C379.781 187.458 379.967 187.498 380.154 187.605C380.339 187.713 380.5 187.873 380.661 188.053C380.795 188.258 380.93 188.491 381.006 188.75C381.142 188.613 381.277 188.536 381.464 188.518C381.624 188.523 381.836 188.576 382.022 188.685C382.233 188.806 382.419 188.981 382.58 189.191C382.765 189.395 382.875 189.614 382.95 189.833ZM356.455 172.337L357.041 171.536L358.614 172.444L358.597 178.692L357.557 178.091L357.571 172.98L356.455 172.337ZM360.692 174.781L361.304 173.996L362.851 174.89L362.834 181.137L361.793 180.537L361.808 175.426L360.692 174.781ZM365.935 177.867C365.832 177.935 365.781 178.081 365.781 178.265C365.78 178.479 365.83 178.664 365.965 178.898C366.067 179.072 366.202 179.218 366.387 179.326C366.548 179.418 366.709 179.444 366.811 179.385C366.922 179.294 366.973 179.168 366.973 178.954C366.974 178.74 366.923 178.565 366.814 178.375C366.713 178.19 366.552 178.039 366.366 177.932C366.205 177.839 366.045 177.804 365.935 177.867ZM367.023 182.36C367.175 182.293 367.261 182.128 367.261 181.855C367.262 181.602 367.178 181.34 367.026 181.076C366.866 180.799 366.646 180.605 366.41 180.467C366.147 180.316 365.961 180.276 365.775 180.355C365.614 180.436 365.528 180.601 365.528 180.825C365.527 181.097 365.611 181.36 365.771 181.607C365.923 181.88 366.143 182.095 366.379 182.232C366.641 182.383 366.861 182.422 367.023 182.36ZM367.502 180.457C367.772 180.797 367.958 181.119 368.093 181.507C368.218 181.853 368.276 182.188 368.275 182.528C368.275 182.898 368.189 183.149 368.053 183.382C367.9 183.596 367.679 183.722 367.417 183.717C367.146 183.715 366.799 183.573 366.401 183.344C365.953 183.086 365.607 182.828 365.362 182.53C365.101 182.233 364.89 181.896 364.73 181.494C364.57 181.099 364.52 180.73 364.521 180.361C364.522 180.021 364.573 179.748 364.71 179.555C364.812 179.36 364.999 179.225 365.27 179.168C365.11 178.89 364.975 178.599 364.899 178.34C364.816 178.078 364.765 177.835 364.766 177.593C364.767 177.252 364.844 177.024 364.98 176.831C365.116 176.627 365.303 176.521 365.54 176.541C365.811 176.541 366.073 176.595 366.42 176.795C366.715 176.966 367.003 177.23 367.248 177.526C367.484 177.781 367.669 178.101 367.829 178.476C367.964 178.825 368.014 179.156 368.013 179.466C368.012 179.71 367.986 179.909 367.909 180.051C367.85 180.2 367.714 180.335 367.502 180.457ZM373.119 186.094C373.28 186 373.357 185.802 373.358 185.491C373.359 185.19 373.283 184.903 373.123 184.626C372.988 184.364 372.777 184.144 372.565 184.022C372.321 183.881 372.109 183.855 371.948 183.948C371.82 184.06 371.735 184.252 371.734 184.554C371.733 184.865 371.817 185.157 371.944 185.414C372.104 185.692 372.315 185.902 372.56 186.043C372.771 186.165 372.957 186.185 373.119 186.094ZM372.695 183.299C373.1 183.533 373.447 183.918 373.708 184.408C373.977 184.905 374.103 185.406 374.101 185.921C374.1 186.446 373.972 186.801 373.675 186.969C373.404 187.173 373.065 187.134 372.685 186.914C372.498 186.807 372.346 186.688 372.211 186.552C372.051 186.362 371.891 186.183 371.756 185.92L371.754 186.289L371.011 185.86L371.025 181.107L371.769 181.538L371.764 183.228C371.9 183.151 372.061 183.147 372.196 183.138C372.356 183.143 372.542 183.211 372.695 183.299ZM376.848 188.246C377.009 188.154 377.086 187.956 377.087 187.644C377.088 187.344 377.012 187.057 376.852 186.78C376.692 186.501 376.506 186.297 376.269 186.161C376.024 186.02 375.838 186.009 375.677 186.101C375.516 186.193 375.439 186.392 375.438 186.692C375.437 187.003 375.512 187.291 375.672 187.568C375.833 187.844 376.018 188.04 376.264 188.182C376.5 188.319 376.687 188.338 376.848 188.246ZM376.424 185.451C376.829 185.686 377.142 186.051 377.437 186.562C377.707 187.059 377.832 187.56 377.831 188.074C377.829 188.599 377.702 188.953 377.404 189.123C377.107 189.311 376.786 189.282 376.388 189.051C376.228 188.958 376.067 188.836 375.915 188.691C375.78 188.516 375.619 188.336 375.485 188.072L375.48 189.694L374.736 189.266L374.749 184.583L375.493 185.011L375.492 185.381C375.628 185.304 375.764 185.255 375.925 185.289C376.077 185.29 376.238 185.344 376.424 185.451Z" fill="white"/>
<path opacity="0.2" fill-rule="evenodd" clip-rule="evenodd" d="M5.37102 397.416L118.688 332.076C124.88 329.248 133.74 326.996 140.047 330.279C145.794 333.27 155.261 339.391 159.447 341.778C162.627 343.591 173.664 350.204 166.789 353.942C146.567 364.939 70.0228 410.303 49.4883 421.474C45.6046 423.586 39.9232 424.35 33.9591 423.854C28.0211 423.361 21.93 421.632 17.1398 418.845C13.727 416.861 10.3709 414.907 7.06996 412.984C2.61539 410.39 0.253735 407.324 0.0194751 404.488C-0.2089 401.718 1.57103 399.151 5.37102 397.416Z" fill="#902EC1"/>
<path fill-rule="evenodd" clip-rule="evenodd" d="M34.9719 237.019C40.9716 244.032 44.9638 249.615 51.1139 256.46C51.9616 257.403 55.3387 261.349 56.0609 261.576C57.6203 262.069 60.094 259.836 61.483 258.365C63.1136 256.639 63.1127 254.091 63.3442 252.533C63.5073 251.437 60.4765 250.01 60.243 249.524C53.9769 244.432 47.866 240.473 41.2778 235.792L34.6309 233.779L34.9719 237.019Z" fill="url(#paint19_linear_495_15762)"/>
<path fill-rule="evenodd" clip-rule="evenodd" d="M29.6903 221.113L32.444 222.902C34.1702 224.331 28.9343 231.516 26.8661 230.32L24.3203 228.635C23.8762 228.309 23.7688 228.083 23.856 227.482L24.4795 224.351C24.6445 223.407 24.9088 223.144 25.6639 222.688L28.5936 221.037C29.0058 220.803 29.2597 220.824 29.6903 221.113Z" fill="url(#paint20_linear_495_15762)"/>
<path fill-rule="evenodd" clip-rule="evenodd" d="M32.6787 223.096L34.6248 224.692C35.185 225.156 35.088 225.852 34.9143 226.511L34.2546 229.119C34.0753 229.829 33.9259 229.749 33.3089 230.174L30.9016 231.83C30.2425 232.185 29.9626 232.35 29.3719 232.009L27.3084 230.617C26.5874 230.131 26.693 230.332 26.8441 229.465L27.4462 226.141C27.5813 225.367 27.6205 225.406 28.318 224.987L31.5816 223.02C32.1597 222.673 32.1684 222.673 32.6787 223.096Z" fill="#1C236C"/>
<path fill-rule="evenodd" clip-rule="evenodd" d="M36.5986 227.672L41.0767 230.194C42.2597 230.726 38.8958 230.36 37.9534 229.881C36.5868 230.247 36.5795 230.38 36.4472 232.507L36.2337 235.941C36.2094 237.817 36.011 238.207 34.2899 236.768L30.0085 233.312C28.5354 232.061 28.7388 232.172 28.8405 230.204C28.9414 228.256 29.139 226.618 30.6022 226.053L33.6367 225.931C34.3597 225.956 35.2241 227.028 36.5986 227.672Z" fill="#FFA698"/>
<path fill-rule="evenodd" clip-rule="evenodd" d="M41.8529 230.856C42.4994 231.146 42.0578 230.253 41.9894 230.355C41.9305 230.442 41.6657 230.502 41.2978 230.603L37.9518 229.88C36.5852 230.247 36.5779 230.379 36.4456 232.506L36.2321 235.941C36.2189 236.969 36.1528 237.551 35.8129 237.63C35.5327 237.694 38.0291 237.524 38.4239 236.512L41.8529 230.856Z" fill="#FF8E7E"/>
<path fill-rule="evenodd" clip-rule="evenodd" d="M33.457 225.868C34.291 225.539 34.927 225.347 35.9921 225.826C36.9992 226.279 37.201 226.852 36.8325 227.32C36.4609 227.794 34.8166 226.879 33.457 225.868Z" fill="#FF8E7E"/>
<path fill-rule="evenodd" clip-rule="evenodd" d="M42.8642 229.171L45.6179 230.96C47.3437 232.389 42.1082 239.573 40.0399 238.378L37.4942 236.693C37.05 236.366 36.9427 236.14 37.0298 235.54L37.6533 232.408C37.8181 231.464 38.0823 231.201 38.8375 230.746L41.7671 229.095C42.1799 228.861 42.4335 228.882 42.8642 229.171Z" fill="url(#paint21_linear_495_15762)"/>
<path fill-rule="evenodd" clip-rule="evenodd" d="M45.8539 231.153L47.8 232.75C48.3602 233.214 48.2632 233.91 48.0895 234.569L47.4298 237.177C47.2505 237.887 47.1011 237.807 46.4841 238.232L44.0771 239.888C43.4177 240.243 43.1378 240.408 42.5474 240.067L40.4841 238.675C39.7632 238.188 39.8688 238.389 40.0198 237.522L40.622 234.199C40.7571 233.425 40.7963 233.463 41.4938 233.045L44.7574 231.077C45.3349 230.731 45.3436 230.731 45.8539 231.153Z" fill="#1C236C"/>
<path fill-rule="evenodd" clip-rule="evenodd" d="M153.551 316.916C154.932 318.159 155.819 319.765 156.608 319.917C157.576 321.793 156.582 324.683 155.43 326.771C154.119 329.149 152.513 330.999 150.435 331.158C148.863 333.034 149.447 337.438 146.232 340.255C144.62 341.666 141.097 342.488 137.792 342.779C135.948 342.94 134.207 342.582 133.149 341.593C130.905 339.494 135.169 335.421 136.513 333.496C138.514 330.629 139.651 327.544 140.288 323.228C141.564 321.609 142.523 318.663 144.393 316.972C146.984 314.63 150.507 314.174 153.551 316.916Z" fill="url(#paint22_linear_495_15762)"/>
<path fill-rule="evenodd" clip-rule="evenodd" d="M149.885 329.833C153.12 327.285 156.265 321.808 154.726 318.175C156.157 319.451 157.029 319.704 156.998 321.798C156.975 323.431 156.241 325.299 155.43 326.771C154.118 329.149 152.512 330.999 150.434 331.157C148.863 333.034 149.447 337.437 146.231 340.254C144.62 341.666 141.096 342.488 137.792 342.778C135.948 342.94 134.207 342.582 133.148 341.592C132.762 341.231 132.568 340.81 132.52 340.352C133.141 341.164 134.867 341.54 136.43 341.519C139.802 341.476 143.971 339.822 145.611 338.382C147.77 336.486 147.416 332.898 149.885 329.833Z" fill="url(#paint23_linear_495_15762)"/>
<path fill-rule="evenodd" clip-rule="evenodd" d="M136.467 324.094C137.677 324.012 138.979 324.08 140.093 324.049C143.296 323.961 147.015 324.698 149.845 321.223C150.831 320.012 150.954 317.1 148.448 315.375C144.301 315.319 140.741 315.065 137.53 314.556L136.467 324.094Z" fill="url(#paint24_linear_495_15762)"/>
<path fill-rule="evenodd" clip-rule="evenodd" d="M144.586 327.562L144.357 327.378C142.546 325.925 142.019 325.501 139.985 324.986C139.941 325.208 139.896 325.426 139.849 325.642C141.766 326.134 142.285 326.551 144.028 327.949L144.257 328.133L144.586 327.562ZM140.371 335.41L140.142 335.226C138.669 334.044 138.044 333.543 136.767 333.12C136.683 333.245 136.598 333.371 136.51 333.496C136.466 333.56 136.417 333.627 136.365 333.697C137.721 334.119 138.315 334.596 139.812 335.797L140.042 335.982L140.371 335.41ZM141.023 333.893L140.694 334.464L140.466 334.28C139.077 333.166 138.465 332.675 137.303 332.272C137.421 332.077 137.534 331.879 137.645 331.68C138.776 332.088 139.41 332.597 140.795 333.708L141.023 333.893ZM141.901 332.367L141.672 332.184C140.247 331.039 139.616 330.533 138.419 330.119C138.328 330.326 138.233 330.53 138.135 330.732C139.327 331.138 139.936 331.627 141.343 332.755L141.572 332.939L141.901 332.367ZM142.786 330.652L142.456 331.223L142.227 331.039C140.77 329.869 140.167 329.386 138.885 328.971C138.963 328.763 139.037 328.552 139.109 328.337C140.436 328.766 141.056 329.263 142.557 330.467L142.786 330.652ZM143.802 329.007L143.473 329.579L143.244 329.395C141.629 328.099 141.064 327.647 139.462 327.195C139.522 326.982 139.58 326.766 139.635 326.546C141.321 327.017 141.898 327.48 143.573 328.823L143.802 329.007Z" fill="white"/>
<path fill-rule="evenodd" clip-rule="evenodd" d="M143.4 324.143C143.625 324.114 145.492 324.074 145.715 324.03C147.289 323.716 148.718 322.838 150.034 321.222C150.856 320.213 151.146 317.881 149.535 316.116C148.397 314.869 147.535 314.894 145.976 315.245C149.672 318.663 146.714 322.376 143.4 324.143Z" fill="#FFF9F6"/>
<path fill-rule="evenodd" clip-rule="evenodd" d="M54.2685 278.552C54.2091 280.219 53.4217 282.86 53.7064 284.639C56.302 300.84 63.619 309.671 78.629 320.014C85.2345 323.993 92.3088 327.102 99.8471 329.017C106.369 331.617 108.201 331.328 112.834 328.822C116.756 326.699 128.621 324.705 137.79 324.205C143.12 322.998 141.576 314.63 137.63 314.414C127.21 312.774 120.454 310.09 109.226 315.119C102.35 311.431 98.0986 308.806 94.625 305.954L94.6242 305.955L94.625 305.954C89.7638 301.962 92.1401 294.372 79.5542 289.113L57.4663 277.742L54.2685 278.552Z" fill="url(#paint25_linear_495_15762)"/>
<path opacity="0.3" fill-rule="evenodd" clip-rule="evenodd" d="M54.3066 279.286C54.8253 281.999 58.3603 285.659 59.1014 288.003C60.6518 292.907 64.0164 297.651 63.5145 298.256C61.9725 300.117 60.231 299.549 59.0143 300.427C63.4013 310.625 77.8262 319.684 82.0925 321.997C87.6903 325.031 93.6093 327.434 99.8452 329.018C106.367 331.618 108.2 331.329 112.832 328.822C116.755 326.7 128.619 324.706 137.789 324.206C139.858 323.737 140.892 322.189 141.15 320.458C125.266 317.709 114.453 322.15 107.842 324.059C105.351 324.778 97.0089 321.009 93.1951 318.871C96.4215 315.202 97.9325 313.033 98.3634 308.738C96.989 307.804 95.7642 306.892 94.6234 305.955C89.7622 301.963 92.1385 294.373 79.5526 289.114L60.4532 280.075C58.5245 280.573 54.6112 276.878 54.3066 279.286Z" fill="#1E2353"/>
<path fill-rule="evenodd" clip-rule="evenodd" d="M47.8192 369.334C47.368 373.239 46.9452 377.755 47.4692 381.215C47.7301 382.938 48.1779 385.078 48.8888 386.774C49.1093 387.164 49.3015 387.534 49.4402 387.863C50.8029 391.09 50.9752 392.778 50.1181 394.259L50.0766 394.33C49.4254 395.409 46.7913 397.025 44.5793 398.481C43.3512 399.288 42.5074 399.924 41.8559 400.8C40.5437 402.561 39.8883 403.748 37.9388 404.935L37.7365 405.055L37.7093 405.071L37.6311 405.116C37.3915 405.253 37.1382 405.388 36.8732 405.521L36.8278 405.543L36.5139 405.696L36.4719 405.715C35.3437 406.246 34.0315 406.728 32.6447 407.117L32.5862 407.133C31.4673 407.445 30.301 407.695 29.144 407.861C28.5922 407.94 26.7765 407.846 25.2821 407.327C25.0484 407.274 24.8449 407.212 24.6787 407.141C23.7977 406.762 23.0899 406.26 23.1779 405.61L23.1793 405.603C23.1561 405.516 23.1393 405.427 23.1309 405.334L23.2463 405.397C23.8465 404.085 28.0954 400.488 30.8443 397.478C32.9684 395.153 35.5262 391.709 37.2192 388.705C38.6744 386.122 38.7755 384.433 38.4017 381.461C38.0977 379.045 37.6359 375.665 37.1164 371.982L47.8192 369.334Z" fill="url(#paint26_linear_495_15762)"/>
<path fill-rule="evenodd" clip-rule="evenodd" d="M97.6069 300.971C98.3654 310.919 91.427 317.018 82.3065 320.836C70.6667 325.71 54.767 327.14 47.1424 332.994C47.6168 334.269 48.3142 336.1 48.9904 339.311C50.8774 348.261 49.3138 358.592 47.8819 371.324C46.9925 375.358 39.4343 378.441 36.7504 374.491C35.7082 359.87 33.0989 348.431 30.253 334.283C29.5519 330.799 29.017 329.064 29.5147 326.595C29.5839 326.251 29.6693 325.289 30.1751 324.29C31.1225 322.064 32.9809 320.122 35.4406 317.923C43.886 310.372 57.5787 301.955 66.9738 298.912C63.0589 291.437 60.6972 289.28 58.3095 281.391L59.5921 280.085C70.776 281.162 81.2398 275.699 86.3235 281.216C90.2008 285.425 96.5922 290.808 97.6069 300.971Z" fill="url(#paint27_linear_495_15762)"/>
<path opacity="0.3" fill-rule="evenodd" clip-rule="evenodd" d="M97.6039 300.971C98.3625 310.918 91.4241 317.018 82.3036 320.836C70.6638 325.709 54.7641 327.139 47.1395 332.994C47.6139 334.269 48.3113 336.1 48.9875 339.31C50.8744 348.26 49.3109 358.591 47.879 371.323C47.5447 372.84 46.2677 374.222 44.6621 375.147C44.8336 348.102 42.6555 338.502 41.8549 332.137C41.6276 330.326 41.1801 328.309 44.9221 326.388C57.3777 319.991 88.2803 311.215 88.7222 300.372C88.9223 295.467 86.6066 292.336 82.0483 285.925C77.0499 277.741 82.3748 276.934 86.3202 281.216C90.1978 285.424 96.5893 290.808 97.6039 300.971Z" fill="#1E2353"/>
<path fill-rule="evenodd" clip-rule="evenodd" d="M35.7863 387.892C34.5292 389.74 33.192 391.848 32.4346 393.106C30.8211 395.785 29.6838 398.126 26.8872 400.458C25.2964 401.785 23.7544 402.554 20.7715 403.855C19.9721 406.042 24.5718 407.762 27.5667 407C28.582 407.613 29.8875 407.175 32.0067 405.645C38.3065 404.337 38.8922 402.15 42.4417 397.709C43.3196 396.611 44.8213 395.785 46.6463 394.999C50.9142 393.16 49.9783 391.469 48.8499 386.461C48.7728 386.119 48.8426 385.638 48.777 385.299C48.6221 384.495 48.0673 383.409 47.8123 382.476C44.9104 384.502 39.1483 384.739 38.4312 382.994C37.9551 384.88 37.7444 385.236 36.9326 386.308C36.5967 386.751 36.2259 387.246 35.7863 387.892Z" fill="#FFF9F6"/>
<path fill-rule="evenodd" clip-rule="evenodd" d="M52.1933 394.893C52.3155 395.94 50.2839 397.926 48.7307 398.755C46.7524 399.813 45.0963 399.612 44.7391 399.911C42.4377 401.837 43.0199 403.071 41.5104 404.516C37.7838 408.451 32.5802 410.97 27.5411 410.181C24.1483 409.649 20.387 407.877 20.3203 405.292C21.5802 402.653 32.7008 399.317 33.4335 398.764C35.7509 397.052 46.8026 384.684 50.3546 388.105C51.4723 389.181 52.5016 393.577 52.1933 394.893Z" fill="url(#paint28_linear_495_15762)"/>
<path fill-rule="evenodd" clip-rule="evenodd" d="M35.7873 387.892C34.6418 389.811 33.1925 391.849 32.4351 393.107C30.8216 395.786 29.6842 398.126 26.8877 400.458C25.6466 401.494 23.93 401.942 22.0408 402.816C19.151 404.152 20.0491 406.419 22.8694 407.718C24.1245 408.296 25.6859 408.727 26.8897 408.858C33.9301 409.624 39.9421 403.416 43.3839 399.109C44.2619 398.011 45.8866 396.806 47.7116 396.02C51.9787 394.182 52.1768 389.79 49.3004 386.18C49.0165 385.824 48.861 385.445 48.8019 385.048C46.8642 387.857 40.1646 388.681 36.6952 386.292C36.3974 386.823 36.1014 387.365 35.7873 387.892Z" fill="url(#paint29_linear_495_15762)"/>
<path fill-rule="evenodd" clip-rule="evenodd" d="M34.4606 389.999C34.7644 390.05 35.092 390.139 35.4324 390.275C36.1358 390.556 36.8879 391.033 37.5968 391.774L38.0412 391.328C37.2631 390.515 36.4317 389.989 35.6518 389.677C35.3719 389.566 35.0984 389.481 34.8353 389.423C34.7106 389.616 34.5851 389.809 34.4606 389.999ZM28.9824 398.388C29.055 398.413 29.1287 398.44 29.2021 398.47C29.9055 398.75 30.6578 399.228 31.3665 399.969L31.8109 399.523C31.0336 398.709 30.2016 398.183 29.4215 397.872L29.4072 397.866C29.271 398.041 29.129 398.214 28.9824 398.388ZM30.2047 396.77C30.3269 396.589 30.4465 396.407 30.5642 396.224L30.6141 396.243C31.3942 396.555 32.2262 397.081 33.0035 397.894L32.5599 398.34C31.851 397.6 31.0986 397.122 30.3953 396.841C30.3305 396.816 30.2672 396.792 30.2047 396.77ZM31.2934 395.04C31.4399 395.083 31.5901 395.134 31.7423 395.195C32.4456 395.476 33.198 395.953 33.9072 396.695L34.3513 396.248C33.5735 395.435 32.7421 394.909 31.9614 394.598C31.8487 394.553 31.7367 394.512 31.626 394.476C31.5147 394.665 31.4046 394.854 31.2934 395.04ZM32.3755 393.209L32.4372 393.106C32.5241 392.962 32.6199 392.806 32.725 392.642C32.8954 392.691 33.0699 392.75 33.2467 392.821C34.0274 393.132 34.8588 393.659 35.6364 394.472L35.1923 394.918C34.483 394.177 33.731 393.699 33.0276 393.418C32.8037 393.33 32.5854 393.26 32.3755 393.209ZM33.4261 391.565L33.8027 390.996C34.0168 391.052 34.237 391.124 34.4612 391.213C35.2419 391.524 36.0733 392.051 36.8511 392.865L36.407 393.31C35.6978 392.569 34.9454 392.092 34.2421 391.811C33.959 391.699 33.6853 391.618 33.4261 391.565Z" fill="#FFF9F6"/>
<path fill-rule="evenodd" clip-rule="evenodd" d="M103.906 189.92C104.867 200.483 111.474 200.431 114.925 202.499C118.579 204.688 120.665 207.32 121.228 210.158C124.855 228.452 80.4336 242.715 83.1957 213.648C84.3882 201.094 82.3777 199.458 76.8659 196.329C58.8738 186.112 72.4937 172.229 82.2819 170.621C90.3924 169.287 102.381 173.161 103.906 189.92Z" fill="url(#paint30_linear_495_15762)"/>
<path opacity="0.5" fill-rule="evenodd" clip-rule="evenodd" d="M121.351 210.717C124.052 228.847 80.4808 242.213 83.1955 213.648C84.3881 201.093 82.3775 199.458 76.866 196.328C62.6459 188.254 68.1723 177.891 75.9466 173.105C74.286 176.009 73.5342 177.477 74.7759 178.048C76.2927 178.745 84.3937 175.461 92.0371 183.892C98.0925 190.571 96.7315 200.948 97.2892 208.458C98.0558 218.788 112.911 227.458 121.351 210.717Z" fill="#24053E"/>
<path fill-rule="evenodd" clip-rule="evenodd" d="M121.409 211.681C121.788 229.941 80.0227 241.199 82.6904 213.126C83.8833 200.572 82.3788 199.457 76.8675 196.328C64.3178 189.202 67.1488 180.294 73.3307 175.01C71.8321 177.137 71.3885 178.201 71.518 178.829C71.7536 179.973 73.4836 179.599 74.3688 179.533C77.609 179.29 84.857 178.295 91.0327 185.106C95.5144 190.049 96.338 198.14 95.0378 205.449C93.5392 213.872 92.2129 219.529 101.937 222.85C107.867 224.875 118.597 224.264 121.409 211.681Z" fill="#24053E"/>
<path fill-rule="evenodd" clip-rule="evenodd" d="M54.0633 278.844C54.9956 271.992 56.4333 263.97 56.7382 260.001C57.2045 257.021 55.5053 253.877 55.2895 251.269C55.1393 249.453 55.4859 247.133 56.124 245.238C53.9635 244.266 52.7233 241.594 52.2136 239.488C51.5495 236.743 51.9359 234.874 52.4218 233.339C53.3081 230.54 55.1967 228.965 56.6558 226.623C59.284 222.405 59.3913 217.551 61.5105 215.471C63.8991 213.127 73.4317 214.984 81.7987 219.275C90.3068 223.638 101.107 230.996 96.6122 241.843C94.5288 248.587 89.7778 256.656 86.5001 261.181C84.1485 264.428 82.713 266.645 82.435 269.324C81.6885 276.517 88.4347 281.038 91.8326 287.06C80.0476 293.681 64.2583 287.027 54.0633 278.844Z" fill="url(#paint31_linear_495_15762)"/>
<path opacity="0.5" fill-rule="evenodd" clip-rule="evenodd" d="M95.9829 230.799C97.8012 233.978 98.351 237.65 96.6131 241.843C94.5297 248.588 89.7783 256.657 86.501 261.181C84.004 264.629 82.4233 267.043 82.3745 270.084C82.2835 275.746 89.1921 282.269 91.8962 287.061C89.7133 288.072 86.4954 289.385 84.1738 289.671C81.5011 284.424 77.9054 279.113 77.2606 274.272C76.1109 265.638 82.3381 260.739 79.339 258.829C76.2101 256.837 71.3725 256.326 66.0898 249.861C67.6902 250.503 70.376 253.055 73.2149 254.244C78.1548 256.315 81.6288 254.966 83.5402 252.235C84.953 250.216 85.3916 247.493 85.7441 244.576C86.3656 239.43 88.6886 229.884 95.9829 230.799Z" fill="#0960AC"/>
<path fill-rule="evenodd" clip-rule="evenodd" d="M79.6402 283.185L75.6758 277.494C89.3057 276.665 91.8809 269.747 96.8429 267.582C94.1904 262.064 91.7873 258.267 89.7053 252.992C88.1905 249.154 86.6033 244.022 86.3901 239.376C86.0986 233.029 89.0294 227.287 94.1672 229.298C95.944 229.994 97.3756 232.186 98.7377 234.884C101.133 239.627 102.73 248.347 104.325 256.634C105.002 260.152 105.667 265.098 106.562 268.736C106.984 270.453 107.09 271.981 106.629 273.126C106.421 273.642 105.813 274.254 105.166 274.663C96.271 280.273 89.7638 281.048 79.6402 283.185Z" fill="#FFA698"/>
<path fill-rule="evenodd" clip-rule="evenodd" d="M69.7937 269.511L72.5476 271.3C74.2735 272.728 69.038 279.913 66.9697 278.718L64.4237 277.033C63.9795 276.706 63.8722 276.48 63.9596 275.88L64.5831 272.748C64.7479 271.804 65.0124 271.541 65.7676 271.086L68.6972 269.435C69.1094 269.2 69.363 269.222 69.7937 269.511Z" fill="url(#paint32_linear_495_15762)"/>
<path fill-rule="evenodd" clip-rule="evenodd" d="M72.7836 271.493L74.7296 273.09C75.2898 273.553 75.1928 274.249 75.0191 274.908L74.3595 277.517C74.1801 278.226 74.0308 278.147 73.414 278.571L71.0067 280.228C70.3473 280.583 70.0677 280.748 69.477 280.407L67.4138 279.014C66.6928 278.528 66.7984 278.729 66.9497 277.862L67.5517 274.539C67.687 273.765 67.7259 273.803 68.4234 273.385L71.687 271.417C72.2643 271.071 72.2733 271.071 72.7836 271.493Z" fill="#1C236C"/>
<path fill-rule="evenodd" clip-rule="evenodd" d="M76.2988 274.628L80.9047 276.778C82.1066 277.318 81.7958 277.34 80.9997 277.56L78.0373 278.265C76.671 278.632 76.6637 278.764 76.5311 280.891L76.3179 284.326C76.2935 286.202 76.0951 286.592 74.374 285.153L70.0926 281.696C68.6193 280.446 68.8227 280.557 68.9247 278.59C69.0256 276.64 69.2231 275.004 70.6864 274.438C71.4153 274.156 72.5689 274.081 73.6035 274.039C75.1144 273.979 74.9241 273.985 76.2988 274.628Z" fill="#FFA698"/>
<path fill-rule="evenodd" clip-rule="evenodd" d="M80.1374 277.566L80.3506 277.699L78.0044 278.203C76.6381 278.569 76.473 278.764 76.3405 280.891L76.3161 284.326C76.3027 285.354 76.2368 285.936 75.8969 286.015C75.6164 286.08 78.1129 285.91 78.508 284.897L81.9369 279.24C82.3531 279.427 82.1594 278.532 81.9501 277.898L82.8233 277.715C82.4257 276.696 81.9462 276.058 80.9478 275.541C78.5237 274.288 76.9572 274.278 76.6375 274.835C76.338 275.357 76.2119 276.434 80.1374 277.566Z" fill="#FF8E7E"/>
<path fill-rule="evenodd" clip-rule="evenodd" d="M78.4895 274.825C77.5497 274.494 76.8847 274.604 76.7354 274.921C76.5274 275.364 76.6664 275.807 77.7834 276.357C78.5024 276.398 78.7756 275.116 78.4895 274.825Z" fill="#FFA698"/>
<path fill-rule="evenodd" clip-rule="evenodd" d="M82.9678 277.567L85.7215 279.356C87.4476 280.785 82.2118 287.97 80.1435 286.774L77.5975 285.089C77.1534 284.762 77.046 284.537 77.1335 283.936L77.7569 280.805C77.922 279.861 78.1862 279.598 78.9414 279.142L81.8711 277.491C82.2835 277.257 82.5371 277.278 82.9678 277.567Z" fill="url(#paint33_linear_495_15762)"/>
<path fill-rule="evenodd" clip-rule="evenodd" d="M85.9573 279.549L87.9034 281.146C88.4636 281.61 88.3666 282.305 88.1929 282.965L87.5333 285.573C87.3539 286.283 87.2046 286.203 86.5878 286.628L84.1805 288.284C83.5212 288.639 83.2415 288.804 82.6508 288.463L80.5876 287.071C79.8666 286.585 79.9722 286.785 80.1236 285.918L80.7255 282.595C80.8608 281.821 80.9 281.859 81.5972 281.441L84.8609 279.473C85.4381 279.127 85.4468 279.127 85.9573 279.549Z" fill="#1C236C"/>
<path fill-rule="evenodd" clip-rule="evenodd" d="M70.516 180.091C68.9793 180.458 66.3789 180.78 65.8535 183.19L68.0857 183.265L68.7058 183.166C68.7145 181.579 69.3512 180.762 70.516 180.091Z" fill="#181E61"/>
<path fill-rule="evenodd" clip-rule="evenodd" d="M93.2571 196.255C92.0037 182.634 79.2595 179.07 70.315 180.583C61.2916 182.11 58.9252 189.165 59.8717 196.721C60.7286 203.561 61.6057 212.379 70.2584 214.408C74.9008 215.497 78.5408 216.081 81.7509 215.037C89.5602 212.497 92.6762 204.382 93.2571 196.255Z" fill="url(#paint34_linear_495_15762)"/>
<path opacity="0.5" fill-rule="evenodd" clip-rule="evenodd" d="M60.336 199.48C59.9729 194.315 62.1667 187.117 65.7394 184.653C63.3859 190.482 73.3825 199.112 75.0652 204.362C76.7051 202.076 83.2912 200.239 82.5332 207.114C81.7797 213.952 91.3765 202.398 93.2089 197.334C92.1065 212.789 82.0681 214.934 81.7512 215.037C78.5413 216.081 74.901 215.497 70.2587 214.408C65.001 213.175 59.7633 203.334 60.336 199.48Z" fill="#22043D"/>
<path fill-rule="evenodd" clip-rule="evenodd" d="M74.2689 206.72C77.3627 201.495 83.3669 203.895 80.1585 209.629C79.5008 210.804 78.5797 211.845 78.3376 213.837C78.2642 214.442 71.0145 214.585 70.2587 214.407C65.5704 213.308 60.6166 202.852 61.142 200.379C61.0893 194.093 61.8145 190.906 64.9299 187.227C64.0458 193.164 74.472 200.312 74.2689 206.72Z" fill="#22043D"/>
<path fill-rule="evenodd" clip-rule="evenodd" d="M78.4835 207.836C77.7336 212.104 78.1293 216.145 79.4517 220.287C75.958 223.522 69.745 222.147 68.3008 219.216C68.6062 217.32 68.9613 215.579 69.1661 213.632L78.4835 207.836Z" fill="url(#paint35_linear_495_15762)"/>
<path fill-rule="evenodd" clip-rule="evenodd" d="M64.0506 189.779C62.309 192.546 61.3801 195.323 61.7834 199.258C61.8859 200.258 61.7408 200.885 61.4583 201.523C59.8286 205.2 59.9749 206.341 60.7819 209.287C61.567 212.152 61.5138 213.649 62.4912 214.633C63.4946 215.643 64.9952 215.876 66.2682 215.956C68.8759 216.121 73.3523 214.4 75.9549 212.977C77.8842 211.922 77.81 211.201 78.6245 209.372C81.3479 207.004 79.584 205.275 78.6711 205.098C76.0544 204.59 75.6313 207.604 74.0809 208.271C74.3381 202.973 64.2436 194.032 64.0506 189.779Z" fill="#FFA698"/>
<path fill-rule="evenodd" clip-rule="evenodd" d="M64.0501 189.779C65.5148 196.283 74.0098 201.207 74.0804 208.271C71.7572 200.929 63.5169 195.904 64.0501 189.779Z" fill="#FF8F7F"/>
<path fill-rule="evenodd" clip-rule="evenodd" d="M85.5127 198.579C84.3655 197.906 83.2578 197.712 81.8988 198.211C79.677 199.027 77.7788 201.566 77.0264 203.201C76.5167 204.309 76.1586 205.586 76.1348 206.768C76.0709 208.726 76.7899 210.335 78.2991 210.993L85.5127 198.579Z" fill="#282F7C"/>
<path fill-rule="evenodd" clip-rule="evenodd" d="M85.8613 198.72C84.8441 198.025 83.3895 198.064 81.8903 198.933C79.0254 200.587 76.8602 204.41 76.8751 207.687C76.8796 209.291 77.3856 210.461 78.3 210.992C78.8907 211.315 79.4455 211.458 80.0112 211.468C82.2664 211.51 85.2569 208.88 86.7238 205.652C87.9094 203.043 88.1134 200.258 85.8613 198.72Z" fill="url(#paint36_linear_495_15762)"/>
<path fill-rule="evenodd" clip-rule="evenodd" d="M83.9987 203.026C85.2182 201.848 86.9367 200.871 88.3272 201.685C87.6227 201.276 85.9437 200.017 84.8915 199.96C84.2697 199.96 83.9118 200.047 83.3396 200.281C82.8616 200.555 82.5088 200.715 82.0694 201.07C80.2217 202.506 78.6895 205.393 78.6895 207.747C78.6965 210.047 80.1721 211.492 82.404 211.878C80.7748 210.625 81.0962 208.148 81.9862 206.084C82.5662 204.739 83.4369 203.569 83.9987 203.026Z" fill="url(#paint37_linear_495_15762)"/>
<path fill-rule="evenodd" clip-rule="evenodd" d="M89.0625 202.412C88.5663 201.676 87.94 201.362 87.0469 201.409C87.0357 201.409 87.024 201.414 87.0122 201.414C85.9244 201.53 84.9308 202.135 84.1481 202.879C83.5056 203.38 82.5596 204.726 82.1805 205.499C81.6268 206.489 81.2188 207.889 81.1899 209.015C81.1879 209.076 81.1871 209.136 81.1877 209.197C81.1877 209.526 81.2131 209.823 81.2602 210.09C81.5065 211.486 82.3494 212.071 83.2924 212.131C84.198 212.188 85.2018 211.762 86.0533 211.129C90.5813 207.765 82.7776 204.417 89.1867 206.595C89.2783 206.247 89.384 205.898 89.4408 205.541C89.4467 205.509 89.4487 205.476 89.4546 205.444C89.6154 204.507 89.6095 203.237 89.0625 202.412Z" fill="#1B90F2"/>
<path fill-rule="evenodd" clip-rule="evenodd" d="M85.9257 203.149C84.0219 204.249 82.4813 206.917 82.4883 209.104C82.4942 211.29 84.0443 212.177 85.9481 211.076C87.8513 209.981 89.3922 207.309 89.3858 205.122C89.3796 202.934 87.8292 202.053 85.9257 203.149Z" fill="#1286DB"/>
<path fill-rule="evenodd" clip-rule="evenodd" d="M75.5604 181.459L75.3463 181.311C70.7538 178.202 66.3354 179.093 64.3691 182.92C64.9705 182.596 66.3071 181.665 67.25 181.46C69.3225 180.132 72.2177 180.328 75.2751 182.396L75.4894 182.539C81.1078 186.347 85.2706 194.92 84.7688 201.653L84.2512 207.089C84.2784 208.578 84.9817 208.915 85.6576 208.937L85.2227 207.353L85.5674 202.195C86.1093 194.932 81.6208 185.561 75.5604 181.459Z" fill="#282F7C"/>
<path fill-rule="evenodd" clip-rule="evenodd" d="M67.252 180.059C69.2154 179.114 71.4238 179.442 73.3612 180.3C77.0499 181.934 80.206 185.711 81.9758 188.716C83.234 190.853 84.2301 193.216 84.8511 195.547C85.4278 197.709 85.7332 199.961 85.5679 202.194L85.0728 207.328C84.952 208.947 85.5278 209.185 86.0616 208.831C86.6204 208.46 87.1444 207.433 87.2268 206.332L87.7264 201.138C87.8673 199.25 87.6616 197.261 87.2374 195.399C86.6456 192.792 85.6063 190.213 84.2556 187.871C82.3535 184.57 78.5922 180.081 74.3041 178.79C71.2416 177.869 69.9504 178.743 67.252 180.059Z" fill="url(#paint38_linear_495_15762)"/>
<path fill-rule="evenodd" clip-rule="evenodd" d="M81.447 188.277L80.6582 188.968L83.8955 187.385L84.6849 186.694L81.447 188.277Z" fill="#1286DB"/>
<path fill-rule="evenodd" clip-rule="evenodd" d="M81.4468 188.277L84.6847 186.694C83.2848 184.437 81.6186 182.298 79.5389 180.63C77.2744 178.815 74.2145 177.088 71.2027 177.726L67.9648 179.309C70.7149 178.979 73.2253 179.969 75.3903 181.533C77.8929 183.342 79.8524 185.65 81.4468 188.277Z" fill="url(#paint39_linear_495_15762)"/>
<path fill-rule="evenodd" clip-rule="evenodd" d="M75.0921 181.32L74.8786 181.171C72.4348 179.517 70.0438 178.876 67.9648 179.309L68.599 180.945C70.4557 180.56 72.5901 181.135 74.771 182.61L74.9851 182.759C77.0976 184.186 79.06 186.334 80.6575 188.968L81.4462 188.277C79.6568 185.33 77.4585 182.92 75.0921 181.32Z" fill="#1B90F2"/>
<defs>
<linearGradient id="paint0_linear_495_15762" x1="69.6438" y1="155.191" x2="157.361" y2="77.0593" gradientUnits="userSpaceOnUse">
<stop stop-color="#5F2669"/>
<stop offset="0.45" stop-color="#461749"/>
<stop offset="1" stop-color="#B53469"/>
</linearGradient>
<linearGradient id="paint1_linear_495_15762" x1="107.485" y1="84.4956" x2="119.131" y2="74.4338" gradientUnits="userSpaceOnUse">
<stop stop-color="#D41799"/>
<stop offset="0.52" stop-color="#E74056"/>
<stop offset="1" stop-color="#FDB913"/>
</linearGradient>
<linearGradient id="paint2_linear_495_15762" x1="108.292" y1="83.8484" x2="123.515" y2="73.6656" gradientUnits="userSpaceOnUse">
<stop stop-color="#D41799"/>
<stop offset="0.52" stop-color="#E74056"/>
<stop offset="1" stop-color="#FDB913"/>
</linearGradient>
<linearGradient id="paint3_linear_495_15762" x1="107.207" y1="80.9525" x2="121.93" y2="72.2732" gradientUnits="userSpaceOnUse">
<stop stop-color="#D41799"/>
<stop offset="0.52" stop-color="#E74056"/>
<stop offset="1" stop-color="#FDB913"/>
</linearGradient>
<linearGradient id="paint4_linear_495_15762" x1="108.506" y1="152.546" x2="117.291" y2="136.077" gradientUnits="userSpaceOnUse">
<stop stop-color="#6D6AFE"/>
<stop offset="1" stop-color="#3FB0F7"/>
</linearGradient>
<linearGradient id="paint5_linear_495_15762" x1="110.798" y1="164.275" x2="121.7" y2="139.884" gradientUnits="userSpaceOnUse">
<stop stop-color="#6D6AFE"/>
<stop offset="1" stop-color="#3FB0F7"/>
</linearGradient>
<linearGradient id="paint6_linear_495_15762" x1="158.28" y1="285.936" x2="301.054" y2="91.4575" gradientUnits="userSpaceOnUse">
<stop stop-color="#5F2669"/>
<stop offset="0.45" stop-color="#461749"/>
<stop offset="1" stop-color="#B53469"/>
</linearGradient>
<linearGradient id="paint7_linear_495_15762" x1="191.845" y1="282.775" x2="210.825" y2="263.837" gradientUnits="userSpaceOnUse">
<stop stop-color="#D41799"/>
<stop offset="1" stop-color="#E74056"/>
</linearGradient>
<linearGradient id="paint8_linear_495_15762" x1="217.724" y1="260.734" x2="230.222" y2="253.199" gradientUnits="userSpaceOnUse">
<stop stop-color="#E74056"/>
<stop offset="1" stop-color="#FDB913"/>
</linearGradient>
<linearGradient id="paint9_linear_495_15762" x1="173.676" y1="215.358" x2="290.208" y2="219.52" gradientUnits="userSpaceOnUse">
<stop stop-color="#D41799"/>
<stop offset="0.52" stop-color="#E74056"/>
<stop offset="1" stop-color="#FDB913"/>
</linearGradient>
<linearGradient id="paint10_linear_495_15762" x1="220.8" y1="103.727" x2="233.823" y2="92.4752" gradientUnits="userSpaceOnUse">
<stop stop-color="#D41799"/>
<stop offset="0.52" stop-color="#E74056"/>
<stop offset="1" stop-color="#FDB913"/>
</linearGradient>
<linearGradient id="paint11_linear_495_15762" x1="221.702" y1="103.003" x2="238.729" y2="91.614" gradientUnits="userSpaceOnUse">
<stop stop-color="#D41799"/>
<stop offset="0.52" stop-color="#E74056"/>
<stop offset="1" stop-color="#FDB913"/>
</linearGradient>
<linearGradient id="paint12_linear_495_15762" x1="220.49" y1="99.764" x2="236.958" y2="90.0564" gradientUnits="userSpaceOnUse">
<stop stop-color="#D41799"/>
<stop offset="0.52" stop-color="#E74056"/>
<stop offset="1" stop-color="#FDB913"/>
</linearGradient>
<linearGradient id="paint13_linear_495_15762" x1="227.881" y1="178.718" x2="234.04" y2="159.387" gradientUnits="userSpaceOnUse">
<stop stop-color="#6D6AFE"/>
<stop offset="1" stop-color="#3FB0F7"/>
</linearGradient>
<linearGradient id="paint14_linear_495_15762" x1="224.512" y1="198.446" x2="234.573" y2="175.204" gradientUnits="userSpaceOnUse">
<stop stop-color="#6D6AFE"/>
<stop offset="1" stop-color="#3FB0F7"/>
</linearGradient>
<linearGradient id="paint15_linear_495_15762" x1="286.917" y1="150.23" x2="363.136" y2="78.6557" gradientUnits="userSpaceOnUse">
<stop stop-color="#5F2669"/>
<stop offset="0.45" stop-color="#461749"/>
<stop offset="1" stop-color="#B53469"/>
</linearGradient>
<linearGradient id="paint16_linear_495_15762" x1="318.952" y1="110.72" x2="346.116" y2="92.55" gradientUnits="userSpaceOnUse">
<stop stop-color="#D41799"/>
<stop offset="0.52" stop-color="#E74056"/>
<stop offset="1" stop-color="#FDB913"/>
</linearGradient>
<linearGradient id="paint17_linear_495_15762" x1="317.017" y1="105.553" x2="343.289" y2="90.0659" gradientUnits="userSpaceOnUse">
<stop stop-color="#D41799"/>
<stop offset="0.52" stop-color="#E74056"/>
<stop offset="1" stop-color="#FDB913"/>
</linearGradient>
<linearGradient id="paint18_linear_495_15762" x1="319.195" y1="106.396" x2="342.507" y2="92.0958" gradientUnits="userSpaceOnUse">
<stop stop-color="#D41799"/>
<stop offset="0.52" stop-color="#E74056"/>
<stop offset="1" stop-color="#FDB913"/>
</linearGradient>
<linearGradient id="paint19_linear_495_15762" x1="53.3609" y1="245.53" x2="44.7717" y2="247.989" gradientUnits="userSpaceOnUse">
<stop stop-color="#FF8A78"/>
<stop offset="1" stop-color="#FFA799"/>
</linearGradient>
<linearGradient id="paint20_linear_495_15762" x1="28.9292" y1="224.075" x2="26.7992" y2="227.157" gradientUnits="userSpaceOnUse">
<stop stop-color="#3E4795"/>
<stop offset="1" stop-color="#273088"/>
</linearGradient>
<linearGradient id="paint21_linear_495_15762" x1="41.5691" y1="232.887" x2="40.6811" y2="235.009" gradientUnits="userSpaceOnUse">
<stop stop-color="#3E4795"/>
<stop offset="1" stop-color="#273088"/>
</linearGradient>
<linearGradient id="paint22_linear_495_15762" x1="142.389" y1="328.557" x2="146.405" y2="331.395" gradientUnits="userSpaceOnUse">
<stop stop-color="#3E4795"/>
<stop offset="1" stop-color="#273088"/>
</linearGradient>
<linearGradient id="paint23_linear_495_15762" x1="146.163" y1="343.486" x2="144.49" y2="328.446" gradientUnits="userSpaceOnUse">
<stop stop-color="#1C8EF4"/>
<stop offset="1" stop-color="#00CFDD"/>
</linearGradient>
<linearGradient id="paint24_linear_495_15762" x1="141.681" y1="319.423" x2="147.722" y2="321.845" gradientUnits="userSpaceOnUse">
<stop stop-color="#FF8A78"/>
<stop offset="1" stop-color="#FFA799"/>
</linearGradient>
<linearGradient id="paint25_linear_495_15762" x1="96.2311" y1="301.559" x2="84.4206" y2="311.761" gradientUnits="userSpaceOnUse">
<stop stop-color="#3E4795"/>
<stop offset="1" stop-color="#273088"/>
</linearGradient>
<linearGradient id="paint26_linear_495_15762" x1="33.7106" y1="384.118" x2="36.3722" y2="389.346" gradientUnits="userSpaceOnUse">
<stop stop-color="#FF8A78"/>
<stop offset="1" stop-color="#FFA799"/>
</linearGradient>
<linearGradient id="paint27_linear_495_15762" x1="77.3138" y1="295.451" x2="38.6786" y2="351.844" gradientUnits="userSpaceOnUse">
<stop stop-color="#3E4795"/>
<stop offset="1" stop-color="#273088"/>
</linearGradient>
<linearGradient id="paint28_linear_495_15762" x1="38.8615" y1="405.899" x2="36.3979" y2="399.321" gradientUnits="userSpaceOnUse">
<stop stop-color="#1C8EF4"/>
<stop offset="1" stop-color="#00CFDD"/>
</linearGradient>
<linearGradient id="paint29_linear_495_15762" x1="34.9267" y1="395.802" x2="38.7836" y2="398.752" gradientUnits="userSpaceOnUse">
<stop stop-color="#3E4795"/>
<stop offset="1" stop-color="#273088"/>
</linearGradient>
<linearGradient id="paint30_linear_495_15762" x1="92.2307" y1="187.263" x2="99.4884" y2="219.381" gradientUnits="userSpaceOnUse">
<stop offset="0.0049" stop-color="#5A2D68"/>
<stop offset="1" stop-color="#22043D"/>
</linearGradient>
<linearGradient id="paint31_linear_495_15762" x1="70.4864" y1="307.237" x2="74.0783" y2="248.076" gradientUnits="userSpaceOnUse">
<stop stop-color="#1C8EF4"/>
<stop offset="1" stop-color="#00CFDD"/>
</linearGradient>
<linearGradient id="paint32_linear_495_15762" x1="69.0326" y1="272.472" x2="66.9026" y2="275.554" gradientUnits="userSpaceOnUse">
<stop stop-color="#3E4795"/>
<stop offset="1" stop-color="#273088"/>
</linearGradient>
<linearGradient id="paint33_linear_495_15762" x1="81.6725" y1="281.284" x2="80.7846" y2="283.405" gradientUnits="userSpaceOnUse">
<stop stop-color="#3E4795"/>
<stop offset="1" stop-color="#273088"/>
</linearGradient>
<linearGradient id="paint34_linear_495_15762" x1="77.9026" y1="192.916" x2="70.6125" y2="207.204" gradientUnits="userSpaceOnUse">
<stop offset="0.0049" stop-color="#5A2D68"/>
<stop offset="1" stop-color="#22043D"/>
</linearGradient>
<linearGradient id="paint35_linear_495_15762" x1="73.5888" y1="215.361" x2="73.8538" y2="219.408" gradientUnits="userSpaceOnUse">
<stop stop-color="#FF8A78"/>
<stop offset="1" stop-color="#FFA799"/>
</linearGradient>
<linearGradient id="paint36_linear_495_15762" x1="81.7381" y1="202.796" x2="82.992" y2="208.34" gradientUnits="userSpaceOnUse">
<stop stop-color="#3E4795"/>
<stop offset="1" stop-color="#273088"/>
</linearGradient>
<linearGradient id="paint37_linear_495_15762" x1="82.3927" y1="210.739" x2="83.7036" y2="203.351" gradientUnits="userSpaceOnUse">
<stop stop-color="#1C8EF4"/>
<stop offset="1" stop-color="#00CFDD"/>
</linearGradient>
<linearGradient id="paint38_linear_495_15762" x1="82.1094" y1="191.786" x2="78.9896" y2="193.308" gradientUnits="userSpaceOnUse">
<stop stop-color="#3E4795"/>
<stop offset="1" stop-color="#273088"/>
</linearGradient>
<linearGradient id="paint39_linear_495_15762" x1="75.7348" y1="184.284" x2="76.9614" y2="181.618" gradientUnits="userSpaceOnUse">
<stop stop-color="#1C8EF4"/>
<stop offset="1" stop-color="#00CFDD"/>
</linearGradient>
</defs>
</svg>
