<svg width="251" height="464" viewBox="0 0 251 464" fill="none" xmlns="http://www.w3.org/2000/svg">
<path d="M228.715 464H22.1686C9.92514 464 0 454.075 0 441.831V22.1686C0 9.92515 9.92514 0 22.1686 0H228.717C240.96 0 250.885 9.92515 250.885 22.1686V441.831C250.884 454.075 240.959 464 228.715 464Z" fill="#918BAA"/>
<path d="M22.1677 459.127C12.6306 459.127 4.87109 451.369 4.87109 441.831V22.1686C4.87109 12.6315 12.6292 4.87204 22.1677 4.87204H228.716C238.253 4.87204 246.011 12.6301 246.011 22.1686V441.831C246.011 451.369 238.253 459.127 228.716 459.127H22.1677Z" fill="#A39FBC"/>
<path d="M226.58 12.0456H178.614C175.224 12.0456 172.267 14.3425 171.426 17.6252L169.784 24.0408C168.723 28.1866 164.988 31.087 160.708 31.087H90.1747C85.8948 31.087 82.1584 28.1866 81.0984 24.0408L79.4563 17.6252C78.616 14.3425 75.6586 12.0456 72.2689 12.0456H24.3023C16.5585 12.0456 10.2812 18.3228 10.2812 26.0666V437.936C10.2812 445.679 16.5585 451.957 24.3023 451.957H226.582C234.326 451.957 240.603 445.679 240.603 437.936V26.0652C240.601 18.3214 234.324 12.0456 226.58 12.0456Z" fill="#F2F8FF"/>
<path d="M103.445 18.6612C103.445 22.0537 100.695 24.8057 97.3008 24.8057C93.9068 24.8057 91.1562 22.0552 91.1562 18.6612C91.1562 15.2672 93.9068 12.5166 97.3008 12.5166C100.695 12.5166 103.445 15.2672 103.445 18.6612Z" fill="#847D99"/>
<path d="M119.827 18.66C119.827 20.8842 118.024 22.686 115.801 22.686C113.579 22.686 111.775 20.8842 111.775 18.66C111.775 16.4359 113.577 14.634 115.801 14.634C118.026 14.634 119.827 16.4359 119.827 18.66Z" fill="#847D99"/>
<path d="M146.816 18.66C146.816 20.8842 145.014 22.686 142.79 22.686C140.566 22.686 138.764 20.8842 138.764 18.66C138.764 16.4359 140.567 14.634 142.79 14.634C145.014 14.634 146.816 16.4359 146.816 18.66Z" fill="#847D99"/>
<path d="M224.022 420.658H14.9629V423.314H224.022V420.658Z" fill="#BBCBFF"/>
<path d="M183.509 442.628H67.3691C64.4987 442.628 62.1719 440.301 62.1719 437.431V435.057C62.1719 432.187 64.4987 429.86 67.3691 429.86H183.509C186.38 429.86 188.707 432.187 188.707 435.057V437.431C188.708 440.301 186.38 442.628 183.509 442.628Z" fill="#D5E3FF"/>
<path d="M183.509 438.073H67.3691C64.8739 438.073 62.7925 436.312 62.2903 433.965C62.2147 434.318 62.1719 434.682 62.1719 435.057V437.431C62.1719 440.301 64.4987 442.628 67.3691 442.628H183.509C186.38 442.628 188.707 440.301 188.707 437.431V435.057C188.707 434.682 188.662 434.318 188.588 433.965C188.086 436.312 186.006 438.073 183.509 438.073Z" fill="#BBCBFF"/>
<path d="M50.1718 436.245C50.1718 439.86 47.2401 442.792 43.625 442.792C40.0099 442.792 37.0781 439.86 37.0781 436.245C37.0781 432.629 40.0099 429.698 43.625 429.698C47.2401 429.698 50.1718 432.629 50.1718 436.245Z" fill="#57DFFF"/>
<path d="M47.3894 436.245C47.3894 438.324 45.7045 440.007 43.6273 440.007C41.5487 440.007 39.8652 438.323 39.8652 436.245C39.8652 434.168 41.5501 432.483 43.6273 432.483C45.7045 432.483 47.3894 434.167 47.3894 436.245Z" fill="#C2F6FF"/>
<path d="M53.7328 72.3923H30.9893C29.1261 72.3923 27.6152 70.8815 27.6152 69.0183V57.5951C27.6152 55.7319 29.1261 54.2211 30.9893 54.2211H53.7328C55.596 54.2211 57.1068 55.7319 57.1068 57.5951V69.0183C57.1068 70.8829 55.596 72.3923 53.7328 72.3923Z" fill="#FF5065"/>
<path d="M61.1875 61.3075V65.3078C61.1875 65.9398 61.5627 66.5105 62.1419 66.7601L74.2941 72.0187C75.3384 72.471 76.5054 71.7049 76.5054 70.5664V56.0489C76.5054 54.9104 75.3384 54.1443 74.2941 54.5966L62.1419 59.8552C61.5627 60.1063 61.1875 60.6769 61.1875 61.3075Z" fill="#FF5065"/>
<path d="M202.289 303.151C207.336 291.322 208.957 277.914 210.408 264.973C211.155 258.309 211.336 250.287 205.879 246.392C201.251 243.088 194.95 244.528 189.286 245.029C182.665 245.612 175.433 244.449 170.694 239.789C164.174 233.379 164.501 222.896 165.896 213.859C167.292 204.823 169.16 194.951 164.595 187.028C161.551 181.744 156.017 178.262 150.198 176.436C136.137 172.026 120.085 174.193 107.103 180.858C85.037 192.189 69.6335 214.176 62.6002 237.964C57.7995 254.198 56.6125 271.931 62.1294 287.935C64.9527 296.122 69.4352 303.644 72.5111 311.74C75.5869 319.836 77.1862 329.012 74.0518 337.087C69.1827 349.627 54.3827 356.21 49.6491 368.803C46.8586 376.227 48.0684 384.489 49.4508 392.298C51.4966 403.845 52.1828 414.836 62.175 420.974L179.311 420.63C181.937 420.581 176.548 365.252 176.653 360.135C176.799 353.077 176.636 343.257 178.83 336.506C181.681 327.74 191.308 321.042 196.506 313.642C198.829 310.337 200.723 306.821 202.289 303.151Z" fill="#D5E3FF"/>
<path d="M174.256 226.05C174.831 227.42 175.866 228.538 176.931 229.574C178.148 230.757 179.478 231.899 181.086 232.444C182.452 232.908 183.939 232.909 185.37 232.715C188.073 232.349 190.947 231.03 191.898 228.474C192.751 226.183 191.798 223.596 190.416 221.58C188.985 219.493 187.055 217.71 184.745 216.674C182.387 215.616 178.456 214.908 176.316 216.835C174.041 218.883 173.106 223.309 174.256 226.05Z" fill="#D5E3FF"/>
<path d="M33.4834 253.981C33.6775 255.783 33.9756 257.63 34.9186 259.18C35.8602 260.728 37.5907 261.922 39.394 261.732C40.1715 261.651 40.9034 261.324 41.5768 260.927C44.4886 259.215 46.4616 256.187 47.4545 252.958C48.4475 249.73 48.5459 246.293 48.3904 242.919C48.3334 241.666 48.2349 240.388 47.7299 239.241C45.6727 234.564 38.6094 234.797 35.4979 238.254C32.2537 241.856 33.0126 249.621 33.4834 253.981Z" fill="#D5E3FF"/>
<path d="M167.409 168.583C168.348 169.457 169.201 170.509 169.59 171.863C169.98 173.216 169.831 174.921 168.955 176.178C168.154 177.329 166.871 177.934 165.677 178.029C164.483 178.123 163.356 177.772 162.279 177.361C161.035 176.886 159.826 176.324 158.658 175.679C156.163 174.302 151.565 169.18 155.966 165.742C159.41 163.052 165.112 166.446 167.409 168.583Z" fill="#D5E3FF"/>
<path d="M200.718 441.742L203.23 436.905C203.446 436.49 203.446 435.997 203.23 435.581L200.718 430.745C200.093 429.541 201.332 428.221 202.573 428.769L216.534 434.929C217.675 435.433 217.675 437.054 216.534 437.557L202.573 443.718C201.332 444.265 200.093 442.946 200.718 441.742Z" fill="#57DFFF"/>
<path d="M203.23 436.905L200.718 441.741C200.093 442.945 201.332 444.265 202.573 443.717L216.534 437.557C217.104 437.304 217.39 436.773 217.39 436.243H203.392C203.392 436.47 203.337 436.696 203.23 436.905Z" fill="#4BC9FF"/>
<path d="M99.5697 67.5918C98.865 66.8727 98.0018 66.429 96.7164 66.75C95.4667 67.0625 94.7277 68.3736 94.5437 69.5677C94.2441 71.5122 95.0344 73.5323 96.3897 74.9575C97.6694 76.3014 99.4071 77.1332 101.216 77.5597C100.272 73.8633 99.8008 70.1383 99.5697 67.5918Z" fill="#F8958D"/>
<path d="M100.062 70.561C99.567 70.0559 98.9621 69.7449 98.059 69.9689C97.1816 70.1872 96.6623 71.1088 96.5325 71.9477C96.3228 73.313 96.8763 74.731 97.8293 75.7311C98.7281 76.6741 99.9479 77.2576 101.219 77.5587C100.554 74.965 100.225 72.35 100.062 70.561Z" fill="#D37D88"/>
<path d="M209.373 62.1467C209.135 61.4034 208.74 60.7999 208.025 60.4832C207.312 60.1665 206.473 60.1422 205.708 60.3049C205.601 59.8526 205.467 59.3576 205.079 59.1008C204.806 58.921 204.464 58.8982 204.139 58.8796C203.708 58.8554 203.263 58.834 202.856 58.9809C202.45 59.1279 202.069 59.4874 202.059 59.9197C201.927 59.7399 201.745 58.6228 201.23 58.4488C200.418 58.1749 199.442 58.376 198.899 59.038C198.565 59.4446 198.375 59.9596 198.227 60.4646C198.268 60.0224 198.231 59.5644 198.048 59.1593C197.866 58.7541 197.521 58.4103 197.091 58.2961C196.416 58.1164 195.696 58.5487 195.326 59.1407C194.955 59.7328 194.857 60.4504 194.778 61.1451C194.633 62.432 194.545 63.6389 194.483 64.9315C194.483 64.9315 194.483 64.9315 193.877 64.9315C193.271 64.9315 192.23 62.8514 192.403 61.7258C192.576 60.5987 192.143 58.0864 191.363 57.9138C190.583 57.7397 189.63 57.9138 189.197 60.1665C188.764 62.4191 188.009 71.9035 189.891 74.1604C191.773 76.4174 194.405 80.1794 194.781 85.2226C195.158 90.2658 189.276 120.429 189.276 120.429C178.679 117.519 160.723 114.011 160.723 114.011L154.812 131.233C154.812 131.233 165.93 133.85 172.815 134.731C178.801 135.499 201.752 136.373 205.036 130.627C208.32 124.88 205.774 84.8774 205.774 84.8774C205.592 83.0584 205.875 81.1966 206.587 79.5132C207.019 78.4931 207.603 77.5444 208.071 76.54C209.061 74.4158 209.322 72.0633 209.376 69.7193C209.422 67.7377 209.469 65.7561 209.514 63.7744C209.529 63.2252 209.54 62.666 209.373 62.1467Z" fill="#FFA38E"/>
<path d="M154.812 131.231C154.812 131.231 158.669 132.137 163.241 133.062C163.447 131.108 163.606 129.148 163.683 127.185C163.849 122.978 163.8 118.689 163.198 114.503C161.65 114.191 160.723 114.01 160.723 114.01L154.812 131.231Z" fill="#D78D7D"/>
<path d="M132.281 67.5918C132.986 66.8727 133.849 66.429 135.134 66.75C136.384 67.0625 137.123 68.3736 137.307 69.5677C137.607 71.5122 136.816 73.5323 135.461 74.9575C134.181 76.3014 132.444 77.1332 130.635 77.5597C131.581 73.8633 132.051 70.1383 132.281 67.5918Z" fill="#F8958D"/>
<path d="M131.95 69.6031C132.512 69.0296 133.201 68.6744 134.227 68.9312C135.224 69.1794 135.815 70.2266 135.962 71.181C136.202 72.7332 135.571 74.3453 134.488 75.4823C133.467 76.5551 132.079 77.2185 130.635 77.5595C131.389 74.6092 131.766 71.6361 131.95 69.6031Z" fill="#D37D88"/>
<path d="M101.911 102.349C101.911 102.349 80.8348 107.846 74.8601 114.374C68.8853 120.902 64.8379 151.547 64.8379 151.547C64.8379 151.547 76.0156 156.558 82.5696 155.787C82.5696 155.787 87.1948 141.717 88.1592 142.295C89.1222 142.873 89.1222 161.182 88.5444 166.579C87.9666 171.976 85.2674 194.772 85.654 197.085C86.0392 199.398 105.698 198.241 113.408 197.085C121.118 195.928 142.897 199.59 144.052 197.085C145.209 194.58 141.74 181.034 141.74 169.277C141.74 157.52 143.474 131.116 143.474 131.116C143.474 131.116 155.424 133.043 159.086 133.043C159.086 133.043 162.55 121.312 162.357 114.372C162.357 114.372 149.064 109.336 142.319 107.216C135.574 105.096 129.966 102.347 129.966 102.347L101.911 102.349Z" fill="#57DFFF"/>
<path d="M129.96 102.35H101.908C101.908 102.35 100.145 102.811 97.5 103.62C99.9182 107.733 108.233 120.333 118.251 118.306C126.16 116.705 131.384 109.108 134.012 104.159C131.538 103.122 129.96 102.35 129.96 102.35Z" fill="#C2ECFF"/>
<path d="M66.0331 149.878C66.0331 149.878 63.8846 158.802 62.0043 164.443C60.1239 170.084 54.8867 197.617 53.4087 210.107C51.9307 222.597 49.3799 227.7 51.1261 232.535C52.8723 237.37 59.7929 242.901 61.1854 242.015C62.5778 241.129 62.0713 239.862 61.1854 239.483C60.2994 239.103 58.0196 236.951 57.6401 235.558C57.2607 234.166 56.6515 228.469 58.285 227.963C59.9185 227.456 60.425 229.735 61.1854 231.381C61.9443 233.027 64.4367 233.153 64.8361 231.635C65.2356 230.116 65.1101 223.785 63.8432 222.139C62.5778 220.493 60.9314 215.555 61.5648 212.011C62.1983 208.466 73.6699 183.647 74.68 175.455C75.69 167.265 81.2154 152.789 81.2154 152.789L66.0331 149.878Z" fill="#FFA38E"/>
<path d="M77.6496 163.196C79.3929 157.574 81.2176 152.787 81.2176 152.787L66.0353 149.878C66.0353 149.878 65.4646 152.249 64.6543 155.314C67.1324 156.026 69.3394 156.585 71.5535 158.039C73.782 159.501 75.7336 161.338 77.6496 163.196Z" fill="#D78D7D"/>
<path d="M135.236 61.8521C134.32 63.5113 132.833 65.0364 130.95 65.2532C130.808 64.0691 130.566 62.8978 130.228 61.7537C129.967 60.8692 129.649 59.9133 129.973 59.0502C130.234 58.354 130.86 57.8718 131.458 57.4281C132.364 56.7547 137.048 52.4534 137.263 54.2338C137.577 56.8403 135.929 60.5952 135.236 61.8521Z" fill="#76425B"/>
<path d="M124.264 99.3316C123.278 97.7665 125.321 85.2192 125.321 85.2192H106.551C106.551 85.2192 108.594 97.7665 107.608 99.3316C106.622 100.897 101.91 102.349 101.91 102.349C101.91 102.349 105.514 112.096 115.937 114.374C126.239 113.361 129.964 102.349 129.964 102.349C129.964 102.349 125.251 100.897 124.264 99.3316Z" fill="#F8958D"/>
<path d="M125.319 85.2211H106.549C106.549 85.2211 107.676 92.1475 107.85 96.3489C107.943 96.3446 108.031 96.3518 108.125 96.3432C113.494 95.841 118.998 94.0805 124.299 92.7837C124.693 89.0787 125.319 85.2211 125.319 85.2211Z" fill="#D37D88"/>
<path d="M127.671 52.1562C122.701 50.1675 109.156 50.1675 104.186 52.1562C99.2152 54.1435 99.3578 64.3683 99.3578 64.3683C99.3578 64.3683 99.8429 81.759 106.316 87.9407C110.718 92.145 114.835 91.7755 114.835 91.7755H117.02C117.02 91.7755 121.138 92.145 125.54 87.9407C132.012 81.759 132.497 64.3683 132.497 64.3683C132.497 64.3683 132.641 54.1435 127.671 52.1562Z" fill="#FFA38E"/>
<path d="M98.8007 69.8963C97.0417 67.2599 96.9618 63.8759 97.0887 60.7101C97.1986 57.9653 97.4226 55.1876 98.3185 52.5897C99.2144 49.9918 100.852 47.5622 103.238 46.1969C105.623 44.833 108.809 44.7189 111.036 46.3281C113.631 44.3094 116.719 43.2095 120.003 43.3536C123.288 43.4977 126.506 44.843 128.916 47.08C130.227 48.2983 131.3 49.7621 132.665 50.9191C134.03 52.0761 135.828 52.9249 137.581 52.5697C137.21 56.0108 135.153 59.3406 132.002 60.7715C129.783 61.7787 127.245 61.9428 124.837 61.5733C122.427 61.2038 120.126 60.3264 117.906 59.3177C117.269 60.5147 115.928 61.3421 114.611 61.6688C113.294 61.997 111.916 61.9413 110.562 61.8543C107.699 61.6703 104.777 61.3364 102.193 60.0896C102.898 63.5734 101.538 67.6265 98.8007 69.8963Z" fill="#894C63"/>
<path d="M82.5696 155.787C82.5696 155.787 83.4527 153.102 84.527 150.126C76.4565 149.623 69.3175 145.775 66.0191 143.888C65.2559 148.386 64.8379 151.547 64.8379 151.547C64.8379 151.547 76.0171 156.558 82.5696 155.787Z" fill="#C2ECFF"/>
<path d="M151.701 132.325C154.626 132.713 157.566 133.046 159.084 133.046C159.084 133.046 162.548 121.315 162.355 114.375C162.355 114.375 158.469 112.904 153.84 111.218C154.009 115.692 154.005 124.903 151.701 132.325Z" fill="#C2ECFF"/>
<path d="M113.187 133.505L106.205 154.566C106.031 155.094 106.379 155.649 106.931 155.72L114.641 156.715C115.126 156.777 115.467 157.221 115.404 157.705L113.019 175.973C112.889 176.97 114.26 177.375 114.692 176.467L126.086 152.523C126.342 151.984 126.001 151.352 125.411 151.269L117.212 150.121C116.691 150.048 116.349 149.539 116.479 149.029L120.477 133.218C120.631 132.61 120.119 132.039 119.499 132.126L113.905 132.907C113.571 132.954 113.293 133.185 113.187 133.505Z" fill="#FF5065"/>
<path d="M113.406 197.086C105.696 198.243 86.0368 199.398 85.6516 197.086C85.6516 197.086 82.2719 235.37 82.7541 258.292C82.7541 258.292 100.367 261.186 111.224 258.292C111.224 258.292 112.672 228.132 114.844 227.649C117.015 227.166 117.497 259.578 117.497 259.578C117.497 259.578 141.383 262.152 147.415 257.568C147.415 257.568 148.675 209.663 142.754 197.749C137.763 198.765 120.169 196.071 113.406 197.086Z" fill="#FF5065"/>
<path d="M144.86 205.037C144.285 201.97 143.595 199.439 142.754 197.748C137.761 198.765 120.169 196.07 113.404 197.086C106.067 198.186 87.9227 199.285 85.8512 197.396C85.7728 197.447 85.6929 197.5 85.6144 197.553C85.5445 198.473 85.3719 200.74 85.1465 203.946C87.8785 204.164 91.592 203.626 93.1442 203.622C99.1076 203.603 105.07 203.647 111.031 203.753C122.315 203.954 133.594 204.388 144.86 205.037Z" fill="#A25065"/>
<path d="M82.7104 252.609C82.7047 254.602 82.7161 256.512 82.7546 258.291C82.7546 258.291 100.368 261.186 111.225 258.291C111.225 258.291 111.345 255.801 111.566 252.248C98.305 255.265 87.6865 253.737 82.7104 252.609Z" fill="#FFA0AD"/>
<path d="M125.303 393.618C125.303 393.618 124.783 363 122.967 352.621C121.151 342.242 122.87 320.272 122.967 313.959C123.224 297.086 120.388 269.874 120.586 258.776C128.831 260.331 139.685 259.251 144.464 258.636C144.464 258.636 143.465 282.303 143.206 289.827C142.946 297.353 142.75 306.075 143.835 319.667C145.527 340.878 139.054 393.617 139.054 393.617L139.415 401.205H125.467L125.303 393.618Z" fill="#FFA38E"/>
<path d="M120.586 258.776C120.529 261.922 120.718 266.366 121.01 271.499C125.821 269.634 130.362 267.035 135.188 265.17C138.14 264.03 141.221 263.1 144.309 262.351C144.404 260.076 144.464 258.636 144.464 258.636C139.686 259.253 128.831 260.333 120.586 258.776Z" fill="#D78D7D"/>
<path d="M125.467 401.207L125.302 393.619C125.302 393.619 125.294 393.162 125.277 392.353C130.206 391.089 135.939 391.962 139.167 392.673C139.096 393.268 139.053 393.619 139.053 393.619L139.414 401.207H125.467Z" fill="#57DFFF"/>
<path d="M139.082 399.719C139.605 400.074 139.912 400.669 139.948 401.301C140.031 402.817 140.329 405.681 141.39 406.801C142.865 408.354 146.218 414.701 146.352 416.515C146.383 416.933 146.399 417.378 146.406 417.817C146.432 419.377 145.147 420.66 143.533 420.66H124.771C123.248 420.66 121.999 419.513 121.901 418.045C121.814 416.74 121.829 415.245 122.215 414.313C123.019 412.37 123.941 410.299 124.285 407.32C124.519 405.293 124.532 402.788 124.514 401.392C124.506 400.666 124.871 400.001 125.48 399.606C127.63 398.208 133.036 395.616 139.082 399.719Z" fill="#FF5065"/>
<path d="M121.889 415.941C124.184 416.908 126.711 417.644 129.093 416.972C129.871 416.752 130.597 416.39 131.36 416.127C133.958 415.23 136.866 415.528 139.475 416.391C140.345 416.68 141.206 417.029 142.119 417.133C143.557 417.297 144.963 416.832 146.313 416.282C146.326 416.36 146.344 416.446 146.35 416.513C146.381 416.931 146.397 417.376 146.404 417.815C146.43 419.375 145.145 420.658 143.531 420.658H124.769C123.246 420.658 121.997 419.511 121.899 418.043C121.853 417.356 121.839 416.621 121.889 415.941Z" fill="#FFABB5"/>
<path d="M139.477 416.392C136.867 415.529 133.961 415.231 131.363 416.128C130.599 416.392 129.873 416.754 129.096 416.973C128.138 417.242 127.16 417.278 126.18 417.169C126.967 414.487 129.434 409.253 129.273 406.832C129.149 404.964 128.391 400.777 128.144 398.268C130.417 397.426 133.567 396.987 137.046 398.576C136.618 400.739 135.865 405.628 137.278 407.809C139.118 410.653 142.918 415.794 142.122 417.134C141.208 417.03 140.348 416.679 139.477 416.392Z" fill="#933A65"/>
<path d="M137.538 401.662C137.477 401.653 131.194 400.612 127.691 402.123C127.631 402.148 127.57 402.16 127.509 402.16C127.337 402.16 127.173 402.066 127.098 401.903C126.996 401.685 127.099 401.429 127.324 401.331C131.078 399.713 137.424 400.766 137.692 400.809C137.936 400.85 138.1 401.074 138.057 401.31C138.014 401.548 137.775 401.708 137.538 401.662Z" fill="#DECBD8"/>
<path d="M137.556 405.429C137.485 405.42 130.443 404.593 127.726 406.086C127.656 406.123 127.579 406.142 127.503 406.142C127.347 406.142 127.195 406.062 127.113 405.924C126.991 405.715 127.066 405.45 127.282 405.332C130.255 403.699 137.365 404.534 137.666 404.57C137.913 404.6 138.087 404.815 138.056 405.053C138.027 405.29 137.788 405.446 137.556 405.429Z" fill="#DECBD8"/>
<path d="M139.837 409.509C139.75 409.496 131.021 408.085 126.956 409.866C126.896 409.893 126.833 409.904 126.771 409.904C126.601 409.904 126.437 409.81 126.363 409.65C126.26 409.432 126.36 409.174 126.587 409.077C130.898 407.188 139.62 408.593 139.989 408.654C140.234 408.693 140.397 408.918 140.357 409.154C140.314 409.392 140.078 409.555 139.837 409.509Z" fill="#DECBD8"/>
<path d="M125.809 413.556C130.977 410.784 141.859 412.769 142.318 412.856C142.562 412.9 142.721 413.128 142.675 413.362C142.628 413.599 142.39 413.763 142.149 413.706C142.04 413.686 131.126 411.694 126.246 414.315C126.176 414.352 126.102 414.369 126.028 414.369C125.871 414.369 125.717 414.289 125.635 414.145C125.514 413.937 125.592 413.673 125.809 413.556Z" fill="#DECBD8"/>
<path d="M117.33 252.469C117.451 256.599 117.497 259.578 117.497 259.578C117.497 259.578 141.383 262.151 147.415 257.568C147.415 257.568 147.472 255.148 147.505 251.249C136.072 253.748 122.552 252.93 117.33 252.469Z" fill="#FFA0AD"/>
<path d="M104.353 393.618C104.353 393.618 104.872 362.999 106.688 352.62C108.504 342.241 106.785 320.271 106.688 313.958C106.43 297.085 109.267 269.874 109.069 258.776C100.825 260.331 89.9707 259.251 85.1914 258.636C85.1914 258.636 86.1901 282.302 86.4497 289.827C86.7094 297.352 86.9048 306.075 85.8205 319.666C84.1285 340.878 90.6012 393.616 90.6012 393.616L90.2403 401.205H104.189L104.353 393.618Z" fill="#FFA38E"/>
<path d="M109.069 258.776C100.825 260.331 89.9707 259.251 85.1914 258.636C85.1914 258.636 85.4339 264.397 85.7121 271.136C90.7952 266.922 96.9427 263.989 103.412 262.673C104.614 262.429 106.992 262.459 109.055 262.051C109.079 260.851 109.086 259.749 109.069 258.776Z" fill="#D78D7D"/>
<path d="M104.189 401.205L104.354 393.616C104.354 393.616 104.361 393.16 104.378 392.351C99.4492 391.087 93.717 391.96 90.487 392.671C90.5584 393.265 90.6012 393.616 90.6012 393.616L90.2402 401.205H104.189Z" fill="#57DFFF"/>
<path d="M90.5728 399.717C90.0492 400.073 89.7425 400.668 89.7069 401.3C89.6241 402.816 89.3259 405.679 88.2645 406.799C86.7894 408.353 83.4368 414.7 83.3027 416.513C83.2713 416.931 83.2556 417.376 83.2484 417.816C83.2227 419.375 84.5082 420.659 86.1217 420.659H104.883C106.407 420.659 107.655 419.512 107.754 418.044C107.841 416.739 107.825 415.244 107.44 414.312C106.635 412.369 105.714 410.297 105.37 407.319C105.136 405.291 105.123 402.786 105.14 401.391C105.149 400.665 104.784 400 104.174 399.605C102.023 398.207 96.6189 395.614 90.5728 399.717Z" fill="#FF5065"/>
<path d="M107.766 415.94C105.471 416.907 102.944 417.644 100.562 416.972C99.7843 416.752 99.0581 416.39 98.2948 416.127C95.6969 415.23 92.7894 415.528 90.1801 416.391C89.3099 416.679 88.4496 417.029 87.5365 417.133C86.0985 417.297 84.6918 416.832 83.3422 416.281C83.3279 416.36 83.3108 416.445 83.3065 416.512C83.2751 416.93 83.2595 417.375 83.2523 417.815C83.2267 419.374 84.512 420.658 86.1256 420.658H104.887C106.411 420.658 107.659 419.511 107.758 418.043C107.803 417.355 107.816 416.621 107.766 415.94Z" fill="#FFABB5"/>
<path d="M90.1808 416.39C92.7916 415.527 95.6977 415.229 98.2956 416.127C99.0588 416.39 99.785 416.753 100.563 416.971C101.52 417.241 102.498 417.276 103.479 417.168C102.691 414.486 100.224 409.252 100.386 406.831C100.51 404.963 101.267 400.776 101.514 398.266C99.2415 397.425 96.0914 396.985 92.6118 398.575C93.0398 400.737 93.7931 405.626 92.3807 407.808C90.5403 410.651 86.7398 415.793 87.5358 417.132C88.4503 417.028 89.3106 416.677 90.1808 416.39Z" fill="#933A65"/>
<path d="M92.1199 401.66C92.1812 401.651 98.4642 400.61 101.967 402.121C102.026 402.146 102.088 402.158 102.149 402.158C102.32 402.158 102.484 402.063 102.56 401.901C102.661 401.683 102.559 401.427 102.333 401.329C98.5797 399.711 92.234 400.764 91.9658 400.807C91.7204 400.848 91.5578 401.072 91.6006 401.307C91.6434 401.546 91.8831 401.705 92.1199 401.66Z" fill="#DECBD8"/>
<path d="M92.0982 405.425C92.1695 405.417 99.2114 404.589 101.929 406.083C101.999 406.12 102.076 406.139 102.15 406.139C102.306 406.139 102.458 406.059 102.54 405.92C102.662 405.712 102.587 405.447 102.371 405.328C99.3969 403.696 92.2879 404.531 91.9869 404.567C91.7401 404.596 91.566 404.812 91.5974 405.05C91.6274 405.287 91.8671 405.442 92.0982 405.425Z" fill="#DECBD8"/>
<path d="M89.8172 409.507C89.9043 409.494 98.6339 408.083 102.698 409.863C102.758 409.89 102.821 409.902 102.884 409.902C103.054 409.902 103.218 409.808 103.292 409.648C103.395 409.43 103.295 409.171 103.068 409.074C98.7566 407.186 90.0341 408.591 89.666 408.652C89.422 408.691 89.258 408.916 89.2994 409.151C89.3422 409.39 89.5776 409.552 89.8172 409.507Z" fill="#DECBD8"/>
<path d="M103.847 413.554C98.6799 410.782 87.7975 412.766 87.3381 412.853C87.0942 412.898 86.9358 413.126 86.9829 413.36C87.03 413.597 87.2682 413.761 87.5093 413.704C87.6177 413.684 98.5316 411.692 103.412 414.313C103.482 414.35 103.556 414.367 103.63 414.367C103.787 414.367 103.941 414.287 104.023 414.143C104.141 413.935 104.064 413.671 103.847 413.554Z" fill="#DECBD8"/>
<path d="M61.4415 215.011L52.9843 214.22C52.3523 214.16 51.8887 213.6 51.9486 212.97L52.1497 210.821C52.2097 210.191 52.7689 209.726 53.3995 209.786L61.8566 210.579C62.4886 210.639 62.9523 211.198 62.8924 211.829L62.6912 213.977C62.6327 214.608 62.072 215.071 61.4415 215.011Z" fill="#FF5065"/>
<path d="M209.441 66.9394C209.464 65.9736 209.487 65.0063 209.509 64.0405C209.31 64.0291 209.127 64.2045 209.116 64.4157C209.063 65.4956 208.665 67.6998 207.767 67.6998C207.759 67.6998 207.75 67.6998 207.742 67.6984C206.77 67.6556 206.315 65.43 206.232 64.6539C206.27 62.5981 206.144 60.6964 206.115 60.3155L206.117 60.2428C205.98 60.2585 205.842 60.2741 205.709 60.3027C205.63 59.9688 205.535 59.6122 205.334 59.344L205.304 60.3312C205.531 63.4755 205.529 68.543 204.593 69.6172C204.481 69.7442 204.403 69.7499 204.376 69.7513C203.856 69.7784 203.453 69.6458 203.147 69.3219C202.565 68.7085 202.438 67.5957 202.426 66.8082C202.428 66.6584 202.429 66.5114 202.43 66.3602C202.44 66.0948 202.459 65.918 202.46 65.9122C202.465 65.878 202.439 65.8537 202.435 65.8224C202.456 63.2159 202.462 60.4653 202.463 59.9189V59.2099C202.236 59.3911 202.065 59.6364 202.058 59.9189C201.972 59.8019 201.855 59.304 201.651 58.9117V59.9175C201.647 61.8463 201.637 64.2516 201.619 66.306C201.613 66.4586 201.61 66.6413 201.614 66.8438C201.594 68.8782 201.566 70.4632 201.53 70.6829C201.507 70.817 201.299 71.0967 200.921 71.265C200.623 71.3977 200.017 71.5503 199.293 71.0909C198.812 70.7871 198.598 68.3761 198.607 65.6255C198.805 63.2972 198.661 60.8862 198.633 60.4596L198.627 59.4895C198.462 59.7991 198.326 60.1272 198.226 60.4625C198.267 60.0202 198.23 59.5623 198.048 59.1571C197.992 59.033 197.895 58.9331 197.811 58.8247L197.822 60.4896C197.855 60.9889 197.885 61.7065 197.892 62.5225C197.892 62.5254 197.889 62.5268 197.889 62.5297C197.851 63.1788 197.795 64.3258 197.788 65.5969C197.651 67.2162 197.362 68.697 196.794 69.3048C196.594 69.5174 196.424 69.543 196.313 69.543C196.065 69.543 195.862 69.4517 195.681 69.2534C194.821 68.3233 194.757 64.1974 194.533 64.1803C194.533 64.1803 194.531 64.1817 194.528 64.1817C194.514 64.4314 194.494 64.6753 194.483 64.9307C194.483 64.9307 194.458 64.9307 194.075 64.9307C194.027 65.9522 194.015 68.6485 195.085 69.8041C195.423 70.1708 195.836 70.3562 196.313 70.3562C196.72 70.3562 197.079 70.1893 197.387 69.8612C197.597 69.6372 197.772 69.3376 197.922 68.9838C198.066 70.3477 198.347 71.459 198.86 71.7815C199.382 72.111 199.867 72.218 200.278 72.218C200.691 72.218 201.029 72.1082 201.252 72.0097C201.831 71.7501 202.255 71.2821 202.332 70.8185C202.352 70.6958 202.369 70.2649 202.385 69.6443C202.443 69.7228 202.489 69.8112 202.556 69.8826C202.991 70.3405 203.552 70.5716 204.228 70.5716C204.295 70.5716 204.361 70.5702 204.431 70.5659C204.632 70.5531 204.93 70.4704 205.207 70.1551C205.676 69.6158 205.943 68.4788 206.087 67.1648C206.432 67.8767 206.94 68.4788 207.708 68.513C207.73 68.5144 207.752 68.5144 207.775 68.5144C208.625 68.5116 209.129 67.7797 209.441 66.9394Z" fill="#CA7B78"/>
<path d="M180.675 82.8449H171.561C170.736 82.8449 170.068 82.1772 170.068 81.3526V47.517C170.068 46.6924 170.736 46.0247 171.561 46.0247H180.675C181.5 46.0247 182.168 46.6924 182.168 47.517V81.3526C182.168 82.1772 181.5 82.8449 180.675 82.8449Z" fill="#8479AE"/>
<path d="M180.675 82.8448H171.561C170.736 82.8448 170.068 82.1771 170.068 81.3525V74.8057H182.166V81.3525C182.168 82.1771 181.5 82.8448 180.675 82.8448Z" fill="#74679E"/>
<path d="M167.232 69.9176H170.068V58.9567H167.232C166.609 58.9567 166.104 59.4617 166.104 60.0852V68.7905C166.104 69.4125 166.609 69.9176 167.232 69.9176Z" fill="#6C586D"/>
<path d="M167.232 69.9165H170.068V65.7592H166.104V68.788C166.104 69.4114 166.609 69.9165 167.232 69.9165Z" fill="#5D466A"/>
<path d="M194.683 66.8214H182.166V62.0521H194.683C194.683 62.0521 194.508 64.436 194.683 66.8214Z" fill="#6C586D"/>
<path d="M182.166 66.821H194.683C194.629 66.0877 194.611 65.363 194.608 64.6981H182.166V66.821Z" fill="#5D466A"/>
<path d="M209.521 66.8218H221.827V62.0511H209.371L209.521 66.8218Z" fill="#6C586D"/>
<path d="M209.455 64.6981L209.522 66.821H221.828V64.6981H209.455Z" fill="#5D466A"/>
<path d="M222.295 46.0256H231.41C232.234 46.0256 232.902 46.6933 232.902 47.5179V81.3536C232.902 82.1782 232.234 82.8458 231.41 82.8458H222.295C221.47 82.8458 220.803 82.1782 220.803 81.3536V47.5179C220.803 46.6933 221.472 46.0256 222.295 46.0256Z" fill="#8479AE"/>
<path d="M220.804 74.8057H232.902V81.3525C232.902 82.1771 232.234 82.8448 231.41 82.8448H222.295C221.47 82.8448 220.803 82.1771 220.803 81.3525L220.804 74.8057Z" fill="#74679E"/>
<path d="M235.74 57.3698H232.902V68.3307H235.74C236.363 68.3307 236.868 67.8257 236.868 67.2022V58.4968C236.868 57.8748 236.363 57.3698 235.74 57.3698Z" fill="#6C586D"/>
<path d="M236.867 65.2523H232.902V68.3296H235.74C236.363 68.3296 236.868 67.8245 236.868 67.2011V65.2523H236.867Z" fill="#5D466A"/>
<path d="M90.8437 135.26C89.2872 135.26 86.1914 145.755 86.1914 145.755V145.757C87.0545 143.652 87.8249 142.097 88.1559 142.295C89.1189 142.873 89.1189 161.182 88.5411 166.579C88.3727 168.157 88.0204 170.815 87.6195 173.831C89.5426 171.215 92.4001 135.26 90.8437 135.26Z" fill="#4BC9FF"/>
<path d="M141.735 169.279C141.735 166.61 141.825 163.185 141.964 159.485C141.751 160.658 141.508 161.827 141.222 162.985C139.698 169.15 137.318 175.063 135.781 181.223C135.674 181.651 135.584 182.149 135.855 182.497C136.207 182.951 136.908 182.852 137.464 182.708C139.453 182.195 141.996 181.907 143.196 183.497C142.503 179.651 141.735 174.813 141.735 169.279Z" fill="#4BC9FF"/>
<path d="M206.33 85.7726H194.1C193.664 85.7726 193.309 85.4187 193.309 84.9808V84.2617C193.309 83.8252 193.662 83.47 194.1 83.47H206.33C206.766 83.47 207.121 83.8238 207.121 84.2617V84.9808C207.12 85.4187 206.766 85.7726 206.33 85.7726Z" fill="#57DFFF"/>
<path d="M206.33 89.6911H194.1C193.664 89.6911 193.309 89.3373 193.309 88.8994V88.1803C193.309 87.7438 193.662 87.3885 194.1 87.3885H206.33C206.766 87.3885 207.121 87.7424 207.121 88.1803V88.8994C207.12 89.3373 206.766 89.6911 206.33 89.6911Z" fill="#FF5065"/>
<path d="M109.604 69.2631C109.604 70.3459 109.171 71.2233 108.637 71.2233C108.102 71.2233 107.67 70.3459 107.67 69.2631C107.67 68.1802 108.104 67.3028 108.637 67.3028C109.171 67.3028 109.604 68.1802 109.604 69.2631Z" fill="#BC7488"/>
<path d="M111.335 65.823C111.275 65.823 111.215 65.8145 111.154 65.7945C109.396 65.2481 107.286 65.3537 105.824 65.5434C105.488 65.5805 105.185 65.3508 105.142 65.017C105.099 64.6831 105.336 64.3778 105.668 64.335C107.25 64.1324 109.549 64.0183 111.516 64.6318C111.837 64.7316 112.017 65.0726 111.917 65.3936C111.836 65.6561 111.594 65.823 111.335 65.823Z" fill="#BC7488"/>
<path d="M122.25 69.263C122.25 70.3458 122.684 71.2232 123.217 71.2232C123.752 71.2232 124.185 70.3458 124.185 69.263C124.185 68.1802 123.751 67.3028 123.217 67.3028C122.682 67.3028 122.25 68.1802 122.25 69.263Z" fill="#BC7488"/>
<path d="M120.518 65.823C120.258 65.823 120.017 65.6561 119.936 65.395C119.836 65.074 120.016 64.7331 120.337 64.6332C122.303 64.0212 124.602 64.1339 126.185 64.3365C126.517 64.3793 126.754 64.6846 126.711 65.0184C126.667 65.3522 126.353 65.5819 126.029 65.5448C124.57 65.3551 122.455 65.2495 120.699 65.7959C120.638 65.8145 120.576 65.823 120.518 65.823Z" fill="#BC7488"/>
<path d="M115.436 79.54C115.193 79.54 114.965 79.3944 114.869 79.1562C114.745 78.8438 114.898 78.4885 115.21 78.3644C115.604 78.2075 115.945 78.0063 116.222 77.7666C116.661 77.3857 116.243 74.531 115.347 71.7776C115.243 71.458 115.419 71.1142 115.738 71.0101C116.059 70.9031 116.403 71.08 116.506 71.3995C117.096 73.2128 118.329 77.5527 117.021 78.6868C116.641 79.0164 116.183 79.2903 115.661 79.4972C115.587 79.5271 115.511 79.54 115.436 79.54Z" fill="#BC7488"/>
<path d="M116.164 85.6909C115.515 85.6909 114.867 85.6438 114.222 85.5483L112.642 85.3157C112.308 85.2672 112.078 84.9576 112.128 84.6238C112.176 84.2914 112.485 84.0688 112.82 84.1102L114.401 84.3427C115.57 84.5154 116.757 84.5154 117.929 84.3427L119.509 84.1102C119.85 84.0703 120.151 84.2914 120.201 84.6238C120.251 84.9576 120.02 85.2658 119.688 85.3157L118.107 85.5483C117.461 85.6438 116.813 85.6909 116.164 85.6909Z" fill="#BC7488"/>
<path d="M202.631 420.658H177.08L171.406 379.863H208.304L202.631 420.658Z" fill="#FFB145"/>
<path d="M173.783 396.954C183.366 387.785 200.924 383.604 207.973 382.242L208.304 379.864H171.406L173.783 396.954Z" fill="#FF9A45"/>
<path d="M217.26 372.912H162.451L163.869 379.863H215.842L217.26 372.912Z" fill="#FFD253"/>
<path d="M208.578 344.467C208.578 344.467 211.142 330.021 216.084 330.198C221.026 330.375 220.323 335.073 220.323 335.073C220.323 335.073 227.838 308.298 233.946 308.062C240.053 307.827 225.725 339.066 225.725 339.066C225.725 339.066 231.597 336.718 232.771 339.771C233.946 342.824 222.02 355.037 222.02 355.037C222.02 355.037 228.073 354.097 225.491 359.265C222.908 364.432 211.633 372.912 211.633 372.912H195.66L208.578 344.467Z" fill="#27A19F"/>
<path d="M199.286 372.912C199.286 372.912 219.679 333.52 207.353 335.985C207.353 335.985 224.459 303.265 211.312 307.075C211.312 307.075 225.954 270.77 211.388 281.079C211.388 281.079 216.05 250.128 208.564 253.726C201.079 257.324 200.631 299.008 199.286 299.232C197.94 299.456 194.803 293.181 191.89 295.199C188.977 297.216 190.895 319.402 189.376 319.178C187.857 318.954 184.046 315.143 182.253 318.73C180.46 322.315 188.303 372.913 188.303 372.913H199.286V372.912Z" fill="#27CEB6"/>
<path d="M188.304 372.912C188.795 368.199 189.322 364.077 189.373 359.338C189.424 354.598 188.66 349.722 186.217 345.659C185.829 345.014 185.328 344.341 184.591 344.187C183.832 344.028 183.053 344.496 182.613 345.134C182.173 345.772 182 346.551 181.836 347.308C181.825 341.508 181.613 335.479 179.058 330.27C178.278 328.679 176.817 326.993 175.088 327.372C173.987 327.614 173.249 328.621 172.623 329.559C172.531 324.802 172.593 319.748 172.501 314.991C172.476 313.64 172.444 312.257 171.966 310.993C171.399 309.488 170.193 308.235 168.709 307.612C167.945 307.291 167.049 307.138 166.293 307.482C165.856 307.68 165.505 308.026 165.18 308.377C164.23 309.401 163.405 310.542 162.729 311.765C162.729 311.765 152.222 282.422 147.515 288.248C142.809 294.075 155.807 314.244 155.807 314.244C155.807 314.244 148.635 309.986 148.411 314.692C148.187 319.399 160.513 335.982 160.513 335.982C160.513 335.982 151.722 334.189 153.316 340.913C154.909 347.636 163.572 353.911 163.572 353.911C163.572 353.911 159.616 353.687 159.168 355.704C158.72 357.721 167.93 372.911 167.93 372.911H188.304V372.912Z" fill="#45FFB6"/>
<path d="M206.461 311.482L205.903 310.892L203.326 313.318C204.151 307.245 204.792 301.785 205.258 297.47L205.344 297.62C206.583 296.912 207.799 296.132 208.954 295.297L208.479 294.638C207.475 295.364 206.419 296.04 205.345 296.668C205.937 291.107 206.225 287.627 206.234 287.515L205.425 287.448C205.419 287.523 205.284 289.157 205.014 291.917L203.094 290.825L202.692 291.529L204.929 292.802C204.637 295.732 204.214 299.721 203.652 304.406C202.613 303.507 201.677 302.502 200.937 301.332L200.252 301.767C201.135 303.168 202.242 304.385 203.53 305.415C202.985 309.884 202.318 314.932 201.519 320.268L198.021 316.544L197.427 317.099L201.342 321.265L201.372 321.236C200.435 327.421 199.323 333.949 198.028 340.38L194.156 331.562L193.414 331.889L197.75 341.763C196.985 345.469 196.16 349.129 195.27 352.652L196.056 352.852C197.721 346.257 199.159 339.195 200.392 332.236C202.289 330.781 204.132 329.21 205.864 327.553L205.304 326.967C203.811 328.394 202.228 329.74 200.607 331.02C201.593 325.346 202.44 319.768 203.155 314.595L206.461 311.482Z" fill="white"/>
<path d="M178.37 364.869C177.327 361.42 175.883 357.143 174.278 352.598L174.331 352.615C174.988 350.487 175.549 348.302 175.997 346.123L175.201 345.957C174.829 347.77 174.361 349.579 173.84 351.363C171.911 345.939 169.787 340.213 167.855 335.096C168.026 333.046 168.265 330.982 168.573 328.954L167.77 328.833C167.541 330.337 167.362 331.86 167.207 333.384C164.09 325.164 161.618 318.898 161.564 318.76L160.809 319.058C160.843 319.145 161.838 321.664 163.347 325.57L159.312 324.425L159.09 325.205L163.712 326.518C164.674 329.013 165.811 331.983 167.029 335.206C167.025 335.253 167.019 335.3 167.015 335.346L167.083 335.351C167.878 337.454 168.704 339.658 169.536 341.905C167.884 341.312 166.213 340.689 164.552 340.021L164.251 340.776C166.116 341.523 167.999 342.235 169.847 342.89L169.872 342.817C171.747 347.89 173.626 353.11 175.211 357.77C173.184 357.36 171.115 357.205 169.051 357.336L169.102 358.145C171.253 358.011 173.409 358.191 175.515 358.66C176.304 361.001 177.011 363.182 177.592 365.104L178.37 364.869Z" fill="white"/>
<path d="M221.121 345.984L221.022 345.178L218.811 345.451C219.663 343.663 220.473 341.998 221.191 340.582L220.467 340.213C220.134 340.873 219.778 341.589 219.41 342.341C218.804 341.61 218.232 340.847 217.727 340.045L217.038 340.476C217.627 341.413 218.299 342.303 219.018 343.145C218.146 344.941 217.208 346.929 216.257 348.969C215.782 348.24 215.359 347.479 215.028 346.675L214.276 346.983C214.691 347.992 215.226 348.949 215.851 349.843C215.37 350.88 214.891 351.923 214.417 352.956C214.376 352.969 214.339 352.982 214.297 352.995L214.337 353.13C213.679 354.567 213.039 355.978 212.435 357.315C211.875 356.347 211.521 355.247 211.445 354.139L210.636 354.193C210.731 355.613 211.233 357.022 212.034 358.203C209.936 362.86 208.378 366.404 208.344 366.482L209.086 366.809C209.11 366.752 209.92 364.911 211.149 362.161C212.861 361.961 214.575 361.682 216.25 361.322L216.079 360.529C214.588 360.848 213.063 361.095 211.538 361.289C212.528 359.078 213.734 356.402 215.005 353.621C216.13 353.283 217.249 352.933 218.313 352.571L218.049 351.804C217.217 352.087 216.334 352.356 215.46 352.627C216.436 350.502 217.436 348.348 218.394 346.322L221.121 345.984Z" fill="white"/>
<path d="M76.8726 320.98H25.4863V327.267H76.8726V320.98Z" fill="#FFB145"/>
<path d="M70.0541 389.783H31.0625V395.035H70.0541V389.783Z" fill="#C8693E"/>
<path d="M76.8728 420.656H68.8707L57.5332 327.268H65.5338L76.8728 420.656Z" fill="#EC843E"/>
<path d="M24.291 420.656H32.2916L43.6306 327.268H35.63L24.291 420.656Z" fill="#EC843E"/>
<path d="M66.2229 332.945L65.5338 327.268H57.5332L58.2223 332.945H66.2229Z" fill="#C8693E"/>
<path d="M42.9435 332.945L43.6325 327.268H35.6305L34.9414 332.945H42.9435Z" fill="#C8693E"/>
<path d="M50.693 320.98H36.5664V291.741C36.5664 290.212 37.8062 288.972 39.3355 288.972H47.9253C49.4547 288.972 50.6945 290.212 50.6945 291.741V320.98H50.693Z" fill="#57DFFF"/>
<path d="M47.9263 288.974H44.5723C46.1016 288.974 47.3414 290.214 47.3414 291.743V320.982H50.6954V291.743C50.694 290.214 49.4542 288.974 47.9263 288.974Z" fill="#57C7FF"/>
<path d="M50.6945 298.826H36.5664V311.882H50.6945V298.826Z" fill="#4BC9FF"/>
<path d="M50.6947 298.826H47.2422V311.882H50.6947V298.826Z" fill="#4BB1FF"/>
<path d="M44.7206 283.549H42.5407C41.9087 283.549 41.3965 284.061 41.3965 284.693V288.974H45.8647V284.693C45.8647 284.061 45.3526 283.549 44.7206 283.549Z" fill="#4BC9FF"/>
<path d="M44.7199 283.549H43.1406C43.7726 283.549 44.2848 284.061 44.2848 284.693V288.974H45.8641V284.693C45.8641 284.061 45.3519 283.549 44.7199 283.549Z" fill="#4BB1FF"/>
<path d="M217.123 28.3627H199.81C198.765 28.3627 197.918 27.5153 197.918 26.471V21.7516C197.918 20.7073 198.765 19.8599 199.81 19.8599H217.123C218.168 19.8599 219.015 20.7073 219.015 21.7516V26.471C219.014 27.5167 218.168 28.3627 217.123 28.3627Z" fill="#D0D0E5"/>
<path d="M221.321 25.7039H220.035C219.877 25.7039 219.75 25.5755 219.75 25.4186V22.8064C219.75 22.648 219.878 22.5211 220.035 22.5211H221.321C221.479 22.5211 221.606 22.6495 221.606 22.8064V25.4186C221.608 25.5755 221.479 25.7039 221.321 25.7039Z" fill="#D0D0E5"/>
<path d="M32.4898 25.2024H28.0801V28.7975H32.4898V25.2024Z" fill="#D0D0E5"/>
<path d="M40.5426 22.6111H36.1328V28.7956H40.5426V22.6111Z" fill="#D0D0E5"/>
<path d="M48.5953 20.4804H44.1855V28.7978H48.5953V20.4804Z" fill="#D0D0E5"/>
<path d="M56.65 18.6613H52.2402V28.7976H56.65V18.6613Z" fill="#D0D0E5"/>
<path d="M28.2562 82.2781V76.9687H28.8991V81.7078H31.3672V82.2781H28.2562ZM32.2797 82.2781V78.2961H32.8916V82.2781H32.2797ZM32.5908 77.6324C32.4716 77.6324 32.3687 77.5918 32.2823 77.5106C32.1976 77.4293 32.1553 77.3317 32.1553 77.2176C32.1553 77.1035 32.1976 77.0059 32.2823 76.9247C32.3687 76.8434 32.4716 76.8028 32.5908 76.8028C32.7101 76.8028 32.8121 76.8434 32.8967 76.9247C32.9832 77.0059 33.0264 77.1035 33.0264 77.2176C33.0264 77.3317 32.9832 77.4293 32.8967 77.5106C32.8121 77.5918 32.7101 77.6324 32.5908 77.6324ZM37.2683 78.2961L35.7958 82.2781H35.1736L33.7011 78.2961H34.3647L35.4639 81.4693H35.5054L36.6046 78.2961H37.2683ZM39.6028 82.3611C39.2191 82.3611 38.8882 82.2764 38.6099 82.107C38.3334 81.9359 38.1199 81.6974 37.9696 81.3915C37.8209 81.0839 37.7466 80.7261 37.7466 80.3182C37.7466 79.9103 37.8209 79.5508 37.9696 79.2397C38.1199 78.9269 38.329 78.6832 38.5969 78.5087C38.8666 78.3324 39.1811 78.2442 39.5406 78.2442C39.748 78.2442 39.9528 78.2788 40.155 78.3479C40.3572 78.4171 40.5413 78.5294 40.7072 78.685C40.8731 78.8388 41.0053 79.0427 41.1039 79.2968C41.2024 79.5508 41.2516 79.8637 41.2516 80.2353V80.4945H38.1821V79.9656H40.6294C40.6294 79.741 40.5845 79.5405 40.4946 79.3642C40.4065 79.1879 40.2803 79.0488 40.1161 78.9468C39.9537 78.8448 39.7618 78.7938 39.5406 78.7938C39.2969 78.7938 39.086 78.8543 38.908 78.9753C38.7317 79.0946 38.5961 79.2501 38.501 79.442C38.406 79.6338 38.3584 79.8395 38.3584 80.059V80.4115C38.3584 80.7123 38.4103 80.9672 38.514 81.1763C38.6194 81.3837 38.7654 81.5419 38.9521 81.6507C39.1388 81.7579 39.3557 81.8115 39.6028 81.8115C39.7635 81.8115 39.9087 81.789 40.0383 81.7441C40.1697 81.6974 40.2829 81.6283 40.378 81.5367C40.473 81.4433 40.5465 81.3275 40.5983 81.1893L41.1894 81.3552C41.1272 81.5557 41.0226 81.732 40.8757 81.8841C40.7288 82.0344 40.5473 82.152 40.3313 82.2366C40.1153 82.3196 39.8724 82.3611 39.6028 82.3611ZM48.5287 76.9687V82.2781H47.9065L45.0133 78.1094H44.9615V82.2781H44.3185V76.9687H44.9407L47.8443 81.1478H47.8961V76.9687H48.5287ZM51.3499 82.3611C50.9905 82.3611 50.675 82.2755 50.4037 82.1044C50.1341 81.9333 49.9232 81.694 49.7711 81.3863C49.6208 81.0787 49.5456 80.7192 49.5456 80.3078C49.5456 79.893 49.6208 79.531 49.7711 79.2216C49.9232 78.9122 50.1341 78.672 50.4037 78.5009C50.675 78.3298 50.9905 78.2442 51.3499 78.2442C51.7094 78.2442 52.024 78.3298 52.2936 78.5009C52.565 78.672 52.7758 78.9122 52.9262 79.2216C53.0783 79.531 53.1543 79.893 53.1543 80.3078C53.1543 80.7192 53.0783 81.0787 52.9262 81.3863C52.7758 81.694 52.565 81.9333 52.2936 82.1044C52.024 82.2755 51.7094 82.3611 51.3499 82.3611ZM51.3499 81.8115C51.623 81.8115 51.8477 81.7415 52.024 81.6015C52.2003 81.4615 52.3308 81.2774 52.4155 81.0493C52.5001 80.8212 52.5425 80.574 52.5425 80.3078C52.5425 80.0417 52.5001 79.7937 52.4155 79.5638C52.3308 79.3339 52.2003 79.1481 52.024 79.0064C51.8477 78.8647 51.623 78.7938 51.3499 78.7938C51.0769 78.7938 50.8522 78.8647 50.6759 79.0064C50.4996 79.1481 50.3691 79.3339 50.2844 79.5638C50.1998 79.7937 50.1574 80.0417 50.1574 80.3078C50.1574 80.574 50.1998 80.8212 50.2844 81.0493C50.3691 81.2774 50.4996 81.4615 50.6759 81.6015C50.8522 81.7415 51.0769 81.8115 51.3499 81.8115ZM54.855 82.2781L53.6417 78.2961H54.2846L55.1453 81.3448H55.1868L56.0371 78.2961H56.6904L57.5304 81.3345H57.5719L58.4326 78.2961H59.0755L57.8622 82.2781H57.2608L56.3897 79.219H56.3275L55.4564 82.2781H54.855Z" fill="#847D99"/>
<path d="M24.2104 82.692C24.2104 84.0616 23.1005 85.1715 21.7295 85.1715C20.3585 85.1715 19.25 84.0616 19.25 82.692C19.25 81.3224 20.3599 80.2125 21.7295 80.2125C23.0991 80.2125 24.2104 81.3224 24.2104 82.692Z" fill="#FF5065"/>
</svg>
