<svg width="403" height="316" viewBox="0 0 403 316" fill="none" xmlns="http://www.w3.org/2000/svg">
<path d="M38.4622 122.215C38.4526 122.516 38.4437 122.81 38.4341 123.112C37.2295 159.936 40.9118 188.655 47.2312 211.045L66.1689 222.91L50.5682 220.441L50.1224 220.372C58.5059 244.984 70.1592 260.908 81.1853 271.16C88.0423 277.554 94.661 281.747 100.094 284.466C100.452 284.648 100.804 284.822 101.156 284.989C102.031 285.414 102.879 285.793 103.685 286.14L114.123 286.721C114.268 286.236 114.405 285.757 114.535 285.271C114.625 284.966 114.709 284.661 114.785 284.357C114.903 283.958 115.007 283.551 115.11 283.151C127.608 235.654 112.188 197.682 91.9704 170.583C91.9163 170.492 91.8478 170.407 91.7718 170.314C84.7361 160.911 77.1196 152.817 69.912 146.101L65.2574 157.836L64.65 141.371C52.0919 130.452 41.6383 124.071 39.0703 122.565C38.6697 122.329 38.4622 122.215 38.4622 122.215Z" fill="#2FB99F"/>
<path d="M38.0938 122.383L38.4362 123.109L59.7221 168.069L60.1049 168.864L65.9059 181.123L66.1045 181.533L84.608 220.612L84.6347 220.665L114.787 284.354L115.242 285.308L115.961 286.822L116.872 286.873L116.161 285.359L115.112 283.149L85.3551 220.3L84.8011 219.134L39.071 122.563L38.8203 122.033L38.0938 122.383Z" fill="white"/>
<path d="M39.708 162.989L39.3086 163.565L65.8285 181.939L66.2279 181.362L39.708 162.989Z" fill="white"/>
<path d="M39.5712 154.107L39.1719 154.683L59.9597 169.086L60.359 168.509L39.5712 154.107Z" fill="white"/>
<path d="M91.3077 170.235L84.5996 220.65L85.2947 220.742L92.0028 170.328L91.3077 170.235Z" fill="white"/>
<path d="M117.142 305.976C117.142 305.976 91.8285 316.376 57.7552 293.6L69.4339 288.779L50.7879 288.566C37.5622 278.258 23.2579 262.85 8.75918 240.027L13.2159 238.19L7.56282 238.122C5.12148 234.223 2.67465 230.108 0.228516 225.769C0.228516 225.769 10.5993 225.385 25.2692 227.855L32.3152 238.504L30.6593 228.866C60.6026 235.003 103.72 253.082 117.142 305.976Z" fill="#E76C6E"/>
<path d="M0.434137 225.43L0 226.092L118.913 304.078L119.347 303.416L0.434137 225.43Z" fill="white"/>
<path d="M31.1445 246.009L13.498 246.912L13.5356 247.647L31.1821 246.744L31.1445 246.009Z" fill="white"/>
<path d="M39.2698 251.185L18.6113 253.775L18.7029 254.506L39.3614 251.915L39.2698 251.185Z" fill="white"/>
<path d="M90.5796 259.421L91.2322 258.76C81.4134 249.083 69.2526 241.303 55.0873 235.637L54.7422 236.5C68.791 242.119 80.8491 249.831 90.5796 259.421Z" fill="#3F3747"/>
<path d="M249.229 250.988C249.229 250.988 271.062 250.548 288.754 223.043L278.673 223.229L292.252 217.142C298.653 205.392 304.221 189.568 307.572 168.253L303.726 168.326L307.842 166.479C308.388 162.849 308.87 159.059 309.28 155.105C309.28 155.105 301.569 158.123 291.618 164.596L289.848 174.631L287.995 167.051C268.034 181.065 242.229 208.008 249.229 250.988Z" fill="#F6B163"/>
<path d="M309.023 154.921L246.805 249.82L247.333 250.167L309.552 155.268L309.023 154.921Z" fill="white"/>
<path d="M306.285 174.772L293.084 179.724L293.29 180.273L306.491 175.321L306.285 174.772Z" fill="white"/>
<path d="M304.712 181.469L288.77 186.143L288.935 186.706L304.878 182.033L304.712 181.469Z" fill="white"/>
<path d="M253.854 208.469L253.166 208.193C257.274 197.988 263.7 188.426 272.264 179.774L272.791 180.296C264.296 188.878 257.925 198.356 253.854 208.469Z" fill="#3F3747"/>
<path d="M256.502 7.60685V308.368C256.502 312.567 253.295 315.975 249.324 315.975H109.815C105.852 315.975 102.637 312.568 102.637 308.368V7.60685C102.637 3.39871 105.852 0 109.815 0H249.324C253.295 0 256.502 3.39802 256.502 7.60685Z" fill="#3F3747"/>
<path d="M110.247 307.066C110.247 311.229 113.461 314.61 117.426 314.61H256.936C260.907 314.61 264.114 311.229 264.114 307.066V8.90616C264.114 4.73019 260.907 1.3623 256.936 1.3623H117.425C113.461 1.3623 110.246 4.73019 110.246 8.90616V307.066H110.247Z" fill="white"/>
<path d="M256.931 5.47847C258.624 5.47847 260 7.01655 260 8.90731V307.067C260 308.958 258.623 310.496 256.931 310.496H117.421C115.728 310.496 114.352 308.958 114.352 307.067V8.90662C114.352 7.01587 115.729 5.47778 117.421 5.47778L256.931 5.47847ZM256.931 0H117.421C112.707 0 108.873 3.99586 108.873 8.90731V307.067C108.873 311.978 112.708 315.975 117.421 315.975H256.931C261.644 315.975 265.478 311.979 265.478 307.067V8.90662C265.479 3.99518 261.644 0 256.931 0Z" fill="#E24C4F"/>
<path d="M205.472 10.2241H164.994C164.595 10.2241 164.271 9.89674 164.271 9.49339C164.271 9.09003 164.595 8.7627 164.994 8.7627H205.472C205.872 8.7627 206.195 9.09003 206.195 9.49339C206.195 9.89674 205.872 10.2241 205.472 10.2241Z" fill="#48393E"/>
<path d="M143.002 269.083H132.057V276.98H143.002V269.083Z" fill="#F6B163"/>
<path d="M158.797 270.642H147.852V276.98H158.797V270.642Z" fill="#E76C6E"/>
<path d="M174.832 244.665H163.887V276.98H174.832V244.665Z" fill="#2FB99F"/>
<path d="M190.732 262.537H179.787V276.98H190.732V262.537Z" fill="#E76C6E"/>
<path d="M238.426 263.161H227.48V276.981H238.426V263.161Z" fill="#F6B163"/>
<path d="M206.621 215.674H195.676V276.98H206.621V215.674Z" fill="#2FB99F"/>
<path d="M222.736 241.133H211.791V276.981H222.736V241.133Z" fill="#E76C6E"/>
<path d="M160.108 158.283C139.706 148.816 126.523 128.201 126.523 105.764C126.523 73.8596 152.48 47.9033 184.384 47.9033V52.0122C154.746 52.0122 130.632 76.125 130.632 105.764C130.632 126.608 142.881 145.76 161.837 154.555L160.108 158.283Z" fill="#DAE0E8"/>
<path d="M166.7 122.596C167.629 121.751 168.412 120.867 169.052 119.944C169.691 119.022 170.01 118.115 170.01 117.224C170.01 116.386 169.807 115.724 169.4 115.24C168.993 114.756 168.338 114.514 167.435 114.514C166.557 114.514 165.877 114.789 165.392 115.337C164.908 115.886 164.647 116.618 164.608 117.535H162.905C162.956 116.09 163.395 114.973 164.221 114.185C165.047 113.398 166.111 113.005 167.415 113.005C168.744 113.005 169.799 113.372 170.58 114.108C171.361 114.843 171.752 115.857 171.752 117.147C171.752 118.218 171.432 119.26 170.794 120.273C170.155 121.286 169.429 122.177 168.616 122.945C167.803 123.713 166.763 124.607 165.499 125.626H172.159V127.097H162.848V125.839C164.486 124.522 165.77 123.442 166.7 122.596Z" fill="black"/>
<path d="M182.805 114.63L177.423 127.251H175.642L181.102 114.804H173.629V113.294H182.805V114.63H182.805Z" fill="black"/>
<path d="M185.651 118.734C185.264 118.191 185.071 117.533 185.071 116.759C185.071 116.062 185.244 115.433 185.593 114.872C185.942 114.311 186.461 113.865 187.151 113.537C187.841 113.208 188.677 113.043 189.658 113.043C190.639 113.043 191.474 113.208 192.165 113.537C192.855 113.865 193.378 114.311 193.733 114.872C194.088 115.434 194.265 116.063 194.265 116.759C194.265 117.508 194.066 118.163 193.666 118.724C193.265 119.286 192.717 119.702 192.02 119.973C192.821 120.218 193.455 120.648 193.927 121.261C194.398 121.873 194.634 122.612 194.634 123.477C194.634 124.316 194.427 125.048 194.014 125.674C193.601 126.3 193.017 126.784 192.262 127.126C191.507 127.468 190.639 127.639 189.659 127.639C188.677 127.639 187.817 127.468 187.074 127.126C186.332 126.784 185.755 126.3 185.342 125.674C184.929 125.048 184.723 124.316 184.723 123.477C184.723 122.612 184.955 121.87 185.42 121.251C185.884 120.631 186.517 120.205 187.317 119.973C186.594 119.689 186.038 119.276 185.651 118.734ZM187.316 121.415C186.709 121.86 186.406 122.528 186.406 123.419C186.406 124.245 186.7 124.91 187.287 125.413C187.874 125.917 188.664 126.169 189.659 126.169C190.652 126.169 191.44 125.917 192.021 125.413C192.601 124.91 192.892 124.245 192.892 123.419C192.892 122.555 192.595 121.893 192.001 121.435C191.408 120.977 190.627 120.748 189.659 120.748C188.703 120.747 187.923 120.969 187.316 121.415ZM191.788 115.153C191.271 114.727 190.562 114.514 189.659 114.514C188.769 114.514 188.065 114.727 187.549 115.153C187.033 115.579 186.774 116.192 186.774 116.992C186.774 117.715 187.042 118.296 187.578 118.734C188.113 119.173 188.807 119.392 189.659 119.392C190.523 119.392 191.224 119.17 191.759 118.724C192.295 118.279 192.562 117.695 192.562 116.972C192.562 116.185 192.304 115.579 191.788 115.153Z" fill="black"/>
<path d="M200.616 122.596C201.545 121.751 202.328 120.867 202.968 119.944C203.607 119.022 203.926 118.115 203.926 117.224C203.926 116.386 203.723 115.724 203.316 115.24C202.909 114.756 202.254 114.514 201.351 114.514C200.473 114.514 199.793 114.789 199.309 115.337C198.825 115.886 198.564 116.618 198.525 117.535H196.821C196.873 116.09 197.312 114.973 198.137 114.185C198.963 113.398 200.028 113.005 201.331 113.005C202.661 113.005 203.716 113.372 204.497 114.108C205.277 114.843 205.668 115.857 205.668 117.147C205.668 118.218 205.348 119.26 204.71 120.273C204.071 121.286 203.345 122.177 202.532 122.945C201.719 123.713 200.679 124.607 199.415 125.626H206.075V127.097H196.764V125.839C198.402 124.522 199.686 123.442 200.616 122.596Z" fill="black"/>
<path d="M170.074 142.003C170.543 142.292 171.228 142.532 171.95 142.532C173.02 142.532 173.646 141.966 173.646 141.149C173.646 140.391 173.213 139.958 172.119 139.537C170.796 139.068 169.978 138.382 169.978 137.24C169.978 135.977 171.025 135.039 172.6 135.039C173.43 135.039 174.032 135.231 174.393 135.436L174.104 136.29C173.839 136.146 173.298 135.905 172.565 135.905C171.458 135.905 171.038 136.567 171.038 137.12C171.038 137.877 171.531 138.251 172.649 138.683C174.02 139.213 174.718 139.874 174.718 141.065C174.718 142.316 173.791 143.398 171.879 143.398C171.097 143.398 170.244 143.17 169.811 142.881L170.074 142.003Z" fill="black"/>
<path d="M177.687 136.062H175.221V135.172H181.222V136.062H178.745V143.278H177.687V136.062Z" fill="black"/>
<path d="M186.323 139.478H183.171V142.4H186.683V143.278H182.125V135.172H186.502V136.05H183.171V138.611H186.322V139.478H186.323Z" fill="black"/>
<path d="M188.045 135.268C188.55 135.184 189.212 135.111 190.053 135.111C191.088 135.111 191.846 135.352 192.326 135.784C192.771 136.169 193.036 136.759 193.036 137.481C193.036 138.214 192.82 138.792 192.411 139.212C191.858 139.801 190.956 140.102 189.934 140.102C189.621 140.102 189.332 140.09 189.092 140.03V143.277H188.046V135.268H188.045ZM189.091 139.177C189.319 139.237 189.608 139.26 189.958 139.26C191.22 139.26 191.99 138.647 191.99 137.528C191.99 136.458 191.233 135.941 190.077 135.941C189.621 135.941 189.271 135.977 189.091 136.025V139.177Z" fill="black"/>
<path d="M194.297 142.003C194.766 142.292 195.451 142.532 196.173 142.532C197.244 142.532 197.87 141.966 197.87 141.149C197.87 140.391 197.437 139.958 196.342 139.537C195.019 139.068 194.201 138.382 194.201 137.24C194.201 135.977 195.247 135.039 196.823 135.039C197.653 135.039 198.254 135.231 198.615 135.436L198.327 136.29C198.062 136.146 197.521 135.905 196.788 135.905C195.681 135.905 195.26 136.567 195.26 137.12C195.26 137.877 195.753 138.251 196.872 138.683C198.243 139.213 198.941 139.874 198.941 141.065C198.941 142.316 198.014 143.398 196.102 143.398C195.32 143.398 194.467 143.17 194.033 142.881L194.297 142.003Z" fill="black"/>
<path d="M215.445 100.882L215.404 101.231L215.089 101.395C214.069 101.95 212.597 102.416 210.583 102.416C208.584 102.416 206.043 101.957 202.859 100.669L201.742 100.217C199.661 99.3752 197.298 98.4164 196.113 98.0946C195.004 97.8001 194.107 97.6495 193.237 97.5056C190.409 97.0331 188.169 96.6633 182.068 91.7738C172.227 83.8916 158.976 78.8515 158.415 78.6392L157.586 78.3242L158.086 77.5983C158.442 77.0915 158.75 76.5984 159.031 76.0917C159.401 75.4137 159.75 74.7495 160.092 74.0989C162.4 69.7367 164.4 65.9634 167.755 66.1757C169.365 66.2715 169.803 67.8534 170.269 69.5312C170.789 71.4007 171.371 73.5237 173.494 74.6673C174.966 75.4685 176.473 75.174 177.247 74.9275C178.514 74.5235 179.356 73.7907 179.63 73.236C179.787 72.9073 179.856 72.469 179.945 71.9623C180.102 70.983 180.301 69.7641 181.28 68.6204C181.698 68.1411 182.294 67.8671 182.938 67.9014C183.561 67.9219 184.136 68.2301 184.513 68.7368C185.512 70.0996 187.546 72.8115 190.101 75.941C190.491 76.4204 190.895 76.9203 191.313 77.4202C192.408 78.7282 193.573 80.0841 194.778 81.4263C195.202 81.8989 195.634 82.3714 196.072 82.837C198.298 85.227 200.606 87.4937 202.804 89.2674C206.687 92.4038 209.262 93.9857 211.138 95.143C213.501 96.5948 214.685 97.3207 215.418 99.4368L215.445 99.5395C215.459 99.5943 215.548 100.128 215.445 100.882Z" fill="#EB8266"/>
<path d="M206.853 106.092C200.107 106.092 188.591 103.427 180.779 98.2259C178.439 96.6679 175.431 96.0331 171.947 95.299C168.558 94.5847 164.716 93.7746 160.39 91.9427C155.881 90.0342 152.949 88.1674 153.3 85.259C153.562 83.0854 154.876 81.5364 156.267 79.8956C156.874 79.18 157.501 78.4397 158.094 77.5981L158.399 77.1632L158.896 77.3515C159.469 77.5679 172.922 82.6876 182.931 90.706C188.753 95.3688 190.73 95.6982 193.465 96.153C194.326 96.2968 195.302 96.4584 196.472 96.7727C197.739 97.1124 200.037 98.0451 202.262 98.9477L203.373 99.3983C209.294 101.788 212.665 101.147 214.449 100.188L215.631 99.553L215.452 100.882C215.263 102.281 214.344 104.775 210.301 105.762C209.397 105.982 208.222 106.092 206.853 106.092ZM209.977 104.43C212.105 103.911 213.173 102.948 213.688 101.978C211.47 102.662 208.015 102.748 202.861 100.667L201.747 100.216C199.664 99.3702 197.302 98.4121 196.118 98.0944C195.012 97.7972 194.111 97.6479 193.24 97.5027C190.41 97.0316 188.175 96.6597 182.074 91.7729C173.157 84.629 161.436 79.8168 158.898 78.8191C158.37 79.5299 157.833 80.1634 157.311 80.7797C156.002 82.3232 154.872 83.6559 154.659 85.4213C154.48 86.9108 155.476 88.3749 160.924 90.68C165.129 92.4605 168.901 93.2555 172.23 93.9575C175.851 94.721 178.978 95.3805 181.538 97.0843C190.646 103.15 204.849 105.683 209.977 104.43Z" fill="#EB8266"/>
<path d="M191.318 77.4197C188.893 77.0567 185.675 77.5909 185.634 77.5977C185.257 77.6593 184.908 77.4128 184.839 77.0362C184.778 76.6664 185.031 76.3103 185.401 76.2486C185.545 76.2281 187.818 75.8514 190.105 75.9405C190.496 76.4198 190.9 76.9198 191.318 77.4197Z" fill="white"/>
<path d="M196.078 82.8347C193.558 82.4991 190.168 83.7934 190.134 83.8071C190.052 83.8413 189.969 83.855 189.887 83.855C189.606 83.855 189.353 83.6838 189.244 83.4167C189.107 83.0606 189.285 82.6635 189.634 82.5333C189.778 82.4717 192.284 81.5198 194.784 81.424C195.208 81.8965 195.64 82.369 196.078 82.8347Z" fill="white"/>
<path d="M238.425 280.727H132.057V281.411H238.425V280.727Z" fill="black"/>
<path d="M174.314 180.324H143.623V185.114H174.314V180.324Z" fill="#DAE0E8"/>
<path d="M179.561 191.862H138.373V196.652H179.561V191.862Z" fill="#DAE0E8"/>
<path d="M230.265 180.324H199.574V185.114H230.265V180.324Z" fill="#DAE0E8"/>
<path d="M235.512 191.862H194.324V196.652H235.512V191.862Z" fill="#DAE0E8"/>
<path d="M184.617 47.9053C184.336 47.9053 184.055 47.9053 183.774 47.919V52.0278C184.055 52.0141 184.336 52.0141 184.617 52.0141C214.255 52.0141 238.367 76.1262 238.367 105.765C238.367 135.403 214.255 159.515 184.617 159.515C176.748 159.515 169.16 157.844 162.066 154.557C161.874 154.468 161.675 154.372 161.484 154.283L159.689 157.975C159.902 158.077 160.121 158.18 160.34 158.283C167.976 161.83 176.145 163.624 184.617 163.624C216.522 163.624 242.476 137.67 242.476 105.765C242.476 73.8595 216.522 47.9053 184.617 47.9053Z" fill="#20A79B"/>
<path d="M380.474 56.5646L370.959 66.3868L371.451 66.8638L380.966 57.0416L380.474 56.5646Z" fill="#E76C6E"/>
<path d="M388.939 68.0021L373.963 75.7031L374.276 76.3115L389.252 68.6105L388.939 68.0021Z" fill="#E76C6E"/>
<path d="M299.387 306.227L306.443 292.279L294.879 288.224L290.115 302.976L299.387 306.227Z" fill="#FFB486"/>
<path d="M299.13 315.95C299.781 316.157 300.464 315.741 300.58 315.067L302.343 304.774C302.43 303.925 301.63 303.261 300.811 303.495C295.979 304.875 292.164 302.474 290.665 300.161C290.224 299.479 289.325 299.244 288.588 299.586C287.532 300.074 286.007 300.655 284.474 300.811C281.068 301.156 271.102 300.916 269.192 302.421C268.826 302.71 268.298 303.84 267.921 304.731C267.663 305.341 267.985 306.041 268.617 306.242L299.13 315.95Z" fill="#48393E"/>
<path d="M394.335 294.182L389.276 282.496L377.908 288.027L385.534 298.358C385.534 298.358 388.943 301.98 392.202 300.196C395.699 298.283 394.335 294.182 394.335 294.182Z" fill="#FFB486"/>
<path d="M372.113 314.921L387.882 314.939L401.779 300.383C402.385 299.749 402.375 298.748 401.757 298.125L395.741 292.061C395.287 291.603 394.496 291.807 394.339 292.432C392.897 298.159 386.879 297.993 384.471 297.685C383.891 297.61 383.348 297.975 383.189 298.539C382.611 300.605 381.266 305.179 380.399 306.34C378.816 308.461 376.691 309.587 374.809 310.565C371.019 312.534 372.113 314.921 372.113 314.921Z" fill="#48393E"/>
<path d="M304.626 297.898L291.75 291.592C298.766 249.325 327.977 149.266 327.977 149.266L358.619 149.297C360.172 158.987 353.518 183.404 345.892 204.111C337.372 227.249 333.475 230.773 331.592 242.684C327.858 266.299 304.626 297.898 304.626 297.898Z" fill="#2FB99F"/>
<path d="M301.074 296.223L300.52 295.822C300.706 295.563 319.307 269.606 325.686 242.268C330.679 220.869 340.364 207.824 340.462 207.695L341.009 208.108C340.912 208.235 331.311 221.174 326.353 242.423C319.942 269.899 301.263 295.964 301.074 296.223Z" fill="white"/>
<path d="M390.416 283.72C384.322 291.107 379.387 291.591 379.387 291.591C379.387 291.591 346.323 254.599 340.735 241.485C333.247 223.914 330.76 152.355 330.76 152.355C330.76 152.355 358.027 153.247 360.588 157.368C369.44 171.618 370.422 182.718 367.282 217.255C367.038 219.94 366.583 227.746 367.82 229.908C371.424 236.203 378.385 246.716 382.406 256.07C387.008 266.775 390.416 283.72 390.416 283.72Z" fill="#2FB99F"/>
<path d="M387.647 286.937C387.572 286.634 379.907 256.445 365.148 237.837C361.326 233.02 359.618 229.73 360.247 224.066C363.457 195.166 358.907 169.783 352.754 159.647L353.34 159.291C359.553 169.527 364.155 195.089 360.928 224.141C360.326 229.567 361.982 232.743 365.685 237.412C380.537 256.137 388.237 286.467 388.313 286.771L387.647 286.937Z" fill="white"/>
<path d="M340.416 241.622C337.296 234.3 334.665 217.055 332.596 190.367L328.475 185.331L329.004 184.897L333.261 190.1L333.27 190.207C335.306 216.505 337.994 234.191 341.046 241.352L340.416 241.622Z" fill="#48393E"/>
<path d="M336.264 95.6839C336.264 95.6839 338.474 89.4939 337.765 78.9787L346.721 75.4307C346.721 75.4307 347.503 83.7018 352.963 93.5891C347.936 97.0131 335.823 104.44 336.264 95.6839Z" fill="#FFB486"/>
<path d="M319.2 164.178C337.23 179.704 371.813 171.869 371.813 171.869C371.813 171.869 369.149 158.542 369.04 151.399C368.696 128.959 371.498 105.818 351.728 90.0486C347.643 92.8433 337.29 100.673 336.618 94.5978C314.819 115.156 319.2 164.178 319.2 164.178Z" fill="#F47557"/>
<path d="M301.477 105.989L294.377 82.9154C294.265 82.5476 294.708 82.1326 295.101 82.2374L298.849 83.2092C299.152 83.2852 299.375 83.4886 299.461 83.7673L306.363 105.87C306.466 106.195 306.082 106.628 305.7 106.618L302.209 106.51C301.848 106.497 301.575 106.302 301.477 105.989Z" fill="#48393E"/>
<path d="M301.542 106.388C301.385 106.417 301.228 106.324 301.18 106.167L294.047 82.7708C293.996 82.6023 294.091 82.4236 294.259 82.3722C294.43 82.3181 294.606 82.4161 294.657 82.5845L301.79 105.981C301.842 106.149 301.746 106.328 301.578 106.38C301.567 106.384 301.555 106.386 301.542 106.388Z" fill="white"/>
<path d="M306.2 113.893C306.2 113.893 300.195 107.778 299.154 105.141C298.275 102.914 297.999 94.361 299.016 94.133C301.092 93.668 302.881 103.031 304.864 103.304C305.442 103.384 305.18 99.9648 306.044 100.128C306.566 100.227 306.922 101.467 307.388 103.52C307.659 104.71 309.469 111.35 309.469 111.35L306.2 113.893Z" fill="#FFB486"/>
<path d="M350.905 137.555C350.228 139.279 344.233 136.054 339.137 132.425C334.042 128.796 330.49 125.041 331.205 124.038C331.919 123.036 336.628 125.165 341.724 128.794C346.819 132.423 351.515 135.999 350.905 137.555Z" fill="#48393E"/>
<path d="M347.481 101.246C336.057 100.633 332.008 128.409 332.008 128.409L308.652 108.959L304.521 112.118C304.521 112.118 315.557 134.053 323.139 143.509C326.796 148.069 339.097 155.093 345.824 141.412C350.673 131.552 365.339 102.205 347.481 101.246Z" fill="#FFB486"/>
<path d="M327.646 67.0065C327.646 67.0065 324.87 63.9687 326.585 60.937C327.822 58.7497 331.468 58.623 331.468 58.623C330.237 60.1111 327.646 67.0065 327.646 67.0065Z" fill="#48393E"/>
<path d="M346.836 80.4192C344.972 82.2559 337.166 87.2317 332.396 85.984C326.365 84.4062 325.509 61.776 331.18 58.2211C334.227 56.3112 341.843 57.6863 345.509 63.2901C349.176 68.8925 349.324 77.9669 346.836 80.4192Z" fill="#FFB486"/>
<path d="M342.113 73.9489C342.113 73.9489 341.63 70.9391 341.534 70.9665C336.062 72.432 328.705 68.7854 327.869 63.1152C326.76 55.5755 338.299 50.186 347.085 54.6784C355.59 59.02 355.34 64.8546 356.672 70.0016C357.836 74.496 372.524 71.9636 365.064 88.6003L350.14 92.1168C345.026 89.3454 338.626 82.1892 342.113 73.9489Z" fill="#48393E"/>
<path d="M350.302 49.1962C358.082 49.0572 358.414 57.6892 351.169 60.0757L342.566 54.4898C342.075 49.6468 345.692 46.5426 350.302 49.1962Z" fill="#48393E"/>
<path d="M340.482 54.1922C340.187 51.9337 341.801 48.322 344.248 47.2243C345.509 46.6573 347.482 46.521 349.712 49.0931L349.194 49.5417C347.648 47.7585 346.036 47.1729 344.528 47.8488C342.4 48.8042 340.898 52.0864 341.161 54.1039L340.482 54.1922Z" fill="#48393E"/>
<path d="M335.859 71.4875C333.353 71.4875 331.367 70.8266 329.931 69.5104C327.249 67.052 327.514 63.2472 327.526 63.0869L328.208 63.1403C328.205 63.1766 327.962 66.7815 330.398 69.0105C332.188 70.6479 334.97 71.1649 338.659 70.5541L338.771 71.2293C337.735 71.4012 336.763 71.4875 335.859 71.4875Z" fill="#48393E"/>
<path d="M337.408 72.586C336.968 74.1275 338.009 76.5031 339.55 76.9435C341.091 77.3838 342.55 75.7211 342.99 74.1796C343.431 72.6381 342.538 71.0322 340.996 70.5919C339.455 70.1515 337.849 71.0445 337.408 72.586Z" fill="#FFB486"/>
<path d="M352.684 61.2545L352.39 60.6361C352.456 60.6053 358.899 57.4825 357.201 53.1662C355.485 48.8012 349.565 49.6483 349.505 49.6566L349.402 48.98C349.467 48.9683 355.925 48.0473 357.839 52.9156C359.77 57.8256 352.756 61.2202 352.684 61.2545Z" fill="#48393E"/>
<path d="M335.82 86.3589L335.709 85.6837C335.746 85.6776 339.407 85.064 340.97 83.8525L341.389 84.3935C339.689 85.7118 335.977 86.3336 335.82 86.3589Z" fill="#48393E"/>
<path d="M350.937 137.044C350.916 135.661 346.393 132.116 341.722 128.794C337.107 125.507 332.813 123.446 331.512 123.836C332.073 120.775 337.319 94.5677 351.193 100.382C367.17 107.072 350.937 137.044 350.937 137.044Z" fill="#F47557"/>
<path d="M331.803 124.459L331.125 124.366C331.221 123.665 333.573 107.131 342.194 101.525C345.055 99.6646 348.296 99.2394 351.83 100.261L351.64 100.919C348.305 99.955 345.255 100.351 342.568 102.099C334.211 107.532 331.826 124.29 331.803 124.459Z" fill="#48393E"/>
<path d="M350.72 137.897L350.23 137.418C350.606 136.901 356.555 125.127 357.365 115.217L358.047 115.272C357.209 125.551 351.005 137.605 350.72 137.897Z" fill="#48393E"/>
<path d="M353.58 169.341C333.701 169.341 318.972 160.514 318.785 160.4L319.142 159.815C319.377 159.959 343.012 174.113 370.765 166.314L370.949 166.974C364.902 168.673 359.045 169.341 353.58 169.341Z" fill="white"/>
<path d="M353.58 166.603C333.7 166.603 318.971 157.775 318.785 157.661L319.142 157.076C319.375 157.219 342.77 171.231 370.333 163.695L370.514 164.356C364.621 165.966 358.914 166.603 353.58 166.603Z" fill="white"/>
<path d="M382.718 310.124C380.576 310.124 378.736 308.274 378.656 308.192L379.145 307.713C379.163 307.731 380.967 309.527 382.884 309.435L382.923 310.119C382.854 310.122 382.786 310.124 382.718 310.124Z" fill="white"/>
<path d="M383.43 306.694C381.779 306.694 380.721 305.719 380.668 305.67L381.137 305.171C381.189 305.22 382.454 306.369 384.336 305.895L384.503 306.56C384.124 306.654 383.765 306.694 383.43 306.694Z" fill="white"/>
</svg>
