<svg width="324" height="296" viewBox="0 0 324 296" fill="none" xmlns="http://www.w3.org/2000/svg">
<path d="M276.355 232.319C276.355 233.442 266.641 234.353 254.659 234.353C242.677 234.353 232.963 233.442 232.963 232.319C232.963 231.196 242.677 230.285 254.659 230.285C266.641 230.285 276.355 231.196 276.355 232.319Z" fill="#6A9FD6"/>
<path d="M185.275 100.232C185.275 100.232 207.311 115.201 210.816 127.576C214.321 139.95 232.028 172.988 247.323 179.974C247.323 179.974 224.051 110.762 185.275 100.232Z" fill="#00756A"/>
<path d="M252.544 198.533C252.544 198.533 234.497 114.233 185.277 100.232C185.277 100.232 211.076 108.119 218.232 130.554C225.389 152.988 238.792 172.945 244.909 180.195C244.909 180.195 248.162 182.066 252.544 198.533Z" fill="#00C44E"/>
<path d="M316.806 98.5093C316.806 98.5093 311.045 109.008 311.918 116.034C312.791 123.059 310.624 131.998 300.647 142.889C290.67 153.78 266.794 166.135 262.617 186.385C262.617 186.385 268.55 145.029 316.806 98.5093Z" fill="#00756A"/>
<path d="M258.439 206.636C258.439 206.636 263.6 126.066 323.571 94.609C323.571 94.609 312.013 104.557 309.183 113.839C306.354 123.121 294.41 142.611 281.613 152.108C268.817 161.605 261.963 183.632 258.439 206.636Z" fill="#00C44E"/>
<path d="M249.937 103.88C249.937 103.88 250.328 113.757 247.098 118.626C243.867 123.495 242.178 130.896 245.541 142.615C248.903 154.333 261.995 172.248 257.628 188.746C257.628 188.746 268.464 156.009 249.937 103.88Z" fill="#00756A"/>
<path d="M253.26 205.243C253.26 205.243 279.101 143.821 246.373 98.5083C246.373 98.5083 251.251 110.111 249.925 118.011C248.599 125.91 250.25 144.704 256.208 156.43C262.166 168.156 259.122 186.952 253.26 205.243Z" fill="#00C44E"/>
<path d="M241.9 232.359H270.355L275.332 198.161H236.922L241.9 232.359Z" fill="#874817"/>
<path d="M237.391 201.384L236.922 198.161H275.332L274.863 201.384H237.391Z" fill="#753F14"/>
<path d="M237.807 199.34H274.445C276.832 199.34 278.767 197.405 278.767 195.018V192.106C278.767 189.718 276.832 187.784 274.445 187.784H237.807C235.419 187.784 233.484 189.718 233.484 192.106V195.018C233.484 197.405 235.419 199.34 237.807 199.34Z" fill="#875026"/>
<path d="M239.409 215.26L238.242 207.241H274.009L272.842 215.26H239.409Z" fill="#A35E2A"/>
<path d="M166.869 230.943C166.869 232.427 134.894 233.628 95.4511 233.628C56.0081 233.628 24.0332 232.426 24.0332 230.943C24.0332 229.46 56.0081 228.258 95.4511 228.258C134.894 228.258 166.869 229.461 166.869 230.943Z" fill="#6A9FD6"/>
<path d="M149.528 230.238H40.6955C38.6364 230.238 36.9668 228.568 36.9668 226.509V23.8869C36.9668 21.6937 38.7451 19.9154 40.9383 19.9154H149.285C151.478 19.9154 153.256 21.6937 153.256 23.8869V226.509C153.256 228.568 151.587 230.238 149.528 230.238Z" fill="#BDCCD4"/>
<path d="M159.722 230.238H50.8889C48.8297 230.238 47.1602 228.568 47.1602 226.509V23.8869C47.1602 21.6937 48.9384 19.9154 51.1316 19.9154H159.478C161.671 19.9154 163.45 21.6937 163.45 23.8869V226.509C163.45 228.568 161.781 230.238 159.722 230.238Z" fill="white"/>
<path d="M157.262 210.763H55.5738C54.6148 210.763 53.8379 209.985 53.8379 209.027V29.4406C53.8379 28.4816 54.6148 27.7047 55.5738 27.7047H157.262C158.221 27.7047 158.998 28.4823 158.998 29.4406V209.027C158.999 209.985 158.221 210.763 157.262 210.763Z" fill="#240859"/>
<path d="M126.879 32.5813H83.7274C78.5577 32.5813 73.9759 29.2513 72.3811 24.3335L72.3613 24.2736H138.245L138.226 24.3335C136.63 29.2513 132.049 32.5813 126.879 32.5813Z" fill="white"/>
<path d="M111.983 221.545C112.709 218.48 110.813 215.407 107.748 214.681C104.683 213.954 101.61 215.85 100.884 218.915C100.157 221.98 102.053 225.054 105.118 225.78C108.183 226.506 111.257 224.61 111.983 221.545Z" fill="#A2D9FD"/>
<path d="M41.8878 77.6218C40.5237 77.6218 39.418 76.516 39.418 75.152V53.2765C39.418 51.9124 40.5237 50.8066 41.8878 50.8066C43.2518 50.8066 44.3576 51.9124 44.3576 53.2765V75.152C44.3576 76.516 43.2518 77.6218 41.8878 77.6218Z" fill="white"/>
<path d="M41.8878 110.317C40.5237 110.317 39.418 109.211 39.418 107.847V85.9714C39.418 84.6074 40.5237 83.5016 41.8878 83.5016C43.2518 83.5016 44.3576 84.6074 44.3576 85.9714V107.847C44.3576 109.211 43.2518 110.317 41.8878 110.317Z" fill="white"/>
<path d="M44.3561 53.2755V75.151C44.3561 76.5129 43.2553 77.6208 41.8863 77.6208C41.6675 77.6208 41.4488 77.5926 41.2441 77.5291C42.2885 77.2468 43.0647 76.2871 43.0647 75.151V53.2755C43.0647 52.598 42.7895 51.9771 42.3379 51.5325C42.0415 51.2291 41.6675 51.0033 41.2441 50.8974C41.4488 50.8339 41.6675 50.8057 41.8863 50.8057C42.5708 50.8057 43.1847 51.0809 43.6363 51.5325C44.0809 51.9771 44.3561 52.598 44.3561 53.2755Z" fill="#9BBBCC"/>
<path d="M44.3561 85.9685V107.844C44.3561 109.213 43.2553 110.314 41.8863 110.314C41.6675 110.314 41.4488 110.286 41.2441 110.222C42.2885 109.947 43.0647 108.987 43.0647 107.844V85.9685C43.0647 85.284 42.7895 84.6701 42.3379 84.2255C42.0415 83.9221 41.6675 83.6962 41.2441 83.5904C41.4488 83.5269 41.6675 83.4987 41.8863 83.4987C42.5708 83.4987 43.1847 83.7739 43.6363 84.2255C44.0809 84.6701 44.3561 85.284 44.3561 85.9685Z" fill="#9BBBCC"/>
<path d="M91.4669 29.0853C92.7958 29.0853 93.8732 28.008 93.8732 26.679C93.8732 25.35 92.7958 24.2727 91.4669 24.2727C90.1379 24.2727 89.0605 25.35 89.0605 26.679C89.0605 28.008 90.1379 29.0853 91.4669 29.0853Z" fill="#A2D9FD"/>
<path d="M123.461 27.3843H99.1158C98.7263 27.3843 98.4102 27.0682 98.4102 26.6787C98.4102 26.2892 98.7263 25.973 99.1158 25.973H123.461C123.851 25.973 124.167 26.2892 124.167 26.6787C124.167 27.0689 123.851 27.3843 123.461 27.3843Z" fill="#779FBA"/>
<path d="M141.216 109.536C149.216 90.223 140.045 68.0816 120.732 60.0818C101.419 52.0819 79.2779 61.253 71.278 80.566C63.2781 99.8789 72.4492 122.02 91.7622 130.02C111.075 138.02 133.217 128.849 141.216 109.536Z" fill="#37339E"/>
<path d="M125.019 104.166C125.173 103.787 125.638 102.353 124.755 100.453C124.734 100.414 122.659 96.5782 122.316 93.2172C122.296 93.0252 122.149 92.8827 121.969 92.8481C122.156 92.6145 122.295 92.3372 122.357 92.0232L124.159 82.8877C124.205 82.6562 124.054 82.4318 123.823 82.3867C123.59 82.3415 123.367 82.4918 123.322 82.7226L121.52 91.8574C121.414 92.393 120.924 92.7571 120.382 92.7013L111.044 91.7677C110.294 91.6929 109.618 91.259 109.238 90.6076L107.608 87.8174C107.489 87.6135 107.227 87.5451 107.024 87.6643C106.82 87.7836 106.752 88.0447 106.871 88.2479L108.501 91.0381C109.019 91.9251 109.938 92.515 110.96 92.6174L120.297 93.5509C120.362 93.5573 120.427 93.5608 120.491 93.5608C120.845 93.5608 121.178 93.4613 121.466 93.2891C121.468 93.3258 121.582 95.3723 120.54 96.9353C119.344 98.7312 118.952 104.904 119.49 106.751C120.056 108.692 120.528 112.214 119.742 113.605C119.679 113.717 119.669 113.85 119.716 113.969C119.729 114.005 121.089 117.522 122.171 121.56C122.222 121.751 122.394 121.876 122.583 121.876C122.619 121.876 122.656 121.871 122.693 121.861C122.921 121.801 123.056 121.566 122.995 121.338C122.042 117.778 120.873 114.614 120.58 113.84C121.517 111.845 120.688 107.809 120.31 106.512C119.833 104.876 120.203 98.9803 121.25 97.4088C121.584 96.9078 121.816 96.3708 121.975 95.8549C122.716 98.4786 123.935 100.732 123.993 100.837C124.812 102.599 124.236 103.831 124.212 103.88C124.184 103.937 124.169 103.998 124.167 104.061C124.032 109.599 124.979 114.255 125.797 117.186C125.86 117.413 126.096 117.546 126.323 117.482C126.55 117.419 126.683 117.184 126.619 116.956C125.821 114.096 124.898 109.562 125.019 104.166Z" fill="#33F1FF"/>
<path d="M91.0235 93.2891C91.3114 93.4613 91.6445 93.5608 91.9981 93.5608C92.0623 93.5608 92.1272 93.5573 92.1921 93.5509L101.529 92.6174C102.551 92.515 103.469 91.9251 103.987 91.0381L105.617 88.2479C105.736 88.0447 105.667 87.7829 105.464 87.6643C105.261 87.5451 104.999 87.6135 104.881 87.8174L103.251 90.6076C102.87 91.259 102.195 91.6929 101.444 91.7677L92.1074 92.7013C91.5655 92.7571 91.0751 92.3929 90.9692 91.8573L89.1669 82.7226C89.1218 82.4918 88.8995 82.3415 88.6659 82.3867C88.4352 82.4318 88.2842 82.6569 88.33 82.8877L90.1323 92.0232C90.1944 92.3372 90.3327 92.6152 90.5197 92.8481C90.3405 92.8827 90.193 93.0252 90.1732 93.2172C89.831 96.5733 87.7549 100.414 87.721 100.478C86.8488 102.356 87.3153 103.787 87.4698 104.165C87.5912 109.56 86.6682 114.094 85.8694 116.953C85.8059 117.181 85.9386 117.416 86.1658 117.479C86.3937 117.543 86.628 117.409 86.6915 117.183C87.5093 114.252 88.4556 109.597 88.3209 104.06C88.3195 104 88.3039 103.938 88.2771 103.883C88.2524 103.831 87.6766 102.598 88.4825 100.861C88.5495 100.737 89.771 98.4793 90.5133 95.8542C90.6728 96.3708 90.9043 96.9071 91.2381 97.4081C92.286 98.9796 92.6564 104.875 92.1794 106.511C91.8012 107.808 90.9713 111.843 91.9091 113.839C91.6163 114.614 90.447 117.777 89.4937 121.338C89.433 121.565 89.5678 121.799 89.7957 121.86C89.8324 121.87 89.8698 121.875 89.9065 121.875C90.0949 121.875 90.2678 121.749 90.3186 121.559C91.3997 117.523 92.7602 114.003 92.7736 113.969C92.8202 113.849 92.8103 113.715 92.7475 113.604C91.9607 112.213 92.4327 108.692 92.9994 106.75C93.5378 104.904 93.1462 98.7305 91.9487 96.9346C90.9128 95.3814 91.0214 93.3294 91.0235 93.2891Z" fill="#33F1FF"/>
<path d="M91.3774 72.01C92.8614 71.1625 96.2655 69.0356 96.2994 69.0144C96.4991 68.8895 96.5598 68.6263 96.4349 68.4266C96.31 68.2269 96.0468 68.1662 95.8471 68.2911C95.8132 68.3123 92.4232 70.43 90.954 71.2697C90.6414 71.4483 90.1672 71.6275 89.6189 71.835C87.6734 72.5703 84.7336 73.6817 83.5135 76.8198C82.0401 80.6099 82.0542 82.5483 82.2687 85.0224C81.9378 85.9016 79.6063 92.2653 79.643 96.8768C79.3558 97.574 77.5196 102.168 77.725 105.309C77.7638 105.902 77.8068 106.626 77.8555 107.436C78.0249 110.269 78.2577 114.149 78.5711 117.114C78.5943 117.333 78.7792 117.495 78.9952 117.495C79.01 117.495 79.0255 117.495 79.0403 117.493C79.2746 117.468 79.4447 117.258 79.42 117.023C79.1088 114.079 78.8766 110.21 78.708 107.384C78.6593 106.573 78.6155 105.846 78.5767 105.252C78.3721 102.121 80.4432 97.1746 80.4643 97.1252C80.4876 97.0708 80.4989 97.0115 80.4975 96.953C80.4284 92.2561 83.0746 85.3046 83.1007 85.2348C83.124 85.1741 83.1332 85.1092 83.1275 85.0442C82.9095 82.5709 82.8798 80.8039 84.3088 77.1281C85.3913 74.3443 88.0093 73.355 89.9209 72.6324C90.5031 72.4122 91.0062 72.2224 91.3774 72.01Z" fill="#33F1FF"/>
<path d="M132.843 96.8758C132.88 92.2643 130.548 85.9007 130.217 85.0214C130.432 82.5473 130.446 80.6089 128.973 76.8188C127.752 73.6807 124.812 72.5693 122.867 71.834C122.319 71.6265 121.845 71.4473 121.532 71.2688C120.063 70.429 116.674 68.3113 116.639 68.2902C116.439 68.1653 116.175 68.2259 116.051 68.4256C115.926 68.6254 115.987 68.8886 116.187 69.0135C116.221 69.0346 119.625 71.1615 121.109 72.009C121.48 72.2214 121.983 72.4112 122.565 72.6314C124.477 73.354 127.095 74.3433 128.177 77.1272C129.607 80.8029 129.577 82.5699 129.359 85.0433C129.354 85.1082 129.363 85.1731 129.386 85.2338C129.413 85.3037 132.058 92.2523 131.989 96.952C131.989 97.0113 132 97.0699 132.023 97.1242C132.044 97.1736 134.115 102.117 133.91 105.251C133.871 105.845 133.828 106.569 133.78 107.377C133.619 110.057 133.399 113.726 133.109 116.616C133.085 116.85 133.256 117.06 133.49 117.083C133.505 117.085 133.519 117.085 133.534 117.085C133.75 117.085 133.936 116.921 133.958 116.701C134.25 113.795 134.471 110.115 134.632 107.428C134.68 106.621 134.724 105.898 134.762 105.306C134.967 102.167 133.131 97.573 132.843 96.8758Z" fill="#33F1FF"/>
<path d="M95.5789 72.6435C95.5443 72.8764 95.7052 73.0937 95.9381 73.1283C97.3748 73.3414 101.293 74.0266 102.16 74.6222C102.473 74.8374 102.847 75.1295 103.244 75.4386C104.598 76.4943 105.538 77.1865 106.243 77.1865C106.948 77.1865 107.888 76.4943 109.241 75.4386C109.638 75.1295 110.012 74.8374 110.325 74.6222C111.192 74.0266 115.11 73.3414 116.547 73.1283C116.78 73.0937 116.941 72.8764 116.906 72.6435C116.872 72.4106 116.652 72.2504 116.421 72.2843C115.872 72.3662 111.027 73.105 109.841 73.9193C109.507 74.1494 109.123 74.4486 108.716 74.7661C107.916 75.3906 106.706 76.3334 106.242 76.3334C105.778 76.3334 104.568 75.3899 103.768 74.7661C103.362 74.4493 102.977 74.1494 102.643 73.9193C101.458 73.105 96.612 72.3662 96.063 72.2843C95.8336 72.2504 95.6135 72.4106 95.5789 72.6435Z" fill="#33F1FF"/>
<path d="M115.678 99.493C115.468 99.3878 115.211 99.4732 115.106 99.6835L113.96 101.976C113.739 102.419 113.245 102.654 112.762 102.548L107.422 101.369C106.985 101.273 106.669 100.879 106.669 100.432V96.6026C106.669 96.3669 106.478 96.1757 106.242 96.1757C106.007 96.1757 105.815 96.3669 105.815 96.6026V100.432C105.815 100.878 105.499 101.273 105.063 101.369L99.7228 102.548C99.238 102.655 98.7461 102.419 98.5246 101.976L97.3786 99.6835C97.2734 99.4725 97.0173 99.3871 96.8063 99.493C96.5953 99.5981 96.5099 99.8543 96.6158 100.065L97.7618 102.358C98.0948 103.023 98.7687 103.427 99.4885 103.427C99.6268 103.427 99.7672 103.412 99.907 103.381L105.247 102.203C105.647 102.115 105.992 101.892 106.242 101.592C106.494 101.892 106.838 102.115 107.238 102.203L112.578 103.381C112.718 103.412 112.858 103.427 112.996 103.427C113.716 103.427 114.391 103.023 114.723 102.358L115.869 100.065C115.975 99.855 115.889 99.5988 115.678 99.493Z" fill="#33F1FF"/>
<path d="M114.471 105.881C114.26 105.776 114.003 105.861 113.898 106.072L112.902 108.065C112.721 108.427 112.319 108.619 111.922 108.532L107.281 107.507C106.921 107.428 106.67 107.115 106.67 106.747V103.419C106.67 103.183 106.479 102.992 106.243 102.992C106.008 102.992 105.816 103.183 105.816 103.419V106.747C105.816 107.115 105.565 107.427 105.205 107.507L100.563 108.532C100.168 108.619 99.7653 108.427 99.5839 108.065L98.5876 106.072C98.4824 105.861 98.2263 105.776 98.0153 105.881C97.8043 105.987 97.7189 106.243 97.8247 106.453L98.8211 108.446C99.1196 109.043 99.7258 109.406 100.372 109.406C100.496 109.406 100.622 109.393 100.748 109.365L105.39 108.341C105.729 108.266 106.022 108.082 106.244 107.835C106.466 108.082 106.759 108.266 107.098 108.341L111.739 109.365C111.865 109.393 111.99 109.405 112.115 109.405C112.761 109.405 113.367 109.043 113.666 108.446L114.663 106.453C114.766 106.242 114.681 105.986 114.471 105.881Z" fill="#33F1FF"/>
<path d="M112.468 112.426C112.251 112.334 112.001 112.435 111.908 112.651C111.893 112.687 110.338 116.233 106.433 116.233H106.243C102.355 116.233 100.831 112.797 100.768 112.651C100.676 112.435 100.425 112.334 100.209 112.426C99.992 112.519 99.8911 112.769 99.9835 112.986C100.001 113.027 101.782 117.086 106.243 117.086H106.433C110.896 117.086 112.676 113.026 112.693 112.986C112.786 112.769 112.685 112.519 112.468 112.426Z" fill="#33F1FF"/>
<path d="M107.168 111.713C107.168 111.033 106.812 110.521 106.339 110.521C105.866 110.521 105.51 111.033 105.51 111.713C105.51 112.392 105.866 112.905 106.339 112.905C106.812 112.905 107.168 112.392 107.168 111.713ZM106.173 111.713C106.173 111.391 106.299 111.203 106.328 111.183C106.378 111.203 106.505 111.391 106.505 111.713C106.505 112.035 106.378 112.222 106.349 112.243C106.299 112.222 106.173 112.035 106.173 111.713Z" fill="#33F1FF"/>
<path d="M138.18 126.989C155.819 109.349 155.819 80.7505 138.18 63.1112C120.54 45.4719 91.9413 45.4719 74.302 63.1112C56.6628 80.7505 56.6628 109.349 74.302 126.989C91.9413 144.628 120.54 144.628 138.18 126.989Z" stroke="#FF790A" stroke-width="2" stroke-miterlimit="10" stroke-dasharray="4.93 6.9"/>
<path d="M58.5505 167.158C63.0135 157.25 58.5995 145.6 48.6916 141.137C38.7836 136.674 27.1337 141.089 22.6708 150.997C18.2078 160.905 22.6218 172.556 32.5297 177.018C42.4377 181.481 54.0876 177.067 58.5505 167.158Z" fill="white"/>
<path d="M52.7888 156.529C52.7937 153.02 49.9548 150.172 46.4484 150.165C43.9496 150.162 41.7924 151.604 40.7509 153.7C39.7185 151.6 37.5648 150.15 35.0661 150.146C31.5589 150.14 28.7102 152.977 28.7031 156.487C28.7031 156.792 28.7321 157.091 28.7737 157.384L28.768 157.386C28.768 157.386 28.78 157.514 28.8273 157.744C28.8323 157.763 28.8351 157.783 28.8393 157.803C29.1886 159.437 31.0988 165.61 40.7227 170.658C51.9349 164.826 52.726 157.428 52.726 157.428L52.7154 157.427C52.757 157.132 52.7873 156.835 52.7888 156.529Z" fill="#FF3E5E"/>
<path d="M41.076 162.221C41.0549 162.221 41.033 162.221 41.0111 162.218C40.7507 162.197 40.5178 162.051 40.3852 161.825L38.4862 158.613L36.6932 161.811C36.5513 162.064 36.2832 162.221 35.9931 162.221H27.8336C27.3904 162.221 27.0312 161.862 27.0312 161.419C27.0312 160.976 27.3904 160.617 27.8336 160.617H35.5232L37.7679 156.612C37.9076 156.361 38.1722 156.206 38.4587 156.203C38.7544 156.205 39.0134 156.351 39.1587 156.598L41.1882 160.032L42.8007 158.096C42.9587 157.904 43.1697 157.801 43.4478 157.807C43.6954 157.818 43.9262 157.941 44.0709 158.144L45.8371 160.617H52.4471C52.8902 160.617 53.2494 160.976 53.2494 161.419C53.2494 161.861 52.8902 162.221 52.4471 162.221H45.4243C45.1653 162.221 44.9219 162.096 44.7709 161.885L43.3687 159.922L41.6935 161.933C41.5389 162.116 41.3131 162.221 41.076 162.221Z" fill="white"/>
<path d="M94.5937 190.266H72.2278C69.7107 190.266 67.6699 188.225 67.6699 185.708V163.342C67.6699 160.825 69.7107 158.784 72.2278 158.784H94.593C97.1108 158.784 99.1516 160.825 99.1516 163.342V185.708C99.1516 188.225 97.1108 190.266 94.5937 190.266Z" fill="#37339E"/>
<path d="M93.0332 162.943H74.2274C73.0249 162.943 72.0469 163.921 72.0469 165.123V183.929C72.0469 185.132 73.0249 186.11 74.2274 186.11H93.0332C94.2357 186.11 95.2137 185.132 95.2137 183.929V165.123C95.2137 163.92 94.2357 162.943 93.0332 162.943ZM73.3382 165.123C73.3382 164.633 73.7376 164.233 74.2274 164.233H93.0332C93.5237 164.233 93.9224 164.632 93.9224 165.123V183.928C93.9224 184.418 93.5237 184.818 93.0332 184.818H74.2274C73.7369 184.818 73.3382 184.419 73.3382 183.928V165.123Z" fill="#4F4AE3"/>
<path d="M76.2935 170.838H90.9656C91.2246 170.838 91.4349 170.628 91.4349 170.369V166.169C91.4349 165.91 91.2246 165.699 90.9656 165.699H76.2935C76.0345 165.699 75.8242 165.91 75.8242 166.169V170.369C75.8242 170.628 76.0345 170.838 76.2935 170.838ZM76.7627 166.637H90.4963V169.899H76.7627V166.637Z" fill="#4F4AE3"/>
<path d="M77.7831 167.283C77.6533 167.283 77.5488 167.389 77.5488 167.518V168.866C77.5488 168.996 77.654 169.101 77.7831 169.101C77.9129 169.101 78.0181 168.995 78.0181 168.866V167.518C78.0181 167.388 77.9129 167.283 77.7831 167.283Z" fill="#4F4AE3"/>
<path d="M79.0663 167.283C78.9365 167.283 78.832 167.389 78.832 167.518V168.866C78.832 168.996 78.9372 169.101 79.0663 169.101C79.1962 169.101 79.3006 168.995 79.3006 168.866V167.518C79.3006 167.388 79.1954 167.283 79.0663 167.283Z" fill="#4F4AE3"/>
<path d="M80.3515 167.283C80.2216 167.283 80.1172 167.389 80.1172 167.518V168.866C80.1172 168.996 80.2223 169.101 80.3515 169.101C80.4813 169.101 80.5857 168.995 80.5857 168.866V167.518C80.5857 167.388 80.4806 167.283 80.3515 167.283Z" fill="#4F4AE3"/>
<path d="M81.6327 167.283C81.5029 167.283 81.3984 167.389 81.3984 167.518V168.866C81.3984 168.996 81.5036 169.101 81.6327 169.101C81.7626 169.101 81.867 168.995 81.867 168.866V167.518C81.867 167.388 81.7626 167.283 81.6327 167.283Z" fill="#4F4AE3"/>
<path d="M82.9166 167.283C82.7868 167.283 82.6816 167.389 82.6816 167.518V168.866C82.6816 168.996 82.7868 169.101 82.9166 169.101C83.0465 169.101 83.1509 168.995 83.1509 168.866V167.518C83.1509 167.388 83.0465 167.283 82.9166 167.283Z" fill="#4F4AE3"/>
<path d="M84.203 167.283C84.0732 167.283 83.9688 167.389 83.9688 167.518V168.866C83.9688 168.996 84.0739 169.101 84.203 169.101C84.3329 169.101 84.4373 168.995 84.4373 168.866V167.518C84.438 167.388 84.3329 167.283 84.203 167.283Z" fill="#4F4AE3"/>
<path d="M85.4869 167.283C85.3571 167.283 85.252 167.389 85.252 167.518V168.866C85.252 168.996 85.3571 169.101 85.4869 169.101C85.6168 169.101 85.7212 168.995 85.7212 168.866V167.518C85.7219 167.388 85.6168 167.283 85.4869 167.283Z" fill="#4F4AE3"/>
<path d="M86.7694 167.283C86.6396 167.283 86.5352 167.389 86.5352 167.518V168.866C86.5352 168.996 86.6403 169.101 86.7694 169.101C86.8993 169.101 87.0037 168.995 87.0037 168.866V167.518C87.0037 167.388 86.8986 167.283 86.7694 167.283Z" fill="#4F4AE3"/>
<path d="M88.0526 167.283C87.9228 167.283 87.8184 167.389 87.8184 167.518V168.866C87.8184 168.996 87.9235 169.101 88.0526 169.101C88.1825 169.101 88.2876 168.995 88.2876 168.866V167.518C88.2869 167.388 88.1818 167.283 88.0526 167.283Z" fill="#4F4AE3"/>
<path d="M89.3358 167.283C89.206 167.283 89.1016 167.389 89.1016 167.518V168.866C89.1016 168.996 89.2067 169.101 89.3358 169.101C89.4657 169.101 89.5701 168.995 89.5701 168.866V167.518C89.5701 167.388 89.4657 167.283 89.3358 167.283Z" fill="#4F4AE3"/>
<path d="M142.268 190.266H119.902C117.385 190.266 115.344 188.226 115.344 185.708V163.343C115.344 160.825 117.385 158.784 119.902 158.784H142.268C144.785 158.784 146.826 160.825 146.826 163.343V185.708C146.826 188.226 144.785 190.266 142.268 190.266Z" fill="#37339E"/>
<path d="M137.224 167.648C136.743 167.464 136.254 167.392 135.723 167.41C136.259 166.384 136.388 165.113 136.028 164.035L136.001 163.978C135.932 163.696 135.687 163.499 135.341 163.499C135.34 163.499 135.337 163.499 135.336 163.499C133.398 163.656 131.648 165.013 130.969 166.847C129.97 164.813 128.207 162.819 128.114 162.715C127.805 162.369 127.277 162.337 126.932 162.646C126.587 162.954 126.556 163.483 126.864 163.828C127.483 164.522 129.015 166.446 129.673 168.037C129.546 167.992 129.42 167.95 129.29 167.903C128.376 167.57 127.423 167.224 126.307 167.365C124.69 167.565 123.27 168.666 122.511 170.312C120.734 174.15 122.744 178.707 125.218 181.69C125.973 182.603 126.775 183.027 127.741 183.027C128.411 183.027 129.127 182.82 129.799 182.597C130.807 182.265 131.594 182.416 132.74 182.706L132.859 182.735C133.624 182.927 134.393 183.094 135.143 182.976C136.558 182.752 137.754 181.473 138.799 179.062C139.598 177.219 140.404 175.001 140.332 172.514C140.266 170.249 139.046 168.338 137.224 167.648ZM134.868 164.917C134.994 165.804 134.716 166.787 134.146 167.369C133.609 167.915 132.796 168.166 131.998 168.312C132.075 166.734 133.289 165.296 134.868 164.917ZM138.761 175.195C138.411 176.734 137.57 179.554 135.892 181.121C135.113 181.849 134.1 181.678 132.952 181.348C132.333 181.17 131.695 180.986 131.03 180.986L130.885 180.989C130.272 181.015 129.725 181.217 129.196 181.414C128.909 181.52 128.621 181.629 128.326 181.701C127.211 181.98 126.465 181.257 125.667 180.047C124.459 178.218 123.321 176.214 123.178 173.982C123.059 172.116 123.785 169.174 126.271 168.714C126.468 168.677 126.659 168.66 126.846 168.66C127.584 168.66 128.272 168.913 129 169.177C129.67 169.422 130.361 169.674 131.129 169.738C131.178 169.752 131.238 169.755 131.312 169.753C131.787 169.746 132.28 169.658 132.894 169.471C133.144 169.405 133.388 169.323 133.689 169.209C134.684 168.867 135.648 168.577 136.509 168.807C139.264 169.56 139.221 173.176 138.761 175.195Z" fill="#4F4AE3"/>
<path d="M187.694 141.788H156.253C152.479 141.788 149.42 138.729 149.42 134.955V103.514C149.42 99.7401 152.479 96.681 156.253 96.681H187.694C191.468 96.681 194.527 99.7401 194.527 103.514V134.955C194.527 138.729 191.468 141.788 187.694 141.788Z" fill="white"/>
<path d="M187.518 119.235C187.518 110.65 180.558 103.69 171.973 103.69C163.388 103.69 156.428 110.65 156.428 119.235C156.428 121.111 156.76 122.909 157.369 124.573L165.618 121.558C165.353 120.833 165.201 120.053 165.201 119.235C165.201 115.495 168.233 112.463 171.973 112.463C175.713 112.463 178.745 115.495 178.745 119.235C178.745 121.762 177.358 123.962 175.307 125.125L179.63 132.761C184.339 130.09 187.518 125.035 187.518 119.235Z" fill="#FF790A"/>
<path d="M171.973 126.008C169.05 126.008 166.567 124.153 165.618 121.559L157.369 124.574C159.547 130.53 165.263 134.781 171.974 134.781C174.759 134.781 177.37 134.045 179.631 132.763L175.308 125.127C174.322 125.685 173.186 126.008 171.973 126.008Z" fill="#7E75E8"/>
<path d="M51.1055 35.3104H3.80007C2.07261 35.3104 0.671875 36.7112 0.671875 38.4386V58.6918C0.671875 60.4193 2.07261 61.82 3.80007 61.82H7.83504L12.4465 72.2814C12.4465 72.2814 15.7871 66.5896 18.1222 61.82H51.1048C52.8322 61.82 54.233 60.4193 54.233 58.6918V38.4386C54.2337 36.7112 52.8337 35.3104 51.1055 35.3104Z" fill="#00C44E"/>
<path d="M47.6076 42.9543H40.1015C39.5165 42.9543 39.043 42.4808 39.043 41.8958C39.043 41.3108 39.5165 40.8373 40.1015 40.8373H47.6076C48.1926 40.8373 48.6661 41.3108 48.6661 41.8958C48.6661 42.4808 48.1919 42.9543 47.6076 42.9543Z" fill="white"/>
<path d="M34.8279 42.9541H6.67763C6.09264 42.9541 5.61914 42.4806 5.61914 41.8957C5.61914 41.3107 6.09264 40.8372 6.67763 40.8372H34.8286C35.4136 40.8372 35.8871 41.3107 35.8871 41.8957C35.8871 42.4806 35.4129 42.9541 34.8279 42.9541Z" fill="white"/>
<path d="M47.6074 49.5712H28.9003C28.3153 49.5712 27.8418 49.0977 27.8418 48.5127C27.8418 47.9277 28.3153 47.4542 28.9003 47.4542H47.6074C48.1924 47.4542 48.6659 47.9277 48.6659 48.5127C48.6659 49.0977 48.1917 49.5712 47.6074 49.5712Z" fill="white"/>
<path d="M21.9601 49.5712H6.67763C6.09264 49.5712 5.61914 49.0977 5.61914 48.5127C5.61914 47.9277 6.09264 47.4542 6.67763 47.4542H21.9601C22.5451 47.4542 23.0186 47.9277 23.0186 48.5127C23.0186 49.0977 22.5451 49.5712 21.9601 49.5712Z" fill="white"/>
<path d="M47.606 56.1863H6.67763C6.09264 56.1863 5.61914 55.7128 5.61914 55.1278C5.61914 54.5428 6.09264 54.0693 6.67763 54.0693H47.606C48.191 54.0693 48.6645 54.5428 48.6645 55.1278C48.6645 55.7128 48.1903 56.1863 47.606 56.1863Z" fill="white"/>
<path d="M303.889 296H69.0733L30.9746 271.485H265.79L303.889 296Z" fill="#689BD2"/>
<path d="M174.741 291.54C219.7 291.54 256.146 288.962 256.146 285.781C256.146 282.6 219.7 280.021 174.741 280.021C129.782 280.021 93.3359 282.6 93.3359 285.781C93.3359 288.962 129.782 291.54 174.741 291.54Z" fill="#5C89BA"/>
<path d="M104.972 275.193L110.705 268.613L102.262 261.713L97.8339 266.686C97.8339 266.686 95.458 272.785 104.972 275.193Z" fill="#E36B6B"/>
<path d="M195.958 235.332C195.958 235.332 172.482 208.799 158.266 201.391C158.266 201.391 152.494 197.503 147.616 199.237C142.738 200.971 104.055 258.405 102.262 261.713C102.262 261.713 104.037 267.359 110.104 269.32C110.104 269.32 118.685 259.064 122.698 257.011C126.712 254.959 145.444 240.551 150.293 229.182C150.293 229.182 166.212 282.472 196.851 284.345C196.851 284.345 209.935 284.261 212.586 275.586C215.237 266.911 216.022 254.056 195.958 235.332Z" fill="#331A09"/>
<path d="M70.0523 266.87C70.0523 266.87 69.0418 269.283 69.3085 270.713C69.5745 272.144 71.2498 276.547 73.709 277.758C76.1682 278.969 82.2369 279.929 84.7223 281.671C87.2083 283.414 93.5741 287.22 96.039 287.371C98.5038 287.522 100.627 282.643 100.627 282.643C100.627 282.643 96.034 283.601 91.6399 281.27C87.2457 278.939 83.7336 277.605 80.9632 276.67C78.1921 275.733 70.7015 274.215 70.0523 266.87Z" fill="#514C96"/>
<path d="M97.8503 265.919C97.8503 265.919 91.445 269.504 87.7798 268.75C84.1146 267.995 79.7932 266.406 76.7433 265.689C73.6941 264.972 72.0245 263.368 71.1735 264.288C70.3218 265.208 67.9359 270.983 73.9108 274.441C79.8856 277.899 83.1754 277.57 86.8533 279.563C90.5312 281.555 96.643 284.226 99.2553 283.414C101.868 282.602 102.315 279.625 104.972 275.192C104.972 275.192 100.562 273.597 99.0401 271.029C99.0401 271.029 101.504 269.766 99.9864 267.111C99.9864 267.111 99.0867 265.284 97.8503 265.919Z" fill="#615AB3"/>
<path d="M99.0427 271.029C99.0427 271.029 101.506 269.766 99.989 267.11C99.989 267.11 99.0879 265.284 97.8522 265.919C97.8522 265.919 91.447 269.504 87.7817 268.75C86.8785 268.564 85.935 268.327 84.981 268.065C84.981 268.065 83.3841 267.921 83.54 269.227C83.696 270.533 83.2768 272.569 87.1114 273.452C90.9459 274.334 99.0427 271.029 99.0427 271.029Z" fill="#7970DF"/>
<path d="M92.7617 268.129C92.7617 268.129 94.4673 269.808 94.5654 273.982" stroke="white" stroke-miterlimit="10" stroke-linecap="round" stroke-linejoin="round"/>
<path d="M89.6797 268.071C89.6797 268.071 91.2081 270.05 91.1933 275.116" stroke="white" stroke-miterlimit="10" stroke-linecap="round" stroke-linejoin="round"/>
<path d="M86.6699 268.182C86.6699 268.182 88.0678 271.33 87.5555 274.893" stroke="white" stroke-miterlimit="10" stroke-linecap="round" stroke-linejoin="round"/>
<path d="M108.994 279.361L114.727 272.78L106.283 265.88L101.855 270.853C101.855 270.853 99.4794 276.953 108.994 279.361Z" fill="#FF8585"/>
<path d="M199.982 239.5C199.982 239.5 176.506 212.967 162.289 205.558C162.289 205.558 156.518 201.671 151.639 203.404C146.761 205.139 108.078 262.573 106.285 265.88C106.285 265.88 108.061 271.527 114.127 273.489C114.127 273.489 122.708 263.232 126.722 261.179C130.736 259.127 149.467 244.718 154.316 233.35C154.316 233.35 170.235 286.639 200.874 288.513C200.874 288.513 213.958 288.429 216.61 279.754C219.261 271.078 220.046 258.224 199.982 239.5Z" fill="#42210B"/>
<path d="M74.0757 271.042C74.0757 271.042 73.0652 273.455 73.3319 274.885C73.598 276.316 75.2732 280.719 77.7325 281.929C80.1917 283.14 86.2604 284.1 88.7457 285.843C91.231 287.586 97.5975 291.391 100.062 291.542C102.527 291.693 104.651 286.814 104.651 286.814C104.651 286.814 100.057 287.772 95.6633 285.441C91.2692 283.11 87.7571 281.777 84.9866 280.841C82.2148 279.905 74.7249 278.387 74.0757 271.042Z" fill="#514C96"/>
<path d="M101.874 270.09C101.874 270.09 95.4692 273.675 91.804 272.921C88.1381 272.167 83.8173 270.577 80.7674 269.861C77.7183 269.144 76.0487 267.54 75.197 268.46C74.3452 269.38 71.9594 275.155 77.9342 278.614C83.9091 282.072 87.1988 281.742 90.8768 283.735C94.5547 285.727 100.666 288.399 103.279 287.586C105.891 286.774 106.338 283.797 108.995 279.364C108.995 279.364 104.586 277.769 103.064 275.201C103.064 275.201 105.527 273.938 104.01 271.282C104.011 271.281 103.11 269.455 101.874 270.09Z" fill="#6E66CB"/>
<path d="M103.066 275.198C103.066 275.198 105.53 273.935 104.012 271.279C104.012 271.279 103.111 269.453 101.876 270.088C101.876 270.088 95.4704 273.673 91.8052 272.919C90.9019 272.734 89.9585 272.496 89.0044 272.234C89.0044 272.234 87.4075 272.09 87.5635 273.396C87.7194 274.702 87.3002 276.738 91.1348 277.621C94.9694 278.503 103.066 275.198 103.066 275.198Z" fill="#867CF7"/>
<path d="M96.7812 272.298C96.7812 272.298 98.4868 273.978 98.5849 278.152" stroke="white" stroke-miterlimit="10" stroke-linecap="round" stroke-linejoin="round"/>
<path d="M93.6992 272.24C93.6992 272.24 95.2277 274.219 95.2129 279.285" stroke="white" stroke-miterlimit="10" stroke-linecap="round" stroke-linejoin="round"/>
<path d="M90.6895 272.351C90.6895 272.351 92.0874 275.5 91.5751 279.063" stroke="white" stroke-miterlimit="10" stroke-linecap="round" stroke-linejoin="round"/>
<path d="M218.611 152.561C218.611 152.561 199.661 158.001 197.25 170.462C194.838 182.922 216.279 202.261 216.279 202.261L221.666 181.617L211.916 171.477L218.611 152.561Z" fill="#594FBD"/>
<path d="M203.336 173.062C204.493 172.241 205.679 171.469 206.871 170.705C208.059 169.936 209.268 169.202 210.478 168.469C211.694 167.746 212.91 167.024 214.148 166.338C215.383 165.647 216.622 164.962 217.892 164.329C216.735 165.151 215.548 165.923 214.358 166.687C213.169 167.455 211.96 168.189 210.75 168.922C209.534 169.644 208.317 170.366 207.079 171.052C205.845 171.744 204.605 172.428 203.336 173.062Z" fill="#302694"/>
<path d="M218.93 183.949C218.93 183.949 205.216 229.038 199.98 239.5C199.98 239.5 204.555 245.612 207.19 248.778C209.824 251.943 220.053 263.88 216.608 279.753C216.608 279.753 223.419 278.579 225.955 274.492C225.955 274.492 227.672 275.127 228.165 272.86C228.165 272.86 228.642 267.94 231.2 263.678C233.758 259.415 250.417 241.346 254.824 212.629C259.231 183.912 235.472 175.025 235.472 175.025L218.93 183.949Z" fill="#6E66CB"/>
<path d="M233.992 209.353C233.992 209.353 240.235 227.507 248.105 235.87C250.987 229.174 253.478 221.401 254.825 212.629C256.901 199.097 252.723 189.971 247.724 184.101L244.085 183.488L233.992 209.353Z" fill="#594FBD"/>
<path d="M239.786 184.684C240.307 185.73 236.879 188.499 232.129 190.868C227.378 193.237 223.104 194.308 222.582 193.262C222.06 192.215 225.488 189.447 230.239 187.078C234.989 184.71 239.264 183.638 239.786 184.684Z" fill="#594FBD"/>
<path d="M237.278 184.448L232.854 175.937L222.477 183.786C222.477 183.786 223.743 186.359 225.095 190.159C225.436 191.12 225.782 192.155 226.115 193.251C227.794 192.795 229.906 191.975 232.13 190.867C234.855 189.508 237.141 188.019 238.5 186.797L237.278 184.448Z" fill="#FF8585"/>
<path d="M234.662 179.418L233.036 176.289L232.776 175.994L222.475 183.786C222.475 183.786 223.511 185.894 224.708 189.106C231.248 187.087 233.858 181.619 234.662 179.418Z" fill="#E36B6B"/>
<path d="M215.964 151.573L213.506 161.345C213.327 162.057 213.838 162.755 214.57 162.801L210.402 173.15L212.515 173.28L211.953 182.484C211.874 183.769 212.747 184.916 214.006 185.178C217.827 185.973 225.973 186.303 232.769 177.346C232.769 177.346 237.038 176.9 239.323 174.212L240.528 154.49L215.964 151.573Z" fill="#FF8585"/>
<path d="M212.515 173.279L214.244 173.385L212.4 175.158L212.515 173.279Z" fill="#E36B6B"/>
<path d="M227.545 152.949C227.545 152.949 215.777 156.511 212.622 150.309C209.466 144.107 213.02 136.076 217.356 136.459C221.693 136.843 223.52 139.782 228.361 139.607C233.2 139.431 238.761 139.064 242.273 143.285C245.785 147.507 244.983 156.765 243.093 158.771C241.204 160.776 227.545 152.949 227.545 152.949Z" fill="#000434"/>
<path d="M224.041 158.195C224.315 160.599 226.801 163.548 232.818 162.267L231.333 171.485L232.885 171.579C232.885 171.579 234.693 163.206 237.614 163.62C240.535 164.034 238.928 174.895 235.346 173.733C235.346 173.733 235.16 176.785 237.596 177.405C240.032 178.026 243.076 172.556 244.226 165.321C245.376 158.086 242.131 151.537 234.024 151.029C225.103 150.47 223.693 155.142 224.041 158.195Z" fill="#000434"/>
<path d="M239.676 159.74C239.676 159.74 244.194 156.481 244.658 153.328L244.642 150.227C244.642 150.227 247.402 151.898 246.667 155.259C246.667 155.259 247.043 154.888 247.712 156.962C247.712 156.962 249.211 158.468 248.746 160.294C248.281 162.122 247.161 164.528 244.776 165.973L239.676 159.74Z" fill="#FF8585"/>
<path d="M232.057 174.71C232.057 174.71 232.756 156.142 238.043 156.576C243.331 157.011 248.346 169.225 250.843 182.339C253.341 195.453 253.84 206.559 253.416 207.711C252.992 208.864 249.464 214.539 243.911 214.789C238.357 215.039 234.421 211.97 233.992 209.352C233.563 206.734 232.057 174.71 232.057 174.71Z" fill="#7E75E8"/>
<path d="M224.803 244.021L224.779 251.345C224.782 253.784 224.774 256.223 224.831 258.66C224.849 261.098 224.948 263.533 225.084 265.964L225.209 267.787L225.397 269.602C225.455 270.208 225.566 270.806 225.648 271.411C225.742 272.012 225.907 272.598 226.027 273.2C225.223 270.884 224.916 268.425 224.679 265.996C224.457 263.559 224.363 261.113 224.303 258.669C224.29 256.224 224.291 253.78 224.375 251.338C224.459 248.896 224.581 246.455 224.803 244.021Z" fill="#302694"/>
<path d="M232.896 234.973C232.106 237.949 231.428 240.95 230.827 243.964C230.227 246.979 229.682 250.005 229.274 253.05C229.031 254.568 228.863 256.095 228.666 257.619C228.515 259.147 228.344 260.674 228.225 262.206C227.937 265.268 227.838 268.341 227.722 271.419C227.618 268.343 227.615 265.255 227.82 262.177C227.986 259.098 228.329 256.03 228.751 252.975C229.204 249.924 229.743 246.886 230.431 243.88C231.116 240.875 231.896 237.888 232.896 234.973Z" fill="#302694"/>
<path d="M221.881 166.782C221.829 167.625 221.341 168.281 220.79 168.247C220.239 168.213 219.834 167.503 219.885 166.66C219.937 165.818 220.425 165.161 220.976 165.195C221.527 165.229 221.932 165.94 221.881 166.782Z" fill="#000434"/>
<path d="M223.399 163.922C222.956 162.556 221.489 161.808 220.122 162.251C219.996 161.862 219.87 161.473 219.744 161.084C221.755 160.432 223.914 161.534 224.566 163.544C224.177 163.671 223.788 163.797 223.399 163.922Z" fill="#000434"/>
<path d="M224.631 176.129C224.997 174.865 225.073 173.797 225.073 173.797C220.95 178.376 214.57 176.467 214.57 176.467C214.57 176.467 215.331 177.624 216.583 178.654C218.774 178.77 222.311 178.515 224.631 176.129Z" fill="white"/>
<path d="M216.582 178.655C217.716 179.589 219.253 180.42 220.994 180.195C223.102 179.922 224.133 177.845 224.63 176.13C222.31 178.515 218.773 178.77 216.582 178.655Z" fill="#D4145A"/>
<path d="M241.588 154.35C240.081 153.108 238.388 152.254 236.565 151.789C235.658 151.539 234.724 151.397 233.775 151.291C232.823 151.195 231.867 151.105 230.891 151.063C231.841 150.832 232.826 150.736 233.804 150.741C234.787 150.736 235.781 150.854 236.744 151.106C237.706 151.362 238.637 151.758 239.471 152.302C240.309 152.843 241.034 153.546 241.588 154.35Z" fill="#B3B3B3"/>
<path d="M217.815 60.2732H157.483C153.89 60.2732 150.977 57.3602 150.977 53.767V44.6689C150.977 41.0757 153.89 38.1627 157.483 38.1627H217.815C221.408 38.1627 224.321 41.0757 224.321 44.6689V53.767C224.321 57.3602 221.408 60.2732 217.815 60.2732Z" fill="#594FBD"/>
<path d="M160.894 56.0023C160.871 56.0252 160.86 56.0481 160.86 56.0709C160.871 56.0938 160.894 56.1053 160.929 56.1053H165.821C165.879 56.1053 165.924 56.1282 165.959 56.174C166.004 56.2083 166.027 56.2541 166.027 56.3113V57.616C166.027 57.6732 166.004 57.7247 165.959 57.7705C165.924 57.8049 165.879 57.822 165.821 57.822H158.439C158.382 57.822 158.331 57.8049 158.285 57.7705C158.251 57.7247 158.233 57.6732 158.233 57.616V56.38C158.233 56.277 158.268 56.1911 158.336 56.1224C159.206 55.1954 160.213 54.0566 161.358 52.7061L162.165 51.7619C163.218 50.5373 163.744 49.6103 163.744 48.9808C163.744 48.5116 163.578 48.1282 163.246 47.8306C162.914 47.533 162.485 47.3842 161.959 47.3842C161.432 47.3842 161.003 47.533 160.671 47.8306C160.351 48.1282 160.19 48.523 160.19 49.0151V49.4615C160.19 49.5187 160.168 49.5702 160.122 49.616C160.087 49.6503 160.042 49.6675 159.984 49.6675H158.388C158.331 49.6675 158.279 49.6503 158.233 49.616C158.199 49.5702 158.182 49.5187 158.182 49.4615V48.7233C158.205 48.1053 158.382 47.5674 158.714 47.1096C159.046 46.6518 159.492 46.297 160.053 46.0452C160.625 45.7934 161.261 45.6675 161.959 45.6675C162.726 45.6675 163.395 45.8106 163.967 46.0967C164.54 46.3828 164.98 46.7777 165.289 47.2812C165.598 47.7734 165.753 48.3284 165.753 48.9465C165.753 49.885 165.255 50.9665 164.259 52.1911C163.71 52.8778 162.806 53.9079 161.547 55.2812L160.894 56.0023ZM175.037 52.4315C175.185 52.9465 175.26 53.4787 175.26 54.028C175.26 54.5659 175.185 55.0752 175.037 55.5559C174.796 56.2884 174.356 56.8721 173.715 57.307C173.074 57.7305 172.324 57.9422 171.466 57.9422C170.619 57.9422 169.881 57.7362 169.251 57.3242C168.622 56.9007 168.181 56.3342 167.929 55.6246C167.838 55.3728 167.763 55.0867 167.706 54.7662V54.7319C167.706 54.606 167.775 54.543 167.912 54.543H169.543C169.657 54.543 169.732 54.606 169.766 54.7319C169.778 54.8006 169.806 54.9036 169.852 55.0409C169.978 55.4186 170.178 55.7104 170.453 55.9164C170.727 56.1224 171.059 56.2255 171.449 56.2255C171.849 56.2255 172.192 56.1167 172.479 55.8993C172.765 55.6704 172.965 55.3614 173.079 54.9722C173.182 54.6976 173.234 54.3828 173.234 54.028C173.234 53.6961 173.188 53.3699 173.097 53.0495C173.016 52.6718 172.833 52.3857 172.547 52.1911C172.261 51.9851 171.912 51.8821 171.5 51.8821C171.111 51.8821 170.756 51.9737 170.436 52.1568C170.127 52.3285 169.926 52.5574 169.835 52.8435C169.789 52.9579 169.709 53.0151 169.594 53.0151H167.929C167.872 53.0151 167.82 52.998 167.775 52.9636C167.74 52.9179 167.723 52.8664 167.723 52.8091V46.0108C167.723 45.9536 167.74 45.9078 167.775 45.8735C167.82 45.8277 167.872 45.8048 167.929 45.8048H174.607C174.665 45.8048 174.71 45.8277 174.745 45.8735C174.79 45.9078 174.813 45.9536 174.813 46.0108V47.3156C174.813 47.3728 174.79 47.4243 174.745 47.4701C174.71 47.5044 174.665 47.5216 174.607 47.5216H169.8C169.743 47.5216 169.715 47.5502 169.715 47.6074L169.697 50.6975C169.697 50.7433 169.709 50.7719 169.732 50.7834C169.755 50.7834 169.778 50.7719 169.8 50.7491C170.338 50.3485 170.985 50.1482 171.74 50.1482C172.542 50.1482 173.234 50.3542 173.818 50.7662C174.413 51.1668 174.819 51.7219 175.037 52.4315ZM178.955 52.0194C178.601 52.0194 178.309 51.905 178.08 51.6761C177.851 51.4472 177.736 51.1553 177.736 50.8006C177.736 50.4458 177.851 50.1539 178.08 49.925C178.309 49.6961 178.601 49.5817 178.955 49.5817C179.31 49.5817 179.596 49.6961 179.814 49.925C180.043 50.1539 180.157 50.4458 180.157 50.8006C180.157 51.1553 180.043 51.4472 179.814 51.6761C179.585 51.905 179.299 52.0194 178.955 52.0194ZM178.955 57.6847C178.601 57.6847 178.309 57.5702 178.08 57.3413C177.851 57.1124 177.736 56.8206 177.736 56.4658C177.736 56.111 177.851 55.8192 178.08 55.5903C178.309 55.3614 178.601 55.2469 178.955 55.2469C179.31 55.2469 179.596 55.3614 179.814 55.5903C180.043 55.8192 180.157 56.111 180.157 56.4658C180.157 56.8206 180.043 57.1124 179.814 57.3413C179.585 57.5702 179.299 57.6847 178.955 57.6847ZM184.783 45.8563C184.875 45.822 184.961 45.8048 185.041 45.8048H186.689C186.746 45.8048 186.792 45.8277 186.826 45.8735C186.872 45.9078 186.895 45.9536 186.895 46.0108V57.616C186.895 57.6732 186.872 57.7247 186.826 57.7705C186.792 57.8049 186.746 57.822 186.689 57.822H185.109C185.052 57.822 185.001 57.8049 184.955 57.7705C184.92 57.7247 184.903 57.6732 184.903 57.616V47.8649C184.903 47.842 184.892 47.8249 184.869 47.8134C184.846 47.7905 184.823 47.7848 184.8 47.7963L183.084 48.3284C183.061 48.3399 183.032 48.3456 182.998 48.3456C182.952 48.3456 182.912 48.3284 182.878 48.2941C182.855 48.2598 182.843 48.214 182.843 48.1568L182.792 47.0237C182.792 46.9093 182.838 46.8292 182.929 46.7834L184.783 45.8563ZM195.986 52.1053C196.214 52.6546 196.329 53.2841 196.329 53.9937C196.329 54.6346 196.232 55.2011 196.037 55.6933C195.774 56.4143 195.339 56.9751 194.732 57.3757C194.126 57.7648 193.393 57.9594 192.535 57.9594C191.688 57.9594 190.95 57.7476 190.32 57.3242C189.702 56.8893 189.262 56.3056 188.998 55.5731C188.861 55.2183 188.781 54.7548 188.758 54.1825C188.758 54.0452 188.827 53.9765 188.964 53.9765H190.561C190.698 53.9765 190.767 54.0452 190.767 54.1825C190.79 54.5488 190.847 54.8406 190.938 55.0581C191.041 55.4243 191.23 55.7162 191.505 55.9336C191.791 56.1396 192.134 56.2426 192.535 56.2426C193.29 56.2426 193.811 55.8993 194.097 55.2126C194.246 54.8807 194.32 54.4515 194.32 53.925C194.32 53.3413 194.234 52.8606 194.063 52.483C193.765 51.842 193.25 51.5216 192.518 51.5216C192.323 51.5216 192.06 51.636 191.728 51.8649C191.682 51.8878 191.642 51.8993 191.608 51.8993C191.551 51.8993 191.493 51.8649 191.436 51.7963L190.646 50.6975C190.612 50.6403 190.595 50.5945 190.595 50.5602C190.595 50.503 190.618 50.4515 190.664 50.4057L193.496 47.6246C193.519 47.6017 193.525 47.5788 193.513 47.5559C193.502 47.533 193.479 47.5216 193.445 47.5216H189.153C189.096 47.5216 189.044 47.5044 188.998 47.4701C188.964 47.4243 188.947 47.3728 188.947 47.3156V46.0108C188.947 45.9536 188.964 45.9078 188.998 45.8735C189.044 45.8277 189.096 45.8048 189.153 45.8048H196.003C196.06 45.8048 196.106 45.8277 196.14 45.8735C196.186 45.9078 196.209 45.9536 196.209 46.0108V47.5044C196.209 47.6074 196.174 47.6933 196.106 47.7619L193.651 50.234C193.605 50.2798 193.628 50.3141 193.719 50.337C194.784 50.4858 195.539 51.0752 195.986 52.1053ZM200.23 52.0194C199.875 52.0194 199.584 51.905 199.355 51.6761C199.126 51.4472 199.011 51.1553 199.011 50.8006C199.011 50.4458 199.126 50.1539 199.355 49.925C199.584 49.6961 199.875 49.5817 200.23 49.5817C200.585 49.5817 200.871 49.6961 201.089 49.925C201.317 50.1539 201.432 50.4458 201.432 50.8006C201.432 51.1553 201.317 51.4472 201.089 51.6761C200.86 51.905 200.574 52.0194 200.23 52.0194ZM200.23 57.6847C199.875 57.6847 199.584 57.5702 199.355 57.3413C199.126 57.1124 199.011 56.8206 199.011 56.4658C199.011 56.111 199.126 55.8192 199.355 55.5903C199.584 55.3614 199.875 55.2469 200.23 55.2469C200.585 55.2469 200.871 55.3614 201.089 55.5903C201.317 55.8192 201.432 56.111 201.432 56.4658C201.432 56.8206 201.317 57.1124 201.089 57.3413C200.86 57.5702 200.574 57.6847 200.23 57.6847ZM208.17 58.0109C206.968 58.0109 206.012 57.6732 205.303 56.998C204.604 56.3113 204.255 55.39 204.255 54.234V49.3928C204.255 48.2483 204.604 47.3442 205.303 46.6804C206.012 46.0051 206.968 45.6675 208.17 45.6675C209.371 45.6675 210.327 46.0051 211.037 46.6804C211.758 47.3442 212.118 48.2483 212.118 49.3928V54.234C212.118 55.39 211.758 56.3113 211.037 56.998C210.327 57.6732 209.371 58.0109 208.17 58.0109ZM208.17 56.277C208.765 56.277 209.24 56.1053 209.594 55.7619C209.949 55.4071 210.127 54.9322 210.127 54.337V49.3242C210.127 48.729 209.949 48.2598 209.594 47.9164C209.24 47.5616 208.765 47.3842 208.17 47.3842C207.586 47.3842 207.117 47.5616 206.762 47.9164C206.419 48.2598 206.247 48.729 206.247 49.3242V54.337C206.247 54.9322 206.419 55.4071 206.762 55.7619C207.117 56.1053 207.586 56.277 208.17 56.277ZM222.03 52.8778C222.087 52.8778 222.133 52.9007 222.167 52.9465C222.213 52.9808 222.236 53.0266 222.236 53.0838V54.4572C222.236 54.5144 222.213 54.5659 222.167 54.6117C222.133 54.6461 222.087 54.6632 222.03 54.6632H221.309C221.252 54.6632 221.223 54.6918 221.223 54.7491V57.616C221.223 57.6732 221.2 57.7247 221.154 57.7705C221.12 57.8049 221.074 57.822 221.017 57.822H219.438C219.38 57.822 219.329 57.8049 219.283 57.7705C219.249 57.7247 219.232 57.6732 219.232 57.616V54.7491C219.232 54.6918 219.203 54.6632 219.146 54.6632H213.927C213.87 54.6632 213.818 54.6461 213.772 54.6117C213.738 54.5659 213.721 54.5144 213.721 54.4572V53.3585C213.721 53.2898 213.738 53.204 213.772 53.101L217.017 45.9593C217.063 45.8563 217.143 45.8048 217.257 45.8048H218.94C219.02 45.8048 219.071 45.8277 219.094 45.8735C219.129 45.9078 219.129 45.9651 219.094 46.0452L216.038 52.7748C216.027 52.7977 216.027 52.8206 216.038 52.8435C216.05 52.8664 216.067 52.8778 216.09 52.8778H219.146C219.203 52.8778 219.232 52.8492 219.232 52.792V50.4572C219.232 50.4 219.249 50.3542 219.283 50.3199C219.329 50.2741 219.38 50.2512 219.438 50.2512H221.017C221.074 50.2512 221.12 50.2741 221.154 50.3199C221.2 50.3542 221.223 50.4 221.223 50.4572V52.792C221.223 52.8492 221.252 52.8778 221.309 52.8778H222.03Z" fill="#33F1FF"/>
<path d="M227.388 62.0011C234.588 58.9753 237.972 50.6852 234.947 43.4847C231.921 36.2842 223.631 32.9 216.43 35.9257C209.23 38.9515 205.845 47.2416 208.871 54.4421C211.897 61.6426 220.187 65.0268 227.388 62.0011Z" fill="#FF3E5E"/>
<path d="M232.905 50.7424C233.886 44.669 229.757 38.9505 223.684 37.9699C217.611 36.9893 211.893 41.1179 210.912 47.1914C209.932 53.2648 214.06 58.9833 220.133 59.9639C226.206 60.9445 231.924 56.8159 232.905 50.7424Z" fill="white"/>
<path d="M221.91 43.6131C221.437 43.6131 221.053 43.2299 221.053 42.7557V40.0404C221.053 39.5662 221.437 39.183 221.91 39.183C222.384 39.183 222.767 39.5662 222.767 40.0404V42.7557C222.767 43.2299 222.384 43.6131 221.91 43.6131Z" fill="#A8A6F7"/>
<path d="M217.526 45.4309C217.306 45.4309 217.087 45.347 216.92 45.1797L214.999 43.2596C214.664 42.9244 214.664 42.3825 214.999 42.0473C215.335 41.7121 215.877 41.7121 216.212 42.0473L218.132 43.9674C218.467 44.3026 218.467 44.8452 218.132 45.1797C217.965 45.3477 217.746 45.4309 217.526 45.4309Z" fill="#A8A6F7"/>
<path d="M215.707 49.8207H212.992C212.519 49.8207 212.135 49.4375 212.135 48.9633C212.135 48.4891 212.519 48.106 212.992 48.106H215.707C216.18 48.106 216.564 48.4891 216.564 48.9633C216.564 49.4368 216.18 49.8207 215.707 49.8207Z" fill="#A8A6F7"/>
<path d="M215.606 56.1282C215.386 56.1282 215.167 56.0449 214.999 55.877C214.664 55.5418 214.664 54.9991 214.999 54.6647L216.92 52.7446C217.255 52.4094 217.797 52.4094 218.132 52.7446C218.467 53.079 218.467 53.6217 218.132 53.9569L216.212 55.877C216.045 56.0442 215.825 56.1282 215.606 56.1282Z" fill="#A8A6F7"/>
<path d="M221.91 58.7404C221.437 58.7404 221.053 58.3573 221.053 57.8831V55.1677C221.053 54.6935 221.437 54.3103 221.91 54.3103C222.384 54.3103 222.767 54.6935 222.767 55.1677V57.8831C222.767 58.3573 222.384 58.7404 221.91 58.7404Z" fill="#A8A6F7"/>
<path d="M228.222 56.1282C228.003 56.1282 227.784 56.0449 227.616 55.877L225.696 53.9569C225.362 53.6224 225.362 53.0797 225.696 52.7446C226.031 52.4094 226.573 52.4094 226.908 52.7446L228.829 54.6647C229.164 54.9998 229.164 55.5418 228.829 55.877C228.661 56.0442 228.442 56.1282 228.222 56.1282Z" fill="#A8A6F7"/>
<path d="M230.834 49.8207H228.119C227.646 49.8207 227.262 49.4375 227.262 48.9633C227.262 48.4891 227.646 48.106 228.119 48.106H230.834C231.308 48.106 231.692 48.4891 231.692 48.9633C231.692 49.4368 231.308 49.8207 230.834 49.8207Z" fill="#A8A6F7"/>
<path d="M226.302 45.4309C226.083 45.4309 225.863 45.347 225.696 45.1797C225.362 44.8445 225.362 44.3026 225.696 43.9674L227.616 42.0473C227.951 41.7121 228.493 41.7121 228.829 42.0473C229.164 42.3825 229.164 42.9244 228.829 43.2596L226.908 45.1797C226.741 45.3477 226.522 45.4309 226.302 45.4309Z" fill="#A8A6F7"/>
<path d="M224.516 51.9015C224.328 51.9015 224.139 51.8401 223.981 51.7138L221.375 49.6314C221.171 49.4691 221.053 49.2221 221.053 48.9617V45.5421C221.053 45.0679 221.437 44.6847 221.91 44.6847C222.384 44.6847 222.767 45.0686 222.767 45.5421V48.5489L225.051 50.3744C225.421 50.6701 225.481 51.2092 225.186 51.579C225.018 51.7907 224.768 51.9015 224.516 51.9015Z" fill="#A8A6F7"/>
<path d="M226.298 34.3282H217.521C216.574 34.3282 215.807 33.5604 215.807 32.6134C215.807 31.6664 216.574 30.8987 217.521 30.8987H226.298C227.245 30.8987 228.012 31.6664 228.012 32.6134C228.013 33.5604 227.245 34.3282 226.298 34.3282Z" fill="#FF3E5E"/>
<path d="M58.1684 243.288C58.1684 244.412 45.5293 245.323 29.9377 245.323C14.3461 245.323 1.70703 244.412 1.70703 243.288C1.70703 242.165 14.3461 241.254 29.9377 241.254C45.5293 241.254 58.1684 242.165 58.1684 243.288Z" fill="#6A9FD6"/>
<path d="M51.2913 229.251H8.58398V232.638H51.2913V229.251Z" fill="#6C8594"/>
<path d="M11.774 218.602H5.88672V243.288H11.774V218.602Z" fill="#1E36F7"/>
<path d="M5.88733 223.67H0V238.22H5.88733V223.67Z" fill="#142CDE"/>
<path d="M48.099 243.288H53.9863V218.602H48.099V243.288Z" fill="#1E36F7"/>
<path d="M53.9857 238.219H59.873V223.669H53.9857V238.219Z" fill="#142CDE"/>
<path d="M304.195 0H263.246V58.644H304.195V0Z" fill="#689BD2"/>
<path d="M298.566 6.73328H268.875V51.9118H298.566V6.73328Z" fill="#94E2FF"/>
<path d="M292.345 16.1991H275.098V42.4433H292.345V16.1991Z" fill="#6BCAED"/>
</svg>
