<svg width="371" height="322" viewBox="0 0 371 322" fill="none" xmlns="http://www.w3.org/2000/svg">
<path d="M263.573 300.76H255.369V300.996H263.573V300.76Z" fill="#EBEBEB"/>
<path d="M343.369 289.436H325.258V289.672H343.369V289.436Z" fill="#EBEBEB"/>
<path d="M41.267 291.021H0.505859V291.257H41.267V291.021Z" fill="#EBEBEB"/>
<path d="M55.6464 291.021H49.6699V291.257H55.6464V291.021Z" fill="#EBEBEB"/>
<path d="M163.47 295.007H75.0684V295.243H163.47V295.007Z" fill="#EBEBEB"/>
<path d="M132.54 12.1255H18.5371V282.714H132.54V12.1255Z" fill="#EBEBEB"/>
<path d="M127.692 17.0262H23.3848V282.713H127.692V17.0262Z" fill="#F5F5F5"/>
<path d="M73.0926 52.0748H31.2773V149.377H73.0926V52.0748Z" fill="#FAFAFA"/>
<path d="M120.354 52.0748H78.5391V149.377H120.354V52.0748Z" fill="#FAFAFA"/>
<path d="M120.355 178.805H31.2773V276.107H120.355V178.805Z" fill="#FAFAFA"/>
<path d="M120.355 47.0421H31.2773V40.3862C31.2773 31.3795 38.5787 24.0781 47.5854 24.0781H104.048C113.054 24.0781 120.356 31.3795 120.356 40.3862V47.0421H120.355Z" fill="#FAFAFA"/>
<path d="M38.8826 153.758H31.2773V173.576H38.8826V153.758Z" fill="#E6E6E6"/>
<path d="M38.8811 173.576H40.375V153.758H38.8811V173.576Z" fill="#E0E0E0"/>
<path d="M36.3694 161.543C36.3694 163.315 34.9331 164.75 33.1618 164.75C31.3904 164.75 29.9551 163.314 29.9551 161.543C29.9551 159.772 31.3904 158.337 33.1618 158.337C34.934 158.336 36.3694 159.772 36.3694 161.543Z" fill="#E0E0E0"/>
<path d="M35.7579 167.088H34.1055V171.099H35.7579V167.088Z" fill="#E0E0E0"/>
<path d="M30.3341 166.026C32.8098 166.026 34.8167 164.019 34.8167 161.544C34.8167 159.068 32.8098 157.061 30.3341 157.061C27.8585 157.061 25.8516 159.068 25.8516 161.544C25.8516 164.019 27.8585 166.026 30.3341 166.026Z" fill="#EBEBEB"/>
<path d="M307.989 205.425C307.989 205.425 321.013 193.145 320.799 185.088C320.585 177.03 312.661 195.922 312.477 191.943C312.293 187.963 321.473 176.567 321.858 168.772C322.243 160.976 312.508 182.757 311.992 179.099C311.475 175.44 320.913 159.243 320.835 153.578C320.756 147.913 312.586 167.934 311.388 164.39C310.19 160.845 318.194 147.617 316.148 137.717C314.102 127.816 309.757 153.791 309.095 150.495C308.435 147.2 313.959 130.28 310.048 123.518C306.136 116.756 307.243 141.818 305.909 138.901C304.574 135.984 303.763 121.624 298.787 116.732C293.812 111.84 300.1 131.202 298.573 132.182C297.046 133.163 289.944 118.746 288.034 121.481C286.125 124.217 298.117 139.7 298.23 143.402C298.343 147.104 288.545 137.22 287.671 141.233C286.797 145.245 301.312 151.559 302.052 155.397C302.792 159.235 289.972 152.372 290.03 156.324C290.088 160.276 302.234 162.396 302.962 166.889C303.691 171.382 291.063 163.64 291.753 168.913C292.443 174.185 300.943 173.147 301.911 178.349C302.879 183.55 293.139 177.62 293.508 182.559C293.877 187.499 303.608 188.042 304.626 191.811C305.644 195.578 295.331 190.049 295.621 194.051C295.912 198.052 305.964 198.564 307.989 205.425Z" fill="#E0E0E0"/>
<path d="M306.915 222.88C308.781 213.871 309.431 204.503 309.653 195.329C310.139 175.235 307.614 154.975 300.92 135.971C300.432 134.586 298.173 135.083 298.668 136.487C305.301 155.317 307.825 175.338 307.343 195.249C307.126 204.208 306.533 213.388 304.71 222.189C304.412 223.631 306.614 224.336 306.915 222.88Z" fill="#F0F0F0"/>
<path d="M311.798 209.572C311.798 209.572 302.752 192.25 305.639 180.508C308.526 168.768 310.643 196.099 311.991 189.555C313.338 183.01 307.756 170.307 312.953 160.876C318.15 151.444 313.338 178.583 316.803 172.617C320.267 166.65 316.225 151.444 321.037 145.671C325.849 139.896 322.577 158.181 324.886 155.295C327.197 152.408 326.619 138.934 330.276 135.854C333.933 132.775 330.661 148.75 332.586 145.671C334.511 142.591 338.938 128.54 345.097 126.808C351.256 125.075 341.055 135.469 345.097 134.507C349.139 133.544 358.377 131.427 359.147 135.662C359.917 139.896 339.707 144.516 337.398 149.713C335.088 154.909 346.637 145.671 348.754 149.52C350.871 153.369 331.047 158.759 329.507 164.533C327.967 170.308 345.868 159.721 345.483 165.688C345.098 171.655 324.887 172.81 323.925 178.006C322.962 183.203 340.478 172.232 339.901 177.429C339.323 182.626 321.808 186.668 320.653 192.25C319.498 197.832 333.549 187.053 333.934 191.48C334.319 195.907 311.798 209.572 311.798 209.572Z" fill="#EBEBEB"/>
<path d="M299.01 209.059C299.01 209.059 307.768 193.448 305.154 185.823C302.541 178.198 300.627 198.595 299.262 194.852C297.897 191.109 303.251 177.491 301.288 169.936C299.325 162.382 296.546 186.077 294.96 182.741C293.373 179.404 297.538 161.125 295.769 155.743C294.001 150.361 292.189 171.909 289.986 168.885C287.784 165.862 291.467 150.845 286.555 142.009C281.643 133.172 285.261 159.258 283.646 156.31C282.03 153.363 282.243 135.565 276.49 130.282C270.736 124.999 279.284 148.584 277.138 146.199C274.993 143.814 269.925 130.353 263.715 127.172C257.504 123.991 269.293 140.587 268.129 141.979C266.966 143.371 255.877 131.736 254.873 134.919C253.869 138.1 269.941 149.29 271.156 152.788C272.37 156.288 260.066 149.786 260.432 153.876C260.797 157.966 276.536 159.652 278.389 163.094C280.243 166.535 265.958 163.817 267.195 167.572C268.432 171.326 280.656 169.718 282.694 173.788C284.733 177.857 270.368 174.244 272.603 179.07C274.837 183.895 282.638 180.363 285.117 185.037C287.596 189.712 276.528 186.964 278.357 191.567C280.185 196.17 289.634 193.781 291.731 197.072C293.829 200.362 282.334 198.168 283.808 201.901C285.281 205.634 295.027 203.117 299.01 209.059Z" fill="#EBEBEB"/>
<path d="M303.2 226.036C302.288 216.881 300.108 207.747 297.577 198.926C292.034 179.606 283.569 161.026 271.499 144.893C270.619 143.717 268.613 144.866 269.505 146.058C281.464 162.045 289.857 180.395 295.35 199.54C297.821 208.155 299.999 217.091 300.891 226.035C301.037 227.501 303.349 227.516 303.2 226.036Z" fill="#F0F0F0"/>
<path d="M311.414 223.816C311.686 215.802 312.793 207.753 314.228 199.874C317.006 184.616 321.433 169.024 329.958 155.912C334.824 148.428 341.194 142.025 349.337 138.198C350.681 137.567 349.511 135.575 348.172 136.204C333.606 143.048 324.87 157.63 319.339 172.149C314.191 185.663 311.343 200.056 309.833 214.41C309.504 217.533 309.211 220.675 309.104 223.815C309.053 225.303 311.364 225.301 311.414 223.816Z" fill="#F5F5F5"/>
<path d="M330.275 219.335H282.541L287.93 270.395V282.713H324.886V270.395L330.275 219.335Z" fill="#EBEBEB"/>
<path d="M341.203 62.2904H306.922V89.3217H341.203V62.2904Z" fill="#F0F0F0"/>
<path d="M343.049 62.2904H341.203V89.3217H343.049V62.2904Z" fill="#E0E0E0"/>
<path d="M337.707 65.0469H310.416V86.566H337.707V65.0469Z" fill="#FAFAFA"/>
<path d="M335.461 66.8181H312.664V84.7946H335.461V66.8181Z" fill="#EBEBEB"/>
<path d="M299.847 18.4272H262.109V66.285H299.847V18.4272Z" fill="#EBEBEB"/>
<path d="M301.647 18.4272H299.846V66.285H301.647V18.4272Z" fill="#E0E0E0"/>
<path d="M295.998 23.307H265.955V61.406H295.998V23.307Z" fill="#F5F5F5"/>
<path d="M293.526 26.4431H268.43V58.2693H293.526V26.4431Z" fill="#FAFAFA"/>
<path d="M285.946 37.675C285.946 37.675 281.51 43.9487 279.232 43.8486C277.144 43.7571 273.598 37.675 273.598 37.675C273.598 37.675 278.034 31.4013 280.312 31.5013C282.4 31.5928 285.946 37.675 285.946 37.675Z" fill="#EBEBEB"/>
<path d="M274.338 51.5671C273.029 49.0361 279.884 43.725 282.731 43.8496C285.34 43.9638 290.786 49.1597 289.773 51.5671C288.276 55.123 276.113 54.9937 274.338 51.5671Z" fill="#F0F0F0"/>
<path d="M330.711 48.0225C340.119 48.0225 347.745 37.3893 347.745 24.2725C347.745 11.1557 340.119 0.522461 330.711 0.522461C321.304 0.522461 313.678 11.1557 313.678 24.2725C313.678 37.3893 321.304 48.0225 330.711 48.0225Z" fill="#E0E0E0"/>
<path d="M328.684 48.0225C338.092 48.0225 345.718 37.3893 345.718 24.2725C345.718 11.1557 338.092 0.522461 328.684 0.522461C319.277 0.522461 311.65 11.1557 311.65 24.2725C311.65 37.3893 319.277 48.0225 328.684 48.0225Z" fill="#EBEBEB"/>
<path d="M328.685 44.5049C336.699 44.5049 343.196 35.4464 343.196 24.2721C343.196 13.0977 336.699 4.03918 328.685 4.03918C320.671 4.03918 314.174 13.0977 314.174 24.2721C314.174 35.4464 320.671 44.5049 328.685 44.5049Z" fill="#E6E6E6"/>
<path d="M328.685 42.3565C335.848 42.3565 341.655 34.26 341.655 24.2724C341.655 14.2849 335.848 6.18835 328.685 6.18835C321.522 6.18835 315.715 14.2849 315.715 24.2724C315.715 34.26 321.522 42.3565 328.685 42.3565Z" fill="#FAFAFA"/>
<path d="M324.612 34.1015C324.612 34.1015 320.143 30.1691 320.615 24.0351C320.615 24.0351 325.963 23.4057 325.805 32.3708C325.805 32.3708 331.835 26.116 330.052 22.1477C327.27 15.9571 327.27 15.9571 329.234 12.0813C329.234 12.0813 334.495 14.2046 332.096 21.3607C332.096 21.3607 331.999 24.8212 331.261 26.8653C331.261 26.8653 336.555 21.7957 338.257 25.1166C338.257 25.1166 335.438 30.4825 331.261 28.2534C331.261 28.2534 326.565 36.4778 324.612 34.1015Z" fill="#EBEBEB"/>
<path d="M186.5 322C288.397 322 371 317.216 371 311.314C371 305.413 288.397 300.629 186.5 300.629C84.6035 300.629 2 305.413 2 311.314C2 317.216 84.6035 322 186.5 322Z" fill="#F5F5F5"/>
<path d="M232.436 220.659C232.436 219.867 232.395 219.084 232.327 218.31L236.931 215.752C236.584 213.538 236.001 211.404 235.218 209.367L229.96 209.454C229.294 208.023 228.505 206.664 227.605 205.386L230.31 200.875C228.919 199.157 227.351 197.59 225.634 196.199L221.123 198.903C219.845 198.004 218.485 197.215 217.055 196.549L217.142 191.291C215.106 190.507 212.97 189.925 210.756 189.578L208.199 194.182C207.424 194.114 206.643 194.073 205.85 194.073C205.058 194.073 204.276 194.114 203.501 194.182L200.944 189.578C198.73 189.924 196.595 190.507 194.559 191.291L194.646 196.549C193.215 197.215 191.856 198.004 190.577 198.903L186.067 196.199C184.349 197.59 182.782 199.157 181.391 200.875L184.095 205.386C183.196 206.664 182.407 208.023 181.741 209.454L176.482 209.367C175.699 211.403 175.117 213.537 174.77 215.752L179.374 218.31C179.306 219.084 179.264 219.867 179.264 220.659C179.264 221.45 179.306 222.233 179.374 223.007L174.77 225.565C175.116 227.779 175.699 229.913 176.482 231.949L181.741 231.862C182.407 233.293 183.196 234.652 184.095 235.93L181.391 240.441C182.782 242.159 184.349 243.726 186.067 245.117L190.577 242.413C191.856 243.312 193.216 244.101 194.646 244.767L194.559 250.025C196.594 250.809 198.729 251.391 200.944 251.738L203.501 247.134C204.276 247.202 205.058 247.243 205.85 247.243C206.642 247.243 207.424 247.202 208.199 247.134L210.756 251.738C212.97 251.392 215.105 250.809 217.142 250.025L217.055 244.767C218.485 244.102 219.845 243.312 221.123 242.413L225.634 245.117C227.351 243.726 228.919 242.159 230.31 240.441L227.605 235.93C228.505 234.652 229.294 233.293 229.96 231.862L235.218 231.949C236.001 229.913 236.584 227.779 236.931 225.564L232.327 223.006C232.395 222.233 232.436 221.451 232.436 220.659ZM205.85 238.707C195.883 238.707 187.802 230.626 187.802 220.659C187.802 210.691 195.882 202.61 205.85 202.61C215.818 202.61 223.898 210.691 223.898 220.659C223.898 230.627 215.818 238.707 205.85 238.707Z" fill="#407BFF"/>
<path opacity="0.5" d="M232.436 220.659C232.436 219.867 232.395 219.084 232.327 218.31L236.931 215.752C236.584 213.538 236.001 211.404 235.218 209.367L229.96 209.454C229.294 208.023 228.505 206.664 227.605 205.386L230.31 200.875C228.919 199.157 227.351 197.59 225.634 196.199L221.123 198.903C219.845 198.004 218.485 197.215 217.055 196.549L217.142 191.291C215.106 190.507 212.97 189.925 210.756 189.578L208.199 194.182C207.424 194.114 206.643 194.073 205.85 194.073C205.058 194.073 204.276 194.114 203.501 194.182L200.944 189.578C198.73 189.924 196.595 190.507 194.559 191.291L194.646 196.549C193.215 197.215 191.856 198.004 190.577 198.903L186.067 196.199C184.349 197.59 182.782 199.157 181.391 200.875L184.095 205.386C183.196 206.664 182.407 208.023 181.741 209.454L176.482 209.367C175.699 211.403 175.117 213.537 174.77 215.752L179.374 218.31C179.306 219.084 179.264 219.867 179.264 220.659C179.264 221.45 179.306 222.233 179.374 223.007L174.77 225.565C175.116 227.779 175.699 229.913 176.482 231.949L181.741 231.862C182.407 233.293 183.196 234.652 184.095 235.93L181.391 240.441C182.782 242.159 184.349 243.726 186.067 245.117L190.577 242.413C191.856 243.312 193.216 244.101 194.646 244.767L194.559 250.025C196.594 250.809 198.729 251.391 200.944 251.738L203.501 247.134C204.276 247.202 205.058 247.243 205.85 247.243C206.642 247.243 207.424 247.202 208.199 247.134L210.756 251.738C212.97 251.392 215.105 250.809 217.142 250.025L217.055 244.767C218.485 244.102 219.845 243.312 221.123 242.413L225.634 245.117C227.351 243.726 228.919 242.159 230.31 240.441L227.605 235.93C228.505 234.652 229.294 233.293 229.96 231.862L235.218 231.949C236.001 229.913 236.584 227.779 236.931 225.564L232.327 223.006C232.395 222.233 232.436 221.451 232.436 220.659ZM205.85 238.707C195.883 238.707 187.802 230.626 187.802 220.659C187.802 210.691 195.882 202.61 205.85 202.61C215.818 202.61 223.898 210.691 223.898 220.659C223.898 230.627 215.818 238.707 205.85 238.707Z" fill="white"/>
<path d="M91.0519 81.824C91.0519 81.2484 91.0217 80.6793 90.9726 80.1169L94.3199 78.2578C94.0679 76.6478 93.6442 75.0964 93.0751 73.6167L89.2522 73.6799C88.7681 72.64 88.1943 71.6519 87.5404 70.7224L89.507 67.443C88.4954 66.1945 87.3563 65.0545 86.1078 64.0438L82.8285 66.0105C81.8989 65.3565 80.9109 64.7827 79.8709 64.2986L79.9342 60.4757C78.4544 59.9066 76.9021 59.4829 75.2921 59.231L73.433 62.5782C72.8696 62.5292 72.3015 62.499 71.7259 62.499C71.1502 62.499 70.5812 62.5292 70.0187 62.5782L68.1596 59.231C66.5497 59.4829 64.9983 59.9066 63.5185 60.4757L63.5818 64.2986C62.5418 64.7827 61.5538 65.3565 60.6242 66.0105L57.3449 64.0438C56.0964 65.0555 54.9564 66.1945 53.9457 67.443L55.9123 70.7224C55.2584 71.6519 54.6846 72.64 54.2005 73.6799L50.3775 73.6167C49.8085 75.0964 49.3848 76.6488 49.1328 78.2578L52.4801 80.1169C52.431 80.6803 52.4008 81.2484 52.4008 81.824C52.4008 82.3997 52.431 82.9687 52.4801 83.5312L49.1328 85.3903C49.3848 87.0002 49.8085 88.5516 50.3775 90.0314L54.2005 89.9681C54.6846 91.0081 55.2584 91.9961 55.9123 92.9257L53.9457 96.205C54.9573 97.4535 56.0964 98.5935 57.3449 99.6042L60.6242 97.6376C61.5538 98.2915 62.5418 98.8653 63.5818 99.3494L63.5185 103.172C64.9983 103.741 66.5506 104.165 68.1596 104.417L70.0187 101.07C70.5821 101.119 71.1502 101.149 71.7259 101.149C72.3015 101.149 72.8706 101.119 73.433 101.07L75.2921 104.417C76.9021 104.165 78.4535 103.741 79.9342 103.172L79.8709 99.3494C80.9109 98.8653 81.8989 98.2915 82.8285 97.6376L86.1078 99.6042C87.3563 98.5926 88.4963 97.4535 89.507 96.205L87.5404 92.9257C88.1943 91.9961 88.7681 91.0081 89.2522 89.9681L93.0751 90.0314C93.6442 88.5516 94.0679 86.9993 94.3199 85.3893L90.9726 83.5302C91.0217 82.9687 91.0519 82.4006 91.0519 81.824ZM71.7249 89.4425C67.5179 89.4425 64.1074 86.032 64.1074 81.825C64.1074 77.618 67.5179 74.2074 71.7249 74.2074C75.9319 74.2074 79.3425 77.618 79.3425 81.825C79.3434 86.032 75.9329 89.4425 71.7249 89.4425Z" fill="#407BFF"/>
<path opacity="0.6" d="M91.0519 81.824C91.0519 81.2484 91.0217 80.6793 90.9726 80.1169L94.3199 78.2578C94.0679 76.6478 93.6442 75.0964 93.0751 73.6167L89.2522 73.6799C88.7681 72.64 88.1943 71.6519 87.5404 70.7224L89.507 67.443C88.4954 66.1945 87.3563 65.0545 86.1078 64.0438L82.8285 66.0105C81.8989 65.3565 80.9109 64.7827 79.8709 64.2986L79.9342 60.4757C78.4544 59.9066 76.9021 59.4829 75.2921 59.231L73.433 62.5782C72.8696 62.5292 72.3015 62.499 71.7259 62.499C71.1502 62.499 70.5812 62.5292 70.0187 62.5782L68.1596 59.231C66.5497 59.4829 64.9983 59.9066 63.5185 60.4757L63.5818 64.2986C62.5418 64.7827 61.5538 65.3565 60.6242 66.0105L57.3449 64.0438C56.0964 65.0555 54.9564 66.1945 53.9457 67.443L55.9123 70.7224C55.2584 71.6519 54.6846 72.64 54.2005 73.6799L50.3775 73.6167C49.8085 75.0964 49.3848 76.6488 49.1328 78.2578L52.4801 80.1169C52.431 80.6803 52.4008 81.2484 52.4008 81.824C52.4008 82.3997 52.431 82.9687 52.4801 83.5312L49.1328 85.3903C49.3848 87.0002 49.8085 88.5516 50.3775 90.0314L54.2005 89.9681C54.6846 91.0081 55.2584 91.9961 55.9123 92.9257L53.9457 96.205C54.9573 97.4535 56.0964 98.5935 57.3449 99.6042L60.6242 97.6376C61.5538 98.2915 62.5418 98.8653 63.5818 99.3494L63.5185 103.172C64.9983 103.741 66.5506 104.165 68.1596 104.417L70.0187 101.07C70.5821 101.119 71.1502 101.149 71.7259 101.149C72.3015 101.149 72.8706 101.119 73.433 101.07L75.2921 104.417C76.9021 104.165 78.4535 103.741 79.9342 103.172L79.8709 99.3494C80.9109 98.8653 81.8989 98.2915 82.8285 97.6376L86.1078 99.6042C87.3563 98.5926 88.4963 97.4535 89.507 96.205L87.5404 92.9257C88.1943 91.9961 88.7681 91.0081 89.2522 89.9681L93.0751 90.0314C93.6442 88.5516 94.0679 86.9993 94.3199 85.3893L90.9726 83.5302C91.0217 82.9687 91.0519 82.4006 91.0519 81.824ZM71.7249 89.4425C67.5179 89.4425 64.1074 86.032 64.1074 81.825C64.1074 77.618 67.5179 74.2074 71.7249 74.2074C75.9319 74.2074 79.3425 77.618 79.3425 81.825C79.3434 86.032 75.9329 89.4425 71.7249 89.4425Z" fill="white"/>
<path d="M205.246 23.8627H180.741L156.029 306.321H180.534C191.893 306.321 201.906 297.113 202.9 285.754L224.013 44.4287C225.006 33.0703 216.604 23.8627 205.246 23.8627Z" fill="#263238"/>
<path d="M175.515 306.321H74.5483C63.1899 306.321 54.7873 297.114 55.781 285.755L76.8943 44.43C77.888 33.0716 87.9016 23.863 99.26 23.863H200.227C211.585 23.863 219.988 33.0707 218.994 44.43L197.881 285.755C196.888 297.114 186.875 306.321 175.515 306.321Z" fill="#407BFF"/>
<path d="M199.813 28.5819H173.57C171.852 28.5819 170.289 29.8597 169.922 31.564L169.745 32.386C168.85 36.5495 165.033 39.6694 160.835 39.6694H135.885C131.688 39.6694 128.417 36.5495 128.25 32.386L128.217 31.564C128.148 29.8587 126.809 28.5819 125.09 28.5819H98.8472C90.0944 28.5819 82.3787 35.6776 81.6124 44.4304L60.4991 285.756C59.7328 294.508 66.2075 301.603 74.9603 301.603H175.927C184.68 301.603 192.396 294.507 193.162 285.756L214.276 44.4304C215.041 35.6776 208.566 28.5819 199.813 28.5819Z" fill="#407BFF"/>
<path opacity="0.7" d="M199.813 28.5819H173.57C171.852 28.5819 170.289 29.8597 169.922 31.564L169.745 32.386C168.85 36.5495 165.033 39.6694 160.835 39.6694H135.885C131.688 39.6694 128.417 36.5495 128.25 32.386L128.217 31.564C128.148 29.8587 126.809 28.5819 125.09 28.5819H98.8472C90.0944 28.5819 82.3787 35.6776 81.6124 44.4304L60.4991 285.756C59.7328 294.508 66.2075 301.603 74.9603 301.603H175.927C184.68 301.603 192.396 294.507 193.162 285.756L214.276 44.4304C215.041 35.6776 208.566 28.5819 199.813 28.5819Z" fill="white"/>
<g opacity="0.2">
<path d="M142.989 31.2546C142.892 32.3625 141.916 33.26 140.808 33.26C139.7 33.26 138.881 32.3625 138.979 31.2546C139.076 30.1467 140.052 29.2493 141.159 29.2493C142.267 29.2493 143.086 30.1477 142.989 31.2546Z" fill="black"/>
<path d="M157.381 29.2493C156.589 29.2493 151.298 29.2493 150.505 29.2493C149.397 29.2493 148.421 30.1467 148.324 31.2546C148.227 32.3625 149.047 33.26 150.154 33.26C150.842 33.26 156.342 33.26 157.03 33.26C158.138 33.26 159.114 32.3625 159.211 31.2546C159.308 30.1477 158.489 29.2493 157.381 29.2493Z" fill="black"/>
</g>
<path d="M93.0215 39.6298H95.1448L95.3307 37.5065H93.2074L93.0215 39.6298Z" fill="#407BFF"/>
<path d="M97.4535 37.5065L97.2676 39.6298H99.3909L99.5768 37.5065L99.7627 35.3832H97.6394L97.4535 37.5065Z" fill="#407BFF"/>
<path d="M102.073 33.2599L101.887 35.3832L101.702 37.5065L101.516 39.6298H103.639L103.825 37.5065L104.011 35.3832L104.197 33.2599H102.073Z" fill="#407BFF"/>
<path d="M193.371 33.4023L193.235 34.9594H192.197L191.924 38.0736H192.962L192.826 39.6307H202.169L202.713 33.4023H193.371ZM197.114 38.0736H194L194.273 34.9594H197.387L197.114 38.0736Z" fill="#407BFF"/>
<g opacity="0.4">
<path d="M135.96 39.6704L66.2617 298.836C68.6549 300.58 71.6427 301.603 74.9617 301.603H80.4106L150.853 39.6704H135.96Z" fill="white"/>
<path d="M199.814 28.5819H173.57C171.852 28.5819 170.289 29.8597 169.922 31.5649L169.746 32.3869C168.873 36.4439 165.226 39.5005 161.158 39.6562L90.7109 301.602H144.442L214.277 41.9248C213.736 34.3658 207.712 28.5819 199.814 28.5819Z" fill="white"/>
</g>
<path d="M117.929 102.353H87.1998C85.1218 102.353 83.5845 100.668 83.7666 98.5902L86.6996 65.0616C86.8818 62.9836 88.7135 61.2991 90.7915 61.2991H121.521C123.599 61.2991 125.136 62.9836 124.954 65.0616L122.021 98.5902C121.84 100.668 120.007 102.353 117.929 102.353Z" fill="white"/>
<path d="M196.233 131.815H129.108C127.03 131.815 125.493 130.13 125.675 128.052L131.186 65.0616C131.368 62.9836 133.2 61.2991 135.278 61.2991H202.403C204.481 61.2991 206.018 62.9836 205.836 65.0616L200.325 128.052C200.143 130.13 198.311 131.815 196.233 131.815Z" fill="white"/>
<path d="M191.19 189.46H79.5787C77.5007 189.46 75.9634 187.775 76.1455 185.697L80.025 141.355C80.2072 139.277 82.0389 137.592 84.1169 137.592H195.728C197.806 137.592 199.343 139.277 199.161 141.355L195.282 185.697C195.1 187.775 193.268 189.46 191.19 189.46Z" fill="white"/>
<path d="M183.283 279.859H71.6705C69.5925 279.859 68.0552 278.175 68.2373 276.097L74.9819 199.001C75.164 196.923 76.9958 195.239 79.0738 195.239H190.685C192.763 195.239 194.3 196.923 194.118 199.001L187.373 276.097C187.192 278.175 185.361 279.859 183.283 279.859Z" fill="white"/>
<path d="M105.9 93.6157H75.1705C73.0925 93.6157 71.5552 91.9312 71.7373 89.8532L74.6703 56.3245C74.8525 54.2465 76.6842 52.562 78.7622 52.562H109.492C111.57 52.562 113.107 54.2465 112.925 56.3245L109.992 89.8532C109.81 91.9312 107.978 93.6157 105.9 93.6157Z" fill="#407BFF"/>
<path opacity="0.4" d="M105.9 93.6157H75.1705C73.0925 93.6157 71.5552 91.9312 71.7373 89.8532L74.6703 56.3245C74.8525 54.2465 76.6842 52.562 78.7622 52.562H109.492C111.57 52.562 113.107 54.2465 112.925 56.3245L109.992 89.8532C109.81 91.9312 107.978 93.6157 105.9 93.6157Z" fill="white"/>
<path opacity="0.8" d="M110.093 56.3255C110.138 55.8121 109.756 55.394 109.243 55.394H78.5137C78.0003 55.394 77.5455 55.8121 77.5011 56.3255L74.5681 89.8541C74.5228 90.3675 74.905 90.7855 75.4174 90.7855H106.147C106.66 90.7855 107.114 90.3675 107.16 89.8541L110.093 56.3255Z" fill="white"/>
<path d="M98.3627 71.6644C98.0268 75.5062 95.6883 78.6204 91.8465 78.6204C88.0047 78.6204 86.2117 75.5062 86.5476 71.6644C86.8836 67.8226 89.2221 64.7084 93.0638 64.7084C96.9056 64.7084 98.6996 67.8226 98.3627 71.6644Z" fill="#407BFF"/>
<path d="M105.329 85.1331C104.364 81.6707 101.27 79.368 97.5829 79.368H85.9783C82.2913 79.368 78.7939 81.6707 77.2236 85.1331L74.7832 90.5122C74.937 90.6801 75.1607 90.7849 75.4164 90.7849H106.146C106.403 90.7849 106.643 90.6801 106.827 90.5122L105.329 85.1331Z" fill="#407BFF"/>
<path d="M166.703 270.423H55.0924C53.0143 270.423 51.477 268.739 51.6592 266.661L58.4038 189.565C58.5859 187.487 60.4176 185.803 62.4957 185.803H174.107C176.185 185.803 177.722 187.487 177.54 189.565L170.795 266.661C170.613 268.739 168.781 270.423 166.703 270.423Z" fill="#407BFF"/>
<path opacity="0.4" d="M166.703 270.423H55.0924C53.0143 270.423 51.477 268.739 51.6592 266.661L58.4038 189.565C58.5859 187.487 60.4176 185.803 62.4957 185.803H174.107C176.185 185.803 177.722 187.487 177.54 189.565L170.795 266.661C170.613 268.739 168.781 270.423 166.703 270.423Z" fill="white"/>
<path d="M173.861 188.634H62.2491C61.7358 188.634 61.2809 189.052 61.2365 189.565L54.4919 266.66C54.4466 267.174 54.8279 267.592 55.3413 267.592H166.953C167.467 267.592 167.921 267.174 167.966 266.66L174.711 189.565C174.756 189.052 174.375 188.634 173.861 188.634Z" fill="#263238"/>
<path d="M124.275 238.215C130.364 232.386 130.971 223.14 125.631 217.561C120.291 211.983 111.027 212.186 104.938 218.014C98.8498 223.842 98.2428 233.088 103.582 238.667C108.922 244.245 118.187 244.043 124.275 238.215Z" fill="#407BFF"/>
<path opacity="0.9" d="M122.244 228.112L110.082 235.564L111.386 220.662L122.244 228.112Z" fill="white"/>
<path opacity="0.8" d="M154.493 256.185H60.9492L61.0181 255.398H154.562L154.493 256.185Z" fill="white"/>
<path d="M96.8599 255.791C96.8089 256.377 96.2918 256.853 95.7057 256.853H60.067C59.4809 256.853 59.0469 256.377 59.0978 255.791C59.1488 255.205 59.6659 254.729 60.252 254.729H95.8907C96.4767 254.729 96.9108 255.205 96.8599 255.791Z" fill="#407BFF"/>
<g opacity="0.8">
<path d="M163.244 253.478H164.447L164.357 254.513H165.373L165.519 252.842H163.3L163.244 253.478Z" fill="white"/>
<path d="M156.955 254.513L157.045 253.478H158.249L158.304 252.842H156.084L155.938 254.513H156.955Z" fill="white"/>
<path d="M157.843 258.105H156.639L156.73 257.069H155.713L155.566 258.74H157.787L157.843 258.105Z" fill="white"/>
<path d="M164.135 257.069L164.044 258.105H162.841L162.785 258.74H165.005L165.151 257.069H164.135Z" fill="white"/>
</g>
<g opacity="0.8">
<path opacity="0.9" d="M109.213 264.179L112.842 261.956L109.602 259.732L109.213 264.179Z" fill="white"/>
<path opacity="0.9" d="M113.016 259.966L112.842 261.956L112.668 263.945H113.593L113.94 259.966H113.016Z" fill="white"/>
</g>
<g opacity="0.8">
<path opacity="0.9" d="M117.15 263.946H118.356L118.705 259.967H117.499L117.15 263.946Z" fill="white"/>
<path opacity="0.9" d="M119.629 259.967L119.281 263.946H120.487L120.836 259.967H119.629Z" fill="white"/>
</g>
<path opacity="0.8" d="M106.049 261.956L102.42 264.179L102.809 259.733L106.049 261.956Z" fill="white"/>
<path d="M173.996 179.073H62.3853C60.3073 179.073 58.77 177.388 58.9521 175.31L62.8317 130.968C63.0138 128.89 64.8455 127.205 66.9236 127.205H178.535C180.613 127.205 182.15 128.89 181.968 130.968L178.088 175.31C177.906 177.389 176.074 179.073 173.996 179.073Z" fill="#407BFF"/>
<path opacity="0.4" d="M173.996 179.073H62.3853C60.3073 179.073 58.77 177.388 58.9521 175.31L62.8317 130.968C63.0138 128.89 64.8455 127.205 66.9236 127.205H178.535C180.613 127.205 182.15 128.89 181.968 130.968L178.088 175.31C177.906 177.389 176.074 179.073 173.996 179.073Z" fill="white"/>
<path opacity="0.3" d="M178.329 129.565H66.7176C65.9438 129.565 65.2596 130.195 65.1916 130.969L61.3121 175.311C61.2441 176.085 61.8189 176.714 62.5927 176.714H174.205C174.979 176.714 175.663 176.085 175.731 175.311L179.61 130.969C179.677 130.194 179.103 129.565 178.329 129.565Z" fill="white"/>
<path opacity="0.4" d="M89.5162 153.14H143.307L140.666 140.172L137.126 129.565H82.8574L89.5162 153.14Z" fill="white"/>
<path opacity="0.4" d="M89.5173 153.14L63.1693 154.082L61.3121 175.311C61.2441 176.085 61.8189 176.715 62.5927 176.715H96.227L89.5173 153.14Z" fill="white"/>
<path d="M176.34 168.337L176.781 163.283L145.982 151.055L142.999 142.407L152.439 129.565H147.942L141.781 137.944L139.642 129.565H135.614L138.763 142.051L141.775 150.781H90.8179L85.2397 129.565H81.2394L86.8176 150.781H63.4573L63.0449 155.499H88.0586L93.6368 176.713H97.6371L92.0589 155.499H120.056L134.732 176.713H139.517L124.841 155.499H144.001L176.34 168.337Z" fill="white"/>
<path opacity="0.2" d="M128.631 147.419C128.569 148.135 125.877 148.717 122.62 148.717C119.362 148.717 116.773 148.135 116.835 147.419C116.897 146.703 119.59 146.121 122.846 146.121C126.104 146.121 128.695 146.703 128.631 147.419Z" fill="black"/>
<path d="M124.048 132.399C120.791 132.399 117.919 135.04 117.634 138.297C117.349 141.555 122.686 147.97 122.686 147.97C122.686 147.97 129.145 141.555 129.43 138.297C129.715 135.04 127.306 132.399 124.048 132.399ZM123.296 140.989C121.81 140.989 120.711 139.784 120.841 138.297C120.971 136.811 122.281 135.606 123.767 135.606C125.253 135.606 126.353 136.811 126.223 138.297C126.093 139.784 124.783 140.989 123.296 140.989Z" fill="#407BFF"/>
<path d="M267.579 281.684L266.094 298.63H258.407L257.621 281.684H267.579Z" fill="#B97964"/>
<path d="M254.96 298.212C253.959 298.195 252.927 297.994 252.602 297.557C252.435 297.303 252.446 296.97 252.631 296.728C252.77 296.509 252.988 296.352 253.24 296.291C254.592 295.945 257.375 297.597 257.498 297.671C257.567 297.712 257.603 297.792 257.587 297.871C257.57 297.949 257.508 298.009 257.43 298.025C256.613 298.159 255.787 298.222 254.96 298.212ZM253.705 296.622C253.582 296.617 253.459 296.632 253.339 296.663C253.18 296.687 253.04 296.783 252.96 296.923C252.815 297.158 252.862 297.274 252.915 297.339C253.279 297.871 255.312 297.918 256.814 297.757C255.86 297.187 254.805 296.801 253.705 296.622Z" fill="#407BFF"/>
<path d="M257.398 298.022C257.372 298.03 257.344 298.026 257.319 298.013C256.363 297.57 254.457 295.79 254.644 294.887C254.667 294.669 254.836 294.406 255.363 294.362C255.747 294.328 256.129 294.453 256.42 294.707C257.431 295.568 257.61 297.745 257.618 297.845C257.622 297.914 257.588 297.98 257.529 298.016C257.488 298.034 257.442 298.037 257.398 298.022ZM255.484 294.726L255.374 294.714C255.031 294.738 255.005 294.876 254.99 294.924C254.931 295.469 256.177 296.857 257.166 297.465C257.086 296.55 256.727 295.682 256.138 294.977C255.958 294.816 255.725 294.727 255.484 294.726Z" fill="#407BFF"/>
<path d="M258.27 296.912L267.065 297.062C267.397 297.067 267.681 297.302 267.748 297.627L269.215 304.809C269.35 305.445 268.943 306.07 268.307 306.205C268.225 306.222 268.142 306.231 268.059 306.231C264.889 306.121 262.073 305.899 258.126 305.838C253.468 305.76 254.64 306.337 249.163 306.322C245.862 306.31 245.323 302.548 246.724 302.388C253.141 301.691 253.84 299.769 256.349 297.519C256.893 297.087 257.577 296.872 258.27 296.912Z" fill="#263238"/>
<path d="M244.518 133.892L257.096 287.973H267.578C267.578 287.973 273.675 245.267 269.445 218.41C268.996 215.558 268.946 212.668 269.27 209.799C270.574 198.225 273.761 168.562 273.342 158.523C273.342 158.523 278.674 146.47 274.436 129.699H244.518L244.518 133.892Z" fill="#263238"/>
<path d="M269.064 285.091L268.628 287.974L269.588 290.332H256.311L256.661 287.974L255.525 285.091H269.064Z" fill="#263238"/>
<path opacity="0.3" d="M269.064 285.091L268.628 287.974L269.588 290.332H256.311L256.661 287.974L255.525 285.091H269.064Z" fill="white"/>
<path opacity="0.5" d="M268.794 148.343L274.302 155.738C273.779 157.536 273.343 158.524 273.343 158.524C273.605 164.799 272.692 176.16 271.712 185.971C261.02 160.903 264.071 151.174 264.071 151.174L268.794 148.343Z" fill="black"/>
<path d="M213.807 73.9789L210.092 67.6967L212.414 63.686C212.717 63.1623 212.768 62.5291 212.552 61.9638L212.379 61.5117C212.089 60.7521 211.369 60.2425 210.556 60.2208L206.91 60.1255C206.157 60.1056 205.457 60.5086 205.096 61.1692L204.357 62.5206C203.996 63.1802 203.97 63.971 204.286 64.6533L205.857 68.0431L208.763 75.8361L213.807 73.9789Z" fill="#B97964"/>
<path d="M243.392 72.8762L222.169 88.3245L212.199 69.6742L206.537 72.124C206.537 72.124 215.266 100.397 220.339 99.2563C225.411 98.1154 239.739 91.0329 244.404 86.1691C246.754 83.7192 248.545 79.2206 246.221 73.6556C245.756 72.5459 244.365 72.1684 243.392 72.8762Z" fill="#407BFF"/>
<path d="M251.329 36.0999C251.329 36.0999 243.832 38.0656 247.305 47.11C247.305 47.11 251.035 46.1285 251.644 43.7098C252.253 41.2911 252.824 37.9089 252.824 37.9089L251.329 36.0999Z" fill="#263238"/>
<path opacity="0.3" d="M251.329 36.0999C251.329 36.0999 243.832 38.0656 247.305 47.11C247.305 47.11 251.035 46.1285 251.644 43.7098C252.253 41.2911 252.824 37.9089 252.824 37.9089L251.329 36.0999Z" fill="black"/>
<path d="M269.035 71.9838L255.346 71.5337L249.682 72.3538L248.916 82.675L259.945 86.345L271.716 83.999L272.331 74.0534L271.493 72.065L269.035 71.9838Z" fill="#B97964"/>
<path d="M305.299 281.248L310.371 298.63H316.966L315.633 280.724L305.299 281.248Z" fill="#B97964"/>
<path d="M305.813 298.212C304.813 298.195 303.791 297.994 303.489 297.558C303.335 297.303 303.364 296.971 303.561 296.728C303.711 296.509 303.938 296.352 304.193 296.291C305.563 295.945 308.259 297.597 308.378 297.671C308.445 297.712 308.476 297.792 308.456 297.871C308.436 297.949 308.37 298.01 308.291 298.025C307.468 298.16 306.639 298.222 305.813 298.212ZM304.642 296.622C304.518 296.618 304.395 296.632 304.274 296.663C304.113 296.687 303.968 296.783 303.881 296.923C303.723 297.158 303.765 297.274 303.814 297.34C304.151 297.871 306.181 297.918 307.692 297.758C306.766 297.188 305.731 296.802 304.642 296.622Z" fill="#407BFF"/>
<path d="M308.264 298.022C308.236 298.03 308.208 298.026 308.184 298.014C307.252 297.57 305.438 295.79 305.673 294.887C305.708 294.669 305.89 294.406 306.42 294.362C306.806 294.328 307.181 294.453 307.459 294.707C308.425 295.568 308.489 297.745 308.493 297.846C308.493 297.914 308.456 297.981 308.396 298.016C308.352 298.034 308.305 298.037 308.264 298.022ZM306.522 294.726L306.413 294.714C306.069 294.738 306.036 294.876 306.019 294.924C305.932 295.469 307.105 296.858 308.062 297.465C308.03 296.55 307.716 295.682 307.164 294.977C306.991 294.816 306.763 294.728 306.522 294.726Z" fill="#407BFF"/>
<path d="M309.192 296.912L317.979 297.062C318.31 297.067 318.581 297.302 318.631 297.627L319.722 304.809C319.823 305.445 319.384 306.07 318.741 306.205C318.659 306.222 318.575 306.231 318.491 306.231C315.328 306.121 312.522 305.899 308.578 305.838C303.924 305.76 305.067 306.337 299.59 306.322C296.291 306.31 295.947 302.548 297.358 302.388C303.812 301.691 304.61 299.769 307.237 297.519C307.806 297.087 308.501 296.872 309.192 296.912Z" fill="#263238"/>
<path d="M256.377 129.699L306.256 287.973H316.782C316.782 287.973 311.752 237.088 302.671 217.196C301.547 214.734 300.825 212.113 300.555 209.42C299.576 199.653 297.082 176.555 294.242 163.834C293.882 162.224 293.67 160.598 293.594 158.951C293.342 153.502 291.989 139.895 284.886 129.7H256.377V129.699Z" fill="#263238"/>
<path d="M318.636 285.091L318.048 287.974L318.885 290.332H305.608L305.033 287.974L304.049 285.091H318.636Z" fill="#263238"/>
<path opacity="0.3" d="M318.636 285.091L318.048 287.974L318.885 290.332H305.608L305.033 287.974L304.049 285.091H318.636Z" fill="white"/>
<path d="M270.758 73.6906C270.758 73.6906 266.362 80.3928 259.132 80.0606C252.278 79.7464 251.097 72.9045 251.097 72.9045L250.233 83.3635L249.367 108.686L250.469 119.419L250.39 131.255C250.39 131.255 259.905 132.183 269.736 130.941C269.736 130.941 270.994 87.5309 270.758 87.7668C270.522 88.0028 272.803 80.2173 272.803 80.2173V77.0719L270.758 73.6906Z" fill="#407BFF"/>
<path opacity="0.6" d="M270.758 73.6906C270.758 73.6906 266.362 80.3928 259.132 80.0606C252.278 79.7464 251.097 72.9045 251.097 72.9045L250.233 83.3635L249.367 108.686L250.469 119.419L250.39 131.255C250.39 131.255 259.905 132.183 269.736 130.941C269.736 130.941 270.994 87.5309 270.758 87.7668C270.522 88.0028 272.803 80.2173 272.803 80.2173V77.0719L270.758 73.6906Z" fill="white"/>
<path d="M263.777 71.1763C263.777 71.1763 286.404 69.7863 287.35 76.6139C288.296 83.4416 281.69 97.4394 282.791 107.034C283.892 116.629 289.239 131.01 289.239 131.01C289.239 131.01 272.095 142.423 266.119 138.648C260.142 134.873 261.733 91.6206 261.733 91.6206C261.733 91.6206 274.458 73.5327 267.3 72.589C260.142 71.6453 251.963 70.8876 252.593 76.6139C253.222 82.3403 255.526 91.1487 255.526 91.1487C255.526 91.1487 254.994 139.129 249.919 138.491C244.843 137.852 242.272 132.357 242.272 132.357C242.272 132.357 244.064 124.608 242.272 114.72C240.481 104.833 237.196 97.0535 238.983 89.1972C240.769 81.3409 242.272 71.3972 246.053 71.2273C249.283 71.081 263.777 71.1763 263.777 71.1763Z" fill="#407BFF"/>
<path opacity="0.2" d="M263.777 71.1763C263.777 71.1763 286.404 69.7863 287.35 76.6139C288.296 83.4416 281.69 97.4394 282.791 107.034C283.892 116.629 289.239 131.01 289.239 131.01C289.239 131.01 272.095 142.423 266.119 138.648C260.142 134.873 261.733 91.6206 261.733 91.6206C261.733 91.6206 274.458 73.5327 267.3 72.589C260.142 71.6453 251.963 70.8876 252.593 76.6139C253.222 82.3403 255.526 91.1487 255.526 91.1487C255.526 91.1487 254.994 139.129 249.919 138.491C244.843 137.852 242.272 132.357 242.272 132.357C242.272 132.357 244.064 124.608 242.272 114.72C240.481 104.833 237.196 97.0535 238.983 89.1972C240.769 81.3409 242.272 71.3972 246.053 71.2273C249.283 71.081 263.777 71.1763 263.777 71.1763Z" fill="black"/>
<path d="M254.212 71.1468C258.926 71.1459 263.774 71.177 263.774 71.177C263.774 71.177 266.671 71.0006 270.429 71.0846C271.926 72.1104 273.903 74.479 272.328 79.5099L269.05 80.7678L269.649 83.9925C269.649 83.9925 265.876 89.9755 261.709 92.2442C261.721 91.8431 261.729 91.6204 261.729 91.6204C261.729 91.6204 274.454 73.5325 267.296 72.5888C260.138 71.6451 251.959 70.8873 252.589 76.6137C253.218 82.34 255.522 91.1485 255.522 91.1485C255.522 91.1485 255.521 91.2438 255.518 91.4156C253.5 89.6159 251.784 86.4338 250.539 82.6552L251.876 78.9389L248.912 77.3082C248.914 77.3082 249.383 72.937 254.212 71.1468Z" fill="#407BFF"/>
<path opacity="0.2" d="M254.212 71.1468C258.926 71.1459 263.774 71.177 263.774 71.177C263.774 71.177 266.671 71.0006 270.429 71.0846C271.926 72.1104 273.903 74.479 272.328 79.5099L269.05 80.7678L269.649 83.9925C269.649 83.9925 265.876 89.9755 261.709 92.2442C261.721 91.8431 261.729 91.6204 261.729 91.6204C261.729 91.6204 274.454 73.5325 267.296 72.5888C260.138 71.6451 251.959 70.8873 252.589 76.6137C253.218 82.34 255.522 91.1485 255.522 91.1485C255.522 91.1485 255.521 91.2438 255.518 91.4156C253.5 89.6159 251.784 86.4338 250.539 82.6552L251.876 78.9389L248.912 77.3082C248.914 77.3082 249.383 72.937 254.212 71.1468Z" fill="white"/>
<path d="M255.519 78.7632C252.495 75.5877 254.355 73.2907 254.355 73.2907C259.737 71.4665 259.244 67.4256 258.003 63.6772L266.678 54.8301C266.164 59.5429 265.973 70.3756 269.053 74.1504V75.0139C267.91 75.4348 265.202 76.52 260.9 78.7641L255.519 78.7632Z" fill="#B97964"/>
<path opacity="0.1" d="M258.004 63.676L264.893 56.6501L266.487 57.2211C266.438 58.0695 266.404 58.9943 266.391 59.9663C265.519 61.7546 263.425 64.2667 258.526 65.5285C258.385 64.9103 258.207 64.2894 258.004 63.676Z" fill="black"/>
<path d="M271.092 47.0207C268.994 55.0384 268.282 58.4772 263.366 61.8339C255.968 66.8874 246.583 62.5634 246.236 54.0805C245.925 46.446 249.401 34.6253 257.974 32.9559C264.095 31.7319 270.048 35.7011 271.272 41.8219C271.617 43.5451 271.555 45.3249 271.092 47.0207Z" fill="#B97964"/>
<path d="M252.041 49.0905C251.157 50.4834 250.086 51.7479 248.857 52.8483C249.44 53.4721 250.267 53.8061 251.119 53.7608L252.041 49.0905Z" fill="#A24E3F"/>
<path d="M260.589 46.1355C260.646 46.1327 260.703 46.1176 260.753 46.0902C260.909 45.9968 260.959 45.7948 260.866 45.6401C260.865 45.6382 260.863 45.6363 260.862 45.6344C260.244 44.5463 259.134 43.8282 257.889 43.7102C257.709 43.7102 257.561 43.8499 257.551 44.0292C257.546 44.2075 257.683 44.3566 257.861 44.367C258.888 44.4821 259.797 45.0823 260.306 45.9817C260.367 46.0779 260.474 46.1364 260.589 46.1355Z" fill="#263238"/>
<path d="M247.308 43.7095C247.366 43.7067 247.422 43.6916 247.473 43.6642C248.356 43.1386 249.437 43.0669 250.382 43.4727C250.542 43.5585 250.741 43.4991 250.827 43.3396L250.828 43.3358C250.909 43.1716 250.844 42.9744 250.682 42.8885C249.539 42.3808 248.221 42.4553 247.143 43.0895C246.982 43.1725 246.919 43.3698 247.001 43.5312C247.06 43.6453 247.18 43.7152 247.308 43.7095Z" fill="#263238"/>
<path d="M254.477 55.9607C254.092 55.9616 253.707 55.9286 253.328 55.8607C253.219 55.8427 253.145 55.7399 253.163 55.6304C253.163 55.6285 253.164 55.6257 253.164 55.6238C253.183 55.5162 253.284 55.4435 253.392 55.4596C255.091 55.7918 256.846 55.302 258.126 54.1375C258.201 54.0544 258.33 54.0478 258.414 54.1233C258.497 54.1988 258.503 54.3271 258.427 54.4102C257.361 55.419 255.945 55.9748 254.477 55.9607Z" fill="#263238"/>
<path d="M268.393 53.2898C268.393 53.2898 265.405 50.4077 265.956 45.1419C265.956 45.1419 262.731 41.8408 262.889 38.302C262.889 38.302 261.934 41.1199 262.883 43.1318C262.883 43.1318 254.514 42.5222 254.71 38.302C254.71 38.302 254.16 40.4253 255.417 41.5266C255.417 41.5266 247.98 41.8408 248.986 37.9877C249.991 34.1346 255.82 32.2472 255.82 32.2472C255.82 32.2472 261.375 27.5287 269.052 35.8644C269.052 35.8644 278.095 41.5096 271.684 50.923L268.393 53.2898Z" fill="#263238"/>
<path d="M271.748 53.8163C271.002 55.2347 269.722 56.2973 268.191 56.772C266.157 57.3835 265.098 55.5773 265.628 53.6342C266.102 51.8921 267.735 49.4659 269.796 49.7028C271.292 49.9217 272.327 51.3108 272.108 52.8056C272.056 53.1633 271.933 53.5059 271.748 53.8163Z" fill="#B97964"/>
<path d="M258.068 47.9471C257.997 48.636 257.571 49.1569 257.112 49.1135C256.653 49.0691 256.353 48.4709 256.433 47.7725C256.512 47.0742 256.93 46.5627 257.379 46.607C257.827 46.6514 258.137 47.2488 258.068 47.9471Z" fill="#2E353A"/>
<path d="M250.233 47.127C250.162 47.8159 249.736 48.3378 249.287 48.2925C248.837 48.2472 248.528 47.6498 248.598 46.9524C248.668 46.2541 249.095 45.7417 249.544 45.787C249.993 45.8323 250.312 46.4287 250.233 47.127Z" fill="#2E353A"/>
<path d="M249.738 45.8455L248.125 45.1953C248.125 45.1953 248.847 46.5797 249.738 45.8455Z" fill="#2E353A"/>
<path d="M257.572 46.6649L255.959 46.0146C255.959 46.0146 256.681 47.399 257.572 46.6649Z" fill="#2E353A"/>
<path d="M267.695 60.5257C269.173 60.5257 270.378 59.3225 270.378 57.8428C270.378 57.168 270.126 56.5235 269.67 56.0271L269.323 56.347C269.699 56.7556 269.907 57.2869 269.907 57.8428C269.907 59.062 268.915 60.0538 267.696 60.0538C266.476 60.0538 265.486 59.062 265.486 57.8428C265.486 56.6235 266.477 55.6326 267.696 55.6326C268.011 55.6326 268.315 55.6968 268.599 55.8251L268.792 55.3948C268.447 55.24 268.078 55.1608 267.696 55.1608C266.217 55.1608 265.014 56.364 265.014 57.8428C265.014 59.3215 266.216 60.5257 267.695 60.5257Z" fill="#407BFF"/>
<g opacity="0.6">
<path d="M267.695 60.5257C269.173 60.5257 270.378 59.3225 270.378 57.8428C270.378 57.168 270.126 56.5235 269.67 56.0271L269.323 56.347C269.699 56.7556 269.907 57.2869 269.907 57.8428C269.907 59.062 268.915 60.0538 267.696 60.0538C266.476 60.0538 265.486 59.062 265.486 57.8428C265.486 56.6235 266.477 55.6326 267.696 55.6326C268.011 55.6326 268.315 55.6968 268.599 55.8251L268.792 55.3948C268.447 55.24 268.078 55.1608 267.696 55.1608C266.217 55.1608 265.014 56.364 265.014 57.8428C265.014 59.3215 266.216 60.5257 267.695 60.5257Z" fill="white"/>
</g>
<path d="M238.848 119.42L231.189 123.664L223.081 122.658C222.783 122.621 222.48 122.692 222.23 122.858L219.179 124.882C219.018 124.989 218.884 125.13 218.788 125.297L217.911 126.797C217.461 127.567 217.933 128.549 218.815 128.679C218.815 128.679 224.019 129.757 225.777 129.701C227.326 129.651 231.839 128.408 231.839 128.408L242.606 124.56L238.848 119.42Z" fill="#B97964"/>
<path d="M284.6 74.7274C280.203 71.8642 274.991 78.4909 270.72 87.6938C266.449 96.8968 262.677 105.03 262.677 105.03L232.537 122.372L234.603 127.908C234.603 127.908 263.603 119.775 270.68 111.046C277.758 102.316 290.616 78.6456 284.6 74.7274Z" fill="#407BFF"/>
<path d="M158.889 125.584H221.861C224.396 125.584 226.633 123.528 226.855 120.992L231.44 68.5837C231.662 66.048 229.786 63.9917 227.25 63.9917H164.279C161.743 63.9917 159.507 66.048 159.285 68.5837L154.699 120.992C154.478 123.529 156.354 125.584 158.889 125.584Z" fill="#407BFF"/>
<g opacity="0.4">
<path d="M158.889 125.584H221.861C224.396 125.584 226.633 123.528 226.855 120.992L231.44 68.5837C231.662 66.048 229.786 63.9917 227.25 63.9917H164.279C161.743 63.9917 159.507 66.048 159.285 68.5837L154.699 120.992C154.478 123.529 156.354 125.584 158.889 125.584Z" fill="white"/>
</g>
<path d="M163.923 66.7535C162.976 66.7535 162.138 67.5236 162.055 68.4711L157.45 121.105C157.367 122.051 158.07 122.822 159.017 122.822H222.215C223.163 122.822 224 122.051 224.083 121.105L228.688 68.4711C228.771 67.5236 228.068 66.7535 227.12 66.7535H163.923Z" fill="#407BFF"/>
<path opacity="0.8" d="M163.923 66.7535C162.976 66.7535 162.138 67.5236 162.055 68.4711L157.45 121.105C157.367 122.051 158.07 122.822 159.017 122.822H222.215C223.163 122.822 224 122.051 224.083 121.105L228.688 68.4711C228.771 67.5236 228.068 66.7535 227.12 66.7535H163.923Z" fill="white"/>
<path d="M177.298 93.0656L157.559 119.87L157.45 121.105C157.367 122.051 158.07 122.822 159.017 122.822H194.004L177.298 93.0656Z" fill="#407BFF"/>
<path d="M224.563 115.605L209.349 84.4097L183.895 122.822H222.214C223.162 122.822 223.999 122.051 224.082 121.104L224.563 115.605Z" fill="#407BFF"/>
<path opacity="0.2" d="M224.563 115.605L209.349 84.4097L183.895 122.822H222.214C223.162 122.822 223.999 122.051 224.082 121.104L224.563 115.605Z" fill="white"/>
<path d="M198.864 79.9167C198.647 82.3987 196.458 84.4106 193.977 84.4106C191.495 84.4106 189.66 82.3987 189.877 79.9167C190.094 77.4348 192.282 75.4229 194.764 75.4229C197.244 75.4229 199.081 77.4348 198.864 79.9167Z" fill="#407BFF"/>
</svg>
