<svg width="60" height="60" viewBox="0 0 60 60" fill="none" xmlns="http://www.w3.org/2000/svg">
<g clip-path="url(#clip0_630_3109)">
<rect width="66.4032" height="66.4032" transform="translate(-2.99609 -3.68848)" fill="#6C76B7"/>
<path fill-rule="evenodd" clip-rule="evenodd" d="M30.0435 16.777L30.8012 18.7725C30.8239 18.8325 30.877 18.871 30.941 18.8742L33.073 18.9781C33.218 18.9852 33.2774 19.1679 33.1642 19.2588L31.5005 20.596C31.4505 20.6362 31.4302 20.6986 31.447 20.7605L32.007 22.8202C32.0451 22.9603 31.8898 23.0732 31.7683 22.9937L29.9824 21.8246C29.9287 21.7895 29.8632 21.7895 29.8095 21.8246L28.0235 22.9937C27.9021 23.0732 27.7467 22.9604 27.7848 22.8203L28.3448 20.7605C28.3616 20.6985 28.3414 20.6362 28.2914 20.596L26.6276 19.2588C26.5144 19.1679 26.5738 18.9852 26.7188 18.9781L28.8508 18.8742C28.9149 18.871 28.9679 18.8325 28.9907 18.7725L29.7483 16.777C29.7996 16.642 29.9923 16.642 30.0435 16.777ZM39.9369 33.1974C42.7332 33.1974 45 35.4642 45 38.2604C45 41.0567 42.7332 43.3235 39.9369 43.3235C37.1407 43.3235 34.8739 41.0567 34.8739 38.2604C34.8739 35.4641 37.1407 33.1974 39.9369 33.1974ZM39.2719 38.707L38.1406 37.5757C37.8474 37.2825 37.3718 37.2825 37.0785 37.5757C36.7854 37.8689 36.7854 38.3445 37.0785 38.6377L38.7425 40.3016C39.0357 40.5948 39.5113 40.5948 39.8045 40.3016C40.8074 39.2987 41.799 38.2844 42.7973 37.2769C43.0884 36.9831 43.0875 36.509 42.794 36.2172C42.5005 35.9253 42.0252 35.9262 41.7337 36.2205L39.2719 38.707ZM29.896 24.8158C31.9726 24.8158 33.656 26.4992 33.656 28.5759C33.656 30.6525 31.9726 32.3359 29.896 32.3359C27.8194 32.3359 26.1359 30.6525 26.1359 28.5759C26.1359 26.4992 27.8194 24.8158 29.896 24.8158ZM23.2338 39.5975L34.0222 39.5975C33.9254 39.1672 33.8739 38.7199 33.8739 38.2604C33.8739 37.0141 34.2502 35.8558 34.8949 34.8924C33.5744 33.6925 31.8208 32.9609 29.896 32.9609C26.3222 32.9609 23.3375 35.4819 22.6224 38.8424C22.5392 39.2334 22.834 39.5975 23.2338 39.5975ZM44.7562 25.4418L43.4068 27.0957C43.3662 27.1454 43.3594 27.2106 43.3887 27.2677L44.3647 29.166C44.4311 29.2952 44.3026 29.4379 44.1673 29.3854L42.1773 28.6131C42.1175 28.5899 42.0534 28.6035 42.0082 28.649L40.5044 30.1639C40.4021 30.2669 40.2267 30.1889 40.2348 30.0439L40.3543 27.9127C40.3579 27.8486 40.3251 27.7919 40.2679 27.7629L38.3624 26.8009C38.2329 26.7354 38.2529 26.5444 38.3932 26.5074L40.457 25.9624C40.519 25.946 40.5629 25.8974 40.5727 25.8339L40.8989 23.7245C40.9211 23.581 41.109 23.541 41.1876 23.6631L42.3436 25.4575C42.3784 25.5115 42.4382 25.5382 42.5015 25.5279L44.6085 25.1862C44.7511 25.1631 44.8474 25.33 44.7562 25.4418ZM38.5607 19.1382C38.5839 18.9958 38.417 18.8994 38.3051 18.9907L36.6512 20.34C36.6015 20.3806 36.5363 20.3875 36.4792 20.3581L34.5809 19.3821C34.4518 19.3157 34.309 19.4442 34.3615 19.5796L35.1338 21.5695C35.157 21.6294 35.1434 21.6934 35.0979 21.7387L33.583 23.2425C33.4799 23.3448 33.558 23.5202 33.703 23.5121L35.8342 23.3926C35.8982 23.389 35.955 23.4218 35.9839 23.479L36.946 25.3845C37.0115 25.5141 37.2025 25.494 37.2395 25.3537L37.7845 23.2899C37.8009 23.2279 37.8495 23.184 37.913 23.1742L40.0224 22.848C40.1659 22.8258 40.2059 22.6379 40.0838 22.5593L38.2894 21.4033C38.2355 21.3685 38.2089 21.3087 38.2191 21.2454L38.5607 19.1382ZM15.1832 25.1862L17.2903 25.5278C17.3536 25.538 17.4135 25.5114 17.4482 25.4575L18.6042 23.6631C18.6829 23.541 18.8707 23.581 18.8929 23.7245L19.2191 25.834C19.2289 25.8974 19.2727 25.9461 19.3348 25.9625L21.3986 26.5074C21.539 26.5445 21.559 26.7355 21.4295 26.8009L19.524 27.763C19.4668 27.792 19.434 27.8487 19.4376 27.9128L19.5571 30.044C19.5652 30.1889 19.3898 30.267 19.2875 30.164L17.7836 28.649C17.7384 28.6035 17.6743 28.5899 17.6145 28.613L15.6245 29.3853C15.4892 29.4378 15.3607 29.2951 15.4271 29.166L16.4031 27.2676C16.4325 27.2105 16.4256 27.1454 16.385 27.0957L15.0357 25.4417C14.9444 25.3299 15.0408 25.163 15.1832 25.1862ZM21.4867 18.9907C21.3749 18.8994 21.208 18.9958 21.2312 19.1382L21.5728 21.2452C21.583 21.3085 21.5564 21.3684 21.5025 21.4032L19.708 22.5592C19.586 22.6378 19.6259 22.8257 19.7694 22.8479L21.8789 23.174C21.9423 23.1839 21.991 23.2277 22.0074 23.2897L22.5524 25.3535C22.5894 25.4939 22.7804 25.514 22.8459 25.3844L23.8079 23.4789C23.8369 23.4217 23.8936 23.3889 23.9577 23.3925L26.0889 23.512C26.2338 23.5201 26.3119 23.3447 26.2089 23.2424L24.694 21.7385C24.6484 21.6934 24.6349 21.6292 24.658 21.5694L25.4303 19.5794C25.4828 19.4441 25.3401 19.3155 25.211 19.382L23.3127 20.358C23.2556 20.3873 23.1904 20.3805 23.1407 20.3399L21.4867 18.9907Z" fill="white"/>
</g>
<defs>
<clipPath id="clip0_630_3109">
<rect x="0.693359" width="59.0251" height="59.025" rx="29.5125" fill="white"/>
</clipPath>
</defs>
</svg>
