<svg width="60" height="60" viewBox="0 0 60 60" fill="none" xmlns="http://www.w3.org/2000/svg">
<g clip-path="url(#clip0_630_3040)">
<rect width="66.4032" height="66.4032" transform="translate(-3.30469 -3.68945)" fill="#6C76B7"/>
<path d="M29.4676 31.5998V34.2665H30.5342V31.5998C30.5342 31.4584 30.5904 31.3227 30.6905 31.2227C30.7905 31.1227 30.9261 31.0665 31.0676 31.0665H33.7342V29.9998H31.0676C30.9261 29.9998 30.7905 29.9436 30.6905 29.8436C30.5904 29.7436 30.5342 29.6079 30.5342 29.4665V26.7998H29.4676V29.4665C29.4676 29.6079 29.4114 29.7436 29.3114 29.8436C29.2113 29.9436 29.0757 29.9998 28.9342 29.9998H26.2676V31.0665H28.9342C29.0757 31.0665 29.2113 31.1227 29.3114 31.2227C29.4114 31.3227 29.4676 31.4584 29.4676 31.5998Z" fill="white"/>
<path d="M19.8672 36.9336C19.8834 38.1648 20.2802 39.3609 21.0032 40.3576C21.6376 39.8193 22.4574 39.5502 23.2875 39.608C24.1176 39.6658 24.8921 40.0459 25.4459 40.6669H33.8299L35.5952 38.3523C35.898 37.9653 36.2745 37.6421 36.7029 37.4014C37.1313 37.1606 37.6031 37.0071 38.0912 36.9496C38.7862 36.8638 39.4913 36.9785 40.1232 37.2803C40.1285 37.1629 40.1339 37.0456 40.1339 36.9336C40.1291 35.8764 39.8796 34.8346 39.4049 33.8899C38.9302 32.9451 38.2433 32.1232 37.3979 31.4883C37.1677 33.2876 36.2896 34.9414 34.928 36.14C33.5663 37.3385 31.8145 37.9997 30.0005 37.9997C28.1865 37.9997 26.4347 37.3385 25.0731 36.14C23.7114 34.9414 22.8333 33.2876 22.6032 31.4883C21.7578 32.1232 21.0708 32.9451 20.5961 33.8899C20.1215 34.8346 19.872 35.8764 19.8672 36.9336Z" fill="white"/>
<path d="M40.192 38.5658C40.1866 38.5658 40.1866 38.5658 40.1813 38.5605C39.626 38.1229 38.9197 37.9237 38.2177 38.0067C37.5156 38.0897 36.8752 38.4481 36.4373 39.0031L35.168 40.6671H41.1946C41.197 40.2639 41.108 39.8654 40.9343 39.5015C40.7607 39.1375 40.5069 38.8177 40.192 38.5658Z" fill="white"/>
<path d="M15.0664 39.0668C15.0677 39.4908 15.2367 39.897 15.5364 40.1968C15.8362 40.4966 16.2424 40.6655 16.6664 40.6668H19.9357C19.2051 39.5579 18.8106 38.2614 18.7997 36.9335C18.8106 35.5902 19.1599 34.2713 19.8152 33.0986C20.4705 31.926 21.4107 30.9374 22.5491 30.2241C22.6255 28.2993 23.4439 26.4786 24.8328 25.1438C26.2217 23.8089 28.0733 23.0633 29.9997 23.0633C31.9261 23.0633 33.7778 23.8089 35.1667 25.1438C36.5556 26.4786 37.374 28.2993 37.4504 30.2241C38.5887 30.9374 39.529 31.926 40.1843 33.0986C40.8396 34.2713 41.1888 35.5902 41.1997 36.9335C41.2 37.2784 41.1715 37.6227 41.1144 37.9628C41.4794 38.3121 41.7697 38.7319 41.9677 39.1967C42.1657 39.6614 42.2673 40.1616 42.2664 40.6668H43.3331C43.757 40.6655 44.1633 40.4966 44.463 40.1968C44.7628 39.897 44.9318 39.4908 44.9331 39.0668V21.4668H15.0664V39.0668Z" fill="white"/>
<path d="M24.1328 15.5997V17.7331C24.1328 17.8745 24.189 18.0102 24.289 18.1102C24.389 18.2102 24.5247 18.2664 24.6661 18.2664C24.8076 18.2664 24.9433 18.2102 25.0433 18.1102C25.1433 18.0102 25.1995 17.8745 25.1995 17.7331V15.5997C25.1995 15.4583 25.1433 15.3226 25.0433 15.2226C24.9433 15.1226 24.8076 15.0664 24.6661 15.0664C24.5247 15.0664 24.389 15.1226 24.289 15.2226C24.189 15.3226 24.1328 15.4583 24.1328 15.5997Z" fill="white"/>
<path d="M18.8008 15.5997V17.7331C18.8008 17.8745 18.857 18.0102 18.957 18.1102C19.057 18.2102 19.1927 18.2664 19.3341 18.2664C19.4756 18.2664 19.6112 18.2102 19.7112 18.1102C19.8113 18.0102 19.8674 17.8745 19.8674 17.7331V15.5997C19.8674 15.4583 19.8113 15.3226 19.7112 15.2226C19.6112 15.1226 19.4756 15.0664 19.3341 15.0664C19.1927 15.0664 19.057 15.1226 18.957 15.2226C18.857 15.3226 18.8008 15.4583 18.8008 15.5997Z" fill="white"/>
<path d="M35.3341 15.0664C35.1927 15.0664 35.057 15.1226 34.957 15.2226C34.857 15.3226 34.8008 15.4583 34.8008 15.5997V17.7331C34.8008 17.8745 34.857 18.0102 34.957 18.1102C35.057 18.2102 35.1927 18.2664 35.3341 18.2664C35.4756 18.2664 35.6112 18.2102 35.7112 18.1102C35.8113 18.0102 35.8674 17.8745 35.8674 17.7331V15.5997C35.8674 15.4583 35.8113 15.3226 35.7112 15.2226C35.6112 15.1226 35.4756 15.0664 35.3341 15.0664Z" fill="white"/>
<path d="M29.9996 36.9338C31.2654 36.9338 32.5028 36.5584 33.5553 35.8552C34.6077 35.152 35.428 34.1524 35.9124 32.983C36.3968 31.8135 36.5236 30.5267 36.2766 29.2852C36.0297 28.0437 35.4202 26.9034 34.5251 26.0083C33.63 25.1133 32.4897 24.5037 31.2482 24.2568C30.0067 24.0098 28.7199 24.1366 27.5504 24.621C26.381 25.1054 25.3814 25.9257 24.6782 26.9781C23.975 28.0306 23.5996 29.268 23.5996 30.5338C23.6014 32.2306 24.2763 33.8574 25.4762 35.0572C26.676 36.2571 28.3028 36.932 29.9996 36.9338ZM25.1996 30.0005C25.1996 29.7176 25.312 29.4463 25.512 29.2462C25.7121 29.0462 25.9834 28.9338 26.2663 28.9338H28.3996V26.8005C28.3996 26.5176 28.512 26.2462 28.712 26.0462C28.9121 25.8462 29.1834 25.7338 29.4663 25.7338H30.5329C30.8158 25.7338 31.0872 25.8462 31.2872 26.0462C31.4872 26.2462 31.5996 26.5176 31.5996 26.8005V28.9338H33.7329C34.0158 28.9338 34.2872 29.0462 34.4872 29.2462C34.6872 29.4463 34.7996 29.7176 34.7996 30.0005V31.0671C34.7996 31.35 34.6872 31.6213 34.4872 31.8214C34.2872 32.0214 34.0158 32.1338 33.7329 32.1338H31.5996V34.2671C31.5996 34.55 31.4872 34.8213 31.2872 35.0214C31.0872 35.2214 30.8158 35.3338 30.5329 35.3338H29.4663C29.1834 35.3338 28.9121 35.2214 28.712 35.0214C28.512 34.8213 28.3996 34.55 28.3996 34.2671V32.1338H26.2663C25.9834 32.1338 25.7121 32.0214 25.512 31.8214C25.312 31.6213 25.1996 31.35 25.1996 31.0671V30.0005Z" fill="white"/>
<path d="M29.4668 15.5997V17.7331C29.4668 17.8745 29.523 18.0102 29.623 18.1102C29.723 18.2102 29.8587 18.2664 30.0001 18.2664C30.1416 18.2664 30.2772 18.2102 30.3773 18.1102C30.4773 18.0102 30.5335 17.8745 30.5335 17.7331V15.5997C30.5335 15.4583 30.4773 15.3226 30.3773 15.2226C30.2772 15.1226 30.1416 15.0664 30.0001 15.0664C29.8587 15.0664 29.723 15.1226 29.623 15.2226C29.523 15.3226 29.4668 15.4583 29.4668 15.5997Z" fill="white"/>
<path d="M43.3331 17.2002H42.2664V17.7335C42.2664 18.1579 42.0978 18.5648 41.7978 18.8649C41.4977 19.165 41.0908 19.3335 40.6664 19.3335C40.2421 19.3335 39.8351 19.165 39.535 18.8649C39.235 18.5648 39.0664 18.1579 39.0664 17.7335V17.2002H36.9331V17.7335C36.9331 18.1579 36.7645 18.5648 36.4644 18.8649C36.1644 19.165 35.7574 19.3335 35.3331 19.3335C34.9087 19.3335 34.5018 19.165 34.2017 18.8649C33.9016 18.5648 33.7331 18.1579 33.7331 17.7335V17.2002H31.5997V17.7335C31.5997 18.1579 31.4312 18.5648 31.1311 18.8649C30.8311 19.165 30.4241 19.3335 29.9997 19.3335C29.5754 19.3335 29.1684 19.165 28.8684 18.8649C28.5683 18.5648 28.3997 18.1579 28.3997 17.7335V17.2002H26.2664V17.7335C26.2664 18.1579 26.0978 18.5648 25.7978 18.8649C25.4977 19.165 25.0908 19.3335 24.6664 19.3335C24.2421 19.3335 23.8351 19.165 23.535 18.8649C23.235 18.5648 23.0664 18.1579 23.0664 17.7335V17.2002H20.9331V17.7335C20.9331 18.1579 20.7645 18.5648 20.4644 18.8649C20.1644 19.165 19.7574 19.3335 19.3331 19.3335C18.9087 19.3335 18.5018 19.165 18.2017 18.8649C17.9016 18.5648 17.7331 18.1579 17.7331 17.7335V17.2002H16.6664C16.2421 17.2002 15.8351 17.3688 15.535 17.6688C15.235 17.9689 15.0664 18.3758 15.0664 18.8002V20.4002H44.9331V18.8002C44.9331 18.3758 44.7645 17.9689 44.4644 17.6688C44.1644 17.3688 43.7574 17.2002 43.3331 17.2002Z" fill="white"/>
<path d="M41.1995 17.7331V15.5997C41.1995 15.4583 41.1433 15.3226 41.0433 15.2226C40.9433 15.1226 40.8076 15.0664 40.6661 15.0664C40.5247 15.0664 40.389 15.1226 40.289 15.2226C40.189 15.3226 40.1328 15.4583 40.1328 15.5997V17.7331C40.1328 17.8745 40.189 18.0102 40.289 18.1102C40.389 18.2102 40.5247 18.2664 40.6661 18.2664C40.8076 18.2664 40.9433 18.2102 41.0433 18.1102C41.1433 18.0102 41.1995 17.8745 41.1995 17.7331Z" fill="white"/>
<path d="M23.0669 44.9337C24.2451 44.9337 25.2003 43.9785 25.2003 42.8003C25.2003 41.6221 24.2451 40.667 23.0669 40.667C21.8887 40.667 20.9336 41.6221 20.9336 42.8003C20.9336 43.9785 21.8887 44.9337 23.0669 44.9337Z" fill="white"/>
<path d="M33.177 41.7275L32.9423 42.0315C32.7683 42.2542 32.6892 42.5364 32.7222 42.8171C32.7551 43.0977 32.8975 43.3539 33.1183 43.5302L33.5396 43.8609C33.6507 43.9486 33.792 43.9886 33.9325 43.9721C34.073 43.9556 34.2013 43.8839 34.289 43.7729C34.3767 43.6618 34.4167 43.5205 34.4002 43.38C34.3837 43.2395 34.312 43.1112 34.201 43.0235L33.785 42.6875L34.5156 41.7275H33.177Z" fill="white"/>
<path d="M42.1207 41.7334H40.8807C40.87 41.7494 40.8594 41.7601 40.8487 41.7761L38.8407 44.4001L38.4247 44.0694C38.3697 44.026 38.3067 43.9938 38.2393 43.9747C38.1719 43.9556 38.1014 43.95 38.0318 43.9582C37.9622 43.9664 37.8949 43.9882 37.8338 44.0224C37.7726 44.0565 37.7188 44.1024 37.6754 44.1574C37.632 44.2124 37.5998 44.2754 37.5807 44.3428C37.5616 44.4102 37.556 44.4807 37.5642 44.5503C37.5724 44.6199 37.5942 44.6872 37.6283 44.7483C37.6625 44.8095 37.7084 44.8633 37.7634 44.9067L38.1847 45.2374C38.3708 45.3865 38.6023 45.4674 38.8407 45.4667C38.8835 45.4676 38.9262 45.4658 38.9687 45.4614C39.2526 45.4261 39.5113 45.2805 39.6887 45.0561L41.6887 42.4321C41.8613 42.2181 42.0064 41.9834 42.1207 41.7334Z" fill="white"/>
</g>
<defs>
<clipPath id="clip0_630_3040">
<rect x="0.382812" width="59.0251" height="59.025" rx="29.5125" fill="white"/>
</clipPath>
</defs>
</svg>
