<svg width="60" height="60" viewBox="0 0 60 60" fill="none" xmlns="http://www.w3.org/2000/svg">
<g clip-path="url(#clip0_630_3095)">
<rect width="66.4032" height="66.4032" transform="translate(-3.61328 -3.68945)" fill="#6C76B7"/>
<g clip-path="url(#clip1_630_3095)">
<path d="M14.6875 23.4375H29.0625V25.3125H14.6875V23.4375Z" fill="white"/>
<path d="M29.0625 26.5625H14.6875V30.9375H29.0625V26.5625ZM20.625 29.0625H17.1875C16.8423 29.0625 16.5625 28.7827 16.5625 28.4375C16.5625 28.0923 16.8423 27.8125 17.1875 27.8125H20.625C20.9702 27.8125 21.25 28.0923 21.25 28.4375C21.25 28.7827 20.9702 29.0625 20.625 29.0625ZM26.5625 29.0625H23.125C22.7798 29.0625 22.5 28.7827 22.5 28.4375C22.5 28.0923 22.7798 27.8125 23.125 27.8125H26.5625C26.9077 27.8125 27.1875 28.0923 27.1875 28.4375C27.1875 28.7827 26.9077 29.0625 26.5625 29.0625Z" fill="white"/>
<path d="M32.8411 20.3115C32.7925 20.3138 22.759 20.3128 20.3125 20.313V22.188H30.3125V32.188H20.3125V39.688H39.6875V26.563C36.1071 26.563 33.1573 23.811 32.8411 20.3115Z" fill="white"/>
<path d="M32.8409 19.0639C33.0274 16.9988 34.1308 15.1942 35.7406 14.0625H22.8125C21.4338 14.0625 20.3125 15.1838 20.3125 16.5625V19.0625C22.797 19.0627 32.7915 19.0617 32.8409 19.0639ZM30.9375 17.1875H27.8125C27.4673 17.1875 27.1875 16.9077 27.1875 16.5625C27.1875 16.2173 27.4673 15.9375 27.8125 15.9375H30.9375C31.2826 15.9375 31.5625 16.2173 31.5625 16.5625C31.5625 16.9077 31.2826 17.1875 30.9375 17.1875Z" fill="white"/>
<path d="M20.3125 43.4375C20.3125 44.8162 21.4338 45.9375 22.8125 45.9375H37.1875C38.5662 45.9375 39.6875 44.8162 39.6875 43.4375V40.9375H20.3125V43.4375ZM28.4375 42.8125H31.5625C31.9075 42.8125 32.1875 43.0925 32.1875 43.4375C32.1875 43.7825 31.9075 44.0625 31.5625 44.0625H28.4375C28.0925 44.0625 27.8125 43.7825 27.8125 43.4375C27.8125 43.0925 28.0925 42.8125 28.4375 42.8125Z" fill="white"/>
<path d="M39.6875 14.0625C36.5809 14.0625 34.0625 16.5809 34.0625 19.6875C34.0625 22.7941 36.5809 25.3125 39.6875 25.3125C42.7941 25.3125 45.3125 22.7941 45.3125 19.6875C45.3125 16.5809 42.7941 14.0625 39.6875 14.0625ZM42.4732 18.4888L39.1919 21.7701C38.9478 22.0141 38.5522 22.0141 38.308 21.7701L36.9018 20.3638C36.6577 20.1198 36.6577 19.724 36.9018 19.4799C37.1459 19.2358 37.5415 19.2358 37.7857 19.4799L38.75 20.4443L41.5893 17.6049C41.8334 17.3609 42.2291 17.3609 42.4732 17.6049C42.7173 17.849 42.7173 18.2448 42.4732 18.4888Z" fill="white"/>
</g>
</g>
<defs>
<clipPath id="clip0_630_3095">
<rect x="0.078125" width="59.0251" height="59.025" rx="29.5125" fill="white"/>
</clipPath>
<clipPath id="clip1_630_3095">
<rect width="32" height="32" fill="white" transform="translate(14 14)"/>
</clipPath>
</defs>
</svg>
