<svg width="60" height="60" viewBox="0 0 60 60" fill="none" xmlns="http://www.w3.org/2000/svg">
<g clip-path="url(#clip0_630_3083)">
<rect width="66.4032" height="66.4032" transform="translate(-3.30469 -3.27051)" fill="#6C76B7"/>
<g clip-path="url(#clip1_630_3083)">
<path d="M34.6875 14H23.4375C18.2684 14 14 18.2684 14 23.4375C14 28.1644 17.5781 32.0847 22.1311 32.7219C22.4174 32.8564 23.0911 32.8125 23.4375 32.8125V35.625C23.4375 35.9711 23.6279 36.2887 23.9328 36.4517C24.2338 36.6133 24.6047 36.5986 24.8951 36.4051L30.2838 32.8125H34.6875C39.8566 32.8125 44.125 28.6066 44.125 23.4375C44.125 18.2684 39.8566 14 34.6875 14ZM23.4375 25.3125C22.4039 25.3125 21.5625 24.4711 21.5625 23.4375C21.5625 22.4039 22.4039 21.5625 23.4375 21.5625C24.4711 21.5625 25.3125 22.4039 25.3125 23.4375C25.3125 24.4711 24.4711 25.3125 23.4375 25.3125ZM29.0625 25.3125C28.0289 25.3125 27.1875 24.4711 27.1875 23.4375C27.1875 22.4039 28.0289 21.5625 29.0625 21.5625C30.0961 21.5625 30.9375 22.4039 30.9375 23.4375C30.9375 24.4711 30.0961 25.3125 29.0625 25.3125ZM34.6875 25.3125C33.6539 25.3125 32.8125 24.4711 32.8125 23.4375C32.8125 22.4039 33.6539 21.5625 34.6875 21.5625C35.7211 21.5625 36.5625 22.4039 36.5625 23.4375C36.5625 24.4711 35.7211 25.3125 34.6875 25.3125Z" fill="white"/>
<path d="M44.8401 28.3809C43.0059 32.1091 39.1159 34.6871 34.6875 34.6871H30.8514L25.9351 37.9647C25.0547 38.5528 23.9407 38.5831 23.0466 38.1039C22.1319 37.615 21.5625 36.6647 21.5625 35.6246V34.5305C19.4502 34.1745 17.5004 33.213 15.9704 31.8621C15.9384 32.1789 15.875 32.4897 15.875 32.8121C15.875 37.9812 20.1434 42.1871 25.3125 42.1871H29.7162L35.105 45.8421C35.3953 46.0356 35.7662 46.0503 36.0672 45.8888C36.3721 45.7259 36.5625 45.4082 36.5625 45.0621V42.1871C36.9089 42.1871 37.5826 42.231 37.8689 42.0965C42.4219 41.4593 46 37.538 46 32.8121C46 31.2297 45.5709 29.7314 44.8401 28.3809Z" fill="white"/>
</g>
</g>
<defs>
<clipPath id="clip0_630_3083">
<rect x="0.382812" y="0.417969" width="59.0251" height="59.025" rx="29.5125" fill="white"/>
</clipPath>
<clipPath id="clip1_630_3083">
<rect width="32" height="32" fill="white" transform="translate(14 14)"/>
</clipPath>
</defs>
</svg>
