<svg width="60" height="60" viewBox="0 0 60 60" fill="none" xmlns="http://www.w3.org/2000/svg">
<g clip-path="url(#clip0_630_3031)">
<rect width="66.4032" height="66.4032" transform="translate(-3.61328 -3.68848)" fill="#6C76B7"/>
<g clip-path="url(#clip1_630_3031)">
<path d="M32.0828 22.3959C32.0828 25.9627 29.1913 28.8541 25.6244 28.8541C22.0576 28.8541 19.166 25.9627 19.166 22.3959C19.166 18.8291 22.0576 15.9375 25.6244 15.9375C29.1913 15.9375 32.0828 18.8291 32.0828 22.3959Z" fill="white"/>
<path d="M31.1147 31.4375H20.1353C16.7525 31.4375 14 34.19 14 37.5728V42.0938C14 42.6285 14.434 43.0625 14.9688 43.0625H36.2812C36.816 43.0625 37.25 42.6285 37.25 42.0938V37.5728C37.25 34.19 34.4975 31.4375 31.1147 31.4375Z" fill="white"/>
<path d="M44.6919 26.8524L40.171 22.6545C39.9889 22.4852 39.7512 22.3975 39.5123 22.3975C38.8716 22.3975 38.5422 22.9426 38.5422 23.365V26.2713H33.3756C32.6613 26.2713 32.084 26.8498 32.084 27.5629C32.084 28.2759 32.6613 28.8545 33.3756 28.8545H38.5422V31.7607C38.5422 32.2981 38.9788 32.7295 39.5109 32.7295C39.7512 32.7295 39.9877 32.6405 40.171 32.4712L44.6919 28.2733C44.8882 28.0898 45.0006 27.8315 45.0006 27.5629C45.0006 27.2942 44.8882 27.0359 44.6919 26.8524Z" fill="white"/>
</g>
</g>
<defs>
<clipPath id="clip0_630_3031">
<rect x="0.078125" width="59.0251" height="59.025" rx="29.5125" fill="white"/>
</clipPath>
<clipPath id="clip1_630_3031">
<rect width="31" height="31" fill="white" transform="translate(14 14)"/>
</clipPath>
</defs>
</svg>
