<svg width="500" height="376" viewBox="0 0 500 376" fill="none" xmlns="http://www.w3.org/2000/svg">
<rect width="500" height="376" rx="8" fill="#FFEBEC"/>
<mask id="mask0_248_10202" style="mask-type:luminance" maskUnits="userSpaceOnUse" x="167" y="158" width="277" height="219">
<path d="M443.033 158.951H167.334V376H443.033V158.951Z" fill="white"/>
</mask>
<g mask="url(#mask0_248_10202)">
<path d="M281.454 358.523C261.098 404.039 269.114 463.608 273.222 480.382C279.497 506 314.247 498.711 326.542 487.185C349.453 465.707 345.346 396.282 344.127 380.872C341.304 345.194 294.79 328.7 281.454 358.523Z" fill="#390D9F"/>
<g opacity="0.4">
<path d="M298.285 362.428C316.673 413.377 304.781 455.842 308.89 472.616C315.165 498.234 343.459 501.344 355.755 489.817C378.666 468.34 374.559 398.915 373.34 383.505C370.516 347.827 287.185 331.679 298.285 362.428Z" fill="#101C3A"/>
</g>
<path d="M259.24 251.672L240.628 250.398C238.751 250.459 236.882 248.971 236.461 247.082L224.953 203.668C224.548 201.848 226.021 198.617 228.878 198.524L249.124 197.862C251.001 197.802 252.871 199.289 253.292 201.178L263.313 246.215C263.735 248.104 262.582 251.565 259.24 251.672Z" fill="#201030"/>
<path d="M259.24 251.672L239.196 252.321C237.319 252.382 235.449 250.895 235.03 249.005L225.007 203.969C224.601 202.148 225.687 200.61 227.445 200.446L247.693 199.785C249.57 199.724 251.438 201.212 251.859 203.101L261.882 248.137C262.302 250.026 261.117 251.612 259.24 251.672Z" fill="#7109B5"/>
<path d="M239.173 253.021C236.998 253.067 234.844 251.345 234.357 249.16L224.333 204.123C224.09 203.031 224.283 201.975 224.878 201.147C225.453 200.345 226.344 199.85 227.382 199.754L247.67 199.09C247.684 199.09 247.699 199.089 247.713 199.089C249.891 199.042 252.043 200.766 252.528 202.95L262.552 247.986C262.805 249.118 262.59 250.204 261.949 251.042C261.322 251.865 260.366 252.337 259.259 252.373L239.216 253.02C239.203 253.018 239.188 253.02 239.173 253.021ZM247.744 200.484C247.735 200.484 247.725 200.484 247.715 200.484L227.466 201.144C226.87 201.201 226.333 201.494 225.993 201.966C225.634 202.465 225.523 203.121 225.677 203.816L235.701 248.852C236.044 250.395 237.615 251.658 239.143 251.625C239.151 251.625 239.162 251.624 239.172 251.624L259.217 250.976C259.904 250.954 260.488 250.673 260.86 250.187C261.245 249.684 261.368 249.01 261.209 248.292L251.185 203.255C250.844 201.712 249.273 200.45 247.744 200.484Z" fill="#101C3A"/>
<path d="M246.473 225.211C246.659 225.204 246.813 225.134 246.908 225.009C247.008 224.879 247.038 224.697 246.994 224.498L243.044 206.744C242.938 206.264 242.429 205.857 241.956 205.872L233.994 206.133C233.828 206.151 233.695 206.222 233.611 206.341C233.518 206.47 233.491 206.647 233.533 206.84L237.484 224.594C237.59 225.074 238.098 225.481 238.571 225.466L246.473 225.211Z" fill="#201030"/>
<path d="M236.714 210.587C237.126 211.646 238.256 212.186 239.237 211.794C240.218 211.403 240.68 210.226 240.267 209.168C239.854 208.109 238.725 207.568 237.743 207.96C236.762 208.353 236.301 209.528 236.714 210.587Z" fill="white"/>
<path d="M238.383 208.525C238.916 208.514 239.418 208.874 239.632 209.422C239.767 209.77 239.77 210.145 239.64 210.477C239.516 210.793 239.284 211.033 238.987 211.152C238.863 211.201 238.733 211.228 238.598 211.23C238.065 211.242 237.563 210.882 237.349 210.334C237.076 209.631 237.365 208.855 237.994 208.604C238.118 208.554 238.249 208.527 238.383 208.525ZM238.368 207.833C238.16 207.837 237.949 207.878 237.744 207.96C236.763 208.352 236.301 209.528 236.713 210.587C237.039 211.425 237.816 211.939 238.613 211.922C238.822 211.916 239.033 211.876 239.238 211.794C240.219 211.403 240.681 210.226 240.268 209.168C239.941 208.329 239.165 207.817 238.368 207.833Z" fill="#101C3A"/>
<path d="M238.151 216.545C238.563 217.604 239.693 218.144 240.674 217.753C241.657 217.361 242.118 216.186 241.705 215.127C241.293 214.068 240.163 213.528 239.181 213.919C238.2 214.311 237.738 215.487 238.151 216.545Z" fill="white"/>
<path d="M239.821 214.482C240.354 214.471 240.856 214.832 241.07 215.38C241.205 215.728 241.208 216.102 241.078 216.434C240.954 216.749 240.722 216.99 240.425 217.109C240.301 217.159 240.17 217.184 240.037 217.187C239.502 217.2 239.001 216.838 238.787 216.291C238.514 215.587 238.803 214.813 239.432 214.561C239.556 214.513 239.687 214.486 239.821 214.482ZM239.806 213.792C239.597 213.796 239.386 213.837 239.181 213.919C238.2 214.311 237.738 215.487 238.152 216.545C238.477 217.384 239.254 217.897 240.051 217.881C240.259 217.876 240.471 217.835 240.675 217.753C241.657 217.361 242.118 216.186 241.706 215.127C241.378 214.287 240.601 213.775 239.806 213.792Z" fill="#101C3A"/>
<path d="M239.59 222.503C240.003 223.562 241.132 224.103 242.114 223.711C243.096 223.319 243.557 222.144 243.144 221.085C242.732 220.026 241.602 219.486 240.621 219.877C239.64 220.268 239.178 221.445 239.59 222.503Z" fill="white"/>
<path d="M241.26 220.441C241.794 220.43 242.295 220.79 242.509 221.337C242.782 222.041 242.493 222.816 241.864 223.067C241.74 223.117 241.608 223.143 241.475 223.146C240.942 223.158 240.44 222.797 240.226 222.249C239.951 221.547 240.242 220.772 240.871 220.519C240.996 220.471 241.127 220.444 241.26 220.441ZM241.245 219.749C241.036 219.755 240.825 219.795 240.621 219.877C239.64 220.269 239.178 221.445 239.59 222.503C239.917 223.342 240.694 223.855 241.49 223.839C241.699 223.834 241.91 223.793 242.115 223.711C243.097 223.319 243.558 222.144 243.145 221.085C242.819 220.247 242.042 219.732 241.245 219.749Z" fill="#101C3A"/>
<path d="M226.269 235.938C226.269 235.938 226.352 235.843 226.478 235.701C226.573 235.555 226.634 235.477 226.634 235.477C226.634 235.477 226.644 235.492 226.652 235.503C228.15 233.809 233.927 227.383 239.581 222.478C240.478 221.7 241.931 223.337 241.491 224.446C239.778 228.767 230.667 236.222 230.667 236.222C230.667 236.222 240.465 230.626 241.584 231.545C242.225 232.071 244.169 235.51 245.717 238.361C246.826 240.4 246.147 240.614 244.396 242.124C242.177 244.037 240.753 245.891 240.792 246.319C240.841 246.862 242.39 248.916 243.635 250.669C248.442 253.292 246.809 261.931 246.809 261.931L246.791 261.939C247.485 265.025 247.986 267.695 248.297 268.776C250.763 277.33 255.235 287.933 261.802 298.66C267.681 290.898 270.359 285.86 270.359 285.86C289.733 271.512 313.771 299.84 300.274 314.319C286.778 328.8 266.596 338.369 253.975 338.467C253.174 338.473 246.703 337.489 246.057 337.093C243.077 335.619 239.076 331.359 237.781 325.786C234.826 313.066 234.271 282.604 234.191 266.426C233.888 264.336 232.72 259.345 228.187 251.649C223.145 243.088 225.333 237.687 226.278 236.026C226.273 235.973 226.269 235.938 226.269 235.938Z" fill="#F8A3A2"/>
<path d="M245.179 237.306L235.889 243.233C235.889 243.233 241.495 239.12 245.179 237.306Z" fill="#D17F80"/>
<path d="M243.521 234.367L232.037 240.494C232.037 240.494 239.681 235.811 243.521 234.367Z" fill="#D17F80"/>
<path d="M313.854 368.804C313.707 442.446 313.304 457.825 317.413 474.598C323.688 500.215 351.982 503.325 364.278 491.798C387.188 470.322 383.082 400.896 381.863 385.486C379.04 349.81 313.918 336.066 313.854 368.804Z" fill="#390D9F"/>
<path d="M347.066 237.172C356.885 257.532 336.148 294.296 287.364 332.476C287.364 332.476 275.177 315.135 265.705 282.514C265.705 282.514 282.427 263.099 305.552 242.646C328.678 222.191 342.968 228.673 347.066 237.172Z" fill="#425FEC"/>
<path d="M267.323 275.471C265.25 278.462 262.906 281.685 262.906 281.685C262.906 281.685 263.009 284.996 263.961 288.441C271.848 316.981 291.044 344.643 291.044 344.643L299.997 335.595C289.503 319.064 271.243 289.435 267.323 275.471Z" fill="#101C3A"/>
<path d="M290.324 344.679C288.182 341.847 270.42 314.03 263.393 288.602C262.434 285.127 262.323 281.842 262.319 281.703L262.311 281.497L262.432 281.329C262.455 281.299 264.796 278.077 266.84 275.128L267.552 274.099L267.891 275.308C268.536 277.603 269.457 280.142 270.708 283.068L269.623 283.543C268.562 281.061 267.733 278.849 267.106 276.821C265.53 279.073 263.953 281.254 263.508 281.868C263.548 282.631 263.743 285.426 264.531 288.279C271.51 313.533 289.137 341.141 291.261 343.953L290.324 344.679Z" fill="white"/>
<path d="M360.156 226.953C398.17 235.157 401.304 342.206 374.72 400.085C374.72 400.085 326.042 406.418 272.055 373.111C272.055 373.111 281.477 323.824 296.838 312.654C296.838 312.654 307.921 260.287 324.009 240.968C340.098 221.65 351.319 225.046 360.156 226.953Z" fill="white"/>
<path d="M291.26 396.275C296.808 397.714 308.046 373.396 310.039 359.071C310.758 353.904 314.583 320.497 316.687 311.062C318.785 301.651 330.782 241.348 337.473 228.591C332.047 230.343 330.152 232.03 323.038 240.573C306.951 259.891 303.905 291.559 292.936 309.32C282.91 325.557 262.906 396.667 262.906 396.667C274.491 395.357 284.126 394.305 291.26 396.275Z" fill="#425FEC"/>
<path d="M303.68 360.984L302.607 360.483C305.456 354.255 305.548 349.257 304.696 332.237C303.817 314.668 312.804 262.831 312.894 262.311L313.123 260.999L313.939 262.043C315.399 263.909 317.312 266.345 318.723 268.123C318.17 266.086 317.582 263.633 317.334 262.579L317.291 262.396L317.358 262.222C322.089 249.98 335.488 229.736 335.621 229.533L336.602 230.2C336.468 230.401 323.269 250.346 318.525 262.482C319.387 266.12 320.432 270.09 320.713 270.556L321.001 271.031L320.581 271.412C320.379 271.558 320.256 271.65 319.766 271.178L319.719 271.203C319.695 271.164 319.668 271.113 319.64 271.052C318.875 270.264 317.336 268.31 313.83 263.831C312.437 272.038 305.079 316.305 305.874 332.175C306.74 349.433 306.639 354.515 303.68 360.984Z" fill="white"/>
<path d="M360.169 226.927C360.169 226.927 345.461 242.695 343.164 259.123C340.49 278.25 328.825 298.973 330.167 344.544C331.444 387.897 310.454 398.279 310.039 398.72C337.508 415.191 386.263 402.502 386.263 402.502C402.737 341.02 398.183 235.13 360.169 226.927Z" fill="#425FEC"/>
<path d="M324.134 387.643L323.059 387.148C324.926 382.998 326.6 380.323 328.076 377.962C331.62 372.291 334.421 367.813 338.123 347.3C343.035 320.094 348.874 270.852 349.668 264.096L345.327 264.726L349.803 259.316C356.748 243.739 359.604 228.172 359.631 228.017L360.794 228.232C360.766 228.389 357.873 244.151 350.846 259.884L350.76 260.021L348.213 263.099L351.019 262.693L350.93 263.465C350.866 264.011 344.544 318.373 339.285 347.518C335.539 368.26 332.685 372.823 329.072 378.604C327.547 381.044 325.966 383.567 324.134 387.643Z" fill="white"/>
<path d="M388.658 266.167L345.061 304.909C345.061 304.909 388.022 326.607 388.658 266.167Z" fill="#101C3A"/>
<path d="M324.623 173.74C320.733 180.659 322.199 198.299 332.662 209.982C343.125 221.667 337.991 230.033 337.991 230.033C337.991 230.033 364.206 222.657 369.54 216.669C369.54 216.669 366.649 212.556 366.02 206.092C366.02 206.092 368.385 211.116 372.565 214C372.565 214 379.578 215.776 384.879 207.535C384.879 207.535 372.621 200.748 367.466 182.213C362.312 163.677 349.022 161.412 342.444 162.245C335.868 163.079 328.191 167.395 324.623 173.74Z" fill="#101C3A"/>
<path d="M332.334 205.581L336.532 230.927C336.532 230.927 350.83 238.179 360.156 226.953L356.754 201.348L332.334 205.581Z" fill="#F8A3A2"/>
<path d="M334.443 216.289L335.824 224.501C351.337 226.772 355.026 206.198 355.026 206.198C338.294 209.416 334.443 216.289 334.443 216.289Z" fill="#101C3A"/>
<path d="M337.816 220.098C344.277 219.22 354.954 208.779 356.818 202.453C357.482 200.198 356.401 194.576 355.208 191.947C351.452 183.71 348.326 176.202 341.447 174.696C338.549 174.068 335.806 174.414 333.321 175.276C325.133 178.143 320.047 184.724 321.088 193.425C322.255 203.189 326.424 221.648 337.816 220.098Z" fill="#F8A3A2"/>
<path d="M330.009 204.637C329.378 204.477 326.206 203.603 325.687 202.104C325.573 201.776 325.524 201.27 325.936 200.722C328.208 197.697 327.644 193.698 327.499 192.882C327.087 192.457 325.363 190.929 322.733 191.891L322.334 190.766C325.377 189.671 327.688 191.237 328.498 192.219L328.59 192.33L328.621 192.471C328.668 192.68 329.735 197.641 326.874 201.447C326.762 201.598 326.786 201.667 326.801 201.708C327.008 202.304 328.775 203.091 330.296 203.478L330.009 204.637Z" fill="#101C3A"/>
<path d="M354.206 190.078C354.206 190.078 345.516 181.343 337.501 180.204C337.501 180.204 322.952 183.204 320.987 190.761C320.987 190.761 317.19 174.756 333.746 170.705C349.846 166.767 355.085 183.199 354.206 190.078Z" fill="#101C3A"/>
<path d="M338.413 180.804L337.279 180.467C338.618 175.866 341.703 174.182 341.834 174.113L342.384 175.171C342.356 175.186 339.604 176.715 338.413 180.804Z" fill="#425FEC"/>
<path d="M350.591 195.005C350.658 198.412 353.437 201.119 356.802 201.051C360.165 200.985 362.84 198.17 362.773 194.763C362.709 191.357 359.927 188.65 356.563 188.717C353.199 188.784 350.525 191.599 350.591 195.005Z" fill="#F8A3A2"/>
<path d="M357.591 199.481C357.463 199.515 357.332 199.536 357.199 199.542C356.743 199.563 356.322 199.4 355.984 199.07C355.193 198.302 355.535 197.557 355.761 197.065C355.977 196.594 356.147 196.222 355.804 195.561C355.511 194.995 355.059 194.646 354.623 194.308C353.944 193.786 352.924 192.996 354.044 191.465C355.597 189.347 359.431 191.476 359.593 191.567L359.018 192.613C358.222 192.163 355.77 191.124 354.994 192.178C354.567 192.76 354.595 192.783 355.34 193.357C355.827 193.735 356.436 194.204 356.852 195.004C357.465 196.19 357.084 197.02 356.832 197.568C356.62 198.032 356.626 198.038 356.803 198.209C356.908 198.313 357.011 198.355 357.146 198.347C357.599 198.328 358.199 197.785 358.421 197.527L359.314 198.31C359.223 198.415 358.492 199.243 357.591 199.481Z" fill="#101C3A"/>
<path d="M340.031 191.52C335.058 189.044 333.697 191.132 333.685 191.154L332.662 190.551C332.736 190.423 334.505 187.434 340.551 190.447L340.031 191.52Z" fill="#101C3A"/>
<path d="M329.906 209.15C330.279 211.762 332.5 213.753 335.174 213.699C338.069 213.641 340.37 211.219 340.314 208.287C340.301 207.654 340.157 207.061 339.944 206.502C336.646 207.656 333.284 208.651 329.906 209.15Z" fill="#101C3A"/>
<path d="M332.874 213.041C332.883 213.101 332.894 213.16 332.904 213.221C333.596 213.539 334.363 213.715 335.173 213.699C338.068 213.641 340.369 211.219 340.313 208.287C340.295 207.313 332.215 208.985 332.874 213.041Z" fill="#FF5069"/>
<path d="M352.411 205.692C350.667 202.991 350.781 200.329 350.891 197.753C350.985 195.545 351.074 193.459 350.042 191.358C349.001 189.237 347.38 187.829 345.813 186.467C343.966 184.861 342.055 183.201 341.229 180.441L342.359 180.094C343.086 182.521 344.784 183.997 346.583 185.56C348.24 187.001 349.953 188.488 351.099 190.827C352.267 193.205 352.167 195.544 352.071 197.806C351.964 200.302 351.864 202.66 353.398 205.039L352.411 205.692Z" fill="#101C3A"/>
<path d="M337.608 193.059C337.661 193.78 337.127 194.409 336.413 194.462C335.701 194.516 335.08 193.974 335.027 193.253C334.975 192.532 335.51 191.903 336.222 191.85C336.934 191.796 337.556 192.337 337.608 193.059Z" fill="#101C3A"/>
<path d="M326.042 195.51C326.095 196.231 325.558 196.86 324.846 196.913C324.133 196.967 323.513 196.425 323.461 195.704C323.407 194.982 323.942 194.354 324.655 194.301C325.368 194.247 325.988 194.788 326.042 195.51Z" fill="#101C3A"/>
<path d="M320.345 287.49C312.867 275.554 285.265 246.168 281.861 242.56C280.137 239.511 277.342 233.776 274.643 224.79C271.906 215.688 267.297 212.12 264.267 210.724C263.828 210.492 246.281 201.239 240.287 201.876C238.962 202.017 238.213 204.2 239.587 204.717C244.941 206.733 258.567 214.208 258.567 214.208C258.567 214.208 244.59 216.784 244.49 218.594C244.432 219.629 245.93 224.312 247.225 228.134C248.151 230.87 250.959 231.373 253.8 231.085C257.24 230.736 259.841 230.78 260.621 231.236C261.55 231.781 261.988 233.279 262.19 234.372C262.172 234.413 262.156 234.458 262.136 234.499C259.214 240.598 266.232 246.089 268.538 247.681C276.459 257.678 284.65 288.959 297.591 307.24C306.343 319.605 332.539 306.957 320.345 287.49Z" fill="#F8A3A2"/>
<path d="M247.111 227.193L260.963 225.364C260.963 225.364 251.835 225.279 247.111 227.193Z" fill="#D17F80"/>
<path d="M245.434 222.755L261.3 219.052C261.3 219.052 249.952 220.389 245.434 222.755Z" fill="#D17F80"/>
<path d="M352.355 368.318C348.627 367.785 345.231 366.944 342.787 365.648L343.336 364.589C352.735 369.576 377.865 367.511 378.116 367.49L378.217 368.682C377.433 368.748 363.423 369.897 352.355 368.318Z" fill="white"/>
<path d="M387.842 257.037C393.232 279.028 366.324 298.709 311.309 326.794C311.309 326.794 305.446 303.768 314.673 261.986C314.673 261.986 321.013 261.187 347.137 244.847C373.261 228.507 384.762 244.468 387.842 257.037Z" fill="#425FEC"/>
<path d="M312.178 327L311.668 325.921C358.756 303.088 381.811 285.045 388.758 265.591L389.868 265.997C382.806 285.774 359.572 304.018 312.178 327Z" fill="white"/>
<path d="M321.701 256.338C318.466 257.953 314.88 259.64 314.88 259.64C314.88 259.64 313.399 262.594 312.599 266.08C305.975 294.947 309.687 328.546 309.687 328.546L321.831 324.963C320.472 305.361 318.514 270.492 321.701 256.338Z" fill="#101C3A"/>
<path d="M309.037 328.224C308.503 324.696 306.127 291.645 312.024 265.943C312.832 262.429 314.292 259.493 314.355 259.37L314.447 259.185L314.633 259.098C314.668 259.081 318.25 257.394 321.442 255.8L322.555 255.245L322.28 256.47C321.754 258.799 321.359 261.472 321.068 264.646L319.892 264.536C320.139 261.845 320.461 259.5 320.873 257.414C318.422 258.623 316.005 259.77 315.322 260.092C314.996 260.78 313.839 263.327 313.178 266.212C307.32 291.736 309.677 324.541 310.207 328.041L309.037 328.224Z" fill="white"/>
</g>
<path d="M160.494 350.568C177.997 348.781 190.755 332.967 188.991 315.246C187.227 297.524 171.608 284.607 154.105 286.393C136.603 288.179 123.844 303.993 125.609 321.715C127.373 339.436 142.992 352.354 160.494 350.568Z" fill="#101C3A"/>
<path d="M193.129 320.216C193.129 338.026 178.868 352.465 161.278 352.465C143.687 352.465 129.428 338.026 129.428 320.216C129.428 302.406 143.688 287.967 161.278 287.967C178.868 287.967 193.129 302.406 193.129 320.216Z" fill="#7109B5"/>
<path d="M177.374 316.838L152.134 304.938C151.175 304.487 150.102 305.287 150.245 306.348L154.329 336.574C154.472 337.635 155.719 338.116 156.522 337.418L177.678 319.094C178.417 318.454 178.255 317.254 177.374 316.838Z" fill="white"/>
<path d="M177.679 319.088L156.517 337.418C155.713 338.117 154.479 337.637 154.334 336.576L154.32 336.488C154.521 336.43 154.722 336.329 154.894 336.183L176.056 317.852C176.487 317.474 176.616 316.893 176.443 316.398L177.376 316.835C178.254 317.256 178.411 318.449 177.679 319.088Z" fill="#101C3A"/>
<path d="M205.52 154.996C224.715 154.252 239.679 137.893 238.943 118.458C238.208 99.0239 222.051 83.8729 202.855 84.6178C183.66 85.3627 168.696 101.721 169.432 121.156C170.167 140.59 186.324 155.741 205.52 154.996Z" fill="#101C3A"/>
<path d="M243.307 121.711C243.307 141.16 227.736 156.925 208.527 156.925C189.32 156.925 173.748 141.159 173.748 121.711C173.748 102.262 189.319 86.4971 208.527 86.4971C227.736 86.4971 243.307 102.262 243.307 121.711Z" fill="#FC721A"/>
<path d="M218.398 104.69C213.724 103.477 209.117 105.562 206.702 109.526C202.64 106.808 197.303 107.018 193.586 110.421C189.018 114.604 188.627 122.024 192.712 126.995C196.798 131.966 213.793 139.077 213.793 139.077C213.793 139.077 225.631 125.234 226.917 118.926C228.204 112.62 224.39 106.246 218.398 104.69Z" fill="white"/>
<path d="M226.925 118.922C225.624 125.24 213.788 139.082 213.788 139.082C213.788 139.082 200.055 133.336 194.316 128.558C200.807 132.828 211.185 137.161 211.185 137.161C211.185 137.161 223.021 123.319 224.307 117.002C225.168 112.748 223.726 108.477 220.858 105.668C225.388 108.097 228.023 113.541 226.925 118.922Z" fill="#101C3A"/>
<path d="M99.7585 108.728L99.582 108.746L101.049 123.467L112.68 115.002L112.284 114.356C109.491 110.517 104.804 108.224 99.7585 108.728Z" fill="#FC721A"/>
<path d="M284.513 162.362L282.687 147.654C282.684 147.654 282.683 147.655 282.681 147.655L281.776 147.723C280.573 147.881 279.33 148.19 278.036 148.768C276.361 149.513 274.895 150.581 273.691 151.877L284.513 162.362Z" fill="#7109B5"/>
<path d="M161.215 55.963C161.215 58.1524 159.462 59.9261 157.301 59.9261C155.139 59.9261 153.387 58.1524 153.387 55.963C153.387 53.7747 155.139 52 157.301 52C159.462 52 161.215 53.7747 161.215 55.963Z" fill="#390D9F"/>
<path d="M191.295 234.863C191.295 237.053 189.542 238.826 187.381 238.826C185.219 238.826 183.467 237.053 183.467 234.863C183.467 232.674 185.219 230.9 187.381 230.9C189.541 230.901 191.295 232.675 191.295 234.863Z" fill="#425FEC"/>
<path d="M374.97 139.077C374.97 140.17 374.093 141.058 373.013 141.058C371.932 141.058 371.057 140.17 371.057 139.077C371.057 137.982 371.932 137.094 373.013 137.094C374.093 137.094 374.97 137.982 374.97 139.077Z" fill="#7109B5"/>
<path d="M259.915 70.5174C259.915 71.9072 258.801 73.0345 257.428 73.0345C256.055 73.0345 254.941 71.9072 254.941 70.5174C254.941 69.1266 256.054 67.9993 257.428 67.9993C258.802 67.9993 259.915 69.1266 259.915 70.5174Z" fill="#390D9F"/>
<path d="M82.7513 231.974L138.637 242.263C140.457 242.598 142.201 241.376 142.532 239.532L152.695 182.948C153.026 181.105 151.819 179.338 149.998 179.003L94.1125 168.713C92.2921 168.378 90.5483 169.6 90.2175 171.444L80.0545 228.028C79.7237 229.873 80.932 231.639 82.7513 231.974Z" fill="#390D9F"/>
<path d="M129.859 222.805L127.483 222.368L133.094 191.094L110.986 194.298L106.667 218.37L104.291 217.934L108.92 192.128L136.068 188.192L129.859 222.805Z" fill="white"/>
<path d="M132.458 220.991C133.572 223.428 131.629 226.736 128.119 228.381C124.61 230.026 120.861 229.385 119.748 226.949C118.634 224.512 120.576 221.205 124.086 219.56C127.596 217.915 131.345 218.556 132.458 220.991Z" fill="white"/>
<path d="M108 216.494C109.114 218.931 107.172 222.239 103.661 223.884C100.151 225.529 96.4024 224.888 95.289 222.451C94.1746 220.016 96.117 216.708 99.6277 215.063C103.136 213.417 106.885 214.058 108 216.494Z" fill="white"/>
<path d="M319.079 93.9749L294.975 67.5152C294.242 66.7105 294.854 65.3443 295.927 65.4739C295.935 65.4739 295.943 65.475 295.951 65.477L353.633 73.1172C353.642 73.1182 353.65 73.1192 353.658 73.1202C354.728 73.2754 354.971 74.7551 354.059 75.3412L324.327 94.4498C322.382 95.7088 320.314 95.4341 319.079 93.9749Z" fill="#425FEC"/>
<path d="M310.761 89.4064L291.786 102.028C290.934 102.593 289.822 101.887 289.954 100.866L293.74 71.5661C293.871 70.5531 295.109 70.1559 295.793 70.9064L310.984 87.5847C311.48 88.131 311.375 88.9979 310.761 89.4064Z" fill="#425FEC"/>
<path d="M348.921 112.76C348.846 112.904 348.635 112.981 348.347 112.983L291.301 105.428C291.023 105.35 290.839 105.221 290.804 105.062C290.764 104.879 290.894 104.677 291.162 104.461C291.242 104.399 291.347 104.331 291.461 104.258L311.989 90.6051C312.654 90.166 313.537 90.2753 314.077 90.8655L317.838 94.9878C318.764 96.0018 319.975 96.6084 321.243 96.7769C322.51 96.9454 323.834 96.6737 324.987 95.9354L329.878 92.7965C330.55 92.3666 331.431 92.4911 331.961 93.0885L348.491 111.811C348.583 111.912 348.667 112.004 348.727 112.086C348.932 112.364 349.006 112.592 348.921 112.76Z" fill="#425FEC"/>
<path d="M354.225 79.5769L350.481 108.551C350.349 109.572 349.095 109.965 348.416 109.197L333.453 92.2502C332.964 91.6968 333.082 90.8298 333.701 90.4316L352.409 78.4057C353.261 77.8573 354.356 78.565 354.225 79.5769Z" fill="#425FEC"/>
<path d="M353.575 109.797C352.939 113.85 349.179 116.615 345.175 115.97C341.171 115.327 338.442 111.519 339.078 107.465C339.714 103.412 343.475 100.648 347.477 101.292C351.48 101.937 354.209 105.745 353.575 109.797Z" fill="#FC721A"/>
<path d="M343.753 110.07L345.185 110.123C345.173 110.493 345.251 110.79 345.417 111.014C345.583 111.237 345.806 111.371 346.085 111.416C346.384 111.464 346.654 111.39 346.895 111.192C347.136 110.995 347.288 110.701 347.349 110.311C347.407 109.941 347.354 109.633 347.193 109.385C347.031 109.137 346.808 108.991 346.525 108.945C346.339 108.915 346.112 108.916 345.842 108.947L346.19 107.776C346.581 107.849 346.893 107.811 347.129 107.661C347.364 107.512 347.507 107.285 347.554 106.982C347.594 106.724 347.551 106.506 347.424 106.329C347.296 106.151 347.106 106.042 346.855 106.002C346.607 105.962 346.381 106.015 346.178 106.161C345.976 106.307 345.828 106.545 345.739 106.873L344.437 106.428C344.603 105.979 344.801 105.631 345.033 105.384C345.264 105.137 345.559 104.961 345.92 104.856C346.281 104.751 346.67 104.733 347.086 104.8C347.799 104.914 348.335 105.237 348.694 105.766C348.989 106.199 349.099 106.653 349.024 107.128C348.919 107.801 348.472 108.279 347.682 108.564C348.102 108.728 348.415 108.995 348.624 109.365C348.833 109.734 348.9 110.151 348.828 110.614C348.723 111.287 348.389 111.822 347.829 112.218C347.27 112.614 346.628 112.754 345.905 112.637C345.219 112.527 344.683 112.236 344.294 111.764C343.904 111.291 343.725 110.727 343.753 110.07Z" fill="white"/>
</svg>
