<svg width="60" height="60" viewBox="0 0 60 60" fill="none" xmlns="http://www.w3.org/2000/svg">
<g clip-path="url(#clip0_630_3060)">
<rect width="66.4032" height="66.4032" transform="translate(-3.61328 -3.27246)" fill="#6C76B7"/>
<path d="M30.0015 35.92L30.4815 34H29.5215L30.0015 35.92Z" fill="white"/>
<path d="M23.3346 43.3339H29.3346V38.7472L27.6813 32.1339C27.5624 32.0805 27.4467 32.0204 27.3346 31.9539V36.1805C27.9723 36.5487 28.1908 37.3642 27.8227 38.0019C27.4545 38.6397 26.639 38.8582 26.0013 38.49C25.3635 38.1218 25.145 37.3064 25.5132 36.6686C25.6302 36.4659 25.7985 36.2976 26.0013 36.1805V30.9072L24.888 31.5739C24.4227 31.8595 24.0155 32.2305 23.688 32.6672C23.2214 33.2497 22.9013 33.9355 22.7547 34.6672C22.6992 34.964 22.6702 35.2652 22.668 35.5672V42.6672C22.668 43.0354 22.9664 43.3339 23.3346 43.3339Z" fill="white"/>
<path d="M37.3348 42.6671V35.5671C37.3348 33.21 35.8654 32.0997 35.1148 31.6071L34.0015 30.9404V35.4871C34.7873 35.7647 35.3185 36.5006 35.3348 37.3338V39.3338C35.3348 39.702 35.0363 40.0005 34.6681 40.0005C34.2999 40.0005 34.0014 39.702 34.0014 39.3338V37.3338C34.0014 36.9656 33.7029 36.6671 33.3347 36.6671C32.9665 36.6671 32.668 36.9656 32.668 37.3338V39.3338C32.668 39.702 32.3695 40.0005 32.0013 40.0005C31.6332 40.0005 31.3347 39.702 31.3347 39.3338V37.3338C31.337 36.4883 31.8708 35.7356 32.668 35.4538V31.9538C32.556 32.0204 32.4402 32.0805 32.3213 32.1338L30.668 38.7471V43.3338H36.668C37.0363 43.3337 37.3348 43.0353 37.3348 42.6671Z" fill="white"/>
<path d="M35.2344 28.3467C35.2344 28.5067 34.7811 29.68 34.7344 29.7934L35.7544 30.4201L35.2344 28.3467Z" fill="white"/>
<path d="M38.0013 28.6201C37.5592 28.6839 37.1101 28.6839 36.668 28.6201L37.3347 31.2534L38.0013 28.6201Z" fill="white"/>
<path d="M42.4477 27.5934L41.3344 26.8867C40.8304 27.4624 40.204 27.918 39.5011 28.22L38.2344 33.28C38.5428 34.0053 38.7014 34.7853 38.7011 35.5733V39.3333H44.0344C44.4026 39.3333 44.7011 39.0348 44.7011 38.6667V31.5667C44.686 29.9422 43.8342 28.4402 42.4477 27.5934Z" fill="white"/>
<path d="M39.58 26.6669C40.5911 25.8386 41.2236 24.636 41.3333 23.3336C39.12 23.3336 38.1333 22.5069 37.7 21.7803C37.0274 22.2743 36.2862 22.6674 35.5 22.947C35.8296 23.6995 35.9998 24.5121 36 25.3336C36 25.3336 36 26.9536 35.9533 27.087C37.1691 27.4452 38.4783 27.2936 39.58 26.6669Z" fill="white"/>
<path d="M42.001 22.0002V21.3336C41.9966 18.7562 39.9037 16.6704 37.3264 16.6748C36.6572 16.6759 35.9959 16.8211 35.3877 17.1002C34.2276 17.7645 33.3309 18.8071 32.8477 20.0535C33.5755 20.549 34.2463 21.1236 34.8477 21.7668C35.9151 21.3738 36.9039 20.7936 37.7677 20.0535C38.1125 19.9246 38.4967 20.0997 38.6255 20.4446C38.6522 20.5157 38.6663 20.5909 38.6677 20.6669C38.6677 20.8469 38.8743 22.0002 41.3343 22.0002L42.001 22.0002Z" fill="white"/>
<path d="M33.9402 27.3332C31.1202 27.3332 29.4802 26.3733 28.7002 25.7266C28.0147 26.7317 26.8768 27.3331 25.6602 27.3332C25.865 29.5709 27.7533 31.2765 30.0002 31.2533C32.7335 31.2533 33.9402 28.4932 33.9402 27.3332Z" fill="white"/>
<path d="M27.9004 24.6668C27.9625 24.4722 28.1367 24.335 28.3404 24.3201C28.4989 24.2991 28.6559 24.3686 28.747 24.5001C28.807 24.5734 30.1204 26.2201 33.6204 26.2201H34.1004V24.2868C34.0967 22.176 32.3845 20.4668 30.2737 20.4668H29.3337C27.2255 20.4705 25.5174 22.1786 25.5137 24.2868V26.2001H26.0004C26.9018 26.1619 27.6727 25.5398 27.9004 24.6668Z" fill="white"/>
<path d="M24.768 28.3467C24.768 28.5067 25.2214 29.68 25.268 29.7934L24.248 30.4201L24.768 28.3467Z" fill="white"/>
<path d="M22 28.6201C22.4421 28.6839 22.8912 28.6839 23.3333 28.6201L22.6666 31.2534L22 28.6201Z" fill="white"/>
<path d="M17.554 27.5933L18.7007 26.8867C19.2046 27.4624 19.831 27.918 20.534 28.22L21.8007 33.28C21.4923 34.0053 21.3336 34.7853 21.334 35.5733V39.3333H16.0007C15.6325 39.3333 15.334 39.0348 15.334 38.6667V31.5667C15.3419 29.9487 16.1802 28.4482 17.554 27.5933Z" fill="white"/>
<path d="M20.4213 26.6669C19.4102 25.8386 18.7777 24.636 18.668 23.3336C20.8813 23.3336 21.868 22.5069 22.3013 21.7803C22.9738 22.2743 23.715 22.6674 24.5013 22.947C24.1717 23.6995 24.0015 24.5121 24.0013 25.3336C24.0013 25.3336 24.0013 26.9536 24.048 27.087C22.8322 27.4452 21.523 27.2936 20.4213 26.6669Z" fill="white"/>
<path d="M18 22.0002V21.3336C18.0044 18.7562 20.0972 16.6704 22.6746 16.6748C23.3438 16.6759 24.0051 16.8211 24.6133 17.1002C25.7734 17.7645 26.6701 18.8071 27.1533 20.0535C26.4254 20.549 25.7546 21.1236 25.1533 21.7668C24.0859 21.3738 23.0971 20.7936 22.2333 20.0535C21.8884 19.9246 21.5043 20.0997 21.3754 20.4446C21.3488 20.5157 21.3346 20.5909 21.3333 20.6669C21.3333 20.8469 21.1266 22.0002 18.6666 22.0002L18 22.0002Z" fill="white"/>
</g>
<defs>
<clipPath id="clip0_630_3060">
<rect x="0.078125" y="0.417969" width="59.0251" height="59.025" rx="29.5125" fill="white"/>
</clipPath>
</defs>
</svg>
