<svg width="60" height="60" viewBox="0 0 60 60" fill="none" xmlns="http://www.w3.org/2000/svg">
<g clip-path="url(#clip0_630_3116)">
<rect width="66.4032" height="66.4032" transform="translate(-3.30469 -3.68848)" fill="#6C76B7"/>
<g clip-path="url(#clip1_630_3116)">
<path fill-rule="evenodd" clip-rule="evenodd" d="M45.4564 44.6689H14.5436C14.2437 44.6689 14 44.4252 14 44.1253V41.2946C14 40.9946 14.2437 40.7509 14.5436 40.7509H45.4564C45.7563 40.7509 46 40.9946 46 41.2946V44.1253C46 44.4252 45.7563 44.6689 45.4564 44.6689ZM39.4013 30.7404C39.1013 30.7404 38.8576 30.4967 38.8576 30.1968V19.3989C38.8576 18.6865 39.9449 18.6865 39.9449 19.3989V30.1968C39.9449 30.4967 39.7012 30.7404 39.4013 30.7404ZM20.5987 30.7404C20.2988 30.7404 20.0551 30.4967 20.0551 30.1968V19.3989C20.0551 18.6865 21.1424 18.6865 21.1424 19.3989V30.1968C21.1424 30.4967 20.8987 30.7404 20.5987 30.7404ZM29.9906 26.6162C28.9971 26.6162 28.1722 25.8101 28.1722 24.7978C28.1722 23.8043 28.9971 22.9794 29.9906 22.9794C31.0029 22.9794 31.809 23.8043 31.809 24.7978C31.809 25.8101 31.0029 26.6162 29.9906 26.6162ZM33.9461 29.6531C33.6837 29.6531 33.4774 29.4844 33.4025 29.2407L32.5776 25.8664C32.4651 25.4727 32.8401 25.0978 33.2337 25.2102L34.321 25.5102C34.6772 23.3168 33.3087 21.161 31.1342 20.5799C30.4405 20.3924 30.7217 19.3426 31.4153 19.5301C34.1711 20.2612 35.877 23.0169 35.3708 25.7914L36.4956 26.0913C36.8893 26.185 37.0392 26.6912 36.7393 26.9911L34.321 29.5031C34.2273 29.5969 34.0773 29.6531 33.9461 29.6531ZM26.8975 24.4229L25.679 24.1042C25.3228 26.2975 26.6725 28.4533 28.8658 29.0345C29.5595 29.2219 29.2783 30.2717 28.5847 30.0843C25.8102 29.3344 24.123 26.5975 24.6292 23.823L23.5044 23.5231C23.092 23.4106 22.9607 22.9232 23.2419 22.6232L25.6602 20.1112C25.9602 19.8113 26.4851 19.9425 26.5788 20.3549L27.4411 23.8792C27.4411 24.1792 27.1974 24.4229 26.8975 24.4229ZM45.4564 35.577H14.5436C14.2437 35.577 14 35.8207 14 36.1206V38.9513C14 39.2512 14.2437 39.4949 14.5436 39.4949H45.4564C45.7563 39.4949 46 39.2512 46 38.9513V36.1206C46 35.8207 45.7563 35.577 45.4564 35.577ZM15.4622 35.0146V15.1247C15.4622 14.8248 15.7059 14.5811 16.0059 14.5811H43.9941C44.2941 14.5811 44.5378 14.8248 44.5378 15.1247V35.0146H15.4622ZM41.8008 32.84H18.1804C17.8805 32.84 17.6368 32.5963 17.6368 32.2963V17.318C17.6368 17.0181 17.8805 16.7744 18.1804 16.7744H41.8008C42.1008 16.7744 42.3445 17.0181 42.3445 17.318V32.2963C42.3445 32.5963 42.1008 32.84 41.8008 32.84Z" fill="white"/>
</g>
</g>
<defs>
<clipPath id="clip0_630_3116">
<rect x="0.382812" width="59.0251" height="59.025" rx="29.5125" fill="white"/>
</clipPath>
<clipPath id="clip1_630_3116">
<rect width="32" height="32" fill="white" transform="translate(14 14)"/>
</clipPath>
</defs>
</svg>
