<svg width="60" height="60" viewBox="0 0 60 60" fill="none" xmlns="http://www.w3.org/2000/svg">
<g clip-path="url(#clip0_630_3016)">
<rect width="66.4032" height="66.4032" transform="translate(-3.61328 -3.68945)" fill="#6C76B7"/>
<g clip-path="url(#clip1_630_3016)">
<path d="M45 14H37C36.448 14 36 14.448 36 15V21V25C36 25.552 36.448 26 37 26C37.552 26 38 25.552 38 25V22H45C45.552 22 46 21.552 46 21V15C46 14.448 45.552 14 45 14Z" fill="white"/>
<path d="M42 36H32C30.898 36 30 35.104 30 34C30 32.896 30.898 32 32 32H34.184C34.598 33.162 35.696 34 37 34C38.656 34 40 32.656 40 31C40 29.344 38.656 28 37 28C35.696 28 34.596 28.838 34.184 30H32C29.794 30 28 31.794 28 34C28 36.206 29.794 38 32 38H42C43.104 38 44 38.896 44 40C44 41.104 43.104 42 42 42H23.816C23.402 40.838 22.304 40 21 40C19.344 40 18 41.344 18 43C18 44.656 19.344 46 21 46C22.304 46 23.404 45.162 23.816 44H42C44.206 44 46 42.206 46 40C46 37.794 44.206 36 42 36Z" fill="white"/>
<path d="M21 20C17.14 20 14 23.14 14 27C14 30.592 19.616 36.954 20.256 37.668C20.446 37.878 20.716 38 21 38C21.284 38 21.554 37.878 21.744 37.668C22.384 36.954 28 30.592 28 27C28 23.14 24.86 20 21 20ZM21 30C19.344 30 18 28.656 18 27C18 25.344 19.344 24 21 24C22.656 24 24 25.344 24 27C24 28.656 22.656 30 21 30Z" fill="white"/>
</g>
</g>
<defs>
<clipPath id="clip0_630_3016">
<rect x="0.078125" width="59.0251" height="59.025" rx="29.5125" fill="white"/>
</clipPath>
<clipPath id="clip1_630_3016">
<rect width="32" height="32" fill="white" transform="translate(14 14)"/>
</clipPath>
</defs>
</svg>
