<svg width="43" height="42" viewBox="0 0 43 42" fill="none" xmlns="http://www.w3.org/2000/svg">
<path d="M21 41.9998H5.4C2.4 41.9998 0 39.5998 0 36.5998V5.39979C0 2.39979 2.4 -0.000213623 5.4 -0.000213623H36.9C39.9 -0.000213623 42.3 2.39979 42.3 5.39979V20.9998C42.3 22.1998 41.4 23.0998 40.2 23.0998C39 23.0998 38.1 22.1998 38.1 20.9998V5.39979C38.1 4.79979 37.8 4.49979 36.9 4.49979H5.4C4.8 4.49979 4.5 4.79979 4.5 5.39979V36.8998C4.5 37.4998 4.8 38.0998 5.4 38.0998H21C22.2 38.0998 23.1 38.9998 23.1 40.1998C23.1 41.0998 22.2 41.9998 21 41.9998Z" fill="#0085F2"/>
<path d="M29.4 37.7998C24.9 37.7998 21 33.8998 21 29.3998C21 24.8998 24.9 20.9998 29.4 20.9998C33.9 20.9998 37.8 24.8998 37.8 29.3998C37.8 33.8998 33.9 37.7998 29.4 37.7998ZM29.4 25.1998C27 25.1998 25.2 26.9998 25.2 29.3998C25.2 31.7998 27 33.5998 29.4 33.5998C31.8 33.5998 33.6 31.7998 33.6 29.3998C33.6 26.9998 31.8 25.1998 29.4 25.1998Z" fill="#0085F2"/>
<path d="M39.9002 39.8998C39.6002 39.8998 39.0002 39.5998 38.7002 39.5998L33.3002 35.3998C32.4002 34.7998 32.4002 33.2998 33.0002 32.3998C33.6002 31.4998 35.1002 31.1998 36.0002 32.0998L41.4002 36.2998C42.3002 36.8998 42.6002 38.3998 41.7002 39.2998C41.1002 39.5998 40.5002 39.8998 39.9002 39.8998Z" fill="#0085F2"/>
<path d="M31.5004 14.6998H10.5004C9.30039 14.6998 8.40039 13.7998 8.40039 12.5998C8.40039 11.3998 9.30039 10.4998 10.5004 10.4998H31.5004C32.7004 10.4998 33.6004 11.3998 33.6004 12.5998C33.6004 13.7998 32.7004 14.6998 31.5004 14.6998Z" fill="#0085F2"/>
<path d="M18.9004 23.0998H10.5004C9.30039 23.0998 8.40039 22.1998 8.40039 20.9998C8.40039 19.7998 9.30039 18.8998 10.5004 18.8998H18.9004C20.1004 18.8998 21.0004 19.7998 21.0004 20.9998C21.0004 22.1998 20.1004 23.0998 18.9004 23.0998Z" fill="#0085F2"/>
</svg>
