<svg width="101" height="144" viewBox="0 0 101 144" fill="none" xmlns="http://www.w3.org/2000/svg">
<path d="M16.5 32.015C13.1863 32.015 10.5 34.7007 10.5 38.0136V66.007C10.5 69.3199 13.1863 72.0056 16.5 72.0056C19.8137 72.0056 22.5 69.3199 22.5 66.007V38.0136C22.5 34.7007 19.8137 32.015 16.5 32.015Z" fill="#3DDC84"/>
<path d="M84.5 32.015C81.1863 32.015 78.5 34.7007 78.5 38.0136V66.007C78.5 69.3199 81.1863 72.0056 84.5 72.0056C87.8137 72.0056 90.5 69.3199 90.5 66.007V38.0136C90.5 34.7007 87.8139 32.015 84.5 32.015Z" fill="#3DDC84"/>
<path d="M72.5 32.015H28.5001C27.3955 32.015 26.5 32.9103 26.5 34.0146V66.007C26.4991 70.7586 29.8433 74.8544 34.5001 75.8048V90.0014C34.5001 93.3143 37.1864 96 40.5001 96C43.8138 96 46.5001 93.3143 46.5001 90.0014V76.0046H54.5002V90.0014C54.5002 93.3143 57.1865 96 60.5002 96C63.8139 96 66.5002 93.3143 66.5002 90.0014V75.8048C71.1569 74.8544 74.5012 70.7586 74.5003 66.007V34.0146C74.5001 32.9103 73.6046 32.015 72.5 32.015Z" fill="#3DDC84"/>
<path d="M65.0404 8.30861L69.9163 3.43776C70.7108 2.6705 70.7327 1.40479 69.9655 0.610355C69.198 -0.183896 67.932 -0.205828 67.1374 0.561242C67.1207 0.577363 67.1044 0.593672 67.0883 0.610355L61.4083 6.28915C54.4517 3.26792 46.5529 3.26792 39.5962 6.28915L33.9163 0.606419C33.1219 -0.160839 31.8557 -0.138719 31.0882 0.655532C30.3397 1.43048 30.3397 2.65888 31.0882 3.43363L35.9602 8.30843C30.0208 12.2375 26.4635 18.8961 26.5003 26.0163C26.5003 27.1206 27.3958 28.0159 28.5003 28.0159H72.5005C73.605 28.0159 74.5005 27.1206 74.5005 26.0163C74.5371 18.8963 70.9799 12.2377 65.0404 8.30861Z" fill="#3DDC84"/>
<path d="M40.5001 20.0188C41.6047 20.0188 42.5001 19.1234 42.5001 18.0187C42.5001 16.9141 41.6047 16.0187 40.5001 16.0187C39.3955 16.0187 38.5 16.9141 38.5 18.0187C38.5 19.1234 39.3955 20.0188 40.5001 20.0188Z" fill="#FAFAFA"/>
<path d="M60.5001 20.0188C61.6047 20.0188 62.5001 19.1234 62.5001 18.0187C62.5001 16.9141 61.6047 16.0187 60.5001 16.0187C59.3955 16.0187 58.5 16.9141 58.5 18.0187C58.5 19.1234 59.3955 20.0188 60.5001 20.0188Z" fill="#FAFAFA"/>
<path d="M7.904 135.728H3.248L2.448 138H0.544L4.528 126.864H6.64L10.624 138H8.704L7.904 135.728ZM7.392 134.24L5.584 129.072L3.76 134.24H7.392ZM16.8043 129.04C17.4976 129.04 18.1163 129.184 18.6603 129.472C19.2149 129.76 19.6469 130.187 19.9563 130.752C20.2656 131.317 20.4203 132 20.4203 132.8V138H18.6123V133.072C18.6123 132.283 18.4149 131.68 18.0203 131.264C17.6256 130.837 17.0869 130.624 16.4043 130.624C15.7216 130.624 15.1776 130.837 14.7723 131.264C14.3776 131.68 14.1803 132.283 14.1803 133.072V138H12.3563V129.184H14.1803V130.192C14.4789 129.829 14.8576 129.547 15.3163 129.344C15.7856 129.141 16.2816 129.04 16.8043 129.04ZM22.1389 133.552C22.1389 132.667 22.3202 131.883 22.6829 131.2C23.0562 130.517 23.5575 129.989 24.1869 129.616C24.8269 129.232 25.5362 129.04 26.3149 129.04C26.8909 129.04 27.4562 129.168 28.0109 129.424C28.5762 129.669 29.0242 130 29.3549 130.416V126.16H31.1949V138H29.3549V136.672C29.0562 137.099 28.6402 137.451 28.1069 137.728C27.5842 138.005 26.9815 138.144 26.2989 138.144C25.5309 138.144 24.8269 137.952 24.1869 137.568C23.5575 137.173 23.0562 136.629 22.6829 135.936C22.3202 135.232 22.1389 134.437 22.1389 133.552ZM29.3549 133.584C29.3549 132.976 29.2269 132.448 28.9709 132C28.7255 131.552 28.4002 131.211 27.9949 130.976C27.5895 130.741 27.1522 130.624 26.6829 130.624C26.2135 130.624 25.7762 130.741 25.3709 130.976C24.9655 131.2 24.6349 131.536 24.3789 131.984C24.1335 132.421 24.0109 132.944 24.0109 133.552C24.0109 134.16 24.1335 134.693 24.3789 135.152C24.6349 135.611 24.9655 135.963 25.3709 136.208C25.7869 136.443 26.2242 136.56 26.6829 136.56C27.1522 136.56 27.5895 136.443 27.9949 136.208C28.4002 135.973 28.7255 135.632 28.9709 135.184C29.2269 134.725 29.3549 134.192 29.3549 133.584ZM35.4146 130.464C35.6813 130.016 36.0333 129.669 36.4706 129.424C36.9186 129.168 37.4466 129.04 38.0546 129.04V130.928H37.5906C36.876 130.928 36.332 131.109 35.9586 131.472C35.596 131.835 35.4146 132.464 35.4146 133.36V138H33.5906V129.184H35.4146V130.464ZM43.5553 138.144C42.7233 138.144 41.9713 137.957 41.2993 137.584C40.6273 137.2 40.0993 136.667 39.7153 135.984C39.3313 135.291 39.1393 134.491 39.1393 133.584C39.1393 132.688 39.3366 131.893 39.7313 131.2C40.1259 130.507 40.6646 129.973 41.3473 129.6C42.0299 129.227 42.7926 129.04 43.6353 129.04C44.4779 129.04 45.2406 129.227 45.9233 129.6C46.6059 129.973 47.1446 130.507 47.5393 131.2C47.9339 131.893 48.1313 132.688 48.1313 133.584C48.1313 134.48 47.9286 135.275 47.5233 135.968C47.1179 136.661 46.5633 137.2 45.8593 137.584C45.1659 137.957 44.3979 138.144 43.5553 138.144ZM43.5553 136.56C44.0246 136.56 44.4619 136.448 44.8673 136.224C45.2833 136 45.6193 135.664 45.8753 135.216C46.1313 134.768 46.2593 134.224 46.2593 133.584C46.2593 132.944 46.1366 132.405 45.8913 131.968C45.6459 131.52 45.3206 131.184 44.9153 130.96C44.5099 130.736 44.0726 130.624 43.6033 130.624C43.1339 130.624 42.6966 130.736 42.2913 130.96C41.8966 131.184 41.5819 131.52 41.3473 131.968C41.1126 132.405 40.9953 132.944 40.9953 133.584C40.9953 134.533 41.2353 135.269 41.7153 135.792C42.2059 136.304 42.8193 136.56 43.5553 136.56ZM50.8624 128.016C50.5317 128.016 50.2544 127.904 50.0304 127.68C49.8064 127.456 49.6944 127.179 49.6944 126.848C49.6944 126.517 49.8064 126.24 50.0304 126.016C50.2544 125.792 50.5317 125.68 50.8624 125.68C51.1824 125.68 51.4544 125.792 51.6784 126.016C51.9024 126.24 52.0144 126.517 52.0144 126.848C52.0144 127.179 51.9024 127.456 51.6784 127.68C51.4544 127.904 51.1824 128.016 50.8624 128.016ZM51.7584 129.184V138H49.9344V129.184H51.7584ZM53.5451 133.552C53.5451 132.667 53.7265 131.883 54.0891 131.2C54.4625 130.517 54.9638 129.989 55.5931 129.616C56.2331 129.232 56.9425 129.04 57.7211 129.04C58.2971 129.04 58.8625 129.168 59.4171 129.424C59.9825 129.669 60.4305 130 60.7611 130.416V126.16H62.6011V138H60.7611V136.672C60.4625 137.099 60.0465 137.451 59.5131 137.728C58.9905 138.005 58.3878 138.144 57.7051 138.144C56.9371 138.144 56.2331 137.952 55.5931 137.568C54.9638 137.173 54.4625 136.629 54.0891 135.936C53.7265 135.232 53.5451 134.437 53.5451 133.552ZM60.7611 133.584C60.7611 132.976 60.6331 132.448 60.3771 132C60.1318 131.552 59.8065 131.211 59.4011 130.976C58.9958 130.741 58.5585 130.624 58.0891 130.624C57.6198 130.624 57.1825 130.741 56.7771 130.976C56.3718 131.2 56.0411 131.536 55.7851 131.984C55.5398 132.421 55.4171 132.944 55.4171 133.552C55.4171 134.16 55.5398 134.693 55.7851 135.152C56.0411 135.611 56.3718 135.963 56.7771 136.208C57.1931 136.443 57.6305 136.56 58.0891 136.56C58.5585 136.56 58.9958 136.443 59.4011 136.208C59.8065 135.973 60.1318 135.632 60.3771 135.184C60.6331 134.725 60.7611 134.192 60.7611 133.584ZM75.8571 135.728H71.2011L70.4011 138H68.4971L72.4811 126.864H74.5931L78.5771 138H76.6571L75.8571 135.728ZM75.3451 134.24L73.5371 129.072L71.7131 134.24H75.3451ZM82.1334 130.48C82.4427 130.075 82.864 129.733 83.3974 129.456C83.9307 129.179 84.5334 129.04 85.2054 129.04C85.9734 129.04 86.672 129.232 87.3014 129.616C87.9414 129.989 88.4427 130.517 88.8054 131.2C89.168 131.883 89.3494 132.667 89.3494 133.552C89.3494 134.437 89.168 135.232 88.8054 135.936C88.4427 136.629 87.9414 137.173 87.3014 137.568C86.672 137.952 85.9734 138.144 85.2054 138.144C84.5334 138.144 83.936 138.011 83.4134 137.744C82.8907 137.467 82.464 137.125 82.1334 136.72V142.192H80.3094V129.184H82.1334V130.48ZM87.4934 133.552C87.4934 132.944 87.3654 132.421 87.1094 131.984C86.864 131.536 86.5334 131.2 86.1174 130.976C85.712 130.741 85.2747 130.624 84.8054 130.624C84.3467 130.624 83.9094 130.741 83.4934 130.976C83.088 131.211 82.7574 131.552 82.5014 132C82.256 132.448 82.1334 132.976 82.1334 133.584C82.1334 134.192 82.256 134.725 82.5014 135.184C82.7574 135.632 83.088 135.973 83.4934 136.208C83.9094 136.443 84.3467 136.56 84.8054 136.56C85.2747 136.56 85.712 136.443 86.1174 136.208C86.5334 135.963 86.864 135.611 87.1094 135.152C87.3654 134.693 87.4934 134.16 87.4934 133.552ZM92.9771 130.48C93.2865 130.075 93.7078 129.733 94.2411 129.456C94.7745 129.179 95.3771 129.04 96.0491 129.04C96.8171 129.04 97.5158 129.232 98.1451 129.616C98.7851 129.989 99.2865 130.517 99.6491 131.2C100.012 131.883 100.193 132.667 100.193 133.552C100.193 134.437 100.012 135.232 99.6491 135.936C99.2865 136.629 98.7851 137.173 98.1451 137.568C97.5158 137.952 96.8171 138.144 96.0491 138.144C95.3771 138.144 94.7798 138.011 94.2571 137.744C93.7345 137.467 93.3078 137.125 92.9771 136.72V142.192H91.1531V129.184H92.9771V130.48ZM98.3371 133.552C98.3371 132.944 98.2091 132.421 97.9531 131.984C97.7078 131.536 97.3771 131.2 96.9611 130.976C96.5558 130.741 96.1185 130.624 95.6491 130.624C95.1905 130.624 94.7531 130.741 94.3371 130.976C93.9318 131.211 93.6011 131.552 93.3451 132C93.0998 132.448 92.9771 132.976 92.9771 133.584C92.9771 134.192 93.0998 134.725 93.3451 135.184C93.6011 135.632 93.9318 135.973 94.3371 136.208C94.7531 136.443 95.1905 136.56 95.6491 136.56C96.1185 136.56 96.5558 136.443 96.9611 136.208C97.3771 135.963 97.7078 135.611 97.9531 135.152C98.2091 134.693 98.3371 134.16 98.3371 133.552Z" fill="#040222"/>
</svg>
