<svg width="80" height="144" viewBox="0 0 80 144" fill="none" xmlns="http://www.w3.org/2000/svg">
<path d="M77.494 32.7529C70.9398 36.7059 66.8916 43.4824 66.8916 51.0118C66.8916 59.4824 72.0964 67.2 80 70.4C78.4578 75.2941 76.1446 79.8118 73.253 83.9529C69.012 89.7882 64.5783 95.8118 58.0241 95.8118C51.4699 95.8118 49.5422 92.0471 41.8313 92.0471C34.3133 92.0471 31.6145 96 25.4458 96C19.2771 96 15.0361 90.5412 10.2169 83.7647C3.85542 74.3529 0.192771 63.4353 0 51.9529C0 33.3176 12.3373 23.3412 24.6747 23.3412C31.2289 23.3412 36.6265 27.4824 40.6747 27.4824C44.5301 27.4824 50.6988 23.1529 58.0241 23.1529C65.7349 22.9647 73.0602 26.5412 77.494 32.7529ZM54.5542 15.2471C57.8313 11.4824 59.5663 6.77647 59.759 1.88235C59.759 1.31765 59.759 0.564706 59.5663 0C53.9759 0.564706 48.7711 3.2 45.1084 7.34118C41.8313 10.9176 39.9036 15.4353 39.7108 20.3294C39.7108 20.8941 39.7108 21.4588 39.9036 22.0235C40.2892 22.0235 40.8675 22.2118 41.253 22.2118C46.4578 21.8353 51.2771 19.2 54.5542 15.2471Z" fill="black"/>
<path d="M10.128 128.016C9.79733 128.016 9.52 127.904 9.296 127.68C9.072 127.456 8.96 127.179 8.96 126.848C8.96 126.517 9.072 126.24 9.296 126.016C9.52 125.792 9.79733 125.68 10.128 125.68C10.448 125.68 10.72 125.792 10.944 126.016C11.168 126.24 11.28 126.517 11.28 126.848C11.28 127.179 11.168 127.456 10.944 127.68C10.72 127.904 10.448 128.016 10.128 128.016ZM11.024 129.184V138H9.2V129.184H11.024ZM18.4908 138.112C17.4561 138.112 16.5014 137.872 15.6268 137.392C14.7628 136.901 14.0748 136.224 13.5628 135.36C13.0614 134.485 12.8108 133.504 12.8108 132.416C12.8108 131.328 13.0614 130.352 13.5628 129.488C14.0748 128.624 14.7628 127.952 15.6268 127.472C16.5014 126.981 17.4561 126.736 18.4908 126.736C19.5361 126.736 20.4908 126.981 21.3548 127.472C22.2294 127.952 22.9174 128.624 23.4188 129.488C23.9201 130.352 24.1708 131.328 24.1708 132.416C24.1708 133.504 23.9201 134.485 23.4188 135.36C22.9174 136.224 22.2294 136.901 21.3548 137.392C20.4908 137.872 19.5361 138.112 18.4908 138.112ZM18.4908 136.528C19.2268 136.528 19.8828 136.363 20.4588 136.032C21.0348 135.691 21.4828 135.211 21.8028 134.592C22.1334 133.963 22.2988 133.237 22.2988 132.416C22.2988 131.595 22.1334 130.875 21.8028 130.256C21.4828 129.637 21.0348 129.163 20.4588 128.832C19.8828 128.501 19.2268 128.336 18.4908 128.336C17.7548 128.336 17.0988 128.501 16.5228 128.832C15.9468 129.163 15.4934 129.637 15.1628 130.256C14.8428 130.875 14.6828 131.595 14.6828 132.416C14.6828 133.237 14.8428 133.963 15.1628 134.592C15.4934 135.211 15.9468 135.691 16.5228 136.032C17.0988 136.363 17.7548 136.528 18.4908 136.528ZM29.6296 138.112C28.883 138.112 28.211 137.984 27.6136 137.728C27.0163 137.461 26.547 137.088 26.2056 136.608C25.8643 136.128 25.6936 135.568 25.6936 134.928H27.6456C27.6883 135.408 27.875 135.803 28.2056 136.112C28.547 136.421 29.0216 136.576 29.6296 136.576C30.259 136.576 30.7496 136.427 31.1016 136.128C31.4536 135.819 31.6296 135.424 31.6296 134.944C31.6296 134.571 31.5176 134.267 31.2936 134.032C31.0803 133.797 30.8083 133.616 30.4776 133.488C30.1576 133.36 29.7096 133.221 29.1336 133.072C28.4083 132.88 27.8163 132.688 27.3576 132.496C26.9096 132.293 26.5256 131.984 26.2056 131.568C25.8856 131.152 25.7256 130.597 25.7256 129.904C25.7256 129.264 25.8856 128.704 26.2056 128.224C26.5256 127.744 26.9736 127.376 27.5496 127.12C28.1256 126.864 28.7923 126.736 29.5496 126.736C30.627 126.736 31.507 127.008 32.1896 127.552C32.883 128.085 33.267 128.821 33.3416 129.76H31.3256C31.2936 129.355 31.1016 129.008 30.7496 128.72C30.3976 128.432 29.9336 128.288 29.3576 128.288C28.835 128.288 28.4083 128.421 28.0776 128.688C27.747 128.955 27.5816 129.339 27.5816 129.84C27.5816 130.181 27.683 130.464 27.8856 130.688C28.099 130.901 28.3656 131.072 28.6856 131.2C29.0056 131.328 29.443 131.467 29.9976 131.616C30.7336 131.819 31.331 132.021 31.7896 132.224C32.259 132.427 32.6536 132.741 32.9736 133.168C33.3043 133.584 33.4696 134.144 33.4696 134.848C33.4696 135.413 33.315 135.947 33.0056 136.448C32.707 136.949 32.2643 137.355 31.6776 137.664C31.1016 137.963 30.419 138.112 29.6296 138.112ZM46.4821 135.728H41.8261L41.0261 138H39.1221L43.1061 126.864H45.2181L49.2021 138H47.2821L46.4821 135.728ZM45.9701 134.24L44.1621 129.072L42.3381 134.24H45.9701ZM52.7584 130.48C53.0677 130.075 53.489 129.733 54.0224 129.456C54.5557 129.179 55.1584 129.04 55.8304 129.04C56.5984 129.04 57.297 129.232 57.9264 129.616C58.5664 129.989 59.0677 130.517 59.4304 131.2C59.793 131.883 59.9744 132.667 59.9744 133.552C59.9744 134.437 59.793 135.232 59.4304 135.936C59.0677 136.629 58.5664 137.173 57.9264 137.568C57.297 137.952 56.5984 138.144 55.8304 138.144C55.1584 138.144 54.561 138.011 54.0384 137.744C53.5157 137.467 53.089 137.125 52.7584 136.72V142.192H50.9344V129.184H52.7584V130.48ZM58.1184 133.552C58.1184 132.944 57.9904 132.421 57.7344 131.984C57.489 131.536 57.1584 131.2 56.7424 130.976C56.337 130.741 55.8997 130.624 55.4304 130.624C54.9717 130.624 54.5344 130.741 54.1184 130.976C53.713 131.211 53.3824 131.552 53.1264 132C52.881 132.448 52.7584 132.976 52.7584 133.584C52.7584 134.192 52.881 134.725 53.1264 135.184C53.3824 135.632 53.713 135.973 54.1184 136.208C54.5344 136.443 54.9717 136.56 55.4304 136.56C55.8997 136.56 56.337 136.443 56.7424 136.208C57.1584 135.963 57.489 135.611 57.7344 135.152C57.9904 134.693 58.1184 134.16 58.1184 133.552ZM63.6021 130.48C63.9115 130.075 64.3328 129.733 64.8661 129.456C65.3995 129.179 66.0021 129.04 66.6741 129.04C67.4421 129.04 68.1408 129.232 68.7701 129.616C69.4101 129.989 69.9115 130.517 70.2741 131.2C70.6368 131.883 70.8181 132.667 70.8181 133.552C70.8181 134.437 70.6368 135.232 70.2741 135.936C69.9115 136.629 69.4101 137.173 68.7701 137.568C68.1408 137.952 67.4421 138.144 66.6741 138.144C66.0021 138.144 65.4048 138.011 64.8821 137.744C64.3595 137.467 63.9328 137.125 63.6021 136.72V142.192H61.7781V129.184H63.6021V130.48ZM68.9621 133.552C68.9621 132.944 68.8341 132.421 68.5781 131.984C68.3328 131.536 68.0021 131.2 67.5861 130.976C67.1808 130.741 66.7435 130.624 66.2741 130.624C65.8155 130.624 65.3781 130.741 64.9621 130.976C64.5568 131.211 64.2261 131.552 63.9701 132C63.7248 132.448 63.6021 132.976 63.6021 133.584C63.6021 134.192 63.7248 134.725 63.9701 135.184C64.2261 135.632 64.5568 135.973 64.9621 136.208C65.3781 136.443 65.8155 136.56 66.2741 136.56C66.7435 136.56 67.1808 136.443 67.5861 136.208C68.0021 135.963 68.3328 135.611 68.5781 135.152C68.8341 134.693 68.9621 134.16 68.9621 133.552Z" fill="#040222"/>
</svg>
