<svg width="96" height="144" viewBox="0 0 96 144" fill="none" xmlns="http://www.w3.org/2000/svg">
<path d="M96 96H0V0H96L47.0098 47.2874L96 96Z" fill="url(#paint0_radial_170_2333)"/>
<path d="M13.828 138L9.524 133.024V138H7.7V126.88H9.524V131.952L13.844 126.88H16.132L11.3 132.448L16.212 138H13.828ZM21.649 138.144C20.817 138.144 20.065 137.957 19.393 137.584C18.721 137.2 18.193 136.667 17.809 135.984C17.425 135.291 17.233 134.491 17.233 133.584C17.233 132.688 17.4303 131.893 17.825 131.2C18.2197 130.507 18.7583 129.973 19.441 129.6C20.1237 129.227 20.8863 129.04 21.729 129.04C22.5717 129.04 23.3343 129.227 24.017 129.6C24.6997 129.973 25.2383 130.507 25.633 131.2C26.0277 131.893 26.225 132.688 26.225 133.584C26.225 134.48 26.0223 135.275 25.617 135.968C25.2117 136.661 24.657 137.2 23.953 137.584C23.2597 137.957 22.4917 138.144 21.649 138.144ZM21.649 136.56C22.1183 136.56 22.5557 136.448 22.961 136.224C23.377 136 23.713 135.664 23.969 135.216C24.225 134.768 24.353 134.224 24.353 133.584C24.353 132.944 24.2303 132.405 23.985 131.968C23.7397 131.52 23.4143 131.184 23.009 130.96C22.6037 130.736 22.1663 130.624 21.697 130.624C21.2277 130.624 20.7903 130.736 20.385 130.96C19.9903 131.184 19.6757 131.52 19.441 131.968C19.2063 132.405 19.089 132.944 19.089 133.584C19.089 134.533 19.329 135.269 19.809 135.792C20.2997 136.304 20.913 136.56 21.649 136.56ZM30.1561 130.672V135.552C30.1561 135.883 30.2308 136.123 30.3801 136.272C30.5401 136.411 30.8068 136.48 31.1801 136.48H32.3001V138H30.8601C30.0388 138 29.4095 137.808 28.9721 137.424C28.5348 137.04 28.3161 136.416 28.3161 135.552V130.672H27.2761V129.184H28.3161V126.992H30.1561V129.184H32.3001V130.672H30.1561ZM35.8053 126.16V138H33.9813V126.16H35.8053ZM39.128 128.016C38.7973 128.016 38.52 127.904 38.296 127.68C38.072 127.456 37.96 127.179 37.96 126.848C37.96 126.517 38.072 126.24 38.296 126.016C38.52 125.792 38.7973 125.68 39.128 125.68C39.448 125.68 39.72 125.792 39.944 126.016C40.168 126.24 40.28 126.517 40.28 126.848C40.28 127.179 40.168 127.456 39.944 127.68C39.72 127.904 39.448 128.016 39.128 128.016ZM40.024 129.184V138H38.2V129.184H40.024ZM46.8668 129.04C47.5601 129.04 48.1788 129.184 48.7228 129.472C49.2774 129.76 49.7094 130.187 50.0188 130.752C50.3281 131.317 50.4828 132 50.4828 132.8V138H48.6748V133.072C48.6748 132.283 48.4774 131.68 48.0828 131.264C47.6881 130.837 47.1494 130.624 46.4668 130.624C45.7841 130.624 45.2401 130.837 44.8348 131.264C44.4401 131.68 44.2428 132.283 44.2428 133.072V138H42.4188V129.184H44.2428V130.192C44.5414 129.829 44.9201 129.547 45.3788 129.344C45.8481 129.141 46.3441 129.04 46.8668 129.04ZM63.6696 135.728H59.0136L58.2136 138H56.3096L60.2936 126.864H62.4056L66.3896 138H64.4696L63.6696 135.728ZM63.1576 134.24L61.3496 129.072L59.5256 134.24H63.1576ZM69.9459 130.48C70.2552 130.075 70.6765 129.733 71.2099 129.456C71.7432 129.179 72.3459 129.04 73.0179 129.04C73.7859 129.04 74.4845 129.232 75.1139 129.616C75.7539 129.989 76.2552 130.517 76.6179 131.2C76.9805 131.883 77.1619 132.667 77.1619 133.552C77.1619 134.437 76.9805 135.232 76.6179 135.936C76.2552 136.629 75.7539 137.173 75.1139 137.568C74.4845 137.952 73.7859 138.144 73.0179 138.144C72.3459 138.144 71.7485 138.011 71.2259 137.744C70.7032 137.467 70.2765 137.125 69.9459 136.72V142.192H68.1219V129.184H69.9459V130.48ZM75.3059 133.552C75.3059 132.944 75.1779 132.421 74.9219 131.984C74.6765 131.536 74.3459 131.2 73.9299 130.976C73.5245 130.741 73.0872 130.624 72.6179 130.624C72.1592 130.624 71.7219 130.741 71.3059 130.976C70.9005 131.211 70.5699 131.552 70.3139 132C70.0685 132.448 69.9459 132.976 69.9459 133.584C69.9459 134.192 70.0685 134.725 70.3139 135.184C70.5699 135.632 70.9005 135.973 71.3059 136.208C71.7219 136.443 72.1592 136.56 72.6179 136.56C73.0872 136.56 73.5245 136.443 73.9299 136.208C74.3459 135.963 74.6765 135.611 74.9219 135.152C75.1779 134.693 75.3059 134.16 75.3059 133.552ZM80.7896 130.48C81.099 130.075 81.5203 129.733 82.0536 129.456C82.587 129.179 83.1896 129.04 83.8616 129.04C84.6296 129.04 85.3283 129.232 85.9576 129.616C86.5976 129.989 87.099 130.517 87.4616 131.2C87.8243 131.883 88.0056 132.667 88.0056 133.552C88.0056 134.437 87.8243 135.232 87.4616 135.936C87.099 136.629 86.5976 137.173 85.9576 137.568C85.3283 137.952 84.6296 138.144 83.8616 138.144C83.1896 138.144 82.5923 138.011 82.0696 137.744C81.547 137.467 81.1203 137.125 80.7896 136.72V142.192H78.9656V129.184H80.7896V130.48ZM86.1496 133.552C86.1496 132.944 86.0216 132.421 85.7656 131.984C85.5203 131.536 85.1896 131.2 84.7736 130.976C84.3683 130.741 83.931 130.624 83.4616 130.624C83.003 130.624 82.5656 130.741 82.1496 130.976C81.7443 131.211 81.4136 131.552 81.1576 132C80.9123 132.448 80.7896 132.976 80.7896 133.584C80.7896 134.192 80.9123 134.725 81.1576 135.184C81.4136 135.632 81.7443 135.973 82.1496 136.208C82.5656 136.443 83.003 136.56 83.4616 136.56C83.931 136.56 84.3683 136.443 84.7736 136.208C85.1896 135.963 85.5203 135.611 85.7656 135.152C86.0216 134.693 86.1496 134.16 86.1496 133.552Z" fill="#040222"/>
<defs>
<radialGradient id="paint0_radial_170_2333" cx="0" cy="0" r="1" gradientUnits="userSpaceOnUse" gradientTransform="translate(92.7959 3.93057) scale(109.922 109.981)">
<stop offset="0.003" stop-color="#E44857"/>
<stop offset="0.469" stop-color="#C711E1"/>
<stop offset="1" stop-color="#7F52FF"/>
</radialGradient>
</defs>
</svg>
