<svg width="111" height="144" viewBox="0 0 111 144" fill="none" xmlns="http://www.w3.org/2000/svg">
<path fill-rule="evenodd" clip-rule="evenodd" d="M83.1384 96L110.851 48L83.1384 2.42273e-06L27.7128 0L0 48L27.7128 96H83.1384ZM31.2957 23.154H41.3296L55.186 47.5222L69.0424 23.154H79.0764L65.4589 48L79.3153 72.607H69.2813L55.186 48L41.3296 72.8459H31.0568L45.1521 47.7611L31.2957 23.154Z" fill="#38B2F1"/>
<path d="M8.22978 132.448L11.6858 138H9.63778L7.12578 133.968L4.77378 138H2.74178L6.19778 132.448L2.72578 126.88H4.77378L7.30178 130.944L9.66978 126.88H11.7018L8.22978 132.448ZM13.0803 133.552C13.0803 132.667 13.2616 131.883 13.6243 131.2C13.9976 130.517 14.4989 129.989 15.1283 129.616C15.7683 129.232 16.4723 129.04 17.2403 129.04C17.9336 129.04 18.5363 129.179 19.0483 129.456C19.5709 129.723 19.9869 130.059 20.2963 130.464V129.184H22.1363V138H20.2963V136.688C19.9869 137.104 19.5656 137.451 19.0323 137.728C18.4989 138.005 17.8909 138.144 17.2083 138.144C16.4509 138.144 15.7576 137.952 15.1283 137.568C14.4989 137.173 13.9976 136.629 13.6243 135.936C13.2616 135.232 13.0803 134.437 13.0803 133.552ZM20.2963 133.584C20.2963 132.976 20.1683 132.448 19.9123 132C19.6669 131.552 19.3416 131.211 18.9363 130.976C18.5309 130.741 18.0936 130.624 17.6243 130.624C17.1549 130.624 16.7176 130.741 16.3123 130.976C15.9069 131.2 15.5763 131.536 15.3203 131.984C15.0749 132.421 14.9523 132.944 14.9523 133.552C14.9523 134.16 15.0749 134.693 15.3203 135.152C15.5763 135.611 15.9069 135.963 16.3123 136.208C16.7283 136.443 17.1656 136.56 17.6243 136.56C18.0936 136.56 18.5309 136.443 18.9363 136.208C19.3416 135.973 19.6669 135.632 19.9123 135.184C20.1683 134.725 20.2963 134.192 20.2963 133.584ZM35.204 129.04C35.8974 129.04 36.516 129.184 37.06 129.472C37.6147 129.76 38.0467 130.187 38.356 130.752C38.676 131.317 38.836 132 38.836 132.8V138H37.028V133.072C37.028 132.283 36.8307 131.68 36.436 131.264C36.0414 130.837 35.5027 130.624 34.82 130.624C34.1374 130.624 33.5934 130.837 33.188 131.264C32.7934 131.68 32.596 132.283 32.596 133.072V138H30.788V133.072C30.788 132.283 30.5907 131.68 30.196 131.264C29.8014 130.837 29.2627 130.624 28.58 130.624C27.8974 130.624 27.3534 130.837 26.948 131.264C26.5534 131.68 26.356 132.283 26.356 133.072V138H24.532V129.184H26.356V130.192C26.6547 129.829 27.0334 129.547 27.492 129.344C27.9507 129.141 28.4414 129.04 28.964 129.04C29.668 129.04 30.2974 129.189 30.852 129.488C31.4067 129.787 31.8334 130.219 32.132 130.784C32.3987 130.251 32.8147 129.829 33.38 129.52C33.9454 129.2 34.5534 129.04 35.204 129.04ZM40.549 133.552C40.549 132.667 40.7304 131.883 41.093 131.2C41.4664 130.517 41.9677 129.989 42.597 129.616C43.237 129.232 43.941 129.04 44.709 129.04C45.4024 129.04 46.005 129.179 46.517 129.456C47.0397 129.723 47.4557 130.059 47.765 130.464V129.184H49.605V138H47.765V136.688C47.4557 137.104 47.0344 137.451 46.501 137.728C45.9677 138.005 45.3597 138.144 44.677 138.144C43.9197 138.144 43.2264 137.952 42.597 137.568C41.9677 137.173 41.4664 136.629 41.093 135.936C40.7304 135.232 40.549 134.437 40.549 133.552ZM47.765 133.584C47.765 132.976 47.637 132.448 47.381 132C47.1357 131.552 46.8104 131.211 46.405 130.976C45.9997 130.741 45.5624 130.624 45.093 130.624C44.6237 130.624 44.1864 130.741 43.781 130.976C43.3757 131.2 43.045 131.536 42.789 131.984C42.5437 132.421 42.421 132.944 42.421 133.552C42.421 134.16 42.5437 134.693 42.789 135.152C43.045 135.611 43.3757 135.963 43.781 136.208C44.197 136.443 44.6344 136.56 45.093 136.56C45.5624 136.56 45.9997 136.443 46.405 136.208C46.8104 135.973 47.1357 135.632 47.381 135.184C47.637 134.725 47.765 134.192 47.765 133.584ZM53.8248 130.464C54.0914 130.016 54.4434 129.669 54.8808 129.424C55.3288 129.168 55.8568 129.04 56.4648 129.04V130.928H56.0008C55.2861 130.928 54.7421 131.109 54.3688 131.472C54.0061 131.835 53.8248 132.464 53.8248 133.36V138H52.0008V129.184H53.8248V130.464ZM59.0694 128.016C58.7387 128.016 58.4614 127.904 58.2374 127.68C58.0134 127.456 57.9014 127.179 57.9014 126.848C57.9014 126.517 58.0134 126.24 58.2374 126.016C58.4614 125.792 58.7387 125.68 59.0694 125.68C59.3894 125.68 59.6614 125.792 59.8854 126.016C60.1094 126.24 60.2214 126.517 60.2214 126.848C60.2214 127.179 60.1094 127.456 59.8854 127.68C59.6614 127.904 59.3894 128.016 59.0694 128.016ZM59.9654 129.184V138H58.1414V129.184H59.9654ZM66.8082 129.04C67.5015 129.04 68.1202 129.184 68.6642 129.472C69.2188 129.76 69.6508 130.187 69.9602 130.752C70.2695 131.317 70.4242 132 70.4242 132.8V138H68.6162V133.072C68.6162 132.283 68.4188 131.68 68.0242 131.264C67.6295 130.837 67.0908 130.624 66.4082 130.624C65.7255 130.624 65.1815 130.837 64.7762 131.264C64.3815 131.68 64.1842 132.283 64.1842 133.072V138H62.3602V129.184H64.1842V130.192C64.4828 129.829 64.8615 129.547 65.3202 129.344C65.7895 129.141 66.2855 129.04 66.8082 129.04ZM83.611 135.728H78.955L78.155 138H76.251L80.235 126.864H82.347L86.331 138H84.411L83.611 135.728ZM83.099 134.24L81.291 129.072L79.467 134.24H83.099ZM89.8873 130.48C90.1966 130.075 90.6179 129.733 91.1513 129.456C91.6846 129.179 92.2873 129.04 92.9593 129.04C93.7273 129.04 94.4259 129.232 95.0553 129.616C95.6953 129.989 96.1966 130.517 96.5593 131.2C96.9219 131.883 97.1033 132.667 97.1033 133.552C97.1033 134.437 96.9219 135.232 96.5593 135.936C96.1966 136.629 95.6953 137.173 95.0553 137.568C94.4259 137.952 93.7273 138.144 92.9593 138.144C92.2873 138.144 91.6899 138.011 91.1673 137.744C90.6446 137.467 90.2179 137.125 89.8873 136.72V142.192H88.0633V129.184H89.8873V130.48ZM95.2473 133.552C95.2473 132.944 95.1193 132.421 94.8633 131.984C94.6179 131.536 94.2873 131.2 93.8713 130.976C93.4659 130.741 93.0286 130.624 92.5593 130.624C92.1006 130.624 91.6633 130.741 91.2473 130.976C90.8419 131.211 90.5113 131.552 90.2553 132C90.0099 132.448 89.8873 132.976 89.8873 133.584C89.8873 134.192 90.0099 134.725 90.2553 135.184C90.5113 135.632 90.8419 135.973 91.2473 136.208C91.6633 136.443 92.1006 136.56 92.5593 136.56C93.0286 136.56 93.4659 136.443 93.8713 136.208C94.2873 135.963 94.6179 135.611 94.8633 135.152C95.1193 134.693 95.2473 134.16 95.2473 133.552ZM100.731 130.48C101.04 130.075 101.462 129.733 101.995 129.456C102.528 129.179 103.131 129.04 103.803 129.04C104.571 129.04 105.27 129.232 105.899 129.616C106.539 129.989 107.04 130.517 107.403 131.2C107.766 131.883 107.947 132.667 107.947 133.552C107.947 134.437 107.766 135.232 107.403 135.936C107.04 136.629 106.539 137.173 105.899 137.568C105.27 137.952 104.571 138.144 103.803 138.144C103.131 138.144 102.534 138.011 102.011 137.744C101.488 137.467 101.062 137.125 100.731 136.72V142.192H98.907V129.184H100.731V130.48ZM106.091 133.552C106.091 132.944 105.963 132.421 105.707 131.984C105.462 131.536 105.131 131.2 104.715 130.976C104.31 130.741 103.872 130.624 103.403 130.624C102.944 130.624 102.507 130.741 102.091 130.976C101.686 131.211 101.355 131.552 101.099 132C100.854 132.448 100.731 132.976 100.731 133.584C100.731 134.192 100.854 134.725 101.099 135.184C101.355 135.632 101.686 135.973 102.091 136.208C102.507 136.443 102.944 136.56 103.403 136.56C103.872 136.56 104.31 136.443 104.715 136.208C105.131 135.963 105.462 135.611 105.707 135.152C105.963 134.693 106.091 134.16 106.091 133.552Z" fill="#040222"/>
</svg>
