<svg width="97" height="144" viewBox="0 0 97 144" fill="none" xmlns="http://www.w3.org/2000/svg">
<path d="M48.1185 26.253C36.023 26.253 26.2158 36.0489 26.2158 48.1306C26.2158 60.2122 36.023 70.0081 48.1185 70.0081C60.214 70.0081 70.0212 60.2122 70.0212 48.1306C69.9558 36.0489 60.1486 26.253 48.1185 26.253Z" fill="#3880FF"/>
<path d="M79.5023 28.2121C85.027 28.2121 89.5056 23.7386 89.5056 18.2202C89.5056 12.7019 85.027 8.22839 79.5023 8.22839C73.9777 8.22839 69.499 12.7019 69.499 18.2202C69.499 23.7386 73.9777 28.2121 79.5023 28.2121Z" fill="#3880FF"/>
<path d="M91.7951 28.2122L91.4028 27.298L90.749 28.0816C89.1145 29.9102 87.0223 31.3469 84.7339 32.1959L84.0801 32.4571L84.3416 33.1102C86.3684 37.8776 87.3492 42.9714 87.3492 48.1306C87.3492 69.7469 69.7616 87.3796 48.0551 87.3796C26.3486 87.3796 8.82645 69.7469 8.82645 48.1306C8.82645 26.5143 26.414 8.88163 48.1205 8.88163C54.0048 8.88163 59.6276 10.1878 64.9234 12.6694L65.5119 12.9306L65.7734 12.2776C66.7541 9.99184 68.2579 8.03265 70.2193 6.4653L71.0039 5.81224L70.0885 5.3551C63.2235 1.82857 55.8355 0 48.0551 0C21.5758 0 0 21.551 0 48C0 74.449 21.5758 96 48.0551 96C74.5345 96 96.1102 74.449 96.1102 48C96.1102 41.2082 94.6719 34.5469 91.7951 28.2122Z" fill="#3880FF"/>
<path d="M13.0787 126.88V138H11.2547V126.88H13.0787ZM19.2974 138.144C18.4654 138.144 17.7134 137.957 17.0414 137.584C16.3694 137.2 15.8414 136.667 15.4574 135.984C15.0734 135.291 14.8814 134.491 14.8814 133.584C14.8814 132.688 15.0788 131.893 15.4734 131.2C15.8681 130.507 16.4068 129.973 17.0894 129.6C17.7721 129.227 18.5348 129.04 19.3774 129.04C20.2201 129.04 20.9828 129.227 21.6654 129.6C22.3481 129.973 22.8868 130.507 23.2814 131.2C23.6761 131.893 23.8734 132.688 23.8734 133.584C23.8734 134.48 23.6708 135.275 23.2654 135.968C22.8601 136.661 22.3054 137.2 21.6014 137.584C20.9081 137.957 20.1401 138.144 19.2974 138.144ZM19.2974 136.56C19.7668 136.56 20.2041 136.448 20.6094 136.224C21.0254 136 21.3614 135.664 21.6174 135.216C21.8734 134.768 22.0014 134.224 22.0014 133.584C22.0014 132.944 21.8788 132.405 21.6334 131.968C21.3881 131.52 21.0628 131.184 20.6574 130.96C20.2521 130.736 19.8148 130.624 19.3454 130.624C18.8761 130.624 18.4388 130.736 18.0334 130.96C17.6388 131.184 17.3241 131.52 17.0894 131.968C16.8548 132.405 16.7374 132.944 16.7374 133.584C16.7374 134.533 16.9774 135.269 17.4574 135.792C17.9481 136.304 18.5614 136.56 19.2974 136.56ZM30.1246 129.04C30.8179 129.04 31.4366 129.184 31.9806 129.472C32.5352 129.76 32.9672 130.187 33.2766 130.752C33.5859 131.317 33.7406 132 33.7406 132.8V138H31.9326V133.072C31.9326 132.283 31.7352 131.68 31.3406 131.264C30.9459 130.837 30.4072 130.624 29.7246 130.624C29.0419 130.624 28.4979 130.837 28.0926 131.264C27.6979 131.68 27.5006 132.283 27.5006 133.072V138H25.6766V129.184H27.5006V130.192C27.7992 129.829 28.1779 129.547 28.6366 129.344C29.1059 129.141 29.6019 129.04 30.1246 129.04ZM36.9952 128.016C36.6645 128.016 36.3872 127.904 36.1632 127.68C35.9392 127.456 35.8272 127.179 35.8272 126.848C35.8272 126.517 35.9392 126.24 36.1632 126.016C36.3872 125.792 36.6645 125.68 36.9952 125.68C37.3152 125.68 37.5872 125.792 37.8112 126.016C38.0352 126.24 38.1472 126.517 38.1472 126.848C38.1472 127.179 38.0352 127.456 37.8112 127.68C37.5872 127.904 37.3152 128.016 36.9952 128.016ZM37.8912 129.184V138H36.0672V129.184H37.8912ZM39.6779 133.584C39.6779 132.677 39.8593 131.883 40.2219 131.2C40.5953 130.507 41.1073 129.973 41.7579 129.6C42.4086 129.227 43.1553 129.04 43.9979 129.04C45.0646 129.04 45.9446 129.296 46.6379 129.808C47.3419 130.309 47.8166 131.029 48.0619 131.968H46.0939C45.9339 131.531 45.6779 131.189 45.3259 130.944C44.9739 130.699 44.5313 130.576 43.9979 130.576C43.2513 130.576 42.6539 130.843 42.2059 131.376C41.7686 131.899 41.5499 132.635 41.5499 133.584C41.5499 134.533 41.7686 135.275 42.2059 135.808C42.6539 136.341 43.2513 136.608 43.9979 136.608C45.0539 136.608 45.7526 136.144 46.0939 135.216H48.0619C47.8059 136.112 47.3259 136.827 46.6219 137.36C45.9179 137.883 45.0433 138.144 43.9979 138.144C43.1553 138.144 42.4086 137.957 41.7579 137.584C41.1073 137.2 40.5953 136.667 40.2219 135.984C39.8593 135.291 39.6779 134.491 39.6779 133.584ZM60.7399 135.728H56.0839L55.2839 138H53.3799L57.3639 126.864H59.4759L63.4599 138H61.5399L60.7399 135.728ZM60.2279 134.24L58.4199 129.072L56.5959 134.24H60.2279ZM67.0162 130.48C67.3255 130.075 67.7469 129.733 68.2802 129.456C68.8135 129.179 69.4162 129.04 70.0882 129.04C70.8562 129.04 71.5549 129.232 72.1842 129.616C72.8242 129.989 73.3255 130.517 73.6882 131.2C74.0509 131.883 74.2322 132.667 74.2322 133.552C74.2322 134.437 74.0509 135.232 73.6882 135.936C73.3255 136.629 72.8242 137.173 72.1842 137.568C71.5549 137.952 70.8562 138.144 70.0882 138.144C69.4162 138.144 68.8189 138.011 68.2962 137.744C67.7735 137.467 67.3469 137.125 67.0162 136.72V142.192H65.1922V129.184H67.0162V130.48ZM72.3762 133.552C72.3762 132.944 72.2482 132.421 71.9922 131.984C71.7469 131.536 71.4162 131.2 71.0002 130.976C70.5949 130.741 70.1575 130.624 69.6882 130.624C69.2295 130.624 68.7922 130.741 68.3762 130.976C67.9709 131.211 67.6402 131.552 67.3842 132C67.1389 132.448 67.0162 132.976 67.0162 133.584C67.0162 134.192 67.1389 134.725 67.3842 135.184C67.6402 135.632 67.9709 135.973 68.3762 136.208C68.7922 136.443 69.2295 136.56 69.6882 136.56C70.1575 136.56 70.5949 136.443 71.0002 136.208C71.4162 135.963 71.7469 135.611 71.9922 135.152C72.2482 134.693 72.3762 134.16 72.3762 133.552ZM77.8599 130.48C78.1693 130.075 78.5906 129.733 79.1239 129.456C79.6573 129.179 80.2599 129.04 80.9319 129.04C81.6999 129.04 82.3986 129.232 83.0279 129.616C83.6679 129.989 84.1693 130.517 84.5319 131.2C84.8946 131.883 85.0759 132.667 85.0759 133.552C85.0759 134.437 84.8946 135.232 84.5319 135.936C84.1693 136.629 83.6679 137.173 83.0279 137.568C82.3986 137.952 81.6999 138.144 80.9319 138.144C80.2599 138.144 79.6626 138.011 79.1399 137.744C78.6173 137.467 78.1906 137.125 77.8599 136.72V142.192H76.0359V129.184H77.8599V130.48ZM83.2199 133.552C83.2199 132.944 83.0919 132.421 82.8359 131.984C82.5906 131.536 82.2599 131.2 81.8439 130.976C81.4386 130.741 81.0013 130.624 80.5319 130.624C80.0733 130.624 79.6359 130.741 79.2199 130.976C78.8146 131.211 78.4839 131.552 78.2279 132C77.9826 132.448 77.8599 132.976 77.8599 133.584C77.8599 134.192 77.9826 134.725 78.2279 135.184C78.4839 135.632 78.8146 135.973 79.2199 136.208C79.6359 136.443 80.0733 136.56 80.5319 136.56C81.0013 136.56 81.4386 136.443 81.8439 136.208C82.2599 135.963 82.5906 135.611 82.8359 135.152C83.0919 134.693 83.2199 134.16 83.2199 133.552Z" fill="#040222"/>
</svg>
