<svg width="97" height="144" viewBox="0 0 97 144" fill="none" xmlns="http://www.w3.org/2000/svg">
<path d="M96.5357 26.5901C96.5301 25.6246 96.5193 24.6596 96.4925 23.693C96.4359 21.5904 96.3109 19.4687 95.9351 17.3885C95.5537 15.276 94.9304 13.3118 93.9479 11.3928C92.9834 9.5082 91.7227 7.78365 90.2187 6.28815C88.7151 4.79265 86.9808 3.53913 85.0848 2.57963C83.1565 1.6038 81.1808 0.984069 79.0584 0.60486C76.9653 0.230015 74.8316 0.106521 72.7155 0.0496237C71.7439 0.0234379 70.7733 0.0124463 69.802 0.00646563C68.6492 0 67.4956 0 66.3431 0H40.7869H30.1996C29.0459 0 27.8936 0 26.7411 0.00662727C25.7695 0.012608 24.7977 0.0235996 23.8276 0.0497854C23.2987 0.0640098 22.7686 0.0824368 22.2381 0.107814C20.6471 0.184109 19.0535 0.323928 17.4846 0.605022C15.8927 0.889509 14.3832 1.30913 12.9147 1.91286C12.4252 2.11394 11.9402 2.33571 11.458 2.57963C10.036 3.29925 8.70469 4.18423 7.49382 5.21259C7.0902 5.55543 6.6999 5.91411 6.32408 6.28799C4.8198 7.78349 3.55903 9.50804 2.59459 11.3926C1.61211 13.3116 0.98953 15.2759 0.607853 17.3883C0.232352 19.4685 0.10751 21.5902 0.0506164 23.6928C0.0239574 24.6594 0.0127412 25.6244 0.00640157 26.5899C-0.000913375 27.7366 6.19513e-05 28.8834 6.19513e-05 30.0298V45.6797V65.9697C6.19513e-05 67.1172 -0.00107593 68.2629 0.00640157 69.4104C0.0127412 70.3758 0.0239574 71.3408 0.0506164 72.3058C0.10751 74.4096 0.23219 76.5318 0.607853 78.6109C0.98953 80.7228 1.61211 82.6888 2.59459 84.6073C3.55903 86.4924 4.8198 88.2165 6.32408 89.7113C7.82722 91.2075 9.562 92.4608 11.4582 93.421C13.3866 94.3969 15.3621 95.0159 17.4851 95.3951C19.5768 95.7694 21.7121 95.8939 23.8278 95.9502C24.7979 95.9759 25.7696 95.9873 26.7412 95.9928C27.8937 96.0011 29.0461 95.9999 30.1997 95.9999H66.3431C67.4956 95.9999 68.6492 96.0011 69.8019 95.9928C70.7731 95.9873 71.7438 95.9759 72.7153 95.9502C74.8315 95.8939 76.9652 95.7693 79.0582 95.3951C81.1807 95.0159 83.1564 94.3968 85.0846 93.421C86.9806 92.461 88.7149 91.2075 90.2186 89.7113C91.7225 88.2163 92.9834 86.4924 93.9477 84.6073C94.9302 82.6888 95.5536 80.7229 95.9349 78.6109C96.3108 76.5318 96.4358 74.4096 96.4923 72.3058C96.519 71.3408 96.5297 70.376 96.5356 69.4104C96.5431 68.2629 96.5424 67.1172 96.5424 65.9697V30.0298C96.5426 28.8834 96.5431 27.7366 96.5357 26.5901Z" fill="#F05138"/>
<path d="M76.4978 59.2587C76.4956 59.2558 76.4934 59.2537 76.491 59.2509C76.5978 58.8895 76.708 58.5303 76.8015 58.1598C80.8084 42.2853 71.029 23.5171 54.4802 13.6352C61.7322 23.4111 64.9388 35.2519 62.0898 45.607C61.8358 46.5306 61.5303 47.417 61.1927 48.2786C60.8263 48.0392 60.3646 47.7675 59.7447 47.4275C59.7447 47.4275 43.2829 37.3206 25.4411 19.4439C24.973 18.9747 34.9551 33.6312 46.2837 45.5326C40.9464 42.5541 26.072 31.7925 16.6556 23.2225C17.8125 25.141 19.1885 26.9884 20.701 28.7669C28.5646 38.6834 38.8197 50.9188 51.1057 60.3142C42.4734 65.5672 30.2758 65.9757 18.1312 60.3197C15.1274 58.9199 12.3035 57.2309 9.68945 55.3119C14.8302 63.4885 22.7478 70.5431 32.3842 74.6616C43.8759 79.5724 55.3037 79.2394 63.815 74.7421L63.8084 74.7518C63.8472 74.7274 63.8966 74.7007 63.9369 74.676C64.2864 74.4891 64.6333 74.2989 64.9726 74.0979C69.062 71.9872 77.1393 69.8458 81.4748 78.234C82.5366 80.2868 84.7928 69.4078 76.4978 59.2587Z" fill="white"/>
<path d="M15.1355 138.112C14.3888 138.112 13.7168 137.984 13.1195 137.728C12.5222 137.461 12.0528 137.088 11.7115 136.608C11.3702 136.128 11.1995 135.568 11.1995 134.928H13.1515C13.1942 135.408 13.3808 135.803 13.7115 136.112C14.0528 136.421 14.5275 136.576 15.1355 136.576C15.7648 136.576 16.2555 136.427 16.6075 136.128C16.9595 135.819 17.1355 135.424 17.1355 134.944C17.1355 134.571 17.0235 134.267 16.7995 134.032C16.5862 133.797 16.3142 133.616 15.9835 133.488C15.6635 133.36 15.2155 133.221 14.6395 133.072C13.9142 132.88 13.3222 132.688 12.8635 132.496C12.4155 132.293 12.0315 131.984 11.7115 131.568C11.3915 131.152 11.2315 130.597 11.2315 129.904C11.2315 129.264 11.3915 128.704 11.7115 128.224C12.0315 127.744 12.4795 127.376 13.0555 127.12C13.6315 126.864 14.2982 126.736 15.0555 126.736C16.1328 126.736 17.0128 127.008 17.6955 127.552C18.3888 128.085 18.7728 128.821 18.8475 129.76H16.8315C16.7995 129.355 16.6075 129.008 16.2555 128.72C15.9035 128.432 15.4395 128.288 14.8635 128.288C14.3408 128.288 13.9142 128.421 13.5835 128.688C13.2528 128.955 13.0875 129.339 13.0875 129.84C13.0875 130.181 13.1888 130.464 13.3915 130.688C13.6048 130.901 13.8715 131.072 14.1915 131.2C14.5115 131.328 14.9488 131.467 15.5035 131.616C16.2395 131.819 16.8368 132.021 17.2955 132.224C17.7648 132.427 18.1595 132.741 18.4795 133.168C18.8102 133.584 18.9755 134.144 18.9755 134.848C18.9755 135.413 18.8208 135.947 18.5115 136.448C18.2128 136.949 17.7702 137.355 17.1835 137.664C16.6075 137.963 15.9248 138.112 15.1355 138.112ZM32.9677 129.184L30.2317 138H28.3117L26.5357 131.488L24.7597 138H22.8397L20.0877 129.184H21.9437L23.7837 136.272L25.6557 129.184H27.5597L29.3517 136.24L31.1757 129.184H32.9677ZM35.2589 128.016C34.9282 128.016 34.6509 127.904 34.4269 127.68C34.2029 127.456 34.0909 127.179 34.0909 126.848C34.0909 126.517 34.2029 126.24 34.4269 126.016C34.6509 125.792 34.9282 125.68 35.2589 125.68C35.5789 125.68 35.8509 125.792 36.0749 126.016C36.2989 126.24 36.4109 126.517 36.4109 126.848C36.4109 127.179 36.2989 127.456 36.0749 127.68C35.8509 127.904 35.5789 128.016 35.2589 128.016ZM36.1549 129.184V138H34.3309V129.184H36.1549ZM42.2456 130.672H40.6136V138H38.7736V130.672H37.7336V129.184H38.7736V128.56C38.7736 127.547 39.0403 126.811 39.5736 126.352C40.1176 125.883 40.9656 125.648 42.1176 125.648V127.168C41.5629 127.168 41.1736 127.275 40.9496 127.488C40.7256 127.691 40.6136 128.048 40.6136 128.56V129.184H42.2456V130.672ZM45.9901 130.672V135.552C45.9901 135.883 46.0648 136.123 46.2141 136.272C46.3741 136.411 46.6408 136.48 47.0141 136.48H48.1341V138H46.6941C45.8728 138 45.2434 137.808 44.8061 137.424C44.3688 137.04 44.1501 136.416 44.1501 135.552V130.672H43.1101V129.184H44.1501V126.992H45.9901V129.184H48.1341V130.672H45.9901ZM60.6755 135.728H56.0195L55.2195 138H53.3155L57.2995 126.864H59.4115L63.3955 138H61.4755L60.6755 135.728ZM60.1635 134.24L58.3555 129.072L56.5315 134.24H60.1635ZM66.9517 130.48C67.2611 130.075 67.6824 129.733 68.2157 129.456C68.7491 129.179 69.3517 129.04 70.0237 129.04C70.7917 129.04 71.4904 129.232 72.1197 129.616C72.7597 129.989 73.2611 130.517 73.6237 131.2C73.9864 131.883 74.1677 132.667 74.1677 133.552C74.1677 134.437 73.9864 135.232 73.6237 135.936C73.2611 136.629 72.7597 137.173 72.1197 137.568C71.4904 137.952 70.7917 138.144 70.0237 138.144C69.3517 138.144 68.7544 138.011 68.2317 137.744C67.7091 137.467 67.2824 137.125 66.9517 136.72V142.192H65.1277V129.184H66.9517V130.48ZM72.3117 133.552C72.3117 132.944 72.1837 132.421 71.9277 131.984C71.6824 131.536 71.3517 131.2 70.9357 130.976C70.5304 130.741 70.0931 130.624 69.6237 130.624C69.1651 130.624 68.7277 130.741 68.3117 130.976C67.9064 131.211 67.5757 131.552 67.3197 132C67.0744 132.448 66.9517 132.976 66.9517 133.584C66.9517 134.192 67.0744 134.725 67.3197 135.184C67.5757 135.632 67.9064 135.973 68.3117 136.208C68.7277 136.443 69.1651 136.56 69.6237 136.56C70.0931 136.56 70.5304 136.443 70.9357 136.208C71.3517 135.963 71.6824 135.611 71.9277 135.152C72.1837 134.693 72.3117 134.16 72.3117 133.552ZM77.7955 130.48C78.1048 130.075 78.5262 129.733 79.0595 129.456C79.5928 129.179 80.1955 129.04 80.8675 129.04C81.6355 129.04 82.3342 129.232 82.9635 129.616C83.6035 129.989 84.1048 130.517 84.4675 131.2C84.8302 131.883 85.0115 132.667 85.0115 133.552C85.0115 134.437 84.8302 135.232 84.4675 135.936C84.1048 136.629 83.6035 137.173 82.9635 137.568C82.3342 137.952 81.6355 138.144 80.8675 138.144C80.1955 138.144 79.5982 138.011 79.0755 137.744C78.5528 137.467 78.1262 137.125 77.7955 136.72V142.192H75.9715V129.184H77.7955V130.48ZM83.1555 133.552C83.1555 132.944 83.0275 132.421 82.7715 131.984C82.5262 131.536 82.1955 131.2 81.7795 130.976C81.3742 130.741 80.9368 130.624 80.4675 130.624C80.0088 130.624 79.5715 130.741 79.1555 130.976C78.7502 131.211 78.4195 131.552 78.1635 132C77.9182 132.448 77.7955 132.976 77.7955 133.584C77.7955 134.192 77.9182 134.725 78.1635 135.184C78.4195 135.632 78.7502 135.973 79.1555 136.208C79.5715 136.443 80.0088 136.56 80.4675 136.56C80.9368 136.56 81.3742 136.443 81.7795 136.208C82.1955 135.963 82.5262 135.611 82.7715 135.152C83.0275 134.693 83.1555 134.16 83.1555 133.552Z" fill="#040222"/>
</svg>
