<svg width="140" height="144" viewBox="0 0 140 144" fill="none" xmlns="http://www.w3.org/2000/svg">
<path d="M123.647 48.011C123.647 40.8698 114.746 34.1021 101.099 29.9052C104.248 15.9304 102.849 4.81208 96.6815 1.25246C95.2599 0.417486 93.5978 0.0219727 91.7826 0.0219727V4.92195C92.7886 4.92195 93.5978 5.11971 94.2758 5.49325C97.2501 7.20714 98.5404 13.7331 97.5344 22.1268C97.2938 24.1923 96.9002 26.3676 96.419 28.5869C92.1325 27.5322 87.4523 26.7192 82.5316 26.1918C79.5791 22.1268 76.5173 18.4353 73.4337 15.2053C80.5633 8.54749 87.2555 4.89998 91.8045 4.89998V0C85.7902 0 77.917 4.30671 69.9563 11.7775C61.9957 4.35065 54.1225 0.0878923 48.1082 0.0878923V4.98787C52.6353 4.98787 59.3494 8.61341 66.479 15.2273C63.4172 18.4573 60.3554 22.1268 57.4467 26.1918C52.5041 26.7192 47.8239 27.5322 43.5374 28.6088C43.0344 26.4115 42.6626 24.2802 42.4002 22.2367C41.3723 13.843 42.6407 7.31701 45.5932 5.58114C46.2493 5.18563 47.1022 5.00984 48.1082 5.00984V0.109865C46.2712 0.109865 44.609 0.505378 43.1656 1.34035C37.0202 4.89998 35.6423 15.9963 38.8135 29.9272C25.2104 34.146 16.353 40.8917 16.353 48.011C16.353 55.1522 25.2541 61.9199 38.901 66.1167C35.7517 80.0915 37.1514 91.2099 43.3187 94.7695C44.7403 95.6045 46.4024 96 48.2395 96C54.2537 96 62.1269 91.6933 70.0876 84.2225C78.0482 91.6493 85.9214 95.9121 91.9357 95.9121C93.7727 95.9121 95.4349 95.5166 96.8783 94.6816C103.024 91.122 104.402 80.0256 101.23 66.0947C114.79 61.8979 123.647 55.1302 123.647 48.011ZM95.1724 33.355C94.3632 36.1895 93.3572 39.1119 92.22 42.0343C91.3233 40.2765 90.3829 38.5187 89.355 36.7608C88.349 35.003 87.2774 33.2891 86.2057 31.6191C89.3113 32.0806 92.3075 32.6519 95.1724 33.355ZM85.156 56.7562C83.4501 59.7226 81.7005 62.5351 79.8853 65.1499C76.6267 65.4356 73.3243 65.5894 70.0001 65.5894C66.6977 65.5894 63.3954 65.4356 60.1586 65.1719C58.3434 62.5571 56.5719 59.7665 54.8661 56.8222C53.2039 53.9437 51.6949 51.0213 50.3171 48.0769C51.673 45.1325 53.2039 42.1881 54.8442 39.3097C56.5501 36.3433 58.2996 33.5308 60.1149 30.916C63.3735 30.6303 66.6758 30.4765 70.0001 30.4765C73.3025 30.4765 76.6048 30.6304 79.8416 30.894C81.6568 33.5088 83.4283 36.2994 85.1341 39.2438C86.7962 42.1222 88.3053 45.0446 89.6831 47.989C88.3053 50.9334 86.7962 53.8778 85.156 56.7562ZM92.22 53.8997C93.401 56.8441 94.407 59.7885 95.238 62.645C92.3731 63.3481 89.355 63.9414 86.2276 64.4028C87.2992 62.7109 88.3709 60.975 89.3769 59.1952C90.3829 57.4374 91.3233 55.6576 92.22 53.8997ZM70.0438 77.3449C68.0099 75.2355 65.976 72.8844 63.964 70.3136C65.9323 70.4015 67.9443 70.4674 69.9782 70.4674C72.034 70.4674 74.0679 70.4234 76.0581 70.3136C74.0898 72.8844 72.0559 75.2355 70.0438 77.3449ZM53.7726 64.4028C50.667 63.9414 47.6708 63.3701 44.8059 62.667C45.6151 59.8325 46.6211 56.91 47.7583 53.9876C48.655 55.7455 49.5954 57.5033 50.6233 59.2612C51.6512 61.019 52.7009 62.7329 53.7726 64.4028ZM69.9345 18.677C71.9684 20.7864 74.0023 23.1376 76.0143 25.7084C74.046 25.6205 72.034 25.5546 70.0001 25.5546C67.9443 25.5546 65.9104 25.5985 63.9202 25.7084C65.8885 23.1376 67.9224 20.7864 69.9345 18.677ZM53.7507 31.6191C52.6791 33.3111 51.6074 35.0469 50.6014 36.8267C49.5954 38.5846 48.655 40.3424 47.7583 42.1003C46.5773 39.1559 45.5713 36.2115 44.7403 33.355C47.6052 32.6738 50.6233 32.0806 53.7507 31.6191ZM33.9584 59.1293C26.2164 55.8114 21.2082 51.4607 21.2082 48.011C21.2082 44.5612 26.2164 40.1886 33.9584 36.8927C35.8392 36.0796 37.895 35.3545 40.0163 34.6734C41.2629 38.9801 42.9032 43.4626 44.9371 48.0549C42.9251 52.6253 41.3067 57.0858 40.082 61.3706C37.9168 60.6894 35.8611 59.9423 33.9584 59.1293ZM45.7244 90.5287C42.7501 88.8148 41.4598 82.2888 42.4658 73.8952C42.7064 71.8297 43.1 69.6544 43.5812 67.4351C47.8677 68.4898 52.5478 69.3028 57.4686 69.8302C60.421 73.8952 63.4828 77.5866 66.5665 80.8167C59.4369 87.4745 52.7447 91.122 48.1957 91.122C47.2116 91.1 46.3805 90.9023 45.7244 90.5287ZM97.6 73.7853C98.6279 82.179 97.3594 88.705 94.407 90.4408C93.7509 90.8363 92.8979 91.0121 91.8919 91.0121C87.3648 91.0121 80.6508 87.3866 73.5212 80.7727C76.583 77.5427 79.6447 73.8732 82.5535 69.8082C87.4961 69.2808 92.1762 68.4678 96.4628 67.3912C96.9658 69.6104 97.3594 71.7418 97.6 73.7853ZM106.02 59.1293C104.139 59.9423 102.083 60.6674 99.962 61.3486C98.7154 57.0419 97.0751 52.5594 95.0412 47.967C97.0532 43.3967 98.6716 38.9361 99.8963 34.6514C102.061 35.3326 104.117 36.0796 106.042 36.8927C113.784 40.2106 118.792 44.5612 118.792 48.011C118.77 51.4607 113.762 55.8334 106.02 59.1293Z" fill="#61DAFB"/>
<path d="M69.9765 58.0527C75.4964 58.0527 79.9711 53.5569 79.9711 48.0111C79.9711 42.4652 75.4964 37.9694 69.9765 37.9694C64.4567 37.9694 59.9819 42.4652 59.9819 48.0111C59.9819 53.5569 64.4567 58.0527 69.9765 58.0527Z" fill="#61DAFB"/>
<path d="M6.976 138L4.416 133.552H3.024V138H1.2V126.88H5.04C5.89333 126.88 6.61333 127.029 7.2 127.328C7.79733 127.627 8.24 128.027 8.528 128.528C8.82667 129.029 8.976 129.589 8.976 130.208C8.976 130.933 8.76267 131.595 8.336 132.192C7.92 132.779 7.27467 133.179 6.4 133.392L9.152 138H6.976ZM3.024 132.096H5.04C5.72267 132.096 6.23467 131.925 6.576 131.584C6.928 131.243 7.104 130.784 7.104 130.208C7.104 129.632 6.93333 129.184 6.592 128.864C6.25067 128.533 5.73333 128.368 5.04 128.368H3.024V132.096ZM19.3894 133.376C19.3894 133.707 19.368 134.005 19.3254 134.272H12.5894C12.6427 134.976 12.904 135.541 13.3734 135.968C13.8427 136.395 14.4187 136.608 15.1014 136.608C16.0827 136.608 16.776 136.197 17.1814 135.376H19.1494C18.8827 136.187 18.3974 136.853 17.6934 137.376C17 137.888 16.136 138.144 15.1014 138.144C14.2587 138.144 13.5014 137.957 12.8294 137.584C12.168 137.2 11.6454 136.667 11.2614 135.984C10.888 135.291 10.7014 134.491 10.7014 133.584C10.7014 132.677 10.8827 131.883 11.2454 131.2C11.6187 130.507 12.136 129.973 12.7974 129.6C13.4694 129.227 14.2374 129.04 15.1014 129.04C15.9334 129.04 16.6747 129.221 17.3254 129.584C17.976 129.947 18.4827 130.459 18.8454 131.12C19.208 131.771 19.3894 132.523 19.3894 133.376ZM17.4854 132.8C17.4747 132.128 17.2347 131.589 16.7654 131.184C16.296 130.779 15.7147 130.576 15.0214 130.576C14.392 130.576 13.8534 130.779 13.4054 131.184C12.9574 131.579 12.6907 132.117 12.6054 132.8H17.4854ZM20.5764 133.552C20.5764 132.667 20.7577 131.883 21.1204 131.2C21.4937 130.517 21.995 129.989 22.6244 129.616C23.2644 129.232 23.9684 129.04 24.7364 129.04C25.4297 129.04 26.0324 129.179 26.5444 129.456C27.067 129.723 27.483 130.059 27.7924 130.464V129.184H29.6324V138H27.7924V136.688C27.483 137.104 27.0617 137.451 26.5284 137.728C25.995 138.005 25.387 138.144 24.7044 138.144C23.947 138.144 23.2537 137.952 22.6244 137.568C21.995 137.173 21.4937 136.629 21.1204 135.936C20.7577 135.232 20.5764 134.437 20.5764 133.552ZM27.7924 133.584C27.7924 132.976 27.6644 132.448 27.4084 132C27.163 131.552 26.8377 131.211 26.4324 130.976C26.027 130.741 25.5897 130.624 25.1204 130.624C24.651 130.624 24.2137 130.741 23.8084 130.976C23.403 131.2 23.0724 131.536 22.8164 131.984C22.571 132.421 22.4484 132.944 22.4484 133.552C22.4484 134.16 22.571 134.693 22.8164 135.152C23.0724 135.611 23.403 135.963 23.8084 136.208C24.2244 136.443 24.6617 136.56 25.1204 136.56C25.5897 136.56 26.027 136.443 26.4324 136.208C26.8377 135.973 27.163 135.632 27.4084 135.184C27.6644 134.725 27.7924 134.192 27.7924 133.584ZM31.4201 133.584C31.4201 132.677 31.6015 131.883 31.9641 131.2C32.3375 130.507 32.8495 129.973 33.5001 129.6C34.1508 129.227 34.8975 129.04 35.7401 129.04C36.8068 129.04 37.6868 129.296 38.3801 129.808C39.0841 130.309 39.5588 131.029 39.8041 131.968H37.8361C37.6761 131.531 37.4201 131.189 37.0681 130.944C36.7161 130.699 36.2735 130.576 35.7401 130.576C34.9935 130.576 34.3961 130.843 33.9481 131.376C33.5108 131.899 33.2921 132.635 33.2921 133.584C33.2921 134.533 33.5108 135.275 33.9481 135.808C34.3961 136.341 34.9935 136.608 35.7401 136.608C36.7961 136.608 37.4948 136.144 37.8361 135.216H39.8041C39.5481 136.112 39.0681 136.827 38.3641 137.36C37.6601 137.883 36.7855 138.144 35.7401 138.144C34.8975 138.144 34.1508 137.957 33.5001 137.584C32.8495 137.2 32.3375 136.667 31.9641 135.984C31.6015 135.291 31.4201 134.491 31.4201 133.584ZM43.7499 130.672V135.552C43.7499 135.883 43.8245 136.123 43.9739 136.272C44.1339 136.411 44.4005 136.48 44.7739 136.48H45.8939V138H44.4539C43.6325 138 43.0032 137.808 42.5659 137.424C42.1285 137.04 41.9099 136.416 41.9099 135.552V130.672H40.8699V129.184H41.9099V126.992H43.7499V129.184H45.8939V130.672H43.7499ZM60.8673 138H59.0433L53.5553 129.696V138H51.7313V126.864H53.5553L59.0433 135.152V126.864H60.8673V138ZM62.6545 133.552C62.6545 132.667 62.8358 131.883 63.1985 131.2C63.5718 130.517 64.0732 129.989 64.7025 129.616C65.3425 129.232 66.0465 129.04 66.8145 129.04C67.5078 129.04 68.1105 129.179 68.6225 129.456C69.1452 129.723 69.5612 130.059 69.8705 130.464V129.184H71.7105V138H69.8705V136.688C69.5612 137.104 69.1398 137.451 68.6065 137.728C68.0732 138.005 67.4652 138.144 66.7825 138.144C66.0252 138.144 65.3318 137.952 64.7025 137.568C64.0732 137.173 63.5718 136.629 63.1985 135.936C62.8358 135.232 62.6545 134.437 62.6545 133.552ZM69.8705 133.584C69.8705 132.976 69.7425 132.448 69.4865 132C69.2412 131.552 68.9158 131.211 68.5105 130.976C68.1052 130.741 67.6678 130.624 67.1985 130.624C66.7292 130.624 66.2918 130.741 65.8865 130.976C65.4812 131.2 65.1505 131.536 64.8945 131.984C64.6492 132.421 64.5265 132.944 64.5265 133.552C64.5265 134.16 64.6492 134.693 64.8945 135.152C65.1505 135.611 65.4812 135.963 65.8865 136.208C66.3025 136.443 66.7398 136.56 67.1985 136.56C67.6678 136.56 68.1052 136.443 68.5105 136.208C68.9158 135.973 69.2412 135.632 69.4865 135.184C69.7425 134.725 69.8705 134.192 69.8705 133.584ZM76.2343 130.672V135.552C76.2343 135.883 76.3089 136.123 76.4583 136.272C76.6183 136.411 76.8849 136.48 77.2583 136.48H78.3783V138H76.9383C76.1169 138 75.4876 137.808 75.0503 137.424C74.6129 137.04 74.3943 136.416 74.3943 135.552V130.672H73.3543V129.184H74.3943V126.992H76.2343V129.184H78.3783V130.672H76.2343ZM80.9874 128.016C80.6567 128.016 80.3794 127.904 80.1554 127.68C79.9314 127.456 79.8194 127.179 79.8194 126.848C79.8194 126.517 79.9314 126.24 80.1554 126.016C80.3794 125.792 80.6567 125.68 80.9874 125.68C81.3074 125.68 81.5794 125.792 81.8034 126.016C82.0274 126.24 82.1394 126.517 82.1394 126.848C82.1394 127.179 82.0274 127.456 81.8034 127.68C81.5794 127.904 81.3074 128.016 80.9874 128.016ZM81.8834 129.184V138H80.0594V129.184H81.8834ZM87.6861 136.368L90.1821 129.184H92.1181L88.7581 138H86.5821L83.2381 129.184H85.1901L87.6861 136.368ZM101.577 133.376C101.577 133.707 101.556 134.005 101.513 134.272H94.7769C94.8302 134.976 95.0915 135.541 95.5609 135.968C96.0302 136.395 96.6062 136.608 97.2889 136.608C98.2702 136.608 98.9635 136.197 99.3689 135.376H101.337C101.07 136.187 100.585 136.853 99.8809 137.376C99.1875 137.888 98.3235 138.144 97.2889 138.144C96.4462 138.144 95.6889 137.957 95.0169 137.584C94.3555 137.2 93.8329 136.667 93.4489 135.984C93.0755 135.291 92.8889 134.491 92.8889 133.584C92.8889 132.677 93.0702 131.883 93.4329 131.2C93.8062 130.507 94.3235 129.973 94.9849 129.6C95.6569 129.227 96.4249 129.04 97.2889 129.04C98.1209 129.04 98.8622 129.221 99.5129 129.584C100.164 129.947 100.67 130.459 101.033 131.12C101.396 131.771 101.577 132.523 101.577 133.376ZM99.6729 132.8C99.6622 132.128 99.4222 131.589 98.9529 131.184C98.4835 130.779 97.9022 130.576 97.2089 130.576C96.5795 130.576 96.0409 130.779 95.5929 131.184C95.1449 131.579 94.8782 132.117 94.7929 132.8H99.6729ZM114.232 135.728H109.576L108.776 138H106.872L110.856 126.864H112.968L116.952 138H115.032L114.232 135.728ZM113.72 134.24L111.912 129.072L110.088 134.24H113.72ZM120.508 130.48C120.818 130.075 121.239 129.733 121.772 129.456C122.306 129.179 122.908 129.04 123.58 129.04C124.348 129.04 125.047 129.232 125.676 129.616C126.316 129.989 126.818 130.517 127.18 131.2C127.543 131.883 127.724 132.667 127.724 133.552C127.724 134.437 127.543 135.232 127.18 135.936C126.818 136.629 126.316 137.173 125.676 137.568C125.047 137.952 124.348 138.144 123.58 138.144C122.908 138.144 122.311 138.011 121.788 137.744C121.266 137.467 120.839 137.125 120.508 136.72V142.192H118.684V129.184H120.508V130.48ZM125.868 133.552C125.868 132.944 125.74 132.421 125.484 131.984C125.239 131.536 124.908 131.2 124.492 130.976C124.087 130.741 123.65 130.624 123.18 130.624C122.722 130.624 122.284 130.741 121.868 130.976C121.463 131.211 121.132 131.552 120.876 132C120.631 132.448 120.508 132.976 120.508 133.584C120.508 134.192 120.631 134.725 120.876 135.184C121.132 135.632 121.463 135.973 121.868 136.208C122.284 136.443 122.722 136.56 123.18 136.56C123.65 136.56 124.087 136.443 124.492 136.208C124.908 135.963 125.239 135.611 125.484 135.152C125.74 134.693 125.868 134.16 125.868 133.552ZM131.352 130.48C131.661 130.075 132.083 129.733 132.616 129.456C133.149 129.179 133.752 129.04 134.424 129.04C135.192 129.04 135.891 129.232 136.52 129.616C137.16 129.989 137.661 130.517 138.024 131.2C138.387 131.883 138.568 132.667 138.568 133.552C138.568 134.437 138.387 135.232 138.024 135.936C137.661 136.629 137.16 137.173 136.52 137.568C135.891 137.952 135.192 138.144 134.424 138.144C133.752 138.144 133.155 138.011 132.632 137.744C132.109 137.467 131.683 137.125 131.352 136.72V142.192H129.528V129.184H131.352V130.48ZM136.712 133.552C136.712 132.944 136.584 132.421 136.328 131.984C136.083 131.536 135.752 131.2 135.336 130.976C134.931 130.741 134.493 130.624 134.024 130.624C133.565 130.624 133.128 130.741 132.712 130.976C132.307 131.211 131.976 131.552 131.72 132C131.475 132.448 131.352 132.976 131.352 133.584C131.352 134.192 131.475 134.725 131.72 135.184C131.976 135.632 132.307 135.973 132.712 136.208C133.128 136.443 133.565 136.56 134.024 136.56C134.493 136.56 134.931 136.443 135.336 136.208C135.752 135.963 136.083 135.611 136.328 135.152C136.584 134.693 136.712 134.16 136.712 133.552Z" fill="#040222"/>
</svg>
