<svg width="96" height="144" viewBox="0 0 96 144" fill="none" xmlns="http://www.w3.org/2000/svg">
<circle cx="48" cy="48" r="48" fill="#3B9BD0"/>
<path d="M36.0875 17.202H17.2793L22.2948 79.8959L47.9993 87.4191L73.7038 79.8959L78.7193 17.202H59.9111L47.3724 13.4403L36.0875 17.202Z" fill="white"/>
<path d="M41.9065 42.7314V56.1867C41.9065 56.8012 42.0908 57.3234 42.4595 57.7535C42.8281 58.1836 43.3043 58.46 43.888 58.5829L45.5008 58.9055V59.3202H32.7827V58.9055L34.3955 58.5829C34.9792 58.46 35.4553 58.1836 35.824 57.7535C36.1926 57.3234 36.3769 56.8012 36.3769 56.1867V30.1976C36.3769 29.5832 36.1926 29.061 35.824 28.6309C35.4553 28.2008 34.9792 27.9243 34.3955 27.8015L32.7827 27.4789V27.0642H45.5008V27.4789L43.888 27.8015C43.3043 27.9243 42.8281 28.2008 42.4595 28.6309C42.0908 29.061 41.9065 29.5832 41.9065 30.1976V41.8098H53.7491V30.1976C53.7491 29.5832 53.5648 29.061 53.1961 28.6309C52.8275 28.2008 52.3513 27.9243 51.7676 27.8015L50.1548 27.4789V27.0642H62.8729V27.4789L61.2601 27.8015C60.6764 27.9243 60.2003 28.2008 59.8316 28.6309C59.463 29.061 59.2787 29.5832 59.2787 30.1976V56.1867C59.2787 56.8012 59.463 57.3234 59.8316 57.7535C60.2003 58.1836 60.6764 58.46 61.2601 58.5829L62.8729 58.9055V59.3202H50.1548V58.9055L51.7676 58.5829C52.3513 58.46 52.8275 58.1836 53.1961 57.7535C53.5648 57.3234 53.7491 56.8012 53.7491 56.1867V42.7314H41.9065Z" fill="black"/>
<path d="M33.1889 66.0458C33.6728 66.0458 34.1028 66.1534 34.4792 66.3684C34.8555 66.5758 35.1473 66.8868 35.3547 67.3015C35.5697 67.7086 35.6772 68.2001 35.6772 68.7761V72.5201H34.0644V68.995C34.0644 68.4881 33.9377 68.1002 33.6843 67.8314C33.4308 67.555 33.0852 67.4167 32.6475 67.4167C32.202 67.4167 31.8488 67.555 31.5876 67.8314C31.3342 68.1002 31.2075 68.4881 31.2075 68.995V72.5201H29.5947V63.9953H31.2075V66.9329C31.4148 66.6564 31.6913 66.4414 32.0369 66.2878C32.3825 66.1265 32.7665 66.0458 33.1889 66.0458ZM43.3165 66.138L39.3652 75.5383H37.6487L39.0311 72.3588L36.4737 66.138H38.2823L39.9297 70.5962L41.6001 66.138H43.3165ZM45.7987 67.0711C46.0061 66.7639 46.2903 66.5143 46.6512 66.3223C47.0199 66.1303 47.4384 66.0343 47.9069 66.0343C48.4522 66.0343 48.9437 66.1687 49.3815 66.4375C49.8269 66.7063 50.1763 67.0903 50.4298 67.5895C50.6909 68.081 50.8215 68.6532 50.8215 69.306C50.8215 69.9588 50.6909 70.5386 50.4298 71.0455C50.1763 71.5447 49.8269 71.9326 49.3815 72.209C48.9437 72.4855 48.4522 72.6238 47.9069 72.6238C47.4307 72.6238 47.0122 72.5316 46.6512 72.3473C46.2979 72.1553 46.0138 71.9095 45.7987 71.61V72.5201H44.1859V63.9953H45.7987V67.0711ZM49.1741 69.306C49.1741 68.922 49.0935 68.5918 48.9322 68.3153C48.7786 68.0311 48.5712 67.8161 48.3101 67.6702C48.0567 67.5242 47.7802 67.4513 47.4807 67.4513C47.1888 67.4513 46.9123 67.5281 46.6512 67.6817C46.3978 67.8276 46.1904 68.0426 46.0291 68.3268C45.8755 68.611 45.7987 68.945 45.7987 69.329C45.7987 69.713 45.8755 70.0471 46.0291 70.3313C46.1904 70.6154 46.3978 70.8343 46.6512 70.9879C46.9123 71.1338 47.1888 71.2068 47.4807 71.2068C47.7802 71.2068 48.0567 71.13 48.3101 70.9764C48.5712 70.8228 48.7786 70.6039 48.9322 70.3198C49.0935 70.0356 49.1741 69.6977 49.1741 69.306ZM53.6062 67.1287C53.8136 66.7908 54.0824 66.5258 54.4126 66.3338C54.7506 66.1418 55.1346 66.0458 55.5646 66.0458V67.7393H55.1384C54.6315 67.7393 54.2475 67.8583 53.9864 68.0964C53.733 68.3345 53.6062 68.7492 53.6062 69.3406V72.5201H51.9934V66.138H53.6062V67.1287ZM57.4689 65.3777C57.1847 65.3777 56.9466 65.2894 56.7546 65.1127C56.5703 64.9284 56.4781 64.7018 56.4781 64.433C56.4781 64.1642 56.5703 63.9415 56.7546 63.7649C56.9466 63.5806 57.1847 63.4884 57.4689 63.4884C57.753 63.4884 57.9873 63.5806 58.1716 63.7649C58.3636 63.9415 58.4596 64.1642 58.4596 64.433C58.4596 64.7018 58.3636 64.9284 58.1716 65.1127C57.9873 65.2894 57.753 65.3777 57.4689 65.3777ZM58.2637 66.138V72.5201H56.6509V66.138H58.2637ZM59.4425 69.306C59.4425 68.6609 59.5692 68.0887 59.8226 67.5895C60.0837 67.0903 60.437 66.7063 60.8825 66.4375C61.3279 66.1687 61.8233 66.0343 62.3685 66.0343C62.7833 66.0343 63.1788 66.1265 63.5551 66.3108C63.9314 66.4874 64.231 66.7255 64.4537 67.025V63.9953H66.0895V72.5201H64.4537V71.5754C64.254 71.8903 63.9737 72.1438 63.6127 72.3358C63.2517 72.5278 62.8332 72.6238 62.357 72.6238C61.8194 72.6238 61.3279 72.4855 60.8825 72.209C60.437 71.9326 60.0837 71.5447 59.8226 71.0455C59.5692 70.5386 59.4425 69.9588 59.4425 69.306ZM64.4652 69.329C64.4652 68.9374 64.3884 68.6033 64.2348 68.3268C64.0812 68.0426 63.8738 67.8276 63.6127 67.6817C63.3516 67.5281 63.0713 67.4513 62.7718 67.4513C62.4722 67.4513 62.1957 67.5242 61.9423 67.6702C61.6889 67.8161 61.4815 68.0311 61.3202 68.3153C61.1666 68.5918 61.0898 68.922 61.0898 69.306C61.0898 69.69 61.1666 70.0279 61.3202 70.3198C61.4815 70.6039 61.6889 70.8228 61.9423 70.9764C62.2034 71.13 62.4799 71.2068 62.7718 71.2068C63.0713 71.2068 63.3516 71.1338 63.6127 70.9879C63.8738 70.8343 64.0812 70.6193 64.2348 70.3428C64.3884 70.0586 64.4652 69.7207 64.4652 69.329Z" fill="black"/>
<path d="M13.08 126.88V138H11.256V133.136H6.024V138H4.2V126.88H6.024V131.648H11.256V126.88H13.08ZM23.4173 129.184L18.0093 142.144H16.1213L17.9133 137.856L14.4413 129.184H16.4733L18.9533 135.904L21.5293 129.184H23.4173ZM26.6178 130.496C26.9271 130.069 27.3484 129.723 27.8818 129.456C28.4258 129.179 29.0284 129.04 29.6898 129.04C30.4684 129.04 31.1724 129.227 31.8018 129.6C32.4311 129.973 32.9271 130.507 33.2898 131.2C33.6524 131.883 33.8338 132.667 33.8338 133.552C33.8338 134.437 33.6524 135.232 33.2898 135.936C32.9271 136.629 32.4258 137.173 31.7858 137.568C31.1564 137.952 30.4578 138.144 29.6898 138.144C29.0071 138.144 28.3991 138.011 27.8658 137.744C27.3431 137.477 26.9271 137.136 26.6178 136.72V138H24.7938V126.16H26.6178V130.496ZM31.9778 133.552C31.9778 132.944 31.8498 132.421 31.5938 131.984C31.3484 131.536 31.0178 131.2 30.6018 130.976C30.1964 130.741 29.7591 130.624 29.2898 130.624C28.8311 130.624 28.3938 130.741 27.9778 130.976C27.5724 131.211 27.2418 131.552 26.9858 132C26.7404 132.448 26.6178 132.976 26.6178 133.584C26.6178 134.192 26.7404 134.725 26.9858 135.184C27.2418 135.632 27.5724 135.973 27.9778 136.208C28.3938 136.443 28.8311 136.56 29.2898 136.56C29.7591 136.56 30.1964 136.443 30.6018 136.208C31.0178 135.963 31.3484 135.611 31.5938 135.152C31.8498 134.693 31.9778 134.16 31.9778 133.552ZM37.4615 130.464C37.7282 130.016 38.0802 129.669 38.5175 129.424C38.9655 129.168 39.4935 129.04 40.1015 129.04V130.928H39.6375C38.9228 130.928 38.3788 131.109 38.0055 131.472C37.6428 131.835 37.4615 132.464 37.4615 133.36V138H35.6375V129.184H37.4615V130.464ZM42.7061 128.016C42.3755 128.016 42.0981 127.904 41.8741 127.68C41.6501 127.456 41.5381 127.179 41.5381 126.848C41.5381 126.517 41.6501 126.24 41.8741 126.016C42.0981 125.792 42.3755 125.68 42.7061 125.68C43.0261 125.68 43.2981 125.792 43.5221 126.016C43.7461 126.24 43.8581 126.517 43.8581 126.848C43.8581 127.179 43.7461 127.456 43.5221 127.68C43.2981 127.904 43.0261 128.016 42.7061 128.016ZM43.6021 129.184V138H41.7781V129.184H43.6021ZM45.3889 133.552C45.3889 132.667 45.5702 131.883 45.9329 131.2C46.3062 130.517 46.8075 129.989 47.4369 129.616C48.0769 129.232 48.7862 129.04 49.5649 129.04C50.1409 129.04 50.7062 129.168 51.2609 129.424C51.8262 129.669 52.2742 130 52.6049 130.416V126.16H54.4449V138H52.6049V136.672C52.3062 137.099 51.8902 137.451 51.3569 137.728C50.8342 138.005 50.2315 138.144 49.5489 138.144C48.7809 138.144 48.0769 137.952 47.4369 137.568C46.8075 137.173 46.3062 136.629 45.9329 135.936C45.5702 135.232 45.3889 134.437 45.3889 133.552ZM52.6049 133.584C52.6049 132.976 52.4769 132.448 52.2209 132C51.9755 131.552 51.6502 131.211 51.2449 130.976C50.8395 130.741 50.4022 130.624 49.9329 130.624C49.4635 130.624 49.0262 130.741 48.6209 130.976C48.2155 131.2 47.8849 131.536 47.6289 131.984C47.3835 132.421 47.2609 132.944 47.2609 133.552C47.2609 134.16 47.3835 134.693 47.6289 135.152C47.8849 135.611 48.2155 135.963 48.6209 136.208C49.0369 136.443 49.4742 136.56 49.9329 136.56C50.4022 136.56 50.8395 136.443 51.2449 136.208C51.6502 135.973 51.9755 135.632 52.2209 135.184C52.4769 134.725 52.6049 134.192 52.6049 133.584ZM67.7009 135.728H63.0449L62.2449 138H60.3409L64.3249 126.864H66.4369L70.4209 138H68.5009L67.7009 135.728ZM67.1889 134.24L65.3809 129.072L63.5569 134.24H67.1889ZM73.9771 130.48C74.2865 130.075 74.7078 129.733 75.2411 129.456C75.7745 129.179 76.3771 129.04 77.0491 129.04C77.8171 129.04 78.5158 129.232 79.1451 129.616C79.7851 129.989 80.2865 130.517 80.6491 131.2C81.0118 131.883 81.1931 132.667 81.1931 133.552C81.1931 134.437 81.0118 135.232 80.6491 135.936C80.2865 136.629 79.7851 137.173 79.1451 137.568C78.5158 137.952 77.8171 138.144 77.0491 138.144C76.3771 138.144 75.7798 138.011 75.2571 137.744C74.7345 137.467 74.3078 137.125 73.9771 136.72V142.192H72.1531V129.184H73.9771V130.48ZM79.3371 133.552C79.3371 132.944 79.2091 132.421 78.9531 131.984C78.7078 131.536 78.3771 131.2 77.9611 130.976C77.5558 130.741 77.1185 130.624 76.6491 130.624C76.1905 130.624 75.7531 130.741 75.3371 130.976C74.9318 131.211 74.6011 131.552 74.3451 132C74.0998 132.448 73.9771 132.976 73.9771 133.584C73.9771 134.192 74.0998 134.725 74.3451 135.184C74.6011 135.632 74.9318 135.973 75.3371 136.208C75.7531 136.443 76.1905 136.56 76.6491 136.56C77.1185 136.56 77.5558 136.443 77.9611 136.208C78.3771 135.963 78.7078 135.611 78.9531 135.152C79.2091 134.693 79.3371 134.16 79.3371 133.552ZM84.8209 130.48C85.1302 130.075 85.5515 129.733 86.0849 129.456C86.6182 129.179 87.2209 129.04 87.8929 129.04C88.6609 129.04 89.3595 129.232 89.9889 129.616C90.6289 129.989 91.1302 130.517 91.4929 131.2C91.8555 131.883 92.0369 132.667 92.0369 133.552C92.0369 134.437 91.8555 135.232 91.4929 135.936C91.1302 136.629 90.6289 137.173 89.9889 137.568C89.3595 137.952 88.6609 138.144 87.8929 138.144C87.2209 138.144 86.6235 138.011 86.1009 137.744C85.5782 137.467 85.1515 137.125 84.8209 136.72V142.192H82.9969V129.184H84.8209V130.48ZM90.1809 133.552C90.1809 132.944 90.0529 132.421 89.7969 131.984C89.5515 131.536 89.2209 131.2 88.8049 130.976C88.3995 130.741 87.9622 130.624 87.4929 130.624C87.0342 130.624 86.5969 130.741 86.1809 130.976C85.7755 131.211 85.4449 131.552 85.1889 132C84.9435 132.448 84.8209 132.976 84.8209 133.584C84.8209 134.192 84.9435 134.725 85.1889 135.184C85.4449 135.632 85.7755 135.973 86.1809 136.208C86.5969 136.443 87.0342 136.56 87.4929 136.56C87.9622 136.56 88.3995 136.443 88.8049 136.208C89.2209 135.963 89.5515 135.611 89.7969 135.152C90.0529 134.693 90.1809 134.16 90.1809 133.552Z" fill="#040222"/>
</svg>
