<svg width="46" height="46" viewBox="0 0 46 46" fill="none" xmlns="http://www.w3.org/2000/svg">
<path d="M22.8214 44.0441C20.0678 44.0441 17.5559 41.7381 15.7484 37.5512C14.0629 33.647 13.1348 28.4792 13.1348 22.9999C13.1348 17.5206 14.0629 12.3529 15.7484 8.44861C17.556 4.26162 20.0678 1.95569 22.8214 1.95569C25.5751 1.95569 28.087 4.26162 29.8945 8.44861C31.58 12.3528 32.5082 17.5206 32.5082 22.9999C32.5082 28.4792 31.58 33.6469 29.8945 37.5512C28.087 41.7382 25.5751 44.0441 22.8214 44.0441ZM22.8214 4.07447C20.993 4.07447 19.1239 5.97494 17.6934 9.28847C16.1199 12.9335 15.2533 17.803 15.2533 23C15.2533 28.197 16.1199 33.0665 17.6934 36.7115C19.1239 40.025 20.9929 41.9255 22.8214 41.9255C24.6499 41.9255 26.519 40.025 27.9495 36.7115C29.5231 33.0664 30.3896 28.197 30.3896 23C30.3896 17.803 29.523 12.9334 27.9495 9.28847C26.519 5.97485 24.6499 4.07447 22.8214 4.07447Z" fill="white"/>
<path d="M23.6146 4.19243C25.1805 4.65306 26.7256 6.45317 27.9495 9.28837C28.641 10.8901 29.1959 12.7283 29.6008 14.7269C29.7012 15.2226 30.1334 15.5813 30.6393 15.5813C31.306 15.5813 31.8099 14.9714 31.6778 14.318C31.2429 12.1678 30.6436 10.1835 29.8946 8.44869C28.3907 4.96491 26.399 2.78386 24.1862 2.14948C23.5144 1.95685 22.8477 2.47489 22.8477 3.17378C22.8477 3.64654 23.161 4.0591 23.6146 4.19243Z" fill="#E8D6FF"/>
<path d="M22.7743 42.8183C22.7743 42.3488 22.4647 41.9377 22.0148 41.8033C20.4533 41.3366 18.9134 39.5389 17.6927 36.7116C16.2476 33.3639 15.3992 28.9831 15.2705 24.2645C15.2547 23.6891 14.7875 23.2291 14.2118 23.2291C13.614 23.2291 13.1364 23.7236 13.1528 24.3211C13.2895 29.3058 14.1984 33.9624 15.7476 37.5512C17.2468 41.0238 19.2304 43.2017 21.4346 43.8439C22.1059 44.0395 22.7742 43.5215 22.7742 42.8224L22.7743 42.8183Z" fill="#E8D6FF"/>
<path d="M34.1082 36.5369C33.4072 36.5369 32.6656 36.492 31.886 36.4011C27.6621 35.9086 22.7225 34.1286 17.9773 31.3889C13.2322 28.6493 9.22082 25.2616 6.68246 21.8498C3.9602 18.1909 3.21916 14.8625 4.59602 12.4779C5.97278 10.0932 9.22567 9.07041 13.7555 9.59896C17.9794 10.0914 22.9188 11.8714 27.6641 14.6111C32.4093 17.3508 36.4207 20.7384 38.959 24.1502C41.6813 27.8091 42.4223 31.1375 41.0454 33.5222C39.9057 35.4962 37.4797 36.5369 34.1082 36.5369ZM11.5291 11.5814C8.98039 11.5814 7.16645 12.263 6.43081 13.5372C5.51656 15.1207 6.22785 17.6896 8.38221 20.5851C10.7521 23.7704 14.536 26.9557 19.0367 29.5542C23.5374 32.1527 28.1878 33.8369 32.1313 34.2967C35.7164 34.7147 38.2966 34.0463 39.2107 32.4628C40.125 30.8794 39.4137 28.3104 37.2593 25.4148C34.8894 22.2296 31.1056 19.0442 26.6049 16.4458C22.1041 13.8472 17.4537 12.163 13.5102 11.7032C12.8101 11.6216 12.1477 11.5814 11.5291 11.5814Z" fill="white"/>
<path d="M5.64466 13.0828C6.05606 13.3204 6.57293 13.2535 6.91469 12.9235C7.82418 12.0454 9.427 11.5814 11.5299 11.5814C12.1485 11.5814 12.8109 11.6215 13.511 11.7032C16.1328 12.0088 19.0671 12.8567 22.0621 14.1537C22.2055 13.8012 22.5034 13.5184 22.9566 13.4562C23.03 13.3089 23.1321 13.177 23.2638 13.073V12.368C19.9529 10.8998 16.6829 9.94011 13.7564 9.59888C9.96983 9.15712 7.07552 9.79923 5.42347 11.4148C4.92529 11.9021 5.04118 12.7344 5.64466 13.0828Z" fill="#E8D6FF"/>
<path d="M11.5333 36.5369C8.16138 36.5369 5.73587 35.4964 4.59602 33.522C3.21916 31.1373 3.9602 27.809 6.68246 24.15C9.22091 20.7383 13.2322 17.3506 17.9773 14.6109C22.7225 11.8713 27.6621 10.0913 31.886 9.59878C36.4155 9.07058 39.6687 10.093 41.0454 12.4777C42.4222 14.8625 41.6813 18.1908 38.959 21.8496C36.4206 25.2613 32.4093 28.6491 27.6641 31.3888C22.9189 34.1285 17.9794 35.9084 13.7555 36.4009C12.9761 36.492 12.234 36.5369 11.5333 36.5369ZM34.1124 11.5814C33.4936 11.5814 32.8316 11.6215 32.1312 11.7032C28.1878 12.163 23.5373 13.8472 19.0366 16.4458C14.5359 19.0442 10.752 22.2295 8.38212 25.4148C6.22776 28.3104 5.51647 30.8793 6.43072 32.4628C7.34497 34.0462 9.92546 34.7147 13.5101 34.2967C17.4536 33.8369 22.104 32.1527 26.6048 29.5541C31.1055 26.9557 34.8894 23.7704 37.2593 20.5851C39.4136 17.6896 40.1249 15.1207 39.2107 13.5372C38.475 12.2631 36.6607 11.5814 34.1124 11.5814Z" fill="white"/>
<path d="M27.0935 23C27.0935 20.635 25.1746 18.7266 22.8202 18.7266C20.4601 18.7266 18.5469 20.6398 18.5469 23C18.5469 25.3601 20.4601 27.2733 22.8202 27.2733C23.7102 27.2733 24.5569 26.9946 25.2277 26.5305L25.2277 26.5304C26.3538 25.7609 27.0935 24.467 27.0935 23Z" fill="#FFC305"/>
<path d="M17.2606 11.107C19.2556 11.107 20.8728 9.48974 20.8728 7.4948C20.8728 5.49985 19.2556 3.88263 17.2606 3.88263C15.2657 3.88263 13.6484 5.49985 13.6484 7.4948C13.6484 9.48974 15.2657 11.107 17.2606 11.107Z" fill="#05ACFF"/>
<path d="M17.2611 9.30086C18.2586 9.30086 19.0672 8.49227 19.0672 7.49482C19.0672 6.49737 18.2586 5.68878 17.2611 5.68878C16.2637 5.68878 15.4551 6.49737 15.4551 7.49482C15.4551 8.49227 16.2637 9.30086 17.2611 9.30086Z" fill="#05CDFF"/>
<path d="M15.9638 39.0208C18.1131 39.0208 19.8554 37.2785 19.8554 35.1293C19.8554 32.98 18.1131 31.2377 15.9638 31.2377C13.8146 31.2377 12.0723 32.98 12.0723 35.1293C12.0723 37.2785 13.8146 39.0208 15.9638 39.0208Z" fill="#00BEC2"/>
<path d="M15.9623 37.3063C17.1646 37.3063 18.1393 36.3316 18.1393 35.1292C18.1393 33.9269 17.1646 32.9521 15.9623 32.9521C14.7599 32.9521 13.7852 33.9269 13.7852 35.1292C13.7852 36.3316 14.7599 37.3063 15.9623 37.3063Z" fill="#5FD2D0"/>
<path d="M39.1212 22.7327C40.7544 22.7327 42.0783 21.4088 42.0783 19.7756C42.0783 18.1424 40.7544 16.8185 39.1212 16.8185C37.488 16.8185 36.1641 18.1424 36.1641 19.7756C36.1641 21.4088 37.488 22.7327 39.1212 22.7327Z" fill="#FFC305"/>
<path d="M8.53064 25.6012C10.1149 25.6012 11.3992 24.3169 11.3992 22.7327C11.3992 21.1484 10.1149 19.8641 8.53064 19.8641C6.94639 19.8641 5.66211 21.1484 5.66211 22.7327C5.66211 24.3169 6.94639 25.6012 8.53064 25.6012Z" fill="#CD2846"/>
<path d="M33.3165 38.2621C34.8893 38.2621 36.1643 36.9871 36.1643 35.4143C36.1643 33.8415 34.8893 32.5665 33.3165 32.5665C31.7437 32.5665 30.4688 33.8415 30.4688 35.4143C30.4688 36.9871 31.7437 38.2621 33.3165 38.2621Z" fill="#05ACFF"/>
<path d="M33.317 37.0789C34.2363 37.0789 34.9816 36.3337 34.9816 35.4143C34.9816 34.495 34.2363 33.7497 33.317 33.7497C32.3976 33.7497 31.6523 34.495 31.6523 35.4143C31.6523 36.3337 32.3976 37.0789 33.317 37.0789Z" fill="#05CDFF"/>
<path d="M32.4078 25.5573C30.6803 26.9788 28.7217 28.3315 26.6039 29.5542C24.3778 30.8395 22.1156 31.8987 19.9199 32.6989C20.0015 32.6789 20.0862 32.6671 20.174 32.6671C20.7622 32.6671 21.2391 33.1439 21.2391 33.7322C21.2391 34.1569 20.99 34.5224 20.6304 34.6934C22.9496 33.8496 25.3297 32.7362 27.6633 31.3889C29.8752 30.1118 31.9277 28.6939 33.7459 27.1984C33.9919 26.9961 34.136 26.6957 34.136 26.3772C34.1359 25.4845 33.0973 24.99 32.4078 25.5573Z" fill="#E8D6FF"/>
<path d="M8.53195 24.3564C9.42872 24.3564 10.1557 23.6295 10.1557 22.7327C10.1557 21.8359 9.42872 21.1089 8.53195 21.1089C7.63518 21.1089 6.9082 21.8359 6.9082 22.7327C6.9082 23.6295 7.63518 24.3564 8.53195 24.3564Z" fill="#F5415F"/>
<path d="M22.8463 25.5454C24.2522 25.5454 25.3919 24.4058 25.3919 22.9999C25.3919 21.594 24.2522 20.4543 22.8463 20.4543C21.4405 20.4543 20.3008 21.594 20.3008 22.9999C20.3008 24.4058 21.4405 25.5454 22.8463 25.5454Z" fill="#FFDC64"/>
<path d="M39.1211 21.3426C39.9377 21.3426 40.5997 20.6806 40.5997 19.8641C40.5997 19.0475 39.9377 18.3855 39.1211 18.3855C38.3046 18.3855 37.6426 19.0475 37.6426 19.8641C37.6426 20.6806 38.3046 21.3426 39.1211 21.3426Z" fill="#FFDC64"/>
</svg>
