<svg width="46" height="46" viewBox="0 0 46 46" fill="none" xmlns="http://www.w3.org/2000/svg">
<g clip-path="url(#clip0_748_1618)">
<g filter="url(#filter0_d_748_1618)">
<path fill-rule="evenodd" clip-rule="evenodd" d="M3.66889 7.61955C3.98928 7.80507 4.09862 8.2153 3.91309 8.53577C3.72747 8.85616 3.31734 8.9655 2.99686 8.77997L1.54939 7.94424C1.22901 7.75862 1.11967 7.34849 1.3052 7.02801C1.49081 6.70763 1.90104 6.59829 2.22142 6.78391L3.66889 7.61955ZM13.2744 2.84803C13.2744 3.21918 12.9735 3.52006 12.6023 3.52006C12.2312 3.52006 11.9303 3.21918 11.9303 2.84803V1.17667C11.9303 0.805525 12.2312 0.504639 12.6023 0.504639C12.9735 0.504639 13.2744 0.805525 13.2744 1.17667V2.84803ZM18.5342 4.61544C18.3501 4.93582 17.941 5.04633 17.6206 4.86215C17.3003 4.67806 17.1897 4.269 17.3738 3.94862L18.2096 2.50115C18.3937 2.18076 18.8027 2.07026 19.1231 2.25435C19.4435 2.43844 19.554 2.84749 19.3699 3.16788L18.5342 4.61544ZM22.2051 8.77997C21.8847 8.96406 21.4757 8.85355 21.2915 8.53317C21.1074 8.21278 21.2178 7.80373 21.5383 7.61964L22.9857 6.78391C23.3061 6.59982 23.7152 6.71033 23.8994 7.03071C24.0835 7.35109 23.973 7.76015 23.6526 7.94433L22.2051 8.77997ZM7.83082 3.94862C8.01491 4.269 7.90449 4.67806 7.58401 4.86215C7.26363 5.04633 6.85457 4.93573 6.67039 4.61544L5.83476 3.16797C5.65067 2.84758 5.76118 2.43853 6.08156 2.25444C6.40194 2.07035 6.811 2.18085 6.99518 2.50124L7.83082 3.94862Z" fill="#FFE177"/>
<path fill-rule="evenodd" clip-rule="evenodd" d="M10.6094 27.147H14.6761V29.2152C14.6761 29.8934 14.1211 30.4483 13.443 30.4483H11.8426C11.1644 30.4483 10.6095 29.8934 10.6095 29.2152V27.147H10.6094Z" fill="#B1B1B5"/>
<path fill-rule="evenodd" clip-rule="evenodd" d="M9.3457 24.1689H15.9417V26.7488C15.9417 27.4271 15.3868 27.9819 14.7087 27.9819H10.579C9.90058 27.9819 9.34579 27.4271 9.34579 26.7488L9.3457 24.1689Z" fill="#D1D1D6"/>
<path fill-rule="evenodd" clip-rule="evenodd" d="M14.5045 25.5156V26.7488C14.5045 26.888 14.4811 27.0219 14.4382 27.147C14.2716 27.6314 13.8105 27.9819 13.2715 27.9819H14.6764H14.7079C15.386 27.9819 15.9409 27.4271 15.9409 26.7488V25.5149C15.9273 25.5153 15.9136 25.5155 15.8999 25.5155H14.5045V25.5156Z" fill="#B1B1B5"/>
<path fill-rule="evenodd" clip-rule="evenodd" d="M8.0704 21.8176H17.1327V24.2825C17.1327 24.9608 16.5778 25.5156 15.8996 25.5156H9.30342C8.62528 25.5156 8.07031 24.9607 8.07031 24.2825L8.0704 21.8176Z" fill="#ECEFF1"/>
<path fill-rule="evenodd" clip-rule="evenodd" d="M15.6979 23.0491V24.1689V24.2824C15.6979 24.9607 15.143 25.5155 14.4648 25.5155H15.9013C15.915 25.5155 15.9288 25.5153 15.9423 25.5149C16.6017 25.4931 17.1343 24.9469 17.1343 24.2824V23.0491H15.6979Z" fill="#D1D1D6"/>
<path fill-rule="evenodd" clip-rule="evenodd" d="M12.6023 5.2854C16.7934 5.2854 20.191 8.68293 20.191 12.8741C20.191 17.0887 17.4986 16.8368 17.1335 23.0491H8.07115C7.70602 16.8368 5.01367 17.0886 5.01367 12.8741C5.01367 8.68302 8.4112 5.2854 12.6023 5.2854Z" fill="#FFDC64"/>
<path fill-rule="evenodd" clip-rule="evenodd" d="M11.8848 5.31903C15.739 5.68083 18.7552 8.92527 18.7552 12.8741C18.7552 16.7888 16.4323 16.85 15.8092 21.8176C15.7615 22.198 15.7238 22.6072 15.6978 23.0492H17.1342C17.4994 16.8369 20.1917 17.0887 20.1917 12.8742C20.1917 8.68305 16.7942 5.28552 12.6031 5.28552C12.3608 5.28552 12.1212 5.29684 11.8848 5.31903Z" fill="#FFD064"/>
<path fill-rule="evenodd" clip-rule="evenodd" d="M10.7164 23.0491V15.2679H9.52746C8.24161 15.2679 7.18945 14.2158 7.18945 12.9299C7.18945 11.6439 8.24152 10.5919 9.52746 10.5919C10.171 10.5919 10.7557 10.8547 11.1791 11.2782C11.6026 11.7016 11.8655 12.2863 11.8655 12.9299V14.1188H13.3373V12.9299C13.3373 11.644 14.3894 10.5919 15.6753 10.5919C16.3188 10.5919 16.9035 10.8547 17.327 11.2782C17.7504 11.7016 18.0133 12.2863 18.0133 12.9299C18.0133 13.5734 17.7504 14.158 17.327 14.5815C16.9035 15.0049 16.3188 15.2678 15.6753 15.2678H14.4864V23.0491H13.3373V15.2678H11.8655V23.0491H10.7164V23.0491ZM10.7164 14.1189V12.93C10.7164 12.6036 10.5824 12.3065 10.3667 12.0907C10.151 11.875 9.85377 11.741 9.52746 11.741C8.87357 11.741 8.33855 12.2761 8.33855 12.93C8.33855 13.5838 8.87357 14.1189 9.52746 14.1189H10.7164ZM14.4864 14.1189H15.6753C16.0016 14.1189 16.2987 13.9849 16.5145 13.7692C16.7303 13.5535 16.8642 13.2563 16.8642 12.93C16.8642 12.6036 16.7302 12.3065 16.5145 12.0907C16.2987 11.875 16.0016 11.741 15.6753 11.741C15.0214 11.741 14.4864 12.2761 14.4864 12.93V14.1189Z" fill="#FFC338"/>
</g>
<path fill-rule="evenodd" clip-rule="evenodd" d="M36.2204 27.6044C36.9316 27.7862 37.6028 28.0678 38.2185 28.433L40.7197 26.6221L42.721 28.6235L40.9102 31.1247C41.2753 31.7404 41.5567 32.4117 41.7386 33.1228L44.7868 33.6107V36.4411L41.7387 36.9289C41.5568 37.6401 41.2753 38.3114 40.9101 38.9271L42.721 41.4282L40.7196 43.4296L38.2184 41.6187C37.6026 41.9839 36.9314 42.2652 36.2203 42.4471L35.7324 45.4953H32.902L32.4141 42.4473C31.7029 42.2655 31.0317 41.9839 30.416 41.6187L27.9148 43.4296L25.9134 41.4282L27.7243 38.9271C27.3591 38.3114 27.0777 37.64 26.8959 36.9289L23.8477 36.441V33.6106L26.896 33.1227C27.0778 32.4116 27.3592 31.7404 27.7244 31.1246L25.9135 28.6234L27.9149 26.6221L30.416 28.4329C31.0317 28.0676 31.7031 27.7862 32.4142 27.6043L32.9021 24.5563H35.7325L36.2204 27.6044Z" fill="#837683"/>
<path fill-rule="evenodd" clip-rule="evenodd" d="M40.8228 36.9289C40.6409 37.6401 40.3594 38.3114 39.9941 38.9271L41.805 41.4282L40.1885 43.0448L40.7199 43.4296L42.7213 41.4282L40.9104 38.9271C41.2756 38.3114 41.5572 37.6401 41.739 36.9289L44.7871 36.441V33.6107L41.7389 33.1227C41.557 32.4117 41.2756 31.7404 40.9105 31.1246L42.7213 28.6234L40.72 26.6221L40.1886 27.0069L41.8051 28.6234L39.9942 31.1246C40.3594 31.7404 40.6407 32.4116 40.8227 33.1227L43.8709 33.6107V36.441L40.8228 36.9289Z" fill="#685E68"/>
<path d="M38.3245 36.2493C38.9942 34.039 37.7454 31.7042 35.5351 31.0344C33.3248 30.3646 30.99 31.6134 30.3202 33.8237C29.6504 36.0341 30.8992 38.3688 33.1096 39.0386C35.3199 39.7084 37.6547 38.4596 38.3245 36.2493Z" fill="#FFF0C1"/>
<path fill-rule="evenodd" clip-rule="evenodd" d="M31.0509 35.0258C31.0509 37.1806 32.6807 38.9549 34.7748 39.183C34.6243 39.1993 34.4715 39.2078 34.3167 39.2078C32.0071 39.2078 30.1348 37.3354 30.1348 35.0258C30.1348 34.3682 30.2866 33.7459 30.557 33.1923C31.2365 31.8017 32.6648 30.8439 34.3167 30.8439C34.4715 30.8439 34.6243 30.8523 34.7748 30.8687C33.124 31.0485 31.7617 32.1891 31.259 33.7196C31.1239 34.1305 31.0509 34.5697 31.0509 35.0258Z" fill="#D1D1D6"/>
<path fill-rule="evenodd" clip-rule="evenodd" d="M15.9809 38.0066V35.6199L22.2685 40.2328L15.9809 45.4953V43.2008C7.20531 43.2008 4.32699 36.7492 6.87658 32.161C8.28685 37.6529 12.892 38.0066 15.9809 38.0066Z" fill="#6CF5C2"/>
<path fill-rule="evenodd" clip-rule="evenodd" d="M21.5756 39.7243L16.7955 43.7251V42.3198C9.42899 42.3198 5.98151 38.0325 6.20594 33.8322C5.08011 38.1686 8.23066 43.2008 15.9809 43.2008V45.4952L22.2686 40.2328L21.5756 39.7243Z" fill="#00E499"/>
<path fill-rule="evenodd" clip-rule="evenodd" d="M30.1081 16.1949V18.753L23.3691 13.8089L30.1081 8.16864V10.6278C39.5139 10.6278 42.5988 17.5428 39.8663 22.4604C38.3545 16.5741 33.4189 16.1949 30.1081 16.1949Z" fill="#FE646F"/>
<path fill-rule="evenodd" clip-rule="evenodd" d="M29.2997 15.2294V17.1821L23.9918 13.2878L23.3691 13.8089L30.1081 18.753V16.1949C33.0683 16.1949 37.3277 16.4979 39.277 20.7699C37.2631 15.7075 32.6224 15.2294 29.2997 15.2294Z" fill="#FD4755"/>
</g>
<defs>
<filter id="filter0_d_748_1618" x="-2.78516" y="-3.49536" width="30.7734" height="37.9437" filterUnits="userSpaceOnUse" color-interpolation-filters="sRGB">
<feFlood flood-opacity="0" result="BackgroundImageFix"/>
<feColorMatrix in="SourceAlpha" type="matrix" values="0 0 0 0 0 0 0 0 0 0 0 0 0 0 0 0 0 0 127 0" result="hardAlpha"/>
<feOffset/>
<feGaussianBlur stdDeviation="2"/>
<feComposite in2="hardAlpha" operator="out"/>
<feColorMatrix type="matrix" values="0 0 0 0 1 0 0 0 0 0.764706 0 0 0 0 0.219608 0 0 0 0.48 0"/>
<feBlend mode="normal" in2="BackgroundImageFix" result="effect1_dropShadow_748_1618"/>
<feBlend mode="normal" in="SourceGraphic" in2="effect1_dropShadow_748_1618" result="shape"/>
</filter>
<clipPath id="clip0_748_1618">
<rect width="46" height="46" fill="white"/>
</clipPath>
</defs>
</svg>
