<svg width="46" height="46" viewBox="0 0 46 46" fill="none" xmlns="http://www.w3.org/2000/svg">
<path d="M27.3125 40.25H18.6875L19.6434 34.5H26.3566L27.3125 40.25Z" fill="#074F77"/>
<path d="M26.7157 36.6562H19.291L19.6432 34.5H26.3563L26.7157 36.6562Z" fill="#00325A"/>
<path d="M26.5938 35.9375H19.4062L19.6434 34.5H26.3566L26.5938 35.9375Z" fill="#00325A"/>
<path d="M43.125 10.0625V34.5C43.125 35.2906 42.4781 35.9375 41.6875 35.9375H4.3125C3.52187 35.9375 2.875 35.2906 2.875 34.5V10.0625C2.875 9.27187 3.52187 8.625 4.3125 8.625H41.6875C42.4781 8.625 43.125 9.27187 43.125 10.0625Z" fill="#01A0C8"/>
<path d="M38.0938 35.2188H40.9688C41.3655 35.2188 41.6875 34.8967 41.6875 34.5C41.6875 34.1032 41.3655 33.7812 40.9688 33.7812H38.0938C37.697 33.7812 37.375 34.1032 37.375 34.5C37.375 34.8967 37.697 35.2188 38.0938 35.2188Z" fill="#0082AA"/>
<path d="M35.2188 35.2188C35.6157 35.2188 35.9375 34.897 35.9375 34.5C35.9375 34.103 35.6157 33.7812 35.2188 33.7812C34.8218 33.7812 34.5 34.103 34.5 34.5C34.5 34.897 34.8218 35.2188 35.2188 35.2188Z" fill="#0082AA"/>
<path d="M41.6875 10.7812V30.9062C41.6875 31.3016 41.3641 31.625 40.9688 31.625H5.03125C4.63594 31.625 4.3125 31.3016 4.3125 30.9062V10.7812C4.3125 10.3859 4.63594 10.0625 5.03125 10.0625H40.9688C41.3641 10.0625 41.6875 10.3859 41.6875 10.7812Z" fill="#FAB400"/>
<path d="M40.9688 10.0625C33.8021 10.0625 12.1282 10.0625 5.03125 10.0625C4.63594 10.0625 4.3125 10.3859 4.3125 10.7812V11.5C4.3125 11.1047 4.63594 10.7812 5.03125 10.7812H7.1875V28.0312C7.1875 28.4266 7.51094 28.75 7.90625 28.75H38.0938C38.4891 28.75 38.8125 28.4266 38.8125 28.0312V10.7812H40.9688C41.3641 10.7812 41.6875 11.1047 41.6875 11.5V10.7812C41.6875 10.3859 41.3641 10.0625 40.9688 10.0625Z" fill="#DC9600"/>
<path d="M38.8125 3.59375V7.1875H7.1875V3.59375C7.1875 3.19844 7.51094 2.875 7.90625 2.875H38.0938C38.4891 2.875 38.8125 3.19844 38.8125 3.59375Z" fill="#00325A"/>
<path d="M30.9062 43.125H15.0938C14.697 43.125 14.375 42.803 14.375 42.4062V41.6875C14.375 40.8933 15.0183 40.25 15.8125 40.25H30.1875C30.9817 40.25 31.625 40.8933 31.625 41.6875V42.4062C31.625 42.803 31.303 43.125 30.9062 43.125Z" fill="#01A0C8"/>
<path d="M38.0938 34.5H40.9688C41.3655 34.5 41.6875 34.178 41.6875 33.7812C41.6875 33.3845 41.3655 33.0625 40.9688 33.0625H38.0938C37.697 33.0625 37.375 33.3845 37.375 33.7812C37.375 34.178 37.697 34.5 38.0938 34.5Z" fill="#F0F0F0"/>
<path d="M35.2188 34.5C35.6157 34.5 35.9375 34.1782 35.9375 33.7812C35.9375 33.3843 35.6157 33.0625 35.2188 33.0625C34.8218 33.0625 34.5 33.3843 34.5 33.7812C34.5 34.1782 34.8218 34.5 35.2188 34.5Z" fill="#F0F0F0"/>
<path d="M38.8125 7.1875V27.3125C38.8125 27.7078 38.4891 28.0312 38.0938 28.0312H7.90625C7.51094 28.0312 7.1875 27.7078 7.1875 27.3125V7.1875H38.8125Z" fill="#F0F0F0"/>
<path d="M15.8068 14.2068C14.595 11.7839 15.6372 13.8625 14.2946 11.178C14.0294 10.6483 13.274 10.6483 13.0088 11.178C11.7344 13.7274 12.7716 11.6574 11.4965 14.2068L11.4922 22.282H11.4958V25.1562C11.4958 25.9505 12.1391 26.5937 12.9333 26.5937H14.3708C15.165 26.5937 15.8083 25.9505 15.8083 25.1562C15.8083 24.1169 15.8083 23.3198 15.8083 22.282H15.8119L15.8068 14.2068Z" fill="#D2D2D2"/>
<path d="M33.7812 23.7188H33.0625C33.0625 20.1466 30.1659 17.25 26.5938 17.25C23.0216 17.25 20.125 20.1466 20.125 23.7188H19.4062C19.0109 23.7188 18.6875 24.0422 18.6875 24.4375V25.875C18.6875 26.2703 19.0109 26.5938 19.4062 26.5938H33.7812C34.1766 26.5938 34.5 26.2703 34.5 25.875V24.4375C34.5 24.0422 34.1766 23.7188 33.7812 23.7188ZM23 23.7188C23 21.735 24.61 20.125 26.5938 20.125C28.5775 20.125 30.1875 21.735 30.1875 23.7188H23Z" fill="#D2D2D2"/>
<path d="M20.125 15.0938H27.7114C28.2095 15.9498 29.1259 16.5312 30.1875 16.5312C31.3454 16.5312 33.4053 15.0032 34.2758 14.1752C34.5747 13.8906 34.5747 13.4227 34.2758 13.138C33.4053 12.3093 31.3454 10.7812 30.1875 10.7812C29.1259 10.7812 28.2095 11.3627 27.7114 12.2188H20.125C19.3308 12.2188 18.6875 12.862 18.6875 13.6562C18.6875 14.4505 19.3308 15.0938 20.125 15.0938Z" fill="#D2D2D2"/>
<path d="M36.6562 5.75C37.0532 5.75 37.375 5.4282 37.375 5.03125C37.375 4.6343 37.0532 4.3125 36.6562 4.3125C36.2593 4.3125 35.9375 4.6343 35.9375 5.03125C35.9375 5.4282 36.2593 5.75 36.6562 5.75Z" fill="#C80A50"/>
<path d="M33.7812 5.75C34.1782 5.75 34.5 5.4282 34.5 5.03125C34.5 4.6343 34.1782 4.3125 33.7812 4.3125C33.3843 4.3125 33.0625 4.6343 33.0625 5.03125C33.0625 5.4282 33.3843 5.75 33.7812 5.75Z" fill="#01A0C8"/>
<path d="M30.9062 5.75C31.3032 5.75 31.625 5.4282 31.625 5.03125C31.625 4.6343 31.3032 4.3125 30.9062 4.3125C30.5093 4.3125 30.1875 4.6343 30.1875 5.03125C30.1875 5.4282 30.5093 5.75 30.9062 5.75Z" fill="#FAB400"/>
<path d="M20.125 5.75H9.34375C8.947 5.75 8.625 5.42872 8.625 5.03125C8.625 4.63378 8.947 4.3125 9.34375 4.3125H20.125C20.5218 4.3125 20.8438 4.63378 20.8438 5.03125C20.8438 5.42872 20.5218 5.75 20.125 5.75Z" fill="#F0F0F0"/>
<path d="M11.4922 21.5632L11.4972 13.488H15.8068L15.8119 21.5632H11.4922Z" fill="#00325A"/>
<path d="M11.498 13.4881L13.0125 10.4593C13.277 9.93098 14.0288 9.93098 14.2933 10.4593L15.8077 13.4881H11.498Z" fill="#FAB400"/>
<path d="M12.2148 12.0491L13.0098 10.46C13.275 9.93025 14.0304 9.93025 14.2956 10.46L15.0906 12.0491H12.2148Z" fill="#01133B"/>
<path d="M12.9336 25.875H14.3711C15.1653 25.875 15.8086 25.2317 15.8086 24.4375V23H11.4961V24.4375C11.4961 25.2317 12.1394 25.875 12.9336 25.875Z" fill="#C8094F"/>
<path d="M12.9336 13.4866H14.3711V21.5625H12.9336V13.4866Z" fill="#F0F0F0"/>
<path d="M15.8086 23H11.4961V21.5625H15.8086V23Z" fill="#FAB400"/>
<path d="M33.7812 23H33.0625C33.0625 19.4278 30.1659 16.5312 26.5938 16.5312C23.0216 16.5312 20.125 19.4278 20.125 23H19.4062C19.0109 23 18.6875 23.3234 18.6875 23.7188V25.1562C18.6875 25.5516 19.0109 25.875 19.4062 25.875H33.7812C34.1766 25.875 34.5 25.5516 34.5 25.1562V23.7188C34.5 23.3234 34.1766 23 33.7812 23ZM23 23C23 21.0163 24.61 19.4062 26.5938 19.4062C28.5775 19.4062 30.1875 21.0163 30.1875 23H23Z" fill="#00A0C8"/>
<path d="M21.5625 25.1562V25.875H20.125V25.1562C20.125 24.7609 20.4484 24.4375 20.8438 24.4375C21.2391 24.4375 21.5625 24.7609 21.5625 25.1562Z" fill="#00325A"/>
<path d="M24.4375 25.1562V25.875H23V25.1562C23 24.7609 23.3234 24.4375 23.7188 24.4375C24.1141 24.4375 24.4375 24.7609 24.4375 25.1562Z" fill="#00325A"/>
<path d="M27.3125 25.1562V25.875H25.875V25.1562C25.875 24.7609 26.1984 24.4375 26.5938 24.4375C26.9891 24.4375 27.3125 24.7609 27.3125 25.1562Z" fill="#00325A"/>
<path d="M30.1875 25.1562V25.875H28.75V25.1562C28.75 24.7609 29.0734 24.4375 29.4688 24.4375C29.8641 24.4375 30.1875 24.7609 30.1875 25.1562Z" fill="#00325A"/>
<path d="M33.0625 25.1562V25.875H31.625V25.1562C31.625 24.7609 31.9484 24.4375 32.3438 24.4375C32.7391 24.4375 33.0625 24.7609 33.0625 25.1562Z" fill="#00325A"/>
<path d="M30.1875 14.375H20.125C19.3308 14.375 18.6875 13.7317 18.6875 12.9375C18.6875 12.1433 19.3308 11.5 20.125 11.5H30.1875V14.375Z" fill="#00325A"/>
<path d="M27.3125 12.9375C27.3125 14.5252 28.5998 15.8125 30.1875 15.8125C31.3454 15.8125 33.4053 14.2844 34.2757 13.4564C34.5747 13.1718 34.5747 12.7032 34.2757 12.4193C33.4053 11.5906 31.3454 10.0625 30.1875 10.0625C28.5998 10.0625 27.3125 11.3498 27.3125 12.9375Z" fill="#C8094F"/>
</svg>
