<svg width="46" height="46" viewBox="0 0 46 46" fill="none" xmlns="http://www.w3.org/2000/svg">
<path fill-rule="evenodd" clip-rule="evenodd" d="M5.8247 36.2848L11.535 32.9765C12.6066 32.3556 13.6964 31.9154 14.8743 32.2975C16.1876 32.7233 18.3321 33.6378 20.5192 34.0323C21.331 34.2955 21.8371 35.1084 21.6162 35.9326C21.3953 36.7569 20.6988 37.182 19.716 37.0299L20.4805 37.1523C21.3565 37.2924 22.1611 37.1725 22.9279 36.726L28.418 33.5282C32.6856 31.0428 33.3124 34.8665 31.8935 35.7401L21.9304 41.875C21.014 42.4391 20.0113 42.5707 18.9718 42.2921L11.7452 40.3558L9.06896 41.901C8.55442 42.198 7.89236 42.0207 7.59534 41.5061L5.43118 37.7577C5.13434 37.2435 5.31106 36.5824 5.8247 36.2848Z" fill="#F6DCCD"/>
<path fill-rule="evenodd" clip-rule="evenodd" d="M21.4858 36.2746C21.1807 36.871 20.5519 37.1593 19.7158 37.03C18.532 36.717 17.3497 36.396 16.1669 36.0792C15.8501 35.9943 15.662 35.6687 15.7469 35.3519C15.8319 35.0351 16.1574 34.847 16.4743 34.9319L21.4858 36.2746Z" fill="#F1CBBC"/>
<path fill-rule="evenodd" clip-rule="evenodd" d="M5.8247 36.2848L11.535 32.9765C12.6066 32.3556 13.6964 31.9154 14.8743 32.2975C15.5769 32.5253 16.5175 32.893 17.5752 33.2461L6.51362 39.6326L5.43118 37.7577C5.13434 37.2436 5.31106 36.5824 5.8247 36.2848Z" fill="#F1CBBC"/>
<path fill-rule="evenodd" clip-rule="evenodd" d="M6.39336 34.483L10.922 42.4849C11.141 42.8717 11.0036 43.3675 10.6166 43.5864L9.07627 44.4582C8.68941 44.6772 8.19365 44.5398 7.9747 44.1529L3.44603 36.1511C3.22709 35.7642 3.36446 35.2684 3.75132 35.0495L5.2917 34.1777C5.67865 33.9587 6.17441 34.0961 6.39336 34.483Z" fill="#D1D1D6"/>
<path fill-rule="evenodd" clip-rule="evenodd" d="M8.77449 39.9808L9.57608 41.3971L10.3687 42.7977C10.5873 43.1839 10.4508 43.6783 10.0657 43.8979L10.6159 43.5865C11.0028 43.3675 11.1403 42.8718 10.9213 42.485L10.126 41.0796L8.52904 38.2579L6.93027 35.433L6.39264 34.483C6.20298 34.1479 5.80561 34 5.45117 34.1088L6.38204 35.7535L7.97902 38.5752L8.77431 39.9805L8.77449 39.9808Z" fill="#B1B1B5"/>
<path fill-rule="evenodd" clip-rule="evenodd" d="M5.35716 35.6787C5.05663 35.7226 4.84864 36.0019 4.89258 36.3025C4.93651 36.603 5.21574 36.811 5.51636 36.7671C5.81689 36.7231 6.02488 36.4439 5.98094 36.1434C5.93701 35.8428 5.65777 35.6348 5.35716 35.6787Z" fill="#685E68"/>
<path fill-rule="evenodd" clip-rule="evenodd" d="M3.31719 25.491C3.51565 25.8337 3.39877 26.2724 3.0561 26.4709C2.71344 26.6693 2.27473 26.5524 2.07627 26.2098C1.68931 25.545 1.40406 24.8166 1.23964 24.0482C1.08143 23.3087 1.03561 22.5312 1.11925 21.7368C1.33245 19.7111 2.34589 17.9642 3.81178 16.7775C5.2792 15.5896 7.19844 14.9613 9.22136 15.1743C9.97515 15.2536 10.6893 15.4433 11.3497 15.7255C11.4277 15.7589 11.5049 15.7935 11.5814 15.8294C11.4843 15.4671 11.684 15.0869 12.0443 14.9648C12.4195 14.8377 12.8268 15.0388 12.9539 15.4141L13.5999 17.316C13.727 17.6912 13.5259 18.0985 13.1507 18.2256C13.0939 18.2448 13.0365 18.2565 12.9793 18.2613L12.9794 18.2622L10.9782 18.4335C10.5828 18.466 10.2358 18.1719 10.2033 17.7765C10.1742 17.424 10.4049 17.11 10.7354 17.023C10.2171 16.8073 9.66016 16.6622 9.07536 16.6006C7.44272 16.4287 5.89615 16.9338 4.71579 17.8894C3.53389 18.8462 2.71703 20.2529 2.54552 21.8829C2.47814 22.5235 2.51533 23.1518 2.64345 23.7507C2.7757 24.369 3.00543 24.9555 3.31719 25.491ZM5.32142 29.1825C5.4057 29.222 5.49087 29.26 5.57694 29.2964C6.21573 29.5669 6.9024 29.751 7.62367 29.8325C7.66023 29.8393 7.69779 29.8433 7.73606 29.8443C9.73904 30.0404 11.6371 29.4131 13.0914 28.2357C14.5429 27.0607 15.5506 25.3364 15.7773 23.3361C15.784 23.2997 15.7881 23.2624 15.7892 23.2243C15.8654 22.4479 15.8182 21.6882 15.6635 20.9649C15.4991 20.1964 15.2138 19.4682 14.8269 18.8035C14.6284 18.4608 14.1897 18.3439 13.8471 18.5424C13.5044 18.7409 13.3875 19.1796 13.586 19.5222C13.8977 20.0577 14.1275 20.6441 14.2598 21.2625C14.3879 21.8615 14.4252 22.4898 14.3577 23.1305V23.1307C14.1861 24.7606 13.3693 26.1673 12.1875 27.124C11.0071 28.0796 9.46061 28.5847 7.82797 28.4128H7.8277C7.24021 28.3509 6.68283 28.2059 6.16613 27.991C6.49766 27.9046 6.72918 27.5901 6.70007 27.237C6.66755 26.8416 6.32057 26.5475 5.92517 26.5801L3.9239 26.7514L3.92399 26.7523C3.86685 26.7571 3.80944 26.7687 3.75266 26.788C3.37738 26.9151 3.17631 27.3224 3.30344 27.6977L3.94942 29.5996C4.07655 29.9748 4.48381 30.1759 4.85909 30.0488C5.21963 29.9262 5.41935 29.5451 5.32142 29.1825Z" fill="#6CF5C2"/>
<path fill-rule="evenodd" clip-rule="evenodd" d="M5.10308 23.1839C4.82241 22.9032 4.82241 22.4482 5.10308 22.1675C5.38375 21.8868 5.83881 21.8868 6.11948 22.1675L7.29347 23.3415L10.8109 20.1493C11.1039 19.8826 11.5577 19.904 11.8244 20.197C12.0911 20.4901 12.0697 20.9439 11.7767 21.2106L7.7807 24.837L7.77674 24.8411C7.49607 25.1217 7.04101 25.1217 6.76043 24.8411L5.10308 23.1839Z" fill="#8AC9FE"/>
<path fill-rule="evenodd" clip-rule="evenodd" d="M28.4341 23.891L25.1699 26.5979L26.9204 30.6623C26.9767 30.7929 27.1562 30.8063 27.2311 30.6854L28.3612 28.8645L30.4606 29.2945C30.6001 29.323 30.7136 29.1836 30.6573 29.0528L28.4341 23.891Z" fill="#FE646F"/>
<path fill-rule="evenodd" clip-rule="evenodd" d="M28.4349 23.891L28.0033 24.2489L30.0723 29.0528C30.0965 29.1092 30.0893 29.1672 30.0619 29.2126L30.4615 29.2945C30.6009 29.3229 30.7144 29.1836 30.6581 29.0528L28.4349 23.891ZM26.8145 30.4143L27.8423 28.758L28.3619 28.8645L27.2319 30.6854C27.1569 30.8063 26.9774 30.7929 26.9212 30.6623L26.8145 30.4143Z" fill="#FD4755"/>
<path fill-rule="evenodd" clip-rule="evenodd" d="M23.6189 26.3879L21.272 31.4288C21.212 31.5577 21.0322 31.5658 20.9608 31.4429L19.884 29.59L17.7728 29.9589C17.6326 29.9833 17.5232 29.8407 17.5833 29.7116L19.9045 24.7258L23.6189 26.3879Z" fill="#FE646F"/>
<path fill-rule="evenodd" clip-rule="evenodd" d="M23.6189 26.3879L21.272 31.4289C21.212 31.5577 21.0322 31.5659 20.9608 31.443L19.884 29.59L17.7728 29.9589C17.6326 29.9834 17.5232 29.8407 17.5833 29.7116L17.7259 29.405L19.5874 29.0798L20.6642 30.9327C20.7356 31.0556 20.9155 31.0475 20.9754 30.9186L23.1768 26.1901L23.6189 26.3879Z" fill="#FD4755"/>
<path fill-rule="evenodd" clip-rule="evenodd" d="M25.0115 13.9633C26.4149 15.0138 26.0966 14.8979 27.8469 14.9953C28.5192 15.0326 29.0652 15.4908 29.2187 16.1463C29.3638 16.7655 29.4347 17.5462 29.9075 17.9899L30.7274 18.7594C31.2183 19.2203 31.3421 19.9221 31.0384 20.5231C30.2475 22.0875 30.3063 21.7539 30.5144 23.4946C30.5943 24.1631 30.2379 24.7803 29.619 25.0455C28.0076 25.7355 28.267 25.5179 27.3076 26.9849C26.939 27.5484 26.2693 27.7922 25.6248 27.5974C23.9468 27.0903 24.2855 27.0903 22.6075 27.5974C21.963 27.7922 21.2932 27.5484 20.9247 26.9849C19.9653 25.5179 20.2248 25.7355 18.6133 25.0455C17.9944 24.7803 17.638 24.1631 17.7179 23.4946C17.926 21.754 17.9848 22.0875 17.194 20.5231C16.8902 19.9222 17.014 19.2203 17.5049 18.7594C18.7831 17.5599 18.6138 17.8531 19.0136 16.1463C19.1671 15.4908 19.7131 15.0326 20.3854 14.9953C22.1356 14.8979 21.8174 15.0138 23.2208 13.9633C23.7598 13.5598 24.4725 13.5598 25.0115 13.9633Z" fill="#FFE177"/>
<path fill-rule="evenodd" clip-rule="evenodd" d="M25.0118 13.9633C26.4152 15.0138 26.0969 14.898 27.8472 14.9953C28.5195 15.0326 29.0655 15.4908 29.219 16.1463C29.3641 16.7655 29.435 17.5462 29.9078 17.9899L30.7277 18.7594C31.2186 19.2203 31.3424 19.9221 31.0386 20.5231C30.2478 22.0875 30.3067 21.7539 30.5147 23.4945C30.5945 24.163 30.2382 24.7803 29.6193 25.0454C28.0078 25.7355 28.2673 25.5178 27.3079 26.9848C26.9502 27.5317 26.3088 27.7774 25.6821 27.6134C26.0254 27.5212 26.3314 27.3045 26.5404 26.9848C27.4999 25.5178 27.2404 25.7355 28.8518 25.0454C29.4708 24.7803 29.8272 24.163 29.7472 23.4945C29.5391 21.7539 29.4804 22.0874 30.2712 20.5231C30.575 19.9222 30.4511 19.2203 29.9602 18.7594L29.1403 17.9899C28.6676 17.5463 28.5966 16.7655 28.4516 16.1463C28.298 15.4908 27.752 15.0326 27.0798 14.9953C25.3295 14.898 25.6477 15.0138 24.2444 13.9633C24.0859 13.8447 23.9124 13.761 23.7327 13.7121C24.1642 13.5947 24.6312 13.6784 25.0118 13.9633ZM23.7326 27.266C23.4763 27.3243 23.1458 27.4348 22.6077 27.5974C22.3287 27.6817 22.0451 27.6837 21.7832 27.6134C21.8022 27.6084 21.8212 27.603 21.8402 27.5974C22.9803 27.2528 23.1896 27.1424 23.7326 27.266Z" fill="#FFD064"/>
<path d="M27.0672 23.6192C28.7001 21.9863 28.7001 19.3388 27.0672 17.7059C25.4343 16.073 22.7868 16.073 21.1539 17.7059C19.521 19.3388 19.521 21.9863 21.1539 23.6192C22.7868 25.2521 25.4343 25.2521 27.0672 23.6192Z" fill="#ECEFF1"/>
<path fill-rule="evenodd" clip-rule="evenodd" d="M24.1155 16.4802C24.228 16.4802 24.3394 16.4848 24.4497 16.4935C22.2963 16.6638 20.6019 18.4651 20.6019 20.6622C20.6019 22.8593 22.2963 24.6606 24.4497 24.8308C24.3394 24.8396 24.228 24.8441 24.1155 24.8441C21.8059 24.8441 19.9336 22.9718 19.9336 20.6622C19.9336 18.3526 21.8059 16.4802 24.1155 16.4802Z" fill="#D1D1D6"/>
<path fill-rule="evenodd" clip-rule="evenodd" d="M21.4527 21.2986C21.172 21.018 21.172 20.5629 21.4527 20.2823C21.7334 20.0017 22.1884 20.0017 22.469 20.2823L23.2435 21.0568L25.7904 18.7454C26.0835 18.4787 26.5373 18.5 26.804 18.7931C27.0706 19.0862 27.0493 19.54 26.7563 19.8066L23.7307 22.5523L23.7267 22.5564C23.4461 22.837 22.991 22.837 22.7103 22.5564L21.4527 21.2986Z" fill="#8AC9FE"/>
<path fill-rule="evenodd" clip-rule="evenodd" d="M39.748 23.3107C40.2349 23.4266 40.7 23.6197 41.1263 23.8821L42.0218 23.4843L43.0774 24.5398L42.6798 25.4351C42.9423 25.8614 43.1354 26.3266 43.2513 26.8137L44.165 27.1654V28.6582L43.251 29.0099C43.1351 29.4968 42.942 29.9619 42.6796 30.3881L43.0773 31.2837L42.0217 32.3392L41.1265 31.9416C40.7001 32.2041 40.2349 32.3972 39.7479 32.5131L39.3962 33.4268H37.9034L37.5517 32.5129C37.0647 32.397 36.5997 32.2039 36.1735 31.9416L35.2779 32.3393L34.2223 31.2838L34.62 30.3885C34.3574 29.9622 34.1644 29.497 34.0485 29.01L33.1348 28.6582V27.1655L34.0486 26.8137C34.1645 26.3268 34.3575 25.8616 34.62 25.4354L34.2222 24.5399L35.2778 23.4843L36.1734 23.8821C36.5996 23.6196 37.0646 23.4266 37.5516 23.3107L37.9034 22.3969H39.3962L39.748 23.3107Z" fill="#A79BA7"/>
<path fill-rule="evenodd" clip-rule="evenodd" d="M36.1742 31.9416L35.2786 32.3393L35.1407 32.2014L35.9804 31.8285C36.0441 31.8678 36.1088 31.9055 36.1742 31.9416ZM39.7487 23.3107C40.2357 23.4266 40.7007 23.6197 41.127 23.8821L40.8725 23.9952C40.4463 23.7327 39.7873 23.4266 39.3004 23.3107L38.9487 22.3969H39.3971L39.7487 23.3107ZM41.1272 31.9417C40.7009 32.2042 40.2357 32.3973 39.7486 32.5132L39.3969 33.4269H38.9485L39.3002 32.5132C39.7873 32.3973 40.4463 32.0912 40.8726 31.8286L41.1272 31.9417ZM35.1406 23.6222L35.2785 23.4843L36.1741 23.8821C36.1086 23.9182 36.044 23.9559 35.9803 23.9952L35.1406 23.6222ZM41.7121 23.6222L42.0226 23.4843L43.0781 24.5398L42.6805 25.4351C42.943 25.8614 43.1361 26.3266 43.252 26.8137L44.1657 27.1654V28.6582L43.2517 29.0099C43.1358 29.4968 42.9427 29.9619 42.6803 30.3881L43.0781 31.2837L42.0225 32.3392L41.712 32.2013L42.6296 31.2837L42.2319 30.3881C42.4943 29.9619 42.6874 29.4968 42.8032 29.0099L43.7171 28.6582V27.1654L42.8034 26.8137C42.6875 26.3267 42.4944 25.8614 42.2319 25.4351L42.6295 24.5398L41.7121 23.6222Z" fill="#837683"/>
<path d="M39.0587 30.4858C40.4777 30.2558 41.4416 28.9189 41.2115 27.4999C40.9815 26.0809 39.6447 25.117 38.2256 25.347C36.8066 25.5771 35.8427 26.9139 36.0728 28.3329C36.3028 29.752 37.6396 30.7158 39.0587 30.4858Z" fill="#FFA46F"/>
<path fill-rule="evenodd" clip-rule="evenodd" d="M38.65 25.3087C37.2122 25.3087 36.0469 26.4741 36.0469 27.9119C36.0469 29.3497 37.2122 30.5151 38.65 30.5151C38.7197 30.5151 38.7887 30.5123 38.8571 30.5069C37.5161 30.4014 36.461 29.28 36.461 27.9119C36.461 26.5438 37.5161 25.4225 38.8571 25.3169C38.7887 25.3115 38.7197 25.3087 38.65 25.3087Z" fill="#FF7E33"/>
<path fill-rule="evenodd" clip-rule="evenodd" d="M35.0407 19.6326V21.8672C35.0407 22.2642 34.7189 22.586 34.3219 22.586C33.925 22.586 33.6032 22.2642 33.6032 21.8672V19.6326C33.3514 19.8887 32.9421 19.9207 32.6523 19.6944C32.3406 19.451 32.2853 19.001 32.5287 18.6892L33.7493 17.1263C33.7863 17.077 33.8303 17.0318 33.8812 16.9921C34.1928 16.7487 34.6429 16.8039 34.8863 17.1156L36.1152 18.6892C36.3586 19.0009 36.3033 19.4509 35.9917 19.6944C35.7018 19.9207 35.2923 19.8887 35.0407 19.6326ZM43.6958 16.5361V21.4307C43.6958 21.8276 43.374 22.1494 42.977 22.1494C42.5801 22.1494 42.2583 21.8276 42.2583 21.4307V16.5361C42.0065 16.7922 41.5972 16.8242 41.3074 16.5979C40.9957 16.3545 40.9405 15.9044 41.1838 15.5927L42.4044 14.0298C42.4414 13.9806 42.4854 13.9353 42.5363 13.8956C42.8479 13.6522 43.298 13.7075 43.5414 14.0191L44.7703 15.5927C45.0137 15.9044 44.9584 16.3544 44.6468 16.5979C44.3569 16.8242 43.9474 16.7922 43.6958 16.5361ZM39.3682 18.0844V19.7976C39.3682 20.1945 39.0464 20.5164 38.6494 20.5164C38.2525 20.5164 37.9307 20.1945 37.9307 19.7976V18.0844C37.6789 18.3405 37.2695 18.3725 36.9798 18.1462C36.6681 17.9028 36.6129 17.4528 36.8562 17.141L38.0768 15.5781C38.1138 15.5289 38.1578 15.4836 38.2087 15.4439C38.5203 15.2005 38.9704 15.2557 39.2138 15.5674L40.4426 17.141C40.686 17.4527 40.6308 17.9027 40.3191 18.1462C40.0293 18.3725 39.6199 18.3405 39.3682 18.0844Z" fill="#6CF5C2"/>
<path fill-rule="evenodd" clip-rule="evenodd" d="M42.3312 9.71514L36.6209 13.0235C35.5493 13.6444 34.4596 14.0846 33.2816 13.7025C31.9683 13.2766 29.8238 12.3621 27.6368 11.9676C26.8249 11.7045 26.3189 10.8916 26.5397 10.0673C26.7605 9.24301 27.4571 8.81796 28.4399 8.97006L27.6754 8.84769C26.7993 8.70754 25.9948 8.82748 25.228 9.274L19.7379 12.4717C15.4703 14.9572 14.8435 11.1334 16.2624 10.2599L26.2256 4.12497C27.1419 3.56084 28.1446 3.42922 29.1841 3.70782L36.4107 5.64414L39.087 4.099C39.6015 3.80198 40.2636 3.97924 40.5606 4.49387L42.7248 8.24233C43.0215 8.75641 42.8448 9.41757 42.3312 9.71514Z" fill="#F6DCCD"/>
<path fill-rule="evenodd" clip-rule="evenodd" d="M26.6699 9.72548C26.975 9.1291 27.6039 8.84079 28.4399 8.97007C29.6237 9.28309 30.8061 9.60401 31.9889 9.92098C32.3056 10.0059 32.4937 10.3315 32.4088 10.6483C32.3239 10.9651 31.9983 11.1531 31.6815 11.0682L26.6699 9.72548Z" fill="#F1CBBC"/>
<path fill-rule="evenodd" clip-rule="evenodd" d="M42.3306 9.71516L36.6203 13.0235C35.5486 13.6444 34.4589 14.0846 33.281 13.7025C32.5784 13.4747 31.6377 13.1069 30.5801 12.7539L41.6416 6.36749L42.7241 8.24235C43.0208 8.75635 42.8442 9.4176 42.3306 9.71516Z" fill="#F1CBBC"/>
<path fill-rule="evenodd" clip-rule="evenodd" d="M41.7618 11.517L37.2331 3.51512C37.0142 3.12826 37.1516 2.6325 37.5385 2.41355L39.0789 1.5418C39.4658 1.32285 39.9615 1.46022 40.1805 1.84717L44.7091 9.84902C44.9281 10.2359 44.7907 10.7316 44.4038 10.9506L42.8635 11.8223C42.4765 12.0413 41.9808 11.9039 41.7618 11.517Z" fill="#D1D1D6"/>
<path fill-rule="evenodd" clip-rule="evenodd" d="M39.38 6.01924L38.5785 4.60294L37.7858 3.20246C37.5673 2.81631 37.7037 2.3219 38.0888 2.10223L37.5385 2.41363C37.1516 2.63267 37.0142 3.12834 37.2331 3.51521L38.0284 4.92054L39.6254 7.74226L41.2242 10.5671L41.7618 11.5171C41.9514 11.8523 42.3488 12.0001 42.7033 11.8913L41.7724 10.2467L40.1754 7.42494L39.3802 6.01951L39.38 6.01924Z" fill="#B1B1B5"/>
<path fill-rule="evenodd" clip-rule="evenodd" d="M42.7975 10.3212C43.098 10.2773 43.3061 9.99805 43.2622 9.69743C43.2183 9.3969 42.939 9.18891 42.6384 9.23285C42.3379 9.27678 42.1299 9.55601 42.1738 9.85654C42.2178 10.1572 42.497 10.3651 42.7975 10.3212Z" fill="#685E68"/>
</svg>
