<svg width="46" height="46" viewBox="0 0 46 46" fill="none" xmlns="http://www.w3.org/2000/svg">
<g clip-path="url(#clip0_748_2136)">
<g filter="url(#filter0_d_748_2136)">
<path d="M23.0756 21.2507L20.2835 20.5124C20.141 20.0458 19.9466 19.5858 19.7198 19.1518L21.1774 16.6639C21.2681 16.5019 21.2488 16.3014 21.1127 16.1653L19.208 14.2604C19.0719 14.1244 18.8646 14.0921 18.7026 14.1892L16.2085 15.6469L15.9752 15.5302C15.7551 15.4201 15.5283 15.323 15.2951 15.2388C15.1461 15.1803 15.0035 15.1351 14.8545 15.0769L14.1225 12.2909C14.0706 12.1097 13.9086 11.9866 13.7207 11.9866H11.0193C10.8314 11.9866 10.6629 12.1097 10.6175 12.2909L10.6046 12.3299L10.5269 12.6345L10.4104 13.1007L9.88556 15.0769C9.41265 15.2322 8.95903 15.4201 8.52503 15.6469L6.03741 14.1892C5.87545 14.0921 5.6681 14.1244 5.53207 14.2604L4.30756 15.4849L3.87356 15.9189L3.62729 16.1653C3.49127 16.3014 3.47198 16.5019 3.5626 16.6639L4.87775 18.925L4.88423 18.938L5.01377 19.1518C5.0008 19.1778 4.98783 19.1971 4.98134 19.223C4.76766 19.6377 4.59273 20.0717 4.45671 20.5187L1.66447 21.2507C1.48305 21.2962 1.35352 21.4582 1.35352 21.6461V24.3409C1.35352 24.5418 1.48305 24.6974 1.66447 24.7426L4.45671 25.4813C4.59906 25.9475 4.78696 26.4075 5.02025 26.8352L3.5626 29.3294C3.47198 29.4914 3.49127 29.6986 3.62729 29.8283L5.53207 31.7392C5.6681 31.8689 5.87545 31.9012 6.03741 31.8041L8.52503 30.3464C8.60284 30.3853 8.6805 30.4306 8.75832 30.4631C8.98497 30.5732 9.21178 30.6703 9.44491 30.7611C9.58758 30.813 9.73657 30.8646 9.88556 30.9101L10.6175 33.7087C10.6629 33.8903 10.8314 34.0133 11.0193 34.0133H13.7207C13.9086 34.0133 14.0706 33.8903 14.1225 33.7087L14.8545 30.9101C15.3274 30.7611 15.781 30.5732 16.2085 30.3464L16.215 30.3531L16.5649 30.5603L16.7785 30.6833L18.1196 31.4608L18.7026 31.8041C18.748 31.83 18.7999 31.8496 18.8516 31.8623C18.9683 31.8756 19.0914 31.8363 19.1822 31.7588C19.1951 31.7522 19.2015 31.7459 19.208 31.7392L20.8665 30.0744L21.1127 29.8283C21.2488 29.6986 21.2681 29.4914 21.1774 29.3294L19.8558 27.0749L19.7198 26.8352C19.7327 26.8092 19.7457 26.7899 19.7522 26.764C19.966 26.3556 20.1473 25.9216 20.2835 25.4813L23.0756 24.7426C23.257 24.6974 23.3865 24.5418 23.3865 24.3409V21.6461C23.3865 21.4582 23.257 21.2962 23.0756 21.2507Z" fill="#36ADFF"/>
<path d="M12.3668 28.0775C15.1733 28.0775 17.4485 25.8024 17.4485 22.9959C17.4485 20.1894 15.1733 17.9142 12.3668 17.9142C9.56029 17.9142 7.28516 20.1894 7.28516 22.9959C7.28516 25.8024 9.56029 28.0775 12.3668 28.0775Z" fill="#4F5D99"/>
<path d="M12.3673 26.9823C14.569 26.9823 16.3537 25.1976 16.3537 22.9959C16.3537 20.7943 14.569 19.0095 12.3673 19.0095C10.1657 19.0095 8.38086 20.7943 8.38086 22.9959C8.38086 25.1976 10.1657 26.9823 12.3673 26.9823Z" fill="white"/>
<path d="M37.7028 7.20538V38.7946C37.7028 40.4528 36.3619 41.7877 34.7097 41.7877H15.3622C13.71 41.7877 12.3691 40.4528 12.3691 38.7946V7.20538C12.3691 5.55318 13.71 4.21228 15.3622 4.21228H34.7097C36.3619 4.21228 37.7028 5.55318 37.7028 7.20538Z" fill="#4F5D99"/>
<path d="M35.6089 7.80141V38.1964C35.6089 38.7014 35.3564 39.1476 34.969 39.4177C34.9572 39.4235 34.9455 39.4353 34.9337 39.4412C34.6989 39.6054 34.4171 39.6936 34.1118 39.6936H15.9583C15.1362 39.6936 14.4609 39.0183 14.4609 38.1964V7.80141C14.4609 6.97951 15.1362 6.30438 15.9583 6.30438H23.2032C23.4615 6.30438 23.6729 6.51566 23.6729 6.77396C23.6729 7.30833 23.9606 7.82492 24.4185 8.05971C24.4419 8.07146 24.4597 8.08322 24.483 8.08909C24.5653 8.13023 24.6475 8.15962 24.7355 8.17725C24.8354 8.20076 24.9351 8.21251 25.035 8.21251C25.1348 8.21251 25.2346 8.20076 25.3343 8.17725C25.9743 8.04796 26.3971 7.42572 26.3971 6.77396C26.3971 6.68007 26.4264 6.59192 26.4793 6.51566V6.50979C26.4911 6.49216 26.5028 6.4804 26.5203 6.46277C26.6026 6.36888 26.7317 6.30438 26.8668 6.30438H34.1118C34.9337 6.30438 35.6089 6.97951 35.6089 7.80141Z" fill="#E9E9FF"/>
<path d="M25.7459 31.0856V31.6483C25.7459 31.7927 25.6321 31.9064 25.4877 31.9064H17.6136C17.4742 31.9064 17.3555 31.7927 17.3555 31.6483V31.0856C17.3555 30.9459 17.4742 30.8274 17.6136 30.8274H25.4877C25.6321 30.8274 25.7459 30.9459 25.7459 31.0856Z" fill="#CFCFFF"/>
<path d="M32.7166 31.0856V31.6483C32.7166 31.7927 32.6029 31.9064 32.4584 31.9064H27.4242C27.2848 31.9064 27.166 31.7927 27.166 31.6483V31.0856C27.166 30.9459 27.2848 30.8274 27.4242 30.8274H32.4584C32.6029 30.8274 32.7166 30.9459 32.7166 31.0856Z" fill="#CFCFFF"/>
<path d="M29.196 34.9211V37.2462C29.196 37.6019 28.9077 37.8902 28.552 37.8902H21.5209C21.1653 37.8902 20.877 37.6019 20.877 37.2462V34.9211C20.877 34.5655 21.1653 34.2772 21.5209 34.2772H28.552C28.9077 34.2772 29.196 34.5655 29.196 34.9211Z" fill="#7BD681"/>
<path d="M27.5894 35.8452V36.3251C27.5894 36.4539 27.4841 36.5594 27.3553 36.5594H22.7185C22.5897 36.5594 22.4844 36.4539 22.4844 36.3251V35.8452C22.4844 35.7164 22.5897 35.6109 22.7185 35.6109H27.3553C27.4841 35.6109 27.5894 35.7164 27.5894 35.8452Z" fill="#28892D"/>
<path d="M21.2542 10.5756V14.9241C21.2542 15.1454 21.0725 15.3271 20.8512 15.3271H16.4971C16.2756 15.3271 16.0996 15.1454 16.0996 14.9241V10.5756C16.0996 10.3542 16.2756 10.1725 16.4971 10.1725H20.8512C21.0725 10.1725 21.2542 10.3542 21.2542 10.5756Z" fill="#ED524E"/>
<path d="M27.6116 10.5756V14.9241C27.6116 15.1454 27.4299 15.3271 27.2086 15.3271H22.8545C22.633 15.3271 22.457 15.1454 22.457 14.9241V10.5756C22.457 10.3542 22.633 10.1725 22.8545 10.1725H27.2086C27.4299 10.1725 27.6116 10.3542 27.6116 10.5756Z" fill="#FDC72E"/>
<path d="M33.9671 10.5756V14.9241C33.9671 15.1454 33.7854 15.3271 33.5641 15.3271H29.21C28.9885 15.3271 28.8125 15.1454 28.8125 14.9241V10.5756C28.8125 10.3542 28.9885 10.1725 29.21 10.1725H33.5641C33.7854 10.1725 33.9671 10.3542 33.9671 10.5756Z" fill="#70C1F9"/>
<path d="M27.6116 16.891V21.2395C27.6116 21.4609 27.4299 21.6426 27.2086 21.6426H22.8545C22.633 21.6426 22.457 21.4609 22.457 21.2395V16.891C22.457 16.6697 22.633 16.488 22.8545 16.488H27.2086C27.4299 16.488 27.6116 16.6697 27.6116 16.891Z" fill="#7BD681"/>
<path d="M33.969 16.891V21.2395C33.969 21.4609 33.7873 21.6426 33.566 21.6426H29.2119C28.9905 21.6426 28.8145 21.4609 28.8145 21.2395V16.891C28.8145 16.6697 28.9905 16.488 29.2119 16.488H33.566C33.7873 16.488 33.969 16.6697 33.969 16.891Z" fill="#CFCFFF"/>
<path d="M27.6116 23.2065V27.555C27.6116 27.7764 27.4299 27.9581 27.2086 27.9581H22.8545C22.633 27.9581 22.457 27.7764 22.457 27.555V23.2065C22.457 22.9852 22.633 22.8035 22.8545 22.8035H27.2086C27.4299 22.8035 27.6116 22.9852 27.6116 23.2065Z" fill="#FDC72E"/>
<path d="M33.969 23.2065V27.555C33.969 27.7764 33.7873 27.9581 33.566 27.9581H29.2119C28.9905 27.9581 28.8145 27.7764 28.8145 27.555V23.2065C28.8145 22.9852 28.9905 22.8035 29.2119 22.8035H33.566C33.7873 22.8035 33.969 22.9852 33.969 23.2065Z" fill="#ED524E"/>
<g opacity="0.2">
<path d="M32.685 39.6936H23.6082L14.4609 12.2342V7.80141C14.4609 6.97951 15.1362 6.30438 15.9583 6.30438H21.5533L32.685 39.6936Z" fill="white"/>
<path d="M35.6082 33.746V38.1964C35.6082 38.7014 35.3558 39.1476 34.9684 39.4177C34.9566 39.4235 34.9449 39.4353 34.9331 39.4412L24.4824 8.08909C24.5647 8.13023 24.6468 8.15961 24.7348 8.17724C24.8347 8.20075 24.9345 8.21251 25.0344 8.21251C25.1342 8.21251 25.2339 8.20075 25.3337 8.17724C25.9737 8.04795 26.3964 7.42572 26.3964 6.77396C26.3964 6.68007 26.4258 6.59192 26.4787 6.51566V6.50978C26.4905 6.49215 26.5022 6.4804 26.5197 6.46277L35.6082 33.746Z" fill="white"/>
</g>
<path d="M44.4517 33.7431L42.6918 33.2777C42.6019 32.9836 42.4794 32.6937 42.3365 32.4201L43.2552 30.8519C43.3124 30.7498 43.3002 30.6234 43.2145 30.5377L42.0138 29.337C41.9281 29.2512 41.7974 29.2309 41.6953 29.2921L40.1232 30.2109L39.9762 30.1373C39.8374 30.0679 39.6944 30.0067 39.5475 29.9537C39.4536 29.9168 39.3636 29.8883 39.2697 29.8516L38.8083 28.0956C38.7756 27.9813 38.6736 27.9037 38.5551 27.9037H36.8523C36.7339 27.9037 36.6277 27.9813 36.5991 28.0956L36.5909 28.1201L36.542 28.3121L36.4685 28.606L36.1377 29.8516C35.8396 29.9495 35.5537 30.0679 35.2801 30.2109L33.7121 29.2921C33.61 29.2309 33.4793 29.2512 33.3936 29.337L32.6218 30.1088L32.3482 30.3824L32.193 30.5377C32.1072 30.6234 32.0951 30.7498 32.1522 30.8519L32.9812 32.2772L32.9853 32.2853L33.0669 32.4201C33.0587 32.4365 33.0506 32.4486 33.0465 32.465C32.9118 32.7264 32.8015 33 32.7158 33.2817L30.9558 33.7431C30.8414 33.7718 30.7598 33.8739 30.7598 33.9923V35.6909C30.7598 35.8175 30.8414 35.9156 30.9558 35.9442L32.7158 36.4097C32.8055 36.7036 32.9239 36.9935 33.071 37.2631L32.1522 38.8353C32.0951 38.9374 32.1072 39.068 32.193 39.1497L33.3936 40.3543C33.4793 40.436 33.61 40.4563 33.7121 40.3951L35.2801 39.4763C35.3292 39.5009 35.3781 39.5294 35.4272 39.5499C35.57 39.6193 35.713 39.6805 35.86 39.7377C35.9499 39.7704 36.0438 39.8029 36.1377 39.8317L36.5991 41.5957C36.6277 41.7101 36.7339 41.7877 36.8523 41.7877H38.5551C38.6736 41.7877 38.7756 41.7101 38.8083 41.5957L39.2697 39.8317C39.5678 39.7377 39.8537 39.6193 40.1232 39.4763L40.1273 39.4805L40.3478 39.6111L40.4825 39.6887L41.3278 40.1788L41.6953 40.3951C41.7239 40.4115 41.7566 40.4238 41.7892 40.4318C41.8628 40.4402 41.9404 40.4155 41.9976 40.3666C42.0058 40.3624 42.0098 40.3584 42.0138 40.3543L43.0592 39.3049L43.2145 39.1497C43.3002 39.068 43.3124 38.9374 43.2552 38.8353L42.4222 37.4143L42.3365 37.2631C42.3446 37.2468 42.3528 37.2346 42.3569 37.2183C42.4917 36.9608 42.6059 36.6873 42.6918 36.4097L44.4517 35.9442C44.566 35.9156 44.6477 35.8175 44.6477 35.6909V33.9923C44.6477 33.8739 44.566 33.7718 44.4517 33.7431Z" fill="#ED524E"/>
<path d="M37.7011 38.046C39.4701 38.046 40.9042 36.6119 40.9042 34.8429C40.9042 33.0739 39.4701 31.6398 37.7011 31.6398C35.9321 31.6398 34.498 33.0739 34.498 34.8429C34.498 36.6119 35.9321 38.046 37.7011 38.046Z" fill="#4F5D99"/>
<path d="M37.7025 37.356C39.0905 37.356 40.2156 36.2309 40.2156 34.8429C40.2156 33.455 39.0905 32.3298 37.7025 32.3298C36.3146 32.3298 35.1895 33.455 35.1895 34.8429C35.1895 36.2309 36.3146 37.356 37.7025 37.356Z" fill="white"/>
</g>
</g>
<defs>
<filter id="filter0_d_748_2136" x="-2.64648" y="2.21228" width="51.2949" height="45.5754" filterUnits="userSpaceOnUse" color-interpolation-filters="sRGB">
<feFlood flood-opacity="0" result="BackgroundImageFix"/>
<feColorMatrix in="SourceAlpha" type="matrix" values="0 0 0 0 0 0 0 0 0 0 0 0 0 0 0 0 0 0 127 0" result="hardAlpha"/>
<feOffset dy="2"/>
<feGaussianBlur stdDeviation="2"/>
<feComposite in2="hardAlpha" operator="out"/>
<feColorMatrix type="matrix" values="0 0 0 0 0 0 0 0 0 0 0 0 0 0 0 0 0 0 0.2 0"/>
<feBlend mode="normal" in2="BackgroundImageFix" result="effect1_dropShadow_748_2136"/>
<feBlend mode="normal" in="SourceGraphic" in2="effect1_dropShadow_748_2136" result="shape"/>
</filter>
<clipPath id="clip0_748_2136">
<rect width="46" height="46" fill="white"/>
</clipPath>
</defs>
</svg>
