<svg width="46" height="46" viewBox="0 0 46 46" fill="none" xmlns="http://www.w3.org/2000/svg">
<path fill-rule="evenodd" clip-rule="evenodd" d="M18.9766 43.284L18.9767 40.6365L38.4403 40.6364L40.4165 39.7278L44.3628 40.6364V43.2841L40.4165 44.1927L38.4402 43.2841L18.9766 43.284Z" fill="#D8ECFE"/>
<path fill-rule="evenodd" clip-rule="evenodd" d="M18.9766 43.284L18.9767 42.2551L38.4402 42.2552L40.4165 43.1639L44.3628 42.2552V43.284L40.4165 44.1928L38.4402 43.284H18.9766Z" fill="#C4E2FF"/>
<path fill-rule="evenodd" clip-rule="evenodd" d="M13.9863 44.151V39.7695C13.9863 39.5431 14.1715 39.3579 14.3979 39.3579H24.8923C25.3369 39.3579 25.7008 39.7217 25.7008 40.1664V43.7541C25.7008 44.1987 25.337 44.5626 24.8923 44.5626H14.3979C14.1716 44.5626 13.9863 44.3774 13.9863 44.151Z" fill="#F1BA84"/>
<path fill-rule="evenodd" clip-rule="evenodd" d="M13.9863 44.151V39.7694C13.9863 39.543 14.1715 39.3578 14.3979 39.3578H15.0152V43.1221C15.0152 43.3484 15.2004 43.5337 15.4267 43.5337H25.7007V43.7541C25.7007 44.1987 25.3369 44.5626 24.8922 44.5626H14.3979C14.1716 44.5626 13.9863 44.3774 13.9863 44.151Z" fill="#E3A76F"/>
<path fill-rule="evenodd" clip-rule="evenodd" d="M36.6119 32.4592C37.2222 31.0069 38.6579 29.9869 40.3321 29.9869C41.9042 29.987 43.2661 30.8865 43.9316 32.1987L39.8762 32.1988L38.8244 34.0205L39.8762 35.8421L43.9316 35.8422C43.2661 37.1545 41.9043 38.0539 40.3321 38.054C38.6579 38.054 37.2222 37.034 36.6119 35.5817H21.7337C21.1235 37.0341 19.6877 38.054 18.0136 38.054C16.4414 38.0541 15.0795 37.1545 14.4141 35.8422H18.4694L19.5211 34.0205L18.4693 32.1988H14.4141C15.0795 30.8865 16.4414 29.987 18.0135 29.987C19.6876 29.9869 21.1234 31.0069 21.7336 32.4593L36.6119 32.4592Z" fill="#9FACBA"/>
<path fill-rule="evenodd" clip-rule="evenodd" d="M37.0541 31.6699C37.065 31.6546 37.076 31.6395 37.0872 31.6244C37.0807 31.6395 37.074 31.6547 37.0676 31.6699H37.0541ZM43.4062 31.4094C43.6107 31.6499 43.7874 31.9146 43.9315 32.1987L39.8761 32.1988L39.28 33.2311L40.3317 31.4095L43.4062 31.4094ZM43.8619 35.8421H43.9315C43.2659 37.1544 41.9041 38.0538 40.332 38.0539C38.658 38.0539 37.2221 37.0339 36.6118 35.5816H21.734C21.9094 35.3374 22.0582 35.073 22.1762 34.7922H37.0676C37.6778 36.2446 39.1136 37.2646 40.7878 37.2646C42.0195 37.2646 43.1221 36.7124 43.8619 35.8421ZM21.714 35.6271C21.0931 37.0551 19.67 38.0538 18.0136 38.0538C16.4414 38.0538 15.0795 37.1542 14.4141 35.8419H15.3951C16.1348 36.7121 17.2375 37.2644 18.4693 37.2644C19.7996 37.2645 20.9793 36.6205 21.714 35.6271ZM19.5212 34.0203L18.4694 32.1987H14.4141C14.5581 31.9146 14.7349 31.6498 14.9394 31.4094H18.9252L19.9769 33.231L19.5212 34.0203Z" fill="#8D9CA8"/>
<path fill-rule="evenodd" clip-rule="evenodd" d="M36.6154 3.73547C38.133 3.73547 39.3708 4.97325 39.3708 6.4908V25.5319C39.3708 26.2907 39.1003 26.9436 38.5638 27.4802L34.3916 31.6523C33.8551 32.1888 33.2021 32.4592 32.4434 32.4592H7.96032C6.44277 32.4592 5.20508 31.2216 5.20508 29.7039V6.4908C5.20508 4.97325 6.44277 3.73547 7.96032 3.73547H36.6154Z" fill="#ECEFF1"/>
<path fill-rule="evenodd" clip-rule="evenodd" d="M36.6159 3.73547C38.1334 3.73547 39.3712 4.97325 39.3712 6.4908V25.5319C39.3712 26.2907 39.1007 26.9436 38.5642 27.4802H37.2358V25.5319V20.9805V6.4908C37.2358 4.97325 35.998 3.73547 34.4805 3.73547H36.6159Z" fill="#D1D1D6"/>
<path fill-rule="evenodd" clip-rule="evenodd" d="M33.584 27.362V32.2205C33.8766 32.0869 34.146 31.8973 34.391 31.6523L38.5631 27.4803C38.8082 27.2352 38.9977 26.9659 39.1313 26.6733H34.2728C33.8934 26.6732 33.584 26.9826 33.584 27.362Z" fill="#D1D1D6"/>
<path fill-rule="evenodd" clip-rule="evenodd" d="M37.2363 28.8086L38.5648 27.4802C38.8099 27.2351 38.9993 26.9658 39.1329 26.6732H37.2363V28.8086Z" fill="#B1B1B5"/>
<path fill-rule="evenodd" clip-rule="evenodd" d="M18.423 13.9343H15.8193C15.4272 13.9343 15.1074 14.254 15.1074 14.646V17.2498C15.1074 17.6418 15.4272 17.9615 15.8193 17.9615H18.423C18.815 17.9615 19.1348 17.6418 19.1348 17.2498V14.646C19.1348 14.254 18.815 13.9343 18.423 13.9343ZM18.423 24.2667H15.8193C15.4272 24.2667 15.1074 24.5864 15.1074 24.9784V27.5822C15.1074 27.9742 15.4272 28.2939 15.8193 28.2939H18.423C18.815 28.2939 19.1348 27.9742 19.1348 27.5822V24.9784C19.1348 24.5864 18.815 24.2667 18.423 24.2667ZM28.7554 24.2667H26.1516C25.7597 24.2667 25.4399 24.5864 25.4399 24.9784V27.5822C25.4399 27.9742 25.7597 28.2939 26.1516 28.2939H28.7554C29.1475 28.2939 29.4671 27.9742 29.4671 27.5822V24.9784C29.4671 24.5864 29.1474 24.2667 28.7554 24.2667ZM23.5892 24.2667H20.9854C20.5935 24.2667 20.2737 24.5864 20.2737 24.9784V27.5822C20.2737 27.9742 20.5935 28.2939 20.9854 28.2939H23.5892C23.9812 28.2939 24.301 27.9742 24.301 27.5822V24.9784C24.301 24.5864 23.9812 24.2667 23.5892 24.2667ZM18.423 19.1005H15.8193C15.4272 19.1005 15.1074 19.4202 15.1074 19.8122V22.4161C15.1074 22.8081 15.4272 23.1279 15.8193 23.1279H18.423C18.815 23.1279 19.1348 22.8081 19.1348 22.4161V19.8123C19.1348 19.4202 18.815 19.1005 18.423 19.1005ZM33.9216 19.1005H31.3177C30.9258 19.1005 30.606 19.4202 30.606 19.8122V22.4161C30.606 22.8081 30.9258 23.1279 31.3177 23.1279H33.9216C34.3137 23.1279 34.6333 22.8081 34.6333 22.4161V19.8123C34.6333 19.4202 34.3136 19.1005 33.9216 19.1005ZM28.7554 19.1005H26.1516C25.7597 19.1005 25.4399 19.4202 25.4399 19.8122V22.4161C25.4399 22.8081 25.7597 23.1279 26.1516 23.1279H28.7554C29.1475 23.1279 29.4671 22.8081 29.4671 22.4161V19.8123C29.4671 19.4202 29.1474 19.1005 28.7554 19.1005ZM23.5892 19.1005H20.9854C20.5935 19.1005 20.2737 19.4202 20.2737 19.8122V22.4161C20.2737 22.8081 20.5935 23.1279 20.9854 23.1279H23.5892C23.9812 23.1279 24.301 22.8081 24.301 22.4161V19.8123C24.301 19.4202 23.9812 19.1005 23.5892 19.1005ZM33.9216 13.9343H31.3177C30.9258 13.9343 30.606 14.254 30.606 14.646V17.2498C30.606 17.6418 30.9258 17.9615 31.3177 17.9615H33.9216C34.3137 17.9615 34.6333 17.6418 34.6333 17.2498V14.646C34.6333 14.254 34.3136 13.9343 33.9216 13.9343ZM28.7554 13.9343H26.1516C25.7597 13.9343 25.4399 14.254 25.4399 14.646V17.2498C25.4399 17.6418 25.7597 17.9615 26.1516 17.9615H28.7554C29.1475 17.9615 29.4671 17.6418 29.4671 17.2498V14.646C29.4671 14.254 29.1474 13.9343 28.7554 13.9343ZM23.5892 13.9343H20.9854C20.5935 13.9343 20.2737 14.254 20.2737 14.646V17.2498C20.2737 17.6418 20.5935 17.9615 20.9854 17.9615H23.5892C23.9812 17.9615 24.301 17.6418 24.301 17.2498V14.646C24.301 14.254 23.9812 13.9343 23.5892 13.9343Z" fill="#8AC9FE"/>
<path fill-rule="evenodd" clip-rule="evenodd" d="M18.423 13.9343L18.4229 16.538C18.4229 16.9301 18.1032 17.2499 17.7112 17.2499H15.1074C15.1074 17.6419 15.4272 17.9616 15.8193 17.9616H18.423C18.815 17.9616 19.1348 17.6418 19.1348 17.2499V14.6461C19.1348 14.254 18.815 13.9343 18.423 13.9343ZM18.423 19.1005L18.4229 21.7042C18.4229 22.0963 18.1032 22.4161 17.7112 22.4161H15.1074C15.1074 22.8081 15.4272 23.1279 15.8193 23.1279H18.423C18.815 23.1279 19.1348 22.8081 19.1348 22.4161V19.8123C19.1348 19.4202 18.815 19.1005 18.423 19.1005ZM28.7554 24.2667V26.8704C28.7554 27.2624 28.4357 27.5822 28.0437 27.5822H25.4399C25.4399 27.9742 25.7597 28.2939 26.1516 28.2939H28.7554C29.1475 28.2939 29.4671 27.9742 29.4671 27.5822V24.9784C29.4671 24.5864 29.1474 24.2667 28.7554 24.2667ZM23.5892 24.2667L23.5891 26.8704C23.5891 27.2624 23.2694 27.5822 22.8774 27.5822H20.2736C20.2736 27.9742 20.5934 28.2939 20.9854 28.2939H23.5891C23.9811 28.2939 24.3009 27.9742 24.3009 27.5822V24.9784C24.301 24.5864 23.9812 24.2667 23.5892 24.2667ZM18.423 24.2667L18.4229 26.8704C18.4229 27.2624 18.1032 27.5822 17.7112 27.5822H15.1074C15.1074 27.9742 15.4272 28.2939 15.8193 28.2939H18.423C18.815 28.2939 19.1348 27.9742 19.1348 27.5822V24.9784C19.1348 24.5864 18.815 24.2667 18.423 24.2667ZM33.9216 19.1005V21.7042C33.9216 22.0963 33.6018 22.4161 33.2098 22.4161H30.606C30.606 22.8081 30.9258 23.1279 31.3177 23.1279H33.9216C34.3137 23.1279 34.6333 22.8081 34.6333 22.4161V19.8123C34.6333 19.4202 34.3136 19.1005 33.9216 19.1005ZM28.7554 19.1005V21.7042C28.7554 22.0963 28.4357 22.4161 28.0437 22.4161H25.4399C25.4399 22.8081 25.7597 23.1279 26.1516 23.1279H28.7554C29.1475 23.1279 29.4671 22.8081 29.4671 22.4161V19.8123C29.4671 19.4202 29.1474 19.1005 28.7554 19.1005ZM23.5892 19.1005L23.5891 21.7042C23.5891 22.0963 23.2694 22.4161 22.8774 22.4161H20.2736C20.2736 22.8081 20.5934 23.1279 20.9854 23.1279H23.5891C23.9811 23.1279 24.3009 22.8081 24.3009 22.4161V19.8123C24.301 19.4202 23.9812 19.1005 23.5892 19.1005ZM33.9216 13.9343V16.538C33.9216 16.9301 33.6018 17.2499 33.2098 17.2499H30.606C30.606 17.6419 30.9258 17.9616 31.3177 17.9616H33.9216C34.3137 17.9616 34.6333 17.6418 34.6333 17.2499V14.6461C34.6333 14.254 34.3136 13.9343 33.9216 13.9343ZM28.7554 13.9343V16.538C28.7554 16.9301 28.4357 17.2499 28.0437 17.2499H25.4399C25.4399 17.6419 25.7597 17.9616 26.1516 17.9616H28.7554C29.1475 17.9616 29.4671 17.6418 29.4671 17.2499V14.6461C29.4671 14.254 29.1474 13.9343 28.7554 13.9343ZM23.5892 13.9343L23.5891 16.538C23.5891 16.9301 23.2694 17.2499 22.8774 17.2499H20.2736C20.2736 17.6419 20.5934 17.9616 20.9854 17.9616H23.5891C23.9811 17.9616 24.3009 17.6418 24.3009 17.2499V14.6461C24.301 14.254 23.9812 13.9343 23.5892 13.9343Z" fill="#60B7FF"/>
<path fill-rule="evenodd" clip-rule="evenodd" d="M13.2569 24.2667H10.6531C10.2611 24.2667 9.94141 24.5864 9.94141 24.9784V27.5822C9.94141 27.9742 10.2612 28.2939 10.6531 28.2939H13.2569C13.649 28.2939 13.9687 27.9742 13.9687 27.5822V24.9784C13.9687 24.5864 13.6489 24.2667 13.2569 24.2667ZM13.2569 13.9343H10.6531C10.2611 13.9343 9.94141 14.254 9.94141 14.646V17.2498C9.94141 17.6418 10.2612 17.9615 10.6531 17.9615H13.2569C13.649 17.9615 13.9687 17.6418 13.9687 17.2498V14.646C13.9687 14.254 13.6489 13.9343 13.2569 13.9343ZM13.2569 19.1005H10.6531C10.2611 19.1005 9.94141 19.4202 9.94141 19.8122V22.4161C9.94141 22.8081 10.2612 23.1279 10.6531 23.1279H13.2569C13.649 23.1279 13.9687 22.8081 13.9687 22.4161V19.8123C13.9687 19.4202 13.6489 19.1005 13.2569 19.1005Z" fill="#FE646F"/>
<path fill-rule="evenodd" clip-rule="evenodd" d="M13.2569 19.1005V21.7042C13.2569 22.0963 12.9372 22.4161 12.5452 22.4161H9.94141C9.94141 22.8081 10.2612 23.1279 10.6531 23.1279H13.2569C13.649 23.1279 13.9687 22.8081 13.9687 22.4161V19.8123C13.9687 19.4202 13.6489 19.1005 13.2569 19.1005ZM13.2569 13.9343V16.538C13.2569 16.9301 12.9372 17.2499 12.5452 17.2499H9.94141C9.94141 17.6419 10.2612 17.9616 10.6531 17.9616H13.2569C13.649 17.9616 13.9687 17.6418 13.9687 17.2499V14.6461C13.9687 14.254 13.6489 13.9343 13.2569 13.9343ZM13.2569 24.2667V26.8704C13.2569 27.2624 12.9372 27.5822 12.5452 27.5822H9.94141C9.94141 27.9742 10.2612 28.2939 10.6531 28.2939H13.2569C13.649 28.2939 13.9687 27.9742 13.9687 27.5822V24.9784C13.9687 24.5864 13.6489 24.2667 13.2569 24.2667Z" fill="#FD4755"/>
<path fill-rule="evenodd" clip-rule="evenodd" d="M5.20508 9.74854H39.3709V6.4908C39.3709 4.97325 38.1331 3.73547 36.6155 3.73547C27.1314 3.73547 17.4445 3.73547 7.96032 3.73547C6.44277 3.73547 5.20508 4.97325 5.20508 6.4908V9.74854Z" fill="#D1D1D6"/>
<path fill-rule="evenodd" clip-rule="evenodd" d="M37.2358 9.74854H39.3712V6.4908C39.3712 4.97325 38.1334 3.73547 36.6159 3.73547H34.4805C35.998 3.73547 37.2358 4.97325 37.2358 6.4908V9.74854Z" fill="#B1B1B5"/>
<path fill-rule="evenodd" clip-rule="evenodd" d="M10.1166 1.43726H11.4824C11.8618 1.43726 12.1712 1.74668 12.1712 2.12609V6.30436C12.1712 6.68377 11.8618 6.99319 11.4824 6.99319H10.1166C9.73716 6.99319 9.42773 6.68377 9.42773 6.30436V2.12609C9.42773 1.74668 9.73725 1.43726 10.1166 1.43726ZM33.0935 1.43726H34.4594C34.8388 1.43726 35.1482 1.74668 35.1482 2.12609V6.30436C35.1482 6.68377 34.8388 6.99319 34.4594 6.99319H33.0935C32.7141 6.99319 32.4046 6.68377 32.4046 6.30436V2.12609C32.4046 1.74668 32.7141 1.43726 33.0935 1.43726ZM25.4345 1.43726H26.8004C27.1798 1.43726 27.4892 1.74668 27.4892 2.12609V6.30436C27.4892 6.68377 27.1798 6.99319 26.8004 6.99319H25.4345C25.0551 6.99319 24.7456 6.68377 24.7456 6.30436V2.12609C24.7456 1.74668 25.0551 1.43726 25.4345 1.43726ZM17.7756 1.43726H19.1414C19.5208 1.43726 19.8302 1.74668 19.8302 2.12609V6.30436C19.8302 6.68377 19.5208 6.99319 19.1414 6.99319H17.7756C17.3962 6.99319 17.0867 6.68377 17.0867 6.30436V2.12609C17.0867 1.74668 17.3962 1.43726 17.7756 1.43726Z" fill="#837683"/>
<path fill-rule="evenodd" clip-rule="evenodd" d="M32.4046 6.30436C32.4046 6.68377 32.714 6.99319 33.0934 6.99319H34.4593C34.8387 6.99319 35.1481 6.68377 35.1481 6.30436V3.80122V3.73546V2.12609C35.1481 1.74668 34.8387 1.43726 34.4593 1.43726V3.73546V5.61553C34.4593 5.99494 34.1499 6.30436 33.7705 6.30436H32.4046ZM18.4524 6.30436L17.0866 6.30445C17.0866 6.68386 17.3961 6.99328 17.7755 6.99328H19.1414C19.5208 6.99328 19.8302 6.68386 19.8302 6.30445V3.73546V2.12609C19.8302 1.74668 19.5208 1.43726 19.1414 1.43726V3.73546V5.61553C19.1413 5.99494 18.8319 6.30436 18.4524 6.30436ZM11.4824 6.99319C11.8618 6.99319 12.1712 6.68377 12.1712 6.30436V3.73546V2.12609C12.1712 1.74668 11.8618 1.43726 11.4824 1.43726V3.73546V5.61553C11.4824 5.99494 11.1729 6.30436 10.7935 6.30436L9.42773 6.30445C9.42773 6.68386 9.73716 6.99328 10.1166 6.99328L11.4824 6.99319ZM26.8003 6.99319C27.1797 6.99319 27.4891 6.68377 27.4891 6.30436V3.73546V2.12609C27.4891 1.74668 27.1797 1.43726 26.8003 1.43726V3.73546V5.61553C26.8003 5.99494 26.4909 6.30436 26.1114 6.30436L24.7456 6.30445C24.7456 6.68386 25.0551 6.99328 25.4345 6.99328L26.8003 6.99319Z" fill="#685E68"/>
<path fill-rule="evenodd" clip-rule="evenodd" d="M14.1069 25.4874C15.0251 25.7059 15.902 26.0699 16.7057 26.5648L18.3944 25.8148L20.3848 27.8052L19.6349 29.4934C20.13 30.2972 20.494 31.1745 20.7125 32.0929L22.4355 32.7561V35.5709L20.7121 36.2342C20.4936 37.1524 20.1295 38.0294 19.6347 38.833L20.3847 40.5218L18.3944 42.5122L16.7061 41.7624C15.9023 42.2574 15.025 42.6215 14.1066 42.84L13.4434 44.5629H10.6286L9.96532 42.8396C9.04712 42.6211 8.17016 42.2571 7.3665 41.7622L5.6778 42.5122L3.6874 40.5218L4.43724 38.8336C3.9422 38.0297 3.57815 37.1524 3.35965 36.234L1.63672 35.5709V32.7561L3.35992 32.0928C3.57842 31.1745 3.94247 30.2974 4.43742 29.4938L3.68749 27.8052L5.6778 25.8148L7.36659 26.5648C8.17025 26.0699 9.04721 25.7059 9.96541 25.4874L10.6288 23.764H13.4435L14.1069 25.4874Z" fill="#FFE177"/>
<path fill-rule="evenodd" clip-rule="evenodd" d="M7.36686 41.7621L5.67816 42.5121L5.41806 42.2521L7.00138 41.5489C7.12159 41.6229 7.24341 41.6939 7.36686 41.7621ZM14.1071 25.4874C15.0253 25.7059 15.9023 26.0699 16.7059 26.5648L16.2259 26.778C15.4223 26.2831 14.1798 25.7059 13.2616 25.4874L12.5983 23.764H13.4438L14.1071 25.4874ZM16.7065 41.7623C15.9026 42.2573 15.0253 42.6214 14.1069 42.8399L13.4438 44.5628H12.5983L13.2614 42.8399C14.1798 42.6214 15.4225 42.0441 16.2264 41.5491L16.7065 41.7623ZM5.41797 26.0748L5.67798 25.8148L7.36677 26.5648C7.24341 26.6329 7.1215 26.7039 7.00129 26.778L5.41797 26.0748ZM17.8092 26.0748L18.3946 25.8148L20.385 27.8052L19.6352 29.4934C20.1302 30.2972 20.4943 31.1745 20.7128 32.0929L22.4357 32.7561V35.5709L20.7123 36.2342C20.4938 37.1524 20.1298 38.0294 19.6349 38.833L20.385 40.5218L18.3946 42.5122L17.8091 42.2522L19.5394 40.5218L18.7894 38.833C19.2843 38.0294 19.6483 37.1524 19.8668 36.2342L21.5902 35.5709V32.7561L19.8673 32.0929C19.6488 31.1745 19.2847 30.2972 18.7897 29.4934L19.5395 27.8052L17.8092 26.0748Z" fill="#FFD064"/>
<path d="M15.501 37.6314C17.4177 35.7148 17.4177 32.6073 15.501 30.6906C13.5844 28.774 10.4769 28.774 8.56023 30.6906C6.64359 32.6073 6.64359 35.7148 8.56023 37.6314C10.4769 39.548 13.5844 39.548 15.501 37.6314Z" fill="#ECEFF1"/>
<path fill-rule="evenodd" clip-rule="evenodd" d="M12.0356 29.2548C9.32444 29.2548 7.12695 31.4522 7.12695 34.1635C7.12695 36.8747 9.32444 39.0721 12.0356 39.0721C12.167 39.0721 12.2972 39.0668 12.426 39.0566C9.89746 38.8577 7.90779 36.7431 7.90779 34.1635C7.90779 31.5837 9.89737 29.4692 12.426 29.2702C12.2973 29.2601 12.167 29.2548 12.0356 29.2548Z" fill="#D1D1D6"/>
</svg>
