<svg width="45" height="45" viewBox="0 0 45 45" fill="none" xmlns="http://www.w3.org/2000/svg">
<path d="M40.4421 27.9872L39.2186 27.2805C38.9472 27.1238 38.8185 26.8088 38.8931 26.5036C39.206 25.2204 39.3754 23.8802 39.3754 22.5C39.3754 21.1198 39.206 19.7796 38.8931 18.4964C38.8185 18.192 38.9465 17.8763 39.2186 17.7195L40.4421 17.0128C41.115 16.6247 41.3449 15.7648 40.9567 15.0919L38.1442 10.2206C37.7561 9.54773 36.8962 9.31781 36.2233 9.70594L34.9978 10.4133C34.7264 10.5701 34.3889 10.523 34.1617 10.3057C32.2317 8.45859 29.865 7.0643 27.231 6.29648C26.9294 6.2093 26.7192 5.9407 26.7192 5.62711V4.21875C26.7192 3.4418 26.0899 2.8125 25.3129 2.8125H19.6879C18.911 2.8125 18.2817 3.4418 18.2817 4.21875V5.62711C18.2817 5.9407 18.0714 6.2093 17.7705 6.29719C15.1366 7.065 12.7699 8.46 10.8398 10.3064C10.6134 10.523 10.2759 10.5708 10.0038 10.414L8.77823 9.70664C8.10534 9.31852 7.24542 9.54844 6.85729 10.2213L4.04479 15.0926C3.65667 15.7655 3.88659 16.6254 4.55948 17.0135L5.78292 17.7202C6.05432 17.877 6.183 18.192 6.10846 18.4971C5.79487 19.7796 5.62542 21.1198 5.62542 22.5C5.62542 23.8802 5.79487 25.2204 6.10776 26.5036C6.18229 26.808 6.05432 27.1238 5.78221 27.2805L4.55878 27.9872C3.88589 28.3753 3.65596 29.2352 4.04409 29.9081L6.85659 34.7794C7.24471 35.4523 8.10464 35.6822 8.77753 35.2941L10.0031 34.5867C10.2745 34.4299 10.612 34.477 10.8391 34.6943C12.7692 36.5414 15.1359 37.9357 17.7698 38.7035C18.0714 38.7907 18.2817 39.0593 18.2817 39.3729V40.7812C18.2817 41.5582 18.911 42.1875 19.6879 42.1875H25.3129C26.0899 42.1875 26.7192 41.5582 26.7192 40.7812V39.3729C26.7192 39.0593 26.9294 38.7907 27.2303 38.7028C29.8643 37.935 32.231 36.54 34.161 34.6936C34.3875 34.477 34.725 34.4292 34.9971 34.586L36.2226 35.2934C36.8955 35.6815 37.7554 35.4516 38.1435 34.7787L40.956 29.9074C41.3449 29.2352 41.1143 28.3753 40.4421 27.9872Z" fill="#0A5078"/>
<path d="M22.5 36.5625C29.8782 36.5625 35.8594 30.5813 35.8594 23.2031C35.8594 15.8249 29.8782 9.84375 22.5 9.84375C15.1218 9.84375 9.14062 15.8249 9.14062 23.2031C9.14062 30.5813 15.1218 36.5625 22.5 36.5625Z" fill="#00325A"/>
<path d="M22.5 35.8594C29.8782 35.8594 35.8594 29.8782 35.8594 22.5C35.8594 15.1218 29.8782 9.14062 22.5 9.14062C15.1218 9.14062 9.14062 15.1218 9.14062 22.5C9.14062 29.8782 15.1218 35.8594 22.5 35.8594Z" fill="#FAB400"/>
<path d="M22.5 33.75C28.7132 33.75 33.75 28.7132 33.75 22.5C33.75 16.2868 28.7132 11.25 22.5 11.25C16.2868 11.25 11.25 16.2868 11.25 22.5C11.25 28.7132 16.2868 33.75 22.5 33.75Z" fill="#F0F0F0"/>
<path d="M27.4219 21.7969H20.7422V18.2812C20.7422 17.3109 21.5297 16.5234 22.5 16.5234C23.5266 16.5234 24.2578 17.4234 24.2578 18.3867V19.6875C24.2578 20.0742 24.5742 20.3906 24.9609 20.3906H25.6641C26.0508 20.3906 26.3672 20.0742 26.3672 19.6875V18.2812C26.3672 16.1508 24.6305 14.4141 22.5 14.4141C20.2641 14.4141 18.6328 16.3336 18.6328 18.457V21.7969H17.5781C17.19 21.7969 16.875 22.1119 16.875 22.5V29.5312C16.875 29.9194 17.19 30.2344 17.5781 30.2344H27.4219C27.81 30.2344 28.125 29.9194 28.125 29.5312V22.5C28.125 22.1119 27.81 21.7969 27.4219 21.7969Z" fill="#D2D2D2"/>
<path d="M33.75 22.5C33.75 22.6195 33.75 22.7391 33.743 22.8516C33.5602 16.7977 28.5961 11.9531 22.5 11.9531C16.4039 11.9531 11.4398 16.7977 11.257 22.8516C11.25 22.7391 11.25 22.6195 11.25 22.5C11.25 16.2844 16.2844 11.25 22.5 11.25C28.7156 11.25 33.75 16.2844 33.75 22.5Z" fill="#D2D2D2"/>
<path d="M26.3672 17.5781V18.9844C26.3672 19.3711 26.0508 19.6875 25.6641 19.6875H24.9609C24.5742 19.6875 24.2578 19.3711 24.2578 18.9844V17.6836C24.2578 16.7203 23.5266 15.8203 22.5 15.8203C21.5297 15.8203 20.7422 16.6078 20.7422 17.5781V23.2031H18.6328V17.7539C18.6328 15.6305 20.2641 13.7109 22.5 13.7109C24.6305 13.7109 26.3672 15.4477 26.3672 17.5781Z" fill="#0A5078"/>
<path d="M18.6328 20.3906H20.7422V23.2031H18.6328V20.3906Z" fill="#00325A"/>
<path d="M27.4219 29.5312H17.5781C17.19 29.5312 16.875 29.2163 16.875 28.8281V21.7969C16.875 21.4087 17.19 21.0938 17.5781 21.0938H27.4219C27.81 21.0938 28.125 21.4087 28.125 21.7969V28.8281C28.125 29.2163 27.81 29.5312 27.4219 29.5312Z" fill="#C80A50"/>
<path d="M21.1027 27.7959L19.8863 26.5795C19.6212 26.3144 19.6212 25.8848 19.8863 25.6205L20.3658 25.1409C20.6309 24.8758 21.0605 24.8758 21.3249 25.1409L21.8213 25.6373L23.6747 23.7839C23.9398 23.5188 24.3694 23.5188 24.6338 23.7839L25.1133 24.2634C25.3784 24.5285 25.3784 24.9581 25.1133 25.2225L22.5406 27.7952C22.144 28.1932 21.5 28.1932 21.1027 27.7959Z" fill="#A00028"/>
<path d="M21.1027 27.0928L19.8863 25.8764C19.6212 25.6113 19.6212 25.1817 19.8863 24.9173L20.3658 24.4378C20.6309 24.1727 21.0605 24.1727 21.3249 24.4378L21.8213 24.9342L23.6747 23.0808C23.9398 22.8157 24.3694 22.8157 24.6338 23.0808L25.1133 23.5603C25.3784 23.8254 25.3784 24.255 25.1133 24.5194L22.5406 27.0921C22.144 27.4901 21.5 27.4901 21.1027 27.0928Z" fill="#F0F0F0"/>
</svg>
