<svg width="45" height="45" viewBox="0 0 45 45" fill="none" xmlns="http://www.w3.org/2000/svg">
<g clip-path="url(#clip0_321_674)">
<path d="M7.29395 3.95508C7.29395 2.13486 8.76963 0.65918 10.5898 0.65918H34.4108C36.2311 0.65918 37.7067 2.13486 37.7067 3.95508V41.0449C37.7067 42.8651 36.2311 44.3408 34.4108 44.3408H10.5898C8.76963 44.3408 7.29395 42.8651 7.29395 41.0449V3.95508Z" fill="#F5F8F9"/>
<path d="M37.707 3.95508V41.0449C37.707 42.8651 36.2305 44.3408 34.4111 44.3408H30.8955C32.7148 44.3408 34.1914 42.8651 34.1914 41.0449V3.95508C34.1914 2.13486 32.7148 0.65918 30.8955 0.65918H34.4111C36.2305 0.65918 37.707 2.13486 37.707 3.95508Z" fill="#E6EDF4"/>
<path d="M34.4108 45H10.5898C8.40901 45 6.63477 43.2258 6.63477 41.0449V3.95508C6.63477 1.77425 8.40901 0 10.5898 0H34.4108C36.5917 0 38.3659 1.77425 38.3659 3.95508V41.0449C38.3659 43.2258 36.5917 45 34.4108 45ZM10.5898 1.31836C9.13596 1.31836 7.95312 2.50119 7.95312 3.95508V41.0449C7.95312 42.4988 9.13596 43.6816 10.5898 43.6816H34.4108C35.8647 43.6816 37.0476 42.4988 37.0476 41.0449V3.95508C37.0476 2.50119 35.8647 1.31836 34.4108 1.31836H10.5898Z" fill="#85808E"/>
<path d="M23.5775 3.95508H19.1826C18.8186 3.95508 18.5234 3.65994 18.5234 3.2959C18.5234 2.93186 18.8186 2.63672 19.1826 2.63672H23.5775C23.9415 2.63672 24.2367 2.93186 24.2367 3.2959C24.2367 3.65994 23.9415 3.95508 23.5775 3.95508Z" fill="#CEE0EA"/>
<path d="M25.8184 3.95544C26.1824 3.95544 26.4775 3.66032 26.4775 3.29626C26.4775 2.93221 26.1824 2.63708 25.8184 2.63708C25.4543 2.63708 25.1592 2.93221 25.1592 3.29626C25.1592 3.66032 25.4543 3.95544 25.8184 3.95544Z" fill="#CEE0EA"/>
<path d="M42.7347 20.858L41.1613 21.0541H29.7761C29.0827 21.0541 28.5205 20.492 28.5205 19.7985V6.48943C28.5205 5.79597 29.0827 5.23383 29.7761 5.23383H41.1737L42.7471 5.45478C43.4406 5.45478 44.0027 6.01693 44.0027 6.71039L43.9903 19.6024C43.9902 20.2958 43.4281 20.858 42.7347 20.858Z" fill="#F7E07C"/>
<path d="M44.3409 6.48897V19.7982C44.3409 20.4917 43.7784 21.0542 43.085 21.0542H40.8877C41.5812 21.0542 42.1437 20.4917 42.1437 19.7982V6.48897C42.1437 5.79639 41.5812 5.23389 40.8877 5.23389H43.085C43.7784 5.23389 44.3409 5.79639 44.3409 6.48897Z" fill="#F7CE6B"/>
<path d="M42.7347 39.5699L41.1613 39.7661H29.7761C29.0827 39.7661 28.5205 39.204 28.5205 38.5105V25.2014C28.5205 24.5079 29.0827 23.9458 29.7761 23.9458H41.1737L42.7471 24.1668C43.4406 24.1668 44.0027 24.7289 44.0027 25.4224L43.9903 38.3143C43.9902 39.0078 43.4281 39.5699 42.7347 39.5699Z" fill="#F99BE3"/>
<path d="M44.3409 25.2009V38.5102C44.3409 39.2037 43.7784 39.7662 43.085 39.7662H40.8877C41.5812 39.7662 42.1437 39.2037 42.1437 38.5102V25.2009C42.1437 24.5084 41.5812 23.9459 40.8877 23.9459H43.085C43.7784 23.9459 44.3409 24.5084 44.3409 25.2009Z" fill="#EF89D7"/>
<path d="M14.9144 39.5699L13.4571 39.7661H1.9558C1.26234 39.7661 0.700195 39.204 0.700195 38.5105V25.2014C0.700195 24.5079 1.26234 23.9458 1.9558 23.9458H14.4727L14.9268 24.1668C15.6202 24.1668 16.1824 24.7289 16.1824 25.4224L16.17 38.3143C16.1699 39.0078 15.6078 39.5699 14.9144 39.5699Z" fill="#90D1FC"/>
<path d="M16.5206 25.2009V38.5102C16.5206 39.2037 15.9581 39.7662 15.2646 39.7662H13.2168C13.9103 39.7662 14.4728 39.2037 14.4728 38.5102V23.9459H15.2646C15.9581 23.9459 16.5206 24.5084 16.5206 25.2009Z" fill="#66C1FF"/>
<path d="M15.2239 21.0541H1.91479C1.22133 21.0541 0.65918 20.492 0.65918 19.7985V6.48943C0.65918 5.79597 1.22133 5.23383 1.91479 5.23383H13.0532H15.2239C15.9173 5.23383 16.4795 5.79597 16.4795 6.48943V19.7986C16.4795 20.492 15.9173 21.0541 15.2239 21.0541Z" fill="#ACE0A4"/>
<path d="M35.9499 18.3884H39.3441C39.9485 18.3884 40.4384 17.8985 40.4384 17.2942C40.4384 17.1197 40.3966 16.9478 40.3167 16.7928L38.1975 12.6822V8.47711H34.6635V12.6821L33.0283 16.2409L35.9499 18.3884Z" fill="#F5F8F9"/>
<path d="M39.124 9.13629H33.7363C33.3722 9.13629 33.0771 8.84115 33.0771 8.47711C33.0771 8.11307 33.3722 7.81793 33.7363 7.81793H39.1241C39.4882 7.81793 39.7833 8.11307 39.7833 8.47711C39.7833 8.84115 39.4882 9.13629 39.124 9.13629Z" fill="#E6EDF4"/>
<path d="M16.4802 6.48897V16.7485L11.5938 16.004L13.8145 13.144V6.48897C13.8145 5.79639 13.252 5.23389 12.5585 5.23389H15.2242C15.9177 5.23389 16.4802 5.79639 16.4802 6.48897Z" fill="#97D394"/>
<path d="M41.1928 28.4291L39.8419 27.0791C39.6521 26.8892 39.3444 26.8892 39.1546 27.0791L32.5654 33.6691L33.1375 35.2069L34.6027 35.7064L41.1928 29.1164C41.3826 28.9265 41.3826 28.6189 41.1928 28.4291Z" fill="#BEEDB9"/>
<path d="M34.603 35.7064L34.2295 36.08C34.153 36.1564 34.0563 36.2118 33.9508 36.2382L32.0137 36.7321C31.7272 36.8051 31.4662 36.5449 31.54 36.2584L32.0331 34.3213C32.0603 34.2158 32.1148 34.1191 32.1922 34.0418L32.5657 33.6691L34.603 35.7064Z" fill="#FFBC87"/>
<path d="M13.8138 13.144C13.8138 16.0295 11.482 18.3709 8.60098 18.3885L8.56934 13.144L12.2774 9.43591C13.2267 10.3843 13.8138 11.6956 13.8138 13.144Z" fill="#66C1FF"/>
<path d="M8.60127 18.3885H8.56963C5.67275 18.3885 3.3252 16.04 3.3252 13.144C3.3252 12.1948 3.57744 11.3036 4.01777 10.5363L8.56963 13.144L8.60127 18.3885Z" fill="#F99BE3"/>
<path d="M12.2775 9.43593L8.56943 13.144L4.01758 10.5363C4.92285 8.96044 6.62178 7.8996 8.56943 7.8996C10.0179 7.8996 11.3283 8.48671 12.2775 9.43593Z" fill="#F7E07C"/>
<path d="M31.416 23.6013L31.1269 26.0833C31.1269 26.2749 30.9739 26.4322 30.7823 26.4349C30.0968 26.4463 29.1309 26.7978 29.1309 26.7978C26.2867 27.1116 24.3109 27.9501 23.294 28.4871C22.7966 28.749 22.2024 28.749 21.7041 28.4871C20.471 27.8358 17.8255 26.7381 13.9275 26.6765C13.7359 26.6739 13.583 26.5166 13.583 26.325V20.2342L14.2352 18.8578L13.583 17.3962H30.5644V23.6171C30.8421 23.6065 31.1251 23.6013 31.416 23.6013Z" fill="#767482"/>
<path d="M31.416 17.3962V26.325C31.416 26.5166 31.2631 26.6739 31.0715 26.6765C30.3859 26.6871 29.7382 26.7302 29.1309 26.7978V20.9689C29.1309 20.5629 28.8021 20.2342 28.3961 20.2342H13.583V17.3962H31.416Z" fill="#656477"/>
<path d="M35.8133 15.9172L32.3018 15.7892H8.61035V18.3885H32.277L35.8081 18.3172C36.0508 18.3172 36.2476 18.1204 36.2476 17.8777L36.2527 16.3567C36.2527 16.1139 36.056 15.9172 35.8133 15.9172Z" fill="#85808E"/>
<path d="M36.3896 16.229V17.949C36.3896 18.1916 36.1928 18.3885 35.9502 18.3885H32.1709C32.4135 18.3885 32.6104 18.1916 32.6104 17.949V16.229C32.6104 15.9855 32.4135 15.7896 32.1709 15.7896H35.9502C36.1928 15.7896 36.3896 15.9855 36.3896 16.229Z" fill="#767482"/>
<path d="M5.54575 34.7357C5.37709 34.7357 5.20834 34.6714 5.07958 34.5426L2.85902 32.3221C2.73545 32.1985 2.66602 32.0308 2.66602 31.856C2.66602 31.6812 2.73545 31.5135 2.85902 31.3899L5.07958 29.1695C5.3371 28.912 5.7544 28.912 6.01184 29.1695C6.26927 29.4269 6.26927 29.8443 6.01184 30.1016L4.25736 31.856L6.01184 33.6104C6.26927 33.8678 6.26927 34.2852 6.01184 34.5426C5.88316 34.6714 5.71441 34.7357 5.54575 34.7357Z" fill="#F5F8F9"/>
<path d="M11.5938 34.7357C11.4252 34.7357 11.2564 34.6714 11.1277 34.5426C10.8702 34.2852 10.8702 33.8679 11.1276 33.6105L12.882 31.8561L11.1276 30.1017C10.8702 29.8442 10.8702 29.4269 11.1276 29.1695C11.3852 28.9121 11.8025 28.9121 12.0599 29.1695L14.2804 31.39C14.5378 31.6474 14.5378 32.0647 14.2804 32.3222L12.0599 34.5427C11.9312 34.6714 11.7625 34.7357 11.5938 34.7357Z" fill="#F5F8F9"/>
<path d="M7.61002 36.4243C7.5579 36.4243 7.50507 36.418 7.45216 36.405C7.09867 36.3182 6.88254 35.9612 6.96938 35.6076L8.89023 27.7899C8.97707 27.4363 9.3339 27.22 9.68766 27.307C10.0412 27.3939 10.2573 27.7509 10.1704 28.1045L8.2496 35.9221C8.17577 36.2229 7.90638 36.4243 7.61002 36.4243Z" fill="#F5F8F9"/>
</g>
<defs>
<clipPath id="clip0_321_674">
<rect width="45" height="45" fill="white"/>
</clipPath>
</defs>
</svg>
