<svg width="45" height="45" viewBox="0 0 45 45" fill="none" xmlns="http://www.w3.org/2000/svg">
<g clip-path="url(#clip0_321_788)">
<path d="M15.4707 35.2834H23.9064V39.3135H15.4707V35.2834Z" fill="#6E61B6"/>
<path d="M15.4707 35.2834H18.4978V39.3135H15.4707V35.2834Z" fill="#6354B1"/>
<path d="M26.3255 39.2242H13.0524C11.8962 39.2242 10.959 40.1615 10.959 41.3176V42.3897C10.959 42.5375 11.0788 42.6573 11.2266 42.6573H28.1513C28.2991 42.6573 28.4189 42.5375 28.4189 42.3897V41.3176C28.4189 40.1615 27.4817 39.2242 26.3255 39.2242Z" fill="#54469C"/>
<path d="M15.4515 42.3898V41.3177C15.4515 40.1615 16.3888 39.2244 17.5449 39.2244H13.0524C11.8962 39.2244 10.959 40.1616 10.959 41.3177V42.3898C10.959 42.5377 11.0788 42.6575 11.2266 42.6575H15.7191C15.5714 42.6575 15.4515 42.5377 15.4515 42.3898Z" fill="#463B84"/>
<path d="M38.1467 28.0624V14.115H31.8116C31.6141 14.115 31.4534 13.9543 31.4534 13.7568V8.89728H1.99749C1.57456 8.89728 1.23047 9.24137 1.23047 9.6643V28.9965H36.9202C37.2727 28.6209 37.6869 28.3041 38.1467 28.0624Z" fill="#EAF6FF"/>
<path d="M5.7745 8.89728H1.99749C1.57456 8.89728 1.23047 9.24137 1.23047 9.6643V28.9965H5.00757V9.6643C5.00757 9.24137 5.35166 8.89728 5.7745 8.89728Z" fill="#D8ECFE"/>
<path d="M1.31836 26.2765H3.64623C3.89259 26.2765 4.09228 26.0768 4.09228 25.8304V14.9961H1.31836V26.2765Z" fill="#6E61B6"/>
<path d="M3.64623 12.0534H1.31836V14.9961H4.09236V12.4995C4.09236 12.2532 3.89259 12.0534 3.64623 12.0534Z" fill="#54469C"/>
<path d="M39.377 27.6246V14.1149H38.0586V28.1093C38.4648 27.8845 38.9081 27.7189 39.377 27.6246Z" fill="#54469C"/>
<path d="M44.622 6.76624H31.7902L31.3652 6.85413V13.7567C31.3652 14.0031 31.5649 14.2027 31.8113 14.2027H44.5536C44.7999 14.2027 44.9996 14.0031 44.9996 13.7567V6.85413L44.622 6.76624Z" fill="#FFE5C2"/>
<path d="M35.6671 32.1563C35.6671 30.8455 36.2164 29.6614 37.0958 28.8194H1.31836V9.66424C1.31836 9.28982 1.62299 8.98511 1.99749 8.98511H31.4534V7.66675H1.99749C0.896045 7.66675 0 8.56288 0 9.66424V33.3739C0 34.4752 0.896045 35.3713 1.99749 35.3713H35.6671V32.1563Z" fill="#54469C"/>
<path d="M3.7771 33.3739V29.5678V28.8194H1.31836V9.6643C1.31836 9.28989 1.62299 8.98517 1.99749 8.98517H3.8961C4.17463 8.21709 4.9115 7.66681 5.7745 7.66681H1.99749C0.896045 7.66681 0 8.56294 0 9.6643V33.3739C0 34.4753 0.896045 35.3713 1.99749 35.3713H5.77459C4.67314 35.3713 3.7771 34.4753 3.7771 33.3739Z" fill="#463B84"/>
<path d="M32.6363 18.5485C31.9521 18.5485 31.3152 18.7494 30.7799 19.0944L31.8115 20.7239C31.8471 20.7801 31.8492 20.8484 31.8171 20.9067C31.785 20.965 31.7261 20.9998 31.6596 20.9998H29.3464C29.2537 21.311 29.2031 21.6403 29.2031 21.9817C29.2031 23.8778 30.7402 25.4149 32.6363 25.4149C34.5324 25.4149 36.0695 23.8779 36.0695 21.9817C36.0695 20.0856 34.5324 18.5485 32.6363 18.5485Z" fill="#FED402"/>
<path d="M31.7574 20.6379C32.1333 19.7561 32.8671 19.0636 33.7768 18.7433C33.42 18.6176 33.0364 18.5486 32.6367 18.5486C31.9525 18.5486 31.3156 18.7496 30.7803 19.0945L31.7574 20.6379Z" fill="#FAC600"/>
<path d="M31.4834 21.9817C31.4834 21.6403 31.5338 21.3109 31.6265 20.9998H29.3464C29.2537 21.311 29.2031 21.6403 29.2031 21.9817C29.2031 23.8777 30.7402 25.4149 32.6363 25.4149C33.0361 25.4149 33.4196 25.3458 33.7764 25.2202C32.4409 24.75 31.4834 23.4779 31.4834 21.9817Z" fill="#FAC600"/>
<path d="M40.2895 42.1594C37.6988 42.1594 35.5791 40.0397 35.5791 37.449V32.1564C35.5791 29.5656 37.6988 27.446 40.2895 27.446C42.8803 27.446 44.9999 29.5656 44.9999 32.1564V37.449C44.9999 40.0397 42.8803 42.1594 40.2895 42.1594Z" fill="#EAF6FF"/>
<path d="M37.5293 37.449V32.1564C37.5293 30.5288 38.366 29.0877 39.6304 28.241V27.4933C37.349 27.8165 35.5791 29.7893 35.5791 32.1564V37.449C35.5791 40.0397 37.6988 42.1594 40.2895 42.1594C40.6231 42.1594 40.9486 42.1234 41.263 42.0562C39.1369 41.6032 37.5293 39.705 37.5293 37.449Z" fill="#D8ECFE"/>
<path d="M40.29 30.3593C40.5325 30.3593 40.7582 30.4306 40.9492 30.5517V27.4934C40.7336 27.4629 40.5137 27.446 40.29 27.446C40.0664 27.446 39.8465 27.4629 39.6309 27.4934V30.5517C39.8219 30.4305 40.0475 30.3593 40.29 30.3593Z" fill="#C4E2FF"/>
<path d="M40.29 33.8476C40.0475 33.8476 39.8218 33.7764 39.6309 33.6552V35.4907C39.6309 35.8547 39.9259 36.1499 40.29 36.1499C40.6542 36.1499 40.9492 35.8547 40.9492 35.4907V33.6551C40.7582 33.7764 40.5325 33.8476 40.29 33.8476Z" fill="#C4E2FF"/>
<path d="M40.29 33.9356C39.5593 33.9356 38.9668 33.3432 38.9668 32.6124V31.5946C38.9668 30.8639 39.5592 30.2714 40.29 30.2714C41.0207 30.2714 41.6132 30.8638 41.6132 31.5946V32.6124C41.6131 33.3431 41.0207 33.9356 40.29 33.9356Z" fill="#0ED290"/>
<path d="M40.1567 32.6124V31.5946C40.1567 31.0781 40.4534 30.6319 40.8849 30.414C40.7059 30.3235 40.5042 30.2715 40.2899 30.2715C39.5592 30.2715 38.9668 30.8639 38.9668 31.5947V32.6125C38.9668 33.3432 39.5592 33.9356 40.2899 33.9356C40.5042 33.9356 40.7059 33.8835 40.8849 33.7932C40.4534 33.575 40.1567 33.1288 40.1567 32.6124Z" fill="#00C285"/>
<path d="M20.5117 20.9998C20.4452 20.9998 20.3863 20.965 20.3543 20.9067C20.3222 20.8485 20.3242 20.7801 20.3598 20.7239L24.3588 14.4077H15.2481C15.1003 14.4077 14.9805 14.5274 14.9805 14.6753V25.1472C14.9805 25.295 15.1004 25.4148 15.2481 25.4148H25.72C25.8678 25.4148 25.9876 25.295 25.9876 25.1472V20.9998H20.5117Z" fill="#0ED290"/>
<path d="M18.0121 25.1472V14.6753C18.0121 14.5274 18.1319 14.4077 18.2797 14.4077H15.2481C15.1003 14.4077 14.9805 14.5274 14.9805 14.6753V25.1472C14.9805 25.295 15.1004 25.4148 15.2481 25.4148H18.2797C18.132 25.4148 18.0121 25.2949 18.0121 25.1472Z" fill="#00C285"/>
<path d="M12.0373 15.0667H7.13281C6.76868 15.0667 6.47363 14.7716 6.47363 14.4075C6.47363 14.0435 6.76868 13.7484 7.13281 13.7484H12.0373C12.4014 13.7484 12.6965 14.0435 12.6965 14.4075C12.6965 14.7716 12.4014 15.0667 12.0373 15.0667Z" fill="#60B7FF"/>
<path d="M12.0373 17.2247H7.13281C6.76868 17.2247 6.47363 16.9295 6.47363 16.5655C6.47363 16.2014 6.76868 15.9063 7.13281 15.9063H12.0373C12.4014 15.9063 12.6965 16.2014 12.6965 16.5655C12.6965 16.9295 12.4014 17.2247 12.0373 17.2247Z" fill="#60B7FF"/>
<path d="M12.0373 19.3827H7.13281C6.76868 19.3827 6.47363 19.0876 6.47363 18.7235C6.47363 18.3595 6.76868 18.0643 7.13281 18.0643H12.0373C12.4014 18.0643 12.6965 18.3595 12.6965 18.7235C12.6965 19.0876 12.4014 19.3827 12.0373 19.3827Z" fill="#60B7FF"/>
<path d="M12.0373 22.6197H7.13281C6.76868 22.6197 6.47363 22.3246 6.47363 21.9605C6.47363 21.5965 6.76868 21.3013 7.13281 21.3013H12.0373C12.4014 21.3013 12.6965 21.5965 12.6965 21.9605C12.6965 22.3246 12.4014 22.6197 12.0373 22.6197Z" fill="#60B7FF"/>
<path d="M12.0373 24.7776H7.13281C6.76868 24.7776 6.47363 24.4825 6.47363 24.1185C6.47363 23.7544 6.76868 23.4593 7.13281 23.4593H12.0373C12.4014 23.4593 12.6965 23.7544 12.6965 24.1185C12.6965 24.4825 12.4014 24.7776 12.0373 24.7776Z" fill="#60B7FF"/>
<path d="M9.68314 26.9357H7.13281C6.76868 26.9357 6.47363 26.6405 6.47363 26.2765C6.47363 25.9124 6.76868 25.6173 7.13281 25.6173H9.68314C10.0473 25.6173 10.3423 25.9124 10.3423 26.2765C10.3423 26.6405 10.0472 26.9357 9.68314 26.9357Z" fill="#60B7FF"/>
<path d="M25.8592 11.8727L20.2851 20.6768C20.1723 20.855 20.3003 21.0876 20.5113 21.0876H31.6595C31.8704 21.0876 31.9985 20.8549 31.8856 20.6768L26.3115 11.8727C26.2064 11.7067 25.9643 11.7067 25.8592 11.8727Z" fill="#FD4755"/>
<path d="M23.3173 20.6768L27.6015 13.9102L26.3115 11.8727C26.2064 11.7067 25.9643 11.7067 25.8592 11.8727L20.2851 20.6768C20.1723 20.8549 20.3003 21.0876 20.5113 21.0876H23.5435C23.3326 21.0877 23.2045 20.855 23.3173 20.6768Z" fill="#FB2B3A"/>
<path d="M34.354 13.7567V6.85413H31.3652V13.7567C31.3652 14.0031 31.5649 14.2027 31.8113 14.2027H34.8001C34.5537 14.2028 34.354 14.0031 34.354 13.7567Z" fill="#FED2A4"/>
<path d="M42.3155 10.0637H34.0488C33.6847 10.0637 33.3896 9.76858 33.3896 9.40454C33.3896 9.0405 33.6847 8.74536 34.0488 8.74536H42.3155C42.6796 8.74536 42.9746 9.0405 42.9746 9.40454C42.9746 9.76858 42.6795 10.0637 42.3155 10.0637Z" fill="#FE7701"/>
<path d="M36.5181 12.1855H34.0488C33.6847 12.1855 33.3896 11.8903 33.3896 11.5263C33.3896 11.1623 33.6847 10.8671 34.0488 10.8671H36.5181C36.8822 10.8671 37.1773 11.1623 37.1773 11.5263C37.1773 11.8903 36.8822 12.1855 36.5181 12.1855Z" fill="#FE7701"/>
<path d="M42.3155 12.1855H38.9873C38.6232 12.1855 38.3281 11.8903 38.3281 11.5263C38.3281 11.1623 38.6232 10.8671 38.9873 10.8671H42.3155C42.6796 10.8671 42.9746 11.1623 42.9746 11.5263C42.9746 11.8903 42.6795 12.1855 42.3155 12.1855Z" fill="#FE7701"/>
<path d="M44.9997 6.85413H31.3652V4.84802C31.3652 4.60167 31.5649 4.40198 31.8113 4.40198H44.5536C44.7999 4.40198 44.9996 4.60167 44.9996 4.84802V6.85413H44.9997Z" fill="#6E61B6"/>
<path d="M34.8001 4.40192H31.8113C31.5649 4.40192 31.3652 4.6016 31.3652 4.84796V6.85415H34.354V4.84805C34.354 4.6016 34.5537 4.40192 34.8001 4.40192Z" fill="#6354B1"/>
<path d="M20.9151 32.6248H18.4629C18.0988 32.6248 17.8037 32.3297 17.8037 31.9656C17.8037 31.6016 18.0988 31.3065 18.4629 31.3065H20.9151C21.2793 31.3065 21.5743 31.6016 21.5743 31.9656C21.5743 32.3297 21.2792 32.6248 20.9151 32.6248Z" fill="#0ED290"/>
<path d="M3.88731 2.54564L3.79811 2.34253H1.55136C1.05864 2.34253 0.65918 2.74199 0.65918 3.23471V4.88354C0.65918 5.37625 1.05864 5.77571 1.55136 5.77571H3.79811L3.88731 5.56609V2.54564Z" fill="#FD4755"/>
<path d="M1.55136 4.29977C1.05864 4.29977 0.65918 3.90031 0.65918 3.40759V4.88354C0.65918 5.37625 1.05864 5.77572 1.55136 5.77572H3.79811L3.88731 5.5661V4.09006L3.79811 4.29977H1.55136Z" fill="#FB2B3A"/>
<path d="M23.1496 3.81391L19.7865 2.34253L19.6973 2.52244V5.56961L19.7865 5.77562L23.1496 4.30425C23.3634 4.21073 23.3634 3.90742 23.1496 3.81391Z" fill="#54469C"/>
<path d="M23.1502 3.81391L22.0239 3.32111L19.7871 4.29968V5.77563L23.1502 4.30425C23.3641 4.21073 23.3641 3.90742 23.1502 3.81391Z" fill="#463B84"/>
<path d="M3.79785 2.34253H19.7865V5.77571H3.79785V2.34253Z" fill="#FED402"/>
<path d="M6.03783 3.86031V2.34253H3.79785V5.77571H19.7865V4.29977H6.47728C6.23462 4.29977 6.03783 4.10298 6.03783 3.86031Z" fill="#FAC600"/>
</g>
<defs>
<clipPath id="clip0_321_788">
<rect width="45" height="45" fill="white"/>
</clipPath>
</defs>
</svg>
