<svg width="45" height="45" viewBox="0 0 45 45" fill="none" xmlns="http://www.w3.org/2000/svg">
<path fill-rule="evenodd" clip-rule="evenodd" d="M16.3667 15.81C15.5452 17.2416 14.0016 18.2059 12.2328 18.2058C10.2232 18.2058 8.5043 16.9612 7.80478 15.2007H11.6167L12.6316 13.4428L11.6167 11.6849H7.80469C8.50421 9.9244 10.223 8.67987 12.2326 8.67987C14.0015 8.67987 15.5451 9.64421 16.3666 11.0758H35.4537C36.2751 9.64421 37.8188 8.67987 39.5876 8.67987C41.5972 8.67987 43.3161 9.92449 44.0155 11.6849H40.2035L39.1887 13.4428L40.2035 15.2007H44.0155C43.316 16.9612 41.5972 18.2058 39.5876 18.2058C37.8188 18.2058 36.2752 17.2416 35.4537 15.81H16.3667Z" fill="#7986BF"/>
<path fill-rule="evenodd" clip-rule="evenodd" d="M11.5174 18.1523C9.82213 17.897 8.41957 16.7482 7.80469 15.2007H11.6167L12.6316 13.4428L11.6167 11.6849H7.80469C8.41957 10.1375 9.82204 8.98872 11.5173 8.7334C12.9814 8.95409 14.2271 9.84108 14.9355 11.0758H35.4537C36.1622 9.841 37.4078 8.95409 38.8719 8.7334C40.5671 8.98872 41.9696 10.1375 42.5845 11.6849H38.7725L37.7575 13.4428L38.7725 15.2007H42.5844C41.9695 16.7482 40.567 17.897 38.8717 18.1523C37.4077 17.9316 36.1621 17.0447 35.4536 15.81H14.9355C14.227 17.0447 12.9814 17.9317 11.5174 18.1523Z" fill="#909CD1"/>
<path fill-rule="evenodd" clip-rule="evenodd" d="M30.4305 29.2691C31.2134 27.9517 30.2217 26.2829 28.6904 26.3408C16.1061 26.3408 16.0838 16.1082 4.3125 31.2468L10.5417 37.7773C13.3164 34.9793 16.6146 34.8501 20.2524 35.0677C22.2367 35.1864 24.6049 35.4729 26.7774 35.4249C29.8132 35.3578 31.6736 34.5338 34.3394 33.1217C37.3742 31.5141 42.649 28.3121 43.5692 27.1025C44.8861 25.3712 43.1859 23.7407 41.1772 24.9003C38.8148 26.2642 32.5597 29.2475 29.3372 30.1462C29.8249 29.9348 30.2058 29.6475 30.4306 29.2692L30.4305 29.2691Z" fill="#FF9F8B"/>
<path fill-rule="evenodd" clip-rule="evenodd" d="M30.4305 29.2691C31.2134 27.9517 30.2217 26.2829 28.6904 26.3408C16.1061 26.3408 16.0838 16.1082 4.3125 31.2468L9.12091 36.2878C12.0281 33.4207 15.4746 33.2889 19.2724 33.5161C21.3642 33.6412 23.8607 33.9432 26.151 33.8926C29.3513 33.8218 31.3126 32.9532 34.1227 31.4646C37.2906 29.7865 42.7725 26.4611 43.822 25.1578C43.3866 24.4898 42.333 24.233 41.1771 24.9003C38.8147 26.2642 32.5596 29.2475 29.3372 30.1462C29.8248 29.9348 30.2057 29.6475 30.4305 29.2692V29.2691Z" fill="#FFD4C8"/>
<path fill-rule="evenodd" clip-rule="evenodd" d="M30.4301 29.269C31.0409 28.2414 30.5717 27 29.6088 26.5311C30.3057 27.2944 29.8382 28.3779 28.7453 28.7755C28.1403 28.9956 27.3252 29.0996 26.4395 29.1212C24.1259 29.1778 21.464 28.635 20.4114 28.0873C20.0403 27.8943 19.5831 28.0388 19.3902 28.4099C19.1973 28.781 19.3418 29.2383 19.7129 29.4311C20.9291 30.0641 23.9235 30.6932 26.4751 30.6308C27.529 30.605 28.5257 30.4587 29.3369 30.1461C29.8245 29.9346 30.2054 29.6473 30.4302 29.269H30.4301Z" fill="#FF9F8B"/>
<path fill-rule="evenodd" clip-rule="evenodd" d="M0.966797 32.1453L3.85066 29.2613C4.41677 28.6952 5.34313 28.6952 5.90933 29.2613L12.7656 36.1175C13.3317 36.6836 13.3317 37.61 12.7656 38.1761L9.88163 41.0601L0.966797 32.1453Z" fill="#2A93FC"/>
<path fill-rule="evenodd" clip-rule="evenodd" d="M0.966797 32.1453L3.85075 29.2613C4.41659 28.6954 5.34243 28.6952 5.90862 29.2606L5.90933 29.2613L11.3088 34.6608C11.8749 35.2269 11.8749 36.1534 11.3088 36.7195L8.42493 39.6034L0.966797 32.1453Z" fill="#4EB1FC"/>
<path fill-rule="evenodd" clip-rule="evenodd" d="M33.3128 11.0759L32.6448 9.46535L33.7291 7.84843L31.4939 5.61337L29.877 6.69768L27.8562 5.85947L27.4799 3.95074H24.3191L23.9427 5.85947L21.9219 6.69768L20.305 5.61337L18.0699 7.84843L19.1542 9.46535L18.3159 11.4861L16.4072 11.8625V15.0233L18.3159 15.3996L19.1542 17.4204L18.0699 19.0373L20.305 21.2724L21.9219 20.1881L23.9427 21.0263L24.3191 22.935H27.4799L27.8562 21.0263L29.877 20.1881L31.4939 21.2724L33.7291 19.0373L32.6448 17.4204L33.3128 15.8099H30.1315C29.3017 17.2905 27.7175 18.2914 25.8995 18.2914C23.2217 18.2914 21.051 16.1207 21.051 13.4428C21.051 10.765 23.2217 8.59436 25.8995 8.59436C27.7175 8.59436 29.3016 9.59517 30.1315 11.0758L33.3128 11.0759Z" fill="#F2671F"/>
<path fill-rule="evenodd" clip-rule="evenodd" d="M32.39 15.81L31.7219 17.4205L32.8062 19.0374L30.9415 20.9021L29.5243 19.9517L26.9335 21.0264L26.5571 22.9351H24.319L23.9426 21.0264L21.3518 19.9517L19.9346 20.9021L18.0699 19.0374L19.1542 17.4205L18.3159 15.3997L16.4072 15.0234V11.8626L18.3159 11.4862L19.1542 9.46544L18.0699 7.84852L19.9346 5.98383L21.3518 6.93419L23.9426 5.85947L24.319 3.95074H26.5571L26.9335 5.85947L29.5243 6.93419L30.9415 5.98383L32.8062 7.84852L31.7219 9.46544L32.39 11.0759H30.1313C29.3014 9.59543 27.7173 8.59453 25.8993 8.59453C23.2216 8.59453 21.0508 10.7653 21.0508 13.443C21.0508 16.1208 23.2216 18.2916 25.8993 18.2916C27.7174 18.2916 29.3015 17.2907 30.1313 15.8101H32.3899L32.39 15.81Z" fill="#FF8748"/>
<path fill-rule="evenodd" clip-rule="evenodd" d="M25.1523 8.59448C25.2781 8.59448 25.4028 8.59923 25.5262 8.60872C23.0231 8.79962 21.0516 10.8911 21.0516 13.4431C21.0516 15.995 23.0231 18.0865 25.5262 18.2774C25.4028 18.2868 25.2781 18.2915 25.1523 18.2915C22.4745 18.2915 20.3037 16.1208 20.3037 13.443C20.3037 10.7651 22.4745 8.59448 25.1523 8.59448Z" fill="#F2671F"/>
</svg>
