<svg width="45" height="45" viewBox="0 0 45 45" fill="none" xmlns="http://www.w3.org/2000/svg">
<path fill-rule="evenodd" clip-rule="evenodd" d="M4.03673 6.72833H26.7472C26.9512 6.72833 27.1268 6.80111 27.2711 6.94533L31.4307 11.1048C31.5749 11.2491 31.6477 11.4247 31.6477 11.6287V42.7339C31.6477 43.1419 31.3149 43.4747 30.9068 43.4747H4.03673C3.62865 43.4747 3.2959 43.1419 3.2959 42.7339V7.46916C3.2959 7.06109 3.62865 6.72833 4.03673 6.72833Z" fill="#ECEFF1"/>
<path fill-rule="evenodd" clip-rule="evenodd" d="M4.03673 6.72833H5.392V43.4748H4.03673C3.62865 43.4748 3.2959 43.142 3.2959 42.734V7.46916C3.2959 7.06109 3.62865 6.72833 4.03673 6.72833Z" fill="#D1D1D6"/>
<path fill-rule="evenodd" clip-rule="evenodd" d="M27.0537 6.79248C27.1324 6.82843 27.2048 6.87932 27.2707 6.94523L31.4303 11.1047C31.4961 11.1706 31.5471 11.2431 31.5831 11.3217H27.4242C27.2201 11.3217 27.0537 11.1554 27.0537 10.9513V6.79248Z" fill="#A79BA7"/>
<path fill-rule="evenodd" clip-rule="evenodd" d="M15.5732 34.313C15.1849 34.313 14.8701 33.9982 14.8701 33.6099C14.8701 33.2216 15.1849 32.9068 15.5732 32.9068H23.7225C24.1108 32.9068 24.4256 33.2216 24.4256 33.6099C24.4256 33.9982 24.1108 34.313 23.7225 34.313H15.5732ZM15.5732 26.1101C15.1849 26.1101 14.8701 25.7953 14.8701 25.407C14.8701 25.0187 15.1849 24.7039 15.5732 24.7039H23.7225C24.1108 24.7039 24.4256 25.0187 24.4256 25.407C24.4256 25.7953 24.1108 26.1101 23.7225 26.1101H15.5732ZM15.5732 29.5783C15.1849 29.5783 14.8701 29.2634 14.8701 28.8751C14.8701 28.4868 15.1849 28.172 15.5732 28.172H23.7225C24.1108 28.172 24.4256 28.4868 24.4256 28.8751C24.4256 29.2634 24.1108 29.5783 23.7225 29.5783H15.5732ZM15.5732 37.7812C15.1849 37.7812 14.8701 37.4664 14.8701 37.0781C14.8701 36.6898 15.1849 36.3749 15.5732 36.3749H23.7225C24.1108 36.3749 24.4256 36.6898 24.4256 37.0781C24.4256 37.4664 24.1108 37.7812 23.7225 37.7812H15.5732Z" fill="#A79BA7"/>
<path fill-rule="evenodd" clip-rule="evenodd" d="M7.50117 24.7136H10.4258C10.9566 24.7136 11.3909 25.1479 11.3909 25.6787V28.6033C11.3909 29.1341 10.9566 29.5683 10.4258 29.5683H7.50117C6.9704 29.5683 6.53613 29.1341 6.53613 28.6033V25.6787C6.53613 25.148 6.9704 24.7136 7.50117 24.7136Z" fill="#6CF5C2"/>
<path fill-rule="evenodd" clip-rule="evenodd" d="M9.54688 24.7136H10.4258C10.9566 24.7136 11.3908 25.1479 11.3908 25.6787V28.6033C11.3908 29.1341 10.9566 29.5683 10.4258 29.5683H9.54688C10.0776 29.5683 10.5119 29.1341 10.5119 28.6033V25.6787C10.5119 25.148 10.0776 24.7136 9.54688 24.7136Z" fill="#00E499"/>
<path fill-rule="evenodd" clip-rule="evenodd" d="M7.953 26.9494C7.67843 26.6748 7.67843 26.2297 7.953 25.9552C8.22757 25.6806 8.67273 25.6806 8.94722 25.9552L9.89441 26.9024L12.8466 24.2233C13.1333 23.9624 13.5772 23.9833 13.8381 24.27C14.0989 24.5567 14.0781 25.0006 13.7914 25.2615L10.371 28.3655L10.3672 28.3695C10.0926 28.644 9.64744 28.644 9.37296 28.3695L7.953 26.9494Z" fill="#8AC9FE"/>
<path fill-rule="evenodd" clip-rule="evenodd" d="M7.50117 32.9166H10.4258C10.9566 32.9166 11.3909 33.3509 11.3909 33.8817V36.8063C11.3909 37.3371 10.9566 37.7714 10.4258 37.7714H7.50117C6.9704 37.7714 6.53613 37.3371 6.53613 36.8063V33.8817C6.53613 33.3509 6.9704 32.9166 7.50117 32.9166Z" fill="#FFE177"/>
<path fill-rule="evenodd" clip-rule="evenodd" d="M9.54688 32.9166H10.4258C10.9566 32.9166 11.3908 33.3509 11.3908 33.8817V36.8063C11.3908 37.3371 10.9566 37.7714 10.4258 37.7714H9.54688C10.0776 37.7714 10.5119 37.3371 10.5119 36.8063V33.8817C10.5119 33.3509 10.0776 32.9166 9.54688 32.9166Z" fill="#FFD064"/>
<path fill-rule="evenodd" clip-rule="evenodd" d="M7.953 35.1524C7.67843 34.8778 7.67843 34.4326 7.953 34.1581C8.22757 33.8836 8.67273 33.8836 8.94722 34.1581L9.89441 35.1053L12.8466 32.4262C13.1333 32.1654 13.5772 32.1862 13.8381 32.4729C14.0989 32.7596 14.0781 33.2036 13.7914 33.4644L10.371 36.5684L10.3672 36.5723C10.0926 36.8469 9.64744 36.8469 9.37296 36.5723L7.953 35.1524Z" fill="#8AC9FE"/>
<path fill-rule="evenodd" clip-rule="evenodd" d="M16.7143 1.83316C18.2828 3.0072 17.9271 2.87774 19.8833 2.98655C20.6347 3.02838 21.2449 3.54035 21.4166 4.27309C21.8634 6.18067 21.6742 5.85284 23.1028 7.19361C23.6515 7.70865 23.7898 8.49307 23.4503 9.16473C22.5664 10.9132 22.6322 10.5405 22.8647 12.4858C22.954 13.233 22.5556 13.9229 21.8639 14.2191C20.063 14.9904 20.3529 14.747 19.2806 16.3867C18.8687 17.0165 18.1201 17.2889 17.3998 17.0713C15.5244 16.5045 15.9029 16.5045 14.0275 17.0713C13.3072 17.289 12.5586 17.0165 12.1467 16.3867C11.0744 14.747 11.3643 14.9904 9.56338 14.2191C8.87168 13.9228 8.47336 13.2329 8.56265 12.4858C8.79521 10.5404 8.86087 10.9131 7.97704 9.16473C7.63752 8.49316 7.77586 7.70865 8.32456 7.19361C9.75313 5.85284 9.56382 6.18067 10.0107 4.27309C10.1824 3.54035 10.7926 3.02838 11.544 2.98655C13.5002 2.87774 13.1445 3.0072 14.713 1.83316C15.3153 1.38219 16.1118 1.38219 16.7143 1.83316Z" fill="#FFE177"/>
<path fill-rule="evenodd" clip-rule="evenodd" d="M16.7139 1.83316C18.2824 3.0072 17.9267 2.87774 19.8828 2.98654C20.6342 3.02838 21.2444 3.54043 21.4161 4.27309C21.863 6.18067 21.6737 5.85283 23.1023 7.19361C23.651 7.70864 23.7893 8.49307 23.4498 9.16473C22.566 10.9132 22.6317 10.5405 22.8643 12.4858C22.9536 13.2329 22.5552 13.9229 21.8634 14.2191C20.0625 14.9904 20.3524 14.7471 19.2801 16.3868C18.8682 17.0166 18.1197 17.289 17.3993 17.0714L17.2821 17.0358C17.5986 16.9136 17.8774 16.6922 18.0771 16.3868C19.1495 14.7471 18.8595 14.9904 20.6605 14.2191C21.3523 13.9229 21.7505 13.233 21.6612 12.4858C21.4287 10.5405 21.363 10.9131 22.2468 9.16473C22.5863 8.49316 22.448 7.70864 21.8993 7.19361C20.4707 5.85283 20.66 6.18067 20.2132 4.27309C20.0416 3.54043 19.4313 3.02838 18.68 2.98654C16.7238 2.87774 17.0795 3.0072 15.511 1.83316C15.3851 1.73903 15.2509 1.66458 15.1117 1.60974C15.6392 1.40196 16.2373 1.47632 16.7139 1.83316ZM15.1118 16.7442C14.3874 16.5488 14.2211 16.6459 12.9414 17.0357C13.2775 17.1655 13.656 17.1834 14.027 17.0713C14.5146 16.9239 14.8497 16.815 15.1118 16.7442Z" fill="#FFD064"/>
<path d="M15.7131 13.9942C18.2945 13.9942 20.3871 11.9015 20.3871 9.32014C20.3871 6.73875 18.2945 4.64612 15.7131 4.64612C13.1317 4.64612 11.0391 6.73875 11.0391 9.32014C11.0391 11.9015 13.1317 13.9942 15.7131 13.9942Z" fill="#ECEFF1"/>
<path fill-rule="evenodd" clip-rule="evenodd" d="M15.7131 4.64618C15.9169 4.64618 16.1176 4.65927 16.3145 4.68459C14.0172 4.97972 12.2419 6.94259 12.2419 9.3202C12.2419 11.6978 14.0172 13.6607 16.3145 13.9558C16.1176 13.9811 15.9168 13.9942 15.7131 13.9942C13.1317 13.9942 11.0391 11.9016 11.0391 9.3202C11.0392 6.73877 13.1317 4.64618 15.7131 4.64618Z" fill="#D1D1D6"/>
<path fill-rule="evenodd" clip-rule="evenodd" d="M12.9418 17.0358C12.6253 16.9136 12.3464 16.6922 12.1466 16.3868C11.3982 15.2424 11.3134 15.0153 10.7181 14.7202L8.56314 19.1403C8.50223 19.2653 8.51559 19.4043 8.59917 19.5154C8.68276 19.6264 8.81266 19.6779 8.94959 19.654L10.9836 19.2985L12.0301 21.0993C12.0992 21.2183 12.2204 21.2845 12.3578 21.2785C12.4954 21.2725 12.6102 21.196 12.6687 21.0714L14.6327 16.8858C14.4602 16.9389 14.2614 17.0007 14.0274 17.0715C13.6564 17.1834 13.2779 17.1655 12.9418 17.0358Z" fill="#FE646F"/>
<path fill-rule="evenodd" clip-rule="evenodd" d="M19.2808 16.3867C18.8689 17.0166 18.1204 17.2889 17.4 17.0713C17.3787 17.0649 17.3577 17.0585 17.3369 17.0521L18.7222 20.214C18.7774 20.34 18.8899 20.4193 19.0271 20.4291C19.1642 20.4388 19.2869 20.3763 19.3594 20.2595L20.459 18.4875L22.4888 18.9032C22.6245 18.931 22.7553 18.884 22.8422 18.7761C22.929 18.6683 22.9472 18.5305 22.8913 18.4038L21.4339 15.1074L21.171 14.5126C20.6378 14.7396 20.3928 14.8613 20.1622 15.1074C19.9384 15.3465 19.7282 15.7028 19.2808 16.3867Z" fill="#FE646F"/>
<path fill-rule="evenodd" clip-rule="evenodd" d="M8.52539 19.3077C8.52706 19.3808 8.55185 19.4526 8.59913 19.5153C8.68271 19.6263 8.81262 19.6778 8.94955 19.6539L10.9819 19.2987L10.8063 18.9965L8.77228 19.352C8.68342 19.3675 8.59755 19.3514 8.52539 19.3077ZM11.8716 20.8267L12.0299 21.0992C12.0991 21.2182 12.2202 21.2844 12.3577 21.2784C12.4952 21.2725 12.6101 21.1959 12.6686 21.0713L14.6326 16.8857C14.5203 16.9203 14.3968 16.9585 14.2599 17.0005L12.4914 20.7694C12.4328 20.8941 12.318 20.9705 12.1805 20.9766C12.0546 20.9821 11.9427 20.9271 11.8716 20.8267Z" fill="#FD4755"/>
<path fill-rule="evenodd" clip-rule="evenodd" d="M17.3801 17.0653L17.3369 17.0522L17.3395 17.058C17.3529 17.0606 17.3665 17.0629 17.3801 17.0653ZM18.8547 20.3725C18.9046 20.4049 18.9632 20.4246 19.027 20.4291C19.1642 20.4389 19.2868 20.3763 19.3593 20.2595L20.4589 18.4875L22.4887 18.9033C22.6244 18.931 22.7552 18.884 22.8421 18.7762C22.929 18.6683 22.9471 18.5305 22.8912 18.4039L21.4338 15.1075L21.1709 14.5127C21.1087 14.5392 21.0505 14.5642 20.9956 14.5881L21.2003 15.0512L22.6576 18.3476C22.7136 18.4743 22.6954 18.6121 22.6086 18.7199C22.5217 18.8278 22.3909 18.8748 22.2552 18.847L20.2254 18.4313L19.1258 20.2033C19.0643 20.3024 18.9667 20.3625 18.8547 20.3725Z" fill="#FD4755"/>
<path fill-rule="evenodd" clip-rule="evenodd" d="M12.6923 9.75967C12.4177 9.4851 12.4177 9.03994 12.6923 8.76546C12.9668 8.49088 13.412 8.49088 13.6865 8.76546L14.6861 9.76503L17.7656 6.97038C18.0523 6.70952 18.4962 6.73035 18.7571 7.01705C19.018 7.30375 18.9971 7.74768 18.7104 8.00854L15.1628 11.2281L15.1589 11.232C14.8843 11.5066 14.4392 11.5066 14.1647 11.232L12.6923 9.75967Z" fill="#8AC9FE"/>
<path fill-rule="evenodd" clip-rule="evenodd" d="M33.2624 33.8827C32.8899 34.414 32.4519 34.8958 31.96 35.3165L35.5014 38.7881L36.8497 37.3987L33.2624 33.8827Z" fill="#A79BA7"/>
<path fill-rule="evenodd" clip-rule="evenodd" d="M33.2859 33.8588C33.2163 34.0873 33.0865 34.2608 32.9004 34.3758L36.4184 37.8708L36.8492 37.3987L33.2859 33.8588Z" fill="#837683"/>
<path fill-rule="evenodd" clip-rule="evenodd" d="M39.9861 43.2941L41.5078 41.726C41.775 41.4505 41.7683 41.0068 41.4929 40.7395L37.2785 36.6499C37.0031 36.3827 36.5591 36.3894 36.2919 36.6647L34.7703 38.2329C34.5031 38.5082 34.5098 38.9522 34.7852 39.2194L38.9996 43.309C39.2749 43.5762 39.7188 43.5696 39.9861 43.2941Z" fill="#F1BA84"/>
<path fill-rule="evenodd" clip-rule="evenodd" d="M36.6547 36.6499L40.8691 40.7396C41.1445 41.0069 41.1512 41.4507 40.884 41.7261L39.3623 43.2942C39.3061 43.3522 39.2421 43.3982 39.1734 43.4324C39.438 43.5639 39.7697 43.517 39.9858 43.2943L41.5074 41.7262C41.7746 41.4507 41.7679 41.0069 41.4925 40.7397L37.2781 36.6501C37.0606 36.4391 36.7382 36.3989 36.4805 36.5268C36.5432 36.5577 36.602 36.5988 36.6547 36.6499Z" fill="#E3A76F"/>
<path d="M32.9308 35.4447C35.9274 32.4481 35.9274 27.5897 32.9308 24.5931C29.9342 21.5965 25.0757 21.5965 22.0791 24.5931C19.0825 27.5897 19.0825 32.4481 22.0791 35.4447C25.0757 38.4413 29.9342 38.4413 32.9308 35.4447Z" fill="#8AC9FE"/>
<path fill-rule="evenodd" clip-rule="evenodd" d="M27.5112 22.3448C31.7497 22.3448 35.1858 25.7808 35.1858 30.0193C35.1858 34.2577 31.7498 37.6937 27.5112 37.6937C27.3863 37.6937 27.2622 37.6905 27.1387 37.6846C31.2041 37.4903 34.4406 34.1329 34.4406 30.0193C34.4406 25.9058 31.2041 22.5483 27.1387 22.354C27.2622 22.348 27.3863 22.3448 27.5112 22.3448Z" fill="#60B7FF"/>
<path d="M31.4012 33.9151C33.5529 31.7633 33.5529 28.2746 31.4012 26.1229C29.2494 23.9711 25.7607 23.9711 23.609 26.1229C21.4572 28.2746 21.4572 31.7633 23.609 33.9151C25.7607 36.0668 29.2494 36.0668 31.4012 33.9151Z" fill="#ECEFF1"/>
<path fill-rule="evenodd" clip-rule="evenodd" d="M27.5117 24.5085C27.637 24.5085 27.7612 24.5131 27.8843 24.5213C25.0146 24.7129 22.7461 27.101 22.7461 30.0192C22.7461 32.9375 25.0147 35.3254 27.8843 35.5171C27.7612 35.5253 27.637 35.53 27.5117 35.53C24.4682 35.53 22.001 33.0627 22.001 30.0193C22.0009 26.9758 24.4682 24.5085 27.5117 24.5085Z" fill="#D1D1D6"/>
<path fill-rule="evenodd" clip-rule="evenodd" d="M25.3963 27.9052H29.6435C29.8129 27.9052 29.951 28.0433 29.951 28.2126V31.8432C29.951 32.0125 29.8128 32.1506 29.6435 32.1506H25.3963C25.2269 32.1506 25.0889 32.0125 25.0889 31.8432V28.2126C25.0889 28.0433 25.2269 27.9052 25.3963 27.9052Z" fill="#E3A76F"/>
<path fill-rule="evenodd" clip-rule="evenodd" d="M29.2813 27.9052H29.6434C29.8128 27.9052 29.9509 28.0434 29.9509 28.2127V31.8432C29.9509 32.0125 29.8127 32.1507 29.6434 32.1507H25.3962C25.3679 32.1507 25.3406 32.1468 25.3145 32.1396H29.1996C29.3689 32.1396 29.507 32.0014 29.507 31.8322V28.2016C29.507 28.0604 29.4112 27.9411 29.2813 27.9052Z" fill="#C48958"/>
<path fill-rule="evenodd" clip-rule="evenodd" d="M28.3388 29.0384C28.3385 29.4906 27.9716 29.857 27.5194 29.8567C27.0672 29.8563 26.7008 29.4894 26.7012 29.0372V27.9046L28.3389 27.9051V27.9057V29.0384H28.3388Z" fill="#ECBA78"/>
</svg>
