<svg width="45" height="45" viewBox="0 0 45 45" fill="none" xmlns="http://www.w3.org/2000/svg">
<path d="M17.5781 15.8597C17.5821 15.6247 17.4999 15.3965 17.347 15.2181C17.0514 14.905 16.8832 14.493 16.875 14.0625C16.875 12.8975 18.1342 11.9531 19.6875 11.9531C21.2408 11.9531 22.5 12.8975 22.5 14.0625C22.4918 14.493 22.3236 14.9051 22.028 15.2183C21.8751 15.3967 21.7929 15.6249 21.7969 15.8599C21.7969 16.1291 21.9039 16.3873 22.0943 16.5777C22.2847 16.7681 22.5429 16.875 22.8122 16.875H27.4219V12.2653C27.4219 11.996 27.5288 11.7378 27.7193 11.5474C27.9097 11.357 28.1679 11.25 28.4372 11.25C28.6721 11.246 28.9004 11.3282 29.0788 11.4812C29.3919 11.7766 29.8039 11.9449 30.2344 11.9531C31.3994 11.9531 32.3438 10.6939 32.3438 9.14062C32.3438 7.58733 31.3994 6.32812 30.2344 6.32812C29.8038 6.33625 29.3918 6.50453 29.0786 6.8001C28.9002 6.95302 28.6719 7.03525 28.437 7.03125C28.1678 7.0312 27.9096 6.92421 27.7192 6.73381C27.5288 6.54341 27.4219 6.28518 27.4219 6.01594V2.10938H14.7656C14.0197 2.10938 13.3043 2.40569 12.7769 2.93314C12.2494 3.46058 11.9531 4.17595 11.9531 4.92188V16.875H16.5628C16.8321 16.875 17.0903 16.768 17.2807 16.5776C17.4712 16.3872 17.5781 16.129 17.5781 15.8597Z" fill="#348FD9"/>
<path d="M22.5 24.6094C22.4918 25.2591 22.6702 25.8976 23.0142 26.4489C23.4009 27.0448 23.9722 27.4219 24.6094 27.4219C25.0399 27.4137 25.4519 27.2454 25.7651 26.9499C25.9436 26.7971 26.1718 26.7148 26.4067 26.7188C26.5401 26.7187 26.6721 26.745 26.7952 26.796C26.9184 26.847 27.0303 26.9218 27.1246 27.0161C27.2188 27.1103 27.2936 27.2222 27.3446 27.3454C27.3956 27.4686 27.4219 27.6006 27.4219 27.7339V31.6406H14.7656C14.3962 31.6409 14.0303 31.5684 13.6889 31.4272C13.3476 31.286 13.0374 31.0788 12.7762 30.8176C12.5149 30.5564 12.3078 30.2462 12.1666 29.9048C12.0253 29.5634 11.9528 29.1976 11.9531 28.8281V16.875H16.563C16.6963 16.875 16.8283 16.8488 16.9515 16.7978C17.0746 16.7467 17.1866 16.672 17.2808 16.5777C17.3751 16.4834 17.4499 16.3715 17.5009 16.2484C17.5519 16.1252 17.5781 15.9932 17.5781 15.8599C17.582 15.6249 17.4998 15.3967 17.347 15.2183C17.0515 14.9051 16.8832 14.493 16.875 14.0625C16.875 12.8979 18.1345 11.9531 19.6875 11.9531C21.2405 11.9531 22.5 12.8979 22.5 14.0625C22.4918 14.493 22.3235 14.9051 22.028 15.2183C21.8752 15.3967 21.793 15.6249 21.7969 15.8599C21.7969 15.9932 21.8231 16.1252 21.8741 16.2484C21.9251 16.3715 21.9999 16.4834 22.0942 16.5777C22.1884 16.672 22.3004 16.7467 22.4235 16.7978C22.5467 16.8488 22.6787 16.875 22.812 16.875H27.4219V21.4849C27.4219 21.6182 27.3956 21.7502 27.3446 21.8734C27.2936 21.9965 27.2188 22.1084 27.1246 22.2027C27.0303 22.297 26.9184 22.3717 26.7952 22.4228C26.6721 22.4738 26.5401 22.5 26.4067 22.5C26.1718 22.5039 25.9436 22.4217 25.7651 22.2688C25.4519 21.9733 25.0399 21.8051 24.6094 21.7969C23.4448 21.7969 22.5 23.0563 22.5 24.6094Z" fill="#F35244"/>
<path d="M42.8909 16.875V28.8281C42.8909 29.574 42.5946 30.2894 42.0671 30.8169C41.5397 31.3443 40.8243 31.6406 40.0784 31.6406H27.4221V27.7339C27.4222 27.6006 27.3959 27.4686 27.3449 27.3454C27.2939 27.2222 27.2191 27.1103 27.1248 27.0161C27.0306 26.9218 26.9187 26.847 26.7955 26.796C26.6723 26.745 26.5403 26.7187 26.407 26.7188C26.1721 26.7148 25.9439 26.7971 25.7654 26.9499C25.4522 27.2454 25.0402 27.4137 24.6096 27.4219C23.9724 27.4219 23.4012 27.0448 23.0144 26.4489C22.6705 25.8976 22.492 25.2591 22.5003 24.6094C22.5003 23.0563 23.4451 21.7969 24.6096 21.7969C25.0402 21.8051 25.4522 21.9733 25.7654 22.2688C25.9439 22.4217 26.1721 22.5039 26.407 22.5C26.5403 22.5 26.6723 22.4738 26.7955 22.4228C26.9187 22.3717 27.0306 22.297 27.1248 22.2027C27.2191 22.1084 27.2939 21.9965 27.3449 21.8734C27.3959 21.7502 27.4222 21.6182 27.4221 21.4849V16.875H32.032C32.1653 16.875 32.2973 16.9012 32.4205 16.9522C32.5437 17.0033 32.6556 17.078 32.7498 17.1723C32.8441 17.2666 32.9189 17.3785 32.9699 17.5016C33.0209 17.6248 33.0472 17.7568 33.0471 17.8901C33.0511 18.1251 32.9688 18.3533 32.816 18.5317C32.5205 18.8449 32.3522 19.257 32.344 19.6875C32.3462 20.0136 32.443 20.3321 32.6226 20.6042C33.0779 21.31 34.0421 21.7969 35.1565 21.7969C36.7095 21.7969 37.969 20.8521 37.969 19.6875C37.9608 19.257 37.7926 18.8449 37.4971 18.5317C37.3442 18.3533 37.262 18.1251 37.2659 17.8901C37.2659 17.7568 37.2921 17.6248 37.3431 17.5016C37.3942 17.3785 37.4689 17.2666 37.5632 17.1723C37.6575 17.078 37.7694 17.0033 37.8925 16.9522C38.0157 16.9012 38.1477 16.875 38.281 16.875H42.8909Z" fill="#7EB457"/>
<path d="M42.8906 4.92188V16.875H38.2808C38.1474 16.8749 38.0154 16.9011 37.8921 16.952C37.7689 17.003 37.657 17.0778 37.5627 17.1721C37.4684 17.2664 37.3936 17.3783 37.3427 17.5015C37.2917 17.6247 37.2655 17.7568 37.2656 17.8901C37.2617 18.1251 37.3439 18.3533 37.4968 18.5317C37.7923 18.8449 37.9605 19.257 37.9688 19.6875C37.9688 20.8521 36.7093 21.7969 35.1562 21.7969C34.0418 21.7969 33.0776 21.31 32.6224 20.6042C32.4427 20.3321 32.3459 20.0136 32.3438 19.6875C32.352 19.257 32.5202 18.8449 32.8157 18.5317C32.9686 18.3533 33.0508 18.1251 33.0469 17.8901C33.0469 17.7568 33.0206 17.6248 32.9696 17.5016C32.9186 17.3785 32.8438 17.2666 32.7496 17.1723C32.6553 17.078 32.5434 17.0033 32.4202 16.9522C32.2971 16.9012 32.1651 16.875 32.0317 16.875H27.4219V12.2651C27.4219 12.1318 27.4481 11.9998 27.4991 11.8766C27.5501 11.7535 27.6249 11.6416 27.7192 11.5473C27.8134 11.453 27.9254 11.3783 28.0485 11.3272C28.1717 11.2762 28.3037 11.25 28.437 11.25C28.6719 11.2461 28.9002 11.3283 29.0786 11.4812C29.3918 11.7767 29.8038 11.9449 30.2344 11.9531C31.3989 11.9531 32.3438 10.6937 32.3438 9.14062C32.3438 7.5876 31.3989 6.32812 30.2344 6.32812C29.8038 6.33633 29.3918 6.50459 29.0786 6.8001C28.9002 6.95294 28.6719 7.03516 28.437 7.03125C28.3037 7.03126 28.1717 7.00501 28.0485 6.954C27.9254 6.90299 27.8134 6.82822 27.7192 6.73395C27.6249 6.63968 27.5501 6.52777 27.4991 6.4046C27.4481 6.28144 27.4219 6.14943 27.4219 6.01611V2.10938H40.0781C40.824 2.10938 41.5394 2.40569 42.0669 2.93314C42.5943 3.46058 42.8906 4.17595 42.8906 4.92188Z" fill="#FFB531"/>
<path d="M27.4223 27.7339V31.6406H14.766C14.2857 31.6408 13.8133 31.518 13.3939 31.2838C12.9744 31.0496 12.622 30.7119 12.3701 30.3029C16.0236 29.3302 19.5852 28.0407 23.0146 26.4489C23.4013 27.0448 23.9726 27.4219 24.6098 27.4219C25.0403 27.4137 25.4523 27.2454 25.7655 26.9499C25.944 26.7971 26.1722 26.7148 26.4071 26.7187C26.5404 26.7187 26.6725 26.745 26.7956 26.796C26.9188 26.847 27.0307 26.9218 27.125 27.016C27.2192 27.1103 27.294 27.2222 27.345 27.3454C27.396 27.4686 27.4223 27.6006 27.4223 27.7339Z" fill="#EA4A3B"/>
<path d="M42.8903 8.64142V16.875H38.2805C38.1471 16.8749 38.0151 16.9011 37.8919 16.952C37.7686 17.003 37.6567 17.0778 37.5624 17.1721C37.4681 17.2664 37.3933 17.3783 37.3424 17.5015C37.2914 17.6248 37.2652 17.7568 37.2653 17.8901C37.2614 18.1251 37.3436 18.3533 37.4965 18.5318C37.792 18.845 37.9603 19.257 37.9685 19.6875C37.9685 20.8521 36.709 21.7969 35.156 21.7969C34.0415 21.7969 33.0773 21.31 32.6221 20.6042C36.7318 17.3848 40.2633 13.4367 42.8903 8.64142Z" fill="#FFA912"/>
<path d="M23.676 27.1196L24.2121 26.5835L22.5215 24.8928C22.596 25.8735 23.0427 26.6998 23.676 27.1196Z" fill="#77AD50"/>
<path d="M24.6094 33.75V29.5312H22.246C22.0211 28.5836 21.6454 27.6782 21.1333 26.8497L22.8059 25.1771L19.8229 22.1941L18.1503 23.8667C17.3218 23.3546 16.4164 22.9789 15.4688 22.754V20.3906H11.25V22.754C10.3023 22.9789 9.39694 23.3546 8.56846 23.8667L6.8959 22.1941L3.91289 25.1771L5.58545 26.8497C5.07333 27.6782 4.69765 28.5836 4.47275 29.5312H2.10938V33.75H4.47275C4.69765 34.6977 5.07333 35.6031 5.58545 36.4315L3.91289 38.1041L6.8959 41.0871L8.56846 39.4146C9.39694 39.9267 10.3023 40.3024 11.25 40.5272V42.8906H15.4688V40.5272C16.4164 40.3024 17.3218 39.9267 18.1503 39.4146L19.8229 41.0871L22.8059 38.1041L21.1333 36.4315C21.6454 35.6031 22.0211 34.6977 22.246 33.75H24.6094ZM13.3594 33.75C12.9422 33.75 12.5344 33.6263 12.1875 33.3945C11.8406 33.1627 11.5702 32.8333 11.4106 32.4478C11.2509 32.0624 11.2091 31.6383 11.2905 31.2291C11.3719 30.8199 11.5728 30.4441 11.8678 30.1491C12.1628 29.8541 12.5387 29.6532 12.9479 29.5718C13.357 29.4904 13.7812 29.5322 14.1666 29.6918C14.552 29.8515 14.8815 30.1218 15.1133 30.4687C15.345 30.8156 15.4688 31.2234 15.4688 31.6406C15.4701 31.918 15.4165 32.1929 15.3109 32.4494C15.2054 32.706 15.0501 32.939 14.8539 33.1352C14.6578 33.3313 14.4247 33.4867 14.1682 33.5922C13.9117 33.6977 13.6368 33.7514 13.3594 33.75Z" fill="#FFB531"/>
<path d="M22.2462 33.75C22.0213 34.6976 21.6456 35.603 21.1335 36.4315L22.8061 38.1041L19.823 41.0871L18.1505 39.4145C17.322 39.9266 16.4166 40.3023 15.4689 40.5272V42.8906H11.2502V40.5272C10.3025 40.3023 9.39714 39.9266 8.56865 39.4145L6.89609 41.0871L3.91309 38.1041L4.80605 37.2111C7.37598 36.2443 9.81758 34.9664 12.0482 33.2921C12.4363 33.5996 12.9202 33.7608 13.4152 33.7475C13.9101 33.7342 14.3847 33.5471 14.7556 33.2191C15.1265 32.8911 15.3703 32.4431 15.4441 31.9535C15.518 31.4639 15.4173 30.9639 15.1596 30.5411C17.1925 28.4291 18.9652 25.8644 20.3891 22.7601L22.8061 25.1771L21.1335 26.8497C21.6456 27.6782 22.0213 28.5836 22.2462 29.5312H24.6096V33.75H22.2462Z" fill="#FFA912"/>
<path d="M13.3594 37.9688C12.1078 37.9688 10.8843 37.5976 9.84366 36.9023C8.803 36.2069 7.99191 35.2186 7.51295 34.0623C7.03399 32.906 6.90867 31.6336 7.15285 30.4061C7.39702 29.1785 7.99971 28.051 8.88472 27.166C9.76972 26.281 10.8973 25.6783 12.1248 25.4341C13.3524 25.1899 14.6247 25.3152 15.781 25.7942C16.9374 26.2732 17.9257 27.0843 18.621 28.1249C19.3164 29.1656 19.6875 30.389 19.6875 31.6406C19.6855 33.3184 19.0182 34.9268 17.8319 36.1131C16.6455 37.2995 15.0371 37.9668 13.3594 37.9688ZM13.3594 26.7188C12.3859 26.7188 11.4343 27.0074 10.6249 27.5482C9.81553 28.0891 9.18468 28.8578 8.81216 29.7571C8.43963 30.6565 8.34216 31.6461 8.53208 32.6008C8.72199 33.5556 9.19075 34.4326 9.87909 35.1209C10.5674 35.8093 11.4444 36.278 12.3992 36.4679C13.3539 36.6578 14.3435 36.5604 15.2429 36.1878C16.1423 35.8153 16.9109 35.1845 17.4518 34.3751C17.9926 33.5657 18.2813 32.6141 18.2813 31.6406C18.2798 30.3357 17.7608 29.0847 16.838 28.162C15.9153 27.2392 14.6643 26.7202 13.3594 26.7188Z" fill="#F79D16"/>
<path d="M42.8901 16.875V28.8281C42.8901 29.574 42.5938 30.2894 42.0664 30.8169C41.5389 31.3443 40.8236 31.6406 40.0776 31.6406H27.4214V27.7339C27.4214 27.6006 27.3951 27.4686 27.3441 27.3454C27.2931 27.2222 27.2184 27.1103 27.1241 27.0161C27.0298 26.9218 26.9179 26.847 26.7947 26.796C26.6716 26.745 26.5396 26.7187 26.4063 26.7188C26.1713 26.7148 25.9431 26.7971 25.7646 26.9499C25.4514 27.2454 25.0394 27.4137 24.6089 27.4219C23.9717 27.4219 23.4004 27.0448 23.0137 26.4489C26.4335 24.8467 29.6767 22.9122 32.6219 20.6042C33.0771 21.31 34.0413 21.7969 35.1558 21.7969C36.7088 21.7969 37.9683 20.8521 37.9683 19.6875C37.9601 19.257 37.7918 18.8449 37.4963 18.5317C37.3434 18.3533 37.2612 18.1251 37.2651 17.8901C37.2651 17.7568 37.2914 17.6248 37.3424 17.5016C37.3934 17.3785 37.4682 17.2666 37.5624 17.1723C37.6567 17.078 37.7686 17.0033 37.8918 16.9522C38.015 16.9012 38.147 16.875 38.2803 16.875H42.8901Z" fill="#77AD50"/>
<path d="M34.4531 30.2344C34.0802 30.2344 33.7225 30.3825 33.4588 30.6463C33.195 30.91 33.0469 31.2677 33.0469 31.6406H35.8594C35.8594 31.2677 35.7112 30.91 35.4475 30.6463C35.1838 30.3825 34.8261 30.2344 34.4531 30.2344Z" fill="#69A340"/>
<path d="M42.8907 35.9349V42.8906H31.6407L27.2941 39.8413C27.0055 39.64 26.8084 39.3327 26.7458 38.9865C26.6833 38.6403 26.7603 38.2834 26.9601 37.9938C27.1539 37.7128 27.4483 37.5171 27.7823 37.447C28.1163 37.3769 28.4646 37.4378 28.755 37.6172L31.6407 39.375V30.2753C31.6407 30.0892 31.6776 29.9048 31.7494 29.7331C31.8212 29.5613 31.9263 29.4055 32.0588 29.2747C32.1912 29.1439 32.3483 29.0407 32.521 28.971C32.6936 28.9014 32.8784 28.8667 33.0645 28.8691C33.4344 28.8737 33.7876 29.0239 34.0475 29.2871C34.3075 29.5503 34.4532 29.9054 34.4532 30.2753V35.8594C34.4532 35.4864 34.6013 35.1287 34.8651 34.865C35.1288 34.6013 35.4865 34.4531 35.8594 34.4531C36.2324 34.4531 36.5901 34.6013 36.8538 34.865C37.1175 35.1287 37.2657 35.4864 37.2657 35.8594C37.2657 35.4864 37.4138 35.1287 37.6776 34.865C37.9413 34.6013 38.299 34.4531 38.6719 34.4531C39.0449 34.4531 39.4026 34.6013 39.6663 34.865C39.93 35.1287 40.0782 35.4864 40.0782 35.8594C40.0782 35.6547 40.1229 35.4524 40.2092 35.2668C40.2954 35.0812 40.4211 34.9166 40.5775 34.7845C40.7339 34.6525 40.9173 34.5561 41.1147 34.5022C41.3122 34.4483 41.5191 34.4382 41.7209 34.4724C42.4117 34.5849 42.8907 35.2345 42.8907 35.9349Z" fill="#FEC9A3"/>
<path d="M42.8909 37.1154V42.8906H32.7686C35.9238 41.9986 39.9035 40.3058 42.8909 37.1154Z" fill="#FEC093"/>
</svg>
