<svg width="73" height="73" viewBox="0 0 73 73" fill="none" xmlns="http://www.w3.org/2000/svg">
<g clip-path="url(#clip0_555_5855)">
<rect width="72" height="72" transform="translate(0.146484 0.743164)" fill="#FFEBED"/>
<g clip-path="url(#clip1_555_5855)">
<path d="M51.6826 18.7037C51.3788 18.2633 50.8783 18 50.3437 18H32.875C30.1873 18 28 20.1873 28 22.875V24.1408C28.0634 24.1979 28.1363 24.2416 28.1964 24.3035L34.6966 30.8034C35.6178 31.7231 36.1248 32.9484 36.1248 34.2499C36.1248 35.5517 35.6178 36.777 34.6966 37.6967L28.1964 44.1966C28.1363 44.2567 28.0634 44.3007 28 44.359V47.25C28 49.9377 30.1873 52.125 32.875 52.125H38.5623C39.2368 52.125 39.8412 51.709 40.0801 51.0785L51.8614 20.2036C52.0531 19.7046 51.9849 19.1441 51.6826 18.7037Z" fill="#FF5948"/>
<path d="M24.1275 42.2518C23.5214 41.9998 23.1251 41.4068 23.1251 40.7504V35.8754H16.6249C15.7281 35.8754 15 35.1473 15 34.2502C15 33.3534 15.7281 32.6253 16.6249 32.6253H23.1251V27.7503C23.1251 27.0939 23.5214 26.5006 24.1275 26.2489C24.7354 25.9969 25.4341 26.1367 25.8988 26.6015L32.3987 33.1014C33.0343 33.7369 33.0343 34.7638 32.3987 35.399L25.8988 41.8992C25.4341 42.364 24.7354 42.5035 24.1275 42.2518Z" fill="#FF5948"/>
<path d="M49.7146 18.1607L39.9518 21.4155C38.634 21.8705 37.75 23.1103 37.75 24.4996V53.7496C37.75 55.542 39.2074 56.9997 40.9998 56.9997C41.3476 56.9997 41.6776 56.9494 42.035 56.8387L51.7981 53.5838C53.1159 53.1289 53.9999 51.889 53.9999 50.4998V21.2498C53.9999 19.1095 51.9183 17.4828 49.7146 18.1607Z" fill="#FF8174"/>
</g>
</g>
<defs>
<clipPath id="clip0_555_5855">
<rect x="0.146484" y="0.743164" width="72" height="72" rx="36" fill="white"/>
</clipPath>
<clipPath id="clip1_555_5855">
<rect width="39" height="39" fill="white" transform="translate(15 18)"/>
</clipPath>
</defs>
</svg>
