<svg width="370" height="321" viewBox="0 0 370 321" fill="none" xmlns="http://www.w3.org/2000/svg">
<path d="M288.368 55.1397C288.38 55.6292 286.697 66.5469 292.757 68.2063C298.817 69.8656 299.61 59.0976 299.144 58.5624C298.678 58.0272 293.709 51.6748 293.709 51.6748" fill="url(#paint0_linear_555_8532)"/>
<path d="M97.0808 320.999C85.4222 320.999 74.039 319.384 63.9959 316.074C41.8655 308.781 22.2643 288.908 10.2179 261.549C2.92799 244.992 2.57838 225.66 2.86139 205.65C3.31434 173.65 4.65245 136.695 14.8577 103.069C25.889 66.7222 46.3107 39.6687 70.8864 28.8453L71.8277 28.4308L68.0911 33.7826C82.6781 18.7727 104.736 17.8541 124.629 18.2896C158.523 19.0304 193.572 19.7965 227.521 27.5256C265.702 36.2184 297.339 52.8287 321.552 76.895C335.13 90.3908 346.692 107.02 354.987 124.986C363.884 144.253 368.89 164.352 369.865 184.726C371.232 213.27 362.278 247.506 339.194 259.645C322.649 268.346 303.546 263.183 287.041 256.984C285.259 256.315 283.471 255.629 281.679 254.942C266.569 249.146 250.946 243.153 235.341 245.891C216.442 249.208 201.164 264.593 186.388 279.472C174.844 291.096 162.907 303.117 149.091 309.758C133.704 317.156 115.065 320.999 97.0808 320.999ZM70.1588 29.8154C46.1605 40.8451 26.2387 67.5343 15.4005 103.246C5.21829 136.796 3.88268 173.701 3.43024 205.659C3.1481 225.599 3.49469 244.859 10.7357 261.304C22.7154 288.512 42.1908 308.27 64.1681 315.512C74.1587 318.805 85.4876 320.412 97.086 320.412C114.986 320.413 133.534 316.587 148.852 309.224C162.58 302.624 174.482 290.639 185.992 279.049C200.83 264.107 216.173 248.657 235.245 245.31C250.998 242.545 266.696 248.566 281.876 254.389C283.667 255.076 285.454 255.761 287.235 256.43C303.625 262.585 322.585 267.719 338.937 259.119C361.793 247.1 370.654 213.109 369.297 184.756C367.394 144.995 349.848 105.837 321.158 77.3204C297.021 53.3302 265.476 36.7705 227.399 28.1012C193.504 20.3844 158.484 19.619 124.617 18.8789C102.686 18.3992 78.1005 19.5662 64.0238 39.6076L63.5633 39.2613L63.5638 39.2608L70.1588 29.8154Z" fill="#98B1E6"/>
<path d="M0.0686939 38.0381L17.8997 269.3C18.7815 280.061 27.9213 288.791 38.3048 288.791H136.741C147.125 288.791 154.834 280.061 153.952 269.3L136.121 38.0381C135.239 27.2773 126.099 18.5469 115.716 18.5469H17.2795C6.89598 18.547 -0.813026 27.2774 0.0686939 38.0381Z" fill="#074A9B"/>
<path d="M5.01791 38.0381L22.8489 269.3C23.7307 280.061 32.8705 288.791 43.254 288.791H141.69C152.074 288.791 159.783 280.061 158.901 269.3L141.07 38.0381C140.188 27.2773 131.049 18.5469 120.665 18.5469H22.2287C11.8451 18.547 4.13619 27.2774 5.01791 38.0381Z" fill="#4285F4"/>
<path d="M141.028 284.064C141.12 284.064 141.218 284.061 141.315 284.056C145.07 283.982 148.491 282.394 150.955 279.58C153.453 276.726 154.651 272.976 154.329 269.019L136.496 37.771C135.844 29.7713 129.043 23.2754 121.334 23.2754H104.117C100.156 23.2754 96.6398 25.6781 95.1588 29.3964L94.3606 31.3859C93.9114 32.5181 92.898 33.1869 91.6449 33.1869H54.2118C52.8076 33.1869 51.4119 32.3197 50.6556 30.9776L49.5288 28.9794C47.5522 25.4627 43.9442 23.2754 40.1149 23.2754H22.8973C19.0624 23.2754 15.5582 24.8451 13.0305 27.6954C10.4905 30.5593 9.27099 34.335 9.59667 38.3267L27.4293 269.574C28.0815 277.571 34.8826 284.064 42.5915 284.064H141.028V284.064Z" fill="white"/>
<path d="M284.1 294.803L286.201 309.273L298.422 310.944L300.872 309.173L300.508 302.77L298.536 289.192L284.1 294.803Z" fill="#D4E3F6"/>
<path d="M267.482 316.897H267.489C267.691 317.39 267.905 317.818 268.102 318.182C268.486 318.881 269.14 319.396 269.868 319.574C270.225 319.66 270.609 319.745 271.006 319.817C279.634 321.459 297.023 320.338 302.453 319.924C303.462 319.853 304.208 319.103 304.285 318.068C304.323 317.575 304.352 317.104 304.38 316.633C304.667 309.887 303.894 303.755 300.507 302.77C299.68 302.534 299.341 305.561 298.591 306.225C296.894 307.731 293.042 308.288 290.485 307.188C289.999 306.974 289.568 306.71 289.197 306.382C287.581 304.932 288.268 300.221 284.393 300.621C281.1 300.956 281.919 303.605 281.53 304.861C281.245 305.796 280.696 306.517 279.987 307.096C276.919 309.544 270.718 309.202 268.202 310.943C267.97 311.1 267.768 311.279 267.605 311.479C266.317 313.049 266.801 315.241 267.482 316.897Z" fill="#191923"/>
<path d="M267.484 316.9H267.491C267.693 317.392 267.907 317.821 268.104 318.185C268.488 318.885 269.142 319.398 269.87 319.577C270.227 319.663 270.611 319.748 271.008 319.819C279.636 321.462 297.025 320.341 302.455 319.927C303.464 319.855 304.21 319.106 304.287 318.071C304.325 317.578 304.353 317.107 304.381 316.636L304.374 316.629C304.374 316.629 287.852 318.262 276.285 317.926C274.259 317.867 272.308 316.424 271.523 314.394C271.301 313.818 271.07 313.303 270.862 312.981C270.388 312.231 269.768 311.517 268.986 311.16C268.728 311.046 268.47 310.975 268.204 310.946C267.972 311.103 267.77 311.282 267.606 311.482C266.319 313.052 266.803 315.244 267.484 316.9Z" fill="#D4E3F6"/>
<path d="M301.994 288.954L301.644 290.943L300.783 295.876C300.877 296.518 299.786 297.035 298.135 297.409C298.059 297.428 297.976 297.447 297.9 297.466C297.828 297.478 297.751 297.491 297.681 297.509C297.586 297.528 297.498 297.547 297.397 297.565C297.279 297.59 297.154 297.609 297.024 297.634C296.834 297.665 296.639 297.696 296.436 297.721C291.652 298.382 281.841 297.856 281.631 296.328C281.456 295.131 281.133 287.357 281.133 287.357L295.146 288.218L297.383 287.675L298.508 287.407H298.635L299.602 287.395L300.347 287.376L301.675 287.357L301.994 288.954Z" fill="url(#paint1_linear_555_8532)"/>
<path d="M316.311 173.234L303.77 287.593C303.568 294.202 281.262 294.594 280.281 287.838C280.281 287.838 285.988 200.924 287.317 172.631" fill="url(#paint2_linear_555_8532)"/>
<path d="M308.928 178.45L298.634 287.407L298.182 292.196L297.68 297.509C297.585 297.528 297.497 297.546 297.396 297.565C297.278 297.59 297.154 297.609 297.023 297.634C296.834 297.665 296.638 297.696 296.436 297.721L296.933 292.433L297.383 287.675L307.727 178.213" fill="url(#paint3_linear_555_8532)"/>
<path d="M331.963 294.804L334.064 309.274L346.286 310.945L348.736 309.174L348.371 302.771L346.399 289.193L331.963 294.804Z" fill="#D4E3F6"/>
<path d="M315.351 316.897H315.358C315.56 317.39 315.774 317.818 315.972 318.182C316.355 318.881 317.009 319.396 317.737 319.574C318.094 319.66 318.479 319.745 318.875 319.817C327.503 321.459 344.892 320.338 350.322 319.924C351.332 319.853 352.077 319.103 352.154 318.068C352.193 317.575 352.221 317.104 352.249 316.633C352.537 309.887 351.763 303.755 348.376 302.77C347.55 302.534 347.211 305.561 346.46 306.225C344.763 307.731 340.911 308.288 338.354 307.188C337.868 306.974 337.437 306.71 337.066 306.382C335.45 304.932 336.137 300.221 332.262 300.621C328.969 300.956 329.788 303.605 329.399 304.861C329.114 305.796 328.565 306.517 327.856 307.096C324.788 309.544 318.587 309.202 316.071 310.943C315.839 311.1 315.637 311.279 315.473 311.479C314.186 313.049 314.67 315.241 315.351 316.897Z" fill="#191923"/>
<path d="M315.351 316.901H315.358C315.56 317.393 315.774 317.822 315.971 318.186C316.356 318.886 317.009 319.399 317.737 319.578C318.094 319.664 318.479 319.749 318.875 319.82C327.503 321.463 344.892 320.342 350.322 319.928C351.331 319.856 352.077 319.107 352.154 318.072C352.193 317.579 352.22 317.108 352.249 316.637L352.241 316.63C352.241 316.63 335.719 318.263 324.152 317.927C322.126 317.868 320.175 316.424 319.39 314.395C319.168 313.819 318.937 313.304 318.729 312.982C318.255 312.232 317.635 311.518 316.853 311.161C316.595 311.047 316.337 310.976 316.071 310.947C315.839 311.104 315.637 311.283 315.473 311.483C314.186 313.053 314.67 315.245 315.351 316.901Z" fill="#D4E3F6"/>
<path d="M348.646 295.875C348.73 296.474 347.799 296.96 346.34 297.328C346.158 297.378 345.964 297.421 345.763 297.465C345.609 297.496 345.45 297.528 345.29 297.559C345.248 297.565 345.207 297.571 345.166 297.584C345.077 297.596 344.982 297.615 344.888 297.634C344.786 297.646 344.686 297.665 344.579 297.683C339.853 298.388 330.94 298.17 330.722 296.617C330.544 295.382 330.27 292.477 330.096 290.481C329.989 289.29 329.916 288.417 329.916 288.417L343.009 288.218L343.593 288.211L343.923 288.205L344.265 288.199H344.319L345.467 288.18L347.089 288.155L347.408 289.752L347.408 289.758L348.646 295.875Z" fill="url(#paint4_linear_555_8532)"/>
<path d="M336.914 172.631L347.613 288.74C348.391 293.11 329.565 293.265 328.787 288.895L309.498 172.631" fill="url(#paint5_linear_555_8532)"/>
<path d="M334.285 178.213C335.203 181.586 342.678 259.059 345.467 288.18C345.563 289.172 345.654 290.113 345.739 290.986C346.008 293.767 346.209 295.931 346.341 297.328C346.159 297.378 345.964 297.421 345.763 297.465C345.61 297.496 345.45 297.527 345.29 297.559C345.249 297.565 345.207 297.571 345.166 297.584C344.975 295.601 344.783 293.53 344.572 291.392C344.477 290.344 344.375 289.278 344.266 288.199C340.262 246.344 333.912 181.349 333.127 178.45" fill="url(#paint6_linear_555_8532)"/>
<path d="M247.949 134.412C247.949 134.412 270.368 154.627 281.726 152.561C291.623 150.762 309.159 122.116 309.159 122.116L299.144 103.431C299.144 103.431 286.917 108.549 275.261 127.798L254.822 116.55C250.145 114.051 242.557 129.951 247.949 134.412Z" fill="#EA4234"/>
<path d="M296.414 105.21C296.414 105.21 293.812 99.5084 297.381 98.1559C300.95 96.8034 312.973 96.2917 313.062 96.2979C313.151 96.3041 314.442 101.574 314.442 101.574L299.717 108.833L296.456 107.741L296.414 105.21Z" fill="#C10B06"/>
<path d="M314.828 102.446C314.828 102.446 304.753 101.334 298.709 104.957C286.593 112.222 286.913 184.209 289.651 185.154C294.051 189.396 320.844 187.541 321.442 183.453L314.828 102.446Z" fill="white"/>
<path d="M300.182 81.6137L304.474 95.447C304.474 95.447 304.474 95.447 304.478 95.4472L304.555 95.7016L306.644 102.429C305.515 106.835 313.168 103.783 321.475 100.177L316.115 77.5801L312.555 78.8224L300.182 81.6137Z" fill="#FFD4CF"/>
<path d="M299.65 79.9772C299.65 79.9772 305.154 97.7177 305.158 97.718C305.387 97.5843 313.833 89.9591 314.914 81.237C315.167 79.1873 314.539 77.7948 313.425 76.8701L299.65 79.9772Z" fill="url(#paint7_linear_555_8532)"/>
<path d="M310.707 187.185L308.768 186.206C309.244 191.43 308.917 196.287 314.081 195.794C323.985 197.866 343.782 191.306 343.366 188.346C343.366 188.346 343.303 181.866 342.152 179.008L328.12 182.027L310.707 187.185Z" fill="#EA4234"/>
<path d="M307.822 188.757C307.951 193.541 344.262 187.7 343.351 179.995L338.815 149.671C338.815 149.671 347.632 110.153 334.288 101.11C333.581 100.631 332.889 100.244 332.112 100.111C326.861 99.2108 316.29 99.3286 311.144 103.457C301.723 111.017 302.143 177.331 307.822 188.757Z" fill="#4285F4"/>
<path d="M311.13 103.214C316.478 100.186 329.376 100.268 334.289 101.11C335.017 101.235 332.905 95.3127 332.905 95.3127C330.041 92.714 315.122 94.0274 312.054 96.4803C309.048 98.8842 311.053 103.052 311.13 103.214Z" fill="#EA4234"/>
<path d="M284.418 183.96L284.155 189.333C283.83 190.495 287.488 191.728 290.983 192.267C294.07 192.742 296.677 190.425 296.038 187.784L296.464 183.677L284.418 183.96Z" fill="#EA4234"/>
<path d="M306.101 102.619C306.101 102.619 299.51 106.442 296.537 115.932C291.071 133.377 296.967 186.822 296.967 186.822C296.348 190.05 283.537 187.313 284.156 184.086C284.156 184.086 283.566 111.478 294.9 104.79C294.9 104.79 301.062 101.781 306.101 102.619Z" fill="#4285F4"/>
<path d="M291.734 61.0784C288.296 71.9597 288.944 90.5038 297.226 92.5399C305.149 94.482 314.346 89.0407 315.031 80.2221C315.502 80.3076 315.97 80.3544 316.433 80.3693C316.437 80.3784 316.453 80.3758 316.462 80.3711C320.559 80.186 324.169 74.9423 321.287 71.4647C319.972 69.8768 318.578 69.8462 317.398 70.3623C318.004 66.7582 318.289 63.2465 317.641 60.9299C316.781 57.8697 309.746 51.1514 309.746 51.1514C309.746 51.1514 299.954 51.1289 295.601 54.6538C293.889 56.0336 292.609 58.3196 291.734 61.0784Z" fill="#FFD4CF"/>
<path d="M298.023 52.7489C298.02 56.1256 288.18 53.5314 288.378 55.6264C289.363 66.0249 311.022 62.0031 310.993 62.0995C309.9 65.7189 312.356 70.3128 312.356 70.3128L310.294 75.1529L312.448 75.8559C314.061 70.7859 317.405 70.3626 317.405 70.3626C318.585 69.8465 319.979 69.8771 321.294 71.465C324.176 74.9426 320.566 80.1863 316.468 80.3714C329.809 80.8397 335.249 54.4804 323.588 48.692C313.966 37.0472 298.038 44.0902 298.023 52.7489Z" fill="url(#paint8_linear_555_8532)"/>
<path d="M329.809 64.4329L319.525 60.2976L298.697 49.0102C298.697 49.0102 304.743 36.9334 318.337 41.2523C333.728 46.1423 329.809 64.4329 329.809 64.4329Z" fill="#185ABC"/>
<path d="M297.74 58.1771L297.732 58.1837C307.388 64.527 313.876 62.961 319.523 60.2969C319.523 60.2969 300.702 45.3707 288.363 46.1432C295.616 48.7308 297.74 58.1771 297.74 58.1771Z" fill="#4285F4"/>
<path d="M288.423 55.9987C293.545 52.943 297.734 58.1848 297.734 58.1848L297.742 58.1782C297.742 58.1782 295.618 48.7318 288.365 46.1442C282.738 45.8948 288.423 55.9987 288.423 55.9987Z" fill="#074A9B"/>
<path d="M292.349 70.6909C292.066 71.6355 292.29 72.6018 292.851 72.8522C293.412 73.1027 294.094 72.5414 294.377 71.5968C294.658 70.6581 294.433 69.6919 293.873 69.4415C293.312 69.1911 292.63 69.7524 292.349 70.6909Z" fill="url(#paint9_linear_555_8532)"/>
<path d="M296.898 68.2019C296.744 68.2019 296.595 68.1157 296.519 67.9652C295.681 66.3207 293.8 66.7569 292.369 67.4111C292.153 67.5096 291.9 67.4091 291.804 67.1843C291.709 66.9602 291.807 66.6981 292.023 66.5993C294.482 65.4757 296.396 65.8221 297.276 67.551C297.387 67.7677 297.307 68.0364 297.097 68.1505C297.034 68.1854 296.965 68.2019 296.898 68.2019Z" fill="url(#paint10_linear_555_8532)"/>
<path d="M302.31 72.815C302.027 73.7596 302.251 74.7258 302.812 74.9763C303.373 75.2268 304.055 74.6655 304.337 73.7209C304.619 72.7822 304.394 71.816 303.833 71.5656C303.273 71.315 302.591 71.8763 302.31 72.815Z" fill="url(#paint11_linear_555_8532)"/>
<path d="M306.637 71.6472C306.482 71.6472 306.333 71.5606 306.256 71.4089C305.236 69.3824 303.681 68.4353 301.874 68.7413C301.643 68.7832 301.421 68.6168 301.383 68.375C301.345 68.1332 301.502 67.905 301.736 67.8654C303.932 67.4898 305.809 68.6047 307.016 70.9982C307.125 71.2154 307.044 71.4835 306.835 71.5968C306.771 71.6311 306.703 71.6472 306.637 71.6472Z" fill="url(#paint12_linear_555_8532)"/>
<path d="M299.398 72.3604C299.574 72.9156 299.513 73.5084 299.44 74.0789C299.345 74.6515 299.181 75.222 298.877 75.7637C298.732 76.0384 298.529 76.2931 298.278 76.5226C298.151 76.6354 298.009 76.7409 297.849 76.8252C297.771 76.8699 297.686 76.9052 297.6 76.9386L297.418 77.0083C296.969 77.179 296.546 77.3983 296.215 77.6942C295.874 77.9815 295.639 78.3463 295.534 78.7301C295.431 79.1171 295.505 79.5234 295.738 79.8617C295.975 80.1983 296.389 80.439 296.865 80.553C297.344 80.6662 297.874 80.6607 298.418 80.6098C297.947 80.8981 297.405 81.0791 296.819 81.1134C296.241 81.1245 295.58 80.9678 295.095 80.4707C294.594 79.9968 294.371 79.2151 294.49 78.5184C294.6 77.8147 294.999 77.2124 295.476 76.7966C295.954 76.3656 296.515 76.1015 297.075 75.9245L297.272 75.8628C297.313 75.8519 297.354 75.8423 297.395 75.8239C297.478 75.7938 297.561 75.7461 297.643 75.689C297.81 75.5731 297.963 75.407 298.115 75.2237C298.412 74.849 298.663 74.3867 298.88 73.9035C299.094 73.4162 299.304 72.9115 299.398 72.3604Z" fill="#F8B7B3"/>
<path d="M298.379 87.2429C298.32 87.2429 298.262 87.2412 298.205 87.2378C296.813 87.1516 296.315 86.4658 296.142 86.0644C296.047 85.8405 296.144 85.5782 296.359 85.4785C296.576 85.3785 296.828 85.479 296.925 85.7033C297.018 85.9205 297.316 86.2939 298.256 86.3519C299.219 86.4109 300.741 85.7435 301.479 85.1052C301.66 84.9484 301.93 84.9726 302.082 85.1616C302.234 85.3496 302.21 85.6296 302.028 85.7865C301.193 86.5089 299.598 87.2429 298.379 87.2429Z" fill="#F8B7B3"/>
<path d="M243.204 130.131L248.381 134.359C250.805 136.364 257.874 120.636 255.5 118.668L250.918 114.596C249.125 113.104 241.41 128.639 243.204 130.131Z" fill="#4285F4"/>
<path d="M243.822 129.175C244.507 129.732 247.395 127.652 249.182 123.972C250.969 120.292 250.98 116.405 250.295 115.848C249.61 115.291 247.605 117.823 245.818 121.504C244.031 125.184 243.137 128.618 243.822 129.175Z" fill="#185ABC"/>
<path d="M231.88 191.692H279.219L277.837 145.372H230.498L231.88 191.692Z" fill="url(#paint13_linear_555_8532)"/>
<path d="M288.225 159.546C288.293 159.849 288.431 160.147 288.646 160.414L291.865 164.436L296.073 163.866C294.725 162.713 291.616 158.361 291.616 158.361C290.868 157.288 289.371 157.117 288.592 158.016C288.226 158.434 288.113 159.002 288.225 159.546Z" fill="#FFD4CF"/>
<path d="M292.369 191.692H279.22L277.838 145.372H290.987L292.369 191.692Z" fill="url(#paint14_linear_555_8532)"/>
<path d="M258.219 145.372L258.552 158.235L251.984 152.57L245.71 158.235L245.377 145.372H258.219Z" fill="url(#paint15_linear_555_8532)"/>
<path d="M302.081 163.077L334.829 149.938C334.829 149.938 314.614 113.271 321.864 103.215C324.448 99.6305 332.162 99.7032 335.621 101.452C350.599 109.023 367.352 157.179 358.549 166.119C347.221 177.624 313.246 180.405 307.417 180.565C302.611 181.513 297.276 164.025 302.081 163.077Z" fill="#EA4234"/>
<path d="M303.85 180.45L309.656 179.741C312.722 179.326 309.554 162.08 306.548 162.484L300.585 163.061C298.311 163.363 301.576 180.751 303.85 180.45Z" fill="#4285F4"/>
<path d="M303.787 179.252C304.636 179.07 304.663 175.61 303.846 171.524C303.029 167.438 301.678 164.274 300.829 164.456C299.979 164.638 299.953 168.098 300.77 172.184C301.587 176.27 302.938 179.435 303.787 179.252Z" fill="#185ABC"/>
<path d="M281.342 174.254C280.581 174.449 279.64 174.922 279.824 176.012C280.21 178.353 282.55 178.517 284.58 178.185C283.346 178.73 282.416 179.677 283.319 181.492C284.931 184.71 302.975 178.462 302.975 178.462C305.293 178.248 302.868 165.109 300.555 165.317C300.555 165.317 296.854 164.525 296.076 163.865L291.868 164.435C291.868 164.435 279.042 165.146 278.506 167.517C277.971 169.924 280.522 169.886 281.482 170.061C279.457 170.328 276.664 170.397 276.881 172.05C277.183 174.416 279.907 174.417 281.342 174.254ZM281.348 174.253C281.826 174.124 282.231 174.108 282.231 174.108C282.231 174.108 281.88 174.191 281.348 174.253Z" fill="#FFD4CF"/>
<path d="M281.348 174.253C281.88 174.191 282.231 174.107 282.231 174.107C282.231 174.107 281.826 174.124 281.348 174.253Z" fill="#FFD4CF"/>
<path d="M280.558 166.121C280.002 166.324 279.44 166.55 278.973 166.921C278.743 167.106 278.545 167.348 278.522 167.654C278.472 167.951 278.459 168.259 278.534 168.546C278.669 169.141 279.208 169.505 279.757 169.663C280.315 169.839 280.9 169.867 281.498 169.952C281.556 169.96 281.597 170.016 281.589 170.076C281.582 170.126 281.544 170.163 281.499 170.17L281.493 170.171C280.509 170.316 279.517 170.396 278.571 170.637C278.107 170.76 277.631 170.926 277.314 171.237C277.158 171.392 277.068 171.584 277.055 171.796C277.049 172 277.099 172.254 277.173 172.472C277.317 172.921 277.615 173.289 277.999 173.537C278.387 173.782 278.843 173.92 279.311 173.989C280.247 174.121 281.241 174.028 282.165 173.821L282.24 174.405C281.542 174.45 280.734 174.622 280.288 175.104C280.068 175.342 280.001 175.662 280.062 176.013C280.121 176.382 280.241 176.734 280.443 177.032C280.84 177.64 281.557 177.958 282.29 178.073C283.029 178.192 283.8 178.146 284.556 178.036C284.635 178.023 284.709 178.079 284.722 178.161C284.732 178.229 284.694 178.295 284.635 178.323C284.249 178.492 283.868 178.694 283.575 178.992C283.275 179.28 283.083 179.676 283.067 180.099C283.048 180.523 283.17 180.953 283.35 181.35C283.487 181.757 283.94 181.905 284.342 182.004C285.181 182.185 286.056 182.175 286.92 182.166C287.786 182.151 288.652 182.105 289.519 182.075C288.653 182.129 287.789 182.198 286.922 182.237C286.056 182.269 285.183 182.305 284.314 182.143C284.099 182.098 283.882 182.04 283.677 181.934C283.476 181.838 283.276 181.648 283.196 181.428C282.997 181.021 282.849 180.569 282.856 180.091C282.858 179.614 283.072 179.138 283.398 178.808C283.718 178.465 284.12 178.238 284.522 178.046L284.602 178.333C283.83 178.469 283.037 178.544 282.239 178.442C281.456 178.345 280.606 178.022 280.094 177.292C279.838 176.939 279.684 176.52 279.604 176.101C279.504 175.671 279.592 175.116 279.912 174.76C280.218 174.4 280.617 174.202 281.007 174.063C281.404 173.927 281.794 173.848 282.217 173.814C282.374 173.801 282.511 173.922 282.523 174.084C282.534 174.231 282.439 174.362 282.305 174.395L282.292 174.398L282.292 174.398C281.277 174.591 280.261 174.655 279.235 174.482C278.726 174.39 278.215 174.223 277.762 173.917C277.313 173.611 276.953 173.135 276.8 172.599C276.722 172.332 276.67 172.071 276.687 171.763C276.711 171.46 276.865 171.168 277.075 170.976C277.5 170.59 278.013 170.45 278.502 170.331C279.491 170.112 280.485 170.066 281.466 169.951L281.461 170.17C280.891 170.07 280.282 170.021 279.708 169.82C279.422 169.721 279.141 169.583 278.905 169.377C278.671 169.17 278.493 168.884 278.43 168.572C278.359 168.261 278.383 167.941 278.443 167.638C278.476 167.316 278.703 167.053 278.94 166.877C279.428 166.514 279.996 166.307 280.558 166.121Z" fill="#F8B7B3"/>
<path d="M281.24 169.865C282.065 169.722 282.894 169.616 283.723 169.513C284.552 169.41 285.384 169.338 286.213 169.242L288.71 169.032C289.544 168.97 290.377 168.911 291.217 168.872C290.405 169.101 289.582 169.269 288.758 169.426C287.934 169.583 287.105 169.7 286.277 169.83C285.447 169.93 284.617 170.044 283.784 170.121C282.951 170.199 282.118 170.268 281.279 170.292C281.165 170.295 281.07 170.202 281.066 170.083C281.064 169.974 281.14 169.882 281.24 169.865Z" fill="#F8B7B3"/>
<path d="M282.117 173.938C282.942 173.795 283.771 173.689 284.6 173.587C285.429 173.483 286.261 173.411 287.09 173.315L289.587 173.105C290.421 173.044 291.254 172.984 292.094 172.945C291.282 173.174 290.459 173.342 289.635 173.5C288.811 173.657 287.982 173.773 287.154 173.904C286.324 174.004 285.494 174.117 284.661 174.194C283.828 174.272 282.995 174.341 282.157 174.365C282.042 174.368 281.947 174.275 281.943 174.156C281.941 174.047 282.016 173.955 282.117 173.938Z" fill="#F8B7B3"/>
<path d="M284.349 178.04C285.174 177.897 286.003 177.79 286.832 177.688C287.661 177.585 288.493 177.513 289.322 177.417L291.819 177.206C292.653 177.145 293.486 177.085 294.326 177.047C293.514 177.276 292.691 177.444 291.867 177.601C291.043 177.758 290.214 177.875 289.387 178.005C288.556 178.105 287.727 178.219 286.893 178.296C286.061 178.374 285.227 178.443 284.389 178.467C284.274 178.47 284.179 178.376 284.176 178.258C284.173 178.149 284.249 178.057 284.349 178.04Z" fill="#F8B7B3"/>
<path d="M250.057 117.485C251.322 118.181 247.149 127.919 244.338 127.738C244.338 127.738 230.75 127.192 230.888 123.636C230.967 121.592 231.906 121.378 232.687 121.564C231.814 121.041 230.752 120.084 230.925 118.525C231.099 116.987 232.089 117.457 232.882 117.847C232.237 117.367 231.014 116.324 231.335 115.047C231.812 113.152 232.787 113.052 233.9 113.32C231.33 112.058 223.841 107.07 224.48 104.953C225.87 100.311 239.291 111.056 239.647 111.383C239.647 111.383 236.938 104.714 239.424 105.071C242.551 105.52 250.057 117.485 250.057 117.485Z" fill="#FFD4CF"/>
<path d="M237.439 126.998C236.536 126.863 235.636 126.701 234.749 126.47C233.864 126.237 232.978 125.968 232.157 125.512C231.753 125.281 231.349 125.01 231.052 124.601C230.91 124.394 230.796 124.154 230.761 123.892C230.725 123.619 230.75 123.388 230.774 123.143C230.833 122.664 230.942 122.151 231.296 121.744C231.659 121.321 232.267 121.255 232.731 121.374L232.596 121.731C232.124 121.456 231.677 121.108 231.324 120.655C230.967 120.209 230.731 119.636 230.693 119.043C230.669 118.746 230.697 118.454 230.754 118.16C230.815 117.876 230.944 117.527 231.273 117.328C231.609 117.144 231.959 117.211 232.226 117.292C232.503 117.378 232.75 117.499 232.99 117.614L232.74 118.054C232.264 117.699 231.803 117.295 231.452 116.763C231.279 116.498 231.136 116.196 231.07 115.863C230.998 115.535 231.03 115.164 231.119 114.862C231.285 114.28 231.518 113.631 232.098 113.224C232.384 113.028 232.729 112.941 233.048 112.933C233.37 112.923 233.674 112.976 233.964 113.043L233.785 113.575C231.474 112.384 229.347 110.921 227.33 109.278C226.341 108.434 225.346 107.576 224.601 106.416C224.425 106.12 224.256 105.8 224.205 105.404C224.186 105.21 224.2 104.978 224.275 104.8C224.356 104.632 224.397 104.446 224.529 104.301L224.704 104.075L224.928 103.9C225.071 103.768 225.255 103.732 225.42 103.652C225.591 103.608 225.767 103.574 225.938 103.554C226.108 103.553 226.282 103.538 226.449 103.554C227.121 103.604 227.75 103.795 228.358 104.019C228.969 104.241 229.557 104.511 230.132 104.802C231.283 105.384 232.388 106.048 233.467 106.75C235.614 108.17 237.686 109.708 239.649 111.382C237.603 109.821 235.492 108.352 233.31 107.015C232.222 106.344 231.111 105.712 229.966 105.166C229.394 104.893 228.812 104.643 228.219 104.443C227.628 104.24 227.02 104.075 226.421 104.047C225.826 104.003 225.229 104.147 224.929 104.603C224.833 104.697 224.808 104.85 224.744 104.973C224.691 105.099 224.695 105.205 224.703 105.338C224.735 105.599 224.873 105.877 225.032 106.135C225.705 107.172 226.693 108.03 227.665 108.841C228.654 109.648 229.693 110.395 230.756 111.101C231.819 111.801 232.9 112.496 234.019 113.063L234.025 113.066C234.16 113.135 234.216 113.304 234.15 113.444C234.093 113.566 233.962 113.625 233.841 113.595C233.313 113.462 232.776 113.423 232.39 113.687C231.997 113.945 231.769 114.477 231.619 115.009C231.456 115.51 231.578 116.018 231.873 116.47C232.164 116.921 232.582 117.301 233.028 117.638C233.139 117.72 233.165 117.88 233.086 117.995C233.016 118.097 232.884 118.128 232.778 118.077C232.543 117.961 232.312 117.849 232.086 117.777C231.861 117.702 231.641 117.688 231.505 117.766C231.216 117.921 231.122 118.543 231.139 119.013C231.161 119.511 231.342 119.991 231.647 120.391C231.946 120.795 232.347 121.127 232.783 121.395L232.788 121.398C232.877 121.452 232.906 121.571 232.854 121.663C232.811 121.739 232.726 121.773 232.647 121.753C232.241 121.647 231.815 121.692 231.544 121.991C231.269 122.286 231.145 122.739 231.084 123.185C231.012 123.653 231.021 124.07 231.279 124.434C231.52 124.795 231.889 125.071 232.269 125.307C233.043 125.776 233.912 126.08 234.781 126.345C235.655 126.603 236.544 126.817 237.439 126.998Z" fill="#F8B7B3"/>
<path d="M232.78 121.281L234.838 122.305L232.599 121.843C232.443 121.811 232.342 121.654 232.373 121.492C232.404 121.33 232.555 121.226 232.711 121.258C232.735 121.263 232.759 121.271 232.78 121.281Z" fill="#F8B7B3"/>
<path d="M233.016 117.582L234.506 118.709L232.755 118.108C232.603 118.056 232.521 117.887 232.571 117.73C232.621 117.573 232.785 117.488 232.936 117.54C232.965 117.55 232.993 117.565 233.016 117.582Z" fill="#F8B7B3"/>
<path d="M237.495 7.70445L236.461 13.799L235.291 20.722L235.08 21.9469L234.64 24.5563L234.149 27.4556L233.709 30.0651L233.572 30.858L231.682 42.0354L230.318 50.0944L228.257 62.2835L225.465 78.7744C225.282 79.8572 224.38 80.6443 223.318 80.6443H161.402C160.049 80.6443 159.027 79.378 159.255 77.9934L159.478 76.7035L159.615 75.8573L160.643 69.7924L161.436 65.112L161.568 64.3428L149.104 67.2008L162.944 54.2424L163.338 53.8755L167.363 30.0652L167.809 27.4557L168.3 24.5564L168.739 21.9469L171.286 6.92348C171.468 5.84066 172.371 5.05371 173.433 5.05371H235.343C236.701 5.05362 237.723 6.31978 237.495 7.70445Z" fill="#D4E3F6"/>
<path d="M186.388 33.8294H177.745L174.906 26.558L180.971 18.1846H189.615L192.453 25.4559L186.388 33.8294Z" fill="white"/>
<path d="M225.464 78.7758L228.256 62.2848L228.548 60.5576C223.827 66.5773 218.159 71.8674 211.846 76.1544C210.753 76.899 209.64 77.6119 208.508 78.2929C207.125 79.126 205.715 79.9087 204.283 80.6455H223.317C224.379 80.6454 225.282 79.8585 225.464 78.7758Z" fill="#AECBFA"/>
<path d="M234.013 5.05469H226.526C230.345 12.0639 231.242 20.6436 229.025 29.6579C223.279 53.0326 198.725 72.0522 174.293 72.0522C169.356 72.0522 164.762 71.2814 160.643 69.795L159.617 75.8567L159.475 76.7057C164.06 78.2327 169.026 79.0064 174.293 79.0064C187.547 79.0064 201.194 74.0776 212.722 65.1271C221.001 58.7032 227.504 50.7348 231.684 42.0335L233.574 30.8605L233.709 30.0637L234.15 27.4558L234.64 24.5583L235.081 21.9504L235.288 20.7219L236.46 13.8025C235.99 10.76 235.174 7.83062 234.013 5.05469Z" fill="#98B1E6"/>
<path d="M170.758 21.9494H168.719L171.239 7.00953C171.432 5.87847 172.374 5.05371 173.48 5.05371H178.007L176.315 14.2444L170.758 21.9494Z" fill="#AECBFA"/>
<path d="M223.884 30.0645C220.943 41.6501 213.475 51.8571 203.757 58.6971C202.775 59.3953 201.764 60.0581 200.737 60.6793C200.069 61.0876 199.384 61.4841 198.698 61.8568C194.45 64.1704 189.888 65.8745 185.184 66.8212L190.859 36.6797L195.649 30.0645H223.884Z" fill="#AECBFA"/>
<path d="M225.15 21.9494H196.329L192.823 12.5464H185.312L186.632 5.05371H222.622C224.582 10.1358 225.497 15.8576 225.15 21.9494Z" fill="#AECBFA"/>
<path d="M214.399 5.0538L209.523 29.6392L209.437 30.0652L203.756 58.6978C202.774 59.3961 201.763 60.0588 200.736 60.6801C200.068 61.0883 199.382 61.4848 198.697 61.8576L205.098 30.0651L205.183 29.6391L206.839 21.4144L210.088 5.05371H214.399V5.0538Z" fill="white"/>
<path d="M186.489 33.5425H178.12L175.263 26.2204L180.874 18.4694H189.243L192.1 25.7915L186.489 33.5425ZM194.633 24.5572L191.127 15.5718H182.269L184.21 5.05371H181.364L179.404 15.6704L172.973 24.5572H168.301L167.809 27.4548H172.73L176.236 36.4401H185.49L177.17 80.6424H180.019L188.499 35.5939L194.39 27.4547H234.152L234.641 24.5571L194.633 24.5572Z" fill="#FBBC04"/>
<path d="M180.071 48.2169C179.837 53.8113 173.688 59.4027 173.688 59.4027C173.688 59.4027 168.006 53.8113 168.239 48.2169C168.382 44.8011 171.147 42.0303 174.414 42.0303C177.68 42.0304 180.213 44.8012 180.071 48.2169Z" fill="#EA4234"/>
<path d="M176.718 50.4295C177.943 48.9008 177.792 46.6772 176.381 45.4629C174.971 44.2486 172.834 44.5034 171.609 46.032C170.384 47.5606 170.534 49.7842 171.945 50.9985C173.356 52.2129 175.493 51.9581 176.718 50.4295Z" fill="white"/>
<path d="M212.294 6.63218C212.044 12.6294 205.452 18.6235 205.452 18.6235C205.452 18.6235 199.36 12.6294 199.611 6.63218C199.764 2.97033 202.729 0 206.23 0C209.731 0 212.447 2.97033 212.294 6.63218Z" fill="#EA4234"/>
<path d="M208.699 8.9979C210.012 7.35918 209.851 4.97546 208.338 3.67369C206.826 2.37193 204.535 2.64508 203.222 4.2838C201.908 5.92252 202.07 8.30626 203.582 9.60803C205.095 10.9098 207.386 10.6366 208.699 8.9979Z" fill="white"/>
<path d="M111.691 178.091C125.266 163.313 123.513 138.746 107.775 123.22C92.0369 107.694 68.2741 107.088 54.699 121.867C41.1239 136.645 42.8771 161.211 58.615 176.737C74.3528 192.263 98.1156 192.869 111.691 178.091Z" fill="#6BB26E"/>
<path d="M103.043 134.836C101.553 137.984 99.7764 140.856 97.9325 143.665C96.0755 146.467 94.1026 149.154 92.0353 151.758C87.9071 156.965 83.4799 161.885 78.6604 166.447L78.4002 166.696C77.6244 167.432 76.3484 167.323 75.549 166.447C74.6952 165.519 73.8699 164.566 73.0446 163.613C72.2185 162.653 71.4099 161.681 70.6062 160.695C69.0161 158.712 64.8738 153.179 63.4512 151.01C65.6646 152.276 70.318 157.215 72.3701 158.667C73.3908 159.403 74.3998 160.145 75.3983 160.906C75.7244 161.156 76.0508 161.405 76.3776 161.661C79.9404 156.805 83.8277 152.244 87.9523 147.906C90.2434 145.514 92.6164 143.204 95.1047 141.003C97.6067 138.815 100.176 136.685 103.043 134.836Z" fill="white"/>
<path d="M59.126 59.1637L61.0131 89.5592C61.1537 91.8239 59.5276 93.6582 57.3857 93.6582H27.0651C24.9231 93.6582 23.0693 91.8239 22.9287 89.5592L21.0416 59.1637C20.9015 56.9056 22.5275 55.0713 24.6694 55.0713H54.99C57.132 55.0712 58.9858 56.9056 59.126 59.1637Z" fill="#D4E3F6"/>
<path d="M44.12 72.815C46.3693 70.9584 46.6397 67.4326 44.7238 64.9397C42.8079 62.4469 39.4314 61.9312 37.1821 63.7878C34.9328 65.6444 34.6625 69.1702 36.5783 71.663C38.4942 74.1558 41.8707 74.6716 44.12 72.815Z" fill="white"/>
<path d="M52.097 86.0546C51.4134 80.3259 46.6334 75.7832 41.117 75.7832C35.6005 75.7832 31.3846 80.3259 31.4122 86.0546H52.097Z" fill="white"/>
<path d="M96.4716 67.3349H67.2925L66.7148 58.0312H95.8939L96.4716 67.3349Z" fill="#D4E3F6"/>
<path d="M90.4609 74.001H67.707L67.9123 77.3058H90.666L90.4609 74.001Z" fill="#D4E3F6"/>
<path d="M97.498 74.001L97.7032 77.3058H129.609L129.404 74.001H97.498Z" fill="#D4E3F6"/>
<path d="M108.48 80.8857H68.1328L68.338 84.1906H108.685L108.48 80.8857Z" fill="#D4E3F6"/>
<path d="M116.346 80.8857L116.551 84.1906H130.037L129.832 80.8857H116.346Z" fill="#D4E3F6"/>
<path d="M89.4492 87.7725L89.6543 91.0772H99.1677L98.9626 87.7725H89.4492Z" fill="#D4E3F6"/>
<path d="M81.9333 87.7725H68.5625L68.7677 91.0772H82.1385L81.9333 87.7725Z" fill="#D4E3F6"/>
<path d="M68.4586 205.04L70.0873 220.048H55.6053L53.9766 205.04H68.4586Z" fill="#D4E3F6"/>
<path d="M96.4722 205.04L98.101 220.048H83.619L81.9902 205.04H96.4722Z" fill="#D4E3F6"/>
<path d="M124.486 205.04L126.115 220.048H111.633L110.004 205.04H124.486Z" fill="#D4E3F6"/>
<path d="M140.312 244.921H45.2152L43.998 237.984H139.094L140.312 244.921Z" fill="#D4E3F6"/>
<path d="M143.401 262.529H48.305L47.0879 255.593H142.184L143.401 262.529Z" fill="#D4E3F6"/>
<path d="M213.56 261.754L186.816 266.721V288.405L213.56 284.064V261.754Z" fill="url(#paint16_linear_555_8532)"/>
<path d="M213.563 261.752L186.816 266.722H123.418L148.084 261.752H213.563Z" fill="#DD8800"/>
<path d="M186.817 266.721H123.414V288.405H186.817V266.721Z" fill="url(#paint17_linear_555_8532)"/>
<path d="M167.35 266.723H147.125V275.843H167.35V266.723Z" fill="url(#paint18_linear_555_8532)"/>
<path d="M191.472 261.752L167.35 266.722H147.125L172.155 261.752H191.472Z" fill="url(#paint19_linear_555_8532)"/>
<path d="M200.441 239.479L173.697 244.447V266.131L200.441 261.789V239.479Z" fill="url(#paint20_linear_555_8532)"/>
<path d="M200.442 239.478L173.695 244.448H110.297L134.963 239.478H200.442Z" fill="#DD8800"/>
<path d="M173.697 244.446H110.295V266.13H173.697V244.446Z" fill="url(#paint21_linear_555_8532)"/>
<path d="M154.231 244.448H134.006V253.569H154.231V244.448Z" fill="url(#paint22_linear_555_8532)"/>
<path d="M178.353 239.478L154.231 244.448H134.006L159.036 239.478H178.353Z" fill="url(#paint23_linear_555_8532)"/>
<defs>
<linearGradient id="paint0_linear_555_8532" x1="288.162" y1="60.0273" x2="299.255" y2="60.0273" gradientUnits="userSpaceOnUse">
<stop stop-color="#191923"/>
<stop offset="1" stop-color="#0C0C14"/>
</linearGradient>
<linearGradient id="paint1_linear_555_8532" x1="291.563" y1="292.214" x2="291.563" y2="296.786" gradientUnits="userSpaceOnUse">
<stop stop-color="#30355C"/>
<stop offset="0.9966" stop-color="#262C51"/>
</linearGradient>
<linearGradient id="paint2_linear_555_8532" x1="293.289" y1="278.393" x2="292.425" y2="288.345" gradientUnits="userSpaceOnUse">
<stop stop-color="#30355C"/>
<stop offset="0.9966" stop-color="#262C51"/>
</linearGradient>
<linearGradient id="paint3_linear_555_8532" x1="291.044" y1="237.967" x2="314.11" y2="235.886" gradientUnits="userSpaceOnUse">
<stop stop-color="#191923"/>
<stop offset="1" stop-color="#0C0C14"/>
</linearGradient>
<linearGradient id="paint4_linear_555_8532" x1="339.284" y1="291.368" x2="339.284" y2="294.356" gradientUnits="userSpaceOnUse">
<stop stop-color="#30355C"/>
<stop offset="0.9966" stop-color="#262C51"/>
</linearGradient>
<linearGradient id="paint5_linear_555_8532" x1="349.599" y1="274.195" x2="352.735" y2="281.761" gradientUnits="userSpaceOnUse">
<stop stop-color="#30355C"/>
<stop offset="0.9966" stop-color="#262C51"/>
</linearGradient>
<linearGradient id="paint6_linear_555_8532" x1="338.491" y1="237.898" x2="340.959" y2="237.676" gradientUnits="userSpaceOnUse">
<stop stop-color="#191923"/>
<stop offset="1" stop-color="#0C0C14"/>
</linearGradient>
<linearGradient id="paint7_linear_555_8532" x1="306.255" y1="96.4081" x2="306.504" y2="92.8681" gradientUnits="userSpaceOnUse">
<stop stop-color="#FFD4CF"/>
<stop offset="1" stop-color="#F8B7B3"/>
</linearGradient>
<linearGradient id="paint8_linear_555_8532" x1="329.685" y1="66.2463" x2="288.873" y2="53.8431" gradientUnits="userSpaceOnUse">
<stop stop-color="#191923"/>
<stop offset="1" stop-color="#0C0C14"/>
</linearGradient>
<linearGradient id="paint9_linear_555_8532" x1="292.227" y1="71.1469" x2="294.498" y2="71.1469" gradientUnits="userSpaceOnUse">
<stop stop-color="#191923"/>
<stop offset="1" stop-color="#0C0C14"/>
</linearGradient>
<linearGradient id="paint10_linear_555_8532" x1="291.768" y1="67.076" x2="297.326" y2="67.076" gradientUnits="userSpaceOnUse">
<stop stop-color="#191923"/>
<stop offset="1" stop-color="#0C0C14"/>
</linearGradient>
<linearGradient id="paint11_linear_555_8532" x1="302.187" y1="73.2708" x2="304.459" y2="73.2708" gradientUnits="userSpaceOnUse">
<stop stop-color="#191923"/>
<stop offset="1" stop-color="#0C0C14"/>
</linearGradient>
<linearGradient id="paint12_linear_555_8532" x1="301.377" y1="69.7206" x2="307.064" y2="69.7206" gradientUnits="userSpaceOnUse">
<stop stop-color="#191923"/>
<stop offset="1" stop-color="#0C0C14"/>
</linearGradient>
<linearGradient id="paint13_linear_555_8532" x1="269.436" y1="168.532" x2="221.946" y2="169.761" gradientUnits="userSpaceOnUse">
<stop stop-color="#FBBC04"/>
<stop offset="1" stop-color="#F29C03"/>
</linearGradient>
<linearGradient id="paint14_linear_555_8532" x1="291.77" y1="168.532" x2="278.446" y2="168.877" gradientUnits="userSpaceOnUse">
<stop stop-color="#FBBC04"/>
<stop offset="1" stop-color="#F29C03"/>
</linearGradient>
<linearGradient id="paint15_linear_555_8532" x1="258.385" y1="151.804" x2="245.552" y2="152.136" gradientUnits="userSpaceOnUse">
<stop stop-color="#191923"/>
<stop offset="1" stop-color="#0C0C14"/>
</linearGradient>
<linearGradient id="paint16_linear_555_8532" x1="208.454" y1="287.848" x2="195.411" y2="269.087" gradientUnits="userSpaceOnUse">
<stop stop-color="#FBBC04"/>
<stop offset="1" stop-color="#F29C03"/>
</linearGradient>
<linearGradient id="paint17_linear_555_8532" x1="184.418" y1="268.2" x2="126.287" y2="285.494" gradientUnits="userSpaceOnUse">
<stop stop-color="#FBBC04"/>
<stop offset="1" stop-color="#F29C03"/>
</linearGradient>
<linearGradient id="paint18_linear_555_8532" x1="147.125" y1="271.283" x2="167.35" y2="271.283" gradientUnits="userSpaceOnUse">
<stop stop-color="#191923"/>
<stop offset="1" stop-color="#0C0C14"/>
</linearGradient>
<linearGradient id="paint19_linear_555_8532" x1="147.125" y1="264.237" x2="191.472" y2="264.237" gradientUnits="userSpaceOnUse">
<stop stop-color="#191923"/>
<stop offset="1" stop-color="#0C0C14"/>
</linearGradient>
<linearGradient id="paint20_linear_555_8532" x1="204.473" y1="262.753" x2="178.902" y2="249.144" gradientUnits="userSpaceOnUse">
<stop stop-color="#FBBC04"/>
<stop offset="1" stop-color="#F29C03"/>
</linearGradient>
<linearGradient id="paint21_linear_555_8532" x1="168.352" y1="238.078" x2="150.156" y2="249.141" gradientUnits="userSpaceOnUse">
<stop stop-color="#FBBC04"/>
<stop offset="1" stop-color="#F29C03"/>
</linearGradient>
<linearGradient id="paint22_linear_555_8532" x1="134.006" y1="249.008" x2="154.231" y2="249.008" gradientUnits="userSpaceOnUse">
<stop stop-color="#191923"/>
<stop offset="1" stop-color="#0C0C14"/>
</linearGradient>
<linearGradient id="paint23_linear_555_8532" x1="134.006" y1="241.963" x2="178.353" y2="241.963" gradientUnits="userSpaceOnUse">
<stop stop-color="#191923"/>
<stop offset="1" stop-color="#0C0C14"/>
</linearGradient>
</defs>
</svg>
