<svg width="73" height="73" viewBox="0 0 73 73" fill="none" xmlns="http://www.w3.org/2000/svg">
<g clip-path="url(#clip0_555_5913)">
<rect width="72" height="72" transform="translate(0.400391 0.743164)" fill="#FFEBED"/>
<path d="M41.0039 18.5449H18.6914C16.6487 18.5449 15 20.1937 15 22.2363V37.002C15 39.0444 16.6487 40.6934 18.6914 40.6934H19.9219V44.3848C19.9219 45.2737 20.8423 45.9175 21.743 45.4676C21.7676 45.443 21.8169 45.443 21.8415 45.4183C28.6104 40.8791 27.0934 41.8912 28.6091 40.8902C28.8059 40.7671 29.0273 40.6934 29.2734 40.6934H41.0039C43.0466 40.6934 44.6953 39.0444 44.6953 37.002V22.2363C44.6953 20.1937 43.0466 18.5449 41.0039 18.5449ZM31.1602 33.3105H21.1523C19.5303 33.3105 19.5237 30.8496 21.1523 30.8496H31.1602C32.7822 30.8496 32.7888 33.3105 31.1602 33.3105ZM38.543 28.3887H21.1523C19.5303 28.3887 19.5237 25.9277 21.1523 25.9277H38.543C40.165 25.9277 40.1716 28.3887 38.543 28.3887Z" fill="#FF5948"/>
<path d="M53.3086 28.3887H47.1562V37.002C47.1562 40.398 44.4 43.1543 41.0039 43.1543H29.6426L27.3047 44.7047V46.8457C27.3047 48.8882 28.9534 50.5371 30.9961 50.5371H43.0956L50.1585 55.262C51.1225 55.7973 52.0781 55.1464 52.0781 54.2285V50.5371H53.3086C55.3513 50.5371 57 48.8882 57 46.8457V32.0801C57 30.0375 55.3513 28.3887 53.3086 28.3887Z" fill="#FF5948"/>
</g>
<defs>
<clipPath id="clip0_555_5913">
<rect x="0.400391" y="0.743164" width="72" height="72" rx="36" fill="white"/>
</clipPath>
</defs>
</svg>
