<svg width="73" height="73" viewBox="0 0 73 73" fill="none" xmlns="http://www.w3.org/2000/svg">
<g clip-path="url(#clip0_555_5864)">
<rect width="72" height="72" transform="translate(0.371094 0.0195312)" fill="#FFEBED"/>
<path d="M52.8004 33.7246L50.3504 30.9246C49.8254 30.3996 49.4754 29.3496 49.4754 28.6496V25.8496C49.4754 23.9246 47.9004 22.5246 46.1504 22.5246H43.1754C42.4754 22.5246 41.4254 22.1746 40.9004 21.6496L38.1004 19.1996C36.8754 18.1496 34.9504 18.1496 33.7254 19.1996L31.1004 21.6496C30.5754 22.1746 29.5254 22.5246 28.8254 22.5246H25.8504C23.9254 22.5246 22.5254 24.0996 22.5254 25.8496V28.8246C22.5254 29.5246 22.1754 30.5746 21.6504 31.0996L19.3754 33.8996C18.3254 35.1246 18.3254 37.0496 19.3754 38.2746L21.6504 41.0746C22.1754 41.5996 22.5254 42.6496 22.5254 43.3496V46.3246C22.5254 48.2496 24.1004 49.6496 25.8504 49.6496H28.8254C29.5254 49.6496 30.5754 49.9996 31.1004 50.5246L33.9004 52.9746C35.1254 54.0246 37.0504 54.0246 38.2754 52.9746L41.0754 50.5246C41.6004 49.9996 42.6504 49.6496 43.3504 49.6496H46.3254C48.2504 49.6496 49.6504 48.0746 49.6504 46.3246V43.3496C49.6504 42.6496 50.0004 41.5996 50.5254 41.0746L52.9754 38.2746C53.8504 37.0496 53.8504 34.9496 52.8004 33.7246ZM43.3504 32.6746L34.9504 41.0746C34.7754 41.2496 34.4254 41.4246 34.0754 41.4246C33.7254 41.4246 33.3754 41.2496 33.2004 41.0746L29.0004 36.8746C28.4754 36.3496 28.4754 35.4746 29.0004 34.9496C29.5254 34.4246 30.4004 34.4246 30.9254 34.9496L34.2504 38.2746L41.4254 30.7496C41.9504 30.2246 42.8254 30.2246 43.3504 30.7496C43.8754 31.2746 43.8754 32.1496 43.3504 32.6746Z" fill="#FF5948"/>
</g>
<defs>
<clipPath id="clip0_555_5864">
<rect x="0.371094" y="0.0195312" width="72" height="72" rx="36" fill="white"/>
</clipPath>
</defs>
</svg>
