<svg width="73" height="73" viewBox="0 0 73 73" fill="none" xmlns="http://www.w3.org/2000/svg">
<g clip-path="url(#clip0_555_5885)">
<rect width="72" height="72" transform="translate(0.630859 0.90332)" fill="#FFEBED"/>
<g clip-path="url(#clip1_555_5885)">
<path d="M51.2275 22.772C47.9101 19.448 43.5348 17.3888 38.8591 16.951C34.1834 16.5131 29.5018 17.7242 25.625 20.3745H25.9487C26.2073 20.3436 26.4695 20.3707 26.7163 20.454C26.963 20.5372 27.1881 20.6745 27.375 20.8558C28.1625 21.6608 27.8387 22.6058 27.725 23.5945C30.8675 21.4011 34.6829 20.3862 38.4999 20.7286C42.3169 21.0709 45.8908 22.7485 48.5928 25.4662C51.2948 28.1839 52.9517 31.7675 53.272 35.5864C53.5923 39.4053 52.5554 43.2148 50.3438 46.3445L49.1712 45.172C48.9963 46.6945 48.5938 50.422 48.4975 51.297L54.6225 50.6233L53.1175 49.1183C56.0327 45.2372 57.4469 40.4333 57.0996 35.5917C56.7523 30.7502 54.6668 26.1973 51.2275 22.772Z" fill="#FF5948"/>
<path d="M48.5243 52.9772C48.2774 52.9787 48.0329 52.9279 47.807 52.8282C47.581 52.7285 47.3788 52.5821 47.2135 52.3986C47.0482 52.2151 46.9236 51.9987 46.8479 51.7637C46.7722 51.5286 46.7471 51.2802 46.7743 51.0347L46.8968 49.9322C43.7468 52.3472 39.8231 53.5285 35.8634 53.254C31.9036 52.9796 28.1805 51.2682 25.3937 48.4418C22.607 45.6153 20.9486 41.8682 20.7303 37.905C20.5119 33.9418 21.7487 30.0352 24.2081 26.9197L25.4768 28.1885C25.7393 25.8785 25.4331 28.626 26.1593 22.0635L20.0343 22.746L21.4868 24.1897C18.3567 28.0106 16.7409 32.8491 16.9473 37.7841C17.1536 42.719 19.1675 47.4058 22.6057 50.952C26.0438 54.4983 30.666 56.6563 35.5923 57.0152C40.5185 57.3741 45.4047 55.9089 49.3206 52.8985C49.0574 52.944 48.7913 52.9703 48.5243 52.9772Z" fill="#FF5948"/>
<path d="M40.5 31.75H44L40.5 28.25V31.75Z" fill="#FF5948"/>
<path d="M38.75 27.375H30.875C30.4109 27.375 29.9658 27.5594 29.6376 27.8876C29.3094 28.2158 29.125 28.6609 29.125 29.125V44.875C29.125 45.3391 29.3094 45.7843 29.6376 46.1124C29.9658 46.4406 30.4109 46.625 30.875 46.625H43.125C43.5891 46.625 44.0342 46.4406 44.3624 46.1124C44.6906 45.7843 44.875 45.3391 44.875 44.875C44.875 32.1437 44.945 33.5 44.7175 33.5H39.625C39.3929 33.5 39.1704 33.4078 39.0063 33.2437C38.8422 33.0796 38.75 32.8571 38.75 32.625C38.75 27.0688 38.75 27.5238 38.75 27.375ZM37.875 43.125H32.625C32.3929 43.125 32.1704 43.0328 32.0063 42.8687C31.8422 42.7046 31.75 42.4821 31.75 42.25C31.75 42.0179 31.8422 41.7954 32.0063 41.6313C32.1704 41.4672 32.3929 41.375 32.625 41.375H37.875C38.1071 41.375 38.3296 41.4672 38.4937 41.6313C38.6578 41.7954 38.75 42.0179 38.75 42.25C38.75 42.4821 38.6578 42.7046 38.4937 42.8687C38.3296 43.0328 38.1071 43.125 37.875 43.125ZM37.875 39.625H32.625C32.3929 39.625 32.1704 39.5328 32.0063 39.3687C31.8422 39.2046 31.75 38.9821 31.75 38.75C31.75 38.5179 31.8422 38.2954 32.0063 38.1313C32.1704 37.9672 32.3929 37.875 32.625 37.875H37.875C38.1071 37.875 38.3296 37.9672 38.4937 38.1313C38.6578 38.2954 38.75 38.5179 38.75 38.75C38.75 38.9821 38.6578 39.2046 38.4937 39.3687C38.3296 39.5328 38.1071 39.625 37.875 39.625ZM37.875 36.125H32.625C32.3929 36.125 32.1704 36.0328 32.0063 35.8687C31.8422 35.7046 31.75 35.4821 31.75 35.25C31.75 35.0179 31.8422 34.7954 32.0063 34.6313C32.1704 34.4672 32.3929 34.375 32.625 34.375H37.875C38.1071 34.375 38.3296 34.4672 38.4937 34.6313C38.6578 34.7954 38.75 35.0179 38.75 35.25C38.75 35.4821 38.6578 35.7046 38.4937 35.8687C38.3296 36.0328 38.1071 36.125 37.875 36.125Z" fill="#FF5948"/>
</g>
</g>
<defs>
<clipPath id="clip0_555_5885">
<rect x="0.630859" y="0.90332" width="72" height="72" rx="36" fill="white"/>
</clipPath>
<clipPath id="clip1_555_5885">
<rect width="42" height="42" fill="white" transform="translate(16 16)"/>
</clipPath>
</defs>
</svg>
