<svg width="73" height="72" viewBox="0 0 73 72" fill="none" xmlns="http://www.w3.org/2000/svg">
<g clip-path="url(#clip0_555_5848)">
<rect width="72" height="72" transform="translate(0.630859)" fill="#FFEBED"/>
<path fill-rule="evenodd" clip-rule="evenodd" d="M22.2441 20.4835H24.0364V50.286C24.0364 51.5975 25.1037 52.6649 26.4152 52.6649H48.8143V54.457C48.8143 55.1348 48.2616 55.6875 47.5838 55.6875H22.2441C21.5664 55.6875 21.0137 55.1348 21.0137 54.457V21.714C21.0138 21.0364 21.5665 20.4835 22.2441 20.4835ZM26.4153 16.3125C25.7375 16.3125 25.1848 16.8652 25.1848 17.543V50.286C25.1848 50.9637 25.7375 51.5165 26.4153 51.5165H51.755C52.4328 51.5165 52.9855 50.9637 52.9855 50.286V23.1852H48.4918C47.1802 23.1852 46.1129 22.1179 46.1129 20.8063V16.3125H26.4153ZM29.8566 24.0912H40.4387C40.7558 24.0912 41.0129 23.8341 41.0129 23.517C41.0129 23.1998 40.7558 22.9428 40.4387 22.9428H29.8566C29.5395 22.9428 29.2824 23.1998 29.2824 23.517C29.2824 23.834 29.5395 24.0912 29.8566 24.0912ZM29.8566 26.8598H35.8859C36.2031 26.8598 36.4602 26.6027 36.4602 26.2855C36.4602 25.9684 36.2031 25.7113 35.8859 25.7113H29.8566C29.5395 25.7113 29.2824 25.9684 29.2824 26.2855C29.2824 26.6026 29.5395 26.8598 29.8566 26.8598ZM47.2612 20.8063C47.2612 21.4841 47.8139 22.0368 48.4917 22.0368H52.8788C52.8192 21.9061 52.7345 21.7858 52.6251 21.6764L47.6217 16.6729C47.5122 16.5635 47.392 16.4789 47.2613 16.4192V20.8063H47.2612ZM30.2668 40.0444C30.0409 40.0444 29.8566 40.2286 29.8566 40.4545V45.6068C29.8566 45.8327 30.0409 46.0169 30.2668 46.0169H32.3259C32.5519 46.0169 32.7361 45.8327 32.7361 45.6068V40.4545C32.7361 40.2286 32.5519 40.0444 32.3259 40.0444H30.2668ZM35.4593 37.446C35.2334 37.446 35.0491 37.6303 35.0491 37.8562V45.6068C35.0491 45.8327 35.2334 46.0169 35.4593 46.0169H37.5184C37.7444 46.0169 37.9286 45.8327 37.9286 45.6068C37.9286 43.0233 37.9286 40.4398 37.9286 37.8562C37.9286 37.6303 37.7444 37.446 37.5184 37.446C36.8321 37.446 36.1457 37.446 35.4593 37.446ZM40.6519 34.8476C40.426 34.8476 40.2417 35.0319 40.2417 35.2578V45.6067C40.2417 45.8326 40.426 46.0168 40.6519 46.0168H42.711C42.9369 46.0168 43.1212 45.8326 43.1212 45.6067C43.1212 42.157 43.1212 38.7074 43.1212 35.2578C43.1212 35.0319 42.9369 34.8476 42.711 34.8476C42.0246 34.8476 41.3382 34.8476 40.6519 34.8476ZM45.8444 32.2493C45.6185 32.2493 45.4343 32.4335 45.4343 32.6594V45.6067C45.4343 45.8326 45.6185 46.0168 45.8444 46.0168H47.9036C48.1295 46.0168 48.3138 45.8326 48.3138 45.6067V32.6594C48.3138 32.4335 48.1295 32.2493 47.9036 32.2493H45.8444ZM42.5605 27.884L43.4491 27.6534C42.2705 29.4188 40.6224 30.9976 38.6236 32.2679C36.2543 33.7737 33.3987 34.8433 30.2524 35.2762C29.939 35.3183 29.7191 35.6066 29.7612 35.92C29.8032 36.2335 30.0915 36.4534 30.4049 36.4112C33.7251 35.9543 36.7383 34.8256 39.2382 33.2369C41.2897 31.9331 42.9998 30.3173 44.2554 28.5056L44.2995 29.174C44.3192 29.4899 44.5914 29.7299 44.9073 29.7101C45.2232 29.6902 45.4632 29.4181 45.4434 29.1022L45.2843 26.6982C45.256 26.2692 44.8093 26.1178 44.4027 26.2234L42.2735 26.7759C41.9675 26.8552 41.7837 27.1675 41.863 27.4735C41.9421 27.7795 42.2545 27.9633 42.5605 27.884Z" fill="#FF5948"/>
</g>
<defs>
<clipPath id="clip0_555_5848">
<rect x="0.630859" width="72" height="72" rx="36" fill="white"/>
</clipPath>
</defs>
</svg>
