<svg width="517" height="314" viewBox="0 0 517 314" fill="none" xmlns="http://www.w3.org/2000/svg">
<path d="M56.1614 206.609H16.6277C15.7196 206.609 14.9844 205.873 14.9844 204.965V176.907C14.9844 175.421 16.1887 174.218 17.6733 174.218H56.1614C57.0687 174.218 57.8047 174.954 57.8047 175.861V204.965C57.8047 205.873 57.0687 206.609 56.1614 206.609Z" fill="#DADEF1"/>
<path d="M43.5215 174.418C43.5215 185.161 43.5215 195.905 43.5215 206.648C43.5215 207.252 44.4612 207.253 44.4612 206.648C44.4612 195.905 44.4612 185.161 44.4612 174.418C44.4612 173.813 43.5215 173.812 43.5215 174.418Z" fill="#B8C1EA"/>
<path d="M32.2784 174.217H26.3164V180.179H32.2784V174.217Z" fill="white"/>
<path d="M54.8077 200.646H48.8457V206.608H54.8077V200.646Z" fill="white"/>
<path d="M15.0205 206.102L14.9844 175.462C14.9844 174.723 15.5835 174.124 16.3225 174.124L57.8054 174.216" stroke="#B8C1EA" stroke-miterlimit="10"/>
<path d="M79.3807 260.134H12.8191C11.9117 260.134 11.1758 259.398 11.1758 258.49V209.987C11.1758 208.501 12.3801 207.298 13.8647 207.298H79.3807C80.2887 207.298 81.0239 208.034 81.0239 208.941V258.49C81.0247 259.398 80.2887 260.134 79.3807 260.134Z" fill="#DADEF1"/>
<path d="M58.0156 207.627C58.0156 221.28 58.0156 234.931 58.0156 248.583C58.0156 252.456 58.0156 256.329 58.0156 260.201C58.0156 260.805 58.9553 260.807 58.9553 260.201C58.9553 246.549 58.9553 232.897 58.9553 219.245C58.9553 215.373 58.9553 211.5 58.9553 207.627C58.9553 207.023 58.0156 207.022 58.0156 207.627Z" fill="#B8C1EA"/>
<path d="M39.3846 207.298H29.6602V217.022H39.3846V207.298Z" fill="white"/>
<path d="M76.1287 250.409H66.4043V260.134H76.1287V250.409Z" fill="white"/>
<path d="M11.2344 259.31L11.1758 209.33C11.1758 208.125 12.153 207.147 13.3581 207.147L81.0239 207.298" stroke="#B8C1EA" stroke-miterlimit="10"/>
<path d="M69.2041 312.938H2.64329C1.7352 312.938 1 312.202 1 311.295V262.791C1 261.306 2.20428 260.103 3.68895 260.103H69.2049C70.113 260.103 70.8482 260.838 70.8482 261.746V311.295C70.8482 312.202 70.1122 312.938 69.2041 312.938Z" fill="#DADEF1"/>
<path d="M47.8438 260.428C47.8438 274.08 47.8438 287.732 47.8438 301.384C47.8438 305.256 47.8438 309.129 47.8438 313.001C47.8438 313.606 48.7834 313.607 48.7834 313.001C48.7834 299.349 48.7834 285.698 48.7834 272.045C48.7834 268.173 48.7834 264.3 48.7834 260.428C48.7834 259.824 47.8438 259.823 47.8438 260.428Z" fill="#B8C1EA"/>
<path d="M29.2088 260.102H19.4844V269.826H29.2088V260.102Z" fill="white"/>
<path d="M65.9549 303.213H56.2305V312.937H65.9549V303.213Z" fill="white"/>
<path d="M1.05939 312.114L1 262.134C1 260.928 1.97725 259.951 3.18229 259.951L70.8482 260.102" stroke="#B8C1EA" stroke-miterlimit="10"/>
<path d="M160.185 90.1842C157.639 90.1842 155.093 90.1842 152.547 90.1842C146.467 90.1842 140.386 90.1842 134.306 90.1842C126.921 90.1842 119.537 90.1842 112.152 90.1842C105.795 90.1842 99.4387 90.1842 93.0813 90.1842C90.984 90.1842 88.8867 90.1842 86.7893 90.1842C85.803 90.1842 84.7732 90.0993 83.7891 90.1842C83.7448 90.188 83.6982 90.1842 83.6531 90.1842C83.0487 90.1842 83.0472 91.1239 83.6531 91.1239C86.1992 91.1239 88.7446 91.1239 91.2907 91.1239C97.3715 91.1239 103.452 91.1239 109.532 91.1239C116.917 91.1239 124.301 91.1239 131.685 91.1239C138.042 91.1239 144.399 91.1239 150.756 91.1239C152.853 91.1239 154.951 91.1239 157.048 91.1239C158.034 91.1239 159.064 91.2089 160.048 91.1239C160.092 91.1201 160.139 91.1239 160.184 91.1239C160.789 91.1239 160.79 90.1842 160.185 90.1842Z" fill="#DADEF1"/>
<path d="M159.172 90.6095C159.172 92.3693 160.599 93.7961 162.358 93.7961C164.118 93.7961 165.545 92.3693 165.545 90.6095C165.545 88.8496 164.118 87.4229 162.358 87.4229C160.598 87.4236 159.172 88.8504 159.172 90.6095Z" fill="#DADEF1"/>
<path d="M80.9805 149.696C80.9805 164.222 80.9805 178.75 80.9805 193.276C80.9805 193.88 81.9201 193.882 81.9201 193.276C81.9201 178.75 81.9201 164.222 81.9201 149.696C81.9201 149.091 80.9805 149.091 80.9805 149.696Z" fill="#DADEF1"/>
<path d="M77.8379 194.18C77.8379 195.94 79.2647 197.366 81.0237 197.366C82.7835 197.366 84.2103 195.939 84.2103 194.18C84.2103 192.421 82.7835 190.993 81.0237 190.993C79.2647 190.993 77.8379 192.42 77.8379 194.18Z" fill="#DADEF1"/>
<path d="M51.1062 152.006H99.5735C100.482 152.006 101.218 151.27 101.218 150.363V115.546C101.218 114.061 100.013 112.857 98.5286 112.857H51.1062C50.1981 112.857 49.4629 113.593 49.4629 114.501V150.363C49.4629 151.27 50.1988 152.006 51.1062 152.006Z" fill="#F2A441"/>
<path d="M65.6953 113.1C65.6953 126.085 65.6953 139.069 65.6953 152.054C65.6953 152.659 66.635 152.66 66.635 152.054C66.635 139.069 66.635 126.085 66.635 113.1C66.635 112.496 65.6953 112.495 65.6953 113.1Z" fill="#26244A"/>
<path d="M80.3181 120.061H87.5234V112.855H80.3181V120.061Z" fill="#DADEF1"/>
<path d="M53.0895 152.004H60.2949V144.799H53.0895V152.004Z" fill="#DADEF1"/>
<path d="M60.3404 99.9331C60.3404 99.9331 64.6816 94.2297 75.3427 92.2436C86.0031 90.2575 90.0151 93.5621 90.0151 93.5621C90.0151 93.5621 96.0673 103.249 93.2588 109.255C90.4504 115.262 89.0033 124.129 95.6787 126.634C102.355 129.139 109.961 121.112 112.029 112.45C113.747 105.256 115.966 99.2152 113.153 84.3451C110.34 69.4751 79.8381 54.4043 79.8381 54.4043C79.8381 54.4043 63.7901 68.4294 56.693 76.2617C49.5958 84.0941 50.0589 93.2517 50.0589 93.2517" fill="#F4B298"/>
<path d="M80.2193 52.54C80.2193 52.54 61.6875 58.7155 50.5498 68.2874C45.2306 72.8587 34.8168 95.2085 29.0487 111.266C27.9226 114.401 26.9642 116.777 26.568 118.036C24.5007 124.602 30.9521 132.068 37.7921 127.099C43.5174 122.939 47.9902 108.924 47.9902 108.924L64.3968 75.265L80.2193 52.54Z" fill="#F4B298"/>
<path d="M21.4106 98.4532L49.8202 68.9912L33.9902 108.728C33.9902 108.728 31.9116 109.931 28.5318 111.263C25.4024 112.496 22.5946 111.194 21.9233 110.588C18.3834 107.391 18.1556 101.602 21.4106 98.4532Z" fill="#F4B298"/>
<path d="M133.147 52.5404L104.984 81.3251L86.0919 65.3868L73.0508 55.3L89.8799 22.7988C105.606 22.5267 124.844 33.7373 133.147 52.5404Z" fill="#F4B298"/>
<path d="M47.3827 86.2969L65.1725 88.0567C62.2106 91.6282 60.9019 96.437 60.4335 101.115C59.9652 105.793 60.2418 110.484 59.9705 115.17C59.8156 117.836 59.463 120.569 58.2806 122.966C57.0981 125.364 54.9376 127.382 52.4734 127.637C50.2761 127.864 48.166 126.657 46.7527 124.91C45.3395 123.163 44.5306 120.929 43.9262 118.676C41.1027 108.156 42.3746 96.2363 47.3827 86.2969Z" fill="#F4B298"/>
<path d="M44.3832 118.551C43.5503 113.875 42.6242 109.099 42.6445 104.329C42.6678 99.0115 44.5689 93.8922 47.3856 89.4314C48.747 87.2754 50.3392 85.1916 52.3073 83.5513C52.7718 83.1634 52.1043 82.5019 51.6427 82.8868C47.7735 86.1125 44.9944 90.9439 43.297 95.6227C41.6852 100.065 41.4883 104.54 42.0017 109.185C42.3581 112.408 42.9083 115.61 43.4766 118.802C43.5826 119.396 44.4885 119.144 44.3832 118.551Z" fill="#ED796A"/>
<path d="M29.2834 112.866C33.2277 102.271 37.6893 91.8753 42.6522 81.7171C42.9168 81.1759 42.1065 80.6993 41.8411 81.2428C36.8436 91.4731 32.3497 101.946 28.3775 112.616C28.1656 113.183 29.0737 113.428 29.2834 112.866Z" fill="#ED796A"/>
<path d="M102.652 68.4808C108.356 73.7678 111.889 80.6334 113.385 88.2199C114.818 95.4884 114.629 103.267 111.957 110.222C110.453 114.136 108.567 118.079 105.839 121.299C103.591 123.952 100.555 126.2 96.914 125.991C95.2685 125.896 93.3779 125.372 92.1781 124.184C91.0964 123.112 90.6949 121.593 90.6491 120.11C90.5559 117.093 91.603 114.04 92.7923 111.306C94.7227 106.869 95.1497 102.074 93.0381 97.5985C91.7053 94.775 89.8425 92.1402 87.9383 89.6737C87.5737 89.2017 86.7573 89.6692 87.1272 90.1481C88.8945 92.4364 90.5822 94.8607 91.909 97.4324C93.0388 99.6214 93.6139 102.018 93.5455 104.487C93.4786 106.914 92.7246 109.065 91.7932 111.273C90.6047 114.088 89.5606 117.22 89.7184 120.315C89.7913 121.747 90.1619 123.184 91.0573 124.328C92.0616 125.613 93.5748 126.296 95.1302 126.667C103.197 128.593 108.585 120.103 111.429 113.895C113.379 109.636 114.714 105.265 115.063 100.577C115.336 96.9212 115.138 93.2287 114.578 89.6091C113.287 81.2784 109.54 73.5851 103.318 67.8178C102.874 67.4051 102.208 68.0681 102.652 68.4808Z" fill="#ED796A"/>
<path d="M363.78 92.9856C366.972 92.9856 370.163 92.9856 373.355 92.9856C381.019 92.9856 388.682 92.9856 396.346 92.9856C405.615 92.9856 414.883 92.9856 424.152 92.9856C432.16 92.9856 440.167 92.9856 448.175 92.9856C450.796 92.9856 453.418 92.9856 456.039 92.9856C456.863 92.9856 457.687 92.9856 458.51 92.9856C458.895 92.9856 459.428 93.0826 459.804 92.9856C459.852 92.9729 459.918 92.9856 459.969 92.9856C459.812 92.8293 459.655 92.6722 459.499 92.5158C459.499 95.4604 459.499 98.4049 459.499 101.35C459.499 108.42 459.499 115.491 459.499 122.561C459.499 131.081 459.499 139.602 459.499 148.122C459.499 155.517 459.499 162.911 459.499 170.306C459.499 172.75 459.499 175.194 459.499 177.638C459.499 178.773 459.405 179.954 459.499 181.087C459.503 181.136 459.499 181.187 459.499 181.237C459.499 181.841 460.439 181.843 460.439 181.237C460.439 178.293 460.439 175.348 460.439 172.403C460.439 165.333 460.439 158.262 460.439 151.192C460.439 142.672 460.439 134.151 460.439 125.63C460.439 118.236 460.439 110.842 460.439 103.447C460.439 101.003 460.439 98.559 460.439 96.1151C460.439 94.98 460.533 93.799 460.439 92.6662C460.435 92.6166 460.439 92.5654 460.439 92.5158C460.439 92.2617 460.224 92.046 459.969 92.046C456.777 92.046 453.586 92.046 450.394 92.046C442.731 92.046 435.067 92.046 427.403 92.046C418.134 92.046 408.865 92.046 399.596 92.046C391.589 92.046 383.581 92.046 375.574 92.046C372.953 92.046 370.33 92.046 367.709 92.046C366.467 92.046 365.184 91.9535 363.944 92.046C363.89 92.0497 363.833 92.046 363.779 92.046C363.175 92.046 363.175 92.9856 363.78 92.9856Z" fill="#DADEF1"/>
<path d="M265.08 63.0789C265.809 62.0626 266.538 61.0432 267.272 60.0254" stroke="#B8C1EA" stroke-width="3" stroke-linecap="round" stroke-linejoin="round"/>
<path d="M275.857 48.9244C282.028 41.8138 289.096 35.9968 298.449 33.8634C311.697 30.8422 326.321 34.6978 336.356 43.8577C343.735 50.5918 348.483 60.0561 349.765 69.9482" stroke="#B8C1EA" stroke-width="3" stroke-linecap="round" stroke-linejoin="round" stroke-dasharray="9.34 18.67"/>
<path d="M350.086 76.9521C350.037 78.2038 349.93 79.4532 349.764 80.6965" stroke="#B8C1EA" stroke-width="3" stroke-linecap="round" stroke-linejoin="round"/>
<path d="M245.632 62.3781C222.885 56.1289 196.594 66.6885 184.488 86.9357C172.383 107.183 175.526 135.34 191.798 152.42" stroke="#B8C1EA" stroke-width="3" stroke-miterlimit="10" stroke-linecap="round" stroke-linejoin="round" stroke-dasharray="10 20"/>
<path d="M381.622 60.3494C378.624 56.9395 373.401 56.0991 369.256 58.3596C367.228 59.4654 365.722 61.0951 364.798 62.9519C364.572 63.4045 364.414 63.8848 364.273 64.3667L361.583 73.5671C361.16 75.0135 362.201 76.4756 363.705 76.55L370.535 76.8891C371.179 76.9214 372.419 76.953 373.528 76.9605C375.613 76.9748 377.716 76.4328 379.459 75.236C379.472 75.227 379.485 75.218 379.499 75.2089C384.48 71.7517 385.58 64.8523 381.622 60.3494ZM371.089 70.1919C368.766 68.0817 369.527 64.3118 372.529 63.0541C374.041 62.4204 375.814 62.7046 376.984 63.7675C379.307 65.8777 378.546 69.6484 375.545 70.906C374.031 71.5397 372.259 71.2556 371.089 70.1919Z" fill="#DADEF1"/>
<path d="M331.247 166.423C360.551 137.119 360.551 89.6077 331.247 60.3038C301.943 30.9999 254.432 30.9999 225.128 60.3038C195.824 89.6077 195.824 137.119 225.128 166.423C254.432 195.727 301.943 195.727 331.247 166.423Z" fill="#B8C1EA"/>
<path d="M276.452 38.2897C263.656 39.5142 251.528 44.3231 241.838 52.8463C233.912 59.8179 227.804 68.8597 223.71 78.5586C217.477 93.3242 216.452 109.865 218.896 125.585C221.218 140.523 226.705 155.288 236.4 167.039C245.491 178.058 258.556 186.146 272.867 187.885C274.647 188.101 276.436 188.21 278.229 188.224C278.834 188.228 278.834 187.289 278.229 187.284C263.909 187.177 250.299 180.314 240.435 170.148C230.023 159.417 223.809 145.21 220.78 130.712C217.598 115.487 217.651 99.2719 222.522 84.4033C225.915 74.0482 231.709 64.2208 239.382 56.4568C247.994 47.7427 259.067 42.0551 271.125 39.9412C272.891 39.6315 274.668 39.4007 276.452 39.2293C277.049 39.1722 277.055 38.2318 276.452 38.2897Z" fill="#F5F5F5"/>
<path d="M276.209 38.3534C267.022 43.6449 259.698 52.259 254.073 61.1107C251.233 65.5797 248.756 70.3254 246.976 75.32C244.891 81.1692 243.699 87.365 242.94 93.5149C242.133 100.064 241.899 106.673 241.961 113.267C242.022 119.811 242.3 126.37 242.896 132.889C243.486 139.346 244.431 145.785 246.022 152.076C247.451 157.728 249.276 163.459 252.335 168.46C257.669 177.179 266.212 183.325 275.439 187.413C276.585 187.92 277.744 188.397 278.911 188.852C279.475 189.072 279.719 188.164 279.161 187.946C269.821 184.311 260.873 178.817 254.896 170.604C251.584 166.053 249.538 160.872 247.94 155.507C246.113 149.377 244.963 143.06 244.229 136.711C243.5 130.397 243.159 124.04 242.984 117.688C242.808 111.326 242.854 104.949 243.364 98.6004C243.883 92.1513 244.896 85.7315 246.648 79.4981C248.062 74.4667 250.155 69.703 252.734 65.161C257.958 55.9575 264.979 47.1021 273.738 41.0296C274.693 40.3673 275.676 39.7456 276.683 39.1653C277.207 38.8631 276.734 38.0512 276.209 38.3534Z" fill="#F5F5F5"/>
<path d="M279.507 187.754C277.601 168.545 276.487 149.262 275.916 129.97C275.334 110.32 275.32 90.6541 275.767 71.0015C276.011 60.2502 276.397 49.5019 276.917 38.7603C276.946 38.156 276.006 38.1575 275.977 38.7603C275.043 58.0499 274.541 77.3604 274.517 96.6725C274.492 116.325 274.958 135.984 276.079 155.605C276.692 166.337 277.505 177.058 278.567 187.755C278.626 188.35 279.566 188.357 279.507 187.754Z" fill="#F5F5F5"/>
<path d="M279.371 188.733C289.192 181.02 297.828 171.753 304.486 161.169C311.026 150.773 315.592 139.092 317.309 126.906C318.172 120.775 318.238 114.597 317.911 108.422C317.594 102.43 316.876 96.4511 315.674 90.5695C313.479 79.8295 309.626 69.2887 303.487 60.1543C297.733 51.5951 289.97 44.4724 280.698 39.8921C279.551 39.3253 278.383 38.8021 277.203 38.3074C276.646 38.0744 276.402 38.9832 276.953 39.2133C286.478 43.199 294.693 49.7744 300.849 58.0465C307.253 66.6486 311.425 76.7293 313.941 87.1093C315.317 92.7879 316.208 98.5785 316.697 104.399C317.207 110.487 317.394 116.659 316.849 122.751C315.764 134.901 311.795 146.671 305.75 157.238C299.671 167.866 291.567 177.274 282.244 185.184C281.084 186.169 279.904 187.128 278.707 188.068C278.231 188.442 278.9 189.102 279.371 188.733Z" fill="#F5F5F5"/>
<path d="M277.071 39.2297C282.877 39.226 288.615 40.7805 293.988 42.8846C300.011 45.2436 305.731 48.4189 311.021 52.1332C316.103 55.7017 320.877 59.8302 324.826 64.6391C329.086 69.8261 331.988 76.0444 334.055 82.3973C338.737 96.7915 338.893 112.458 336.366 127.283C335.094 134.745 333.072 142.111 330.082 149.072C327.237 155.698 323.54 162.18 318.688 167.549C314.145 172.577 308.636 176.713 302.741 180.025C296.826 183.348 290.411 185.895 283.746 187.226C282.187 187.537 280.615 187.773 279.032 187.93C278.436 187.99 278.43 188.93 279.032 188.87C285.727 188.205 292.233 186.176 298.319 183.346C304.663 180.397 310.632 176.528 315.791 171.794C326.696 161.787 332.971 147.328 336.172 133.107C339.521 118.222 340.112 102.284 336.455 87.3994C334.743 80.4315 332.094 73.3795 328.06 67.4047C324.641 62.3395 320.169 58.0035 315.391 54.2268C310.192 50.1163 304.512 46.5899 298.498 43.801C293.012 41.2564 287.179 39.2478 281.151 38.5336C279.796 38.3727 278.435 38.2893 277.071 38.29C276.467 38.29 276.465 39.2297 277.071 39.2297Z" fill="#F5F5F5"/>
<path d="M203.259 116.88C222.692 116.88 242.125 116.88 261.559 116.88C281.224 116.88 300.888 116.88 320.552 116.88C331.444 116.88 342.337 116.88 353.229 116.88C353.833 116.88 353.835 115.94 353.229 115.94C333.795 115.94 314.362 115.94 294.928 115.94C275.263 115.94 255.599 115.94 235.935 115.94C225.043 115.94 214.15 115.94 203.259 115.94C202.654 115.94 202.653 116.88 203.259 116.88Z" fill="#F5F5F5"/>
<path d="M214.254 74.5379C218.448 74.5379 222.64 74.5379 226.833 74.5379C236.9 74.5379 246.965 74.5379 257.031 74.5379C269.202 74.5379 281.372 74.5379 293.543 74.5379C304.006 74.5379 314.47 74.5379 324.933 74.5379C328.414 74.5379 331.894 74.5379 335.375 74.5379C336.996 74.5379 338.642 74.6206 340.262 74.5379C340.332 74.5342 340.404 74.5379 340.474 74.5379C341.078 74.5379 341.079 73.5983 340.474 73.5983C336.28 73.5983 332.088 73.5983 327.895 73.5983C317.828 73.5983 307.763 73.5983 297.697 73.5983C285.526 73.5983 273.356 73.5983 261.185 73.5983C250.722 73.5983 240.258 73.5983 229.795 73.5983C226.314 73.5983 222.834 73.5983 219.353 73.5983C217.732 73.5983 216.086 73.5156 214.466 73.5983C214.396 73.602 214.324 73.5983 214.254 73.5983C213.65 73.5983 213.649 74.5379 214.254 74.5379Z" fill="#F5F5F5"/>
<path d="M220.526 159.222C235.552 159.222 250.578 159.222 265.604 159.222C280.567 159.222 295.531 159.222 310.495 159.222C318.947 159.222 327.399 159.222 335.851 159.222C336.455 159.222 336.457 158.282 335.851 158.282C320.825 158.282 305.799 158.282 290.773 158.282C275.81 158.282 260.846 158.282 245.882 158.282C237.431 158.282 228.978 158.282 220.526 158.282C219.921 158.282 219.921 159.222 220.526 159.222Z" fill="#F5F5F5"/>
<path d="M84.8447 254.758H33.3659C32.4579 254.758 31.7227 254.022 31.7227 253.115V216.021C31.7227 214.536 32.9269 213.332 34.4116 213.332H84.844C85.7513 213.332 86.4873 214.068 86.4873 214.975V253.115C86.488 254.022 85.7521 254.758 84.8447 254.758Z" fill="#EF6856"/>
<path d="M68.3457 213.588C68.3457 227.329 68.3457 241.069 68.3457 254.808C68.3457 255.413 69.2854 255.414 69.2854 254.808C69.2854 241.068 69.2854 227.328 69.2854 213.588C69.2854 212.984 68.3457 212.983 68.3457 213.588Z" fill="#26244A"/>
<path d="M53.8377 213.331H46.2129V220.956H53.8377V213.331Z" fill="#DADEF1"/>
<path d="M82.6483 247.134H75.0234V254.759H82.6483V247.134Z" fill="#DADEF1"/>
<path d="M135.498 254.285H84.0202C83.1122 254.285 82.377 253.549 82.377 252.642V215.548C82.377 214.063 83.5812 212.859 85.0659 212.859H135.498C136.406 212.859 137.142 213.595 137.142 214.503V252.642C137.142 253.549 136.406 254.285 135.498 254.285Z" fill="#F2A441"/>
<path d="M119.004 213.116C119.004 226.856 119.004 240.596 119.004 254.336C119.004 254.94 119.944 254.942 119.944 254.336C119.944 240.596 119.944 226.855 119.944 213.116C119.944 212.512 119.004 212.51 119.004 213.116Z" fill="#26244A"/>
<path d="M104.496 212.858H96.8711V220.483H104.496V212.858Z" fill="#DADEF1"/>
<path d="M133.305 246.66H125.68V254.285H133.305V246.66Z" fill="#DADEF1"/>
<path d="M84.0471 296.382H32.5691C31.661 296.382 30.9258 295.646 30.9258 294.739V257.645C30.9258 256.16 32.1301 254.956 33.6147 254.956H84.0471C84.9552 254.956 85.6904 255.692 85.6904 256.599V294.739C85.6911 295.646 84.9552 296.382 84.0471 296.382Z" fill="#F2A441"/>
<path d="M67.5508 255.215C67.5508 268.956 67.5508 282.696 67.5508 296.436C67.5508 297.04 68.4904 297.042 68.4904 296.436C68.4904 282.696 68.4904 268.956 68.4904 255.215C68.4904 254.611 67.5508 254.61 67.5508 255.215Z" fill="#26244A"/>
<path d="M53.0428 254.955H45.418V262.58H53.0428V254.955Z" fill="#DADEF1"/>
<path d="M81.8514 288.758H74.2266V296.383H81.8514V288.758Z" fill="#DADEF1"/>
<path d="M30.9704 295.737L30.9238 256.55C30.9238 255.605 31.6898 254.838 32.6355 254.838L85.6892 254.956" stroke="#26244A" stroke-miterlimit="10"/>
<path d="M135.508 296.382H84.03C83.1219 296.382 82.3867 295.646 82.3867 294.739V257.645C82.3867 256.16 83.591 254.956 85.0757 254.956H135.508C136.416 254.956 137.151 255.692 137.151 256.599V294.739C137.152 295.646 136.416 296.382 135.508 296.382Z" fill="#F2A441"/>
<path d="M119.012 255.215C119.012 268.956 119.012 282.696 119.012 296.436C119.012 297.04 119.951 297.042 119.951 296.436C119.951 282.696 119.951 268.956 119.951 255.215C119.951 254.611 119.012 254.61 119.012 255.215Z" fill="#26244A"/>
<path d="M104.506 254.955H96.8809V262.58H104.506V254.955Z" fill="#DADEF1"/>
<path d="M133.316 288.758H125.691V296.383H133.316V288.758Z" fill="#DADEF1"/>
<path d="M82.4326 295.737L82.3867 256.55C82.3867 255.605 83.1527 254.838 84.0984 254.838L137.152 254.956" stroke="#26244A" stroke-miterlimit="10"/>
<path d="M139.255 299.162H27.0819C26.328 299.162 25.7168 298.551 25.7168 297.797C25.7168 297.043 26.328 296.432 27.0819 296.432H139.255C140.009 296.432 140.62 297.043 140.62 297.797C140.62 298.551 140.009 299.162 139.255 299.162Z" fill="#545DBF"/>
<path d="M139.255 312.797H27.0819C26.328 312.797 25.7168 312.186 25.7168 311.432C25.7168 310.678 26.328 310.066 27.0819 310.066H139.255C140.009 310.066 140.62 310.678 140.62 311.432C140.62 312.186 140.009 312.797 139.255 312.797Z" fill="#545DBF"/>
<path d="M41.5723 298.38H27.5938V310.067H41.5723V298.38Z" fill="#545DBF"/>
<path d="M90.3847 298.38H76.4062V310.067H90.3847V298.38Z" fill="#545DBF"/>
<path d="M139.191 298.38H125.213V310.067H139.191V298.38Z" fill="#545DBF"/>
<path d="M27.2817 299.849C41.8105 299.849 56.3393 299.849 70.868 299.849C85.4592 299.849 100.05 299.849 114.642 299.849C122.846 299.849 131.05 299.849 139.253 299.849C139.858 299.849 139.859 298.909 139.253 298.909C124.725 298.909 110.196 298.909 95.667 298.909C81.0758 298.909 66.4839 298.909 51.8927 298.909C43.6891 298.909 35.4854 298.909 27.2817 298.909C26.6773 298.909 26.6766 299.849 27.2817 299.849Z" fill="#26244A"/>
<path d="M27.2817 310.535C41.8105 310.535 56.3393 310.535 70.868 310.535C85.4592 310.535 100.05 310.535 114.642 310.535C122.846 310.535 131.05 310.535 139.253 310.535C139.858 310.535 139.859 309.596 139.253 309.596C124.725 309.596 110.196 309.596 95.667 309.596C81.0758 309.596 66.4839 309.596 51.8927 309.596C43.6891 309.596 35.4854 309.596 27.2817 309.596C26.6773 309.596 26.6766 310.535 27.2817 310.535Z" fill="#26244A"/>
<path d="M32.8503 213.324C46.4251 213.324 59.9991 213.324 73.574 213.324C86.9443 213.324 100.314 213.324 113.684 213.324C121.41 213.324 129.135 213.324 136.861 213.324C137.465 213.324 137.467 212.385 136.861 212.385C123.286 212.385 109.712 212.385 96.1373 212.385C82.7669 212.385 69.3973 212.385 56.027 212.385C48.3014 212.385 40.5758 212.385 32.851 212.385C32.2459 212.385 32.2444 213.324 32.8503 213.324Z" fill="#26244A"/>
<path d="M82.9026 254.065C82.9026 240.328 82.9026 226.592 82.9026 212.855C82.9026 212.251 81.9629 212.249 81.9629 212.855C81.9629 226.592 81.9629 240.328 81.9629 254.065C81.9629 254.669 82.9026 254.67 82.9026 254.065Z" fill="#26244A"/>
<path d="M231.022 287.728C231.022 295.78 227.766 306.022 222.929 311.062C220.674 313.412 213.825 313.139 208.529 313.139C196.105 313.139 186.035 301.762 186.035 287.728C186.035 273.694 196.106 262.317 208.529 262.317C209.474 262.317 217.448 262.194 218.362 262.322C229.468 263.875 231.022 274.762 231.022 287.728Z" fill="#26244A"/>
<path d="M218.363 313.145C230.785 313.145 240.856 301.768 240.856 287.734C240.856 273.7 230.785 262.323 218.363 262.323C205.94 262.323 195.869 273.7 195.869 287.734C195.869 301.768 205.94 313.145 218.363 313.145Z" fill="#545DBF"/>
<path d="M218.361 299.132C223.792 299.132 228.194 294.029 228.194 287.734C228.194 281.438 223.792 276.335 218.361 276.335C212.93 276.335 208.527 281.438 208.527 287.734C208.527 294.029 212.93 299.132 218.361 299.132Z" fill="#B8C1EA"/>
<path d="M253.817 287.998H156.26V295.58H253.817V287.998Z" fill="#26244A"/>
<path d="M495.19 244.734H137.65V289.628H495.19V244.734Z" fill="#26244A"/>
<path d="M480.215 288.088C480.215 296.14 476.96 306.382 472.122 311.423C469.868 313.772 463.017 313.499 457.722 313.499C445.299 313.499 435.229 302.122 435.229 288.088C435.229 274.054 445.3 262.677 457.722 262.677C458.668 262.677 466.641 262.554 467.555 262.683C478.661 264.235 480.215 275.122 480.215 288.088Z" fill="#26244A"/>
<path d="M467.556 313.504C479.979 313.504 490.049 302.128 490.049 288.094C490.049 274.059 479.979 262.683 467.556 262.683C455.133 262.683 445.062 274.059 445.062 288.094C445.062 302.128 455.133 313.504 467.556 313.504Z" fill="#545DBF"/>
<path d="M467.554 299.491C472.985 299.491 477.388 294.388 477.388 288.093C477.388 281.798 472.985 276.694 467.554 276.694C462.123 276.694 457.721 281.798 457.721 288.093C457.721 294.388 462.123 299.491 467.554 299.491Z" fill="#B8C1EA"/>
<path d="M504.366 221.805C502.762 216.692 498.102 213.137 492.777 212.536L461.109 208.964L443.601 173.585C443.001 172.373 442.183 171.282 441.184 170.371C438.055 167.518 431.507 167.978 429.097 167.969C421.049 167.941 409.492 167.915 409.492 167.97V182.818V283.917C409.492 283.917 431.185 283.917 435.666 283.917C439.172 283.917 441.237 275.003 441.838 271.968C441.866 271.825 441.881 271.745 441.89 271.699C441.899 271.66 441.91 271.613 441.923 271.556C444.308 261.113 447.524 259.622 449.327 257.648C453.083 253.535 460.029 252.284 465.09 252.284C486.974 251.032 491.243 269.764 491.243 269.764L493.141 280.32H505.008V265.558V226.01C505.008 224.557 504.785 223.143 504.366 221.805Z" fill="#EF6856"/>
<path d="M505.008 231.947H409.492V243.042H505.008V231.947Z" fill="#F2A441"/>
<path d="M409.495 273.479C416.76 273.479 424.026 273.479 431.291 273.479C432.329 273.479 433.368 273.479 434.407 273.479C434.655 273.479 434.883 273.264 434.876 273.009C434.795 270.068 435.318 267.035 436.088 264.212C437.673 258.398 440.936 252.995 446.155 249.783C450.148 247.325 454.816 246.372 459.459 246.291C459.712 246.286 459.929 246.079 459.929 245.821C459.923 239.052 459.916 232.282 459.91 225.513C459.907 222.031 459.903 218.55 459.9 215.068C459.899 214.599 459.971 214.084 459.812 213.641C459.582 212.998 459.177 212.373 458.872 211.765C455.193 204.427 451.513 197.089 447.834 189.751C446.326 186.743 444.818 183.735 443.309 180.727C443.03 180.171 442.769 179.602 442.457 179.065C440.838 176.27 437.975 174.424 434.928 173.516C431.472 172.486 427.641 172.822 424.072 172.822C420.039 172.822 416.006 172.822 411.972 172.821C411.71 172.821 411.448 172.821 411.185 172.821C410.581 172.821 410.58 173.761 411.185 173.761C417.446 173.761 423.706 173.749 429.967 173.761C434.918 173.771 439.825 175.87 442.117 180.442C443.387 182.974 444.656 185.506 445.926 188.038C449.7 195.565 453.474 203.093 457.248 210.619C457.74 211.6 458.232 212.581 458.724 213.562C458.819 213.753 458.918 213.942 459.011 214.134C458.896 213.899 458.981 213.905 458.96 214.202C458.89 215.204 458.963 216.237 458.963 217.241C458.965 219.088 458.967 220.936 458.969 222.783C458.975 230.311 458.983 237.838 458.99 245.366C458.99 245.517 458.99 245.669 458.99 245.82C459.147 245.664 459.304 245.507 459.46 245.351C451.671 245.487 444.229 248.282 439.515 254.699C436.357 258.997 434.713 264.288 434.131 269.547C434.005 270.691 433.905 271.857 433.937 273.009C434.094 272.853 434.251 272.696 434.407 272.539C427.142 272.539 419.876 272.539 412.611 272.539C411.573 272.539 410.534 272.539 409.496 272.539C408.89 272.539 408.889 273.479 409.495 273.479Z" fill="#26244A"/>
<path d="M411.881 207.806C412.212 198.994 412.543 190.183 412.874 181.371C412.921 180.106 413.028 178.699 413.914 177.841C414.752 177.03 416.007 176.984 417.146 176.984C420.526 176.984 423.906 176.982 427.286 176.981C430.147 176.981 433.145 177.014 435.664 178.441C438.157 179.852 439.954 182.344 441.378 184.915C446.572 194.29 449.609 200.791 453.541 208.875C454.976 211.826 452.978 215.339 449.825 215.376C439.499 215.496 426.758 216.308 418.017 215.703C416.433 215.593 414.727 215.43 413.524 214.34C411.84 212.817 411.794 210.14 411.881 207.806Z" fill="#DADEF1"/>
<path opacity="0.5" d="M449.458 200.417L431.681 215.648C426.681 215.738 416.037 216.504 413.943 214.669L444.012 189.776L449.458 200.417Z" fill="white"/>
<path opacity="0.5" d="M441.377 184.915L411.854 209.917L412.065 202.871L438.539 180.805L441.377 184.915Z" fill="white"/>
<path d="M450.652 215.428V202.797L453.891 209.475C453.972 209.641 454.013 209.824 454.013 210.009V214.202C454.013 214.879 453.465 215.428 452.788 215.428H450.652V215.428Z" fill="#26244A"/>
<path d="M442.74 202.63C443.931 203.859 444.97 205.278 446.064 206.592C447.745 208.607 449.422 210.625 451.099 212.643C451.481 213.103 451.864 213.564 452.246 214.024C452.632 214.49 453.294 213.822 452.911 213.36C450.173 210.063 447.436 206.766 444.686 203.48C444.264 202.977 443.862 202.438 443.404 201.965C442.983 201.53 442.319 202.195 442.74 202.63Z" fill="#26244A"/>
<path d="M438.34 200.328V210.679C438.34 211.951 439.253 212.98 440.38 212.98H443.917C445.044 212.98 445.957 211.95 445.957 210.679V200.499C445.957 199.266 445.096 198.252 444.004 198.199L440.467 198.028C439.307 197.973 438.34 199.019 438.34 200.328Z" fill="#EF6856"/>
<path d="M494.026 212.735C494.026 212.735 492.342 220.987 495.667 222.511C498.992 224.035 504.71 223.153 504.71 223.153C504.71 223.153 503.472 213.631 494.026 212.735Z" fill="#F2A441"/>
<path d="M506.303 289.198H493.599L487.465 261.963H506.302C508.783 261.963 510.795 263.975 510.795 266.456V284.705C510.795 287.187 508.783 289.198 506.303 289.198Z" fill="#26244A"/>
<path d="M505.006 256.729H499.413C497.586 256.729 496.104 255.247 496.104 253.419C496.104 251.592 497.585 250.109 499.413 250.109H505.006V256.729Z" fill="#DADEF1"/>
<path d="M195.707 138.936H120.324V286.184H195.707V138.936Z" fill="#B8C1EA"/>
<path d="M195.707 282.556V138.974H401.164C406.348 138.974 410.55 143.176 410.55 148.36V282.556H310.928V279.281C310.928 264.839 299.22 253.131 284.778 253.131H269.028C258.546 253.131 252.419 260.151 251.165 270.558L247.114 282.556H195.707V282.556Z" fill="#DADEF1"/>
<path d="M190.139 149.974H126.859V196.219H190.139V149.974Z" fill="#545DBF"/>
<path d="M190.139 196.22H126.859V277.147H190.139V196.22Z" fill="#545DBF"/>
<path d="M190.14 217.87L126.859 196.22H190.14V217.87Z" fill="#26244A"/>
<path d="M194.553 270.521C194.553 271.265 193.95 271.867 193.207 271.867C192.464 271.867 191.861 271.265 191.861 270.521C191.861 269.778 192.463 269.176 193.207 269.176C193.95 269.176 194.553 269.778 194.553 270.521Z" fill="#F2A441"/>
<path d="M194.553 274.507C194.553 275.25 193.95 275.852 193.207 275.852C192.464 275.852 191.861 275.25 191.861 274.507C191.861 273.764 192.463 273.161 193.207 273.161C193.95 273.161 194.553 273.763 194.553 274.507Z" fill="#F2A441"/>
<path d="M194.553 278.49C194.553 279.234 193.95 279.836 193.207 279.836C192.464 279.836 191.861 279.234 191.861 278.49C191.861 277.747 192.463 277.145 193.207 277.145C193.95 277.145 194.553 277.747 194.553 278.49Z" fill="#F2A441"/>
<path d="M124.783 270.521C124.783 271.265 124.181 271.867 123.437 271.867C122.694 271.867 122.092 271.265 122.092 270.521C122.092 269.778 122.694 269.176 123.437 269.176C124.181 269.176 124.783 269.778 124.783 270.521Z" fill="#F2A441"/>
<path d="M124.783 274.507C124.783 275.25 124.181 275.852 123.437 275.852C122.694 275.852 122.092 275.25 122.092 274.507C122.092 273.764 122.694 273.161 123.437 273.161C124.181 273.161 124.783 273.763 124.783 274.507Z" fill="#F2A441"/>
<path d="M124.783 278.49C124.783 279.234 124.181 279.836 123.437 279.836C122.694 279.836 122.092 279.234 122.092 278.49C122.092 277.747 122.694 277.145 123.437 277.145C124.181 277.145 124.783 277.747 124.783 278.49Z" fill="#F2A441"/>
<path d="M127.428 186.611C143.627 186.611 159.826 186.611 176.025 186.611C180.635 186.611 185.246 186.611 189.856 186.611C190.46 186.611 190.462 185.671 189.856 185.671C173.657 185.671 157.458 185.671 141.259 185.671C136.649 185.671 132.039 185.671 127.428 185.671C126.824 185.671 126.823 186.611 127.428 186.611Z" fill="#26244A"/>
<path d="M127.428 175.904C143.627 175.904 159.826 175.904 176.025 175.904C180.635 175.904 185.246 175.904 189.856 175.904C190.46 175.904 190.462 174.964 189.856 174.964C173.657 174.964 157.458 174.964 141.259 174.964C136.649 174.964 132.039 174.964 127.428 174.964C126.824 174.964 126.823 175.904 127.428 175.904Z" fill="#26244A"/>
<path d="M127.428 165.2C143.627 165.2 159.826 165.2 176.025 165.2C180.635 165.2 185.246 165.2 189.856 165.2C190.46 165.2 190.462 164.261 189.856 164.261C173.657 164.261 157.458 164.261 141.259 164.261C136.649 164.261 132.039 164.261 127.428 164.261C126.824 164.261 126.823 165.2 127.428 165.2Z" fill="#26244A"/>
<path d="M127.146 155.216C143.345 155.216 159.543 155.216 175.742 155.216C180.353 155.216 184.963 155.216 189.573 155.216C190.178 155.216 190.179 154.276 189.573 154.276C173.374 154.276 157.176 154.276 140.977 154.276C136.366 154.276 131.756 154.276 127.146 154.276C126.54 154.276 126.54 155.216 127.146 155.216Z" fill="#26244A"/>
<path d="M190.139 277.146H124.709V281.643H190.139V277.146Z" fill="#DADEF1"/>
<path d="M296.603 287.295C296.603 295.347 293.347 305.589 288.51 310.63C286.255 312.979 279.405 312.706 274.109 312.706C261.686 312.706 251.615 301.329 251.615 287.295C251.615 273.261 261.686 261.884 274.109 261.884C275.054 261.884 283.029 261.761 283.943 261.89C295.048 263.443 296.603 274.329 296.603 287.295Z" fill="#26244A"/>
<path d="M283.943 312.712C296.365 312.712 306.436 301.336 306.436 287.302C306.436 273.267 296.365 261.891 283.943 261.891C271.52 261.891 261.449 273.267 261.449 287.302C261.449 301.336 271.52 312.712 283.943 312.712Z" fill="#545DBF"/>
<path d="M283.945 298.699C289.376 298.699 293.778 293.596 293.778 287.301C293.778 281.006 289.376 275.902 283.945 275.902C278.514 275.902 274.111 281.006 274.111 287.301C274.111 293.596 278.514 298.699 283.945 298.699Z" fill="#B8C1EA"/>
<path d="M183.756 277.094H132.278C131.37 277.094 130.635 276.358 130.635 275.451V238.357C130.635 236.872 131.839 235.668 133.324 235.668H183.756C184.663 235.668 185.399 236.404 185.399 237.311V275.451C185.4 276.358 184.664 277.094 183.756 277.094Z" fill="#F2A441"/>
<path d="M167.262 235.927C167.262 249.667 167.262 263.407 167.262 277.147C167.262 277.752 168.201 277.753 168.201 277.147C168.201 263.407 168.201 249.667 168.201 235.927C168.201 235.322 167.262 235.321 167.262 235.927Z" fill="#26244A"/>
<path d="M152.752 235.668H145.127V243.293H152.752V235.668Z" fill="#DADEF1"/>
<path d="M181.562 269.47H173.938V277.095H181.562V269.47Z" fill="#DADEF1"/>
<path d="M163.887 192.405H153.398C152.721 192.405 152.172 191.857 152.172 191.179C152.172 190.502 152.721 189.953 153.398 189.953H163.887C164.564 189.953 165.113 190.502 165.113 191.179C165.113 191.857 164.564 192.405 163.887 192.405Z" fill="#26244A"/>
<path d="M196.36 192.875C207.594 193.073 217.024 185.54 224.442 177.851C232.766 169.223 239.1 158.903 247.522 150.35C252.04 145.762 257.202 141.641 263.301 139.388C263.863 139.181 263.62 138.272 263.051 138.483C252.548 142.362 244.842 151.278 238.048 159.797C230.569 169.173 223.577 179.017 213.636 186.006C208.519 189.604 202.7 192.047 196.36 191.935C195.755 191.925 195.755 192.865 196.36 192.875Z" fill="white"/>
<path d="M284.605 139.777C275.19 147.859 266.055 156.275 257.377 165.148C248.765 173.954 240.607 183.213 233.108 192.988C229.339 197.9 225.741 202.943 222.343 208.118C219.018 213.182 215.795 218.419 213.839 224.187C212.126 229.238 211.506 234.632 212.813 239.85C213.939 244.342 216.412 248.62 220.263 251.297C224.865 254.493 230.796 254.673 236.011 253.026C241.673 251.239 246.372 247.419 250.556 243.327C259.6 234.48 267.805 224.825 277.19 216.316C286.316 208.043 296.564 200.734 308.25 196.572C313.896 194.561 319.848 193.297 325.852 193.163C330.61 193.057 336.231 193.877 339.505 197.705C343.554 202.438 341.502 209.119 338.851 213.985C336.007 219.205 332.173 223.985 328.236 228.415C320.271 237.378 310.976 245.038 301.515 252.357C299.133 254.2 296.735 256.024 294.336 257.846C293.861 258.207 294.329 259.023 294.811 258.657C304.304 251.445 313.824 244.194 322.386 235.871C326.644 231.732 330.648 227.328 334.232 222.59C337.652 218.07 341.202 213.097 342.385 207.448C343.431 202.455 341.891 197.436 337.39 194.723C333.096 192.135 327.728 191.981 322.875 192.385C311.018 193.371 299.822 198.306 290.044 204.906C279.6 211.955 270.676 220.96 262.019 230.045C257.701 234.577 253.498 239.255 248.956 243.564C244.513 247.778 239.409 251.551 233.28 252.755C227.645 253.862 221.888 252.4 218.017 248.044C214.705 244.318 213.096 239.199 213.025 234.268C212.936 228.209 215.196 222.326 218.015 217.06C220.926 211.623 224.456 206.493 228.015 201.466C235.246 191.256 243.236 181.597 251.74 172.426C260.178 163.326 269.123 154.704 278.389 146.452C280.663 144.427 282.958 142.424 285.269 140.441C285.729 140.047 285.062 139.385 284.605 139.777Z" fill="white"/>
<path d="M319.778 280.245C327.784 267.183 339.549 256.45 353.497 250.04C357.012 248.425 360.65 247.145 364.364 246.068C368.443 244.886 372.577 243.882 376.592 242.486C380.424 241.151 384.135 239.442 387.414 237.03C390.484 234.772 393.162 232.032 395.493 229.023C398.4 225.269 400.657 221.105 402.934 216.953C405.392 212.472 407.792 207.958 410.317 203.514C410.617 202.988 409.806 202.514 409.506 203.04C407.276 206.964 405.144 210.943 402.983 214.905C400.906 218.713 398.89 222.592 396.423 226.168C394.148 229.465 391.492 232.523 388.398 235.079C385.09 237.813 381.279 239.782 377.261 241.251C369.703 244.015 361.746 245.41 354.341 248.638C347.543 251.602 341.216 255.604 335.556 260.392C329.032 265.911 323.431 272.486 318.967 279.77C318.649 280.288 319.462 280.76 319.778 280.245Z" fill="white"/>
<path d="M319.121 139.915C312.938 145.726 305.43 153.579 308.218 162.92C309.439 167.008 312.811 169.852 316.465 171.78C320.49 173.906 324.922 175.237 329.41 175.932C339.02 177.418 348.765 176.107 358.19 174.069C368.397 171.862 378.526 168.655 388.964 167.708C393.868 167.263 399.955 167.377 403.887 170.799C407.212 173.693 408.264 178.433 409.455 182.479C409.626 183.058 410.532 182.811 410.361 182.23C409.32 178.695 408.392 174.866 406.141 171.868C403.797 168.746 400.063 167.347 396.296 166.838C391.604 166.202 386.823 166.905 382.196 167.716C377.109 168.608 372.087 169.825 367.068 171.037C357.412 173.37 347.653 175.697 337.656 175.635C332.93 175.605 328.196 175.038 323.659 173.684C319.427 172.42 314.935 170.518 311.839 167.262C308.12 163.351 307.939 157.773 309.879 152.955C311.885 147.972 315.951 144.182 319.784 140.58C320.228 140.165 319.563 139.501 319.121 139.915Z" fill="white"/>
<path d="M195.996 262.951C200.178 261.714 204.453 260.729 208.783 260.179C212.717 259.678 216.713 259.522 220.606 260.406C224.116 261.202 227.497 262.798 230.015 265.414C232.214 267.698 234.017 270.377 235.695 273.056C237.464 275.881 239.139 278.811 240.452 281.88C240.688 282.434 241.499 281.956 241.263 281.406C240.037 278.543 238.492 275.804 236.861 273.155C235.156 270.383 233.314 267.631 231.117 265.218C225.893 259.482 217.817 258.324 210.454 259.05C205.467 259.543 200.545 260.627 195.745 262.046C195.167 262.217 195.414 263.123 195.996 262.951Z" fill="white"/>
<path d="M349.35 284.372C355.711 278.274 363.267 273.452 371.48 270.251C375.523 268.675 379.718 267.483 383.989 266.715C388.313 265.937 392.71 265.643 397.062 265.068C401.741 264.45 406.442 263.603 410.788 261.696C411.341 261.454 410.862 260.644 410.314 260.885C402.148 264.468 392.994 264.227 384.35 265.702C375.856 267.152 367.648 270.265 360.297 274.755C356.117 277.309 352.222 280.319 348.686 283.709C348.248 284.127 348.913 284.791 349.35 284.372Z" fill="white"/>
<path d="M118.432 287.436C124.073 287.258 129.741 287.422 135.383 287.449C146.557 287.503 157.732 287.578 168.905 287.653C180.858 287.735 192.811 287.821 204.764 287.906C212.907 287.964 221.049 288.028 229.193 288.066C232.877 288.083 236.537 288.046 240.174 287.311C245.109 286.312 249.532 283.782 252.225 279.439C254.481 275.8 255.242 271.187 256.892 267.52C258.595 263.736 261.044 260.432 264.997 258.794C269.508 256.926 274.716 257.033 279.506 256.972C284.303 256.911 289.438 256.938 293.817 259.164C295.704 260.123 297.369 261.328 298.808 262.883C300.214 264.403 301.119 266.295 301.984 268.239C302.005 268.287 302.265 268.883 302.074 268.434C302.137 268.582 302.198 268.731 302.257 268.88C302.384 269.199 302.51 269.519 302.629 269.841C302.919 270.621 303.182 271.411 303.451 272.198C303.823 273.283 304.189 274.36 304.635 275.415C305.738 278.028 307.204 280.503 309.17 282.566C311.534 285.047 314.601 286.558 318.051 286.575C319.009 286.579 319.966 286.562 320.924 286.555C330.006 286.494 339.088 286.43 348.169 286.366C360.17 286.282 372.171 286.197 384.172 286.113C391.792 286.06 399.412 286.006 407.032 285.952C407.416 285.949 407.801 285.947 408.185 285.944C412.591 285.913 412.6 279.063 408.185 279.095C402.693 279.133 397.202 279.172 391.71 279.211C380.095 279.292 368.48 279.374 356.865 279.455C346.444 279.528 336.024 279.601 325.603 279.673C323.076 279.69 320.548 279.738 318.02 279.725C317.949 279.725 317.878 279.727 317.807 279.726C317.643 279.724 317.48 279.715 317.317 279.711C316.769 279.696 317.804 279.832 317.282 279.708C316.927 279.625 316.584 279.533 316.239 279.417C316.831 279.617 315.736 279.142 315.549 279.026C315.384 278.925 314.64 278.367 315.125 278.763C314.81 278.506 314.51 278.228 314.224 277.94C313.974 277.689 313.743 277.423 313.505 277.161C313.405 277.05 313.311 276.931 313.217 276.816C313.68 277.38 313.09 276.638 313.042 276.57C312.314 275.54 311.685 274.44 311.142 273.302C311.038 273.084 310.946 272.859 310.839 272.642C310.589 272.137 311.137 273.49 310.947 272.899C310.879 272.685 310.784 272.47 310.707 272.258C309.364 268.547 308.25 264.611 306.127 261.247C303.455 257.014 299.372 253.971 294.762 252.133C289.799 250.152 284.256 250.047 278.985 250.129C273.827 250.21 268.366 250.275 263.469 252.084C258.76 253.824 255.004 257.003 252.414 261.301C250.066 265.198 249.172 269.573 247.47 273.731C246.805 275.354 245.764 277.13 244.292 278.291C242.701 279.545 240.764 280.176 238.804 280.61C236.494 281.121 234.129 281.225 231.768 281.225C225.298 281.225 218.826 281.155 212.355 281.11C200.862 281.031 189.37 280.947 177.877 280.867C166.075 280.784 154.273 280.704 142.471 280.638C135.076 280.596 127.68 280.529 120.285 280.565C119.666 280.568 119.047 280.568 118.429 280.588C114.036 280.726 114.016 287.575 118.432 287.436Z" fill="#B8C1EA"/>
<path d="M463.072 181.238C463.072 182.997 461.645 184.424 459.886 184.424C458.126 184.424 456.699 182.997 456.699 181.238C456.699 179.478 458.126 178.052 459.886 178.052C461.646 178.051 463.072 179.478 463.072 181.238Z" fill="#DADEF1"/>
<path d="M365.625 92.5157C365.625 94.2755 364.198 95.7016 362.439 95.7016C360.679 95.7016 359.252 94.2748 359.252 92.5157C359.252 90.7559 360.679 89.3291 362.439 89.3291C364.198 89.3299 365.625 90.7559 365.625 92.5157Z" fill="#DADEF1"/>
<path d="M485.841 144.456L428.711 144.345C425.373 144.338 422.672 141.627 422.678 138.288L422.893 28.0627C422.9 24.7243 425.611 22.0233 428.949 22.0293L486.079 22.1406C489.418 22.1473 492.118 24.8588 492.112 28.1973L491.897 138.423C491.891 141.762 489.18 144.463 485.841 144.456Z" fill="#26244A"/>
<path d="M488.88 33.193L425.844 33.0732L425.668 125.336L488.704 125.456L488.88 33.193Z" fill="white"/>
<path d="M465.413 28.7723L449.58 28.5889C449.231 28.5852 448.953 28.2995 448.957 27.9522L448.959 27.8139C448.962 27.4658 449.248 27.1877 449.596 27.1914L465.43 27.3749C465.778 27.3786 466.056 27.6643 466.052 28.0123L466.051 28.1507C466.046 28.4972 465.761 28.7761 465.413 28.7723Z" fill="#545DBF"/>
<path d="M463.844 134.311C463.806 137.602 461.108 140.238 457.817 140.2C454.527 140.162 451.891 137.464 451.928 134.174C451.966 130.883 454.664 128.247 457.956 128.285C461.245 128.322 463.881 131.021 463.844 134.311Z" fill="#545DBF"/>
<path d="M479.333 98.3854L437.103 98.3035C436.195 98.302 435.461 97.5645 435.463 96.6564L435.522 66.5577C435.525 65.0723 436.731 63.871 438.216 63.874L479.4 63.9545C480.308 63.956 481.042 64.6934 481.041 65.6015L480.98 96.7459C480.978 97.6532 480.241 98.3877 479.333 98.3854Z" fill="#F2A441"/>
<path d="M465.887 64.145C465.865 75.5646 465.843 86.9849 465.82 98.4045C465.819 99.0089 466.758 99.0104 466.76 98.4045C466.783 86.9849 466.804 75.5646 466.827 64.145C466.828 63.5406 465.889 63.5398 465.887 64.145Z" fill="#26244A"/>
<path d="M453.905 63.9258L447.568 63.9131L447.556 70.2502L453.893 70.2629L453.905 63.9258Z" fill="#DADEF1"/>
<path d="M477.806 92.0247L471.469 92.0127L471.457 98.3498L477.794 98.3619L477.806 92.0247Z" fill="#DADEF1"/>
<path d="M475.691 97.4472C476.935 88.7714 470.91 80.7302 462.234 79.4865C453.558 78.2429 445.517 84.2678 444.273 92.9435C443.03 101.619 449.055 109.661 457.73 110.904C466.406 112.148 474.447 106.123 475.691 97.4472Z" fill="#5BC55C"/>
<path d="M452.315 95.8394C453.862 97.5616 455.409 99.2838 456.956 101.006C457.615 101.74 458.952 101.723 459.613 101.006C461.983 98.4359 464.352 95.8657 466.721 93.2955C467.056 92.9324 467.391 92.5694 467.725 92.2063C468.413 91.4605 468.463 90.2871 467.725 89.5481C467.028 88.8513 465.758 88.7994 465.068 89.5481C462.698 92.1183 460.329 94.6885 457.959 97.2587C457.625 97.6218 457.29 97.9849 456.956 98.3479C457.841 98.3479 458.728 98.3479 459.613 98.3479C458.066 96.6257 456.519 94.9035 454.972 93.1813C454.293 92.4258 453.005 92.4904 452.314 93.1813C451.564 93.933 451.634 95.0824 452.315 95.8394Z" fill="white"/>
<path d="M438.672 52.9367C449.299 52.9367 459.925 52.9367 470.552 52.9367C473.327 52.9367 476.103 52.9367 478.878 52.9367C479.482 52.9367 479.484 51.9971 478.878 51.9971C468.252 51.9971 457.625 51.9971 446.999 51.9971C444.223 51.9971 441.448 51.9971 438.672 51.9971C438.068 51.9971 438.067 52.9367 438.672 52.9367Z" fill="#26244A"/>
<path d="M452.475 48.3205C456.677 48.3205 460.878 48.3205 465.08 48.3205C465.684 48.3205 465.686 47.3809 465.08 47.3809C460.878 47.3809 456.677 47.3809 452.475 47.3809C451.871 47.3809 451.869 48.3205 452.475 48.3205Z" fill="#26244A"/>
<path d="M167.838 54.6993C165.268 57.3116 164.895 61.5664 166.957 64.7718C167.966 66.3399 169.366 67.4577 170.915 68.0937C171.292 68.2486 171.688 68.3486 172.084 68.4335L179.649 70.0625C180.838 70.3188 181.955 69.3965 181.927 68.1802L181.801 62.6609C181.79 62.14 181.743 61.1402 181.684 60.2471C181.573 58.567 181.015 56.9057 179.95 55.5721C179.941 55.5623 179.933 55.5518 179.926 55.542C176.854 51.733 171.234 51.2496 167.838 54.6993ZM176.378 62.6068C174.815 64.6004 171.735 64.2073 170.547 61.8633C169.949 60.6824 170.074 59.2383 170.862 58.234C172.426 56.2404 175.506 56.6328 176.693 58.9774C177.292 60.1584 177.166 61.6025 176.378 62.6068Z" fill="#DADEF1"/>
<path d="M487.578 167.885C482.866 168.418 479.026 172.393 478.489 177.296C478.227 179.694 478.724 181.958 479.763 183.859C480.017 184.322 480.334 184.745 480.663 185.154L486.943 192.952C487.93 194.178 489.804 194.16 490.767 192.914L495.135 187.262C495.547 186.729 496.314 185.686 496.983 184.74C498.241 182.96 499.032 180.834 499.046 178.626C499.046 178.609 499.046 178.592 499.046 178.575C499.058 172.243 493.801 167.181 487.578 167.885ZM489.725 182.79C486.53 183.52 483.752 180.618 484.467 177.294C484.827 175.619 486.128 174.269 487.739 173.9C490.935 173.17 493.712 176.072 492.998 179.396C492.637 181.072 491.336 182.421 489.725 182.79Z" fill="#DADEF1"/>
<path d="M229.03 1.04958C222.323 3.66035 218.232 10.9838 219.346 18.3853C219.891 22.0064 221.5 25.1344 223.763 27.5212C224.315 28.103 224.944 28.5999 225.585 29.072L237.826 38.0778C239.751 39.4933 242.493 38.7393 243.422 36.5375L247.638 26.5499C248.037 25.608 248.757 23.7783 249.371 22.1312C250.525 19.0326 250.861 15.6062 250.025 12.3602C250.019 12.3354 250.012 12.3106 250.005 12.2858C247.566 2.9883 237.888 -2.39938 229.03 1.04958ZM237.965 22.0854C233.56 24.3977 228.358 21.2164 228.117 16.0617C227.995 13.4645 229.381 10.9785 231.601 9.8133C236.007 7.50021 241.209 10.6823 241.45 15.837C241.571 18.4349 240.185 20.9202 237.965 22.0854Z" fill="#4092E2"/>
<path d="M376.047 262.117H342.458C341.55 262.117 340.814 261.381 340.814 260.473V236.912C340.814 235.426 342.019 234.223 343.503 234.223H376.047C376.955 234.223 377.69 234.959 377.69 235.866V260.473C377.69 261.381 376.954 262.117 376.047 262.117Z" fill="#F2A441"/>
<path d="M365.322 234.394C365.322 243.646 365.322 252.898 365.322 262.15C365.322 262.754 366.262 262.756 366.262 262.15C366.262 252.898 366.262 243.646 366.262 234.394C366.262 233.79 365.322 233.788 365.322 234.394Z" fill="#26244A"/>
<path d="M355.707 234.222H350.572V239.356H355.707V234.222Z" fill="#DADEF1"/>
<path d="M375.105 256.981H369.971V262.116H375.105V256.981Z" fill="#DADEF1"/>
<path d="M340.845 261.681L340.814 235.294C340.814 234.657 341.33 234.142 341.967 234.142L377.691 234.221" stroke="#26244A" stroke-miterlimit="10"/>
<path d="M392.697 312.995H329.229C328.321 312.995 327.586 312.259 327.586 311.351V265.188C327.586 263.703 328.79 262.499 330.275 262.499H392.697C393.606 262.499 394.341 263.235 394.341 264.142V311.351C394.341 312.259 393.606 312.995 392.697 312.995Z" fill="#F2A441"/>
<path d="M372.334 262.813C372.334 275.881 372.334 288.948 372.334 302.016C372.334 305.697 372.334 309.377 372.334 313.058C372.334 313.663 373.274 313.664 373.274 313.058C373.274 299.991 373.274 286.924 373.274 273.855C373.274 270.175 373.274 266.494 373.274 262.813C373.274 262.209 372.334 262.207 372.334 262.813Z" fill="#26244A"/>
<path d="M354.548 262.499H345.254V271.793H354.548V262.499Z" fill="#DADEF1"/>
<path d="M389.667 303.7H380.373V312.994H389.667V303.7Z" fill="#DADEF1"/>
<path d="M327.642 312.207L327.586 264.441C327.586 263.288 328.52 262.354 329.672 262.354L394.341 262.499" stroke="#26244A" stroke-miterlimit="10"/>
<path d="M7.85611 313.733C74.1922 313.733 140.528 313.733 206.864 313.733C272.862 313.733 338.859 313.733 404.857 313.733C442.087 313.733 479.315 313.733 516.545 313.733C517.149 313.733 517.151 312.793 516.545 312.793C450.209 312.793 383.873 312.793 317.538 312.793C251.54 312.793 185.543 312.793 119.545 312.793C82.3154 312.793 45.0865 312.793 7.85686 312.793C7.25172 312.793 7.25021 313.733 7.85611 313.733Z" fill="#26244A"/>
</svg>
