<svg width="73" height="73" viewBox="0 0 73 73" fill="none" xmlns="http://www.w3.org/2000/svg">
<g clip-path="url(#clip0_555_5906)">
<rect width="72" height="72" transform="translate(0.632812 0.5)" fill="#FFEBED"/>
<path d="M36.9189 16C26.3681 16 17.4852 23.9974 16.1672 34.4392C14.6651 46.3846 23.463 57.098 35.4227 57.9464C47.5317 58.8063 58.0012 49.2178 58.0012 37.0823C58.0012 25.5292 48.472 16 36.9189 16ZM39.369 46.866V47.3784C39.369 48.7322 38.2714 49.8298 36.9176 49.8298C35.5637 49.8298 34.4662 48.7322 34.4662 47.3784V47.1432C33.3367 46.9451 32.3048 46.5225 31.0011 45.6696C29.8681 44.9284 29.5505 43.409 30.2917 42.2761C31.0328 41.1431 32.5522 40.8255 33.6851 41.5667C34.8801 42.3485 35.2673 42.4095 36.9009 42.398C38.478 42.3876 39.1064 41.1496 39.2291 40.4199C39.3393 39.7647 39.2156 38.8936 38.0006 38.4643C35.9653 37.7447 33.8781 36.9191 32.3996 35.7594C29.0328 33.1187 30.0492 27.0875 34.4663 25.4823V25.1275C34.4663 23.7737 35.5639 22.6761 36.9178 22.6761C38.2716 22.6761 39.3692 23.7737 39.3692 25.1275V25.2635C40.5771 25.6044 41.5498 26.2209 42.2181 26.9006C43.1674 27.8659 43.1544 29.418 42.1892 30.3672C41.2243 31.3161 39.6733 31.3035 38.7241 30.3399C38.5873 30.2064 37.8321 29.5767 36.1972 30.0691C35.5445 30.2657 35.3691 30.9426 35.3309 31.1453C35.2511 31.5686 35.3647 31.8539 35.4255 31.9016C36.3502 32.6269 38.0722 33.2893 39.6348 33.8419C46.0958 36.1256 45.3087 44.7187 39.369 46.866Z" fill="#FF5948"/>
</g>
<defs>
<clipPath id="clip0_555_5906">
<rect x="0.632812" y="0.5" width="72" height="72" rx="36" fill="white"/>
</clipPath>
</defs>
</svg>
