<svg width="73" height="73" viewBox="0 0 73 73" fill="none" xmlns="http://www.w3.org/2000/svg">
<g clip-path="url(#clip0_555_5871)">
<rect width="72" height="72" transform="translate(0.683594 0.709961)" fill="#FFEBED"/>
<path d="M45.8757 28.1056C43.3355 26.1338 40.2113 25.0635 36.9957 25.0635C33.78 25.0635 30.6558 26.1338 28.1157 28.1056L25.5189 30.712C23.8567 32.8591 22.8298 35.4294 22.555 38.1308C22.2802 40.8323 22.7684 43.5566 23.9642 45.9945C25.16 48.4324 27.0154 50.4862 29.3198 51.9226C31.6241 53.3589 34.2851 54.1203 37.0005 54.1203C39.7159 54.1203 42.3768 53.3589 44.6812 51.9226C46.9856 50.4862 48.841 48.4324 50.0368 45.9945C51.2325 43.5566 51.7207 40.8323 51.4459 38.1308C51.1711 35.4294 50.1443 32.8591 48.4821 30.712L45.8757 28.1056ZM37.0005 52.5664C34.4372 52.5664 31.9315 51.8063 29.8003 50.3822C27.669 48.9581 26.0079 46.9341 25.027 44.5659C24.0461 42.1978 23.7894 39.592 24.2895 37.078C24.7896 34.564 26.0239 32.2548 27.8364 30.4423C29.6489 28.6298 31.9581 27.3955 34.4721 26.8954C36.9861 26.3953 39.5919 26.652 41.9601 27.6329C44.3282 28.6138 46.3523 30.2749 47.7763 32.4062C49.2004 34.5374 49.9605 37.0431 49.9605 39.6064C49.9516 43.0408 48.5833 46.3321 46.1548 48.7607C43.7262 51.1892 40.435 52.5575 37.0005 52.5664Z" fill="#FF5948"/>
<path d="M37 27.5684C34.6266 27.5684 32.3066 28.2721 30.3332 29.5907C28.3598 30.9093 26.8217 32.7834 25.9135 34.9762C25.0052 37.1689 24.7676 39.5817 25.2306 41.9094C25.6936 44.2372 26.8365 46.3754 28.5147 48.0536C30.193 49.7319 32.3311 50.8748 34.6589 51.3378C36.9867 51.8008 39.3995 51.5632 41.5922 50.6549C43.7849 49.7467 45.6591 48.2086 46.9776 46.2352C48.2962 44.2618 49 41.9417 49 39.5684C48.9924 36.3881 47.7257 33.3403 45.4769 31.0915C43.2281 28.8427 40.1803 27.576 37 27.5684ZM27.8512 40.0484H26.0512V39.0884H27.8512V40.0484ZM36.52 28.634H37.48V30.434H36.52V28.634ZM29.5984 47.666L29.2576 47.33L28.9168 46.9892L30.1888 45.7172L30.8704 46.394L29.5984 47.666ZM30.1888 33.458L28.9168 32.2004L29.5984 31.5236L30.8704 32.7956L30.1888 33.458ZM37.48 50.5364H36.52V48.7364H37.48V50.5364ZM42.232 44.6036L41.8912 44.9444L38.2336 41.2868C37.9819 41.4716 37.6922 41.598 37.3856 41.6568C37.0789 41.7157 36.763 41.7055 36.4608 41.627C36.1586 41.5485 35.8777 41.4037 35.6384 41.203C35.3991 41.0024 35.2076 40.751 35.0776 40.4671C34.9477 40.1831 34.8826 39.8738 34.8871 39.5616C34.8917 39.2494 34.9657 38.9421 35.1038 38.6621C35.2419 38.3821 35.4407 38.1363 35.6857 37.9427C35.9306 37.7491 36.2156 37.6125 36.52 37.5428V33.338H37.48V37.5428C37.9422 37.65 38.3545 37.9104 38.6499 38.2816C38.9453 38.6529 39.1065 39.1131 39.1072 39.5876C39.1041 39.9232 39.0183 40.2529 38.8576 40.5476L42.568 44.2628L42.232 44.6036ZM44.7424 47.33L44.4016 47.666L43.1296 46.394L43.4704 46.058L43.8112 45.7172L45.0832 46.9892L44.7424 47.33ZM43.8112 33.458L43.1296 32.7764L44.4016 31.5044L45.0832 32.2004L43.8112 33.458ZM46.1488 39.1076H47.9488V40.0676H46.1488V39.1076Z" fill="#FF5948"/>
<path d="M37.0007 38.4404C36.7738 38.4404 36.552 38.5077 36.3634 38.6338C36.1747 38.7598 36.0277 38.939 35.9408 39.1486C35.854 39.3582 35.8313 39.5889 35.8756 39.8114C35.9198 40.034 36.0291 40.2384 36.1895 40.3988C36.35 40.5593 36.5544 40.6685 36.7769 40.7128C36.9994 40.7571 37.2301 40.7343 37.4397 40.6475C37.6494 40.5607 37.8285 40.4136 37.9546 40.225C38.0806 40.0363 38.1479 39.8145 38.1479 39.5876C38.1479 39.2834 38.0271 38.9916 37.8119 38.7764C37.5968 38.5613 37.305 38.4404 37.0007 38.4404Z" fill="#FF5948"/>
<path d="M21.9809 32.8909L30.4529 24.4189L29.9729 23.9389C29.1038 23.0725 27.9266 22.5859 26.6993 22.5859C25.4721 22.5859 24.2949 23.0725 23.4257 23.9389L21.5057 25.8589C20.639 26.7289 20.1523 27.9069 20.1523 29.1349C20.1523 30.363 20.639 31.541 21.5057 32.4109L21.9809 32.8909Z" fill="#FF5948"/>
<path d="M50.5838 23.9292C49.7147 23.0627 48.5375 22.5762 47.3102 22.5762C46.083 22.5762 44.9058 23.0627 44.0366 23.9292L43.5566 24.4092L52.019 32.8908L52.499 32.4108C53.3658 31.5408 53.8524 30.3628 53.8524 29.1348C53.8524 27.9067 53.3658 26.7287 52.499 25.8588L50.5838 23.9292Z" fill="#FF5948"/>
<path d="M51.228 52.4611L48.2328 49.4707L48.5736 49.1299L46.6152 51.0211L49.6392 54.0499L51.228 52.4611Z" fill="#FF5948"/>
<path d="M25.4278 49.1299L25.7686 49.4707L22.7734 52.4611L24.3622 54.0499L27.3862 51.0211L25.4278 49.1299Z" fill="#FF5948"/>
<path d="M41.8432 19.2734H32.1568C31.85 19.2734 31.5558 19.3953 31.3388 19.6123C31.1219 19.8292 31 20.1234 31 20.4302C31 20.737 31.1219 21.0313 31.3388 21.2482C31.5558 21.4652 31.85 21.587 32.1568 21.587H35.3728V24.587H38.6272V21.587H41.8432C42.15 21.587 42.4442 21.4652 42.6612 21.2482C42.8781 21.0313 43 20.737 43 20.4302C43 20.1234 42.8781 19.8292 42.6612 19.6123C42.4442 19.3953 42.15 19.2734 41.8432 19.2734Z" fill="#FF5948"/>
</g>
<defs>
<clipPath id="clip0_555_5871">
<rect x="0.683594" y="0.709961" width="72" height="72" rx="36" fill="white"/>
</clipPath>
</defs>
</svg>
