<svg width="39" height="39" viewBox="0 0 39 39" fill="none" xmlns="http://www.w3.org/2000/svg">
<g clip-path="url(#clip0_495_4217)">
<path d="M36.6826 0.70388C36.3788 0.263512 35.8783 0.000183105 35.3437 0.000183105H17.875C15.1873 0.000183105 13 2.18745 13 4.87518V6.14095C13.0634 6.19807 13.1363 6.24181 13.1964 6.3037L19.6966 12.8036C20.6178 13.7233 21.1248 14.9486 21.1248 16.2501C21.1248 17.5519 20.6178 18.7771 19.6966 19.6969L13.1964 26.1968C13.1363 26.2569 13.0634 26.3009 13 26.3592V29.2502C13 31.9379 15.1873 34.1252 17.875 34.1252H23.5623C24.2368 34.1252 24.8412 33.7092 25.0801 33.0787L36.8614 2.20381C37.0531 1.70483 36.9849 1.14425 36.6826 0.70388Z" fill="#2196F3"/>
<path d="M9.12753 24.2517C8.52143 23.9997 8.1251 23.4067 8.1251 22.7503V17.8753H1.6249C0.728096 17.8753 0 17.1472 0 16.2501C0 15.3533 0.728096 14.6252 1.6249 14.6252H8.1251V9.75018C8.1251 9.09379 8.52143 8.50049 9.12753 8.24876C9.73542 7.99674 10.4341 8.13659 10.8988 8.60136L17.3987 15.1013C18.0343 15.7368 18.0343 16.7636 17.3987 17.3989L10.8988 23.8991C10.4341 24.3639 9.73542 24.5034 9.12753 24.2517Z" fill="#607D8B"/>
<path d="M34.7146 0.161141L24.9518 3.416C23.634 3.87095 22.75 5.11083 22.75 6.50007V35.7501C22.75 37.5425 24.2074 39.0002 25.9998 39.0002C26.3476 39.0002 26.6776 38.9499 27.035 38.8392L36.7981 35.5843C38.1159 35.1294 38.9999 33.8895 38.9999 32.5003V3.25027C38.9999 1.11002 36.9183 -0.51667 34.7146 0.161141Z" fill="#64B5F6"/>
</g>
<defs>
<clipPath id="clip0_495_4217">
<rect width="39" height="39" fill="white"/>
</clipPath>
</defs>
</svg>
