<svg width="293" height="469" viewBox="0 0 293 469" fill="none" xmlns="http://www.w3.org/2000/svg">
<path d="M231.961 451.764H23.7222C10.6754 451.764 0 441.089 0 428.042V23.7222C0 10.6755 10.6754 0 23.7222 0H231.961C245.01 0 255.685 10.6755 255.685 23.7222V428.042C255.685 441.089 245.01 451.764 231.961 451.764Z" fill="#383839"/>
<path d="M243.136 47.8438H12.5449V394.509H243.136V47.8438Z" fill="white"/>
<path d="M243.136 47.8438H12.5449V56.0785H243.136V47.8438Z" fill="#C0C2C4"/>
<path d="M150.849 431.896H104.836C99.6572 431.896 95.4238 427.661 95.4238 422.484C95.4238 417.308 99.6572 413.072 104.836 413.072H150.849C156.026 413.072 160.259 417.308 160.259 422.484C160.259 427.661 156.026 431.896 150.849 431.896Z" fill="#66CEF6"/>
<path d="M126.017 317.892L38.5527 298.401V204.849L126.017 224.338V317.892Z" fill="#FBC983"/>
<path d="M52.7618 273.142C72.8563 257.594 100.51 248.017 126.017 252.713V224.338L38.5527 204.849V286.11C42.9254 281.445 47.6511 277.096 52.7618 273.142Z" fill="#E5B471"/>
<path d="M213.482 298.401L126.016 317.892V224.338L213.482 204.849V298.401Z" fill="#D18F58"/>
<path d="M213.482 235.766V204.849L126.016 224.338V298.413C145.67 267.677 178.412 244.72 213.482 235.766Z" fill="#C18451"/>
<path d="M84.7258 308.654L66.7266 304.678V284.149L84.7258 287.884V308.654Z" fill="#CE7651"/>
<path d="M160.257 303.472L134.008 308.09V292.336L160.257 288.135V303.472Z" fill="white"/>
<path d="M135.773 293.836V306.158" stroke="black" stroke-width="1.245" stroke-miterlimit="10"/>
<path d="M137.23 293.6V305.903" stroke="black" stroke-width="1.245" stroke-miterlimit="10"/>
<path d="M138.682 293.365V305.651" stroke="black" stroke-width="1.245" stroke-miterlimit="10"/>
<path d="M140.129 293.13V305.397" stroke="black" stroke-width="1.245" stroke-miterlimit="10"/>
<path d="M141.576 292.896V305.146" stroke="black" stroke-width="1.245" stroke-miterlimit="10"/>
<path d="M143.016 292.664V304.896" stroke="black" stroke-width="1.245" stroke-miterlimit="10"/>
<path d="M144.449 292.432V304.646" stroke="black" stroke-width="1.245" stroke-miterlimit="10"/>
<path d="M145.877 292.199V304.397" stroke="black" stroke-width="1.245" stroke-miterlimit="10"/>
<path d="M147.307 291.97V304.148" stroke="black" stroke-width="1.245" stroke-miterlimit="10"/>
<path d="M148.732 291.74V303.9" stroke="black" stroke-width="1.245" stroke-miterlimit="10"/>
<path d="M150.146 291.51V303.654" stroke="black" stroke-width="1.245" stroke-miterlimit="10"/>
<path d="M151.562 291.28V303.406" stroke="black" stroke-width="1.245" stroke-miterlimit="10"/>
<path d="M152.975 291.053V303.16" stroke="black" stroke-width="1.245" stroke-miterlimit="10"/>
<path d="M154.381 290.825V302.915" stroke="black" stroke-width="1.245" stroke-miterlimit="10"/>
<path d="M155.781 290.598V302.671" stroke="black" stroke-width="1.245" stroke-miterlimit="10"/>
<path d="M157.18 290.37V302.426" stroke="black" stroke-width="1.245" stroke-miterlimit="10"/>
<path d="M158.572 290.145V302.183" stroke="black" stroke-width="1.245" stroke-miterlimit="10"/>
<path d="M38.5527 204.848L126.017 224.338L213.483 204.848L126.017 189.06L38.5527 204.848Z" fill="#5F3019"/>
<path d="M126.014 224.338L143.011 247.37L229.177 226.87L213.48 204.849L126.014 224.338Z" fill="#F9BF81"/>
<path d="M126.016 224.338L109.021 247.37L22.8535 226.87L38.5522 204.849L126.016 224.338Z" fill="#F9BF81"/>
<path d="M126.014 189.06L141.573 177.337L225.896 191.116L213.48 204.848L126.014 189.06Z" fill="#F9BF81"/>
<path d="M125.661 189.06L110.104 177.337L25.7793 191.116L38.197 204.848L125.661 189.06Z" fill="#F9BF81"/>
<path d="M139.458 177.454V134.229H112.581V177.454H99.6289L112.825 196.706L126.018 215.96L139.214 196.706L152.407 177.454H139.458Z" fill="#EF4132"/>
<path d="M104.004 180.562H107.728L124.82 211.879L104.004 180.562Z" fill="white"/>
<path d="M254.835 337H238.002C236.213 337 234.762 338.451 234.762 340.24V347.009H258.072V340.24C258.072 338.451 256.623 337 254.835 337Z" stroke="#002D4C" stroke-width="10.1693" stroke-miterlimit="10" stroke-linecap="round" stroke-linejoin="round"/>
<path d="M288.005 461.056H204.831C202.596 461.056 200.787 459.245 200.787 457.011V352.501C200.787 350.267 202.596 348.456 204.831 348.456H288.005C290.239 348.456 292.05 350.267 292.05 352.501V457.011C292.05 459.246 290.239 461.056 288.005 461.056Z" fill="#1E4390"/>
<path d="M285.107 353.771H207.727V455.743H285.107V353.771Z" fill="#A9ABAE"/>
<path d="M270.65 455.743H207.727V353.771H285.107V440.916L270.65 455.743Z" fill="white"/>
<path d="M269.73 358.73H223.109C223.109 358.73 225.019 355.108 225.019 351.223C225.019 347.339 223.109 343.717 223.109 343.717H269.73C269.73 343.717 268.54 346.747 268.412 351.223C268.314 354.678 269.676 358.18 269.73 358.73Z" fill="#002D4C"/>
<path d="M264.413 357.018H228.426C228.426 357.018 229.9 354.223 229.9 351.224C229.9 348.224 228.426 345.429 228.426 345.429H264.413C264.413 345.429 263.495 347.768 263.395 351.224C263.32 353.89 264.373 356.593 264.413 357.018Z" fill="#084676"/>
<path d="M248.194 369.002H216.193V372.574H248.194V369.002Z" fill="#BABCBE"/>
<path d="M219.156 379.39H216.193V382.962H219.156V379.39Z" fill="#A9ABAE"/>
<path d="M279.337 379.39H221.332V382.962H279.337V379.39Z" fill="#DCDDDE"/>
<path d="M219.156 387.291H216.193V390.863H219.156V387.291Z" fill="#A9ABAE"/>
<path d="M279.337 387.291H221.332V390.863H279.337V387.291Z" fill="#DCDDDE"/>
<path d="M219.156 395.192H216.193V398.765H219.156V395.192Z" fill="#A9ABAE"/>
<path d="M279.337 395.192H221.332V398.765H279.337V395.192Z" fill="#DCDDDE"/>
<path d="M219.156 403.096H216.193V406.667H219.156V403.096Z" fill="#A9ABAE"/>
<path d="M279.337 403.096H221.332V406.667H279.337V403.096Z" fill="#DCDDDE"/>
<path d="M219.156 410.996H216.193V414.568H219.156V410.996Z" fill="#A9ABAE"/>
<path d="M279.337 410.996H221.332V414.568H279.337V410.996Z" fill="#DCDDDE"/>
<path d="M219.156 418.898H216.193V422.471H219.156V418.898Z" fill="#A9ABAE"/>
<path d="M279.337 418.898H221.332V422.471H279.337V418.898Z" fill="#DCDDDE"/>
<path d="M219.156 426.801H216.193V430.372H219.156V426.801Z" fill="#A9ABAE"/>
<path d="M279.337 426.801H221.332V430.372H279.337V426.801Z" fill="#DCDDDE"/>
<path d="M218.584 458.139C224.582 452.141 224.582 442.415 218.583 436.417C212.585 430.418 202.86 430.418 196.861 436.417C190.863 442.415 190.863 452.141 196.861 458.139C202.86 464.138 212.585 464.138 218.584 458.139Z" fill="#ED1C24"/>
<path d="M199.656 449.259L205.325 454.651C205.325 454.651 207.728 447.367 217.039 439.908" stroke="white" stroke-width="13.5591" stroke-miterlimit="10"/>
<path d="M204.139 437.215C205.017 438.339 204.181 440.456 202.273 441.943C200.367 443.43 198.11 443.724 197.233 442.6C196.356 441.475 197.191 439.359 199.099 437.872C201.007 436.384 203.264 436.09 204.139 437.215Z" fill="white"/>
<path d="M270.648 455.744C270.648 455.744 275.191 447.767 273.263 438.889C273.263 438.889 284.148 438.221 285.106 440.916L270.648 455.744Z" fill="#D3D5D6"/>
</svg>
