<svg width="73" height="73" viewBox="0 0 73 73" fill="none" xmlns="http://www.w3.org/2000/svg">
<g clip-path="url(#clip0_555_5896)">
<rect width="72" height="72" transform="translate(0.855469 0.709961)" fill="#FFEBED"/>
<path d="M22.3433 34.3566C22.0338 34.3618 21.7827 34.5074 21.6101 34.6573C21.4373 34.8075 21.3146 34.9742 21.2019 35.1515C20.9766 35.5061 20.7973 35.915 20.6245 36.3251C20.4515 36.7351 20.2885 37.1453 20.1411 37.4597C20.0276 37.7017 19.8899 37.884 19.8618 37.9337C19.7997 37.9498 19.5876 38.028 19.3301 38.068C18.9867 38.1213 18.5464 38.1621 18.1042 38.213C17.6618 38.264 17.2202 38.3218 16.8164 38.4386C16.6148 38.497 16.4196 38.5686 16.227 38.6924C16.0342 38.8162 15.8242 39.0165 15.7328 39.3128C15.6413 39.609 15.7024 39.893 15.7918 40.1036C15.8814 40.3143 16.0015 40.4829 16.1355 40.6448C16.4034 40.9685 16.7373 41.2643 17.0742 41.5552C17.411 41.8461 17.751 42.1276 18.0047 42.3649C18.1952 42.5428 18.3264 42.7277 18.3686 42.7758C18.366 42.8398 18.3738 43.0665 18.3322 43.3236C18.2769 43.6664 18.1812 44.0974 18.0931 44.5335C18.0048 44.9695 17.9227 45.4081 17.9092 45.8279C17.9014 46.0378 17.9088 46.2444 17.9669 46.4657C18.0251 46.6871 18.1508 46.948 18.4046 47.1264C18.6582 47.3047 18.9485 47.3356 19.1767 47.3157C19.4048 47.2957 19.6016 47.2332 19.7971 47.1559C20.1879 47.0013 20.5735 46.7765 20.9545 46.5463C21.3355 46.316 21.7071 46.0789 22.0113 45.9111C22.2394 45.7853 22.4573 45.7162 22.5162 45.6909C22.576 45.7143 22.7958 45.7761 23.0278 45.895C23.3369 46.0535 23.7155 46.2794 24.1033 46.4979C24.4912 46.7165 24.8815 46.93 25.2769 47.0726C25.4744 47.1439 25.6753 47.2006 25.904 47.2136C26.1326 47.2266 26.4212 47.1874 26.6694 47.0014C26.9175 46.8154 27.0341 46.5504 27.0856 46.3274C27.1371 46.1044 27.1392 45.8965 27.1259 45.6869C27.0997 45.2676 27.004 44.8324 26.903 44.3992C26.8016 43.9659 26.6922 43.5397 26.6263 43.1987C26.5757 42.9365 26.5791 42.7078 26.5726 42.6509C26.6134 42.6013 26.7397 42.4129 26.9244 42.2292C27.1707 41.9844 27.5029 41.6924 27.8307 41.3913C28.1586 41.0903 28.4819 40.7844 28.7398 40.4527C28.8689 40.2869 28.9843 40.1142 29.0674 39.9009C29.1506 39.6876 29.2028 39.402 29.1023 39.1086C29.002 38.8153 28.7857 38.6222 28.5893 38.5044C28.3931 38.3865 28.1967 38.3217 27.9931 38.2694C27.586 38.1648 27.1423 38.1203 26.6987 38.0828C26.2551 38.0452 25.8135 38.0182 25.4687 37.9753C25.204 37.9424 24.9895 37.8675 24.9329 37.8558C24.8984 37.8018 24.7581 37.6236 24.6402 37.3912C24.4833 37.0814 24.3071 36.676 24.1219 36.2714C23.9369 35.8668 23.7443 35.4642 23.5083 35.1166C23.3903 34.9428 23.2627 34.7794 23.0853 34.6345C22.9081 34.4899 22.6528 34.3523 22.3433 34.3566ZM51.6547 34.3566C51.3445 34.3519 51.0895 34.4896 50.9121 34.6345C50.7349 34.7794 50.6058 34.9428 50.4878 35.1166C50.2519 35.4642 50.0607 35.8668 49.8755 36.2714C49.6905 36.676 49.5154 37.0814 49.3585 37.3912C49.2408 37.6236 49.1003 37.8018 49.0658 37.8558C49.0092 37.8675 48.7948 37.9424 48.5301 37.9753C48.1853 38.0182 47.7437 38.0452 47.3001 38.0827C46.8564 38.1203 46.4128 38.1648 46.0056 38.2694C45.8022 38.3217 45.6045 38.3865 45.4081 38.5044C45.2119 38.6222 44.9969 38.8153 44.8965 39.1086C44.7962 39.4019 44.8472 39.6876 44.93 39.9009C45.0132 40.1141 45.1286 40.2869 45.2577 40.4527C45.5155 40.7844 45.8402 41.0903 46.1681 41.3913C46.4959 41.6924 46.8267 41.9844 47.0731 42.2292C47.2581 42.4129 47.3842 42.6013 47.4249 42.6508C47.4197 42.7085 47.4232 42.9372 47.3724 43.1987C47.3067 43.5397 47.197 43.9659 47.0958 44.3991C46.9942 44.8324 46.8978 45.2676 46.8716 45.6869C46.8586 45.8964 46.8612 46.1043 46.9118 46.3274C46.9633 46.5504 47.081 46.8154 47.3294 47.0014C47.5776 47.1874 47.8662 47.2266 48.0948 47.2136C48.3235 47.2006 48.5215 47.1439 48.7192 47.0726C49.1146 46.93 49.5077 46.7165 49.8955 46.4979C50.2833 46.2793 50.6619 46.0535 50.971 45.895C51.2028 45.7761 51.4229 45.7144 51.4827 45.6909C51.5416 45.7161 51.7594 45.7852 51.9875 45.9111C52.2918 46.0789 52.6633 46.316 53.0443 46.5462C53.4253 46.7764 53.8096 47.0013 54.2004 47.1558C54.3958 47.2331 54.5939 47.2956 54.8221 47.3156C55.0503 47.3357 55.3405 47.3047 55.5942 47.1263C55.8478 46.9479 55.9724 46.687 56.0306 46.4657C56.0888 46.2443 56.0966 46.0378 56.0896 45.8279C56.0766 45.4081 55.9937 44.9695 55.9056 44.5334C55.8173 44.0973 55.7217 43.6664 55.6666 43.3236C55.625 43.0665 55.6341 42.8398 55.6305 42.7757C55.6726 42.7276 55.8025 42.5428 55.993 42.3649C56.2466 42.1276 56.5881 41.8461 56.9249 41.5552C57.2617 41.2642 57.5943 40.9685 57.8621 40.6448C57.9962 40.4829 58.1176 40.3143 58.2073 40.1036C58.2969 39.8929 58.3577 39.609 58.2662 39.3127C58.1748 39.0165 57.9634 38.8161 57.7707 38.6924C57.5782 38.5686 57.3845 38.497 57.1826 38.4386C56.7788 38.3217 56.3372 38.264 55.8949 38.213C55.4526 38.162 55.0123 38.1213 54.669 38.068C54.4114 38.028 54.1979 37.9498 54.1359 37.9337C54.1078 37.884 53.9711 37.7016 53.8579 37.4597C53.7103 37.1452 53.5473 36.7351 53.3745 36.325C53.2017 35.915 53.0224 35.506 52.7971 35.1515C52.6843 34.9742 52.5604 34.8075 52.3876 34.6573C52.2145 34.5071 51.9648 34.3613 51.6547 34.3566Z" fill="#FF8174"/>
<path d="M37.0163 26.6768C36.6626 26.676 36.3648 26.838 36.1475 27.0205C35.9303 27.2031 35.7652 27.4174 35.6091 27.6543C35.2969 28.1281 35.0311 28.7007 34.7752 29.2804C34.5195 29.8602 34.2755 30.4459 34.0501 30.9066C33.8248 31.3672 33.5603 31.6996 33.5559 31.7028C33.5507 31.706 33.1533 31.8543 32.6455 31.9244C32.1377 31.9945 31.5034 32.0426 30.873 32.1044C30.2426 32.1661 29.6185 32.2379 29.071 32.3863C28.7973 32.4606 28.5402 32.5525 28.2989 32.7019C28.0578 32.8512 27.8126 33.0813 27.7027 33.4176C27.5928 33.7539 27.6538 34.0863 27.7604 34.3495C27.8669 34.6127 28.0197 34.8381 28.1968 35.0598C28.5507 35.5034 29.0125 35.9304 29.4845 36.353C29.9566 36.7755 30.4389 37.1899 30.8072 37.5467C31.1754 37.9035 31.4084 38.2586 31.4101 38.2637C31.4118 38.2689 31.4309 38.6935 31.3402 39.1983C31.2498 39.7032 31.0991 40.3197 30.9629 40.9386C30.8267 41.5575 30.7022 42.1752 30.6742 42.742C30.6612 43.0254 30.6664 43.2988 30.7344 43.5745C30.802 43.8502 30.9467 44.1555 31.2326 44.3641C31.5183 44.5726 31.8533 44.6163 32.1363 44.5964C32.4193 44.5764 32.6806 44.5002 32.9461 44.4003C33.477 44.2006 34.0259 43.8931 34.5735 43.5745C35.1211 43.2559 35.6621 42.9257 36.1151 42.6856C36.568 42.4454 36.9784 42.3324 36.9838 42.3324C36.989 42.3324 37.3979 42.4463 37.85 42.6883C38.3019 42.9302 38.8438 43.2631 39.3901 43.5839C39.9364 43.9047 40.4847 44.2146 41.0149 44.4164C41.28 44.5173 41.5403 44.5941 41.8232 44.6152C42.1062 44.6362 42.4404 44.5944 42.727 44.3869C43.0135 44.1795 43.1593 43.8741 43.2278 43.5987C43.2964 43.3232 43.3037 43.0509 43.291 42.7675C43.265 42.2006 43.1452 41.5836 43.0117 40.9641C42.8778 40.3446 42.7293 39.7264 42.6411 39.2211C42.5527 38.7159 42.5722 38.2917 42.574 38.2866C42.5755 38.2814 42.8113 37.9262 43.181 37.5709C43.5506 37.2155 44.0339 36.8045 44.5076 36.3838C44.9813 35.9631 45.4451 35.5382 45.8008 35.0961C45.9788 34.8751 46.1324 34.6498 46.2398 34.3871C46.3474 34.1244 46.4101 33.7919 46.3017 33.4552C46.1931 33.1184 45.9488 32.8858 45.7082 32.7355C45.4676 32.5851 45.2122 32.4939 44.9388 32.4186C44.3919 32.2679 43.7669 32.1928 43.1367 32.1285C42.5066 32.0642 41.8731 32.014 41.3656 31.9419C40.858 31.8697 40.4596 31.7195 40.4552 31.7163C40.45 31.7132 40.1859 31.3802 39.9624 30.9187C39.7389 30.4571 39.4989 29.8693 39.2453 29.2885C38.992 28.7077 38.7298 28.1361 38.4195 27.661C38.2644 27.4235 38.0989 27.2066 37.8824 27.0232C37.6659 26.8398 37.37 26.6775 37.0163 26.6768Z" fill="#FF5948"/>
</g>
<defs>
<clipPath id="clip0_555_5896">
<rect x="0.855469" y="0.709961" width="72" height="72" rx="36" fill="white"/>
</clipPath>
</defs>
</svg>
