<svg width="60" height="60" viewBox="0 0 60 60" fill="none" xmlns="http://www.w3.org/2000/svg">
<g clip-path="url(#clip0_796_2369)">
<rect width="66.4032" height="66.4032" transform="translate(-3.61328 -3.68945)" fill="#EAF5FE"/>
<path d="M21.6465 20.8878C21.6465 20.2236 22.1839 19.6802 22.854 19.6802H37.1453C37.8155 19.6802 38.3529 20.2236 38.3529 20.8878V23.2365H39.7597V18.7504C39.7597 18.3882 39.4639 18.0923 39.1016 18.0923H28.5778C27.8593 18.0923 27.2133 17.6938 26.8872 17.0598L26.3136 15.9368C26.1929 15.7074 25.9574 15.5625 25.6978 15.5625H20.9219C20.5537 15.5625 20.2578 15.8583 20.2578 16.2206V23.2365H21.6465V20.8878Z" fill="#0085F2"/>
<path d="M22.8535 20.8877H37.1448V23.2364H22.8535V20.8877Z" fill="#0085F2"/>
<path d="M40.7679 24.4443H19.2313C18.8261 24.4443 18.4836 24.8032 18.5491 25.2353L20.1129 35.8134C20.1611 36.1575 20.451 36.4111 20.7951 36.4111H22.8238V31.7439C22.8238 30.7719 23.5906 29.9749 24.5747 29.9387C26.4344 29.8481 27.8532 29.4255 28.8857 28.6405C29.2238 28.393 29.6042 28.2662 30.0026 28.2662C30.3951 28.2662 30.7755 28.393 31.1015 28.6285C32.1461 29.4255 33.5649 29.8481 35.4427 29.9447C36.4027 29.9749 37.1695 30.7719 37.1695 31.7439V36.4111H39.2042C39.5423 36.4111 39.8381 36.1575 39.8865 35.8194L41.4502 25.2353C41.5149 24.8084 41.1791 24.4443 40.7679 24.4443Z" fill="#0085F2"/>
<path d="M35.3822 31.148C33.432 31.0514 31.7173 30.6107 30.3829 29.6024C30.1535 29.4333 29.8456 29.4333 29.6162 29.6024C28.2818 30.6107 26.5671 31.0514 24.6169 31.148C24.2909 31.1601 24.0312 31.4258 24.0312 31.7458V36.5518C24.0312 38.7012 24.8826 40.7963 26.4705 42.2514C27.829 43.5012 29.2297 44.1654 29.7671 44.3888C29.918 44.4552 30.081 44.4552 30.232 44.3888C30.7513 44.1714 32.0614 43.5556 33.3777 42.3903C33.3897 42.3842 33.3958 42.3661 33.4078 42.3601C35.0622 40.905 35.9618 38.7556 35.9618 36.5458V31.7458C35.9618 31.4258 35.7082 31.1601 35.3822 31.148ZM30.9484 36.8631C30.8243 36.9665 30.7622 37.1216 30.7829 37.2819C30.8501 37.7266 30.9794 38.6057 31.0621 39.1693C31.1035 39.4485 30.8863 39.6967 30.6019 39.6967H29.3971C29.1127 39.6967 28.8955 39.4485 28.9368 39.1641L29.2109 37.2819C29.2368 37.1268 29.1799 36.9665 29.0558 36.8682C28.7197 36.5941 28.5077 36.1753 28.5077 35.7099C28.5077 34.7274 29.4643 33.957 30.483 34.2931C30.9225 34.4379 31.2741 34.7947 31.4138 35.229C31.6206 35.8754 31.3931 36.4959 30.9484 36.8631Z" fill="#0085F2"/>
</g>
<defs>
<clipPath id="clip0_796_2369">
<rect x="0.078125" width="59.0251" height="59.025" rx="29.5125" fill="white"/>
</clipPath>
</defs>
</svg>
