<svg width="416" height="454" viewBox="0 0 416 454" fill="none" xmlns="http://www.w3.org/2000/svg">
<path d="M347.526 436.884L336.111 436.704L336.824 410.171L348.239 410.349L347.526 436.884Z" fill="#FF8B7B"/>
<path d="M335.975 435.377L348.446 435.573C348.913 435.58 349.28 435.91 349.328 436.369L350.414 446.571C350.527 447.629 349.613 448.615 348.537 448.579C344.047 448.432 337.577 448.066 331.924 447.976C325.313 447.872 325.955 448.145 318.203 448.022C313.515 447.948 312.759 443.181 314.771 442.782C323.93 440.965 324.854 440.87 333.122 436.224C334.02 435.719 334.989 435.362 335.975 435.377Z" fill="#263238"/>
<path d="M333.173 95.6662C331.606 99.7348 329.897 103.409 328.13 107.215C326.336 110.973 324.448 114.691 322.403 118.349C318.307 125.668 313.802 132.839 308.116 139.623L307.525 140.331C307.201 140.69 306.915 141.028 306.541 141.384C305.813 142.087 304.994 142.788 303.958 143.413C302.969 144.045 301.74 144.566 300.485 144.911C299.212 145.226 297.867 145.373 296.651 145.279C294.152 145.132 292.251 144.331 290.72 143.527C289.191 142.699 288.004 141.79 286.958 140.885C284.886 139.073 283.334 137.221 281.955 135.363C280.574 133.506 279.362 131.652 278.244 129.781C273.839 122.265 270.675 114.677 268.027 106.659L275.874 103.165C277.932 106.438 280.052 109.847 282.265 113.058C284.456 116.296 286.692 119.468 289.043 122.374C290.207 123.829 291.391 125.225 292.6 126.465C293.801 127.702 295.035 128.801 296.094 129.535C296.617 129.894 297.1 130.139 297.375 130.214C297.645 130.296 297.695 130.192 297.221 130.095C296.777 129.993 295.957 130.204 295.65 130.377C295.476 130.477 295.413 130.498 295.399 130.491C295.389 130.498 295.409 130.431 295.423 130.415L295.759 129.928C297.883 126.975 299.831 123.72 301.763 120.453C303.657 117.144 305.46 113.725 307.228 110.277C308.968 106.809 310.668 103.297 312.322 99.7604C313.989 96.2662 315.591 92.5766 317.091 89.1835L333.173 95.6662Z" fill="#FF8B7B"/>
<path d="M337.644 88.8509C341.127 99.3437 320.499 127.948 320.499 127.948L298.072 113.861C298.072 113.861 303.954 99.2653 312.267 88.1369C320.804 76.7106 333.822 77.3363 337.644 88.8509Z" fill="#263238"/>
<path opacity="0.2" d="M324.767 101.17C320.337 103.094 312.688 117.96 313.682 123.672L320.495 127.947C320.495 127.947 328.443 116.931 333.631 106.058C330.575 102.837 327.109 100.158 324.767 101.17Z" fill="black"/>
<path d="M276.672 106.243L274.551 93.3095L262.242 97.5676C262.242 97.5676 262.55 107.738 270.815 109.608L276.672 106.243Z" fill="#FF8B7B"/>
<path d="M266.204 84.5936L261.504 88.4812C260.721 89.1282 260.379 90.1671 260.626 91.1532L262.23 97.5675L274.539 93.3094L270.198 85.3617C269.404 83.9067 267.48 83.5376 266.204 84.5936Z" fill="#FF8B7B"/>
<path opacity="0.2" d="M336.826 410.175L336.457 423.851L347.876 424.031L348.245 410.354L336.826 410.175Z" fill="black"/>
<path d="M388.46 84.2121C377.786 127.663 382.018 173.782 381.26 183.115C381.26 183.115 320.073 182.129 320.073 182.123C314.461 115.011 324.351 80.0238 324.351 80.0238C324.351 80.0238 328.246 79.2614 333.56 78.7142C335.227 78.5432 337.026 78.3921 338.901 78.2938C339.937 78.231 340.99 78.1983 342.059 78.1769C348.958 78.0643 360.272 79.1602 368.074 80.1093C369.707 80.3117 371.373 80.5554 372.983 80.8176C374.478 81.0712 375.946 81.3406 377.33 81.6156C383.601 82.8583 388.46 84.2121 388.46 84.2121Z" fill="#263238"/>
<path opacity="0.2" d="M376.145 102.859C375.208 107.063 377.188 126.245 381.757 130.976C382.123 124.834 382.678 118.421 383.484 111.866L376.145 102.859Z" fill="black"/>
<path d="M366.554 50.7109C364.609 58.935 362.413 74.1035 368.064 80.1059C363.352 84.2771 357.215 89.0454 347.266 88.655C337.316 88.2645 339.301 81.5794 342.055 78.1764C351.468 76.6458 351.479 69.7242 350.091 63.119L366.554 50.7109Z" fill="#FF8B7B"/>
<path d="M367.525 79.003C366.457 80.5179 361.961 85.0525 345.062 88.4413C347.529 90.2056 350.083 94.448 351.398 96.8436C351.943 97.8354 353.137 98.28 354.157 97.8696C359.013 95.9144 371.677 89.8892 371.129 80.3911C371.11 80.079 370.928 79.7783 370.651 79.6215C369.892 79.1926 369.072 78.8819 368.514 78.6952C368.142 78.5698 367.745 78.691 367.525 79.003Z" fill="white"/>
<path d="M337.762 94.3961C339.264 92.478 341.898 89.6364 345.067 88.4365C343.037 86.8062 341.089 82.3357 342.122 78.5593C342.29 77.9436 341.78 77.3223 341.14 77.3807C340.489 77.4391 339.832 77.5802 339.52 77.6529C339.394 77.6828 339.284 77.7341 339.183 77.8111C337.906 78.793 329.092 86.0195 334.684 94.2194C335.42 95.3011 336.986 95.3894 337.762 94.3961Z" fill="white"/>
<path opacity="0.2" d="M359.835 55.7753L350.092 63.1145C350.425 64.6778 350.672 66.2568 350.726 67.7773C354.31 67.5279 359.351 63.9895 359.864 60.2943C360.119 58.4516 360.106 56.6617 359.835 55.7753Z" fill="black"/>
<path d="M339.926 46.8652C335.124 45.8662 334.622 32.1983 336.865 28.8137C333.746 28.8536 328.876 24.9347 327.768 21.3321C331.172 21.4504 336.08 19.5108 336.865 18.0729C333.508 16.464 328.362 11.6344 327.768 7.5573C336.294 11.7142 342.811 11.9907 345.779 11.6344C345.779 11.6344 342.929 8.86409 343.443 5.53796C349.658 8.86267 357.634 11.3565 366.245 11.0601C373.793 10.7993 377.708 16.9386 374.796 21.4518C381.623 21.2737 376.873 40.572 370.342 44.6691C364.167 47.934 353.05 49.597 339.926 46.8652Z" fill="#263238"/>
<path d="M369.331 38.2242C367.897 49.4723 367.631 56.1346 361.541 61.5085C352.381 69.5944 338.761 63.3811 336.8 51.9007C335.036 41.5674 337.675 24.9083 349.038 21.2345C360.233 17.6176 370.764 26.9761 369.331 38.2242Z" fill="#FF8B7B"/>
<path d="M366.121 22.5146C366.121 22.5146 359.056 25.2465 361.015 32.4303C362.975 39.6155 362.678 42.8219 361.668 44.9595C362.381 47.2154 368.259 48.2329 368.259 48.2329C368.259 48.2329 373.187 37.8014 373.899 31.94C374.612 26.0787 366.121 22.5146 366.121 22.5146Z" fill="#263238"/>
<path d="M371.715 20.8697C374.521 21.3813 378.652 16.7 379.003 12.8964C379.003 12.8964 380.751 26.6826 371.715 20.8697Z" fill="#263238"/>
<path d="M370.91 19.8236C372.328 25.9072 357.524 29.0552 338.285 28.5793C338.285 28.5793 338.167 21.2159 343.986 18.3073C349.804 15.3973 369.068 11.9258 370.91 19.8236Z" fill="#263238"/>
<path d="M373.951 49.6893C372.357 52.2872 369.703 53.8961 367.248 54.4277C363.554 55.2271 361.898 51.8668 363.084 48.4965C364.151 45.4625 367.36 41.3911 370.99 42.1036C374.567 42.8062 375.774 46.7194 373.951 49.6893Z" fill="#FF8B7B"/>
<path d="M355.545 295.665C355.083 238.139 367.816 182.894 367.816 182.894L320.113 182.126C320.113 182.126 325.598 265.209 327.507 300.008C329.485 336.192 332.261 421.138 332.261 421.138L351.627 421.433C351.625 421.433 358.223 341.062 355.545 295.665Z" fill="#407BFF"/>
<path opacity="0.2" d="M357.427 214.551C343.832 233.162 349.945 268.176 355.517 292.916C355.503 262.163 359.137 232.307 362.458 211.473L357.427 214.551Z" fill="black"/>
<path d="M331.072 421.555L354.094 421.917L355.394 414.46L329.729 413.663L331.072 421.555Z" fill="#263238"/>
<path d="M354.282 40.1115C354.222 41.0321 353.685 41.7403 353.084 41.6961C352.482 41.652 352.043 40.8696 352.103 39.949C352.163 39.0284 352.7 38.3187 353.302 38.3643C353.903 38.4085 354.342 39.1909 354.282 40.1115Z" fill="#263238"/>
<path d="M341.557 39.3332C341.498 40.2538 340.96 40.9634 340.359 40.9178C339.758 40.8722 339.319 40.0913 339.379 39.1707C339.438 38.2501 339.976 37.5404 340.577 37.586C341.178 37.6302 341.617 38.4126 341.557 39.3332Z" fill="#263238"/>
<path d="M344.842 40.041C344.842 40.041 342.401 45.1926 339.93 47.5824C341.459 49.2227 344.275 48.7339 344.275 48.7339L344.842 40.041Z" fill="#FF5652"/>
<path d="M348.006 51.4842C351.539 51.2733 353.323 48.9632 353.404 48.8549C353.494 48.7366 353.47 48.567 353.35 48.4758C353.23 48.3846 353.061 48.4074 352.971 48.5257C352.951 48.5528 350.867 51.2334 346.837 50.9327C346.688 50.9227 346.559 51.0339 346.549 51.1835C346.539 51.3331 346.653 51.4628 346.802 51.4742C347.225 51.5055 347.625 51.507 348.006 51.4842Z" fill="#263238"/>
<path d="M356.172 35.3395C356.261 35.3338 356.351 35.3067 356.433 35.254C356.682 35.0915 356.752 34.7566 356.586 34.5044C354.938 31.9863 352.435 31.9464 352.33 31.9464C352.03 31.9449 351.79 32.1872 351.791 32.4865C351.792 32.7843 352.035 33.028 352.333 33.0308C352.415 33.0323 354.366 33.0836 355.681 35.0929C355.793 35.2625 355.982 35.3509 356.172 35.3395Z" fill="#263238"/>
<path d="M337.389 34.6698C337.564 34.6797 337.739 34.6028 337.851 34.4517C339.261 32.5321 341.211 32.6105 341.294 32.6162C341.591 32.6319 341.845 32.4039 341.859 32.106C341.874 31.8082 341.646 31.5531 341.349 31.5346C341.241 31.5303 338.744 31.4006 336.976 33.8047C336.799 34.0456 336.852 34.3847 337.094 34.5629C337.182 34.6284 337.285 34.6641 337.389 34.6698Z" fill="#263238"/>
<path d="M333.902 436.383C333.998 436.352 334.069 436.269 334.086 436.168C334.105 436.054 334.048 435.941 333.947 435.887C333.432 435.611 328.872 433.208 327.47 433.961C327.199 434.106 327.041 434.353 327.011 434.675C326.961 435.213 327.125 435.659 327.497 436C328.732 437.13 332.018 436.731 333.867 436.393C333.88 436.39 333.891 436.388 333.902 436.383ZM327.824 434.395C328.692 434.11 331.169 435.099 332.969 435.993C330.437 436.373 328.557 436.234 327.863 435.599C327.619 435.377 327.517 435.089 327.551 434.723C327.564 434.582 327.616 434.496 327.726 434.437C327.756 434.421 327.789 434.407 327.824 434.395Z" fill="#407BFF"/>
<path d="M333.902 436.389C333.926 436.38 333.95 436.369 333.972 436.354C334.051 436.299 334.096 436.206 334.087 436.111C334.077 435.98 333.819 432.894 332.384 431.677C331.947 431.305 331.444 431.141 330.889 431.19C330.143 431.254 329.922 431.627 329.867 431.931C329.637 433.221 332.331 435.737 333.701 436.379C333.766 436.406 333.838 436.41 333.902 436.389ZM330.658 431.78C330.73 431.757 330.819 431.739 330.936 431.729C331.347 431.693 331.706 431.811 332.034 432.091C332.977 432.89 333.353 434.74 333.486 435.64C332.091 434.773 330.264 432.799 330.402 432.025C330.41 431.977 330.433 431.854 330.658 431.78Z" fill="#407BFF"/>
<path d="M411.663 436.884L400.218 436.704L396.441 410.171L407.886 410.349L411.663 436.884Z" fill="#FF8B7B"/>
<path d="M399.651 435.376L412.122 435.571C412.589 435.578 412.955 435.909 413.004 436.368L414.09 446.57C414.202 447.627 413.289 448.613 412.213 448.578C407.722 448.431 406.31 448.065 400.657 447.975C394.046 447.871 397.097 448.143 389.343 448.021C384.655 447.947 383.905 443.201 385.912 442.781C392.265 441.45 393.932 438.922 396.796 436.222C397.547 435.517 398.665 435.36 399.651 435.376Z" fill="#263238"/>
<path opacity="0.2" d="M396.455 410.175L398.399 423.851L409.848 424.031L407.904 410.354L396.455 410.175Z" fill="black"/>
<path d="M395.411 294.236C388.919 242.822 388.963 194.608 381.255 183.124L340.822 182.472C340.822 182.472 361.563 263.757 369.455 298.004C377.656 333.614 393.229 417.762 393.229 417.762L411.673 418.024C411.673 418.024 407.522 334.01 395.411 294.236Z" fill="#407BFF"/>
<path d="M390.693 421.555L413.716 421.917L415.015 414.46L389.35 413.663L390.693 421.555Z" fill="#263238"/>
<path d="M401.904 436.252C402.004 436.254 402.101 436.202 402.149 436.112C402.205 436.011 402.192 435.887 402.115 435.8C401.726 435.364 398.269 431.54 396.694 431.765C396.391 431.81 396.155 431.986 396.017 432.278C395.785 432.767 395.786 433.243 396.019 433.691C396.791 435.177 400.015 435.929 401.866 436.247C401.879 436.25 401.891 436.252 401.904 436.252ZM396.878 432.298C397.79 432.328 399.777 434.108 401.16 435.565C398.652 435.052 396.934 434.276 396.499 433.441C396.346 433.148 396.349 432.844 396.506 432.511C396.567 432.382 396.646 432.32 396.77 432.303C396.805 432.298 396.841 432.297 396.878 432.298Z" fill="#407BFF"/>
<path d="M401.911 436.249C401.937 436.25 401.963 436.247 401.988 436.24C402.082 436.216 402.155 436.143 402.181 436.05C402.216 435.924 403.033 432.938 402.104 431.302C401.82 430.803 401.404 430.476 400.868 430.33C400.146 430.134 399.809 430.41 399.654 430.675C398.994 431.808 400.661 435.096 401.727 436.169C401.777 436.219 401.843 436.247 401.911 436.249ZM400.446 430.806C400.52 430.809 400.612 430.822 400.724 430.853C401.122 430.961 401.418 431.195 401.632 431.57C402.243 432.646 401.963 434.511 401.776 435.403C400.764 434.109 399.725 431.628 400.121 430.949C400.147 430.906 400.21 430.799 400.446 430.806Z" fill="#407BFF"/>
<path d="M391.621 90.9658C395.597 98.0854 399.184 105.195 402.64 112.502C406.03 119.828 409.261 127.233 412.085 134.982C412.784 136.922 413.463 138.88 414.098 140.886L414.598 142.44C414.841 143.253 415.04 144.081 415.171 144.912C415.436 146.572 415.483 148.227 415.325 149.779C415.011 152.898 414.062 155.579 412.942 157.904C411.822 160.242 410.447 162.234 409.03 164.071C406.183 167.729 402.991 170.7 399.67 173.371C398.016 174.713 396.3 175.944 394.547 177.109C392.78 178.292 391.077 179.366 389.099 180.432L384.108 173.442C385.331 172.169 386.718 170.757 387.972 169.376C389.24 167.974 390.461 166.543 391.65 165.122C394.003 162.267 396.143 159.317 397.763 156.421C399.365 153.554 400.356 150.592 400.155 148.878C400.113 148.453 400.052 148.114 399.945 147.828C399.897 147.684 399.831 147.554 399.767 147.426L399.26 146.183C398.574 144.452 397.827 142.713 397.057 140.972C394.011 133.995 390.558 127.012 387.07 120.059C383.578 113.117 379.966 106.1 376.404 99.2739L391.621 90.9658Z" fill="#FF8B7B"/>
<path d="M388.452 84.2131C399.012 87.4822 407.758 115.063 407.758 115.063L384.764 127.947C384.764 127.947 378.41 116.337 373.411 102.936C367.965 88.3372 375.659 80.2542 388.452 84.2131Z" fill="#263238"/>
<path d="M387.508 171.695L376.697 175.831L385.092 186.887C385.092 186.887 394.427 181.953 392.607 176.57L387.508 171.695Z" fill="#FF8B7B"/>
<path d="M371.71 186.768L375.305 190.147C376.736 191.493 378.932 191.602 380.491 190.408L385.093 186.884L376.698 175.828L371.592 181.037C370.018 182.643 370.071 185.229 371.71 186.768Z" fill="#FF8B7B"/>
<path d="M140.107 0H124.107V1.84601H140.107V0Z" fill="#407BFF"/>
<path d="M105.953 0H70.2637V1.84601H105.953V0Z" fill="#407BFF"/>
<path d="M264.508 454H52.2542C39.6201 454 28.5736 443.664 27.7041 431.03L0.0545709 29.4309C-0.814899 16.7987 8.81019 6.46103 21.4424 6.46103H233.695C246.327 6.46103 257.375 16.7968 258.245 29.4309L285.894 431.03C286.766 443.664 277.14 454 264.508 454Z" fill="white"/>
<path d="M233.697 8.30704C245.411 8.30704 255.599 17.8398 256.406 29.5564L284.056 431.156C284.441 436.76 282.61 442.036 278.9 446.01C275.202 449.97 270.092 452.152 264.51 452.152H52.2542C40.5394 452.152 30.3513 442.619 29.5446 430.903L1.89504 29.3035C1.50923 23.699 3.34047 18.4232 7.05095 14.4487C10.7485 10.4872 15.8583 8.30704 21.4406 8.30704H233.697ZM233.697 6.46103H21.4424C8.81019 6.46103 -0.814899 16.7968 0.0545709 29.4309L27.7041 431.03C28.5736 443.664 39.6219 454 52.2542 454H264.506C277.139 454 286.764 443.664 285.894 431.03L258.245 29.4309C257.377 16.7987 246.329 6.46103 233.697 6.46103Z" fill="#407BFF"/>
<path d="M273.325 454H61.0725C48.4385 454 37.3919 443.664 36.5224 431.03L8.87293 29.4308C8.00346 16.7986 17.6285 6.46094 30.2608 6.46094H242.513C255.147 6.46094 266.194 16.7967 267.063 29.4308L294.713 431.03C295.582 443.664 285.959 454 273.325 454Z" fill="#407BFF"/>
<path d="M199.469 196.427H104.669C100.294 196.427 96.4042 193.11 95.6731 188.757L85.4647 127.948C84.6248 122.941 88.2577 118.6 93.2881 118.6H200.13C205.16 118.6 209.391 122.941 209.241 127.948L207.407 188.757C207.277 193.11 203.844 196.427 199.469 196.427Z" fill="white"/>
<path d="M199.467 199.196H104.667C98.9372 199.196 93.8957 194.906 92.9395 189.215L82.7311 128.407C82.1939 125.201 83.0504 121.983 85.0847 119.578C87.0987 117.198 90.0874 115.834 93.2866 115.834H200.128C203.279 115.834 206.377 117.165 208.631 119.487C210.872 121.797 212.103 124.911 212.009 128.034L210.174 188.844C209.999 194.647 205.297 199.196 199.467 199.196ZM93.2884 121.368C91.699 121.368 90.2886 122.003 89.3139 123.153C88.3189 124.329 87.922 125.869 88.1953 127.49L98.4037 188.297C98.9077 191.303 101.66 193.656 104.669 193.656H199.469C202.332 193.656 204.555 191.513 204.64 188.672L206.475 127.864C206.524 126.229 205.862 124.582 204.658 123.34C203.443 122.088 201.793 121.37 200.132 121.37L93.2884 121.368Z" fill="white"/>
<path d="M207.407 191.524C207.377 191.524 207.35 191.524 207.322 191.522C205.794 191.478 204.592 190.201 204.638 188.672L207.427 96.2074C207.459 95.1921 208.04 94.2764 208.947 93.8186C209.851 93.3627 210.937 93.4347 211.771 94.0125L228.418 105.53C229.675 106.401 229.991 108.123 229.12 109.382C228.25 110.639 226.524 110.955 225.267 110.084L212.808 101.465L210.172 188.836C210.128 190.339 208.897 191.524 207.407 191.524Z" fill="white"/>
<path d="M138.955 235.967C144.772 229.946 144.258 220.012 137.807 213.78C131.356 207.548 121.41 207.377 115.593 213.398C109.776 219.419 110.29 229.353 116.741 235.585C123.192 241.817 133.138 241.988 138.955 235.967Z" fill="white"/>
<path d="M128.353 241.607C119.081 241.607 111.016 234.063 110.377 224.792C110.065 220.256 111.544 215.988 114.543 212.776C117.534 209.575 121.671 207.809 126.193 207.809C135.466 207.809 143.531 215.353 144.168 224.624C144.48 229.16 143.001 233.427 140.002 236.64C137.013 239.842 132.876 241.607 128.353 241.607ZM126.193 210.225C122.348 210.225 118.837 211.717 116.308 214.423C113.772 217.142 112.52 220.766 112.786 224.624C113.34 232.658 120.321 239.191 128.353 239.191C132.2 239.191 135.71 237.699 138.237 234.993C140.773 232.274 142.025 228.654 141.759 224.792C141.207 216.758 134.224 210.225 126.193 210.225Z" fill="white"/>
<path d="M190.759 235.964C196.576 229.943 196.062 220.009 189.611 213.777C183.16 207.545 173.215 207.374 167.398 213.395C161.581 219.417 162.095 229.35 168.546 235.582C174.997 241.814 184.942 241.985 190.759 235.964Z" fill="white"/>
<path d="M180.16 241.606C170.888 241.606 162.822 234.062 162.185 224.791C161.874 220.255 163.352 215.987 166.352 212.775C169.341 209.574 173.478 207.808 178 207.808C187.273 207.808 195.338 215.352 195.977 224.623C196.289 229.159 194.81 233.427 191.81 236.639C188.82 239.841 184.683 241.606 180.16 241.606ZM178 210.224C174.153 210.224 170.644 211.716 168.117 214.422C165.58 217.141 164.329 220.763 164.595 224.623C165.148 232.657 172.132 239.19 180.162 239.19C184.007 239.19 187.518 237.698 190.047 234.992C192.584 232.273 193.835 228.649 193.569 224.791C193.014 216.757 186.032 210.224 178 210.224Z" fill="white"/>
<path d="M173.2 123.523C187.603 108.614 186.332 84.0197 170.361 68.5901C154.389 53.1605 129.766 52.7385 115.362 67.6474C100.959 82.5564 102.231 107.151 118.202 122.58C134.174 138.01 158.797 138.432 173.2 123.523Z" fill="#407BFF"/>
<path d="M146.427 128.201C128.506 128.201 112.924 113.625 111.69 95.7042C111.089 86.9652 113.937 78.7468 119.709 72.5627C125.463 66.4007 133.431 63.0059 142.142 63.0059C160.063 63.0059 175.645 77.582 176.879 95.503C177.48 104.242 174.632 112.46 168.859 118.645C163.105 124.807 155.138 128.201 146.427 128.201ZM142.142 65.9632C134.258 65.9632 127.06 69.0238 121.871 74.5822C116.664 80.159 114.098 87.5892 114.64 95.503C115.77 111.903 130.029 125.244 146.427 125.244C154.309 125.244 161.509 122.183 166.698 116.625C171.905 111.048 174.471 103.618 173.929 95.7042C172.799 79.3043 158.538 65.9632 142.142 65.9632Z" fill="white"/>
<path d="M122.584 94.0819C122.584 94.0819 136.184 101.427 142.537 110.888C145.975 103.504 151.206 93.2328 165.373 81.6934C147.404 89.3045 141.884 101.418 141.884 101.418C141.884 101.418 134.522 95.3261 122.584 94.0819Z" fill="white"/>
<path d="M166.36 442.229C158.612 442.229 151.875 435.927 151.343 428.181C151.083 424.408 152.312 420.86 154.802 418.192C157.285 415.534 160.724 414.068 164.486 414.068C172.234 414.068 178.972 420.371 179.504 428.116C179.764 431.89 178.535 435.438 176.044 438.105C173.56 440.763 170.12 442.229 166.36 442.229ZM164.485 414.99C160.983 414.99 157.782 416.35 155.476 418.82C153.163 421.299 152.022 424.602 152.264 428.115C152.764 435.388 159.089 441.304 166.36 441.304C169.862 441.304 173.061 439.944 175.369 437.472C177.684 434.993 178.824 431.692 178.583 428.179C178.08 420.906 171.758 414.99 164.485 414.99Z" fill="white"/>
<path d="M181.685 295.667L162.747 300.62L121.799 337.376L162.577 371.351L197.153 340.217C202.292 335.546 205.246 328.921 205.381 321.762L220.176 313.772C226.266 310.485 227.507 302.283 222.766 296.647L211.592 283.361C207.029 277.936 199.003 277.393 194.449 282.2L181.685 295.667Z" fill="#407BFF"/>
<path d="M162.595 372.384L120.605 337.399L162.547 299.867L181.271 294.972L193.877 281.666C196.124 279.295 199.216 278.035 202.594 278.145C206.26 278.254 209.755 279.973 212.184 282.864L223.36 296.15C225.88 299.146 226.924 302.974 226.225 306.653C225.586 310.009 223.515 312.856 220.545 314.46L206.146 322.235C205.895 329.476 202.897 336.051 197.676 340.795L162.595 372.384ZM122.989 337.354L162.556 370.32L196.631 339.638C201.638 335.087 204.47 328.735 204.601 321.75L204.608 321.296L219.804 313.09C222.398 311.687 224.135 309.299 224.694 306.36C225.307 303.144 224.386 299.786 222.167 297.15L210.992 283.864C208.848 281.315 205.771 279.798 202.548 279.702C199.653 279.583 196.945 280.691 195.009 282.735L182.096 296.365L163.123 301.328L122.989 337.354Z" fill="white"/>
<path d="M202.441 339.264L200.062 337.376L161.779 306.793C156.694 302.73 150.831 299.806 144.626 298.24L134.431 295.667L119.816 282.2C114.599 277.393 106.648 277.936 102.833 283.361L93.4863 296.647C89.5211 302.283 91.8913 310.485 98.4336 313.773L114.33 321.762C115.448 328.921 119.316 335.546 125.097 340.217L163.961 371.351L163.98 371.333L167.074 373.821C169.931 376.088 174.006 375.747 176.082 372.873C178.048 370.152 177.129 366.144 174.317 363.914L178.157 366.958C180.583 368.883 183.979 369.142 186.246 367.338C189.388 364.837 189.111 359.995 185.84 357.399L187.985 359.103C190.413 361.029 193.809 361.289 196.076 359.484C199.218 356.982 198.94 352.14 195.67 349.546L195.198 349.17C198.055 351.437 202.129 351.095 204.206 348.221C206.17 345.502 205.253 341.494 202.441 339.264Z" fill="white"/>
<path d="M184.557 313.761C184.557 313.761 178.862 318.456 169.552 319.346C169.552 319.346 161.777 319.41 157.668 323.556C152.187 329.085 141.118 332.325 138.477 326.608C137.144 323.721 147.136 317.228 152.368 306.758C156.038 299.411 167.808 296.813 181.684 295.667" fill="#407BFF"/>
<path d="M144.163 330.241C143.55 330.241 142.963 330.195 142.407 330.097C140.262 329.72 138.708 328.604 137.907 326.872C137.078 325.078 139.168 322.776 142.328 319.29C145.381 315.925 149.18 311.735 151.807 306.479C155.952 298.183 169.924 296.01 181.633 295.045L181.737 296.297C170.356 297.236 156.795 299.305 152.932 307.042C150.229 312.453 146.365 316.712 143.26 320.136C140.742 322.912 138.57 325.308 139.05 326.348C139.677 327.708 140.881 328.554 142.627 328.862C146.799 329.6 153.352 327.021 157.223 323.117C161.467 318.836 169.221 318.722 169.549 318.72C178.486 317.862 184.103 313.322 184.16 313.278L184.96 314.247C184.722 314.443 179.01 319.073 169.616 319.973C169.487 319.977 161.994 320.092 158.117 324.001C154.423 327.721 148.64 330.241 144.163 330.241Z" fill="white"/>
<path d="M128.284 349.173L134.45 343.683C137.209 341.226 137.006 336.754 134.018 334.163C131.524 331.999 127.931 331.916 125.628 333.965L119.462 339.455C116.702 341.912 116.905 346.383 119.894 348.975C122.388 351.139 125.982 351.223 128.284 349.173Z" fill="#407BFF"/>
<path d="M124.311 351.427C122.581 351.427 120.814 350.804 119.384 349.563C117.715 348.116 116.751 346.059 116.736 343.92C116.724 341.943 117.508 340.148 118.944 338.871L125.108 333.381C127.694 331.075 131.746 331.158 134.526 333.571C136.195 335.016 137.159 337.071 137.174 339.212C137.187 341.188 136.404 342.982 134.968 344.261L128.802 349.753C127.545 350.874 125.944 351.427 124.311 351.427ZM129.599 333.265C128.337 333.265 127.107 333.689 126.144 334.548L119.98 340.038C118.883 341.012 118.285 342.389 118.295 343.912C118.306 345.603 119.074 347.235 120.405 348.387C122.598 350.29 125.762 350.375 127.766 348.59L133.932 343.098C135.029 342.122 135.627 340.746 135.617 339.224C135.606 337.533 134.837 335.903 133.507 334.751C132.367 333.761 130.964 333.265 129.599 333.265Z" fill="white"/>
<path d="M136.682 359.263L144.135 352.627C146.76 350.289 146.725 346.092 144.057 343.435C141.585 340.974 137.746 340.744 135.313 342.909L127.86 349.546C125.101 352.003 125.304 356.474 128.292 359.065C130.786 361.231 134.379 361.314 136.682 359.263Z" fill="#407BFF"/>
<path d="M132.709 361.519C130.979 361.519 129.213 360.896 127.782 359.655C126.113 358.208 125.15 356.149 125.135 354.012C125.122 352.035 125.907 350.24 127.343 348.963L134.795 342.327C137.533 339.89 141.843 340.133 144.607 342.884C146.093 344.365 146.912 346.375 146.857 348.4C146.805 350.279 146.023 351.987 144.653 353.207L137.2 359.843C135.945 360.962 134.343 361.519 132.709 361.519ZM139.285 342.205C138.027 342.205 136.8 342.627 135.831 343.491L128.378 350.128C127.282 351.102 126.682 352.48 126.693 354.003C126.704 355.693 127.472 357.325 128.803 358.477C130.996 360.377 134.16 360.465 136.165 358.68L143.617 352.044C144.662 351.114 145.26 349.803 145.301 348.357C145.345 346.759 144.692 345.166 143.508 343.988C142.321 342.808 140.784 342.205 139.285 342.205Z" fill="white"/>
<path d="M147.596 367.119L153.762 361.629C156.522 359.172 156.319 354.701 153.33 352.109C150.836 349.945 147.244 349.862 144.94 351.911L138.774 357.401C136.015 359.858 136.218 364.33 139.206 366.921C141.7 369.085 145.294 369.168 147.596 367.119Z" fill="#407BFF"/>
<path d="M143.623 369.375C141.893 369.375 140.127 368.751 138.696 367.511C137.027 366.063 136.064 364.009 136.049 361.869C136.036 359.892 136.819 358.098 138.255 356.818L144.421 351.328C147.009 349.023 151.059 349.108 153.839 351.519C155.508 352.966 156.471 355.02 156.486 357.16C156.499 359.137 155.716 360.931 154.28 362.211L148.115 367.701C146.857 368.819 145.257 369.375 143.623 369.375ZM148.912 351.21C147.649 351.21 146.42 351.635 145.456 352.493L139.291 357.983C138.194 358.96 137.596 360.337 137.605 361.86C137.616 363.549 138.386 365.181 139.715 366.333C141.908 368.236 145.072 368.321 147.077 366.536L153.243 361.046C154.339 360.069 154.937 358.692 154.928 357.169C154.917 355.48 154.147 353.848 152.818 352.696C151.679 351.709 150.276 351.21 148.912 351.21Z" fill="white"/>
<path d="M159.798 373.825L166.177 368.054C168.987 365.514 168.64 360.897 165.452 358.394C162.971 356.446 159.569 356.456 157.366 358.416L150.974 364.109C148.214 366.566 148.417 371.037 151.406 373.629C153.901 375.791 157.494 375.876 159.798 373.825Z" fill="#407BFF"/>
<path d="M155.826 376.08C154.097 376.08 152.33 375.456 150.899 374.216C149.23 372.77 148.267 370.714 148.252 368.574C148.239 366.599 149.022 364.805 150.458 363.526L156.851 357.833C159.337 355.625 163.155 355.601 165.935 357.781C167.716 359.178 168.782 361.24 168.859 363.437C168.929 365.436 168.143 367.328 166.703 368.632L160.318 374.404C159.06 375.525 157.458 376.08 155.826 376.08ZM161.324 357.718C160.068 357.718 158.846 358.145 157.888 358.997L151.496 364.69C150.399 365.667 149.801 367.042 149.81 368.565C149.821 370.256 150.591 371.886 151.92 373.038C154.113 374.943 157.275 375.026 159.28 373.243L165.658 367.476C166.773 366.468 167.356 365.052 167.303 363.494C167.242 361.757 166.393 360.122 164.975 359.007C163.877 358.146 162.583 357.718 161.324 357.718Z" fill="white"/>
<g opacity="0.2">
<path d="M57.6104 403.677C51.0516 403.677 45.3492 398.342 44.897 391.785L20.8508 42.5149C20.3986 35.9561 25.368 30.6211 31.9269 30.6211H244.181C250.74 30.6211 256.44 35.9579 256.893 42.5149L280.939 391.785C281.391 398.344 276.423 403.677 269.864 403.677H57.6104Z" fill="white"/>
<path d="M269.864 404.139H57.6103C50.8133 404.139 44.9042 398.612 44.4372 391.817L20.391 42.5448C20.164 39.2386 21.2439 36.1263 23.4314 33.7818C25.6134 31.4429 28.6298 30.1562 31.9268 30.1562H244.181C250.976 30.1562 256.885 35.685 257.352 42.4802L281.398 391.752C281.625 395.059 280.545 398.171 278.358 400.515C276.176 402.852 273.159 404.139 269.864 404.139ZM31.9268 31.0793C28.8901 31.0793 26.1118 32.2626 24.1071 34.4113C22.0949 36.5675 21.1018 39.4343 21.3122 42.4802L45.3583 391.752C45.794 398.075 51.2896 403.216 57.6103 403.216H269.863C272.901 403.216 275.677 402.033 277.682 399.886C279.694 397.73 280.686 394.863 280.477 391.817L256.431 42.5448C255.995 36.2222 250.5 31.0793 244.181 31.0793H31.9268Z" fill="white"/>
</g>
</svg>
