<svg width="60" height="60" viewBox="0 0 60 60" fill="none" xmlns="http://www.w3.org/2000/svg">
<g clip-path="url(#clip0_608_13089)">
<rect width="66.4032" height="66.4032" transform="translate(-2.8125 -3.6377)" fill="#EAF5FE"/>
<path d="M33.5814 21.3659C33.3383 21.5838 33.1524 21.858 33.0397 22.1644C32.9271 22.4708 32.8912 22.8001 32.9352 23.1236C32.0297 23.5935 31.2736 24.3073 30.7523 25.1842C30.2311 26.0612 29.9654 27.0664 29.9854 28.0864C30.0028 29.3662 29.8071 30.64 29.4061 31.8555H40.4261C40.0249 30.64 39.8291 29.3662 39.8467 28.0864C39.8667 27.0649 39.6003 26.0581 39.0775 25.1802C38.5547 24.3023 37.7965 23.5884 36.8888 23.1194C36.9455 22.7144 36.8762 22.3018 36.6902 21.9377C36.5043 21.5735 36.2107 21.2754 35.8494 21.0838C35.4882 20.8923 35.0767 20.8166 34.6709 20.8671C34.2651 20.9175 33.8847 21.0917 33.5814 21.3659ZM35.9084 22.7735C35.2545 22.6261 34.576 22.6263 33.9221 22.7739C33.9409 22.5234 34.0536 22.2892 34.2378 22.1183C34.4219 21.9475 34.6638 21.8525 34.9151 21.8524C35.1663 21.8524 35.4082 21.9472 35.5924 22.118C35.7767 22.2889 35.8895 22.523 35.9084 22.7735ZM40.9595 34.6216C40.8282 34.8462 40.6401 35.0324 40.4141 35.1612C40.188 35.29 39.9321 35.357 39.6719 35.3555H30.1602C29.9 35.357 29.644 35.29 29.4179 35.1612C29.1919 35.0324 29.0038 34.8462 28.8726 34.6216C28.7378 34.3953 28.6651 34.1375 28.6618 33.8741C28.6584 33.6108 28.7246 33.3512 28.8535 33.1216C28.8982 33.0405 28.9442 32.9471 28.9899 32.8555H40.8425C40.8883 32.9471 40.9342 33.0405 40.979 33.1216C41.1078 33.3513 41.1737 33.6109 41.1703 33.8742C41.1669 34.1375 41.0942 34.3953 40.9595 34.6216ZM32.6279 36.3555H37.2041C37.0103 36.8012 36.6905 37.1806 36.284 37.447C35.8775 37.7135 35.4021 37.8555 34.916 37.8555C34.43 37.8555 33.9545 37.7135 33.548 37.447C33.1416 37.1806 32.8218 36.8012 32.6279 36.3555ZM34.916 39.8555H20.916V18.8555H34.916V19.8555C35.2569 19.8562 35.5951 19.9154 35.916 20.0305V16.3555C35.9149 15.958 35.7564 15.5771 35.4754 15.2961C35.1943 15.015 34.8135 14.8566 34.416 14.8555H21.416C21.0185 14.8566 20.6377 15.015 20.3566 15.2961C20.0756 15.5771 19.9172 15.958 19.916 16.3555V43.3555C19.9172 43.7529 20.0756 44.1338 20.3566 44.4148C20.6377 44.6959 21.0185 44.8543 21.416 44.8555H34.416C34.8135 44.8543 35.1943 44.6959 35.4754 44.4148C35.7564 44.1338 35.9149 43.7529 35.916 43.3555V38.708C35.5916 38.8055 35.2547 38.8552 34.916 38.8555V39.8555ZM29.416 42.8555H26.416C26.2834 42.8555 26.1562 42.8028 26.0625 42.709C25.9687 42.6153 25.916 42.4881 25.916 42.3555C25.916 42.2229 25.9687 42.0957 26.0625 42.0019C26.1562 41.9081 26.2834 41.8555 26.416 41.8555H29.416C29.5486 41.8555 29.6758 41.9081 29.7696 42.0019C29.8633 42.0957 29.916 42.2229 29.916 42.3555C29.916 42.4881 29.8633 42.6153 29.7696 42.709C29.6758 42.8028 29.5486 42.8555 29.416 42.8555Z" fill="#0085F2"/>
</g>
<defs>
<clipPath id="clip0_608_13089">
<rect x="0.876953" y="0.0507812" width="59.0251" height="59.025" rx="29.5125" fill="white"/>
</clipPath>
</defs>
</svg>
