<svg width="500" height="472" viewBox="0 0 500 472" fill="none" xmlns="http://www.w3.org/2000/svg">
<path d="M191.318 124.478V133.901C191.318 137.444 194.099 140.351 197.54 140.394L210.889 140.56C212.032 148.983 214.298 157.07 217.536 164.666L205.58 171.431C202.576 173.13 201.549 177.044 203.28 180.182L207.899 188.553C209.641 191.71 213.509 192.916 216.544 191.236L228.909 184.394C233.934 191.113 239.842 197.188 246.478 202.44L239.064 215.069C237.273 218.121 238.336 222.185 241.443 224.157L249.752 229.43C252.893 231.423 256.923 230.559 258.747 227.49L266.384 214.644C274.035 218.16 282.253 220.745 290.895 222.222V237.813C290.895 241.527 293.949 244.719 297.729 244.945L307.845 245.55C311.673 245.779 314.786 242.922 314.786 239.168V223.406C323.69 222.778 332.291 220.959 340.419 218.092L348.65 232.231C350.634 235.64 355.042 237.013 358.501 235.288L367.752 230.675C371.25 228.93 372.451 224.725 370.428 221.293L362.128 207.214C369.552 202.239 376.241 196.261 381.993 189.458L396.389 197.807C399.977 199.888 404.581 198.9 406.666 195.591L412.23 186.759C414.329 183.426 413.082 179.046 409.453 176.987L395.22 168.909C399.041 160.819 401.73 152.105 403.091 142.952L419.217 143.153C423.444 143.205 426.883 140.05 426.883 136.104V125.612C426.883 121.667 423.444 118.462 419.217 118.455L403.509 118.428C402.442 109.056 399.989 100.092 396.358 91.7297L409.453 84.4831C413.082 82.4747 414.328 78.1119 412.229 74.7502L406.666 65.8396C404.581 62.5002 399.976 61.4477 396.388 63.4777L383.733 70.6377C377.935 63.2888 371.089 56.8078 363.431 51.3938L370.428 39.6242C372.451 36.2207 371.25 31.9986 367.752 30.2044L358.501 25.4598C355.042 23.6858 350.634 24.9965 348.65 28.3773L341.897 39.8813C333.337 36.5959 324.232 34.4726 314.786 33.6855V20.9606C314.786 17.2066 311.673 14.3056 307.845 14.4801L297.729 14.9417C293.949 15.1142 290.894 18.2636 290.894 21.9768V34.5634C281.731 36.0125 273.044 38.7139 265.004 42.4585L258.747 31.8446C256.923 28.7496 252.893 27.8285 249.752 29.7772L241.443 34.9321C238.336 36.8601 237.273 40.9095 239.064 43.9864L245.307 54.7101C238.478 60.1996 232.449 66.5821 227.398 73.6608L216.544 67.5006C213.509 65.778 209.641 66.9284 207.899 70.061L203.28 78.3663C201.549 81.4798 202.576 85.4085 205.58 87.1503L216.57 93.5239C213.499 101.267 211.434 109.51 210.539 118.096L197.54 118.073C194.099 118.067 191.318 120.935 191.318 124.478ZM236.412 128.044C236.412 92.0717 265.619 62.1999 302.775 61.296C341.238 60.3603 373.426 90.623 373.426 128.92C373.426 167.217 341.238 197.068 302.775 195.641C265.619 194.262 236.412 164.017 236.412 128.044Z" fill="#BFC8D6"/>
<path d="M345.814 24.9657L355.072 24.6465L358.265 32.9467L345.814 24.9657Z" fill="#BFC8D6"/>
<path d="M254.012 28.7969L243.336 28.9033V36.778L254.012 28.7969Z" fill="#BFC8D6"/>
<path d="M213.329 66.7822L202.688 67.212L205.348 73.1711L213.329 66.7822Z" fill="#BFC8D6"/>
<path d="M196.621 118.186L185.873 119.037L189.385 124.251L196.621 118.186Z" fill="#BFC8D6"/>
<path d="M214.5 191.93L204.072 193.419L202.795 184.906L214.5 191.93Z" fill="#BFC8D6"/>
<path d="M254.404 230.345L245.04 232.048L244.295 225.131L254.404 230.345Z" fill="#BFC8D6"/>
<path d="M301.227 246.946L309.633 245.456L302.397 234.708L301.227 246.946Z" fill="#BFC8D6"/>
<path d="M346.77 237.901L356.56 235.879L349.004 226.728L346.77 237.901Z" fill="#BFC8D6"/>
<path d="M401.786 62.5293L391.57 62.8487L395.614 70.2977L401.786 62.5293Z" fill="#BFC8D6"/>
<path d="M422.114 142.66L412.75 144.044L413.495 136.382L422.114 142.66Z" fill="#BFC8D6"/>
<path d="M402.002 198.74L392.85 200.23L392.105 194.164L402.002 198.74Z" fill="#BFC8D6"/>
<path d="M180.766 125.374V134.873C180.766 138.445 183.57 141.376 187.039 141.419L200.498 141.587C201.651 150.079 203.936 158.231 207.201 165.889L195.145 172.709C192.117 174.423 191.081 178.368 192.827 181.532L197.484 189.971C199.24 193.154 203.14 194.369 206.201 192.676L218.668 185.778C223.735 192.552 229.691 198.676 236.382 203.97L228.908 216.703C227.101 219.779 228.173 223.877 231.306 225.865L239.684 231.181C242.851 233.19 246.914 232.319 248.754 229.225L256.454 216.274C264.168 219.819 272.454 222.425 281.167 223.914V239.632C281.167 243.376 284.247 246.594 288.058 246.822L298.258 247.432C302.118 247.663 305.257 244.783 305.257 240.998V225.107C314.234 224.474 322.907 222.64 331.102 219.75L339.402 234.005C341.402 237.441 345.846 238.825 349.334 237.086L358.661 232.435C362.189 230.676 363.4 226.437 361.36 222.977L352.991 208.783C360.476 203.768 367.221 197.742 373.021 190.883L387.536 199.3C391.153 201.397 395.796 200.402 397.898 197.065L403.508 188.162C405.624 184.802 404.368 180.386 400.709 178.31L386.358 170.166C390.211 162.01 392.922 153.226 394.294 143.998L410.553 144.2C414.816 144.253 418.283 141.072 418.283 137.095V126.517C418.283 122.539 414.816 119.309 410.553 119.302L394.715 119.274C393.639 109.825 391.166 100.789 387.505 92.3582L400.709 85.0525C404.368 83.0277 405.624 78.6296 403.508 75.2403L397.898 66.257C395.796 62.8902 391.153 61.8292 387.536 63.8758L374.776 71.0943C368.929 63.6856 362.026 57.1517 354.305 51.6936L361.36 39.8281C363.4 36.3967 362.189 32.1405 358.661 30.3315L349.334 25.5482C345.846 23.7598 341.402 25.0812 339.401 28.4895L332.593 40.0873C323.962 36.7752 314.781 34.6345 305.257 33.841V21.0124C305.257 17.2278 302.118 14.303 298.258 14.4792L288.058 14.9446C284.247 15.1184 281.167 18.2936 281.167 22.037V34.7263C271.928 36.1871 263.169 38.9104 255.062 42.6856L248.754 31.9852C246.914 28.8649 242.851 27.9363 239.684 29.9009L231.306 35.0979C228.173 37.0416 227.101 41.1241 228.908 44.2261L235.202 55.037C228.317 60.5713 222.238 67.0056 217.144 74.1422L206.201 67.9319C203.14 66.1953 199.24 67.3551 197.484 70.5133L192.827 78.8862C191.081 82.0252 192.117 85.9858 195.145 87.7419L206.227 94.1674C203.13 101.974 201.049 110.283 200.146 118.94L187.039 118.917C183.57 118.911 180.766 121.802 180.766 125.374ZM226.233 128.969C226.233 92.7038 255.682 62.5884 293.146 61.6772C331.928 60.7339 364.382 91.2431 364.382 129.852C364.382 168.461 331.928 198.556 293.146 197.117C255.682 195.727 226.233 165.235 226.233 128.969Z" fill="#EAEDF3"/>
<path d="M265.341 15.9205L314.319 423.017C315.053 429.12 310.846 434.592 304.953 435.177L100.953 457.573C88.4563 458.35 81.614 451.966 80.8428 445.475L29.4214 12.664C28.6547 6.20972 34.7857 0.364445 47.3357 0.364258L253.192 4.69995C259.151 4.79974 264.61 9.84875 265.341 15.9205Z" fill="url(#paint0_linear_245_12658)"/>
<path d="M274.522 15.2198L323.769 424.352C324.508 430.487 320.286 435.987 314.371 436.575L102.88 457.632C96.2498 458.292 90.1733 453.495 89.3978 446.971L37.6877 11.9233C36.9167 5.43571 41.7868 0.220776 48.4899 0.333835L262.325 3.94184C268.306 4.04275 273.787 9.11753 274.522 15.2198Z" fill="url(#paint1_linear_245_12658)"/>
<path d="M270.509 37.7869L316.154 417.134C316.844 422.865 312.891 427.994 307.354 428.532L108.454 447.867C102.29 448.466 96.6417 443.988 95.9194 437.916L48.1317 36.0325C47.4133 29.9914 51.9346 25.1033 58.1609 25.1696L259.102 27.3095C264.696 27.3689 269.822 32.0834 270.509 37.7869Z" fill="#D8DEE8"/>
<path d="M163.849 14.9382C164.11 17.1162 162.546 18.8595 160.355 18.8319C158.162 18.8042 156.17 17.0125 155.909 14.8303C155.648 12.648 157.217 10.9048 159.411 10.937C161.602 10.9689 163.588 12.7603 163.849 14.9382Z" fill="url(#paint2_linear_245_12658)"/>
<path d="M123.546 93.6297C125.186 108.051 116.13 120.045 103.241 120.399C90.2678 120.755 78.373 109.195 76.7537 94.6007C75.137 80.031 84.3915 68.0891 97.3445 67.9065C110.213 67.7251 121.909 79.2323 123.546 93.6297Z" fill="#BFC8D6"/>
<path d="M264.046 90.7138C265.742 104.616 257.464 116.168 245.486 116.497C233.433 116.827 222.242 105.679 220.563 91.6164C218.887 77.5762 227.344 66.0731 239.381 65.9033C251.342 65.7345 262.354 76.8338 264.046 90.7138Z" fill="#BFC8D6"/>
<path d="M181.854 66.0681L157.243 66.4112C152.397 66.4787 148.975 71.0039 149.611 76.522L152.95 105.466C153.589 111.006 158.05 115.395 162.903 115.266L187.548 114.613C192.328 114.486 195.67 109.938 195.025 104.458L191.652 75.8283C191.009 70.3696 186.627 66.0016 181.854 66.0681Z" fill="#BFC8D6"/>
<path d="M205.022 176.5C206.708 190.798 198.042 202.903 185.592 203.519C173.061 204.14 161.489 192.9 159.822 178.433C158.158 163.99 167.013 151.932 179.526 151.482C191.958 151.034 203.34 162.227 205.022 176.5Z" fill="#BFC8D6"/>
<path d="M274.146 173.545C275.858 187.582 267.572 199.458 255.569 200.053C243.489 200.651 232.262 189.609 230.567 175.408C228.874 161.23 237.34 149.4 249.404 148.965C261.392 148.534 272.438 159.53 274.146 173.545Z" fill="#BFC8D6"/>
<path d="M119.713 152.969L94.1091 153.887C89.0668 154.067 85.4803 158.815 86.111 164.494L89.4193 194.285C90.0524 199.987 94.6697 204.413 99.7196 204.167L125.362 202.92C130.333 202.679 133.835 197.909 133.195 192.271L129.848 162.813C129.21 157.197 124.677 152.791 119.713 152.969Z" fill="#BFC8D6"/>
<path d="M143.187 266.37C144.86 281.085 135.779 293.783 122.824 294.716C109.783 295.655 97.8055 284.327 96.1528 269.432C94.5031 254.564 103.786 241.91 116.807 241.152C129.741 240.398 141.516 251.681 143.187 266.37Z" fill="#BFC8D6"/>
<path d="M201.733 235.543L177.004 236.979C172.134 237.262 168.703 242.052 169.352 247.681L172.758 277.208C173.41 282.86 177.901 287.163 182.777 286.817L207.541 285.057C212.343 284.716 215.693 279.906 215.035 274.317L211.595 245.116C210.939 239.549 206.528 235.265 201.733 235.543Z" fill="#BFC8D6"/>
<path d="M271.329 231.501L247.489 232.886C242.795 233.159 239.516 237.856 240.176 243.381L243.639 272.361C244.301 277.907 248.658 282.135 253.357 281.802L277.228 280.105C281.857 279.777 285.059 275.06 284.391 269.574L280.898 240.908C280.232 235.443 275.953 231.233 271.329 231.501Z" fill="#BFC8D6"/>
<path d="M225.206 347.732C226.925 362.315 218.24 375.111 205.731 376.297C193.14 377.49 181.491 366.479 179.79 351.718C178.092 336.983 186.97 324.227 199.543 323.211C212.034 322.201 223.49 333.172 225.206 347.732Z" fill="#BFC8D6"/>
<path d="M139.435 327.385L113.699 329.461C108.63 329.87 105.032 334.897 105.676 340.694L109.053 371.099C109.699 376.919 114.349 381.253 119.425 380.777L145.199 378.359C150.196 377.89 153.708 372.843 153.054 367.089L149.639 337.03C148.988 331.3 144.424 326.983 139.435 327.385Z" fill="#BFC8D6"/>
<path d="M281.574 315.923L257.681 317.85C252.977 318.229 249.695 323.058 250.361 328.637L253.858 357.904C254.527 363.506 258.898 367.691 263.608 367.249L287.53 365.005C292.17 364.569 295.375 359.723 294.7 354.183L291.173 325.236C290.5 319.718 286.207 315.549 281.574 315.923Z" fill="#BFC8D6"/>
<path d="M252.332 80.2121H122.478C119.99 80.2121 117.591 80.638 115.311 81.148C115.241 81.1635 115.173 81.264 115.102 81.2797C115.124 81.1377 115.145 81.0334 115.167 80.8828C100.485 84.1286 90.6317 97.2531 92.2448 112.898L92.285 113.298L105.92 245.552L105.96 245.943C107.82 263.984 124.321 277.764 142.64 276.738L271.503 269.525C277.17 269.208 282.301 267.347 286.546 264.363C294.917 258.497 299.864 248.276 298.718 236.943L286.034 111.36C284.304 94.2505 269.284 80.2121 252.332 80.2121Z" fill="url(#paint3_linear_245_12658)"/>
<path d="M294.278 111.285L306.92 236.48C308.063 247.785 303.369 258.008 295.042 263.859C290.818 266.835 285.944 268.698 280.306 269.014L152.127 276.199C133.907 277.219 116.985 263.507 115.132 245.513L101.505 113.222C99.8977 97.617 110.057 84.3843 124.658 81.1454C126.927 80.6367 129.564 80.2129 132.039 80.2129H261.202C278.066 80.2127 292.554 94.2171 294.278 111.285Z" fill="url(#paint4_linear_245_12658)"/>
<path d="M182.81 248.211C180.234 248.335 177.826 247.867 175.657 246.818C167.68 242.963 163.829 231.772 164.84 215.336C165.806 199.63 171.033 180.801 179.522 162.383C194.744 129.357 216.335 106.405 232.034 106.287C234.527 106.268 236.851 106.822 238.941 107.932C246.581 111.991 250.26 122.995 249.326 138.945C248.432 154.223 243.464 172.575 235.306 190.684C220.448 223.665 198.861 247.434 182.81 248.211ZM232.46 110.484C225.931 110.541 217.516 115.732 208.747 125.139C199.579 134.975 190.599 148.909 183.476 164.389C175.207 182.357 170.121 200.657 169.189 215.855C168.312 230.148 171.31 240.049 177.397 242.999C178.873 243.715 180.548 244.033 182.374 243.947C189.088 243.631 197.667 238.054 206.514 228.286C215.66 218.186 224.516 204.136 231.465 188.736C239.45 171.038 244.309 153.164 245.179 138.346C245.996 124.44 243.118 114.697 237.27 111.598C235.846 110.843 234.228 110.468 232.46 110.484Z" fill="white"/>
<path d="M208.615 207.002C188.356 207.747 168.83 205.56 153.722 200.807C137.744 195.779 128.347 188.313 127.373 179.816C126.379 171.148 134.278 162.884 149.51 156.592C163.956 150.625 183.412 147.006 204.194 146.368C205.013 146.343 205.837 146.323 206.65 146.307C226.673 145.924 245.539 148.398 259.86 153.238C274.749 158.27 283.397 165.495 284.311 173.616C285.243 181.896 278.027 189.851 263.9 196.059C250.271 202.047 231.544 205.907 211.068 206.897C210.25 206.937 209.428 206.972 208.615 207.002ZM207.081 150.537C206.284 150.553 205.478 150.574 204.675 150.6C184.39 151.247 165.464 154.778 151.482 160.574C138.241 166.062 131.034 173.025 131.793 179.642C132.534 186.11 140.954 192.345 154.81 196.722C169.426 201.338 188.411 203.474 208.183 202.771C208.981 202.743 209.786 202.71 210.588 202.672C230.587 201.73 248.827 198.007 262.044 192.218C274.364 186.822 280.98 180.111 280.267 173.775C279.569 167.578 271.788 161.539 258.844 157.18C244.975 152.51 226.622 150.139 207.081 150.537Z" fill="white"/>
<path d="M246.074 244.105H246.074C230.464 244.747 204.401 223.809 182.553 191.859C170.356 174.023 161.331 155.847 157.158 140.266C152.788 123.949 154.34 112.713 161.492 108.424C163.439 107.257 165.745 106.721 168.336 106.702C184.476 106.58 210.814 129.098 232.301 161.105C244.087 178.662 252.743 196.64 256.723 211.764C260.876 227.543 259.405 238.154 252.64 242.602C250.789 243.82 248.555 244.105 246.074 244.105ZM168.779 111.043C166.943 111.059 165.34 111.471 164.017 112.266C158.56 115.547 157.603 125.581 161.399 139.77C165.434 154.848 174.23 172.771 186.115 190.173C196.347 205.154 208.103 218.485 219.208 227.736C229.825 236.582 239.233 241.257 245.729 240.951C245.729 240.951 245.729 240.951 245.73 240.951C247.487 240.868 249.019 240.411 250.28 239.583C255.461 236.184 256.349 226.361 252.726 212.604C248.862 197.935 240.41 180.444 228.879 163.289C218.838 148.351 207.168 134.856 196.007 125.305C185.208 116.063 175.528 110.984 168.779 111.043Z" fill="white"/>
<path d="M220.807 176.275C221.548 183.547 216.266 189.629 208.983 189.86C201.668 190.093 195.109 184.342 194.361 177.014C193.612 169.685 198.964 163.599 206.286 163.423C213.577 163.247 220.066 169.002 220.807 176.275Z" fill="white"/>
<path opacity="0.3" d="M295.029 263.371C290.806 266.346 285.68 268.042 280.041 268.356L151.847 275.506C133.625 276.522 116.946 263.135 115.092 245.142L101.465 112.843C99.8581 97.2384 109.913 84.1644 124.516 80.927C124.324 82.2605 124.273 83.2588 124.236 83.7735C123.482 94.3241 125.371 105.467 131.106 115.179C142.289 134.127 162.572 138.785 181.25 145.572C201.22 152.82 222.548 169.07 229.582 189.466C232.649 198.358 232.755 207.803 234.986 216.83C241.674 243.938 260.158 266.125 289.159 264.076C291.066 263.938 293.032 263.654 295.029 263.371Z" fill="url(#paint5_linear_245_12658)"/>
<path d="M16.8199 445.538C15.8717 445.055 14.2784 445.596 13.2369 445.95C12.7716 446.108 12.5389 446.187 12.4031 446.307C11.4126 447.183 12.2833 449.472 13.4806 453.135C15.3727 458.925 15.6683 460.766 16.6848 460.834C17.6374 460.897 18.4657 459.353 18.5559 459.18C19.0414 458.252 18.9899 457.401 18.828 455.783C18.5285 452.788 18.2156 450.814 18.1211 450.216C17.5307 446.483 17.4425 445.854 16.8199 445.538Z" fill="url(#paint6_linear_245_12658)"/>
<path d="M23.3409 446.587L17.2763 449.942C16.9016 449.92 15.155 448.45 15.2776 446.612L20.8489 442.435L23.3409 446.587Z" fill="url(#paint7_linear_245_12658)"/>
<path d="M86.0209 329.63C88.1273 337.6 90.5218 349.026 91.2878 362.923C91.9228 374.443 91.4068 387.162 90.0181 394.076C83.0602 428.726 28.1945 446.93 21.7283 448.998C20.371 447.175 19.0137 445.352 17.6562 443.53C24.4895 438.45 57.8679 412.864 58.2005 384.372C58.254 379.786 57.5125 369.879 55.5878 359.298C53.5285 347.975 50.6448 338.795 48.3419 332.425C60.9016 331.494 73.4612 330.562 86.0209 329.63Z" fill="url(#paint8_linear_245_12658)"/>
<path d="M79.0781 230.464L83.9711 231.442C83.9711 231.442 109.659 264.225 105.989 276.701C102.319 289.178 83.9711 279.637 83.9711 279.637L79.0781 230.464Z" fill="url(#paint9_linear_245_12658)"/>
<path d="M46.8394 463.875C46.014 464.546 45.862 466.222 45.763 467.318C45.7183 467.807 45.6965 468.052 45.751 468.225C46.1498 469.485 48.5949 469.618 52.429 470.01C58.4879 470.628 60.2911 471.105 60.7652 470.204C61.2095 469.359 60.1343 467.975 60.013 467.823C59.3619 467.003 58.563 466.704 57.0181 466.196C54.1597 465.255 52.2281 464.74 51.6432 464.584C47.9917 463.609 47.3817 463.435 46.8394 463.875Z" fill="url(#paint10_linear_245_12658)"/>
<path d="M50.4428 458.34L51.0492 465.244C50.8771 465.578 48.8248 466.578 47.1947 465.72L45.6367 458.933L50.4428 458.34Z" fill="url(#paint11_linear_245_12658)"/>
<path d="M57.8302 313.452C56.317 341.002 55.0724 369.065 54.1295 397.626C53.4216 419.057 52.9019 440.217 52.5565 461.099C50.0313 461.411 47.5058 461.722 44.9802 462.034C42.54 457.491 39.299 450.545 37.0788 441.642C34.3822 430.829 35.0065 424.408 33.824 413.202C32.497 400.633 30.5697 397.895 27.1555 382.039C20.2258 349.861 16.7609 333.772 24.491 323.764C27 320.515 34.8667 312.365 57.8302 313.452Z" fill="url(#paint12_linear_245_12658)"/>
<path d="M22.8586 231.307C29.3908 229.47 38.9644 227.322 50.689 226.659C67.9763 225.682 76.6228 225.25 81.6976 229.224C97.4362 241.549 82.5208 285.602 88.1293 308.75C92.8484 328.227 93.0221 328.566 93.0221 328.566C94.1375 330.743 95.9453 333.769 95.2238 337.373C94.6565 340.207 92.5117 343.465 89.5972 344.467C83.5407 346.551 80.069 336.868 70.0257 333.948C59.5274 330.896 47.782 336.959 32.9297 344.626C23.4777 349.505 20.2502 352.617 16.9382 351.073C10.5607 348.099 12.3121 331.797 13.0239 325.141C15.8522 298.691 19.0357 267.723 22.8586 231.307Z" fill="url(#paint13_linear_245_12658)"/>
<path d="M66.2345 276.212C65.7774 276.11 64.963 273.07 66.9683 272.175C76.0202 268.138 83.025 276.131 83.9617 278.59C84.8985 281.049 84.8985 281.049 84.8985 281.049C84.8985 281.049 80.4032 281.4 77.6154 280.463C74.8277 279.527 69.9516 277.041 66.2345 276.212Z" fill="url(#paint14_linear_245_12658)"/>
<path d="M90.9658 287.659L75.0406 288.462C74.4305 288.493 73.7019 287.738 73.8519 287.224L81.2911 263.151C81.408 262.75 81.8156 262.483 82.269 262.508L97.5416 262.843C98.0392 262.872 98.3118 263.852 98.1766 264.337L91.8484 286.973C91.7441 287.346 91.3683 287.639 90.9658 287.659Z" fill="url(#paint15_linear_245_12658)"/>
<path d="M90.6782 287.146L74.6652 287.898C74.0513 287.926 73.6283 287.487 73.7785 286.973L80.9313 262.483C81.0487 262.082 81.4583 261.815 81.9143 261.842L97.2084 262.746C97.7086 262.776 98.0454 263.257 97.9097 263.743L91.5647 286.46C91.4605 286.834 91.0826 287.127 90.6782 287.146Z" fill="url(#paint16_linear_245_12658)"/>
<path opacity="0.3" d="M82.5939 272.544C83.068 274.771 85.0713 274.292 86.7054 276.987C88.7799 280.409 86.7919 283.431 88.6933 284.684C89.2738 285.067 90.2545 285.297 92.0188 284.835L91.5649 286.46C91.4604 286.834 91.0825 287.127 90.6781 287.146L74.6652 287.898C74.0515 287.926 73.6284 287.487 73.7784 286.973L80.9313 262.483C81.0486 262.082 81.4583 261.815 81.9142 261.842L84.2117 261.978C84.4815 262.819 84.6746 263.79 84.6536 264.866C84.5815 268.559 82.0385 269.935 82.5939 272.544Z" fill="url(#paint17_linear_245_12658)"/>
<path d="M97.9727 270.745C98.0624 270.36 97.8724 269.963 97.5861 269.943C96.4207 269.859 93.7179 269.825 92.2257 271.117C90.2875 272.796 87.7811 275.861 89.8919 277.407L91.8626 278.851C91.9531 278.917 92.0517 278.938 92.151 278.907C92.8514 278.689 95.7988 277.765 96.1212 277.535C96.4148 277.326 97.5386 272.609 97.9727 270.745Z" fill="url(#paint18_linear_245_12658)"/>
<path opacity="0.3" d="M84.7046 335.171C82.9968 332.21 83.0685 327.739 79.3224 325.63C77.1384 324.4 75.4358 324.975 72.4723 324.896C63.6385 324.66 61.9477 319.102 55.8367 318.78C46.3725 318.279 41.8266 331.154 36.5098 329.299C33.0392 328.088 30.8043 321.146 32.5955 315.844C35.0924 308.452 43.6492 309.464 54.858 299.453C59.653 295.17 66.5328 287.441 64.6437 284.04C62.6595 280.468 53.2447 285.71 46.2954 280.37C42.2404 277.255 42.758 273.405 39.4453 266.426C37.6503 262.644 31.0768 252.811 21.3006 246.182C18.1579 276.241 15.4587 302.37 13.0239 325.14C12.3121 331.796 10.5607 348.099 16.9382 351.072C20.2502 352.617 23.4777 349.505 32.9297 344.625C47.782 336.959 59.5276 330.895 70.0257 333.947C80.0692 336.867 83.5408 346.551 89.5972 344.467C91.4891 343.816 93.0471 342.212 94.0695 340.393C88.6682 339.422 85.9914 337.401 84.7046 335.171Z" fill="url(#paint19_linear_245_12658)"/>
<path d="M53.3732 213.944C53.3842 215.259 54.785 221.271 50.3768 224.463C45.9288 227.684 41.7977 227.637 40.1304 228.05C36.2645 229.009 35.7673 228.983 35.6819 229.366C35.2655 231.238 45.807 237.616 56.6975 236.079C63.3628 235.138 69.4271 231.336 69.055 229.339C68.6803 227.329 62.0225 228.407 60.0381 224.772C58.6576 222.242 60.2051 218.652 62.0341 215.678C60.2625 212.359 55.1444 217.264 53.3732 213.944Z" fill="url(#paint20_linear_245_12658)"/>
<path d="M65.6932 211.769C67.2428 209.662 67.2996 206.013 65.4615 203.727C63.8798 201.76 61.4224 201.505 59.9511 201.351C55.6877 200.907 50.335 202.744 48.5098 206.684C47.4284 209.018 49.8772 213.817 50.2618 214.68C50.6976 215.657 51.471 215.985 52.1918 216.719C53.1905 217.736 54.7543 219.354 57.3075 222.062C57.4946 221.252 57.7816 220.25 58.243 219.162C58.4208 218.743 59.1346 217.107 60.2273 215.744C62.4161 213.013 64.2242 213.765 65.6932 211.769Z" fill="url(#paint21_linear_245_12658)"/>
<path d="M53.6814 219.801C53.6814 219.801 56.5315 224.362 62.1005 223.938C67.0868 223.558 67.6935 212.36 64.48 210.02C63.4079 209.24 61.2747 208.935 59.5488 209.439C58.5294 209.737 58.1876 210.166 56.5124 210.62C54.967 211.04 54.5274 210.873 54.064 211.271C53.4845 211.771 53.069 212.983 54.0825 216.243C53.1197 215.29 51.973 214.932 51.1674 215.324C51.0392 215.387 50.6991 215.623 50.5102 215.979C49.8268 217.264 51.0123 218.884 53.6814 219.801Z" fill="url(#paint22_linear_245_12658)"/>
<path d="M53.8332 210.606C54.0758 210.782 53.3501 211.688 53.3096 212.96C53.2301 215.427 55.7597 218.36 58.3094 218.583C59.8169 218.715 60.2206 217.803 62.7072 217.512C64.2464 217.332 65.5316 217.514 66.3406 217.681C67.1527 220.378 66.4467 223.083 64.6523 224.355C62.7206 225.724 60.2249 224.934 59.1814 224.604C58.4834 224.383 56.2465 223.68 55.0591 221.649C53.8218 219.532 54.9985 218.235 53.5903 216.81C52.8799 216.091 51.954 215.787 51.0402 214.39C50.792 214.011 50.6257 213.675 50.5234 213.448C51.7959 212.069 53.4819 210.35 53.8332 210.606Z" fill="url(#paint23_linear_245_12658)"/>
<path d="M36.265 238.781C33.6254 234.777 28.3735 230.849 23.5435 231.197C9.43796 232.215 -7.94966 270.213 3.97205 285.263C13.0727 296.752 41.1866 297.31 66.8453 277.435C66.8453 275.233 66.8453 273.031 66.8453 270.829C54.2193 273.038 43.752 274.504 36.0204 275.478C31.1983 276.085 26.3948 276.632 25.5008 274.744C24.1479 271.886 33.8061 267.798 37.4883 257.129C37.9957 255.659 41.2247 246.304 36.265 238.781Z" fill="url(#paint24_linear_245_12658)"/>
<path d="M293.527 455.838C293.481 455.845 293.436 455.853 293.39 455.86C285.975 457.044 276.682 456.217 270.677 451.282C267.512 448.681 265.369 445.252 264.711 441.19C264.321 438.782 264.109 436.239 264.486 433.816C264.88 431.278 265.861 428.828 267.125 426.603C267.83 425.36 268.634 424.16 269.488 423.014C271.934 419.733 277.712 415.123 275.033 410.471C273.413 407.659 269.68 405.928 267.214 403.956C261.943 399.741 258.157 393.663 258.104 386.724C258.062 381.272 261.48 375.875 265.337 372.21C281.03 357.294 269.468 331.641 291.695 333.656C313.922 335.67 318.744 357.852 310.419 378.562C307.632 385.496 304.24 392.584 302.347 399.83C300.857 405.534 302.963 409.479 307.609 412.85C310.108 414.664 313.761 415.9 315.932 418.037C320.782 422.81 324.668 429.5 323.51 436.502C322.361 443.448 316.441 448.55 310.201 451.189C304.805 453.471 299.298 454.914 293.527 455.838Z" fill="url(#paint25_linear_245_12658)"/>
<g opacity="0.8">
<path d="M290.911 449.879C290.859 449.879 290.806 449.87 290.754 449.851C290.517 449.765 290.396 449.503 290.482 449.266C290.576 449.008 299.786 423.295 291.722 402.687C283.527 381.743 292.694 359.322 292.788 359.098C292.885 358.865 293.152 358.756 293.385 358.852C293.618 358.95 293.728 359.217 293.631 359.45C293.539 359.671 284.515 381.761 292.573 402.355C300.764 423.288 291.436 449.319 291.34 449.579C291.273 449.764 291.098 449.879 290.911 449.879Z" fill="white"/>
</g>
<path d="M298.214 417.214C296.353 414.269 294.224 411.499 292.001 408.993C284.491 400.525 279.219 391.536 275.846 380.69C273.189 372.147 273.246 362.38 271.597 353.559C270.402 347.167 268.238 340.981 265.989 334.895C261.201 321.938 254.013 306.904 241.949 299.122C236.364 295.52 228.081 295.164 221.921 297.745C213.94 301.089 206.883 307.603 206.371 316.662C205.667 329.118 216.548 343.082 207.549 354.536C193.771 372.076 200.212 391.562 219.154 401.099C225.327 404.207 232.561 407.088 237.719 411.861C242.892 416.649 239.808 424.818 239.233 430.882C238.694 436.573 238.099 443.185 241.726 448.05C247.844 456.259 262.619 459.836 272.223 460.647C281.515 461.432 292.075 460.406 298.583 452.966C308.391 441.754 305.19 428.257 298.214 417.214Z" fill="url(#paint26_linear_245_12658)"/>
<g opacity="0.8">
<path d="M283.089 452.924C282.905 452.924 282.731 452.811 282.662 452.628C282.36 451.831 252.312 372.532 235.166 340.575C235.046 340.353 235.13 340.076 235.352 339.957C235.575 339.838 235.852 339.921 235.971 340.143C253.145 372.152 283.215 451.507 283.517 452.305C283.606 452.541 283.487 452.805 283.251 452.894C283.198 452.914 283.143 452.924 283.089 452.924Z" fill="white"/>
</g>
<path d="M270.102 464.141C272.101 463.858 274.095 463.529 276.08 463.211C281.628 462.321 288.501 460.593 290.246 454.402C290.743 452.639 289.887 449.491 289.681 447.659C289.471 445.792 289.205 443.926 288.771 442.097C288.171 439.569 287.209 437.193 285.962 434.918C283.801 430.977 281.331 428.012 276.733 427.119C273.38 426.468 269.665 426.316 266.258 426.428C247.68 427.037 245.396 420.337 235.193 406.023C224.99 391.709 157.836 414.855 198.342 440.285C198.342 440.285 204.433 444.244 226.665 441.656C230.732 441.182 235.875 440.867 239.322 443.498C245.403 448.136 239.289 457.967 245.428 461.825C249.008 464.074 254.762 464.736 258.874 464.894C262.633 465.038 266.378 464.668 270.102 464.141Z" fill="url(#paint27_linear_245_12658)"/>
<g opacity="0.8">
<path d="M282.502 456.478C282.361 456.478 282.221 456.412 282.132 456.289C282.015 456.128 270.254 440.14 253.569 436.366C247.043 434.89 241.402 431.586 235.947 428.391C226.748 423.005 218.059 417.916 205.236 420.531C204.988 420.582 204.747 420.422 204.697 420.175C204.646 419.927 204.806 419.686 205.053 419.636C218.219 416.951 227.466 422.366 236.408 427.603C241.804 430.763 247.383 434.03 253.771 435.475C270.797 439.326 282.753 455.589 282.871 455.753C283.019 455.957 282.974 456.243 282.77 456.391C282.689 456.449 282.595 456.478 282.502 456.478Z" fill="white"/>
</g>
<path d="M381.227 471.134L277.107 464.488V306.02L381.227 309.015V471.134Z" fill="url(#paint28_linear_245_12658)"/>
<path d="M472.301 463.381L381.227 471.134V309.015L472.301 307.113V463.381Z" fill="url(#paint29_linear_245_12658)"/>
<path d="M277.107 306.02L376.136 301.729L472.301 307.114L380.142 310.525L277.107 306.02Z" fill="url(#paint30_linear_245_12658)"/>
<path d="M393.134 226.911C390.71 225.34 392.918 220.768 393.049 210.948C393.209 198.914 390.013 196.671 392.58 191.95C395.719 186.177 403.621 183.788 408.856 183.675C410.01 183.651 410.281 183.02 419.954 185.525C437.381 190.038 441.744 185.2 449.548 190.033C457.088 194.703 453.787 199.817 461.109 205.293C472.977 214.17 485.458 204.573 493.94 211.998C501.964 219.021 502.148 236.914 493.709 246.679C484.142 257.749 466.891 254.423 455.329 252.228C452.896 251.767 440.608 249.186 427.815 239.743C420.737 234.519 415.878 228.941 412.786 224.83C412.061 224.014 410.929 223.024 409.434 222.865C407.639 222.673 406.198 223.771 405.503 224.252C401.856 226.778 395.515 228.455 393.134 226.911Z" fill="url(#paint31_linear_245_12658)"/>
<path d="M401.352 212.923C398.235 210.083 387.113 215.556 379.742 222.82C371.082 231.353 371.748 238.272 364.191 248.873C360.434 254.144 353.993 261.239 342.58 267.454C343.388 269.473 344.196 271.493 345.004 273.513C350.522 273.845 361.355 273.649 371.461 267.05C378.482 262.466 382.094 256.391 389.032 244.43C395.995 232.425 405.248 216.473 401.352 212.923Z" fill="url(#paint32_linear_245_12658)"/>
<path d="M331.104 375.229L339.786 370.012H343.705C343.705 370.012 345.04 374.981 344.888 375.229C343.143 378.09 335.014 380.266 329.941 380.446C329.099 380.476 327.924 380.48 327.62 379.87C327.106 378.836 329.403 376.668 331.104 375.229Z" fill="url(#paint33_linear_245_12658)"/>
<path d="M339.94 364.318C340.498 367.548 339.792 369.232 339.031 370.175C338.496 370.839 338.02 371.028 334.841 373.776C333.79 374.685 333.255 375.171 333.376 375.426C333.515 375.718 334.443 375.559 336.446 375.078C340.812 374.028 343.006 373.482 343.542 372.431C344.027 371.48 343.598 371.051 343.626 368.458C343.645 366.752 343.992 365.378 344.264 364.519C342.823 364.452 341.382 364.385 339.94 364.318Z" fill="url(#paint34_linear_245_12658)"/>
<path d="M333.663 338.721C333.663 338.721 329.74 343.402 330.379 348.533C331.017 353.664 337.887 346.162 338.845 343.627C339.803 341.092 340.922 337.479 340.922 337.479C340.922 337.479 336.104 334.483 333.663 338.721Z" fill="url(#paint35_linear_245_12658)"/>
<path d="M335.159 331.397C335.159 331.397 336.224 336.85 334.194 339.729C333.183 341.162 331.819 342.378 332.22 343.545C332.489 344.327 333.509 344.889 334.374 344.8C336.028 344.63 336.946 342.093 337.593 340.304C338.548 337.661 339.081 332.006 339.081 332.006L335.159 331.397Z" fill="url(#paint36_linear_245_12658)"/>
<path d="M338.286 335.994C337.08 335.555 335.873 335.115 334.667 334.676C332.785 330.377 330.488 323.317 331.255 314.735C333.228 292.665 353.64 280.97 355.908 279.719C361.469 282.509 367.102 286.446 367.306 291.408C367.562 297.637 359.076 300.93 351.099 310.039C346.31 315.507 341.194 323.654 338.286 335.994Z" fill="url(#paint37_linear_245_12658)"/>
<path d="M339.587 366.842C335.601 351.272 336.619 338.566 337.769 331.246C339.507 320.183 343.042 297.679 358.067 289.288C361.348 287.455 366.038 285.814 371.755 280.72C376.529 276.465 379.563 271.991 381.394 268.839C401.488 262.944 420.021 265.333 428.2 276.109C429.145 277.354 431.51 280.055 431.968 284.038C433.001 293.024 424.171 303.842 414.264 306.101C401.672 308.972 394.367 296.043 383.212 300.345C380.091 301.548 377.445 304.53 372.154 310.494C365.422 318.08 361.638 325.081 360.207 327.882C355.944 336.223 352.712 342.38 352.24 350.36C352.13 352.219 352.065 355.975 349.887 360.026C348.216 363.135 345.95 365.209 344.264 366.49C342.705 366.607 341.146 366.725 339.587 366.842Z" fill="url(#paint38_linear_245_12658)"/>
<path opacity="0.3" d="M431.968 284.038C431.511 280.055 429.145 277.355 428.2 276.109C420.022 265.333 401.488 262.944 381.394 268.839C379.564 271.991 376.529 276.465 371.756 280.72C366.039 285.814 361.348 287.455 358.067 289.288C348.893 294.412 344.007 304.797 341.193 314.627C345.367 308.156 348.94 306.435 351.705 306.404C355.663 306.36 357.431 309.744 362.157 309.282C367.208 308.789 368.363 304.612 372.457 304.132C373.683 303.989 375.191 304.178 377.002 305.142C379.419 302.611 381.22 301.113 383.212 300.345C394.368 296.044 401.673 308.973 414.264 306.102C424.172 303.842 433.001 293.024 431.968 284.038Z" fill="url(#paint39_linear_245_12658)"/>
<path d="M350 296.252C352.274 296.131 355.777 296.061 360.001 296.479C380.051 298.46 385.578 308.377 402.148 310.797C406.068 311.37 423.52 313.919 431.08 303.829C436.506 296.586 435.685 284.105 429.75 279.196C427.237 277.118 424.75 277.176 408.661 277.321C402.602 277.376 396.543 277.396 390.484 277.473C364.837 277.8 359.932 276.024 355.266 280.266C353.089 282.244 349.906 286.495 350 296.252Z" fill="url(#paint40_linear_245_12658)"/>
<path d="M404.143 213.963C404.143 213.963 434.071 205.235 437.176 227.145C440.152 248.146 424.907 257.783 431.844 279.054C432.648 281.519 374.873 270.225 374.873 270.225C382.585 260.604 384.377 252.666 384.562 247.147C384.764 241.096 383.02 238.346 384.562 231.194C384.562 231.194 386.282 223.213 392.49 216.36C393.381 215.376 394.443 214.351 404.143 213.963Z" fill="url(#paint41_linear_245_12658)"/>
<path d="M423.366 274.564C423.337 274.564 423.307 274.56 423.277 274.552C422.996 274.477 395.044 267.039 378.535 266.114C378.346 266.103 378.201 265.941 378.212 265.751C378.222 265.562 378.361 265.419 378.574 265.427C395.153 266.356 423.174 273.813 423.454 273.888C423.638 273.937 423.747 274.126 423.698 274.309C423.656 274.463 423.517 274.564 423.366 274.564Z" fill="#F4F7FA"/>
<path d="M410.642 200.831C410.368 202.112 408.972 208.985 411.784 210.754C412.394 211.137 413.565 211.357 415.908 211.796C417.442 212.083 418.729 212.259 419.636 212.368C419.505 213.521 419.117 215.397 417.787 217.103C414.058 221.887 406.582 220.649 405.516 220.455C401.755 219.77 398.055 218.608 397.161 217.898C395.8 216.817 394.731 216.005 394.098 215.181C395.553 214.478 398.491 212.623 400.463 212.017C401.936 211.563 403.32 211.24 404.578 211.007C404.785 209.68 404.992 208.352 405.198 207.024C407.013 204.959 408.828 202.895 410.642 200.831Z" fill="url(#paint42_linear_245_12658)"/>
<path d="M410.726 204.433C410.726 204.433 410.252 209.124 405.692 209.951C401.609 210.691 398.535 200.824 400.625 198.272C401.322 197.421 403.043 196.611 404.535 196.654C405.584 196.684 409.127 198.034 409.622 201.58C410.328 200.836 411.207 200.622 411.641 200.934C412.191 201.329 411.896 202.477 411.829 202.738C411.598 203.639 411.009 204.197 410.726 204.433Z" fill="url(#paint43_linear_245_12658)"/>
<path d="M368.773 272.686L414.579 274.914C415.21 274.945 415.785 275.283 416.118 275.819L417.386 277.853C418.017 278.866 417.259 280.172 416.066 280.126L367.547 278.278L368.773 272.686Z" fill="url(#paint44_linear_245_12658)"/>
<path d="M321.132 247.177L368.455 248.094C369.855 248.121 371.137 248.884 371.829 250.102L388.216 278.933L338.238 276.942C336.866 276.887 335.614 276.145 334.909 274.967L319.726 249.602C319.08 248.522 319.874 247.153 321.132 247.177Z" fill="url(#paint45_linear_245_12658)"/>
<path opacity="0.3" d="M371.828 250.101C371.136 248.883 369.854 248.121 368.454 248.093L367.416 248.073C367.262 249.601 366.793 250.998 365.859 252.126C362.94 255.649 358.093 253.476 354.479 257.203C350.51 261.298 354.177 266.172 350.628 269.983C346.892 273.994 340.852 270.729 333.908 273.295L334.908 274.966C335.613 276.144 336.865 276.887 338.237 276.941L388.215 278.933L371.828 250.101Z" fill="url(#paint46_linear_245_12658)"/>
<path d="M410.847 271.154C410.251 269.579 409.655 268.005 409.059 266.431C415.648 264.624 424.761 261.955 434.109 258.615C435.573 258.091 437.312 257.444 437.881 255.903C439.48 251.582 429.319 247.104 425.368 237.668C421.715 228.942 423.726 216.832 427.966 215.401C436.788 212.424 468.075 251.368 456.901 267.785C450.584 277.065 431.111 278.543 410.847 271.154Z" fill="url(#paint47_linear_245_12658)"/>
<path d="M409.057 266.431C404.921 264.234 399.969 266.486 399.65 266.637C398.741 267.066 397.418 267.83 396.081 269.195C395.93 269.402 394.136 271.888 394.789 272.685C395.313 273.323 397.342 272.794 399.781 271.277C400.803 271.134 402.325 271.002 404.149 271.17C407.497 271.479 409.031 272.537 410.246 271.624C411.136 270.955 411.439 269.542 411.119 268.492C410.775 267.363 409.757 266.803 409.057 266.431Z" fill="url(#paint48_linear_245_12658)"/>
<defs>
<linearGradient id="paint0_linear_245_12658" x1="169.345" y1="218.473" x2="88.9501" y2="227.243" gradientUnits="userSpaceOnUse">
<stop stop-color="#444B8C"/>
<stop offset="0.9964" stop-color="#26264F"/>
</linearGradient>
<linearGradient id="paint1_linear_245_12658" x1="240.18" y1="15.8207" x2="41.3868" y2="692.598" gradientUnits="userSpaceOnUse">
<stop stop-color="#444B8C"/>
<stop offset="0.9964" stop-color="#26264F"/>
</linearGradient>
<linearGradient id="paint2_linear_245_12658" x1="165.688" y1="-0.849277" x2="-67.9484" y2="631.916" gradientUnits="userSpaceOnUse">
<stop stop-color="#FFC444"/>
<stop offset="0.9964" stop-color="#F36F56"/>
</linearGradient>
<linearGradient id="paint3_linear_245_12658" x1="156.486" y1="216.263" x2="337.807" y2="24.1292" gradientUnits="userSpaceOnUse">
<stop stop-color="#444B8C"/>
<stop offset="0.9964" stop-color="#26264F"/>
</linearGradient>
<linearGradient id="paint4_linear_245_12658" x1="255.316" y1="14.4155" x2="121.835" y2="433.928" gradientUnits="userSpaceOnUse">
<stop offset="0.0036" stop-color="#E38DDD"/>
<stop offset="1" stop-color="#9571F6"/>
</linearGradient>
<linearGradient id="paint5_linear_245_12658" x1="101.297" y1="178.244" x2="295.029" y2="178.244" gradientUnits="userSpaceOnUse">
<stop offset="0.0036" stop-color="#E38DDD"/>
<stop offset="1" stop-color="#9571F6"/>
</linearGradient>
<linearGradient id="paint6_linear_245_12658" x1="19.6574" y1="459.544" x2="13.1369" y2="445.928" gradientUnits="userSpaceOnUse">
<stop stop-color="#444B8C"/>
<stop offset="0.9964" stop-color="#26264F"/>
</linearGradient>
<linearGradient id="paint7_linear_245_12658" x1="15.9515" y1="451.722" x2="24.2981" y2="438.988" gradientUnits="userSpaceOnUse">
<stop stop-color="#FFC444"/>
<stop offset="0.9964" stop-color="#F36F56"/>
</linearGradient>
<linearGradient id="paint8_linear_245_12658" x1="109.09" y1="401.67" x2="57.0487" y2="390.024" gradientUnits="userSpaceOnUse">
<stop stop-color="#444B8C"/>
<stop offset="0.9964" stop-color="#26264F"/>
</linearGradient>
<linearGradient id="paint9_linear_245_12658" x1="80.4208" y1="267.427" x2="93.5316" y2="253.281" gradientUnits="userSpaceOnUse">
<stop stop-color="#FFC444"/>
<stop offset="0.9964" stop-color="#F36F56"/>
</linearGradient>
<linearGradient id="paint10_linear_245_12658" x1="60.7926" y1="466.964" x2="45.7019" y2="467.4" gradientUnits="userSpaceOnUse">
<stop stop-color="#444B8C"/>
<stop offset="0.9964" stop-color="#26264F"/>
</linearGradient>
<linearGradient id="paint11_linear_245_12658" x1="52.1389" y1="467.177" x2="43.886" y2="454.383" gradientUnits="userSpaceOnUse">
<stop stop-color="#FFC444"/>
<stop offset="0.9964" stop-color="#F36F56"/>
</linearGradient>
<linearGradient id="paint12_linear_245_12658" x1="83.5151" y1="441.27" x2="29.2434" y2="350.799" gradientUnits="userSpaceOnUse">
<stop stop-color="#444B8C"/>
<stop offset="0.9964" stop-color="#26264F"/>
</linearGradient>
<linearGradient id="paint13_linear_245_12658" x1="23.5278" y1="323.772" x2="73.1088" y2="270.276" gradientUnits="userSpaceOnUse">
<stop stop-color="#FFC444"/>
<stop offset="0.9964" stop-color="#F36F56"/>
</linearGradient>
<linearGradient id="paint14_linear_245_12658" x1="65.6778" y1="276.085" x2="84.8987" y2="276.085" gradientUnits="userSpaceOnUse">
<stop stop-color="#FFC444"/>
<stop offset="0.9964" stop-color="#F36F56"/>
</linearGradient>
<linearGradient id="paint15_linear_245_12658" x1="82.9274" y1="272.057" x2="89.0252" y2="278.925" gradientUnits="userSpaceOnUse">
<stop stop-color="#444B8C"/>
<stop offset="0.9964" stop-color="#26264F"/>
</linearGradient>
<linearGradient id="paint16_linear_245_12658" x1="67.2308" y1="278.87" x2="95.0123" y2="272.473" gradientUnits="userSpaceOnUse">
<stop stop-color="#311944"/>
<stop offset="1" stop-color="#893976"/>
</linearGradient>
<linearGradient id="paint17_linear_245_12658" x1="82.0112" y1="289.672" x2="88.3028" y2="262.94" gradientUnits="userSpaceOnUse">
<stop stop-color="#311944"/>
<stop offset="1" stop-color="#893976"/>
</linearGradient>
<linearGradient id="paint18_linear_245_12658" x1="87.6311" y1="265.908" x2="102.055" y2="284.192" gradientUnits="userSpaceOnUse">
<stop stop-color="#FFC444"/>
<stop offset="0.9964" stop-color="#F36F56"/>
</linearGradient>
<linearGradient id="paint19_linear_245_12658" x1="26.8149" y1="326.817" x2="76.396" y2="273.322" gradientUnits="userSpaceOnUse">
<stop stop-color="#FFC444"/>
<stop offset="0.9964" stop-color="#F36F56"/>
</linearGradient>
<linearGradient id="paint20_linear_245_12658" x1="44.2926" y1="246.411" x2="64.3954" y2="204.554" gradientUnits="userSpaceOnUse">
<stop stop-color="#FFC444"/>
<stop offset="0.9964" stop-color="#F36F56"/>
</linearGradient>
<linearGradient id="paint21_linear_245_12658" x1="47.4132" y1="235.214" x2="59.5477" y2="203.004" gradientUnits="userSpaceOnUse">
<stop stop-color="#311944"/>
<stop offset="1" stop-color="#6B3976"/>
</linearGradient>
<linearGradient id="paint22_linear_245_12658" x1="58.1262" y1="211.947" x2="61.0984" y2="258.576" gradientUnits="userSpaceOnUse">
<stop stop-color="#FFC444"/>
<stop offset="0.9964" stop-color="#F36F56"/>
</linearGradient>
<linearGradient id="paint23_linear_245_12658" x1="51.2882" y1="236.691" x2="63.435" y2="204.448" gradientUnits="userSpaceOnUse">
<stop stop-color="#311944"/>
<stop offset="1" stop-color="#6B3976"/>
</linearGradient>
<linearGradient id="paint24_linear_245_12658" x1="30.7926" y1="295.943" x2="37.9688" y2="234.619" gradientUnits="userSpaceOnUse">
<stop stop-color="#FFC444"/>
<stop offset="0.9964" stop-color="#F36F56"/>
</linearGradient>
<linearGradient id="paint25_linear_245_12658" x1="258.104" y1="394.941" x2="323.716" y2="394.941" gradientUnits="userSpaceOnUse">
<stop stop-color="#FF9085"/>
<stop offset="1" stop-color="#FB6FBB"/>
</linearGradient>
<linearGradient id="paint26_linear_245_12658" x1="200.168" y1="378.469" x2="304.762" y2="378.469" gradientUnits="userSpaceOnUse">
<stop stop-color="#FFC444"/>
<stop offset="0.9964" stop-color="#F36F56"/>
</linearGradient>
<linearGradient id="paint27_linear_245_12658" x1="185.475" y1="433.28" x2="290.398" y2="433.28" gradientUnits="userSpaceOnUse">
<stop stop-color="#FF9085"/>
<stop offset="1" stop-color="#FB6FBB"/>
</linearGradient>
<linearGradient id="paint28_linear_245_12658" x1="712.948" y1="233.732" x2="435.962" y2="350.467" gradientUnits="userSpaceOnUse">
<stop offset="0.0036" stop-color="#E38DDD"/>
<stop offset="1" stop-color="#9571F6"/>
</linearGradient>
<linearGradient id="paint29_linear_245_12658" x1="418.413" y1="375.193" x2="502.953" y2="519.574" gradientUnits="userSpaceOnUse">
<stop offset="0.0036" stop-color="#E38DDD"/>
<stop offset="1" stop-color="#9571F6"/>
</linearGradient>
<linearGradient id="paint30_linear_245_12658" x1="335.076" y1="240.461" x2="383.696" y2="321.566" gradientUnits="userSpaceOnUse">
<stop offset="0.0036" stop-color="#E38DDD"/>
<stop offset="1" stop-color="#9571F6"/>
</linearGradient>
<linearGradient id="paint31_linear_245_12658" x1="386.054" y1="180.356" x2="514.908" y2="267.879" gradientUnits="userSpaceOnUse">
<stop stop-color="#311944"/>
<stop offset="1" stop-color="#6B3976"/>
</linearGradient>
<linearGradient id="paint32_linear_245_12658" x1="373.563" y1="223.401" x2="370.239" y2="276.831" gradientUnits="userSpaceOnUse">
<stop stop-color="#FF9085"/>
<stop offset="1" stop-color="#FB6FBB"/>
</linearGradient>
<linearGradient id="paint33_linear_245_12658" x1="327.547" y1="375.234" x2="344.9" y2="375.234" gradientUnits="userSpaceOnUse">
<stop stop-color="#311944"/>
<stop offset="1" stop-color="#6B3976"/>
</linearGradient>
<linearGradient id="paint34_linear_245_12658" x1="335.731" y1="382.072" x2="361.621" y2="304.402" gradientUnits="userSpaceOnUse">
<stop stop-color="#FFC444"/>
<stop offset="0.9964" stop-color="#F36F56"/>
</linearGradient>
<linearGradient id="paint35_linear_245_12658" x1="330.309" y1="343.37" x2="340.921" y2="343.37" gradientUnits="userSpaceOnUse">
<stop stop-color="#311944"/>
<stop offset="1" stop-color="#6B3976"/>
</linearGradient>
<linearGradient id="paint36_linear_245_12658" x1="324.157" y1="372.511" x2="341.487" y2="320.522" gradientUnits="userSpaceOnUse">
<stop stop-color="#FFC444"/>
<stop offset="0.9964" stop-color="#F36F56"/>
</linearGradient>
<linearGradient id="paint37_linear_245_12658" x1="345.511" y1="284.921" x2="358.437" y2="359.648" gradientUnits="userSpaceOnUse">
<stop stop-color="#AB316D"/>
<stop offset="1" stop-color="#792D3D"/>
</linearGradient>
<linearGradient id="paint38_linear_245_12658" x1="363.766" y1="373.484" x2="382.145" y2="315.318" gradientUnits="userSpaceOnUse">
<stop stop-color="#AB316D"/>
<stop offset="1" stop-color="#792D3D"/>
</linearGradient>
<linearGradient id="paint39_linear_245_12658" x1="363.768" y1="373.485" x2="382.147" y2="315.318" gradientUnits="userSpaceOnUse">
<stop stop-color="#AB316D"/>
<stop offset="1" stop-color="#792D3D"/>
</linearGradient>
<linearGradient id="paint40_linear_245_12658" x1="389.631" y1="277.379" x2="402.527" y2="351.934" gradientUnits="userSpaceOnUse">
<stop stop-color="#AB316D"/>
<stop offset="1" stop-color="#792D3D"/>
</linearGradient>
<linearGradient id="paint41_linear_245_12658" x1="370.985" y1="231.093" x2="485.543" y2="273.043" gradientUnits="userSpaceOnUse">
<stop stop-color="#FF9085"/>
<stop offset="1" stop-color="#FB6FBB"/>
</linearGradient>
<linearGradient id="paint42_linear_245_12658" x1="410.154" y1="228.691" x2="402.6" y2="194.407" gradientUnits="userSpaceOnUse">
<stop stop-color="#FFC444"/>
<stop offset="0.9964" stop-color="#F36F56"/>
</linearGradient>
<linearGradient id="paint43_linear_245_12658" x1="405.379" y1="198.741" x2="413.442" y2="240.272" gradientUnits="userSpaceOnUse">
<stop stop-color="#FFC444"/>
<stop offset="0.9964" stop-color="#F36F56"/>
</linearGradient>
<linearGradient id="paint44_linear_245_12658" x1="367.547" y1="276.407" x2="417.614" y2="276.407" gradientUnits="userSpaceOnUse">
<stop stop-color="#40447E"/>
<stop offset="0.9964" stop-color="#3C3B6B"/>
</linearGradient>
<linearGradient id="paint45_linear_245_12658" x1="335.53" y1="244.824" x2="368.355" y2="277.386" gradientUnits="userSpaceOnUse">
<stop stop-color="#40447E"/>
<stop offset="0.9964" stop-color="#3C3B6B"/>
</linearGradient>
<linearGradient id="paint46_linear_245_12658" x1="335.529" y1="244.823" x2="368.354" y2="277.386" gradientUnits="userSpaceOnUse">
<stop stop-color="#40447E"/>
<stop offset="0.9964" stop-color="#3C3B6B"/>
</linearGradient>
<linearGradient id="paint47_linear_245_12658" x1="440.384" y1="229.207" x2="431.632" y2="277.769" gradientUnits="userSpaceOnUse">
<stop stop-color="#FF9085"/>
<stop offset="1" stop-color="#FB6FBB"/>
</linearGradient>
<linearGradient id="paint48_linear_245_12658" x1="398.9" y1="266.533" x2="415.543" y2="282.217" gradientUnits="userSpaceOnUse">
<stop stop-color="#FFC444"/>
<stop offset="0.9964" stop-color="#F36F56"/>
</linearGradient>
</defs>
</svg>
