<svg width="60" height="60" viewBox="0 0 60 60" fill="none" xmlns="http://www.w3.org/2000/svg">
<g clip-path="url(#clip0_796_2359)">
<rect width="66.4032" height="66.4032" transform="translate(-3.61328 -3.68945)" fill="#EAF5FE"/>
<path d="M43.6006 34.6099C43.6006 30.2805 40.0759 26.7559 35.746 26.7559C31.4116 26.7559 27.8926 30.2805 27.8926 34.6099C27.8926 38.9449 31.4116 42.4695 35.746 42.4695C40.0759 42.4695 43.6006 38.9449 43.6006 34.6099ZM35.746 34.0454C37.0006 34.0454 38.0217 35.0666 38.0217 36.3212C38.0217 37.3792 37.2925 38.2632 36.3127 38.517V38.9103C36.3127 39.2231 36.0588 39.4769 35.746 39.4769C35.4332 39.4769 35.1793 39.2231 35.1793 38.9103V38.517C34.1996 38.2632 33.4703 37.3792 33.4703 36.3212C33.4703 36.0084 33.7242 35.7545 34.037 35.7545C34.3498 35.7545 34.6036 36.0084 34.6036 36.3212C34.6036 36.9513 35.1159 37.4636 35.746 37.4636C36.3761 37.4636 36.8884 36.9513 36.8884 36.3212C36.8884 35.6911 36.3761 35.1788 35.746 35.1788C34.4914 35.1788 33.4703 34.1582 33.4703 32.903C33.4703 31.8451 34.1996 30.9611 35.1793 30.7078V30.314C35.1793 30.0012 35.4332 29.7473 35.746 29.7473C36.0588 29.7473 36.3127 30.0012 36.3127 30.314V30.7078C37.2925 30.9611 38.0217 31.8451 38.0217 32.903C38.0217 33.2164 37.7679 33.4697 37.4551 33.4697C37.1423 33.4697 36.8884 33.2164 36.8884 32.903C36.8884 32.2735 36.3761 31.7606 35.746 31.7606C35.1159 31.7606 34.6036 32.2735 34.6036 32.903C34.6036 33.5332 35.1159 34.0454 35.746 34.0454Z" fill="#0085F2"/>
<path d="M26.7704 40.8824C26.8441 40.9107 26.9234 40.9277 27.0027 40.9277C27.0821 40.9277 27.1614 40.9107 27.2351 40.8824C27.2691 40.8654 27.8301 40.6161 28.6857 40.1627C27.4788 38.6327 26.7591 36.7004 26.7591 34.6094C26.7591 29.651 30.7881 25.6221 35.7464 25.6221C36.3811 25.6221 37.0044 25.6901 37.6051 25.8147V19.8251C37.6051 19.5134 37.3501 19.2584 37.0384 19.2584C35.4744 19.2584 34.2051 17.9891 34.2051 16.4251C34.2051 16.1134 33.9501 15.8584 33.6384 15.8584H20.3671C20.0554 15.8584 19.8004 16.1134 19.8004 16.4251C19.8004 17.9891 18.5311 19.2584 16.9671 19.2584C16.6554 19.2584 16.4004 19.5134 16.4004 19.8251V30.3197C16.4004 36.1677 26.3511 40.6897 26.7704 40.8824ZM22.7754 27.1804C22.9964 26.9594 23.3534 26.9594 23.5744 27.1804L25.2461 28.8521L29.0087 25.0894C29.2297 24.8684 29.5924 24.8684 29.8134 25.0894C30.0344 25.3104 30.0344 25.6674 29.8134 25.894L25.6484 30.0534C25.5407 30.1611 25.3991 30.2177 25.2461 30.2177C25.0987 30.2177 24.9514 30.1611 24.8494 30.0534L22.7754 27.9794C22.5544 27.7584 22.5544 27.4014 22.7754 27.1804Z" fill="#0085F2"/>
</g>
<defs>
<clipPath id="clip0_796_2359">
<rect x="0.078125" width="59.0251" height="59.025" rx="29.5125" fill="white"/>
</clipPath>
</defs>
</svg>
