<svg width="401" height="338" viewBox="0 0 401 338" fill="none" xmlns="http://www.w3.org/2000/svg">
<g filter="url(#filter0_f_608_13679)">
<circle cx="241.5" cy="178.5" r="87.5" fill="white" fill-opacity="0.4"/>
</g>
<path d="M199.114 21.1737V266.55C199.114 267.657 199.007 268.744 198.803 269.793C198.312 272.316 197.262 274.638 195.783 276.624C192.704 280.768 187.772 283.453 182.211 283.453H83.9931C78.4327 283.453 73.5009 280.768 70.4218 276.624C68.9428 274.638 67.8921 272.316 67.4011 269.793C67.1951 268.744 67.0879 267.657 67.0879 266.55V21.1737C67.0879 20.9635 67.0919 20.7535 67.102 20.5433C67.1041 20.4605 67.1081 20.3735 67.1122 20.2888C67.5709 11.3625 74.9536 4.26855 83.9931 4.26855H182.211C191.249 4.26855 198.632 11.3623 199.092 20.2888C199.096 20.3737 199.1 20.4605 199.102 20.5433C199.11 20.7535 199.114 20.9637 199.114 21.1737Z" fill="white"/>
<path d="M195.787 276.623C192.708 280.767 187.776 283.452 182.216 283.452H83.9971C78.4368 283.452 73.5049 280.767 70.4258 276.623H195.787Z" fill="#F0F2F5"/>
<path d="M182.153 4.2688C191.489 4.2688 199.057 11.8373 199.057 21.1734V266.548C199.057 275.884 191.489 283.453 182.153 283.453H83.9351C74.599 283.453 67.0305 275.884 67.0305 266.548V21.1734C67.0305 11.8373 74.599 4.2688 83.9351 4.2688H182.153ZM182.153 0H83.9351C72.2601 0 62.7617 9.49837 62.7617 21.1734V266.548C62.7617 278.223 72.2601 287.722 83.9351 287.722H182.153C193.828 287.722 203.326 278.223 203.326 266.548V21.1734C203.326 9.49837 193.828 0 182.153 0Z" fill="#1F4168"/>
<path d="M182.15 5.33575C190.883 5.33575 197.987 12.4405 197.987 21.1732V266.548C197.987 275.281 190.883 282.385 182.15 282.385H83.9319C75.1993 282.385 68.0945 275.281 68.0945 266.548V21.1732C68.0945 12.4405 75.1991 5.33575 83.9319 5.33575H182.15ZM182.15 4.26855H83.9319C74.5958 4.26855 67.0273 11.8371 67.0273 21.1732V266.548C67.0273 275.884 74.5958 283.453 83.9319 283.453H182.15C191.486 283.453 199.054 275.884 199.054 266.548V21.1732C199.054 11.8371 191.486 4.26855 182.15 4.26855Z" fill="#1B1A2E"/>
<path d="M186.568 10.542H177.914V14.7804H186.568V10.542Z" fill="#1F4168"/>
<path d="M177.572 11.3721H176.262V13.955H177.572V11.3721Z" fill="#1F4168"/>
<path d="M88.3687 12.6621H87.0645V14.7812H88.3687V12.6621Z" fill="#1F4168"/>
<path d="M85.9526 11.9541H84.6484V14.7797H85.9526V11.9541Z" fill="#1F4168"/>
<path d="M83.5366 11.25H82.2324V14.782H83.5366V11.25Z" fill="#1F4168"/>
<path d="M81.1225 10.542H79.8184V14.7804H81.1225V10.542Z" fill="#1F4168"/>
<path d="M157.265 14.8195H109.891C108.71 14.8195 107.752 13.8619 107.752 12.6807C107.752 11.4996 108.71 10.542 109.891 10.542H157.266C158.447 10.542 159.404 11.4996 159.404 12.6807C159.404 13.8619 158.447 14.8195 157.265 14.8195Z" fill="#F0F2F5"/>
<path d="M153.935 276.902H113.713C113.56 276.902 113.436 276.777 113.436 276.625C113.436 276.472 113.56 276.348 113.713 276.348H153.935C154.088 276.348 154.212 276.472 154.212 276.625C154.212 276.777 154.088 276.902 153.935 276.902Z" fill="#1F4168"/>
<path d="M185.095 35.6699H80.9929C79.3293 35.6699 77.9809 34.3205 77.9824 32.6566L77.9879 26.9616C77.9894 25.3002 79.3368 23.9541 80.9984 23.9541H185.09C186.751 23.9541 188.099 25.3002 188.1 26.9616L188.106 32.6566C188.107 34.3205 186.759 35.6699 185.095 35.6699Z" fill="#F0F2F5"/>
<path d="M181.593 27.2431C181.593 27.5667 181.331 27.8288 181.008 27.8288C180.684 27.8288 180.422 27.5665 180.422 27.2431C180.422 26.9197 180.684 26.6572 181.008 26.6572C181.331 26.6572 181.593 26.9197 181.593 27.2431Z" fill="#D2D9E1"/>
<path d="M181.593 29.8083C181.593 30.1319 181.331 30.3942 181.008 30.3942C180.684 30.3942 180.422 30.1319 180.422 29.8083C180.422 29.4847 180.684 29.2227 181.008 29.2227C181.331 29.2227 181.593 29.4849 181.593 29.8083Z" fill="#D2D9E1"/>
<path d="M181.593 32.3769C181.593 32.7005 181.331 32.9626 181.008 32.9626C180.684 32.9626 180.422 32.7003 180.422 32.3769C180.422 32.0535 180.684 31.791 181.008 31.791C181.331 31.791 181.593 32.0535 181.593 32.3769Z" fill="#D2D9E1"/>
<path d="M87.4242 30.2665C87.6769 29.1911 87.0099 28.1145 85.9344 27.8618C84.859 27.6092 83.7824 28.2762 83.5297 29.3516C83.2771 30.427 83.9441 31.5036 85.0195 31.7563C86.0949 32.0089 87.1716 31.3419 87.4242 30.2665Z" fill="#D2D9E1"/>
<path d="M171.806 172.974H11.1508C7.90162 172.974 5.26758 170.34 5.26758 167.091V53.3812C5.26758 50.1319 7.90162 47.498 11.1508 47.498H171.806C175.055 47.498 177.689 50.1321 177.689 53.3812V167.091C177.689 170.34 175.055 172.974 171.806 172.974Z" fill="#F0F2F5"/>
<path d="M166.63 167.516H5.975C2.72565 167.516 0.0917969 164.882 0.0917969 161.633V47.9234C0.0917969 44.6741 2.72584 42.04 5.975 42.04H166.63C169.88 42.04 172.513 44.6741 172.513 47.9234V161.633C172.514 164.882 169.88 167.516 166.63 167.516Z" fill="white"/>
<path d="M166.631 167.609H5.97566C2.68065 167.609 0 164.928 0 161.633V47.9239C0 44.6289 2.68065 41.9482 5.97566 41.9482H166.631C169.926 41.9482 172.607 44.6289 172.607 47.9239V161.633C172.607 164.928 169.926 167.609 166.631 167.609ZM5.97566 42.133C2.78254 42.133 0.184721 44.7308 0.184721 47.9239V161.633C0.184721 164.827 2.78254 167.424 5.97566 167.424H166.631C169.824 167.424 172.422 164.827 172.422 161.633V47.9239C172.422 44.7308 169.824 42.133 166.631 42.133H5.97566Z" fill="#1F4168"/>
<path d="M172.514 61.5363H0.0917969V47.9225C0.0917969 44.6731 2.72584 42.0391 5.975 42.0391H166.63C169.88 42.0391 172.513 44.6731 172.513 47.9225V61.5363H172.514Z" fill="#1F4168"/>
<path d="M10.3316 52.4515C10.6947 50.903 9.73378 49.3533 8.18524 48.9902C6.63671 48.627 5.087 49.588 4.72389 51.1366C4.36077 52.6851 5.32174 54.2348 6.87028 54.5979C8.41881 54.961 9.96851 54.0001 10.3316 52.4515Z" fill="#F0F2F5"/>
<path d="M22.5875 52.4515C22.9506 50.903 21.9896 49.3533 20.4411 48.9902C18.8926 48.6271 17.3429 49.588 16.9797 51.1366C16.6166 52.6851 17.5776 54.2348 19.1261 54.5979C20.6747 54.961 22.2244 54.0001 22.5875 52.4515Z" fill="#F0F2F5"/>
<path d="M34.3416 53.5182C35.296 52.2458 35.0381 50.4406 33.7657 49.4863C32.4932 48.532 30.6881 48.7899 29.7338 50.0623C28.7795 51.3347 29.0374 53.1398 30.3098 54.0942C31.5822 55.0485 33.3873 54.7906 34.3416 53.5182Z" fill="#F0F2F5"/>
<path d="M163.107 51.7902L167.677 47.2203C167.772 47.125 167.772 46.9705 167.677 46.8752C167.582 46.7799 167.427 46.7799 167.332 46.8752L162.762 51.4449L158.192 46.8752C158.097 46.7799 157.942 46.7799 157.847 46.8752C157.752 46.9705 157.752 47.125 157.847 47.2203L162.417 51.7902L157.847 56.3602C157.752 56.4555 157.752 56.61 157.847 56.7053C157.942 56.8006 158.097 56.8006 158.192 56.7053L162.762 52.1353L167.332 56.7053C167.427 56.8006 167.582 56.8006 167.677 56.7053C167.772 56.61 167.772 56.4555 167.677 56.3602L163.107 51.7902Z" fill="#F0F2F5"/>
<path d="M137.843 85.5068H32.4869C31.451 85.5068 30.6113 86.3465 30.6113 87.3824C30.6113 88.4182 31.451 89.2579 32.4869 89.2579H38.7338L52.9199 142.133C52.9347 142.187 52.9573 142.237 52.9764 142.289C52.9901 142.327 53.0009 142.365 53.0169 142.401C53.0609 142.501 53.112 142.596 53.1711 142.685C53.1735 142.689 53.1749 142.693 53.1773 142.696C53.2417 142.791 53.3151 142.879 53.3945 142.959C53.4147 142.98 53.4377 142.997 53.459 143.017C53.5194 143.073 53.5817 143.126 53.6486 143.173C53.6819 143.197 53.7166 143.217 53.7515 143.239C53.8124 143.276 53.8749 143.311 53.94 143.341C53.979 143.359 54.0183 143.377 54.0588 143.392C54.1296 143.42 54.2021 143.441 54.276 143.46C54.3123 143.469 54.3473 143.48 54.3843 143.487C54.4977 143.508 54.613 143.522 54.7306 143.522C54.7315 143.522 54.7325 143.522 54.7334 143.522H69.9427C69.9442 143.522 69.9454 143.522 69.9467 143.522C69.9486 143.522 69.9503 143.522 69.9522 143.522H100.378C100.38 143.522 100.382 143.522 100.384 143.522C100.385 143.522 100.387 143.522 100.388 143.522H115.596C115.597 143.522 115.598 143.522 115.599 143.522C115.717 143.522 115.832 143.508 115.945 143.487C115.982 143.48 116.018 143.469 116.054 143.46C116.127 143.441 116.2 143.42 116.27 143.393C116.311 143.377 116.351 143.359 116.391 143.341C116.455 143.311 116.516 143.277 116.576 143.24C116.612 143.218 116.648 143.197 116.681 143.173C116.747 143.126 116.808 143.074 116.868 143.019C116.89 142.999 116.914 142.98 116.935 142.959C117.015 142.878 117.088 142.792 117.152 142.697C117.155 142.692 117.157 142.687 117.16 142.682C117.218 142.594 117.269 142.5 117.312 142.402C117.329 142.365 117.339 142.326 117.353 142.288C117.372 142.236 117.395 142.187 117.409 142.133L131.596 89.2581H137.843C138.879 89.2581 139.719 88.4184 139.719 87.3826C139.719 86.3467 138.879 85.5068 137.843 85.5068ZM119.012 121.68H104.952L106.875 107.343H122.859L119.012 121.68ZM114.158 139.771H102.525L104.449 125.431H118.006L114.158 139.771ZM87.0402 139.771V125.431H100.665L98.741 139.771H87.0402ZM71.5892 139.771L69.6656 125.431H83.2892V139.771H71.5892ZM56.171 139.771L52.3235 125.431H65.8813L67.8049 139.771H56.171ZM83.2892 107.343V121.68H69.1623L67.2391 107.343H83.2892ZM66.7358 103.592L64.813 89.2577H83.2892V103.592H66.7358ZM65.3779 121.68H51.3171L47.4707 107.343H63.4548L65.3779 121.68ZM101.168 121.68H87.0402V107.343H103.091L101.168 121.68ZM87.0402 103.592V89.2577H105.517L103.594 103.592H87.0402ZM61.0287 89.2579L62.9516 103.592H46.4643L42.6183 89.2579H61.0287ZM123.865 103.592H107.379L109.302 89.2577H127.711L123.865 103.592Z" fill="#F0F2F5"/>
<path d="M115.085 89.1632H105.227L94.8347 74.5488C94.4939 74.0694 93.8298 73.9573 93.3492 74.2979C92.8698 74.6388 92.7575 75.3041 93.0986 75.7834L102.613 89.1632H67.7169L77.231 75.7834C77.5721 75.3039 77.4598 74.6388 76.9804 74.2979C76.4998 73.9567 75.8353 74.0692 75.4949 74.5488L65.103 89.1632H55.245C54.6567 89.1632 54.1797 89.6401 54.1797 90.2286C54.1797 90.8171 54.6565 91.2939 55.245 91.2939H58.7932L66.8506 121.326C66.859 121.357 66.872 121.385 66.8827 121.414C66.8905 121.436 66.8967 121.457 66.9057 121.478C66.9306 121.535 66.9597 121.589 66.9933 121.639C66.9946 121.641 66.9956 121.643 66.9969 121.646C67.0335 121.7 67.0752 121.749 67.1203 121.795C67.1318 121.807 67.1448 121.817 67.1569 121.828C67.1912 121.86 67.2265 121.89 67.2646 121.917C67.2835 121.93 67.3033 121.942 67.3229 121.954C67.3576 121.975 67.3931 121.995 67.4299 122.012C67.4522 122.022 67.4742 122.032 67.4975 122.041C67.5376 122.057 67.5788 122.069 67.6209 122.079C67.6414 122.084 67.6612 122.091 67.6824 122.095C67.7467 122.107 67.8122 122.115 67.879 122.115C67.8795 122.115 67.8801 122.115 67.8805 122.115H76.5191C76.5198 122.115 76.5206 122.115 76.5213 122.115C76.5225 122.115 76.5234 122.115 76.5245 122.115H93.8058C93.8069 122.115 93.8079 122.115 93.809 122.115C93.8098 122.115 93.8105 122.115 93.8113 122.115H102.449C102.45 122.115 102.45 122.115 102.451 122.115C102.518 122.115 102.583 122.107 102.647 122.095C102.669 122.091 102.689 122.084 102.709 122.079C102.751 122.069 102.792 122.057 102.832 122.041C102.855 122.032 102.878 122.022 102.9 122.012C102.937 121.995 102.972 121.975 103.006 121.954C103.026 121.942 103.046 121.93 103.066 121.916C103.103 121.89 103.138 121.86 103.171 121.829C103.184 121.817 103.198 121.807 103.21 121.795C103.255 121.749 103.296 121.7 103.333 121.646C103.334 121.643 103.336 121.64 103.337 121.637C103.37 121.588 103.399 121.534 103.424 121.478C103.433 121.457 103.439 121.435 103.447 121.414C103.458 121.384 103.471 121.356 103.479 121.326L111.537 91.2939H115.085C115.673 91.2939 116.15 90.8171 116.15 90.2286C116.15 89.6401 115.673 89.1632 115.085 89.1632ZM104.389 109.709H96.4033L97.4956 101.566H106.574L104.389 109.709ZM101.632 119.984H95.0249L96.1174 111.839H103.817L101.632 119.984ZM86.2297 119.984V111.839H93.9681L92.8754 119.984H86.2297V119.984ZM77.454 119.984L76.3613 111.839H84.0993V119.984H77.454ZM68.6967 119.984L66.5116 111.839H74.212L75.3045 119.984H68.6967ZM84.0993 101.566V109.709H76.0756L74.9834 101.566H84.0993ZM74.6975 99.4354L73.6054 91.2939H84.0995V99.4354H74.6975ZM73.9261 109.709H65.9399L63.7553 101.566H72.8338L73.9261 109.709ZM94.2539 109.709H86.2299V101.566H95.3464L94.2539 109.709ZM86.2297 99.4354V91.2939H96.7242L95.6321 99.4354H86.2297ZM71.4559 91.2939L72.5482 99.4354H63.1837L60.9993 91.2939H71.4559ZM107.145 99.4354H97.7814L98.8737 91.2939H109.33L107.145 99.4354Z" fill="#1F4168"/>
<path d="M114.664 97.2402C117.591 94.3127 117.591 89.5662 114.664 86.6387C111.736 83.7112 106.99 83.7112 104.062 86.6387C101.135 89.5662 101.135 94.3127 104.062 97.2402C106.99 100.168 111.736 100.168 114.664 97.2402Z" fill="#1F4168"/>
<path d="M108.377 94.3784L106.152 92.1544L106.832 91.4743L108.377 93.0185L111.897 89.498L112.577 90.1781L108.377 94.3784Z" fill="white"/>
<path d="M104.298 155.005H66.7493C64.6462 155.005 62.9414 153.301 62.9414 151.198V143.569C62.9414 141.466 64.6464 139.761 66.7493 139.761H104.298C106.401 139.761 108.105 141.466 108.105 143.569V151.198C108.105 153.3 106.401 155.005 104.298 155.005Z" fill="#1F4168"/>
<path d="M43.6816 131.945V133.658H42.5622V131.931L40.6895 128.821H41.878L43.1701 130.97L44.4624 128.821H45.5611L43.6816 131.945Z" fill="#1F4168"/>
<path d="M45.2617 131.801C45.2617 130.681 46.1255 129.887 47.3071 129.887C48.4888 129.887 49.3456 130.681 49.3456 131.801C49.3456 132.92 48.4888 133.715 47.3071 133.715C46.1255 133.715 45.2617 132.92 45.2617 131.801ZM48.2537 131.801C48.2537 131.158 47.8459 130.771 47.3069 130.771C46.768 130.771 46.3535 131.158 46.3535 131.801C46.3535 132.443 46.768 132.83 47.3069 132.83C47.8459 132.83 48.2537 132.443 48.2537 131.801Z" fill="#1F4168"/>
<path d="M53.8089 129.94V133.658H52.7863V133.216C52.503 133.541 52.0883 133.713 51.6323 133.713C50.6994 133.713 50.043 133.188 50.043 132.041V129.94H51.1209V131.882C51.1209 132.504 51.3973 132.781 51.8742 132.781C52.3717 132.781 52.731 132.463 52.731 131.779V129.94H53.8089Z" fill="#1F4168"/>
<path d="M57.1166 129.887V130.882C57.0268 130.875 56.9577 130.868 56.8747 130.868C56.2805 130.868 55.8866 131.193 55.8866 131.905V133.66H54.8086V129.942H55.8382V130.433C56.1009 130.073 56.543 129.887 57.1166 129.887Z" fill="#1F4168"/>
<path d="M59.5156 131.239C59.5156 129.801 60.6351 128.737 62.1621 128.737C63.6824 128.737 64.8086 129.794 64.8086 131.239C64.8086 132.683 63.6824 133.74 62.1621 133.74C60.6349 133.74 59.5156 132.676 59.5156 131.239ZM63.6756 131.239C63.6756 130.32 63.0259 129.691 62.1621 129.691C61.2983 129.691 60.6489 130.32 60.6489 131.239C60.6489 132.158 61.2983 132.786 62.1621 132.786C63.0259 132.786 63.6756 132.158 63.6756 131.239Z" fill="#1F4168"/>
<path d="M67.8863 129.887V130.882C67.7965 130.875 67.7274 130.868 67.6444 130.868C67.0502 130.868 66.6563 131.193 66.6563 131.905V133.66H65.5781V129.942H66.6078V130.433C66.8706 130.073 67.3129 129.887 67.8863 129.887Z" fill="#1F4168"/>
<path d="M72.2796 128.528V133.656H71.2502V133.227C70.9807 133.552 70.5868 133.711 70.0892 133.711C69.039 133.711 68.2305 132.964 68.2305 131.797C68.2305 130.629 69.039 129.883 70.0892 129.883C70.5452 129.883 70.9322 130.028 71.2017 130.332V128.528H72.2796ZM71.2224 131.797C71.2224 131.154 70.8079 130.767 70.2758 130.767C69.7367 130.767 69.3222 131.154 69.3222 131.797C69.3222 132.44 69.7367 132.827 70.2758 132.827C70.8079 132.826 71.2224 132.439 71.2224 131.797Z" fill="#1F4168"/>
<path d="M76.8932 132.105H74.0808C74.1844 132.568 74.5784 132.851 75.145 132.851C75.5388 132.851 75.8222 132.734 76.0779 132.492L76.6515 133.114C76.306 133.508 75.7877 133.715 75.1175 133.715C73.8322 133.715 72.9961 132.906 72.9961 131.801C72.9961 130.688 73.8461 129.887 74.9792 129.887C76.0709 129.887 76.9139 130.619 76.9139 131.815C76.9139 131.898 76.9 132.015 76.8932 132.105ZM74.0669 131.476H75.8981C75.822 131.006 75.4696 130.702 74.986 130.702C74.4954 130.702 74.1429 130.999 74.0669 131.476Z" fill="#1F4168"/>
<path d="M79.9408 129.887V130.882C79.851 130.875 79.7819 130.868 79.6989 130.868C79.1047 130.868 78.7108 131.193 78.7108 131.905V133.66H77.6328V129.942H78.6623V130.433C78.9249 130.073 79.3672 129.887 79.9408 129.887Z" fill="#1F4168"/>
<path d="M82.4375 128.82C82.4375 128.481 82.7069 128.219 83.1077 128.219C83.5085 128.219 83.7781 128.467 83.7781 128.799C83.7781 129.158 83.5087 129.421 83.1077 129.421C82.7068 129.421 82.4375 129.159 82.4375 128.82ZM82.5688 129.939H83.6468V133.657H82.5688V129.939Z" fill="#1F4168"/>
<path d="M84.2871 133.314L84.6464 132.54C84.9779 132.754 85.4824 132.899 85.9385 132.899C86.436 132.899 86.6227 132.768 86.6227 132.561C86.6227 131.953 84.3769 132.575 84.3769 131.089C84.3769 130.384 85.0126 129.887 86.0975 129.887C86.6089 129.887 87.1755 130.004 87.528 130.211L87.1687 130.978C86.8025 130.771 86.4362 130.702 86.0977 130.702C85.6141 130.702 85.4068 130.854 85.4068 131.048C85.4068 131.683 87.6527 131.068 87.6527 132.533C87.6527 133.224 87.01 133.715 85.8975 133.715C85.2683 133.715 84.6326 133.542 84.2871 133.314Z" fill="#1F4168"/>
<path d="M90.043 131.239C90.043 129.781 91.1624 128.737 92.6687 128.737C93.5048 128.737 94.2027 129.041 94.6588 129.594L93.9403 130.258C93.6153 129.884 93.2078 129.691 92.7242 129.691C91.8189 129.691 91.1764 130.327 91.1764 131.239C91.1764 132.151 91.8189 132.786 92.7242 132.786C93.2078 132.786 93.6155 132.593 93.9403 132.213L94.6588 132.876C94.2027 133.436 93.5048 133.74 92.6617 133.74C91.1622 133.74 90.043 132.697 90.043 131.239Z" fill="#1F4168"/>
<path d="M94.9238 131.801C94.9238 130.681 95.7876 129.887 96.9692 129.887C98.1509 129.887 99.0077 130.681 99.0077 131.801C99.0077 132.92 98.1509 133.715 96.9692 133.715C95.7876 133.715 94.9238 132.92 94.9238 131.801ZM97.916 131.801C97.916 131.158 97.5082 130.771 96.9692 130.771C96.4303 130.771 96.0157 131.158 96.0157 131.801C96.0157 132.443 96.4303 132.83 96.9692 132.83C97.5081 132.83 97.916 132.443 97.916 131.801Z" fill="#1F4168"/>
<path d="M103.529 131.531V133.66H102.451V131.697C102.451 131.096 102.175 130.82 101.698 130.82C101.18 130.82 100.806 131.138 100.806 131.822V133.66H99.7285V129.942H100.758V130.377C101.048 130.06 101.484 129.887 101.988 129.887C102.866 129.887 103.529 130.398 103.529 131.531Z" fill="#1F4168"/>
<path d="M105.684 129.863V130.022H106.638V130.851H105.712V133.657H104.634V130.851H104.061V130.022H104.634V129.856C104.634 129.02 105.145 128.474 106.071 128.474C106.375 128.474 106.693 128.536 106.894 128.675L106.61 129.456C106.493 129.373 106.341 129.324 106.175 129.324C105.857 129.324 105.684 129.497 105.684 129.863ZM107.599 128.82C107.599 128.481 107.868 128.219 108.269 128.219C108.67 128.219 108.939 128.467 108.939 128.799C108.939 129.158 108.67 129.421 108.269 129.421C107.868 129.421 107.599 129.159 107.599 128.82ZM107.73 129.939H108.808V133.657H107.73V129.939Z" fill="#1F4168"/>
<path d="M112.119 129.887V130.882C112.029 130.875 111.96 130.868 111.877 130.868C111.282 130.868 110.889 131.193 110.889 131.905V133.66H109.811V129.942H110.84V130.433C111.103 130.073 111.545 129.887 112.119 129.887Z" fill="#1F4168"/>
<path d="M119.039 131.531V133.659H117.961V131.697C117.961 131.096 117.692 130.819 117.256 130.819C116.773 130.819 116.434 131.13 116.434 131.794V133.659H115.356V131.697C115.356 131.096 115.1 130.819 114.651 130.819C114.174 130.819 113.836 131.13 113.836 131.794V133.659H112.758V129.942H113.787V130.37C114.064 130.052 114.478 129.887 114.955 129.887C115.474 129.887 115.916 130.087 116.178 130.495C116.475 130.115 116.959 129.887 117.519 129.887C118.403 129.887 119.039 130.398 119.039 131.531Z" fill="#1F4168"/>
<path d="M123.669 132.105H120.856C120.96 132.568 121.354 132.851 121.92 132.851C122.314 132.851 122.598 132.734 122.853 132.492L123.427 133.114C123.081 133.508 122.563 133.715 121.893 133.715C120.608 133.715 119.771 132.906 119.771 131.801C119.771 130.688 120.622 129.887 121.755 129.887C122.846 129.887 123.69 130.619 123.69 131.815C123.689 131.898 123.675 132.015 123.669 132.105ZM120.842 131.476H122.673C122.597 131.006 122.245 130.702 121.761 130.702C121.271 130.702 120.918 130.999 120.842 131.476Z" fill="#1F4168"/>
<path d="M128.196 128.528V133.656H127.166V133.227C126.897 133.552 126.503 133.711 126.005 133.711C124.955 133.711 124.146 132.964 124.146 131.797C124.146 130.629 124.955 129.883 126.005 129.883C126.461 129.883 126.848 130.028 127.118 130.332V128.528H128.196ZM127.138 131.797C127.138 131.154 126.724 130.767 126.192 130.767C125.653 130.767 125.238 131.154 125.238 131.797C125.238 132.44 125.653 132.827 126.192 132.827C126.724 132.826 127.138 132.439 127.138 131.797Z" fill="#1F4168"/>
<path d="M129.031 133.085C129.031 132.732 129.308 132.47 129.695 132.47C130.082 132.47 130.358 132.732 130.358 133.085C130.358 133.43 130.082 133.714 129.695 133.714C129.308 133.714 129.031 133.43 129.031 133.085ZM129.052 128.821H130.337L130.123 131.979H129.266L129.052 128.821Z" fill="#1F4168"/>
<path d="M76.4609 145.279H78.37C79.7448 145.279 80.6873 146.108 80.6873 147.38C80.6873 148.653 79.7448 149.482 78.37 149.482H76.4609V145.279ZM78.3219 148.683C79.1565 148.683 79.7027 148.185 79.7027 147.38C79.7027 146.576 79.1565 146.078 78.3219 146.078H77.4334V148.683H78.3219Z" fill="white"/>
<path d="M81.1543 147.38C81.1543 146.132 82.1268 145.207 83.4536 145.207C84.7744 145.207 85.7529 146.126 85.7529 147.38C85.7529 148.635 84.7744 149.553 83.4536 149.553C82.1268 149.553 81.1543 148.629 81.1543 147.38ZM84.7684 147.38C84.7684 146.582 84.204 146.035 83.4536 146.035C82.7032 146.035 82.1389 146.582 82.1389 147.38C82.1389 148.179 82.703 148.725 83.4536 148.725C84.204 148.725 84.7684 148.179 84.7684 147.38Z" fill="white"/>
<path d="M90.3365 145.279V149.482H89.5382L87.443 146.93V149.482H86.4824V145.279H87.2868L89.3759 147.831V145.279H90.3365Z" fill="white"/>
<path d="M94.5879 148.701V149.482H91.334V145.279H94.5097V146.06H92.3004V146.972H94.2514V147.729H92.3004V148.701H94.5879V148.701Z" fill="white"/>
<path d="M185.239 215.804H85.0318C82.7069 215.804 80.8223 213.92 80.8223 211.595V189.471C80.8223 187.146 82.707 185.261 85.0318 185.261H185.239C187.564 185.261 189.448 187.146 189.448 189.471V211.595C189.448 213.92 187.564 215.804 185.239 215.804Z" fill="#F0F2F5"/>
<path d="M182.618 212.645H82.4107C80.0858 212.645 78.2012 210.76 78.2012 208.435V186.311C78.2012 183.986 80.0859 182.102 82.4107 182.102H182.618C184.943 182.102 186.827 183.986 186.827 186.311V208.435C186.827 210.76 184.943 212.645 182.618 212.645Z" fill="white"/>
<path d="M182.618 212.738H82.4114C80.0392 212.738 78.1094 210.808 78.1094 208.436V186.312C78.1094 183.94 80.0392 182.01 82.4114 182.01H182.618C184.99 182.01 186.92 183.94 186.92 186.312V208.436C186.92 210.808 184.99 212.738 182.618 212.738ZM82.4114 182.194C80.1411 182.194 78.2941 184.041 78.2941 186.311V208.436C78.2941 210.706 80.1411 212.553 82.4114 212.553H182.618C184.889 212.553 186.736 210.706 186.736 208.436V186.311C186.736 184.041 184.889 182.194 182.618 182.194H82.4114Z" fill="#1F4168"/>
<path d="M104.808 188.844H86.376C85.9835 188.844 85.6641 189.163 85.6641 189.556V204.955C85.6641 205.478 86.0892 205.903 86.6116 205.903H103.8C104.673 205.903 105.425 205.375 105.755 204.622C106.478 204.263 106.942 203.522 106.942 202.711V190.978C106.942 189.801 105.985 188.844 104.808 188.844ZM105.568 199.375H97.969C97.1569 199.375 96.4963 198.714 96.4963 197.902C96.4963 197.09 97.1569 196.429 97.969 196.429H105.568V199.375ZM106.576 202.711C106.576 203.255 106.323 203.761 105.909 204.093C105.926 203.987 105.934 203.879 105.934 203.769V199.741V196.063V192.036C105.934 190.859 104.977 189.901 103.8 189.901H86.376C86.2835 189.901 86.1967 189.865 86.1314 189.8C86.0662 189.735 86.0301 189.648 86.0301 189.556C86.0301 189.365 86.1852 189.21 86.3758 189.21H104.807C105.782 189.21 106.576 190.003 106.576 190.978V202.711H106.576Z" fill="#1F4168"/>
<path d="M97.9877 198.765C98.4641 198.765 98.8503 198.379 98.8503 197.903C98.8503 197.426 98.4641 197.04 97.9877 197.04C97.5112 197.04 97.125 197.426 97.125 197.903C97.125 198.379 97.5112 198.765 97.9877 198.765Z" fill="white"/>
<path d="M145.02 205.638H114.942C114.262 205.638 113.711 205.086 113.711 204.407V202.294C113.711 201.615 114.262 201.063 114.942 201.063H145.02C145.699 201.063 146.251 201.615 146.251 202.294V204.407C146.251 205.086 145.699 205.638 145.02 205.638Z" fill="#F0F2F5"/>
<path d="M172.517 202.861C172.407 202.861 172.297 202.819 172.214 202.735C172.046 202.568 172.046 202.297 172.214 202.129L176.239 198.104C176.435 197.907 176.544 197.645 176.544 197.367C176.544 197.089 176.435 196.827 176.239 196.63L172.214 192.605C172.046 192.437 172.046 192.166 172.214 191.999C172.381 191.831 172.652 191.831 172.82 191.999L176.845 196.024C177.204 196.383 177.401 196.86 177.401 197.367C177.401 197.874 177.204 198.352 176.845 198.71L172.82 202.735C172.736 202.819 172.627 202.861 172.517 202.861Z" fill="#F0F2F5"/>
<path d="M128.192 197.9H115.133C114.348 197.9 113.711 197.263 113.711 196.478V190.264C113.711 189.479 114.348 188.842 115.133 188.842H128.192C128.977 188.842 129.614 189.479 129.614 190.264V196.478C129.614 197.263 128.977 197.9 128.192 197.9Z" fill="#1F4168"/>
<path d="M118.135 193.355C118.02 193.287 117.894 193.23 117.756 193.185C117.642 193.148 117.527 193.117 117.411 193.09V192.273C117.495 192.284 117.582 192.3 117.67 192.324C117.83 192.367 117.985 192.432 118.135 192.518L118.38 191.933C118.226 191.837 118.046 191.764 117.84 191.713C117.698 191.678 117.555 191.655 117.411 191.644V191.118H116.926V191.653C116.735 191.673 116.567 191.714 116.425 191.778C116.216 191.872 116.06 191.998 115.958 192.156C115.855 192.315 115.804 192.49 115.804 192.682C115.804 192.857 115.839 193.004 115.908 193.12C115.976 193.237 116.069 193.331 116.186 193.404C116.302 193.475 116.43 193.533 116.569 193.576C116.689 193.613 116.808 193.645 116.927 193.672V194.475C116.785 194.462 116.645 194.433 116.505 194.387C116.306 194.321 116.137 194.237 115.996 194.135L115.732 194.72C115.883 194.835 116.082 194.929 116.329 195.001C116.522 195.056 116.721 195.09 116.926 195.102V195.626H117.411V195.089C117.594 195.067 117.757 195.027 117.895 194.965C118.106 194.869 118.264 194.742 118.368 194.586C118.471 194.429 118.523 194.256 118.523 194.068C118.523 193.895 118.487 193.75 118.416 193.634C118.344 193.517 118.25 193.424 118.135 193.355ZM116.677 192.854C116.607 192.8 116.572 192.728 116.572 192.638C116.572 192.568 116.593 192.504 116.636 192.446C116.68 192.389 116.748 192.343 116.84 192.31C116.866 192.3 116.895 192.293 116.926 192.286V192.973C116.825 192.943 116.741 192.904 116.677 192.854ZM117.684 194.31C117.639 194.362 117.57 194.405 117.476 194.437C117.456 194.444 117.434 194.449 117.411 194.454V193.797C117.506 193.828 117.585 193.866 117.646 193.911C117.716 193.964 117.752 194.035 117.752 194.125C117.751 194.195 117.729 194.257 117.684 194.31Z" fill="white"/>
<path d="M120.684 193.687C120.841 193.54 120.959 193.408 121.039 193.289C121.119 193.171 121.174 193.058 121.204 192.949C121.235 192.84 121.25 192.733 121.25 192.627C121.25 192.423 121.198 192.246 121.094 192.097C120.99 191.949 120.844 191.834 120.655 191.755C120.467 191.675 120.248 191.635 119.998 191.635C119.698 191.635 119.432 191.691 119.202 191.803C118.972 191.915 118.795 192.066 118.67 192.258L119.231 192.623C119.314 192.511 119.415 192.426 119.533 192.369C119.651 192.311 119.783 192.282 119.926 192.282C120.105 192.282 120.24 192.319 120.329 192.393C120.419 192.466 120.464 192.569 120.464 192.7C120.464 192.754 120.456 192.813 120.44 192.875C120.424 192.937 120.391 193.004 120.341 193.076C120.292 193.148 120.216 193.231 120.114 193.323L118.819 194.546V195.05H121.36V194.417H119.906L120.684 193.687Z" fill="white"/>
<path d="M123.841 193.309C123.692 193.179 123.493 193.095 123.247 193.057L124.002 192.196V191.692H121.652V192.316H123.083L122.395 193.102V193.611H122.746C122.966 193.611 123.126 193.648 123.225 193.721C123.324 193.795 123.374 193.895 123.374 194.023C123.374 194.158 123.318 194.264 123.206 194.342C123.094 194.42 122.94 194.46 122.746 194.46C122.57 194.46 122.398 194.432 122.23 194.376C122.062 194.32 121.914 194.245 121.786 194.153L121.484 194.742C121.647 194.861 121.843 194.951 122.069 195.013C122.296 195.076 122.527 195.107 122.76 195.107C123.083 195.107 123.347 195.057 123.551 194.956C123.756 194.855 123.909 194.722 124.01 194.556C124.11 194.389 124.161 194.21 124.161 194.018C124.16 193.731 124.054 193.494 123.841 193.309Z" fill="white"/>
<path d="M127.042 193.083H126.309V193.712H125.41L126.875 191.692H126.059L124.477 193.822V194.345H126.285V195.049H127.042V194.345H127.589V193.712H127.042V193.083Z" fill="white"/>
<path d="M137.549 195.787C138.882 195.787 139.962 194.706 139.962 193.373C139.962 192.04 138.882 190.959 137.549 190.959C136.216 190.959 135.135 192.04 135.135 193.373C135.135 194.706 136.216 195.787 137.549 195.787Z" fill="#1F4168"/>
<path d="M137.212 194.189L136.467 193.443L136.695 193.215L137.212 193.733L138.393 192.553L138.621 192.781L137.212 194.189Z" fill="white"/>
<path d="M185.239 255.061H85.0318C82.7069 255.061 80.8223 253.176 80.8223 250.851V228.727C80.8223 226.402 82.707 224.518 85.0318 224.518H185.239C187.564 224.518 189.448 226.402 189.448 228.727V250.851C189.448 253.176 187.564 255.061 185.239 255.061Z" fill="#F0F2F5"/>
<path d="M182.618 251.902H82.4107C80.0858 251.902 78.2012 250.017 78.2012 247.692V225.568C78.2012 223.243 80.0859 221.358 82.4107 221.358H182.618C184.943 221.358 186.827 223.243 186.827 225.568V247.692C186.827 250.017 184.943 251.902 182.618 251.902Z" fill="white"/>
<path d="M182.618 251.993H82.4114C80.0392 251.993 78.1094 250.063 78.1094 247.691V225.566C78.1094 223.195 80.0392 221.265 82.4114 221.265H182.618C184.99 221.265 186.92 223.195 186.92 225.566V247.691C186.92 250.063 184.99 251.993 182.618 251.993ZM82.4114 221.449C80.1411 221.449 78.2941 223.296 78.2941 225.566V247.691C78.2941 249.961 80.1411 251.808 82.4114 251.808H182.618C184.889 251.808 186.736 249.961 186.736 247.691V225.566C186.736 223.296 184.889 221.449 182.618 221.449H82.4114Z" fill="#1F4168"/>
<path d="M104.808 228.1H86.376C85.9835 228.1 85.6641 228.419 85.6641 228.812V244.211C85.6641 244.734 86.0892 245.159 86.6116 245.159H103.8C104.673 245.159 105.425 244.631 105.755 243.878C106.478 243.519 106.942 242.778 106.942 241.967V230.234C106.942 229.057 105.985 228.1 104.808 228.1ZM105.568 238.631H97.969C97.1569 238.631 96.4963 237.97 96.4963 237.158C96.4963 236.346 97.1569 235.685 97.969 235.685H105.568V238.631ZM106.576 241.967C106.576 242.511 106.323 243.017 105.909 243.348C105.926 243.243 105.934 243.135 105.934 243.024V238.997V235.319V231.291C105.934 230.115 104.977 229.157 103.8 229.157H86.376C86.2835 229.157 86.1967 229.121 86.1314 229.056C86.0662 228.991 86.0301 228.904 86.0301 228.812C86.0301 228.621 86.1852 228.466 86.3758 228.466H104.807C105.782 228.466 106.576 229.259 106.576 230.234V241.967H106.576Z" fill="#1F4168"/>
<path d="M97.9877 238.021C98.4641 238.021 98.8503 237.635 98.8503 237.159C98.8503 236.682 98.4641 236.296 97.9877 236.296C97.5112 236.296 97.125 236.682 97.125 237.159C97.125 237.635 97.5112 238.021 97.9877 238.021Z" fill="white"/>
<path d="M145.02 244.897H114.942C114.262 244.897 113.711 244.345 113.711 243.665V241.553C113.711 240.873 114.262 240.322 114.942 240.322H145.02C145.699 240.322 146.251 240.873 146.251 241.553V243.665C146.251 244.345 145.699 244.897 145.02 244.897Z" fill="#F0F2F5"/>
<path d="M172.517 242.131C172.407 242.131 172.297 242.09 172.214 242.006C172.046 241.838 172.046 241.567 172.214 241.4L176.239 237.374C176.645 236.968 176.645 236.307 176.239 235.901L172.214 231.875C172.046 231.708 172.046 231.437 172.214 231.269C172.381 231.102 172.652 231.102 172.82 231.269L176.845 235.294C177.586 236.035 177.586 237.24 176.845 237.981L172.82 242.006C172.736 242.09 172.627 242.131 172.517 242.131Z" fill="#F0F2F5"/>
<path d="M128.192 237.159H115.133C114.348 237.159 113.711 236.522 113.711 235.737V229.523C113.711 228.737 114.348 228.101 115.133 228.101H128.192C128.977 228.101 129.614 228.737 129.614 229.523V235.737C129.614 236.522 128.977 237.159 128.192 237.159Z" fill="#1F4168"/>
<path d="M118.135 232.613C118.02 232.544 117.894 232.488 117.756 232.443C117.642 232.406 117.527 232.375 117.411 232.348V231.531C117.495 231.541 117.582 231.558 117.67 231.582C117.83 231.625 117.985 231.69 118.135 231.776L118.38 231.191C118.226 231.095 118.046 231.022 117.84 230.971C117.698 230.935 117.555 230.913 117.411 230.902V230.376H116.926V230.911C116.735 230.931 116.567 230.972 116.425 231.035C116.216 231.13 116.06 231.256 115.958 231.414C115.855 231.573 115.804 231.748 115.804 231.939C115.804 232.115 115.839 232.262 115.908 232.378C115.976 232.495 116.069 232.589 116.186 232.661C116.302 232.733 116.43 232.791 116.569 232.834C116.689 232.871 116.808 232.903 116.927 232.93V233.733C116.785 233.72 116.645 233.691 116.505 233.644C116.306 233.579 116.137 233.495 115.996 233.393L115.732 233.978C115.883 234.093 116.082 234.186 116.329 234.258C116.522 234.314 116.721 234.348 116.926 234.36V234.884H117.411V234.347C117.594 234.325 117.757 234.285 117.895 234.222C118.106 234.126 118.264 234 118.368 233.843C118.471 233.687 118.523 233.514 118.523 233.326C118.523 233.153 118.487 233.008 118.416 232.892C118.344 232.774 118.25 232.682 118.135 232.613ZM116.677 232.112C116.607 232.058 116.572 231.986 116.572 231.896C116.572 231.826 116.593 231.762 116.636 231.704C116.68 231.647 116.748 231.601 116.84 231.568C116.866 231.558 116.895 231.55 116.926 231.543V232.23C116.825 232.201 116.741 232.161 116.677 232.112ZM117.684 233.567C117.639 233.62 117.57 233.663 117.476 233.695C117.456 233.701 117.434 233.707 117.411 233.712V233.055C117.506 233.086 117.585 233.124 117.646 233.169C117.716 233.222 117.752 233.293 117.752 233.383C117.751 233.453 117.729 233.515 117.684 233.567Z" fill="white"/>
<path d="M120.684 232.947C120.841 232.8 120.959 232.667 121.039 232.549C121.119 232.431 121.174 232.317 121.204 232.209C121.235 232.1 121.25 231.993 121.25 231.887C121.25 231.683 121.198 231.506 121.094 231.357C120.99 231.209 120.844 231.094 120.655 231.014C120.467 230.935 120.248 230.895 119.998 230.895C119.698 230.895 119.432 230.951 119.202 231.062C118.972 231.174 118.795 231.326 118.67 231.518L119.231 231.883C119.314 231.771 119.415 231.686 119.533 231.629C119.651 231.571 119.783 231.542 119.926 231.542C120.105 231.542 120.24 231.579 120.329 231.653C120.419 231.726 120.464 231.829 120.464 231.959C120.464 232.014 120.456 232.072 120.44 232.135C120.424 232.197 120.391 232.264 120.341 232.336C120.292 232.408 120.216 232.49 120.114 232.583L118.819 233.806V234.31H121.36V233.677H119.906L120.684 232.947Z" fill="white"/>
<path d="M123.841 232.57C123.692 232.441 123.493 232.357 123.247 232.318L124.002 231.458V230.954H121.652V231.578H123.083L122.395 232.364V232.872H122.746C122.966 232.872 123.126 232.909 123.225 232.983C123.324 233.056 123.374 233.157 123.374 233.285C123.374 233.419 123.318 233.525 123.206 233.604C123.094 233.682 122.94 233.721 122.746 233.721C122.57 233.721 122.398 233.693 122.23 233.637C122.062 233.582 121.914 233.507 121.786 233.414L121.484 234.004C121.647 234.122 121.843 234.213 122.069 234.275C122.296 234.337 122.527 234.369 122.76 234.369C123.083 234.369 123.347 234.318 123.551 234.218C123.756 234.117 123.909 233.983 124.01 233.817C124.11 233.651 124.161 233.472 124.161 233.28C124.16 232.992 124.054 232.756 123.841 232.57Z" fill="white"/>
<path d="M127.042 232.345H126.309V232.973H125.41L126.875 230.954H126.059L124.477 233.084V233.606H126.285V234.311H127.042V233.606H127.589V232.973H127.042V232.345Z" fill="white"/>
<path d="M137.549 235.071C138.882 235.071 139.962 233.99 139.962 232.657C139.962 231.324 138.882 230.243 137.549 230.243C136.216 230.243 135.135 231.324 135.135 232.657C135.135 233.99 136.216 235.071 137.549 235.071Z" fill="#1F4168"/>
<path d="M137.212 233.483L136.467 232.737L136.695 232.509L137.212 233.027L138.393 231.847L138.621 232.075L137.212 233.483Z" fill="white"/>
<path d="M187.566 141.888L180.992 149.704C180.992 149.704 147.536 166.067 144.176 171.326C144.176 171.326 139.548 173.383 142.836 199.218L138.876 244.917C138.876 244.917 131.646 262.06 144.124 267.891L162.059 276.148C162.74 276.461 163.523 276.46 164.203 276.145L163.692 287.718H276.925L271.101 254.447L269.437 225.323L278.568 241.161L278.689 244.333C278.753 246 279.519 247.561 280.798 248.631C285.505 252.57 297.438 261.419 305.467 257.438C315.661 252.383 317.632 223.771 298.1 208.95C298.1 208.95 282.387 154.401 277.161 155.301C277.161 155.301 278.677 151.901 237.73 142.617L227.372 134.209L187.566 141.888Z" fill="#F9A21B"/>
<path d="M218.928 131.16C222.095 130.464 225.381 131.651 227.373 134.21C227.373 134.21 231.168 138.629 227.711 148.718C227.711 148.718 218.08 202.019 220.362 233.703C220.362 233.703 224.417 263.032 232.402 287.718H195.141L198.96 230.534C198.96 230.534 183.617 170.075 186.969 143.9C187.421 140.372 190.037 137.508 193.511 136.745L218.928 131.16Z" fill="#1F4168"/>
<path d="M172.221 96.7114C172.221 96.7114 170.917 103.823 172.48 107.314C174.043 110.805 175.815 109.484 175.815 109.484C175.815 109.484 171.335 102.946 172.729 96.5479L172.221 96.7114Z" fill="#1B1B2F"/>
<path d="M222.673 112.18L235.934 99.0215C235.934 99.0215 238.119 106.83 233.666 112.683C230.895 116.324 232.817 119.766 232.817 119.766C232.817 119.766 228.661 119.575 229.643 115.478C229.643 115.478 229.64 115.483 229.636 115.49C229.498 115.726 228.128 117.011 228.242 120.987C228.242 120.987 226.724 120.987 226.215 119.783C225.859 118.939 226.234 118.131 226.234 118.131C225.206 118.953 223.75 119.44 222.731 118.93L224.276 116.831C223.893 117.315 222.708 118.595 220.499 119.169C217.347 119.989 215.502 118.621 215.502 118.621L222.673 112.18Z" fill="#1B1B2F"/>
<path d="M191.623 116.801V140.579C195.754 147.153 208.48 152.198 208.48 152.198C208.48 152.198 218.432 144.478 222.859 136.986V116.801H191.623Z" fill="#FFC89F"/>
<path d="M202.377 138.641C213.866 138.641 223.179 129.327 223.179 117.838V92.4256C223.179 80.9365 213.866 71.623 202.377 71.623C190.888 71.623 181.574 80.9367 181.574 92.4256V117.839C181.574 129.327 190.888 138.641 202.377 138.641Z" fill="#FFC89F"/>
<path d="M191.623 135.66V139.075C191.623 139.075 197.964 139.217 202.483 137.029C202.483 137.029 198.084 138.642 191.623 135.66Z" fill="#FF9A6C"/>
<path d="M185.828 102.747C186.324 102.251 186.937 101.873 187.595 101.612C188.252 101.35 188.967 101.207 189.68 101.226C189.859 101.214 190.035 101.253 190.213 101.265L190.478 101.293C190.566 101.305 190.652 101.33 190.739 101.349C190.912 101.391 191.085 101.43 191.257 101.476C191.423 101.536 191.589 101.6 191.753 101.665L192 101.762L192.234 101.887L192.699 102.136C192.994 102.328 193.276 102.539 193.555 102.747C193.243 102.585 192.951 102.397 192.64 102.244L192.167 102.03L191.932 101.924L191.685 101.845C191.521 101.794 191.358 101.742 191.196 101.686L190.693 101.581C190.609 101.566 190.526 101.542 190.442 101.532L190.187 101.508C190.017 101.498 189.847 101.462 189.677 101.476C188.994 101.451 188.312 101.581 187.661 101.792C187.496 101.842 187.34 101.913 187.178 101.973C187.021 102.044 186.865 102.117 186.712 102.196C186.402 102.352 186.108 102.538 185.828 102.747Z" fill="#1B1B2F"/>
<path d="M209.347 104.079C210.381 104.079 211.22 103.241 211.22 102.206C211.22 101.172 210.381 100.334 209.347 100.334C208.313 100.334 207.475 101.172 207.475 102.206C207.475 103.241 208.313 104.079 209.347 104.079Z" fill="#1B1B2F"/>
<path d="M205.482 100.399C205.978 99.9035 206.591 99.5256 207.249 99.2642C207.907 99.0024 208.621 98.859 209.334 98.8784C209.513 98.8659 209.69 98.9052 209.867 98.9174L210.133 98.9454C210.221 98.9574 210.307 98.982 210.393 99.0014C210.566 99.0439 210.74 99.0824 210.911 99.128C211.077 99.1888 211.243 99.2527 211.408 99.3176L211.654 99.4148L211.888 99.5395L212.354 99.7888C212.648 99.9801 212.93 100.191 213.209 100.399C212.897 100.238 212.605 100.049 212.294 99.8962L211.821 99.6828L211.586 99.5761L211.34 99.4976C211.175 99.4463 211.012 99.3939 210.85 99.3384L210.347 99.2337C210.263 99.2188 210.181 99.1941 210.096 99.1841L209.841 99.1605C209.671 99.1508 209.502 99.1144 209.331 99.1284C208.648 99.1037 207.967 99.2333 207.315 99.4442C207.151 99.4941 206.994 99.5656 206.832 99.6252C206.676 99.6962 206.519 99.7694 206.366 99.8488C206.056 100.004 205.762 100.19 205.482 100.399Z" fill="#1B1B2F"/>
<path d="M197.285 108.234C197.223 109.043 197.134 109.849 197.04 110.654C196.95 111.459 196.84 112.261 196.73 113.063C196.671 113.469 196.605 113.853 196.638 114.246C196.657 114.638 196.749 115.025 196.899 115.386C197.053 115.743 197.288 116.076 197.615 116.289C197.952 116.513 198.296 116.728 198.631 116.957C198.267 116.776 197.912 116.583 197.552 116.394C197.183 116.185 196.912 115.839 196.725 115.467C196.537 115.092 196.437 114.678 196.402 114.263C196.359 113.845 196.429 113.423 196.483 113.028C196.599 112.227 196.715 111.426 196.851 110.627C196.984 109.828 197.12 109.029 197.285 108.234Z" fill="#1B1B2F"/>
<path d="M204.114 119.8C204.029 120.221 203.868 120.626 203.646 121.006C203.206 121.764 202.448 122.424 201.51 122.734C200.572 123.049 199.524 122.967 198.723 122.569C197.913 122.176 197.283 121.574 196.938 120.741C197.45 120.706 197.905 120.701 198.316 120.691C198.623 120.686 198.903 120.676 199.169 120.653C199.324 120.651 199.469 120.616 199.611 120.611C199.749 120.583 199.884 120.573 200.009 120.543C200.262 120.493 200.497 120.438 200.724 120.361C201.184 120.211 201.657 119.988 202.21 119.673C202.675 119.408 203.16 119.085 203.756 118.717C203.871 118.645 203.991 118.572 204.113 118.497C204.224 118.945 204.191 119.378 204.114 119.8Z" fill="#E43F5A"/>
<path d="M203.757 118.717C203.681 118.919 203.587 119.119 203.474 119.312C203.039 120.062 202.293 120.713 201.365 121.02C200.443 121.331 199.407 121.246 198.617 120.855C198.514 120.805 198.414 120.75 198.316 120.69C198.624 120.685 198.904 120.675 199.169 120.653C199.324 120.65 199.469 120.615 199.612 120.61C199.749 120.583 199.885 120.573 200.01 120.543C200.262 120.493 200.497 120.438 200.725 120.36C201.185 120.21 201.658 119.987 202.211 119.672C202.676 119.407 203.161 119.085 203.757 118.717Z" fill="white"/>
<path d="M185.828 97.8648C185.912 97.4289 186.125 97.0612 186.376 96.7321C186.504 96.571 186.646 96.4201 186.798 96.2785C186.874 96.2091 186.955 96.1461 187.037 96.0823C187.12 96.0202 187.2 95.9487 187.29 95.8991C187.986 95.4464 188.842 95.1955 189.696 95.2189C189.911 95.2066 190.12 95.2515 190.331 95.2762L190.644 95.3289C190.747 95.3519 190.847 95.3861 190.946 95.4187C191.146 95.4846 191.343 95.5551 191.533 95.6376C191.716 95.7364 191.895 95.8402 192.066 95.9521C192.153 96.0064 192.237 96.0659 192.319 96.1251C192.396 96.1929 192.473 96.258 192.546 96.3312C192.694 96.4708 192.834 96.6191 192.966 96.7699C193.095 96.925 193.2 97.108 193.301 97.2878C193.402 97.4676 193.487 97.6605 193.555 97.8648C193.101 97.9025 192.732 97.8658 192.373 97.8467C192.192 97.8433 192.019 97.8373 191.855 97.8227C191.771 97.8188 191.692 97.8069 191.613 97.7975C191.532 97.7963 191.45 97.7993 191.372 97.795C191.215 97.7905 191.065 97.778 190.919 97.7607C190.771 97.7591 190.626 97.7599 190.486 97.7482C190.415 97.7465 190.346 97.7312 190.276 97.7322C190.207 97.735 190.138 97.7333 190.069 97.7333L189.864 97.7239C189.796 97.714 189.728 97.7144 189.661 97.7195C189.118 97.6988 188.579 97.721 187.966 97.741C187.345 97.7597 186.69 97.8141 185.828 97.8648Z" fill="#1B1B2F"/>
<path d="M205.482 95.1822C205.567 94.7463 205.78 94.3786 206.03 94.0495C206.158 93.8884 206.3 93.7374 206.452 93.5959C206.528 93.5265 206.61 93.4635 206.692 93.3997C206.774 93.3376 206.854 93.2661 206.944 93.2165C207.641 92.7638 208.496 92.5129 209.351 92.5363C209.565 92.524 209.774 92.5689 209.985 92.5936L210.298 92.6463C210.401 92.6693 210.501 92.7034 210.601 92.7361C210.8 92.8019 210.998 92.8725 211.187 92.955C211.37 93.0538 211.549 93.1576 211.721 93.2695C211.807 93.3238 211.891 93.3833 211.973 93.4425C212.05 93.5102 212.128 93.5754 212.2 93.6486C212.349 93.7882 212.488 93.9365 212.62 94.0872C212.75 94.2423 212.854 94.4254 212.955 94.6052C213.056 94.7852 213.142 94.9778 213.209 95.1822C212.755 95.2199 212.386 95.1831 212.028 95.1641C211.847 95.1607 211.674 95.1546 211.509 95.1401C211.425 95.1361 211.346 95.1243 211.267 95.1148C211.186 95.1137 211.104 95.1167 211.027 95.1124C210.87 95.1079 210.72 95.0954 210.574 95.078C210.425 95.0765 210.281 95.0773 210.14 95.0656C210.069 95.0639 210 95.0488 209.931 95.0495C209.861 95.0524 209.792 95.0507 209.723 95.0509L209.519 95.0414C209.451 95.0316 209.383 95.032 209.315 95.0371C208.773 95.0163 208.233 95.0386 207.62 95.0586C206.999 95.0773 206.345 95.1314 205.482 95.1822Z" fill="#1B1B2F"/>
<path d="M213.15 80.7312C211.9 77.8766 208.712 76.375 205.739 77.3086C203.501 78.0111 200.801 79.88 198.003 84.1505C197.019 85.6523 196.197 87.2704 195.495 88.9477C194.238 91.9504 190.438 99.238 182.355 101.861L181.575 114.048L181.274 113.913C176.625 110.326 173.394 104.951 172.323 98.8757C172.242 98.4148 172.165 97.9429 172.095 97.4606C172.095 97.4606 172.315 99.0448 171.018 100.16C169.841 101.172 168.053 100.733 168.053 100.733C168.053 100.733 171.4 96.4753 169.836 88.8669C168.424 81.9941 171.381 77.5773 177.608 74.1823C177.608 74.1823 173.064 74.7659 172.263 70.5501C172.263 70.5501 182.236 74.9452 189.066 66.8628C197.453 56.9387 208.215 58.4775 210.645 67.4129C210.645 67.4129 212.937 62.3165 216.809 65.3101C220.68 68.304 224.539 73.1859 230.84 75.8735C237.141 78.5613 232.509 95.4483 242.059 99.2137C242.059 99.2137 236.932 101.48 235.227 95.802C235.227 95.802 240.549 108.356 223.078 116.801L224.358 104.678C224.358 104.678 217.128 103.275 215.828 94.645C214.829 88.0088 214.605 84.0517 213.15 80.7312Z" fill="#1B1B2F"/>
<path d="M210.586 67.3931C210.67 66.94 210.807 66.5013 210.985 66.0745C211.161 65.6468 211.382 65.2334 211.65 64.8422C211.911 64.4464 212.241 64.0892 212.617 63.7681C212.995 63.4499 213.446 63.1962 213.936 63.036C214.426 62.8697 214.956 62.825 215.465 62.8722C215.976 62.9144 216.465 63.0512 216.918 63.243C217.826 63.6309 218.571 64.2392 219.228 64.8902C219.878 65.5532 220.446 66.2696 220.997 66.9878C221.541 67.7116 222.088 68.425 222.622 69.1503C223.168 69.8677 223.666 70.6251 224.288 71.214C224.591 71.5166 224.936 71.7645 225.285 71.9993C225.468 72.1079 225.65 72.2157 225.836 72.3178C226.029 72.4132 226.213 72.5174 226.409 72.6053C227.963 73.3382 229.67 73.8329 231.372 74.3063C231.782 74.4223 232.263 74.5537 232.715 74.7424C233.17 74.9295 233.617 75.1697 234.027 75.4803C234.438 75.7888 234.809 76.1733 235.093 76.6137C235.383 77.0507 235.581 77.536 235.707 78.0211C235.953 78.9972 235.954 79.9559 235.888 80.8729C235.82 81.792 235.695 82.6837 235.576 83.5672C235.345 85.3291 235.148 87.0899 235.495 88.8483L235.375 88.8839C235.036 88.0413 234.863 87.1312 234.779 86.2225C234.7 85.3119 234.705 84.3983 234.74 83.4981C234.766 82.5969 234.826 81.706 234.825 80.8348C234.818 79.9672 234.773 79.1102 234.53 78.357C234.407 77.9834 234.249 77.6343 234.031 77.3324C233.816 77.0283 233.548 76.7675 233.24 76.543C232.931 76.32 232.579 76.139 232.207 75.9845C231.831 75.8305 231.446 75.7279 230.998 75.5877C230.564 75.458 230.134 75.3163 229.705 75.1641L229.061 74.9392L228.423 74.6907C227.574 74.3516 226.726 73.9897 225.924 73.5036C225.121 73.0295 224.375 72.398 223.796 71.6547C223.22 70.9079 222.805 70.1103 222.299 69.3801C221.311 67.9016 220.068 66.5747 218.656 65.5526C217.955 65.0421 217.228 64.5903 216.482 64.2805C216.109 64.1301 215.732 64.0022 215.35 63.9581C214.969 63.9077 214.59 63.9316 214.22 64.016C213.478 64.1926 212.791 64.6743 212.21 65.2909C211.631 65.911 211.128 66.6459 210.706 67.4314L210.586 67.3931Z" fill="#1B1B2F"/>
<path d="M211.43 78.3464C210.476 77.849 209.412 77.7797 208.394 77.9137C207.37 78.0456 206.385 78.3986 205.426 78.8158C204.467 79.2336 203.506 79.7215 202.655 80.3725C201.802 81.0195 201.048 81.7904 200.369 82.6157L199.868 83.2424L199.384 83.8809C199.057 84.3014 198.748 84.7373 198.432 85.1654C198.131 85.6058 197.817 86.036 197.53 86.4862L197.087 87.1512L196.654 87.8244C195.479 89.6065 194.379 91.4424 193.222 93.2717L193.154 93.2389C193.878 91.1958 194.842 89.2448 195.979 87.3949C196.55 86.4711 197.193 85.5924 197.866 84.7385C198.543 83.888 199.271 83.0758 200.068 82.3352C200.864 81.5931 201.673 80.877 202.504 80.1819C203.336 79.4922 204.179 78.7845 205.153 78.2539C205.641 77.9939 206.154 77.7714 206.692 77.6229C206.958 77.5399 207.233 77.4846 207.506 77.426C207.784 77.3852 208.061 77.3443 208.343 77.3343C208.903 77.306 209.472 77.3497 210.014 77.5014C210.555 77.6495 211.074 77.9071 211.475 78.2856L211.43 78.3464Z" fill="#1B1B2F"/>
<path d="M224.823 104.717C223.411 104.862 221.96 104.743 220.568 104.356C219.873 104.161 219.194 103.893 218.552 103.547C217.909 103.206 217.306 102.779 216.779 102.273C215.715 101.261 214.998 99.9594 214.507 98.6282C214.01 97.2913 213.722 95.8907 213.572 94.4724C213.422 93.0531 213.445 91.614 213.616 90.1979C213.785 88.8058 213.872 87.4227 213.851 86.0401C213.843 84.6593 213.698 83.282 213.356 81.9518C213.175 81.2905 212.948 80.6391 212.637 80.0248C212.326 79.4149 211.949 78.8172 211.434 78.3521L211.474 78.2891C211.788 78.4732 212.055 78.7172 212.303 78.9793C212.55 79.2417 212.775 79.5266 212.973 79.8291C213.176 80.1295 213.353 80.4463 213.508 80.7731C213.67 81.0976 213.803 81.4344 213.926 81.775C214.407 83.143 214.612 84.5902 214.655 86.0244C214.685 87.4599 214.54 88.8952 214.309 90.2917C214.103 91.6672 213.954 93.054 213.963 94.4497C213.976 95.8411 214.194 97.2504 214.738 98.5367C215.011 99.1774 215.362 99.7826 215.782 100.329C216.201 100.876 216.683 101.365 217.201 101.804C217.719 102.244 218.281 102.628 218.871 102.966C219.465 103.299 220.093 103.576 220.741 103.803C222.041 104.261 223.418 104.503 224.822 104.642L224.823 104.717Z" fill="#1B1B2F"/>
<path d="M170.134 89.8753C169.924 89.4987 169.756 89.1066 169.596 88.7108C169.447 88.3125 169.336 87.9022 169.226 87.4913C169.124 87.0788 169.062 86.6564 168.999 86.2354C168.944 85.8126 168.936 85.3827 168.949 84.9561C169.022 84.0957 169.231 83.2547 169.393 82.4281C169.54 81.5985 169.665 80.7669 169.854 79.9209C169.9 79.7092 169.946 79.4956 170.017 79.289C170.084 79.0812 170.138 78.8657 170.231 78.6667C170.317 78.464 170.409 78.2629 170.511 78.0672C170.62 77.8748 170.732 77.6834 170.848 77.4938C171.327 76.7468 171.929 76.0587 172.651 75.5313C173.374 75.0066 174.183 74.6122 175.025 74.3699C175.868 74.135 176.74 74.0069 177.606 74.1196L177.617 74.2441C176.833 74.5518 176.095 74.8939 175.4 75.2805C174.708 75.6726 174.061 76.1064 173.465 76.59C172.869 77.0712 172.296 77.5831 171.806 78.1855L171.453 78.6491C171.336 78.8054 171.24 78.9754 171.12 79.1333C170.91 79.465 170.674 79.7946 170.496 80.1571C170.295 80.5099 170.148 80.8918 170.016 81.2781C169.913 81.6724 169.811 82.0707 169.792 82.4813C169.708 83.2991 169.903 84.1248 169.991 84.9235C170.059 85.3252 170.084 85.7258 170.106 86.1294C170.148 86.5318 170.159 86.9377 170.189 87.3449C170.225 87.7511 170.237 88.163 170.253 88.5781C170.273 88.9928 170.286 89.4115 170.255 89.8453L170.134 89.8753Z" fill="#1B1B2F"/>
<path d="M225.218 117.015H224.136C221.998 117.015 220.266 115.282 220.266 113.145V106.236C220.266 104.099 221.998 102.366 224.136 102.366H225.218C227.355 102.366 229.088 104.099 229.088 106.236V113.145C229.088 115.282 227.355 117.015 225.218 117.015Z" fill="#FFC89F"/>
<path d="M223.484 104.661C223.857 104.612 224.241 104.635 224.619 104.715C224.993 104.805 225.356 104.96 225.687 105.17C226.348 105.591 226.87 106.245 227.132 106.996C227.256 107.372 227.339 107.766 227.336 108.162C227.334 108.548 227.321 108.909 227.3 109.284C227.264 110.027 227.209 110.77 227.105 111.513C227.001 110.77 226.947 110.027 226.91 109.284C226.884 108.916 226.888 108.534 226.863 108.177C226.853 107.829 226.776 107.487 226.661 107.162C226.555 106.833 226.387 106.525 226.182 106.245C225.982 105.961 225.739 105.704 225.462 105.487C225.184 105.273 224.879 105.086 224.545 104.948C224.211 104.811 223.856 104.723 223.484 104.661Z" fill="#FF9A6C"/>
<path d="M224.92 112.587C224.702 112.492 224.528 112.339 224.379 112.165C224.233 111.99 224.119 111.788 224.039 111.574C223.959 111.36 223.916 111.132 223.912 110.904C223.912 110.675 223.945 110.446 224.049 110.231C224.154 110.445 224.225 110.642 224.299 110.835L224.508 111.401L224.717 111.966C224.786 112.161 224.861 112.357 224.92 112.587Z" fill="#FF9A6C"/>
<path d="M235.322 95.5527C235.888 96.1205 236.292 96.7935 236.632 97.4913C236.798 97.8422 236.946 98.2019 237.069 98.5702C237.198 98.9368 237.294 99.3144 237.348 99.7008C237.456 100.476 237.406 101.269 237.456 102.031C237.502 102.796 237.609 103.551 237.707 104.328L237.766 104.915C237.778 105.111 237.784 105.309 237.786 105.506C237.792 105.704 237.772 105.901 237.758 106.098C237.746 106.296 237.717 106.492 237.687 106.689C237.638 107.084 237.548 107.473 237.456 107.863C237.34 108.246 237.223 108.631 237.047 108.993C236.891 109.363 236.678 109.705 236.47 110.046C236.237 110.372 236.013 110.703 235.735 110.99C235.603 111.139 235.467 111.283 235.326 111.421C235.18 111.556 235.029 111.685 234.878 111.811C234.733 111.942 234.568 112.054 234.404 112.163C234.239 112.272 234.073 112.376 233.903 112.473L233.816 112.383C234.608 111.041 235.324 109.806 235.819 108.468C235.963 108.143 236.068 107.804 236.205 107.474C236.313 107.135 236.442 106.799 236.529 106.45C236.58 106.277 236.626 106.102 236.662 105.925C236.698 105.748 236.75 105.573 236.789 105.394C236.826 105.215 236.867 105.036 236.914 104.856L237.023 104.31C237.158 103.576 237.188 102.817 237.056 102.08C236.931 101.339 236.59 100.645 236.336 99.9527C236.207 99.6053 236.1 99.2545 236.006 98.8985C235.907 98.544 235.811 98.1879 235.718 97.8285C235.529 97.1101 235.349 96.3848 235.212 95.6131L235.322 95.5527Z" fill="#1B1B2F"/>
<path d="M199.809 60.3081C198.906 60.5834 198.045 60.8714 197.2 61.1887C196.779 61.3533 196.359 61.5106 195.947 61.6882C195.843 61.7301 195.741 61.7748 195.636 61.8142C195.533 61.8586 195.432 61.9084 195.328 61.9499C195.123 62.0397 194.91 62.1133 194.7 62.1972C194.286 62.3718 193.846 62.5105 193.43 62.7035C193.22 62.7948 193.007 62.8867 192.803 62.9924C192.602 63.1042 192.405 63.2229 192.212 63.3475C192.115 63.4107 192.018 63.472 191.924 63.5388C191.833 63.608 191.744 63.6818 191.657 63.7562C191.48 63.9035 191.308 64.0563 191.139 64.212C190.964 64.3609 190.822 64.5452 190.67 64.7179C190.517 64.8903 190.375 65.0715 190.228 65.2471C189.949 65.6121 189.705 66.0042 189.429 66.3625C189.15 66.7374 188.841 67.1159 188.538 67.4872C188.208 67.8402 187.88 68.1991 187.517 68.5291C187.145 68.8514 186.769 69.1701 186.331 69.4211C185.482 69.9377 184.494 70.3181 183.457 70.3473C182.436 70.3801 181.368 70.079 180.689 69.3414L180.767 69.2435C181.629 69.578 182.527 69.5663 183.336 69.3699C183.744 69.2731 184.136 69.1203 184.517 68.9399L184.659 68.8752L184.797 68.7935L185.074 68.6361C185.166 68.581 185.261 68.5382 185.35 68.4765L185.616 68.2931C185.983 68.0718 186.316 67.7855 186.674 67.5316C186.855 67.4091 187.011 67.2457 187.182 67.1046C187.349 66.9578 187.523 66.8183 187.688 66.6666C188.006 66.3459 188.319 66.0321 188.662 65.7151C188.837 65.5507 189.015 65.3894 189.196 65.2328C189.379 65.0775 189.549 64.912 189.74 64.7675C190.126 64.4826 190.488 64.1798 190.863 63.8945C191.053 63.7537 191.239 63.6101 191.421 63.4611L191.693 63.2365C191.788 63.168 191.88 63.0944 191.973 63.0224C192.158 62.8767 192.339 62.725 192.517 62.5667C192.696 62.4093 192.889 62.2712 193.071 62.1146C193.434 61.7969 193.833 61.5284 194.237 61.2631C194.442 61.1351 194.66 61.0319 194.876 60.9257C194.984 60.8719 195.094 60.8244 195.204 60.7751L195.544 60.6515C195.995 60.4798 196.462 60.3564 196.932 60.2525C197.405 60.1585 197.883 60.0896 198.365 60.0766C198.846 60.0555 199.331 60.0774 199.809 60.183L199.809 60.3081Z" fill="#1B1B2F"/>
<path d="M175.16 73.9221C175.826 74.0895 176.501 74.1995 177.18 74.2506C177.857 74.3134 178.536 74.3176 179.211 74.284C180.558 74.2066 181.894 73.9502 183.15 73.4709C183.781 73.2413 184.394 72.9609 184.979 72.6273C185.279 72.4739 185.558 72.2843 185.847 72.1098L186.262 71.8209C186.403 71.7273 186.541 71.6299 186.673 71.5241C187.748 70.7039 188.735 69.7554 189.636 68.7178C188.891 69.872 187.981 70.9339 186.916 71.8294C186.658 72.0628 186.37 72.2611 186.093 72.472C185.802 72.6628 185.519 72.8687 185.214 73.0387C184.615 73.3974 183.978 73.693 183.324 73.9398C182.013 74.4295 180.613 74.6746 179.221 74.6729C177.831 74.6725 176.436 74.4425 175.16 73.9221Z" fill="#1F4168"/>
<path d="M170.941 100.221C171.255 99.9008 171.489 99.5246 171.665 99.1261C171.845 98.7295 171.982 98.3168 172.075 97.8938C172.171 97.4717 172.232 97.0413 172.265 96.6088L172.304 95.9581L172.291 95.3039C172.297 95.0858 172.279 94.8677 172.259 94.6495L172.208 93.9944C172.147 93.5595 172.095 93.1225 172.027 92.6863C171.94 92.2538 171.88 91.814 171.79 91.3792C171.697 90.9449 171.602 90.5098 171.528 90.0654C171.708 90.4754 171.866 90.8949 172.027 91.3151C172.174 91.7391 172.288 92.1744 172.41 92.608C172.524 93.0438 172.587 93.492 172.678 93.935L172.746 94.6112C172.77 94.8367 172.793 95.0624 172.791 95.2905C172.828 96.1977 172.721 97.1219 172.449 97.9974C172.318 98.4362 172.119 98.8559 171.879 99.2444C171.634 99.628 171.327 99.9854 170.941 100.221Z" fill="#1F4168"/>
<path d="M188.15 98.7783C187.459 99.54 186.647 100.188 185.787 100.758C185.357 101.046 184.907 101.301 184.448 101.542C183.986 101.778 183.509 101.983 183.024 102.169C182.048 102.525 181.024 102.772 179.983 102.833C178.945 102.904 177.893 102.783 176.918 102.462C177.938 102.579 178.95 102.584 179.944 102.444C180.44 102.371 180.934 102.286 181.417 102.151C181.902 102.026 182.382 101.881 182.85 101.7C183.793 101.357 184.702 100.917 185.584 100.426C186.465 99.9295 187.322 99.384 188.15 98.7783Z" fill="#1F4168"/>
<path d="M200.888 74.1895C199.08 75.105 197.663 76.5882 196.592 78.2562C196.056 79.0938 195.585 79.9736 195.168 80.8804C194.746 81.7852 194.364 82.7105 194.005 83.6467C193.272 85.5136 192.618 87.4219 191.8 89.2737C191.392 90.1992 190.939 91.1096 190.401 91.9708C189.854 92.8229 189.233 93.6408 188.463 94.2957C189.153 93.5597 189.72 92.7289 190.19 91.8468C190.669 90.97 191.067 90.0513 191.44 89.1224C192.177 87.2599 192.809 85.3494 193.539 83.4654C194.278 81.5891 195.099 79.714 196.27 78.0392C196.852 77.2035 197.525 76.4254 198.298 75.7606C199.077 75.1053 199.946 74.5544 200.888 74.1895Z" fill="#1F4168"/>
<path d="M200.887 74.1909C201.318 73.9594 201.762 73.7464 202.208 73.5317C202.673 73.3732 203.137 73.1888 203.618 73.0658C203.861 73.0128 204.104 72.9607 204.349 72.9136C204.472 72.8928 204.593 72.8573 204.718 72.8486L205.092 72.8183C205.343 72.8034 205.593 72.7718 205.844 72.7809L206.598 72.8228C206.725 72.8247 206.848 72.8571 206.972 72.8796L207.344 72.952C207.594 72.9892 207.833 73.0737 208.073 73.1543C208.192 73.196 208.312 73.2337 208.43 73.2788L208.772 73.4407L209.113 73.6039L209.433 73.806C210.28 74.3417 211.009 75.0772 211.454 75.9578C210.836 75.1959 210.072 74.5893 209.235 74.1426C208.397 73.697 207.481 73.4264 206.543 73.3196L205.835 73.269C205.599 73.2545 205.361 73.2879 205.123 73.2896L204.766 73.3009C204.647 73.303 204.53 73.332 204.412 73.3462C204.175 73.383 203.938 73.4149 203.7 73.4458C203.46 73.4713 203.232 73.5541 202.995 73.6006L202.287 73.7626C201.826 73.9106 201.363 74.06 200.887 74.1909Z" fill="#1F4168"/>
<path d="M236.473 103.069C236.398 102.088 236.324 101.117 236.127 100.177C235.932 99.2355 235.603 98.3437 235.181 97.4705C234.98 97.0288 234.763 96.5895 234.566 96.1359C234.373 95.682 234.186 95.2216 234.039 94.7487C233.733 93.8061 233.54 92.8326 233.445 91.8545C233.744 92.7926 234.039 93.7189 234.405 94.6146C234.769 95.5116 235.209 96.3693 235.634 97.2596C235.837 97.7094 236.037 98.1675 236.186 98.6468L236.294 99.0068C236.328 99.1274 236.352 99.2509 236.381 99.3726C236.407 99.4951 236.44 99.616 236.46 99.7396L236.511 100.111C236.641 101.101 236.604 102.096 236.473 103.069Z" fill="#1F4168"/>
<path d="M228.074 102.363C226.64 101.848 225.319 101.031 224.133 100.063C222.946 99.093 221.894 97.9493 221.027 96.6793C220.157 95.411 219.472 94.0171 218.99 92.5627C218.507 91.108 218.227 89.5936 218.139 88.0771C218.42 89.5704 218.823 91.0286 219.357 92.4307C219.636 93.1269 219.929 93.8177 220.286 94.4756C220.453 94.8102 220.644 95.1317 220.829 95.4566C221.029 95.7725 221.221 96.0932 221.439 96.3968C222.274 97.6369 223.277 98.7599 224.386 99.7681C224.944 100.269 225.528 100.743 226.143 101.178C226.754 101.62 227.397 102.018 228.074 102.363Z" fill="#1F4168"/>
<path d="M211.482 69.9024C211.321 69.1722 211.289 68.4054 211.448 67.6452C211.529 67.2657 211.678 66.8865 211.932 66.5519C212.182 66.2134 212.598 65.9812 213.017 65.9191C213.44 65.8612 213.847 65.9383 214.221 66.0561C214.586 66.1974 214.941 66.3529 215.257 66.5636C215.903 66.9646 216.475 67.455 216.988 67.9982C216.344 67.6169 215.719 67.2248 215.069 66.9055C214.427 66.5955 213.727 66.3197 213.093 66.4133C212.781 66.455 212.501 66.6023 212.296 66.8527C212.081 67.0948 211.938 67.4142 211.823 67.7467C211.61 68.4226 211.526 69.1592 211.482 69.9024Z" fill="#1F4168"/>
<path d="M210.649 71.7689C210.287 71.0496 209.809 70.4009 209.256 69.8317C208.71 69.2556 208.089 68.7577 207.423 68.338C206.088 67.4972 204.565 66.9906 203.007 66.7551C201.448 66.5078 199.848 66.5625 198.299 66.8925C197.527 67.0636 196.763 67.2944 196.027 67.5999C195.287 67.8965 194.574 68.2676 193.906 68.7167C195.132 67.6652 196.634 66.938 198.209 66.517C199.788 66.0968 201.462 66.0144 203.082 66.2619C203.891 66.388 204.69 66.5895 205.462 66.8716C206.226 67.1699 206.969 67.5346 207.64 68.0099C208.986 68.9401 210.098 70.2477 210.649 71.7689Z" fill="#1F4168"/>
<path d="M176.361 92.7997C175.697 92.4704 175.203 91.8323 174.915 91.1317C174.852 90.9532 174.794 90.7709 174.741 90.5873L174.642 90.0247C174.618 89.6466 174.603 89.2654 174.65 88.8914C174.668 88.7035 174.687 88.5158 174.735 88.3346L174.857 87.7867C174.907 87.6071 174.977 87.4342 175.036 87.258C175.099 87.0838 175.153 86.9052 175.234 86.7387C175.396 86.4061 175.55 86.071 175.735 85.7536C175.934 85.4434 176.131 85.1342 176.346 84.8389C176.228 85.1887 176.091 85.5244 175.957 85.8595C175.827 86.1961 175.726 86.5423 175.599 86.8761C175.501 87.2193 175.402 87.5605 175.316 87.9033C175.26 88.2507 175.158 88.5924 175.148 88.942C175.065 89.6341 175.091 90.3385 175.283 91.0047C175.483 91.6642 175.823 92.3014 176.361 92.7997Z" fill="#1F4168"/>
<path d="M178.887 93.1326C178.583 93.2645 178.234 93.313 177.889 93.2645C177.545 93.2196 177.199 93.0756 176.921 92.8426C176.644 92.6088 176.437 92.3054 176.294 91.9858C176.222 91.8258 176.177 91.6584 176.123 91.4941C176.088 91.3269 176.063 91.1578 176.034 90.991L176.475 90.9418C176.479 91.2501 176.472 91.5593 176.455 91.869C176.439 92.1786 176.413 92.4888 176.363 92.8005C176.277 92.4969 176.213 92.1922 176.161 91.8865C176.108 91.581 176.064 91.275 176.031 90.9682L176.472 90.9189C176.512 91.068 176.556 91.215 176.591 91.3637C176.648 91.5024 176.688 91.6497 176.75 91.7833C176.87 92.0546 177.03 92.2956 177.224 92.5075C177.427 92.7084 177.675 92.8652 177.959 92.97C178.243 93.0724 178.557 93.1264 178.887 93.1326Z" fill="#1F4168"/>
<path d="M183.848 79.0664C182.874 79.9785 181.998 80.977 181.215 82.0361C180.437 83.0977 179.761 84.232 179.267 85.4409C179.01 86.041 178.813 86.6646 178.666 87.2986C178.581 87.6137 178.535 87.9361 178.478 88.2571C178.445 88.5808 178.397 88.9041 178.388 89.2307C178.359 89.5569 178.381 89.8832 178.379 90.2113C178.407 90.5368 178.412 90.8675 178.47 91.1915C178.54 91.8487 178.716 92.4878 178.885 93.1344C178.612 92.527 178.369 91.8957 178.228 91.2353C178.14 90.9085 178.109 90.5715 178.052 90.2371C178.026 89.9 177.989 89.5615 177.998 89.2218C177.984 88.542 178.067 87.862 178.203 87.1961C178.342 86.5302 178.545 85.8776 178.805 85.2502C179.069 84.6249 179.377 84.019 179.729 83.4413C180.087 82.8673 180.477 82.3148 180.908 81.7972C181.766 80.761 182.742 79.8191 183.848 79.0664Z" fill="#1F4168"/>
<path d="M194.916 80.3955C194.161 82.1975 193.247 83.9339 192.222 85.6023C191.199 87.2721 190.048 88.8693 188.755 90.3515C188.1 91.0841 187.418 91.7962 186.681 92.4515C185.938 93.0989 185.157 93.7086 184.314 94.2259C183.475 94.7476 182.566 95.1631 181.619 95.4433C180.67 95.7103 179.678 95.845 178.703 95.7575C179.681 95.7313 180.641 95.5484 181.543 95.2101C182.448 94.8818 183.305 94.4327 184.104 93.8969C185.7 92.8185 187.107 91.4751 188.38 90.0211C189.026 89.3014 189.625 88.5384 190.21 87.7661C190.799 86.9955 191.353 86.1981 191.895 85.3923C192.433 84.5836 192.956 83.7633 193.458 82.9297C193.97 82.1012 194.448 81.2523 194.916 80.3955Z" fill="#1F4168"/>
<path d="M231.601 112.122C231.362 112.611 231.066 113.058 230.799 113.509C230.533 113.962 230.277 114.412 230.085 114.884C229.884 115.352 229.748 115.84 229.686 116.343C229.627 116.847 229.656 117.364 229.736 117.902C229.459 117.436 229.306 116.885 229.296 116.325C229.28 115.763 229.413 115.203 229.624 114.69C229.844 114.179 230.138 113.709 230.48 113.288C230.819 112.862 231.198 112.484 231.601 112.122Z" fill="#1F4168"/>
<path d="M231.632 86.0977C231.439 88.3066 231.415 90.5236 231.506 92.7315C231.601 94.9389 231.808 97.1412 232.185 99.3139C232.291 99.8547 232.384 100.398 232.498 100.937C232.621 101.475 232.736 102.009 232.867 102.55C233.001 103.091 233.12 103.637 233.217 104.188C233.315 104.738 233.404 105.292 233.453 105.852C233.556 106.967 233.556 108.118 233.26 109.22C232.977 110.332 232.324 111.288 231.603 112.121C231.9 111.652 232.199 111.185 232.433 110.689C232.668 110.194 232.843 109.678 232.948 109.147C233.16 108.084 233.116 106.985 232.988 105.901C232.86 104.815 232.636 103.738 232.389 102.665L232.027 101.035C231.912 100.489 231.828 99.9379 231.729 99.3896C231.376 97.1886 231.214 94.9623 231.191 92.7394C231.18 92.1837 231.198 91.6276 231.203 91.0723C231.224 90.517 231.245 89.9619 231.283 89.4079C231.357 88.3 231.452 87.1928 231.632 86.0977Z" fill="#1F4168"/>
<path d="M239.101 99.6167C238.592 99.6779 238.07 99.5679 237.589 99.3788C237.105 99.1882 236.658 98.9052 236.266 98.5622C235.885 98.208 235.551 97.8046 235.296 97.3578C235.156 97.1419 235.065 96.8985 234.957 96.6699C234.87 96.4295 234.795 96.1855 234.736 95.9395C234.897 96.1408 235.029 96.3512 235.173 96.5525L235.395 96.8476C235.468 96.9457 235.535 97.0474 235.618 97.1374C235.918 97.5204 236.253 97.8627 236.6 98.1895C237.316 98.8175 238.135 99.3211 239.101 99.6167Z" fill="#1F4168"/>
<path d="M219.654 79.0664C220.601 79.8572 221.492 80.7155 222.314 81.6421C223.137 82.5669 223.883 83.5711 224.499 84.6581C225.108 85.7476 225.579 86.9244 225.832 88.1491C226.091 89.3716 226.141 90.6307 225.989 91.8551C225.933 90.6228 225.774 89.4082 225.453 88.2403C225.131 87.0733 224.66 85.9549 224.063 84.9028C223.475 83.8452 222.766 82.8533 222.015 81.891C221.261 80.9304 220.456 80.0047 219.654 79.0664Z" fill="#1F4168"/>
<path d="M211.691 73.0154C211.748 72.3342 211.859 71.6557 212.046 70.9925C212.141 70.6613 212.254 70.333 212.414 70.0196C212.576 69.7132 212.778 69.393 213.129 69.21C213.303 69.1209 213.514 69.0886 213.707 69.1226C213.903 69.1532 214.077 69.2369 214.233 69.3341C214.534 69.5373 214.809 69.7513 215.053 70.0168C215.55 70.5366 215.874 71.1983 216.106 71.8538C216.33 72.5163 216.502 73.1765 216.695 73.8218C216.792 74.1446 216.898 74.4628 217.018 74.775C217.132 75.0898 217.262 75.3981 217.406 75.7C217.973 76.9132 218.765 78.0214 219.654 79.0633C218.6 78.1916 217.671 77.1306 217.018 75.8949C216.688 75.2809 216.429 74.6282 216.225 73.9678C216.009 73.3101 215.862 72.6401 215.652 72.0074C215.455 71.3706 215.181 70.7736 214.769 70.2657C214.564 70.0164 214.32 69.779 214.068 69.5847C213.812 69.4032 213.507 69.3137 213.239 69.4418C212.969 69.5637 212.755 69.8332 212.589 70.1155C212.421 70.4019 212.291 70.7153 212.179 71.0344C211.961 71.6757 211.806 72.3423 211.691 73.0154Z" fill="#1F4168"/>
<path d="M222.67 69.9033C222.866 70.3273 223.133 70.7048 223.433 71.05C223.578 71.226 223.74 71.3894 223.897 71.5528C224.069 71.7041 224.221 71.8734 224.4 72.0153C225.093 72.6064 225.85 73.1221 226.655 73.5566C227.043 73.7982 227.466 73.9795 227.873 74.1908C228.286 74.3902 228.714 74.5618 229.133 74.7555L230.423 75.2665C230.858 75.4244 231.296 75.5812 231.73 75.7607C231.268 75.689 230.81 75.5946 230.351 75.5014C229.897 75.3882 229.447 75.255 228.997 75.1214C228.553 74.968 228.113 74.8008 227.677 74.622C227.252 74.418 226.817 74.235 226.41 73.9921C226.207 73.87 225.996 73.7634 225.8 73.6287L225.212 73.2295C224.838 72.9368 224.465 72.6419 224.135 72.2989C223.963 72.1351 223.812 71.9485 223.655 71.7715C223.511 71.582 223.364 71.3956 223.237 71.1949C222.981 70.7975 222.762 70.365 222.67 69.9033Z" fill="#1F4168"/>
<g opacity="0.4">
<path d="M269.434 225.324L270.418 242.549L261.254 213.546L269.434 225.324Z" fill="#A65B3C"/>
</g>
<g opacity="0.4">
<path d="M164.203 276.146C164.203 276.146 166.888 274.827 169.296 272.846L185.202 259.206L196.777 263.202C196.777 263.202 184.298 280.024 164.203 276.146Z" fill="#A65B3C"/>
</g>
<g opacity="0.4">
<path d="M168.753 248.546C167.237 249.108 163.08 246.055 163.08 246.055L158.389 210.965L168.753 248.546Z" fill="#A65B3C"/>
</g>
<g opacity="0.4">
<path d="M161.805 273.204C161.805 273.204 162.5 276.576 167.628 273.228L161.805 273.204Z" fill="#A65B3C"/>
</g>
<g opacity="0.4">
<path d="M142.748 246.173C142.748 246.173 148.134 243.323 153.904 243.478C153.904 243.478 143.968 241.783 142.748 246.173Z" fill="#A65B3C"/>
</g>
<g opacity="0.4">
<path d="M147.596 240.412C147.596 240.412 152.254 240.713 157.237 243.796C157.237 243.796 156.377 242.769 155.078 241.583C154.56 241.111 153.919 240.794 153.228 240.68C152.02 240.48 149.902 240.229 147.596 240.412Z" fill="#A65B3C"/>
</g>
<g opacity="0.4">
<path d="M305.459 219.955C305.459 219.955 303.064 216.634 294.846 211.481C294.846 211.481 304.737 214.574 305.459 219.955Z" fill="#A65B3C"/>
</g>
<g opacity="0.4">
<path d="M273.591 268.679L256.557 273.175C256.557 273.175 265.434 272.292 273.797 269.856L273.591 268.679Z" fill="#A65B3C"/>
</g>
<g opacity="0.4">
<path d="M262.36 207.069C262.36 207.069 257.978 208.35 260.599 204.615C260.599 204.615 262.294 205.017 262.36 207.069Z" fill="#A65B3C"/>
</g>
<path d="M171.868 171.41L174.733 178.684C175.685 181.11 176.638 183.536 177.575 185.967L180.398 193.258L183.245 200.539L188.942 215.1L191.768 222.389L194.583 229.683L194.574 229.686L191.711 222.411L188.858 215.132L183.198 200.557L180.366 193.27L177.51 185.993C176.554 183.568 175.614 181.137 174.674 178.707L171.859 171.413L171.868 171.41Z" fill="#A65B3C"/>
<path d="M179.607 160.384C178.728 161.199 177.853 162.018 176.967 162.826L174.317 165.257C173.877 165.664 173.43 166.065 172.995 166.475C172.568 166.886 172.21 167.374 171.973 167.92C171.477 169.006 171.454 170.283 171.862 171.408C171.644 170.852 171.51 170.252 171.527 169.648C171.538 169.046 171.662 168.444 171.906 167.891C172.142 167.334 172.497 166.83 172.932 166.409C173.373 166.001 173.82 165.603 174.264 165.199L176.93 162.786C177.817 161.979 178.713 161.183 179.607 160.384Z" fill="#A65B3C"/>
<path d="M180.991 149.704L179.556 151.519L178.109 153.325L175.215 156.936L173.756 158.732L173.026 159.63L172.844 159.855C172.783 159.932 172.715 160 172.686 160.083C172.622 160.251 172.689 160.458 172.842 160.555L174.829 161.738L176.811 162.933L174.806 161.777L172.808 160.606C172.631 160.495 172.551 160.257 172.625 160.06C172.643 160.012 172.669 159.966 172.701 159.926L172.791 159.813L172.972 159.587L173.695 158.684L175.143 156.878L178.061 153.286L179.52 151.491L180.991 149.704Z" fill="#A65B3C"/>
<path d="M242.417 162.773L239.865 170.963C239.011 173.693 238.158 176.422 237.29 179.147L234.695 187.324L232.124 195.509L226.987 211.88L224.395 220.058L221.792 228.232L221.783 228.23L224.336 220.039L226.901 211.853L232.076 195.494L234.661 187.313L237.223 179.126C238.073 176.395 238.939 173.67 239.804 170.944L242.408 162.77L242.417 162.773Z" fill="#A65B3C"/>
<path d="M234.457 152.469C236.046 154.058 237.62 155.663 239.189 157.272L241.537 159.691C241.73 159.892 241.937 160.092 242.091 160.333C242.247 160.571 242.37 160.831 242.448 161.104C242.608 161.649 242.59 162.24 242.412 162.772C242.572 162.232 242.558 161.651 242.394 161.12C242.313 160.854 242.187 160.603 242.03 160.375C241.874 160.145 241.676 159.95 241.478 159.748L239.126 157.333C237.561 155.72 236.002 154.102 234.457 152.469Z" fill="#A65B3C"/>
<path d="M237.733 142.621L238.831 144.606L239.917 146.597L242.087 150.58L242.623 151.579L242.891 152.079L243.025 152.329C243.069 152.41 243.119 152.498 243.144 152.596C243.195 152.789 243.162 153.001 243.06 153.171C242.961 153.342 242.784 153.468 242.598 153.517L241.522 153.877L239.372 154.598L237.217 155.306L239.357 154.556L241.503 153.819L242.575 153.451C242.755 153.402 242.906 153.29 242.997 153.134C243.088 152.98 243.117 152.788 243.069 152.616C243.046 152.529 243.002 152.452 242.955 152.367L242.82 152.118L242.548 151.62L242.006 150.624L239.863 146.626L238.791 144.627L237.733 142.621Z" fill="#A65B3C"/>
<path d="M155.041 198.829L158.231 210.28L161.406 221.735L164.551 233.198L167.682 244.665L164.492 233.215L161.317 221.76L158.172 210.296L155.041 198.829Z" fill="#A65B3C"/>
<path d="M142.748 246.176C144.545 245.234 146.476 244.555 148.451 244.085C150.426 243.622 152.462 243.374 154.494 243.454C155.509 243.498 156.524 243.605 157.518 243.82C158.51 244.033 159.495 244.305 160.433 244.697C162.329 245.436 164.051 246.574 165.563 247.921C164.786 247.271 163.991 246.636 163.118 246.12C162.696 245.838 162.241 245.614 161.797 245.37C161.572 245.255 161.338 245.157 161.109 245.049L160.764 244.891L160.41 244.754C159.473 244.368 158.492 244.103 157.502 243.896C156.512 243.686 155.501 243.585 154.491 243.546C152.468 243.456 150.438 243.693 148.464 244.145C147.477 244.372 146.504 244.659 145.548 244.995C144.593 245.332 143.651 245.713 142.748 246.176Z" fill="#A65B3C"/>
<path d="M147.531 240.406C148.393 240.474 149.248 240.621 150.092 240.811C150.936 240.999 151.769 241.239 152.586 241.523C153.403 241.81 154.207 242.133 154.983 242.517C155.767 242.885 156.509 243.332 157.237 243.797C156.491 243.361 155.739 242.936 154.952 242.581C154.565 242.392 154.164 242.231 153.768 242.06C153.569 241.979 153.366 241.906 153.165 241.828C152.964 241.749 152.761 241.678 152.556 241.61C151.744 241.32 150.914 241.082 150.075 240.879C149.237 240.678 148.389 240.508 147.531 240.406Z" fill="#A65B3C"/>
<path d="M147.529 262.679C148.013 262.852 148.5 263.015 148.99 263.172C149.478 263.332 149.968 263.486 150.459 263.636C151.442 263.935 152.429 264.217 153.424 264.474C154.416 264.741 155.417 264.971 156.421 265.185L157.175 265.341L157.933 265.481C158.437 265.583 158.946 265.651 159.453 265.736C158.433 265.61 157.415 265.46 156.407 265.255C155.398 265.054 154.396 264.824 153.4 264.563C152.407 264.299 151.417 264.017 150.438 263.704C149.458 263.39 148.487 263.053 147.529 262.679Z" fill="#A65B3C"/>
<path d="M144.594 172.978C144.829 173.907 145.108 174.825 145.399 175.739C145.546 176.195 145.689 176.653 145.846 177.106L146.077 177.787L146.319 178.464C146.968 180.269 147.672 182.053 148.435 183.812C148.621 184.254 148.821 184.689 149.013 185.128C149.206 185.567 149.401 186.005 149.608 186.438L150.22 187.739L150.859 189.028C151.713 190.745 152.636 192.427 153.572 194.101C153.097 193.268 152.605 192.443 152.144 191.602C151.694 190.755 151.227 189.916 150.804 189.055L150.157 187.77L149.538 186.47C149.328 186.039 149.131 185.602 148.936 185.163C148.741 184.725 148.538 184.29 148.35 183.848C147.596 182.083 146.9 180.294 146.261 178.485C145.624 176.675 145.042 174.843 144.594 172.978Z" fill="#A65B3C"/>
<path d="M291.926 209.822L289.946 207.085L287.976 204.34L284.039 198.849L280.126 193.341L278.17 190.586C278.009 190.355 277.85 190.123 277.637 189.941C277.427 189.756 277.182 189.61 276.919 189.516C276.392 189.325 275.793 189.335 275.271 189.549C275.79 189.328 276.391 189.309 276.926 189.495C277.194 189.586 277.444 189.73 277.659 189.915C277.878 190.097 278.044 190.333 278.207 190.56L280.176 193.305L284.114 198.796L288.026 204.305L289.982 207.059L291.926 209.822Z" fill="#A65B3C"/>
<path d="M305.46 219.954C304.972 219.44 304.505 218.908 303.985 218.427C303.488 217.924 302.955 217.458 302.43 216.985C301.356 216.064 300.248 215.183 299.099 214.357C297.955 213.525 296.784 212.729 295.588 211.974C294.989 211.597 294.385 211.229 293.774 210.872C293.166 210.509 292.551 210.159 291.928 209.823C293.189 210.466 294.417 211.175 295.62 211.922C296.824 212.669 298.002 213.457 299.153 214.283C300.298 215.118 301.401 216.009 302.47 216.939C303.534 217.875 304.533 218.883 305.46 219.954Z" fill="#A65B3C"/>
<path d="M290.812 241.184C289.919 241.798 288.988 242.362 288.007 242.83C287.519 243.069 287.012 243.267 286.499 243.449C285.981 243.612 285.457 243.769 284.918 243.85C284.38 243.936 283.834 243.98 283.288 243.947C282.744 243.912 282.201 243.813 281.689 243.621C280.669 243.24 279.763 242.521 279.236 241.568C279.507 242.038 279.884 242.44 280.306 242.775C280.728 243.112 281.208 243.372 281.714 243.554C282.222 243.733 282.755 243.833 283.293 243.863C283.831 243.893 284.371 243.846 284.903 243.76C285.437 243.681 285.957 243.529 286.473 243.37C286.983 243.193 287.486 242.994 287.977 242.766C288.959 242.312 289.9 241.769 290.812 241.184Z" fill="#A65B3C"/>
<path d="M286.514 213.908C286.062 213.447 285.605 212.991 285.158 212.526C284.712 212.059 284.268 211.59 283.828 211.117C282.947 210.174 282.077 209.22 281.216 208.257C280.362 207.289 279.519 206.311 278.685 205.325L277.442 203.84C277.035 203.339 276.629 202.837 276.229 202.331C276.64 202.828 277.058 203.32 277.477 203.811L278.732 205.285C279.573 206.264 280.425 207.234 281.285 208.196C282.138 209.165 283 210.126 283.873 211.076C284.309 211.552 284.749 212.024 285.191 212.495C285.627 212.97 286.073 213.437 286.514 213.908Z" fill="#A65B3C"/>
<path d="M269.437 225.326L267.421 222.466L265.416 219.598L261.407 213.862L259.415 210.985L258.918 210.263C258.756 210.016 258.639 209.74 258.569 209.453C258.5 209.165 258.479 208.867 258.509 208.573C258.538 208.277 258.629 207.996 258.707 207.716C259.034 206.595 259.482 205.506 260.065 204.493C260.647 203.48 261.379 202.553 262.243 201.769C261.389 202.564 260.671 203.499 260.104 204.516C259.529 205.528 259.087 206.614 258.766 207.733C258.689 208.014 258.6 208.293 258.575 208.579C258.547 208.866 258.568 209.157 258.636 209.436C258.706 209.715 258.821 209.984 258.979 210.224L259.478 210.941L261.482 213.809L265.466 219.563L267.458 222.44L269.437 225.326Z" fill="#A65B3C"/>
<path d="M257.495 193.394H236.555V195.517H257.495V193.394Z" fill="white"/>
<path d="M282.564 203.528C283.224 202.868 283.224 201.796 282.564 201.136C281.903 200.475 280.832 200.475 280.171 201.136C279.51 201.796 279.51 202.868 280.171 203.528C280.832 204.189 281.903 204.189 282.564 203.528Z" fill="#1F4168"/>
<path d="M249.766 263.803L252.503 263.048L255.245 262.307L260.728 260.825L266.219 259.374L268.964 258.649L271.714 257.938L268.976 258.692L266.235 259.433L260.751 260.915L255.261 262.366L252.515 263.091L249.766 263.803Z" fill="#A65B3C"/>
<path d="M273.594 268.678L269.92 269.683L266.242 270.674L258.887 272.656L257.966 272.9C257.66 272.982 257.354 273.065 257.038 273.126C256.409 273.242 255.758 273.237 255.131 273.11C253.876 272.861 252.73 272.113 251.999 271.064C251.629 270.543 251.375 269.946 251.215 269.33L250.727 267.489L249.766 263.804L250.771 267.478L251.266 269.316C251.429 269.928 251.682 270.514 252.05 271.028C252.775 272.061 253.909 272.794 255.146 273.034C255.764 273.157 256.404 273.159 257.023 273.042C257.331 272.982 257.637 272.898 257.943 272.814L258.863 272.567L266.226 270.615L269.908 269.639L273.594 268.678Z" fill="#A65B3C"/>
<path d="M156.463 268.214C156.613 267.291 155.986 266.422 155.064 266.273C154.141 266.123 153.272 266.749 153.123 267.672C152.973 268.594 153.599 269.463 154.522 269.613C155.444 269.763 156.313 269.136 156.463 268.214Z" fill="#1F4168"/>
<path d="M163.649 249.584C163.649 249.584 159.025 260.587 161.806 273.204C161.806 273.204 170.004 275.267 175.938 268.424C181.871 261.581 163.649 249.584 163.649 249.584Z" fill="#1F4168"/>
<path d="M276.624 190.372L278.01 191.956C278.01 191.956 276.227 204.488 262.362 207.069L260.081 203.998C259.938 203.806 259.921 203.548 260.039 203.34C261.03 201.584 265.974 193.634 275.973 190.197C276.205 190.117 276.462 190.187 276.624 190.372Z" fill="#1F4168"/>
<g opacity="0.4">
<path d="M200.086 161.161L203.27 158.132L204.751 161.036L200.086 161.161Z" fill="#1F4168"/>
</g>
<g opacity="0.4">
<path d="M214.307 191.24L216.566 191.374L216.697 189.152L214.137 189L210.75 161.286L211.737 159.7L216.867 163.714L213.706 159.682L212.243 157.904L203.272 158.134L206.724 164.382C206.724 164.382 205.685 240.958 200.832 277.398L213.814 287.719L223.663 276.664L214.307 191.24Z" fill="#1F4168"/>
</g>
<path d="M203.268 158.134C203.268 158.134 203.25 159.056 204.847 162.217C204.847 162.217 203.808 238.793 198.955 275.233L211.937 285.554L221.786 274.499L210.364 161.901L212.614 158.281L208.545 153.511L203.268 158.134Z" fill="#F9A21B"/>
<mask id="mask0_608_13679" style="mask-type:luminance" maskUnits="userSpaceOnUse" x="198" y="153" width="24" height="133">
<path d="M203.266 158.131C203.266 158.131 203.248 159.053 204.845 162.214C204.845 162.214 203.806 238.79 198.953 275.23L211.935 285.551L221.784 274.496L210.363 161.898L212.612 158.279L208.543 153.508L203.266 158.131Z" fill="white"/>
</mask>
<g mask="url(#mask0_608_13679)">
<path d="M196.557 138.55L196.457 138.705L229.429 160.044L229.529 159.889L196.557 138.55Z" fill="white"/>
<path d="M195.643 149.798L195.543 149.953L228.997 171.604L229.097 171.449L195.643 149.798Z" fill="white"/>
<path d="M194.733 161.058L194.633 161.213L228.572 183.177L228.672 183.022L194.733 161.058Z" fill="white"/>
<path d="M193.819 172.306L193.719 172.461L228.14 194.737L228.24 194.582L193.819 172.306Z" fill="white"/>
<path d="M192.903 183.556L192.803 183.711L227.71 206.302L227.81 206.147L192.903 183.556Z" fill="white"/>
<path d="M191.989 194.804L191.889 194.959L227.278 217.862L227.378 217.707L191.989 194.804Z" fill="white"/>
<path d="M191.106 206.054L191.006 206.209L226.884 229.425L226.984 229.27L191.106 206.054Z" fill="white"/>
<path d="M190.165 217.312L190.064 217.467L226.421 240.996L226.521 240.841L190.165 217.312Z" fill="white"/>
<path d="M189.249 228.574L189.148 228.729L225.99 252.572L226.09 252.417L189.249 228.574Z" fill="white"/>
<path d="M188.335 239.808L188.234 239.963L225.559 264.118L225.659 263.963L188.335 239.808Z" fill="white"/>
<path d="M187.44 251.05L187.346 251.209L225.276 273.799L225.371 273.64L187.44 251.05Z" fill="white"/>
<path d="M186.542 262.318L186.441 262.473L217.031 282.267L217.131 282.112L186.542 262.318Z" fill="white"/>
<path d="M185.595 273.58L185.494 273.735L211.592 290.625L211.692 290.47L185.595 273.58Z" fill="white"/>
<path d="M184.68 284.84L184.58 284.995L206.188 298.979L206.289 298.824L184.68 284.84Z" fill="white"/>
</g>
<path d="M216.211 187.99L207.424 187.469L207.292 189.691L216.079 190.212L216.211 187.99Z" fill="white"/>
<path d="M223.591 263.204H176.767C175.917 263.204 175.14 262.723 174.759 261.963L170.832 254.13L156.496 225.53C155.798 224.138 156.81 222.5 158.367 222.5H205.189C206.04 222.5 206.816 222.979 207.197 223.74L225.461 260.174C226.158 261.565 225.146 263.204 223.591 263.204Z" fill="#1F4168"/>
<g opacity="0.4">
<path d="M201.816 263.203H176.769C175.919 263.203 175.142 262.722 174.761 261.962L170.834 254.128L186.487 247.533C186.487 247.533 200.865 249.733 203.123 258.55C203.571 260.301 203.008 261.848 201.816 263.203Z" fill="#1F4168"/>
</g>
<path d="M275.298 144.43C274.161 145.263 273.161 147.16 273.625 151.401L270.273 158.104L269.893 152.407C269.852 151.802 269.713 151.208 269.482 150.648L267.05 144.777C266.98 144.607 266.918 144.434 266.865 144.258L264.636 136.891C264.374 136.004 263.455 135.485 262.561 135.72C260.926 136.151 259.169 138.054 262.553 145.424L264.482 152.359L263.906 155.303L261.268 148.977L256.802 142.109L254.569 135.601C254.074 134.163 252.236 133.735 251.171 134.82C249.984 136.028 249.456 138.515 252.438 143.631L255.922 152.224L258.256 159.836C258.256 159.836 255.806 157.828 253.86 154.544C253.393 153.754 252.48 153.337 251.58 153.521C250.412 153.758 248.716 154.373 246.788 155.912C246.788 155.912 242.085 157.637 240.664 160.682C240.664 160.682 240.657 160.682 240.645 160.68C239.121 160.57 237.839 161.82 237.908 163.346C237.977 164.881 237.929 167.008 237.361 168.796C237.011 169.897 237.188 171.097 237.811 172.071C238.533 173.201 239.516 174.785 240.511 176.529C242.442 179.915 244.843 183.01 247.626 185.739L250.769 188.821C252.968 190.976 254.925 193.363 256.608 195.943L261.481 203.417C261.481 203.417 273.251 202.048 276.088 191.327L274.782 190.443C272.892 189.16 271.848 186.951 272.057 184.675C272.457 180.342 273.046 172.965 273.066 166.956L276.547 158.447L277.809 152.012V145.71C277.809 144.419 276.341 143.667 275.298 144.43ZM248.268 173.233C245.234 171.929 244.526 169.406 244.526 169.406C244.838 165.891 243.448 163.623 243.448 163.623C246.255 163.368 247.417 161.157 247.417 161.157L249.543 160.533C250.62 162.432 252.265 164.133 252.265 164.133L253.058 169.891L248.268 173.233Z" fill="#FFC89F"/>
<path d="M254.701 162.695C255.602 161.694 256.763 160.933 258.013 160.404C259.266 159.873 260.63 159.609 261.993 159.592C262.674 159.596 263.355 159.651 264.026 159.763C264.692 159.894 265.357 160.043 265.994 160.276C267.278 160.711 268.486 161.337 269.601 162.085C268.413 161.46 267.179 160.932 265.906 160.551C265.271 160.354 264.622 160.216 263.969 160.108C263.315 160.009 262.655 159.959 261.995 159.961C260.676 159.971 259.359 160.208 258.118 160.671C257.499 160.904 256.897 161.188 256.323 161.524C255.748 161.859 255.199 162.245 254.701 162.695Z" fill="#FF9A6C"/>
<path d="M263.904 155.301C263.882 155.691 263.838 156.072 263.784 156.451C263.731 156.83 263.67 157.207 263.598 157.583C263.526 157.958 263.444 158.331 263.352 158.704C263.26 159.076 263.159 159.447 263.023 159.814C263.007 159.423 263.029 159.037 263.068 158.655C263.108 158.272 263.161 157.891 263.235 157.513C263.307 157.136 263.396 156.761 263.503 156.391C263.611 156.021 263.734 155.653 263.904 155.301Z" fill="#FF9A6C"/>
<path d="M249.541 160.533C249.815 160.342 250.089 160.168 250.363 159.998C250.636 159.827 250.907 159.656 251.171 159.481C251.435 159.305 251.7 159.131 251.945 158.933C252.191 158.735 252.427 158.529 252.641 158.271C252.565 158.6 252.367 158.893 252.143 159.143C251.917 159.396 251.652 159.606 251.374 159.789C251.096 159.974 250.8 160.126 250.494 160.253C250.188 160.379 249.873 160.483 249.541 160.533Z" fill="#FF9A6C"/>
<path d="M241.32 171.986C241.654 171.842 241.97 171.69 242.273 171.52C242.576 171.351 242.861 171.158 243.129 170.947C243.268 170.847 243.389 170.726 243.52 170.616C243.641 170.495 243.766 170.378 243.877 170.246C244.115 169.993 244.307 169.703 244.526 169.409C244.449 169.763 244.317 170.115 244.107 170.42C244.015 170.583 243.885 170.716 243.769 170.862C243.638 170.993 243.507 171.127 243.358 171.238C243.066 171.468 242.739 171.652 242.394 171.781C242.05 171.91 241.686 171.992 241.32 171.986Z" fill="#FF9A6C"/>
<path d="M270.27 158.104C270.167 158.413 270.041 158.706 269.903 158.993C269.766 159.281 269.621 159.562 269.464 159.838C269.308 160.114 269.141 160.384 268.964 160.648C268.786 160.912 268.598 161.171 268.379 161.413C268.463 161.098 268.581 160.799 268.712 160.508C268.843 160.217 268.985 159.932 269.143 159.655C269.3 159.378 269.471 159.109 269.656 158.848C269.84 158.587 270.037 158.333 270.27 158.104Z" fill="#FF9A6C"/>
<path d="M257.492 183.855C257.834 183.312 258.178 182.772 258.497 182.217C258.826 181.669 259.144 181.114 259.457 180.557C260.078 179.442 260.671 178.311 261.218 177.159L261.619 176.291C261.757 176.004 261.867 175.705 261.996 175.413L262.184 174.974C262.246 174.827 262.299 174.677 262.356 174.528L262.697 173.635C262.895 173.03 263.117 172.431 263.277 171.813C263.479 171.205 263.585 170.576 263.745 169.952C263.617 171.229 263.351 172.496 262.97 173.727C262.577 174.953 262.1 176.153 261.552 177.317C260.993 178.477 260.381 179.61 259.705 180.703C259.031 181.797 258.3 182.857 257.492 183.855Z" fill="#FF9A6C"/>
<path d="M260.043 192.217C260.794 192.242 261.538 192.235 262.28 192.2C263.021 192.161 263.757 192.091 264.486 191.973L265.03 191.876C265.212 191.844 265.388 191.791 265.569 191.753L265.838 191.692L266.103 191.613C266.278 191.556 266.458 191.514 266.632 191.452C267.333 191.218 267.997 190.898 268.656 190.531C268.089 191.023 267.436 191.43 266.734 191.722C266.03 192.008 265.294 192.214 264.545 192.337C263.796 192.451 263.038 192.506 262.283 192.487C261.529 192.468 260.775 192.394 260.043 192.217Z" fill="#FF9A6C"/>
<path d="M255.917 183.857C255.776 183.347 255.622 182.844 255.437 182.351C255.261 181.856 255.067 181.368 254.859 180.888C254.647 180.408 254.428 179.933 254.183 179.471C253.942 179.007 253.687 178.551 253.405 178.112C253.129 177.67 252.836 177.237 252.517 176.825C252.203 176.408 251.867 176.008 251.511 175.626C251.157 175.243 250.782 174.878 250.385 174.535C249.999 174.178 249.569 173.876 249.145 173.559C250.081 174.049 250.959 174.674 251.717 175.425C252.487 176.165 253.148 177.014 253.718 177.916C254.284 178.821 254.753 179.784 255.125 180.78C255.497 181.776 255.78 182.807 255.917 183.857Z" fill="#FF9A6C"/>
<path d="M169.333 251.137L164.736 241.966C164.736 241.966 161.968 245.4 165.564 247.92C165.564 247.92 162.036 249.969 161.632 254.136C161.632 254.136 158.759 257.324 162.174 261.436C162.733 262.11 163.066 262.944 163.095 263.819L163.132 264.979C163.19 266.737 164.415 268.239 166.126 268.649L166.389 268.712C167.554 268.991 168.527 269.79 169.027 270.879C169.495 271.898 170.378 272.666 171.452 272.989L174.649 273.95L174.917 274.115C176.229 274.922 177.83 275.106 179.29 274.616L181.175 273.984C181.891 273.745 182.546 273.352 183.094 272.833L188.376 267.836L190.654 264.958L196.708 263.07C196.708 263.07 203.932 262.651 203.452 259.534C202.973 256.416 198.956 257.436 198.956 257.436C198.956 257.436 199.166 250.752 189.545 254.109L180.194 256.237L172.722 258.55C172.602 257.693 173.089 256.868 173.897 256.559L178.185 254.918C178.185 254.918 186.22 253.323 188.406 251.171C190.36 249.248 189.596 245.475 178.485 248.864C178.485 248.863 173.937 250.124 169.333 251.137Z" fill="#FFC89F"/>
<path d="M198.958 257.454C196.534 258.037 194.129 258.667 191.733 259.336C190.532 259.658 189.331 259.989 188.153 260.394C187.86 260.499 187.566 260.6 187.274 260.709C186.983 260.819 186.696 260.94 186.407 261.055C185.825 261.276 185.266 261.552 184.699 261.807C184.136 262.072 183.592 262.364 183.03 262.64C182.468 262.924 181.888 263.171 181.293 263.379C180.107 263.777 178.939 264.187 177.769 264.611C176.599 265.031 175.434 265.465 174.286 265.94C173.136 266.41 172.003 266.921 170.914 267.527L170.895 267.496C171.922 266.784 173.037 266.202 174.17 265.676C175.307 265.154 176.461 264.674 177.633 264.241C178.803 263.806 179.996 263.421 181.181 263.05C181.766 262.855 182.343 262.634 182.903 262.376C183.181 262.244 183.472 262.118 183.756 261.992C184.044 261.869 184.325 261.732 184.618 261.621C185.197 261.387 185.776 261.154 186.36 260.934C186.94 260.705 187.528 260.498 188.113 260.281C188.404 260.169 188.698 260.064 188.992 259.959L189.871 259.637C190.462 259.437 191.05 259.225 191.647 259.041C192.838 258.666 194.05 258.359 195.268 258.085C196.487 257.818 197.713 257.575 198.952 257.417L198.958 257.454Z" fill="#FF9A6C"/>
<path d="M190.656 264.959C189.416 265.639 188.166 266.299 186.906 266.937C186.594 267.101 186.264 267.256 185.929 267.382C185.591 267.513 185.25 267.611 184.918 267.724C184.249 267.943 183.583 268.17 182.921 268.41C181.596 268.884 180.284 269.397 178.995 269.962C178.351 270.245 177.713 270.542 177.086 270.861C176.451 271.169 175.845 271.527 175.236 271.888C176.362 271.031 177.597 270.314 178.874 269.701C179.509 269.383 180.162 269.108 180.813 268.828C181.47 268.56 182.131 268.305 182.797 268.063C183.465 267.828 184.136 267.601 184.813 267.392C185.153 267.285 185.493 267.196 185.817 267.079C186.145 266.963 186.461 266.829 186.781 266.679C188.062 266.084 189.354 265.511 190.656 264.959Z" fill="#FF9A6C"/>
<path d="M169.335 251.135C169.086 251.296 168.805 251.394 168.518 251.459C168.231 251.523 167.932 251.549 167.633 251.53C167.334 251.51 167.036 251.435 166.761 251.312C166.485 251.188 166.243 250.992 166.068 250.757C166.342 250.873 166.593 250.976 166.858 251.041C167.123 251.103 167.388 251.142 167.659 251.162C167.93 251.178 168.204 251.182 168.482 251.174L169.335 251.135Z" fill="#FF9A6C"/>
<path d="M168.006 248.527C167.801 248.629 167.577 248.668 167.355 248.681C167.132 248.693 166.907 248.67 166.689 248.617C166.471 248.565 166.259 248.482 166.067 248.365C165.873 248.253 165.701 248.101 165.566 247.92C165.789 247.974 165.983 248.047 166.184 248.1C166.382 248.159 166.578 248.211 166.776 248.258C167.172 248.357 167.569 248.427 168.006 248.527Z" fill="#FF9A6C"/>
<path d="M172.725 258.55C172.314 258.771 171.885 258.948 171.45 259.107C171.015 259.267 170.572 259.401 170.124 259.52C169.675 259.632 169.222 259.733 168.761 259.795C168.3 259.858 167.834 259.896 167.367 259.864L170.032 259.163C170.476 259.052 170.919 258.934 171.368 258.831C171.815 258.725 172.265 258.626 172.725 258.55Z" fill="#FF9A6C"/>
<path d="M173.897 256.559C173.506 256.858 173.103 257.132 172.696 257.398C172.291 257.666 171.877 257.92 171.465 258.175C171.049 258.424 170.635 258.676 170.212 258.915C169.79 259.156 169.367 259.395 168.926 259.613C169.278 259.269 169.66 258.961 170.054 258.673C170.448 258.383 170.857 258.116 171.273 257.86C171.692 257.61 172.115 257.368 172.552 257.149C172.988 256.929 173.433 256.724 173.897 256.559Z" fill="#FF9A6C"/>
<path d="M224.246 263.103C224.291 262.719 224.229 262.316 224.036 261.929L205.773 225.495C205.392 224.735 204.615 224.256 203.765 224.256H156.941C156.71 224.256 156.492 224.292 156.289 224.357C156.404 223.356 157.245 222.5 158.37 222.5H205.193C206.043 222.5 206.821 222.979 207.202 223.74L225.464 260.174C226.059 261.358 225.412 262.723 224.246 263.103Z" fill="#112E4C"/>
<path d="M208.547 153.512C209.382 154.407 210.191 155.326 210.992 156.251C211.793 157.177 212.574 158.12 213.353 159.065C214.119 160.02 214.883 160.977 215.621 161.954C216.356 162.933 217.077 163.924 217.753 164.944C217.379 164.459 217.017 163.966 216.637 163.487C216.268 163 215.886 162.521 215.508 162.04C214.748 161.083 213.986 160.126 213.21 159.181C212.443 158.228 211.661 157.287 210.884 156.342L208.547 153.512Z" fill="#1B1A2E"/>
<path d="M208.547 153.512L205.865 155.906C204.974 156.707 204.079 157.503 203.203 158.319C202.317 159.126 201.442 159.943 200.581 160.775C200.362 160.98 200.15 161.191 199.936 161.401C199.723 161.61 199.508 161.819 199.3 162.034C199.09 162.248 198.875 162.457 198.668 162.673L198.049 163.325C198.811 162.399 199.639 161.528 200.481 160.674C201.323 159.819 202.201 159.001 203.078 158.184C203.966 157.377 204.86 156.579 205.772 155.8C206.683 155.021 207.603 154.252 208.547 153.512Z" fill="#1B1A2E"/>
<path d="M187.633 143.062C188.058 144.934 188.641 146.765 189.312 148.56C189.489 149.006 189.654 149.456 189.835 149.899L190.391 151.225L190.993 152.53L191.144 152.856L191.307 153.176L191.634 153.816L191.957 154.458C192.067 154.67 192.188 154.877 192.303 155.087C192.537 155.505 192.764 155.927 193.005 156.341C193.512 157.153 193.994 157.983 194.546 158.766C194.819 159.16 195.075 159.566 195.361 159.95L196.228 161.097C196.374 161.287 196.509 161.486 196.665 161.669L197.127 162.219L198.05 163.324C196.756 161.909 195.504 160.442 194.429 158.846C193.856 158.073 193.377 157.237 192.86 156.426C192.616 156.012 192.386 155.59 192.148 155.172C192.031 154.962 191.909 154.754 191.797 154.542L191.469 153.899L191.145 153.255L190.983 152.933L190.834 152.604L190.237 151.291L189.687 149.958C189.506 149.513 189.348 149.059 189.179 148.608C188.534 146.799 187.984 144.95 187.633 143.062Z" fill="#1B1A2E"/>
<path d="M217.754 164.943C218.223 164.301 218.686 163.656 219.139 163.003C219.595 162.353 220.043 161.698 220.486 161.038C221.371 159.72 222.236 158.388 223.064 157.034C223.488 156.363 223.893 155.68 224.301 154.999C224.698 154.311 225.099 153.626 225.484 152.932L226.063 151.891L226.62 150.838L226.901 150.313L227.169 149.781L227.709 148.719C227.058 150.168 226.37 151.604 225.608 153C224.857 154.402 224.055 155.777 223.222 157.131C222.378 158.479 221.515 159.816 220.603 161.118C219.692 162.422 218.752 163.706 217.754 164.943Z" fill="#1B1A2E"/>
<path d="M172.197 233.987H163.841C163.689 233.987 163.551 233.901 163.483 233.765L162.782 232.367L160.224 227.263C160.099 227.015 160.28 226.723 160.558 226.723H168.913C169.065 226.723 169.204 226.808 169.272 226.944L172.531 233.446C172.655 233.694 172.475 233.987 172.197 233.987Z" fill="#1B1A2E"/>
<path d="M297.57 287.448H20.1777V288.002H297.57V287.448Z" fill="#1B1A2E"/>
<path d="M262.457 97.2913C258.697 93.1455 252.289 92.8321 248.143 96.5917C245.022 99.4216 244.073 103.752 245.398 107.49L242.062 110.642L247.443 110.906C251.202 115.051 257.611 115.365 261.757 111.605C265.903 107.846 266.216 101.437 262.457 97.2913Z" fill="white"/>
<path d="M242.064 110.636C242.33 110.361 242.6 110.089 242.874 109.822C243.146 109.554 243.423 109.29 243.7 109.026C243.979 108.764 244.258 108.503 244.541 108.246C244.823 107.987 245.109 107.733 245.399 107.483C245.134 107.759 244.864 108.03 244.59 108.298C244.317 108.566 244.041 108.83 243.763 109.093C243.485 109.355 243.206 109.617 242.923 109.874C242.641 110.133 242.355 110.387 242.064 110.636Z" fill="#1F4068"/>
<path d="M247.445 110.908C246.996 110.904 246.547 110.894 246.098 110.878C245.649 110.863 245.201 110.843 244.752 110.822C244.304 110.799 243.856 110.775 243.408 110.746C242.96 110.718 242.512 110.684 242.064 110.645C242.514 110.649 242.963 110.659 243.411 110.675C243.86 110.689 244.308 110.709 244.757 110.73C245.205 110.753 245.653 110.777 246.101 110.806C246.55 110.834 246.997 110.868 247.445 110.908Z" fill="#1F4068"/>
<path d="M245.405 107.492C245.197 106.907 245.04 106.302 244.939 105.689C244.843 105.074 244.797 104.451 244.811 103.829C244.84 102.584 245.096 101.343 245.571 100.19C246.045 99.0362 246.74 97.9739 247.6 97.0699C248.465 96.1712 249.485 95.4156 250.617 94.8837C251.182 94.6167 251.772 94.4017 252.376 94.2427C252.981 94.084 253.6 93.9821 254.224 93.937C255.47 93.8463 256.734 93.9861 257.931 94.3482C259.129 94.7078 260.258 95.2969 261.242 96.0693C261.734 96.4552 262.19 96.8865 262.605 97.3545C263.02 97.8226 263.395 98.3272 263.715 98.8653C264.356 99.94 264.796 101.134 265.006 102.367C265.218 103.6 265.2 104.871 264.956 106.098C264.714 107.325 264.237 108.505 263.565 109.559C262.894 110.614 262.026 111.542 261.022 112.286C260.015 113.027 258.873 113.581 257.669 113.91C256.465 114.239 255.201 114.344 253.96 114.219C252.719 114.092 251.504 113.733 250.394 113.168C249.284 112.604 248.283 111.831 247.451 110.908C248.292 111.824 249.298 112.586 250.409 113.138C251.52 113.691 252.733 114.037 253.966 114.152C255.2 114.269 256.454 114.159 257.646 113.826C258.838 113.494 259.967 112.939 260.959 112.201C261.455 111.832 261.914 111.414 262.334 110.961C262.754 110.508 263.134 110.018 263.465 109.496C264.127 108.453 264.596 107.287 264.833 106.074C265.072 104.862 265.087 103.606 264.877 102.39C264.667 101.173 264.231 99.9957 263.596 98.9366C263.281 98.4056 262.912 97.9069 262.504 97.4443C262.095 96.9816 261.645 96.5552 261.16 96.1735C260.19 95.4093 259.077 94.8257 257.894 94.4687C256.713 94.1091 255.464 93.9689 254.232 94.0564C253 94.1438 251.783 94.4572 250.663 94.9801C249.54 95.5006 248.526 96.2439 247.663 97.1305C246.805 98.0224 246.111 99.073 245.634 100.216C245.151 101.358 244.885 102.59 244.845 103.83C244.825 104.45 244.865 105.072 244.956 105.686C245.051 106.3 245.202 106.905 245.405 107.492Z" fill="#1F4068"/>
<path d="M253.82 106.926L251.4 104.507L252.14 103.767L253.82 105.447L257.65 101.617L258.389 102.357L253.82 106.926Z" fill="#1F4068"/>
<defs>
<filter id="filter0_f_608_13679" x="82.8" y="19.8" width="317.4" height="317.4" filterUnits="userSpaceOnUse" color-interpolation-filters="sRGB">
<feFlood flood-opacity="0" result="BackgroundImageFix"/>
<feBlend mode="normal" in="SourceGraphic" in2="BackgroundImageFix" result="shape"/>
<feGaussianBlur stdDeviation="35.6" result="effect1_foregroundBlur_608_13679"/>
</filter>
</defs>
</svg>
