<svg width="60" height="60" viewBox="0 0 60 60" fill="none" xmlns="http://www.w3.org/2000/svg">
<g clip-path="url(#clip0_608_13097)">
<rect width="66.4032" height="66.4032" transform="translate(-2.88867 -3.66309)" fill="#EAF5FE"/>
<path fill-rule="evenodd" clip-rule="evenodd" d="M34.5233 17.8602C35.6954 18.1392 36.815 18.6039 37.841 19.2357L39.9969 18.2782L42.5379 20.8191L41.5806 22.9743C42.2126 24.0005 42.6774 25.1205 42.9563 26.293L45.1559 27.1396V30.733L42.9558 31.5798C42.6769 32.752 42.2121 33.8715 41.5804 34.8975L42.5379 37.0535L39.997 39.5944L37.8418 38.6372C36.8156 39.2692 35.6956 39.7339 34.5232 40.0128L33.6766 42.2123H32.3822C31.4258 39.3905 29.1856 37.2108 26.4059 36.2937C26.6599 36.1213 26.8979 35.9274 27.1176 35.7145C28.4648 36.6628 30.1072 37.2199 31.8799 37.2199C36.4548 37.2199 40.1635 33.5112 40.1635 28.9363C40.1635 24.3613 36.4548 20.6527 31.8799 20.6527C28.0818 20.6527 24.8811 23.2088 23.9034 26.6947C21.6294 26.503 19.4911 27.7895 18.6038 29.8977V27.1397L20.8037 26.2928C21.0826 25.1206 21.5474 24.0008 22.1793 22.9748L21.2218 20.8192L23.7628 18.2782L25.9186 19.2357C26.9446 18.6039 28.0643 18.1392 29.2364 17.8602L30.0833 15.6602H33.6766L34.5233 17.8602ZM22.8544 36.8226L21.4508 41.2357C21.4164 41.3438 21.4396 41.4533 21.5148 41.5383L23.3146 43.5703C23.3894 43.6548 23.5211 43.6548 23.596 43.5703L25.3957 41.5383C25.4709 41.4533 25.4941 41.3438 25.4598 41.2357L24.0562 36.8226H22.8544ZM23.4553 27.678C21.1031 27.678 19.1963 29.5848 19.1963 31.937C19.1963 34.2892 21.1031 36.1961 23.4553 36.1961C25.8075 36.1961 27.7144 34.2892 27.7144 31.937C27.7144 29.5848 25.8075 27.678 23.4553 27.678ZM15.6578 44.34L22.6691 44.3399C22.6323 44.3074 22.5971 44.2724 22.564 44.235L20.7643 42.203C20.4551 41.8538 20.3541 41.3763 20.4954 40.9318L21.7472 36.996C18.3952 37.6863 15.7707 40.3682 15.1644 43.7502C15.1089 44.0593 15.3438 44.34 15.6578 44.34ZM24.2414 44.3399H31.2527C31.5667 44.3399 31.8015 44.0593 31.7461 43.7502C31.1398 40.3683 28.5152 37.6865 25.1633 36.996L26.4151 40.9319C26.5564 41.3764 26.4554 41.8539 26.1461 42.2031L24.3464 44.2351C24.3134 44.2725 24.2783 44.3074 24.2414 44.3399ZM31.8798 22.9502C29.1099 22.9502 26.7799 24.8315 26.0968 27.3859C27.6635 28.2972 28.7169 29.994 28.7169 31.937C28.7169 32.5903 28.5974 33.2156 28.3799 33.7928C29.3642 34.5033 30.5729 34.9224 31.8798 34.9224C35.1858 34.9224 37.8659 32.2423 37.8659 28.9363C37.8658 25.6302 35.1858 22.9502 31.8798 22.9502ZM32.381 32.3423V32.7243C32.381 33.0011 32.1566 33.2255 31.8798 33.2255C31.6029 33.2255 31.3785 33.0011 31.3785 32.7243V32.3328C30.4664 32.1723 29.7047 31.5921 29.4738 30.666C29.4078 30.3978 29.5718 30.1269 29.8399 30.0609C30.1081 29.9949 30.3789 30.1589 30.4449 30.427C30.6129 31.1008 31.3032 31.3936 31.9462 31.3782C32.4709 31.3657 33.3158 31.1358 33.3004 30.4867C33.2828 29.7224 32.4114 29.5077 31.8049 29.4081C30.7622 29.2368 29.718 28.7525 29.6598 27.5517C29.6085 26.4967 30.3961 25.7444 31.3778 25.5467L31.3785 25.5466V25.1482C31.3785 24.8714 31.6029 24.647 31.8798 24.647C32.1566 24.647 32.381 24.8714 32.381 25.1482V25.5391C32.4304 25.5485 32.4797 25.5593 32.5285 25.5717C33.1885 25.739 33.7888 26.1728 34.1042 26.9239C34.2113 27.1791 34.0911 27.4728 33.8359 27.5798C33.5808 27.6869 33.2871 27.5668 33.18 27.3116C32.9091 26.6665 32.234 26.3928 31.5736 26.5257C31.0839 26.6243 30.6318 26.9572 30.6584 27.5047C30.6894 28.1453 31.4478 28.3363 31.9655 28.4213C33.1195 28.6107 34.2671 29.1249 34.299 30.4633C34.3255 31.5747 33.3741 32.1913 32.381 32.3423Z" fill="#0085F2"/>
</g>
<defs>
<clipPath id="clip0_608_13097">
<rect x="0.798828" y="0.0253906" width="59.0251" height="59.025" rx="29.5125" fill="white"/>
</clipPath>
</defs>
</svg>
