<svg width="60" height="60" viewBox="0 0 60 60" fill="none" xmlns="http://www.w3.org/2000/svg">
<g clip-path="url(#clip0_608_13047)">
<rect width="66.4032" height="66.4032" transform="translate(-3.19727 -3.68945)" fill="#EAF5FE"/>
<g clip-path="url(#clip1_608_13047)">
<path fill-rule="evenodd" clip-rule="evenodd" d="M16.5941 32.4371C17.1537 32.4369 17.6961 32.2442 18.1305 31.8914C18.5648 31.5387 18.8646 31.0472 18.9796 30.4996H21.0613C21.1756 32.5667 21.9921 34.5327 23.3759 36.0725L19.7521 39.6966C19.6823 39.7667 19.6347 39.8559 19.6155 39.953C19.5963 40.0501 19.6062 40.1506 19.644 40.2421C19.6819 40.3335 19.7459 40.4117 19.8281 40.4668C19.9103 40.5219 20.007 40.5514 20.1059 40.5517C20.2386 40.5506 20.3656 40.4977 20.4597 40.4042L24.0836 36.7804C25.6226 38.165 27.5892 38.9808 29.6563 39.0921V41.1768C29.0663 41.3004 28.543 41.6384 28.1876 42.1253C27.8323 42.6122 27.67 43.2136 27.7321 43.8132C27.7943 44.4129 28.0764 44.9682 28.5241 45.3719C28.9719 45.7756 29.5533 45.999 30.1561 45.999C30.759 45.999 31.3404 45.7756 31.7881 45.3719C32.2358 44.9682 32.518 44.4129 32.5801 43.8132C32.6423 43.2136 32.48 42.6122 32.1246 42.1253C31.7692 41.6384 31.246 41.3004 30.6559 41.1768V39.0921C32.7231 38.9808 34.6898 38.165 36.2288 36.7804L39.9322 40.4839C40.0267 40.5765 40.1538 40.6284 40.2861 40.6284C40.4184 40.6284 40.5454 40.5765 40.6399 40.4839C40.7334 40.3898 40.7859 40.2626 40.7859 40.13C40.7859 39.9974 40.7334 39.8702 40.6399 39.7762L36.9364 36.0727C38.3203 34.5331 39.1369 32.5671 39.2513 30.5H41.3331C41.4567 31.0901 41.7946 31.6134 42.2816 31.9688C42.7685 32.3242 43.3699 32.4865 43.9696 32.4243C44.5692 32.3622 45.1245 32.08 45.5282 31.6323C45.9319 31.1846 46.1554 30.6031 46.1554 30.0003C46.1554 29.3974 45.9319 28.816 45.5282 28.3682C45.1245 27.9205 44.5692 27.6383 43.9696 27.5762C43.3699 27.514 42.7685 27.6764 42.2816 28.0318C41.7946 28.3872 41.4567 28.9104 41.3331 29.5005H39.2513C39.1371 27.4325 38.3205 25.4655 36.9366 23.9246L40.5751 20.2888C40.665 20.1942 40.7144 20.0682 40.7128 19.9377C40.7111 19.8071 40.6585 19.6824 40.5662 19.5901C40.4739 19.4978 40.3492 19.4452 40.2187 19.4436C40.0882 19.4419 39.9622 19.4914 39.8676 19.5813L36.229 23.2199C34.6896 21.8356 32.7234 21.0189 30.6563 20.905V18.8233C31.2463 18.6997 31.7696 18.3617 32.125 17.8748C32.4804 17.3878 32.6427 16.7864 32.5806 16.1868C32.5184 15.5872 32.2362 15.0318 31.7885 14.6281C31.3408 14.2244 30.7593 14.001 30.1565 14.001C29.5536 14.001 28.9722 14.2244 28.5245 14.6281C28.0768 15.0318 27.7946 15.5872 27.7324 16.1868C27.6703 16.7864 27.8326 17.3878 28.188 17.8748C28.5434 18.3617 29.0667 18.6997 29.6567 18.8233V20.905C27.5895 21.0188 25.6233 21.8354 24.0838 23.2197L20.3919 19.528C20.3459 19.48 20.2907 19.4417 20.2296 19.4153C20.1685 19.3889 20.1027 19.375 20.0362 19.3744C19.9696 19.3738 19.9036 19.3865 19.842 19.4117C19.7805 19.437 19.7246 19.4743 19.6776 19.5214C19.6307 19.5686 19.5936 19.6247 19.5686 19.6864C19.5437 19.7481 19.5313 19.8141 19.5322 19.8807C19.5331 19.9472 19.5474 20.0129 19.574 20.0739C19.6007 20.1349 19.6393 20.1899 19.6876 20.2357L23.3762 23.9244C21.9923 25.4652 21.1757 27.4322 21.0613 29.5001H18.9796C18.8852 29.0491 18.6649 28.6341 18.3444 28.3033C18.0238 27.9724 17.616 27.7391 17.1683 27.6305C16.7205 27.5219 16.2512 27.5425 15.8146 27.6897C15.3781 27.837 14.9922 28.105 14.7017 28.4626C14.4113 28.8202 14.2281 29.2528 14.1735 29.7103C14.1188 30.1677 14.1949 30.6313 14.393 31.0473C14.5911 31.4632 14.903 31.8145 15.2925 32.0605C15.6821 32.3064 16.1334 32.4369 16.5941 32.4369V32.4371ZM25.2807 35.2029C25.2807 34.5689 25.2749 34.2888 25.2601 33.6726L25.2572 33.5989V33.5576C25.3397 32.1245 25.8381 31.756 27.0027 31.4316C27.8844 31.1869 28.3679 31.0601 28.6481 30.9952L28.7424 30.6384C28.6651 30.5737 28.5913 30.5048 28.5213 30.4322C27.4922 29.3765 27.0381 27.5749 27.448 26.1509C27.7605 25.0572 28.8605 24.2933 30.1224 24.2933C31.3842 24.2933 32.4842 25.057 32.7968 26.1509C33.2951 27.8906 32.555 29.6893 31.5584 30.5915L31.6646 30.9956C31.9447 31.0604 32.4283 31.1872 33.3129 31.4319C34.4746 31.7563 34.9729 32.1249 35.0555 33.5579V33.5992L35.0526 33.6729C35.0378 34.2891 35.0319 34.5692 35.0319 35.2032C35.0326 35.2689 35.0201 35.3342 34.9953 35.3951C34.9706 35.456 34.9339 35.5114 34.8875 35.558C34.8412 35.6047 34.786 35.6416 34.7252 35.6668C34.6645 35.6919 34.5993 35.7047 34.5336 35.7045C34.401 35.7048 34.2738 35.6525 34.1798 35.5591C34.0858 35.4656 34.0328 35.3387 34.0323 35.2062C34.0323 34.5574 34.0386 34.2714 34.0559 33.6493V33.5931C34.0294 33.1419 33.9616 32.8795 33.8434 32.7468C33.7166 32.6053 33.4424 32.508 33.0414 32.3959C31.5464 31.9772 31.2575 31.9272 31.2074 31.9212C31.1071 31.9103 31.0126 31.8692 30.9362 31.8034C30.8599 31.7375 30.8053 31.65 30.7798 31.5525L30.6619 31.1161C30.4894 31.1663 30.3108 31.1921 30.1311 31.1928C29.9677 31.1932 29.8051 31.1714 29.6476 31.1279L29.5326 31.5525C29.507 31.65 29.4525 31.7375 29.3761 31.8034C29.2998 31.8692 29.2052 31.9103 29.105 31.9212C29.055 31.9271 28.7689 31.9775 27.2709 32.3959C26.8699 32.508 26.5959 32.6053 26.4689 32.7468C26.351 32.8795 26.2832 33.1419 26.2564 33.5931L26.2594 33.6493C26.2741 34.2714 26.2801 34.5574 26.2801 35.2062C26.2801 35.2719 26.2671 35.3369 26.2418 35.3976C26.2166 35.4582 26.1796 35.5133 26.133 35.5596C26.0864 35.6059 26.0312 35.6425 25.9704 35.6674C25.9096 35.6923 25.8444 35.7049 25.7787 35.7045C25.713 35.7047 25.6478 35.6919 25.5871 35.6667C25.5263 35.6416 25.4712 35.6046 25.4248 35.558C25.3784 35.5114 25.3418 35.456 25.317 35.3951C25.2922 35.3342 25.2798 35.2689 25.2804 35.2032L25.2807 35.2029ZM28.4092 26.4251C28.6304 25.6496 29.453 25.2928 30.1224 25.2928C30.7917 25.2928 31.6114 25.6496 31.8356 26.4251C32.2277 27.7902 31.638 29.1967 30.8566 29.8808C30.3259 30.3408 29.7804 30.2936 29.2379 29.7364C28.5626 29.0432 28.0672 27.6161 28.4092 26.4251Z" fill="#0085F2"/>
</g>
</g>
<defs>
<clipPath id="clip0_608_13047">
<rect x="0.494141" width="59.0251" height="59.025" rx="29.5125" fill="white"/>
</clipPath>
<clipPath id="clip1_608_13047">
<rect width="32" height="32" fill="white" transform="translate(14.1562 14)"/>
</clipPath>
</defs>
</svg>
