<svg width="60" height="60" viewBox="0 0 60 60" fill="none" xmlns="http://www.w3.org/2000/svg">
<g clip-path="url(#clip0_608_13054)">
<rect width="66.4032" height="66.4032" transform="translate(-3.19727 -3.6875)" fill="#EAF5FE"/>
<path fill-rule="evenodd" clip-rule="evenodd" d="M29.5567 15.0869C25.6907 15.0869 22.5566 18.2209 22.5566 22.0869C22.5566 25.9529 25.6907 29.0869 29.5567 29.0869C33.4227 29.0869 36.5567 25.9529 36.5567 22.0869C36.5567 18.2209 33.4227 15.0869 29.5567 15.0869Z" fill="#0085F2"/>
<path fill-rule="evenodd" clip-rule="evenodd" d="M35.1155 30.1195C35.7634 29.3854 36.7146 28.9199 37.7733 28.9199H40.3174C42.2747 28.9199 43.8614 30.5067 43.8614 32.4641V41.3683C43.8614 43.3258 42.2747 44.9125 40.3174 44.9125H37.7733C36.7146 44.9125 35.7634 44.447 35.1155 43.7129C34.7501 43.2989 34.7894 42.6669 35.2035 42.3014C35.6175 41.9359 36.2495 41.9754 36.615 42.3894C36.8994 42.7117 37.3122 42.9125 37.7733 42.9125H40.3174C41.1702 42.9125 41.8614 42.2211 41.8614 41.3683V32.4641C41.8614 31.6113 41.1702 30.9199 40.3174 30.9199H37.7733C37.3122 30.9199 36.8994 31.1207 36.615 31.443C36.2495 31.857 35.6175 31.8965 35.2035 31.531C34.7894 31.1655 34.7501 30.5335 35.1155 30.1195Z" fill="#0085F2"/>
<path fill-rule="evenodd" clip-rule="evenodd" d="M38.0691 36.2089C38.4597 36.5994 38.4597 37.2325 38.0691 37.623L35.4025 40.2897C35.0119 40.6802 34.3787 40.6802 33.9882 40.2897C33.5977 39.8992 33.5977 39.2661 33.9882 38.8756L36.6549 36.2089C37.0454 35.8184 37.6786 35.8184 38.0691 36.2089Z" fill="#0085F2"/>
<path fill-rule="evenodd" clip-rule="evenodd" d="M38.0691 37.6237C38.4597 37.2332 38.4597 36.6001 38.0691 36.2096L35.4025 33.5429C35.0119 33.1524 34.3787 33.1524 33.9882 33.5429C33.5977 33.9334 33.5977 34.5665 33.9882 34.957L36.6549 37.6237C37.0454 38.0142 37.6786 38.0142 38.0691 37.6237Z" fill="#0085F2"/>
<path fill-rule="evenodd" clip-rule="evenodd" d="M29.0293 36.916C29.0293 36.3637 29.4769 35.916 30.0293 35.916H36.696C37.2482 35.916 37.696 36.3637 37.696 36.916C37.696 37.4683 37.2482 37.916 36.696 37.916H30.0293C29.4769 37.916 29.0293 37.4683 29.0293 36.916Z" fill="#0085F2"/>
<path d="M32.5406 32.1629C27.4804 31.5427 22.2752 32.4627 17.6457 34.9229C16.9238 35.3065 16.4727 36.0571 16.4727 36.8746V41.7705C16.4727 43.0591 17.5173 44.1038 18.806 44.1038H33.0533C32.8087 43.4494 32.8023 42.7307 33.0261 42.0771C32.8665 41.9701 32.7149 41.8461 32.574 41.705C32.0731 41.2041 31.7864 40.5702 31.7137 39.917H30.0287C28.3717 39.917 27.0286 38.5738 27.0286 36.917C27.0286 35.2602 28.3717 33.917 30.0287 33.917H31.7137C31.7847 33.2785 32.0604 32.6583 32.5406 32.1629Z" fill="#0085F2"/>
</g>
<defs>
<clipPath id="clip0_608_13054">
<rect x="0.494141" width="59.0251" height="59.025" rx="29.5125" fill="white"/>
</clipPath>
</defs>
</svg>
