<svg width="60" height="60" viewBox="0 0 60 60" fill="none" xmlns="http://www.w3.org/2000/svg">
<g clip-path="url(#clip0_608_13076)">
<rect width="66.4032" height="66.4032" transform="translate(-2.88867 -3.63867)" fill="#EAF5FE"/>
<g clip-path="url(#clip1_608_13076)">
<path d="M28.1762 23.5976L30.4168 22.6687L32.6574 23.5976C32.9576 23.7215 33.3023 23.6824 33.5674 23.4901C33.8311 23.2982 33.9761 22.9825 33.9505 22.6575L33.7599 20.2395L35.3355 18.3949C35.5474 18.1473 35.6149 17.8066 35.5143 17.4965C35.4136 17.1859 35.1586 16.9502 34.8411 16.8745L32.483 16.3082L31.2161 14.2397C30.8789 13.6505 29.9546 13.6506 29.6174 14.2397L28.3505 16.3082L25.9924 16.8745C25.6749 16.9502 25.4199 17.1859 25.3193 17.4965C25.2186 17.8066 25.2861 18.1473 25.498 18.3949L27.0736 20.2395L26.883 22.6575C26.8574 22.9825 27.0024 23.2982 27.2661 23.4901C27.5306 23.6814 27.875 23.7226 28.1762 23.5976Z" fill="#0085F2"/>
<path d="M46.3697 21.1849C46.2691 20.8742 46.0141 20.6385 45.6966 20.5629L43.3385 19.9965L42.0716 17.928C41.901 17.6498 41.5985 17.4805 41.2722 17.4805C40.946 17.4805 40.6435 17.6499 40.4729 17.928L39.206 19.9965L36.8479 20.5629C36.5304 20.6385 36.2754 20.8742 36.1747 21.1849C36.0741 21.495 36.1416 21.8357 36.3535 22.0832L37.9291 23.9279L37.7385 26.3458C37.7129 26.6709 37.8579 26.9866 38.1216 27.1785C38.386 27.3698 38.7304 27.411 39.0316 27.286L41.2722 26.357L43.5129 27.286C43.813 27.4099 44.1578 27.3707 44.4229 27.1785C44.6866 26.9865 44.8316 26.6709 44.806 26.3458L44.6154 23.9279L46.191 22.0832C46.4029 21.8357 46.4704 21.495 46.3697 21.1849Z" fill="#0085F2"/>
<path d="M22.1587 27.3572C22.3537 27.3572 22.5468 27.2966 22.71 27.1785C22.9737 26.9865 23.1187 26.6709 23.0931 26.3458L22.9025 23.9279L24.4781 22.0832C24.69 21.8357 24.7575 21.495 24.6568 21.1849C24.5562 20.8742 24.3012 20.6385 23.9837 20.5629L21.6256 19.9965L20.3587 17.928C20.1881 17.6498 19.8856 17.4805 19.5593 17.4805C19.2331 17.4805 18.9306 17.6499 18.76 17.928L17.4931 19.9965L15.135 20.5629C14.8175 20.6385 14.5625 20.8742 14.4618 21.1849C14.3612 21.495 14.4287 21.8357 14.6406 22.0832L16.2162 23.9279L16.0256 26.3458C16 26.6709 16.145 26.9866 16.4087 27.1785C16.6731 27.3698 17.0175 27.411 17.3187 27.286L19.5593 26.357L21.8 27.286C21.9156 27.3335 22.0375 27.3572 22.1587 27.3572Z" fill="#0085F2"/>
<path d="M41.4527 36.3491L40.3434 42.7073C40.0646 44.2991 38.6827 45.4604 37.0671 45.4604H30.669C30.2221 45.4604 29.784 45.371 29.3784 45.2041C28.9727 45.0354 28.5996 44.7891 28.284 44.4729C28.2646 44.4535 28.2446 44.4341 28.2246 44.4148V33.8535L28.2671 33.8385C29.169 33.5148 29.8721 32.7923 30.1696 31.881L30.729 30.091L31.4827 27.6791C31.7046 27.001 32.4334 26.6316 33.1121 26.8535C34.3546 27.2585 35.1446 28.4135 35.1446 29.6529C35.1446 29.9566 35.0971 30.2654 34.9971 30.5691L34.1571 33.3254H38.9115C40.514 33.3254 41.729 34.771 41.4527 36.3491Z" fill="#0085F2"/>
<path d="M25.4163 45.7976H21.0767C20.5618 45.7976 20.1445 45.3803 20.1445 44.8655V33.6265C20.1445 33.1116 20.5618 32.6943 21.0767 32.6943H25.4163C25.9312 32.6943 26.3485 33.1116 26.3485 33.6265V44.8655C26.3485 45.3803 25.9312 45.7976 25.4163 45.7976Z" fill="#0085F2"/>
</g>
</g>
<defs>
<clipPath id="clip0_608_13076">
<rect x="0.798828" y="0.0507812" width="59.0251" height="59.025" rx="29.5125" fill="white"/>
</clipPath>
<clipPath id="clip1_608_13076">
<rect width="32" height="32" fill="white" transform="translate(14.416 13.7979)"/>
</clipPath>
</defs>
</svg>
