<svg width="470" height="432" viewBox="0 0 470 432" fill="none" xmlns="http://www.w3.org/2000/svg">
<path d="M347.176 135.41L348.812 132.184C350.669 132.629 352.541 132.93 354.413 133.095L354.749 136.639L367.802 135.591L367.464 132.039C369.293 131.573 371.079 130.975 372.805 130.252L375.029 133.174L385.763 126.264L383.544 123.35C384.863 122.117 386.087 120.78 387.199 119.342L390.707 120.847L396.247 109.928L392.738 108.423C393.222 106.715 393.55 104.994 393.73 103.273L397.584 102.963L396.444 90.9603L392.581 91.2704C392.074 89.5891 391.425 87.9466 390.638 86.3585L393.815 84.3137L386.302 74.4427L383.132 76.4828C381.792 75.2702 380.338 74.1446 378.774 73.122L380.411 69.8957L368.537 64.8017L366.901 68.028C365.044 67.5832 363.171 67.2818 361.3 67.1165L360.963 63.5723L347.911 64.6203L348.248 68.1726C346.42 68.6388 344.634 69.2363 342.907 69.9595L340.684 67.0383L329.95 73.9474L332.168 76.8619C330.849 78.0944 329.626 79.4314 328.513 80.8695L325.005 79.3643L319.466 90.2833L322.974 91.7885C322.49 93.4959 322.162 95.2178 321.983 96.9387L318.129 97.2481L319.269 109.251L323.131 108.941C323.638 110.622 324.288 112.265 325.074 113.853L321.898 115.898L329.411 125.769L332.581 123.728C333.921 124.941 335.375 126.067 336.939 127.089L335.302 130.316L347.176 135.41ZM347.435 119.009C336.663 113.996 331.911 101.985 336.664 91.7795C341.911 80.5098 356.383 75.6685 368.278 81.2033C379.05 86.2155 383.802 98.2267 379.049 108.432C373.802 119.702 359.33 124.543 347.435 119.009Z" fill="#F7F1EB"/>
<path d="M53.8598 177.812C53.832 177.812 53.8044 177.81 53.776 177.807L39.0487 175.793C38.9 175.773 38.7656 175.699 38.6756 175.587C38.5862 175.476 38.548 175.336 38.5702 175.199L39.1482 171.628C37.3852 171.051 35.6584 170.361 34.0037 169.573L31.5604 172.402C31.4666 172.511 31.3294 172.58 31.1801 172.596C31.0298 172.613 30.8792 172.572 30.7614 172.486L19.1026 163.971C18.8566 163.791 18.8156 163.462 19.0111 163.236L21.4543 160.408C20.243 159.102 19.1214 157.711 18.1128 156.266L14.461 157.591C14.321 157.642 14.1645 157.641 14.0258 157.584C13.8876 157.529 13.7788 157.426 13.7239 157.297L8.25675 144.561C8.20131 144.432 8.2039 144.289 8.26397 144.161C8.32405 144.034 8.43595 143.934 8.57647 143.884L12.2377 142.554C11.9012 140.864 11.687 139.146 11.5993 137.434L7.7055 136.902C7.39506 136.86 7.1808 136.594 7.22696 136.308L9.4165 122.765C9.46316 122.479 9.74858 122.285 10.0626 122.325L13.9459 122.856C14.5722 121.236 15.3222 119.649 16.1803 118.125L13.1035 115.878C12.8576 115.699 12.8166 115.37 13.012 115.144L22.2714 104.422C22.4663 104.197 22.8232 104.159 23.0702 104.338L26.1469 106.585C27.5653 105.472 29.0769 104.441 30.651 103.512L29.2097 100.154C29.0942 99.8852 29.2376 99.5815 29.5294 99.476L43.3778 94.4484C43.6691 94.3412 44.0002 94.474 44.1149 94.7424L45.5611 98.1093C47.3977 97.7999 49.2662 97.6029 51.1283 97.5218L51.7069 93.9414C51.7536 93.656 52.0429 93.4611 52.353 93.5014L67.0801 95.5144C67.2288 95.5348 67.3632 95.6088 67.4531 95.7202C67.5426 95.8314 67.5808 95.9713 67.5586 96.1088L66.9805 99.6804C68.7416 100.256 70.468 100.946 72.1246 101.735L74.5679 98.9058C74.7628 98.68 75.1206 98.6428 75.3666 98.8216L87.0259 107.337C87.2719 107.516 87.3129 107.845 87.1175 108.071L84.6742 110.901C85.8845 112.205 87.0053 113.595 88.0158 115.043L91.6675 113.717C91.9583 113.611 92.2904 113.742 92.4046 114.011L97.8718 126.746C97.9873 127.015 97.8439 127.319 97.5521 127.424L93.8908 128.754C94.2268 130.44 94.441 132.159 94.5292 133.874L98.423 134.406C98.5718 134.426 98.7061 134.5 98.7961 134.611C98.8856 134.723 98.9237 134.863 98.9016 135L96.712 148.543C96.6899 148.68 96.6094 148.804 96.4882 148.886C96.3668 148.969 96.2172 149.003 96.0656 148.983L92.1824 148.452C91.5561 150.071 90.8061 151.659 89.948 153.182L93.0247 155.429C93.1426 155.516 93.2186 155.641 93.2356 155.779C93.2529 155.917 93.2101 156.055 93.1163 156.164L83.8569 166.886C83.763 166.995 83.6264 167.064 83.4766 167.08C83.3255 167.096 83.1762 167.056 83.0578 166.97L79.9811 164.723C78.5633 165.836 77.0516 166.867 75.4765 167.796L76.9183 171.154C76.9737 171.283 76.9711 171.427 76.9111 171.554C76.8512 171.681 76.7391 171.781 76.5986 171.832L62.7502 176.86C62.6097 176.911 62.4532 176.909 62.315 176.853C62.1768 176.798 62.068 176.695 62.0131 176.566L60.5669 173.199C58.7332 173.508 56.8646 173.705 54.9997 173.786L54.4211 177.367C54.3989 177.504 54.3185 177.627 54.1973 177.71C54.0996 177.777 53.981 177.812 53.8598 177.812ZM39.7789 174.836L53.3813 176.696L53.9454 173.204C53.9859 172.955 54.2136 172.768 54.4871 172.759C56.6073 172.689 58.7363 172.465 60.8154 172.091C61.0797 172.044 61.3522 172.177 61.4528 172.413L62.8624 175.695L75.6531 171.052L74.2479 167.778C74.1468 167.543 74.2425 167.276 74.475 167.142C76.277 166.105 77.9991 164.931 79.5931 163.65C79.8006 163.484 80.1054 163.478 80.3209 163.634L83.3211 165.825L91.8732 155.922L88.8731 153.732C88.6583 153.575 88.5961 153.299 88.7248 153.077C89.7213 151.356 90.5758 149.547 91.2642 147.701C91.3537 147.462 91.6139 147.319 91.8859 147.354L95.6719 147.871L97.6944 135.362L93.8978 134.844C93.6268 134.806 93.4231 134.597 93.4135 134.345C93.3375 132.395 93.0933 130.438 92.6875 128.526C92.6346 128.279 92.7819 128.032 93.0366 127.94L96.6068 126.643L91.5571 114.88L87.9964 116.173C87.7417 116.266 87.4519 116.179 87.3057 115.964C86.1787 114.307 84.9014 112.724 83.5091 111.257C83.3286 111.067 83.3214 110.786 83.4918 110.588L85.8739 107.829L75.1049 99.9647L72.7228 102.723C72.5529 102.92 72.253 102.979 72.0104 102.859C70.14 101.943 68.1738 101.158 66.1653 100.525C65.9061 100.443 65.7473 100.203 65.7873 99.9528L66.3506 96.4704L52.7478 94.611L52.1836 98.102C52.1432 98.3512 51.9155 98.5385 51.6419 98.5472C49.5256 98.6172 47.3961 98.8417 45.3136 99.215C45.0444 99.265 44.7768 99.1286 44.6762 98.8939L43.2666 95.6112L30.4752 100.255L31.8809 103.529C31.982 103.764 31.8866 104.031 31.6538 104.165C29.8523 105.2 28.1302 106.375 26.5357 107.656C26.3287 107.822 26.0234 107.828 25.8079 107.672L22.8077 105.481L14.2555 115.384L17.2557 117.575C17.4705 117.732 17.5326 118.008 17.404 118.231C16.4074 119.95 15.553 121.758 14.8646 123.605C14.7751 123.844 14.516 123.985 14.2429 123.953L10.4569 123.435L8.4344 135.944L12.231 136.463C12.502 136.5 12.7057 136.71 12.7152 136.962C12.7908 138.907 13.0344 140.865 13.4408 142.781C13.4929 143.028 13.3464 143.275 13.0917 143.367L9.52195 144.663L14.5716 156.427L18.1324 155.134C18.3871 155.04 18.6774 155.128 18.8228 155.343C19.948 156.997 21.2256 158.581 22.6195 160.049C22.7999 160.24 22.8072 160.521 22.6367 160.719L20.2546 163.477L31.0228 171.342L33.4055 168.583C33.5759 168.386 33.8753 168.329 34.1184 168.447C35.9854 169.362 37.9516 170.148 39.963 170.782C40.2224 170.864 40.381 171.104 40.341 171.354L39.7789 174.836ZM52.9888 160.265C46.6807 160.265 40.6527 158.235 35.7474 154.411C25.0191 146.049 23.1875 131.368 31.5782 120.989C36.0444 115.465 42.5919 111.991 50.0155 111.208C57.4373 110.426 64.6716 112.445 70.3819 116.896C81.1102 125.258 82.9413 139.938 74.5511 150.318C70.0854 155.842 63.5374 159.316 56.1143 160.099C55.0673 160.21 54.0243 160.265 52.9888 160.265ZM53.1371 112.089C52.145 112.089 51.1474 112.142 50.1447 112.247C43.0369 112.997 36.7671 116.323 32.4907 121.613C24.4565 131.551 26.2103 145.607 36.4822 153.614C41.9499 157.876 48.8782 159.808 55.9844 159.061C63.0926 158.311 69.3619 154.984 73.6384 149.694C81.672 139.756 79.919 125.7 69.6468 117.693C64.9498 114.032 59.1766 112.089 53.1371 112.089Z" fill="#D3BBA3"/>
<path d="M70.8957 93.1727L72.6317 91.1625C73.8525 91.7607 75.1105 92.2608 76.3928 92.665L75.9825 95.2023L85.3265 96.4799L85.7375 93.9369C87.1045 93.8918 88.4659 93.7484 89.8087 93.5072L90.8354 95.8987L99.6222 92.7087L98.5978 90.3226C99.7472 89.6618 100.849 88.9128 101.891 88.0758L104.077 89.6723L109.952 82.8694L107.766 81.273C108.417 80.15 108.96 78.9934 109.4 77.8143L112.159 78.1915L113.548 69.5988L110.783 69.2206C110.734 67.9634 110.578 66.7115 110.316 65.4767L112.917 64.5325L109.448 56.4521L106.853 57.3942C106.135 56.3371 105.32 55.3237 104.41 54.3656L106.146 52.3554L98.7483 46.9527L97.0123 48.9629C95.7915 48.3646 94.5335 47.8646 93.2513 47.4603L93.6615 44.923L84.3176 43.6455L83.9066 46.1885C82.5395 46.2335 81.1779 46.377 79.8354 46.6179L78.8087 44.2264L70.0219 47.4165L71.0463 49.8025C69.8968 50.4633 68.7949 51.2123 67.7529 52.0493L65.567 50.4528L59.692 57.2557L61.8779 58.8521C61.2274 59.9748 60.6836 61.1317 60.244 62.3108L57.4849 61.9336L56.0957 70.5263L58.861 70.9045C58.91 72.1617 59.066 73.4138 59.3279 74.6485L56.7274 75.5924L60.1963 83.6728L62.7909 82.7307C63.5095 83.7877 64.324 84.8011 65.2342 85.7593L63.4981 87.7695L70.8957 93.1727ZM74.0678 81.7114C67.4278 76.5358 66.2856 67.3804 71.4787 60.9565C77.2132 53.8629 88.2439 52.6992 95.5762 58.4144C102.216 63.59 103.358 72.7454 98.1654 79.1694C92.4306 86.2629 81.3999 87.4266 74.0678 81.7114Z" fill="#F7F1EB"/>
<path d="M125.294 23.5967C121.432 23.5967 118.568 26.354 118.568 29.9059V367.339C118.568 369.691 120.374 371.366 122.931 371.366H338.691C342.553 371.366 345.589 368.718 345.589 365.166V29.9059C345.589 26.354 342.553 23.5967 338.691 23.5967H125.294Z" fill="#E6D0BE"/>
<path d="M345.171 389.47H118.99C111.856 389.47 106.053 384.133 106.053 377.573V11.8968C106.053 5.33704 111.856 0 118.99 0H345.171C352.305 0 358.108 5.33704 358.108 11.8968V377.573C358.108 384.133 352.305 389.47 345.171 389.47ZM118.99 1.04564C112.483 1.04564 107.19 5.91345 107.19 11.8968V377.573C107.19 383.557 112.483 388.424 118.99 388.424H345.171C351.678 388.424 356.971 383.557 356.971 377.573V11.8968C356.971 5.91345 351.678 1.04564 345.171 1.04564H118.99Z" fill="#363E44"/>
<path d="M250.6 12.5857H209.975C209.66 12.5857 209.406 12.3519 209.406 12.0629C209.406 11.7738 209.66 11.54 209.975 11.54H250.6C250.914 11.54 251.169 11.7738 251.169 12.0629C251.169 12.3519 250.914 12.5857 250.6 12.5857Z" fill="#363E44"/>
<path d="M260.096 46.084H202.971V95.4663H260.096V46.084Z" fill="#D3BBA3"/>
<path d="M260.667 174.894H203.369V224.425H260.667V174.894Z" fill="#D3BBA3"/>
<path d="M187.556 110.128H130.316V159.609H187.556V110.128Z" fill="#D3BBA3"/>
<path d="M187.254 174.743H130.129V224.125H187.254V174.743Z" fill="#F7F1EB"/>
<path d="M260.749 110.035H203.623V159.417H260.749V110.035Z" fill="#F7F1EB"/>
<path d="M261.274 303.207H203.977V352.738H261.274V303.207Z" fill="#D3BBA3"/>
<path d="M264.116 351.168H206.819C206.504 351.168 206.25 350.934 206.25 350.645V301.114C206.25 300.825 206.504 300.591 206.819 300.591H264.116C264.431 300.591 264.685 300.825 264.685 301.114V350.645C264.685 350.934 264.431 351.168 264.116 351.168ZM207.387 350.122H263.548V301.636H207.387V350.122Z" fill="#F7F1EB"/>
<path d="M188.165 237.918H130.926V287.399H188.165V237.918Z" fill="#D3BBA3"/>
<path d="M333.938 46.7949H276.812V96.1772H333.938V46.7949Z" fill="white"/>
<path d="M336.501 94.3452H279.375C279.061 94.3452 278.807 94.1114 278.807 93.8224V44.4398C278.807 44.1508 279.061 43.917 279.375 43.917H336.501C336.815 43.917 337.069 44.1508 337.069 44.4398V93.8224C337.069 94.1114 336.815 94.3452 336.501 94.3452ZM279.944 93.2995H335.932V44.9626H279.944V93.2995Z" fill="#D3BBA3"/>
<path d="M334.514 175.605H277.217V225.137H334.514V175.605Z" fill="#F2E6DC"/>
<path d="M334.606 110.746H277.48V160.128H334.606V110.746Z" fill="#D3BBA3"/>
<path d="M335.204 238.534H278.078V287.916H335.204V238.534Z" fill="#D3BBA3"/>
<path d="M187.253 45.2358L129.754 45.8506L130.361 95.7731L187.86 95.1584L187.253 45.2358Z" fill="#F2E6DC"/>
<path d="M132.088 94.209C131.777 94.209 131.523 93.9788 131.519 93.6924L130.9 43.7685C130.897 43.4795 131.148 43.2431 131.462 43.2395L188.963 42.6366C189.106 42.6278 189.259 42.6887 189.367 42.7857C189.475 42.8827 189.537 43.015 189.538 43.1532L190.157 93.0776C190.159 93.2165 190.101 93.3503 189.995 93.4494C189.89 93.5485 189.746 93.6051 189.596 93.6066L132.095 94.209C132.092 94.209 132.09 94.209 132.088 94.209ZM132.044 44.279L132.65 93.1572L189.014 92.5671L188.408 43.6884L132.044 44.279Z" fill="#D3BBA3"/>
<path d="M335.118 303.917H277.82V353.448H335.118V303.917Z" fill="#F7F1EB"/>
<path d="M261.36 237.822H204.234V287.205H261.36V237.822Z" fill="white"/>
<path d="M264.2 285.634H207.074C206.76 285.634 206.506 285.401 206.506 285.112V235.729C206.506 235.44 206.76 235.206 207.074 235.206H264.2C264.514 235.206 264.768 235.44 264.768 235.729V285.111C264.768 285.4 264.514 285.634 264.2 285.634ZM207.643 284.589H263.631V236.252H207.643V284.589Z" fill="#D3BBA3"/>
<path d="M187.86 303.057H130.734V352.439H187.86V303.057Z" fill="#F2E6DC"/>
<path d="M236.523 206.684C274.419 206.684 305.139 178.433 305.139 143.583C305.139 108.734 274.419 80.4824 236.523 80.4824C198.627 80.4824 167.906 108.734 167.906 143.583C167.906 178.433 198.627 206.684 236.523 206.684Z" fill="#EFBC73"/>
<path d="M234.185 209.351C196.036 209.351 165 180.81 165 145.728C165 110.646 196.036 82.1045 234.185 82.1045C272.333 82.1045 303.37 110.646 303.37 145.728C303.37 180.81 272.333 209.351 234.185 209.351ZM234.185 83.1499C196.663 83.1499 166.137 111.222 166.137 145.728C166.137 180.234 196.663 208.306 234.185 208.306C271.707 208.306 302.233 180.234 302.233 145.728C302.233 111.222 271.706 83.1499 234.185 83.1499Z" fill="#363E44"/>
<path d="M211.059 183.045C208.244 183.045 205.987 182.187 204.343 180.493C200.694 176.729 200.606 169.236 204.096 159.393C207.541 149.679 214.058 138.774 222.449 128.687C235.613 112.86 250.557 102.411 260.52 102.066C263.562 101.961 265.993 102.817 267.731 104.61C271.381 108.373 271.469 115.866 267.978 125.71C264.534 135.424 258.017 146.328 249.626 156.415C236.461 172.242 221.518 182.691 211.555 183.036C211.388 183.042 211.222 183.045 211.059 183.045ZM261.01 103.103C260.862 103.103 260.713 103.106 260.562 103.111C251.073 103.439 236.119 113.973 223.351 129.321C206.267 149.861 198.121 172.504 205.191 179.796C206.694 181.345 208.831 182.083 211.511 181.991C221.002 181.662 235.955 171.129 248.723 155.78C265.807 135.24 273.954 112.597 266.883 105.305C265.465 103.843 263.491 103.103 261.01 103.103Z" fill="#363E44"/>
<path d="M232.273 163.091C216.135 163.091 201.554 159.344 194.315 153.189C191.217 150.553 189.591 147.641 189.484 144.532C189.096 133.263 209.661 123.203 235.325 122.107C253.203 121.345 269.857 125.193 277.759 131.913C280.859 134.549 282.485 137.462 282.592 140.571C282.98 151.84 262.415 161.9 236.75 162.996C235.248 163.06 233.753 163.091 232.273 163.091ZM239.83 123.056C238.357 123.056 236.873 123.088 235.378 123.152C210.33 124.222 190.252 133.797 190.62 144.499C190.717 147.317 192.221 149.983 195.088 152.421C202.778 158.962 219.106 162.698 236.698 161.951C261.745 160.882 281.823 151.306 281.456 140.604C281.358 137.785 279.855 135.12 276.987 132.681C269.951 126.697 255.677 123.056 239.83 123.056Z" fill="#363E44"/>
<path d="M262.461 180.847C252.479 180.847 237.26 171.769 223.448 157.526C214.387 148.182 207.137 137.862 203.034 128.469C198.877 118.952 198.447 111.476 201.824 107.416C203.473 105.433 205.91 104.372 209.066 104.263C219.041 103.912 234.562 113.068 248.63 127.575C257.691 136.918 264.941 147.238 269.044 156.631C273.201 166.148 273.631 173.625 270.254 177.684C268.605 179.667 266.168 180.728 263.012 180.837C262.831 180.844 262.646 180.847 262.461 180.847ZM224.296 156.829C237.935 170.894 253.483 180.122 262.969 179.793C265.77 179.696 267.918 178.772 269.352 177.049C275.902 169.172 266.227 147.291 247.782 128.271C234.379 114.45 219.138 105.299 209.606 105.299C209.438 105.299 209.273 105.301 209.108 105.307C206.308 105.404 204.161 106.327 202.727 108.051C196.175 115.927 205.852 137.809 224.296 156.829Z" fill="#363E44"/>
<path d="M234.946 146.521C238.203 146.406 240.743 143.884 240.618 140.889C240.493 137.893 237.751 135.558 234.494 135.673C231.236 135.788 228.697 138.309 228.822 141.305C228.947 144.3 231.688 146.635 234.946 146.521Z" fill="#D87355"/>
<path d="M340.784 403.429C342.423 406.163 344.271 409.936 345.444 414.638C347.261 421.917 346.634 428.117 345.897 431.957C327.344 431.957 308.791 431.957 290.238 431.957C290.623 429.673 291.261 427.642 292.031 425.846C299.383 408.704 322.912 403.523 328.253 402.462C332.43 402.784 336.607 403.107 340.784 403.429Z" fill="#E6D0BE"/>
<path d="M347.453 386.127L343.217 404.193C342.282 407.835 338.457 410.302 334.445 409.67C334.216 409.634 333.982 409.59 333.745 409.538C330.031 408.719 327.532 405.509 327.812 402.007L329.645 384.33L347.453 386.127Z" fill="#E2A18D"/>
<path d="M451.876 398.064C451.876 398.064 461.158 414.546 459.499 431.957C447.051 431.957 434.603 431.957 422.154 431.957C423.128 428.204 424.615 423.829 426.934 419.143C430.909 411.113 435.868 405.125 439.891 401.032L451.876 398.064Z" fill="#E6D0BE"/>
<path d="M453.547 402.04C453.812 396.023 453.78 384.924 450.802 375.991L429.09 381.886C429.09 381.886 436.214 391.847 438.467 402.973C439.147 406.337 442.398 408.771 446.109 408.518C446.595 408.484 447.102 408.426 447.629 408.339C450.959 407.787 453.41 405.148 453.547 402.04Z" fill="#E2A18D"/>
<path d="M415.917 222.202C415.917 222.202 456.709 280.786 457.217 393.787H427.428C427.428 393.787 391.706 296.14 368.18 271.794L376.882 217.293L415.917 222.202Z" fill="#8B865C"/>
<path d="M397.179 283.957C397.179 283.957 359.469 341.113 350.732 393.787H322.939C322.939 393.787 319.668 265.943 370.357 214.259L395.886 219.266L397.179 283.957Z" fill="#8B865C"/>
<path d="M384.748 294.571C384.532 294.571 384.327 294.458 384.231 294.266L368.437 262.728C368.306 262.466 368.43 262.155 368.716 262.034C369 261.914 369.339 262.028 369.47 262.291L385.263 293.829C385.395 294.091 385.27 294.402 384.985 294.523C384.908 294.555 384.827 294.571 384.748 294.571Z" fill="#363E44"/>
<path d="M380.281 178.451C380.281 178.451 348.781 199.26 322.438 176.019L316.842 165.577C316.842 165.577 310.382 181.773 314.946 197.558C319.51 213.343 338.277 216.532 364.018 211.706L380.281 178.451Z" fill="#E2A18D"/>
<path d="M430.234 241.141C414.118 231.825 380.391 214.036 356.558 213.222C356.558 213.222 353.833 193.932 377.513 176.518C377.513 176.518 404.87 160.493 440.989 174.872C440.989 174.872 466.059 213.324 454.054 235.125C449.614 243.186 438.553 245.95 430.234 241.141Z" fill="#D87355"/>
<path d="M440.277 174.496C440.277 185.287 439.708 194.463 438.717 210.05C437.578 227.955 437.058 236.665 444.276 239.316C484.197 253.976 473.569 190.646 440.277 174.496Z" fill="#E2A18D"/>
<path d="M448.025 211.695C448.025 211.695 424.054 202.72 410.982 198.786C397.254 194.656 376.331 190.395 375.721 193.095C375.373 194.632 378.096 195.756 385.591 198.314C385.071 198.533 383.702 199.432 383.634 200.906C383.533 203.088 385.402 203.771 385.543 203.893C385.36 203.954 383.411 204.663 383.075 206.113C382.696 207.747 383.479 209.004 384.643 209.762C384.195 209.926 382.608 210.688 382.329 212.091C382.043 213.534 382.882 215.232 384.471 215.686C387.387 216.519 396.102 218.844 400.194 220.45C408.246 223.612 435.2 238.368 448.15 240.109C445.986 229.884 448.025 211.695 448.025 211.695Z" fill="#E2A18D"/>
<path d="M388.147 215.674C388.115 215.674 388.081 215.671 388.048 215.666C387.739 215.616 387.532 215.345 387.587 215.06L388.036 212.723C388.091 212.439 388.385 212.248 388.695 212.299C389.005 212.349 389.211 212.621 389.156 212.905L388.707 215.242C388.658 215.496 388.418 215.674 388.147 215.674Z" fill="#363E44"/>
<path d="M389.347 210.054C389.32 210.054 389.293 210.052 389.265 210.049C388.954 210.008 388.739 209.743 388.783 209.457L389.201 206.801C389.245 206.515 389.537 206.314 389.844 206.359C390.155 206.4 390.371 206.665 390.326 206.951L389.909 209.606C389.869 209.866 389.625 210.054 389.347 210.054Z" fill="#363E44"/>
<path d="M390.163 204.074C390.13 204.074 390.097 204.071 390.063 204.066C389.754 204.015 389.548 203.743 389.603 203.46C389.688 203.016 389.762 202.617 389.836 202.217C389.908 201.829 389.98 201.441 390.062 201.012C390.117 200.728 390.404 200.536 390.722 200.589C391.031 200.639 391.237 200.91 391.182 201.195C391.1 201.621 391.029 202.007 390.957 202.392C390.883 202.795 390.809 203.196 390.722 203.642C390.674 203.896 390.434 204.074 390.163 204.074Z" fill="#363E44"/>
<path d="M391.345 199.218C391.298 199.218 391.251 199.213 391.204 199.202C390.9 199.131 390.715 198.846 390.793 198.567L391.425 196.283C391.501 196.003 391.815 195.833 392.116 195.905C392.42 195.976 392.605 196.261 392.527 196.541L391.895 198.824C391.83 199.061 391.599 199.218 391.345 199.218Z" fill="#363E44"/>
<path d="M327.002 192.953H350.875L335.131 159.081H311.258L327.002 192.953Z" fill="#363E44"/>
<path d="M329.729 163.169C329.729 163.989 330.451 164.653 331.342 164.653C332.233 164.653 332.956 163.989 332.956 163.169C332.956 162.35 332.233 161.686 331.342 161.686C330.451 161.686 329.729 162.35 329.729 163.169Z" fill="#EFBC73"/>
<path d="M311.852 170.66C311.852 172.883 312.055 174.685 316.242 174.685C320.429 174.685 327.013 172.883 327.013 170.66C327.013 168.437 320.429 166.635 316.242 166.635C312.056 166.635 311.852 168.437 311.852 170.66Z" fill="#E2A18D"/>
<path d="M329.244 176.576C329.244 174.353 322.659 172.551 318.473 172.551C314.286 172.551 314.082 174.353 314.082 176.576H329.244Z" fill="#E2A18D"/>
<path d="M314.082 176.576C314.082 178.799 314.286 180.601 318.473 180.601C322.659 180.601 329.244 178.799 329.244 176.576H314.082Z" fill="#E2A18D"/>
<path d="M331.458 182.491C331.458 180.268 324.874 178.466 320.687 178.466C316.501 178.466 316.297 180.268 316.297 182.491H331.458Z" fill="#E2A18D"/>
<path d="M316.297 182.49C316.297 184.713 316.501 186.515 320.687 186.515C324.874 186.515 331.458 184.713 331.458 182.49H316.297Z" fill="#E2A18D"/>
<path d="M330.577 187.578C330.577 185.812 325.343 184.379 322.015 184.379C318.688 184.379 318.525 185.811 318.525 187.578H330.577Z" fill="#E2A18D"/>
<path d="M318.525 187.58C318.525 189.347 318.687 190.78 322.015 190.78C325.344 190.78 330.577 189.347 330.577 187.58H318.525Z" fill="#E2A18D"/>
<path d="M420.776 153.026C424.032 145.797 420.299 137.509 412.438 134.514C404.577 131.52 395.564 134.953 392.308 142.182C389.052 149.411 392.785 157.699 400.646 160.694C408.507 163.688 417.52 160.255 420.776 153.026Z" fill="#363E44"/>
<path d="M395.892 154.674C397.842 153.684 401.182 151.038 402.259 152.831L414.898 171.418C415.975 173.211 409.509 172.587 407.56 173.578C405.61 174.568 403.157 173.918 402.08 172.125L394.312 159.714C393.235 157.921 393.943 155.664 395.892 154.674Z" fill="#E2A18D"/>
<path d="M408.244 175.871C414.264 175.871 419.143 174.52 419.143 172.853C419.143 171.187 414.264 169.836 408.244 169.836C402.225 169.836 397.346 171.187 397.346 172.853C397.346 174.52 402.225 175.871 408.244 175.871Z" fill="#E2A18D"/>
<path d="M385.691 159.787C387.44 162.797 397.691 161.503 397.691 161.503L406.63 155.092C408.959 150.796 407.06 145.577 402.388 143.436C397.717 141.294 392.042 143.04 389.713 147.336C389.713 147.336 383.91 156.722 385.691 159.787Z" fill="#E2A18D"/>
<path d="M389.578 149.827C389.578 149.827 385.966 151.025 385.765 151.687C385.525 152.476 387.93 154.127 387.93 154.127C387.93 154.127 389.512 149.804 389.578 149.827Z" fill="#E2A18D"/>
<path d="M397.388 152.995C397.388 152.995 396.352 151.646 394.645 150.863C394.281 150.697 393.518 153.684 393.944 153.69C395.821 153.72 397.388 152.995 397.388 152.995Z" fill="white"/>
<mask id="mask0_608_13226" style="mask-type:luminance" maskUnits="userSpaceOnUse" x="388" y="150" width="10" height="4">
<path d="M397.387 152.995C397.387 152.995 395.863 151.01 393.466 150.458C391.07 149.907 388.709 150.998 388.709 150.998C388.709 150.998 390.233 152.983 392.63 153.535C395.026 154.086 397.387 152.995 397.387 152.995Z" fill="white"/>
</mask>
<g mask="url(#mask0_608_13226)">
<path d="M394.611 150.759C394.045 149.204 392.215 148.364 390.523 148.885C388.831 149.406 387.918 151.089 388.484 152.645C389.05 154.201 390.881 155.04 392.573 154.519C394.265 153.999 395.177 152.316 394.611 150.759Z" fill="#363E44"/>
</g>
<path d="M389.877 157.085C389.214 157.085 388.59 156.763 388.246 156.23C388.086 155.982 388.174 155.66 388.444 155.513C388.713 155.364 389.063 155.447 389.223 155.696C389.376 155.933 389.664 156.066 389.96 156.035C390.243 156.005 390.49 155.824 390.588 155.574C390.694 155.303 391.018 155.162 391.315 155.259C391.611 155.357 391.764 155.656 391.658 155.928C391.415 156.549 390.798 156.999 390.088 157.074C390.018 157.081 389.947 157.085 389.877 157.085Z" fill="#363E44"/>
<path d="M413.37 156.671C413.37 156.671 400.088 157.21 391.689 144.996C383.291 132.782 406.338 133.5 415.909 137.631C422.039 140.278 413.37 156.671 413.37 156.671Z" fill="#363E44"/>
<path d="M410.068 166.811C409.189 166.811 407.707 166.648 406.433 165.711C405.086 164.719 404.334 163.138 404.198 161.012C403.992 157.778 406.448 156.005 408.073 154.832C408.55 154.489 409.202 154.018 409.249 153.827C409.223 153.816 408.962 153.506 406.924 153.004C399.3 151.128 395.056 143.224 394.879 142.888C394.742 142.629 394.86 142.316 395.143 142.19C395.426 142.064 395.765 142.172 395.902 142.432C395.943 142.51 400.102 150.244 407.218 151.995C409.36 152.522 410.212 152.97 410.364 153.648C410.529 154.39 409.755 154.948 408.776 155.655C407.251 156.756 405.162 158.264 405.333 160.951C405.45 162.769 406.059 164.096 407.143 164.895C408.666 166.016 410.63 165.735 410.65 165.733C410.962 165.69 411.253 165.88 411.303 166.165C411.354 166.45 411.143 166.718 410.833 166.765C410.8 166.77 410.51 166.811 410.068 166.811Z" fill="white"/>
<path d="M431.122 106.77C431.122 106.77 444.284 133.484 413.63 145.798C413.63 145.798 427.321 123.807 404.363 105.85L431.122 106.77Z" fill="#363E44"/>
<path d="M186.146 350.45H0.263672V432H186.146V350.45Z" fill="#EFBC73"/>
<path d="M162.734 250.285L149.568 238.177C148 236.735 145.53 236.541 143.719 237.718L132.908 244.743C130.849 246.636 128.057 247.699 125.146 247.699H40.6871C24.9997 247.699 11.7198 258.347 9.58287 272.639L0 329.414H77.5419L93.1834 277.386H129.42C138.285 277.386 146.792 274.171 153.096 268.44L163.193 255.715C164.515 254.048 164.321 251.744 162.734 250.285Z" fill="#D87355"/>
<path d="M131.86 249.381C131.86 249.381 131.86 249.38 131.861 249.379C150.879 233.325 164.037 221.6 168.254 218.127C168.695 217.763 169.472 217.118 170.69 216.562C175.204 214.503 178.554 216.971 184.375 216.797C190.98 216.6 194.578 213.05 195.706 214.204C196.491 215.006 195.544 216.697 192.404 219.217C192.404 219.217 192.404 219.218 192.404 219.218C195.03 217.555 198.697 215.443 199.692 216.78C200.751 218.38 196.759 221.327 194.25 223.001C197.287 220.974 199.562 220.733 199.914 221.605C200.47 222.978 198.512 225.054 194.385 227.589C197.766 226.571 198.752 226.788 198.859 227.629C199.055 229.164 195.619 231.189 192.283 232.551C188.527 234.085 185.036 234.076 182.835 234.022C182.835 234.022 182.834 234.022 182.834 234.023C170.781 246.537 162.423 254.136 153.539 264.888C147.877 271.74 129.356 262.196 131.86 249.381Z" fill="#84524D"/>
<path d="M131.586 249.942C131.433 249.942 131.279 249.884 131.168 249.773C130.955 249.56 130.971 249.229 131.201 249.034C133.732 246.897 136.36 244.667 139.119 242.313C139.349 242.116 139.709 242.128 139.923 242.341C140.136 242.552 140.123 242.883 139.892 243.079C137.132 245.434 134.502 247.666 131.971 249.804C131.861 249.896 131.724 249.942 131.586 249.942Z" fill="#363E44"/>
<path d="M179.08 218.099C183.604 213.758 184.236 211.31 183.465 210.672C182.168 209.6 176.656 211.853 169.174 217.431C171.916 217.845 176.338 217.685 179.08 218.099Z" fill="#84524D"/>
<path d="M175.113 227.949C174.972 227.949 174.831 227.901 174.72 227.804C174.494 227.604 174.485 227.273 174.702 227.064C175.559 226.241 177.031 225.164 179.176 224.712C182.214 224.075 184.697 225.119 185.625 225.599C185.898 225.741 185.995 226.059 185.842 226.311C185.687 226.562 185.341 226.651 185.067 226.51C184.255 226.09 182.077 225.172 179.431 225.731C177.559 226.125 176.273 227.067 175.524 227.787C175.412 227.894 175.263 227.949 175.113 227.949Z" fill="#363E44"/>
<path d="M180.535 217.298C180.507 217.298 180.478 217.295 180.45 217.292C179.662 217.183 178.922 217.05 178.206 216.922C176.735 216.658 175.345 216.406 173.988 216.468C173.678 216.485 173.408 216.259 173.393 215.971C173.379 215.682 173.621 215.438 173.934 215.424C175.432 215.36 176.884 215.62 178.423 215.896C179.127 216.022 179.855 216.153 180.619 216.258C180.929 216.301 181.144 216.567 181.097 216.852C181.054 217.112 180.812 217.298 180.535 217.298Z" fill="#363E44"/>
<path d="M186.691 221.245C186.396 221.245 186.146 221.036 186.125 220.761C186.102 220.473 186.337 220.222 186.65 220.201C187.41 220.15 188.166 220.034 188.899 219.857C189.965 219.599 190.99 219.21 191.948 218.7C192.218 218.554 192.567 218.64 192.725 218.89C192.882 219.14 192.789 219.46 192.518 219.605C191.472 220.161 190.353 220.586 189.189 220.868C188.388 221.062 187.562 221.188 186.732 221.244C186.719 221.245 186.705 221.245 186.691 221.245Z" fill="#363E44"/>
<path d="M188.921 224.756C188.626 224.756 188.377 224.546 188.355 224.271C188.332 223.983 188.568 223.733 188.881 223.711C189.64 223.66 190.396 223.544 191.129 223.367C192.192 223.11 193.218 222.72 194.178 222.21C194.451 222.063 194.798 222.15 194.955 222.4C195.112 222.651 195.019 222.97 194.748 223.115C193.699 223.672 192.58 224.097 191.419 224.378C190.619 224.572 189.792 224.698 188.963 224.754C188.949 224.755 188.935 224.756 188.921 224.756Z" fill="#363E44"/>
<path d="M188.744 229.693C188.448 229.693 188.199 229.483 188.177 229.208C188.155 228.92 188.39 228.669 188.703 228.649C189.461 228.598 190.218 228.483 190.952 228.305C192.018 228.047 193.043 227.657 194.001 227.147C194.272 227.001 194.62 227.088 194.777 227.338C194.935 227.587 194.842 227.908 194.57 228.052C193.525 228.608 192.405 229.034 191.242 229.316C190.44 229.51 189.613 229.637 188.785 229.691C188.771 229.692 188.757 229.693 188.744 229.693Z" fill="#363E44"/>
<path d="M110.253 282.586H73.75L92.7261 240.046H126.927C128.923 240.046 130.281 241.908 129.523 243.607L112.85 280.985C112.418 281.954 111.392 282.586 110.253 282.586Z" fill="#363E44"/>
<path d="M108.465 281.799H74.2091C73.8948 281.799 73.6406 281.565 73.6406 281.276C73.6406 280.987 73.8948 280.754 74.2091 280.754H108.465C109.306 280.754 110.056 280.291 110.375 279.576L126.022 244.499C126.288 243.903 126.217 243.255 125.826 242.72C125.437 242.185 124.812 241.879 124.112 241.879C123.797 241.879 123.543 241.645 123.543 241.356C123.543 241.067 123.797 240.833 124.112 240.833C125.181 240.833 126.175 241.321 126.771 242.137C127.366 242.954 127.48 243.985 127.074 244.895L111.427 279.972C110.932 281.082 109.77 281.799 108.465 281.799Z" fill="#E6D0BE"/>
<path d="M100.963 268.354C99.5289 265.152 87.8134 269.855 86.1736 270.359C86.2695 270.257 101.65 264.12 100.55 261.017C99.4818 258.002 86.7674 263.594 83.6904 264.574C86.1818 263.303 97.3863 257.663 96.3717 255.405C94.2199 250.617 70.8347 263.875 66.0782 266.28C64.5683 267.043 54.9902 272.324 45.1309 277.638L58.1335 300.504C61.7625 298.347 65.8595 295.818 70.6413 292.779C78.1505 288.007 84.1418 283.681 88.3662 281.541C89.6312 280.521 100.103 277.277 98.9009 274.581C98.0036 272.569 90.0365 275.377 87.8668 275.773C89.4019 274.79 102.344 271.438 100.963 268.354Z" fill="#84524D"/>
<path d="M77.3619 266.386C77.1477 266.386 76.9427 266.275 76.8463 266.085L75.8348 264.095C75.702 263.833 75.8247 263.522 76.1091 263.4C76.3956 263.28 76.7326 263.391 76.8654 263.653L77.8768 265.642C78.0096 265.904 77.8869 266.215 77.6025 266.338C77.5246 266.371 77.4424 266.386 77.3619 266.386Z" fill="#363E44"/>
<path d="M79.9322 271.432C79.718 271.432 79.513 271.321 79.4166 271.131L78.4051 269.141C78.2723 268.88 78.395 268.568 78.6794 268.446C78.9643 268.325 79.3029 268.437 79.4357 268.698L80.4471 270.688C80.5799 270.95 80.4572 271.261 80.1728 271.384C80.0944 271.417 80.0127 271.432 79.9322 271.432Z" fill="#363E44"/>
<path d="M82.6139 276.545C82.3996 276.545 82.1947 276.434 82.0982 276.243L81.0867 274.253C80.9539 273.992 81.0767 273.68 81.3616 273.558C81.647 273.438 81.9845 273.549 82.117 273.811L83.1285 275.801C83.2613 276.063 83.1386 276.374 82.8542 276.496C82.7761 276.529 82.6943 276.545 82.6139 276.545Z" fill="#363E44"/>
<path d="M84.9518 281.227C84.738 281.227 84.5333 281.116 84.4366 280.926L83.4246 278.936C83.2918 278.674 83.4146 278.363 83.6995 278.241C83.9841 278.119 84.3224 278.231 84.4549 278.493L85.4659 280.483C85.5992 280.744 85.4765 281.056 85.1921 281.178C85.1142 281.212 85.0322 281.227 84.9518 281.227Z" fill="#363E44"/>
<path d="M27.9173 314.183C24.5154 314.183 20.3882 313.285 16.4165 310.115C16.1796 309.926 16.154 309.596 16.3598 309.378C16.5653 309.159 16.9244 309.136 17.1614 309.326C24.8815 315.487 33.2194 312.487 34.812 311.823C41.2097 309.156 47.5169 306.17 57.3925 300.323L51.1309 289.311C50.9855 289.055 51.0925 288.739 51.3707 288.605C51.65 288.47 51.9931 288.571 52.138 288.826L58.6406 300.261C58.7773 300.5 58.6922 300.796 58.4457 300.942C48.2597 306.995 41.8187 310.05 35.2818 312.775C34.3987 313.144 31.5775 314.183 27.9173 314.183Z" fill="#363E44"/>
<path d="M26.9773 287.69C26.7747 287.69 26.5787 287.59 26.4761 287.415C26.3273 287.16 26.4312 286.843 26.7076 286.706C30.56 284.803 36.4927 281.689 44.8458 277.188C45.1168 277.041 45.4649 277.125 45.6237 277.374C45.7825 277.623 45.692 277.944 45.4211 278.089C37.0558 282.597 31.1107 285.717 27.2463 287.627C27.1607 287.67 27.0686 287.69 26.9773 287.69Z" fill="#363E44"/>
<path d="M155.274 322.389L99.6931 347.021C81.9851 354.869 88.6349 358.944 68.9779 358.944H33.6953L139.841 292.937C148.685 289.018 159.309 292.434 163.571 300.567C167.833 308.7 164.118 318.47 155.274 322.389Z" fill="#363E44"/>
<path d="M87.2021 366.03C77.1177 387.404 63.2348 398.355 45.2539 398.062L55.7411 351.564L72.2209 347.775L87.2021 366.03Z" fill="#E6D0BE"/>
<path d="M161.077 320.175L87.443 372.841L65.4141 346.795L139.048 294.129C146.489 288.806 157.213 290.039 163 296.882L164.071 298.148C169.858 304.99 168.518 314.852 161.077 320.175Z" fill="#8B865C"/>
<path d="M142.778 340.734L127.469 349.916L136.787 366.136L153.76 360.015L142.778 340.734Z" fill="#84524D"/>
<path d="M132.791 357.754L137.717 380.214H195.643C189.471 368.848 175.105 359.93 152.545 353.461L132.791 357.754Z" fill="#E6D0BE"/>
<path d="M139.864 319.776L128.173 305.11L122.328 297.778L119.405 294.111L119.039 293.653L118.943 293.532L118.668 293.216L118.109 292.59C117.728 292.178 117.351 291.765 116.943 291.373C116.53 290.984 116.107 290.6 115.676 290.226C115.46 290.039 115.244 289.852 115.023 289.671L114.336 289.146C113.874 288.801 113.404 288.464 112.928 288.136C112.444 287.818 111.945 287.518 111.443 287.222C110.94 286.927 110.434 286.638 109.906 286.385C105.723 284.282 101.01 283.136 96.2488 283.118C93.8688 283.08 91.4782 283.367 89.1437 283.868C88.5631 284.007 87.9843 284.157 87.409 284.318L86.5497 284.568L85.7061 284.86C85.1453 285.06 84.5883 285.271 84.0373 285.492C83.4928 285.722 82.9596 285.974 82.4277 286.23C81.3533 286.733 80.3609 287.33 79.3742 287.946L78.0693 288.785L76.0458 290.091L71.9991 292.702L55.8121 303.146L23.4381 324.034C23.1457 324.224 22.8 324.459 22.5151 324.665C13.4076 331.254 11.8333 343.385 18.9987 351.761C26.1642 360.136 39.3559 361.584 48.4634 354.995L79.5444 332.507L95.085 321.263L95.2433 321.149L99.3139 325.708L111.861 339.762L132.158 362.497L157.822 342.302L139.864 319.776ZM89.9985 315.285C89.8809 315.161 89.7563 315.05 89.6488 314.921C89.5942 314.857 89.5418 314.792 89.4921 314.726L89.4191 314.625L89.5119 314.728L89.9041 315.167L90.0859 315.371C90.0578 315.341 90.0255 315.316 89.9985 315.285Z" fill="#8B865C"/>
<path d="M119.001 348.296C118.836 348.296 118.672 348.231 118.56 348.104L100.638 327.961C100.439 327.738 100.475 327.409 100.719 327.225C100.961 327.043 101.319 327.075 101.519 327.299L119.44 347.443C119.639 347.666 119.603 347.995 119.36 348.178C119.254 348.258 119.127 348.296 119.001 348.296Z" fill="#363E44"/>
<path d="M145.047 326.81C144.872 326.81 144.699 326.736 144.588 326.596L125.088 302.136C124.903 301.903 124.957 301.576 125.211 301.405C125.463 301.234 125.819 301.285 126.006 301.518L145.505 325.978C145.69 326.211 145.636 326.538 145.382 326.709C145.281 326.777 145.164 326.81 145.047 326.81Z" fill="#363E44"/>
<path d="M66.7414 251.768C66.5292 253.505 60.2656 254.285 52.751 253.509C45.2367 252.734 39.317 250.696 39.529 248.958C39.7412 247.22 46.0047 246.44 53.5194 247.216C61.0337 247.992 66.9536 250.03 66.7414 251.768Z" fill="#84524D"/>
<path d="M67.1227 238.189C63.1682 240.891 51.6572 233.995 51.6572 233.995L44.8741 221.639C44.7248 215.266 50.221 209.99 57.1504 209.852C64.0797 209.715 69.8178 214.769 69.9671 221.142C69.9671 221.142 71.1506 235.436 67.1227 238.189Z" fill="#84524D"/>
<path d="M60.0691 221.223L44.8652 221.523L45.5474 250.694L60.7512 250.393L60.0691 221.223Z" fill="#84524D"/>
<path d="M68.6006 224.205C68.6006 224.205 72.1992 227.526 72.0329 228.425C71.8343 229.498 67.9297 230.227 67.9297 230.227C67.9297 230.227 68.6942 224.211 68.6006 224.205Z" fill="#84524D"/>
<path d="M57.25 223.937C57.25 223.937 59.3261 222.857 61.8583 222.807C62.3969 222.796 61.4736 226.781 60.9569 226.566C58.6854 225.624 57.25 223.937 57.25 223.937Z" fill="white"/>
<mask id="mask1_608_13226" style="mask-type:luminance" maskUnits="userSpaceOnUse" x="57" y="222" width="12" height="6">
<path d="M57.2363 223.939C57.2363 223.939 60.2899 222.35 63.5071 222.937C66.7241 223.524 68.8866 226.065 68.8866 226.065C68.8866 226.065 65.8331 227.654 62.6161 227.067C59.3988 226.48 57.2363 223.939 57.2363 223.939Z" fill="white"/>
</mask>
<g mask="url(#mask1_608_13226)">
<path d="M61.9572 222.704C63.5958 221.131 66.311 221.077 68.0218 222.584C69.7325 224.091 69.7911 226.588 68.1525 228.161C66.514 229.734 63.7987 229.788 62.088 228.281C60.3772 226.774 60.3187 224.278 61.9572 222.704Z" fill="#363E44"/>
</g>
<path d="M64.8284 232.812C64.4042 232.812 63.9806 232.706 63.607 232.494C62.8593 232.068 62.4313 231.27 62.5166 230.462C62.5465 230.175 62.8165 229.963 63.1372 229.992C63.4497 230.019 63.6784 230.275 63.648 230.563C63.6042 230.978 63.8233 231.387 64.2054 231.605C64.6022 231.829 65.111 231.82 65.5024 231.578C65.7622 231.415 66.1163 231.479 66.2913 231.719C66.4667 231.958 66.3978 232.283 66.1377 232.445C65.7429 232.689 65.2852 232.812 64.8284 232.812Z" fill="#363E44"/>
<path d="M63.2841 239.144C63.2552 239.144 63.2258 239.142 63.1959 239.138C58.2107 238.423 51.6431 234.794 51.3662 234.64C51.0975 234.491 51.0114 234.169 51.1741 233.922C51.3357 233.675 51.6843 233.596 51.9545 233.746C52.0205 233.782 58.6085 237.422 63.3712 238.105C63.6817 238.149 63.8936 238.417 63.8454 238.702C63.8016 238.96 63.5594 239.144 63.2841 239.144Z" fill="#363E44"/>
<path d="M53.2473 224.439C53.2473 224.439 53.2473 210.667 68.8889 213.422C78.4185 215.1 77.5418 207.301 77.5418 207.301L73.8811 208.219C73.8811 208.219 79.8714 203.016 76.2106 197.813C71.6474 191.328 59.9033 199.649 50.5849 204.852C47.4571 206.599 44.5165 208.207 41.9902 209.573C37.3832 212.065 35.8455 217.519 38.5589 221.753L44.5943 231.172L45.2103 235.917L48.9208 225.051L53.2473 224.439Z" fill="#363E44"/>
<path d="M50.927 228.428C52.6815 226.815 52.6815 224.199 50.927 222.585C49.1725 220.972 46.3278 220.972 44.5733 222.585C42.8188 224.199 42.8188 226.815 44.5733 228.428C46.3278 230.042 49.1725 230.042 50.927 228.428Z" fill="#84524D"/>
<path d="M46.4448 228.072C46.3455 228.072 46.245 228.048 46.1539 227.998C45.9531 227.888 45.7625 227.761 45.5883 227.624C44.8867 227.072 44.4231 226.334 44.2836 225.547C44.1387 224.728 44.3597 223.954 44.9047 223.368C45.1835 223.069 45.5271 222.839 45.9268 222.685C46.2138 222.575 46.5492 222.697 46.6712 222.964C46.7929 223.23 46.6567 223.536 46.3674 223.649C46.132 223.739 45.9304 223.874 45.768 224.048C45.4444 224.396 45.3155 224.869 45.406 225.379C45.5019 225.922 45.8296 226.438 46.3285 226.83C46.4546 226.93 46.5918 227.021 46.7367 227.1C47.0064 227.248 47.0943 227.569 46.9331 227.817C46.8266 227.981 46.6384 228.072 46.4448 228.072Z" fill="#363E44"/>
</svg>
