<svg width="326" height="324" viewBox="0 0 326 324" fill="none" xmlns="http://www.w3.org/2000/svg">
<path d="M1.42059 157.581L111.149 100.745C113.686 99.2811 118.118 99.4649 121.049 101.155L307.632 202.728C310.562 204.421 309.693 212.445 307.156 213.911L198.193 276.818C195.656 278.284 191.224 278.1 188.294 276.408L2.89948 169.37C-0.0326822 167.677 -1.11464 159.046 1.42059 157.581Z" fill="#333333"/>
<path d="M188.291 269.786C191.222 271.477 195.654 271.661 198.191 270.195L307.154 207.287C309.691 205.821 309.372 203.263 306.443 201.57L121.047 94.5335C118.117 92.8406 113.685 92.6568 111.148 94.121L2.18401 157.03C-0.351227 158.496 -0.03386 161.056 2.89831 162.748L188.291 269.786Z" fill="#4D4D4D"/>
<path d="M183.244 260.241L291.674 197.639L115.785 96.0918L7.35352 158.693L183.244 260.241Z" fill="#AEE4EB"/>
<path opacity="0.3" d="M183.245 260.24L291.675 197.638L260.85 179.844L152.418 242.445L183.245 260.24Z" fill="#333333"/>
<path d="M239.222 236.972C242.534 238.886 247.544 239.091 250.413 237.439C253.284 235.781 252.922 232.887 249.612 230.974C246.3 229.064 241.288 228.855 238.417 230.512C235.548 232.167 235.909 235.06 239.222 236.972Z" fill="#333333"/>
<path d="M7.35352 158.693L113.591 97.3576L113.513 97.3155L115.785 96.0918L291.674 197.639L289.4 198.865L117.422 99.5718L11.1244 160.945L7.35352 158.693Z" fill="#333333"/>
<path d="M202.046 244.018L189.869 251.049C187.86 252.209 184.318 252.062 181.997 250.722L167.936 242.605C165.616 241.265 165.362 239.22 167.371 238.06L179.548 231.03C181.557 229.87 185.099 230.016 187.419 231.356L201.48 239.474C203.801 240.814 204.055 242.859 202.046 244.018Z" fill="#8CC63F"/>
<path d="M200.128 242.912L187.951 249.942C185.942 251.102 182.399 250.956 180.08 249.616L181.997 250.722C184.317 252.062 187.86 252.209 189.869 251.049L202.046 244.018C204.055 242.859 203.801 240.814 201.48 239.474L199.564 238.367C201.883 239.706 202.137 241.751 200.128 242.912Z" fill="#8CC63F"/>
<path d="M193.955 240.411C193.93 240.236 193.809 240.111 193.582 240.026C193.488 239.982 193.374 239.952 193.257 239.946C193.131 239.926 193.008 239.921 192.897 239.928L189.215 240.341L189.175 240.339C189.063 240.357 188.942 240.401 188.816 240.474C188.618 240.588 188.524 240.714 188.559 240.863L188.664 241.677C188.668 241.722 188.643 241.76 188.577 241.798C188.406 241.867 188.147 241.926 187.809 241.976C187.509 242.005 187.135 242.042 186.665 242.078C186.19 242.112 185.568 242.105 184.822 242.077C184.278 242.052 183.744 242.009 183.232 241.952C182.819 241.916 182.392 241.857 181.95 241.773C181.521 241.698 181.189 241.603 180.961 241.479C180.892 241.439 180.844 241.392 180.838 241.346L180.757 240.655C180.74 240.532 180.657 240.415 180.528 240.306C180.392 240.199 180.209 240.114 180.01 240.07L176.179 239.256C175.854 239.182 175.577 239.199 175.38 239.312C175.259 239.383 175.195 239.493 175.184 239.627L175.432 241.491C175.438 241.581 175.476 241.681 175.545 241.786C175.635 241.902 175.724 241.994 175.824 242.062L176.37 242.376L177.936 243C178.987 243.424 179.928 243.551 180.785 243.666C182.051 243.835 182.966 243.96 185.068 244.091C186.518 244.183 187.752 244.141 188.776 244.059C189.807 243.981 190.663 243.869 191.353 243.734C192.042 243.591 192.575 243.442 192.955 243.295C193.341 243.141 193.595 243.023 193.729 242.945C193.795 242.908 193.84 242.881 193.866 242.851C193.896 242.823 193.919 242.811 193.934 242.802C194.013 242.734 194.08 242.652 194.123 242.549C194.175 242.447 194.198 242.356 194.183 242.263L193.955 240.411Z" fill="white"/>
<path opacity="0.2" d="M184.121 233.027L170.828 240.701C170.08 241.133 168.761 241.079 167.897 240.58C167.033 240.081 166.938 239.319 167.687 238.888L180.979 231.213C181.727 230.782 183.046 230.836 183.91 231.335C184.775 231.833 184.869 232.595 184.121 233.027Z" fill="white"/>
<path d="M226.621 229.83L214.444 236.86C212.435 238.02 208.893 237.874 206.573 236.534L192.513 228.416C190.192 227.076 189.938 225.031 191.947 223.871L204.124 216.841C206.133 215.681 209.676 215.828 211.996 217.168L226.057 225.285C228.376 226.625 228.63 228.67 226.621 229.83Z" fill="#FBB03B"/>
<path d="M208.941 229.217L214.914 225.768C215.253 225.572 215.014 225.224 214.73 224.949L210.781 221.635L201.781 226.831L207.521 229.112C207.978 229.292 208.6 229.413 208.941 229.217ZM212.735 225.599L209.993 223.302C209.835 223.17 209.876 223.006 210.085 222.933C210.292 222.859 210.587 222.908 210.745 223.04L213.487 225.335C213.622 225.449 213.61 225.59 213.467 225.672C213.445 225.685 213.421 225.695 213.395 225.705C213.187 225.779 212.891 225.731 212.735 225.599ZM211.233 226.522L208.08 224.464C207.894 224.343 207.894 224.174 208.079 224.082C208.262 223.992 208.562 224.016 208.745 224.138L211.898 226.196C212.075 226.311 212.083 226.472 211.921 226.565C211.914 226.57 211.907 226.574 211.898 226.577C211.715 226.668 211.417 226.642 211.233 226.522ZM205.976 225.298C206.13 225.193 206.426 225.192 206.636 225.298L210.202 227.118C210.409 227.224 210.452 227.398 210.296 227.504C210.288 227.508 210.282 227.513 210.274 227.517C210.114 227.61 209.835 227.605 209.635 227.503L206.071 225.683C205.861 225.576 205.818 225.404 205.976 225.298ZM203.983 226.456C204.109 226.336 204.395 226.312 204.625 226.402L208.601 227.986C208.829 228.077 208.912 228.246 208.787 228.367C208.771 228.383 208.751 228.396 208.728 228.409C208.586 228.491 208.344 228.499 208.146 228.42L204.167 226.838C203.939 226.746 203.856 226.575 203.983 226.456Z" fill="white"/>
<path d="M211.274 230.114C210.691 230.451 210.765 231.039 211.438 231.427C212.11 231.815 213.128 231.858 213.712 231.521C214.294 231.184 214.22 230.596 213.549 230.208C212.876 229.819 211.857 229.777 211.274 230.114ZM212.95 231.081C212.731 231.207 212.35 231.192 212.098 231.046C211.844 230.9 211.818 230.679 212.036 230.553C212.256 230.427 212.636 230.443 212.889 230.59C213.142 230.735 213.169 230.955 212.95 231.081Z" fill="white"/>
<path d="M216.288 227.219C215.705 227.556 215.779 228.144 216.452 228.532C217.124 228.92 218.142 228.963 218.726 228.627C219.308 228.29 219.234 227.702 218.563 227.314C217.889 226.925 216.871 226.882 216.288 227.219ZM217.964 228.187C217.745 228.313 217.364 228.298 217.111 228.152C216.858 228.006 216.831 227.785 217.05 227.659C217.269 227.533 217.65 227.549 217.902 227.696C218.155 227.841 218.182 228.06 217.964 228.187Z" fill="white"/>
<path d="M217.389 226.01L209.401 230.621C209.114 230.787 208.644 230.799 208.255 230.65L199.321 227.217L198.382 227.759C198.185 227.873 197.839 227.859 197.61 227.727C197.382 227.595 197.358 227.397 197.556 227.282L198.576 226.694C198.863 226.528 199.334 226.517 199.721 226.665L208.656 230.097L216.562 225.533C216.76 225.418 217.106 225.434 217.334 225.566C217.561 225.697 217.588 225.896 217.389 226.01Z" fill="white"/>
<path d="M224.704 228.723L212.527 235.754C210.518 236.913 206.976 236.767 204.656 235.427L206.573 236.534C208.894 237.874 212.436 238.02 214.444 236.86L226.621 229.83C228.63 228.67 228.376 226.625 226.056 225.285L224.139 224.179C226.459 225.519 226.713 227.564 224.704 228.723Z" fill="#FBB03B"/>
<path opacity="0.2" d="M208.697 218.838L195.404 226.513C194.656 226.944 193.337 226.89 192.473 226.391C191.609 225.893 191.515 225.131 192.263 224.699L205.555 217.025C206.303 216.593 207.622 216.647 208.487 217.146C209.35 217.645 209.445 218.407 208.697 218.838Z" fill="white"/>
<path d="M251.196 215.641L239.019 222.671C237.01 223.831 233.468 223.684 231.148 222.344L217.087 214.227C214.766 212.887 214.512 210.842 216.522 209.682L228.698 202.652C230.708 201.492 234.25 201.638 236.569 202.978L250.63 211.096C252.951 212.435 253.206 214.48 251.196 215.641Z" fill="#0071BC"/>
<path d="M243.482 211.173C243.791 211.351 244.003 211.56 244.135 211.775L235.305 211.125L235.265 206.702C235.688 206.774 236.095 206.907 236.439 207.106L243.482 211.173ZM234.157 212.832L234.103 206.679C233.746 206.724 233.418 206.816 233.154 206.969L224.003 212.252C223.739 212.405 223.578 212.595 223.5 212.8L234.157 212.832ZM235.311 211.791L235.325 213.216C235.325 213.299 235.272 213.372 235.181 213.424C235.091 213.476 234.968 213.506 234.823 213.506L232.354 213.498L233.495 218.66C233.897 218.622 234.272 218.524 234.567 218.353L243.719 213.069C244.013 212.899 244.187 212.682 244.25 212.45L235.311 211.791ZM223.541 213.471C223.666 213.716 223.896 213.952 224.24 214.15L231.283 218.216C231.592 218.395 231.954 218.517 232.327 218.593L231.2 213.496L223.541 213.471Z" fill="white"/>
<path d="M249.278 214.534L237.101 221.564C235.092 222.724 231.55 222.578 229.23 221.238L231.147 222.344C233.468 223.684 237.01 223.831 239.019 222.671L251.196 215.64C253.205 214.481 252.951 212.436 250.631 211.096L248.714 209.989C251.033 211.329 251.288 213.374 249.278 214.534Z" fill="#0071BC"/>
<path opacity="0.2" d="M233.271 204.649L219.979 212.323C219.23 212.755 217.912 212.701 217.047 212.202C216.183 211.703 216.089 210.941 216.837 210.51L230.13 202.835C230.878 202.404 232.196 202.458 233.061 202.957C233.925 203.455 234.019 204.216 233.271 204.649Z" fill="white"/>
<path d="M275.77 201.452L263.594 208.483C261.584 209.642 258.042 209.496 255.722 208.156L241.661 200.038C239.341 198.698 239.086 196.653 241.096 195.494L253.273 188.463C255.282 187.303 258.824 187.45 261.143 188.79L275.204 196.908C277.526 198.247 277.78 200.292 275.77 201.452Z" fill="#F2F2F2"/>
<path d="M255.46 194.585C251.873 194.418 249.137 195.966 249.363 198.034C249.589 200.102 252.694 201.92 256.279 202.088C259.472 202.235 261.985 201.024 262.338 199.296C262.564 199.387 262.826 199.447 263.104 199.461L268.328 199.704C269.089 199.739 269.665 199.414 269.614 198.976C269.568 198.537 268.914 198.153 268.154 198.119L262.93 197.876C262.653 197.862 262.403 197.901 262.194 197.971C261.455 196.191 258.652 194.732 255.46 194.585ZM260.726 198.562C260.897 200.105 258.854 201.261 256.177 201.137C253.497 201.011 251.184 199.654 251.012 198.109C250.845 196.566 252.884 195.41 255.563 195.535C258.241 195.661 260.556 197.018 260.726 198.562Z" fill="#4D4D4D"/>
<path d="M273.853 200.345L261.677 207.376C259.667 208.535 256.125 208.389 253.805 207.049L255.722 208.156C258.042 209.496 261.584 209.642 263.594 208.482L275.77 201.452C277.78 200.292 277.525 198.247 275.205 196.907L273.288 195.801C275.608 197.14 275.863 199.185 273.853 200.345Z" fill="#B3B3B3"/>
<path opacity="0.2" d="M257.845 190.461L244.553 198.135C243.805 198.566 242.486 198.513 241.621 198.013C240.757 197.515 240.663 196.753 241.411 196.321L254.704 188.647C255.452 188.215 256.771 188.269 257.635 188.769C258.498 189.267 258.593 190.029 257.845 190.461Z" fill="white"/>
<path d="M198.795 185.356L161.141 207.095C157.407 209.251 150.825 208.978 146.512 206.489C142.201 203.999 141.728 200.199 145.462 198.044L183.116 176.304C186.85 174.148 193.433 174.421 197.744 176.91C202.056 179.4 202.529 183.2 198.795 185.356Z" fill="#8CC63F"/>
<path opacity="0.2" d="M187.734 177.548L147.616 200.71C147 201.066 145.913 201.021 145.201 200.61C144.489 200.2 144.41 199.572 145.027 199.215L185.144 176.054C185.761 175.698 186.847 175.743 187.56 176.153C188.272 176.565 188.35 177.192 187.734 177.548Z" fill="white"/>
<path d="M197.081 184.367L159.428 206.107C155.944 208.118 149.983 208.015 145.697 205.971C145.952 206.149 146.223 206.322 146.512 206.489C150.824 208.979 157.407 209.251 161.141 207.096L198.795 185.356C202.529 183.2 202.056 179.399 197.745 176.911C197.456 176.743 197.155 176.587 196.846 176.44C200.386 178.914 200.565 182.356 197.081 184.367Z" fill="#8CC63F"/>
<path d="M160.405 202.181L154.257 198.631L156.406 197.39C156.834 197.143 157.262 196.982 157.688 196.907C158.112 196.83 158.517 196.825 158.901 196.889C159.283 196.953 159.624 197.071 159.924 197.245C160.189 197.397 160.36 197.55 160.438 197.704C160.518 197.856 160.532 198.005 160.48 198.151C160.43 198.295 160.341 198.432 160.213 198.562L160.273 198.596C160.473 198.495 160.728 198.424 161.038 198.383C161.348 198.343 161.68 198.35 162.032 198.406C162.384 198.461 162.722 198.583 163.046 198.77C163.355 198.948 163.562 199.148 163.668 199.371C163.774 199.594 163.748 199.835 163.59 200.092C163.432 200.35 163.11 200.619 162.626 200.898L160.405 202.181ZM160.489 201.37L161.966 200.517C162.452 200.236 162.703 199.982 162.719 199.756C162.735 199.527 162.608 199.335 162.338 199.179C162.13 199.059 161.885 198.978 161.602 198.938C161.318 198.896 161.025 198.902 160.723 198.954C160.419 199.004 160.133 199.107 159.864 199.262L158.351 200.135L160.489 201.37ZM157.703 199.761L159.084 198.964C159.308 198.834 159.466 198.692 159.558 198.538C159.652 198.382 159.672 198.227 159.618 198.073C159.566 197.918 159.432 197.778 159.216 197.654C158.946 197.498 158.623 197.42 158.246 197.42C157.868 197.418 157.475 197.536 157.067 197.771L155.662 198.583L157.703 199.761ZM163.789 193.128L164.534 192.698L168.605 195.048C169.025 195.291 169.301 195.564 169.433 195.869C169.565 196.172 169.547 196.482 169.379 196.798C169.209 197.114 168.883 197.411 168.4 197.689C167.918 197.968 167.404 198.156 166.857 198.254C166.309 198.351 165.772 198.362 165.245 198.287C164.719 198.21 164.246 198.05 163.825 197.807L159.755 195.457L160.499 195.027L164.51 197.343C164.81 197.516 165.143 197.632 165.509 197.691C165.874 197.749 166.245 197.746 166.623 197.682C167.001 197.616 167.362 197.485 167.704 197.287C168.046 197.09 168.274 196.882 168.388 196.663C168.5 196.444 168.505 196.229 168.403 196.02C168.301 195.809 168.1 195.616 167.8 195.443L163.789 193.128ZM165.492 192.144L166.345 191.652L170.92 192.325L170.992 192.283L169.827 189.642L170.68 189.15L172.073 192.519L174.606 193.982L173.862 194.411L171.328 192.949L165.492 192.144ZM169.524 201.817L175.672 205.366L174.952 205.782L166.774 204.929L166.714 204.964L171.541 207.751L170.797 208.181L164.649 204.631L165.369 204.215L173.571 205.068L173.631 205.033L168.792 202.239L169.524 201.817ZM179.275 199.736C179.924 200.111 180.367 200.502 180.605 200.91C180.843 201.318 180.886 201.713 180.734 202.097C180.582 202.481 180.244 202.824 179.719 203.127C179.195 203.429 178.601 203.625 177.936 203.712C177.272 203.8 176.586 203.775 175.88 203.638C175.174 203.5 174.496 203.244 173.848 202.87C173.199 202.496 172.756 202.104 172.518 201.697C172.28 201.289 172.237 200.893 172.389 200.509C172.541 200.126 172.879 199.783 173.403 199.48C173.928 199.177 174.522 198.982 175.187 198.894C175.851 198.806 176.536 198.831 177.243 198.969C177.949 199.106 178.627 199.362 179.275 199.736ZM178.555 200.152C178.022 199.845 177.484 199.637 176.94 199.528C176.397 199.419 175.881 199.397 175.391 199.463C174.902 199.527 174.472 199.667 174.1 199.882C173.728 200.097 173.484 200.346 173.37 200.629C173.258 200.911 173.296 201.209 173.484 201.523C173.675 201.836 174.036 202.147 174.568 202.454C175.1 202.761 175.638 202.97 176.18 203.08C176.725 203.188 177.241 203.21 177.729 203.146C178.219 203.08 178.651 202.939 179.023 202.724C179.395 202.51 179.637 202.261 179.749 201.979C179.864 201.696 179.826 201.398 179.635 201.085C179.447 200.771 179.087 200.46 178.555 200.152ZM184.718 200.144L176.889 197.565L177.645 197.128L183.937 199.277L183.997 199.243L180.299 195.596L181.139 195.111L187.455 197.246L187.515 197.211L183.793 193.579L184.55 193.142L189.016 197.662L188.248 198.106L181.992 196.061L181.944 196.088L185.486 199.7L184.718 200.144ZM186.318 192.121L190.677 194.707L189.98 195.109L185.501 192.592L186.318 192.121ZM192.105 195.934C191.957 196.02 191.777 196.062 191.565 196.062C191.353 196.062 191.173 196.02 191.025 195.934C190.877 195.849 190.803 195.745 190.803 195.622C190.803 195.5 190.877 195.396 191.025 195.31C191.173 195.225 191.353 195.182 191.565 195.182C191.777 195.182 191.957 195.225 192.105 195.31C192.204 195.367 192.269 195.433 192.301 195.509C192.335 195.585 192.336 195.66 192.304 195.737C192.272 195.81 192.206 195.876 192.105 195.934Z" fill="white"/>
<path d="M170.874 165.859C172.881 149.397 150.917 133.175 121.818 129.629C92.718 126.082 67.5013 136.552 65.4947 153.015C63.488 169.478 85.4513 185.699 114.551 189.246C143.651 192.793 168.867 182.322 170.874 165.859Z" fill="white"/>
<g opacity="0.1">
<path d="M188.738 257.069L194.727 253.612L93.6118 113.307L87.623 116.765L188.738 257.069Z" fill="white"/>
<path d="M113.826 101.638L98.1055 110.713L199.22 251.018L214.941 241.942L113.826 101.638Z" fill="white"/>
</g>
<path d="M118.171 184.632V136.973L76.8965 113.144V160.803L118.171 184.632Z" fill="#ED1E79"/>
<path d="M118.17 184.632V136.973L159.444 113.144V160.803L118.17 184.632Z" fill="#C91A67"/>
<path d="M118.17 150.733V137.867L75.3477 113.144V126.009L118.17 150.733Z" fill="#FF6BA2"/>
<path d="M118.17 150.733V137.867L160.993 113.144V126.009L118.17 150.733Z" fill="#FF478C"/>
<path d="M160.993 113.144L118.17 137.867L75.3477 113.144L118.17 88.4199L160.993 113.144Z" fill="#FF7BAC"/>
<path d="M101.061 174.756L89.25 167.971V121.359L101.12 128.076L101.061 174.756Z" fill="#F2F2F2"/>
<path d="M134.935 175.055L147.089 167.971V121.359L134.711 128.364L134.935 175.055Z" fill="#E6E6E6"/>
<path d="M89.25 121.359L131.901 96.3477L144.095 103.388L101.12 128.076L89.25 121.359Z" fill="white"/>
<path d="M147.091 121.359L104.44 96.3477L91.8203 103.633L134.713 128.364L147.091 121.359Z" fill="white"/>
<path d="M91.5797 95.9759C91.6418 95.9366 91.7068 95.9 91.7717 95.8643C91.8339 95.825 91.8988 95.7884 91.9638 95.7528C92.026 95.7125 92.0909 95.6768 92.1558 95.6412C92.218 95.6019 92.283 95.5653 92.3479 95.5296C92.4101 95.4903 92.475 95.4537 92.54 95.418C92.6022 95.3778 92.6671 95.3421 92.732 95.3064C92.7942 95.2671 92.8592 95.2305 92.9241 95.1949C92.9863 95.1555 93.0512 95.1189 93.1162 95.0833C93.1784 95.044 93.2433 95.0074 93.3082 94.9717C93.3704 94.9324 93.4354 94.8958 93.5003 94.8601C93.5625 94.8208 93.6274 94.7842 93.6924 94.7485C93.7546 94.7092 93.8195 94.6726 93.8844 94.637C93.9466 94.5976 94.0116 94.5611 94.0765 94.5254C94.1387 94.4851 94.2036 94.4495 94.2685 94.4138C94.3307 94.3745 94.3957 94.3379 94.4606 94.3022C94.5228 94.2629 94.5877 94.2263 94.6527 94.1906C94.7149 94.1513 94.7798 94.1147 94.8447 94.0791C94.9069 94.0388 94.9719 94.0032 95.0368 93.9675C95.099 93.9282 95.1639 93.8916 95.2289 93.8559C95.2911 93.8166 95.356 93.78 95.4209 93.7443C95.4831 93.7041 95.5481 93.6684 95.613 93.6327C95.6752 93.5925 95.7401 93.5568 95.8051 93.5212C95.8672 93.4818 95.9322 93.4453 95.9971 93.4096C96.0593 93.3694 96.1242 93.3337 96.1892 93.298C96.2514 93.2578 96.3163 93.2221 96.3812 93.1864C96.4434 93.1471 96.5084 93.1105 96.5733 93.0748C96.6355 93.0346 96.7004 92.9989 96.7654 92.9633C96.8276 92.923 96.8925 92.8874 96.9574 92.8517C97.0196 92.8124 97.0846 92.7758 97.1495 92.7401C97.2117 92.6999 97.2766 92.6642 97.3416 92.6285C97.4037 92.5892 97.4687 92.5526 97.5336 92.517C97.5958 92.4767 97.6607 92.441 97.7257 92.4054C97.7879 92.366 97.8528 92.3295 97.9178 92.2938C97.9799 92.2545 98.0449 92.2179 98.1098 92.1822C98.172 92.142 98.2369 92.1063 98.3019 92.0706C98.3641 92.0313 98.429 91.9947 98.4939 91.9591C98.5561 91.9188 98.6211 91.8831 98.686 91.8475C98.7482 91.8082 98.8131 91.7716 98.8781 91.7359C98.9403 91.6957 99.0052 91.66 99.0701 91.6243C99.1323 91.585 99.1973 91.5484 99.2622 91.5127C99.3244 91.4734 99.3893 91.4368 99.4542 91.4012C99.5164 91.3609 99.5814 91.3252 99.6463 91.2896C99.7085 91.2503 99.7734 91.2137 99.8384 91.178C99.9006 91.1387 99.9655 91.1021 100.03 91.0664C100.093 91.0262 100.158 90.9905 100.223 90.9548C100.285 90.9155 100.35 90.8789 100.415 90.8433C100.477 90.8039 100.542 90.7673 100.607 90.7317C100.669 90.6914 100.734 90.6558 100.799 90.6201C100.861 90.5808 100.926 90.5442 100.992 90.5085C101.054 90.4692 101.119 90.4326 101.184 90.3969C101.246 90.3567 101.311 90.321 101.376 90.2854C101.438 90.246 101.503 90.2095 101.568 90.1738C101.63 90.1335 101.695 90.0979 101.76 90.0622C101.822 90.0229 101.887 89.9863 101.952 89.9506C102.014 89.9113 102.079 89.8747 102.144 89.839C102.206 89.7997 102.271 89.7631 102.336 89.7275C102.398 89.6881 102.463 89.6516 102.528 89.6159C102.59 89.5756 102.655 89.54 102.72 89.5043C102.782 89.465 102.847 89.4284 102.912 89.3927C102.974 89.3525 103.039 89.3168 103.105 89.2811C103.167 89.2418 103.232 89.2052 103.297 89.1696C103.36 89.1302 103.424 89.0937 103.489 89.058C103.552 89.0187 103.617 88.9821 103.681 88.9464C103.744 88.9071 103.809 88.8705 103.874 88.8348C103.936 88.7946 104.001 88.7589 104.066 88.7232C104.128 88.6839 104.193 88.6473 104.258 88.6117C104.32 88.5723 104.385 88.5358 104.45 88.5001C104.512 88.4608 104.577 88.4242 104.642 88.3885C104.704 88.3492 104.769 88.3126 104.834 88.2769C104.896 88.2376 104.961 88.201 105.026 88.1653C105.088 88.126 105.153 88.0894 105.218 88.0538C105.28 88.0144 105.345 87.9779 105.41 87.9422C105.472 87.9029 105.537 87.8663 105.602 87.8306C105.664 87.7904 105.729 87.7547 105.794 87.719C105.856 87.6797 105.921 87.6431 105.986 87.6075C107.664 86.5365 110.345 86.7651 113.368 88.5101C118.449 91.4441 122.569 97.5536 122.569 102.157C122.569 103.43 122.252 104.107 121.689 104.362C121.628 104.406 121.564 104.443 121.497 104.473C121.436 104.516 121.372 104.555 121.305 104.585C121.244 104.628 121.18 104.666 121.113 104.697C121.052 104.74 120.988 104.778 120.921 104.808C120.86 104.851 120.796 104.889 120.728 104.92C120.668 104.963 120.604 105.001 120.536 105.031C120.476 105.074 120.412 105.113 120.344 105.143C120.284 105.186 120.22 105.224 120.152 105.254C120.092 105.297 120.028 105.336 119.96 105.366C119.9 105.409 119.836 105.447 119.768 105.478C119.708 105.521 119.644 105.559 119.576 105.589C119.516 105.632 119.452 105.671 119.384 105.701C119.324 105.744 119.26 105.782 119.192 105.812C119.132 105.855 119.068 105.894 119 105.924C118.94 105.967 118.876 106.005 118.808 106.035C118.747 106.078 118.683 106.117 118.616 106.147C118.555 106.19 118.491 106.228 118.424 106.259C118.363 106.302 118.299 106.34 118.232 106.37C118.171 106.414 118.107 106.452 118.04 106.482C117.979 106.525 117.915 106.563 117.848 106.593C117.787 106.636 117.723 106.675 117.655 106.705C117.595 106.748 117.531 106.786 117.463 106.817C117.403 106.86 117.339 106.898 117.271 106.928C117.211 106.972 117.147 107.01 117.079 107.04C117.019 107.083 116.955 107.121 116.887 107.151C116.827 107.194 116.763 107.233 116.695 107.263C116.635 107.306 116.571 107.344 116.503 107.374C116.443 107.417 116.379 107.456 116.311 107.486C116.251 107.53 116.187 107.567 116.119 107.598C116.059 107.641 115.995 107.679 115.927 107.709C115.867 107.752 115.803 107.791 115.735 107.821C115.674 107.864 115.61 107.902 115.543 107.932C115.482 107.975 115.418 108.014 115.351 108.044C115.29 108.087 115.226 108.125 115.159 108.155C115.098 108.198 115.034 108.237 114.967 108.267C114.906 108.31 114.842 108.348 114.775 108.379C114.714 108.422 114.65 108.46 114.582 108.49C114.522 108.533 114.458 108.572 114.39 108.602C114.33 108.645 114.266 108.683 114.198 108.713C114.138 108.756 114.074 108.795 114.006 108.825C113.946 108.868 113.882 108.906 113.814 108.937C113.754 108.98 113.69 109.018 113.622 109.048C113.562 109.091 113.498 109.13 113.43 109.16C113.37 109.203 113.306 109.241 113.238 109.271C113.178 109.314 113.114 109.353 113.046 109.383C112.986 109.426 112.922 109.464 112.854 109.494C112.794 109.537 112.729 109.576 112.662 109.606C112.601 109.649 112.537 109.687 112.47 109.718C112.409 109.761 112.345 109.799 112.278 109.829C112.217 109.872 112.153 109.911 112.086 109.941C112.025 109.984 111.961 110.022 111.894 110.052C111.833 110.095 111.769 110.134 111.701 110.164C111.641 110.207 111.577 110.245 111.509 110.275C111.449 110.318 111.385 110.357 111.317 110.387C111.257 110.43 111.193 110.468 111.125 110.499C111.065 110.542 111.001 110.58 110.933 110.61C110.873 110.653 110.809 110.692 110.741 110.722C110.681 110.766 110.617 110.803 110.549 110.833C110.489 110.876 110.425 110.915 110.357 110.945C110.297 110.988 110.233 111.026 110.165 111.057C110.105 111.1 110.041 111.138 109.973 111.168C109.913 111.211 109.849 111.25 109.781 111.28C109.72 111.323 109.656 111.361 109.589 111.391C109.528 111.434 109.464 111.473 109.397 111.503C109.336 111.546 109.272 111.584 109.205 111.614C109.144 111.657 109.08 111.696 109.013 111.726C108.952 111.769 108.888 111.807 108.821 111.838C108.76 111.882 108.696 111.919 108.628 111.949C108.568 111.992 108.504 112.031 108.436 112.061C108.376 112.104 108.312 112.142 108.244 112.172C108.184 112.215 108.12 112.254 108.052 112.284C107.992 112.327 107.928 112.365 107.86 112.395C107.8 112.439 107.736 112.477 107.668 112.507C107.608 112.55 107.544 112.588 107.476 112.619C107.416 112.662 107.352 112.7 107.284 112.73C105.909 113.714 102.616 111.368 98.7711 109.148C93.6896 106.214 89.5703 104.616 89.5703 100.013C89.5685 98.0465 90.3221 96.6756 91.5797 95.9759Z" fill="#F2F2F2"/>
<path d="M106.51 104.678C106.572 104.638 106.636 104.6 106.702 104.567C106.765 104.526 106.829 104.489 106.894 104.455C106.957 104.415 107.021 104.377 107.086 104.343C107.148 104.303 107.212 104.266 107.278 104.232C107.341 104.192 107.405 104.154 107.47 104.12C107.533 104.08 107.597 104.043 107.662 104.009C107.725 103.968 107.789 103.931 107.854 103.897C107.917 103.857 107.981 103.819 108.046 103.786C108.109 103.745 108.173 103.708 108.238 103.674C108.301 103.634 108.365 103.596 108.43 103.562C108.493 103.522 108.557 103.485 108.622 103.451C108.686 103.411 108.75 103.373 108.814 103.339C108.877 103.299 108.942 103.261 109.007 103.228C109.07 103.187 109.134 103.15 109.199 103.116C109.262 103.076 109.326 103.038 109.391 103.004C109.454 102.964 109.518 102.927 109.583 102.893C109.646 102.853 109.71 102.815 109.775 102.781C109.838 102.741 109.902 102.704 109.967 102.67C110.03 102.63 110.094 102.592 110.159 102.558C110.222 102.518 110.286 102.48 110.351 102.447C110.414 102.406 110.478 102.369 110.543 102.335C110.606 102.295 110.67 102.257 110.735 102.223C110.798 102.183 110.862 102.146 110.927 102.112C110.99 102.072 111.054 102.034 111.119 102C111.181 101.96 111.246 101.923 111.311 101.889C111.374 101.848 111.438 101.811 111.503 101.777C111.566 101.737 111.63 101.699 111.695 101.666C111.759 101.625 111.823 101.588 111.887 101.554C111.95 101.514 112.015 101.476 112.08 101.442C112.143 101.402 112.207 101.365 112.272 101.331C112.335 101.291 112.399 101.253 112.464 101.219C112.527 101.179 112.591 101.141 112.656 101.108C112.718 101.067 112.783 101.03 112.848 100.996C112.911 100.956 112.975 100.918 113.04 100.884C113.103 100.844 113.167 100.807 113.232 100.773C113.295 100.733 113.359 100.695 113.424 100.661C113.487 100.621 113.551 100.584 113.616 100.55C113.679 100.509 113.743 100.472 113.808 100.438C113.871 100.398 113.935 100.36 114 100.327C114.062 100.286 114.126 100.249 114.192 100.215C114.255 100.175 114.319 100.137 114.384 100.103C114.447 100.063 114.511 100.026 114.576 99.9918C114.639 99.9516 114.703 99.9141 114.768 99.8803C114.832 99.84 114.896 99.8025 114.96 99.7687C115.023 99.7284 115.088 99.6909 115.153 99.6571C115.215 99.6169 115.28 99.5794 115.345 99.5455C115.408 99.5053 115.472 99.4678 115.537 99.4339C115.6 99.3937 115.664 99.3562 115.729 99.3224C115.792 99.2821 115.856 99.2446 115.921 99.2108C115.984 99.1705 116.048 99.133 116.113 99.0992C116.176 99.059 116.24 99.0215 116.305 98.9876C116.367 98.9474 116.432 98.9099 116.497 98.876C116.56 98.8358 116.624 98.7983 116.689 98.7645C116.751 98.7242 116.816 98.6867 116.881 98.6529C116.944 98.6126 117.008 98.5751 117.073 98.5413C117.135 98.5011 117.2 98.4636 117.265 98.4297C117.327 98.3895 117.392 98.352 117.457 98.3181C117.52 98.2779 117.584 98.2404 117.649 98.2066C117.712 98.1663 117.776 98.1288 117.841 98.095C117.905 98.0547 117.969 98.0172 118.034 97.9834C118.097 97.9432 118.161 97.9057 118.226 97.8718C118.289 97.8316 118.353 97.7941 118.418 97.7602C118.481 97.72 118.545 97.6825 118.61 97.6487C118.672 97.6084 118.736 97.5709 118.802 97.5371C118.865 97.4968 118.929 97.4593 118.994 97.4255C119.057 97.3853 119.121 97.3478 119.186 97.3139C119.249 97.2737 119.313 97.2362 119.378 97.2023C119.44 97.1621 119.505 97.1246 119.57 97.0908C119.633 97.0505 119.697 97.013 119.762 96.9792C119.825 96.939 119.889 96.9014 119.954 96.8676C120.017 96.8274 120.081 96.7899 120.146 96.756C120.209 96.7158 120.273 96.6783 120.338 96.6444C120.401 96.6042 120.465 96.5667 120.53 96.5329C120.593 96.4926 120.657 96.4551 120.722 96.4213C120.785 96.3811 120.85 96.3435 120.914 96.3097C121.813 95.7344 123.008 95.7546 124.313 96.5082L125.686 97.3002C128.464 98.9044 130.738 103.249 130.738 106.954V110.746L130.546 110.636V110.859L130.354 110.748V110.971L130.162 110.86V111.083L129.97 110.972V111.196L129.778 111.085V111.308L129.586 111.197V111.421L129.394 111.31V111.533L129.202 111.422V111.646L129.009 111.535V111.758L128.817 111.647V111.87L128.625 111.76V111.983L128.433 111.872V112.095L128.241 111.985V112.208L128.049 112.097V112.32L127.857 112.21V112.433L127.665 112.322V112.545L127.473 112.435V112.658L127.281 112.546V112.77L127.089 112.659V112.882L126.897 112.77V112.994L126.705 112.883V113.106L126.513 112.995V113.219L126.321 113.108V113.331L126.129 113.22V113.444L125.936 113.333V113.556L125.744 113.444V113.668L125.552 113.557V113.78L125.36 113.669V113.893L125.168 113.782V114.005L124.976 113.894V114.118L124.784 114.007V114.229L124.592 114.119V114.342L124.4 114.231V114.454L124.208 114.344V114.567L124.016 114.456V114.679L123.824 114.569V114.792L123.632 114.681V114.904L123.44 114.794V115.017L123.248 114.906V115.129L123.055 115.019V115.241L122.863 115.13V115.353L122.671 115.243V115.466L122.479 115.355V115.577L122.287 115.467V115.69L122.095 115.579V115.802L121.903 115.692V115.915L121.711 115.804V116.027L121.519 115.917V116.14L121.327 116.028V116.251L121.135 116.141V116.364L120.943 116.253V116.476L120.751 116.366V116.589L120.559 116.478V116.701L120.367 116.591V116.814L120.175 116.703V116.926L119.982 116.816V117.039L119.79 116.928V117.151L119.598 117.041V117.264L119.406 117.153V117.376L119.214 117.266V117.489L119.022 117.378V117.601L118.83 117.491V117.714L118.638 117.603V117.826L118.446 117.715V117.938L118.254 117.827V118.05L118.062 117.94V118.162L117.87 118.051V118.274L117.678 118.164V118.387L117.486 118.276V118.499L117.294 118.388V118.611L117.102 118.5V118.723L116.909 118.613V118.835L116.717 118.724V118.948L116.525 118.837V119.06L116.333 118.949V119.173L116.141 119.062V119.285L104.664 112.659V108.866C104.663 106.723 105.384 105.267 106.51 104.678Z" fill="white"/>
<path d="M114.845 109.408C114.907 109.369 114.972 109.332 115.037 109.297C115.1 109.257 115.164 109.221 115.229 109.185C115.292 109.146 115.357 109.109 115.421 109.073C115.484 109.034 115.549 108.997 115.614 108.962C115.676 108.922 115.741 108.886 115.806 108.85C115.868 108.811 115.933 108.774 115.998 108.739C116.06 108.698 116.125 108.663 116.19 108.627C116.252 108.587 116.317 108.551 116.383 108.516C116.445 108.476 116.51 108.44 116.575 108.404C116.637 108.365 116.702 108.328 116.767 108.292C116.829 108.252 116.894 108.216 116.959 108.181C117.021 108.141 117.086 108.105 117.151 108.069C117.213 108.03 117.278 107.993 117.343 107.958C117.405 107.917 117.47 107.882 117.535 107.846C117.597 107.806 117.662 107.77 117.727 107.734C117.789 107.695 117.854 107.659 117.919 107.623C117.981 107.583 118.046 107.547 118.111 107.511C118.173 107.472 118.238 107.435 118.303 107.4C118.366 107.36 118.43 107.324 118.495 107.288C118.558 107.248 118.623 107.212 118.687 107.177C118.75 107.137 118.815 107.101 118.88 107.065C118.942 107.026 119.007 106.989 119.072 106.953C119.134 106.914 119.199 106.877 119.264 106.842C119.326 106.802 119.391 106.766 119.456 106.73C119.518 106.691 119.583 106.654 119.648 106.619C119.71 106.578 119.775 106.543 119.84 106.507C119.902 106.468 119.967 106.431 120.032 106.395C120.094 106.356 120.159 106.32 120.224 106.284C120.286 106.244 120.351 106.208 120.416 106.172C120.478 106.133 120.543 106.096 120.608 106.061C120.67 106.021 120.735 105.985 120.8 105.949C120.862 105.909 120.927 105.873 120.992 105.838C121.054 105.798 121.119 105.762 121.184 105.726C121.246 105.687 121.311 105.65 121.376 105.614C121.439 105.574 121.503 105.539 121.568 105.503C121.631 105.464 121.696 105.427 121.76 105.391C121.823 105.352 121.888 105.315 121.953 105.28C122.015 105.24 122.08 105.204 122.145 105.168C122.207 105.129 122.272 105.092 122.337 105.057C122.399 105.017 122.464 104.981 122.529 104.945C122.591 104.906 122.656 104.869 122.721 104.833C122.783 104.793 122.848 104.757 122.913 104.722C122.975 104.682 123.04 104.646 123.105 104.61C123.167 104.571 123.232 104.534 123.297 104.499C123.359 104.459 123.424 104.423 123.489 104.387C123.551 104.348 123.616 104.311 123.681 104.275C123.743 104.236 123.808 104.2 123.874 104.164C123.936 104.125 124.001 104.088 124.066 104.052C124.128 104.013 124.193 103.976 124.258 103.941C124.32 103.901 124.385 103.865 124.45 103.829C124.512 103.789 124.577 103.753 124.642 103.718C124.705 103.678 124.769 103.642 124.834 103.606C124.897 103.566 124.962 103.53 125.026 103.494C125.089 103.455 125.154 103.419 125.219 103.383C125.281 103.344 125.346 103.307 125.411 103.271C125.473 103.232 125.538 103.195 125.603 103.16C125.665 103.119 125.73 103.084 125.795 103.048C125.857 103.009 125.922 102.972 125.987 102.937C126.049 102.897 126.114 102.861 126.179 102.825C126.241 102.786 126.306 102.749 126.371 102.713C126.433 102.673 126.498 102.637 126.563 102.602C126.625 102.562 126.69 102.526 126.755 102.49C126.817 102.451 126.882 102.414 126.947 102.379C127.009 102.339 127.074 102.303 127.139 102.267C127.201 102.228 127.266 102.191 127.331 102.155C127.393 102.116 127.458 102.08 127.523 102.044C127.585 102.005 127.65 101.968 127.715 101.932C127.778 101.893 127.842 101.856 127.907 101.821C127.97 101.781 128.035 101.745 128.099 101.709C128.162 101.67 128.227 101.633 128.292 101.598C128.354 101.558 128.419 101.522 128.484 101.486C128.546 101.447 128.611 101.41 128.676 101.374C128.738 101.335 128.803 101.299 128.868 101.263C128.93 101.224 128.995 101.187 129.06 101.151C129.122 101.112 129.187 101.075 129.252 101.04C130.929 99.9696 133.611 100.197 136.633 101.942C141.715 104.876 145.834 110.986 145.834 115.589C145.834 116.862 145.518 117.539 144.954 117.794C144.894 117.837 144.83 117.875 144.762 117.906C144.702 117.949 144.638 117.987 144.57 118.017C144.51 118.06 144.446 118.099 144.378 118.129C144.318 118.172 144.254 118.21 144.186 118.24C144.126 118.283 144.062 118.322 143.994 118.352C143.934 118.395 143.87 118.433 143.802 118.463C143.742 118.506 143.678 118.545 143.61 118.575C143.55 118.618 143.486 118.656 143.418 118.687C143.358 118.73 143.294 118.768 143.226 118.798C143.165 118.841 143.101 118.88 143.034 118.91C142.973 118.954 142.909 118.991 142.842 119.021C142.781 119.064 142.717 119.103 142.65 119.133C142.589 119.176 142.525 119.214 142.458 119.245C142.397 119.288 142.333 119.326 142.266 119.356C142.205 119.399 142.141 119.438 142.073 119.468C142.013 119.511 141.949 119.549 141.881 119.579C141.821 119.622 141.757 119.661 141.689 119.691C141.629 119.734 141.565 119.772 141.497 119.802C141.437 119.845 141.373 119.884 141.305 119.914C141.245 119.957 141.181 119.995 141.113 120.026C141.053 120.069 140.989 120.107 140.921 120.137C140.861 120.18 140.797 120.219 140.729 120.249C140.669 120.292 140.605 120.33 140.537 120.36C140.477 120.403 140.413 120.442 140.345 120.472C140.285 120.515 140.221 120.553 140.153 120.583C140.092 120.626 140.028 120.665 139.961 120.695C139.9 120.738 139.836 120.776 139.769 120.807C139.708 120.85 139.644 120.888 139.577 120.918C139.516 120.961 139.452 121 139.385 121.03C139.324 121.073 139.26 121.111 139.193 121.141C139.132 121.184 139.068 121.223 139 121.253C138.94 121.297 138.876 121.334 138.808 121.365C138.748 121.408 138.684 121.446 138.616 121.476C138.556 121.519 138.492 121.558 138.424 121.588C138.364 121.632 138.3 121.669 138.232 121.699C138.172 121.742 138.108 121.781 138.04 121.811C137.98 121.854 137.916 121.892 137.848 121.922C137.788 121.965 137.724 122.004 137.656 122.034C137.596 122.078 137.532 122.115 137.464 122.146C137.404 122.189 137.34 122.227 137.272 122.257C137.212 122.3 137.147 122.339 137.08 122.369C137.019 122.412 136.955 122.45 136.888 122.48C136.827 122.523 136.763 122.562 136.696 122.592C136.635 122.636 136.571 122.673 136.504 122.704C136.443 122.746 136.379 122.785 136.312 122.815C136.251 122.858 136.187 122.896 136.12 122.927C136.059 122.97 135.995 123.008 135.927 123.038C135.867 123.081 135.803 123.12 135.735 123.15C135.675 123.194 135.611 123.231 135.543 123.261C135.483 123.304 135.419 123.343 135.351 123.373C135.291 123.416 135.227 123.454 135.159 123.485C135.099 123.528 135.035 123.566 134.967 123.596C134.907 123.64 134.843 123.678 134.775 123.708C134.715 123.751 134.651 123.789 134.583 123.819C134.523 123.862 134.459 123.901 134.391 123.931C134.331 123.975 134.267 124.012 134.199 124.042C134.139 124.085 134.074 124.124 134.007 124.154C133.946 124.197 133.882 124.235 133.815 124.266C133.754 124.31 133.69 124.347 133.623 124.377C133.562 124.421 133.498 124.459 133.431 124.489C133.37 124.532 133.306 124.57 133.239 124.6C133.178 124.643 133.114 124.682 133.046 124.712C132.986 124.756 132.922 124.793 132.854 124.824C132.794 124.866 132.73 124.905 132.662 124.935C132.602 124.978 132.538 125.016 132.47 125.047C132.41 125.09 132.346 125.128 132.278 125.158C132.218 125.201 132.154 125.24 132.086 125.27C132.026 125.313 131.962 125.351 131.894 125.381C131.834 125.424 131.77 125.463 131.702 125.493C131.642 125.536 131.578 125.574 131.51 125.605C131.45 125.648 131.386 125.686 131.318 125.716C131.258 125.759 131.194 125.798 131.126 125.828C131.065 125.871 131.001 125.909 130.934 125.939C130.873 125.982 130.809 126.021 130.742 126.051C130.681 126.094 130.617 126.132 130.55 126.162C129.175 127.147 125.882 124.801 122.037 122.581C116.955 119.647 112.836 118.049 112.836 113.446C112.834 111.479 113.588 110.108 114.845 109.408Z" fill="#F2F2F2"/>
<path d="M112.832 113.446C112.832 118.049 116.951 119.647 122.033 122.58C127.114 125.514 131.234 128.673 131.234 124.069C131.234 119.466 127.114 113.357 122.033 110.423C116.95 107.49 112.832 108.842 112.832 113.446Z" fill="#E6E6E6"/>
<path d="M107.968 110.637C107.968 115.24 103.849 112.082 98.7671 109.148C93.6857 106.214 89.5664 104.616 89.5664 100.013C89.5664 95.4102 93.6857 94.0566 98.7671 96.9906C103.849 99.9246 107.968 106.034 107.968 110.637Z" fill="#E6E6E6"/>
<path d="M116.138 119.227V115.434C116.138 111.729 113.865 107.385 111.086 105.781L109.714 104.989C106.936 103.385 104.662 105.103 104.662 108.808V112.601L116.138 119.227Z" fill="#F2F2F2"/>
<path d="M159.507 0L205.924 28.1739L207.271 117.12L154.342 84.9935L159.507 0Z" fill="#39B54A"/>
<path d="M136.988 94.471L189.917 126.599L188.569 37.6523L142.153 9.47754L136.988 94.471Z" fill="#8CC63F"/>
<path d="M172.05 37.6275C172.006 39.635 173.176 41.9946 174.662 42.8973C176.149 43.8 177.39 42.9037 177.434 40.8953C177.478 38.8878 176.308 36.5281 174.822 35.6254C173.336 34.7237 172.094 35.619 172.05 37.6275Z" fill="#009245"/>
<path d="M152.909 26.009C152.865 28.0165 154.035 30.3761 155.521 31.2788C157.009 32.1815 158.25 31.2852 158.294 29.2777C158.337 27.2702 157.168 24.9105 155.682 24.0078C154.194 23.1051 152.953 24.0005 152.909 26.009Z" fill="#009245"/>
<path d="M164.461 64.5158C170.795 68.3608 176.101 64.5295 176.289 55.9745L176.62 40.893C176.651 39.4827 175.83 37.8254 174.785 37.1916C173.741 36.5578 172.869 37.1871 172.838 38.5973L172.507 53.6789C172.381 59.4179 168.821 61.9879 164.572 59.4088C160.322 56.8296 156.967 50.0617 157.094 44.3227L157.425 29.2411C157.456 27.8308 156.634 26.1745 155.59 25.5407C154.545 24.9069 153.674 25.5361 153.643 26.9464L153.312 42.028C153.125 50.583 158.126 60.67 164.461 64.5158Z" fill="white"/>
<path d="M205.926 28.1738L188.57 37.6526L189.918 126.599L207.273 117.12L205.926 28.1738Z" fill="#39B54A"/>
<path d="M205.926 28.1738L193.359 31.7179L195.841 110.375L207.273 117.12L205.926 28.1738Z" fill="#8CC63F"/>
<path d="M193.359 31.7178L188.57 37.6525L189.918 126.599L195.84 110.375L193.359 31.7178Z" fill="#009245"/>
<path d="M159.509 0L155.162 12.1174L155.049 17.3049L158.511 19.4057L159.509 0Z" fill="#009245"/>
<path d="M155.161 12.118L142.152 9.47852L155.047 17.3055L155.161 12.118Z" fill="#39B54A"/>
<path d="M218.356 58.9795L264.773 87.1534L266.12 152.828L213.191 120.7L218.356 58.9795Z" fill="#F7931E"/>
<path d="M195.838 130.18L248.767 162.307L247.419 96.6328L201.003 68.458L195.838 130.18Z" fill="#FBB03B"/>
<path d="M230.9 96.6086C230.856 98.6161 232.025 100.976 233.512 101.878C234.999 102.781 236.24 101.885 236.284 99.8773C236.328 97.8698 235.158 95.5101 233.672 94.6074C232.185 93.7047 230.944 94.6001 230.9 96.6086Z" fill="#F7931E"/>
<path d="M211.757 84.9894C211.713 86.9969 212.883 89.3566 214.369 90.2593C215.856 91.162 217.097 90.2657 217.141 88.2582C217.185 86.2506 216.015 83.891 214.529 82.9883C213.043 82.0856 211.802 82.981 211.757 84.9894Z" fill="#F7931E"/>
<path d="M223.312 123.494C229.647 127.339 234.953 123.508 235.14 114.953L235.471 99.8715C235.503 98.4612 234.681 96.8049 233.637 96.1711C232.592 95.5373 231.721 96.1665 231.69 97.5768L231.359 112.658C231.232 118.397 227.673 120.967 223.424 118.388C219.174 115.809 215.819 109.041 215.945 103.302L216.276 88.2206C216.307 86.8103 215.486 85.154 214.441 84.5202C213.397 83.8864 212.525 84.5156 212.494 85.9259L212.163 101.007C211.977 109.562 216.978 119.649 223.312 123.494Z" fill="white"/>
<path d="M264.775 87.1533L247.42 96.6321L248.768 162.306L266.122 152.828L264.775 87.1533Z" fill="#F7931E"/>
<path d="M264.775 87.1533L252.209 90.6973L254.69 146.082L266.123 152.828L264.775 87.1533Z" fill="#FBB03B"/>
<path d="M252.209 90.6973L247.42 96.632L248.768 162.306L254.69 146.082L252.209 90.6973Z" fill="#F15A24"/>
<path d="M218.358 58.9795L214.012 71.0969L213.898 76.2844L217.36 78.3852L218.358 58.9795Z" fill="#F15A24"/>
<path d="M214.01 71.0975L201.002 68.458L213.897 76.285L214.01 71.0975Z" fill="#F7931E"/>
<path d="M277.542 70.5742L323.959 98.749L325.306 187.695L272.377 155.568L277.542 70.5742Z" fill="#FF478C"/>
<path d="M255.023 165.047L307.952 197.174L306.605 108.228L260.188 80.0537L255.023 165.047Z" fill="#FF7BAC"/>
<path d="M290.085 108.203C290.041 110.211 291.211 112.57 292.697 113.473C294.184 114.376 295.425 113.479 295.469 111.472C295.513 109.464 294.344 107.105 292.857 106.202C291.37 105.299 290.13 106.196 290.085 108.203Z" fill="#ED1E79"/>
<path d="M270.945 96.584C270.901 98.5915 272.07 100.951 273.557 101.854C275.044 102.757 276.285 101.86 276.329 99.8527C276.373 97.8452 275.203 95.4856 273.717 94.5829C272.23 93.6802 270.988 94.5765 270.945 96.584Z" fill="#ED1E79"/>
<path d="M282.497 135.09C288.831 138.935 294.138 135.104 294.325 126.549L294.656 111.467C294.687 110.057 293.866 108.401 292.822 107.767C291.777 107.133 290.905 107.762 290.874 109.173L290.543 124.254C290.417 129.993 286.858 132.563 282.608 129.984C278.358 127.405 275.004 120.637 275.13 114.898L275.461 99.8163C275.492 98.406 274.671 96.7497 273.626 96.1159C272.582 95.4821 271.71 96.1113 271.68 97.5216L271.349 112.603C271.161 121.157 276.162 131.245 282.497 135.09Z" fill="white"/>
<path d="M323.96 98.749L306.605 108.227L307.953 197.173L325.307 187.695L323.96 98.749Z" fill="#FF478C"/>
<path d="M323.961 98.749L311.395 102.293L313.876 180.949L325.308 187.695L323.961 98.749Z" fill="#FF7BAC"/>
<path d="M311.393 102.293L306.605 108.227L307.953 197.173L313.875 180.949L311.393 102.293Z" fill="#ED1E79"/>
<path d="M277.544 70.5742L273.198 82.6916L273.084 87.88L276.546 89.9808L277.544 70.5742Z" fill="#ED1E79"/>
<path d="M273.197 82.6923L260.188 80.0537L273.082 87.8807L273.197 82.6923Z" fill="#FF478C"/>
<path d="M180.053 285.157C179.89 285.035 179.715 284.916 179.522 284.804L172.559 280.784L102.428 240.294C101.907 239.993 101.311 239.756 100.667 239.582C99.1622 239.174 97.3879 239.106 95.6639 239.366C95.1719 239.44 94.6825 239.54 94.206 239.667C93.7295 239.795 93.264 239.948 92.8177 240.128C92.3714 240.309 91.9433 240.513 91.5428 240.746L39.8759 270.576C38.1163 271.592 37.2227 272.9 37.2282 274.139C37.2291 274.392 37.2245 275.407 37.2227 275.665C37.2163 276.695 37.83 277.678 39.0939 278.408L116.188 322.918C118.967 324.522 123.865 324.319 127.074 322.467L178.74 292.637C180.464 291.642 181.358 290.366 181.386 289.148C181.393 288.868 181.388 287.785 181.387 287.521C181.384 286.657 180.947 285.829 180.053 285.157Z" fill="#009245"/>
<path d="M116.191 321.37L39.0973 276.86C36.3187 275.256 36.6699 272.428 39.8783 270.575L91.5452 240.745C94.7535 238.893 99.652 238.69 102.431 240.294L179.525 284.804C182.303 286.409 181.951 289.236 178.743 291.088L127.076 320.919C123.867 322.771 118.969 322.975 116.191 321.37Z" fill="#8CC63F"/>
<path d="M129.358 278.534C147.771 277.77 165.402 280.129 180.056 285.157C179.893 285.035 179.718 284.916 179.525 284.804L102.431 240.294C99.6524 238.69 94.7539 238.893 91.5455 240.745L39.8787 270.575C36.6703 272.427 36.3182 275.256 39.0976 276.86L67.5879 293.309C85.5413 284.725 107.444 279.442 129.358 278.534Z" fill="#39B54A"/>
<path d="M121.659 274.089C140.157 273.323 157.867 275.707 172.56 280.784L102.429 240.294C99.6505 238.69 94.7519 238.893 91.5436 240.745L39.8767 270.575C36.6684 272.427 36.3162 275.256 39.0957 276.86L59.8879 288.864C77.8421 280.281 99.7447 274.997 121.659 274.089Z" fill="#009245"/>
<path d="M109.964 268.62C131.384 267.732 151.752 271.065 167.596 277.918L102.431 240.295C99.6524 238.691 94.7539 238.894 91.5455 240.746L39.8787 270.576C36.6703 272.428 36.3182 275.257 39.0976 276.861L49.4133 282.817C67.1334 274.572 88.5448 269.507 109.964 268.62Z" fill="#8CC63F"/>
<path d="M63.0508 267.1L63.6691 267.457L60.0195 269.564C59.6937 269.752 59.3572 269.878 59.0098 269.94C58.6625 270.002 58.321 270.005 57.9852 269.947C57.6495 269.89 57.3337 269.775 57.0379 269.605C56.7587 269.443 56.5609 269.271 56.4446 269.086C56.3299 268.901 56.305 268.718 56.3698 268.537C56.4346 268.355 56.5975 268.189 56.8584 268.039L57.4667 268.39C57.3221 268.473 57.2315 268.567 57.195 268.671C57.1617 268.774 57.1783 268.88 57.2448 268.987C57.3113 269.095 57.4251 269.195 57.5864 269.288C57.7642 269.391 57.9528 269.456 58.1523 269.485C58.3517 269.514 58.5561 269.505 58.7655 269.459C58.9782 269.413 59.1901 269.329 59.4012 269.207L63.0508 267.1ZM66.6632 272.133C66.1247 272.444 65.5621 272.657 64.9754 272.771C64.3888 272.885 63.8196 272.906 63.2678 272.833C62.716 272.76 62.2224 272.598 61.787 272.346C61.3515 272.095 61.0707 271.81 60.9444 271.491C60.8181 271.173 60.8538 270.844 61.0515 270.506C61.2493 270.167 61.6174 269.842 62.1559 269.531C62.6944 269.22 63.2569 269.008 63.8436 268.894C64.4303 268.779 64.9995 268.759 65.5513 268.832C66.103 268.905 66.5966 269.067 67.0321 269.318C67.4675 269.569 67.7484 269.854 67.8747 270.173C68.001 270.492 67.9653 270.82 67.7675 271.159C67.5697 271.498 67.2016 271.822 66.6632 272.133ZM66.0648 271.788C66.5069 271.533 66.8061 271.275 66.9623 271.014C67.1202 270.754 67.1517 270.506 67.057 270.271C66.9639 270.037 66.7628 269.83 66.4537 269.652C66.1446 269.474 65.7864 269.357 65.3793 269.302C64.9737 269.249 64.545 269.267 64.0929 269.357C63.6425 269.448 63.1963 269.621 62.7542 269.877C62.3121 270.132 62.0122 270.389 61.8543 270.649C61.6981 270.91 61.6665 271.158 61.7596 271.392C61.8543 271.627 62.0562 271.834 62.3653 272.012C62.6745 272.191 63.0318 272.307 63.4373 272.361C63.8445 272.415 64.2733 272.397 64.7237 272.306C65.1757 272.216 65.6228 272.043 66.0648 271.788ZM65.15 274.207L70.2555 271.26L70.8737 271.617L68.6002 272.929L71.3225 274.501L73.596 273.188L74.2143 273.545L69.1088 276.493L68.4905 276.136L70.774 274.818L68.0517 273.246L65.7682 274.564L65.15 274.207ZM79.5005 276.597L74.3951 279.545L73.7968 279.199L75.0232 275.279L74.9734 275.25L70.9648 277.564L70.3465 277.208L75.452 274.26L76.0503 274.605L74.8238 278.537L74.8737 278.566L78.8923 276.246L79.5005 276.597ZM53.9519 273.321C54.1746 273.158 54.2494 272.974 54.1763 272.771C54.1031 272.568 53.912 272.377 53.6029 272.198C53.3769 272.068 53.1425 271.975 52.8999 271.919C52.6589 271.864 52.427 271.847 52.2043 271.866C51.9833 271.886 51.7913 271.943 51.6285 272.037C51.4922 272.116 51.4074 272.202 51.3742 272.296C51.3443 272.39 51.3484 272.486 51.3867 272.582C51.4266 272.678 51.4822 272.771 51.5537 272.86C51.6268 272.949 51.6983 273.027 51.7681 273.096L52.147 273.476C52.2451 273.573 52.3448 273.686 52.4462 273.816C52.5492 273.946 52.6223 274.086 52.6656 274.233C52.7121 274.381 52.7021 274.531 52.6357 274.682C52.5692 274.834 52.4163 274.979 52.177 275.117C51.9011 275.276 51.5795 275.379 51.2122 275.424C50.8466 275.47 50.4602 275.451 50.053 275.368C49.6475 275.285 49.2486 275.131 48.8564 274.904C48.4907 274.693 48.2331 274.476 48.0836 274.254C47.9356 274.032 47.8908 273.816 47.9489 273.606C48.0088 273.397 48.1683 273.206 48.4276 273.033L49.0658 273.401C48.8896 273.522 48.7949 273.652 48.7816 273.79C48.7716 273.928 48.8231 274.065 48.9361 274.202C49.0525 274.338 49.212 274.465 49.4148 274.582C49.6508 274.718 49.9009 274.818 50.1652 274.882C50.4311 274.946 50.6878 274.969 50.9355 274.953C51.1848 274.936 51.4025 274.873 51.5886 274.766C51.7581 274.668 51.8487 274.561 51.8603 274.445C51.872 274.329 51.8338 274.207 51.7457 274.079C51.6576 273.952 51.5487 273.822 51.4191 273.689L50.9704 273.223C50.6862 272.926 50.5341 272.65 50.5141 272.393C50.4942 272.135 50.6562 271.907 51.0003 271.709C51.2861 271.544 51.6127 271.444 51.98 271.411C52.3506 271.377 52.7262 271.402 53.1068 271.486C53.4907 271.569 53.8455 271.705 54.1713 271.893C54.5003 272.083 54.7338 272.286 54.8718 272.502C55.0114 272.717 55.0546 272.926 55.0014 273.129C54.9499 273.334 54.7995 273.513 54.5502 273.666L53.9519 273.321ZM56.9129 273.556L57.6508 273.982L55.1479 277.431L55.2078 277.466L61.1808 276.02L61.9187 276.446L56.8132 279.394L56.2349 279.06L60.1138 276.821L60.064 276.792L54.5895 278.11L54.0311 277.788L56.3146 274.627L56.2647 274.599L52.3858 276.838L51.8074 276.504L56.9129 273.556ZM63.7766 277.519L58.6711 280.467L58.0529 280.11L63.1583 277.162L63.7766 277.519ZM64.1886 278.39L64.737 278.074L68.5662 280.284L68.0177 280.601L66.4123 279.674L61.8552 282.305L61.237 281.948L65.794 279.317L64.1886 278.39ZM64.4149 283.783L69.5203 280.835L70.1386 281.192L67.8651 282.505L70.5874 284.076L72.8609 282.764L73.4791 283.121L68.3737 286.068L67.7554 285.712L70.0389 284.393L67.3166 282.821L65.0331 284.14L64.4149 283.783Z" fill="white"/>
<path d="M50.2126 274.075C49.837 273.858 49.6193 273.614 49.5595 273.343C49.5013 273.072 49.5977 272.783 49.8486 272.477C50.1013 272.17 50.5051 271.856 51.0602 271.536C51.612 271.217 52.1529 270.985 52.6831 270.84C53.2166 270.696 53.7185 270.64 54.1888 270.673C54.6625 270.707 55.0854 270.831 55.4577 271.046C55.83 271.261 56.0444 271.505 56.1009 271.777C56.1607 272.05 56.0643 272.34 55.8117 272.647C55.5624 272.954 55.1619 273.267 54.6102 273.585C54.0551 273.906 53.5116 274.139 52.9798 274.285C52.4496 274.43 51.9494 274.485 51.479 274.452C51.0104 274.417 50.5882 274.291 50.2126 274.075ZM50.7611 273.758C51.1334 273.973 51.602 274.036 52.1671 273.948C52.7322 273.86 53.3471 273.624 54.0118 273.24C54.4539 272.984 54.783 272.74 54.999 272.506C55.2168 272.272 55.319 272.058 55.3057 271.862C55.294 271.667 55.1652 271.499 54.9192 271.357C54.5503 271.144 54.08 271.083 53.5082 271.173C52.9382 271.262 52.3216 271.498 51.6585 271.881C51.2164 272.136 50.8874 272.38 50.6713 272.612C50.4553 272.844 50.3539 273.057 50.3672 273.251C50.3821 273.446 50.5134 273.615 50.7611 273.758ZM59.9051 273.694L54.7997 276.642L54.1814 276.285L58.6387 273.712L58.6088 273.694L56.5347 273.453L57.1629 273.09L59.2869 273.337L59.9051 273.694ZM56.268 277.49L56.7167 277.231L60.2467 277.139C60.6605 277.128 61.0112 277.114 61.2987 277.095C61.5879 277.076 61.8339 277.044 62.0366 276.998C62.2427 276.952 62.4239 276.883 62.5801 276.793C62.7596 276.69 62.8718 276.575 62.9166 276.449C62.9632 276.324 62.9482 276.199 62.8718 276.072C62.7953 275.945 62.6648 275.829 62.4804 275.722C62.2842 275.609 62.0723 275.534 61.8447 275.496C61.6203 275.459 61.3959 275.459 61.1716 275.496C60.9489 275.535 60.7403 275.61 60.5458 275.722L59.9575 275.383C60.2567 275.21 60.5882 275.098 60.9522 275.047C61.3162 274.996 61.6801 275.003 62.0441 275.067C62.4097 275.133 62.7413 275.251 63.0388 275.423C63.3379 275.596 63.5399 275.785 63.6446 275.991C63.7493 276.198 63.7601 276.401 63.677 276.6C63.5939 276.8 63.421 276.975 63.1585 277.127C62.9707 277.236 62.7529 277.322 62.5053 277.386C62.261 277.45 61.9461 277.498 61.5605 277.529C61.1782 277.559 60.6838 277.581 60.0772 277.593L57.7039 277.64L57.664 277.663L60.0373 279.033L59.4889 279.349L56.268 277.49ZM62.1738 280.98C61.8447 280.79 61.6079 280.588 61.4633 280.374C61.3204 280.161 61.2738 279.953 61.3237 279.75C61.3769 279.546 61.5306 279.363 61.7849 279.201L62.4131 279.564C62.2619 279.667 62.1763 279.781 62.1563 279.908C62.1381 280.034 62.1771 280.162 62.2735 280.292C62.3699 280.423 62.5162 280.544 62.7123 280.658C62.9316 280.784 63.1643 280.875 63.4103 280.928C63.6563 280.982 63.8956 280.997 64.1283 280.974C64.3609 280.951 64.567 280.888 64.7465 280.784C64.9343 280.676 65.0531 280.554 65.103 280.417C65.1545 280.28 65.1312 280.136 65.0332 279.986C64.9351 279.835 64.7565 279.685 64.4972 279.535L64.0883 279.299L64.6368 278.982L65.0456 279.218C65.2484 279.335 65.4628 279.417 65.6888 279.463C65.9165 279.51 66.14 279.52 66.3594 279.493C66.5804 279.467 66.7807 279.403 66.9602 279.299C67.133 279.199 67.2452 279.09 67.2967 278.972C67.3483 278.854 67.3399 278.734 67.2718 278.612C67.2053 278.492 67.0782 278.377 66.8904 278.268C66.7142 278.167 66.5156 278.089 66.2946 278.037C66.0769 277.984 65.8583 277.964 65.6389 277.978C65.4212 277.99 65.2234 278.043 65.0456 278.136L64.4473 277.791C64.7249 277.642 65.0398 277.553 65.3921 277.524C65.7461 277.495 66.1018 277.518 66.4591 277.593C66.8181 277.67 67.1447 277.793 67.4388 277.963C67.7546 278.146 67.9615 278.339 68.0596 278.543C68.1593 278.747 68.1659 278.943 68.0795 279.133C67.9931 279.323 67.8294 279.488 67.5884 279.627C67.3009 279.793 66.9802 279.891 66.6262 279.921C66.2738 279.951 65.9298 279.915 65.5941 279.811L65.5542 279.834C65.8234 280.051 65.9381 280.276 65.8982 280.508C65.86 280.739 65.6789 280.948 65.3548 281.136C65.0772 281.296 64.7523 281.396 64.38 281.436C64.0111 281.477 63.6338 281.458 63.2483 281.382C62.8627 281.305 62.5045 281.171 62.1738 280.98ZM66.0243 281.823L66.5708 281.508L72.7964 280.697L73.1929 280.926L72.3464 281.415L72.0785 281.26L67.3744 281.873L67.3316 281.898L70.5784 283.772L69.989 284.112L66.0243 281.823ZM67.4816 283.964L68.7728 283.218L69.0273 283.071L72.9679 280.796L73.6001 281.161L68.1138 284.329L67.4816 283.964ZM71.5073 286.375C71.193 286.193 70.9724 285.994 70.8456 285.776C70.7188 285.559 70.6885 285.343 70.7545 285.13C70.8206 284.916 70.9858 284.725 71.2501 284.556L71.893 284.927C71.6698 285.085 71.5769 285.268 71.6145 285.478C71.6555 285.687 71.8163 285.873 72.0967 286.034C72.3217 286.164 72.5744 286.249 72.8548 286.29C73.137 286.331 73.42 286.327 73.704 286.279C73.9915 286.23 74.2523 286.139 74.4862 286.003C74.7255 285.865 74.8862 285.712 74.9684 285.543C75.0541 285.373 75.0604 285.205 74.9871 285.037C74.9139 284.869 74.7612 284.717 74.529 284.581C74.363 284.483 74.1647 284.398 73.9343 284.327C73.7057 284.255 73.4932 284.209 73.2968 284.191L72.7503 283.789L75.7827 282.421L78.6331 284.067L78.0437 284.407L75.7506 283.083L73.9397 283.906L73.9718 283.925C74.1736 283.938 74.3888 283.977 74.6174 284.041C74.846 284.105 75.0523 284.19 75.2363 284.296C75.572 284.49 75.7908 284.709 75.8926 284.953C75.998 285.198 75.9873 285.443 75.8605 285.689C75.7354 285.937 75.4952 286.163 75.1399 286.368C74.7898 286.571 74.3987 286.706 73.9665 286.774C73.5379 286.842 73.1075 286.843 72.6753 286.777C72.2449 286.71 71.8556 286.576 71.5073 286.375ZM76.2041 289.086C75.9826 288.954 75.8004 288.8 75.6576 288.622C75.5147 288.445 75.4477 288.246 75.4566 288.027C75.4674 287.806 75.5834 287.567 75.8049 287.309C76.0281 287.05 76.3933 286.775 76.9005 286.482C77.3863 286.201 77.8622 285.979 78.3284 285.815C78.7963 285.65 79.2454 285.543 79.6758 285.495C80.108 285.445 80.5134 285.453 80.892 285.517C81.2724 285.582 81.6171 285.703 81.9261 285.882C82.2333 286.059 82.4449 286.252 82.561 286.462C82.6806 286.671 82.7074 286.882 82.6414 287.096C82.5753 287.309 82.4226 287.511 82.1833 287.7L81.5296 287.323C81.7154 287.146 81.802 286.96 81.7895 286.765C81.777 286.57 81.6261 286.389 81.3367 286.222C80.9117 285.976 80.392 285.89 79.7776 285.962C79.1651 286.035 78.5239 286.264 77.8542 286.649L77.8971 286.673C78.1489 286.644 78.3971 286.637 78.6418 286.655C78.89 286.672 79.1276 286.713 79.3544 286.776C79.5812 286.838 79.7884 286.924 79.9759 287.032C80.2902 287.214 80.4992 287.425 80.6027 287.666C80.7081 287.907 80.7019 288.152 80.584 288.401C80.4679 288.65 80.2331 288.876 79.8795 289.08C79.5401 289.276 79.1535 289.412 78.7195 289.487C78.2873 289.561 77.8507 289.567 77.4096 289.504C76.972 289.441 76.5702 289.302 76.2041 289.086ZM76.7934 288.746C77.0184 288.876 77.2765 288.96 77.5676 288.998C77.8605 289.037 78.1534 289.032 78.4463 288.983C78.741 288.934 79.0044 288.843 79.2365 288.709C79.4633 288.578 79.6187 288.429 79.7027 288.263C79.7902 288.097 79.8009 287.931 79.7348 287.765C79.6705 287.6 79.5258 287.453 79.3008 287.323C79.1312 287.225 78.9392 287.153 78.7249 287.108C78.5123 287.062 78.2927 287.04 78.0659 287.043C77.8408 287.047 77.6221 287.075 77.4095 287.125C77.1988 287.175 77.0113 287.247 76.847 287.342C76.6291 287.467 76.4764 287.614 76.3889 287.782C76.3032 287.952 76.2916 288.121 76.3541 288.291C76.4184 288.462 76.5648 288.614 76.7934 288.746ZM79.3364 290.808L86.6443 289.422L86.6871 289.397L83.8582 287.764L84.4476 287.424L87.9623 289.453L87.3408 289.812L80.0329 291.21L79.3364 290.808ZM85.0464 294.191C84.6785 293.979 84.4186 293.754 84.2668 293.515C84.1186 293.277 84.0811 293.046 84.1543 292.822C84.2293 292.598 84.4159 292.4 84.7142 292.23C84.9446 292.095 85.2044 291.998 85.4937 291.938C85.7848 291.877 86.0768 291.855 86.3697 291.871C86.6662 291.888 86.9323 291.943 87.168 292.038L87.2002 292.02C87.0055 291.829 86.9439 291.623 87.0153 291.403C87.0885 291.181 87.2716 290.987 87.5645 290.82C87.8413 290.658 88.161 290.555 88.5235 290.51C88.8861 290.466 89.2557 290.479 89.6326 290.55C90.0112 290.623 90.3612 290.751 90.6827 290.937C91.0006 291.121 91.2211 291.321 91.3444 291.539C91.4676 291.756 91.4908 291.97 91.414 292.179C91.339 292.389 91.1631 292.575 90.8863 292.737C90.5934 292.904 90.2541 293.009 89.8683 293.05C89.4862 293.091 89.1325 293.057 88.8075 292.948L88.7754 292.966C88.9379 293.101 89.0316 293.253 89.0567 293.423C89.0834 293.591 89.045 293.759 88.9415 293.928C88.8397 294.096 88.6736 294.248 88.4432 294.383C88.145 294.553 87.8003 294.659 87.4092 294.702C87.0216 294.744 86.6216 294.722 86.209 294.637C85.8001 294.551 85.4125 294.403 85.0464 294.191ZM85.6357 293.851C85.884 293.994 86.1385 294.095 86.3992 294.153C86.66 294.21 86.9127 294.225 87.1573 294.197C87.402 294.17 87.6235 294.099 87.8217 293.987C88.0271 293.866 88.1566 293.73 88.2101 293.577C88.2637 293.425 88.245 293.269 88.1539 293.112C88.0646 292.955 87.9038 292.81 87.6717 292.675C87.4377 292.54 87.1832 292.446 86.9082 292.392C86.6349 292.34 86.3662 292.329 86.1018 292.36C85.8393 292.392 85.6054 292.468 85.4 292.589C85.2018 292.701 85.0776 292.828 85.0276 292.968C84.9794 293.109 85.0062 293.256 85.108 293.407C85.2098 293.559 85.3857 293.707 85.6357 293.851ZM88.2396 292.348C88.436 292.461 88.6495 292.539 88.8798 292.581C89.112 292.624 89.3424 292.631 89.571 292.6C89.7996 292.569 90.0094 292.499 90.2005 292.391C90.3845 292.283 90.5023 292.164 90.5541 292.035C90.6077 291.905 90.5961 291.775 90.5193 291.644C90.4443 291.512 90.3059 291.388 90.1041 291.271C89.8987 291.153 89.6808 291.071 89.4504 291.027C89.2218 290.981 88.9959 290.975 88.7727 291.007C88.5512 291.038 88.3485 291.107 88.1646 291.215C87.9735 291.324 87.8502 291.443 87.7949 291.574C87.7413 291.706 87.752 291.839 87.827 291.973C87.902 292.107 88.0396 292.232 88.2396 292.348ZM95.3205 293.615C95.5438 293.746 95.7259 293.9 95.867 294.079C96.0081 294.257 96.0742 294.456 96.0653 294.676C96.0581 294.894 95.9438 295.132 95.7224 295.39C95.5009 295.648 95.1384 295.922 94.6348 296.213C94.1472 296.494 93.6677 296.718 93.1962 296.883C92.7283 297.048 92.2783 297.155 91.8461 297.204C91.4157 297.255 91.0103 297.248 90.6299 297.183C90.2513 297.119 89.9075 296.998 89.5985 296.819C89.2913 296.642 89.0779 296.449 88.9582 296.239C88.8422 296.03 88.8163 295.818 88.8805 295.604C88.9484 295.389 89.1056 295.186 89.352 294.994L90.0057 295.372C89.8128 295.551 89.7217 295.739 89.7324 295.935C89.7467 296.131 89.8985 296.312 90.1878 296.479C90.6111 296.723 91.1299 296.809 91.7443 296.737C92.3604 296.666 93.006 296.436 93.6811 296.046L93.6382 296.021C93.3882 296.05 93.1399 296.056 92.8935 296.04C92.647 296.023 92.4104 295.984 92.1836 295.921C91.9568 295.858 91.7487 295.772 91.5594 295.662C91.2451 295.481 91.0343 295.27 90.9272 295.028C90.8236 294.787 90.8299 294.542 90.9459 294.294C91.0656 294.045 91.3022 293.819 91.6558 293.615C91.9916 293.421 92.3738 293.287 92.8024 293.212C93.2346 293.138 93.6703 293.132 94.1097 293.194C94.5508 293.257 94.9544 293.397 95.3205 293.615ZM94.7312 293.955C94.5061 293.825 94.2472 293.74 93.9543 293.701C93.665 293.662 93.373 293.667 93.0783 293.715C92.7872 293.764 92.5274 293.854 92.2988 293.986C92.0702 294.118 91.9121 294.267 91.8246 294.433C91.7407 294.599 91.7308 294.764 91.7951 294.929C91.863 295.094 92.0095 295.242 92.2345 295.372C92.4041 295.47 92.5952 295.542 92.8078 295.588C93.0221 295.634 93.2417 295.654 93.4668 295.65C93.6954 295.646 93.915 295.619 94.1258 295.57C94.3383 295.519 94.5258 295.447 94.6883 295.353C94.9026 295.229 95.0518 295.083 95.1357 294.915C95.2214 294.748 95.2321 294.579 95.1678 294.408C95.1053 294.238 94.9598 294.087 94.7312 293.955ZM94.4346 299.611C94.0309 299.378 93.797 299.116 93.7327 298.826C93.6702 298.534 93.7738 298.223 94.0434 297.895C94.3149 297.565 94.7488 297.227 95.3453 296.883C95.9383 296.541 96.5196 296.292 97.0893 296.136C97.6625 295.98 98.2019 295.92 98.7073 295.957C99.2163 295.993 99.6708 296.126 100.071 296.357C100.471 296.588 100.701 296.85 100.762 297.143C100.826 297.436 100.723 297.747 100.451 298.077C100.183 298.407 99.753 298.743 99.1601 299.085C98.5636 299.43 97.9796 299.68 97.4081 299.837C96.8384 299.993 96.3008 300.053 95.7954 300.017C95.2918 299.979 94.8382 299.844 94.4346 299.611ZM95.0239 299.271C95.4239 299.502 95.9276 299.57 96.5348 299.475C97.142 299.38 97.8028 299.127 98.5171 298.714C98.9922 298.44 99.3458 298.177 99.578 297.925C99.8119 297.675 99.9217 297.444 99.9074 297.234C99.8949 297.025 99.7565 296.844 99.4922 296.691C99.0957 296.462 98.5903 296.396 97.976 296.493C97.3634 296.589 96.7008 296.843 95.9883 297.254C95.5132 297.529 95.1596 297.79 94.9274 298.04C94.6953 298.289 94.5863 298.518 94.6006 298.727C94.6167 298.936 94.7578 299.117 95.0239 299.271ZM104.85 299.203L99.3637 302.37L98.6993 301.987L103.489 299.221L103.457 299.203L101.228 298.943L101.903 298.553L104.186 298.819L104.85 299.203ZM100.942 303.281L101.424 303.003L105.217 302.904C105.662 302.893 106.039 302.877 106.348 302.858C106.658 302.837 106.923 302.802 107.14 302.752C107.362 302.703 107.557 302.63 107.724 302.533C107.917 302.421 108.038 302.298 108.086 302.163C108.136 302.029 108.12 301.894 108.038 301.758C107.956 301.622 107.816 301.497 107.617 301.382C107.407 301.26 107.179 301.179 106.934 301.139C106.693 301.099 106.452 301.099 106.211 301.139C105.972 301.181 105.747 301.261 105.538 301.382L104.906 301.017C105.228 300.831 105.584 300.711 105.975 300.657C106.366 300.602 106.757 300.609 107.148 300.678C107.541 300.748 107.898 300.876 108.217 301.06C108.539 301.246 108.756 301.45 108.868 301.671C108.981 301.893 108.992 302.111 108.903 302.326C108.814 302.54 108.628 302.729 108.346 302.892C108.144 303.008 107.91 303.101 107.644 303.17C107.382 303.239 107.043 303.29 106.629 303.323C106.218 303.356 105.687 303.379 105.035 303.393L102.485 303.442L102.442 303.467L104.992 304.939L104.403 305.28L100.942 303.281ZM40.9091 279.709C40.5555 279.505 40.301 279.288 40.1457 279.058C39.9921 278.829 39.9421 278.605 39.9956 278.387C40.0528 278.168 40.218 277.972 40.4912 277.798L41.1663 278.187C41.0038 278.298 40.9118 278.421 40.8904 278.557C40.8707 278.692 40.9127 278.83 41.0163 278.97C41.1199 279.11 41.277 279.241 41.4878 279.363C41.7235 279.499 41.9735 279.596 42.2379 279.654C42.5022 279.711 42.7593 279.728 43.0094 279.703C43.2594 279.678 43.4808 279.61 43.6737 279.499C43.8755 279.382 44.0032 279.251 44.0568 279.104C44.1122 278.957 44.0872 278.802 43.9818 278.64C43.8764 278.479 43.6844 278.317 43.4058 278.156L42.9665 277.903L43.5558 277.562L43.9952 277.816C44.213 277.942 44.4434 278.03 44.6863 278.079C44.931 278.13 45.1712 278.14 45.4069 278.112C45.6445 278.084 45.8597 278.014 46.0525 277.903C46.2383 277.795 46.3588 277.678 46.4142 277.552C46.4695 277.425 46.4606 277.296 46.3874 277.165C46.3159 277.035 46.1793 276.912 45.9775 276.795C45.7882 276.686 45.5748 276.603 45.3373 276.546C45.1033 276.49 44.8685 276.468 44.6327 276.483C44.3988 276.496 44.1862 276.553 43.9952 276.653L43.3522 276.282C43.6505 276.122 43.9889 276.027 44.3675 275.996C44.7479 275.964 45.1301 275.988 45.5141 276.07C45.8998 276.152 46.2508 276.285 46.5669 276.467C46.9062 276.663 47.1285 276.871 47.2339 277.091C47.3411 277.309 47.3482 277.521 47.2553 277.725C47.1625 277.929 46.9866 278.106 46.7276 278.255C46.4187 278.434 46.074 278.539 45.6936 278.571C45.315 278.604 44.9453 278.565 44.5845 278.453L44.5417 278.478C44.831 278.711 44.9542 278.952 44.9114 279.202C44.8703 279.45 44.6756 279.675 44.3274 279.876C44.0291 280.048 43.68 280.156 43.2799 280.199C42.8835 280.243 42.4781 280.223 42.0637 280.141C41.6494 280.058 41.2645 279.914 40.9091 279.709ZM44.9301 280.645L45.4766 280.329L51.7023 279.519L52.0988 279.748L51.2522 280.237L50.9844 280.082L46.2803 280.694L46.2374 280.719L49.4842 282.594L48.8949 282.934L44.9301 280.645ZM46.3875 282.785L47.6787 282.04L47.9332 281.893L51.8737 279.618L52.506 279.983L47.0197 283.15L46.3875 282.785ZM50.4132 285.196C50.0988 285.015 49.8783 284.815 49.7515 284.598C49.6247 284.38 49.5943 284.165 49.6604 283.951C49.7265 283.738 49.8916 283.546 50.156 283.377L50.7989 283.749C50.5757 283.906 50.4828 284.09 50.5203 284.299C50.5614 284.508 50.7221 284.694 51.0025 284.856C51.2275 284.986 51.4802 285.071 51.7606 285.111C52.0428 285.152 52.3259 285.149 52.6098 285.1C52.8974 285.052 53.1581 284.96 53.392 284.825C53.6314 284.687 53.7921 284.533 53.8742 284.364C53.96 284.195 53.9662 284.026 53.893 283.858C53.8198 283.69 53.6671 283.538 53.4349 283.402C53.2688 283.304 53.0706 283.22 52.8402 283.148C52.6116 283.076 52.3991 283.031 52.2026 283.012L51.6561 282.61L54.6886 281.243L57.5389 282.889L56.9496 283.229L54.6564 281.905L52.8455 282.728L52.8777 282.746C53.0795 282.76 53.2947 282.798 53.5233 282.862C53.7519 282.926 53.9582 283.011 54.1421 283.117C54.4779 283.311 54.6966 283.53 54.7984 283.775C54.9038 284.019 54.8931 284.265 54.7663 284.511C54.6413 284.758 54.4011 284.985 54.0457 285.19C53.6957 285.392 53.3045 285.527 52.8724 285.595C52.4437 285.663 52.0133 285.664 51.5811 285.598C51.1507 285.531 50.7614 285.397 50.4132 285.196Z" fill="white"/>
<path d="M150.126 295.331L139.414 289.145C138.62 288.687 137.221 288.745 136.304 289.274L133.426 290.936L135.787 292.299C136.838 291.803 138.243 291.745 139.182 292.158L141.907 290.584L142.629 291.001L139.927 292.56L141.708 293.588L144.409 292.029L145.131 292.446L142.429 294.005L144.211 295.033L146.913 293.474L147.634 293.891L144.909 295.465C145.624 296.006 145.523 296.818 144.664 297.425L147.025 298.788L146.192 299.269L143.852 297.918L141.795 299.105L144.135 300.456L143.302 300.937L140.962 299.586L138.905 300.773L141.245 302.124L140.412 302.605L138.051 301.242C136.999 301.738 135.595 301.796 134.657 301.383L131.932 302.957L131.21 302.54L133.912 300.981L132.13 299.952L129.428 301.511L128.707 301.094L131.408 299.535L129.628 298.507L126.926 300.066L126.204 299.649L128.93 298.075C128.214 297.534 128.315 296.722 129.173 296.115L126.813 294.752L123.934 296.414C123.018 296.944 122.917 297.751 123.711 298.21L134.424 304.395C135.218 304.853 136.617 304.796 137.533 304.266L149.903 297.124C150.82 296.596 150.92 295.789 150.126 295.331Z" fill="#FBB03B"/>
<path d="M132.041 294.437L129.701 293.086L127.645 294.274L129.984 295.625L132.041 294.437Z" fill="#FBB03B"/>
<path d="M134.932 292.768L132.592 291.417L130.535 292.604L132.875 293.955L134.932 292.768Z" fill="#FBB03B"/>
<path d="M129.945 297.729L135.257 300.795C135.855 301.14 136.901 301.096 137.59 300.698L143.723 297.157C144.412 296.759 144.487 296.155 143.89 295.811L138.578 292.744C137.981 292.399 136.935 292.443 136.246 292.841L130.113 296.382C129.424 296.78 129.349 297.384 129.945 297.729Z" fill="#FBB03B"/>
<path d="M128.929 298.077L126.203 299.651L126.925 300.068L129.626 298.509L131.407 299.537L128.705 301.096L129.427 301.513L132.129 299.954L133.91 300.983L131.209 302.542L131.93 302.959L134.656 301.385C135.594 301.799 136.999 301.74 138.05 301.245L140.41 302.607L141.243 302.126L138.904 300.775L140.961 299.588L143.3 300.939L144.134 300.458L141.794 299.107L143.851 297.92L146.19 299.271L147.024 298.79L144.663 297.427C145.522 296.82 145.623 296.009 144.907 295.467L147.633 293.893L146.911 293.476L144.21 295.035L142.428 294.007L145.13 292.448L144.408 292.031L141.706 293.59L139.926 292.562L142.627 291.003L141.906 290.586L139.18 292.16C138.242 291.747 136.837 291.805 135.785 292.301L133.425 290.938L132.592 291.419L134.931 292.77L132.874 293.957L130.535 292.606L129.701 293.087L132.041 294.438L129.984 295.625L127.645 294.274L126.811 294.756L129.172 296.118C128.313 296.725 128.212 297.536 128.929 298.077ZM130.112 296.383L136.245 292.842C136.935 292.444 137.981 292.4 138.577 292.745L143.889 295.812C144.487 296.157 144.412 296.76 143.722 297.158L137.589 300.699C136.899 301.097 135.853 301.141 135.257 300.796L129.945 297.73C129.348 297.385 129.423 296.781 130.112 296.383Z" fill="#F7931E"/>
</svg>
