<svg width="60" height="60" viewBox="0 0 60 60" fill="none" xmlns="http://www.w3.org/2000/svg">
<g clip-path="url(#clip0_608_13067)">
<rect width="66.4032" height="66.4032" transform="translate(-2.88867 -3.66309)" fill="#EAF5FE"/>
<path d="M42.5894 26.7955C42.0294 25.4685 41.7612 24.8002 41.1777 23.5014L42.3918 20.9508L39.1871 17.7649L36.6694 18.9743C35.3565 18.4143 34.6882 18.1461 33.3753 17.5861L32.4247 14.9414H27.8882L26.9471 17.5673C25.6153 18.1273 24.9471 18.3955 23.653 18.9555L21.1259 17.7649L17.9212 20.9508L19.1306 23.4873C18.5706 24.8002 18.3024 25.4685 17.7424 26.7814L15.0977 27.732V32.2685L17.7235 33.2096C18.2835 34.5414 18.5518 35.2096 19.1118 36.5038L17.9212 39.0308C19.5259 40.6496 19.5259 40.6496 21.1447 42.2543L23.6624 41.0449C24.9753 41.6049 25.6435 41.8732 26.9565 42.4567L27.8977 45.0826H32.4341L33.3753 42.4567C34.7024 41.8967 35.3706 41.6285 36.6694 41.0449L39.1871 42.2355C40.8059 40.6308 40.8059 40.6308 42.4106 39.012L41.2012 36.4943C41.7612 35.1814 42.0294 34.5132 42.613 33.2002L45.2388 32.2591V27.732L42.5894 26.7955ZM30.1565 38.1273C28.548 38.1273 26.9756 37.6503 25.6382 36.7565C24.3009 35.8628 23.2586 34.5925 22.6433 33.1063C22.0279 31.6202 21.8672 29.9849 22.1813 28.4074C22.4955 26.8298 23.2704 25.3809 24.4081 24.2438C25.5458 23.1068 26.9952 22.3327 28.5729 22.0194C30.1507 21.7062 31.7858 21.8679 33.2716 22.4841C34.7574 23.1003 36.0271 24.1433 36.9201 25.4812C37.813 26.8191 38.2892 28.3917 38.2882 30.0002C38.287 32.1561 37.4297 34.2232 35.9048 35.7472C34.38 37.2712 32.3123 38.1273 30.1565 38.1273Z" fill="#0085F2"/>
<path d="M35.437 33.1204C34.8385 33.9634 34.0468 34.6508 33.1282 35.1252C32.2096 35.5996 31.1908 35.8472 30.157 35.8472C29.1231 35.8472 28.1043 35.5996 27.1857 35.1252C26.2671 34.6508 25.4754 33.9634 24.877 33.1204C25.3323 31.7305 26.3184 30.577 27.6205 29.911C28.365 30.4287 29.2501 30.7063 30.157 30.7063C31.0631 30.7067 31.9473 30.4273 32.6887 29.9062C33.9945 30.5712 34.9829 31.7272 35.437 33.1204Z" fill="#0085F2"/>
<path d="M32.6413 26.6353C32.6422 27.1269 32.4973 27.6078 32.2248 28.017C31.9524 28.4262 31.5646 28.7454 31.1107 28.9342C30.6568 29.123 30.157 29.1729 29.6747 29.0775C29.1924 28.9822 28.7493 28.7459 28.4013 28.3986C28.0533 28.0513 27.8162 27.6086 27.72 27.1265C27.6237 26.6443 27.6726 26.1445 27.8606 25.6902C28.0485 25.2359 28.367 24.8476 28.7757 24.5744C29.1844 24.3011 29.6649 24.1553 30.1566 24.1553C30.4827 24.1547 30.8056 24.2183 31.1071 24.3427C31.4085 24.4671 31.6825 24.6496 31.9132 24.88C32.144 25.1103 32.3271 25.3839 32.4521 25.6851C32.577 25.9863 32.6413 26.3092 32.6413 26.6353Z" fill="#0085F2"/>
</g>
<defs>
<clipPath id="clip0_608_13067">
<rect x="0.798828" y="0.0253906" width="59.0251" height="59.025" rx="29.5125" fill="white"/>
</clipPath>
</defs>
</svg>
