<svg
  width="641"
  height="480"
  viewBox="0 0 641 480"
  fill="none"
  xmlns="http://www.w3.org/2000/svg"
  style="width: 640.14px; height: 480px;"
  preserveAspectRatio="xMidYMid meet"
>
  <path
    d="M35.9665 57.7904C37.1086 57.29 37.8043 56.0846 37.9885 54.57C38.2557 52.3731 37.1759 50.1639 35.1265 49.3282C34.2292 48.9623 33.3222 48.9167 32.5212 49.2674C31.379 49.7677 30.6833 50.9732 30.4991 52.4878C30.2319 54.6847 31.3117 56.8937 33.3609 57.7293C34.2587 58.0957 35.1657 58.1414 35.9665 57.7904Z"
    fill="#ED5561"
  ></path>
  <path
    d="M74.8643 46.5435C76.0965 46.0036 76.8076 44.6431 76.9176 42.959C77.0573 40.8191 76.1093 38.7031 74.3539 37.4711C73.1339 36.6146 71.8044 36.3271 70.6821 36.8187C69.4499 37.3586 68.7388 38.7192 68.6288 40.4033C68.489 42.5432 69.4371 44.6592 71.1925 45.8914C72.4127 46.7477 73.742 47.0351 74.8643 46.5435Z"
    fill="#ED5561"
  ></path>
  <path
    d="M97.0338 40.4598C97.0338 40.4598 97.1145 40.4414 97.2395 40.4231C97.3014 40.4144 97.377 40.4037 97.4541 40.3992C97.4939 40.3961 97.5359 40.3927 97.5806 40.3891C97.6247 40.386 97.6057 40.4379 97.6352 40.4504C97.7825 40.625 97.9788 40.8575 98.1751 41.0902C98.3714 41.3229 98.5676 41.5557 98.7149 41.73C98.7217 41.7618 98.7775 41.7504 98.7614 41.7978C98.7505 41.8411 98.74 41.8821 98.7304 41.9207C98.7127 41.9963 98.6897 42.0687 98.6716 42.1275C98.6338 42.2465 98.6045 42.3209 98.6045 42.3209C98.6045 42.3209 98.526 42.3372 98.4024 42.3544C98.3414 42.3623 98.2663 42.373 98.1889 42.3775C98.1491 42.3806 98.1069 42.3839 98.0624 42.3875C98.0128 42.3953 98.0333 42.3421 98.0034 42.3301C97.856 42.1555 97.6598 41.923 97.4635 41.6902C97.2672 41.4575 97.0709 41.2248 96.9236 41.0504C96.9162 41.0196 96.8621 41.0294 96.8724 40.9865C96.8833 40.9431 96.8939 40.9022 96.9035 40.8635C96.9207 40.7882 96.9442 40.7155 96.9632 40.6561C97.0021 40.5362 97.0338 40.4598 97.0338 40.4598Z"
    fill="#ED5561"
  ></path>
  <path
    d="M86.3889 44.4727C86.3889 44.4727 86.4656 44.4528 86.5823 44.4309C86.6402 44.4204 86.7108 44.4072 86.7817 44.3996C86.8184 44.3949 86.8575 44.39 86.8984 44.3846C86.9389 44.3797 86.913 44.4248 86.9371 44.4342C87.0408 44.576 87.1788 44.7651 87.3169 44.9542C87.4551 45.1434 87.5932 45.3323 87.6967 45.4742C87.6974 45.5008 87.7502 45.4883 87.7274 45.5299C87.7099 45.5674 87.6934 45.6032 87.6775 45.6365C87.6484 45.702 87.6147 45.7651 87.5883 45.8163C87.5333 45.92 87.4938 45.9851 87.4938 45.9851C87.4938 45.9851 87.4195 46.0029 87.3042 46.024C87.2474 46.0338 87.1769 46.0468 87.1059 46.0546C87.0692 46.0593 87.0303 46.0642 86.9892 46.0696C86.9427 46.0787 86.9709 46.0322 86.9454 46.0235C86.8416 45.8818 86.7035 45.6926 86.5653 45.5035C86.4271 45.3144 86.289 45.1255 86.1855 44.9835C86.1839 44.9576 86.133 44.9685 86.1499 44.9314C86.1674 44.8939 86.1839 44.8581 86.1996 44.8248C86.2284 44.7595 86.2624 44.6962 86.2901 44.6444C86.3469 44.5398 86.3889 44.4727 86.3889 44.4727Z"
    fill="#ED5561"
  ></path>
  <path
    d="M75.4531 48.837C75.4531 48.837 75.5251 48.8066 75.6346 48.7681C75.6889 48.7494 75.7553 48.7261 75.8222 48.708C75.8568 48.698 75.8935 48.6872 75.9322 48.6758C75.9704 48.6651 75.9474 48.7107 75.9708 48.7156C76.0746 48.8301 76.2127 48.9828 76.3507 49.1355C76.4888 49.2881 76.627 49.4408 76.7307 49.5553C76.7323 49.5799 76.7819 49.56 76.762 49.6018C76.7468 49.6391 76.7325 49.6747 76.7191 49.708C76.6891 49.7773 76.663 49.8379 76.6415 49.8877C76.5888 49.9964 76.5583 50.0583 76.5583 50.0583C76.5583 50.0583 76.4935 50.0822 76.3804 50.1238C76.3288 50.1404 76.2659 50.1603 76.1939 50.1831C76.1593 50.1931 76.1226 50.2038 76.084 50.2152C76.0401 50.2309 76.0652 50.1835 76.0408 50.1795C75.9371 50.065 75.7989 49.9123 75.6607 49.7596C75.5226 49.6069 75.3844 49.4542 75.2807 49.3398C75.2782 49.3159 75.2304 49.3342 75.2449 49.2973C75.2601 49.26 75.2744 49.2244 75.2879 49.1911C75.3127 49.1265 75.3422 49.0628 75.3666 49.0105C75.4157 48.9056 75.4531 48.837 75.4531 48.837Z"
    fill="#ED5561"
  ></path>
  <path
    d="M31.8801 62.5067C31.8801 62.5067 31.9503 62.4694 32.0589 62.4209C32.1128 62.397 32.1786 62.3677 32.2461 62.3438C32.2807 62.3306 32.3176 62.3167 32.3565 62.302C32.395 62.2879 32.3804 62.3379 32.4068 62.3415C32.5432 62.456 32.7249 62.6087 32.9067 62.7614C33.0884 62.9141 33.2702 63.0668 33.4065 63.1812C33.4137 63.2074 33.4625 63.1825 33.4502 63.2286C33.4423 63.2695 33.435 63.3082 33.428 63.3446C33.4157 63.4155 33.3985 63.485 33.3851 63.5414C33.3572 63.6556 33.3343 63.7287 33.3343 63.7287C33.3343 63.7287 33.2662 63.7636 33.1586 63.811C33.1054 63.8338 33.0399 63.8628 32.9724 63.8872C32.9378 63.9004 32.9009 63.9143 32.862 63.9292C32.8188 63.9491 32.8347 63.8968 32.8079 63.8944C32.6715 63.7799 32.4897 63.6272 32.308 63.4745C32.1262 63.3218 31.9445 63.1691 31.8081 63.0547C31.8003 63.0294 31.7534 63.0522 31.7605 63.012C31.7683 62.9711 31.7757 62.9324 31.7829 62.896C31.7949 62.8253 31.8124 62.7555 31.8264 62.6983C31.8555 62.5823 31.8801 62.5067 31.8801 62.5067Z"
    fill="#ED5561"
  ></path>
  <path
    d="M41.7697 59.5982C41.7697 59.5982 41.8482 59.5776 41.9689 59.5555C42.0288 59.5448 42.1019 59.5316 42.1762 59.5242C42.2144 59.5195 42.2551 59.5148 42.298 59.5097C42.3403 59.505 42.3192 59.5544 42.3465 59.5651C42.4773 59.7232 42.6519 59.9342 42.8265 60.145C43.0011 60.3558 43.1755 60.5669 43.3065 60.7249C43.311 60.7544 43.3653 60.7415 43.3472 60.7869C43.3342 60.828 43.3217 60.8671 43.3101 60.9038C43.2888 60.9755 43.2624 61.0446 43.2416 61.1005C43.1985 61.2141 43.1659 61.2852 43.1659 61.2852C43.1659 61.2852 43.0899 61.3037 42.9703 61.325C42.9115 61.3348 42.8388 61.348 42.7641 61.3554C42.7259 61.3598 42.6852 61.3648 42.6425 61.3699C42.5944 61.3793 42.6175 61.3283 42.5893 61.3183C42.4585 61.1602 42.2839 60.9492 42.1093 60.7383C41.9347 60.5275 41.7603 60.3165 41.6293 60.1584C41.624 60.1296 41.5714 60.1412 41.584 60.1005C41.5969 60.0594 41.6094 60.0203 41.6211 59.9836C41.6421 59.9121 41.6689 59.8428 41.6906 59.786C41.7349 59.6715 41.7697 59.5982 41.7697 59.5982Z"
    fill="#ED5561"
  ></path>
  <path
    d="M22.515 65.7637C22.515 65.7637 22.5835 65.7545 22.7033 65.7384C22.7592 65.7324 22.8271 65.7248 22.894 65.7214C22.9286 65.7192 22.9657 65.7168 23.0046 65.7141C23.0429 65.7118 23.0064 65.746 23.0259 65.7543C23.0804 65.8688 23.1531 66.0215 23.2259 66.1742C23.2986 66.3268 23.3715 66.4795 23.4258 66.594C23.4189 66.615 23.4708 66.607 23.4381 66.6385C23.4115 66.6671 23.3863 66.6944 23.3626 66.7199C23.3116 66.7726 23.2671 66.8187 23.2304 66.8567C23.1452 66.9383 23.0965 66.9848 23.0965 66.9848C23.0965 66.9848 23.0297 66.9933 22.9125 67.008C22.86 67.0125 22.7963 67.0181 22.7229 67.0243C22.6881 67.0266 22.6512 67.0291 22.6123 67.0315C22.5673 67.0369 22.606 67.0015 22.5855 66.9939C22.5309 66.8795 22.4582 66.7268 22.3854 66.5741C22.3127 66.4214 22.2398 66.2687 22.1855 66.1543C22.1913 66.1339 22.1419 66.1406 22.1676 66.1122C22.1942 66.0836 22.2195 66.0563 22.243 66.0309C22.2877 65.981 22.3364 65.9329 22.3764 65.8934C22.4647 65.8111 22.515 65.7637 22.515 65.7637Z"
    fill="#ED5561"
  ></path>
  <path
    d="M67.4809 55.6466C67.7686 56.1616 68.3516 56.9987 69.027 57.9676C70.9145 60.6771 73.7675 64.772 74.6797 68.203L74.6915 68.2649C74.7342 68.6143 74.797 68.7925 74.8811 68.8236C74.9001 68.83 74.9857 68.8508 75.1719 68.7916C74.3924 64.2978 68.7523 56.5781 67.311 54.7432C67.2535 54.751 67.2052 54.7624 67.1873 54.7789C67.1882 54.7792 67.1133 54.9884 67.4809 55.6466Z"
    fill="#ED5561"
  ></path>
  <path
    d="M47.9429 25.81C50.0585 27.8041 51.9618 31.2047 53.8024 34.493C55.9148 38.2662 58.099 42.1682 59.9988 42.457C60.0117 42.459 60.0243 42.4561 60.0372 42.4579L59.7435 42.2044L54.3723 33.5949C44.9095 17.9271 38.7044 21.1848 38.7044 21.1848C38.3279 21.4434 38.0094 21.7267 37.7344 22.026C39.9505 21.8496 44.0624 22.1508 47.9429 25.81Z"
    fill="#ED5561"
  ></path>
  <path
    d="M119.138 29.9481C112.002 33.4386 94.0074 37.1615 94.0074 37.1615L77.6698 40.0557C77.9986 40.9948 78.1471 42.0069 78.0798 43.0332C77.9356 45.2384 76.9341 46.9057 75.332 47.6077C74.8212 47.8315 74.2708 47.945 73.6978 47.945C73.6974 47.945 73.6974 47.945 73.6974 47.945C72.6502 47.9448 71.5537 47.5634 70.5255 46.842C68.8817 45.6882 67.8055 43.8584 67.5267 41.8524L61.7271 42.8799C61.2443 43.2266 60.7397 43.4034 60.2195 43.4034C60.0999 43.4034 59.98 43.3943 59.8591 43.3759C57.5095 43.0185 55.4152 39.2777 52.9907 34.9464C51.1841 31.7192 49.3163 28.3823 47.3052 26.4859C43.1465 22.5653 38.6409 22.801 36.9973 23.0538C35.2449 26.2784 37.347 30.5685 37.347 30.5685L47.5466 46.6243C47.5466 46.6243 44.6417 48.3924 38.8705 51.8933C39.1571 52.7717 39.2629 53.7303 39.144 54.709C38.9025 56.6944 37.9151 58.2055 36.4344 58.8545C35.9223 59.0787 35.3718 59.1925 34.7977 59.1925C34.1827 59.1925 33.5516 59.0624 32.9221 58.8055C31.9541 58.4107 31.1421 57.7539 30.5314 56.9336C19.7129 63.198 1.24095 69.816 1.24095 69.816L0 71.9103C1.44463 71.5588 11.6548 68.7704 21.4399 66.0875L21.4071 65.916L21.7024 65.5856C21.7757 65.5047 21.8334 65.4474 21.8814 65.3998L22.1982 65.1009L22.608 65.0461C22.6934 65.0365 22.7757 65.028 22.8564 65.0238L23.3435 65.0155L23.4933 65.1959L23.5411 65.2165L23.5838 65.3061L23.7095 65.4644C26.3479 64.7405 28.8994 64.0399 31.1808 63.4128C31.0818 63.2641 31.0373 63.0788 31.0717 62.8857L31.0972 62.7567C31.1086 62.6878 31.1298 62.5977 31.1486 62.5242C31.1846 62.3824 31.215 62.2892 31.215 62.2892L31.3022 62.0243L31.5508 61.8888C31.5508 61.8888 31.638 61.8423 31.7739 61.7815C31.8416 61.7513 31.9248 61.7149 32.0093 61.6847L32.2279 61.602L32.8523 61.5995L32.9737 61.9054L33.7991 62.5982C33.8351 62.6196 33.8664 62.6431 33.8946 62.6668C37.7516 61.6062 40.3333 60.8955 40.3333 60.8955L41.2246 60.7645L41.1341 60.655C41.0699 60.6002 41.0171 60.5358 40.9769 60.4652L40.9751 60.4616C40.881 60.2957 40.8546 60.0945 40.9136 59.8978L40.9546 59.7684C40.9756 59.697 41.0077 59.6103 41.0355 59.5385C41.0936 59.3879 41.1381 59.2951 41.1381 59.2951L41.278 59.0058L41.5922 58.9206C41.5922 58.9206 41.6903 58.8947 41.8403 58.867C41.9185 58.8527 42.0115 58.8366 42.1061 58.8274L42.301 58.8093H42.8519L42.9632 59.2155L43.8036 60.2309C43.8492 60.2711 43.8843 60.3197 43.9176 60.3688L54.0618 58.8788L57.7849 62.4468C60.422 66.48 65.8516 72.9954 65.8516 72.9954L52.9759 80.8294L54.9927 82.4582L71.1258 75.7101L75.702 78.1145L75.7796 74.1588L96.1013 68.7295L94.007 67.1006L76.4724 69.1294C75.8688 69.5533 75.3662 69.7639 74.9471 69.7639C74.8084 69.7639 74.679 69.7413 74.5572 69.6964C73.8977 69.4529 73.8047 68.693 73.7696 68.4071C72.9084 65.1695 70.1119 61.1555 68.2613 58.4994C67.5437 57.4695 66.977 56.656 66.6664 56.1004C66.4941 55.7919 65.9689 54.8525 66.4415 54.2203C66.7116 53.859 67.1641 53.7953 67.4903 53.8038C68.5584 53.0216 71.2832 51.5962 74.8561 49.9403L74.7792 49.9206L74.605 49.6036C74.5241 49.4272 74.5192 49.2233 74.5918 49.0389L74.6345 48.9329C74.664 48.8565 74.7005 48.7771 74.7313 48.7116C74.7903 48.5851 74.8359 48.5015 74.8359 48.5015L74.9517 48.2895L75.1766 48.1921C75.1766 48.1921 75.2652 48.1541 75.4011 48.1069C75.4697 48.0827 75.5525 48.0546 75.6352 48.032L75.8279 47.9754L76.5354 47.9739L76.6076 48.3807L77.0966 48.9213C79.7019 47.7588 82.6126 46.5312 85.5846 45.3643C85.5567 45.326 85.5337 45.2887 85.5171 45.2554L85.4952 45.2051C85.4943 45.2029 85.4934 45.2006 85.4925 45.1984L85.3886 44.9261L85.5513 44.5563C85.5954 44.458 85.6372 44.3786 85.6718 44.314C85.7422 44.1823 85.7954 44.0991 85.7954 44.0991L85.9428 43.8671L86.2117 43.7953C86.2117 43.7953 86.3063 43.7707 86.4498 43.7435C86.537 43.7278 86.6206 43.7131 86.7049 43.7041L86.9012 43.6849H87.5269L87.5902 44.1472L87.843 44.4935C88.9454 44.077 90.0475 43.6733 91.1365 43.2883C92.7173 42.7299 94.4563 42.0791 96.2803 41.3724C96.1815 41.2139 96.144 41.0216 96.1896 40.8254L96.2231 40.6937C96.2421 40.6096 96.2709 40.5175 96.2949 40.4417C96.3458 40.2859 96.3867 40.1893 96.3867 40.1893L96.5249 39.8605L96.8761 39.7767C96.8761 39.7767 96.9783 39.7527 97.1357 39.7299C97.2175 39.7183 97.3138 39.7053 97.4124 39.7L97.5814 39.6886H98.1055L98.2354 40.0802L98.568 40.4746C109.763 36.0305 122.937 30.1024 122.937 30.1024L119.138 29.9481Z"
    fill="#ED5561"
  ></path>
  <path
    d="M226.823 89.4271C227.252 90.121 228.096 90.4612 229.094 90.4418C230.541 90.4136 231.873 89.512 232.227 88.1081C232.382 87.4933 232.328 86.9015 232.027 86.4151C231.599 85.7211 230.754 85.3809 229.756 85.4003C228.309 85.4285 226.977 86.3301 226.623 87.7341C226.469 88.3486 226.522 88.9404 226.823 89.4271Z"
    fill="#ED5561"
  ></path>
  <path
    d="M237.668 113.591C238.131 114.34 239.077 114.676 240.178 114.593C241.577 114.487 242.86 113.679 243.498 112.43C243.941 111.561 244.005 110.674 243.584 109.992C243.122 109.243 242.175 108.907 241.074 108.99C239.675 109.096 238.392 109.904 237.754 111.154C237.312 112.022 237.247 112.91 237.668 113.591Z"
    fill="#ED5561"
  ></path>
  <path
    d="M243.639 127.393C243.639 127.393 243.658 127.444 243.681 127.523C243.693 127.562 243.707 127.61 243.716 127.66C243.722 127.685 243.728 127.712 243.735 127.741C243.741 127.769 243.706 127.762 243.7 127.782C243.6 127.893 243.468 128.041 243.335 128.19C243.202 128.338 243.069 128.487 242.97 128.598C242.95 128.605 242.962 128.641 242.93 128.635C242.901 128.631 242.874 128.629 242.848 128.626C242.797 128.621 242.748 128.613 242.709 128.607C242.628 128.593 242.577 128.581 242.577 128.581C242.577 128.581 242.559 128.532 242.537 128.453C242.526 128.414 242.512 128.367 242.502 128.317C242.497 128.291 242.491 128.264 242.484 128.236C242.474 128.204 242.511 128.213 242.516 128.192C242.615 128.081 242.748 127.933 242.881 127.784C243.014 127.636 243.146 127.487 243.246 127.376C243.265 127.368 243.254 127.334 243.283 127.337C243.312 127.34 243.339 127.343 243.365 127.346C243.415 127.35 243.465 127.358 243.505 127.365C243.587 127.38 243.639 127.393 243.639 127.393Z"
    fill="#ED5561"
  ></path>
  <path
    d="M240.065 120.866C240.065 120.866 240.085 120.913 240.11 120.987C240.122 121.023 240.137 121.068 240.149 121.113C240.155 121.136 240.162 121.161 240.169 121.187C240.176 121.213 240.144 121.2 240.14 121.217C240.058 121.297 239.948 121.404 239.838 121.511C239.728 121.618 239.619 121.725 239.536 121.805C239.519 121.808 239.532 121.841 239.503 121.83C239.477 121.822 239.453 121.814 239.429 121.807C239.384 121.795 239.34 121.779 239.305 121.766C239.233 121.74 239.187 121.72 239.187 121.72C239.187 121.72 239.168 121.674 239.144 121.601C239.133 121.565 239.118 121.521 239.106 121.475C239.1 121.452 239.093 121.427 239.086 121.401C239.076 121.372 239.109 121.386 239.112 121.369C239.194 121.289 239.304 121.182 239.414 121.075C239.524 120.968 239.633 120.861 239.716 120.781C239.733 120.778 239.721 120.746 239.746 120.753C239.772 120.761 239.797 120.769 239.82 120.776C239.865 120.788 239.909 120.805 239.945 120.818C240.018 120.844 240.065 120.866 240.065 120.866Z"
    fill="#ED5561"
  ></path>
  <path
    d="M236.237 114.18C236.237 114.18 236.263 114.224 236.298 114.292C236.315 114.325 236.336 114.366 236.354 114.408C236.364 114.429 236.374 114.452 236.385 114.476C236.395 114.499 236.364 114.489 236.363 114.504C236.298 114.582 236.212 114.686 236.126 114.789C236.039 114.893 235.953 114.996 235.888 115.074C235.873 115.077 235.89 115.107 235.861 115.098C235.835 115.092 235.811 115.086 235.788 115.08C235.741 115.067 235.699 115.056 235.665 115.046C235.59 115.022 235.547 115.008 235.547 115.008C235.547 115.008 235.526 114.968 235.488 114.899C235.473 114.867 235.454 114.828 235.433 114.783C235.423 114.762 235.413 114.739 235.402 114.715C235.388 114.688 235.421 114.7 235.421 114.684C235.486 114.606 235.572 114.503 235.658 114.399C235.745 114.296 235.831 114.192 235.896 114.115C235.911 114.111 235.894 114.082 235.92 114.088C235.945 114.094 235.97 114.1 235.992 114.106C236.037 114.116 236.081 114.129 236.117 114.14C236.189 114.162 236.237 114.18 236.237 114.18Z"
    fill="#ED5561"
  ></path>
  <path
    d="M223.392 87.2124C223.392 87.2124 223.423 87.2544 223.464 87.3204C223.485 87.3532 223.51 87.393 223.531 87.4344C223.543 87.4556 223.556 87.4782 223.569 87.5021C223.581 87.5258 223.548 87.5209 223.548 87.5383C223.486 87.6371 223.404 87.7688 223.322 87.9007C223.239 88.0324 223.157 88.1641 223.095 88.2629C223.079 88.2698 223.1 88.2991 223.069 88.2955C223.041 88.2942 223.016 88.2931 222.992 88.2917C222.945 88.2902 222.898 88.2855 222.86 88.2819C222.784 88.2743 222.734 88.2662 222.734 88.2662C222.734 88.2662 222.706 88.2253 222.665 88.16C222.645 88.1276 222.62 88.0878 222.599 88.0463C222.587 88.025 222.574 88.0024 222.561 87.9785C222.544 87.9524 222.58 87.958 222.579 87.9403C222.641 87.8415 222.723 87.7098 222.805 87.5781C222.887 87.4464 222.97 87.3145 223.031 87.216C223.047 87.2086 223.028 87.1802 223.055 87.1813C223.082 87.1826 223.108 87.184 223.132 87.1851C223.178 87.1864 223.225 87.1914 223.264 87.1952C223.341 87.2034 223.392 87.2124 223.392 87.2124Z"
    fill="#ED5561"
  ></path>
  <path
    d="M226.181 93.3516C226.181 93.3516 226.201 93.4006 226.227 93.4768C226.239 93.5146 226.255 93.5606 226.266 93.608C226.273 93.6324 226.28 93.6583 226.287 93.6856C226.294 93.7124 226.26 93.7035 226.255 93.722C226.165 93.8213 226.044 93.9536 225.924 94.086C225.803 94.2183 225.682 94.3507 225.592 94.4499C225.573 94.4555 225.587 94.4895 225.555 94.4819C225.528 94.4772 225.501 94.4727 225.476 94.4687C225.428 94.4616 225.381 94.4506 225.343 94.4423C225.265 94.4247 225.216 94.4104 225.216 94.4104C225.216 94.4104 225.197 94.3628 225.173 94.2872C225.161 94.2499 225.146 94.204 225.134 94.1564C225.127 94.132 225.12 94.1061 225.113 94.0788C225.103 94.0486 225.138 94.0587 225.142 94.0397C225.232 93.9405 225.353 93.8081 225.474 93.6758C225.594 93.5434 225.715 93.4111 225.805 93.3118C225.823 93.3055 225.811 93.2727 225.839 93.2771C225.867 93.2818 225.893 93.2863 225.918 93.2903C225.966 93.2975 226.013 93.3085 226.052 93.3172C226.13 93.3357 226.181 93.3516 226.181 93.3516Z"
    fill="#ED5561"
  ></path>
  <path
    d="M220.424 81.4439C220.424 81.4439 220.436 81.4873 220.457 81.5635C220.466 81.5991 220.477 81.6425 220.486 81.6856C220.49 81.708 220.495 81.7317 220.501 81.7567C220.505 81.7813 220.48 81.7607 220.476 81.7741C220.407 81.82 220.315 81.881 220.223 81.942C220.13 82.0031 220.038 82.0643 219.969 82.1099C219.955 82.1075 219.964 82.1401 219.941 82.122C219.92 82.1075 219.9 82.0936 219.881 82.0806C219.843 82.0525 219.809 82.0279 219.781 82.0075C219.72 81.9599 219.685 81.9324 219.685 81.9324C219.685 81.9324 219.674 81.8899 219.653 81.8155C219.646 81.782 219.636 81.741 219.625 81.6943C219.621 81.672 219.616 81.6483 219.611 81.6232C219.603 81.5946 219.63 81.6165 219.633 81.6024C219.702 81.5566 219.794 81.4956 219.886 81.4343C219.979 81.3733 220.071 81.3123 220.14 81.2664C220.154 81.2684 220.145 81.2369 220.166 81.251C220.187 81.2655 220.207 81.2794 220.225 81.2924C220.262 81.3167 220.297 81.344 220.327 81.3661C220.389 81.4158 220.424 81.4439 220.424 81.4439Z"
    fill="#ED5561"
  ></path>
  <path
    d="M231.097 109.643C230.789 109.877 230.301 110.331 229.735 110.857C228.153 112.328 225.762 114.551 223.623 115.456L223.584 115.469C223.362 115.529 223.252 115.586 223.24 115.643C223.237 115.656 223.232 115.713 223.287 115.829C226.126 114.912 230.61 110.552 231.666 109.451C231.656 109.414 231.644 109.384 231.632 109.374C231.632 109.374 231.489 109.345 231.097 109.643Z"
    fill="#ED5561"
  ></path>
  <path
    d="M248.633 94.2554C247.535 95.8083 245.507 97.3526 243.546 98.846C241.295 100.56 238.968 102.332 238.955 103.589C238.955 103.597 238.958 103.605 238.958 103.614L239.095 103.4L244.18 99.1328C253.461 91.5687 250.783 87.848 250.783 87.848C250.581 87.6278 250.368 87.4474 250.149 87.2967C250.466 88.7159 250.648 91.4068 248.633 94.2554Z"
    fill="#ED5561"
  ></path>
  <path
    d="M252.472 140.748C249.558 136.446 245.498 125.132 245.498 125.132L242.127 114.815C241.549 115.114 240.907 115.303 240.237 115.353C238.795 115.462 237.623 114.966 237.022 113.992C236.83 113.682 236.706 113.336 236.654 112.965C236.558 112.286 236.705 111.541 237.078 110.809C237.674 109.639 238.761 108.774 240.035 108.41L238.838 104.748C238.569 104.467 238.408 104.156 238.361 103.819C238.35 103.742 238.345 103.663 238.345 103.583C238.362 102.028 240.593 100.329 243.176 98.3622C245.101 96.8966 247.091 95.3811 248.135 93.9049C250.294 90.8523 249.729 87.9556 249.414 86.9143C247.165 86.0746 244.579 87.8291 244.579 87.8291L235.114 95.906C235.114 95.906 233.703 94.1864 230.907 90.7691C230.364 91.0351 229.753 91.1916 229.108 91.2041C227.8 91.2296 226.731 90.7284 226.175 89.8288C225.982 89.5176 225.859 89.1715 225.806 88.7998C225.75 88.4016 225.776 87.9806 225.885 87.5494C226.052 86.8863 226.403 86.3002 226.878 85.8293C221.83 79.396 215.851 68.0377 215.851 68.0377L214.381 67.4256C214.741 68.3292 217.483 74.6867 220.116 80.7789L220.225 80.7418L220.466 80.9028C220.525 80.943 220.567 80.975 220.602 81.0018L220.825 81.1796L220.898 81.44C220.912 81.4945 220.925 81.5469 220.935 81.5989L220.985 81.9137L220.882 82.0273L220.873 82.0601L220.818 82.0961L220.727 82.192C221.438 83.8345 222.126 85.4231 222.741 86.8434C222.828 86.7656 222.944 86.7198 223.072 86.7245L223.158 86.7292C223.204 86.7303 223.264 86.7359 223.313 86.741C223.409 86.7513 223.472 86.7625 223.472 86.7625L223.651 86.7947L223.762 86.9433C223.762 86.9433 223.8 86.9957 223.851 87.0781C223.877 87.1193 223.908 87.1698 223.936 87.2217L224.009 87.3556L224.068 87.7598L223.881 87.8664L223.508 88.4644C223.498 88.4897 223.485 88.512 223.472 88.5326C224.513 90.9336 225.209 92.5408 225.209 92.5408L225.376 93.1062L225.439 93.0375C225.468 92.991 225.505 92.951 225.547 92.9184L225.549 92.9168C225.648 92.8408 225.776 92.8053 225.909 92.8254L225.996 92.8399C226.044 92.8468 226.103 92.8598 226.153 92.8712C226.255 92.8951 226.32 92.9155 226.32 92.9155L226.52 92.9796L226.604 93.1752C226.604 93.1752 226.629 93.2365 226.661 93.3311C226.677 93.3805 226.697 93.4393 226.711 93.4996L226.741 93.6242L226.792 93.9809L226.538 94.0903L225.958 94.7276C225.936 94.7609 225.908 94.788 225.879 94.8142L227.773 101.248L225.803 103.987C223.432 106.064 219.71 110.178 219.71 110.178L213.456 102.556L212.586 104.011L218.434 113.842L217.296 117.027L219.866 116.715L225.244 129.38L226.107 127.874L223.187 116.703C222.857 116.351 222.674 116.044 222.636 115.773C222.623 115.683 222.626 115.597 222.644 115.514C222.741 115.065 223.225 114.935 223.407 114.886C225.425 114.032 227.769 111.853 229.32 110.411C229.921 109.852 230.396 109.41 230.728 109.158C230.912 109.019 231.472 108.592 231.925 108.84C232.183 108.982 232.266 109.269 232.291 109.482C232.895 110.102 234.068 111.736 235.468 113.899L235.474 113.847L235.663 113.705C235.77 113.637 235.901 113.615 236.028 113.645L236.1 113.663C236.152 113.675 236.207 113.691 236.252 113.706C236.34 113.732 236.398 113.754 236.398 113.754L236.546 113.81L236.63 113.947C236.63 113.947 236.662 114 236.706 114.084C236.728 114.126 236.753 114.177 236.776 114.229L236.83 114.348L236.896 114.807L236.639 114.891L236.333 115.257C237.325 116.838 238.387 118.611 239.415 120.429C239.437 120.407 239.459 120.389 239.479 120.375L239.509 120.356C239.511 120.355 239.512 120.355 239.514 120.354L239.681 120.262L239.935 120.333C240.003 120.353 240.058 120.372 240.103 120.389C240.194 120.423 240.253 120.449 240.253 120.449L240.417 120.523L240.488 120.691C240.488 120.691 240.513 120.75 240.543 120.841C240.562 120.896 240.579 120.949 240.592 121.002L240.623 121.127L240.68 121.533L240.386 121.616L240.185 121.812C240.556 122.487 240.918 123.164 241.267 123.834C241.774 124.807 242.355 125.874 242.979 126.99C243.073 126.912 243.194 126.87 243.325 126.882L243.414 126.891C243.47 126.896 243.532 126.906 243.583 126.915C243.689 126.934 243.755 126.951 243.755 126.951L243.981 127.011L244.067 127.231C244.067 127.231 244.092 127.295 244.122 127.394C244.137 127.446 244.154 127.508 244.166 127.571L244.189 127.679L244.237 128.019L243.995 128.139L243.77 128.39C247.674 135.234 252.72 143.224 252.72 143.224L252.472 140.748Z"
    fill="#ED5561"
  ></path>
  <path
    d="M229.803 231.107C228.941 231.107 228.234 230.851 227.702 230.348L228.317 229.698C228.677 230.04 229.177 230.213 229.803 230.213C231.149 230.213 233.026 229.422 235.232 227.925C236.049 227.371 236.872 226.797 237.68 226.221L238.199 226.949C237.386 227.529 236.557 228.107 235.734 228.665C233.346 230.285 231.351 231.107 229.803 231.107ZM247.04 220.036L246.458 219.357C249.339 216.886 252.059 214.31 254.543 211.702L255.19 212.319C252.686 214.949 249.944 217.545 247.04 220.036ZM229.935 219.708L229.139 219.3C230.664 216.323 232.846 213.097 235.447 209.973L236.134 210.545C233.574 213.62 231.431 216.788 229.935 219.708ZM262.447 203.751L261.73 203.216C264.011 200.157 266.026 197.011 267.72 193.866L268.507 194.29C266.793 197.474 264.754 200.657 262.447 203.751ZM243.884 202.594L243.291 201.925C246.032 199.493 249.016 197.176 252.16 195.038L252.663 195.778C249.55 197.895 246.597 200.188 243.884 202.594ZM392.394 193.138L392.343 192.246C396.109 192.03 399.661 191.387 403.202 190.279L403.469 191.132C399.857 192.262 396.234 192.918 392.394 193.138ZM381.166 192.599C377.87 192.133 374.276 191.387 370.181 190.319L370.406 189.453C374.469 190.512 378.029 191.252 381.292 191.713L381.166 192.599ZM262.212 190.081L261.798 189.288C265.069 187.585 268.508 186.029 272.02 184.663L272.344 185.497C268.863 186.851 265.453 188.393 262.212 190.081ZM359.425 187.215C358.72 187 358.013 186.783 357.301 186.565C354.523 185.714 351.65 184.834 348.73 183.988L348.979 183.129C351.906 183.977 354.782 184.858 357.563 185.71C358.274 185.928 358.981 186.145 359.686 186.36L359.425 187.215ZM413.746 186.557L413.297 185.784C416.3 184.041 419.351 181.895 422.366 179.405L422.936 180.095C419.883 182.615 416.791 184.79 413.746 186.557ZM272.973 183.972L272.124 183.692C273.294 180.137 274.105 176.504 274.533 172.893L275.421 172.998C274.986 176.669 274.162 180.36 272.973 183.972ZM282.907 182.005L282.669 181.143C286.215 180.167 289.897 179.341 293.611 178.689L293.765 179.569C290.079 180.216 286.426 181.036 282.907 182.005ZM337.946 181.151C334.122 180.268 330.543 179.592 327.005 179.085L327.132 178.2C330.695 178.711 334.298 179.391 338.147 180.28L337.946 181.151ZM304.809 178.214L304.748 177.322C307.082 177.162 309.451 177.081 311.788 177.081C311.789 177.081 311.79 177.081 311.792 177.081C313.174 177.081 314.578 177.109 315.965 177.165L315.929 178.058C314.554 178.003 313.162 177.975 311.792 177.975C311.79 177.975 311.789 177.975 311.788 177.975C309.472 177.975 307.123 178.055 304.809 178.214ZM431.138 172.441L430.494 171.821C430.633 171.677 430.771 171.532 430.91 171.386L431.558 172.003C431.418 172.15 431.278 172.296 431.138 172.441ZM274.697 161.833C274.38 158.237 273.694 154.574 272.659 150.947L273.519 150.701C274.57 154.383 275.265 158.102 275.587 161.755L274.697 161.833ZM169.965 153.047C167.307 153.047 164.662 152.782 162.102 152.26L162.281 151.384C165.812 152.104 169.496 152.319 173.214 152.022L173.268 152.017L173.339 152.909L173.286 152.913C172.176 153.002 171.059 153.047 169.965 153.047ZM184.431 151.166L184.226 150.295C187.786 149.458 191.348 148.338 194.814 146.968L195.143 147.8C191.637 149.186 188.033 150.318 184.431 151.166ZM151.512 148.457C148.301 146.767 145.197 144.598 142.288 142.012L142.882 141.344C145.737 143.882 148.781 146.009 151.929 147.665L151.512 148.457ZM205.276 142.965L204.838 142.185C208.01 140.404 211.148 138.37 214.169 136.142L214.7 136.862C211.65 139.112 208.479 141.165 205.276 142.965ZM268.738 140.57C267.992 138.981 267.168 137.368 266.287 135.777C265.271 133.942 264.375 132.213 263.623 130.637L264.43 130.252C265.174 131.811 266.062 133.525 267.069 135.344C267.959 136.953 268.793 138.583 269.548 140.19L268.738 140.57ZM134.671 133.738C132.475 130.857 130.43 127.677 128.594 124.284L129.38 123.858C131.195 127.211 133.214 130.352 135.382 133.196L134.671 133.738ZM223.335 129.689L222.726 129.034C225.414 126.536 228.017 123.843 230.462 121.032L231.137 121.618C228.671 124.454 226.046 127.169 223.335 129.689ZM260.279 119.854C260.278 119.793 260.278 119.732 260.278 119.672C260.278 114.266 264.945 113.569 268.457 113.515L268.47 114.409C263.355 114.488 261.172 116.062 261.172 119.672C261.172 119.727 261.172 119.781 261.174 119.837L260.279 119.854ZM289.531 116.069C289.528 116.069 289.525 116.069 289.522 116.069C286.138 116.069 282.598 115.695 279.546 115.343L279.649 114.455C282.676 114.803 286.185 115.175 289.522 115.175C289.926 115.176 290.339 115.169 290.733 115.158L290.759 116.052C290.359 116.063 289.946 116.069 289.531 116.069ZM123.926 114.06C122.606 110.588 121.485 106.979 120.592 103.334L121.461 103.121C122.345 106.731 123.455 110.304 124.762 113.742L123.926 114.06ZM301.674 113.216L301.183 112.468C304.085 110.562 305.907 107.642 306.752 103.543L307.628 103.724C306.745 108.007 304.741 111.201 301.674 113.216ZM238.053 112.776L237.321 112.262C239.495 109.161 241.472 105.981 243.197 102.81L243.983 103.237C242.241 106.438 240.246 109.647 238.053 112.776ZM248.672 93.0202L247.832 92.7112C248.501 90.8964 249.049 89.1381 249.464 87.4851C249.929 85.6309 250.761 83.8708 251.936 82.2536L252.66 82.7792C251.552 84.3034 250.769 85.9602 250.331 87.7029C249.909 89.3865 249.351 91.1754 248.672 93.0202ZM306.781 92.6198C306.037 88.9313 304.471 85.6417 302.126 82.8427L302.812 82.2686C305.253 85.1834 306.883 88.6067 307.657 92.4434L306.781 92.6198ZM129.489 92.3151C127.409 92.3151 125.234 92.2485 123.027 92.1168L123.08 91.2241C125.27 91.3547 127.426 91.4209 129.489 91.4209C131.095 91.4209 132.682 91.3806 134.206 91.3015L134.253 92.1946C132.714 92.2744 131.111 92.3151 129.489 92.3151ZM118.604 92.2782C118.248 89.1833 118.068 86.1091 118.068 83.1414C118.068 82.4436 118.078 81.7408 118.097 81.0522L118.991 81.0779C118.972 81.758 118.962 82.4521 118.962 83.1412C118.962 86.0749 119.14 89.1146 119.492 92.1758L118.604 92.2782ZM111.869 90.9693C108.3 90.4598 104.584 89.8012 100.827 89.0113L101.011 88.1363C104.749 88.9219 108.445 89.5774 111.995 90.084L111.869 90.9693ZM145.403 90.7658L145.213 89.8919C149.074 89.054 152.59 87.8571 155.666 86.3347L156.063 87.1361C152.921 88.691 149.335 89.9123 145.403 90.7658ZM89.9253 86.3888C83.4211 84.6276 79.2195 83.1286 79.1777 83.1139L79.4796 82.272C79.5209 82.2867 83.6923 83.7745 90.1592 85.5256L89.9253 86.3888ZM165.066 80.3337L164.364 79.7799C166.243 77.3979 167.195 74.7778 167.195 71.9927C167.195 71.2279 167.122 70.4437 166.977 69.6617L167.856 69.4992C168.011 70.3346 168.089 71.1736 168.089 71.993C168.09 74.9837 167.072 77.7901 165.066 80.3337ZM293.425 76.2877C290.251 74.7859 286.695 73.762 282.856 73.2447L282.975 72.3585C286.906 72.8881 290.55 73.9381 293.808 75.4794L293.425 76.2877ZM261.22 76.1451L260.846 75.3327C264.046 73.8597 267.803 72.8183 271.709 72.3218L271.822 73.2089C268.005 73.6942 264.338 74.7096 261.22 76.1451ZM120.283 70.0751L119.41 69.8841C120.041 66.9964 120.897 64.3017 121.952 61.8745C122.346 60.9691 122.784 60.0983 123.254 59.2866L124.028 59.7348C123.575 60.517 123.153 61.3569 122.772 62.2313C121.74 64.605 120.902 67.2441 120.283 70.0751ZM161.794 60.2148C159.386 57.649 156.332 55.4002 152.961 53.7115L153.362 52.912C156.826 54.6475 159.967 56.9611 162.446 59.6029L161.794 60.2148ZM131.8 52.3192L131.411 51.5139C134.041 50.2439 137.001 49.5998 140.211 49.5998C140.975 49.5998 141.759 49.6371 142.543 49.7109L142.459 50.6011C141.703 50.53 140.947 50.494 140.211 50.494C137.137 50.494 134.307 51.1081 131.8 52.3192Z"
    fill="#ED5561"
  ></path>
  <ellipse cx="440.052" cy="457.644" rx="200.085" ry="22.3558" fill="#F1F1F1"></ellipse>
  <path
    d="M511.283 464.533H366.962C346.205 464.533 329.379 447.707 329.379 426.95V37.5835C329.379 16.8266 346.206 0 366.962 0H511.283C532.04 0 548.867 16.8268 548.867 37.5835V426.95C548.867 447.707 532.04 464.533 511.283 464.533Z"
    fill="#1B3756"
  ></path>
  <path
    d="M469.778 20.1877H404.068C402.15 20.1877 400.596 18.6331 400.596 16.7154V16.6452C400.596 14.7275 402.15 13.1729 404.068 13.1729H469.778C471.695 13.1729 473.25 14.7275 473.25 16.6452V16.7154C473.25 18.6329 471.695 20.1877 469.778 20.1877Z"
    fill="white"
  ></path>
  <path
    d="M484.441 20.1877C486.378 20.1877 487.948 18.6174 487.948 16.6803C487.948 14.7432 486.378 13.1729 484.441 13.1729C482.504 13.1729 480.934 14.7432 480.934 16.6803C480.934 18.6174 482.504 20.1877 484.441 20.1877Z"
    fill="white"
  ></path>
  <path
    d="M344.297 31.5711V59.5235V59.7739V432.714H533.952V59.7739V59.5235V31.5711H344.297Z"
    fill="white"
  ></path>
  <path d="M488.816 98.6898H395.93V110.235H488.816V98.6898Z" fill="#0085F2"></path>
  <path d="M488.816 112.579H395.93V168.146H488.816V112.579Z" fill="#FF5948"></path>
  <path
    d="M445.34 133.399C445.532 134.101 445.348 134.854 444.889 135.419C444.059 136.44 442.389 138.161 441.235 137.134C439.647 135.718 442.902 132.639 444.321 132.571C444.929 132.542 445.214 132.938 445.34 133.399Z"
    fill="white"
  ></path>
  <path
    d="M434.828 124.911C435.02 125.613 434.836 126.366 434.377 126.931C433.548 127.952 431.877 129.673 430.724 128.646C429.135 127.23 432.39 124.151 433.809 124.083C434.418 124.054 434.702 124.449 434.828 124.911Z"
    fill="white"
  ></path>
  <path
    d="M434.24 137.559C434.24 137.559 445.203 150.367 446.584 155.146L446.418 158.097L448.498 154.84C448.498 154.84 444.661 144.661 442.469 138.054C442.256 138.098 442.047 138.11 441.845 138.089C441.459 138.048 441.108 137.89 440.804 137.619C440.169 137.053 439.997 136.242 440.317 135.335C440.487 134.855 440.802 134.354 441.194 133.889C441.049 133.319 440.971 132.904 440.978 132.692C440.978 132.692 434.274 137.499 434.24 137.559Z"
    fill="white"
  ></path>
  <path
    d="M429.92 134.362C431.872 132.506 433.953 130.594 436.025 128.774L433.865 128.437C432.95 129.289 432.101 129.681 431.332 129.6C430.945 129.559 430.595 129.401 430.291 129.13C429.885 128.768 429.67 128.305 429.65 127.78L412.415 125.094L410.451 126.734C422.827 129.72 428.323 133.191 429.92 134.362Z"
    fill="white"
  ></path>
  <path
    d="M417.809 153.463L422.476 160.632L423.045 159.877L420.652 151.133C420.055 151.625 419.513 152.07 419.028 152.467C418.539 152.867 418.139 153.194 417.809 153.463Z"
    fill="white"
  ></path>
  <path
    d="M407.037 147.879L415.879 151.571C416.135 150.799 416.529 149.852 417.132 148.736L407.255 147.358L407.037 147.879Z"
    fill="white"
  ></path>
  <path
    d="M441.643 132.211C441.639 132.33 441.782 132.393 441.869 132.312C449.701 124.965 451.349 121.478 451.644 120.069C451.674 119.925 451.664 119.786 451.624 119.658C450.104 121.726 444.909 128.689 441.658 131.746L441.643 132.211Z"
    fill="white"
  ></path>
  <path
    d="M416.063 153.741C416.056 153.855 416.186 153.923 416.277 153.853C417.02 153.279 420.263 150.665 434.355 138.91C434.412 138.863 434.42 138.777 434.372 138.721C433.99 138.264 433.762 137.998 433.747 137.98L433.514 137.707C433.478 137.665 433.472 137.604 433.499 137.555L433.673 137.242C433.768 137.073 433.778 137.056 439.946 132.633L439.918 132.586C442.663 130.989 449.766 121.453 451.369 119.273C451.2 119.128 450.974 119.048 450.73 119.073C446.071 119.555 430.32 134.07 423.322 141.552C416.833 148.489 416.13 152.676 416.063 153.741Z"
    fill="white"
  ></path>
  <path
    d="M430.38 164.399L430.323 163.816C431.232 163.728 432.19 163.584 433.17 163.387C433.74 163.272 434.316 163.143 434.895 163.002L435.034 163.571C434.446 163.714 433.863 163.845 433.286 163.961C432.286 164.162 431.309 164.31 430.38 164.399ZM425.635 164.336C423.958 164.098 422.432 163.611 421.099 162.888L421.378 162.373C422.65 163.062 424.11 163.528 425.718 163.755L425.635 164.336ZM439.565 162.27L439.383 161.712C440.743 161.269 442.186 160.76 443.793 160.155L444 160.703C442.384 161.312 440.933 161.824 439.565 162.27ZM417.478 159.773C415.838 157.597 415.467 155.507 415.451 155.42L416.029 155.32C416.033 155.341 416.396 157.364 417.946 159.421L417.478 159.773ZM448.375 158.987L448.156 158.444C449.188 158.027 450.214 157.607 451.227 157.191L452.499 156.671L452.722 157.213L451.45 157.734C450.435 158.149 449.409 158.57 448.375 158.987ZM471.442 158.877L471.312 158.305C472.214 158.102 473.725 157.554 473.725 156.172C473.725 155.953 473.686 155.717 473.609 155.475L474.167 155.297C474.263 155.597 474.312 155.892 474.312 156.173C474.312 157.48 473.265 158.466 471.442 158.877ZM466.658 158.749C465.032 158.368 463.526 157.69 462.303 156.786L462.651 156.315C463.811 157.172 465.242 157.816 466.792 158.178L466.658 158.749ZM482.954 157.748C481.709 156.79 480.515 155.74 479.406 154.629L479.82 154.215C480.912 155.308 482.087 156.341 483.311 157.284L482.954 157.748ZM457.072 155.471L456.86 154.924C458.556 154.268 460.005 153.746 461.29 153.327L461.471 153.885C460.197 154.3 458.758 154.818 457.072 155.471ZM459.369 153.003C459.026 152.09 458.852 151.098 458.851 150.055C458.851 149.466 458.906 148.853 459.016 148.232L459.593 148.333C459.49 148.92 459.438 149.499 459.438 150.054C459.438 151.027 459.6 151.95 459.917 152.797L459.369 153.003ZM465.966 152.701L465.862 152.124C467.79 151.776 469.38 151.761 470.641 152.083L470.497 152.651C469.32 152.352 467.809 152.368 465.966 152.701ZM476.292 151.076C475.346 149.846 474.458 148.528 473.654 147.16L474.159 146.863C474.951 148.21 475.825 149.508 476.757 150.719L476.292 151.076ZM461.346 144.215L460.885 143.853C461.815 142.671 463.058 141.728 464.685 140.969L464.932 141.5C463.391 142.219 462.217 143.108 461.346 144.215ZM471.504 142.954C471.047 141.887 470.712 140.824 470.502 139.779C470.109 139.868 469.717 139.959 469.326 140.055L469.187 139.485C469.589 139.387 469.994 139.293 470.398 139.201C470.353 138.916 470.318 138.632 470.292 138.35L470.876 138.297C470.899 138.554 470.931 138.813 470.971 139.073C471.11 139.042 471.249 139.011 471.387 138.98C472.191 138.802 472.988 138.625 473.761 138.431L473.903 139C473.125 139.195 472.323 139.373 471.515 139.552C471.368 139.585 471.221 139.618 471.074 139.65C471.276 140.66 471.6 141.689 472.044 142.723L471.504 142.954ZM478.374 137.38L478.086 136.869C479.54 136.053 480.498 134.995 481.017 133.634L481.565 133.843C480.995 135.337 479.951 136.494 478.374 137.38ZM471.374 133.791L470.819 133.604C471.333 132.07 472.2 130.662 473.324 129.533L473.739 129.946C472.679 131.012 471.861 132.342 471.374 133.791ZM481.191 129.268C480.751 128.202 479.815 127.616 478.555 127.616C478.249 127.616 477.928 127.65 477.6 127.718L477.481 127.144C477.848 127.068 478.209 127.029 478.555 127.029C480.068 127.029 481.196 127.745 481.732 129.045L481.191 129.268Z"
    fill="white"
  ></path>
  <path
    d="M426.685 107.461L426.456 106.048H424.314L423.497 107.461H422.799L425.808 102.408H426.429L427.31 107.461H426.685ZM426.037 103.363C426.035 103.339 426.033 103.312 426.032 103.282C426.031 103.251 426.03 103.221 426.03 103.19C426.03 103.157 426.03 103.127 426.03 103.098C426.03 103.068 426.03 103.042 426.03 103.021H426.016C426.009 103.042 426 103.067 425.988 103.097C425.976 103.126 425.963 103.157 425.949 103.188C425.935 103.22 425.92 103.251 425.905 103.282C425.89 103.312 425.876 103.339 425.865 103.363L424.617 105.512H426.361L426.037 103.363Z"
    fill="white"
  ></path>
  <path d="M428.951 107.461H428.346L429.413 102.408H430.026L428.951 107.461Z" fill="white"></path>
  <path
    d="M434.485 103.659C434.485 103.877 434.448 104.075 434.371 104.251C434.295 104.427 434.189 104.579 434.055 104.706C433.922 104.832 433.762 104.934 433.576 105.01C433.391 105.086 433.189 105.134 432.97 105.153V105.167C433.081 105.202 433.178 105.276 433.261 105.389C433.345 105.502 433.412 105.653 433.464 105.844L433.886 107.461H433.238L432.865 105.953C432.81 105.732 432.724 105.57 432.605 105.467C432.487 105.363 432.33 105.312 432.135 105.312H431.694L431.233 107.461H430.627L431.694 102.408H433.087C433.333 102.408 433.544 102.441 433.721 102.507C433.897 102.572 434.041 102.662 434.154 102.776C434.267 102.89 434.35 103.023 434.404 103.174C434.459 103.326 434.485 103.487 434.485 103.659ZM433.865 103.722C433.865 103.61 433.848 103.506 433.813 103.41C433.777 103.315 433.723 103.233 433.65 103.163C433.578 103.094 433.485 103.04 433.372 103.001C433.259 102.962 433.125 102.943 432.97 102.943H432.192L431.804 104.776H432.502C432.749 104.776 432.958 104.746 433.131 104.687C433.304 104.629 433.444 104.551 433.554 104.455C433.663 104.359 433.743 104.247 433.792 104.118C433.841 103.991 433.865 103.858 433.865 103.722Z"
    fill="white"
  ></path>
  <path
    d="M441.467 102.942H440.03L439.078 107.459H438.472L439.431 102.942H437.961L438.074 102.406H441.584L441.467 102.942Z"
    fill="white"
  ></path>
  <path d="M442.295 107.461H441.689L442.757 102.408H443.37L442.295 107.461Z" fill="white"></path>
  <path
    d="M448.38 103.246C448.312 103.201 448.233 103.155 448.145 103.108C448.058 103.061 447.96 103.019 447.855 102.981C447.749 102.944 447.633 102.913 447.508 102.89C447.382 102.866 447.248 102.855 447.104 102.855C446.752 102.855 446.434 102.917 446.151 103.041C445.868 103.166 445.628 103.337 445.43 103.556C445.233 103.774 445.081 104.031 444.974 104.326C444.867 104.621 444.814 104.94 444.814 105.283C444.814 105.562 444.853 105.809 444.93 106.024C445.007 106.239 445.118 106.42 445.262 106.567C445.405 106.714 445.576 106.825 445.775 106.9C445.975 106.975 446.196 107.013 446.438 107.013C446.593 107.013 446.734 107.004 446.861 106.986C446.988 106.969 447.105 106.944 447.213 106.912C447.322 106.881 447.423 106.843 447.519 106.799C447.614 106.756 447.706 106.71 447.795 106.66L447.658 107.281C447.467 107.367 447.263 107.434 447.046 107.48C446.829 107.526 446.585 107.548 446.315 107.548C445.995 107.548 445.705 107.495 445.443 107.39C445.181 107.284 444.957 107.134 444.773 106.94C444.589 106.747 444.446 106.513 444.345 106.241C444.244 105.968 444.193 105.665 444.193 105.332C444.193 104.89 444.263 104.485 444.403 104.116C444.543 103.747 444.742 103.43 444.999 103.165C445.256 102.899 445.565 102.693 445.926 102.544C446.286 102.396 446.686 102.323 447.126 102.323C447.427 102.323 447.692 102.355 447.924 102.419C448.155 102.484 448.35 102.558 448.511 102.64L448.38 103.246Z"
    fill="white"
  ></path>
  <path
    d="M450.703 104.913L452.458 107.461H451.722L450.193 105.16C450.178 105.134 450.16 105.102 450.139 105.065C450.119 105.027 450.102 104.995 450.09 104.97H450.077L449.551 107.461H448.945L450.013 102.408H450.626L450.122 104.783H450.136C450.162 104.755 450.19 104.726 450.219 104.695C450.248 104.664 450.275 104.636 450.302 104.61L452.624 102.408H453.427L450.703 104.913Z"
    fill="white"
  ></path>
  <path
    d="M457.148 102.942H455.199L454.833 104.664H456.637L456.521 105.2H454.716L454.346 106.924H456.419L456.313 107.459H453.635L454.702 102.406H457.264L457.148 102.942Z"
    fill="white"
  ></path>
  <path
    d="M461.515 102.942H460.077L459.125 107.459H458.519L459.478 102.942H458.008L458.12 102.406H461.631L461.515 102.942Z"
    fill="white"
  ></path>
  <path
    d="M491.154 207.222H468.719C467.237 207.222 466.035 206.021 466.035 204.539C466.035 203.057 467.237 201.856 468.719 201.856H491.154C492.636 201.856 493.838 203.057 493.838 204.539C493.838 206.021 492.636 207.222 491.154 207.222Z"
    fill="#1B3756"
  ></path>
  <path
    d="M459.997 207.222H423.603C422.121 207.222 420.92 206.021 420.92 204.539C420.92 203.057 422.122 201.856 423.603 201.856H459.997C461.479 201.856 462.681 203.057 462.681 204.539C462.681 206.021 461.479 207.222 459.997 207.222Z"
    fill="#1B3756"
  ></path>
  <path
    d="M412.031 207.222H387.092C385.61 207.222 384.408 206.021 384.408 204.539C384.408 203.057 385.61 201.856 387.092 201.856H412.031C413.513 201.856 414.714 203.057 414.714 204.539C414.714 206.021 413.513 207.222 412.031 207.222Z"
    fill="#1B3756"
  ></path>
  <path
    d="M491.154 219.719H456.978C455.496 219.719 454.295 218.518 454.295 217.036C454.295 215.554 455.496 214.352 456.978 214.352H491.154C492.636 214.352 493.838 215.554 493.838 217.036C493.838 218.518 492.636 219.719 491.154 219.719Z"
    fill="#1B3756"
  ></path>
  <path
    d="M446.748 219.719H406.496C405.014 219.719 403.812 218.518 403.812 217.036C403.812 215.554 405.014 214.352 406.496 214.352H446.748C448.23 214.352 449.431 215.554 449.431 217.036C449.431 218.518 448.229 219.719 446.748 219.719Z"
    fill="#1B3756"
  ></path>
  <path
    d="M398.11 219.719H387.092C385.61 219.719 384.408 218.518 384.408 217.036C384.408 215.554 385.61 214.352 387.092 214.352H398.11C399.592 214.352 400.794 215.554 400.794 217.036C400.794 218.518 399.592 219.719 398.11 219.719Z"
    fill="#1B3756"
  ></path>
  <path
    d="M491.156 232.218H477.441C475.959 232.218 474.758 231.016 474.758 229.534C474.758 228.052 475.959 226.851 477.441 226.851H491.156C492.638 226.851 493.839 228.053 493.839 229.534C493.839 231.016 492.638 232.218 491.156 232.218Z"
    fill="#1B3756"
  ></path>
  <path
    d="M464.86 232.218H426.957C425.475 232.218 424.273 231.016 424.273 229.534C424.273 228.052 425.475 226.851 426.957 226.851H464.86C466.342 226.851 467.544 228.053 467.544 229.534C467.544 231.016 466.342 232.218 464.86 232.218Z"
    fill="#1B3756"
  ></path>
  <path
    d="M417.062 232.218H387.092C385.61 232.218 384.408 231.016 384.408 229.534C384.408 228.052 385.61 226.851 387.092 226.851H417.062C418.544 226.851 419.746 228.052 419.746 229.534C419.746 231.016 418.544 232.218 417.062 232.218Z"
    fill="#1B3756"
  ></path>
  <path
    d="M491.155 244.716H457.314C455.832 244.716 454.631 243.515 454.631 242.033C454.631 240.551 455.832 239.349 457.314 239.349H491.155C492.637 239.349 493.838 240.551 493.838 242.033C493.838 243.515 492.637 244.716 491.155 244.716Z"
    fill="#1B3756"
  ></path>
  <path
    d="M446.914 244.716H414.881C413.399 244.716 412.197 243.515 412.197 242.033C412.197 240.551 413.399 239.349 414.881 239.349H446.914C448.396 239.349 449.598 240.551 449.598 242.033C449.598 243.515 448.396 244.716 446.914 244.716Z"
    fill="#1B3756"
  ></path>
  <path
    d="M405.322 244.716H387.092C385.61 244.716 384.408 243.515 384.408 242.033C384.408 240.551 385.61 239.35 387.092 239.35H405.322C406.804 239.35 408.005 240.551 408.005 242.033C408.005 243.515 406.804 244.716 405.322 244.716Z"
    fill="#1B3756"
  ></path>
  <path
    d="M491.153 257.213H479.619C478.137 257.213 476.936 256.012 476.936 254.53C476.936 253.048 478.137 251.846 479.619 251.846H491.153C492.635 251.846 493.837 253.048 493.837 254.53C493.837 256.012 492.635 257.213 491.153 257.213Z"
    fill="#1B3756"
  ></path>
  <path
    d="M468.384 257.213H420.25C418.768 257.213 417.566 256.012 417.566 254.53C417.566 253.048 418.768 251.846 420.25 251.846H468.384C469.866 251.846 471.067 253.048 471.067 254.53C471.067 256.012 469.866 257.213 468.384 257.213Z"
    fill="#1B3756"
  ></path>
  <path
    d="M404.987 257.213H387.092C385.61 257.213 384.408 256.012 384.408 254.53C384.408 253.048 385.61 251.846 387.092 251.846H404.987C406.469 251.846 407.67 253.048 407.67 254.53C407.67 256.012 406.469 257.213 404.987 257.213Z"
    fill="#1B3756"
  ></path>
  <path
    d="M491.156 269.712H467.043C465.561 269.712 464.359 268.51 464.359 267.028C464.359 265.547 465.561 264.345 467.043 264.345H491.156C492.638 264.345 493.839 265.547 493.839 267.028C493.839 268.51 492.638 269.712 491.156 269.712Z"
    fill="#1B3756"
  ></path>
  <path
    d="M456.14 269.712H387.092C385.61 269.712 384.408 268.51 384.408 267.028C384.408 265.547 385.61 264.345 387.092 264.345H456.14C457.622 264.345 458.823 265.547 458.823 267.028C458.823 268.51 457.622 269.712 456.14 269.712Z"
    fill="#1B3756"
  ></path>
  <path
    d="M491.155 282.209H417.398C415.916 282.209 414.715 281.007 414.715 279.525C414.715 278.044 415.916 276.842 417.398 276.842H491.155C492.637 276.842 493.838 278.044 493.838 279.525C493.838 281.007 492.637 282.209 491.155 282.209Z"
    fill="#1B3756"
  ></path>
  <path
    d="M403.813 282.209H387.092C385.61 282.209 384.408 281.007 384.408 279.525C384.408 278.044 385.61 276.842 387.092 276.842H403.813C405.295 276.842 406.496 278.044 406.496 279.525C406.496 281.007 405.295 282.209 403.813 282.209Z"
    fill="#1B3756"
  ></path>
  <path
    d="M491.154 294.707H455.805C454.323 294.707 453.121 293.506 453.121 292.024C453.121 290.542 454.323 289.34 455.805 289.34H491.154C492.636 289.34 493.838 290.542 493.838 292.024C493.838 293.506 492.636 294.707 491.154 294.707Z"
    fill="#1B3756"
  ></path>
  <path
    d="M435.846 294.707H387.092C385.61 294.707 384.408 293.505 384.408 292.024C384.408 290.542 385.61 289.34 387.092 289.34H435.846C437.328 289.34 438.53 290.542 438.53 292.024C438.53 293.505 437.328 294.707 435.846 294.707Z"
    fill="#1B3756"
  ></path>
  <path
    d="M491.154 307.203H472.576C471.094 307.203 469.893 306.002 469.893 304.52C469.893 303.038 471.094 301.837 472.576 301.837H491.154C492.636 301.837 493.838 303.038 493.838 304.52C493.838 306.002 492.636 307.203 491.154 307.203Z"
    fill="#1B3756"
  ></path>
  <path
    d="M463.688 307.203H413.541C412.059 307.203 410.857 306.002 410.857 304.52C410.857 303.038 412.059 301.837 413.541 301.837H463.688C465.17 301.837 466.371 303.038 466.371 304.52C466.371 306.002 465.17 307.203 463.688 307.203Z"
    fill="#1B3756"
  ></path>
  <path
    d="M399.787 307.203H387.092C385.61 307.203 384.408 306.002 384.408 304.52C384.408 303.038 385.61 301.837 387.092 301.837H399.787C401.269 301.837 402.471 303.038 402.471 304.52C402.471 306.002 401.269 307.203 399.787 307.203Z"
    fill="#1B3756"
  ></path>
  <path
    d="M491.155 319.703H464.861C463.379 319.703 462.178 318.501 462.178 317.019C462.178 315.538 463.379 314.336 464.861 314.336H491.155C492.636 314.336 493.838 315.538 493.838 317.019C493.838 318.501 492.636 319.703 491.155 319.703Z"
    fill="#1B3756"
  ></path>
  <path
    d="M451.947 319.703H428.467C426.985 319.703 425.783 318.501 425.783 317.019C425.783 315.538 426.985 314.336 428.467 314.336H451.947C453.429 314.336 454.63 315.538 454.63 317.019C454.63 318.501 453.429 319.703 451.947 319.703Z"
    fill="#1B3756"
  ></path>
  <path
    d="M416.056 319.703H387.092C385.61 319.703 384.408 318.501 384.408 317.019C384.408 315.538 385.61 314.336 387.092 314.336H416.056C417.538 314.336 418.739 315.538 418.739 317.019C418.739 318.501 417.538 319.703 416.056 319.703Z"
    fill="#1B3756"
  ></path>
  <path
    d="M470.421 365.844H407.824C401.865 365.844 397.035 361.014 397.035 355.055V354.837C397.035 348.879 401.865 344.049 407.824 344.049H470.421C476.38 344.049 481.21 348.879 481.21 354.837V355.055C481.21 361.014 476.38 365.844 470.421 365.844Z"
    fill="#ED5561"
  ></path>
  <path
    d="M412.113 352.574C411.978 352.483 411.822 352.395 411.645 352.311C411.467 352.226 411.273 352.153 411.063 352.09C410.852 352.027 410.629 351.976 410.392 351.937C410.156 351.898 409.912 351.878 409.661 351.878C409.119 351.878 408.63 351.966 408.194 352.142C407.758 352.317 407.387 352.565 407.082 352.883C406.776 353.202 406.542 353.586 406.379 354.035C406.217 354.483 406.136 354.981 406.136 355.527C406.136 355.922 406.19 356.275 406.298 356.587C406.406 356.899 406.561 357.162 406.763 357.375C406.965 357.587 407.209 357.75 407.495 357.862C407.781 357.975 408.1 358.031 408.451 358.031C408.685 358.031 408.879 358.017 409.033 357.989C409.187 357.961 409.327 357.927 409.453 357.888L409.85 355.996H407.957L408.315 354.318H412.302L411.3 359.046C411.114 359.137 410.91 359.225 410.688 359.309C410.467 359.394 410.227 359.471 409.967 359.54C409.706 359.61 409.427 359.665 409.127 359.706C408.828 359.747 408.505 359.768 408.158 359.768C407.49 359.768 406.893 359.668 406.367 359.469C405.84 359.27 405.396 358.988 405.036 358.624C404.677 358.259 404.401 357.823 404.21 357.313C404.019 356.803 403.924 356.241 403.924 355.625C403.924 355.14 403.978 354.666 404.087 354.204C404.195 353.742 404.356 353.308 404.571 352.9C404.786 352.492 405.055 352.118 405.378 351.778C405.7 351.438 406.078 351.145 406.509 350.9C406.941 350.655 407.427 350.464 407.97 350.328C408.512 350.191 409.108 350.123 409.758 350.123C410.053 350.123 410.334 350.139 410.601 350.171C410.867 350.204 411.118 350.246 411.352 350.298C411.586 350.35 411.801 350.408 411.999 350.471C412.196 350.534 412.373 350.595 412.529 350.656L412.113 352.574Z"
    fill="white"
  ></path>
  <path
    d="M420.623 351.99H417.364L416.922 354.091H419.96L419.589 355.808H416.564L416.109 357.902H419.589L419.225 359.606H413.631L415.615 350.28H420.987L420.623 351.99Z"
    fill="white"
  ></path>
  <path
    d="M429.522 351.99H426.894L425.281 359.606H423.167L424.773 351.99H422.113L422.484 350.28H429.892L429.522 351.99Z"
    fill="white"
  ></path>
  <path
    d="M442.718 359.607H440.799L437.879 353.681C437.853 353.629 437.825 353.568 437.794 353.499C437.764 353.43 437.734 353.359 437.703 353.288C437.673 353.216 437.645 353.148 437.619 353.083C437.593 353.018 437.573 352.959 437.56 352.907H437.521C437.499 353.068 437.475 353.248 437.449 353.447C437.423 353.647 437.387 353.844 437.339 354.039L436.149 359.606H434.178L436.149 350.28H438.23L441.027 355.984C441.048 356.031 441.076 356.089 441.108 356.156C441.141 356.223 441.173 356.293 441.205 356.364C441.238 356.436 441.268 356.506 441.297 356.576C441.325 356.645 441.345 356.706 441.358 356.758H441.384C441.389 356.693 441.395 356.62 441.404 356.54C441.412 356.46 441.423 356.379 441.436 356.296C441.449 356.214 441.464 356.133 441.479 356.055C441.494 355.977 441.508 355.908 441.521 355.847L442.704 350.28H444.688L442.718 359.607Z"
    fill="white"
  ></path>
  <path
    d="M454.995 354.129C454.995 354.502 454.962 354.877 454.897 355.254C454.832 355.632 454.736 355.997 454.607 356.35C454.48 356.704 454.319 357.043 454.126 357.368C453.933 357.693 453.709 357.99 453.453 358.259C453.236 358.489 453 358.697 452.744 358.884C452.488 359.07 452.21 359.229 451.908 359.359C451.607 359.489 451.281 359.59 450.93 359.661C450.578 359.733 450.199 359.768 449.792 359.768C449.175 359.768 448.626 359.666 448.143 359.463C447.659 359.259 447.251 358.978 446.917 358.62C446.583 358.263 446.328 357.839 446.153 357.349C445.977 356.859 445.889 356.328 445.889 355.755C445.889 355.352 445.923 354.954 445.993 354.562C446.062 354.169 446.167 353.792 446.309 353.43C446.449 353.068 446.625 352.723 446.835 352.396C447.045 352.068 447.29 351.768 447.567 351.495C447.784 351.287 448.018 351.099 448.269 350.932C448.521 350.766 448.792 350.621 449.082 350.5C449.373 350.378 449.685 350.285 450.019 350.22C450.353 350.155 450.71 350.122 451.092 350.122C451.669 350.122 452.196 350.213 452.676 350.396C453.155 350.577 453.565 350.841 453.908 351.186C454.25 351.531 454.517 351.951 454.709 352.448C454.899 352.945 454.995 353.505 454.995 354.129ZM452.77 354.201C452.77 353.849 452.726 353.535 452.637 353.258C452.548 352.98 452.422 352.745 452.257 352.552C452.092 352.359 451.891 352.212 451.655 352.11C451.419 352.008 451.151 351.957 450.852 351.957C450.505 351.957 450.175 352.037 449.863 352.198C449.551 352.358 449.274 352.581 449.031 352.867C448.883 353.041 448.753 353.24 448.64 353.466C448.528 353.691 448.433 353.93 448.354 354.181C448.277 354.433 448.217 354.69 448.176 354.952C448.134 355.214 448.114 355.473 448.114 355.729C448.114 356.08 448.158 356.395 448.247 356.672C448.336 356.95 448.463 357.183 448.627 357.371C448.792 357.56 448.99 357.705 449.223 357.804C449.455 357.904 449.714 357.954 450 357.954C450.356 357.954 450.695 357.876 451.018 357.72C451.341 357.564 451.624 357.332 451.867 357.024C452.018 356.842 452.151 356.637 452.263 356.409C452.376 356.181 452.469 355.944 452.543 355.697C452.617 355.45 452.673 355.198 452.712 354.942C452.751 354.686 452.77 354.439 452.77 354.201Z"
    fill="white"
  ></path>
  <path
    d="M465.69 359.606H463.452L463.056 353.558C463.052 353.492 463.053 353.414 463.059 353.323C463.065 353.232 463.074 353.139 463.085 353.044C463.096 352.948 463.108 352.856 463.121 352.767C463.134 352.679 463.147 352.601 463.16 352.536H463.134C463.112 352.606 463.085 352.686 463.053 352.777C463.02 352.868 462.987 352.961 462.952 353.057C462.917 353.152 462.882 353.243 462.848 353.33C462.813 353.417 462.781 353.492 462.75 353.558L459.791 359.606H457.391L456.916 350.28H459.127L459.192 356.465C459.197 356.538 459.196 356.623 459.189 356.719C459.182 356.814 459.173 356.91 459.159 357.005C459.147 357.1 459.133 357.19 459.121 357.275C459.108 357.359 459.097 357.43 459.088 357.486H459.127C459.144 357.421 459.168 357.344 459.199 357.255C459.229 357.166 459.263 357.073 459.3 356.976C459.336 356.878 459.375 356.782 459.417 356.689C459.458 356.596 459.494 356.517 459.524 356.452L462.523 350.28H464.747L465.052 356.53C465.057 356.591 465.058 356.661 465.056 356.741C465.053 356.822 465.05 356.905 465.046 356.992C465.041 357.079 465.035 357.164 465.026 357.249C465.018 357.333 465.009 357.408 465.001 357.473H465.026C465.044 357.413 465.066 357.339 465.095 357.252C465.123 357.166 465.153 357.077 465.186 356.986C465.218 356.894 465.251 356.805 465.283 356.719C465.316 356.632 465.345 356.556 465.371 356.491L467.953 350.28H470.152L465.69 359.606Z"
    fill="white"
  ></path>
  <path
    d="M472.722 358.631C472.722 358.8 472.69 358.953 472.624 359.089C472.56 359.226 472.472 359.344 472.361 359.444C472.251 359.544 472.12 359.62 471.968 359.675C471.816 359.729 471.653 359.756 471.48 359.756C471.315 359.756 471.162 359.73 471.022 359.678C470.881 359.626 470.758 359.554 470.654 359.463C470.55 359.372 470.468 359.265 470.41 359.141C470.352 359.018 470.322 358.884 470.322 358.741C470.322 358.572 470.355 358.417 470.42 358.277C470.485 358.136 470.574 358.016 470.686 357.919C470.8 357.821 470.932 357.745 471.083 357.691C471.235 357.637 471.4 357.61 471.578 357.61C471.743 357.61 471.894 357.636 472.033 357.688C472.172 357.74 472.292 357.812 472.394 357.903C472.496 357.994 472.576 358.101 472.634 358.225C472.693 358.348 472.722 358.483 472.722 358.631ZM472.709 356.705H471.044L472.163 350.28H474.323L472.709 356.705Z"
    fill="white"
  ></path>
</svg>