<svg width="39" height="39" viewBox="0 0 39 39" fill="none" xmlns="http://www.w3.org/2000/svg">
<path d="M31.2045 36.8857H6.18484C2.90842 36.8857 0.251953 34.2292 0.251953 30.9528V5.93307C0.251953 2.65665 2.90842 0.000183105 6.18484 0.000183105H31.2045C34.481 0.000183105 37.1374 2.65665 37.1374 5.93307V30.9528C37.1374 34.2292 34.481 36.8857 31.2045 36.8857Z" fill="#0085F2"/>
<path d="M31.4618 9.93088H18.6937C18.3022 9.93088 17.9844 9.61381 17.9844 9.22154C17.9844 8.82928 18.3022 8.51221 18.6937 8.51221H31.4618C31.8533 8.51221 32.1711 8.82928 32.1711 9.22154C32.1711 9.61381 31.8533 9.93088 31.4618 9.93088Z" fill="white"/>
<path d="M31.4618 19.8616H18.6937C18.3022 19.8616 17.9844 19.5445 17.9844 19.1523C17.9844 18.76 18.3022 18.4429 18.6937 18.4429H31.4618C31.8533 18.4429 32.1711 18.76 32.1711 19.1523C32.1711 19.5445 31.8533 19.8616 31.4618 19.8616Z" fill="white"/>
<path d="M31.4618 29.7923H18.6937C18.3022 29.7923 17.9844 29.4752 17.9844 29.083C17.9844 28.6907 18.3022 28.3736 18.6937 28.3736H31.4618C31.8533 28.3736 32.1711 28.6907 32.1711 29.083C32.1711 29.4752 31.8533 29.7923 31.4618 29.7923Z" fill="white"/>
<path d="M8.81496 12.0589C8.66671 12.0589 8.51704 12.0128 8.38935 11.917L5.14698 9.48471C4.83345 9.24992 4.77032 8.80517 5.00511 8.49235C5.2399 8.17953 5.68466 8.11569 5.99818 8.35048L8.70927 10.3834L13.1412 5.2138C13.3958 4.91588 13.8441 4.88183 14.1414 5.13719C14.4386 5.39184 14.4733 5.83943 14.218 6.13665L9.35405 11.8113C9.2136 11.9745 9.01499 12.0589 8.81496 12.0589Z" fill="white"/>
<path d="M8.81496 21.9896C8.66671 21.9896 8.51704 21.9435 8.38935 21.8477L5.14698 19.4154C4.83345 19.1806 4.77032 18.7359 5.00511 18.4231C5.2399 18.1102 5.68466 18.0464 5.99818 18.2812L8.70927 20.3141L13.1412 15.1445C13.3958 14.8466 13.8441 14.8125 14.1414 15.0679C14.4386 15.3226 14.4733 15.7701 14.218 16.0674L9.35405 21.742C9.2136 21.9052 9.01499 21.9896 8.81496 21.9896Z" fill="white"/>
<path d="M8.81496 32.6289C8.66671 32.6289 8.51704 32.5828 8.38935 32.4871L5.14698 30.0547C4.83345 29.82 4.77032 29.3752 5.00511 29.0624C5.2399 28.7496 5.68466 28.6857 5.99818 28.9205L8.70927 30.9535L13.1412 25.7845C13.3958 25.4859 13.8441 25.4519 14.1414 25.7079C14.4386 25.9626 14.4733 26.4102 14.218 26.7074L9.35405 32.3814C9.2136 32.5445 9.01499 32.6289 8.81496 32.6289Z" fill="white"/>
</svg>
