<svg width="39" height="39" viewBox="0 0 39 39" fill="none" xmlns="http://www.w3.org/2000/svg">
<g clip-path="url(#clip0_495_4252)">
<path d="M37.8574 18.3576H19.5C18.8685 18.3576 18.3574 18.8686 18.3574 19.5002C18.3574 20.1317 18.8685 20.6428 19.5 20.6428H27.498V23.0434C23.6318 23.6036 20.6426 26.9068 20.6426 30.926C20.6426 35.3363 24.2303 39.0002 28.6406 39.0002C33.051 39.0002 36.6387 35.3363 36.6387 30.926C36.6387 29.7376 36.3645 28.595 35.8845 27.5667L29.4404 34.0108C29.0062 34.4679 28.2751 34.4679 27.8408 34.0108L25.5557 31.7257C25.0986 31.2915 25.0986 30.5603 25.5557 30.1261C25.9898 29.6691 26.7209 29.6691 27.1552 30.1261L28.6406 31.5886L34.6049 25.6473C33.4026 24.2541 31.6939 23.3331 29.7832 23.0534V20.6428H37.8574C38.489 20.6428 39 20.1317 39 19.5002C39 18.8686 38.489 18.3576 37.8574 18.3576Z" fill="#0085F2"/>
<path d="M38.3685 3.62457L29.1517 0.120668C28.8303 -0.0399785 28.451 -0.0399785 28.1296 0.120668L18.989 3.62457C18.6018 3.81874 18.3574 4.21369 18.3574 4.64665V5.78923C18.3574 6.42077 18.8685 6.9318 19.5 6.9318H37.8574C38.489 6.9318 39 6.42077 39 5.78923V4.64665C39 4.21369 38.7556 3.81874 38.3685 3.62457Z" fill="#0085F2"/>
<path d="M8.07422 20.6428C12.0927 20.6428 15.3964 17.653 15.9568 13.7873H20.6426V16.0724H27.498V9.21698H20.6426V11.5021H15.9568C15.3964 7.63641 12.0927 4.64667 8.07422 4.64667C3.66455 4.64667 0 8.23505 0 12.6447C0 17.0544 3.66455 20.6428 8.07422 20.6428ZM4.03505 11.8369L7.26642 8.60555C7.71271 8.15926 8.43581 8.15926 8.8821 8.60555L12.1135 11.8369C12.5598 12.2832 12.5598 13.0063 12.1135 13.4526L8.8821 16.684C8.43581 17.1302 7.71271 17.1302 7.26642 16.684L4.03505 13.4526C3.58869 13.0062 3.58869 12.2832 4.03505 11.8369Z" fill="#0085F2"/>
<path d="M6.45703 12.6443L8.07248 11.0288L9.68792 12.6443L8.07247 14.2597L6.45703 12.6443Z" fill="#0085F2"/>
<path d="M29.7832 9.21698H36.6387V16.0724H29.7832V9.21698Z" fill="#0085F2"/>
</g>
<defs>
<clipPath id="clip0_495_4252">
<rect width="39" height="39" fill="white"/>
</clipPath>
</defs>
</svg>
