<svg width="49" height="45" viewBox="0 0 49 45" fill="none" xmlns="http://www.w3.org/2000/svg">
<g filter="url(#filter0_d_495_4226)">
<path d="M39.1818 16.1683C39.2163 16.0131 39.2339 15.8545 39.2344 15.6955C39.2357 15.246 39.1015 14.8065 38.8493 14.4343C38.5971 14.0622 38.2385 13.7748 37.8205 13.6095C37.4024 13.4443 36.9442 13.4089 36.5057 13.508C36.0672 13.6071 35.6688 13.8361 35.3624 14.1651C34.5244 13.8282 33.6691 13.5363 32.7999 13.2906C32.7173 13.7043 32.6036 14.1112 32.4598 14.5078C33.2497 14.7279 34.0279 14.9877 34.7916 15.2862C34.703 15.7584 34.7688 16.2466 34.9793 16.6785C35.1897 17.1105 35.5337 17.4632 35.9602 17.6844C36.3867 17.9057 36.8731 17.9837 37.3474 17.9071C37.8217 17.8304 38.2587 17.603 38.5938 17.2586C41.3862 19.1645 43.0781 21.6399 43.0781 24.344C43.0781 30.3492 34.7442 35.2346 24.5 35.2346C20.0234 35.3169 15.5983 34.2694 11.6337 32.1891C11.6689 32.0322 11.6869 31.8719 11.6875 31.7111C11.6875 31.1165 11.4513 30.5462 11.0308 30.1257C10.6103 29.7052 10.04 29.469 9.44531 29.469C9.07289 29.4717 8.70715 29.5682 8.38188 29.7496C7.63641 29.0546 7.03539 28.2195 6.61326 27.2919C6.19113 26.3643 5.95618 25.3625 5.92188 24.344C5.92188 20.0076 10.2685 16.2567 16.5402 14.5059C16.3964 14.1093 16.2827 13.7024 16.2001 13.2887C9.38125 15.2208 4.64062 19.4477 4.64062 24.344C4.67779 25.5277 4.94927 26.6923 5.43937 27.7705C5.92946 28.8487 6.62844 29.819 7.49589 30.6253C7.30652 30.956 7.20568 31.33 7.20312 31.7111C7.20384 32.1555 7.33656 32.5896 7.58442 32.9583C7.83229 33.3271 8.18413 33.6139 8.59529 33.7824C9.00645 33.9508 9.45839 33.9933 9.89374 33.9044C10.3291 33.8156 10.7282 33.5993 11.0405 33.2832C15.181 35.4827 19.8122 36.595 24.5 36.5158C35.4502 36.5158 44.3594 31.0558 44.3594 24.344C44.3594 21.1972 42.3927 18.3304 39.1818 16.1683Z" fill="#2196F3"/>
<path d="M21.1995 22.579L20.4762 21.3734C17.0534 21.7815 14.25 22.7462 14.25 24.344C14.25 25.6681 16.1783 26.5554 18.7856 27.0544C18.8828 27.5162 19.1235 27.9353 19.4733 28.252C19.8231 28.5686 20.264 28.7666 20.7331 28.8176C21.2022 28.8685 21.6753 28.7699 22.085 28.5357C22.4946 28.3015 22.8197 27.9438 23.0138 27.5138C23.5083 27.5343 24.0054 27.5471 24.5 27.5471C29.4367 27.5471 34.75 26.5452 34.75 24.344C34.75 22.7462 31.9466 21.7815 28.5238 21.3734L27.8005 22.579C31.5469 22.9493 33.4688 23.8885 33.4688 24.344C33.4688 24.9205 30.4175 26.2658 24.5 26.2658C24.042 26.2658 23.6076 26.2556 23.1835 26.2402C23.1095 25.7531 22.8765 25.3042 22.5208 24.9633C22.1651 24.6224 21.7067 24.4087 21.2169 24.3555C20.7271 24.3023 20.2334 24.4125 19.8128 24.6691C19.3922 24.9256 19.0682 25.314 18.8913 25.7738C16.6696 25.3299 15.5312 24.6944 15.5312 24.344C15.5312 23.8885 17.4563 22.9493 21.1995 22.579Z" fill="#2196F3"/>
<path d="M12.9688 18.8987C12.972 18.9985 12.982 19.0981 12.9989 19.1965C10.5811 20.5495 9.125 22.3452 9.125 24.344C9.125 28.6547 15.8785 32.0315 24.5 32.0315C26.3235 32.0364 28.1437 31.8763 29.9383 31.5529C30.1841 31.9801 30.5643 32.314 31.0196 32.5026C31.475 32.6912 31.9799 32.7241 32.4558 32.5959C32.9317 32.4678 33.3519 32.1859 33.651 31.7941C33.9501 31.4024 34.1112 30.9228 34.1094 30.4299C34.1094 30.4152 34.1055 30.4011 34.1049 30.3863C37.6405 28.9898 39.875 26.8219 39.875 24.344C39.875 21.1908 36.2587 18.5386 30.9428 17.3413L30.2381 18.5156C35.112 19.5393 38.5938 21.7943 38.5938 24.344C38.5938 26.2344 36.6783 27.9641 33.7026 29.1487C33.4379 28.7669 33.0608 28.4773 32.6238 28.32C32.1867 28.1627 31.7115 28.1457 31.2643 28.2712C30.8171 28.3968 30.4202 28.6587 30.1289 29.0205C29.8376 29.3823 29.6664 29.8259 29.6391 30.2896C27.9435 30.5984 26.2234 30.7525 24.5 30.7502C16.8605 30.7502 10.4062 27.8168 10.4062 24.344C10.4062 22.8596 11.5914 21.4765 13.5383 20.3772C13.8378 20.72 14.235 20.9631 14.6766 21.0739C15.1182 21.1846 15.5831 21.1578 16.009 20.9969C16.4349 20.8361 16.8014 20.5489 17.0595 20.1739C17.3177 19.7989 17.455 19.3539 17.4531 18.8987C17.4531 18.8769 17.4474 18.8564 17.4467 18.8346C17.8734 18.7193 18.309 18.6104 18.7619 18.5143L18.0572 17.34C17.7068 17.4188 17.3647 17.5053 17.0322 17.5963C16.7575 17.2078 16.3661 16.9171 15.9149 16.7663C15.4636 16.6155 14.9761 16.6125 14.523 16.7577C14.0699 16.9029 13.675 17.1888 13.3955 17.5738C13.116 17.9588 12.9665 18.4229 12.9688 18.8987Z" fill="#2196F3"/>
<path d="M24.5 14.2266C25.9152 14.2266 27.0625 13.0793 27.0625 11.6641C27.0625 10.2488 25.9152 9.10157 24.5 9.10157C23.0848 9.10157 21.9375 10.2488 21.9375 11.6641C21.9375 13.0793 23.0848 14.2266 24.5 14.2266Z" fill="#2196F3"/>
<path d="M23.9516 24.6732C24.0086 24.768 24.0891 24.8463 24.1853 24.9007C24.2815 24.9552 24.3901 24.9837 24.5007 24.9837C24.6112 24.9837 24.7198 24.9552 24.816 24.9007C24.9122 24.8463 24.9927 24.768 25.0497 24.6732L30.6507 15.3425C31.3034 14.2547 31.6558 13.013 31.6719 11.7444C31.6879 10.4758 31.367 9.22566 30.7419 8.12162C30.1169 7.01758 29.21 6.09919 28.114 5.46021C27.0179 4.82123 25.7719 4.48455 24.5032 4.48455C23.2345 4.48455 21.9885 4.82123 20.8925 5.46021C19.7964 6.09919 18.8896 7.01758 18.2645 8.12162C17.6394 9.22566 17.3185 10.4758 17.3346 11.7444C17.3506 13.013 17.703 14.2547 18.3558 15.3425L23.9516 24.6732ZM24.5007 7.82032C25.2609 7.82032 26.004 8.04576 26.6361 8.46811C27.2682 8.89047 27.7609 9.49078 28.0518 10.1931C28.3427 10.8955 28.4189 11.6683 28.2705 12.414C28.1222 13.1596 27.7562 13.8445 27.2186 14.382C26.681 14.9196 25.9962 15.2857 25.2505 15.434C24.5049 15.5823 23.7321 15.5062 23.0297 15.2152C22.3274 14.9243 21.7271 14.4316 21.3047 13.7995C20.8823 13.1674 20.6569 12.4243 20.6569 11.6641C20.6579 10.645 21.0632 9.66788 21.7838 8.94726C22.5045 8.22663 23.4815 7.82134 24.5007 7.82032Z" fill="#0085F2"/>
</g>
<defs>
<filter id="filter0_d_495_4226" x="0" y="0.000213623" width="49" height="49" filterUnits="userSpaceOnUse" color-interpolation-filters="sRGB">
<feFlood flood-opacity="0" result="BackgroundImageFix"/>
<feColorMatrix in="SourceAlpha" type="matrix" values="0 0 0 0 0 0 0 0 0 0 0 0 0 0 0 0 0 0 127 0" result="hardAlpha"/>
<feOffset dy="4"/>
<feGaussianBlur stdDeviation="2"/>
<feComposite in2="hardAlpha" operator="out"/>
<feColorMatrix type="matrix" values="0 0 0 0 0 0 0 0 0 0 0 0 0 0 0 0 0 0 0.25 0"/>
<feBlend mode="normal" in2="BackgroundImageFix" result="effect1_dropShadow_495_4226"/>
<feBlend mode="normal" in="SourceGraphic" in2="effect1_dropShadow_495_4226" result="shape"/>
</filter>
</defs>
</svg>
