<svg width="44" height="44" viewBox="0 0 44 44" fill="none" xmlns="http://www.w3.org/2000/svg">
<path d="M7.34328 19.3565C7.03378 19.3617 6.7827 19.5073 6.61014 19.6573C6.43734 19.8075 6.3146 19.9741 6.20193 20.1514C5.97665 20.506 5.79735 20.915 5.62453 21.325C5.45147 21.7351 5.28853 22.1452 5.14115 22.4597C5.0276 22.7016 4.88988 22.884 4.86184 22.9337C4.79974 22.9498 4.58762 23.0279 4.33009 23.0679C3.98673 23.1213 3.54645 23.162 3.10417 23.213C2.66184 23.2639 2.22015 23.3217 1.81643 23.4386C1.6148 23.497 1.41963 23.5686 1.22695 23.6924C1.03415 23.8161 0.824172 24.0165 0.732811 24.3127C0.641347 24.6089 0.702403 24.8929 0.791789 25.1036C0.881434 25.3143 1.00149 25.4829 1.13554 25.6447C1.40344 25.9684 1.73734 26.2642 2.07415 26.5551C2.41098 26.8461 2.75095 27.1276 3.00469 27.3648C3.19515 27.5428 3.32641 27.7276 3.36859 27.7757C3.36599 27.8398 3.37378 28.0665 3.33221 28.3236C3.27686 28.6664 3.18123 29.0973 3.09315 29.5334C3.0048 29.9695 2.92269 30.408 2.90917 30.8278C2.90138 31.0377 2.90884 31.2443 2.96686 31.4657C3.02507 31.687 3.15082 31.9479 3.40459 32.1263C3.65819 32.3047 3.94855 32.3356 4.17669 32.3156C4.40483 32.2956 4.60163 32.2331 4.79705 32.1558C5.18788 32.0013 5.57354 31.7764 5.95452 31.5462C6.3355 31.316 6.70708 31.0789 7.01128 30.9111C7.23942 30.7852 7.45728 30.7161 7.51619 30.6909C7.57595 30.7143 7.79585 30.7761 8.02776 30.895C8.33692 31.0535 8.71554 31.2793 9.10333 31.4979C9.49117 31.7164 9.88155 31.93 10.2769 32.0726C10.4744 32.1439 10.6753 32.2005 10.904 32.2136C11.1326 32.2266 11.4212 32.1874 11.6694 32.0014C11.9175 31.8154 12.0341 31.5503 12.0856 31.3273C12.1371 31.1043 12.1392 30.8964 12.1259 30.6868C12.0997 30.2676 12.004 29.8323 11.903 29.3991C11.8016 28.9659 11.6922 28.5396 11.6263 28.1987C11.5757 27.9365 11.5791 27.7078 11.5726 27.6508C11.6134 27.6012 11.7397 27.4128 11.9244 27.2292C12.1707 26.9843 12.5029 26.6923 12.8307 26.3913C13.1586 26.0903 13.4819 25.7844 13.7398 25.4527C13.8689 25.2869 13.9843 25.1141 14.0674 24.9008C14.1506 24.6875 14.2028 24.4019 14.1023 24.1086C14.002 23.8152 13.7857 23.6222 13.5893 23.5043C13.3931 23.3865 13.1967 23.3216 12.9931 23.2694C12.586 23.1648 12.1423 23.1202 11.6987 23.0827C11.2551 23.0452 10.8135 23.0182 10.4687 22.9753C10.204 22.9423 9.98951 22.8675 9.93295 22.8558C9.89839 22.8018 9.75808 22.6236 9.64024 22.3912C9.48329 22.0814 9.30709 21.6759 9.12193 21.2713C8.93692 20.8667 8.74425 20.4641 8.50826 20.1165C8.3903 19.9428 8.26271 19.7793 8.08529 19.6345C7.90808 19.4898 7.65283 19.3522 7.34328 19.3565ZM36.6547 19.3565C36.3445 19.3518 36.0895 19.4896 35.9121 19.6345C35.7349 19.7793 35.6058 19.9427 35.4878 20.1165C35.2519 20.4641 35.0607 20.8667 34.8755 21.2713C34.6905 21.6759 34.5154 22.0813 34.3585 22.3912C34.2408 22.6236 34.1003 22.8017 34.0658 22.8558C34.0092 22.8675 33.7948 22.9423 33.5301 22.9753C33.1853 23.0182 32.7437 23.0452 32.3001 23.0827C31.8564 23.1202 31.4128 23.1648 31.0056 23.2693C30.8022 23.3216 30.6045 23.3865 30.4081 23.5043C30.2119 23.6222 29.9969 23.8152 29.8965 24.1086C29.7962 24.4019 29.8472 24.6875 29.93 24.9008C30.0132 25.1141 30.1286 25.2868 30.2577 25.4527C30.5155 25.7844 30.8402 26.0903 31.1681 26.3913C31.4959 26.6923 31.8267 26.9843 32.0731 27.2292C32.2581 27.4128 32.3842 27.6012 32.4249 27.6508C32.4197 27.7085 32.4232 27.9371 32.3724 28.1987C32.3067 28.5396 32.197 28.9659 32.0958 29.3991C31.9942 29.8323 31.8978 30.2676 31.8716 30.6868C31.8586 30.8964 31.8612 31.1043 31.9118 31.3273C31.9633 31.5503 32.081 31.8154 32.3294 32.0014C32.5776 32.1874 32.8662 32.2266 33.0948 32.2135C33.3235 32.2006 33.5215 32.1439 33.7192 32.0726C34.1146 31.93 34.5077 31.7164 34.8955 31.4979C35.2833 31.2793 35.6619 31.0535 35.971 30.8949C36.2028 30.7761 36.4229 30.7143 36.4827 30.6908C36.5416 30.7161 36.7594 30.7852 36.9875 30.9111C37.2918 31.0789 37.6633 31.316 38.0443 31.5462C38.4253 31.7764 38.8096 32.0013 39.2004 32.1558C39.3958 32.2331 39.5939 32.2956 39.8221 32.3156C40.0503 32.3356 40.3405 32.3047 40.5942 32.1263C40.8478 31.9479 40.9724 31.687 41.0306 31.4656C41.0888 31.2443 41.0966 31.0377 41.0896 30.8278C41.0766 30.408 40.9937 29.9695 40.9056 29.5334C40.8173 29.0973 40.7217 28.6664 40.6666 28.3235C40.625 28.0664 40.6341 27.8397 40.6305 27.7757C40.6726 27.7276 40.8025 27.5428 40.993 27.3648C41.2466 27.1275 41.5881 26.8461 41.9249 26.5551C42.2617 26.2642 42.5943 25.9684 42.8621 25.6447C42.9962 25.4829 43.1176 25.3143 43.2073 25.1036C43.2969 24.8929 43.3577 24.6089 43.2662 24.3127C43.1748 24.0164 42.9634 23.8161 42.7707 23.6923C42.5782 23.5686 42.3845 23.497 42.1826 23.4385C41.7788 23.3217 41.3372 23.2639 40.8949 23.2129C40.4526 23.162 40.0123 23.1213 39.669 23.0679C39.4114 23.0279 39.1979 22.9497 39.1359 22.9336C39.1078 22.8839 38.9711 22.7016 38.8579 22.4596C38.7103 22.1452 38.5473 21.735 38.3745 21.325C38.2017 20.915 38.0224 20.506 37.7971 20.1514C37.6843 19.9741 37.5604 19.8074 37.3876 19.6573C37.2145 19.5071 36.9648 19.3612 36.6547 19.3565Z" fill="#95B6FF"/>
<path d="M22.0163 11.6771C21.6626 11.6764 21.3648 11.8383 21.1475 12.0208C20.9303 12.2034 20.7652 12.4177 20.6091 12.6546C20.2969 13.1284 20.0311 13.701 19.7752 14.2807C19.5195 14.8605 19.2755 15.4462 19.0501 15.9069C18.8248 16.3675 18.5603 16.7 18.5559 16.7031C18.5507 16.7063 18.1533 16.8546 17.6455 16.9247C17.1377 16.9948 16.5034 17.0429 15.873 17.1047C15.2426 17.1664 14.6185 17.2382 14.071 17.3866C13.7973 17.4609 13.5402 17.5528 13.2989 17.7022C13.0578 17.8516 12.8126 18.0816 12.7027 18.4179C12.5928 18.7542 12.6538 19.0866 12.7604 19.3498C12.8669 19.613 13.0197 19.8384 13.1968 20.0602C13.5507 20.5037 14.0125 20.9307 14.4845 21.3533C14.9566 21.7759 15.4389 22.1902 15.8072 22.547C16.1754 22.9038 16.4084 23.2589 16.4101 23.2641C16.4118 23.2693 16.4309 23.6938 16.3402 24.1986C16.2498 24.7035 16.0991 25.32 15.9629 25.9389C15.8267 26.5578 15.7022 27.1755 15.6742 27.7423C15.6612 28.0257 15.6664 28.2991 15.7344 28.5748C15.802 28.8505 15.9467 29.1558 16.2326 29.3644C16.5183 29.5729 16.8533 29.6166 17.1363 29.5967C17.4193 29.5767 17.6806 29.5005 17.9461 29.4006C18.477 29.2009 19.0259 28.8934 19.5735 28.5748C20.1211 28.2562 20.6621 27.926 21.1151 27.6859C21.568 27.4457 21.9784 27.3327 21.9838 27.3327C21.989 27.3327 22.3979 27.4466 22.85 27.6886C23.3019 27.9305 23.8438 28.2634 24.3901 28.5842C24.9364 28.905 25.4847 29.2149 26.0149 29.4167C26.28 29.5176 26.5403 29.5944 26.8232 29.6155C27.1062 29.6365 27.4404 29.5947 27.727 29.3872C28.0135 29.1798 28.1593 28.8744 28.2278 28.599C28.2964 28.3235 28.3037 28.0512 28.291 27.7678C28.265 27.2009 28.1452 26.5839 28.0117 25.9644C27.8778 25.3449 27.7293 24.7267 27.6411 24.2215C27.5527 23.7162 27.5722 23.292 27.574 23.2869C27.5755 23.2817 27.8113 22.9265 28.181 22.5712C28.5506 22.2158 29.0339 21.8048 29.5076 21.3841C29.9813 20.9634 30.4451 20.5385 30.8008 20.0964C30.9788 19.8754 31.1324 19.6501 31.2398 19.3874C31.3474 19.1247 31.4101 18.7923 31.3017 18.4555C31.1931 18.1187 30.9488 17.8861 30.7082 17.7358C30.4676 17.5854 30.2122 17.4942 29.9388 17.4189C29.3919 17.2682 28.7669 17.1931 28.1367 17.1288C27.5066 17.0645 26.8731 17.0143 26.3656 16.9422C25.858 16.87 25.4596 16.7198 25.4552 16.7166C25.45 16.7135 25.1859 16.3805 24.9624 15.919C24.7389 15.4574 24.4989 14.8696 24.2453 14.2888C23.992 13.708 23.7298 13.1364 23.4195 12.6613C23.2644 12.4238 23.0989 12.2069 22.8824 12.0235C22.6659 11.8401 22.37 11.6778 22.0163 11.6771Z" fill="#4C8BFF"/>
</svg>
