<svg width="472" height="324" viewBox="0 0 472 324" fill="none" xmlns="http://www.w3.org/2000/svg">
<path d="M130.721 291.684L140.608 319.994H170.408L179.751 295.793L156.694 293.623L130.721 291.684Z" fill="#685750"/>
<path d="M4.28516 228.739L4.30047 246.449L140.612 319.993V302.343L94.9409 263.773L4.28516 228.739Z" fill="#75635A"/>
<path d="M257.136 229.452L170.412 302.344V319.995L467.725 159.554L467.71 141.854L257.136 229.452Z" fill="#362C29"/>
<path d="M331.602 50.1279H301.004L287.196 59.9847L147.85 143.047L37.5885 194.681L3.13054 211.23L2.23633 230.428L140.399 304.44H171.56L203.694 284.346L247.619 242.061L453.289 149.631L470.302 142.728L469.109 124.698L331.602 50.1279Z" fill="#836E69"/>
<path d="M313.176 62.0299L414.095 116.494L418.805 113.982L317.867 59.5049L313.176 62.0299Z" fill="#7DD2E3"/>
<path d="M424.943 122.347L449.504 135.613L454.198 133.088L429.591 119.817L424.943 122.347Z" fill="#5F9FAD"/>
<path d="M62.2168 247.649L105.268 270.895L132.976 255.954L89.9069 232.733L62.2168 247.649Z" fill="#75635A"/>
<path d="M72.4688 247.648L105.268 265.379L122.736 255.955L89.9519 238.238L72.4688 247.648ZM105.284 263.527L75.8833 247.647L89.9075 240.075L119.323 255.953L105.284 263.527Z" fill="#A39685"/>
<path d="M122.363 273.899L154.55 291.29L170.724 282.544L138.551 265.164L122.363 273.899Z" fill="#75635A"/>
<path d="M24.4531 221.057L56.6679 238.453L72.8954 229.717L40.6501 212.347L24.4531 221.057Z" fill="#75635A"/>
<path d="M37.5879 194.681L203.693 284.346L453.288 149.631L287.195 59.9844L37.5879 194.681Z" fill="#7DD2E3"/>
<path d="M157.014 303.895L139.461 306.349L135.82 312.353L139.461 323.999H171.558L173.322 312.463L171.558 306.349L157.014 303.895Z" fill="#E0DEDC"/>
<path d="M239.934 266.775L171.561 306.35V323.999L471.999 161.814V144.166L402.206 179.853L239.934 266.775Z" fill="#D1D1D1"/>
<path d="M300.478 48.2103L0 210.332V231.051L50.1021 267.223L100.997 295.603L139.462 306.352H171.559L471.998 144.167V123.461L332.53 48.1816L300.478 48.2103ZM467.71 141.852L170.412 302.342H140.612L4.2858 228.738V212.646L301.628 52.2154L331.384 52.1882L467.71 125.773V141.852Z" fill="white"/>
<path d="M0 248.7L139.462 324V306.35L0 231.051V248.7Z" fill="#F4EFE9"/>
<path opacity="0.3" d="M201.911 280.244L44.584 195.331L288.987 63.4229L446.311 148.337L201.911 280.244Z" fill="black"/>
<path d="M44.582 179.531L201.909 264.444L446.309 126.125L44.582 173.121V179.531Z" fill="#944E39"/>
<path d="M201.91 264.444L446.31 132.536V126.125L201.91 258.033V264.444Z" fill="#693121"/>
<path d="M214.835 242.021L69.7441 178.357L44.582 170.868V173.123L201.909 258.034L214.835 242.021Z" fill="#87A15F"/>
<path d="M446.308 126.127V123.875L201.867 234.199L201.909 255.781V258.034L446.308 126.127Z" fill="#6A7147"/>
<path d="M446.309 123.874L288.985 38.96L44.582 170.868L201.909 255.781L446.309 123.874Z" fill="#9FB366"/>
<path d="M253.406 157.35L164.068 109.132L246.154 64.8271L335.493 113.047L253.406 157.35Z" fill="#827C77"/>
<path d="M217.938 134.046L181.352 153.794L162.859 143.814L199.446 124.064L217.938 134.046Z" fill="#827C77"/>
<path d="M360.582 155.557L276.914 200.713L223.842 172.068L307.508 126.911L360.582 155.557Z" fill="#827C77"/>
<path d="M361.986 162.631L295.451 126.72L364.505 89.4502L431.04 125.36L361.986 162.631Z" fill="#827C77"/>
<path d="M271.627 218.156L201.909 255.782L44.582 170.869L114.311 133.241L271.627 218.156Z" fill="#827C77"/>
<path d="M164.451 197.705L179.057 205.584L181.49 204.274L166.886 196.39L164.451 197.705Z" fill="#FBE979"/>
<path d="M222.867 229.238L236.982 236.856L239.416 235.539L225.303 227.923L222.867 229.238Z" fill="#FBE979"/>
<path d="M193.654 213.473L208.262 221.356L210.698 220.039L196.09 212.159L193.654 213.473Z" fill="#FBE979"/>
<path d="M79.6582 151.939L91.4208 158.288L93.8554 156.974L82.1005 150.629L79.6582 151.939Z" fill="#FBE979"/>
<path d="M135.234 181.941L149.84 189.821L152.277 188.508L137.667 180.624L135.234 181.941Z" fill="#FBE979"/>
<path d="M106.031 166.178L120.628 174.056L123.069 172.745L108.458 164.862L106.031 166.178Z" fill="#FBE979"/>
<path d="M271.623 218.155L114.307 133.24V131.78L126.887 132.092L283.575 203.574L291.103 206.182V207.641L271.623 218.155Z" fill="#A39C95"/>
<path d="M271.623 216.698L114.307 131.78L133.783 121.267L291.103 206.182L271.623 216.698Z" fill="#F4EFE9"/>
<path opacity="0.3" d="M287.744 68.4658L287.747 76.3858L298.118 81.9841L312.799 81.9912L323.177 76.3886V68.4658L312.799 62.8604H298.118L287.744 68.4658Z" fill="black"/>
<path d="M307.151 53.2412L308.388 71.851V73.1579L306.662 53.8195L307.151 53.2412Z" fill="#452C0D"/>
<path d="M303.768 53.2412L302.535 71.851V73.1579L304.246 53.8195L303.768 53.2412Z" fill="#6B4414"/>
<path d="M307.143 53.9961L308.387 73.1585L306.661 74.076L305.807 54.3396L307.143 53.9961Z" fill="#573711"/>
<path d="M306.157 54.5286L306.665 74.076H304.246L303.771 53.9961L306.157 54.5286Z" fill="#6B4414"/>
<path d="M304.76 54.5286L304.242 74.076L302.535 73.1585L303.768 53.9961L304.76 54.5286Z" fill="#87511B"/>
<path d="M303.771 53.2415V53.9958L304.764 54.5283H306.157L307.154 53.9958V53.2415L306.157 52.709H304.764L303.771 53.2415Z" fill="#B87139"/>
<path d="M310.534 45.7334H300.387L293.199 49.6068L293.205 55.0891L300.387 58.9597L310.534 58.9669L317.717 55.0891V49.6068L310.534 45.7334Z" fill="#47612E"/>
<path d="M311.101 42.3682H299.821L291.836 46.6796L291.839 52.7645L299.821 57.0688L311.095 57.076L319.08 52.7645V46.6796L311.101 42.3682Z" fill="#57703E"/>
<path d="M311.683 38.7529H299.242L290.451 43.4967L290.46 50.2043L299.242 54.9523H311.674L320.472 50.2114V43.4967L311.683 38.7529Z" fill="#637D49"/>
<path d="M312.298 35.167H298.621L288.953 40.3874L288.959 47.7649L298.621 52.9853H312.298L321.964 47.7649V40.3874L312.298 35.167Z" fill="#6F8C53"/>
<path d="M287.744 37.5684L287.747 45.4898L298.118 51.0938H312.799L323.177 45.4956V37.5684L312.799 31.9658H298.118L287.744 37.5684Z" fill="#79995A"/>
<path d="M312.298 30.6602H298.628L288.963 35.8734L288.969 43.2509L298.628 48.4656H312.289L321.952 43.2509V35.8734L312.298 30.6602Z" fill="#87A15F"/>
<path d="M311.683 28.9736H299.242L290.451 33.7216L290.46 40.4321L299.242 45.1787H311.674L320.472 40.4321V33.7216L311.683 28.9736Z" fill="#8FAB65"/>
<path d="M311.101 27.5869H299.821L291.836 31.894L291.839 37.9862L299.821 42.2875H311.095L319.08 37.9862V31.894L311.101 27.5869Z" fill="#9EBD6F"/>
<path d="M310.534 26.1172H300.387L293.199 30.0035L293.205 35.4772L300.387 39.3549H310.534L317.717 35.4772V30.0035L310.534 26.1172Z" fill="#ADCF79"/>
<path d="M310.112 25.1406L300.802 25.1478L294.209 28.6963L294.217 33.7205L300.802 37.2719L310.112 37.2747L316.698 33.7277V28.6963L310.112 25.1406Z" fill="#B9DE82"/>
<path d="M309.574 23.9229L301.354 23.9243L295.527 27.062L295.537 31.4893L301.354 34.6356H309.568L315.388 31.4893V27.062L309.574 23.9229Z" fill="#C9F28D"/>
<path d="M305.465 118.023L245.45 150.411L242.541 148.515L245.45 147.843L259.127 134.706L305.465 115.453V118.023Z" fill="#A39C95"/>
<path d="M169.057 109.176L245.451 150.412V147.844L227.789 134.334L169.057 106.604V109.176Z" fill="#D8D1C7"/>
<path d="M245.451 147.843L169.057 106.602V41.4512L245.451 82.6888V147.843Z" fill="#B88F5A"/>
<path d="M305.466 115.452L245.451 147.842V82.6883L274.829 41.5322L305.466 49.1588V115.452Z" fill="#A16739"/>
<path d="M268.342 74.4525V93.6005L279.979 87.3166V68.1729L268.342 74.4525Z" fill="#2D5A78"/>
<path d="M268.385 85.7227L279.974 79.4717L279.921 78.8877L268.385 85.1129V85.7227Z" fill="#F4EFE9"/>
<path d="M268.847 74.5651L279.452 68.8394L279.659 87.0112L268.847 92.6625V74.5651ZM267.965 74.1486V94.3802L280.657 87.5294V67.2949L267.965 74.1486Z" fill="#D1D1D1"/>
<path d="M267.972 74.1491L280.664 67.2955L280.197 67.0479L267.508 73.8943L267.972 74.1491Z" fill="white"/>
<path d="M267.971 94.3809V74.1493L267.508 73.8945V94.1333L267.971 94.3809Z" fill="#F4EFE9"/>
<path d="M279.464 68.8392L279.788 68.666L279.794 87.1141L268.859 93.0144V92.6623L279.467 86.938L279.464 68.8392Z" fill="white"/>
<path d="M255.809 113.675V132.822L267.438 126.539V107.396L255.809 113.675Z" fill="#2D5A78"/>
<path d="M255.855 124.945L267.44 118.694L267.393 118.111L255.855 124.335V124.945Z" fill="#F4EFE9"/>
<path d="M256.324 113.788L266.929 108.063L267.133 126.234L256.324 131.886V113.788ZM255.438 113.372V133.603L268.13 126.754V106.52L255.438 113.372Z" fill="#D1D1D1"/>
<path d="M255.435 113.372L268.127 106.52L267.662 106.271L254.973 113.116L255.435 113.372Z" fill="white"/>
<path d="M255.435 133.604V113.372L254.973 113.116V133.356L255.435 133.604Z" fill="#F4EFE9"/>
<path d="M266.93 108.062L267.25 107.889L267.256 126.338L256.326 132.238V131.886L266.933 126.161L266.93 108.062Z" fill="white"/>
<path d="M284.621 98.1556V117.302L296.258 111.02V91.876L284.621 98.1556Z" fill="#2D5A78"/>
<path d="M284.662 109.425L296.252 103.174L296.2 102.592L284.662 108.816V109.425Z" fill="#F4EFE9"/>
<path d="M285.127 98.2687L295.732 92.5445L295.939 110.715L285.128 116.366L285.127 98.2687ZM284.248 97.8522V118.085L296.937 111.234V91L284.248 97.8522Z" fill="#D1D1D1"/>
<path d="M284.253 97.8522L296.942 91L296.475 90.751L283.789 97.5974L284.253 97.8522Z" fill="white"/>
<path d="M284.253 118.086V97.8525L283.789 97.5977V117.836L284.253 118.086Z" fill="#F4EFE9"/>
<path d="M295.74 92.5433L296.066 92.3701L296.069 110.818L285.135 116.719V116.366L295.743 110.641L295.74 92.5433Z" fill="white"/>
<path d="M208.345 135.402L196.926 129.241V126.669L212.996 130.319L208.345 135.402Z" fill="#D8D1C7"/>
<path d="M212.996 132.888L208.346 135.401V132.832L212.996 130.318V132.888Z" fill="#A39C95"/>
<path d="M212.996 130.319L208.345 132.833L196.926 126.669L201.578 124.155L212.996 130.319Z" fill="#E6E1DD"/>
<path d="M205.434 136.972L194.016 130.809V129.676L208.348 134.265L205.434 136.972Z" fill="#D8D1C7"/>
<path d="M208.349 135.402L205.436 136.972V135.839L208.349 134.266V135.402Z" fill="#A39C95"/>
<path d="M208.348 134.266L205.434 135.839L194.016 129.677L196.928 128.104L208.348 134.266Z" fill="#E6E1DD"/>
<path d="M212.671 106.722L212.988 106.548L201.57 100.385L201.25 100.559L207.28 104.466L212.671 106.722Z" fill="white"/>
<path d="M212.668 130.493L212.985 130.318V106.548L212.668 106.721L212.141 113.255L212.668 130.493Z" fill="#D1D1D1"/>
<path d="M202.317 124.905L203.086 124.49V101.633L202.096 102.181L201.787 107.668L202.317 124.905Z" fill="#D1D1D1"/>
<path d="M202.596 124.762L212.13 129.91L212.16 107.342L202.897 102.345L202.596 102.408V124.762Z" fill="#B88F5A"/>
<path d="M203.261 113.671L202.785 113.927L202.989 114.229L203.261 114.667L203.437 114.986L203.913 114.729V114.315L203.643 113.876L203.261 113.671Z" fill="#5E4439"/>
<path d="M202.783 113.927L202.512 114.071V114.488L202.783 114.926L203.16 115.129L203.434 114.986V114.575L203.16 114.136L202.783 113.927Z" fill="#736656"/>
<path d="M206.723 114.908L203.57 113.21V104.894L206.723 106.593V114.908Z" fill="#A87C49"/>
<path d="M210.839 117.125L207.688 115.425V107.112L210.839 108.809V117.125Z" fill="#A87C49"/>
<path d="M206.723 125.136L203.57 123.44V115.125L206.723 116.823V125.136Z" fill="#A87C49"/>
<path d="M210.839 127.353L207.688 125.659V117.34L210.839 119.038V127.353Z" fill="#A87C49"/>
<path d="M202.594 102.407L212.128 107.555L212.158 107.244L202.895 102.244L202.594 102.407Z" fill="#D8D1C7"/>
<path d="M212.671 106.722V130.493L211.601 129.916V107.509L202.317 102.493V124.905L201.25 124.33V100.56L212.671 106.722Z" fill="#F4EFE9"/>
<path d="M234.738 113.874V133.009L223.111 126.731V107.599L234.738 113.874Z" fill="#428AA8"/>
<path d="M234.687 125.135L223.111 118.882L223.156 118.303L234.687 124.529V125.135Z" fill="#F4EFE9"/>
<path d="M234.219 132.08L223.415 126.424L223.621 108.264L234.219 113.987V132.08ZM222.41 106.724V126.945L235.099 133.79V113.569L222.41 106.724Z" fill="#F4EFE9"/>
<path d="M235.098 113.57L222.41 106.723L222.879 106.473L235.565 113.319L235.098 113.57Z" fill="white"/>
<path d="M235.1 133.791V113.57L235.566 113.319V133.542L235.1 133.791Z" fill="#D1D1D1"/>
<path d="M223.621 108.265L223.296 108.091L223.293 126.527L234.218 132.428V132.08L223.615 126.354L223.621 108.265Z" fill="#D1D1D1"/>
<path d="M191.732 90.66V109.797L180.105 103.518V84.3818L191.732 90.66Z" fill="#428AA8"/>
<path d="M191.683 101.922L180.105 95.672L180.151 95.0908L191.683 101.317V101.922Z" fill="#F4EFE9"/>
<path d="M191.212 108.863L180.411 103.207L180.613 85.051L191.212 90.7695V108.863ZM179.408 83.5137V103.734L192.094 110.577V90.3573L179.408 83.5137Z" fill="#F4EFE9"/>
<path d="M192.094 90.3582L179.408 83.5146L179.875 83.2598L192.558 90.1077L192.094 90.3582Z" fill="white"/>
<path d="M192.1 110.578V90.3579L192.563 90.1074V110.328L192.1 110.578Z" fill="#D1D1D1"/>
<path d="M180.616 85.0516L180.293 84.877V103.316L191.215 109.211V108.863L180.616 103.142V85.0516Z" fill="#D1D1D1"/>
<path d="M234.736 81.9423V101.079L223.109 94.7992V75.6641L234.736 81.9423Z" fill="#428AA8"/>
<path d="M234.685 93.2023L223.109 86.9528L223.154 86.373L234.685 92.5954V93.2023Z" fill="#F4EFE9"/>
<path d="M234.219 100.145L223.415 94.4925L223.621 76.3336L234.219 82.0535V100.145ZM222.41 74.7891V95.0178L235.099 101.86V81.6355L222.41 74.7891Z" fill="#F4EFE9"/>
<path d="M235.098 81.6375L222.41 74.7896L222.879 74.542L235.565 81.387L235.098 81.6375Z" fill="white"/>
<path d="M235.1 101.863V81.6382L235.566 81.3877V101.611L235.1 101.863Z" fill="#D1D1D1"/>
<path d="M223.621 76.3328L223.296 76.1582L223.293 94.5977L234.218 100.492V100.146L223.615 94.4231L223.621 76.3328Z" fill="#D1D1D1"/>
<path d="M213.231 70.3339V89.4705L201.604 83.1952V64.0586L213.231 70.3339Z" fill="#428AA8"/>
<path d="M213.182 81.5948L201.604 75.3438L201.657 74.7598L213.182 80.9864V81.5948Z" fill="#F4EFE9"/>
<path d="M212.729 88.5358L201.922 82.8832L202.129 64.7242L212.729 70.4456V88.5358ZM200.924 63.1826V83.4028L213.61 90.2521V70.0319L200.924 63.1826Z" fill="#F4EFE9"/>
<path d="M213.61 70.032L200.924 63.1827L201.388 62.9336L214.074 69.7829L213.61 70.032Z" fill="white"/>
<path d="M213.611 90.2539V70.0323L214.075 69.7832V90.0034L213.611 90.2539Z" fill="#D1D1D1"/>
<path d="M202.122 64.7264L201.794 64.5518L201.793 82.9913L212.721 88.8858V88.5366L202.119 82.8181L202.122 64.7264Z" fill="#D1D1D1"/>
<path d="M191.732 58.7285V77.8679L180.105 71.5883V52.4531L191.732 58.7285Z" fill="#428AA8"/>
<path d="M191.683 69.9928L180.105 63.7432L180.151 63.1592L191.683 69.383V69.9928Z" fill="#F4EFE9"/>
<path d="M191.212 76.9329L180.411 71.2802L180.613 53.1227L191.212 58.8426V76.9329ZM179.408 51.5811V71.8027L192.094 78.6506V58.4289L179.408 51.5811Z" fill="#F4EFE9"/>
<path d="M192.094 58.427L179.408 51.5806L179.875 51.3301L192.558 58.1751L192.094 58.427Z" fill="white"/>
<path d="M192.1 78.6508V58.4277L192.563 58.1758V78.4003L192.1 78.6508Z" fill="#D1D1D1"/>
<path d="M180.616 53.1243L180.293 52.9482V71.3863L191.215 77.2809V76.9331L180.616 71.2117V53.1243Z" fill="#D1D1D1"/>
<path d="M177.826 38.9062L166.617 40.7428V41.4513L245.749 84.1648V83.4533L242.642 72.5302L177.826 38.9062Z" fill="#F4EFE9"/>
<path d="M169.755 40.0996L166.617 40.4818V40.7423L245.749 83.4529V83.1938L244.852 80.2823L169.755 40.0996Z" fill="#544540"/>
<path d="M276.827 42.9756L245.742 83.4546V84.166L276.827 43.6813L307.906 50.6122V49.9523L276.827 42.9756Z" fill="#B5AFA7"/>
<path d="M276.165 42.0488L245.742 83.1949V83.454L276.827 42.975L307.906 49.9517V49.7098L276.165 42.0488Z" fill="#403531"/>
<path d="M245.747 83.1953L166.615 40.4833L197.695 0L203.07 1.29829L275.605 39.9637L276.832 42.7149L245.747 83.1953Z" fill="#685750"/>
<path d="M276.836 42.7149L197.699 0L228.778 6.9982L307.914 49.7102L276.836 42.7149Z" fill="#544540"/>
<path d="M301.656 126.915L310.736 131.805L312.607 129.8L350.729 150.787L351.639 153.893L361.642 159.292L364.558 157.393L361.642 156.726L347.978 143.594L301.656 124.352V126.915Z" fill="#D8D1C7"/>
<path d="M424.192 125.212L361.645 159.292V156.726L379.304 143.225L424.192 122.646V125.212Z" fill="#A39C95"/>
<path d="M361.645 156.725L424.192 122.646V99.4424L361.645 133.522V156.725Z" fill="#A16739"/>
<path d="M301.656 124.351L361.642 156.726V133.522L332.283 92.3877L301.656 100.011V124.351Z" fill="#B88F5A"/>
<path d="M351.292 124.714L351.64 124.523L310.772 102.464L310.434 102.649L316.906 110.69L351.292 124.714Z" fill="white"/>
<path d="M351.292 154.078L351.639 153.893V124.523L351.292 124.714L350.73 135.577L351.292 154.078Z" fill="#D1D1D1"/>
<path d="M311.575 132.634L312.405 132.188V103.803L311.342 104.391L311.01 114.129L311.575 132.634Z" fill="#D1D1D1"/>
<path d="M312.072 132.358L350.914 153.332L350.94 125.258L312.395 104.445L312.072 104.511V132.358Z" fill="#57514E"/>
<path d="M312.072 105.94L350.914 126.911L350.94 126.515L312.072 105.527V105.94Z" fill="#362C29"/>
<path d="M312.072 110.002L350.914 130.974L350.94 130.576L312.072 109.59V110.002Z" fill="#362C29"/>
<path d="M312.072 114.068L350.914 135.037L350.94 134.643L312.072 113.648V114.068Z" fill="#362C29"/>
<path d="M312.072 118.131L350.914 139.104L350.94 138.706L312.072 117.719V118.131Z" fill="#362C29"/>
<path d="M312.072 122.198L350.914 143.165L350.94 142.776L312.072 121.781V122.198Z" fill="#362C29"/>
<path d="M312.072 126.262L350.914 147.234L350.94 146.841L312.072 125.85V126.262Z" fill="#362C29"/>
<path d="M312.072 130.327L350.914 151.296L350.94 150.902L312.072 129.913V130.327Z" fill="#362C29"/>
<path d="M351.292 124.714V154.078L350.15 153.462V125.555L311.576 104.731V132.635L310.434 132.014V102.648L351.292 124.714Z" fill="#F4EFE9"/>
<path d="M415.421 96.8955L426.626 98.7334V99.442L361.35 135V134.287L364.452 123.37L415.421 96.8955Z" fill="#B5AFA7"/>
<path d="M423.488 98.0938L426.626 98.4759V98.7336L361.35 134.287V134.028L362.244 131.119L423.488 98.0938Z" fill="#544540"/>
<path d="M330.273 93.8291L361.346 134.288V135.001L330.273 94.5376L299.207 101.467V100.8L330.273 93.8291Z" fill="#F4EFE9"/>
<path d="M330.935 92.9033L361.346 134.028V134.287L330.273 93.828L299.207 100.799V100.556L330.935 92.9033Z" fill="#403531"/>
<path d="M361.352 134.028L426.628 98.4764L395.562 58.0117L390.187 59.3043L331.5 90.8183L330.279 93.5666L361.352 134.028Z" fill="#544540"/>
<path d="M330.271 93.5666L395.554 58.0117L364.487 65.0056L299.205 100.556L330.271 93.5666Z" fill="#685750"/>
<path opacity="0.3" d="M275.846 182.34L326.25 155.137L307.018 144.757L256.611 171.957L275.846 182.34Z" fill="black"/>
<path d="M318.587 155.675L313.84 153.109V149.779L320.375 152.664L318.587 155.675Z" fill="#211A1A"/>
<path d="M289.505 171.335L284.752 168.768V165.438L291.292 168.323L289.505 171.335Z" fill="#211A1A"/>
<path d="M273.58 150.443L273.912 150.26L275.052 150.918L275.387 151.464V152.025L274.776 152.357L273.912 151.558L273.58 151.007V150.443Z" fill="#0A0808"/>
<path d="M273.461 150.507L273.799 150.328L274.66 151.131L274.995 151.677V152.235L274.66 152.419L273.799 151.614L273.461 151.074V150.507Z" fill="#362C29"/>
<path d="M275.327 152.234L275.027 152.077V151.931L275.378 152.067L275.327 152.234Z" fill="#211A1A"/>
<path d="M275.327 152.091L275.027 151.93L275.121 151.774L275.56 151.862L275.327 152.091Z" fill="#362C29"/>
<path d="M275.419 151.936L275.117 151.775L275.258 151.703L275.556 151.862L275.419 151.936Z" fill="#574943"/>
<path d="M275.655 151.915L275.561 151.862L275.423 151.937L275.328 152.091V152.234L275.423 152.286L275.561 152.217L275.655 152.064V151.915Z" fill="#0A0808"/>
<path d="M308.499 135.129V136.008L308.053 136.449L298.041 140.754L298.384 139.712L307.81 135.216L308.499 135.129Z" fill="#3E6669"/>
<path d="M315.213 149.955L296.982 140.829L308.497 136.007L325.711 145.298L315.213 149.955Z" fill="#8CCCCB"/>
<path d="M326.172 144.669L316.646 149.245L315.965 149.623L316.126 148.966L325.651 144.389L326.172 144.669Z" fill="#8CCCCB"/>
<path d="M308.494 135.129L298.968 139.705L298.293 140.087L298.451 139.43L307.979 134.853L308.494 135.129Z" fill="#8CCCCB"/>
<path d="M294.014 138.227L298.451 139.43L316.637 149.25L310.154 146.937L294.014 138.227Z" fill="#389998"/>
<path d="M295.613 138.808L296.417 139.246L298.086 139.701L312.937 147.72L314.502 148.276L298.35 139.559L295.613 138.808Z" fill="#403531"/>
<path d="M296.416 139.245L310.504 146.853L312.936 147.719L298.085 139.7L296.416 139.245Z" fill="#736656"/>
<path d="M280.04 145.766L273.4 152.952L280.075 159.804L291.589 162.769L296.18 154.476L294.059 150.582L283.039 145.626L280.04 145.766Z" fill="#389998"/>
<path d="M291.698 161.85L291.545 162.117L274.059 152.682L280.047 146.202L280.238 146.302L274.46 152.559L291.698 161.85Z" fill="#403531"/>
<path d="M295.693 154.641L291.695 161.851L274.457 152.559L276.772 150.051L279.433 148.408L282.703 147.634L295.693 154.641Z" fill="#736656"/>
<path d="M282.707 147.634L276.166 151.167L276.777 150.052L280.241 146.303L282.707 147.634Z" fill="#A39685"/>
<path d="M286.871 142.079L294.016 138.227L310.156 146.937L303.018 150.792L295.086 148.956L288.312 145.314L286.871 142.079Z" fill="#8CCCCB"/>
<path d="M303.016 150.791L296.179 154.476L280.039 145.765L286.87 142.078L303.016 150.791Z" fill="#8CCCCB"/>
<path d="M316.071 152.664L312.814 150.909L309.758 152.562L313.027 155.503L316.071 152.664Z" fill="#574943"/>
<path d="M312.725 154.167L312.287 153.932L315.359 152.276L315.789 152.514L312.725 154.167Z" fill="#362C29"/>
<path d="M311.974 153.758L311.537 153.529L314.606 151.871L315.036 152.107L311.974 153.758Z" fill="#362C29"/>
<path d="M311.219 153.355L310.779 153.119L313.848 151.466L314.284 151.703L311.219 153.355Z" fill="#362C29"/>
<path d="M313.533 151.292L310.468 152.95L310.031 152.711L313.1 151.058L313.533 151.292Z" fill="#362C29"/>
<path d="M313.005 154.319L309.757 152.562L307.586 156.068L310.834 161.134L313.005 154.319Z" fill="#362C29"/>
<path d="M312.267 153.955L310.102 157.451L310.537 157.687L312.702 154.191L312.267 153.955Z" fill="#0A0808"/>
<path d="M309.807 157.267L309.371 157.033L311.533 153.529L311.973 153.758L309.807 157.267Z" fill="#0A0808"/>
<path d="M309.05 156.86L308.613 156.626L310.778 153.12L311.218 153.356L309.05 156.86Z" fill="#0A0808"/>
<path d="M310.466 152.951L308.3 156.456L307.867 156.22L310.029 152.712L310.466 152.951Z" fill="#0A0808"/>
<path d="M310.834 157.827L307.586 156.067V159.377L310.834 161.133V157.827Z" fill="#211A1A"/>
<path d="M310.559 160.98L310.123 160.744V157.432L310.559 157.668V160.98Z" fill="black"/>
<path d="M309.807 160.573L309.371 160.34V157.033L309.807 157.267V160.573Z" fill="black"/>
<path d="M309.049 160.166L308.613 159.933V156.625L309.049 156.86V160.166Z" fill="black"/>
<path d="M308.3 156.456V159.76L307.867 159.523V156.22L308.3 156.456Z" fill="black"/>
<path d="M313.007 162.297L310.836 161.133V157.826L313.007 154.316L316.073 152.663L318.238 153.831V157.139L316.073 160.646L313.007 162.297Z" fill="#0A0808"/>
<path d="M313.662 160.22L315.398 159.28L316.634 157.287L316.631 155.408L316.348 155.252V157.134L315.115 159.127L313.371 160.067L313.662 160.22Z" fill="#362C29"/>
<path d="M313.373 160.067L315.117 159.126L316.35 157.134V155.251L315.401 154.743L314.041 155.482L313.451 156.027L312.432 157.672V159.557L313.373 160.067Z" fill="#D8D1C7"/>
<path d="M313.682 156.506L314.014 156.327L314.255 155.949L314.248 155.591L314.105 155.513V155.872L313.869 156.246L313.537 156.426L313.682 156.506Z" fill="#A39C95"/>
<path d="M313.534 156.427L313.866 156.246L314.102 155.873V155.513L314.042 155.483L313.666 155.687L313.453 156.029V156.379L313.534 156.427Z" fill="#0A0808"/>
<path d="M313.682 159.618L314.017 159.435L314.255 159.06V158.705L314.105 158.62V158.982L313.872 159.359L313.537 159.533L313.682 159.618Z" fill="#A39C95"/>
<path d="M313.534 159.534L313.869 159.36L314.102 158.983V158.621L314.012 158.581L313.683 158.76L313.453 159.136V159.494L313.534 159.534Z" fill="#0A0808"/>
<path d="M313.006 159.153L312.911 159.11L312.908 158.97L313.006 158.824L313.129 158.76L313.219 158.803V158.944L313.129 159.088L313.006 159.153Z" fill="#A39C95"/>
<path d="M315.75 156.682L315.666 156.63V156.496L315.75 156.351L315.882 156.282L315.975 156.331V156.464L315.882 156.616L315.75 156.682Z" fill="#A39C95"/>
<path d="M314.604 158.749L314.514 158.705L314.523 158.563L314.604 158.42L314.735 158.353L314.823 158.398V158.537L314.735 158.679L314.604 158.749Z" fill="#A39C95"/>
<path d="M314.608 155.849L314.527 155.799V155.657L314.615 155.513L314.74 155.448L314.827 155.495V155.634L314.74 155.779L314.608 155.849Z" fill="#A39C95"/>
<path d="M313.005 157.172L312.91 157.121V156.988L313.005 156.843L313.127 156.771L313.218 156.822V156.956L313.127 157.102L313.005 157.172Z" fill="#A39C95"/>
<path d="M312.65 158.616L312.979 158.439L313.217 158.064V157.71L313.07 157.626V157.984L312.835 158.36L312.506 158.538L312.65 158.616Z" fill="#A39C95"/>
<path d="M312.503 158.537L312.832 158.36L313.068 157.983V157.625L312.987 157.578L312.647 157.76L312.416 158.132V158.489L312.503 158.537Z" fill="#0A0808"/>
<path d="M315.25 156.292L315.582 156.111L315.812 155.735V155.383L315.665 155.303V155.652L315.432 156.034L315.104 156.21L315.25 156.292Z" fill="#A39C95"/>
<path d="M315.105 156.21L315.434 156.034L315.667 155.651V155.302L315.584 155.252L315.252 155.431L315.02 155.81V156.165L315.105 156.21Z" fill="#0A0808"/>
<path d="M315.257 158.139L315.582 157.96L315.812 157.581V157.226L315.665 157.147V157.508L315.432 157.882L315.104 158.056L315.257 158.139Z" fill="#A39C95"/>
<path d="M315.105 158.057L315.434 157.882L315.667 157.509V157.148L315.581 157.104L315.258 157.28L315.02 157.658V158.014L315.105 158.057Z" fill="#0A0808"/>
<path d="M313.956 158.053L313.676 157.893L313.67 157.382L314.01 156.835L314.491 156.576L314.774 156.725L314.823 157.273L314.491 157.82L313.956 158.053Z" fill="#B5AFA7"/>
<path d="M314.297 158.236L313.959 158.053V157.532L314.297 156.988L314.777 156.725L315.119 156.912V157.429L314.777 157.976L314.297 158.236Z" fill="#A39C95"/>
<path d="M275.428 176.198L257.232 166.375L258.591 165.64L276.789 175.462L275.428 176.198Z" fill="#8CCCCB"/>
<path d="M274.81 178.977L256.611 169.155V166.698L274.81 176.519V178.977Z" fill="#D8D1C7"/>
<path d="M274.812 178.977L276.35 178.153V175.696L274.812 176.519V178.977Z" fill="#A39C95"/>
<path d="M275.422 176.199L257.227 166.377L256.611 166.699L274.81 176.52L275.422 176.199Z" fill="#E6E1DD"/>
<path d="M267.969 172.991V175.402L267.673 175.562L266.127 174.395L267.285 173.104L267.969 172.991Z" fill="#A39C95"/>
<path d="M265.285 172.751L263.465 170.876L263.757 170.719L267.971 172.992L267.676 173.152L265.285 172.751Z" fill="#E6E1DD"/>
<path d="M267.676 175.563L263.465 173.287V170.877L267.676 173.153V175.563Z" fill="white"/>
<path d="M261.666 171.88L261.4 172.023L260.832 169.259L261.666 169.428V171.88Z" fill="#A39C95"/>
<path d="M261.4 169.567L260.832 169.26L261.092 169.125L261.666 169.428L261.4 169.567Z" fill="#E6E1DD"/>
<path d="M261.4 172.023L260.832 171.714V169.259L261.4 169.567V172.023Z" fill="#D8D1C7"/>
<path d="M261.242 171.931L261.163 171.981L260.936 169.403L261.242 169.476V171.931Z" fill="#403531"/>
<path d="M261.165 169.528L260.936 169.403L261.017 169.358L261.243 169.477L261.165 169.528Z" fill="#836E69"/>
<path d="M261.163 171.981L260.936 171.86V169.403L261.163 169.528V171.981Z" fill="#685750"/>
<path d="M270.64 176.724L270.377 176.869L269.807 174.102L270.64 174.27V176.724Z" fill="#A39C95"/>
<path d="M270.377 174.41L269.807 174.102L270.07 173.966L270.64 174.271L270.377 174.41Z" fill="#E6E1DD"/>
<path d="M270.377 176.869L269.807 176.552V174.102L270.377 174.409V176.869Z" fill="#D8D1C7"/>
<path d="M270.211 176.772L270.13 176.822L269.906 174.251L270.211 174.314V176.772Z" fill="#403531"/>
<path d="M270.131 174.371L269.906 174.251L269.983 174.202L270.213 174.314L270.131 174.371Z" fill="#836E69"/>
<path d="M270.13 176.822L269.906 176.7V174.251L270.13 174.37V176.822Z" fill="#685750"/>
<path d="M286.976 168.356L283.726 166.604L280.66 168.257L283.935 171.191L286.976 168.356Z" fill="#574943"/>
<path d="M283.626 169.86L283.189 169.627L286.255 167.974L286.688 168.21L283.626 169.86Z" fill="#362C29"/>
<path d="M282.878 169.459L282.441 169.223L285.507 167.569L285.943 167.798L282.878 169.459Z" fill="#362C29"/>
<path d="M282.119 169.051L281.686 168.815L284.751 167.157L285.184 167.396L282.119 169.051Z" fill="#362C29"/>
<path d="M284.439 166.99L281.371 168.644L280.938 168.408L284 166.752L284.439 166.99Z" fill="#362C29"/>
<path d="M283.911 170.012L280.66 168.257L278.492 171.764L281.746 176.827L283.911 170.012Z" fill="#362C29"/>
<path d="M281.475 173.362L281.035 173.129L283.2 169.625L283.637 169.858L281.475 173.362Z" fill="#0A0808"/>
<path d="M280.718 172.957L280.285 172.723L282.45 169.221L282.887 169.457L280.718 172.957Z" fill="#0A0808"/>
<path d="M281.694 168.815L279.525 172.317L279.961 172.553L282.13 169.05L281.694 168.815Z" fill="#0A0808"/>
<path d="M281.38 168.642L279.215 172.147L278.781 171.915L280.946 168.406L281.38 168.642Z" fill="#0A0808"/>
<path d="M281.746 173.52L278.492 171.765V175.07L281.746 176.828V173.52Z" fill="#211A1A"/>
<path d="M281.474 176.671L281.035 176.435V173.13L281.474 173.363V176.671Z" fill="black"/>
<path d="M280.721 176.267L280.285 176.03V172.725L280.718 172.958L280.721 176.267Z" fill="black"/>
<path d="M279.963 175.856L279.527 175.627V172.319L279.963 172.556V175.856Z" fill="black"/>
<path d="M279.214 172.147V175.454L278.781 175.217V171.915L279.214 172.147Z" fill="black"/>
<path d="M283.911 177.992L281.746 176.827V173.519L283.911 170.012L286.977 168.355L289.142 169.526V172.83L286.977 176.336L283.911 177.992Z" fill="#0A0808"/>
<path d="M284.568 175.912L286.308 174.975L287.54 172.979L287.537 171.103L287.254 170.945V172.829L286.021 174.822L284.277 175.762L284.568 175.912Z" fill="#362C29"/>
<path d="M284.28 175.761L286.024 174.821L287.256 172.828V170.945L286.31 170.437L284.947 171.172L284.364 171.716L283.338 173.37V175.248L284.28 175.761Z" fill="#D8D1C7"/>
<path d="M284.592 172.199L284.921 172.023L285.159 171.644L285.153 171.284L285.005 171.204L285.008 171.559L284.774 171.94L284.443 172.123L284.592 172.199Z" fill="#A39C95"/>
<path d="M284.444 172.123L284.774 171.94L285.008 171.559L285.005 171.204L284.948 171.173L284.575 171.378L284.359 171.717V172.075L284.444 172.123Z" fill="#0A0808"/>
<path d="M284.592 175.309L284.924 175.129L285.159 174.753V174.403L285.008 174.318V174.675L284.777 175.053L284.443 175.234L284.592 175.309Z" fill="#A39C95"/>
<path d="M284.444 175.235L284.777 175.054L285.008 174.676V174.319L284.921 174.273L284.592 174.451L284.365 174.829L284.359 175.185L284.444 175.235Z" fill="#0A0808"/>
<path d="M283.91 174.849L283.816 174.802V174.664L283.913 174.518L284.038 174.451L284.122 174.501V174.637L284.038 174.779L283.91 174.849Z" fill="#A39C95"/>
<path d="M286.666 172.379L286.572 172.328V172.19L286.663 172.044L286.788 171.976L286.878 172.029V172.16L286.788 172.308L286.666 172.379Z" fill="#A39C95"/>
<path d="M285.52 174.446L285.43 174.396L285.433 174.259L285.517 174.113L285.645 174.047L285.737 174.093L285.734 174.232L285.648 174.376L285.52 174.446Z" fill="#A39C95"/>
<path d="M285.517 171.54L285.43 171.49L285.433 171.352L285.52 171.204L285.648 171.14L285.734 171.187V171.327L285.645 171.47L285.517 171.54Z" fill="#A39C95"/>
<path d="M283.91 172.864L283.816 172.814V172.682L283.91 172.535L284.035 172.469L284.122 172.512V172.651L284.038 172.795L283.91 172.864Z" fill="#A39C95"/>
<path d="M283.564 174.312L283.891 174.134L284.122 173.756V173.4L283.982 173.321L283.979 173.679L283.743 174.051L283.414 174.232L283.564 174.312Z" fill="#A39C95"/>
<path d="M283.409 174.231L283.738 174.051L283.974 173.679L283.977 173.321L283.893 173.272L283.559 173.453L283.328 173.828V174.186L283.409 174.231Z" fill="#0A0808"/>
<path d="M286.157 171.986L286.486 171.804L286.722 171.429L286.725 171.074L286.575 170.991V171.349L286.343 171.727L286.014 171.906L286.157 171.986Z" fill="#A39C95"/>
<path d="M286.014 171.905L286.343 171.726L286.575 171.348V170.991L286.487 170.946L286.158 171.125L285.93 171.5V171.858L286.014 171.905Z" fill="#0A0808"/>
<path d="M286.157 173.831L286.486 173.652L286.722 173.28L286.725 172.923L286.572 172.842L286.575 173.197L286.343 173.573L286.014 173.754L286.157 173.831Z" fill="#A39C95"/>
<path d="M286.016 173.753L286.345 173.573L286.577 173.196L286.574 172.841L286.489 172.8L286.16 172.974L285.929 173.351L285.926 173.706L286.016 173.753Z" fill="#0A0808"/>
<path d="M284.868 173.746L284.581 173.592L284.576 173.075L284.922 172.527L285.395 172.268L285.684 172.422L285.731 172.968L285.398 173.514L284.868 173.746Z" fill="#B5AFA7"/>
<path d="M285.205 173.929L284.87 173.747L284.867 173.226L285.205 172.683L285.686 172.423L286.021 172.608V173.123L285.686 173.668L285.205 173.929Z" fill="#A39C95"/>
<path d="M258.346 166.974L257.232 166.375V162.068L259.195 162.176L258.346 166.974Z" fill="#389998"/>
<path d="M274.516 158.26L258.344 166.974V162.658L259.947 160.994L270.402 155.199L274.516 153.544V158.26Z" fill="#3E6669"/>
<path d="M274.518 153.544L258.346 162.658L257.232 162.068L273.409 152.95L274.518 153.544Z" fill="#8CCCCB"/>
<path d="M275.945 171.61L271.609 170.726L262.843 166.41L259.707 162.843L274.518 153.543L277.31 155.057L281.211 158.739L287.783 160.707L290.489 162.17L275.945 171.61Z" fill="#8CCCCB"/>
<path d="M275.945 175.007L259.707 166.242V162.843L275.945 171.61V175.007Z" fill="#389998"/>
<path d="M275.414 174.306L271.27 172.074V169.505L275.414 171.731V174.306Z" fill="#836E69"/>
<path d="M271.383 169.846V171.835L273.225 172.83V170.839L271.383 169.846Z" fill="#B5AFA7"/>
<path d="M273.49 170.979V172.968L275.326 173.964V171.975L273.49 170.979Z" fill="#B5AFA7"/>
<path d="M264.672 168.509L260.527 166.272V163.704L264.672 165.934V168.509Z" fill="#836E69"/>
<path d="M260.639 164.054V166.036L262.481 167.032V165.041L260.639 164.054Z" fill="#B5AFA7"/>
<path d="M262.744 165.181V167.169L264.586 168.164V166.177L262.744 165.181Z" fill="#B5AFA7"/>
<path d="M269.185 172.83L264.035 170.049V165.73L266.609 166.73L269.185 168.512V172.83Z" fill="#D8D1C7"/>
<path d="M270.177 167.975L269.185 168.512L266.609 166.73L267.606 166.19L270.177 167.975Z" fill="#B5AFA7"/>
<path d="M267.606 166.19L266.609 166.73L264.035 165.731L265.027 165.192L267.606 166.19Z" fill="#E6E1DD"/>
<path d="M270.175 172.293L269.184 172.831V168.512L270.175 167.976V172.293Z" fill="#A39C95"/>
<path d="M282.544 157.881L277.308 155.059L265.027 165.192L267.606 166.189L282.544 157.881Z" fill="#93D6D5"/>
<path d="M270.542 168.698L270.548 172.093L270.176 172.292V167.975L270.787 166.847L281.239 161.051L287.78 160.709L270.542 168.698Z" fill="#3E6669"/>
<path d="M287.78 160.708L282.544 157.881L267.605 166.189L270.176 167.974L287.78 160.708Z" fill="#7CB5B4"/>
<path d="M275.426 176.199L274.309 175.599V171.286L276.273 171.402L275.426 176.199Z" fill="#389998"/>
<path d="M316.648 149.25L310.165 146.937L302.622 151.005L302.117 153.759L302.381 157.034L315.108 151.181L316.648 149.25Z" fill="#3E6669"/>
<path d="M303.024 150.791L296.187 154.476L291.597 162.768L275.426 171.882V176.199L276.351 175.696V178.153L280.321 175.191L281.344 173.556L283.731 169.684L287.113 167.859L289.504 169.155L290.265 169.939L309.343 159.76L310.427 157.864L312.814 153.989L316.197 152.168L318.587 153.459L319.783 154.105L325.503 150.468L326.186 149.345L326.18 144.669L316.645 149.249L303.024 156.603V150.791Z" fill="#3E6669"/>
<path d="M281.345 175.769L276.352 178.151L275.586 177.112L276.352 176.442L279.754 174.497L281.345 173.754V175.769Z" fill="#A39C95"/>
<path d="M281.345 173.755L276.352 176.443V176.245L281.345 173.556V173.755Z" fill="#D8D1C7"/>
<path d="M310.426 160.078L289.502 171.334V169.348L293.581 167.029L308.833 158.802L310.426 158.057V160.078Z" fill="#A39C95"/>
<path d="M310.426 158.057L289.502 169.348V169.154L310.426 157.863V158.057Z" fill="#D8D1C7"/>
<path d="M326.185 150.874L318.586 155.676V153.655L323.057 151.18L324.588 150.297L326.185 149.557V150.874Z" fill="#A39C95"/>
<path d="M326.185 149.557L318.586 153.655V153.459L326.185 149.345V149.557Z" fill="#D8D1C7"/>
<path d="M291.597 162.767L275.426 171.881L274.309 171.286L290.487 162.172L291.597 162.767Z" fill="#8CCCCB"/>
<path d="M276.352 175.305L275.427 175.805L275.029 173.95L275.427 172.365L276.352 171.861V175.305Z" fill="#A39C95"/>
<path d="M275.427 175.805L274.797 175.47V172.036L275.427 172.362V175.805Z" fill="#D8D1C7"/>
<path d="M276.043 172.424L275.425 172.76L275.262 174L275.425 175.41L276.043 175.075V172.424Z" fill="#D66B24"/>
<path d="M275.422 175.41L275.1 175.237V172.59L275.422 172.756V175.41Z" fill="#FDB053"/>
<path d="M292.963 161.554L301.867 156.748V151.958L301.603 152.098V156.603L293.188 161.142L292.963 161.554Z" fill="#8CCCCB"/>
<path d="M301.602 156.602L293.189 161.144L293.52 160.533L301.207 156.386V152.311L301.602 152.098V156.602Z" fill="#211A1A"/>
<path d="M301.204 156.387L293.518 160.534L296.664 154.761L301.204 152.312V156.387Z" fill="#403531"/>
<path opacity="0.3" d="M308.105 148.25L296.383 154.587L296.361 154.603L292.42 161.788V169.361L310.056 159.832L310.053 157.494L312.416 153.669L312.834 153.436V150.825L308.105 148.25ZM292.578 161.821L296.474 154.706L302.958 151.206V163.506L292.578 169.119V161.821ZM312.675 153.299L312.26 153.523L309.856 157.418L309.846 159.786L303.091 163.433V151.13L308.105 148.417L312.675 150.907V153.299Z" fill="#050505"/>
<path d="M304.281 155.162V155.456L312.335 151.11L312.06 150.964L304.281 155.162Z" fill="#8CCCCB"/>
<path d="M312.06 150.968L304.281 155.162V154.744L311.668 150.761L312.06 150.968Z" fill="#211A1A"/>
<path d="M311.668 150.761L304.281 154.745V150.661L307.834 148.741L311.668 150.761Z" fill="#403531"/>
<path d="M314.203 150.095L313.537 150.452L313.283 150.314L313.943 149.958L314.203 150.095Z" fill="#8CCCCB"/>
<path d="M313.942 149.957L313.283 150.313L312.895 150.104L313.558 149.748L313.942 149.957Z" fill="#211A1A"/>
<path d="M313.558 149.748L312.894 150.105L309.092 148.059L309.747 147.71L313.558 149.748Z" fill="#403531"/>
<path d="M293.523 162.06L293.223 161.894V161.748L293.568 161.887L293.523 162.06Z" fill="#211A1A"/>
<path d="M293.522 161.906L293.223 161.747L293.316 161.591L293.752 161.677L293.522 161.906Z" fill="#362C29"/>
<path d="M293.613 161.75L293.314 161.592L293.449 161.516L293.75 161.677L293.613 161.75Z" fill="#574943"/>
<path d="M293.85 161.732L293.755 161.678L293.617 161.751L293.525 161.907V162.058L293.617 162.106L293.755 162.037L293.85 161.877V161.732Z" fill="#403531"/>
<path d="M293.604 161.589L294.214 161.26L295.432 161.87L295.763 162.413V162.979L295.432 163.159L293.939 162.703L293.604 162.153V161.589Z" fill="#0A0808"/>
<path d="M293.484 161.653L293.82 161.471L295.314 161.93L295.646 162.477V163.044L295.314 163.226L293.82 162.763L293.484 162.218V161.653Z" fill="#362C29"/>
<path d="M257.848 166.315L257.221 165.977V165.58L257.409 164.226L257.221 162.942V162.546L257.848 162.872V166.315Z" fill="#D8D1C7"/>
<path d="M257.537 163.107L257.221 162.943V165.581L257.537 165.756V163.107Z" fill="#FDB053"/>
<path d="M300.74 158.704L300.607 158.635V158.571L300.843 158.59L300.74 158.704Z" fill="#544540"/>
<path d="M300.739 158.637L300.607 158.571L300.808 158.257L302.33 157.57L300.739 158.637Z" fill="#685750"/>
<path d="M300.94 158.322L300.809 158.257L302.199 157.509L302.331 157.57L300.94 158.322Z" fill="#836E69"/>
<path d="M302.524 157.673L302.329 157.57L300.939 158.322L300.738 158.637V158.703L300.939 158.808L302.329 158.054L302.524 157.735V157.673Z" fill="#403531"/>
<path d="M310.371 153.506L310.242 153.433V153.372L310.475 153.386L310.371 153.506Z" fill="#544540"/>
<path d="M310.371 153.442L310.242 153.372L310.437 153.055L311.965 152.371L310.371 153.442Z" fill="#685750"/>
<path d="M310.571 153.12L310.439 153.055L311.833 152.304L311.968 152.371L310.571 153.12Z" fill="#836E69"/>
<path d="M312.156 152.474L311.965 152.371L310.569 153.12L310.371 153.442V153.505L310.569 153.608L311.965 152.858L312.156 152.537V152.474Z" fill="#403531"/>
<path opacity="0.3" d="M310.702 185.338H316.319L320.291 187.484V190.517L300.605 201.115H294.989L291.022 198.971L291.016 195.945L310.702 185.338Z" fill="black"/>
<path d="M291.332 195.475L291.338 198.43L295.207 200.514H300.683L319.967 190.132V187.174L316.101 185.086H310.624L291.332 195.475Z" fill="#718F4C"/>
<path d="M291.332 194.188L291.338 197.135L295.207 199.228H300.683L319.967 188.844V185.884L316.101 183.797H310.624L291.332 194.188Z" fill="#769550"/>
<path d="M291.332 192.899L291.338 195.855L295.207 197.943H300.683L319.967 187.558V184.605L316.101 182.517H310.624L291.332 192.899Z" fill="#7B9B54"/>
<path d="M291.332 191.61L291.338 194.562L295.207 196.66H300.683L319.967 186.277V183.315L316.101 181.229H310.624L291.332 191.61Z" fill="#85A75C"/>
<path d="M291.332 190.326L291.338 193.279L295.207 195.374H300.683L319.967 184.984V182.034L316.101 179.942H310.624L291.332 190.326Z" fill="#8BAC5F"/>
<path d="M291.332 189.041L291.338 191.999L295.207 194.086H300.683L319.967 183.707V180.741L316.101 178.654H310.624L291.332 189.041Z" fill="#95B867"/>
<path d="M291.332 187.755L291.338 190.705L295.207 192.795H300.683L319.967 182.419V179.458L316.101 177.367H310.624L291.332 187.755Z" fill="#9FC46F"/>
<path d="M292.988 186.644L292.991 189.198L296.346 191.016H301.093L318.319 181.744V179.179L314.965 177.367H310.223L292.988 186.644Z" fill="#AACF76"/>
<path opacity="0.3" d="M348.411 165.012H354.028L358 167.162V170.193L338.314 180.792H332.698L328.731 178.646L328.725 175.619L348.411 165.012Z" fill="black"/>
<path d="M329.041 175.152L329.044 178.105L332.916 180.189H338.392L357.676 169.808V166.85L353.805 164.76H348.329L329.041 175.152Z" fill="#718F4C"/>
<path d="M329.041 173.863L329.044 176.812L332.916 178.903H338.392L357.676 168.521V165.562L353.805 163.474H348.329L329.041 173.863Z" fill="#769550"/>
<path d="M329.041 172.572L329.044 175.532L332.916 177.619H338.392L357.676 167.234V164.28L353.805 162.188H348.329L329.041 172.572Z" fill="#7B9B54"/>
<path d="M329.041 171.285L329.044 174.238L332.916 176.335H338.392L357.676 165.953V162.993L353.805 160.907H348.329L329.041 171.285Z" fill="#85A75C"/>
<path d="M329.041 170.002L329.044 172.954L332.916 175.052H338.392L357.676 164.659V161.707L353.805 159.62H348.329L329.041 170.002Z" fill="#8BAC5F"/>
<path d="M329.041 168.716L329.044 171.673L332.916 173.759H338.392L357.676 163.381V160.417L353.805 158.331H348.329L329.041 168.716Z" fill="#95B867"/>
<path d="M329.041 167.43L329.044 170.381L332.916 172.473H338.392L357.676 162.093V159.135L353.805 157.042H348.329L329.041 167.43Z" fill="#9FC46F"/>
<path d="M330.695 166.319L330.698 168.871L334.053 170.688H338.8L356.026 161.419V158.853L352.669 157.042H347.93L330.695 166.319Z" fill="#AACF76"/>
<path opacity="0.3" d="M202.254 148.243V151.812L206.93 154.335H213.543L218.217 151.815V148.243L213.545 145.723H206.93L202.254 148.243Z" fill="black"/>
<path d="M212.773 145.956H207.694L204.094 147.893V150.638L207.694 152.579L212.773 152.582L216.371 150.638V147.893L212.773 145.956Z" fill="#57703E"/>
<path d="M213.039 144.321H207.436L203.477 146.463L203.478 149.487L207.436 151.626H213.039L216.999 149.487V146.463L213.039 144.321Z" fill="#637D49"/>
<path d="M213.315 142.709H207.155L202.801 145.064V148.387L207.155 150.739H213.315L217.67 148.387V145.064L213.315 142.709Z" fill="#6F8C53"/>
<path d="M202.254 143.797V147.361L206.93 149.885H213.543L218.217 147.364V143.797L213.545 141.268H206.93L202.254 143.797Z" fill="#79995A"/>
<path d="M213.314 140.678H207.157L202.803 143.03L202.806 146.35L207.157 148.705H213.313L217.666 146.35V143.03L213.314 140.678Z" fill="#87A15F"/>
<path d="M213.039 139.921H207.436L203.477 142.058L203.478 145.081L207.436 147.218H213.039L216.999 145.081V142.058L213.039 139.921Z" fill="#8FAB65"/>
<path d="M212.773 139.294H207.694L204.094 141.236V143.98L207.694 145.917L212.773 145.92L216.371 143.98V141.236L212.773 139.294Z" fill="#9EBD6F"/>
<path d="M212.518 138.631H207.949L204.709 140.381L204.714 142.849L207.949 144.597H212.518L215.757 142.849V140.381L212.518 138.631Z" fill="#ADCF79"/>
<path d="M212.332 138.193H208.137L205.168 139.794V142.058L208.137 143.658L212.332 143.661L215.3 142.058V139.794L212.332 138.193Z" fill="#B9DE82"/>
<path d="M212.088 137.643H208.382L205.758 139.057L205.759 141.055L208.382 142.468L212.082 142.472L214.706 141.055V139.057L212.088 137.643Z" fill="#C9F28D"/>
<path opacity="0.3" d="M218.357 156.932V160.499L223.034 163.022L229.647 163.024L234.319 160.503V156.932L229.648 154.408H223.034L218.357 156.932Z" fill="black"/>
<path d="M228.876 154.645H223.797L220.197 156.583V159.327L223.797 161.265L228.876 161.268L232.473 159.327V156.583L228.876 154.645Z" fill="#57703E"/>
<path d="M229.146 153.011H223.542L219.584 155.152L219.586 158.177L223.542 160.312H229.146L233.104 158.177V155.152L229.146 153.011Z" fill="#637D49"/>
<path d="M229.419 151.396H223.257L218.902 153.751V157.074L223.257 159.427H229.419L233.772 157.074V153.751L229.419 151.396Z" fill="#6F8C53"/>
<path d="M218.357 152.483V156.048L223.034 158.573H229.647L234.319 156.051V152.483L229.648 149.957H223.034L218.357 152.483Z" fill="#79995A"/>
<path d="M229.417 149.366H223.261L218.904 151.717L218.909 155.037L223.261 157.392H229.416L233.768 155.037V151.717L229.417 149.366Z" fill="#87A15F"/>
<path d="M229.146 148.608H223.542L219.584 150.745L219.586 153.772L223.542 155.909H229.146L233.104 153.772V150.745L229.146 148.608Z" fill="#8FAB65"/>
<path d="M228.876 147.983H223.797L220.197 149.923V152.667L223.797 154.605L228.876 154.608L232.473 152.667V149.923L228.876 147.983Z" fill="#9EBD6F"/>
<path d="M228.619 147.319H224.049L220.809 149.07L220.813 151.535L224.049 153.284H228.619L231.856 151.535V149.07L228.619 147.319Z" fill="#ADCF79"/>
<path d="M228.436 146.88H224.24L221.27 148.482V150.746L224.24 152.348L228.436 152.349L231.401 150.746V148.482L228.436 146.88Z" fill="#B9DE82"/>
<path d="M228.195 146.33H224.488L221.865 147.746L221.867 149.743L224.488 151.155L228.189 151.16L230.814 149.743V147.746L228.195 146.33Z" fill="#C9F28D"/>
<path opacity="0.3" d="M145.727 117.728V121.295L150.404 123.816L157.018 123.82L161.689 121.298V117.728L157.018 115.203H150.404L145.727 117.728Z" fill="black"/>
<path d="M156.247 115.439H151.168L147.568 117.378V120.122L151.168 122.058L156.247 122.063L159.844 120.122V117.378L156.247 115.439Z" fill="#57703E"/>
<path d="M156.515 113.807H150.911L146.951 115.948L146.953 118.971L150.911 121.105H156.515L160.473 118.971V115.948L156.515 113.807Z" fill="#637D49"/>
<path d="M156.79 112.193H150.628L146.273 114.547V117.869L150.628 120.222H156.79L161.143 117.869V114.547L156.79 112.193Z" fill="#6F8C53"/>
<path d="M145.727 113.279V116.845L150.404 119.369H157.018L161.689 116.849V113.279L157.018 110.753H150.404L145.727 113.279Z" fill="#79995A"/>
<path d="M156.789 110.162H150.632L146.275 112.512L146.28 115.835L150.632 118.188H156.786L161.139 115.835V112.512L156.789 110.162Z" fill="#87A15F"/>
<path d="M156.515 109.405H150.911L146.951 111.544L146.953 114.567L150.911 116.704H156.515L160.473 114.567V111.544L156.515 109.405Z" fill="#8FAB65"/>
<path d="M156.247 108.778H151.168L147.568 110.718V113.463L151.168 115.401L156.247 115.404L159.844 113.463V110.718L156.247 108.778Z" fill="#9EBD6F"/>
<path d="M155.992 108.114H151.422L148.182 109.866L148.186 112.33L151.422 114.08H155.992L159.229 112.33V109.866L155.992 108.114Z" fill="#ADCF79"/>
<path d="M155.807 107.674H151.61L148.641 109.278V111.543L151.61 113.143H155.807L158.773 111.543V109.278L155.807 107.674Z" fill="#B9DE82"/>
<path d="M155.562 107.125H151.857L149.232 108.542L149.235 110.539L151.857 111.953L155.558 111.956L158.181 110.539V108.542L155.562 107.125Z" fill="#C9F28D"/>
<path opacity="0.3" d="M161.826 126.415V129.982L166.502 132.505L173.116 132.507L177.789 129.986V126.415L173.117 123.893H166.502L161.826 126.415Z" fill="black"/>
<path d="M172.347 124.127H167.268L163.67 126.064V128.808L167.268 130.749L172.347 130.752L175.945 128.808V126.064L172.347 124.127Z" fill="#57703E"/>
<path d="M172.613 122.493H167.009L163.051 124.635L163.052 127.658L167.009 129.795H172.613L176.573 127.658V124.635L172.613 122.493Z" fill="#637D49"/>
<path d="M172.888 120.88H166.728L162.373 123.235V126.557L166.728 128.909H172.888L177.241 126.557V123.235L172.888 120.88Z" fill="#6F8C53"/>
<path d="M161.826 121.968V125.532L166.502 128.056H173.116L177.789 125.535V121.968L173.117 119.438H166.502L161.826 121.968Z" fill="#79995A"/>
<path d="M172.887 118.849H166.73L162.375 121.2L162.378 124.521L166.73 126.876H172.885L177.238 124.521V121.2L172.887 118.849Z" fill="#87A15F"/>
<path d="M172.613 118.093H167.009L163.051 120.23L163.052 123.253L167.009 125.39H172.613L176.573 123.253V120.23L172.613 118.093Z" fill="#8FAB65"/>
<path d="M172.347 117.465H167.268L163.67 119.406V122.151L167.268 124.088L172.347 124.091L175.945 122.151V119.406L172.347 117.465Z" fill="#9EBD6F"/>
<path d="M172.092 116.801H167.52L164.281 118.553L164.286 121.019L167.52 122.767H172.092L175.329 121.019V118.553L172.092 116.801Z" fill="#ADCF79"/>
<path d="M171.908 116.363H167.711L164.74 117.965V120.23L167.711 121.83L171.908 121.831L174.874 120.23V117.965L171.908 116.363Z" fill="#B9DE82"/>
<path d="M171.662 115.812H167.957L165.332 117.228L165.335 119.226L167.957 120.639L171.657 120.644L174.28 119.226V117.228L171.662 115.812Z" fill="#C9F28D"/>
<path opacity="0.3" d="M276.903 203.775L280.541 205.738V208.518L276.903 210.483H271.752L268.109 208.518V205.738L271.752 203.775H276.903Z" fill="black"/>
<path d="M276.893 141.623L275.391 140.812H273.269L271.77 141.623V142.766L273.269 143.575H275.391L276.893 142.766V141.623Z" fill="#D18067"/>
<path d="M275.384 143.574H273.262V208.286H275.384V143.574Z" fill="#853E2A"/>
<path d="M276.883 207.478L275.381 208.287V143.575L276.883 142.767V207.478Z" fill="#693121"/>
<path d="M271.77 207.478L273.269 208.287V143.575L271.77 142.767V207.478Z" fill="#944E39"/>
<path d="M299.554 162.563V193.986L296.15 195.821V164.401V163.054L299.554 162.563Z" fill="#CC934C"/>
<path d="M296.149 164.401V195.821L237.854 164.356V132.938L293.16 160.61L296.149 164.401Z" fill="#E3BD5E"/>
<path d="M242.555 146.858L247.534 149.547V151.168L244.335 149.444V151.419L247.075 152.896V154.519L244.335 153.041V156.352L242.555 155.39V146.858Z" fill="black"/>
<path d="M248.412 154.246C248.412 151.459 249.865 150.647 252 151.798C254.133 152.949 255.587 155.343 255.587 158.118C255.587 160.903 254.133 161.793 252 160.643C249.867 159.49 248.412 157.031 248.412 154.246ZM253.757 157.128C253.757 155.426 253.079 154.041 252.001 153.458C250.922 152.876 250.243 153.53 250.243 155.23C250.243 156.944 250.922 158.397 252.001 158.979C253.078 159.562 253.757 158.843 253.757 157.128Z" fill="black"/>
<path d="M257.086 154.697L259.932 156.235C261.606 157.138 262.974 158.503 262.974 160.532C262.974 161.787 262.417 162.285 261.569 162.234L263.362 166.615L261.362 165.536L259.848 161.644L258.866 161.114V164.188L257.084 163.226L257.086 154.697ZM259.787 160.081C260.719 160.585 261.229 160.429 261.229 159.59C261.229 158.754 260.719 158.19 259.787 157.686L258.866 157.189V159.584L259.787 160.081Z" fill="black"/>
<path d="M266.434 167.202L267.45 166.429C268.02 167.26 268.747 168.019 269.401 168.371C270.141 168.771 270.504 168.652 270.504 168.142C270.504 167.605 270.056 167.195 269.366 166.507L268.335 165.48C267.524 164.688 266.747 163.537 266.747 162.293C266.747 160.881 267.911 160.382 269.559 161.271C270.468 161.764 271.427 162.671 272.105 163.771L271.196 164.498C270.673 163.785 270.19 163.275 269.559 162.933C268.942 162.601 268.553 162.678 268.553 163.162C268.553 163.685 269.075 164.15 269.753 164.817L270.771 165.81C271.73 166.747 272.335 167.767 272.335 168.971C272.335 170.384 271.243 171.025 269.352 170.004C268.323 169.452 267.233 168.444 266.434 167.202Z" fill="black"/>
<path d="M275.147 164.45L277.292 165.608L279.763 175.474L277.874 174.453L277.39 172.164L274.977 170.862L274.493 172.628L272.674 171.647L275.147 164.45ZM275.341 169.552L277.025 170.462L276.843 169.579C276.626 168.61 276.408 167.486 276.202 166.484L276.154 166.46C275.96 167.259 275.753 168.14 275.537 168.873L275.341 169.552Z" fill="black"/>
<path d="M280.635 167.41L282.417 168.372V175.28L285.544 176.968V178.59L280.635 175.94V167.41Z" fill="black"/>
<path d="M286.918 170.798L291.861 173.467V175.089L288.697 173.382V175.095L291.389 176.549V178.158L288.697 176.705V178.668L291.985 180.44V182.063L286.918 179.329V170.798Z" fill="black"/>
<path d="M299.553 162.563L241.26 131.101L237.854 132.937L296.149 164.401L299.553 162.563Z" fill="#FBE979"/>
</svg>
