<svg width="41" height="41" viewBox="0 0 41 41" fill="none" xmlns="http://www.w3.org/2000/svg">
<path d="M34.5918 2.5625C34.5918 2.22269 34.4568 1.8968 34.2165 1.65652C33.9762 1.41624 33.6504 1.28125 33.3105 1.28125H7.68555C7.34574 1.28125 7.01985 1.41624 6.77957 1.65652C6.53929 1.8968 6.4043 2.22269 6.4043 2.5625V7.6875C6.4043 7.70672 6.41455 7.72209 6.41455 7.74131C6.40086 8.00483 6.46888 8.26615 6.6093 8.48956L15.373 22.0516V38.3312C15.3731 38.5618 15.4355 38.788 15.5535 38.9862C15.6715 39.1843 15.8407 39.3469 16.0434 39.4568C16.2461 39.5668 16.4747 39.62 16.7052 39.6108C16.9356 39.6017 17.1592 39.5305 17.3526 39.4048L23.7588 35.2408C23.9377 35.1245 24.0847 34.9654 24.1865 34.7779C24.2883 34.5904 24.3417 34.3804 24.3418 34.1671V22.0964L34.3355 8.55619C34.5045 8.32209 34.5886 8.03734 34.5739 7.749C34.5739 7.72722 34.5867 7.70928 34.5867 7.6875L34.5918 2.5625ZM8.9668 3.84375H32.0293V6.40625H8.9668V3.84375Z" fill="white"/>
</svg>
