<svg width="445" height="288" viewBox="0 0 445 288" fill="none" xmlns="http://www.w3.org/2000/svg">
<path d="M46.3086 261.023C45.2741 258.17 44.7094 255.128 44.7094 251.93C44.7094 237.161 56.6882 225.182 71.4574 225.182C78.0112 225.182 84.0317 227.565 88.6724 231.485C93.2506 220.258 104.288 212.325 117.177 212.325C128.214 212.325 137.903 218.126 143.329 226.875C144.018 226.624 144.709 226.405 145.43 226.217C152.171 211.51 167.003 201.319 184.25 201.319C193.16 201.319 201.427 204.05 208.265 208.713V287.604H38.9811C37.0649 284.717 35.9297 281.273 35.9297 277.548C35.9296 270.243 40.1627 263.971 46.3086 261.023Z" fill="#53D3C7"/>
<path d="M395.674 255.777C396.912 252.361 397.588 248.719 397.588 244.889C397.588 227.206 383.246 212.863 365.562 212.863C357.715 212.863 350.507 215.717 344.95 220.41C339.469 206.968 326.253 197.469 310.821 197.469C297.605 197.469 286.004 204.416 279.509 214.891C278.683 214.59 277.856 214.327 276.993 214.103C268.921 196.493 251.162 184.291 230.513 184.291C219.844 184.291 209.946 187.561 201.758 193.145V287.603H404.447C406.741 284.147 408.101 280.023 408.101 275.563C408.101 266.816 403.032 259.307 395.674 255.777Z" fill="#53D3C7"/>
<path d="M355.662 50.3076C357.336 50.1361 359.112 48.1844 359.471 46.5401C359.83 44.8958 359.619 43.1828 359.787 41.5081C359.992 39.461 360.759 37.5178 361.527 35.609C362.295 33.7002 363.079 31.7664 363.322 29.7234C363.564 27.6802 363.201 25.477 361.887 23.894C360.324 22.0116 357.757 21.339 355.342 20.948C350.587 20.1782 345.721 20.0922 340.941 20.6937C338.354 21.0192 335.724 21.5723 333.533 22.9854C331.342 24.3985 329.655 26.8272 329.748 29.4329C329.839 31.99 331.659 34.2853 333.963 35.3982C336.267 36.5113 338.967 36.5722 341.475 36.0612C343.982 35.5502 346.343 34.5039 348.682 33.465C348.682 33.465 349.112 37.2067 352.011 38.7305" fill="#384562"/>
<path d="M326.08 120.298C326.08 120.298 323.312 130.023 320.698 152.554C318.084 175.085 318.806 265.061 318.806 265.061H347.732L346.427 161.537L353.604 265.061H383.4C383.4 265.061 373.404 154.339 373.207 140.875C373.011 127.412 366.013 116.423 366.013 116.423L326.08 120.298Z" fill="#384562"/>
<path d="M331.5 119.673C330.432 123.265 327.445 134.295 325.346 152.452C322.729 174.985 323.456 264.957 323.456 264.957" stroke="white" stroke-width="0.1993" stroke-miterlimit="10"/>
<path d="M397.558 91.9594L378.135 100.816C378.135 100.816 375.214 97.1297 371.556 93.245C367.52 98.3489 367.965 108.434 368.333 113.453C368.466 115.173 368.588 116.298 368.513 116.421C361.603 127.933 323.938 123.075 323.938 123.075C324.25 121.78 324.495 120.429 324.694 119.067C326.14 109.313 325.148 98.5475 325.148 98.5475L313.059 96.6192C313.853 93.6135 323.739 67.3184 330.261 64.0008C333.427 62.3941 338.191 61.8931 342.227 61.8175C343.182 61.8081 344.089 61.8081 344.93 61.8175C347.889 61.8836 350.006 62.1199 350.006 62.1199C350.006 62.1199 352.454 61.8648 356.027 61.8648C356.811 61.8648 357.662 61.8742 358.55 61.912C365.772 62.1672 375.715 63.6227 380.621 69.2749C388.853 78.7551 397.558 91.9594 397.558 91.9594Z" fill="#869EC9"/>
<path d="M358.563 61.997L358.507 62.2144C357.769 64.8231 355.028 69.4829 349.783 69.4829C349.48 69.4829 349.178 69.4639 348.856 69.4356C348.714 69.4262 344.178 69.0669 342.315 62.1293L342.23 61.8175C343.185 61.8081 344.092 61.8081 344.934 61.8175C344.896 61.8931 344.868 61.9592 344.83 62.0159C346.267 66.6474 348.96 66.9781 349.083 66.9876C353.724 67.4413 355.586 63.103 356.03 61.8648C356.815 61.8648 357.665 61.8742 358.554 61.912L358.563 61.997Z" fill="white"/>
<path d="M357.324 61.884C357.324 61.884 355.358 68.85 348.978 68.2168C348.978 68.2168 345.15 67.9711 343.496 61.8084C343.496 61.8084 343.959 61.2601 344.318 60.0598C344.536 59.3509 344.706 58.4246 344.725 57.2431C344.725 56.7233 344.706 56.1468 344.64 55.5229C348.099 48.9632 351.672 43.5473 355.774 43.6891C355.774 44.3035 355.784 44.9179 355.793 45.5228C355.85 49.0389 356.039 52.4415 356.408 55.693C356.634 57.8198 356.937 59.8896 357.324 61.884Z" fill="#F9B5A2"/>
<path d="M352.014 44.7864C351.683 47.1115 351.352 49.4745 350.464 51.6579C349.576 53.8412 348.054 55.864 345.927 56.8754C343.8 57.8867 341.012 57.6788 339.358 55.9963C338.196 54.8243 337.723 53.1135 337.638 51.4689C337.553 49.8149 337.818 48.1701 337.902 46.5255C338.101 42.8582 337.59 39.5027 336.145 36.1284C349.49 29.4806 354.834 32.2986 352.014 44.7864Z" fill="#F9B5A2"/>
<path d="M351.699 45.3528C352.051 45.8067 353.504 45.4431 354.06 45.2979C354.616 45.1527 355.108 44.7897 355.459 44.3343C356.594 42.8619 357.011 41.3833 356.721 40.0191C356.568 39.3031 356.351 38.5768 355.861 38.0327C355.371 37.4885 354.635 37.1399 353.908 37.2217C353.216 37.2995 352.609 37.7493 352.186 38.3031C351.764 38.8569 351.499 39.5119 351.238 40.1581" fill="#F9B5A2"/>
<path d="M397.563 91.962C397.563 91.962 404.455 99.2004 403.682 106.761C402.909 114.321 378.682 132.449 378.682 132.449L365.451 120.764L383.953 107.24L378.14 100.819L397.563 91.962Z" fill="#869EC9"/>
<path d="M374.621 128.86C374.574 129.058 374.507 129.247 374.432 129.437C374.054 130.353 373.449 131.147 372.853 131.941C372.4 132.546 371.937 133.151 371.634 133.851C371.332 134.541 371.209 135.344 371.436 136.062L357.381 128C358.629 126.034 361.039 125.221 363.26 124.54C364.772 124.077 366.36 123.557 367.617 122.669L374.621 128.86Z" fill="#F9B5A2"/>
<path d="M355.973 127.194L372.306 136.569" stroke="black" stroke-width="0.13287" stroke-miterlimit="10"/>
<path d="M341.69 265.06V271.508L324.344 268.284V265.06" fill="#F9B5A2"/>
<path d="M341.692 271.508C341.692 271.508 342.891 272.918 342.961 278.489C343.032 284.059 345.147 286.174 343.737 286.95C342.326 287.726 300.301 287.585 299.808 287.444C299.314 287.303 298.398 281.662 306.929 278.136C315.461 274.611 318.916 269.463 320.256 267.983C321.596 266.502 337.109 268.97 341.692 271.508Z" fill="#F38255"/>
<path d="M343.735 286.954C342.327 287.729 300.304 287.587 299.812 287.445C299.585 287.379 299.273 286.197 299.784 284.591C299.793 284.6 299.803 284.61 299.812 284.61C300.304 284.751 342.327 284.893 343.735 284.118C343.754 284.109 343.773 284.099 343.792 284.09C344.217 285.687 344.51 286.528 343.735 286.954Z" fill="#384562"/>
<path d="M319.661 275.471C319.552 275.471 319.443 275.434 319.353 275.358C318.106 274.292 317.288 272.745 317.11 271.114C317.082 270.855 317.269 270.622 317.528 270.593C317.779 270.563 318.021 270.751 318.05 271.011C318.202 272.406 318.901 273.729 319.968 274.64C320.166 274.808 320.189 275.107 320.02 275.306C319.927 275.415 319.794 275.471 319.661 275.471Z" fill="#384562"/>
<path d="M317.942 277.86C317.855 277.86 317.767 277.836 317.689 277.786C316.151 276.812 315.036 275.161 314.705 273.371C314.657 273.115 314.827 272.868 315.084 272.821C315.335 272.77 315.587 272.942 315.634 273.2C315.918 274.736 316.875 276.152 318.195 276.989C318.415 277.128 318.481 277.42 318.34 277.641C318.251 277.783 318.097 277.86 317.942 277.86Z" fill="#384562"/>
<path d="M315.113 279.338C315.017 279.338 314.92 279.309 314.837 279.249C313.452 278.251 312.558 276.64 312.444 274.937C312.427 274.676 312.624 274.451 312.885 274.434C313.151 274.414 313.37 274.613 313.388 274.874C313.482 276.299 314.231 277.648 315.389 278.481C315.601 278.634 315.649 278.93 315.497 279.141C315.404 279.269 315.26 279.338 315.113 279.338Z" fill="#384562"/>
<path d="M363.082 265.06V267.536H377.207V265.06" fill="#F9B5A2"/>
<path d="M377.216 267.356C378.811 270.067 379.206 273.296 379.567 276.42C379.877 279.106 380.188 281.792 380.498 284.478C380.596 285.326 380.675 286.256 380.197 286.963C379.519 287.965 378.093 288.03 376.883 287.992C371.962 287.835 367.041 287.679 362.12 287.522C361.178 287.492 360.155 287.431 359.446 286.811C358.59 286.063 358.501 284.781 358.533 283.645C358.694 277.939 360.095 272.401 363.08 267.536" fill="#F38255"/>
<path d="M380.55 285.025C379.747 285.64 378.509 285.677 377.441 285.649C372.148 285.479 366.854 285.309 361.552 285.148C360.541 285.11 359.444 285.044 358.679 284.382C358.622 284.335 358.565 284.278 358.527 284.222C358.546 285.195 358.735 286.188 359.444 286.811C360.153 287.435 361.183 287.492 362.119 287.52C367.043 287.681 371.968 287.832 376.883 287.993C378.093 288.031 379.52 287.965 380.2 286.963C380.569 286.405 380.607 285.715 380.55 285.025Z" fill="#384562"/>
<path d="M373.34 271.901H366.096C365.834 271.901 365.623 271.69 365.623 271.428C365.623 271.167 365.834 270.956 366.096 270.956H373.34C373.601 270.956 373.812 271.167 373.812 271.428C373.812 271.69 373.601 271.901 373.34 271.901Z" fill="#384562"/>
<path d="M373.34 273.977H366.096C365.834 273.977 365.623 273.766 365.623 273.505C365.623 273.243 365.834 273.032 366.096 273.032H373.34C373.601 273.032 373.812 273.243 373.812 273.505C373.812 273.766 373.601 273.977 373.34 273.977Z" fill="#384562"/>
<path d="M373.34 276.053H366.096C365.834 276.053 365.623 275.842 365.623 275.581C365.623 275.32 365.834 275.108 366.096 275.108H373.34C373.601 275.108 373.812 275.32 373.812 275.581C373.812 275.842 373.601 276.053 373.34 276.053Z" fill="#384562"/>
<path d="M325.745 117.256L325.284 117.888C319.963 129.201 305.889 137.633 298.564 133.379C291.238 129.135 282.24 93.9933 282.24 93.9933L295.898 85.1652L307.338 111.879L313.065 96.6162L325.152 98.5489C325.152 98.5491 327.512 107.436 325.745 117.256Z" fill="#869EC9"/>
<path d="M294.66 86.0932C293.805 83.6882 294.479 81.0334 295.234 78.595C295.989 76.1566 296.832 73.5967 296.29 71.1023C296.153 70.4707 295.919 69.843 295.489 69.3604C295.059 68.8779 294.407 68.5611 293.767 68.6549C293.061 68.7583 292.499 69.3366 292.214 69.9908C291.929 70.6449 291.874 71.3722 291.822 72.0836V87.8501" fill="#F9B5A2"/>
<path d="M345.772 48.9834C344.428 49.729 342.791 49.9276 341.309 49.525C341.557 50.2912 341.901 51.1379 342.516 51.6571C343.132 52.1764 344.054 52.3961 344.762 52.0134C345.289 51.7292 345.617 51.1647 345.754 50.5826C345.892 50.0005 345.802 49.5808 345.772 48.9834Z" fill="white"/>
<path d="M342.08 48.142C342.137 48.1473 342.195 48.1483 342.254 48.1447C342.908 48.1081 343.475 47.5236 343.491 46.8689L343.264 46.8634C343.25 47.3952 342.773 47.8873 342.242 47.9174C341.704 47.9503 341.181 47.5097 341.109 46.9834C341.036 46.457 341.349 45.9485 341.674 45.4726C341.986 45.0167 342.374 44.4491 342.316 43.8156L342.088 43.8369C342.139 44.3881 341.777 44.9177 341.485 45.3431C341.135 45.8559 340.798 46.408 340.882 47.0138C340.964 47.6047 341.491 48.0872 342.08 48.142Z" fill="#292A2E"/>
<path d="M347.835 41.127C346.975 39.9966 346.021 38.926 344.98 37.9307L344.35 38.7227C345.512 39.4807 346.623 40.3363 347.666 41.2813L347.835 41.127Z" fill="#292A2E"/>
<path d="M344.11 42.2351C344.062 42.7466 344.433 43.1941 344.945 43.2417C345.457 43.2892 345.915 42.919 345.963 42.4074C346.011 41.8959 345.629 41.4361 345.117 41.3885C344.606 41.3409 344.157 41.7235 344.11 42.2351Z" fill="#292A2E"/>
<path d="M338.266 40.4071C339.466 39.6708 340.715 39.0348 341.997 38.5041L341.524 37.6094C340.317 38.3957 339.182 39.272 338.129 40.2245L338.266 40.4071Z" fill="#292A2E"/>
<path d="M341.584 41.9994C341.536 42.511 341.089 42.8823 340.577 42.8348C340.066 42.7872 339.683 42.3387 339.731 41.8271C339.778 41.3154 340.238 40.934 340.75 40.9815C341.261 41.0291 341.631 41.4878 341.584 41.9994Z" fill="#292A2E"/>
<path d="M329.742 97.7157C329.685 98.3773 329.6 99.0767 329.506 99.7951L329.742 97.7157Z" fill="#5972BA"/>
<path d="M368.515 116.422C361.605 127.934 323.939 123.076 323.939 123.076C324.251 121.781 324.497 120.429 324.696 119.068L324.705 119.049C324.705 119.049 328.363 107.925 329.507 99.7959L327.399 118.151C327.399 118.151 361.53 121.365 368.335 113.454C368.467 115.174 368.59 116.299 368.515 116.422Z" fill="#5972BA"/>
<path d="M353.137 39.4817C353.253 38.9336 353.972 38.6138 354.541 38.8398C355.125 39.0271 355.501 39.6038 355.612 40.1597C355.845 41.2858 355.281 42.5051 354.324 42.9974C355.028 42.2124 355.34 41.1926 355.15 40.2572C355.061 39.7959 354.806 39.386 354.403 39.1743C354.017 38.9589 353.445 39.0406 353.137 39.4817Z" fill="#EB8085"/>
<path d="M356.407 55.6934C356.133 56.0242 355.84 56.3361 355.528 56.6197C353.695 58.2737 351.228 59.0393 348.808 59.5214C347.343 59.8143 345.831 60.0034 344.318 60.0601C344.536 59.3512 344.706 58.4249 344.725 57.2434C346.095 56.7708 347.409 56.1471 348.629 55.353C352.116 53.0941 354.753 49.5308 355.793 45.5232C355.85 49.0392 356.039 52.4419 356.407 55.6934Z" fill="#EB8085"/>
<path d="M346.541 163.198C346.496 162.549 346.487 162.319 346.426 161.535C346.365 160.752 343.266 138.079 343.266 138.079V264.957L347.731 265.06L346.541 163.198Z" fill="#2E3C56"/>
<path d="M330.384 94.4208C329.866 98.0195 329.224 101.601 328.461 105.155" stroke="black" stroke-width="0.13287" stroke-miterlimit="10"/>
<path d="M371.678 93.2672C370.788 92.4678 369.898 91.6684 369.008 90.869" stroke="black" stroke-width="0.13287" stroke-miterlimit="10"/>
<path d="M155.355 34.7475C155.131 35.3344 154.544 35.6966 153.994 35.9963C153.233 36.3958 152.446 36.758 151.646 37.1077C151.684 37.1077 151.734 37.0952 151.771 37.0952C152.308 36.783 153.057 37.1577 153.27 37.7447C153.482 38.3191 153.245 38.9935 152.845 39.4557C152.446 39.9302 151.884 40.2299 151.347 40.5171C149.636 41.4164 147.887 42.2157 146.101 42.915C147.875 42.9775 149.573 43.2147 151.347 43.3145C151.909 43.3395 152.521 43.3895 152.945 43.7767C153.457 44.2512 153.47 45.1129 153.133 45.7249C152.795 46.3368 152.171 46.7488 151.534 47.0611C150.098 47.7605 148.474 48.0727 147.038 48.7972C144.678 49.996 142.954 52.3812 142.567 55.0039L134.625 50.4814C134.625 48.3083 134.737 45.7498 135.162 43.6142C135.586 41.4912 136.448 39.3932 137.959 37.8446C140.307 35.4218 143.829 34.6225 147.163 34.123C149.598 33.7483 152.059 33.4986 154.519 33.3361C155.143 33.2988 155.58 34.1729 155.355 34.7475Z" fill="#FFBDA6"/>
<path d="M144.351 56.0908L140.217 65.9819V65.9944L137.645 72.1261L115.066 102.548L108.359 87.999L107.41 85.9385L109.321 81.7548L111.681 76.5722L109.694 70.3615L115.153 80.5309L131.875 48.8975L144.351 56.0908Z" fill="#F38255"/>
<path d="M140.219 65.9941L137.647 72.1259L115.068 102.548L108.361 87.9988L108.961 118.309C105.227 115.324 101.168 112.039 100.481 111.228C99.1447 109.667 89.6533 99.2636 89.6533 99.2636L86.4688 81.7296C86.4688 81.7296 88.1797 71.0769 88.7916 70.2902C89.4036 69.5159 92.5132 66.9183 92.5132 66.9183C92.5132 66.9183 101.867 70.8896 109.323 81.7546C109.598 82.1668 109.885 82.5913 110.16 83.0284L110.434 83.6029L115.642 94.2182L140.219 65.9941Z" fill="#E26439"/>
<path d="M291.842 13.3076V273.806C291.842 281.156 285.884 287.113 278.534 287.113H149.382C142.031 287.113 136.074 281.156 136.074 273.806V13.3076C136.074 5.95729 142.032 0 149.382 0H278.534C285.884 0 291.842 5.95729 291.842 13.3076Z" fill="#3A3B3D"/>
<path d="M286.408 13.3078V273.806C286.408 278.143 282.871 281.68 278.534 281.68H149.382C145.045 281.68 141.508 278.143 141.508 273.806V13.3078C141.508 8.97058 145.045 5.43384 149.382 5.43384H187.585L190.312 11.075C190.806 12.0925 191.833 12.7347 192.959 12.7347H234.956C236.083 12.7347 237.11 12.0925 237.604 11.075L240.331 5.43384H278.534C282.871 5.43384 286.408 8.97058 286.408 13.3078Z" fill="white"/>
<path d="M286.408 207.208V273.805C286.408 278.142 282.871 281.678 278.534 281.678H149.382C145.045 281.678 141.508 278.142 141.508 273.805V207.208H286.408Z" fill="#779CD2"/>
<path d="M286.408 186.224H141.508V207.205H286.408V186.224Z" fill="#414DA7"/>
<path d="M229.854 7.79426C229.854 8.56484 229.231 9.17738 228.471 9.17738H204.395C203.634 9.17738 203.012 8.56484 203.012 7.79426C203.012 7.03355 203.634 6.41113 204.395 6.41113H228.471C229.231 6.41113 229.854 7.03348 229.854 7.79426Z" fill="white"/>
<path d="M200.829 7.79426C200.829 8.55496 200.216 9.17738 199.446 9.17738C198.685 9.17738 198.062 8.55496 198.062 7.79426C198.062 7.03355 198.685 6.41113 199.446 6.41113C200.216 6.41113 200.829 7.03348 200.829 7.79426Z" fill="white"/>
<path d="M247.349 153.216C265.793 134.773 265.793 104.87 247.349 86.4262C228.906 67.9826 199.003 67.9826 180.559 86.4262C162.116 104.87 162.116 134.773 180.559 153.216C199.003 171.66 228.906 171.66 247.349 153.216Z" fill="#E8EDF7"/>
<path d="M178.51 151.002C187.164 160.834 199.829 167.051 213.958 167.051C228.087 167.051 240.751 160.834 249.406 151.002H178.51Z" fill="#FC9593"/>
<path d="M272.573 120.777L267.321 123.961C266.763 124.302 266.039 123.899 266.039 123.237V116.869C266.039 116.207 266.763 115.804 267.321 116.145L272.573 119.329C273.11 119.66 273.11 120.446 272.573 120.777Z" fill="#779CD2"/>
<path d="M161.882 116.869V123.237C161.882 123.899 161.158 124.302 160.6 123.961L155.348 120.777C154.801 120.446 154.801 119.66 155.348 119.329L160.6 116.145C161.158 115.804 161.882 116.207 161.882 116.869Z" fill="#779CD2"/>
<path d="M186.377 195.48C186.377 195.746 186.311 195.996 186.178 196.23C186.05 196.465 185.858 196.661 185.603 196.821C185.353 196.981 185.055 197.077 184.709 197.108V197.755H184.19V197.108C183.69 197.061 183.286 196.904 182.977 196.638C182.668 196.371 182.514 196.02 182.514 195.584H183.488C183.504 195.791 183.57 195.964 183.687 196.103C183.804 196.236 183.972 196.321 184.19 196.358V194.602C183.834 194.512 183.544 194.421 183.32 194.331C183.097 194.235 182.905 194.086 182.746 193.884C182.591 193.682 182.514 193.405 182.514 193.054C182.514 192.612 182.668 192.248 182.977 191.96C183.286 191.668 183.69 191.497 184.19 191.449V190.803H184.709V191.449C185.177 191.492 185.552 191.641 185.834 191.896C186.122 192.147 186.284 192.492 186.321 192.934H185.348C185.332 192.769 185.268 192.623 185.156 192.495C185.044 192.362 184.895 192.272 184.709 192.224V193.948C185.066 194.033 185.356 194.123 185.579 194.219C185.802 194.31 185.991 194.456 186.146 194.658C186.3 194.855 186.377 195.129 186.377 195.48ZM183.44 193.006C183.44 193.224 183.504 193.394 183.631 193.517C183.765 193.639 183.951 193.738 184.19 193.812V192.2C183.961 192.226 183.778 192.309 183.639 192.447C183.506 192.586 183.44 192.772 183.44 193.006ZM184.709 196.358C184.943 196.321 185.127 196.228 185.26 196.079C185.393 195.924 185.459 195.741 185.459 195.528C185.459 195.315 185.393 195.15 185.26 195.033C185.132 194.911 184.948 194.812 184.709 194.738V196.358ZM193.53 192.024H190.856V193.612C190.968 193.463 191.133 193.338 191.351 193.237C191.574 193.136 191.811 193.086 192.061 193.086C192.508 193.086 192.87 193.181 193.147 193.373C193.429 193.565 193.628 193.807 193.745 194.099C193.868 194.392 193.929 194.701 193.929 195.025C193.929 195.419 193.852 195.77 193.698 196.079C193.549 196.382 193.322 196.622 193.019 196.797C192.721 196.973 192.354 197.061 191.918 197.061C191.338 197.061 190.872 196.917 190.521 196.63C190.17 196.342 189.959 195.962 189.89 195.488H190.776C190.835 195.738 190.965 195.938 191.167 196.087C191.37 196.23 191.622 196.302 191.926 196.302C192.303 196.302 192.585 196.188 192.772 195.959C192.963 195.73 193.059 195.427 193.059 195.049C193.059 194.666 192.963 194.373 192.772 194.171C192.58 193.964 192.298 193.86 191.926 193.86C191.665 193.86 191.444 193.926 191.263 194.059C191.088 194.187 190.96 194.363 190.88 194.586H190.018V191.226H193.53V192.024ZM195.994 195.967L195.028 198.17H194.437L195.004 195.967H195.994ZM196.669 194.075C196.669 193.155 196.823 192.437 197.132 191.92C197.446 191.399 197.983 191.138 198.744 191.138C199.505 191.138 200.04 191.399 200.348 191.92C200.662 192.437 200.819 193.155 200.819 194.075C200.819 195.007 200.662 195.736 200.348 196.262C200.04 196.784 199.505 197.045 198.744 197.045C197.983 197.045 197.446 196.784 197.132 196.262C196.823 195.736 196.669 195.007 196.669 194.075ZM199.925 194.075C199.925 193.644 199.896 193.28 199.838 192.982C199.784 192.684 199.673 192.442 199.502 192.256C199.332 192.064 199.079 191.968 198.744 191.968C198.409 191.968 198.156 192.064 197.986 192.256C197.816 192.442 197.701 192.684 197.643 192.982C197.59 193.28 197.563 193.644 197.563 194.075C197.563 194.522 197.59 194.898 197.643 195.201C197.696 195.504 197.808 195.749 197.978 195.935C198.154 196.121 198.409 196.214 198.744 196.214C199.079 196.214 199.332 196.121 199.502 195.935C199.678 195.749 199.792 195.504 199.846 195.201C199.899 194.898 199.925 194.522 199.925 194.075ZM201.782 194.075C201.782 193.155 201.936 192.437 202.245 191.92C202.559 191.399 203.096 191.138 203.857 191.138C204.618 191.138 205.153 191.399 205.462 191.92C205.776 192.437 205.933 193.155 205.933 194.075C205.933 195.007 205.776 195.736 205.462 196.262C205.153 196.784 204.618 197.045 203.857 197.045C203.096 197.045 202.559 196.784 202.245 196.262C201.936 195.736 201.782 195.007 201.782 194.075ZM205.039 194.075C205.039 193.644 205.009 193.28 204.951 192.982C204.898 192.684 204.786 192.442 204.616 192.256C204.445 192.064 204.193 191.968 203.857 191.968C203.522 191.968 203.269 192.064 203.099 192.256C202.929 192.442 202.814 192.684 202.756 192.982C202.703 193.28 202.676 193.644 202.676 194.075C202.676 194.522 202.703 194.898 202.756 195.201C202.809 195.504 202.921 195.749 203.091 195.935C203.267 196.121 203.522 196.214 203.857 196.214C204.193 196.214 204.445 196.121 204.616 195.935C204.791 195.749 204.906 195.504 204.959 195.201C205.012 194.898 205.039 194.522 205.039 194.075ZM206.895 194.075C206.895 193.155 207.05 192.437 207.358 191.92C207.672 191.399 208.21 191.138 208.971 191.138C209.732 191.138 210.266 191.399 210.575 191.92C210.889 192.437 211.046 193.155 211.046 194.075C211.046 195.007 210.889 195.736 210.575 196.262C210.266 196.784 209.732 197.045 208.971 197.045C208.21 197.045 207.672 196.784 207.358 196.262C207.05 195.736 206.895 195.007 206.895 194.075ZM210.152 194.075C210.152 193.644 210.123 193.28 210.064 192.982C210.011 192.684 209.899 192.442 209.729 192.256C209.559 192.064 209.306 191.968 208.971 191.968C208.635 191.968 208.383 192.064 208.212 192.256C208.042 192.442 207.928 192.684 207.869 192.982C207.816 193.28 207.789 193.644 207.789 194.075C207.789 194.522 207.816 194.898 207.869 195.201C207.922 195.504 208.034 195.749 208.204 195.935C208.38 196.121 208.635 196.214 208.971 196.214C209.306 196.214 209.559 196.121 209.729 195.935C209.904 195.749 210.019 195.504 210.072 195.201C210.125 194.898 210.152 194.522 210.152 194.075ZM213.126 195.967L212.16 198.17H211.57L212.136 195.967H213.126ZM213.801 194.075C213.801 193.155 213.956 192.437 214.264 191.92C214.578 191.399 215.116 191.138 215.877 191.138C216.638 191.138 217.172 191.399 217.481 191.92C217.795 192.437 217.952 193.155 217.952 194.075C217.952 195.007 217.795 195.736 217.481 196.262C217.172 196.784 216.638 197.045 215.877 197.045C215.116 197.045 214.578 196.784 214.264 196.262C213.956 195.736 213.801 195.007 213.801 194.075ZM217.058 194.075C217.058 193.644 217.029 193.28 216.97 192.982C216.917 192.684 216.805 192.442 216.635 192.256C216.465 192.064 216.212 191.968 215.877 191.968C215.541 191.968 215.289 192.064 215.118 192.256C214.948 192.442 214.834 192.684 214.775 192.982C214.722 193.28 214.695 193.644 214.695 194.075C214.695 194.522 214.722 194.898 214.775 195.201C214.828 195.504 214.94 195.749 215.11 195.935C215.286 196.121 215.541 196.214 215.877 196.214C216.212 196.214 216.465 196.121 216.635 195.935C216.81 195.749 216.925 195.504 216.978 195.201C217.031 194.898 217.058 194.522 217.058 194.075ZM218.915 194.075C218.915 193.155 219.069 192.437 219.378 191.92C219.691 191.399 220.229 191.138 220.99 191.138C221.751 191.138 222.286 191.399 222.594 191.92C222.908 192.437 223.065 193.155 223.065 194.075C223.065 195.007 222.908 195.736 222.594 196.262C222.286 196.784 221.751 197.045 220.99 197.045C220.229 197.045 219.691 196.784 219.378 196.262C219.069 195.736 218.915 195.007 218.915 194.075ZM222.171 194.075C222.171 193.644 222.142 193.28 222.083 192.982C222.03 192.684 221.918 192.442 221.748 192.256C221.578 192.064 221.325 191.968 220.99 191.968C220.655 191.968 220.402 192.064 220.232 192.256C220.061 192.442 219.947 192.684 219.888 192.982C219.835 193.28 219.809 193.644 219.809 194.075C219.809 194.522 219.835 194.898 219.888 195.201C219.942 195.504 220.053 195.749 220.224 195.935C220.399 196.121 220.655 196.214 220.99 196.214C221.325 196.214 221.578 196.121 221.748 195.935C221.924 195.749 222.038 195.504 222.091 195.201C222.145 194.898 222.171 194.522 222.171 194.075ZM224.028 194.075C224.028 193.155 224.182 192.437 224.491 191.92C224.805 191.399 225.342 191.138 226.103 191.138C226.864 191.138 227.399 191.399 227.707 191.92C228.021 192.437 228.178 193.155 228.178 194.075C228.178 195.007 228.021 195.736 227.707 196.262C227.399 196.784 226.864 197.045 226.103 197.045C225.342 197.045 224.805 196.784 224.491 196.262C224.182 195.736 224.028 195.007 224.028 194.075ZM227.284 194.075C227.284 193.644 227.255 193.28 227.197 192.982C227.143 192.684 227.032 192.442 226.861 192.256C226.691 192.064 226.438 191.968 226.103 191.968C225.768 191.968 225.515 192.064 225.345 192.256C225.175 192.442 225.06 192.684 225.002 192.982C224.948 193.28 224.922 193.644 224.922 194.075C224.922 194.522 224.948 194.898 225.002 195.201C225.055 195.504 225.167 195.749 225.337 195.935C225.512 196.121 225.768 196.214 226.103 196.214C226.438 196.214 226.691 196.121 226.861 195.935C227.037 195.749 227.151 195.504 227.205 195.201C227.258 194.898 227.284 194.522 227.284 194.075Z" fill="white"/>
<path d="M251.335 42.4351C251.335 44.5492 250.476 46.4756 249.092 47.8589C247.699 49.2518 245.783 50.1113 243.659 50.1113H184.254C180.016 50.1113 176.578 46.6733 176.578 42.4351C176.578 40.3208 177.438 38.3944 178.831 37.0113C180.214 35.6182 182.13 34.7588 184.254 34.7588H243.659C247.907 34.7588 251.335 38.1968 251.335 42.4351Z" fill="#53D3C7"/>
<path d="M194.578 38.1188V38.8611H192.223V40.4973H194.059V41.2396H192.223V43.666H191.313V38.1188H194.578ZM197.329 43.7379C196.914 43.7379 196.539 43.6447 196.203 43.4585C195.868 43.2669 195.605 43.0009 195.413 42.6603C195.222 42.3145 195.126 41.9154 195.126 41.4631C195.126 41.0161 195.224 40.6197 195.421 40.2738C195.618 39.928 195.887 39.6619 196.227 39.4757C196.568 39.2894 196.948 39.1963 197.369 39.1963C197.789 39.1963 198.17 39.2894 198.51 39.4757C198.851 39.6619 199.119 39.928 199.316 40.2738C199.513 40.6197 199.612 41.0161 199.612 41.4631C199.612 41.9101 199.51 42.3065 199.308 42.6523C199.106 42.9982 198.829 43.2669 198.478 43.4585C198.132 43.6447 197.749 43.7379 197.329 43.7379ZM197.329 42.9477C197.563 42.9477 197.781 42.8918 197.983 42.7801C198.191 42.6683 198.358 42.5007 198.486 42.2772C198.614 42.0537 198.678 41.7824 198.678 41.4631C198.678 41.1438 198.617 40.8751 198.494 40.6569C198.372 40.4335 198.209 40.2658 198.007 40.1541C197.805 40.0424 197.587 39.9865 197.353 39.9865C197.119 39.9865 196.9 40.0424 196.698 40.1541C196.501 40.2658 196.344 40.4335 196.227 40.6569C196.11 40.8751 196.052 41.1438 196.052 41.4631C196.052 41.9367 196.171 42.3038 196.411 42.5646C196.656 42.82 196.962 42.9477 197.329 42.9477ZM201.421 39.9067C201.554 39.6832 201.73 39.5103 201.948 39.3879C202.171 39.2602 202.435 39.1963 202.738 39.1963V40.1381H202.506C202.15 40.1381 201.879 40.2286 201.692 40.4095C201.511 40.5904 201.421 40.9044 201.421 41.3513V43.666H200.511V39.2681H201.421V39.9067ZM207.475 43.7219C207.103 43.7219 206.768 43.658 206.47 43.5303C206.172 43.3973 205.938 43.2111 205.767 42.9716C205.597 42.7322 205.512 42.4528 205.512 42.1335H206.486C206.507 42.373 206.6 42.5699 206.765 42.7242C206.935 42.8785 207.172 42.9557 207.475 42.9557C207.789 42.9557 208.034 42.8812 208.21 42.7322C208.385 42.5779 208.473 42.381 208.473 42.1415C208.473 41.9553 208.417 41.8036 208.306 41.6866C208.199 41.5695 208.063 41.4791 207.898 41.4152C207.739 41.3513 207.515 41.2822 207.228 41.2077C206.866 41.1119 206.571 41.0161 206.342 40.9203C206.119 40.8192 205.927 40.6649 205.767 40.4574C205.608 40.2499 205.528 39.9732 205.528 39.6273C205.528 39.3081 205.608 39.0287 205.767 38.7892C205.927 38.5498 206.15 38.3662 206.438 38.2385C206.725 38.1108 207.058 38.047 207.436 38.047C207.973 38.047 208.412 38.1826 208.752 38.454C209.098 38.7201 209.29 39.0872 209.327 39.5555H208.321C208.306 39.3533 208.21 39.1803 208.034 39.0367C207.859 38.893 207.627 38.8212 207.34 38.8212C207.079 38.8212 206.866 38.8877 206.701 39.0207C206.536 39.1537 206.454 39.3453 206.454 39.5954C206.454 39.7657 206.504 39.9067 206.605 40.0184C206.712 40.1248 206.845 40.21 207.005 40.2738C207.164 40.3377 207.382 40.4069 207.659 40.4813C208.026 40.5824 208.324 40.6835 208.553 40.7847C208.787 40.8858 208.984 41.0427 209.144 41.2556C209.309 41.4631 209.391 41.7424 209.391 42.0936C209.391 42.3757 209.314 42.6417 209.16 42.8918C209.011 43.1419 208.79 43.3441 208.497 43.4984C208.21 43.6474 207.869 43.7219 207.475 43.7219ZM210.161 41.4471C210.161 41.0055 210.252 40.6144 210.433 40.2738C210.619 39.9333 210.869 39.6699 211.183 39.4836C211.502 39.2921 211.853 39.1963 212.237 39.1963C212.582 39.1963 212.883 39.2655 213.139 39.4038C213.399 39.5369 213.607 39.7045 213.761 39.9067V39.2681H214.679V43.666H213.761V43.0115C213.607 43.219 213.397 43.392 213.131 43.5303C212.864 43.6687 212.561 43.7379 212.221 43.7379C211.843 43.7379 211.497 43.6421 211.183 43.4505C210.869 43.2536 210.619 42.9823 210.433 42.6364C210.252 42.2852 210.161 41.8888 210.161 41.4471ZM213.761 41.4631C213.761 41.1598 213.697 40.8964 213.57 40.6729C213.447 40.4494 213.285 40.2791 213.083 40.1621C212.88 40.045 212.662 39.9865 212.428 39.9865C212.194 39.9865 211.976 40.045 211.774 40.1621C211.571 40.2738 211.407 40.4414 211.279 40.6649C211.156 40.8831 211.095 41.1438 211.095 41.4471C211.095 41.7504 211.156 42.0165 211.279 42.2453C211.407 42.4741 211.571 42.6497 211.774 42.7721C211.981 42.8891 212.199 42.9477 212.428 42.9477C212.662 42.9477 212.88 42.8891 213.083 42.7721C213.285 42.655 213.447 42.4847 213.57 42.2613C213.697 42.0324 213.761 41.7664 213.761 41.4631ZM216.784 37.7596V43.666H215.874V37.7596H216.784ZM222.009 41.3593C222.009 41.5243 221.999 41.6733 221.977 41.8063H218.617C218.644 42.1575 218.774 42.4395 219.008 42.6523C219.242 42.8652 219.53 42.9716 219.87 42.9716C220.36 42.9716 220.706 42.7668 220.908 42.357H221.89C221.757 42.7614 221.514 43.094 221.163 43.3547C220.817 43.6101 220.386 43.7379 219.87 43.7379C219.45 43.7379 219.072 43.6447 218.737 43.4585C218.407 43.2669 218.146 43.0009 217.955 42.6603C217.768 42.3145 217.675 41.9154 217.675 41.4631C217.675 41.0108 217.766 40.6144 217.947 40.2738C218.133 39.928 218.391 39.6619 218.721 39.4757C219.056 39.2894 219.439 39.1963 219.87 39.1963C220.285 39.1963 220.655 39.2868 220.98 39.4677C221.304 39.6486 221.557 39.904 221.738 40.2339C221.919 40.5585 222.009 40.9336 222.009 41.3593ZM221.06 41.072C221.054 40.7368 220.934 40.468 220.7 40.2658C220.466 40.0636 220.176 39.9625 219.83 39.9625C219.516 39.9625 219.248 40.0636 219.024 40.2658C218.801 40.4627 218.668 40.7314 218.625 41.072H221.06Z" fill="white"/>
<path d="M236.414 272.053C236.414 273.324 235.898 274.481 235.067 275.312C234.23 276.149 233.078 276.665 231.802 276.665H196.112C193.566 276.665 191.5 274.6 191.5 272.053C191.5 270.783 192.016 269.626 192.853 268.795C193.684 267.958 194.836 267.442 196.112 267.442H231.802C234.354 267.442 236.414 269.507 236.414 272.053Z" fill="#414DA7"/>
<path d="M180.633 229.7C184.77 229.7 188.124 226.346 188.124 222.209C188.124 218.072 184.77 214.718 180.633 214.718C176.496 214.718 173.143 218.072 173.143 222.209C173.143 226.346 176.496 229.7 180.633 229.7Z" fill="#414DA7"/>
<path d="M182.378 223.241L183.462 226.571L180.622 224.506L177.783 226.571L178.867 223.241L176.053 221.175H179.538L180.622 217.845L181.707 221.175H185.217L182.378 223.241Z" fill="white"/>
<path d="M206.824 239.831H154.445V241.38H206.824V239.831Z" fill="white"/>
<path d="M206.824 248.214H154.445V249.763H206.824V248.214Z" fill="white"/>
<path d="M206.824 256.598H154.445V258.147H206.824V256.598Z" fill="white"/>
<path d="M247.28 229.7C251.417 229.7 254.771 226.346 254.771 222.209C254.771 218.072 251.417 214.718 247.28 214.718C243.143 214.718 239.789 218.072 239.789 222.209C239.789 226.346 243.143 229.7 247.28 229.7Z" fill="#414DA7"/>
<path d="M247.281 217.559C245.399 217.559 243.879 219.086 243.879 220.961C243.879 222.836 247.281 227.115 247.281 227.115C247.281 227.115 250.675 222.836 250.675 220.961C250.675 219.086 249.156 217.559 247.281 217.559ZM247.281 222.707C246.313 222.707 245.527 221.929 245.527 220.961C245.527 219.993 246.313 219.207 247.281 219.207C248.249 219.207 249.027 219.993 249.027 220.961C249.027 221.929 248.249 222.707 247.281 222.707Z" fill="white"/>
<path d="M273.468 239.831H221.09V241.38H273.468V239.831Z" fill="white"/>
<path d="M273.468 248.214H221.09V249.763H273.468V248.214Z" fill="white"/>
<path d="M273.468 256.598H221.09V258.147H273.468V256.598Z" fill="white"/>
<path d="M211.98 97.6162C211.98 100.703 209.467 103.216 206.38 103.216C203.293 103.216 200.793 100.703 200.793 97.6162C200.793 94.5295 203.293 92.0293 206.38 92.0293C209.467 92.0293 211.98 94.5295 211.98 97.6162Z" fill="white"/>
<path d="M240.792 119.001H186.938V146.952H240.792V119.001Z" fill="#40BEB4"/>
<path d="M222.591 110.159L226.9 123.962H183.598L187.907 110.159H222.591Z" fill="#3A3B3D"/>
<path d="M214.186 103.002V146.952H240.794V103.002L227.49 90.3058L214.186 103.002Z" fill="#53D3C7"/>
<path d="M233.395 106.623V120.418H221.59V106.623C221.59 103.363 224.233 100.721 227.492 100.721C230.752 100.721 233.395 103.363 233.395 106.623Z" fill="#40BEB4"/>
<path d="M221.957 120.048V106.624C221.957 103.574 224.439 101.092 227.489 101.092C230.539 101.092 233.021 103.574 233.021 106.624V120.048H221.957Z" fill="#E8EDF7"/>
<path opacity="0.1" d="M232.467 104.226C231.745 103.865 230.931 103.671 230.071 103.671C227.018 103.671 224.538 106.151 224.538 109.204V120.047H221.957V106.622C221.957 103.569 224.437 101.09 227.49 101.09C229.682 101.09 231.579 102.367 232.467 104.226Z" fill="#3A3B3D"/>
<path d="M242.434 106.168L227.487 91.9036L212.541 106.168L210.943 104.495L227.487 88.707L244.031 104.495L242.434 106.168Z" fill="#3A3B3D"/>
<path d="M220.484 111.303V120.417" stroke="#3A3B3D" stroke-width="0.13287" stroke-miterlimit="10"/>
<path d="M222.234 111.303V120.417" stroke="#3A3B3D" stroke-width="0.13287" stroke-miterlimit="10"/>
<path d="M223.984 111.303V120.417" stroke="#3A3B3D" stroke-width="0.13287" stroke-miterlimit="10"/>
<path d="M225.734 111.303V120.417" stroke="#3A3B3D" stroke-width="0.13287" stroke-miterlimit="10"/>
<path d="M227.488 111.303V120.417" stroke="#3A3B3D" stroke-width="0.13287" stroke-miterlimit="10"/>
<path d="M229.24 111.303V120.417" stroke="#3A3B3D" stroke-width="0.13287" stroke-miterlimit="10"/>
<path d="M230.992 111.303V120.417" stroke="#3A3B3D" stroke-width="0.13287" stroke-miterlimit="10"/>
<path d="M232.742 111.303V120.417" stroke="#3A3B3D" stroke-width="0.13287" stroke-miterlimit="10"/>
<path d="M234.494 111.303V120.417" stroke="#3A3B3D" stroke-width="0.13287" stroke-miterlimit="10"/>
<path d="M236.247 111.303H218.73V120.417H236.247V111.303Z" stroke="#3A3B3D" stroke-width="0.13287" stroke-miterlimit="10"/>
<path d="M237.116 120.312H217.867V123.089H237.116V120.312Z" fill="#E8EDF7"/>
<path d="M233.007 136.137V146.952H221.979V136.137C221.979 133.093 224.449 130.632 227.493 130.632C229.01 130.632 230.398 131.243 231.388 132.242C232.387 133.241 233.007 134.61 233.007 136.137Z" fill="#E8EDF7"/>
<path d="M222.533 146.398V136.138C222.533 133.408 224.758 131.187 227.493 131.187C228.827 131.187 230.07 131.701 230.993 132.633C231.934 133.574 232.452 134.819 232.452 136.138V146.398H222.533Z" fill="#3A3B3D"/>
<path d="M224.027 139.916C224.027 140.157 223.827 140.357 223.586 140.357C223.338 140.357 223.145 140.157 223.145 139.916C223.145 139.674 223.338 139.475 223.586 139.475C223.827 139.475 224.027 139.674 224.027 139.916Z" fill="#E8EDF7"/>
<path d="M243.247 146.952H185.109V149.607H243.247V146.952Z" fill="#3A3B3D"/>
<path d="M244.324 148.279H184.025V150.935H244.324V148.279Z" fill="#292A2E"/>
<path d="M199.267 126.582H189.84V141.605H199.267V126.582Z" fill="#53D3C7"/>
<path d="M198.61 127.241H190.498V140.948H198.61V127.241Z" fill="#E8EDF7"/>
<path opacity="0.1" d="M198.613 127.243V128.897C194.716 129.476 191.707 132.857 191.707 136.919V140.951H190.498V127.243H198.613Z" fill="#3A3B3D"/>
<path d="M194.831 126.582H194.275V141.605H194.831V126.582Z" fill="#53D3C7"/>
<path d="M211.273 126.582H201.846V141.605H211.273V126.582Z" fill="#53D3C7"/>
<path d="M210.616 127.241H202.504V140.948H210.616V127.241Z" fill="#E8EDF7"/>
<path opacity="0.1" d="M210.617 127.243V128.897C206.72 129.476 203.711 132.857 203.711 136.919V140.951H202.502V127.243H210.617Z" fill="#3A3B3D"/>
<path d="M206.836 126.582H206.281V141.605H206.836V126.582Z" fill="#53D3C7"/>
<path d="M197.135 106.098H193.434V112.382H197.135V106.098Z" fill="#53D3C7"/>
<path d="M197.558 106.098H193.012V107.37H197.558V106.098Z" fill="#3A3B3D"/>
<path d="M197.137 112.383C197.18 112.364 199.06 110.159 199.06 110.159H197.137V112.383Z" fill="#292A2E"/>
<path d="M95.7196 281.762C95.731 283.049 95.8364 284.382 96.4915 285.481C97.1465 286.593 98.1521 287.131 99.7077 287.049H132.841C134.373 286.967 136.821 286.551 137.758 285.337C143.183 278.308 120.82 278.865 115.672 274.008C115.143 273.509 114.561 273.026 114.151 272.406C113.029 270.734 112.678 268.558 113.777 266.921H98.4678L98.5029 273.786V273.891C97.3919 274.804 96.6435 276.113 96.2341 277.493C95.813 278.874 95.7079 280.324 95.7196 281.762Z" fill="#F38255"/>
<path d="M98.4688 266.921L98.5039 273.786C98.9716 274.125 99.463 274.406 100.001 274.616C101.475 275.178 103.1 275.108 104.679 275.014C106.948 274.874 109.24 274.71 111.369 273.926C112.305 273.587 113.298 273.084 114.152 272.406C113.03 270.734 112.679 268.558 113.778 266.921H98.4688Z" fill="#FFBDA6"/>
<path d="M42.2059 281.762C42.2174 283.049 42.3227 284.382 42.9777 285.481C43.6327 286.593 44.6383 287.131 46.1939 287.049H79.3271C80.859 286.967 83.3069 286.551 84.2445 285.337C89.6697 278.308 67.3065 278.865 62.1581 274.008C61.6288 273.509 61.047 273.026 60.6376 272.406C59.5149 270.734 59.1643 268.558 60.2635 266.921H44.9541L44.9893 273.786V273.891C43.8782 274.804 43.1299 276.113 42.7204 277.493C42.2994 278.874 42.1943 280.324 42.2059 281.762Z" fill="#F38255"/>
<path d="M44.9551 265.271L44.9902 273.785C45.4579 274.125 45.9493 274.405 46.4873 274.616C47.9609 275.177 49.5864 275.107 51.1655 275.014C53.4343 274.873 55.7266 274.709 57.8552 273.926C58.7909 273.587 59.7849 273.084 60.6386 272.406C59.5159 270.733 59.1653 268.558 60.2646 266.92L44.9551 265.271Z" fill="#FFBDA6"/>
<path d="M58.2631 128.527L40.2871 266.054L67.2551 267.852L108.358 128.527H58.2631Z" fill="#384562"/>
<path d="M65.4852 128.53L47.4453 266.531" stroke="white" stroke-width="0.1993" stroke-miterlimit="10"/>
<path d="M108.359 128.527L119.694 266.653L91.8273 267.852L82.582 215.904L108.359 128.527Z" fill="#384562"/>
<path d="M65.5459 88.5867C60.9896 85.241 57.5655 78.7938 57.0012 73.1693C56.4369 67.5448 58.3604 61.7158 62.1613 57.5316C64.3398 55.1335 67.0554 53.2967 69.4699 51.1363C71.8844 48.976 74.0798 46.3286 74.6957 43.1477C75.2684 40.1906 74.4127 37.1723 74.0212 34.1857C73.2253 28.1159 74.4713 21.665 78.1055 16.7387C81.7397 11.8123 87.8937 8.64254 93.985 9.2527C100.076 9.8628 105.717 14.5978 106.734 20.6346C107.433 24.7825 106.063 28.9608 104.913 33.0068C103.762 37.0528 102.832 41.461 104.347 45.3849C105.654 48.768 108.628 51.3344 109.767 54.7775C110.96 58.3818 109.349 63.06 106.478 65.5448" fill="#384562"/>
<path d="M108.361 87.8624V87.9998L108.96 118.31L109.01 120.807L109.223 131.76L109.297 135.157L109.322 136.53C97.6458 142.288 55.834 136.53 55.834 136.53C57.8696 121.582 62.4903 100.526 66.2494 85.7893C67.8355 79.6075 69.2591 74.5371 70.2832 71.5024C73.0806 63.1726 82.8217 57.6277 86.4685 55.8042C87.3427 55.3673 87.8672 55.1425 87.8672 55.1425L101.28 58.1648C101.28 58.1648 101.63 58.5643 102.204 59.2886C103.865 61.3742 107.462 66.1198 110.359 71.5775C111.221 73.201 111.608 74.8993 111.683 76.5729C111.795 79.1455 111.171 81.6307 110.434 83.6039C109.497 86.1515 108.361 87.8624 108.361 87.8624Z" fill="#F38255"/>
<path d="M109.226 131.76C94.2022 123.892 75.4318 108.718 74.3203 81.7305C74.3203 81.7305 85.7599 115.537 109.013 120.807L109.226 131.76Z" fill="#E26439"/>
<path d="M102.204 59.2886L102.179 59.3136C100.668 60.4625 98.9824 61.037 97.134 61.037C96.11 61.037 95.011 60.8622 93.8746 60.4999C91.4267 59.7258 89.0539 58.2771 86.8433 56.1664L86.4688 55.8042C87.343 55.3673 87.8675 55.1425 87.8675 55.1425L101.28 58.1648C101.28 58.1647 101.63 58.5643 102.204 59.2886Z" fill="#E8EDF7"/>
<path d="M105.451 27.9036L105.213 28.1783C103.715 29.9391 103.353 32.5118 103.203 34.2851C103.165 34.7723 103.128 35.2592 103.103 35.7463C102.99 37.4198 102.89 39.1557 102.353 40.7793C101.417 43.5642 99.1438 45.937 96.384 46.961C96.3715 46.961 96.3715 46.9735 96.3589 46.9735C95.9842 48.8593 96.4463 51.2197 97.5453 53.1304C97.77 53.5175 97.9949 53.8797 98.2197 54.2293C99.1939 55.7655 100.108 57.0675 101.22 58.129L101.332 58.2289L101.304 58.2506C100.081 59.1872 98.6941 59.6618 97.1331 59.6618C96.2339 59.6618 95.2848 59.4994 94.2858 59.1872C91.9755 58.4629 89.7854 57.0687 87.7871 55.1704C87.8267 49.7221 89.1531 40.5667 89.1656 39.7301C88.8534 40.3421 88.3911 40.854 87.8167 41.2162C86.9675 41.7656 85.8934 41.8031 85.1318 41.3161C84.4574 40.8789 84.0076 40.0047 83.8954 38.8808C83.7578 37.5071 84.0951 36.2583 84.8195 35.4339C85.319 34.8718 86.0059 34.5472 86.6928 34.4722C87.1423 33.5731 87.3921 32.6115 87.4171 31.6125C86.9551 31.7747 86.493 31.8497 86.0559 31.8497C85.5063 31.8497 84.9817 31.7249 84.5199 31.4875L84.6321 31.2628C85.419 31.6748 86.4305 31.6998 87.4297 31.3378L87.642 31.2503C87.7419 31.2253 87.8417 31.1753 87.9417 31.1253C88.9783 30.6134 89.815 29.7891 90.6391 28.915C93.1244 26.3174 95.7721 23.1453 96.6462 19.3612L96.8834 19.4112C96.7836 19.8607 96.6462 20.3103 96.4962 20.7474C96.4962 20.7474 99.3436 25.3182 101.529 26.8793C102.89 27.8535 104.052 28.2157 105.088 27.9783L105.451 27.9036Z" fill="#FFBDA6"/>
<path d="M84.554 63.5634C84.554 63.5634 89.1179 62.6506 96.2897 68.6489C103.462 74.6471 115.067 102.552 115.067 102.552L140.233 68.6489L142.741 69.9708L152.118 75.1516L155.36 77.2551C155.36 77.2551 136.452 113.636 124.977 121.329C113.502 129.023 101.375 122.633 97.8545 118.46C94.3338 114.288 76.2086 93.4243 73.3398 80.1239" fill="#F38255"/>
<path d="M142.738 69.9707C142.738 69.9707 146.406 64.6989 147.021 62.3272C147.636 59.9556 145 55.3002 148.514 53.8069C152.027 52.3136 152.115 61.8888 152.115 61.8888C152.115 61.8888 156.595 61.888 157.737 60.3069C158.879 58.7258 159.142 46.2528 159.845 45.0232C160.548 43.7935 163.183 42.1245 163.446 50.2056C163.71 58.2866 162.832 63.0298 160.46 65.1379C158.088 67.246 152.115 75.1514 152.115 75.1514L142.738 69.9707Z" fill="#FFBDA6"/>
<path d="M93.2913 40.1768C94.679 41.1248 96.4416 41.5069 98.0972 41.2186C97.7493 42.0279 97.289 42.9151 96.566 43.4183C95.8429 43.9214 94.8168 44.0674 94.0838 43.5789C93.5394 43.2161 93.2389 42.568 93.1483 41.9201C93.0577 41.2723 93.1985 40.8243 93.2913 40.1768Z" fill="white"/>
<path d="M97.3999 39.637C97.3365 39.637 97.2731 39.6321 97.2097 39.6224C96.5011 39.5162 95.9425 38.8223 95.9913 38.1076L96.24 38.1247C96.201 38.7053 96.6706 39.2894 97.2462 39.376C97.8279 39.4662 98.4426 39.0395 98.5744 38.4735C98.7073 37.9076 98.4183 37.3223 98.1121 36.771C97.8182 36.2429 97.4536 35.5856 97.5804 34.9014L97.8267 34.9477C97.7158 35.5429 98.056 36.1563 98.3304 36.6491C98.6597 37.243 98.9707 37.8784 98.8183 38.5297C98.6695 39.165 98.0463 39.637 97.3999 39.637Z" fill="#292A2E"/>
<path d="M91.8398 31.4155C92.8902 30.2715 94.0382 29.2022 95.2723 28.2236L95.8788 29.1501C94.5364 29.8579 93.2399 30.6771 92.0075 31.6006L91.8398 31.4155Z" fill="#292A2E"/>
<path d="M95.7858 32.9986C95.7858 33.5605 95.336 34.0102 94.7741 34.0102C94.2122 34.0102 93.75 33.5605 93.75 32.9986C93.75 32.4367 94.2122 31.9746 94.7741 31.9746C95.336 31.9746 95.7858 32.4366 95.7858 32.9986Z" fill="#292A2E"/>
<path d="M102.336 31.6006C101.104 30.6771 99.8073 29.8579 98.4648 29.1501L99.071 28.2236C100.306 29.2022 101.453 30.2715 102.503 31.4155L102.336 31.6006Z" fill="#292A2E"/>
<path d="M98.5605 32.9986C98.5605 33.5605 99.0103 34.0102 99.5722 34.0102C100.134 34.0102 100.596 33.5605 100.596 32.9986C100.596 32.4367 100.134 31.9746 99.5722 31.9746C99.0103 31.9746 98.5605 32.4366 98.5605 32.9986Z" fill="#292A2E"/>
<path d="M98.2208 54.2305C97.4339 54.1931 96.6598 54.1058 95.8978 53.9433C93.8623 53.5187 91.8765 52.5322 90.5652 50.9211C89.641 49.7846 88.6876 47.989 88.4004 46.5529C88.4004 46.5404 88.4004 46.5279 88.4004 46.5279C88.5377 44.9668 88.7393 43.5147 88.9159 42.0293C89.6403 43.8276 91.1648 45.6009 92.9132 46.4127C93.9872 46.9123 95.2111 47.112 96.385 46.9622C96.3726 46.9622 96.3726 46.9746 96.36 46.9746C95.9853 48.8605 96.4474 51.2208 97.5464 53.1316C97.7711 53.5186 97.996 53.8809 98.2208 54.2305Z" fill="#E8686B"/>
<path d="M92.1677 9.42383C86.3965 9.42383 80.802 12.0533 76.8024 16.297C72.8028 20.5407 70.4007 26.2557 70.1675 32.0825C70.037 35.34 70.5425 38.7196 69.4229 41.7815C68.1709 45.2057 65.1345 47.5874 62.536 50.145C56.6877 55.9012 52.4811 63.6673 52.3336 71.8718C52.1861 80.0764 56.6562 88.5437 64.1585 91.8683" stroke="#384562" stroke-width="0.13287" stroke-miterlimit="10"/>
<path d="M97.5449 10.2987C101.761 11.4877 105.432 14.4928 107.43 18.3915C109.428 22.2902 109.724 27.025 108.227 31.1421C107.313 33.6567 105.738 36.1274 106.099 38.7786C106.361 40.7034 107.607 42.3227 108.686 43.9383C110.989 47.3879 112.713 51.3161 113.038 55.4512C113.363 59.5863 112.167 63.9411 109.295 66.9339" stroke="#384562" stroke-width="0.13287" stroke-miterlimit="10"/>
<path d="M87.4268 15.9287C82.108 19.6121 80.8536 26.8802 80.7067 33.3482C80.5597 39.8163 80.9384 46.7543 77.4671 52.214C75.2876 55.6421 71.8282 58.0483 69.2906 61.2205C65.4001 66.0841 63.894 72.7689 65.323 78.8309C66.752 84.893 71.0853 90.2012 76.7387 92.8149" stroke="#384562" stroke-width="0.13287" stroke-miterlimit="10"/>
<path d="M109.322 136.529C97.6458 142.287 55.834 136.529 55.834 136.529C57.8696 121.581 62.4903 100.525 66.2494 85.7882C66.2494 85.7882 60.3798 122.854 61.766 130.135C61.766 130.135 90.5523 137.479 109.297 135.156L109.322 136.529Z" fill="#E26439"/>
<path d="M73.1851 138.343C73.101 140.543 71.9489 142.677 70.1562 143.954C68.3635 145.232 65.97 145.624 63.8633 144.986" stroke="black" stroke-width="0.13287" stroke-miterlimit="10"/>
<path d="M82.582 215.903L94.7552 174.641" stroke="black" stroke-width="0.13287" stroke-miterlimit="10"/>
<path d="M81.5039 97.1152C81.5039 97.1152 97.2689 123.493 109.224 124.514" stroke="black" stroke-width="0.13287" stroke-miterlimit="10"/>
<path d="M0 287.52H444.038" stroke="black" stroke-width="0.498255" stroke-miterlimit="10" stroke-linejoin="round"/>
</svg>
