<svg width="370" height="321" viewBox="0 0 370 321" fill="none" xmlns="http://www.w3.org/2000/svg">
<path d="M187.366 321C288.231 321 369.999 315.964 369.999 309.752C369.999 303.54 288.231 298.505 187.366 298.505C86.5001 298.505 4.73242 303.54 4.73242 309.752C4.73242 315.964 86.5001 321 187.366 321Z" fill="#CAE6FE"/>
<path d="M338.127 106.3C338.127 107.262 337.724 108.139 337.068 108.774C336.42 109.413 335.52 109.805 334.531 109.805H257.563C255.586 109.805 253.967 108.228 253.967 106.3C253.967 105.338 254.37 104.461 255.026 103.826C255.674 103.188 256.575 102.796 257.563 102.796H261.201C262.638 99.5456 265.956 97.2743 269.818 97.2743C272.417 97.2743 274.768 98.3051 276.471 99.9666C278.738 96.2234 282.92 93.7094 287.708 93.7094C289.025 93.7094 290.291 93.9031 291.487 94.255C293.992 89.6713 298.942 86.5508 304.647 86.5508C311.499 86.5508 317.263 91.0541 319.003 97.1819C320.265 96.5673 321.69 96.2162 323.202 96.2162C327.475 96.2162 331.08 98.9929 332.213 102.796H334.531C336.508 102.796 338.127 104.372 338.127 106.3Z" fill="#CAE6FE"/>
<path d="M72.5465 45.2544C72.5465 46.0835 72.199 46.8396 71.6335 47.3867C71.0747 47.9371 70.298 48.2753 69.4461 48.2753H3.10036C1.39665 48.2753 0 46.9167 0 45.2544C0 44.4252 0.347512 43.6692 0.91294 43.1221C1.47094 42.5717 2.24851 42.2334 3.10036 42.2334H6.23622C7.47521 39.4319 10.3354 37.4739 13.6644 37.4739C15.9054 37.4739 17.9311 38.3625 19.3995 39.7942C21.3542 36.5676 24.9589 34.4007 29.0861 34.4007C30.2211 34.4007 31.3123 34.5678 32.3433 34.8707C34.5018 30.9194 38.7685 28.2295 43.6874 28.2295C49.5942 28.2295 54.5626 32.1109 56.0624 37.3935C57.1503 36.8641 58.3786 36.5612 59.6811 36.5612C63.3651 36.5612 66.472 38.9546 67.4494 42.2334H69.4469C71.1506 42.2334 72.5465 43.5929 72.5465 45.2544Z" fill="#CAE6FE"/>
<path d="M195.998 29.0661C195.998 29.9065 195.646 30.6722 195.074 31.2265C194.507 31.7841 193.721 32.1272 192.857 32.1272H125.63C123.903 32.1272 122.488 30.7501 122.488 29.0661C122.488 28.2257 122.84 27.46 123.414 26.9056C123.979 26.348 124.767 26.005 125.63 26.005H128.807C130.062 23.1664 132.96 21.1819 136.333 21.1819C138.604 21.1819 140.657 22.0818 142.145 23.5336C144.125 20.2644 147.777 18.0686 151.96 18.0686C153.11 18.0686 154.216 18.2381 155.261 18.545C157.448 14.5415 161.772 11.8154 166.756 11.8154C172.741 11.8154 177.776 15.7491 179.295 21.1008C180.398 20.5641 181.642 20.2572 182.963 20.2572C186.695 20.2572 189.844 22.6828 190.834 26.005H192.858C194.583 26.005 195.998 27.3821 195.998 29.0661Z" fill="#CAE6FE"/>
<path d="M341.135 85.1025C343.638 85.1025 345.674 87.0846 345.674 89.5207C345.674 91.9567 343.638 93.9388 341.135 93.9388C338.632 93.9388 336.596 91.9567 336.596 89.5207C336.596 87.0846 338.632 85.1025 341.135 85.1025ZM341.135 86.4885C339.417 86.4885 338.02 87.8487 338.02 89.5207C338.02 91.1926 339.417 92.5528 341.135 92.5528C342.853 92.5528 344.25 91.1926 344.25 89.5207C344.25 87.8487 342.853 86.4885 341.135 86.4885Z" fill="#2A365C"/>
<path d="M336.518 62.6465C339.02 62.6465 341.057 64.6286 341.057 67.0646C341.057 69.5006 339.02 71.4827 336.518 71.4827C334.015 71.4827 331.979 69.5006 331.979 67.0646C331.979 64.6286 334.015 62.6465 336.518 62.6465ZM336.518 64.0332C334.8 64.0332 333.402 65.3934 333.402 67.0654C333.402 68.7374 334.8 70.0976 336.518 70.0976C338.235 70.0976 339.633 68.7374 339.633 67.0654C339.633 65.3934 338.235 64.0332 336.518 64.0332Z" fill="#61B3FF"/>
<path d="M322.709 56.4248C322.709 56.8073 323.028 57.1182 323.421 57.1182H326.561C326.955 57.1182 327.274 56.8081 327.274 56.4248C327.274 56.0424 326.955 55.7314 326.561 55.7314H323.421C323.028 55.7322 322.709 56.0424 322.709 56.4248Z" fill="#009EF3"/>
<path d="M317.215 56.4248C317.215 56.8073 317.533 57.1182 317.927 57.1182H321.067C321.46 57.1182 321.78 56.8081 321.78 56.4248C321.78 56.0424 321.461 55.7314 321.067 55.7314H317.927C317.534 55.7322 317.215 56.0424 317.215 56.4248Z" fill="#009EF3"/>
<path d="M321.531 52.1348V54.8801C321.531 55.2626 321.85 55.5735 322.244 55.5735C322.637 55.5735 322.955 55.2634 322.955 54.8801V52.1348C322.955 51.7523 322.637 51.4414 322.244 51.4414C321.85 51.4414 321.531 51.7515 321.531 52.1348Z" fill="#009EF3"/>
<path d="M321.531 57.9678V60.7131C321.531 61.0956 321.85 61.4057 322.244 61.4057C322.637 61.4057 322.955 61.0956 322.955 60.7131V57.9678C322.955 57.5853 322.637 57.2744 322.244 57.2744C321.85 57.2752 321.531 57.5853 321.531 57.9678Z" fill="#009EF3"/>
<path d="M327.826 80.0244C327.826 80.4069 328.145 80.7178 328.538 80.7178H331.678C332.071 80.7178 332.39 80.4077 332.39 80.0244C332.39 79.642 332.071 79.3311 331.678 79.3311H328.538C328.145 79.3311 327.826 79.642 327.826 80.0244Z" fill="#007CE6"/>
<path d="M322.332 80.0244C322.332 80.4069 322.651 80.7178 323.044 80.7178H326.184C326.577 80.7178 326.897 80.4077 326.897 80.0244C326.897 79.642 326.578 79.3311 326.184 79.3311H323.044C322.651 79.3311 322.332 79.642 322.332 80.0244Z" fill="#007CE6"/>
<path d="M326.652 75.7334V78.4788C326.652 78.8612 326.971 79.1721 327.365 79.1721C327.758 79.1721 328.077 78.862 328.077 78.4788V75.7334C328.077 75.351 327.758 75.04 327.365 75.04C326.972 75.0408 326.652 75.351 326.652 75.7334Z" fill="#007CE6"/>
<path d="M326.652 81.5674V84.3127C326.652 84.6952 326.971 85.0061 327.365 85.0061C327.758 85.0061 328.077 84.696 328.077 84.3127V81.5674C328.077 81.185 327.758 80.874 327.365 80.874C326.972 80.8748 326.652 81.185 326.652 81.5674Z" fill="#007CE6"/>
<path d="M36.2774 106.502C36.2774 108.938 34.2411 110.92 31.7383 110.92C29.2356 110.92 27.1992 108.938 27.1992 106.502C27.1992 104.066 29.2356 102.084 31.7383 102.084C34.2411 102.084 36.2774 104.066 36.2774 106.502ZM34.8535 106.502C34.8535 104.83 33.4561 103.47 31.7383 103.47C30.0206 103.47 28.6231 104.83 28.6231 106.502C28.6231 108.174 30.0206 109.534 31.7383 109.534C33.4561 109.534 34.8535 108.175 34.8535 106.502Z" fill="#009EF3"/>
<path d="M54.8067 100.542C54.8067 102.978 52.7704 104.96 50.2676 104.96C47.7649 104.96 45.7285 102.978 45.7285 100.542C45.7285 98.1061 47.7649 96.124 50.2676 96.124C52.7704 96.1232 54.8067 98.1053 54.8067 100.542ZM53.3828 100.542C53.3828 98.8702 51.9854 97.51 50.2676 97.51C48.5499 97.51 47.1524 98.8702 47.1524 100.542C47.1524 102.214 48.5499 103.574 50.2676 103.574C51.9854 103.574 53.3828 102.214 53.3828 100.542Z" fill="#2A365C"/>
<path d="M55.392 81.5752C54.9991 81.5752 54.6797 81.8853 54.6797 82.2686V85.3249C54.6797 85.7081 54.9983 86.0182 55.392 86.0182C55.7858 86.0182 56.1044 85.7081 56.1044 85.3249V82.2686C56.1044 81.8853 55.785 81.5752 55.392 81.5752Z" fill="#007CE6"/>
<path d="M55.392 76.2256C54.9991 76.2256 54.6797 76.5357 54.6797 76.919V79.9752C54.6797 80.3577 54.9983 80.6686 55.392 80.6686C55.7858 80.6686 56.1044 80.3585 56.1044 79.9752V76.919C56.1044 76.5365 55.785 76.2256 55.392 76.2256Z" fill="#007CE6"/>
<path d="M59.7946 80.4287H56.9741C56.5812 80.4287 56.2617 80.7388 56.2617 81.1221C56.2617 81.5045 56.5803 81.8154 56.9741 81.8154H59.7946C60.1875 81.8154 60.507 81.5053 60.507 81.1221C60.5061 80.7388 60.1875 80.4287 59.7946 80.4287Z" fill="#007CE6"/>
<path d="M53.8005 80.4287H50.9799C50.587 80.4287 50.2676 80.7388 50.2676 81.1221C50.2676 81.5045 50.5862 81.8154 50.9799 81.8154H53.8005C54.1934 81.8154 54.5128 81.5053 54.5128 81.1221C54.512 80.7388 54.1934 80.4287 53.8005 80.4287Z" fill="#007CE6"/>
<path d="M36.1479 86.4688C35.755 86.4688 35.4355 86.7789 35.4355 87.1621V90.2184C35.4355 90.6017 35.7542 90.9118 36.1479 90.9118C36.5408 90.9118 36.8603 90.6017 36.8603 90.2184V87.1621C36.8603 86.7789 36.5416 86.4688 36.1479 86.4688Z" fill="#61B3FF"/>
<path d="M36.1479 81.1201C35.755 81.1201 35.4355 81.4302 35.4355 81.8135V84.8698C35.4355 85.253 35.7542 85.5631 36.1479 85.5631C36.5408 85.5631 36.8603 85.253 36.8603 84.8698V81.8135C36.8603 81.4302 36.5416 81.1201 36.1479 81.1201Z" fill="#61B3FF"/>
<path d="M40.5544 85.3232H37.7338C37.3409 85.3232 37.0215 85.6334 37.0215 86.0166C37.0215 86.3999 37.3401 86.71 37.7338 86.71H40.5544C40.9473 86.71 41.2659 86.3999 41.2659 86.0166C41.2659 85.6342 40.9473 85.3232 40.5544 85.3232Z" fill="#61B3FF"/>
<path d="M34.5602 85.3232H31.7397C31.3468 85.3232 31.0273 85.6334 31.0273 86.0166C31.0273 86.3999 31.346 86.71 31.7397 86.71H34.5602C34.9531 86.71 35.2726 86.3999 35.2726 86.0166C35.2718 85.6342 34.9531 85.3232 34.5602 85.3232Z" fill="#61B3FF"/>
<path d="M50.7698 129.744V144.498C50.7698 145.443 49.9849 146.201 49.0207 146.201H33.8557C33.1904 146.201 32.6159 145.845 32.3163 145.315C32.2865 145.257 32.256 145.199 32.2387 145.14C32.209 145.052 32.1784 144.965 32.1487 144.872C32.1487 144.86 32.1429 144.854 32.1429 144.843C32.1429 144.831 32.1371 144.814 32.1371 144.802C32.119 144.703 32.1074 144.603 32.1074 144.499V129.744C32.1074 128.858 32.7967 128.141 33.6708 128.048C33.7311 128.048 33.7971 128.042 33.8565 128.042H49.0216C49.2015 128.042 49.3749 128.065 49.5366 128.118C49.5366 128.118 49.5366 128.118 49.5424 128.118C50.2548 128.333 50.7698 128.974 50.7698 129.744Z" fill="#2A365C"/>
<path d="M42.5422 142.129L42.5298 143.6L40.6098 143.585L40.6213 142.179C39.2602 142.089 37.942 141.721 37.1289 141.224L38.183 138.952C39.0778 139.476 40.273 139.817 41.3222 139.825C42.2343 139.833 42.5628 139.649 42.5661 139.331C42.576 138.165 37.2973 139.064 37.3262 135.604C37.3386 134.106 38.4661 132.855 40.7022 132.569L40.7146 131.124L42.6346 131.139L42.623 132.557C43.6301 132.659 44.6082 132.918 45.3817 133.348L44.3961 135.607C43.46 135.136 42.5768 134.903 41.7464 134.897C40.8071 134.89 40.505 135.152 40.5025 135.471C40.4934 136.584 45.7713 135.698 45.7424 139.118C45.7292 140.55 44.6561 141.787 42.5422 142.129Z" fill="#FEFDFF"/>
<path d="M350.485 232.239V247.011C350.485 247.957 349.699 248.716 348.734 248.716H333.55C332.884 248.716 332.309 248.36 332.008 247.828C331.979 247.77 331.948 247.712 331.93 247.653C331.9 247.566 331.87 247.478 331.84 247.385C331.84 247.373 331.834 247.367 331.834 247.356C331.834 247.344 331.829 247.327 331.829 247.315C331.81 247.215 331.799 247.116 331.799 247.011V232.239C331.799 231.351 332.489 230.633 333.365 230.54C333.425 230.54 333.491 230.534 333.55 230.534H348.734C348.914 230.534 349.088 230.557 349.25 230.61C349.25 230.61 349.25 230.61 349.255 230.61C349.969 230.826 350.485 231.469 350.485 232.239Z" fill="#61B3FF"/>
<path d="M341.333 234.229C338.106 234.229 335.48 236.784 335.48 239.926C335.48 243.067 338.105 245.622 341.333 245.622C344.56 245.622 347.185 243.067 347.185 239.926C347.184 236.784 344.56 234.229 341.333 234.229ZM341.568 242.028V240.033H344.214C344.197 240.738 344.092 241.409 343.901 242.028H341.568ZM343.226 244.302C343.656 243.771 343.997 243.161 344.243 242.487H346.025C345.271 243.791 344.007 244.709 342.521 245.035C342.772 244.816 343.008 244.57 343.226 244.302ZM343.741 242.487C343.52 243.047 343.226 243.557 342.867 244.005C342.306 244.702 341.746 245.057 341.568 245.159V242.488H343.741V242.487ZM341.568 237.121V234.693C341.637 234.696 341.708 234.7 341.778 234.706C342.071 234.948 342.988 235.775 343.613 237.122H341.568V237.121ZM344.126 237.121C343.916 236.63 343.652 236.16 343.338 235.721C343.111 235.404 342.862 235.106 342.597 234.834C343.944 235.151 345.125 235.975 345.875 237.121H344.126ZM341.568 239.575V237.579H343.804C344.046 238.222 344.183 238.893 344.21 239.575H341.568ZM344.682 239.575C344.656 238.897 344.529 238.226 344.304 237.579H346.144C346.466 238.204 346.654 238.875 346.702 239.575H344.682ZM346.712 240.033C346.698 240.726 346.546 241.397 346.261 242.028H344.391C344.57 241.405 344.668 240.734 344.684 240.033H346.712ZM338.329 242.028H336.405C336.119 241.397 335.967 240.726 335.953 240.033H338.036C338.052 240.734 338.15 241.405 338.329 242.028ZM339.107 237.121C339.288 236.728 339.508 236.349 339.761 235.994C340.253 235.304 340.746 234.867 340.948 234.701C340.998 234.698 341.047 234.695 341.098 234.693V237.121H339.107ZM341.098 237.579V239.575H338.51C338.537 238.895 338.674 238.224 338.915 237.579H341.098ZM336.79 237.121C337.555 235.953 338.762 235.123 340.138 234.818C339.867 235.094 339.613 235.398 339.382 235.721C339.068 236.16 338.803 236.63 338.593 237.121H336.79ZM341.098 240.033V242.028H338.819C338.628 241.411 338.523 240.741 338.507 240.033H341.098ZM335.963 239.575C336.01 238.876 336.199 238.205 336.522 237.579H338.416C338.19 238.226 338.063 238.897 338.038 239.575H335.963ZM338.478 242.487C338.723 243.161 339.065 243.772 339.495 244.302C339.717 244.576 339.958 244.827 340.216 245.049C338.717 244.738 337.398 243.795 336.64 242.487H338.478ZM341.098 242.487V245.126C340.742 244.91 339.63 244.129 338.98 242.487H341.098Z" fill="#FEFDFF"/>
<path d="M229.021 82.6094L231.114 83.2819L232.224 83.6378L235.369 84.6469C235.369 84.6469 282.215 47.7626 270.21 25.7909C266.515 19.0268 255.343 19.447 249.077 42.0606C243.269 63.0223 229.021 82.6094 229.021 82.6094Z" fill="#ABD3F2"/>
<path d="M231.117 83.2812L232.227 83.6372C241.638 73.9935 248.901 62.5959 253.48 54.4072C258.917 44.684 261.854 37.2546 261.882 37.1807C261.987 36.9155 261.851 36.6175 261.578 36.5178C261.305 36.4158 260.999 36.5484 260.896 36.8127C260.867 36.8874 257.951 44.2646 252.543 53.93C247.941 62.1588 240.612 73.6472 231.117 83.2812Z" fill="#90C3EF"/>
<path d="M106.881 277.086L104.818 277.216L103.723 277.284L100.624 277.479C100.624 277.479 67.0177 233.251 83.2343 216.054C88.2266 210.76 98.2673 213.702 98.4844 235.671C98.6858 256.036 106.881 277.086 106.881 277.086Z" fill="#ABD3F2"/>
<path d="M104.819 277.216L103.724 277.284C97.5135 266.371 93.6776 254.358 91.5018 245.873C88.9181 235.798 88.0498 228.379 88.0424 228.306C88.011 228.041 88.2074 227.803 88.479 227.774C88.7514 227.743 88.9966 227.934 89.0271 228.198C89.0354 228.273 89.8979 235.639 92.4684 245.654C94.6566 254.182 98.5296 266.292 104.819 277.216Z" fill="#90C3EF"/>
<path d="M117.259 283.752L114.849 285.479L113.57 286.394L109.948 288.988C109.948 288.988 33.494 260.615 39.4652 227.325C41.3035 217.077 55.9047 213.031 73.7945 239.647C90.3785 264.319 117.259 283.752 117.259 283.752Z" fill="#CAE6FE"/>
<path d="M114.847 285.479L113.568 286.394C97.2411 277.81 82.9263 266.081 73.4667 257.392C62.2341 247.074 55.2228 238.691 55.1551 238.607C54.9042 238.308 54.9521 237.867 55.2608 237.626C55.5678 237.381 56.0202 237.428 56.2695 237.726C56.3396 237.81 63.3006 246.135 74.4696 256.391C83.9771 265.123 98.4157 276.943 114.847 285.479Z" fill="#ABD3F2"/>
<path d="M218.156 89.7044L220.462 91.852L221.685 92.9905L225.15 96.2155C225.15 96.2155 309.974 76.4051 308.343 40.4126C307.841 29.3324 292.973 23.1089 270.313 48.8656C249.309 72.7414 218.156 89.7044 218.156 89.7044Z" fill="#CAE6FE"/>
<path d="M220.459 91.8517L221.682 92.9902C240.152 86.091 256.937 75.5973 268.16 67.6705C281.488 58.2582 290.079 50.3291 290.163 50.2496C290.471 49.9667 290.482 49.4951 290.19 49.1979C289.899 48.899 289.415 48.8877 289.109 49.1705C289.024 49.2509 280.493 57.1246 267.241 66.4798C255.96 74.4435 239.033 85.016 220.459 91.8517Z" fill="#ABD3F2"/>
<path d="M66.3604 65.6196C69.5086 74.5659 78.7899 73.9143 78.9013 81.2754C79.0119 88.6341 83.9926 94.0276 90.46 92.4207C96.929 90.8123 101.597 89.2777 104.881 96.4725C108.164 103.667 117.809 106.946 121.322 101.022C122.197 99.5481 123.143 97.9508 124.067 96.3833C124.32 95.9551 124.571 95.5285 124.819 95.1091C124.877 95.0118 124.935 94.9146 124.992 94.8182C128.711 88.5136 127.055 80.4206 121.002 76.1615C118.551 74.4382 115.669 73.5287 112.488 74.5796C102.525 77.8672 105.744 67.8508 99.5613 63.9131C92.4402 59.3761 86.7331 65.0588 81.8192 61.1485C74.9837 55.71 63.2121 56.6733 66.3604 65.6196Z" fill="#ABD3F2"/>
<path d="M78.5555 69.056L124.067 96.3834C124.32 95.9552 124.571 95.5285 124.819 95.1091L79.3488 67.8058C78.9939 67.5929 78.5291 67.6998 78.3104 68.0445C78.0908 68.3899 78.2006 68.8431 78.5555 69.056Z" fill="#90C3EF"/>
<path d="M73.3511 15.6414C71.9652 27.2688 82.6893 31.3583 78.78 39.6377C74.8724 47.9147 77.4799 56.5244 85.5841 58.0871C93.6908 59.649 99.7454 60.3576 99.4714 70.0985C99.1957 79.8394 108.172 88.5069 115.341 83.7144C117.128 82.5229 119.058 81.2286 120.949 79.9583C121.466 79.6113 121.981 79.2658 122.487 78.9251C122.605 78.8472 122.723 78.7685 122.839 78.6897C130.447 73.5782 133.032 63.6799 128.605 55.7804C126.813 52.5835 124.092 50.0712 119.962 49.5939C107.033 48.0947 116.117 38.5772 111.368 30.9702C105.899 22.2063 96.4115 25.5912 93.0659 18.6719C88.4137 9.04834 74.737 4.01399 73.3511 15.6414Z" fill="#CAE6FE"/>
<path d="M85.09 25.8102L120.951 79.958C121.467 79.611 121.982 79.2655 122.488 78.9248L86.66 24.8252C86.3802 24.4034 85.8024 24.2812 85.369 24.5528C84.9365 24.826 84.811 25.3884 85.09 25.8102Z" fill="#ABD3F2"/>
<path d="M268.698 213.171C259.465 216.114 260.01 225.156 252.446 225.165C244.885 225.174 239.278 229.949 240.841 236.264C242.406 242.582 243.92 247.145 236.483 250.245C229.048 253.343 225.549 262.685 231.587 266.185C233.09 267.057 234.718 267.998 236.316 268.919C236.752 269.17 237.186 269.421 237.615 269.667C237.714 269.725 237.813 269.783 237.911 269.839C244.337 273.544 252.673 272.042 257.131 266.209C258.934 263.847 259.908 261.054 258.871 257.944C255.628 248.203 265.875 251.471 270.003 245.506C274.76 238.636 268.998 233.006 273.082 228.277C278.763 221.698 277.932 210.227 268.698 213.171Z" fill="#ABD3F2"/>
<path d="M265.005 224.994L236.318 268.92C236.755 269.172 237.189 269.422 237.618 269.669L266.279 225.783C266.502 225.44 266.399 224.986 266.048 224.769C265.696 224.552 265.229 224.652 265.005 224.994Z" fill="#90C3EF"/>
<path d="M303.81 231.916C291.884 230.41 287.538 240.793 279.085 236.877C270.634 232.961 261.755 235.384 260.041 243.25C258.327 251.119 257.517 257.002 247.514 256.604C237.511 256.204 228.486 264.823 233.312 271.866C234.512 273.621 235.815 275.517 237.095 277.375C237.445 277.882 237.792 278.389 238.136 278.886C238.214 279.002 238.293 279.117 238.374 279.231C243.522 286.705 253.656 289.355 261.83 285.153C265.138 283.451 267.756 280.837 268.302 276.824C270.017 264.261 279.671 273.231 287.55 268.711C296.627 263.507 293.278 254.228 300.43 251.065C310.378 246.664 315.736 233.422 303.81 231.916Z" fill="#CAE6FE"/>
<path d="M293.205 243.204L237.096 277.376C237.446 277.883 237.793 278.39 238.137 278.887L294.196 244.747C294.633 244.48 294.766 243.919 294.493 243.493C294.219 243.067 293.642 242.937 293.205 243.204Z" fill="#ABD3F2"/>
<path d="M114.723 187.138C103.056 174.053 82.2917 148.258 75.8945 137.897C67.5369 124.362 63.8761 113.351 65.0127 105.171C65.0886 104.629 65.6004 104.248 66.1584 104.321C66.7156 104.395 67.106 104.894 67.0309 105.437C65.0432 119.735 76.9948 140.632 115.741 185.348L114.723 187.138Z" fill="#ABD3F2"/>
<path d="M69.4768 125.227C69.4768 125.227 62.6834 130.214 54.1426 118.246C54.1426 118.246 66.7652 113.482 69.4768 125.227Z" fill="#CAE6FE"/>
<path d="M73.5523 131.618C73.5523 131.618 68.059 125.294 79.8603 116.327C79.8603 116.327 85.4485 128.33 73.5523 131.618Z" fill="#CAE6FE"/>
<path d="M66.08 111.51C66.08 111.51 58.7344 107.331 66.789 95.0469C66.789 95.0469 76.1694 104.549 66.08 111.51Z" fill="#CAE6FE"/>
<path d="M81.3435 144.723C81.3435 144.723 76.6839 151.653 64.4863 143.202C64.4863 143.202 74.7103 134.565 81.3435 144.723Z" fill="#CAE6FE"/>
<path d="M86.5096 150.624C86.5096 150.624 79.9754 145.319 90.0053 134.501C90.0053 134.501 97.6423 145.382 86.5096 150.624Z" fill="#CAE6FE"/>
<path d="M92.7566 159.385C92.7566 159.385 88.2324 166.399 75.873 158.176C75.873 158.176 85.9261 149.351 92.7566 159.385Z" fill="#CAE6FE"/>
<path d="M194.248 69.0064C200.303 52.7134 206.487 39.1674 212.665 28.6817C220.736 14.9823 228.831 6.50518 236.724 3.48585C237.247 3.2858 237.837 3.53647 238.044 4.04585C238.249 4.55523 237.992 5.13049 237.468 5.33055C223.671 10.6083 208.872 34.2978 194.627 73.8784L194.248 69.0064Z" fill="#ABD3F2"/>
<path d="M220.907 17.0541C220.907 17.0541 213.122 13.7102 219.697 0.618164C219.697 0.618164 230.121 9.02616 220.907 17.0541Z" fill="#CAE6FE"/>
<path d="M217.156 23.6327C217.156 23.6327 220.153 15.8811 233.948 21.5429C233.948 21.5429 225.904 32.1411 217.156 23.6327Z" fill="#CAE6FE"/>
<path d="M231.555 7.48247C231.555 7.48247 231.726 -0.79778 246.67 0.0627039C246.67 0.0627039 242.716 12.6655 231.555 7.48247Z" fill="#CAE6FE"/>
<path d="M209.198 36.6408C209.198 36.6408 200.71 36.0567 202.349 21.5723C202.349 21.5723 215.08 26.0523 209.198 36.6408Z" fill="#CAE6FE"/>
<path d="M206.42 43.9058C206.42 43.9058 207.995 35.767 222.588 39.0209C222.588 39.0209 216.547 50.8138 206.42 43.9058Z" fill="#CAE6FE"/>
<path d="M201.603 53.4849C201.603 53.4849 193.105 53.0575 194.461 38.5449C194.461 38.5449 207.277 42.7903 201.603 53.4849Z" fill="#CAE6FE"/>
<path d="M250.383 63.3224V297.455C250.383 304.795 244.272 310.743 236.732 310.743H116.945C113.156 310.743 109.732 309.243 107.258 306.819C104.809 304.415 103.295 301.108 103.295 297.455V63.3224C103.295 55.983 109.406 50.0352 116.946 50.0352H236.733C238.961 50.0352 241.066 50.5542 242.925 51.4781C247.353 53.6739 250.383 58.1523 250.383 63.3224Z" fill="#2A365C"/>
<path d="M250.383 63.3228V297.456C250.383 304.795 244.272 310.743 236.732 310.743H116.945C113.156 310.743 109.732 309.243 107.258 306.819L242.924 51.4785C247.353 53.6743 250.383 58.1527 250.383 63.3228Z" fill="#16162F"/>
<path d="M103.295 123.084H101.322C99.6537 123.084 98.3008 121.767 98.3008 120.143V95.0929C98.3008 93.4692 99.6537 92.1523 101.322 92.1523H103.295V123.084Z" fill="#16162F"/>
<path d="M250.385 114.991H251.999C253.365 114.991 254.471 113.914 254.471 112.585V92.2102C254.471 90.8813 253.365 89.8047 251.999 89.8047H250.385V114.991Z" fill="#16162F"/>
<path d="M103.295 158.213H101.322C99.6537 158.213 98.3008 156.897 98.3008 155.272V130.222C98.3008 128.598 99.6537 127.281 101.322 127.281H103.295V158.213Z" fill="#16162F"/>
<path d="M243.573 62.7443V298.033C243.573 301.391 240.775 304.115 237.326 304.115H116.351C113.779 304.115 111.571 302.602 110.614 300.44C110.284 299.702 110.104 298.889 110.104 298.033V62.7443C110.104 59.3851 112.9 56.6631 116.351 56.6631H237.326C238.239 56.6631 239.105 56.8527 239.885 57.1958C242.058 58.1462 243.573 60.2729 243.573 62.7443Z" fill="#FEFDFF"/>
<path d="M231.228 236.574H157.589C156.251 236.574 155.166 235.518 155.166 234.216C155.166 232.913 156.251 231.857 157.589 231.857H231.228C232.566 231.857 233.651 232.913 233.651 234.216C233.651 235.517 232.566 236.574 231.228 236.574Z" fill="#CAE6FE"/>
<path d="M231.228 246.789H157.589C156.251 246.789 155.166 245.734 155.166 244.431C155.166 243.129 156.251 242.073 157.589 242.073H231.228C232.566 242.073 233.651 243.129 233.651 244.431C233.651 245.734 232.566 246.789 231.228 246.789Z" fill="#CAE6FE"/>
<path d="M231.228 257.007H157.589C156.251 257.007 155.166 255.951 155.166 254.649C155.166 253.347 156.251 252.291 157.589 252.291H231.228C232.566 252.291 233.651 253.347 233.651 254.649C233.651 255.951 232.566 257.007 231.228 257.007Z" fill="#CAE6FE"/>
<path d="M148.598 231.864H122.779V256.995H148.598V231.864Z" fill="#CAE6FE"/>
<path d="M165.286 87.2617H125.2C123.862 87.2617 122.777 88.3174 122.777 89.6198C122.777 90.9222 123.862 91.9779 125.2 91.9779H165.286C166.624 91.9779 167.709 90.9222 167.709 89.6198C167.709 88.3174 166.624 87.2617 165.286 87.2617Z" fill="#CAE6FE"/>
<path d="M165.286 97.4795H125.2C123.862 97.4795 122.777 98.5352 122.777 99.8376C122.777 101.14 123.862 102.196 125.2 102.196H165.286C166.624 102.196 167.709 101.14 167.709 99.8376C167.709 98.5352 166.624 97.4795 165.286 97.4795Z" fill="#CAE6FE"/>
<path d="M165.286 107.695H125.2C123.862 107.695 122.777 108.751 122.777 110.053C122.777 111.356 123.862 112.412 125.2 112.412H165.286C166.624 112.412 167.709 111.356 167.709 110.053C167.709 108.751 166.624 107.695 165.286 107.695Z" fill="#CAE6FE"/>
<path d="M231.157 87.2617H191.071C189.733 87.2617 188.648 88.3174 188.648 89.6198C188.648 90.9222 189.733 91.9779 191.071 91.9779H231.157C232.495 91.9779 233.58 90.9222 233.58 89.6198C233.58 88.3174 232.495 87.2617 231.157 87.2617Z" fill="#CAE6FE"/>
<path d="M231.157 97.4795H191.071C189.733 97.4795 188.648 98.5352 188.648 99.8376C188.648 101.14 189.733 102.196 191.071 102.196H231.157C232.495 102.196 233.58 101.14 233.58 99.8376C233.58 98.5352 232.495 97.4795 231.157 97.4795Z" fill="#CAE6FE"/>
<path d="M231.157 107.695H191.071C189.733 107.695 188.648 108.751 188.648 110.053C188.648 111.356 189.733 112.412 191.071 112.412H231.157C232.495 112.412 233.58 111.356 233.58 110.053C233.58 108.751 232.495 107.695 231.157 107.695Z" fill="#CAE6FE"/>
<path d="M207.973 291.386H146.403C142.496 291.386 139.33 288.303 139.33 284.502V275.509C139.33 271.706 142.497 268.624 146.403 268.624H207.973C211.88 268.624 215.046 271.706 215.046 275.509V284.502C215.047 288.303 211.88 291.386 207.973 291.386Z" fill="#2A365C"/>
<path d="M149.845 288V272.282H155.156C156.384 272.282 157.392 272.492 158.18 272.911C158.967 273.326 159.551 273.896 159.929 274.623C160.308 275.349 160.497 276.176 160.497 277.102C160.497 278.028 160.308 278.849 159.929 279.565C159.551 280.282 158.97 280.845 158.187 281.254C157.404 281.658 156.404 281.86 155.186 281.86H150.889V280.141H155.125C155.964 280.141 156.639 280.018 157.151 279.773C157.668 279.527 158.041 279.179 158.272 278.729C158.507 278.274 158.625 277.731 158.625 277.102C158.625 276.473 158.507 275.922 158.272 275.452C158.036 274.981 157.66 274.618 157.143 274.362C156.627 274.101 155.944 273.971 155.094 273.971H151.748V288H149.845ZM157.243 280.939L161.111 288H158.901L155.094 280.939H157.243ZM163.669 288V272.282H173.155V273.971H165.572V279.281H172.664V280.97H165.572V286.312H173.278V288H163.669ZM189.049 272.282V288H187.207L178.642 275.659H178.489V288H176.585V272.282H178.427L187.023 284.654H187.177V272.282H189.049ZM191.998 273.971V272.282H203.787V273.971H198.844V288H196.941V273.971H191.998Z" fill="#16162F"/>
<path d="M151.899 288V272.282H157.21C158.438 272.282 159.446 272.492 160.234 272.911C161.022 273.326 161.605 273.896 161.984 274.623C162.363 275.349 162.552 276.176 162.552 277.102C162.552 278.028 162.363 278.849 161.984 279.565C161.605 280.282 161.025 280.845 160.242 281.254C159.459 281.658 158.459 281.86 157.241 281.86H152.943V280.141H157.18C158.019 280.141 158.694 280.018 159.206 279.773C159.723 279.527 160.096 279.179 160.326 278.729C160.562 278.274 160.679 277.731 160.679 277.102C160.679 276.473 160.562 275.922 160.326 275.452C160.091 274.981 159.715 274.618 159.198 274.362C158.681 274.101 157.998 273.971 157.149 273.971H153.803V288H151.899ZM159.298 280.939L163.166 288H160.956L157.149 280.939H159.298ZM165.724 288V272.282H175.21V273.971H167.627V279.281H174.718V280.97H167.627V286.312H175.332V288H165.724ZM191.104 272.282V288H189.262L180.697 275.659H180.544V288H178.64V272.282H180.482L189.078 284.654H189.231V272.282H191.104ZM194.053 273.971V272.282H205.841V273.971H200.899V288H198.996V273.971H194.053Z" fill="#FEFDFF"/>
<path d="M129.91 58.511L136.527 68.3098C138.373 71.0431 141.508 72.6893 144.869 72.6893H208.812C212.172 72.6893 215.308 71.0431 217.153 68.3098L223.77 58.511C223.77 57.4955 222.916 56.6631 221.871 56.6631H131.809C130.766 56.6631 129.91 57.4963 129.91 58.511Z" fill="#2A365C"/>
<path d="M198.567 65.5953H143.778C142.664 65.5953 141.754 64.7083 141.754 63.6253C141.754 62.5415 142.665 61.6553 143.778 61.6553H198.567C199.681 61.6553 200.591 62.5423 200.591 63.6253C200.591 64.7083 199.68 65.5953 198.567 65.5953Z" fill="#445279"/>
<path d="M211.331 63.4934C211.331 64.799 210.243 65.858 208.902 65.858C207.561 65.858 206.473 64.7998 206.473 63.4934C206.473 62.1878 207.56 61.1289 208.902 61.1289C210.244 61.1289 211.331 62.1878 211.331 63.4934Z" fill="#445279"/>
<path d="M234.785 160.685H119.543V211.648H234.785V160.685Z" fill="#009EF3"/>
<path d="M234.785 160.685H119.543V164.731H234.785V160.685Z" fill="#007CE6"/>
<path d="M234.785 157.654H119.543L128.515 136.979H225.812L234.785 157.654Z" fill="#445279"/>
<path d="M238.442 157.514H114.424V160.685H238.442V157.514Z" fill="#2A365C"/>
<path d="M201.43 211.648H152.898V172.117L177.816 158.938L201.43 170.822V211.648Z" fill="#009EF3"/>
<path d="M154.204 175.72H150.123V211.647H154.204V175.72Z" fill="#007CE6"/>
<path d="M204.257 175.72H200.176V211.647H204.257V175.72Z" fill="#007CE6"/>
<path d="M185.466 185.041H168.863V211.714H185.466V185.041Z" fill="#2A365C"/>
<path d="M183.795 186.668H170.533V211.714H183.795V186.668Z" fill="#445279"/>
<path d="M182.945 199.95C182.945 200.699 182.322 201.306 181.553 201.306C180.783 201.306 180.16 200.699 180.16 199.95C180.16 199.201 180.783 198.595 181.553 198.595C182.322 198.595 182.945 199.201 182.945 199.95Z" fill="#2A365C"/>
<path d="M187.414 185.042H166.915C166.232 185.042 165.678 184.503 165.678 183.837V183.051H188.652V183.837C188.651 184.503 188.098 185.042 187.414 185.042Z" fill="#2A365C"/>
<path d="M176.434 188.506H172.342V196.614H176.434V188.506Z" fill="#CAE6FE"/>
<path d="M176.434 188.827V191.226L172.342 195.207V192.808L176.434 188.827Z" fill="#FEFDFF"/>
<path opacity="0.2" d="M176.434 188.506H172.342V189.652H176.434V188.506Z" fill="black"/>
<path d="M182.207 188.506H178.115V196.614H182.207V188.506Z" fill="#CAE6FE"/>
<path d="M182.207 188.827V191.226L178.115 195.207V192.808L182.207 188.827Z" fill="#FEFDFF"/>
<path opacity="0.2" d="M182.207 188.506H178.115V189.652H182.207V188.506Z" fill="black"/>
<path d="M238.442 157.536H114.424V155.828C114.424 154.384 115.627 153.213 117.111 153.213H235.756C237.24 153.213 238.442 154.384 238.442 155.828V157.536H238.442Z" fill="#2A365C"/>
<path d="M213.676 175.757L207.03 175.739L200.12 175.72L177.162 160.656L154.203 175.72L147.293 175.739L140.646 175.757L177.162 151.799L213.676 175.757Z" fill="#445279"/>
<path d="M207.032 175.739L200.122 175.72L177.164 160.656L154.205 175.72L147.295 175.739L177.164 156.141L207.032 175.739Z" fill="#2A365C"/>
<path d="M140.826 182.646H131.039V200.424H140.826V182.646Z" fill="#CAE6FE"/>
<path d="M140.827 182.646H137.378L131.066 188.79V193.809L140.827 184.309V182.646Z" fill="#FEFDFF"/>
<path d="M140.827 190.164L131.066 199.666V200.424H132.863L140.827 192.673V190.164Z" fill="#FEFDFF"/>
<path d="M129.703 181.345V201.725H140.828V181.345H129.703ZM131.041 182.646H139.466V190.863H131.041V182.646ZM131.041 200.423V192.206H139.466V200.423H131.041Z" fill="#445279"/>
<path opacity="0.2" d="M140.827 181.456H129.703V183.555H140.827V181.456Z" fill="black"/>
<path d="M141.961 181.344H128.572C128.007 181.344 127.549 180.898 127.549 180.348V179.697H142.985V180.348C142.985 180.898 142.526 181.344 141.961 181.344Z" fill="#2A365C"/>
<path d="M140.83 201.725H129.705V203.81H140.83V201.725Z" fill="#007CE6"/>
<path d="M226.953 182.646H217.166V200.424H226.953V182.646Z" fill="#CAE6FE"/>
<path d="M226.956 182.646H223.507L217.195 188.79V193.809L226.956 184.309V182.646Z" fill="#FEFDFF"/>
<path d="M226.956 190.164L217.195 199.666V200.424H218.992L226.956 192.673V190.164Z" fill="#FEFDFF"/>
<path d="M215.83 181.345V201.725H226.955V181.345H215.83ZM217.168 182.646H225.593V190.863H217.168V182.646ZM217.168 200.423V192.206H225.593V200.423H217.168Z" fill="#445279"/>
<path opacity="0.2" d="M226.956 181.456H215.832V183.555H226.956V181.456Z" fill="black"/>
<path d="M228.09 181.344H214.701C214.136 181.344 213.678 180.898 213.678 180.348V179.697H229.113V180.348C229.113 180.898 228.655 181.344 228.09 181.344Z" fill="#2A365C"/>
<path d="M226.957 201.725H215.832V203.81H226.957V201.725Z" fill="#007CE6"/>
<path d="M223.332 141.09H131.627C131.304 141.09 131.043 140.836 131.043 140.522V139.78C131.043 139.466 131.305 139.212 131.627 139.212H223.332C223.654 139.212 223.916 139.467 223.916 139.78V140.522C223.916 140.836 223.654 141.09 223.332 141.09Z" fill="#2A365C"/>
<path d="M224.558 146.03H129.687C129.364 146.03 129.104 145.775 129.104 145.462V144.719C129.104 144.405 129.365 144.151 129.687 144.151H224.559C224.882 144.151 225.143 144.406 225.143 144.719V145.462C225.143 145.775 224.881 146.03 224.558 146.03Z" fill="#2A365C"/>
<path d="M228.531 150.97H126.795C126.472 150.97 126.211 150.716 126.211 150.402V149.66C126.211 149.346 126.473 149.092 126.795 149.092H228.531C228.854 149.092 229.115 149.346 229.115 149.66V150.402C229.116 150.716 228.854 150.97 228.531 150.97Z" fill="#2A365C"/>
<path d="M148.14 130.451H135.271V144.58H148.14V130.451Z" fill="#009EF3"/>
<path d="M148.14 130.451H135.271V134.081H148.14V130.451Z" fill="#007CE6"/>
<path d="M150.826 125.67V127.348C150.826 127.593 150.797 127.831 150.74 128.06C150.41 129.429 149.146 130.45 147.639 130.45H135.771C134.264 130.45 132.999 129.429 132.67 128.06C132.614 127.831 132.584 127.593 132.584 127.348V125.67H150.826Z" fill="#445279"/>
<path d="M150.739 128.06C150.408 129.429 149.144 130.45 147.637 130.45H135.769C134.262 130.45 132.997 129.429 132.668 128.06H150.739Z" fill="#2A365C"/>
<path d="M236.924 214.809H117.267C116.725 214.809 116.285 214.381 116.285 213.853V212.605C116.285 212.077 116.725 211.648 117.267 211.648H236.924C237.466 211.648 237.906 212.077 237.906 212.605V213.853C237.906 214.381 237.467 214.809 236.924 214.809Z" fill="#445279"/>
<path d="M239.962 217.92H114.224C113.682 217.92 113.242 217.491 113.242 216.963V215.715C113.242 215.187 113.682 214.759 114.224 214.759H239.962C240.504 214.759 240.944 215.187 240.944 215.715V216.963C240.944 217.492 240.504 217.92 239.962 217.92Z" fill="#2A365C"/>
<path d="M154.207 175.757V180.558L177.481 165.977L200.178 180.558L200.124 175.757L177.166 160.693L154.207 175.757Z" fill="#007CE6"/>
<path opacity="0.3" d="M243.575 62.7448V298.034C243.575 301.391 240.777 304.115 237.327 304.115H116.353C113.781 304.115 111.573 302.602 110.615 300.441L239.886 57.1963C242.059 58.1468 243.575 60.2735 243.575 62.7448Z" fill="#FEFDFF"/>
<path d="M33.6794 267.749L43.7102 271.016C44.9789 271.428 46.3508 270.762 46.7734 269.528L55.2763 244.796L58.7935 234.568L44.1716 229.804L42.0882 235.863L32.1515 264.766C31.7264 265.999 32.4107 267.334 33.6794 267.749Z" fill="#61B3FF"/>
<path d="M42.0879 235.863C44.9976 239.01 49.3988 242.718 55.276 244.796L58.7932 234.568L44.1713 229.804L42.0879 235.863Z" fill="#009EF3"/>
<path d="M43.235 270.86L42.2569 273.707L29.6606 310.346C28.8211 312.787 26.1096 314.102 23.6019 313.286C21.0967 312.469 19.7429 309.829 20.5832 307.389L31.9908 274.209L34.1576 267.903L43.235 270.86Z" fill="#2A365C"/>
<path d="M43.2344 270.86L42.2563 273.707L31.9902 274.209L34.157 267.903L43.2344 270.86Z" fill="#16162F"/>
<path d="M22.8278 182.525C15.1124 204.593 27.2356 228.573 49.9105 236.084C72.5846 243.595 97.2199 231.791 104.936 209.723C112.652 187.654 100.528 163.673 77.8542 156.162C55.1793 148.652 30.544 160.456 22.8278 182.525ZM29.1234 184.611C35.6461 165.955 56.5446 155.942 75.7114 162.291C94.8781 168.639 105.162 188.982 98.6397 207.638C92.1179 226.291 71.2193 236.304 52.0525 229.956C32.8866 223.608 22.6016 203.264 29.1234 184.611Z" fill="#445279"/>
<path opacity="0.5" d="M27.2576 198.633C28.6782 218.289 46.2635 233.157 66.4595 231.774C68.1913 231.656 69.8893 231.422 71.5426 231.079C75.8267 230.192 79.8177 228.584 83.3861 226.397C87.1072 224.117 90.3685 221.209 93.0206 217.839C97.1932 212.545 99.8635 206.109 100.469 199.168C100.629 197.349 100.644 195.494 100.509 193.617C99.0884 173.96 81.5032 159.091 61.3071 160.474C59.3781 160.606 57.4936 160.881 55.6636 161.289C48.6878 162.845 42.5126 166.322 37.7135 171.084C34.6561 174.111 32.155 177.662 30.3588 181.567C28.6345 185.312 27.5573 189.384 27.2552 193.637C27.1363 195.279 27.1355 196.948 27.2576 198.633Z" fill="#FEFDFF"/>
<path opacity="0.5" d="M37.7109 171.084L93.0189 217.838C97.1915 212.545 99.8618 206.108 100.468 199.168L55.661 161.289C48.6852 162.845 42.5101 166.322 37.7109 171.084Z" fill="#FEFDFF"/>
<path opacity="0.5" d="M27.252 193.636L71.5411 231.078C75.8251 230.191 79.8161 228.583 83.3845 226.396L30.3564 181.566C28.6313 185.311 27.5541 189.383 27.252 193.636Z" fill="#FEFDFF"/>
<path d="M272.404 292.795L271.941 300.904L278.699 301.048L279.526 292.53L272.404 292.795Z" fill="#FBA691"/>
<path d="M274.622 299.764C274.622 299.764 278.101 298.997 279.053 299.051C280.005 299.104 286.114 306.283 288.246 306.772C292.112 307.657 291.887 313.578 289.505 313.784C282.615 314.381 270.996 311.129 270.996 311.129C270.996 311.129 270.211 303.492 270.774 301.125C271.336 298.758 272.68 300.394 274.622 299.764Z" fill="#009EF3"/>
<path d="M280.048 306.457C279.924 306.479 279.793 306.453 279.683 306.376C279.471 306.225 279.425 305.937 279.579 305.73C279.631 305.661 280.861 304.032 282.326 303.504C284.274 302.798 285.594 303.97 285.651 304.02C285.843 304.194 285.853 304.487 285.674 304.674C285.495 304.861 285.194 304.871 285.002 304.697C284.965 304.665 284.043 303.872 282.656 304.371C281.463 304.802 280.359 306.26 280.348 306.276C280.273 306.374 280.164 306.437 280.048 306.457Z" fill="#FEFDFF"/>
<path d="M278.791 305.009C278.668 305.031 278.536 305.005 278.426 304.928C278.214 304.778 278.167 304.489 278.322 304.282C278.374 304.213 279.604 302.585 281.068 302.056C283.018 301.35 284.338 302.521 284.393 302.572C284.585 302.746 284.595 303.039 284.416 303.226C284.238 303.413 283.937 303.423 283.744 303.248C283.708 303.217 282.785 302.423 281.398 302.923C280.2 303.356 279.101 304.812 279.09 304.826C279.015 304.927 278.907 304.988 278.791 305.009Z" fill="#FEFDFF"/>
<path d="M281.836 307.716C281.713 307.738 281.581 307.712 281.471 307.635C281.259 307.485 281.212 307.196 281.367 306.989C281.419 306.92 282.649 305.291 284.113 304.763C286.063 304.057 287.383 305.229 287.438 305.279C287.63 305.453 287.64 305.745 287.461 305.932C287.283 306.119 286.982 306.129 286.789 305.954C286.753 305.923 285.83 305.129 284.443 305.629C283.245 306.062 282.146 307.518 282.135 307.532C282.061 307.633 281.952 307.695 281.836 307.716Z" fill="#FEFDFF"/>
<path d="M297.253 193.999C297.253 193.999 297.113 195.903 296.857 199.061C296.791 199.896 296.716 200.82 296.634 201.824C295.759 212.422 294.067 231.584 292.218 245.178C289.626 264.236 281.462 295.554 281.462 295.554L273.034 295.273L272.201 295.24L270.203 295.176C270.203 295.176 271.606 275.363 273.398 258.162C274.578 246.817 275.28 219.974 275.618 203.022C275.791 194.28 275.874 188.166 275.874 188.166L297.253 193.999Z" fill="#2A365C"/>
<path d="M297.254 193.999C297.254 193.999 297.114 195.903 296.858 199.061C296.792 199.896 296.717 200.82 296.635 201.824C292.747 202.532 282.058 203.022 275.619 203.022C275.792 194.28 275.875 188.166 275.875 188.166L297.254 193.999Z" fill="#16162F"/>
<path d="M280.418 198.923C280.41 199.574 279.634 261.334 273.039 295.272L272.205 295.239C278.809 261.407 279.585 199.558 279.593 198.915L280.418 198.923Z" fill="#16162F"/>
<path d="M325.26 294.351L324.984 301.665L318.115 301.312L317.959 293.545L325.26 294.351Z" fill="#FBA691"/>
<path d="M323.238 301.329C323.238 301.329 324.734 299.431 325.899 299.53C327.064 299.629 335.95 306.717 339.022 307.336C342.094 307.954 341.462 310.153 340.88 311.274C340.298 312.394 316.312 310.495 316.312 310.495C316.312 310.495 315.758 303.53 316.576 301.413C317.391 299.297 320.821 301.798 323.238 301.329Z" fill="#009EF3"/>
<path d="M328.135 306.256C328.025 306.285 327.904 306.274 327.798 306.213C327.593 306.095 327.525 305.838 327.646 305.638C327.686 305.571 328.651 303.994 329.927 303.391C331.624 302.587 332.923 303.533 332.978 303.574C333.167 303.714 333.203 303.979 333.058 304.163C332.914 304.347 332.643 304.382 332.453 304.24C332.417 304.215 331.513 303.577 330.304 304.147C329.264 304.638 328.398 306.051 328.389 306.065C328.331 306.162 328.238 306.227 328.135 306.256Z" fill="#FEFDFF"/>
<path d="M326.868 305.055C326.759 305.085 326.637 305.074 326.531 305.013C326.326 304.895 326.257 304.638 326.378 304.438C326.419 304.371 327.384 302.794 328.659 302.191C330.358 301.387 331.656 302.333 331.711 302.374C331.9 302.514 331.936 302.779 331.791 302.963C331.646 303.147 331.375 303.182 331.186 303.04C331.15 303.015 330.245 302.376 329.036 302.947C327.992 303.441 327.13 304.851 327.122 304.865C327.063 304.961 326.971 305.027 326.868 305.055Z" fill="#FEFDFF"/>
<path d="M329.864 307.241C329.754 307.272 329.633 307.26 329.527 307.199C329.322 307.081 329.253 306.824 329.374 306.624C329.415 306.557 330.38 304.98 331.656 304.377C333.355 303.573 334.653 304.518 334.708 304.559C334.897 304.7 334.932 304.964 334.788 305.148C334.643 305.332 334.372 305.367 334.183 305.226C334.147 305.2 333.241 304.562 332.033 305.133C330.989 305.626 330.127 307.036 330.119 307.051C330.06 307.147 329.967 307.213 329.864 307.241Z" fill="#FEFDFF"/>
<path d="M326.511 296.259L319.529 295.754L318.697 295.697L317 295.574C317 295.574 312.711 255.839 311.377 245.254C310.218 236.059 304.803 215.399 301.286 202.544C300.29 198.895 299.446 195.875 298.89 193.923C298.466 192.389 298.215 191.516 298.215 191.516L321.558 189.316C321.558 189.316 321.623 189.815 321.73 190.714C321.957 192.552 322.394 196.074 322.921 200.501C324.379 212.551 326.596 231.303 327.455 240.849C329.658 265.43 326.511 296.259 326.511 296.259Z" fill="#2A365C"/>
<path d="M322.922 200.502L301.287 202.544C300.291 198.894 299.446 195.874 298.891 193.923L321.731 190.714C321.958 192.553 322.395 196.075 322.922 200.502Z" fill="#16162F"/>
<path d="M319.53 295.753L318.698 295.697C318.292 283.41 317.053 252.722 314.524 239.713C311.345 223.314 304.036 199.435 303.961 199.194L304.756 198.964C304.831 199.206 312.153 223.126 315.336 239.566C317.881 252.656 319.13 283.491 319.53 295.753Z" fill="#16162F"/>
<path d="M320.232 132.562C320.69 135.532 321.163 138.381 321.576 140.767C322.239 144.615 322.741 147.259 322.741 147.259L326.323 157.25C327.55 160.667 331.625 162.203 334.898 160.481C334.954 160.454 335.017 160.431 335.067 160.393C336.261 159.498 337.211 157.76 338.094 153.671C338.094 153.671 338.094 153.671 338.094 153.669C338.122 153.316 341.296 138.07 341.324 132.582L334.068 131.911C333.757 131.251 332.2 139.093 331.855 138.369C331.635 137.903 331.407 137.421 331.176 136.934C330.791 136.125 330.391 135.289 329.985 134.435C329.407 133.224 328.811 131.976 328.208 130.717C323.772 121.426 319.048 111.595 319.048 111.595C317.516 112.428 318.783 123.105 320.232 132.562Z" fill="#FBA691"/>
<path d="M320.232 132.562C320.69 135.532 321.163 138.381 321.575 140.767C325.789 139.225 328.488 136.439 329.983 134.435C329.406 133.224 328.81 131.975 328.208 130.718L320.232 132.562Z" fill="#FD857D"/>
<path d="M329.869 150.436C329.893 150.438 329.915 150.436 329.94 150.436C330.164 150.423 330.35 150.252 330.371 150.029C330.859 144.697 331.449 140.744 331.856 138.37C331.635 137.903 331.406 137.421 331.175 136.935C330.785 139.029 330.045 143.486 329.451 149.949C329.429 150.195 329.614 150.412 329.869 150.436Z" fill="#FD857D"/>
<path d="M332.861 130.149C332.861 130.149 331.976 131.306 330.387 132.612C328.463 134.201 324.869 136.226 321.209 136.472C317.697 125.743 316.592 112.211 317.655 108.631C319.467 110.559 328.691 121.29 332.861 130.149Z" fill="#61B3FF"/>
<path d="M330.386 130.333L330.501 130.4L331.478 130.946L331.709 130.545L340.196 130.319C340.913 130.302 341.502 129.761 341.565 129.065L343.125 111.8C343.133 111.714 343.135 111.628 343.125 111.547L343.451 111.061L342.427 110.489L342.387 110.468L342.358 110.452C342.155 110.353 341.924 110.297 341.68 110.304L332.68 110.545C331.962 110.561 331.374 111.102 331.313 111.797L329.753 129.062C329.707 129.588 329.969 130.064 330.386 130.333Z" fill="#2A365C"/>
<path d="M332.23 131.131L341.228 130.893C341.945 130.873 342.533 130.334 342.596 129.639L344.155 112.372C344.23 111.553 343.554 110.855 342.71 110.877L333.713 111.116C332.995 111.135 332.407 111.674 332.344 112.37L330.785 129.637C330.711 130.455 331.386 131.154 332.23 131.131Z" fill="#445279"/>
<path d="M343.474 119.932C344.307 120.025 343.616 121.217 344.166 122.887C344.851 124.968 341.302 133.518 341.302 133.518C337.856 135.042 333.719 132.367 333.719 132.367C333.719 132.367 332.832 125.853 333.659 122.909C333.659 122.909 334.148 120.279 334.292 118.735C334.434 117.202 335.137 115.443 335.635 115.755C336.134 116.066 336.258 117.32 336.268 118.271C336.278 119.222 336.476 121.041 336.476 121.041C336.476 121.041 336.744 118.794 336.785 117.555C336.826 116.317 336.728 114.349 337.503 113.962C338.478 113.476 338.756 116.114 338.881 117.07C339.006 118.026 338.62 120.998 338.62 120.998C338.62 120.998 339.285 117.664 339.118 116.676C338.95 115.688 338.74 113.76 338.79 112.943C338.841 112.126 339.919 112.261 340.243 113.266C340.567 114.272 340.939 116.294 341.028 116.971C341.142 117.835 340.925 120.711 340.925 120.711C340.925 120.711 341.348 117.436 341.321 116.57C341.299 115.867 341.076 114.478 341.333 113.668C341.59 112.858 342.588 112.704 342.907 114.832C343.224 116.959 343.278 117.211 343.216 117.848C343.108 118.97 342.911 120.214 343.042 120.676C343.108 120.906 343.38 120.91 343.38 120.91L343.474 119.932Z" fill="#FBA691"/>
<path d="M325.339 191.074C307.951 196.465 290.275 197.49 272.309 194.193C271.963 189.431 271.056 173.803 270.37 157.333C270.346 156.787 270.323 156.241 270.301 155.693C270.285 155.255 270.268 154.817 270.249 154.376C270.236 154.06 270.222 153.742 270.211 153.424C270.204 153.279 270.2 153.134 270.195 152.989C270.176 152.559 270.164 152.12 270.146 151.692C270.13 151.333 270.112 150.975 270.1 150.616C270.099 150.567 270.096 150.516 270.095 150.467C270.094 150.422 270.091 150.379 270.091 150.334C270.073 149.958 270.063 149.578 270.048 149.205C270.045 149.132 270.041 149.058 270.039 148.986C270.025 148.533 270.006 148.081 269.992 147.63C269.979 147.318 269.968 147.012 269.956 146.706C269.953 146.582 269.949 146.457 269.944 146.333C269.926 145.986 269.915 145.638 269.907 145.294C269.902 145.19 269.9 145.086 269.897 144.982C269.888 144.665 269.879 144.347 269.87 144.029C269.866 143.894 269.864 143.76 269.859 143.625C269.846 143.172 269.824 142.722 269.82 142.276C269.801 141.837 269.789 141.407 269.779 140.978C269.768 140.691 269.759 140.406 269.749 140.12C269.729 139.497 269.714 138.881 269.701 138.271C269.33 124.162 269.373 112.586 270.412 111.001C272.826 107.33 284.504 101.419 288.028 98.6861L288.063 99.2502C288.063 99.2502 290.551 102.082 293.132 101.708C295.476 101.376 297.115 98.6138 297.388 98.1133C299.299 99.2638 303.654 101.044 307.888 102.972C312.12 104.892 316.232 106.946 317.658 108.63C318.878 110.081 320.242 121.367 321.484 135.225L321.487 135.27C321.509 135.529 321.534 135.787 321.556 136.044L321.559 136.083C321.571 136.283 321.592 136.482 321.613 136.689C321.623 136.815 321.633 136.94 321.645 137.067C321.669 137.35 321.697 137.637 321.72 137.924C321.754 138.351 321.795 138.78 321.831 139.217C321.865 139.661 321.901 140.111 321.944 140.561C321.955 140.696 321.965 140.83 321.977 140.964C322.003 141.281 322.029 141.599 322.059 141.914C322.067 142.017 322.074 142.121 322.083 142.225C322.11 142.567 322.138 142.915 322.166 143.261L322.196 143.633C322.219 143.938 322.244 144.244 322.27 144.555C322.304 145.004 322.34 145.456 322.377 145.908C322.382 145.979 322.388 146.052 322.395 146.125C322.422 146.498 322.452 146.876 322.481 147.252C322.484 147.297 322.489 147.34 322.491 147.385C322.495 147.434 322.5 147.485 322.503 147.534C322.533 147.891 322.56 148.25 322.589 148.608C322.623 149.035 322.659 149.464 322.686 149.902C322.697 150.047 322.708 150.191 322.719 150.335C322.745 150.653 322.769 150.97 322.793 151.286C322.826 151.724 322.859 152.161 322.891 152.6C322.931 153.146 322.971 153.691 323.011 154.237C324.211 170.628 325.108 186.263 325.339 191.074Z" fill="#61B3FF"/>
<path d="M321.977 140.964L269.869 144.028C269.865 143.893 269.863 143.759 269.859 143.624C269.845 143.171 269.823 142.721 269.819 142.275C269.8 141.836 269.789 141.406 269.779 140.978C269.767 140.69 269.758 140.405 269.748 140.119L321.644 137.066C321.668 137.349 321.696 137.636 321.719 137.923C321.753 138.35 321.795 138.779 321.83 139.216C321.864 139.66 321.9 140.11 321.943 140.561C321.954 140.696 321.965 140.83 321.977 140.964Z" fill="#009EF3"/>
<path d="M322.504 147.534L270.101 150.616C270.1 150.567 270.097 150.516 270.096 150.467C270.095 150.422 270.092 150.379 270.092 150.334C270.074 149.958 270.064 149.578 270.049 149.205C270.046 149.132 270.042 149.058 270.04 148.986C270.026 148.533 270.007 148.081 269.993 147.63C269.98 147.318 269.969 147.012 269.957 146.706L322.197 143.634C322.22 143.939 322.246 144.244 322.271 144.555C322.305 145.005 322.341 145.457 322.378 145.908C322.383 145.98 322.389 146.053 322.396 146.126C322.423 146.499 322.453 146.877 322.482 147.253C322.485 147.298 322.49 147.341 322.492 147.386C322.496 147.434 322.501 147.485 322.504 147.534Z" fill="#009EF3"/>
<path d="M323.011 154.237L270.369 157.333C270.346 156.787 270.322 156.24 270.301 155.693C270.284 155.255 270.268 154.817 270.249 154.376C270.236 154.06 270.222 153.742 270.211 153.424L322.719 150.336C322.745 150.653 322.769 150.971 322.792 151.286C322.826 151.724 322.859 152.161 322.891 152.601C322.931 153.146 322.972 153.692 323.011 154.237Z" fill="#009EF3"/>
<path d="M315.708 128.347C317.352 130.257 319.852 134.656 320.978 136.692C321.132 136.971 321.259 137.206 321.357 137.383C321.485 137.617 321.556 137.752 321.562 137.763C321.598 137.832 321.652 137.886 321.717 137.923C321.682 137.509 321.646 137.098 321.609 136.688C321.593 136.484 321.573 136.281 321.556 136.081L321.553 136.048C321.323 135.633 321.051 135.147 320.747 134.612C319.472 132.38 317.664 129.375 316.339 127.834C316.194 127.665 315.935 127.643 315.76 127.785C315.585 127.926 315.565 128.178 315.708 128.347Z" fill="#009EF3"/>
<path d="M280.857 114.827C280.861 114.827 280.866 114.827 280.87 114.827C287.889 114.195 293.138 111.029 296.305 108.483C299.736 105.726 301.486 103.153 301.559 103.044C301.684 102.859 301.63 102.612 301.441 102.491C301.25 102.37 300.997 102.422 300.872 102.606C300.803 102.708 293.818 112.859 280.795 114.031C280.569 114.051 280.403 114.246 280.424 114.466C280.444 114.681 280.637 114.84 280.857 114.827Z" fill="#009EF3"/>
<path d="M311.194 182.45C311.408 182.437 311.579 182.265 311.58 182.053C311.581 181.832 311.398 181.652 311.171 181.651C299.588 181.594 292.353 176.308 288.323 171.884C283.942 167.074 282.285 162.208 282.268 162.159C282.198 161.949 281.967 161.834 281.751 161.903C281.535 161.971 281.417 162.196 281.487 162.406C281.554 162.61 283.201 167.455 287.686 172.389C291.829 176.946 299.265 182.391 311.167 182.451C311.177 182.451 311.185 182.451 311.194 182.45Z" fill="#009EF3"/>
<path d="M301.414 175.764C301.594 175.753 301.753 175.626 301.791 175.446C301.837 175.23 301.694 175.018 301.471 174.973C291.282 172.925 288.841 164.889 288.817 164.808C288.756 164.596 288.529 164.472 288.311 164.532C288.094 164.591 287.966 164.811 288.027 165.024C288.052 165.113 288.67 167.21 290.619 169.593C292.412 171.785 295.722 174.634 301.305 175.757C301.343 175.764 301.379 175.766 301.414 175.764Z" fill="#009EF3"/>
<path d="M274.761 129.443C273.367 131.531 271.428 136.192 270.562 138.345C270.445 138.639 270.347 138.888 270.273 139.077C270.174 139.322 270.12 139.466 270.117 139.476C270.058 139.629 269.914 139.726 269.756 139.735L269.748 139.736C269.739 139.533 269.733 139.329 269.726 139.127C269.605 139.134 269.484 139.142 269.367 139.144C269.415 139.024 269.531 138.728 269.696 138.312C269.904 137.789 270.193 137.071 270.534 136.254C271.523 133.887 272.947 130.693 274.071 129.009C274.195 128.823 274.449 128.77 274.639 128.891C274.832 129.011 274.884 129.26 274.761 129.443Z" fill="#009EF3"/>
<path d="M278.675 74.0684C278.675 74.0684 277.51 69.0557 278.665 67.2584C279.821 65.4611 281.913 65.8564 283.991 63.7458C286.07 61.6343 292.888 63.136 295.79 62.4466C297.386 62.0674 299.117 62.1775 300.677 61.7725C302.909 61.1941 304.253 63.3079 303.843 65.4909C303.582 66.88 303.003 68.977 301.001 69.635C301.001 69.635 281.284 67.3211 278.675 74.0684Z" fill="#2A365C"/>
<path d="M278.48 78.138C278.935 85.4702 283.887 90.2498 291.419 89.8071C298.952 89.3644 303.864 83.6231 303.408 76.2909C302.953 68.9595 298.148 63.6664 290.616 64.1099C281.581 64.641 278.024 70.8058 278.48 78.138Z" fill="#2A365C"/>
<path d="M280.368 81.1948C280.368 81.1948 278.107 78.6021 276.69 80.9393C275.274 83.2765 277.885 89.7812 281.595 87.9373L280.368 81.1948Z" fill="#FD857D"/>
<path d="M280.637 85.9368C280.496 85.9448 280.361 85.8621 280.312 85.7263C279.595 83.7128 277.364 83.0106 277.342 83.0042C277.172 82.9528 277.077 82.776 277.13 82.6113C277.183 82.4458 277.364 82.3534 277.533 82.4048C277.637 82.4362 280.096 83.2027 280.922 85.5206C280.981 85.6845 280.892 85.8629 280.723 85.9199C280.694 85.9295 280.666 85.9352 280.637 85.9368Z" fill="#F05B56"/>
<path d="M278.369 85.0348C278.31 85.038 278.248 85.026 278.192 84.9955C278.037 84.9103 277.981 84.7191 278.069 84.568C278.084 84.5431 278.434 83.9478 279.219 83.5485C279.376 83.4681 279.571 83.5276 279.654 83.6818C279.736 83.8353 279.675 84.0249 279.517 84.1053C278.91 84.4138 278.633 84.8709 278.631 84.8758C278.576 84.9722 278.475 85.0284 278.369 85.0348Z" fill="#F05B56"/>
<path d="M301.937 79.9267C301.937 79.9267 303.861 77.0873 305.556 79.2422C307.252 81.397 305.464 88.1595 301.553 86.764L301.937 79.9267Z" fill="#FD857D"/>
<path d="M302.263 84.6637C302.403 84.6557 302.527 84.5568 302.558 84.4162C303.021 82.3337 305.15 81.3752 305.171 81.3656C305.332 81.2941 305.405 81.1085 305.332 80.951C305.26 80.7927 305.068 80.722 304.906 80.7935C304.807 80.8369 302.461 81.8854 301.927 84.2837C301.889 84.4532 302 84.6203 302.174 84.6573C302.204 84.6637 302.234 84.6653 302.263 84.6637Z" fill="#F05B56"/>
<path d="M304.392 83.5033C304.452 83.5001 304.511 83.48 304.563 83.443C304.707 83.3402 304.738 83.1441 304.633 83.0043C304.615 82.981 304.194 82.4315 303.366 82.127C303.2 82.0651 303.013 82.1479 302.95 82.3102C302.888 82.4725 302.972 82.6532 303.139 82.7143C303.779 82.9497 304.11 83.3707 304.113 83.3755C304.18 83.4647 304.287 83.5097 304.392 83.5033Z" fill="#F05B56"/>
<path d="M297.076 92.6738L297.486 99.2709C297.486 99.2709 295.673 102.749 292.954 103.139C290.238 103.532 287.618 100.549 287.618 100.549L287.193 93.7207L297.076 92.6738Z" fill="#FBA691"/>
<path d="M297.076 92.6738L297.257 95.6008C295.546 97.6897 292.319 98.3758 287.457 97.9669L287.193 93.7207L297.076 92.6738Z" fill="#FD857D"/>
<path d="M279.253 81.1364C279.304 81.5172 279.361 81.9013 279.424 82.291C279.587 83.2671 279.786 84.269 280.033 85.2629C280.042 85.2982 280.049 85.332 280.058 85.3625C281.269 90.1735 283.613 94.8351 288.117 96.1093C298.321 98.9929 301.371 90.4475 302.496 85.5031C302.619 84.9544 302.725 84.3454 302.81 83.6978C302.813 83.6729 302.816 83.6456 302.821 83.6158C302.915 82.8879 302.988 82.115 303.04 81.3196C303.079 80.7307 303.107 80.1337 303.128 79.532C303.183 78.0713 303.187 76.609 303.17 75.3123C303.132 72.35 301.146 69.7388 298.237 68.8454C294.045 67.5535 287.75 66.705 282.058 70.3044C279.954 71.6325 278.728 73.9384 278.83 76.376C278.888 77.721 279.011 79.3705 279.253 81.1364Z" fill="#FBA691"/>
<path d="M287.22 81.3149C287.264 82.0187 286.926 82.6116 286.467 82.6389C286.007 82.6662 285.598 82.1167 285.555 81.4129C285.511 80.7091 285.848 80.1161 286.308 80.0888C286.768 80.0623 287.177 80.611 287.22 81.3149Z" fill="#2A365C"/>
<path d="M297.435 80.7153C297.479 81.4191 297.141 82.0121 296.682 82.0394C296.222 82.0667 295.813 81.5171 295.769 80.8133C295.726 80.1095 296.063 79.5166 296.523 79.4893C296.983 79.4619 297.391 80.0107 297.435 80.7153Z" fill="#2A365C"/>
<path d="M298.606 76.2935C298.606 76.2935 295.916 75.4371 293.945 76.4068L294.216 77.4898C294.216 77.4898 297.17 77.0704 298.703 77.5726C298.81 77.1436 298.803 76.7161 298.606 76.2935Z" fill="#2A365C"/>
<path d="M283.022 77.2091C283.022 77.2091 285.586 76.0441 287.662 76.7753L287.528 77.8824C287.528 77.8824 284.543 77.8125 283.084 78.4906C282.924 78.0776 282.878 77.6526 283.022 77.2091Z" fill="#2A365C"/>
<path d="M291.847 86.4574C291.312 86.553 290.743 86.4461 290.655 86.4277C290.48 86.3923 290.369 86.226 290.405 86.0565C290.441 85.8869 290.612 85.7777 290.787 85.813C291.095 85.8749 291.816 85.9295 292.081 85.7021C292.132 85.658 292.198 85.5776 292.182 85.3864C292.093 84.2873 291.107 80.728 291.096 80.6919C291.05 80.5248 291.151 80.352 291.323 80.307C291.496 80.2612 291.672 80.3609 291.719 80.528C291.76 80.6766 292.731 84.1804 292.825 85.3366C292.86 85.772 292.671 86.0316 292.506 86.173C292.326 86.328 292.09 86.4132 291.847 86.4574Z" fill="#FD857D"/>
<path d="M287.562 88.596C287.906 89.8695 288.927 92.1882 291.874 92.0155C294.827 91.8419 295.521 89.6269 295.713 88.1172L287.562 88.596Z" fill="#FEFDFF"/>
<path d="M303.114 79.9133L301.654 79.9993C301.727 78.5635 301.087 76.8723 300.577 75.7499C299.418 73.2046 301.47 71.932 299.673 70.7292C297.876 69.5232 293.639 70.3347 290.662 70.4159C287.667 70.4978 282.867 70.8208 281.718 71.1526C280.565 71.4812 281.323 73.3323 281.842 74.7705C282.364 76.2054 280.601 77.9328 280.382 79.4642C280.319 79.9037 280.378 80.548 280.493 81.243L279.278 81.3145C279.019 79.4811 278.89 77.7673 278.83 76.375C278.728 73.9373 279.954 71.6315 282.057 70.3034C287.75 66.704 294.046 67.5508 298.236 68.8427C301.145 69.7378 303.133 72.3481 303.172 75.3112C303.189 76.7204 303.181 78.3241 303.114 79.9133Z" fill="#2A365C"/>
<path d="M292.806 81.4858C292.678 79.4266 294.295 77.651 296.411 77.5264C298.526 77.4019 300.35 78.9758 300.478 81.0351C300.606 83.0943 298.989 84.8699 296.874 84.9944C294.759 85.1189 292.934 83.545 292.806 81.4858ZM293.404 81.4504C293.513 83.1883 295.053 84.5172 296.838 84.4119C298.624 84.3067 299.989 82.8075 299.881 81.0696C299.773 79.3318 298.232 78.0029 296.447 78.1081C294.661 78.2134 293.296 79.7126 293.404 81.4504Z" fill="#FEFDFF"/>
<path d="M282.318 82.102C282.19 80.0428 283.807 78.2672 285.922 78.1427C288.037 78.0181 289.861 79.5921 289.989 81.6513C290.117 83.7105 288.5 85.4861 286.385 85.6106C284.271 85.7344 282.446 84.1604 282.318 82.102ZM282.916 82.0667C283.024 83.8045 284.565 85.1334 286.35 85.0281C288.135 84.9229 289.501 83.4237 289.392 81.6858C289.284 79.948 287.744 78.6191 285.959 78.7243C284.173 78.8296 282.808 80.3288 282.916 82.0667Z" fill="#FEFDFF"/>
<path d="M299.75 79.8699C299.826 79.8651 299.901 79.8329 299.956 79.7735C299.972 79.7558 301.613 78.0083 303.931 78.3924C304.094 78.4197 304.249 78.3128 304.277 78.1537C304.305 77.9947 304.195 77.8444 304.032 77.8171C301.381 77.3776 299.584 79.3027 299.509 79.3846C299.4 79.5051 299.41 79.6891 299.534 79.796C299.595 79.8506 299.674 79.8747 299.75 79.8699Z" fill="#FEFDFF"/>
<path d="M282.822 80.8664C282.919 80.8607 283.012 80.8085 283.064 80.7193C283.146 80.5795 283.097 80.402 282.953 80.3216C282.834 80.2558 280.014 78.7107 277.727 79.2169C277.566 79.2523 277.465 79.4089 277.502 79.5656C277.538 79.7223 277.697 79.8211 277.86 79.7849C279.918 79.3294 282.629 80.8125 282.657 80.8278C282.708 80.8575 282.766 80.8696 282.822 80.8664Z" fill="#FEFDFF"/>
<path d="M289.728 80.8247C289.734 80.8151 290.387 79.8381 291.321 79.7835C292.245 79.7288 292.945 80.6247 292.953 80.6343L293.434 80.2864C293.398 80.239 292.538 79.1279 291.285 79.2018C290.042 79.2749 289.256 80.4624 289.223 80.513L289.728 80.8247Z" fill="#FEFDFF"/>
<path d="M273.403 187.248L270.01 191.756C270.01 191.756 268.045 190.558 265.379 188.478C265.371 188.469 265.371 188.469 265.363 188.461C261.302 185.304 255.614 180.106 252.709 173.991C249.077 166.351 250.142 160.164 250.142 160.164C250.62 155.633 253.741 146.425 256.225 139.588C257.133 137.106 257.959 134.944 258.536 133.426L266.122 135.121L269.366 137.065L268.12 140.271L259.75 161.884C260.484 168.223 263.786 174.457 266.964 179.15C270.249 184.018 273.403 187.248 273.403 187.248Z" fill="#FBA691"/>
<path d="M273.403 187.248L270.01 191.755C270.01 191.755 268.046 190.558 265.379 188.477C265.371 188.469 265.371 188.469 265.363 188.461C264.777 185.055 265.132 180.242 266.964 179.149C270.25 184.018 273.403 187.248 273.403 187.248Z" fill="#FD857D"/>
<path d="M271.589 182.047C272.271 182.091 275.912 182.267 275.518 181.054C275.084 179.717 271.511 178.151 271.511 178.151C271.511 178.151 271.491 178.083 271.525 177.993L271.486 177.708L271.329 174.834C270.639 174.839 270.005 174.97 269.661 175.073C268.096 175.545 268.31 179.031 268.31 179.031C268.31 179.031 266.336 179.718 266.407 181.126C266.479 182.533 268.07 182.745 268.07 182.745C268.07 182.745 265.897 183.8 266.405 184.997C266.913 186.193 268.56 186.545 268.56 186.545C268.56 186.545 266.696 187.741 267.348 188.586C267.998 189.43 269.517 189.853 269.517 189.853C269.517 189.853 268.217 191.566 269.538 192.499C270.859 193.433 272.803 193.23 274.052 192.808C275.302 192.386 275.085 190.838 272.626 189.711C272.626 189.711 274.796 189.923 275.879 188.163C276.784 186.696 274.477 186.062 272.509 185.81C274.055 185.911 276.723 185.868 277.181 184.433C277.781 182.549 272.424 182.105 271.589 182.047Z" fill="#FBA691"/>
<path d="M269.366 137.065L268.119 140.271C265.602 140.424 261.095 140.496 256.225 139.588C257.133 137.106 257.958 134.944 258.536 133.426L266.122 135.121L269.366 137.065Z" fill="#FD857D"/>
<path d="M270.41 111C270.41 111 261.177 120.016 254.436 135.742C259.719 137.405 264.721 138.582 269.365 139.145C269.978 138.097 272.4 131.372 274.226 126.52L270.41 111Z" fill="#61B3FF"/>
</svg>
