<svg width="39" height="39" viewBox="0 0 39 39" fill="none" xmlns="http://www.w3.org/2000/svg">
<g clip-path="url(#clip0_555_3984)">
<path d="M31.4334 36.9385C31.7678 36.9385 32.0978 37.0657 32.3488 37.3081C33.9533 38.8575 36.2938 39.3734 38.3744 38.7276C37.0353 35.9381 36.8498 32.7422 37.8874 29.7831C39.1752 26.1015 39.4979 22.4114 38.0323 18.7104C36.7448 15.4592 34.2601 12.7581 31.1154 11.2178C31.3089 12.2491 31.4064 13.3 31.4064 14.362C31.4065 18.8697 29.6731 23.1093 26.5259 26.3C23.3783 29.491 19.159 31.2853 14.6453 31.3524C13.8067 31.3655 12.9719 31.3162 12.1465 31.2074C14.6271 35.5556 19.3056 38.3875 24.4466 38.4638C26.6956 38.4986 28.855 38.0274 30.866 37.067C31.0471 36.9805 31.241 36.9385 31.4334 36.9385Z" fill="white"/>
<path d="M14.6827 0.00286555C6.67551 -0.156127 0.0193503 6.32154 4.34177e-05 14.327C-0.00468678 16.2829 0.377108 18.1792 1.1349 19.9635C1.14591 19.9895 1.15614 20.0158 1.16541 20.0424C2.20306 23.0015 2.01762 26.1973 0.678489 28.9869C2.75929 29.6323 5.09949 29.1168 6.70409 27.5673C7.09939 27.1854 7.69086 27.0892 8.18686 27.3263C10.1976 28.2866 12.3573 28.7593 14.6061 28.7232C22.5506 28.6052 28.7737 22.2972 28.7736 14.3623C28.7737 6.60062 22.4525 0.159059 14.6827 0.00286555ZM6.71277 16.5073C5.56237 16.5073 4.62975 15.5762 4.62975 14.4277C4.62975 13.2793 5.56237 12.3482 6.71277 12.3482C7.86318 12.3482 8.7958 13.2793 8.7958 14.4277C8.7957 15.5762 7.86318 16.5073 6.71277 16.5073ZM14.3869 16.5073C13.2365 16.5073 12.3039 15.5762 12.3039 14.4277C12.3039 13.2793 13.2365 12.3482 14.3869 12.3482C15.5373 12.3482 16.4699 13.2793 16.4699 14.4277C16.4699 15.5762 15.5373 16.5073 14.3869 16.5073ZM22.0611 16.5073C20.9107 16.5073 19.9781 15.5762 19.9781 14.4277C19.9781 13.2793 20.9107 12.3482 22.0611 12.3482C23.2115 12.3482 24.1441 13.2793 24.1441 14.4277C24.1441 15.5762 23.2115 16.5073 22.0611 16.5073Z" fill="white"/>
</g>
<defs>
<clipPath id="clip0_555_3984">
<rect width="39" height="39" fill="white"/>
</clipPath>
</defs>
</svg>
