<svg width="39" height="39" viewBox="0 0 39 39" fill="none" xmlns="http://www.w3.org/2000/svg">
<g clip-path="url(#clip0_555_3968)">
<path d="M36.6807 0.703697C36.3769 0.263329 35.8764 0 35.3417 0H17.873C15.1853 0 12.998 2.18726 12.998 4.875V6.14076C13.0614 6.19789 13.1343 6.24163 13.1944 6.30352L19.6946 12.8034C20.6158 13.7231 21.1228 14.9484 21.1228 16.2499C21.1228 17.5517 20.6158 18.777 19.6946 19.6967L13.1944 26.1966C13.1343 26.2567 13.0614 26.3007 12.998 26.359V29.25C12.998 31.9377 15.1853 34.125 17.873 34.125H23.5603C24.2349 34.125 24.8392 33.709 25.0781 33.0785L36.8595 2.20363C37.0511 1.70464 36.983 1.14407 36.6807 0.703697Z" fill="white"/>
<path d="M9.12558 24.2518C8.51948 23.9998 8.12315 23.4068 8.12315 22.7504V17.8754H1.62295C0.726143 17.8754 -0.00195312 17.1473 -0.00195312 16.2502C-0.00195312 15.3534 0.726143 14.6253 1.62295 14.6253H8.12315V9.7503C8.12315 9.09392 8.51948 8.50061 9.12558 8.24888C9.73347 7.99686 10.4321 8.13671 10.8969 8.60148L17.3968 15.1014C18.0323 15.7369 18.0323 16.7638 17.3968 17.399L10.8969 23.8992C10.4321 24.364 9.73347 24.5035 9.12558 24.2518Z" fill="white"/>
<path d="M34.7127 0.160653L24.9499 3.41551C23.6321 3.87046 22.748 5.11034 22.748 6.49958V35.7496C22.748 37.542 24.2054 38.9997 25.9978 38.9997C26.3457 38.9997 26.6757 38.9494 27.033 38.8387L36.7961 35.5838C38.1139 35.1289 38.9979 33.889 38.9979 32.4998V3.24978C38.9979 1.10953 36.9163 -0.517158 34.7127 0.160653Z" fill="#D5D5D5"/>
</g>
<defs>
<clipPath id="clip0_555_3968">
<rect width="39" height="39" fill="white" transform="translate(-0.00195312)"/>
</clipPath>
</defs>
</svg>
