<svg width="41" height="41" viewBox="0 0 41 41" fill="none" xmlns="http://www.w3.org/2000/svg">
<path d="M20.0599 34.5604C20.1803 34.6716 20.3382 34.7334 20.5021 34.7334C20.666 34.7334 20.8238 34.6716 20.9442 34.5604C25.107 30.5629 33.5588 21.2981 33.4983 15.5593C33.5017 13.8504 33.1681 12.1577 32.5165 10.5779C31.8649 8.99811 30.9081 7.56236 29.7009 6.3528C28.4938 5.14324 27.0599 4.18362 25.4815 3.52888C23.903 2.87413 22.2109 2.53711 20.502 2.53711C18.7931 2.53711 17.101 2.87412 15.5226 3.52886C13.9441 4.1836 12.5102 5.14322 11.3031 6.35277C10.0959 7.56233 9.13915 8.99808 8.48754 10.5779C7.83593 12.1576 7.50227 13.8504 7.50566 15.5593C7.43981 21.2882 15.9009 30.5737 20.0599 34.5604ZM14.9651 15.5593C15.2594 8.21984 25.7458 8.22191 26.0389 15.5593C26.0389 17.0278 25.4556 18.4361 24.4172 19.4745C23.3788 20.5129 21.9705 21.0962 20.502 21.0962C19.0335 21.0962 17.6252 20.5128 16.5868 19.4745C15.5484 18.4361 14.9651 17.0277 14.9651 15.5593ZM34.6583 34.0925C34.6094 39.8863 6.39448 39.8864 6.3457 34.0925C6.3457 32.0162 10.005 30.7665 14.1448 30.1705C14.4362 30.5227 14.8533 30.974 15.1638 31.3241C10.0306 31.9393 7.62739 33.2722 7.62739 34.0925C7.62739 35.3486 12.6452 37.1686 20.502 37.1686C28.3588 37.1686 33.3767 35.3486 33.3767 34.0925C33.3767 33.2722 30.9735 31.9393 25.8403 31.3241L26.2889 30.8242C26.4812 30.6063 26.6734 30.3884 26.8592 30.1705C30.9991 30.7666 34.6583 32.0162 34.6583 34.0925Z" fill="white"/>
</svg>
