<svg width="440" height="386" viewBox="0 0 440 386" fill="none" xmlns="http://www.w3.org/2000/svg">
<g opacity="0.2">
<path opacity="0.037" d="M234.346 294.478C234.618 264.557 183.068 239.831 119.205 239.25C55.3428 238.669 3.35121 262.453 3.07894 292.373C2.80666 322.294 54.3568 347.02 118.219 347.601C182.082 348.182 234.074 324.398 234.346 294.478Z" fill="#141414"/>
<path opacity="0.0741" d="M231.768 294.455C232.035 265.201 181.633 241.026 119.193 240.458C56.7534 239.89 5.9201 263.144 5.65389 292.398C5.38768 321.651 55.7893 345.827 118.229 346.395C180.669 346.963 231.502 323.709 231.768 294.455Z" fill="#141414"/>
<path opacity="0.1111" d="M229.195 294.432C229.455 265.844 180.202 242.22 119.185 241.664C58.1679 241.109 8.4929 263.834 8.23275 292.421C7.97261 321.008 57.2259 344.633 118.243 345.188C179.26 345.743 228.935 323.019 229.195 294.432Z" fill="#141414"/>
<path opacity="0.1481" d="M226.62 294.408C226.874 266.487 178.769 243.414 119.175 242.871C59.5805 242.329 11.0637 264.524 10.8097 292.444C10.5556 320.365 58.6604 343.439 118.255 343.981C177.849 344.523 226.366 322.329 226.62 294.408Z" fill="#141414"/>
<path opacity="0.1852" d="M224.041 294.386C224.289 267.132 177.332 244.609 119.161 244.079C60.9892 243.55 13.6307 265.215 13.3827 292.469C13.1346 319.723 60.091 342.246 118.263 342.775C176.434 343.304 223.793 321.64 224.041 294.386Z" fill="#141414"/>
<path opacity="0.2222" d="M221.465 294.361C221.707 267.773 175.899 245.801 119.151 245.285C62.4017 244.769 16.2015 265.903 15.9596 292.491C15.7176 319.078 61.5255 341.05 118.274 341.567C175.023 342.083 221.223 320.948 221.465 294.361Z" fill="#141414"/>
<path opacity="0.2593" d="M218.89 294.338C219.126 268.418 174.467 246.996 119.14 246.493C63.8143 245.989 18.7724 266.594 18.5365 292.515C18.3006 318.436 62.9601 339.857 118.286 340.361C173.612 340.864 218.654 320.259 218.89 294.338Z" fill="#141414"/>
<path opacity="0.2963" d="M216.313 294.315C216.543 269.06 173.032 248.19 119.128 247.7C65.2248 247.209 21.3412 267.284 21.1114 292.538C20.8816 317.793 64.3926 338.663 118.296 339.154C172.199 339.644 216.083 319.569 216.313 294.315Z" fill="#141414"/>
<path opacity="0.3333" d="M213.739 294.289C213.963 269.702 171.6 249.382 119.12 248.905C66.6393 248.427 23.914 267.972 23.6903 292.56C23.4665 317.148 65.8291 337.467 118.31 337.945C170.79 338.422 213.515 318.877 213.739 294.289Z" fill="#141414"/>
<path opacity="0.3704" d="M211.16 294.266C211.378 270.345 170.164 250.576 119.106 250.112C68.048 249.647 26.481 268.662 26.2633 292.583C26.0456 316.505 67.2597 336.273 118.318 336.738C169.376 337.202 210.943 318.187 211.16 294.266Z" fill="#141414"/>
<path opacity="0.4074" d="M208.585 294.242C208.796 270.988 168.731 251.77 119.096 251.318C69.4606 250.866 29.0518 269.352 28.8402 292.607C28.6286 315.861 68.6942 335.079 118.329 335.531C167.964 335.982 208.373 317.497 208.585 294.242Z" fill="#141414"/>
<path opacity="0.4444" d="M206.012 294.22C206.217 271.632 167.3 252.965 119.088 252.526C70.8751 252.087 31.6246 270.043 31.4191 292.631C31.2135 315.219 70.1308 333.886 118.343 334.325C166.556 334.763 205.806 316.808 206.012 294.22Z" fill="#141414"/>
<path opacity="0.4815" d="M203.432 294.196C203.632 272.275 165.863 254.159 119.073 253.733C72.2838 253.307 34.1915 270.733 33.9921 292.654C33.7926 314.576 71.5613 332.692 118.351 333.118C165.141 333.543 203.233 316.118 203.432 294.196Z" fill="#141414"/>
<path opacity="0.5185" d="M200.857 294.174C201.051 272.919 164.43 255.354 119.063 254.941C73.6963 254.528 36.7624 271.424 36.569 292.679C36.3755 313.934 72.9959 331.499 118.363 331.912C163.73 332.324 200.664 315.429 200.857 294.174Z" fill="#141414"/>
<path opacity="0.5556" d="M198.284 294.149C198.471 273.561 162.999 256.547 119.055 256.147C75.1108 255.747 39.3352 272.113 39.1478 292.701C38.9605 313.289 74.4324 330.304 118.377 330.704C162.321 331.103 198.096 314.738 198.284 294.149Z" fill="#141414"/>
<path opacity="0.5926" d="M195.706 294.126C195.887 274.204 161.564 257.74 119.043 257.353C76.5214 256.966 41.9041 272.803 41.7228 292.724C41.5415 312.646 75.8649 329.11 118.386 329.497C160.908 329.883 195.525 314.047 195.706 294.126Z" fill="#141414"/>
<path opacity="0.6296" d="M193.129 294.102C193.304 274.847 160.129 258.934 119.031 258.56C77.9321 258.186 44.473 273.493 44.2977 292.748C44.1225 312.003 77.2975 327.915 118.396 328.289C159.495 328.663 192.954 313.357 193.129 294.102Z" fill="#141414"/>
<path opacity="0.6667" d="M190.552 294.079C190.721 275.491 158.694 260.129 119.018 259.768C79.3426 259.407 47.0418 274.183 46.8727 292.772C46.7035 311.361 78.7301 326.722 118.406 327.083C158.082 327.444 190.383 312.668 190.552 294.079Z" fill="#141414"/>
<path opacity="0.7037" d="M187.979 294.056C188.142 276.134 157.264 261.323 119.01 260.975C80.7572 260.627 49.6146 274.873 49.4516 292.795C49.2885 310.717 80.1666 325.528 118.42 325.876C156.673 326.224 187.815 311.978 187.979 294.056Z" fill="#141414"/>
<path opacity="0.7407" d="M185.401 294.032C185.558 276.777 155.829 262.517 118.998 262.182C82.1678 261.847 52.1835 275.563 52.0265 292.819C51.8695 310.074 81.5991 324.334 118.43 324.669C155.26 325.005 185.244 311.288 185.401 294.032Z" fill="#141414"/>
<path opacity="0.7778" d="M182.824 294.009C182.975 277.42 154.394 263.711 118.986 263.388C83.5784 263.066 54.7524 276.253 54.6015 292.842C54.4505 309.431 83.0317 323.14 118.439 323.462C153.847 323.785 182.673 310.598 182.824 294.009Z" fill="#141414"/>
<path opacity="0.8148" d="M180.247 293.985C180.392 278.063 152.959 264.905 118.974 264.595C84.989 264.286 57.3213 276.943 57.1764 292.865C57.0315 308.788 84.4643 321.946 118.449 322.255C152.434 322.565 180.102 309.908 180.247 293.985Z" fill="#141414"/>
<path opacity="0.8519" d="M177.673 293.963C177.812 278.707 151.528 266.099 118.966 265.803C86.4035 265.507 59.8941 277.634 59.7553 292.89C59.6164 308.145 85.9007 320.753 118.463 321.049C151.025 321.346 177.534 309.218 177.673 293.963Z" fill="#141414"/>
<path opacity="0.8889" d="M175.096 293.938C175.229 279.349 150.093 267.292 118.954 267.009C87.8141 266.726 62.463 278.323 62.3302 292.912C62.1975 307.501 87.3334 319.558 118.473 319.841C149.612 320.125 174.963 308.527 175.096 293.938Z" fill="#141414"/>
<path opacity="0.9259" d="M172.519 293.915C172.645 279.992 148.658 268.486 118.941 268.216C89.2247 267.946 65.0319 279.013 64.9052 292.935C64.7785 306.858 88.7659 318.364 118.483 318.634C148.199 318.905 172.392 307.837 172.519 293.915Z" fill="#141414"/>
<path opacity="0.963" d="M169.942 293.891C170.062 280.635 147.223 269.68 118.929 269.423C90.6354 269.165 67.6008 279.703 67.4801 292.959C67.3595 306.215 90.1985 317.17 118.492 317.427C146.786 317.685 169.821 307.147 169.942 293.891Z" fill="#141414"/>
<path d="M167.368 293.868C167.483 281.278 145.792 270.874 118.921 270.63C92.0498 270.385 70.1736 280.393 70.059 292.982C69.9444 305.572 91.635 315.976 118.506 316.22C145.377 316.465 167.254 306.457 167.368 293.868Z" fill="#141414"/>
</g>
<path d="M136.916 297.737L398.537 147.294C406.628 142.641 409.338 119.486 401.182 114.948L306.434 75.2363C294.868 68.8005 280.774 68.8999 269.299 75.4983L14.4927 208.727C5.21284 214.063 7.46201 239.542 16.8164 244.747L112.362 297.911C120.01 302.166 129.329 302.1 136.916 297.737Z" fill="url(#paint0_linear_238_4225)"/>
<path d="M136.916 297.431L398.537 146.988C406.628 142.336 409.338 119.18 401.182 114.642L306.434 74.9304C294.868 68.4946 280.774 68.5941 269.299 75.1924L14.4927 208.421C5.21284 213.757 7.46201 239.236 16.8164 244.441L112.362 297.604C120.01 301.86 129.329 301.794 136.916 297.431Z" fill="url(#paint1_linear_238_4225)"/>
<path d="M136.916 283.847L398.538 133.404C406.628 128.752 406.546 117.05 398.39 112.513L306.435 61.3466C294.868 54.9108 280.774 55.0103 269.3 61.6086L16.6478 206.894C7.3679 212.231 7.46253 225.652 16.8169 230.857L112.363 284.021C120.01 288.276 129.329 288.21 136.916 283.847Z" fill="url(#paint2_linear_238_4225)"/>
<path d="M398.536 132.954L136.915 283.397C129.328 287.76 120.009 287.825 112.361 283.57L16.8155 230.407C12.1555 227.814 9.84252 223.181 9.79494 218.525C9.79156 218.463 9.77872 218.401 9.77623 218.338C9.60622 223.205 11.9422 228.146 16.8155 230.858L112.361 284.021C120.009 288.277 129.328 288.211 136.915 283.848L398.536 133.405C402.737 130.989 404.714 126.675 404.523 122.448C404.521 122.484 404.514 122.519 404.513 122.554C404.513 126.598 402.553 130.644 398.536 132.954Z" fill="url(#paint3_linear_238_4225)"/>
<path d="M395.601 116.935L361.474 97.9459C360.092 97.1768 358.403 97.2094 357.052 98.0309L354.354 99.6706C353.016 100.484 351.345 100.521 349.972 99.7677L318.842 82.6848C317.215 81.792 317.202 79.4596 318.818 78.5483L319.95 77.9104C321.149 77.2343 321.144 75.5057 319.941 74.8363L303.896 65.9079C299.076 63.2269 293.614 61.8096 288.099 61.8096C282.423 61.8096 276.823 63.3043 271.903 66.134L19.2503 211.42C16.5456 212.976 14.943 215.767 14.9651 218.888C14.9872 222.008 16.6288 224.777 19.3549 226.294L114.902 279.458C117.825 281.085 121.14 281.945 124.487 281.945C127.93 281.945 131.329 281.037 134.313 279.321L395.936 128.877C398.235 127.555 399.53 125.107 399.313 122.419C399.125 120.095 397.639 118.069 395.601 116.935Z" fill="url(#paint4_linear_238_4225)"/>
<g opacity="0.2">
<path opacity="0.037" d="M381.266 153.07C381.474 130.178 342.033 111.26 293.171 110.815C244.31 110.371 204.531 128.568 204.323 151.46C204.114 174.352 243.555 193.27 292.417 193.715C341.278 194.16 381.057 175.962 381.266 153.07Z" fill="#141414"/>
<path opacity="0.0741" d="M379.294 153.052C379.497 130.67 340.935 112.173 293.162 111.739C245.389 111.304 206.496 129.096 206.293 151.478C206.089 173.86 244.651 192.357 292.424 192.792C340.197 193.227 379.09 175.435 379.294 153.052Z" fill="#141414"/>
<path opacity="0.1111" d="M377.324 153.034C377.523 131.162 339.839 113.086 293.155 112.662C246.47 112.237 208.464 129.623 208.265 151.496C208.066 173.368 245.749 191.443 292.434 191.868C339.118 192.293 377.125 174.906 377.324 153.034Z" fill="#141414"/>
<path opacity="0.1481" d="M375.352 153.017C375.546 131.655 338.741 114.001 293.145 113.586C247.55 113.171 210.429 130.152 210.235 151.515C210.04 172.877 246.846 190.531 292.441 190.945C338.037 191.36 375.158 174.379 375.352 153.017Z" fill="#141414"/>
<path opacity="0.1852" d="M373.378 152.998C373.568 132.146 337.641 114.914 293.134 114.509C248.627 114.104 212.393 130.68 212.203 151.532C212.013 172.384 247.94 189.616 292.447 190.021C336.954 190.426 373.188 173.851 373.378 152.998Z" fill="#141414"/>
<path opacity="0.2222" d="M371.408 152.982C371.593 132.639 336.546 115.828 293.127 115.433C249.708 115.038 214.36 131.209 214.175 151.551C213.99 171.893 249.038 188.704 292.456 189.099C335.875 189.494 371.223 173.324 371.408 152.982Z" fill="#141414"/>
<path opacity="0.2593" d="M369.438 152.962C369.619 133.13 335.45 116.74 293.119 116.355C250.789 115.97 216.328 131.735 216.147 151.567C215.967 171.399 250.136 187.789 292.466 188.174C334.796 188.559 369.258 172.794 369.438 152.962Z" fill="#141414"/>
<path opacity="0.2963" d="M367.466 152.945C367.642 133.622 334.352 117.654 293.11 117.279C251.869 116.904 218.293 132.263 218.117 151.585C217.941 170.908 251.232 186.876 292.473 187.251C333.715 187.626 367.291 172.267 367.466 152.945Z" fill="#141414"/>
<path opacity="0.3333" d="M365.497 152.927C365.668 134.115 333.256 118.568 293.103 118.203C252.95 117.837 220.26 132.791 220.089 151.603C219.918 170.416 252.33 185.962 292.483 186.328C332.636 186.693 365.325 171.739 365.497 152.927Z" fill="#141414"/>
<path opacity="0.3704" d="M363.525 152.909C363.691 134.606 332.158 119.481 293.094 119.126C254.029 118.77 222.226 133.319 222.059 151.621C221.893 169.924 253.426 185.049 292.49 185.404C331.555 185.76 363.358 171.211 363.525 152.909Z" fill="#141414"/>
<path opacity="0.4074" d="M361.555 152.891C361.717 135.099 331.062 120.395 293.086 120.05C255.11 119.704 224.193 133.847 224.031 151.64C223.87 169.432 254.524 184.135 292.5 184.481C330.476 184.827 361.393 170.683 361.555 152.891Z" fill="#141414"/>
<path opacity="0.4444" d="M359.585 152.872C359.742 135.59 329.966 121.308 293.079 120.972C256.191 120.637 226.161 134.375 226.004 151.657C225.846 168.939 255.622 183.221 292.509 183.557C329.397 183.893 359.428 170.155 359.585 152.872Z" fill="#141414"/>
<path opacity="0.4815" d="M357.615 152.855C357.768 136.083 328.871 122.222 293.072 121.896C257.273 121.57 228.128 134.903 227.976 151.675C227.823 168.447 256.72 182.308 292.519 182.634C328.318 182.959 357.462 169.627 357.615 152.855Z" fill="#141414"/>
<path opacity="0.5185" d="M355.641 152.837C355.789 136.575 327.771 123.135 293.06 122.82C258.35 122.504 230.092 135.431 229.944 151.693C229.796 167.955 257.814 181.395 292.524 181.71C327.235 182.026 355.493 169.099 355.641 152.837Z" fill="#141414"/>
<path opacity="0.5556" d="M353.669 152.818C353.813 137.066 326.673 124.048 293.051 123.742C259.429 123.436 232.057 135.958 231.914 151.71C231.771 167.463 258.91 180.48 292.532 180.786C326.154 181.092 353.526 168.571 353.669 152.818Z" fill="#141414"/>
<path opacity="0.5926" d="M351.699 152.802C351.838 137.559 325.577 124.963 293.044 124.667C260.511 124.371 234.025 136.487 233.886 151.73C233.747 166.972 260.008 179.568 292.541 179.864C325.075 180.16 351.561 168.044 351.699 152.802Z" fill="#141414"/>
<path opacity="0.6296" d="M349.727 152.783C349.862 138.051 324.479 125.876 293.035 125.59C261.59 125.304 235.99 137.015 235.856 151.747C235.722 166.479 261.104 178.654 292.549 178.94C323.994 179.226 349.593 167.515 349.727 152.783Z" fill="#141414"/>
<path opacity="0.6667" d="M347.758 152.765C347.887 138.543 323.383 126.789 293.027 126.513C262.671 126.237 237.958 137.542 237.828 151.765C237.699 165.987 262.202 177.74 292.559 178.017C322.915 178.293 347.628 166.987 347.758 152.765Z" fill="#141414"/>
<path opacity="0.7037" d="M345.788 152.747C345.912 139.034 322.288 127.702 293.02 127.436C263.752 127.17 239.925 138.07 239.8 151.782C239.675 165.494 263.3 176.826 292.568 177.093C321.836 177.359 345.663 166.459 345.788 152.747Z" fill="#141414"/>
<path opacity="0.7407" d="M343.816 152.73C343.936 139.527 321.19 128.617 293.011 128.361C264.831 128.104 241.89 138.599 241.77 151.801C241.65 165.003 264.396 175.914 292.576 176.17C320.755 176.427 343.696 165.932 343.816 152.73Z" fill="#141414"/>
<path opacity="0.7778" d="M341.846 152.711C341.961 140.019 320.094 129.53 293.003 129.284C265.913 129.037 243.858 139.126 243.742 151.818C243.627 164.511 265.494 175 292.585 175.246C319.676 175.493 341.73 165.403 341.846 152.711Z" fill="#141414"/>
<path opacity="0.8148" d="M339.874 152.694C339.985 140.512 318.996 130.445 292.994 130.208C266.992 129.971 245.823 139.655 245.712 151.837C245.602 164.02 266.591 174.087 292.593 174.324C318.595 174.56 339.763 164.877 339.874 152.694Z" fill="#141414"/>
<path opacity="0.8519" d="M337.904 152.676C338.01 141.003 317.9 131.357 292.987 131.131C268.073 130.904 247.791 140.182 247.685 151.855C247.578 163.527 267.689 173.173 292.602 173.4C317.515 173.626 337.798 164.348 337.904 152.676Z" fill="#141414"/>
<path opacity="0.8889" d="M335.93 152.658C336.032 141.496 316.8 132.271 292.975 132.054C269.151 131.838 249.754 140.711 249.653 151.873C249.551 163.035 268.783 172.26 292.608 172.476C316.432 172.693 335.829 163.82 335.93 152.658Z" fill="#141414"/>
<path opacity="0.9259" d="M333.96 152.639C334.057 141.987 315.704 133.184 292.968 132.977C270.232 132.77 251.722 141.238 251.625 151.89C251.528 162.542 269.881 171.345 292.617 171.552C315.353 171.759 333.863 163.292 333.96 152.639Z" fill="#141414"/>
<path opacity="0.963" d="M331.99 152.622C332.083 142.48 314.609 134.099 292.961 133.902C271.313 133.705 253.689 141.767 253.597 151.909C253.505 162.051 270.979 170.433 292.627 170.63C314.274 170.827 331.898 162.765 331.99 152.622Z" fill="#141414"/>
<path d="M330.017 152.605C330.104 142.973 313.509 135.012 292.95 134.825C272.39 134.638 255.653 142.295 255.565 151.927C255.477 161.56 272.073 169.52 292.632 169.707C313.191 169.894 329.929 162.237 330.017 152.605Z" fill="#141414"/>
</g>
<path d="M308.059 30.748L336.412 39.0289V142.05L279.705 174.137V72.1392L308.059 30.748Z" fill="url(#paint5_linear_238_4225)"/>
<path d="M255.655 0L284.008 8.28065V50.7877L227.301 143.389V41.3909L255.655 0Z" fill="url(#paint6_linear_238_4225)"/>
<path d="M255.655 0L308.061 30.7483L279.707 72.1394L227.301 41.3909L255.655 0Z" fill="url(#paint7_linear_238_4225)"/>
<path d="M284.007 8.28065L336.413 39.0291L308.06 30.7483L255.654 0L284.007 8.28065Z" fill="url(#paint8_linear_238_4225)"/>
<path d="M227.301 41.3916L279.707 72.1401V174.138L227.301 143.389V41.3916Z" fill="url(#paint9_linear_238_4225)"/>
<path d="M287.697 96.8498V74.2185L304.374 64.7471V87.4136L287.697 96.8498Z" fill="url(#paint10_linear_238_4225)"/>
<path d="M301.99 66.1009V86.269L304.374 87.4136V64.7471L301.99 66.1009Z" fill="url(#paint11_linear_238_4225)"/>
<path d="M301.99 86.2686L287.697 94.0953V96.8493L304.374 87.4132L301.99 86.2686Z" fill="url(#paint12_linear_238_4225)"/>
<path d="M287.697 74.2175V94.0954L301.99 86.2686V66.1006L287.697 74.2175ZM288.393 74.6223L301.295 67.2946V85.8572L288.393 92.9219V74.6223Z" fill="url(#paint13_linear_238_4225)"/>
<path d="M301.296 67.2958V85.8582L300.635 85.4645V67.6711L301.296 67.2958Z" fill="url(#paint14_linear_238_4225)"/>
<path d="M295.721 69.9688V89.3498L295.285 89.6765V70.3498L295.721 69.9688Z" fill="url(#paint15_linear_238_4225)"/>
<path d="M301.295 76.6707L288.393 83.9983V84.4828L301.295 77.1551V76.6707Z" fill="url(#paint16_linear_238_4225)"/>
<path d="M287.697 158.893V136.261L304.374 126.79V149.457L287.697 158.893Z" fill="url(#paint17_linear_238_4225)"/>
<path d="M301.99 128.144V148.312L304.374 149.457V126.79L301.99 128.144Z" fill="url(#paint18_linear_238_4225)"/>
<path d="M301.99 148.312L287.697 156.138V158.892L304.374 149.456L301.99 148.312Z" fill="url(#paint19_linear_238_4225)"/>
<path d="M287.697 136.26V156.138L301.99 148.312V128.144L287.697 136.26ZM288.393 136.665L301.295 129.338V147.9L288.393 154.965V136.665Z" fill="url(#paint20_linear_238_4225)"/>
<path d="M301.296 129.339V147.901L300.635 147.507V129.714L301.296 129.339Z" fill="url(#paint21_linear_238_4225)"/>
<path d="M295.721 132.012V151.393L295.285 151.719V132.393L295.721 132.012Z" fill="url(#paint22_linear_238_4225)"/>
<path d="M301.295 138.714L288.393 146.041V146.526L301.295 139.198V138.714Z" fill="url(#paint23_linear_238_4225)"/>
<path d="M313.145 84.4123V61.7808L329.821 52.3096V74.9761L313.145 84.4123Z" fill="url(#paint24_linear_238_4225)"/>
<path d="M327.438 53.6632V73.8315L329.821 74.9761V52.3096L327.438 53.6632Z" fill="url(#paint25_linear_238_4225)"/>
<path d="M327.437 73.8311L313.145 81.6578V84.4119L329.821 74.9757L327.437 73.8311Z" fill="url(#paint26_linear_238_4225)"/>
<path d="M313.145 61.7801V81.6581L327.438 73.8313V53.6631L313.145 61.7801ZM313.84 62.1849L326.743 54.8571V73.4197L313.84 80.4844V62.1849Z" fill="url(#paint27_linear_238_4225)"/>
<path d="M326.743 54.8573V73.4199L326.082 73.0262V55.2328L326.743 54.8573Z" fill="url(#paint28_linear_238_4225)"/>
<path d="M321.17 57.5312V76.9123L320.734 77.239V57.9123L321.17 57.5312Z" fill="url(#paint29_linear_238_4225)"/>
<path d="M326.742 64.2332L313.84 71.561V72.0455L326.742 64.7178V64.2332Z" fill="url(#paint30_linear_238_4225)"/>
<path d="M272.536 98.3498V75.7183L255.859 66.2471V88.9134L272.536 98.3498Z" fill="url(#paint31_linear_238_4225)"/>
<path d="M258.243 67.6007V87.769L255.859 88.9134V66.2471L258.243 67.6007Z" fill="url(#paint32_linear_238_4225)"/>
<path d="M258.243 87.7686L272.536 95.5951V98.3493L255.859 88.913L258.243 87.7686Z" fill="url(#paint33_linear_238_4225)"/>
<path d="M258.242 67.6006V87.7687L272.535 95.5954V75.7175L258.242 67.6006ZM271.84 94.4217L258.937 87.357V68.7946L271.84 76.1224V94.4217Z" fill="url(#paint34_linear_238_4225)"/>
<path d="M258.938 68.7948V87.3572L259.598 86.9635V69.1701L258.938 68.7948Z" fill="url(#paint35_linear_238_4225)"/>
<path d="M264.512 71.4688V90.8499L264.947 91.1766V71.8498L264.512 71.4688Z" fill="url(#paint36_linear_238_4225)"/>
<path d="M258.938 78.1707L271.84 85.4985V85.9828L258.938 78.6551V78.1707Z" fill="url(#paint37_linear_238_4225)"/>
<path d="M247.087 85.9123V63.281L230.41 53.8096V76.4761L247.087 85.9123Z" fill="url(#paint38_linear_238_4225)"/>
<path d="M232.794 55.1634V75.3315L230.41 76.4761V53.8096L232.794 55.1634Z" fill="url(#paint39_linear_238_4225)"/>
<path d="M232.794 75.3311L247.087 83.1578V85.9118L230.41 76.4757L232.794 75.3311Z" fill="url(#paint40_linear_238_4225)"/>
<path d="M232.793 55.1631V75.3311L247.086 83.1579V63.28L232.793 55.1631ZM246.39 81.9842L233.488 74.9195V56.3571L246.39 63.6849V81.9842Z" fill="url(#paint41_linear_238_4225)"/>
<path d="M233.488 56.3583V74.9207L234.149 74.527V56.7336L233.488 56.3583Z" fill="url(#paint42_linear_238_4225)"/>
<path d="M239.062 59.0313V78.4124L239.498 78.7391V59.4123L239.062 59.0313Z" fill="url(#paint43_linear_238_4225)"/>
<path d="M233.488 65.7332L246.391 73.061V73.5454L233.488 66.2176V65.7332Z" fill="url(#paint44_linear_238_4225)"/>
<path d="M272.536 137.648V115.016L255.859 105.545V128.211L272.536 137.648Z" fill="url(#paint45_linear_238_4225)"/>
<path d="M258.243 106.899V127.067L255.859 128.211V105.545L258.243 106.899Z" fill="url(#paint46_linear_238_4225)"/>
<path d="M258.243 127.066L272.536 134.893V137.647L255.859 128.211L258.243 127.066Z" fill="url(#paint47_linear_238_4225)"/>
<path d="M258.242 106.898V127.066L272.535 134.893V115.015L258.242 106.898ZM271.84 133.72L258.937 126.655V108.092L271.84 115.42V133.72Z" fill="url(#paint48_linear_238_4225)"/>
<path d="M258.938 108.093V126.655L259.598 126.261V108.468L258.938 108.093Z" fill="url(#paint49_linear_238_4225)"/>
<path d="M264.512 110.767V130.148L264.947 130.475V111.148L264.512 110.767Z" fill="url(#paint50_linear_238_4225)"/>
<path d="M258.938 117.469L271.84 124.796V125.281L258.938 117.953V117.469Z" fill="url(#paint51_linear_238_4225)"/>
<path d="M247.087 125.21V102.579L230.41 93.1074V115.774L247.087 125.21Z" fill="url(#paint52_linear_238_4225)"/>
<path d="M232.794 94.4611V114.629L230.41 115.774V93.1074L232.794 94.4611Z" fill="url(#paint53_linear_238_4225)"/>
<path d="M232.794 114.629L247.087 122.455V125.21L230.41 115.773L232.794 114.629Z" fill="url(#paint54_linear_238_4225)"/>
<path d="M232.793 94.4609V114.629L247.086 122.456V102.578L232.793 94.4609ZM246.39 121.282L233.488 114.217V95.6549L246.39 102.983V121.282Z" fill="url(#paint55_linear_238_4225)"/>
<path d="M233.488 95.6552V114.218L234.149 113.824V96.0305L233.488 95.6552Z" fill="url(#paint56_linear_238_4225)"/>
<path d="M239.062 98.3292V117.71L239.498 118.037V98.7103L239.062 98.3292Z" fill="url(#paint57_linear_238_4225)"/>
<path d="M233.488 105.031L246.391 112.359V112.843L233.488 105.515V105.031Z" fill="url(#paint58_linear_238_4225)"/>
<path d="M316.656 152.278V129.646L333.332 120.175V142.842L316.656 152.278Z" fill="url(#paint59_linear_238_4225)"/>
<path d="M330.949 121.529V141.697L333.333 142.842V120.175L330.949 121.529Z" fill="url(#paint60_linear_238_4225)"/>
<path d="M330.949 141.697L316.656 149.523V152.277L333.332 142.841L330.949 141.697Z" fill="url(#paint61_linear_238_4225)"/>
<path d="M316.656 129.645V149.523L330.949 141.697V121.529L316.656 129.645ZM317.352 130.05L330.254 122.723V141.285L317.352 148.35V130.05Z" fill="url(#paint62_linear_238_4225)"/>
<path d="M330.255 122.724V141.286L329.594 140.893V123.099L330.255 122.724Z" fill="url(#paint63_linear_238_4225)"/>
<path d="M318.604 132.345L308.061 121.605L334.414 106.638L344.957 117.378L318.604 132.345Z" fill="url(#paint64_linear_238_4225)"/>
<g opacity="0.2">
<path opacity="0.037" d="M260.512 241.174C260.76 213.936 213.833 191.427 155.697 190.898C97.5611 190.369 50.2318 212.021 49.9839 239.258C49.7361 266.495 96.6635 289.004 154.799 289.533C212.935 290.062 260.264 268.411 260.512 241.174Z" fill="#141414"/>
<path opacity="0.0741" d="M258.166 241.153C258.408 214.522 212.526 192.514 155.685 191.997C98.8447 191.48 52.5698 212.649 52.3275 239.279C52.0851 265.91 97.9671 287.918 154.808 288.435C211.648 288.952 257.923 267.783 258.166 241.153Z" fill="#141414"/>
<path opacity="0.1111" d="M255.823 241.133C256.06 215.109 211.223 193.603 155.678 193.097C100.132 192.592 54.9117 213.278 54.6749 239.302C54.4381 265.326 99.2746 286.832 154.82 287.337C210.366 287.843 255.586 267.156 255.823 241.133Z" fill="#141414"/>
<path opacity="0.1481" d="M253.476 241.109C253.707 215.692 209.916 194.688 155.666 194.194C101.416 193.7 57.2497 213.905 57.0184 239.322C56.7871 264.738 100.578 285.743 154.828 286.237C209.079 286.731 253.245 266.526 253.476 241.109Z" fill="#141414"/>
<path opacity="0.1852" d="M251.131 241.088C251.357 216.278 208.612 195.775 155.656 195.293C102.701 194.811 59.5896 214.533 59.3639 239.343C59.1381 264.153 101.884 284.656 154.839 285.138C207.794 285.62 250.906 265.898 251.131 241.088Z" fill="#141414"/>
<path opacity="0.2222" d="M248.787 241.067C249.007 216.864 207.307 196.862 155.647 196.392C103.987 195.922 61.9296 215.161 61.7093 239.365C61.4891 263.568 103.189 283.57 154.849 284.04C206.509 284.51 248.567 265.27 248.787 241.067Z" fill="#141414"/>
<path opacity="0.2593" d="M246.44 241.046C246.655 217.45 206 197.949 155.635 197.491C105.27 197.033 64.2676 215.79 64.0529 239.386C63.8381 262.983 104.493 282.483 154.858 282.941C205.222 283.4 246.225 264.643 246.44 241.046Z" fill="#141414"/>
<path opacity="0.2963" d="M244.095 241.024C244.304 218.034 204.695 199.035 155.626 198.589C106.556 198.142 66.6075 216.417 66.3983 239.407C66.1891 262.397 105.798 281.395 154.868 281.842C203.938 282.288 243.886 264.014 244.095 241.024Z" fill="#141414"/>
<path opacity="0.3333" d="M241.751 241.003C241.954 218.62 203.391 200.122 155.616 199.688C107.842 199.253 68.9475 217.045 68.7438 239.428C68.5401 261.811 107.104 280.309 154.878 280.743C202.653 281.178 241.547 263.386 241.751 241.003Z" fill="#141414"/>
<path opacity="0.3704" d="M239.406 240.982C239.604 219.206 202.086 201.21 155.606 200.787C109.127 200.364 71.2874 217.674 71.0893 239.45C70.8911 261.226 108.409 279.222 154.889 279.645C201.368 280.068 239.208 262.758 239.406 240.982Z" fill="#141414"/>
<path opacity="0.4074" d="M237.061 240.962C237.254 219.792 200.781 202.298 155.597 201.887C110.413 201.475 73.6274 218.303 73.4347 239.473C73.2421 260.642 109.715 278.136 154.899 278.547C200.083 278.959 236.868 262.131 237.061 240.962Z" fill="#141414"/>
<path opacity="0.4444" d="M234.716 240.939C234.904 220.377 199.476 203.384 155.587 202.984C111.698 202.585 75.9673 218.931 75.7802 239.493C75.5931 260.056 111.02 277.049 154.91 277.448C198.799 277.847 234.529 261.502 234.716 240.939Z" fill="#141414"/>
<path opacity="0.4815" d="M232.372 240.918C232.553 220.962 198.171 204.471 155.578 204.083C112.984 203.696 78.3073 219.559 78.1257 239.515C77.9441 259.47 112.326 275.962 154.92 276.349C197.514 276.737 232.19 260.874 232.372 240.918Z" fill="#141414"/>
<path opacity="0.5185" d="M230.023 240.896C230.199 221.547 196.863 205.557 155.564 205.182C114.265 204.806 80.6433 220.186 80.4672 239.535C80.2912 258.884 113.628 274.874 154.926 275.25C196.225 275.626 229.847 260.245 230.023 240.896Z" fill="#141414"/>
<path opacity="0.5556" d="M227.682 240.876C227.853 222.134 195.562 206.645 155.558 206.281C115.555 205.917 82.9872 220.816 82.8166 239.558C82.6461 258.3 114.937 273.788 154.941 274.152C194.944 274.517 227.512 259.618 227.682 240.876Z" fill="#141414"/>
<path opacity="0.5926" d="M225.338 240.854C225.503 222.719 194.257 207.731 155.549 207.379C116.84 207.027 85.3271 221.443 85.1621 239.578C84.9971 257.714 116.243 272.701 154.951 273.053C193.659 273.405 225.173 258.989 225.338 240.854Z" fill="#141414"/>
<path opacity="0.6296" d="M222.989 240.833C223.148 223.304 192.948 208.818 155.535 208.478C118.122 208.138 87.6632 222.071 87.5037 239.6C87.3442 257.128 117.544 271.614 154.957 271.955C192.37 272.295 222.829 258.361 222.989 240.833Z" fill="#141414"/>
<path opacity="0.6667" d="M220.644 240.811C220.798 223.889 191.643 209.905 155.525 209.576C119.407 209.248 90.0031 222.699 89.8491 239.621C89.6951 256.542 118.85 270.526 154.968 270.855C191.086 271.184 220.49 257.732 220.644 240.811Z" fill="#141414"/>
<path opacity="0.7037" d="M218.299 240.791C218.448 224.476 190.339 210.993 155.516 210.676C120.693 210.359 92.3431 223.328 92.1946 239.643C92.0461 255.958 120.155 269.441 154.978 269.758C189.801 270.074 218.151 257.105 218.299 240.791Z" fill="#141414"/>
<path opacity="0.7407" d="M215.955 240.768C216.098 225.06 189.034 212.079 155.506 211.774C121.979 211.469 94.683 223.955 94.5401 239.664C94.3971 255.372 121.461 268.353 154.989 268.658C188.516 268.963 215.812 256.477 215.955 240.768Z" fill="#141414"/>
<path opacity="0.7778" d="M213.61 240.747C213.747 225.646 187.729 213.166 155.496 212.873C123.264 212.58 97.023 224.584 96.8855 239.685C96.7481 254.786 122.766 267.266 154.999 267.56C187.231 267.853 213.472 255.849 213.61 240.747Z" fill="#141414"/>
<path opacity="0.8148" d="M211.265 240.725C211.397 226.231 186.424 214.252 155.487 213.971C124.55 213.689 99.3629 225.211 99.231 239.706C99.0991 254.2 124.072 266.179 155.009 266.46C185.947 266.742 211.133 255.22 211.265 240.725Z" fill="#141414"/>
<path opacity="0.8519" d="M208.921 240.704C209.047 226.816 185.12 215.339 155.477 215.07C125.835 214.8 101.703 225.84 101.576 239.727C101.45 253.615 125.377 265.092 155.02 265.362C184.662 265.631 208.794 254.592 208.921 240.704Z" fill="#141414"/>
<path opacity="0.8889" d="M206.574 240.683C206.694 227.402 183.813 216.426 155.466 216.169C127.119 215.911 104.041 226.468 103.92 239.749C103.799 253.03 126.681 264.005 155.028 264.263C183.375 264.521 206.453 253.964 206.574 240.683Z" fill="#141414"/>
<path opacity="0.9259" d="M204.229 240.662C204.344 227.988 182.508 217.514 155.456 217.268C128.404 217.022 106.381 227.096 106.265 239.77C106.15 252.445 127.987 262.918 155.038 263.165C182.09 263.411 204.114 253.336 204.229 240.662Z" fill="#141414"/>
<path opacity="0.963" d="M201.884 240.64C201.994 228.572 181.203 218.6 155.446 218.366C129.69 218.131 108.721 227.724 108.611 239.791C108.501 251.858 129.292 261.831 155.049 262.065C180.806 262.3 201.775 252.707 201.884 240.64Z" fill="#141414"/>
<path d="M199.54 240.619C199.644 229.158 179.899 219.687 155.437 219.464C130.975 219.242 111.061 228.352 110.956 239.812C110.852 251.273 130.598 260.744 155.059 260.967C179.521 261.189 199.435 252.079 199.54 240.619Z" fill="#141414"/>
</g>
<path d="M61.6968 162.179L33.3438 170.46V212.967L90.0507 245.053V203.57L61.6968 162.179Z" fill="url(#paint65_linear_238_4225)"/>
<path d="M114.103 131.431L85.75 139.712V182.219L142.457 214.305V172.822L114.103 131.431Z" fill="url(#paint66_linear_238_4225)"/>
<path d="M114.103 131.431L61.6973 162.179L90.0512 203.57L142.457 172.822L114.103 131.431Z" fill="url(#paint67_linear_238_4225)"/>
<path d="M85.7499 139.712L33.3438 170.46L61.6968 162.179L114.103 131.431L85.7499 139.712Z" fill="url(#paint68_linear_238_4225)"/>
<path d="M142.459 172.822L90.0527 203.571V245.055L142.459 214.306V172.822Z" fill="url(#paint69_linear_238_4225)"/>
<path d="M82.0631 226.671V204.04L65.3867 194.569V217.235L82.0631 226.671Z" fill="url(#paint70_linear_238_4225)"/>
<path d="M67.7703 195.922V216.09L65.3867 217.235V194.569L67.7703 195.922Z" fill="url(#paint71_linear_238_4225)"/>
<path d="M67.7703 216.09L82.0631 223.917V226.671L65.3867 217.234L67.7703 216.09Z" fill="url(#paint72_linear_238_4225)"/>
<path d="M67.7695 195.922V216.09L82.0628 223.917V204.039L67.7695 195.922ZM81.3669 222.743L68.4645 215.678V197.116L81.3669 204.444V222.743Z" fill="url(#paint73_linear_238_4225)"/>
<path d="M68.4668 197.116V215.679L69.1278 215.285V197.492L68.4668 197.116Z" fill="url(#paint74_linear_238_4225)"/>
<path d="M74.0391 199.79V219.171L74.4744 219.498V200.171L74.0391 199.79Z" fill="url(#paint75_linear_238_4225)"/>
<path d="M68.4668 206.492L81.3691 213.82V214.304L68.4668 206.977V206.492Z" fill="url(#paint76_linear_238_4225)"/>
<path d="M53.0983 223.917V201.286L36.4219 191.815V214.481L53.0983 223.917Z" fill="url(#paint77_linear_238_4225)"/>
<path d="M38.8054 193.168V213.337L36.4219 214.481V191.815L38.8054 193.168Z" fill="url(#paint78_linear_238_4225)"/>
<path d="M38.8054 213.336L53.0983 221.163V223.917L36.4219 214.481L38.8054 213.336Z" fill="url(#paint79_linear_238_4225)"/>
<path d="M38.8047 193.168V213.336L53.0979 221.163V201.285L38.8047 193.168ZM52.402 219.989L39.4997 212.925V194.362L52.402 201.69V219.989Z" fill="url(#paint80_linear_238_4225)"/>
<path d="M39.5 194.362V212.925L40.161 212.531V194.738L39.5 194.362Z" fill="url(#paint81_linear_238_4225)"/>
<path d="M121.641 216.581V193.95L138.317 184.479V207.145L121.641 216.581Z" fill="url(#paint82_linear_238_4225)"/>
<path d="M135.934 185.832V206.001L138.317 207.145V184.479L135.934 185.832Z" fill="url(#paint83_linear_238_4225)"/>
<path d="M135.933 206L121.641 213.827V216.581L138.317 207.145L135.933 206Z" fill="url(#paint84_linear_238_4225)"/>
<path d="M51.1539 203.987L61.6969 193.247L35.3436 178.279L24.8008 189.019L51.1539 203.987Z" fill="url(#paint85_linear_238_4225)"/>
<path d="M142.458 121.446L114.105 129.727V232.749L170.812 264.835V162.838L142.458 121.446Z" fill="url(#paint86_linear_238_4225)"/>
<path d="M194.865 90.6984L166.512 98.9791V141.486L223.218 234.087V132.089L194.865 90.6984Z" fill="url(#paint87_linear_238_4225)"/>
<path d="M194.865 90.6984L142.459 121.447L170.813 162.838L223.219 132.089L194.865 90.6984Z" fill="url(#paint88_linear_238_4225)"/>
<path d="M166.512 98.9791L114.105 129.728L142.458 121.447L194.865 90.6984L166.512 98.9791Z" fill="url(#paint89_linear_238_4225)"/>
<path d="M223.219 132.09L170.812 162.839V264.836L223.219 234.088V132.09Z" fill="url(#paint90_linear_238_4225)"/>
<path d="M162.823 187.549V164.918L146.146 155.446V178.113L162.823 187.549Z" fill="url(#paint91_linear_238_4225)"/>
<path d="M148.53 156.8V176.968L146.146 178.113V155.446L148.53 156.8Z" fill="url(#paint92_linear_238_4225)"/>
<path d="M148.53 176.968L162.823 184.795V187.549L146.146 178.113L148.53 176.968Z" fill="url(#paint93_linear_238_4225)"/>
<path d="M148.531 156.8V176.968L162.824 184.795V164.917L148.531 156.8ZM162.129 183.621L149.226 176.556V157.994L162.129 165.322V183.621Z" fill="url(#paint94_linear_238_4225)"/>
<path d="M149.225 157.995V176.558L149.886 176.164V158.371L149.225 157.995Z" fill="url(#paint95_linear_238_4225)"/>
<path d="M154.799 160.668V180.049L155.234 180.376V161.049L154.799 160.668Z" fill="url(#paint96_linear_238_4225)"/>
<path d="M149.225 167.37L162.127 174.698V175.182L149.225 167.854V167.37Z" fill="url(#paint97_linear_238_4225)"/>
<path d="M162.823 249.59V226.959L146.146 217.487V240.154L162.823 249.59Z" fill="url(#paint98_linear_238_4225)"/>
<path d="M148.53 218.841V239.009L146.146 240.154V217.487L148.53 218.841Z" fill="url(#paint99_linear_238_4225)"/>
<path d="M148.53 239.009L162.823 246.836V249.59L146.146 240.154L148.53 239.009Z" fill="url(#paint100_linear_238_4225)"/>
<path d="M148.531 218.841V239.009L162.824 246.836V226.958L148.531 218.841ZM162.129 245.662L149.226 238.597V220.035L162.129 227.363V245.662Z" fill="url(#paint101_linear_238_4225)"/>
<path d="M149.225 220.036V238.599L149.886 238.205V220.411L149.225 220.036Z" fill="url(#paint102_linear_238_4225)"/>
<path d="M154.799 222.709V242.09L155.234 242.417V223.09L154.799 222.709Z" fill="url(#paint103_linear_238_4225)"/>
<path d="M149.225 229.411L162.127 236.739V237.223L149.225 229.896V229.411Z" fill="url(#paint104_linear_238_4225)"/>
<path d="M137.376 175.111V152.479L120.699 143.008V165.675L137.376 175.111Z" fill="url(#paint105_linear_238_4225)"/>
<path d="M123.083 144.362V164.53L120.699 165.675V143.008L123.083 144.362Z" fill="url(#paint106_linear_238_4225)"/>
<path d="M123.083 164.529L137.376 172.356V175.11L120.699 165.674L123.083 164.529Z" fill="url(#paint107_linear_238_4225)"/>
<path d="M123.082 144.362V164.53L137.375 172.356V152.478L123.082 144.362ZM136.679 171.183L123.777 164.118V145.556L136.679 152.883V171.183Z" fill="url(#paint108_linear_238_4225)"/>
<path d="M123.777 145.556V164.118L124.438 163.725V145.931L123.777 145.556Z" fill="url(#paint109_linear_238_4225)"/>
<path d="M129.352 148.23V167.611L129.787 167.937V148.611L129.352 148.23Z" fill="url(#paint110_linear_238_4225)"/>
<path d="M123.777 154.932L136.679 162.259V162.744L123.777 155.416V154.932Z" fill="url(#paint111_linear_238_4225)"/>
<path d="M177.984 189.049V166.418L194.661 156.946V179.613L177.984 189.049Z" fill="url(#paint112_linear_238_4225)"/>
<path d="M192.277 158.3V178.469L194.661 179.613V156.946L192.277 158.3Z" fill="url(#paint113_linear_238_4225)"/>
<path d="M192.277 178.468L177.984 186.294V189.049L194.661 179.612L192.277 178.468Z" fill="url(#paint114_linear_238_4225)"/>
<path d="M177.984 166.417V186.295L192.278 178.468V158.3L177.984 166.417ZM178.68 166.822L191.583 159.494V178.056L178.68 185.121V166.822Z" fill="url(#paint115_linear_238_4225)"/>
<path d="M191.583 159.495V178.058L190.922 177.664V159.87L191.583 159.495Z" fill="url(#paint116_linear_238_4225)"/>
<path d="M186.01 162.168V181.549L185.574 181.876V162.549L186.01 162.168Z" fill="url(#paint117_linear_238_4225)"/>
<path d="M191.582 168.87L178.68 176.198V176.682L191.582 169.354V168.87Z" fill="url(#paint118_linear_238_4225)"/>
<path d="M203.432 176.611V153.979L220.108 144.508V167.175L203.432 176.611Z" fill="url(#paint119_linear_238_4225)"/>
<path d="M217.725 145.862V166.03L220.108 167.175V144.508L217.725 145.862Z" fill="url(#paint120_linear_238_4225)"/>
<path d="M217.724 166.029L203.432 173.856V176.61L220.108 167.174L217.724 166.029Z" fill="url(#paint121_linear_238_4225)"/>
<path d="M203.432 153.978V173.856L217.725 166.03V145.862L203.432 153.978ZM204.127 154.383L217.03 147.056V165.618L204.127 172.683V154.383Z" fill="url(#paint122_linear_238_4225)"/>
<path d="M217.03 147.057V165.619L216.369 165.225V147.432L217.03 147.057Z" fill="url(#paint123_linear_238_4225)"/>
<path d="M211.455 149.73V169.111L211.02 169.437V150.111L211.455 149.73Z" fill="url(#paint124_linear_238_4225)"/>
<path d="M217.029 156.432L204.127 163.759V164.244L217.029 156.916V156.432Z" fill="url(#paint125_linear_238_4225)"/>
<path d="M177.984 228.346V205.715L194.661 196.243V218.91L177.984 228.346Z" fill="url(#paint126_linear_238_4225)"/>
<path d="M192.277 197.597V217.765L194.661 218.91V196.243L192.277 197.597Z" fill="url(#paint127_linear_238_4225)"/>
<path d="M192.277 217.765L177.984 225.591V228.346L194.661 218.909L192.277 217.765Z" fill="url(#paint128_linear_238_4225)"/>
<path d="M177.984 205.714V225.592L192.278 217.765V197.597L177.984 205.714ZM178.68 206.118L191.583 198.791V217.353L178.68 224.418V206.118Z" fill="url(#paint129_linear_238_4225)"/>
<path d="M191.583 198.791V217.354L190.922 216.96V199.167L191.583 198.791Z" fill="url(#paint130_linear_238_4225)"/>
<path d="M186.01 201.465V220.846L185.574 221.173V201.846L186.01 201.465Z" fill="url(#paint131_linear_238_4225)"/>
<path d="M191.582 208.167L178.68 215.495V215.979L191.582 208.651V208.167Z" fill="url(#paint132_linear_238_4225)"/>
<path d="M203.432 215.908V193.276L220.108 183.805V206.471L203.432 215.908Z" fill="url(#paint133_linear_238_4225)"/>
<path d="M217.725 185.159V205.327L220.108 206.471V183.805L217.725 185.159Z" fill="url(#paint134_linear_238_4225)"/>
<path d="M217.724 205.326L203.432 213.153V215.907L220.108 206.471L217.724 205.326Z" fill="url(#paint135_linear_238_4225)"/>
<path d="M203.432 193.275V213.153L217.725 205.326V185.158L203.432 193.275ZM204.127 193.68L217.03 186.352V204.915L204.127 211.98V193.68Z" fill="url(#paint136_linear_238_4225)"/>
<path d="M217.03 186.353V204.915L216.369 204.521V186.728L217.03 186.353Z" fill="url(#paint137_linear_238_4225)"/>
<path d="M211.455 189.027V208.408L211.02 208.734V189.408L211.455 189.027Z" fill="url(#paint138_linear_238_4225)"/>
<path d="M217.029 195.729L204.127 203.056V203.541L217.029 196.213V195.729Z" fill="url(#paint139_linear_238_4225)"/>
<path d="M133.86 242.977V220.346L117.184 210.874V233.541L133.86 242.977Z" fill="url(#paint140_linear_238_4225)"/>
<path d="M119.567 212.228V232.396L117.184 233.541V210.874L119.567 212.228Z" fill="url(#paint141_linear_238_4225)"/>
<path d="M119.567 232.396L133.86 240.222V242.977L117.184 233.54L119.567 232.396Z" fill="url(#paint142_linear_238_4225)"/>
<path d="M119.566 212.228V232.396L133.86 240.222V220.345L119.566 212.228ZM133.164 239.049L120.261 231.984V213.421L133.164 220.749V239.049Z" fill="url(#paint143_linear_238_4225)"/>
<path d="M120.262 213.423V231.985L120.923 231.592V213.798L120.262 213.423Z" fill="url(#paint144_linear_238_4225)"/>
<path d="M131.916 223.044L142.459 212.304L116.106 197.337L105.562 208.077L131.916 223.044Z" fill="url(#paint145_linear_238_4225)"/>
<path d="M324.012 385.929C315.946 385.929 309.383 379.367 309.383 371.3V149.125C309.383 141.058 315.946 134.495 324.012 134.495H425.369C433.435 134.495 439.998 141.058 439.998 149.125V371.3C439.998 379.367 433.435 385.929 425.369 385.929H324.012Z" fill="url(#paint146_linear_238_4225)"/>
<path d="M425.368 384.996H324.012C316.448 384.996 310.316 378.865 310.316 371.301V149.126C310.316 141.562 316.448 135.43 324.012 135.43H425.368C432.932 135.43 439.064 141.562 439.064 149.126V371.301C439.064 378.865 432.932 384.996 425.368 384.996Z" fill="url(#paint147_linear_238_4225)"/>
<path d="M425.367 140.097H390.939C389.759 140.097 388.802 141.054 388.802 142.234V144.689C388.802 146.179 387.594 147.387 386.104 147.387H363.275C361.785 147.387 360.576 146.179 360.576 144.689V142.234C360.576 141.054 359.62 140.097 358.44 140.097H324.011C319.026 140.097 314.984 144.139 314.984 149.124V371.3C314.984 376.285 319.026 380.326 324.011 380.326H425.367C430.353 380.326 434.394 376.285 434.394 371.299V149.125C434.394 144.139 430.353 140.097 425.367 140.097Z" fill="url(#paint148_linear_238_4225)"/>
<path d="M383.243 143.789H366.966C366.499 143.789 366.121 143.411 366.121 142.944C366.121 142.478 366.499 142.1 366.966 142.1H383.243C383.71 142.1 384.088 142.478 384.088 142.944C384.088 143.411 383.71 143.789 383.243 143.789Z" fill="#4F4F4F"/>
<path opacity="0.57" d="M310.857 371.781V149.606C310.857 142.042 316.988 135.91 324.552 135.91H425.908C429.187 135.91 432.195 137.065 434.553 138.988C432.122 136.784 428.908 135.43 425.369 135.43H324.012C316.448 135.43 310.316 141.562 310.316 149.126V371.301C310.316 375.586 312.286 379.408 315.367 381.919C312.603 379.413 310.857 375.805 310.857 371.781Z" fill="url(#paint149_linear_238_4225)"/>
<path d="M323.465 140.576H357.894C359.073 140.576 360.03 141.533 360.03 142.713V145.168C360.03 146.658 361.238 147.866 362.728 147.866H385.557C386.361 147.866 387.074 147.508 387.569 146.951C387.147 147.225 386.645 147.388 386.104 147.388H363.276C361.785 147.388 360.577 146.179 360.577 144.689V142.234C360.577 141.054 359.621 140.098 358.441 140.098H324.012C321.621 140.098 319.453 141.034 317.838 142.551C319.382 141.318 321.335 140.576 323.465 140.576Z" fill="url(#paint150_linear_238_4225)"/>
<path d="M425.369 140.098H390.94C390.272 140.098 389.683 140.411 389.291 140.891C389.614 140.695 389.988 140.577 390.393 140.577H424.821C429.807 140.577 433.848 144.618 433.848 149.604V371.779C433.848 374.373 432.747 376.705 430.995 378.352C433.066 376.697 434.396 374.156 434.396 371.299V149.125C434.396 144.139 430.354 140.098 425.369 140.098Z" fill="url(#paint151_linear_238_4225)"/>
<path d="M357.315 164.286H323.277V174.551H357.315V164.286Z" fill="#FEFFFF"/>
<path d="M387.393 187.979H333.032C332.369 187.979 331.832 187.442 331.832 186.779V186.663C331.832 186 332.37 185.463 333.032 185.463H387.393C388.056 185.463 388.593 186 388.593 186.663V186.779C388.593 187.442 388.056 187.979 387.393 187.979Z" fill="#FEFFFF"/>
<path d="M387.333 194.634H324.536C323.841 194.634 323.277 194.07 323.277 193.375C323.277 192.681 323.841 192.117 324.536 192.117H387.333C388.028 192.117 388.591 192.681 388.591 193.375C388.591 194.07 388.028 194.634 387.333 194.634Z" fill="#FEFFFF"/>
<path d="M387.333 201.286H324.536C323.841 201.286 323.277 200.723 323.277 200.028C323.277 199.333 323.841 198.77 324.536 198.77H387.333C388.028 198.77 388.591 199.333 388.591 200.028C388.591 200.723 388.028 201.286 387.333 201.286Z" fill="#FEFFFF"/>
<path d="M377.314 207.939H324.461C323.807 207.939 323.277 207.409 323.277 206.755V206.606C323.277 205.953 323.807 205.423 324.461 205.423H377.314C377.968 205.423 378.498 205.953 378.498 206.606V206.755C378.498 207.409 377.968 207.939 377.314 207.939Z" fill="#FEFFFF"/>
<path d="M414.541 183.218L399.578 195.234H414.541H429.503L414.541 183.218Z" fill="#FFFF00"/>
<path d="M418.997 199.176H416.875V202.022H418.997V199.176Z" fill="#FFFF00"/>
<path d="M421.847 202.574H419.68V205.225H421.847V202.574Z" fill="#FFFF00"/>
<path d="M418.997 202.574H416.875V205.225H418.997V202.574Z" fill="#FFFF00"/>
<path d="M404.266 195.918V210.187H424.816V195.918H404.266ZM412.629 209.473H405.875V198.105H412.629V209.473ZM422.467 205.819H416.256V198.581H422.467V205.819Z" fill="#FFFF00"/>
<path d="M421.847 199.176H419.68V202.022H421.847V199.176Z" fill="#FFFF00"/>
<path d="M387.393 224.731H333.032C332.369 224.731 331.832 224.194 331.832 223.531V223.415C331.832 222.752 332.37 222.215 333.032 222.215H387.393C388.056 222.215 388.593 222.752 388.593 223.415V223.531C388.593 224.194 388.056 224.731 387.393 224.731Z" fill="#FEFFFF"/>
<path d="M387.333 231.385H324.536C323.841 231.385 323.277 230.822 323.277 230.127C323.277 229.432 323.841 228.869 324.536 228.869H387.333C388.028 228.869 388.591 229.432 388.591 230.127C388.591 230.822 388.028 231.385 387.333 231.385Z" fill="#FEFFFF"/>
<path d="M387.333 238.038H324.536C323.841 238.038 323.277 237.475 323.277 236.78C323.277 236.085 323.841 235.522 324.536 235.522H387.333C388.028 235.522 388.591 236.085 388.591 236.78C388.591 237.475 388.028 238.038 387.333 238.038Z" fill="#FEFFFF"/>
<path d="M377.314 244.691H324.461C323.807 244.691 323.277 244.161 323.277 243.507V243.358C323.277 242.705 323.807 242.175 324.461 242.175H377.314C377.968 242.175 378.498 242.705 378.498 243.358V243.507C378.498 244.161 377.968 244.691 377.314 244.691Z" fill="#FEFFFF"/>
<path d="M414.541 219.969L399.578 231.984H414.541H429.503L414.541 219.969Z" fill="#00B7FF"/>
<path d="M418.997 235.926H416.875V238.772H418.997V235.926Z" fill="#00B7FF"/>
<path d="M421.847 239.325H419.68V241.976H421.847V239.325Z" fill="#00B7FF"/>
<path d="M418.997 239.325H416.875V241.976H418.997V239.325Z" fill="#00B7FF"/>
<path d="M404.266 232.669V246.938H424.816V232.669H404.266ZM412.629 246.225H405.875V234.857H412.629V246.225ZM422.467 242.57H416.256V235.333H422.467V242.57Z" fill="#00B7FF"/>
<path d="M421.847 235.926H419.68V238.772H421.847V235.926Z" fill="#00B7FF"/>
<path d="M387.393 261.483H333.032C332.369 261.483 331.832 260.946 331.832 260.283V260.167C331.832 259.504 332.37 258.967 333.032 258.967H387.393C388.056 258.967 388.593 259.504 388.593 260.167V260.283C388.593 260.946 388.056 261.483 387.393 261.483Z" fill="#FEFFFF"/>
<path d="M387.333 268.136H324.536C323.841 268.136 323.277 267.573 323.277 266.878C323.277 266.183 323.841 265.62 324.536 265.62H387.333C388.028 265.62 388.591 266.183 388.591 266.878C388.591 267.573 388.028 268.136 387.333 268.136Z" fill="#FEFFFF"/>
<path d="M387.333 274.79H324.536C323.841 274.79 323.277 274.227 323.277 273.532C323.277 272.837 323.841 272.274 324.536 272.274H387.333C388.028 272.274 388.591 272.837 388.591 273.532C388.591 274.227 388.028 274.79 387.333 274.79Z" fill="#FEFFFF"/>
<path d="M377.314 281.442H324.461C323.807 281.442 323.277 280.912 323.277 280.258V280.109C323.277 279.456 323.807 278.926 324.461 278.926H377.314C377.968 278.926 378.498 279.456 378.498 280.109V280.258C378.498 280.912 377.968 281.442 377.314 281.442Z" fill="#FEFFFF"/>
<path d="M414.541 256.72L399.578 268.735H414.541H429.503L414.541 256.72Z" fill="#FEFFFF"/>
<path d="M418.997 272.677H416.875V275.523H418.997V272.677Z" fill="#FEFFFF"/>
<path d="M421.847 276.076H419.68V278.727H421.847V276.076Z" fill="#FEFFFF"/>
<path d="M418.997 276.076H416.875V278.727H418.997V276.076Z" fill="#FEFFFF"/>
<path d="M404.266 269.42V283.689H424.816V269.42H404.266ZM412.629 282.975H405.875V271.607H412.629V282.975ZM422.467 279.321H416.256V272.083H422.467V279.321Z" fill="#FEFFFF"/>
<path d="M421.847 272.677H419.68V275.523H421.847V272.677Z" fill="#FEFFFF"/>
<path d="M423.648 299.859H323.277V373.131H423.648V299.859Z" stroke="#F4F4F4" stroke-width="5.2397" stroke-miterlimit="10"/>
<path d="M323.277 312.263H423.648" stroke="#F4F4F4" stroke-width="7.8596" stroke-miterlimit="10"/>
<path d="M323.277 327.693H423.648" stroke="#F4F4F4" stroke-width="5.2397" stroke-miterlimit="10"/>
<path d="M323.277 343.121H423.648" stroke="#F4F4F4" stroke-width="5.2397" stroke-miterlimit="10"/>
<path d="M323.277 358.551H423.648" stroke="#F4F4F4" stroke-width="5.2397" stroke-miterlimit="10"/>
<path d="M361.352 299.859V373.131" stroke="#F4F4F4" stroke-width="5.2397" stroke-miterlimit="10"/>
<path d="M393.418 299.859V373.131" stroke="#F4F4F4" stroke-width="5.2397" stroke-miterlimit="10"/>
<path d="M357.287 304.616H329.137V306.769H357.287V304.616Z" fill="#FEFFFF"/>
<path d="M357.289 317.945H329.139V320.098H357.289V317.945Z" fill="#FEFFFF"/>
<path d="M344.538 334.343H329.139V336.495H344.538V334.343Z" fill="#FEFFFF"/>
<path d="M351.99 349.264H329.139V351.417H351.99V349.264Z" fill="#FEFFFF"/>
<path d="M355.796 364.188H329.137V366.34H355.796V364.188Z" fill="#FEFFFF"/>
<path d="M384.904 317.945H366.441V320.098H384.904V317.945Z" fill="#FEFFFF"/>
<path d="M376.542 334.343H366.441V336.495H376.542V334.343Z" fill="#FEFFFF"/>
<path d="M381.429 349.265H366.441V351.417H381.429V349.265Z" fill="#FEFFFF"/>
<path d="M383.927 364.188H366.441V366.34H383.927V364.188Z" fill="#FEFFFF"/>
<path d="M386.1 304.616H365.27V306.769H386.1V304.616Z" fill="#FEFFFF"/>
<path d="M418.997 304.616H398.166V306.769H418.997V304.616Z" fill="#FEFFFF"/>
<g opacity="0.2">
<path opacity="0.037" d="M304.419 358.923C304.518 348.06 285.803 339.083 262.618 338.872C239.433 338.661 220.557 347.296 220.458 358.159C220.359 369.021 239.075 377.998 262.26 378.209C285.445 378.42 304.32 369.785 304.419 358.923Z" fill="#141414"/>
<path opacity="0.0741" d="M303.684 358.915C303.781 348.243 285.394 339.424 262.616 339.217C239.837 339.009 221.292 347.493 221.195 358.165C221.098 368.837 239.485 377.656 262.264 377.864C285.043 378.071 303.587 369.587 303.684 358.915Z" fill="#141414"/>
<path opacity="0.1111" d="M302.944 358.911C303.039 348.429 284.98 339.767 262.608 339.564C240.236 339.36 222.022 347.692 221.927 358.174C221.831 368.655 239.89 377.317 262.262 377.521C284.635 377.725 302.848 369.393 302.944 358.911Z" fill="#141414"/>
<path opacity="0.1481" d="M302.211 358.903C302.304 348.612 284.573 340.108 262.608 339.908C240.642 339.708 222.759 347.888 222.666 358.18C222.572 368.471 240.303 376.976 262.269 377.175C284.234 377.375 302.117 369.195 302.211 358.903Z" fill="#141414"/>
<path opacity="0.1852" d="M301.473 358.896C301.565 348.795 284.163 340.448 262.604 340.252C241.044 340.056 223.493 348.085 223.401 358.186C223.309 368.286 240.712 376.634 262.271 376.83C283.83 377.026 301.381 368.997 301.473 358.896Z" fill="#141414"/>
<path opacity="0.2222" d="M300.738 358.89C300.829 348.979 283.754 340.789 262.601 340.597C241.449 340.404 224.228 348.282 224.138 358.193C224.048 368.103 241.122 376.293 262.275 376.485C283.428 376.678 300.648 368.8 300.738 358.89Z" fill="#141414"/>
<path opacity="0.2593" d="M300.004 358.882C300.092 349.163 283.346 341.13 262.599 340.941C241.853 340.753 224.963 348.479 224.875 358.199C224.787 367.918 241.533 375.951 262.279 376.14C283.025 376.328 299.915 368.602 300.004 358.882Z" fill="#141414"/>
<path opacity="0.2963" d="M299.266 358.876C299.353 349.347 282.935 341.472 262.595 341.286C242.256 341.101 225.697 348.676 225.61 358.206C225.523 367.735 241.942 375.61 262.281 375.795C282.621 375.98 299.18 368.405 299.266 358.876Z" fill="#141414"/>
<path opacity="0.3333" d="M298.529 358.869C298.614 349.531 282.524 341.813 262.591 341.631C242.658 341.45 226.43 348.874 226.345 358.213C226.26 367.551 242.35 375.269 262.284 375.451C282.217 375.632 298.444 368.208 298.529 358.869Z" fill="#141414"/>
<path opacity="0.3704" d="M297.795 358.862C297.878 349.714 282.116 342.153 262.589 341.976C243.063 341.798 227.166 349.07 227.082 358.219C226.999 367.367 242.761 374.927 262.288 375.105C281.814 375.283 297.711 368.01 297.795 358.862Z" fill="#141414"/>
<path opacity="0.4074" d="M297.058 358.856C297.139 349.898 281.705 342.495 262.585 342.321C243.465 342.147 227.899 349.267 227.818 358.225C227.736 367.183 243.17 374.586 262.29 374.76C281.41 374.934 296.976 367.814 297.058 358.856Z" fill="#141414"/>
<path opacity="0.4444" d="M296.323 358.85C296.403 350.083 281.297 342.837 262.583 342.667C243.87 342.496 228.634 349.466 228.555 358.233C228.475 367.001 243.581 374.246 262.294 374.417C281.008 374.587 296.243 367.618 296.323 358.85Z" fill="#141414"/>
<path opacity="0.4815" d="M295.586 358.843C295.664 350.266 280.886 343.177 262.579 343.011C244.272 342.844 229.368 349.662 229.29 358.239C229.212 366.816 243.989 373.905 262.296 374.071C280.603 374.238 295.507 367.42 295.586 358.843Z" fill="#141414"/>
<path opacity="0.5185" d="M294.851 358.836C294.927 350.45 280.478 343.519 262.577 343.356C244.676 343.193 230.103 349.86 230.027 358.246C229.951 366.633 244.4 373.564 262.301 373.727C280.201 373.889 294.774 367.223 294.851 358.836Z" fill="#141414"/>
<path opacity="0.5556" d="M294.114 358.829C294.188 350.633 280.067 343.859 262.573 343.7C245.079 343.541 230.837 350.056 230.762 358.252C230.687 366.448 244.809 373.222 262.303 373.381C279.797 373.54 294.039 367.025 294.114 358.829Z" fill="#141414"/>
<path opacity="0.5926" d="M293.379 358.822C293.451 350.817 279.658 344.201 262.571 344.045C245.483 343.89 231.572 350.253 231.499 358.259C231.426 366.265 245.219 372.881 262.307 373.036C279.394 373.192 293.306 366.828 293.379 358.822Z" fill="#141414"/>
<path opacity="0.6296" d="M292.642 358.816C292.713 351.001 279.248 344.542 262.567 344.39C245.886 344.238 232.305 350.451 232.234 358.266C232.163 366.081 245.628 372.54 262.309 372.692C278.99 372.844 292.571 366.631 292.642 358.816Z" fill="#141414"/>
<path opacity="0.6667" d="M291.905 358.808C291.974 351.184 278.837 344.882 262.563 344.734C246.288 344.586 233.039 350.647 232.969 358.272C232.9 365.897 246.037 372.198 262.311 372.346C278.586 372.494 291.835 366.433 291.905 358.808Z" fill="#141414"/>
<path opacity="0.7037" d="M291.17 358.802C291.238 351.368 278.429 345.224 262.561 345.079C246.693 344.935 233.774 350.845 233.706 358.279C233.639 365.713 246.448 371.857 262.316 372.002C278.184 372.146 291.102 366.236 291.17 358.802Z" fill="#141414"/>
<path opacity="0.7407" d="M290.433 358.796C290.499 351.553 278.018 345.566 262.557 345.425C247.095 345.285 234.508 351.043 234.442 358.287C234.376 365.531 246.856 371.517 262.318 371.658C277.779 371.799 290.367 366.04 290.433 358.796Z" fill="#141414"/>
<path opacity="0.7778" d="M289.698 358.788C289.762 351.735 277.609 345.906 262.554 345.769C247.499 345.632 235.243 351.239 235.179 358.292C235.115 365.346 247.267 371.175 262.322 371.312C277.377 371.449 289.634 365.842 289.698 358.788Z" fill="#141414"/>
<path opacity="0.8148" d="M288.961 358.783C289.023 351.92 277.199 346.248 262.55 346.115C247.902 345.981 235.976 351.437 235.914 358.3C235.851 365.163 247.676 370.834 262.324 370.968C276.973 371.101 288.898 365.646 288.961 358.783Z" fill="#141414"/>
<path opacity="0.8519" d="M288.224 358.775C288.285 352.103 276.789 346.589 262.546 346.459C248.304 346.329 236.71 351.634 236.649 358.306C236.588 364.979 248.085 370.493 262.327 370.622C276.569 370.752 288.163 365.448 288.224 358.775Z" fill="#141414"/>
<path opacity="0.8889" d="M287.489 358.769C287.548 352.287 276.38 346.93 262.544 346.804C248.709 346.678 237.445 351.831 237.386 358.313C237.327 364.795 248.495 370.152 262.331 370.278C276.166 370.404 287.43 365.251 287.489 358.769Z" fill="#141414"/>
<path opacity="0.9259" d="M286.754 358.762C286.811 352.471 275.971 347.271 262.542 347.149C249.113 347.027 238.18 352.028 238.123 358.32C238.066 364.612 248.906 369.811 262.335 369.933C275.764 370.055 286.697 365.054 286.754 358.762Z" fill="#141414"/>
<path opacity="0.963" d="M286.017 358.755C286.073 352.654 275.561 347.612 262.538 347.493C249.516 347.375 238.914 352.225 238.858 358.326C238.803 364.427 249.315 369.469 262.337 369.588C275.36 369.706 285.961 364.856 286.017 358.755Z" fill="#141414"/>
<path d="M285.28 358.749C285.334 352.838 275.15 347.953 262.534 347.838C249.918 347.724 239.647 352.422 239.593 358.333C239.54 364.243 249.723 369.128 262.339 369.243C274.955 369.358 285.226 364.659 285.28 358.749Z" fill="#141414"/>
</g>
<path d="M298.781 254.772C298.639 264.544 294.507 272.297 294.507 272.297H294.513L309.671 267.072C313.273 267.072 316.19 262.28 316.19 256.363C316.19 250.446 313.273 245.648 309.671 245.648L293.815 240.391C293.809 240.391 293.809 240.391 293.809 240.391C293.809 240.391 298.924 244.995 298.781 254.772Z" fill="url(#paint152_linear_238_4225)"/>
<path d="M201.592 304.67V305.949L276.663 280.069H276.673L299.215 272.298C304.572 272.298 308.909 265.172 308.909 256.372C308.909 247.573 304.572 240.437 299.215 240.437L275.634 232.618C275.625 232.618 275.625 232.618 275.625 232.618L201.592 208.075C214.96 213.172 224.913 232.859 224.913 256.372C224.913 279.886 214.96 299.573 201.592 304.67Z" fill="url(#paint153_linear_238_4225)"/>
<path d="M161.201 256.373C161.201 286.834 176.223 311.528 194.754 311.528C197.375 311.528 199.921 311.036 202.361 310.105C217.233 304.434 228.306 282.533 228.306 256.373C228.306 230.214 217.233 208.312 202.361 202.642C199.922 201.711 197.375 201.219 194.754 201.219C176.223 201.218 161.201 225.912 161.201 256.373Z" fill="url(#paint154_linear_238_4225)"/>
<path d="M156.867 256.373C156.867 286.834 171.889 311.528 190.42 311.528C193.041 311.528 195.587 311.036 198.027 310.105C212.899 304.434 223.972 282.533 223.972 256.373C223.972 230.214 212.899 208.312 198.027 202.642C195.587 201.711 193.041 201.219 190.42 201.219C171.889 201.218 156.867 225.912 156.867 256.373Z" fill="url(#paint155_linear_238_4225)"/>
<path d="M159.727 256.372C159.727 284.233 173.469 306.824 190.415 306.824C192.819 306.824 195.146 306.372 197.377 305.526C205.494 302.429 212.371 294.052 216.602 282.714C219.468 275.049 221.113 266.028 221.113 256.373C221.113 246.717 219.468 237.696 216.602 230.031C212.371 218.693 205.494 210.316 197.377 207.219C195.146 206.373 192.819 205.921 190.415 205.921C173.469 205.921 159.727 228.512 159.727 256.372Z" fill="url(#paint156_linear_238_4225)"/>
<path d="M185.348 239.417V273.328L216.603 282.714C219.469 275.049 221.113 266.028 221.113 256.372C221.113 246.717 219.469 237.696 216.603 230.031L185.348 239.417Z" fill="url(#paint157_linear_238_4225)"/>
<path d="M174.127 256.373C174.127 265.736 178.744 273.326 184.44 273.326C185.246 273.326 186.028 273.175 186.778 272.889C191.349 271.146 194.753 264.414 194.753 256.374C194.753 248.333 191.349 241.601 186.778 239.858C186.028 239.572 185.246 239.421 184.44 239.421C178.744 239.421 174.127 247.011 174.127 256.373Z" fill="url(#paint158_linear_238_4225)"/>
<path d="M283.017 254.007C282.805 268.539 276.659 280.07 276.659 280.07H276.669L299.212 272.299C304.568 272.299 308.906 265.173 308.906 256.373C308.906 247.574 304.568 240.438 299.212 240.438L275.631 232.619C275.621 232.619 275.621 232.619 275.621 232.619C275.621 232.619 283.228 239.467 283.017 254.007Z" fill="url(#paint159_linear_238_4225)"/>
<path d="M276.671 280.07L258.273 356.008L273.267 354.645L297.171 273.003L276.671 280.07Z" fill="url(#paint160_linear_238_4225)"/>
<path d="M264.555 284.244L252.031 352.498L258.276 356.008L276.673 280.069L264.555 284.244Z" fill="url(#paint161_linear_238_4225)"/>
<defs>
<linearGradient id="paint0_linear_238_4225" x1="237.218" y1="185.202" x2="80.861" y2="188.058" gradientUnits="userSpaceOnUse">
<stop stop-color="#767576"/>
<stop offset="0.5955" stop-color="#474647"/>
<stop offset="0.7312" stop-color="#2F2F2F"/>
<stop offset="0.8719" stop-color="#343434"/>
<stop offset="1" stop-color="#2D2D2D"/>
</linearGradient>
<linearGradient id="paint1_linear_238_4225" x1="237.218" y1="184.896" x2="80.861" y2="187.752" gradientUnits="userSpaceOnUse">
<stop stop-color="#767576"/>
<stop offset="0.5955" stop-color="#474647"/>
<stop offset="0.7312" stop-color="#FDFEF9"/>
<stop offset="0.8719" stop-color="#343434"/>
<stop offset="1" stop-color="#2D2D2D"/>
</linearGradient>
<linearGradient id="paint2_linear_238_4225" x1="9.74412" y1="171.878" x2="404.557" y2="171.878" gradientUnits="userSpaceOnUse">
<stop stop-color="#767576"/>
<stop offset="1" stop-color="#2D2D2D"/>
</linearGradient>
<linearGradient id="paint3_linear_238_4225" x1="206.916" y1="112.058" x2="207.63" y2="290.548" gradientUnits="userSpaceOnUse">
<stop stop-color="#767576"/>
<stop offset="1" stop-color="#FDFDFF"/>
</linearGradient>
<linearGradient id="paint4_linear_238_4225" x1="14.9648" y1="171.877" x2="399.336" y2="171.877" gradientUnits="userSpaceOnUse">
<stop stop-color="#16AAAE"/>
<stop offset="0.9925" stop-color="#80FA7D"/>
</linearGradient>
<linearGradient id="paint5_linear_238_4225" x1="310.981" y1="136.838" x2="300.633" y2="29.7117" gradientUnits="userSpaceOnUse">
<stop stop-color="#F9F9F9"/>
<stop offset="1" stop-color="#D3D4D5"/>
</linearGradient>
<linearGradient id="paint6_linear_238_4225" x1="284.007" y1="71.6943" x2="227.301" y2="71.6943" gradientUnits="userSpaceOnUse">
<stop stop-color="#898889"/>
<stop offset="1" stop-color="#D3D4D5"/>
</linearGradient>
<linearGradient id="paint7_linear_238_4225" x1="308.061" y1="36.0697" x2="227.301" y2="36.0697" gradientUnits="userSpaceOnUse">
<stop stop-color="#4F4FA3"/>
<stop offset="1" stop-color="#3084D7"/>
</linearGradient>
<linearGradient id="paint8_linear_238_4225" x1="336.413" y1="19.5146" x2="255.654" y2="19.5146" gradientUnits="userSpaceOnUse">
<stop stop-color="#4F4FA3"/>
<stop offset="1" stop-color="#3084D7"/>
</linearGradient>
<linearGradient id="paint9_linear_238_4225" x1="233.631" y1="158.688" x2="271.025" y2="62.8658" gradientUnits="userSpaceOnUse">
<stop stop-color="#898889"/>
<stop offset="1" stop-color="#D3D4D5"/>
</linearGradient>
<linearGradient id="paint10_linear_238_4225" x1="290.471" y1="95.3168" x2="299.701" y2="71.2644" gradientUnits="userSpaceOnUse">
<stop stop-color="#4F4FA3"/>
<stop offset="1" stop-color="#3084D7"/>
</linearGradient>
<linearGradient id="paint11_linear_238_4225" x1="300.282" y1="84.3142" x2="305.716" y2="70.1545" gradientUnits="userSpaceOnUse">
<stop stop-color="#898889"/>
<stop offset="1" stop-color="#575657"/>
</linearGradient>
<linearGradient id="paint12_linear_238_4225" x1="296.555" y1="95.3165" x2="294.13" y2="80.4565" gradientUnits="userSpaceOnUse">
<stop stop-color="#C2C2C3"/>
<stop offset="1" stop-color="#D3D4D5"/>
</linearGradient>
<linearGradient id="paint13_linear_238_4225" x1="290.048" y1="92.739" x2="298.075" y2="71.8242" gradientUnits="userSpaceOnUse">
<stop stop-color="#F9F9F9"/>
<stop offset="1" stop-color="#D3D4D5"/>
</linearGradient>
<linearGradient id="paint14_linear_238_4225" x1="298.385" y1="83.4889" x2="302.835" y2="71.8929" gradientUnits="userSpaceOnUse">
<stop stop-color="#053F9B"/>
<stop offset="1" stop-color="#13568E"/>
</linearGradient>
<linearGradient id="paint15_linear_238_4225" x1="292.636" y1="87.3193" x2="297.401" y2="74.9035" gradientUnits="userSpaceOnUse">
<stop stop-color="#F9F9F9"/>
<stop offset="1" stop-color="#D3D4D5"/>
</linearGradient>
<linearGradient id="paint16_linear_238_4225" x1="292.997" y1="85.3888" x2="296.057" y2="77.4154" gradientUnits="userSpaceOnUse">
<stop stop-color="#F9F9F9"/>
<stop offset="1" stop-color="#D3D4D5"/>
</linearGradient>
<linearGradient id="paint17_linear_238_4225" x1="290.471" y1="157.36" x2="299.701" y2="133.307" gradientUnits="userSpaceOnUse">
<stop stop-color="#4F4FA3"/>
<stop offset="1" stop-color="#3084D7"/>
</linearGradient>
<linearGradient id="paint18_linear_238_4225" x1="300.282" y1="146.357" x2="305.716" y2="132.198" gradientUnits="userSpaceOnUse">
<stop stop-color="#898889"/>
<stop offset="1" stop-color="#575657"/>
</linearGradient>
<linearGradient id="paint19_linear_238_4225" x1="296.555" y1="157.359" x2="294.13" y2="142.5" gradientUnits="userSpaceOnUse">
<stop stop-color="#C2C2C3"/>
<stop offset="1" stop-color="#D3D4D5"/>
</linearGradient>
<linearGradient id="paint20_linear_238_4225" x1="290.048" y1="154.782" x2="298.075" y2="133.867" gradientUnits="userSpaceOnUse">
<stop stop-color="#F9F9F9"/>
<stop offset="1" stop-color="#D3D4D5"/>
</linearGradient>
<linearGradient id="paint21_linear_238_4225" x1="298.385" y1="145.532" x2="302.835" y2="133.936" gradientUnits="userSpaceOnUse">
<stop stop-color="#053F9B"/>
<stop offset="1" stop-color="#13568E"/>
</linearGradient>
<linearGradient id="paint22_linear_238_4225" x1="292.636" y1="149.362" x2="297.401" y2="136.947" gradientUnits="userSpaceOnUse">
<stop stop-color="#F9F9F9"/>
<stop offset="1" stop-color="#D3D4D5"/>
</linearGradient>
<linearGradient id="paint23_linear_238_4225" x1="292.997" y1="147.432" x2="296.057" y2="139.458" gradientUnits="userSpaceOnUse">
<stop stop-color="#F9F9F9"/>
<stop offset="1" stop-color="#D3D4D5"/>
</linearGradient>
<linearGradient id="paint24_linear_238_4225" x1="315.918" y1="82.8792" x2="325.148" y2="58.8269" gradientUnits="userSpaceOnUse">
<stop stop-color="#4F4FA3"/>
<stop offset="1" stop-color="#3084D7"/>
</linearGradient>
<linearGradient id="paint25_linear_238_4225" x1="325.729" y1="71.8766" x2="331.163" y2="57.717" gradientUnits="userSpaceOnUse">
<stop stop-color="#898889"/>
<stop offset="1" stop-color="#575657"/>
</linearGradient>
<linearGradient id="paint26_linear_238_4225" x1="322.002" y1="82.879" x2="319.578" y2="68.019" gradientUnits="userSpaceOnUse">
<stop stop-color="#C2C2C3"/>
<stop offset="1" stop-color="#D3D4D5"/>
</linearGradient>
<linearGradient id="paint27_linear_238_4225" x1="315.496" y1="80.3017" x2="323.522" y2="59.3869" gradientUnits="userSpaceOnUse">
<stop stop-color="#F9F9F9"/>
<stop offset="1" stop-color="#D3D4D5"/>
</linearGradient>
<linearGradient id="paint28_linear_238_4225" x1="323.832" y1="71.0505" x2="328.282" y2="59.4546" gradientUnits="userSpaceOnUse">
<stop stop-color="#053F9B"/>
<stop offset="1" stop-color="#13568E"/>
</linearGradient>
<linearGradient id="paint29_linear_238_4225" x1="318.086" y1="74.8817" x2="322.851" y2="62.4661" gradientUnits="userSpaceOnUse">
<stop stop-color="#F9F9F9"/>
<stop offset="1" stop-color="#D3D4D5"/>
</linearGradient>
<linearGradient id="paint30_linear_238_4225" x1="318.444" y1="72.9514" x2="321.504" y2="64.9781" gradientUnits="userSpaceOnUse">
<stop stop-color="#F9F9F9"/>
<stop offset="1" stop-color="#D3D4D5"/>
</linearGradient>
<linearGradient id="paint31_linear_238_4225" x1="269.762" y1="96.8166" x2="260.532" y2="72.7643" gradientUnits="userSpaceOnUse">
<stop stop-color="#4F4FA3"/>
<stop offset="1" stop-color="#3084D7"/>
</linearGradient>
<linearGradient id="paint32_linear_238_4225" x1="259.951" y1="85.814" x2="254.517" y2="71.6544" gradientUnits="userSpaceOnUse">
<stop stop-color="#898889"/>
<stop offset="1" stop-color="#575657"/>
</linearGradient>
<linearGradient id="paint33_linear_238_4225" x1="263.678" y1="96.8163" x2="266.103" y2="81.9564" gradientUnits="userSpaceOnUse">
<stop stop-color="#C2C2C3"/>
<stop offset="1" stop-color="#D3D4D5"/>
</linearGradient>
<linearGradient id="paint34_linear_238_4225" x1="270.184" y1="94.2391" x2="262.158" y2="73.3243" gradientUnits="userSpaceOnUse">
<stop stop-color="#F9F9F9"/>
<stop offset="1" stop-color="#D3D4D5"/>
</linearGradient>
<linearGradient id="paint35_linear_238_4225" x1="261.849" y1="84.9879" x2="257.398" y2="73.392" gradientUnits="userSpaceOnUse">
<stop stop-color="#053F9B"/>
<stop offset="1" stop-color="#13568E"/>
</linearGradient>
<linearGradient id="paint36_linear_238_4225" x1="267.596" y1="88.8194" x2="262.831" y2="76.4036" gradientUnits="userSpaceOnUse">
<stop stop-color="#F9F9F9"/>
<stop offset="1" stop-color="#D3D4D5"/>
</linearGradient>
<linearGradient id="paint37_linear_238_4225" x1="267.235" y1="86.8888" x2="264.176" y2="78.9155" gradientUnits="userSpaceOnUse">
<stop stop-color="#F9F9F9"/>
<stop offset="1" stop-color="#D3D4D5"/>
</linearGradient>
<linearGradient id="paint38_linear_238_4225" x1="244.313" y1="84.3793" x2="235.083" y2="60.3269" gradientUnits="userSpaceOnUse">
<stop stop-color="#4F4FA3"/>
<stop offset="1" stop-color="#3084D7"/>
</linearGradient>
<linearGradient id="paint39_linear_238_4225" x1="234.502" y1="73.3767" x2="229.068" y2="59.2171" gradientUnits="userSpaceOnUse">
<stop stop-color="#898889"/>
<stop offset="1" stop-color="#575657"/>
</linearGradient>
<linearGradient id="paint40_linear_238_4225" x1="238.229" y1="84.379" x2="240.653" y2="69.5191" gradientUnits="userSpaceOnUse">
<stop stop-color="#C2C2C3"/>
<stop offset="1" stop-color="#D3D4D5"/>
</linearGradient>
<linearGradient id="paint41_linear_238_4225" x1="244.735" y1="81.8015" x2="236.709" y2="60.8867" gradientUnits="userSpaceOnUse">
<stop stop-color="#F9F9F9"/>
<stop offset="1" stop-color="#D3D4D5"/>
</linearGradient>
<linearGradient id="paint42_linear_238_4225" x1="236.399" y1="72.5514" x2="231.949" y2="60.9555" gradientUnits="userSpaceOnUse">
<stop stop-color="#053F9B"/>
<stop offset="1" stop-color="#13568E"/>
</linearGradient>
<linearGradient id="paint43_linear_238_4225" x1="242.147" y1="76.3818" x2="237.382" y2="63.9661" gradientUnits="userSpaceOnUse">
<stop stop-color="#F9F9F9"/>
<stop offset="1" stop-color="#D3D4D5"/>
</linearGradient>
<linearGradient id="paint44_linear_238_4225" x1="241.786" y1="74.4513" x2="238.726" y2="66.4779" gradientUnits="userSpaceOnUse">
<stop stop-color="#F9F9F9"/>
<stop offset="1" stop-color="#D3D4D5"/>
</linearGradient>
<linearGradient id="paint45_linear_238_4225" x1="269.762" y1="136.115" x2="260.532" y2="112.062" gradientUnits="userSpaceOnUse">
<stop stop-color="#4F4FA3"/>
<stop offset="1" stop-color="#3084D7"/>
</linearGradient>
<linearGradient id="paint46_linear_238_4225" x1="259.951" y1="125.112" x2="254.517" y2="110.952" gradientUnits="userSpaceOnUse">
<stop stop-color="#898889"/>
<stop offset="1" stop-color="#575657"/>
</linearGradient>
<linearGradient id="paint47_linear_238_4225" x1="263.678" y1="136.114" x2="266.103" y2="121.254" gradientUnits="userSpaceOnUse">
<stop stop-color="#C2C2C3"/>
<stop offset="1" stop-color="#D3D4D5"/>
</linearGradient>
<linearGradient id="paint48_linear_238_4225" x1="270.184" y1="133.537" x2="262.158" y2="112.622" gradientUnits="userSpaceOnUse">
<stop stop-color="#F9F9F9"/>
<stop offset="1" stop-color="#D3D4D5"/>
</linearGradient>
<linearGradient id="paint49_linear_238_4225" x1="261.849" y1="124.286" x2="257.398" y2="112.69" gradientUnits="userSpaceOnUse">
<stop stop-color="#053F9B"/>
<stop offset="1" stop-color="#13568E"/>
</linearGradient>
<linearGradient id="paint50_linear_238_4225" x1="267.596" y1="128.117" x2="262.831" y2="115.702" gradientUnits="userSpaceOnUse">
<stop stop-color="#F9F9F9"/>
<stop offset="1" stop-color="#D3D4D5"/>
</linearGradient>
<linearGradient id="paint51_linear_238_4225" x1="267.235" y1="126.187" x2="264.176" y2="118.213" gradientUnits="userSpaceOnUse">
<stop stop-color="#F9F9F9"/>
<stop offset="1" stop-color="#D3D4D5"/>
</linearGradient>
<linearGradient id="paint52_linear_238_4225" x1="244.313" y1="123.677" x2="235.083" y2="99.6247" gradientUnits="userSpaceOnUse">
<stop stop-color="#4F4FA3"/>
<stop offset="1" stop-color="#3084D7"/>
</linearGradient>
<linearGradient id="paint53_linear_238_4225" x1="234.502" y1="112.674" x2="229.068" y2="98.5148" gradientUnits="userSpaceOnUse">
<stop stop-color="#898889"/>
<stop offset="1" stop-color="#575657"/>
</linearGradient>
<linearGradient id="paint54_linear_238_4225" x1="238.229" y1="123.677" x2="240.653" y2="108.817" gradientUnits="userSpaceOnUse">
<stop stop-color="#C2C2C3"/>
<stop offset="1" stop-color="#D3D4D5"/>
</linearGradient>
<linearGradient id="paint55_linear_238_4225" x1="244.735" y1="121.099" x2="236.709" y2="100.185" gradientUnits="userSpaceOnUse">
<stop stop-color="#F9F9F9"/>
<stop offset="1" stop-color="#D3D4D5"/>
</linearGradient>
<linearGradient id="paint56_linear_238_4225" x1="236.399" y1="111.848" x2="231.949" y2="100.252" gradientUnits="userSpaceOnUse">
<stop stop-color="#053F9B"/>
<stop offset="1" stop-color="#13568E"/>
</linearGradient>
<linearGradient id="paint57_linear_238_4225" x1="242.147" y1="115.68" x2="237.382" y2="103.264" gradientUnits="userSpaceOnUse">
<stop stop-color="#F9F9F9"/>
<stop offset="1" stop-color="#D3D4D5"/>
</linearGradient>
<linearGradient id="paint58_linear_238_4225" x1="241.786" y1="113.749" x2="238.726" y2="105.776" gradientUnits="userSpaceOnUse">
<stop stop-color="#F9F9F9"/>
<stop offset="1" stop-color="#D3D4D5"/>
</linearGradient>
<linearGradient id="paint59_linear_238_4225" x1="319.429" y1="150.745" x2="328.66" y2="126.692" gradientUnits="userSpaceOnUse">
<stop stop-color="#4F4FA3"/>
<stop offset="1" stop-color="#3084D7"/>
</linearGradient>
<linearGradient id="paint60_linear_238_4225" x1="329.241" y1="139.742" x2="334.675" y2="125.583" gradientUnits="userSpaceOnUse">
<stop stop-color="#898889"/>
<stop offset="1" stop-color="#575657"/>
</linearGradient>
<linearGradient id="paint61_linear_238_4225" x1="325.514" y1="150.744" x2="323.089" y2="135.885" gradientUnits="userSpaceOnUse">
<stop stop-color="#C2C2C3"/>
<stop offset="1" stop-color="#D3D4D5"/>
</linearGradient>
<linearGradient id="paint62_linear_238_4225" x1="319.007" y1="148.167" x2="327.034" y2="127.252" gradientUnits="userSpaceOnUse">
<stop stop-color="#F9F9F9"/>
<stop offset="1" stop-color="#D3D4D5"/>
</linearGradient>
<linearGradient id="paint63_linear_238_4225" x1="327.344" y1="138.917" x2="331.794" y2="127.321" gradientUnits="userSpaceOnUse">
<stop stop-color="#053F9B"/>
<stop offset="1" stop-color="#13568E"/>
</linearGradient>
<linearGradient id="paint64_linear_238_4225" x1="316.719" y1="114.857" x2="343.044" y2="127.32" gradientUnits="userSpaceOnUse">
<stop stop-color="#4F4FA3"/>
<stop offset="1" stop-color="#3084D7"/>
</linearGradient>
<linearGradient id="paint65_linear_238_4225" x1="75.4673" y1="244.15" x2="52.3674" y2="183.957" gradientUnits="userSpaceOnUse">
<stop stop-color="#898889"/>
<stop offset="1" stop-color="#D3D4D5"/>
</linearGradient>
<linearGradient id="paint66_linear_238_4225" x1="85.7499" y1="172.868" x2="142.457" y2="172.868" gradientUnits="userSpaceOnUse">
<stop stop-color="#898889"/>
<stop offset="1" stop-color="#D3D4D5"/>
</linearGradient>
<linearGradient id="paint67_linear_238_4225" x1="61.6973" y1="167.501" x2="142.457" y2="167.501" gradientUnits="userSpaceOnUse">
<stop stop-color="#4F4FA3"/>
<stop offset="1" stop-color="#3084D7"/>
</linearGradient>
<linearGradient id="paint68_linear_238_4225" x1="33.3438" y1="150.945" x2="114.103" y2="150.945" gradientUnits="userSpaceOnUse">
<stop stop-color="#4F4FA3"/>
<stop offset="1" stop-color="#3084D7"/>
</linearGradient>
<linearGradient id="paint69_linear_238_4225" x1="120.058" y1="173.391" x2="114.823" y2="222.327" gradientUnits="userSpaceOnUse">
<stop stop-color="#F9F9F9"/>
<stop offset="1" stop-color="#D3D4D5"/>
</linearGradient>
<linearGradient id="paint70_linear_238_4225" x1="79.2898" y1="225.138" x2="70.0594" y2="201.086" gradientUnits="userSpaceOnUse">
<stop stop-color="#4F4FA3"/>
<stop offset="1" stop-color="#3084D7"/>
</linearGradient>
<linearGradient id="paint71_linear_238_4225" x1="69.4786" y1="214.136" x2="64.0446" y2="199.976" gradientUnits="userSpaceOnUse">
<stop stop-color="#898889"/>
<stop offset="1" stop-color="#575657"/>
</linearGradient>
<linearGradient id="paint72_linear_238_4225" x1="73.2051" y1="225.138" x2="75.63" y2="210.278" gradientUnits="userSpaceOnUse">
<stop stop-color="#C2C2C3"/>
<stop offset="1" stop-color="#D3D4D5"/>
</linearGradient>
<linearGradient id="paint73_linear_238_4225" x1="79.7117" y1="222.561" x2="71.6854" y2="201.646" gradientUnits="userSpaceOnUse">
<stop stop-color="#F9F9F9"/>
<stop offset="1" stop-color="#D3D4D5"/>
</linearGradient>
<linearGradient id="paint74_linear_238_4225" x1="71.3778" y1="213.309" x2="66.9277" y2="201.713" gradientUnits="userSpaceOnUse">
<stop stop-color="#053F9B"/>
<stop offset="1" stop-color="#13568E"/>
</linearGradient>
<linearGradient id="paint75_linear_238_4225" x1="77.1232" y1="217.141" x2="72.3585" y2="204.725" gradientUnits="userSpaceOnUse">
<stop stop-color="#F9F9F9"/>
<stop offset="1" stop-color="#D3D4D5"/>
</linearGradient>
<linearGradient id="paint76_linear_238_4225" x1="76.7647" y1="215.21" x2="73.7048" y2="207.237" gradientUnits="userSpaceOnUse">
<stop stop-color="#F9F9F9"/>
<stop offset="1" stop-color="#D3D4D5"/>
</linearGradient>
<linearGradient id="paint77_linear_238_4225" x1="50.325" y1="222.384" x2="41.0945" y2="198.332" gradientUnits="userSpaceOnUse">
<stop stop-color="#4F4FA3"/>
<stop offset="1" stop-color="#3084D7"/>
</linearGradient>
<linearGradient id="paint78_linear_238_4225" x1="40.5138" y1="211.382" x2="35.0798" y2="197.222" gradientUnits="userSpaceOnUse">
<stop stop-color="#898889"/>
<stop offset="1" stop-color="#575657"/>
</linearGradient>
<linearGradient id="paint79_linear_238_4225" x1="44.2403" y1="222.384" x2="46.6652" y2="207.524" gradientUnits="userSpaceOnUse">
<stop stop-color="#C2C2C3"/>
<stop offset="1" stop-color="#D3D4D5"/>
</linearGradient>
<linearGradient id="paint80_linear_238_4225" x1="50.7467" y1="219.807" x2="42.7204" y2="198.892" gradientUnits="userSpaceOnUse">
<stop stop-color="#F9F9F9"/>
<stop offset="1" stop-color="#D3D4D5"/>
</linearGradient>
<linearGradient id="paint81_linear_238_4225" x1="42.4109" y1="210.556" x2="37.9609" y2="198.96" gradientUnits="userSpaceOnUse">
<stop stop-color="#053F9B"/>
<stop offset="1" stop-color="#13568E"/>
</linearGradient>
<linearGradient id="paint82_linear_238_4225" x1="124.414" y1="215.048" x2="133.644" y2="190.996" gradientUnits="userSpaceOnUse">
<stop stop-color="#4F4FA3"/>
<stop offset="1" stop-color="#3084D7"/>
</linearGradient>
<linearGradient id="paint83_linear_238_4225" x1="134.225" y1="204.046" x2="139.659" y2="189.886" gradientUnits="userSpaceOnUse">
<stop stop-color="#898889"/>
<stop offset="1" stop-color="#575657"/>
</linearGradient>
<linearGradient id="paint84_linear_238_4225" x1="130.499" y1="215.048" x2="128.074" y2="200.188" gradientUnits="userSpaceOnUse">
<stop stop-color="#C2C2C3"/>
<stop offset="1" stop-color="#D3D4D5"/>
</linearGradient>
<linearGradient id="paint85_linear_238_4225" x1="53.0383" y1="186.498" x2="26.7139" y2="198.961" gradientUnits="userSpaceOnUse">
<stop stop-color="#4F4FA3"/>
<stop offset="1" stop-color="#3084D7"/>
</linearGradient>
<linearGradient id="paint86_linear_238_4225" x1="126.764" y1="251.862" x2="158.081" y2="142.952" gradientUnits="userSpaceOnUse">
<stop stop-color="#898889"/>
<stop offset="1" stop-color="#D3D4D5"/>
</linearGradient>
<linearGradient id="paint87_linear_238_4225" x1="166.512" y1="162.393" x2="223.219" y2="162.393" gradientUnits="userSpaceOnUse">
<stop stop-color="#898889"/>
<stop offset="1" stop-color="#D3D4D5"/>
</linearGradient>
<linearGradient id="paint88_linear_238_4225" x1="142.459" y1="126.768" x2="223.219" y2="126.768" gradientUnits="userSpaceOnUse">
<stop stop-color="#4F4FA3"/>
<stop offset="1" stop-color="#3084D7"/>
</linearGradient>
<linearGradient id="paint89_linear_238_4225" x1="114.105" y1="110.213" x2="194.864" y2="110.213" gradientUnits="userSpaceOnUse">
<stop stop-color="#4F4FA3"/>
<stop offset="1" stop-color="#3084D7"/>
</linearGradient>
<linearGradient id="paint90_linear_238_4225" x1="206.773" y1="234.3" x2="180.358" y2="137.286" gradientUnits="userSpaceOnUse">
<stop stop-color="#F9F9F9"/>
<stop offset="1" stop-color="#D3D4D5"/>
</linearGradient>
<linearGradient id="paint91_linear_238_4225" x1="160.049" y1="186.016" x2="150.819" y2="161.964" gradientUnits="userSpaceOnUse">
<stop stop-color="#4F4FA3"/>
<stop offset="1" stop-color="#3084D7"/>
</linearGradient>
<linearGradient id="paint92_linear_238_4225" x1="150.238" y1="175.014" x2="144.804" y2="160.854" gradientUnits="userSpaceOnUse">
<stop stop-color="#898889"/>
<stop offset="1" stop-color="#575657"/>
</linearGradient>
<linearGradient id="paint93_linear_238_4225" x1="153.965" y1="186.016" x2="156.39" y2="171.156" gradientUnits="userSpaceOnUse">
<stop stop-color="#C2C2C3"/>
<stop offset="1" stop-color="#D3D4D5"/>
</linearGradient>
<linearGradient id="paint94_linear_238_4225" x1="160.473" y1="183.438" x2="152.447" y2="162.524" gradientUnits="userSpaceOnUse">
<stop stop-color="#F9F9F9"/>
<stop offset="1" stop-color="#D3D4D5"/>
</linearGradient>
<linearGradient id="paint95_linear_238_4225" x1="152.136" y1="174.188" x2="147.685" y2="162.592" gradientUnits="userSpaceOnUse">
<stop stop-color="#053F9B"/>
<stop offset="1" stop-color="#13568E"/>
</linearGradient>
<linearGradient id="paint96_linear_238_4225" x1="157.883" y1="178.019" x2="153.118" y2="165.603" gradientUnits="userSpaceOnUse">
<stop stop-color="#F9F9F9"/>
<stop offset="1" stop-color="#D3D4D5"/>
</linearGradient>
<linearGradient id="paint97_linear_238_4225" x1="157.522" y1="176.088" x2="154.463" y2="168.115" gradientUnits="userSpaceOnUse">
<stop stop-color="#F9F9F9"/>
<stop offset="1" stop-color="#D3D4D5"/>
</linearGradient>
<linearGradient id="paint98_linear_238_4225" x1="160.049" y1="248.057" x2="150.819" y2="224.005" gradientUnits="userSpaceOnUse">
<stop stop-color="#4F4FA3"/>
<stop offset="1" stop-color="#3084D7"/>
</linearGradient>
<linearGradient id="paint99_linear_238_4225" x1="150.238" y1="237.055" x2="144.804" y2="222.895" gradientUnits="userSpaceOnUse">
<stop stop-color="#898889"/>
<stop offset="1" stop-color="#575657"/>
</linearGradient>
<linearGradient id="paint100_linear_238_4225" x1="153.965" y1="248.057" x2="156.39" y2="233.197" gradientUnits="userSpaceOnUse">
<stop stop-color="#C2C2C3"/>
<stop offset="1" stop-color="#D3D4D5"/>
</linearGradient>
<linearGradient id="paint101_linear_238_4225" x1="160.473" y1="245.479" x2="152.447" y2="224.565" gradientUnits="userSpaceOnUse">
<stop stop-color="#F9F9F9"/>
<stop offset="1" stop-color="#D3D4D5"/>
</linearGradient>
<linearGradient id="paint102_linear_238_4225" x1="152.136" y1="236.229" x2="147.685" y2="224.633" gradientUnits="userSpaceOnUse">
<stop stop-color="#053F9B"/>
<stop offset="1" stop-color="#13568E"/>
</linearGradient>
<linearGradient id="paint103_linear_238_4225" x1="157.883" y1="240.06" x2="153.118" y2="227.644" gradientUnits="userSpaceOnUse">
<stop stop-color="#F9F9F9"/>
<stop offset="1" stop-color="#D3D4D5"/>
</linearGradient>
<linearGradient id="paint104_linear_238_4225" x1="157.522" y1="238.129" x2="154.463" y2="230.156" gradientUnits="userSpaceOnUse">
<stop stop-color="#F9F9F9"/>
<stop offset="1" stop-color="#D3D4D5"/>
</linearGradient>
<linearGradient id="paint105_linear_238_4225" x1="134.602" y1="173.578" x2="125.372" y2="149.525" gradientUnits="userSpaceOnUse">
<stop stop-color="#4F4FA3"/>
<stop offset="1" stop-color="#3084D7"/>
</linearGradient>
<linearGradient id="paint106_linear_238_4225" x1="124.791" y1="162.575" x2="119.357" y2="148.415" gradientUnits="userSpaceOnUse">
<stop stop-color="#898889"/>
<stop offset="1" stop-color="#575657"/>
</linearGradient>
<linearGradient id="paint107_linear_238_4225" x1="128.518" y1="173.577" x2="130.942" y2="158.717" gradientUnits="userSpaceOnUse">
<stop stop-color="#C2C2C3"/>
<stop offset="1" stop-color="#D3D4D5"/>
</linearGradient>
<linearGradient id="paint108_linear_238_4225" x1="135.024" y1="171" x2="126.998" y2="150.085" gradientUnits="userSpaceOnUse">
<stop stop-color="#F9F9F9"/>
<stop offset="1" stop-color="#D3D4D5"/>
</linearGradient>
<linearGradient id="paint109_linear_238_4225" x1="126.688" y1="161.749" x2="122.238" y2="150.153" gradientUnits="userSpaceOnUse">
<stop stop-color="#053F9B"/>
<stop offset="1" stop-color="#13568E"/>
</linearGradient>
<linearGradient id="paint110_linear_238_4225" x1="132.436" y1="165.58" x2="127.671" y2="153.164" gradientUnits="userSpaceOnUse">
<stop stop-color="#F9F9F9"/>
<stop offset="1" stop-color="#D3D4D5"/>
</linearGradient>
<linearGradient id="paint111_linear_238_4225" x1="132.075" y1="163.65" x2="129.015" y2="155.676" gradientUnits="userSpaceOnUse">
<stop stop-color="#F9F9F9"/>
<stop offset="1" stop-color="#D3D4D5"/>
</linearGradient>
<linearGradient id="paint112_linear_238_4225" x1="180.758" y1="187.516" x2="189.988" y2="163.464" gradientUnits="userSpaceOnUse">
<stop stop-color="#4F4FA3"/>
<stop offset="1" stop-color="#3084D7"/>
</linearGradient>
<linearGradient id="paint113_linear_238_4225" x1="190.569" y1="176.514" x2="196.003" y2="162.354" gradientUnits="userSpaceOnUse">
<stop stop-color="#898889"/>
<stop offset="1" stop-color="#575657"/>
</linearGradient>
<linearGradient id="paint114_linear_238_4225" x1="186.842" y1="187.516" x2="184.418" y2="172.656" gradientUnits="userSpaceOnUse">
<stop stop-color="#C2C2C3"/>
<stop offset="1" stop-color="#D3D4D5"/>
</linearGradient>
<linearGradient id="paint115_linear_238_4225" x1="180.336" y1="184.938" x2="188.362" y2="164.024" gradientUnits="userSpaceOnUse">
<stop stop-color="#F9F9F9"/>
<stop offset="1" stop-color="#D3D4D5"/>
</linearGradient>
<linearGradient id="paint116_linear_238_4225" x1="188.672" y1="175.688" x2="193.122" y2="164.092" gradientUnits="userSpaceOnUse">
<stop stop-color="#053F9B"/>
<stop offset="1" stop-color="#13568E"/>
</linearGradient>
<linearGradient id="paint117_linear_238_4225" x1="182.925" y1="179.519" x2="187.69" y2="167.103" gradientUnits="userSpaceOnUse">
<stop stop-color="#F9F9F9"/>
<stop offset="1" stop-color="#D3D4D5"/>
</linearGradient>
<linearGradient id="paint118_linear_238_4225" x1="183.284" y1="177.588" x2="186.344" y2="169.615" gradientUnits="userSpaceOnUse">
<stop stop-color="#F9F9F9"/>
<stop offset="1" stop-color="#D3D4D5"/>
</linearGradient>
<linearGradient id="paint119_linear_238_4225" x1="206.205" y1="175.078" x2="215.435" y2="151.025" gradientUnits="userSpaceOnUse">
<stop stop-color="#4F4FA3"/>
<stop offset="1" stop-color="#3084D7"/>
</linearGradient>
<linearGradient id="paint120_linear_238_4225" x1="216.016" y1="164.075" x2="221.45" y2="149.915" gradientUnits="userSpaceOnUse">
<stop stop-color="#898889"/>
<stop offset="1" stop-color="#575657"/>
</linearGradient>
<linearGradient id="paint121_linear_238_4225" x1="212.289" y1="175.077" x2="209.865" y2="160.217" gradientUnits="userSpaceOnUse">
<stop stop-color="#C2C2C3"/>
<stop offset="1" stop-color="#D3D4D5"/>
</linearGradient>
<linearGradient id="paint122_linear_238_4225" x1="205.783" y1="172.5" x2="213.809" y2="151.585" gradientUnits="userSpaceOnUse">
<stop stop-color="#F9F9F9"/>
<stop offset="1" stop-color="#D3D4D5"/>
</linearGradient>
<linearGradient id="paint123_linear_238_4225" x1="214.119" y1="163.25" x2="218.569" y2="151.654" gradientUnits="userSpaceOnUse">
<stop stop-color="#053F9B"/>
<stop offset="1" stop-color="#13568E"/>
</linearGradient>
<linearGradient id="paint124_linear_238_4225" x1="208.371" y1="167.08" x2="213.136" y2="154.664" gradientUnits="userSpaceOnUse">
<stop stop-color="#F9F9F9"/>
<stop offset="1" stop-color="#D3D4D5"/>
</linearGradient>
<linearGradient id="paint125_linear_238_4225" x1="208.732" y1="165.15" x2="211.791" y2="157.176" gradientUnits="userSpaceOnUse">
<stop stop-color="#F9F9F9"/>
<stop offset="1" stop-color="#D3D4D5"/>
</linearGradient>
<linearGradient id="paint126_linear_238_4225" x1="180.758" y1="226.813" x2="189.988" y2="202.761" gradientUnits="userSpaceOnUse">
<stop stop-color="#4F4FA3"/>
<stop offset="1" stop-color="#3084D7"/>
</linearGradient>
<linearGradient id="paint127_linear_238_4225" x1="190.569" y1="215.81" x2="196.003" y2="201.651" gradientUnits="userSpaceOnUse">
<stop stop-color="#898889"/>
<stop offset="1" stop-color="#575657"/>
</linearGradient>
<linearGradient id="paint128_linear_238_4225" x1="186.842" y1="226.813" x2="184.418" y2="211.953" gradientUnits="userSpaceOnUse">
<stop stop-color="#C2C2C3"/>
<stop offset="1" stop-color="#D3D4D5"/>
</linearGradient>
<linearGradient id="paint129_linear_238_4225" x1="180.336" y1="224.235" x2="188.362" y2="203.32" gradientUnits="userSpaceOnUse">
<stop stop-color="#F9F9F9"/>
<stop offset="1" stop-color="#D3D4D5"/>
</linearGradient>
<linearGradient id="paint130_linear_238_4225" x1="188.672" y1="214.984" x2="193.122" y2="203.388" gradientUnits="userSpaceOnUse">
<stop stop-color="#053F9B"/>
<stop offset="1" stop-color="#13568E"/>
</linearGradient>
<linearGradient id="paint131_linear_238_4225" x1="182.925" y1="218.816" x2="187.69" y2="206.4" gradientUnits="userSpaceOnUse">
<stop stop-color="#F9F9F9"/>
<stop offset="1" stop-color="#D3D4D5"/>
</linearGradient>
<linearGradient id="paint132_linear_238_4225" x1="183.284" y1="216.885" x2="186.344" y2="208.912" gradientUnits="userSpaceOnUse">
<stop stop-color="#F9F9F9"/>
<stop offset="1" stop-color="#D3D4D5"/>
</linearGradient>
<linearGradient id="paint133_linear_238_4225" x1="206.205" y1="214.374" x2="215.435" y2="190.322" gradientUnits="userSpaceOnUse">
<stop stop-color="#4F4FA3"/>
<stop offset="1" stop-color="#3084D7"/>
</linearGradient>
<linearGradient id="paint134_linear_238_4225" x1="216.016" y1="203.372" x2="221.45" y2="189.212" gradientUnits="userSpaceOnUse">
<stop stop-color="#898889"/>
<stop offset="1" stop-color="#575657"/>
</linearGradient>
<linearGradient id="paint135_linear_238_4225" x1="212.289" y1="214.374" x2="209.865" y2="199.514" gradientUnits="userSpaceOnUse">
<stop stop-color="#C2C2C3"/>
<stop offset="1" stop-color="#D3D4D5"/>
</linearGradient>
<linearGradient id="paint136_linear_238_4225" x1="205.783" y1="211.797" x2="213.809" y2="190.882" gradientUnits="userSpaceOnUse">
<stop stop-color="#F9F9F9"/>
<stop offset="1" stop-color="#D3D4D5"/>
</linearGradient>
<linearGradient id="paint137_linear_238_4225" x1="214.119" y1="202.546" x2="218.569" y2="190.95" gradientUnits="userSpaceOnUse">
<stop stop-color="#053F9B"/>
<stop offset="1" stop-color="#13568E"/>
</linearGradient>
<linearGradient id="paint138_linear_238_4225" x1="208.371" y1="206.377" x2="213.136" y2="193.961" gradientUnits="userSpaceOnUse">
<stop stop-color="#F9F9F9"/>
<stop offset="1" stop-color="#D3D4D5"/>
</linearGradient>
<linearGradient id="paint139_linear_238_4225" x1="208.732" y1="204.447" x2="211.791" y2="196.473" gradientUnits="userSpaceOnUse">
<stop stop-color="#F9F9F9"/>
<stop offset="1" stop-color="#D3D4D5"/>
</linearGradient>
<linearGradient id="paint140_linear_238_4225" x1="131.087" y1="241.444" x2="121.856" y2="217.392" gradientUnits="userSpaceOnUse">
<stop stop-color="#4F4FA3"/>
<stop offset="1" stop-color="#3084D7"/>
</linearGradient>
<linearGradient id="paint141_linear_238_4225" x1="121.275" y1="230.441" x2="115.841" y2="216.282" gradientUnits="userSpaceOnUse">
<stop stop-color="#898889"/>
<stop offset="1" stop-color="#575657"/>
</linearGradient>
<linearGradient id="paint142_linear_238_4225" x1="125.002" y1="241.444" x2="127.427" y2="226.584" gradientUnits="userSpaceOnUse">
<stop stop-color="#C2C2C3"/>
<stop offset="1" stop-color="#D3D4D5"/>
</linearGradient>
<linearGradient id="paint143_linear_238_4225" x1="131.509" y1="238.866" x2="123.482" y2="217.951" gradientUnits="userSpaceOnUse">
<stop stop-color="#F9F9F9"/>
<stop offset="1" stop-color="#D3D4D5"/>
</linearGradient>
<linearGradient id="paint144_linear_238_4225" x1="123.173" y1="229.616" x2="118.723" y2="218.02" gradientUnits="userSpaceOnUse">
<stop stop-color="#053F9B"/>
<stop offset="1" stop-color="#13568E"/>
</linearGradient>
<linearGradient id="paint145_linear_238_4225" x1="133.8" y1="205.556" x2="107.476" y2="218.019" gradientUnits="userSpaceOnUse">
<stop stop-color="#4F4FA3"/>
<stop offset="1" stop-color="#3084D7"/>
</linearGradient>
<linearGradient id="paint146_linear_238_4225" x1="458.815" y1="155.057" x2="324.339" y2="323.151" gradientUnits="userSpaceOnUse">
<stop stop-color="#767576"/>
<stop offset="1" stop-color="#2D2D2D"/>
</linearGradient>
<linearGradient id="paint147_linear_238_4225" x1="390.04" y1="283.935" x2="441.152" y2="362.928" gradientUnits="userSpaceOnUse">
<stop stop-color="#767576"/>
<stop offset="1" stop-color="#2D2D2D"/>
</linearGradient>
<linearGradient id="paint148_linear_238_4225" x1="372.281" y1="362.71" x2="377.567" y2="137.752" gradientUnits="userSpaceOnUse">
<stop stop-color="#16AAAE"/>
<stop offset="0.9925" stop-color="#80FA7D"/>
</linearGradient>
<linearGradient id="paint149_linear_238_4225" x1="358.427" y1="238.533" x2="307.437" y2="169.834" gradientUnits="userSpaceOnUse">
<stop stop-color="#767576"/>
<stop offset="1" stop-color="white"/>
</linearGradient>
<linearGradient id="paint150_linear_238_4225" x1="352.65" y1="147.037" x2="352.817" y2="139.926" gradientUnits="userSpaceOnUse">
<stop stop-color="#149648"/>
<stop offset="0.9925" stop-color="#147706"/>
</linearGradient>
<linearGradient id="paint151_linear_238_4225" x1="409.416" y1="359.438" x2="414.605" y2="138.645" gradientUnits="userSpaceOnUse">
<stop stop-color="#149648"/>
<stop offset="0.9925" stop-color="#147706"/>
</linearGradient>
<linearGradient id="paint152_linear_238_4225" x1="304.999" y1="265.978" x2="304.999" y2="247.806" gradientUnits="userSpaceOnUse">
<stop stop-color="#898889"/>
<stop offset="1" stop-color="#D3D4D5"/>
</linearGradient>
<linearGradient id="paint153_linear_238_4225" x1="255.25" y1="228.186" x2="255.25" y2="278.421" gradientUnits="userSpaceOnUse">
<stop stop-color="#FEFFFF"/>
<stop offset="1" stop-color="#D3D4D5"/>
</linearGradient>
<linearGradient id="paint154_linear_238_4225" x1="191.132" y1="291.386" x2="198.234" y2="222.734" gradientUnits="userSpaceOnUse">
<stop stop-color="#FEFFFF"/>
<stop offset="1" stop-color="#D3D4D5"/>
</linearGradient>
<linearGradient id="paint155_linear_238_4225" x1="175.697" y1="208.341" x2="207.943" y2="313.541" gradientUnits="userSpaceOnUse">
<stop stop-color="#FEFFFF"/>
<stop offset="1" stop-color="#D3D4D5"/>
</linearGradient>
<linearGradient id="paint156_linear_238_4225" x1="176.953" y1="212.435" x2="206.45" y2="308.667" gradientUnits="userSpaceOnUse">
<stop stop-color="#898889"/>
<stop offset="1" stop-color="#D3D4D5"/>
</linearGradient>
<linearGradient id="paint157_linear_238_4225" x1="203.231" y1="272.279" x2="203.231" y2="242.276" gradientUnits="userSpaceOnUse">
<stop stop-color="#898889"/>
<stop offset="1" stop-color="#D3D4D5"/>
</linearGradient>
<linearGradient id="paint158_linear_238_4225" x1="179.915" y1="241.61" x2="189.826" y2="273.945" gradientUnits="userSpaceOnUse">
<stop stop-color="#FEFFFF"/>
<stop offset="1" stop-color="#D3D4D5"/>
</linearGradient>
<linearGradient id="paint159_linear_238_4225" x1="292.263" y1="270.671" x2="292.263" y2="243.647" gradientUnits="userSpaceOnUse">
<stop stop-color="#FC9C03"/>
<stop offset="0.9925" stop-color="#FFD712"/>
</linearGradient>
<linearGradient id="paint160_linear_238_4225" x1="277.722" y1="356.008" x2="277.722" y2="273.003" gradientUnits="userSpaceOnUse">
<stop stop-color="#FC9C03"/>
<stop offset="0.9925" stop-color="#FFD712"/>
</linearGradient>
<linearGradient id="paint161_linear_238_4225" x1="267.182" y1="284.775" x2="262.635" y2="335.409" gradientUnits="userSpaceOnUse">
<stop stop-color="#FC9C03"/>
<stop offset="0.9925" stop-color="#FFD712"/>
</linearGradient>
</defs>
</svg>
