<svg width="40" height="40" viewBox="0 0 40 40" fill="none" xmlns="http://www.w3.org/2000/svg">
<path d="M21.1076 5.55599H18.8854C17.9665 5.55599 17.2188 4.80821 17.2188 3.88932C17.2188 2.97043 17.9665 2.22266 18.8854 2.22266H21.1076C22.0265 2.22266 22.7743 2.97043 22.7743 3.88932C22.7743 4.80821 22.0265 5.55599 21.1076 5.55599ZM18.8854 3.33377C18.5793 3.33377 18.3299 3.58321 18.3299 3.88932C18.3299 4.19543 18.5793 4.44488 18.8854 4.44488H21.1076C21.4138 4.44488 21.6632 4.19543 21.6632 3.88932C21.6632 3.58321 21.4138 3.33377 21.1076 3.33377H18.8854Z" fill="white"/>
<path d="M32.2994 26.1119C31.03 26.1119 29.9972 25.0791 29.9972 23.8097V16.3591C29.9972 13.6085 28.8616 10.9169 26.8816 8.97355C24.9522 7.08021 22.4522 6.07188 19.8066 6.11355C14.3977 6.21466 9.99718 10.7002 9.99718 16.1119V23.8097C9.99718 25.0791 8.9644 26.1119 7.69496 26.1119C6.51385 26.1119 5.55273 27.073 5.55273 28.2541V28.8974C5.55273 30.4252 6.79496 31.6674 8.32218 31.6674H31.6716C33.1994 31.6674 34.4416 30.4252 34.4416 28.898V28.2547C34.4416 27.073 33.4805 26.1119 32.2994 26.1119ZM14.9972 30.0008H8.33051C8.02385 30.0008 7.77496 29.7519 7.77496 29.4452C7.77496 29.1385 8.02385 28.8897 8.33051 28.8897H14.9972C15.3038 28.8897 15.5527 29.1385 15.5527 29.4452C15.5527 29.7519 15.3038 30.0008 14.9972 30.0008ZM18.3305 30.0008H17.2194C16.9127 30.0008 16.6638 29.7519 16.6638 29.4452C16.6638 29.1385 16.9127 28.8897 17.2194 28.8897H18.3305C18.6372 28.8897 18.8861 29.1385 18.8861 29.4452C18.8861 29.7519 18.6372 30.0008 18.3305 30.0008ZM19.9972 9.44521C16.3211 9.44521 13.3305 12.4358 13.3305 16.1119C13.3305 16.4185 13.0816 16.6674 12.775 16.6674C12.4683 16.6674 12.2194 16.4185 12.2194 16.1119C12.2194 11.823 15.7083 8.3341 19.9972 8.3341C20.3038 8.3341 20.5527 8.58299 20.5527 8.88966C20.5527 9.19632 20.3038 9.44521 19.9972 9.44521Z" fill="white"/>
<path d="M24.4425 32.2227H15.5536C15.2469 32.2227 14.998 32.4715 14.998 32.7782C14.998 35.5349 17.2414 37.7782 19.998 37.7782C22.7547 37.7782 24.998 35.5349 24.998 32.7782C24.998 32.4715 24.7492 32.2227 24.4425 32.2227ZM21.9625 34.1871C21.4208 34.7282 20.7092 34.9993 19.998 34.9993C19.2869 34.9993 18.5753 34.7288 18.0336 34.1871C17.8164 33.9704 17.8164 33.6188 18.0336 33.4015C18.2508 33.1843 18.6019 33.1843 18.8192 33.4015C19.4692 34.051 20.5264 34.051 21.1764 33.4015C21.3936 33.1843 21.7447 33.1843 21.9619 33.4015C22.1792 33.6188 22.1792 33.9704 21.9625 34.1871Z" fill="white"/>
</svg>
