<svg width="42" height="42" viewBox="0 0 42 42" fill="none" xmlns="http://www.w3.org/2000/svg">
<g clip-path="url(#clip0_555_4011)">
<path fill-rule="evenodd" clip-rule="evenodd" d="M32.9839 24.3953L26.9571 34.7099C26.8783 34.8469 26.8406 34.9822 26.8406 35.1397V41.1461C26.8406 41.6161 26.4567 41.9992 25.9875 41.9992H16.0092C15.5391 41.9992 15.1561 41.6153 15.1561 41.1461V35.1397C15.1561 34.9814 15.1191 34.8469 15.0396 34.7099L9.01437 24.3953C8.3048 23.1837 8.71906 21.6144 9.9282 20.9073C11.1398 20.2002 12.7091 20.612 13.4162 21.8236L17.5038 28.8225C17.7015 29.1596 18.087 29.318 18.4644 29.2154C20.2297 28.7364 21.7661 28.7364 23.5314 29.2154C23.9104 29.318 24.2943 29.1596 24.492 28.8225L28.5796 21.8236C29.2868 20.612 30.856 20.2002 32.0676 20.9073C33.2792 21.6136 33.691 23.1837 32.9839 24.3953ZM16.8393 22.5135C16.8393 24.8038 18.7088 26.6733 20.9991 26.6733C23.2895 26.6733 25.1565 24.8038 25.1565 22.5135C25.1565 20.2232 23.2895 18.3561 20.9991 18.3561C18.7088 18.3561 16.8393 20.2232 16.8393 22.5135ZM15.0494 5.95055C15.0494 2.67176 17.7212 0 20.9991 0C24.2755 0 26.9472 2.67176 26.9472 5.95055C26.9472 9.22688 24.2755 11.8986 20.9991 11.8986C17.7212 11.8986 15.0494 9.22688 15.0494 5.95055ZM17.7072 5.74629L20.0369 8.07598C20.3019 8.34094 20.7301 8.34094 20.995 8.07598L24.2902 4.78078C24.5552 4.51582 24.5552 4.08762 24.2902 3.82266C24.0277 3.5577 23.5971 3.5577 23.3321 3.82266L20.516 6.63879L18.6653 4.78816C18.4004 4.52566 17.9722 4.52566 17.7072 4.78816C17.4414 5.05312 17.4414 5.48297 17.7072 5.74629ZM37.3111 10.4336C37.2479 10.2449 37.0789 10.1218 36.8787 10.1218L34.5236 10.1268C34.3235 10.1268 34.1537 10.0037 34.0938 9.81258L33.3686 7.57066C33.3079 7.38035 33.1381 7.25648 32.9388 7.25648C32.7395 7.25648 32.5713 7.37953 32.5089 7.57066L31.7854 9.81258C31.7223 10.0029 31.5533 10.1268 31.3531 10.1268L28.9972 10.1218C28.797 10.1218 28.6272 10.2449 28.5673 10.4336C28.5042 10.6239 28.5698 10.8216 28.7322 10.9405L30.6411 12.3219C30.8019 12.4384 30.8667 12.6377 30.8035 12.8289L30.071 15.0683C30.0103 15.2586 30.0759 15.4563 30.2359 15.5753C30.3966 15.6918 30.6083 15.6918 30.7682 15.5753L32.673 14.1848C32.8338 14.0684 33.043 14.0684 33.2054 14.1848L35.1102 15.5753C35.2709 15.6918 35.4801 15.6918 35.6401 15.5753C35.8025 15.4563 35.8681 15.2595 35.805 15.0683L35.0724 12.8289C35.0093 12.6386 35.0749 12.4384 35.2373 12.3219L37.1462 10.9405C37.3069 10.8224 37.3718 10.6247 37.3111 10.4336ZM9.32609 14.1848L11.2284 15.5753C11.3908 15.6918 11.6008 15.6918 11.7608 15.5753C11.9232 15.4563 11.9864 15.2595 11.9257 15.0683L11.1931 12.8289C11.13 12.6386 11.1956 12.4384 11.358 12.3219L13.2669 10.9405C13.4277 10.8216 13.4925 10.6247 13.4318 10.4336C13.3686 10.2449 13.1996 10.1218 12.9995 10.1218L10.6435 10.1268C10.4434 10.1268 10.2736 10.0037 10.2112 9.81258L9.48933 7.57148C9.42863 7.38117 9.25883 7.2573 9.05949 7.2573C8.86015 7.2573 8.68953 7.38035 8.62965 7.57148L7.90613 9.8134C7.84297 10.0037 7.67398 10.1276 7.47383 10.1276L5.11871 10.1227C4.91855 10.1227 4.74875 10.2457 4.6864 10.4344C4.6257 10.6247 4.69133 10.8224 4.85129 10.9413L6.76015 12.3227C6.92258 12.4392 6.9882 12.6386 6.92504 12.8297L6.1925 15.0691C6.1318 15.2595 6.19496 15.4571 6.35738 15.5761C6.51816 15.6926 6.72734 15.6926 6.88976 15.5761L8.79207 14.1857C8.95449 14.0684 9.16367 14.0684 9.32609 14.1848Z" fill="white"/>
</g>
<defs>
<clipPath id="clip0_555_4011">
<rect width="42" height="42" fill="white" transform="translate(-0.00195312)"/>
</clipPath>
</defs>
</svg>
