<svg width="42" height="42" viewBox="0 0 42 42" fill="none" xmlns="http://www.w3.org/2000/svg">
<path fill-rule="evenodd" clip-rule="evenodd" d="M2.28301 39.0468L15.6351 39.0467C15.8957 39.0467 16.12 38.9375 16.2807 38.7324C16.4414 38.5273 16.494 38.2834 16.4318 38.0304C15.6055 34.6711 12.5733 32.1793 8.95912 32.1793C5.34482 32.1793 2.31279 34.6711 1.4864 38.0304C1.42414 38.2835 1.47664 38.5273 1.63742 38.7324C1.79804 38.9376 2.02231 39.0468 2.28301 39.0468ZM23.916 22.8346C23.916 20.724 23.916 18.6132 23.916 16.5026C23.916 15.8067 23.3485 15.2392 22.6526 15.2392C19.5681 15.2392 16.4835 15.2392 13.399 15.2392C12.7031 15.2392 12.1355 15.8067 12.1355 16.5026V22.8346C12.1355 23.5305 12.7031 24.0981 13.399 24.0981H14.4681V26.6716L16.9404 24.0981H22.6527C23.3484 24.0981 23.916 23.5305 23.916 22.8346ZM14.8107 22.4315C14.4482 22.4315 14.1544 22.1377 14.1544 21.7753C14.1544 21.4129 14.4482 21.119 14.8107 21.119H21.2408C21.6033 21.119 21.8971 21.4129 21.8971 21.7753C21.8971 22.1377 21.6033 22.4315 21.2408 22.4315H14.8107ZM14.8107 18.2168C14.4482 18.2168 14.1544 17.9229 14.1544 17.5605C14.1544 17.1981 14.4482 16.9043 14.8107 16.9043H21.2408C21.6033 16.9043 21.8971 17.1981 21.8971 17.5605C21.8971 17.9229 21.6033 18.2168 21.2408 18.2168H14.8107ZM14.8107 20.3241C14.4482 20.3241 14.1544 20.0303 14.1544 19.6679C14.1544 19.3055 14.4482 19.0116 14.8107 19.0116H21.2408C21.6033 19.0116 21.8971 19.3055 21.8971 19.6679C21.8971 20.0303 21.6033 20.3241 21.2408 20.3241H14.8107ZM16.8648 10.5486C16.8648 8.43798 16.8648 6.32723 16.8648 4.21657C16.8648 3.5207 17.4323 2.95312 18.1282 2.95312H27.3818C28.0777 2.95312 28.6452 3.5207 28.6452 4.21657V10.5486C28.6452 11.2445 28.0777 11.8121 27.3818 11.8121H26.3127V14.3857L23.8404 11.8121H18.1282C17.4324 11.8121 16.8648 11.2445 16.8648 10.5486ZM25.9701 8.83304H19.5399C19.1775 8.83304 18.8837 9.12688 18.8837 9.48929C18.8837 9.85171 19.1775 10.1455 19.5399 10.1455H25.9701C26.3325 10.1455 26.6264 9.85171 26.6264 9.48929C26.6264 9.12688 26.3325 8.83304 25.9701 8.83304ZM25.9701 4.61828H19.5399C19.1775 4.61828 18.8837 4.91211 18.8837 5.27453C18.8837 5.63694 19.1775 5.93078 19.5399 5.93078H25.9701C26.3325 5.93078 26.6264 5.63694 26.6264 5.27453C26.6264 4.91211 26.3325 4.61828 25.9701 4.61828ZM25.9701 6.72566H19.5399C19.1775 6.72566 18.8837 7.0195 18.8837 7.38191C18.8837 7.74432 19.1775 8.03816 19.5399 8.03816H25.9701C26.3325 8.03816 26.6264 7.74432 26.6264 7.38191C26.6264 7.0195 26.3325 6.72566 25.9701 6.72566ZM33.0318 10.3362C35.1807 10.3362 36.9227 12.0782 36.9227 14.227C36.9227 16.3758 35.1807 18.1178 33.0318 18.1178C30.883 18.1178 29.141 16.3758 29.141 14.227C29.141 12.0782 30.883 10.3362 33.0318 10.3362ZM26.3558 25.8056L39.7079 25.8056C39.9685 25.8056 40.1928 25.6964 40.3535 25.4912C40.5142 25.2861 40.5668 25.0423 40.5046 24.7893C39.6783 21.4299 36.6461 18.9381 33.0319 18.9381C29.4176 18.9381 26.3856 21.4299 25.5592 24.7893C25.497 25.0423 25.5494 25.2861 25.7102 25.4912C25.8709 25.6965 26.0952 25.8056 26.3558 25.8056ZM8.95904 23.5774C11.1079 23.5774 12.8499 25.3194 12.8499 27.4682C12.8499 29.6171 11.1078 31.3591 8.95904 31.3591C6.81023 31.3591 5.06821 29.6171 5.06821 27.4682C5.06821 25.3194 6.81023 23.5774 8.95904 23.5774ZM33.9057 27.8508C33.9057 27.4883 34.1996 27.1945 34.562 27.1945C34.9244 27.1945 35.2182 27.4883 35.2182 27.8508V36.2072C35.2182 36.5696 34.9244 36.8634 34.562 36.8634H21.4651L21.8486 37.0849C22.1615 37.2647 22.2693 37.6641 22.0896 37.9769C21.9098 38.2898 21.5104 38.3977 21.1975 38.2179L18.7021 36.7772C18.2658 36.5333 18.2521 35.8958 18.6961 35.6407L21.1975 34.1964C21.5104 34.0166 21.9098 34.1246 22.0896 34.4375C22.2694 34.7503 22.1616 35.1497 21.8486 35.3295L21.4651 35.551H33.9056V27.8508H33.9057ZM8.08516 21.7289C8.08516 22.0913 7.79132 22.3852 7.42891 22.3852C7.0665 22.3852 6.77266 22.0913 6.77266 21.7289V8.25382C6.77266 7.89141 7.0665 7.59757 7.42891 7.59757H11.8383L11.4548 7.37617C11.142 7.19636 11.0341 6.79695 11.2138 6.48408C11.3936 6.17121 11.7931 6.06334 12.1059 6.24307L14.6074 7.68723C15.0514 7.94235 15.0376 8.57989 14.6012 8.82386L12.1059 10.2645C11.7931 10.4443 11.3936 10.3363 11.2138 10.0235C11.034 9.71061 11.142 9.3112 11.4548 9.13139L11.8383 8.90999H8.08516V21.7289Z" fill="white"/>
</svg>
