<svg width="262" height="480" viewBox="0 0 262 480" fill="none" xmlns="http://www.w3.org/2000/svg">
<path d="M233.804 0H27.3442C12.2423 0 0 12.2424 0 27.3442V452.656C0 467.758 12.2423 480 27.3442 480H233.804C248.906 480 261.148 467.758 261.148 452.656V27.3442C261.148 12.2424 248.906 0 233.804 0Z" fill="#191F28"/>
<path d="M249.966 39.9502V438.263C249.966 439.878 249.818 441.457 249.533 442.992C247.321 454.946 236.872 464.09 224.159 464.566C223.81 464.582 223.459 464.588 223.109 464.588H38.6917C36.6476 464.588 34.6582 464.365 32.7441 463.938C32.6598 463.923 32.5754 463.903 32.4911 463.88C32.1812 463.811 31.8759 463.735 31.5705 463.65C24.6566 461.794 18.8571 457.296 15.3707 451.33C13.1216 447.479 11.834 443.019 11.834 438.263V39.9502C11.834 25.4117 23.859 13.625 38.6917 13.625H223.109C226.101 13.625 228.981 14.1053 231.67 14.9897C242.305 18.4943 249.966 28.3467 249.966 39.9502Z" fill="#DCE5EE"/>
<path d="M63.7158 46.459H35.838C34.7895 46.459 33.9395 47.309 33.9395 48.3575C33.9395 49.406 34.7895 50.256 35.838 50.256H63.7158C64.7643 50.256 65.6143 49.406 65.6143 48.3575C65.6145 47.309 64.7645 46.459 63.7158 46.459Z" fill="white"/>
<path d="M63.7158 38.8652H35.838C34.7895 38.8652 33.9395 39.7153 33.9395 40.7637C33.9395 41.8122 34.7895 42.6622 35.838 42.6622H63.7158C64.7643 42.6622 65.6143 41.8122 65.6143 40.7637C65.6145 39.7153 64.7645 38.8652 63.7158 38.8652Z" fill="white"/>
<path d="M63.7158 31.2705H35.838C34.7895 31.2705 33.9395 32.1205 33.9395 33.169C33.9395 34.2175 34.7895 35.0675 35.838 35.0675H63.7158C64.7643 35.0675 65.6143 34.2175 65.6143 33.169C65.6145 32.1204 64.7645 31.2705 63.7158 31.2705Z" fill="white"/>
<path d="M203.697 326.607H48.5195V182.149L85.1973 143.169H166.676L203.697 182.149V326.607Z" fill="#F7E6DF"/>
<path d="M97.646 115.653H85.9492V135.526H97.646V115.653Z" fill="#F7E6DF"/>
<path d="M97.646 115.653H85.9492V118.711H97.646V115.653Z" fill="#192A3D"/>
<path d="M212.277 182.151H203.698L166.269 143.168H85.1713L48.5218 182.151H39.9434L76.5929 142.404L84.019 136.51L84.2552 136.325L88.8704 132.662L89.5071 132.157L97.5544 125.773L97.7904 125.584L111.09 115.033L111.326 114.844L124.625 104.296L124.861 104.107L125.284 103.775L125.287 103.772L125.722 103.425L125.796 103.486L139.012 114.177L139.248 114.366L152.463 125.061L152.699 125.249L159.75 130.954L160.399 131.478L165.915 135.941L166.151 136.133L174.848 143.168L212.277 182.151Z" fill="#192A3D"/>
<mask id="mask0_238_4594" style="mask-type:luminance" maskUnits="userSpaceOnUse" x="39" y="103" width="174" height="80">
<path d="M212.279 182.151H203.7L166.271 143.168H85.1733L48.5238 182.151H39.9453L76.5948 142.404L84.021 136.51L84.2571 136.325L88.8724 132.662L89.5091 132.157L97.5564 125.773L97.7924 125.584L111.092 115.033L111.328 114.844L124.627 104.296L124.863 104.107L125.286 103.775L125.289 103.772L125.724 103.425L125.798 103.486L139.014 114.177L139.25 114.366L152.465 125.061L152.701 125.249L159.752 130.954L160.401 131.478L165.917 135.941L166.153 136.133L174.85 143.168L212.279 182.151Z" fill="white"/>
</mask>
<g mask="url(#mask0_238_4594)">
<g opacity="0.28">
<path d="M100.272 164.092L100.011 164.235L95.3703 156.189L95.1963 155.888L87.8603 143.169L85.5092 139.089L85.3352 138.788L84.0215 136.511L84.2577 136.325L85.5092 138.49L85.68 138.788L88.2051 143.169L95.3703 155.593L95.5412 155.891L100.272 164.092Z" fill="#DDCCB1"/>
<path d="M114.721 154.943L114.46 155.086L107.587 143.168L105.236 139.095L105.065 138.793L97.5547 125.773L97.7907 125.584L105.236 138.495L105.409 138.796L107.931 143.168L114.721 154.943Z" fill="#DDCCB1"/>
<path d="M140.611 165.565L140.35 165.711L127.334 143.168L111.09 115.032L111.326 114.844L127.682 143.168L140.611 165.565Z" fill="#DDCCB1"/>
<path d="M155.067 156.417L154.806 156.563L154.588 156.189L154.417 155.89L147.072 143.168L144.721 139.095L144.547 138.796L134.847 121.995L134.673 121.697L124.98 104.904L124.806 104.606L124.629 104.295L124.865 104.106L124.98 104.307L125.154 104.606L134.847 121.395L135.018 121.694V121.697L144.721 138.495V138.498L144.892 138.793L147.417 143.168L154.588 155.589V155.592L154.762 155.887L155.067 156.417Z" fill="#DDCCB1"/>
<path d="M167.15 143.168H166.805L164.448 139.089L164.277 138.787L159.752 130.954L160.401 131.478L164.448 138.489L164.622 138.787L167.15 143.168Z" fill="#DDCCB1"/>
<path d="M166.153 136.132L164.622 138.787L164.448 139.088L162.097 143.168L154.761 155.887L154.587 156.188L149.947 164.234L149.686 164.091L154.416 155.89L154.587 155.592L161.752 143.168L164.277 138.787L164.448 138.489L165.917 135.94L166.153 136.132Z" fill="#DDCCB1"/>
<path d="M152.466 125.06L152.702 125.248L144.891 138.792L144.72 139.094L142.369 143.167L135.495 155.086L135.234 154.943L142.024 143.167L144.546 138.796L144.72 138.497V138.494L152.466 125.06Z" fill="#DDCCB1"/>
<path d="M139.25 114.366L135.017 121.697L134.846 121.996L125.153 138.785L124.979 139.083L122.622 143.169L109.605 165.712L109.344 165.566L122.274 143.169L124.805 138.785L124.979 138.487L134.672 121.697L134.846 121.396L139.014 114.178L139.25 114.366Z" fill="#DDCCB1"/>
<path d="M125.799 103.486L125.153 104.606L124.979 104.904L115.286 121.697L115.112 121.995L105.412 138.797L105.238 139.095L102.887 143.168L95.5417 155.89L95.3708 156.189L95.1535 156.563L94.8926 156.417L95.1969 155.887L95.3708 155.592V155.589L102.542 143.168L105.068 138.793L105.238 138.498V138.495L114.941 121.697L115.112 121.395L124.805 104.606L124.979 104.308L125.287 103.775L125.29 103.772L125.725 103.425L125.799 103.486Z" fill="#DDCCB1"/>
<path d="M88.8724 132.662L89.5091 132.156L85.6795 138.787L85.5087 139.088L83.1514 143.168H82.8066L85.3347 138.787L85.5087 138.488L88.8724 132.662Z" fill="#DDCCB1"/>
</g>
</g>
<path d="M203.697 298.326H48.5195V326.606H203.697V298.326Z" fill="#192A3D"/>
<path d="M147.444 241.929H105.195V315.66H147.444V241.929Z" fill="#CCB16A"/>
<path d="M123.742 246.978H110.346V269.199H123.742V246.978Z" fill="#A89157"/>
<path d="M142.29 246.979H128.895V269.199H142.29V246.979Z" fill="#A89157"/>
<path d="M123.743 275.26H110.348V302.53H123.743V275.26Z" fill="#A89157"/>
<path d="M142.29 275.26H128.895V302.53H142.29V275.26Z" fill="#A89157"/>
<path d="M111.893 273.24C112.747 273.24 113.439 272.562 113.439 271.725C113.439 270.888 112.747 270.21 111.893 270.21C111.04 270.21 110.348 270.888 110.348 271.725C110.348 272.562 111.04 273.24 111.893 273.24Z" fill="#FBFAFF"/>
<path d="M152.597 308.589H101.074V314.649H152.597V308.589Z" fill="#B6C5D4"/>
<path d="M152.597 308.589H101.074V309.599H152.597V308.589Z" fill="#FBFAFF"/>
<path d="M158.778 314.648H94.8906V320.709H158.778V314.648Z" fill="#B6C5D4"/>
<path d="M158.778 314.648H94.8906V315.659H158.778V314.648Z" fill="#FBFAFF"/>
<path d="M163.93 320.709H89.7383V326.769H163.93V320.709Z" fill="#B6C5D4"/>
<path d="M163.93 320.709H89.7383V321.719H163.93V320.709Z" fill="#FBFAFF"/>
<path d="M144.435 217.722H107.77V167.074C107.77 163.581 110.601 160.749 114.094 160.749H138.11C141.604 160.749 144.435 163.581 144.435 167.074V217.722Z" fill="white"/>
<path d="M142.388 215.429H109.818V168.54C109.818 165.504 112.28 163.042 115.317 163.042H136.889C139.926 163.042 142.388 165.504 142.388 168.54L142.388 215.429Z" fill="#192A3D"/>
<path d="M126.522 163.042H124.852V215.429H126.522V163.042Z" fill="#FBFAFF"/>
<path d="M98.9632 203.15H97.293V218.703H98.9632V203.15Z" fill="#B6C5D4"/>
<path d="M103.971 203.15H102.301V218.703H103.971V203.15Z" fill="#B6C5D4"/>
<path d="M108.983 203.15H107.312V218.703H108.983V203.15Z" fill="#B6C5D4"/>
<path d="M113.995 203.15H112.324V218.703H113.995V203.15Z" fill="#B6C5D4"/>
<path d="M119.004 203.15H117.334V218.703H119.004V203.15Z" fill="#B6C5D4"/>
<path d="M124.014 203.15H122.344V218.703H124.014V203.15Z" fill="#B6C5D4"/>
<path d="M129.024 203.15H127.354V218.703H129.024V203.15Z" fill="#B6C5D4"/>
<path d="M134.037 203.15H132.367V218.703H134.037V203.15Z" fill="#B6C5D4"/>
<path d="M139.045 203.15H137.375V218.703H139.045V203.15Z" fill="#B6C5D4"/>
<path d="M144.057 203.15H142.387V218.703H144.057V203.15Z" fill="#B6C5D4"/>
<path d="M149.069 203.15H147.398V218.703H149.069V203.15Z" fill="#B6C5D4"/>
<path d="M154.078 203.15H152.408V218.703H154.078V203.15Z" fill="#B6C5D4"/>
<path d="M157.418 200.694H94.7852V203.969H157.418V200.694Z" fill="#B6C5D4"/>
<path d="M157.418 218.704H94.7852V221.978H157.418V218.704Z" fill="#343A47"/>
<path d="M182.582 151.225H195.121V164.283L182.582 151.225Z" fill="#192A3D"/>
<path d="M68.859 151.577H56.3203V164.635L68.859 151.577Z" fill="#192A3D"/>
<path d="M92.9678 241.767H63.3359V283.04H92.9678V241.767Z" fill="white"/>
<path d="M90.6288 244.06H65.6758V280.747H90.6288V244.06Z" fill="#192A3D"/>
<path d="M78.9307 243.295H77.3711V282.276H78.9307V243.295Z" fill="white"/>
<path d="M189.663 241.767H160.031V283.04H189.663V241.767Z" fill="white"/>
<path d="M187.324 244.06H162.371V280.747H187.324V244.06Z" fill="#192A3D"/>
<path d="M175.626 243.295H174.066V282.276H175.626V243.295Z" fill="white"/>
<path opacity="0.2" d="M48.5195 182.149H50.8589L85.9491 151.576H163.148L200.577 182.149H203.697L166.267 143.169H85.1694L48.5195 182.149Z" fill="#000102"/>
<path opacity="0.2" d="M94.5273 221.895L103.885 227.245H147.553L156.91 221.895H94.5273Z" fill="#000102"/>
<path d="M215.633 285.808H173.715V326.896H215.633V285.808Z" fill="#E8B29B"/>
<path d="M185.32 285.808H173.715V326.896H185.32V285.808Z" fill="#C79985"/>
<path d="M203.688 315.651H199.387V326.905H203.688V315.651Z" fill="#2F2A4A"/>
<path d="M203.69 285.808H199.389V298.439H203.69V285.808Z" fill="#192A3D"/>
<path d="M240.218 300.199H212.979V326.898H240.218V300.199Z" fill="#E8B29B"/>
<path d="M220.52 300.199H212.979V326.898H220.52V300.199Z" fill="#C79985"/>
<path d="M232.455 319.593H229.66V326.905H232.455V319.593Z" fill="#2F2A4A"/>
<path d="M232.455 300.199H229.66V308.406H232.455V300.199Z" fill="#192A3D"/>
<path d="M217.193 306.396H196.275V326.9H217.193V306.396Z" fill="#E8B29B"/>
<path d="M202.066 306.396H196.275V326.9H202.066V306.396Z" fill="#C79985"/>
<path d="M211.232 321.289H209.086V326.905H211.232V321.289Z" fill="#192A3D"/>
<path d="M211.232 306.396H209.086V312.699H211.232V306.396Z" fill="#192A3D"/>
<path d="M59.3183 290.313H21.9961V326.896H59.3183V290.313Z" fill="#E8B29B"/>
<path d="M32.3287 290.313H21.9961V326.896H32.3287V290.313Z" fill="#C79985"/>
<path d="M48.6812 316.885H44.8516V326.904H48.6812V316.885Z" fill="#192A3D"/>
<path d="M48.6812 290.313H44.8516V301.559H48.6812V290.313Z" fill="#192A3D"/>
<path d="M81.2094 303.127H56.957V326.898H81.2094V303.127Z" fill="#E8B29B"/>
<path d="M63.6712 303.127H56.957V326.898H63.6712V303.127Z" fill="#C79985"/>
<path d="M74.2991 320.393H71.8105V326.904H74.2991V320.393Z" fill="#192A3D"/>
<path d="M74.2991 303.127H71.8105V310.434H74.2991V303.127Z" fill="#192A3D"/>
<path d="M174.769 411.173H86.3934C80.4214 411.173 75.5801 406.332 75.5801 400.36V382.414C75.5801 376.442 80.4214 371.601 86.3934 371.601H174.769C180.741 371.601 185.583 376.442 185.583 382.414V400.36C185.583 406.332 180.741 411.173 174.769 411.173Z" fill="#192A3D"/>
<path d="M105.386 382.126V385.164C105.386 385.239 105.428 385.276 105.512 385.276H106.212C107.873 385.276 108.704 384.683 108.704 383.498C108.704 382.443 107.934 381.916 106.394 381.916C106.114 381.916 105.82 381.939 105.512 381.986C105.428 382.005 105.386 382.051 105.386 382.126ZM104.252 390.75C104.037 390.75 103.85 390.671 103.692 390.512C103.533 390.353 103.454 390.167 103.454 389.952V381.398C103.454 381.174 103.528 380.973 103.678 380.796C103.827 380.619 104.014 380.521 104.238 380.502C105.031 380.427 105.796 380.39 106.534 380.39C107.906 380.39 108.932 380.647 109.614 381.16C110.295 381.664 110.636 382.378 110.636 383.302C110.636 383.965 110.454 384.548 110.09 385.052C109.735 385.556 109.254 385.911 108.648 386.116C108.638 386.116 108.634 386.121 108.634 386.13C108.634 386.149 108.638 386.158 108.648 386.158C109.096 386.438 109.478 386.989 109.796 387.81L110.636 390.008C110.701 390.185 110.678 390.353 110.566 390.512C110.463 390.671 110.318 390.75 110.132 390.75H109.698C109.455 390.75 109.236 390.685 109.04 390.554C108.844 390.414 108.704 390.232 108.62 390.008L107.836 387.852C107.668 387.404 107.476 387.11 107.262 386.97C107.047 386.83 106.678 386.76 106.156 386.76H105.512C105.428 386.76 105.386 386.802 105.386 386.886V389.952C105.386 390.167 105.306 390.353 105.148 390.512C104.998 390.671 104.816 390.75 104.602 390.75H104.252ZM113.125 390.75C112.91 390.75 112.723 390.671 112.565 390.512C112.406 390.353 112.327 390.167 112.327 389.952V381.328C112.327 381.113 112.406 380.927 112.565 380.768C112.723 380.609 112.91 380.53 113.125 380.53H117.885C118.099 380.53 118.286 380.609 118.445 380.768C118.603 380.927 118.683 381.113 118.683 381.328C118.683 381.543 118.603 381.729 118.445 381.888C118.286 382.037 118.099 382.112 117.885 382.112H114.413C114.329 382.112 114.287 382.154 114.287 382.238V384.492C114.287 384.576 114.329 384.618 114.413 384.618H117.647C117.861 384.618 118.039 384.693 118.179 384.842C118.328 384.991 118.403 385.169 118.403 385.374C118.403 385.579 118.328 385.757 118.179 385.906C118.039 386.046 117.861 386.116 117.647 386.116H114.413C114.329 386.116 114.287 386.158 114.287 386.242V389.042C114.287 389.126 114.329 389.168 114.413 389.168H117.885C118.099 389.168 118.286 389.247 118.445 389.406C118.603 389.555 118.683 389.737 118.683 389.952C118.683 390.167 118.603 390.353 118.445 390.512C118.286 390.671 118.099 390.75 117.885 390.75H113.125ZM121.533 390.75C121.318 390.75 121.131 390.671 120.973 390.512C120.823 390.353 120.749 390.167 120.749 389.952V381.328C120.749 381.113 120.823 380.927 120.973 380.768C121.131 380.609 121.318 380.53 121.533 380.53H121.841C122.373 380.53 122.765 380.763 123.017 381.23L126.475 387.474C126.475 387.483 126.479 387.488 126.489 387.488C126.498 387.488 126.503 387.483 126.503 387.474V381.328C126.503 381.113 126.582 380.927 126.741 380.768C126.899 380.609 127.086 380.53 127.301 380.53H127.609C127.823 380.53 128.005 380.609 128.155 380.768C128.313 380.927 128.393 381.113 128.393 381.328V389.952C128.393 390.167 128.313 390.353 128.155 390.512C128.005 390.671 127.823 390.75 127.609 390.75H127.301C126.769 390.75 126.377 390.517 126.125 390.05L122.667 383.806C122.667 383.797 122.662 383.792 122.653 383.792C122.643 383.792 122.639 383.797 122.639 383.806V389.952C122.639 390.167 122.559 390.353 122.401 390.512C122.242 390.671 122.055 390.75 121.841 390.75H121.533ZM131.054 382.154C130.839 382.154 130.653 382.079 130.494 381.93C130.335 381.771 130.256 381.585 130.256 381.37V381.328C130.256 381.113 130.335 380.927 130.494 380.768C130.653 380.609 130.839 380.53 131.054 380.53H137.018C137.233 380.53 137.419 380.609 137.578 380.768C137.737 380.927 137.816 381.113 137.816 381.328V381.37C137.816 381.585 137.737 381.771 137.578 381.93C137.419 382.079 137.233 382.154 137.018 382.154H135.142C135.067 382.154 135.03 382.196 135.03 382.28V389.952C135.03 390.167 134.951 390.353 134.792 390.512C134.633 390.671 134.447 390.75 134.232 390.75H133.84C133.625 390.75 133.439 390.671 133.28 390.512C133.121 390.353 133.042 390.167 133.042 389.952V382.28C133.042 382.196 133.005 382.154 132.93 382.154H131.054Z" fill="white"/>
<g opacity="0.47">
<path opacity="0.65" d="M249.966 39.9496V79.4842L11.834 226.9V151.08L231.67 14.9893C242.305 18.4937 249.966 28.3461 249.966 39.9496Z" fill="white"/>
<path opacity="0.65" d="M249.966 204.968V234.82L11.834 382.235V352.383L249.966 204.968Z" fill="white"/>
<path opacity="0.65" d="M249.966 272.862V353.701L70.8407 464.588H38.6917C23.859 464.588 11.834 452.801 11.834 438.263V420.278L249.966 272.862Z" fill="white"/>
</g>
</svg>
