<svg width="46" height="46" viewBox="0 0 46 46" fill="none" xmlns="http://www.w3.org/2000/svg">
<path d="M28.4175 37.3543C28.0613 37.5217 27.665 37.6137 27.2474 37.6137H7.84723C6.3139 37.6137 5.06836 36.3706 5.06836 34.8349C5.06836 31.655 6.35872 28.777 8.44169 26.6917C10.5247 24.6064 13.405 23.3184 16.5849 23.3184H18.5098C19.6704 23.3184 20.7933 23.4906 21.8501 23.809L21.8407 23.8255C21.5104 24.3988 21.4231 25.0664 21.593 25.7056C21.7652 26.3449 22.1756 26.8804 22.7489 27.2107L23.0131 27.364C22.9824 27.6707 22.9659 27.9797 22.9659 28.2887C22.9659 28.5977 22.9824 28.9068 23.0131 29.2134L22.7489 29.3668C22.1756 29.697 21.7652 30.2325 21.593 30.8718C21.4231 31.5111 21.5104 32.1787 21.8407 32.7519L23.1357 34.9929C23.5769 35.7572 24.4002 36.2337 25.2824 36.2337C25.7165 36.2337 26.1434 36.1182 26.5209 35.9011L26.7851 35.7478C27.2875 36.1087 27.8254 36.4201 28.3892 36.6725V36.9792C28.3892 37.1066 28.3986 37.2316 28.4175 37.3543Z" fill="white"/>
<path d="M17.5481 20.8647C20.9941 20.8647 23.7876 18.0712 23.7876 14.6252C23.7876 11.1793 20.9941 8.38574 17.5481 8.38574C14.1021 8.38574 11.3086 11.1793 11.3086 14.6252C11.3086 18.0712 14.1021 20.8647 17.5481 20.8647Z" fill="white"/>
<path d="M40.6295 31.0008L39.2165 30.1846C39.3793 29.5784 39.4666 28.9438 39.4666 28.288C39.4666 27.6322 39.3793 26.9953 39.2165 26.3914L40.6295 25.5752C40.9126 25.4124 41.0093 25.0515 40.8466 24.7684L39.5515 22.5274C39.3887 22.2443 39.0278 22.1476 38.7447 22.3104L37.3317 23.1266C36.4353 22.2302 35.3077 21.5649 34.0456 21.2276V19.5976C34.0456 19.272 33.7814 19.0078 33.4559 19.0078H30.8681C30.5426 19.0078 30.2784 19.272 30.2784 19.5976V21.2276C29.0163 21.5626 27.8887 22.2278 26.9923 23.1266L25.5793 22.3104C25.2962 22.1476 24.9353 22.2443 24.7725 22.5274L23.4774 24.7684C23.3147 25.0515 23.4114 25.4124 23.6945 25.5752L25.1075 26.3914C24.9447 26.9977 24.8574 27.6322 24.8574 28.288C24.8574 28.9438 24.9447 29.5807 25.1075 30.1846L23.6945 31.0008C23.4114 31.1636 23.3147 31.5245 23.4774 31.8076L24.7725 34.0486C24.9353 34.3317 25.2962 34.4284 25.5793 34.2657L26.9923 33.4495C27.8887 34.3459 29.0163 35.0111 30.2784 35.3484V36.9785C30.2784 37.304 30.5426 37.5682 30.8681 37.5682H33.4559C33.7814 37.5682 34.0456 37.304 34.0456 36.9785V35.3484C35.3077 35.0135 36.4353 34.3482 37.3317 33.4495L38.7447 34.2657C39.0278 34.4284 39.3887 34.3317 39.5515 34.0486L40.8466 31.8076C41.0093 31.5245 40.9126 31.1636 40.6295 31.0008ZM32.1608 31.2674C30.5143 31.2674 29.1814 29.9322 29.1814 28.288C29.1814 26.6415 30.5166 25.3086 32.1608 25.3086C33.805 25.3086 35.1402 26.6438 35.1402 28.288C35.1402 29.9322 33.8074 31.2674 32.1608 31.2674Z" fill="white"/>
</svg>
