<svg width="39" height="39" viewBox="0 0 39 39" fill="none" xmlns="http://www.w3.org/2000/svg">
<g clip-path="url(#clip0_495_4201)">
<path d="M30.8672 0.761719L36.5602 6.45466C38.4522 8.34667 38.4522 11.4142 36.5602 13.3062L30.8672 18.9992H2.74323C1.64888 18.9992 0.761719 18.112 0.761719 17.0177V2.74323C0.761719 1.64888 1.64888 0.761719 2.74323 0.761719H30.8672Z" fill="#64B5F6"/>
<path d="M25.342 4.8754H36.1343C36.9558 5.6969 37.4164 6.15751 38.2379 6.97901V17.7713L18.3512 37.6579C17.5774 38.4318 16.3228 38.4318 15.5489 37.6579L5.45537 27.5644C4.68154 26.7906 4.68154 25.5359 5.45537 24.7621L25.342 4.8754Z" fill="#0085F2"/>
<path d="M33.3633 11.2738C34.2047 11.2738 34.8867 10.5917 34.8867 9.75037C34.8867 8.90899 34.2047 8.22693 33.3633 8.22693C32.5219 8.22693 31.8398 8.90899 31.8398 9.75037C31.8398 10.5917 32.5219 11.2738 33.3633 11.2738Z" fill="#64B5F6"/>
<path d="M13.678 14.4294C14.5195 14.4294 15.2016 13.7472 15.2016 12.9057C15.2016 12.0642 14.5195 11.3821 13.678 11.3821C12.8365 11.3821 12.1543 12.0642 12.1543 12.9057C12.1543 13.7472 12.8365 14.4294 13.678 14.4294Z" fill="white"/>
<path d="M7.25023 8.37884C8.09173 8.37884 8.77389 7.69668 8.77389 6.85518C8.77389 6.01368 8.09173 5.33151 7.25023 5.33151C6.40873 5.33151 5.72656 6.01368 5.72656 6.85518C5.72656 7.69668 6.40873 8.37884 7.25023 8.37884Z" fill="white"/>
<path d="M25.3343 22.534C25.5363 22.534 25.7301 22.4538 25.8729 22.3109L27.5964 20.5873C27.8939 20.2899 27.8939 19.8076 27.5964 19.5101C27.299 19.2127 26.8166 19.2127 26.5192 19.5101L25.3343 20.695L21.564 16.9248C21.2666 16.6274 20.7842 16.6274 20.4868 16.9248C20.1893 17.2223 20.1893 17.7046 20.4868 18.0021L24.7957 22.3109C24.9386 22.4538 25.1323 22.534 25.3343 22.534Z" fill="white"/>
<path d="M31.26 15.8476C30.9625 15.5502 30.4802 15.5502 30.1827 15.8476L29.2132 16.8171L28.136 15.74L29.1055 14.7705C29.4029 14.473 29.4029 13.9907 29.1055 13.6932C28.8081 13.3958 28.3257 13.3958 28.0282 13.6932L27.0587 14.6627L25.9815 13.5855L26.951 12.616C27.2484 12.3185 27.2485 11.8362 26.951 11.5387C26.6536 11.2414 26.1712 11.2413 25.8738 11.5387L24.3657 13.0468C24.2229 13.1896 24.1426 13.3834 24.1426 13.5854C24.1426 13.7874 24.2229 13.9811 24.3657 14.124L28.6746 18.4328C28.8233 18.5815 29.0183 18.6559 29.2132 18.6559C29.4081 18.6559 29.6031 18.5815 29.7518 18.4328L31.2599 16.9247C31.5574 16.6274 31.5574 16.145 31.26 15.8476Z" fill="white"/>
<path d="M22.8342 24.6055C23.2089 24.7965 23.6677 24.6473 23.8587 24.2725C24.0497 23.8977 23.9006 23.439 23.5257 23.2481L17.8164 20.3396C17.5224 20.1897 17.1654 20.2463 16.9321 20.4797C16.6988 20.713 16.6422 21.0701 16.792 21.364L19.7005 27.0732C19.8351 27.3374 20.1024 27.4894 20.3798 27.4894C20.4961 27.4894 20.6143 27.4626 20.725 27.4062C21.0998 27.2152 21.2489 26.7566 21.058 26.3818L20.8244 25.9232L22.3758 24.3718L22.8342 24.6055ZM20.0972 24.496L19.2133 22.7609L20.9485 23.6449L20.0972 24.496Z" fill="white"/>
<path d="M15.5308 30.4978C15.2333 30.7952 15.2333 31.2775 15.5308 31.5751C15.6796 31.7238 15.8745 31.7982 16.0694 31.7982C16.2643 31.7982 16.4593 31.7238 16.608 31.5751L17.6853 30.4979C18.5763 29.6069 18.5763 28.1572 17.6853 27.2662C16.8384 26.4193 15.4872 26.378 14.5903 27.1409C14.5624 27.162 14.5353 27.1844 14.51 27.2099L14.4536 27.2662C14.3097 27.41 14.1184 27.4893 13.915 27.4893C13.7115 27.4893 13.5203 27.41 13.3764 27.2662C13.0794 26.9692 13.0794 26.4859 13.3764 26.1889L14.4536 25.1117C14.751 24.8142 14.7511 24.3319 14.4536 24.0344C14.1561 23.7371 13.6738 23.737 13.3764 24.0344L12.2991 25.1116C11.4081 26.0026 11.4081 27.4523 12.2991 28.3434C12.7307 28.7749 13.3045 29.0126 13.9149 29.0126C14.5244 29.0126 15.0975 28.7756 15.5291 28.3449C15.5297 28.3444 15.5303 28.3439 15.5308 28.3434C15.8277 28.0463 16.311 28.0463 16.608 28.3434C16.7519 28.4872 16.8311 28.6784 16.8311 28.8819C16.8311 29.0854 16.7519 29.2767 16.608 29.4205L15.5308 30.4978Z" fill="white"/>
<path d="M13.0513 4.91736C12.685 4.71063 12.2203 4.83981 12.0135 5.2062L7.1005 13.909C6.89369 14.2754 7.02295 14.74 7.38934 14.9468C7.50771 15.0136 7.63621 15.0454 7.76311 15.0454C8.02894 15.0454 8.28709 14.906 8.42709 14.658L13.3401 5.95511C13.5469 5.58873 13.4177 5.12409 13.0513 4.91736Z" fill="white"/>
</g>
<defs>
<clipPath id="clip0_495_4201">
<rect width="39" height="39" fill="white"/>
</clipPath>
</defs>
</svg>
