<svg width="60" height="60" viewBox="0 0 60 60" fill="none" xmlns="http://www.w3.org/2000/svg">
<g clip-path="url(#clip0_630_7127)">
<rect width="66.4032" height="66.4032" transform="translate(-3.61328 -3.68945)" fill="#EAF5FE"/>
<g clip-path="url(#clip1_630_7127)">
<path d="M22.4991 30.7525C23.3823 29.586 23.0135 29.5615 25.4077 27.1673C27.0465 25.5285 28.9041 23.6709 29.0606 20.6735L29.0616 20.625C29.0616 17.0068 26.1173 14 22.4991 14C18.8809 14 15.9366 17.0068 15.9375 20.6735C16.0941 23.6709 17.9517 25.5286 19.5904 27.1673C21.9846 29.5615 21.6207 29.5925 22.4991 30.7525ZM22.4991 17.8124C24.0499 17.8124 25.3116 19.0741 25.3116 20.6249C25.3116 22.1758 24.0499 23.4374 22.4991 23.4374C20.9482 23.4374 19.6866 22.1758 19.6866 20.6249C19.6866 19.0741 20.9481 17.8124 22.4991 17.8124Z" fill="#0085F2"/>
<path d="M22.5 21.5625C23.0178 21.5625 23.4375 21.1428 23.4375 20.625C23.4375 20.1072 23.0178 19.6875 22.5 19.6875C21.9822 19.6875 21.5625 20.1072 21.5625 20.625C21.5625 21.1428 21.9822 21.5625 22.5 21.5625Z" fill="#0085F2"/>
<path d="M39.375 33.7496C37.8409 33.7496 36.4889 34.3504 35.6332 35.2645L27.1178 32.426C27.3506 31.1796 26.8398 30.1101 25.9264 29.3232C25.513 29.7581 25.1288 30.1891 24.8401 30.6221L22.5001 34.1322L20.16 30.6221C19.8713 30.1891 19.4871 29.7581 19.0737 29.3232C18.2919 29.9966 17.8125 30.8914 17.8125 31.8746C17.8125 33.9428 19.9154 35.6246 22.5 35.6246C24.0341 35.6246 25.3861 35.0238 26.2417 34.1097L34.7572 36.9482C34.6809 37.3568 34.6317 37.6822 34.7999 38.2982L29.7733 39.8029C28.9132 39.0112 27.6608 38.4996 26.25 38.4996C23.6654 38.4996 21.5625 40.1814 21.5625 42.2496C21.5625 44.3178 23.6654 45.9996 26.25 45.9996C28.8346 45.9996 30.9375 44.3178 30.9375 42.2496C30.9375 41.9751 30.8955 41.709 30.8251 41.4511L35.8517 39.9464C36.7117 40.7381 37.9641 41.2496 39.375 41.2496C41.9596 41.2496 44.0625 39.5678 44.0625 37.4996C44.0625 35.4314 41.9595 33.7496 39.375 33.7496Z" fill="#0085F2"/>
</g>
</g>
<defs>
<clipPath id="clip0_630_7127">
<rect x="0.078125" width="59.0251" height="59.025" rx="29.5125" fill="white"/>
</clipPath>
<clipPath id="clip1_630_7127">
<rect width="32" height="32" fill="white" transform="translate(14 14)"/>
</clipPath>
</defs>
</svg>
