<svg width="60" height="60" viewBox="0 0 60 60" fill="none" xmlns="http://www.w3.org/2000/svg">
<g clip-path="url(#clip0_630_7231)">
<rect width="66.4032" height="66.4032" transform="translate(-3.30469 -3.68848)" fill="#EAF5FE"/>
<path d="M33.5 39.5H26.5C26.224 39.5 26 39.724 26 40C26 40.276 26.224 40.5 26.5 40.5H33.5C33.776 40.5 34 40.276 34 40C34 39.724 33.776 39.5 33.5 39.5Z" fill="#0085F2"/>
<path d="M33.5 37.5H26.5C26.224 37.5 26 37.724 26 38C26 38.276 26.224 38.5 26.5 38.5H33.5C33.776 38.5 34 38.276 34 38C34 37.724 33.776 37.5 33.5 37.5Z" fill="#0085F2"/>
<path d="M29.0624 44.5H30.9394C31.6909 44.5 32.3644 44.1095 32.7484 43.5H27.2539C27.6374 44.1095 28.3109 44.5 29.0624 44.5Z" fill="#0085F2"/>
<path d="M20.8535 25.6465L22 26.793V26C22 25.7235 22.2235 25.5 22.5 25.5H24.5C25.678 25.5 26.6925 24.6205 26.8585 23.454L27.4765 19.1265C27.4925 19.018 27.5 18.9095 27.5 18.801C27.5 17.532 26.468 16.5 25.199 16.5H17.801C16.532 16.5 15.5 17.532 15.5 18.801C15.5 18.9105 15.508 19.0195 15.523 19.1265L16.1415 23.454C16.3075 24.6205 17.322 25.5 18.5 25.5H20.5C20.633 25.5 20.76 25.5525 20.8535 25.6465ZM19.5 19H26V20H19.5V19ZM17 23V22H26V23H17Z" fill="#0085F2"/>
<path d="M33.5 41.5H26.5C26.224 41.5 26 41.724 26 42C26 42.276 26.224 42.5 26.5 42.5H33.5C33.776 42.5 34 42.276 34 42C34 41.724 33.776 41.5 33.5 41.5Z" fill="#0085F2"/>
<path d="M25.5 30.5C25.7761 30.5 26 30.2761 26 30C26 29.7239 25.7761 29.5 25.5 29.5C25.2239 29.5 25 29.7239 25 30C25 30.2761 25.2239 30.5 25.5 30.5Z" fill="#0085F2"/>
<path d="M39.9998 25.5C39.9998 19.986 35.5138 15.5 29.9998 15.5C28.9378 15.5 27.9053 15.6655 26.9158 15.987C27.8638 16.5675 28.4998 17.61 28.4998 18.801C28.4998 18.958 28.4888 19.116 28.4663 19.2695L27.8488 23.596C27.6123 25.2515 26.1728 26.5 24.4998 26.5H22.9998V28C22.9998 28.202 22.8783 28.385 22.6913 28.462C22.6293 28.488 22.5643 28.5 22.4998 28.5C22.3698 28.5 22.2418 28.449 22.1463 28.3535L20.2928 26.5H20.0508C20.3363 29.3885 21.8468 31.98 24.2523 33.6715C25.2638 34.3825 26.0343 35.3555 26.5038 36.5H33.4958C33.9653 35.3555 34.7358 34.3825 35.7473 33.6715C38.4098 31.8 39.9998 28.745 39.9998 25.5ZM25.4998 31.5C24.6728 31.5 23.9998 30.827 23.9998 30C23.9998 29.173 24.6728 28.5 25.4998 28.5C26.3268 28.5 26.9998 29.173 26.9998 30C26.9998 30.827 26.3268 31.5 25.4998 31.5ZM29.9998 31.5C29.1728 31.5 28.4998 30.827 28.4998 30C28.4998 29.173 29.1728 28.5 29.9998 28.5C30.8268 28.5 31.4998 29.173 31.4998 30C31.4998 30.827 30.8268 31.5 29.9998 31.5ZM34.4998 31.5C33.6728 31.5 32.9998 30.827 32.9998 30C32.9998 29.173 33.6728 28.5 34.4998 28.5C35.3268 28.5 35.9998 29.173 35.9998 30C35.9998 30.827 35.3268 31.5 34.4998 31.5Z" fill="#0085F2"/>
<path d="M34.5 30.5C34.7761 30.5 35 30.2761 35 30C35 29.7239 34.7761 29.5 34.5 29.5C34.2239 29.5 34 29.7239 34 30C34 30.2761 34.2239 30.5 34.5 30.5Z" fill="#0085F2"/>
<path d="M42.2002 26.5H40.9502C40.8712 27.3575 40.6927 28.1955 40.4207 29H43.0012V30H40.0322C39.7147 30.7055 39.3197 31.3745 38.8597 32H43.0012V33H38.0297C37.5172 33.548 36.9492 34.05 36.3242 34.4895C35.9227 34.7715 35.5687 35.105 35.2617 35.477C35.3417 35.485 35.4202 35.5 35.5012 35.5H37.5012C37.7777 35.5 38.0012 35.7235 38.0012 36V36.793L39.1477 35.6465C39.2412 35.5525 39.3682 35.5 39.5012 35.5H41.5012C42.6792 35.5 43.6937 34.6205 43.8597 33.454L44.4782 29.126C44.4932 29.019 44.5012 28.91 44.5012 28.801C44.5012 27.532 43.4692 26.5 42.2002 26.5Z" fill="#0085F2"/>
<path d="M30 30.5C30.2761 30.5 30.5 30.2761 30.5 30C30.5 29.7239 30.2761 29.5 30 29.5C29.7239 29.5 29.5 29.7239 29.5 30C29.5 30.2761 29.7239 30.5 30 30.5Z" fill="#0085F2"/>
</g>
<defs>
<clipPath id="clip0_630_7231">
<rect x="0.382812" width="59.0251" height="59.025" rx="29.5125" fill="white"/>
</clipPath>
</defs>
</svg>
