<svg width="60" height="60" viewBox="0 0 60 60" fill="none" xmlns="http://www.w3.org/2000/svg">
<g clip-path="url(#clip0_630_7137)">
<rect width="66.4032" height="66.4032" transform="translate(-3.61328 -3.68848)" fill="#EAF5FE"/>
<path d="M29.9974 30.6667C34.0475 30.6667 37.3307 27.3834 37.3307 23.3333C37.3307 19.2832 34.0475 16 29.9974 16C25.9473 16 22.6641 19.2832 22.6641 23.3333C22.6641 27.3834 25.9473 30.6667 29.9974 30.6667Z" fill="#0085F2"/>
<path fill-rule="evenodd" clip-rule="evenodd" d="M38.6667 32.0078H39.3333C39.776 32.0078 40.1987 32.1838 40.512 32.4958C40.824 32.8091 41 33.2331 41 33.6745V35.6745C41 36.2265 41.448 36.6745 42 36.6745C42.552 36.6745 43 36.2265 43 35.6745V33.6745C43 32.7025 42.6133 31.7691 41.9267 31.0825C41.2387 30.3945 40.3053 30.0078 39.3333 30.0078C39.3093 30.0078 39.284 30.0091 39.26 30.0105C39.2373 30.0091 39.2133 30.0078 39.1893 30.0078C39.0133 30.0078 38.7307 30.0078 38.676 30.0078H38.6667C37.6947 30.0078 36.7613 30.3945 36.0733 31.0825C35.3867 31.7691 35 32.7025 35 33.6745V35.6745C35 36.2265 35.448 36.6745 36 36.6745C36.552 36.6745 37 36.2265 37 35.6745V33.6745C37 33.2331 37.176 32.8091 37.488 32.4958C37.8013 32.1838 38.224 32.0078 38.6667 32.0078Z" fill="#0085F2"/>
<path fill-rule="evenodd" clip-rule="evenodd" d="M32.736 43.3497C32.4774 42.8484 32.332 42.2791 32.332 41.6751V37.0084C32.332 35.8697 32.8507 34.8524 33.6654 34.1804V33.6751C33.6654 33.1404 33.7507 32.6137 33.9147 32.1151C32.6774 31.9217 31.3614 31.8164 29.9987 31.8164C25.5694 31.8164 21.648 32.9244 19.2134 34.5844C17.356 35.8511 16.332 37.4604 16.332 39.1497V41.0831C16.332 41.6844 16.5707 42.2617 16.996 42.6871C17.4214 43.1111 17.9974 43.3511 18.5987 43.3497H32.736Z" fill="#0085F2"/>
<path fill-rule="evenodd" clip-rule="evenodd" d="M44.3307 41.6748V37.0081C44.3307 35.7201 43.2854 34.6748 41.9974 34.6748C40.3681 34.6748 37.6267 34.6748 35.9974 34.6748C34.7094 34.6748 33.6641 35.7201 33.6641 37.0081V41.6748C33.6641 42.9641 34.7094 44.0081 35.9974 44.0081H41.9974C43.2854 44.0081 44.3307 42.9641 44.3307 41.6748ZM37.9974 38.6748V40.0081C37.9974 40.5601 38.4454 41.0081 38.9974 41.0081C39.5494 41.0081 39.9974 40.5601 39.9974 40.0081V38.6748C39.9974 38.1228 39.5494 37.6748 38.9974 37.6748C38.4454 37.6748 37.9974 38.1228 37.9974 38.6748Z" fill="#0085F2"/>
</g>
<defs>
<clipPath id="clip0_630_7137">
<rect x="0.078125" width="59.0251" height="59.025" rx="29.5125" fill="white"/>
</clipPath>
</defs>
</svg>
