<svg width="60" height="60" viewBox="0 0 60 60" fill="none" xmlns="http://www.w3.org/2000/svg">
<g clip-path="url(#clip0_630_7148)">
<rect width="66.4032" height="66.4032" transform="translate(-3.30469 -3.68945)" fill="#EAF5FE"/>
<path d="M33 38.4749V41C33 42.103 32.103 43 31 43H19C17.897 43 17 42.103 17 41V19C17 17.897 17.897 17 19 17H31C32.103 17 33 17.897 33 19V21.5251C33.3257 21.4094 33.6584 21.3097 34 21.2318V19C34 17.3457 32.6543 16 31 16H19C17.3457 16 16 17.3457 16 19V41C16 42.6543 17.3457 44 19 44H31C32.6543 44 34 42.6543 34 41V38.7682C33.6584 38.6903 33.3257 38.5906 33 38.4749Z" fill="#0085F2"/>
<path d="M27.845 33.7829L25.2031 34.957C25.2018 34.9576 25.2003 34.9573 25.1989 34.9579C25.1378 34.9845 25.0709 35 25 35C24.9291 35 24.8622 34.9845 24.8011 34.9579C24.7997 34.9573 24.7982 34.9576 24.7969 34.957L20.2969 32.957C20.1162 32.8765 20 32.6978 20 32.5V27.5C20 27.3022 20.1162 27.1235 20.2969 27.043L24.7969 25.043C24.9258 24.9854 25.0742 24.9854 25.2031 25.043L27.845 26.2171C28.707 24.3666 30.1766 22.8596 32 21.9497V19C32 18.4477 31.5523 18 31 18H27C27 19.1046 26.1046 20 25 20C23.8954 20 23 19.1046 23 18H19C18.4478 18 18 18.4477 18 19V41C18 41.5523 18.4478 42 19 42H31C31.5523 42 32 41.5523 32 41V38.0503C30.1766 37.1404 28.707 35.6334 27.845 33.7829ZM22.8535 40.1465C23.0488 40.3418 23.0488 40.6582 22.8535 40.8535C22.7559 40.9512 22.6279 41 22.5 41C22.3721 41 22.2441 40.9512 22.1465 40.8535L20.1465 38.8535C19.9512 38.6582 19.9512 38.3418 20.1465 38.1465L22.1465 36.1465C22.3418 35.9512 22.6582 35.9512 22.8535 36.1465C23.0488 36.3418 23.0488 36.6582 22.8535 36.8535L21.207 38.5L22.8535 40.1465ZM25.9849 36.6211L24.9849 40.6211C24.9283 40.8486 24.7247 41 24.5005 41C24.4605 41 24.4195 40.9951 24.379 40.9849C24.1109 40.918 23.9478 40.6465 24.0152 40.3789L25.0152 36.3789C25.0816 36.1104 25.3536 35.9443 25.6212 36.0151C25.8892 36.082 26.0523 36.3535 25.9849 36.6211ZM29.8535 38.8535L27.8535 40.8535C27.7559 40.9512 27.6279 41 27.5 41C27.3721 41 27.2441 40.9512 27.1465 40.8535C26.9512 40.6582 26.9512 40.3418 27.1465 40.1465L28.793 38.5L27.1465 36.8535C26.9512 36.6582 26.9512 36.3418 27.1465 36.1465C27.3418 35.9512 27.6582 35.9512 27.8535 36.1465L29.8535 38.1465C30.0488 38.3418 30.0488 38.6582 29.8535 38.8535Z" fill="#0085F2"/>
<path d="M27.2425 27.9552C27.3067 27.6802 27.3822 27.4099 27.4711 27.1451L24.9993 26.0469L21.7305 27.4993L24.9993 28.9521L27.2425 27.9552Z" fill="#0085F2"/>
<path d="M27 29.9996C27 29.709 27.0166 29.4223 27.0436 29.1387L25.5 29.8247V33.7301L27.4717 32.854C27.1702 31.9558 27 30.998 27 29.9996Z" fill="#0085F2"/>
<path d="M21 32.1753L24.5 33.7305V29.8251L21 28.2695V32.1753Z" fill="#0085F2"/>
<path d="M36 22C31.5817 22 28 25.5817 28 30C28 34.4183 31.5817 38 36 38C40.4183 38 44 34.4183 44 30C44 25.5817 40.4183 22 36 22ZM36 29.5C37.6543 29.5 39 30.8457 39 32.5C39 33.9831 37.9159 35.2097 36.5 35.4495V36.5C36.5 36.7764 36.2764 37 36 37C35.7236 37 35.5 36.7764 35.5 36.5V35.4495C34.0841 35.2097 33 33.9831 33 32.5C33 32.2236 33.2236 32 33.5 32C33.7764 32 34 32.2236 34 32.5C34 33.603 34.897 34.5 36 34.5C37.103 34.5 38 33.603 38 32.5C38 31.397 37.103 30.5 36 30.5C34.3457 30.5 33 29.1543 33 27.5C33 26.0169 34.0841 24.7903 35.5 24.5505V23.5C35.5 23.2236 35.7236 23 36 23C36.2764 23 36.5 23.2236 36.5 23.5V24.5505C37.9159 24.7903 39 26.0169 39 27.5C39 27.7764 38.7764 28 38.5 28C38.2236 28 38 27.7764 38 27.5C38 26.397 37.103 25.5 36 25.5C34.897 25.5 34 26.397 34 27.5C34 28.603 34.897 29.5 36 29.5Z" fill="#0085F2"/>
</g>
<defs>
<clipPath id="clip0_630_7148">
<rect x="0.382812" width="59.0251" height="59.025" rx="29.5125" fill="white"/>
</clipPath>
</defs>
</svg>
