<svg width="60" height="60" viewBox="0 0 60 60" fill="none" xmlns="http://www.w3.org/2000/svg">
<g clip-path="url(#clip0_630_7161)">
<rect width="66.4032" height="66.4032" transform="translate(-3.22656 -3.68848)" fill="#EAF5FE"/>
<path d="M33.1654 21.3151C32.9223 21.5331 32.7363 21.8072 32.6237 22.1136C32.511 22.42 32.4752 22.7494 32.5192 23.0728C31.6137 23.5428 30.8576 24.2565 30.3363 25.1335C29.8151 26.0104 29.5494 27.0157 29.5693 28.0356C29.5868 29.3154 29.3911 30.5892 28.9901 31.8047H40.01C39.6089 30.5892 39.4131 29.3155 39.4306 28.0356C39.4507 27.0141 39.1843 26.0073 38.6615 25.1294C38.1387 24.2516 37.3805 23.5376 36.4728 23.0686C36.5295 22.6636 36.4602 22.2511 36.2742 21.8869C36.0883 21.5227 35.7947 21.2246 35.4334 21.0331C35.0722 20.8415 34.6607 20.7658 34.2549 20.8163C33.8491 20.8668 33.4687 21.0409 33.1654 21.3151ZM35.4924 22.7227C34.8385 22.5754 34.1599 22.5755 33.5061 22.7231C33.5249 22.4726 33.6376 22.2384 33.8218 22.0676C34.0059 21.8967 34.2478 21.8017 34.499 21.8016C34.7503 21.8016 34.9922 21.8965 35.1764 22.0673C35.3606 22.2381 35.4735 22.4722 35.4924 22.7227ZM40.5435 34.5708C40.4122 34.7955 40.2241 34.9816 39.9981 35.1104C39.772 35.2393 39.516 35.3063 39.2559 35.3047H29.7441C29.484 35.3063 29.228 35.2393 29.0019 35.1104C28.7759 34.9816 28.5878 34.7955 28.4565 34.5708C28.3218 34.3445 28.2491 34.0867 28.2458 33.8234C28.2424 33.56 28.3086 33.3004 28.4375 33.0708C28.4822 32.9897 28.5282 32.8963 28.5739 32.8047H40.4265C40.4723 32.8963 40.5182 32.9897 40.563 33.0708C40.6917 33.3005 40.7577 33.5601 40.7543 33.8234C40.7509 34.0867 40.6781 34.3445 40.5435 34.5708ZM32.2119 36.3047H36.7881C36.5942 36.7504 36.2744 37.1298 35.868 37.3963C35.4615 37.6627 34.986 37.8047 34.5 37.8047C34.014 37.8047 33.5385 37.6627 33.132 37.3963C32.7256 37.1298 32.4058 36.7504 32.2119 36.3047ZM34.5 39.8047H20.5V18.8047H34.5V19.8047C34.8409 19.8054 35.1791 19.8646 35.5 19.9797V16.3047C35.4988 15.9072 35.3404 15.5264 35.0594 15.2453C34.7783 14.9643 34.3975 14.8058 34 14.8047H21C20.6025 14.8058 20.2217 14.9643 19.9406 15.2453C19.6596 15.5264 19.5012 15.9072 19.5 16.3047V43.3047C19.5012 43.7022 19.6596 44.083 19.9406 44.3641C20.2217 44.6451 20.6025 44.8035 21 44.8047H34C34.3975 44.8035 34.7783 44.6451 35.0594 44.3641C35.3404 44.083 35.4988 43.7022 35.5 43.3047V38.6573C35.1756 38.7547 34.8387 38.8044 34.5 38.8047V39.8047ZM29 42.8047H26C25.8674 42.8047 25.7402 42.752 25.6464 42.6582C25.5527 42.5645 25.5 42.4373 25.5 42.3047C25.5 42.1721 25.5527 42.0449 25.6464 41.9511C25.7402 41.8574 25.8674 41.8047 26 41.8047H29C29.1326 41.8047 29.2598 41.8574 29.3536 41.9511C29.4473 42.0449 29.5 42.1721 29.5 42.3047C29.5 42.4373 29.4473 42.5645 29.3536 42.6582C29.2598 42.752 29.1326 42.8047 29 42.8047Z" fill="#0085F2"/>
</g>
<defs>
<clipPath id="clip0_630_7161">
<rect x="0.460938" width="59.0251" height="59.025" rx="29.5125" fill="white"/>
</clipPath>
</defs>
</svg>
