<svg width="60" height="60" viewBox="0 0 60 60" fill="none" xmlns="http://www.w3.org/2000/svg">
<g clip-path="url(#clip0_630_7169)">
<rect width="66.4032" height="66.4032" transform="translate(-3.61328 -3.27246)" fill="#EAF5FE"/>
<path d="M18.3653 39.0182H18.5593C18.3168 40.4243 17.9774 42.8485 17.8805 43.8667H15.0683C16.4259 40.6182 15.1653 34.7031 14.535 32.1334C14.2926 31.2122 14.6805 30.6788 16.2805 28.3516V31.0667C16.2805 31.5031 16.8138 31.7455 17.2017 31.4061L19.7229 28.9334C20.1108 28.691 20.3047 28.7879 20.2077 29.2243C16.232 34.1697 16.2805 34.0243 16.329 34.3637V34.4122V36.9819C16.329 38.097 17.2502 39.0182 18.3653 39.0182Z" fill="#0085F2"/>
<path d="M28.6445 22.9697L31.7476 24.7637L28.6445 26.5091V22.9697Z" fill="#0085F2"/>
<path d="M30.0011 19.6729C27.1889 19.6729 24.9102 21.9516 24.9102 24.7638C24.9102 27.5759 27.1889 29.8547 30.0011 29.8547C32.8132 29.8547 35.092 27.5759 35.092 24.7638C35.092 21.9516 32.8132 19.6729 30.0011 19.6729ZM33.0556 25.2001L28.3526 27.8668C28.2071 27.9638 27.9647 27.9638 27.8192 27.8668C27.6738 27.7698 27.5768 27.6244 27.5768 27.4304V22.0971C27.5768 21.9032 27.6738 21.7577 27.8192 21.6607C27.9647 21.5638 28.1586 21.5638 28.3526 21.6607L33.0556 24.3274C33.2011 24.4244 33.298 24.5698 33.298 24.7638C33.298 24.9577 33.2495 25.1032 33.0556 25.2001Z" fill="#0085F2"/>
<path d="M40.9582 28.1574L42.6551 29.8059V17.1513C42.6551 16.618 42.2188 16.1816 41.6854 16.1816H18.3642C17.8309 16.1816 17.3945 16.618 17.3945 17.1513V29.8059C19.043 28.2059 19.0915 28.1574 19.1885 28.1089C20.4491 27.3332 21.7582 28.2059 21.2248 29.7089C21.1763 29.8544 21.3218 29.6119 18.1218 33.6847H42.0248C38.7764 29.6119 38.9218 29.8544 38.9218 29.7089C38.243 28.0119 40.037 27.2362 40.9582 28.1574ZM30.0006 30.8726C26.6067 30.8726 23.8915 28.1089 23.8915 24.7635C23.8915 21.418 26.6067 18.6059 30.0006 18.6059C33.3945 18.6059 36.1097 21.3695 36.1097 24.715C36.1097 28.0604 33.3945 30.8726 30.0006 30.8726Z" fill="#0085F2"/>
<path d="M17.3477 34.6543V36.9816C17.3477 37.5149 17.784 37.9513 18.3174 37.9513H40.9113H41.6386C42.1719 37.9513 42.6083 37.5149 42.6083 36.9816V34.6543H17.3477ZM19.0931 36.8361C19.0931 37.127 18.8507 37.3694 18.5598 37.3694C18.2689 37.3694 18.0264 37.127 18.0264 36.8361V35.721C18.0264 35.4301 18.2689 35.1876 18.5598 35.1876C18.8507 35.1876 19.0931 35.4301 19.0931 35.721V36.8361ZM21.2749 36.8361C21.2749 37.127 21.0325 37.3694 20.7416 37.3694C20.4507 37.3694 20.2083 37.127 20.2083 36.8361V35.721C20.2083 35.4301 20.4507 35.1876 20.7416 35.1876C21.0325 35.1876 21.2749 35.4301 21.2749 35.721V36.8361ZM40.8143 36.8361H39.9901V37.0785C39.9901 37.3694 39.7477 37.6119 39.4567 37.6119C39.1658 37.6119 38.9234 37.3694 38.9234 37.0785V36.8361H25.2022C24.9113 36.8361 24.6689 36.5937 24.6689 36.3028C24.6689 36.0119 24.9113 35.7694 25.2022 35.7694H38.9234V35.527C38.9234 35.2361 39.1658 34.9937 39.4567 34.9937C39.7477 34.9937 39.9901 35.2361 39.9901 35.527V35.8179H40.8143C41.1052 35.8179 41.3477 36.0604 41.3477 36.3513C41.3477 36.5937 41.1052 36.8361 40.8143 36.8361Z" fill="#0085F2"/>
<path d="M45.467 32.133C44.8367 34.7027 43.6245 40.6179 44.9336 43.8179H42.17C42.0245 42.7997 41.7336 40.3755 41.4912 38.9694H41.6852C42.8003 38.9694 43.673 38.0482 43.673 36.9815C43.673 34.2664 43.673 34.5088 43.673 34.3633C43.7215 34.1209 43.4791 33.7815 43.3821 33.6846L39.7942 29.2239C39.6973 28.7391 39.8912 28.6906 40.2791 28.933L42.8488 31.4058C42.9942 31.5512 43.2367 31.5997 43.4306 31.5027C43.6245 31.4058 43.77 31.2118 43.77 31.0179V28.3027C44.3033 29.03 44.9336 29.9512 45.3215 30.6785C45.5155 31.1633 45.5639 31.6482 45.467 32.133Z" fill="#0085F2"/>
</g>
<defs>
<clipPath id="clip0_630_7169">
<rect x="0.078125" y="0.417969" width="59.0251" height="59.025" rx="29.5125" fill="white"/>
</clipPath>
</defs>
</svg>
