<svg width="60" height="60" viewBox="0 0 60 60" fill="none" xmlns="http://www.w3.org/2000/svg">
<g clip-path="url(#clip0_630_7189)">
<rect width="66.4032" height="66.4032" transform="translate(-3.30469 -3.27051)" fill="#EAF5FE"/>
<g clip-path="url(#clip1_630_7189)">
<path d="M43.1401 26.3632H38.9219V17.9268C38.9219 16.0359 37.3704 14.4844 35.4795 14.4844H32.0855H29.6128H27.237H23.7461C21.8552 14.4844 20.3037 16.0359 20.3037 17.9268V20.5935C17.2976 20.8359 14.9219 23.3571 14.9219 26.4116C14.9219 29.4662 17.2976 32.0359 20.3037 32.2783V42.0723C20.3037 43.9632 21.8552 45.5147 23.7461 45.5147H35.431C37.3219 45.5147 38.8734 43.9632 38.8734 42.0723V36.7874H43.0916C44.1582 36.7874 45.031 35.9147 45.031 34.848V28.3026C45.0795 27.2359 44.2067 26.3632 43.1401 26.3632ZM20.934 30.4359C20.6431 30.4359 20.4491 30.242 20.4491 29.951V29.3692H19.431C18.8007 29.3692 18.3158 28.8844 18.3158 28.2541C18.3158 28.0116 18.5098 27.7692 18.8007 27.7692C19.0916 27.7692 19.2855 28.0116 19.2855 28.2541C19.2855 28.351 19.334 28.3995 19.431 28.3995H22.2431C22.3401 28.3995 22.3885 28.351 22.3885 28.2541V27.042C22.3885 26.945 22.3401 26.8965 22.2431 26.8965H19.431C18.8007 26.8965 18.3158 26.4116 18.3158 25.7813V24.6177C18.3158 23.9874 18.8007 23.5026 19.431 23.5026H20.4491V22.9207C20.4491 22.6298 20.6431 22.4359 20.934 22.4359C21.2249 22.4359 21.4188 22.6298 21.4188 22.9207V23.5026H22.2431C22.8734 23.5026 23.3582 23.9874 23.3582 24.6177C23.3582 24.8601 23.1158 25.1026 22.8734 25.1026C22.631 25.1026 22.3885 24.8601 22.3885 24.6177C22.3885 24.5207 22.3401 24.4723 22.2431 24.4723H19.431C19.334 24.4723 19.2855 24.5207 19.2855 24.6177V25.7813C19.2855 25.8783 19.334 25.9268 19.431 25.9268H22.2431C22.8734 25.9268 23.3582 26.4116 23.3582 27.042V28.2541C23.3582 28.8844 22.8734 29.3692 22.2431 29.3692H21.4188V29.951C21.4188 30.242 21.1764 30.4359 20.934 30.4359ZM31.0673 43.2844H28.1582C27.9158 43.2844 27.6734 43.042 27.6734 42.7995C27.6734 42.5571 27.9158 42.3147 28.1582 42.3147H31.0673C31.3582 42.3147 31.5522 42.5571 31.5522 42.7995C31.5522 43.042 31.3098 43.2844 31.0673 43.2844ZM37.9037 40.2298H21.2734V32.2783C24.2795 32.0359 26.6552 29.5147 26.6552 26.4116C26.6552 23.3086 24.3279 20.8359 21.2734 20.5935V18.751H37.9037V26.3632H31.0673C30.0007 26.3632 29.1279 27.2359 29.1279 28.3026V34.848C29.1279 35.9147 30.0007 36.7874 31.0673 36.7874H37.9037V40.2298ZM44.1098 34.848C44.1098 35.3813 43.6734 35.8177 43.1401 35.8177H31.0673C30.534 35.8177 30.0976 35.3813 30.0976 34.848V29.9026H44.1098V34.848Z" fill="#0085F2"/>
<path d="M37.9526 31.3086H31.7466C31.5041 31.3086 31.2617 31.551 31.2617 31.7934C31.2617 32.0359 31.5041 32.2783 31.7466 32.2783H37.9526C38.1951 32.2783 38.4375 32.0359 38.4375 31.7934C38.4375 31.551 38.1951 31.3086 37.9526 31.3086Z" fill="#0085F2"/>
<path d="M32.3755 33.1514C32.133 33.1514 31.8906 33.3938 31.8906 33.6362V34.218C31.8906 34.4605 32.133 34.7029 32.3755 34.7029C32.6179 34.7029 32.8603 34.4605 32.8603 34.218V33.6362C32.8603 33.3938 32.6664 33.1514 32.3755 33.1514Z" fill="#0085F2"/>
<path d="M33.9263 33.1514C33.6838 33.1514 33.4414 33.3938 33.4414 33.6362V34.218C33.4414 34.4605 33.6838 34.7029 33.9263 34.7029C34.1687 34.7029 34.4111 34.4605 34.4111 34.218V33.6362C34.4111 33.3938 34.1687 33.1514 33.9263 33.1514Z" fill="#0085F2"/>
<path d="M35.4302 33.1514C35.1877 33.1514 34.9453 33.3938 34.9453 33.6362V34.218C34.9453 34.4605 35.1877 34.7029 35.4302 34.7029C35.6726 34.7029 35.915 34.4605 35.915 34.218V33.6362C35.915 33.3938 35.7211 33.1514 35.4302 33.1514Z" fill="#0085F2"/>
</g>
</g>
<defs>
<clipPath id="clip0_630_7189">
<rect x="0.382812" y="0.417969" width="59.0251" height="59.025" rx="29.5125" fill="white"/>
</clipPath>
<clipPath id="clip1_630_7189">
<rect width="32" height="32" fill="white" transform="translate(14 14)"/>
</clipPath>
</defs>
</svg>
