<svg width="60" height="60" viewBox="0 0 60 60" fill="none" xmlns="http://www.w3.org/2000/svg">
<g clip-path="url(#clip0_630_7201)">
<rect width="66.4032" height="66.4032" transform="translate(-3.30469 -3.68945)" fill="#EAF5FE"/>
<path d="M40.9561 39.146C40.3116 37.2279 37.743 36.0273 35.9116 35.2225C35.1942 34.9082 33.208 34.3751 32.9692 33.4717C32.8838 33.1463 32.8953 32.8394 32.9654 32.5453C32.855 32.5665 32.743 32.5789 32.6272 32.5789H31.4339C30.4812 32.5789 29.7072 31.8039 29.7072 30.8519C29.7072 29.9005 30.4816 29.1271 31.4339 29.1271H32.6272C33.0214 29.1271 33.3952 29.2605 33.6966 29.4986C34.1385 29.4397 34.5648 29.3453 34.9622 29.2215C35.4841 28.1281 35.8912 26.8205 35.9824 25.6951C36.3718 20.8797 33.4198 18.0625 29.1872 18.5495C26.1097 18.9037 24.2713 21.1985 24.0726 24.1527C23.8716 27.1639 24.9881 29.3879 26.174 31.0193C26.6934 31.7325 27.239 32.1911 27.1552 33.0506C27.0579 34.0669 25.9712 34.3501 25.1939 34.6625C24.2729 35.0324 23.2809 35.5937 22.8124 35.8532C21.1987 36.7444 19.4275 37.8176 19.0294 39.2858C18.1478 42.5396 21.1251 43.5252 23.583 43.9802C25.6924 44.3693 28.071 44.4001 30.0275 44.4001C33.5664 44.4001 39.9299 44.2583 40.9561 41.5981C41.248 40.8433 41.1229 39.6404 40.9561 39.146Z" fill="#0085F2"/>
<path d="M33.3837 30.3654C33.2217 30.1186 32.9449 29.9548 32.6291 29.9548H31.4358C30.9379 29.9548 30.5363 30.357 30.5363 30.8524C30.5363 31.3497 30.9379 31.7526 31.4358 31.7526H32.6291C32.9776 31.7526 33.2733 31.5538 33.4224 31.2665C35.0861 31.1356 36.5331 30.6274 37.5488 29.877C37.7821 30.0274 38.0579 30.1154 38.3555 30.1154H38.4304C39.2598 30.1154 39.9305 29.4441 39.9305 28.6137V25.6159C39.9305 25.0188 39.5805 24.5036 39.0755 24.2642C38.8553 19.4505 34.8704 15.5996 30.0025 15.5996C25.1347 15.5996 21.1491 19.4505 20.9299 24.2642C20.424 24.5039 20.0742 25.0188 20.0742 25.6159V28.6137C20.0742 29.4441 20.7456 30.1154 21.5731 30.1154H21.6489C22.4771 30.1154 23.1488 29.4441 23.1488 28.6137V25.6159C23.1488 25.0274 22.8086 24.5199 22.3142 24.2745C22.5283 20.2185 25.8941 16.9855 30.0025 16.9855C34.1094 16.9855 37.4768 20.2185 37.6899 24.2745C37.1961 24.5202 36.8563 25.0274 36.8563 25.6159V28.6137C36.8563 28.8127 36.895 28.998 36.9632 29.1711C36.0889 29.7967 34.8163 30.2425 33.3837 30.3654Z" fill="#0085F2"/>
</g>
<defs>
<clipPath id="clip0_630_7201">
<rect x="0.382812" width="59.0251" height="59.025" rx="29.5125" fill="white"/>
</clipPath>
</defs>
</svg>
