<svg width="60" height="60" viewBox="0 0 60 60" fill="none" xmlns="http://www.w3.org/2000/svg">
<g clip-path="url(#clip0_630_7210)">
<rect width="66.4032" height="66.4032" transform="translate(-3.61328 -3.68945)" fill="#EAF5FE"/>
<g clip-path="url(#clip1_630_7210)">
<path d="M42.125 19.3125C42.125 17.4171 40.5829 15.875 38.6875 15.875H38V18.6875C38 19.2053 37.5802 19.625 37.0625 19.625C36.5448 19.625 36.125 19.2053 36.125 18.6875V15.875H32V18.6875C32 19.2053 31.5802 19.625 31.0625 19.625C30.5448 19.625 30.125 19.2053 30.125 18.6875V15.875H26V18.6875C26 19.2053 25.5802 19.625 25.0625 19.625C24.5448 19.625 24.125 19.2053 24.125 18.6875V15.875H20V18.6875C20 19.2053 19.5802 19.625 19.0625 19.625C18.5448 19.625 18.125 19.2053 18.125 18.6875V15.875H17.4375C15.5421 15.875 14 17.4171 14 19.3125V22.125H42.125V19.3125Z" fill="#0085F2"/>
<path d="M20 14.9375C20 14.4197 19.5803 14 19.0625 14C18.5447 14 18.125 14.4197 18.125 14.9375V15.875H20V14.9375Z" fill="#0085F2"/>
<path d="M38 14.9375C38 14.4197 37.5803 14 37.0625 14C36.5447 14 36.125 14.4197 36.125 14.9375V15.875H38V14.9375Z" fill="#0085F2"/>
<path d="M32 14.9375C32 14.4197 31.5803 14 31.0625 14C30.5447 14 30.125 14.4197 30.125 14.9375V15.875H32V14.9375Z" fill="#0085F2"/>
<path d="M26 14.9375C26 14.4197 25.5803 14 25.0625 14C24.5447 14 24.125 14.4197 24.125 14.9375V15.875H26V14.9375Z" fill="#0085F2"/>
<path d="M39.125 30.375C40.1784 30.375 41.1889 30.5622 42.125 30.9049V24H14V38.0625C14 39.6133 15.2617 40.875 16.8125 40.875H30.5509C30.4357 40.3094 30.375 39.7241 30.375 39.125C30.375 34.3003 34.3003 30.375 39.125 30.375ZM35.625 27.2812H37.1875C37.7052 27.2812 38.125 27.701 38.125 28.2188C38.125 28.7365 37.7052 29.1562 37.1875 29.1562H35.625C35.1073 29.1562 34.6875 28.7365 34.6875 28.2188C34.6875 27.701 35.1073 27.2812 35.625 27.2812ZM30.0625 27.2812H31.625C32.1427 27.2812 32.5625 27.701 32.5625 28.2188C32.5625 28.7365 32.1427 29.1562 31.625 29.1562H30.0625C29.5448 29.1562 29.125 28.7365 29.125 28.2188C29.125 27.701 29.5448 27.2812 30.0625 27.2812ZM20.5 37.5938H18.9375C18.4198 37.5938 18 37.174 18 36.6562C18 36.1385 18.4198 35.7188 18.9375 35.7188H20.5C21.0177 35.7188 21.4375 36.1385 21.4375 36.6562C21.4375 37.174 21.0177 37.5938 20.5 37.5938ZM20.5 33.375H18.9375C18.4198 33.375 18 32.9552 18 32.4375C18 31.9198 18.4198 31.5 18.9375 31.5H20.5C21.0177 31.5 21.4375 31.9198 21.4375 32.4375C21.4375 32.9552 21.0177 33.375 20.5 33.375ZM26.0625 37.5938H24.5C23.9823 37.5938 23.5625 37.174 23.5625 36.6562C23.5625 36.1385 23.9823 35.7188 24.5 35.7188H26.0625C26.5802 35.7188 27 36.1385 27 36.6562C27 37.174 26.5802 37.5938 26.0625 37.5938ZM26.0625 33.375H24.5C23.9823 33.375 23.5625 32.9552 23.5625 32.4375C23.5625 31.9198 23.9823 31.5 24.5 31.5H26.0625C26.5802 31.5 27 31.9198 27 32.4375C27 32.9552 26.5802 33.375 26.0625 33.375ZM26.0625 29.1562H24.5C23.9823 29.1562 23.5625 28.7365 23.5625 28.2188C23.5625 27.701 23.9823 27.2812 24.5 27.2812H26.0625C26.5802 27.2812 27 27.701 27 28.2188C27 28.7365 26.5802 29.1562 26.0625 29.1562ZM29.125 32.4375C29.125 31.9198 29.5448 31.5 30.0625 31.5H31.625C32.1427 31.5 32.5625 31.9198 32.5625 32.4375C32.5625 32.9552 32.1427 33.375 31.625 33.375H30.0625C29.5448 33.375 29.125 32.9552 29.125 32.4375Z" fill="#0085F2"/>
<path d="M39.125 32.25C35.3341 32.25 32.25 35.3341 32.25 39.125C32.25 42.9159 35.3341 46 39.125 46C42.9159 46 46 42.9159 46 39.125C46 35.3341 42.9159 32.25 39.125 32.25ZM42.25 40.0625H39.125C38.6073 40.0625 38.1875 39.6427 38.1875 39.125V36C38.1875 35.4822 38.6073 35.0625 39.125 35.0625C39.6427 35.0625 40.0625 35.4822 40.0625 36V38.1875H42.25C42.7677 38.1875 43.1875 38.6073 43.1875 39.125C43.1875 39.6427 42.7677 40.0625 42.25 40.0625Z" fill="#0085F2"/>
</g>
</g>
<defs>
<clipPath id="clip0_630_7210">
<rect x="0.078125" width="59.0251" height="59.025" rx="29.5125" fill="white"/>
</clipPath>
<clipPath id="clip1_630_7210">
<rect width="32" height="32" fill="white" transform="translate(14 14)"/>
</clipPath>
</defs>
</svg>
