<svg width="60" height="60" viewBox="0 0 60 60" fill="none" xmlns="http://www.w3.org/2000/svg">
<g clip-path="url(#clip0_630_7224)">
<rect width="66.4032" height="66.4032" transform="translate(-2.99219 -3.68848)" fill="#EAF5FE"/>
<path fill-rule="evenodd" clip-rule="evenodd" d="M20.3832 35.9926L23.1091 40.809L23.4384 40.6189C23.5524 40.5532 23.6878 40.5355 23.8149 40.5696L31.0861 42.5164C32.1544 42.8027 32.7631 42.6147 33.7072 42.1336L43.696 35.9829C44.1995 35.6729 44.2641 34.8244 43.9657 34.3438C43.3053 33.28 41.4696 34.1711 40.711 34.613L35.1874 37.8302C33.9413 38.5558 33.0105 38.4198 31.7459 38.2141L28.0063 37.2301C27.8792 37.1952 27.7711 37.1114 27.7055 36.9971C27.6399 36.8827 27.6222 36.7471 27.6562 36.6197C27.6902 36.4923 27.7732 36.3836 27.8871 36.3172C28.001 36.2508 28.1365 36.2321 28.2641 36.2652C29.4582 36.5852 30.6419 36.9698 31.8526 37.2202C32.4627 37.2948 32.9659 37.1037 33.1352 36.4714C33.2887 35.8986 32.9274 35.3589 32.3866 35.1714C30.7272 34.8676 29.1172 34.2856 27.8511 33.8277C26.019 33.1652 25.5312 33.0118 23.7248 34.0576L20.3832 35.9926ZM33.8725 19.9354C33.0343 19.9354 32.215 20.1841 31.5183 20.65C30.8215 21.1159 30.2787 21.778 29.9584 22.5526C29.6382 23.3272 29.555 24.1794 29.7194 25.0013C29.8838 25.8231 30.2883 26.5778 30.8818 27.1696C30.9879 26.4522 31.3482 25.7969 31.8972 25.3231C32.4462 24.8493 33.1473 24.5886 33.8724 24.5886C34.5976 24.5886 35.2986 24.8493 35.8476 25.3231C36.3966 25.7969 36.757 26.4522 36.8631 27.1696C37.4565 26.5778 37.8611 25.8232 38.0255 25.0013C38.1898 24.1794 38.1067 23.3272 37.7864 22.5527C37.4662 21.7781 36.9234 21.1159 36.2267 20.65C35.53 20.1841 34.7106 19.9354 33.8725 19.9354ZM33.8725 23.9632C33.5702 23.9632 33.2747 23.8735 33.0233 23.7056C32.7719 23.5376 32.576 23.2989 32.4603 23.0196C32.3447 22.7403 32.3144 22.433 32.3734 22.1365C32.4324 21.84 32.5779 21.5676 32.7917 21.3539C33.0055 21.1401 33.2778 20.9945 33.5743 20.9355C33.8708 20.8766 34.1782 20.9069 34.4575 21.0226C34.7368 21.1383 34.9755 21.3342 35.1434 21.5855C35.3114 21.8369 35.401 22.1324 35.401 22.4347C35.401 22.6355 35.3615 22.8342 35.2846 23.0197C35.2078 23.2051 35.0952 23.3736 34.9533 23.5155C34.8114 23.6575 34.6429 23.7701 34.4574 23.8469C34.272 23.9237 34.0732 23.9632 33.8725 23.9632ZM23.1943 42.9895L18.8121 35.2463C18.7094 35.0662 18.5397 34.9341 18.34 34.8787C18.1403 34.8234 17.9267 34.8493 17.7461 34.9509L16.2555 35.7946C16.0754 35.8972 15.9433 36.0669 15.8879 36.2667C15.8325 36.4664 15.8584 36.6799 15.96 36.8606L20.3422 44.6038C20.4449 44.7839 20.6146 44.9161 20.8143 44.9714C21.014 45.0268 21.2276 45.0009 21.4082 44.8993L22.8989 44.0556C23.079 43.953 23.2111 43.7832 23.2665 43.5835C23.3219 43.3837 23.2959 43.1702 23.1943 42.9895ZM17.9611 37.4602C17.857 37.4754 17.7506 37.4594 17.6556 37.4142C17.5605 37.369 17.481 37.2966 17.4271 37.2062C17.3732 37.1158 17.3473 37.0115 17.3527 36.9064C17.3581 36.8012 17.3945 36.7001 17.4574 36.6157C17.5203 36.5313 17.6068 36.4674 17.7059 36.4321C17.8051 36.3969 17.9125 36.3918 18.0146 36.4176C18.1166 36.4434 18.2087 36.4989 18.2792 36.577C18.3498 36.6552 18.3955 36.7525 18.4107 36.8566C18.4209 36.9258 18.4172 36.9962 18.4001 37.064C18.383 37.1318 18.3527 37.1955 18.3109 37.2515C18.2692 37.3076 18.2168 37.3548 18.1568 37.3906C18.0968 37.4265 18.0303 37.4501 17.9611 37.4602ZM41.5236 22.3448C41.3308 21.535 41.01 20.7611 40.5733 20.0524L41.2346 18.5636L39.4796 16.8084L37.9903 17.4699C37.2817 17.0334 36.5081 16.7127 35.6986 16.5199L35.1136 15H32.6314L32.0464 16.5198C31.2368 16.7126 30.4632 17.0333 29.7546 17.4697L28.2653 16.8084L26.5101 18.5637L27.1715 20.0528C26.735 20.7614 26.4143 21.5351 26.2215 22.3448L24.702 22.9297V25.4119L26.2214 25.9967C26.4141 26.8065 26.7348 27.5804 27.1714 28.2891L26.5101 29.7779L28.2654 31.5331L29.7546 30.8716C30.4632 31.3081 31.2368 31.6288 32.0464 31.8216L32.6314 33.3414H35.1136L35.6984 31.822C36.5082 31.6293 37.2821 31.3086 37.9908 30.872L39.4796 31.5333L41.2348 29.7781L40.5734 28.2887C41.0098 27.5802 41.3305 26.8066 41.5234 25.997L43.0431 25.4121V22.9296L41.5236 22.3448ZM33.8725 29.4062C32.8371 29.4062 31.8249 29.0992 30.9639 28.5239C30.103 27.9487 29.4319 27.131 29.0357 26.1744C28.6395 25.2178 28.5358 24.1651 28.7378 23.1496C28.9398 22.134 29.4384 21.2012 30.1706 20.469C30.9027 19.7368 31.8356 19.2382 32.8511 19.0362C33.8667 18.8342 34.9193 18.9379 35.876 19.3341C36.8326 19.7304 37.6502 20.4014 38.2255 21.2624C38.8008 22.1233 39.1078 23.1355 39.1078 24.1709C39.1077 25.5594 38.5561 26.8909 37.5743 27.8727C36.5925 28.8545 35.2609 29.4061 33.8725 29.4062Z" fill="#0085F2"/>
</g>
<defs>
<clipPath id="clip0_630_7224">
<rect x="0.695312" width="59.0251" height="59.025" rx="29.5125" fill="white"/>
</clipPath>
</defs>
</svg>
