<svg width="229" height="464" viewBox="0 0 229 464" fill="none" xmlns="http://www.w3.org/2000/svg">
<path d="M225.334 25.9626V438.037C225.334 450.534 215.714 460.698 203.895 460.698H24.5641C12.7448 460.698 3.125 450.534 3.125 438.037V25.9626C3.125 13.4658 12.7447 3.30078 24.5641 3.30078H203.895C215.714 3.30078 225.334 13.4657 225.334 25.9626Z" fill="white"/>
<path d="M203.892 0H24.5614C11.0175 0 0 11.6481 0 25.9629V438.037C0 452.356 11.0175 464 24.5614 464H203.892C217.436 464 228.453 452.356 228.453 438.037V25.9629C228.453 11.648 217.436 0 203.892 0ZM225.331 438.037C225.331 450.534 215.711 460.698 203.892 460.698H24.5614C12.7421 460.698 3.12223 450.534 3.12223 438.037V25.9629C3.12223 13.4662 12.7419 3.30135 24.5614 3.30135H203.892C215.711 3.30135 225.331 13.4662 225.331 25.9629L225.331 438.037Z" fill="black"/>
<path d="M20.1296 22.0861C19.592 22.0861 19.1562 21.6504 19.1562 21.1128V16.738C19.1562 16.2004 19.592 15.7646 20.1296 15.7646C20.6672 15.7646 21.1029 16.2004 21.1029 16.738V21.1128C21.1029 21.6504 20.667 22.0861 20.1296 22.0861Z" fill="#270A54"/>
<path d="M17.3678 22.086C16.8303 22.086 16.3945 21.6503 16.3945 21.1127V18.655C16.3945 18.1174 16.8303 17.6816 17.3678 17.6816C17.9053 17.6816 18.3412 18.1174 18.3412 18.655V21.1127C18.3412 21.6503 17.9053 22.086 17.3678 22.086Z" fill="#270A54"/>
<path d="M22.8913 22.086C22.3537 22.086 21.918 21.6503 21.918 21.1127V14.2507C21.918 13.7131 22.3537 13.2773 22.8913 13.2773C23.4289 13.2773 23.8646 13.7131 23.8646 14.2507V21.1127C23.8646 21.6503 23.4287 22.086 22.8913 22.086Z" fill="#270A54"/>
<path d="M25.653 22.0859C25.1154 22.0859 24.6797 21.6502 24.6797 21.1126V12.3092C24.6797 11.7717 25.1154 11.3359 25.653 11.3359C26.1906 11.3359 26.6263 11.7717 26.6263 12.3092V21.1126C26.6263 21.6502 26.1905 22.0859 25.653 22.0859Z" fill="#270A54"/>
<path d="M205.765 12.9969C206.646 12.9969 207.362 13.7135 207.362 14.5944V18.8277C207.362 19.7085 206.646 20.4252 205.765 20.4252H195.188C194.307 20.4252 193.591 19.7086 193.591 18.8277V14.5944C193.591 13.7136 194.307 12.9969 195.188 12.9969H205.765ZM205.765 11.3359H195.188C193.388 11.3359 191.93 12.7947 191.93 14.5943V18.8276C191.93 20.6271 193.388 22.0859 195.188 22.0859H205.765C207.565 22.0859 209.023 20.6271 209.023 18.8276V14.5943C209.023 12.7947 207.565 11.3359 205.765 11.3359Z" fill="#270A54"/>
<path d="M211.087 18.9132C210.549 18.9132 210.113 18.4775 210.113 17.9399V15.4821C210.113 14.9445 210.549 14.5088 211.087 14.5088C211.624 14.5088 212.06 14.9445 212.06 15.4821V17.9399C212.06 18.4775 211.624 18.9132 211.087 18.9132Z" fill="#270A54"/>
<path d="M205.378 19.103H195.573C195.248 19.103 194.984 18.8395 194.984 18.5143V14.907C194.984 14.582 195.248 14.3184 195.573 14.3184H205.378C205.703 14.3184 205.966 14.5818 205.966 14.907V18.5143C205.966 18.8394 205.703 19.103 205.378 19.103Z" fill="#270A54"/>
<path d="M102.903 12.0481C103.384 12.467 103.75 13.0685 103.999 13.8526C104.249 14.6368 104.374 15.5681 104.374 16.6461C104.374 17.7244 104.249 18.6557 103.999 19.4396C103.75 20.2238 103.384 20.8253 102.903 21.244C102.422 21.663 101.847 21.8723 101.179 21.8723C100.163 21.8723 99.3766 21.4135 98.8198 20.4956C98.2628 19.5778 97.9844 18.2948 97.9844 16.6461C97.9844 14.9977 98.2628 13.7145 98.8198 12.7967C99.3766 11.879 100.163 11.4199 101.179 11.4199C101.847 11.4199 102.422 11.6294 102.903 12.0481ZM99.8222 13.8592C99.5148 14.5676 99.3611 15.4965 99.3611 16.646C99.3611 17.8045 99.5169 18.7334 99.8289 19.433C100.141 20.1325 100.591 20.4821 101.179 20.4821C101.776 20.4821 102.228 20.1302 102.536 19.4262C102.843 18.7223 102.997 17.7956 102.997 16.646C102.997 15.5055 102.841 14.5788 102.529 13.8658C102.217 13.153 101.767 12.7966 101.179 12.7966C100.582 12.7966 100.13 13.1508 99.8222 13.8592Z" fill="#270A54"/>
<path d="M107.162 17.3611C106.685 17.0895 106.313 16.7129 106.046 16.2317C105.778 15.7504 105.645 15.2025 105.645 14.5875C105.645 13.9816 105.778 13.438 106.046 12.9569C106.313 12.4757 106.685 12.0994 107.162 11.8275C107.638 11.5559 108.18 11.4199 108.786 11.4199C109.401 11.4199 109.946 11.5559 110.423 11.8275C110.9 12.0994 111.272 12.4758 111.539 12.9569C111.806 13.4381 111.94 13.9816 111.94 14.5875C111.94 15.2738 111.771 15.8841 111.432 16.4188L108.398 21.4712C108.238 21.7208 108.033 21.8454 107.783 21.8454C107.578 21.8454 107.409 21.7786 107.275 21.645C107.142 21.5112 107.075 21.3509 107.075 21.1638C107.075 21.0302 107.11 20.9098 107.182 20.803L109.013 17.7689H108.786C108.18 17.7689 107.638 17.6332 107.162 17.3611ZM107.449 13.1708C107.102 13.5363 106.928 14.0085 106.928 14.5877C106.928 15.1671 107.102 15.6416 107.449 16.0111C107.796 16.381 108.246 16.5658 108.799 16.5658C109.342 16.5658 109.788 16.381 110.136 16.0111C110.483 15.6414 110.657 15.167 110.657 14.5877C110.657 14.0086 110.485 13.5363 110.142 13.1708C109.799 12.8055 109.351 12.6228 108.799 12.6228C108.246 12.6229 107.796 12.8056 107.449 13.1708Z" fill="#270A54"/>
<path d="M114.684 14.8355C114.866 15.0182 114.958 15.2387 114.958 15.4971C114.958 15.7467 114.869 15.9628 114.691 16.1454C114.512 16.3281 114.294 16.4195 114.036 16.4195C113.786 16.4195 113.57 16.3281 113.387 16.1454C113.205 15.9628 113.113 15.7467 113.113 15.4971C113.113 15.2387 113.205 15.0182 113.387 14.8355C113.57 14.6529 113.786 14.5615 114.036 14.5615C114.285 14.5615 114.501 14.653 114.684 14.8355ZM114.831 20.5029C115.013 20.6856 115.105 20.9061 115.105 21.1645C115.105 21.4141 115.016 21.6301 114.837 21.8127C114.659 21.9952 114.441 22.0867 114.183 22.0867C113.933 22.0867 113.717 21.9954 113.534 21.8127C113.352 21.6301 113.26 21.4141 113.26 21.1645C113.26 20.9061 113.352 20.6856 113.534 20.5029C113.717 20.3203 113.933 20.2288 114.183 20.2288C114.432 20.2288 114.648 20.3203 114.831 20.5029Z" fill="#270A54"/>
<path d="M121.027 11.7608C121.455 11.988 121.791 12.2977 122.036 12.6898C122.281 13.0819 122.404 13.5184 122.404 13.9996C122.404 14.4809 122.252 14.8975 121.949 15.2494C121.646 15.6015 121.268 15.8799 120.813 16.0848C121.49 16.3167 121.994 16.6709 122.324 17.1475C122.653 17.6244 122.818 18.188 122.818 18.8383C122.818 19.4087 122.671 19.9256 122.377 20.3889C122.083 20.8523 121.689 21.2155 121.194 21.4782C120.7 21.741 120.163 21.8724 119.584 21.8724C118.924 21.8724 118.334 21.7321 117.813 21.4514C117.291 21.1707 116.884 20.7877 116.589 20.3018C116.295 19.8162 116.148 19.2704 116.148 18.6644C116.148 18.4686 116.206 18.3035 116.322 18.17C116.438 18.0364 116.585 17.9695 116.763 17.9695C116.942 17.9695 117.089 18.0364 117.204 18.17C117.32 18.3036 117.378 18.4686 117.378 18.6644C117.378 19.0299 117.472 19.3662 117.659 19.6736C117.846 19.9809 118.102 20.2261 118.428 20.4087C118.753 20.5915 119.111 20.6828 119.504 20.6828C120.1 20.6828 120.577 20.5181 120.934 20.1883C121.29 19.8588 121.468 19.4043 121.468 18.825C121.468 18.4598 121.388 18.1232 121.228 17.8158C121.067 17.5085 120.847 17.2678 120.566 17.094C120.285 16.9202 119.976 16.8334 119.637 16.8334C119.441 16.8334 119.279 16.7665 119.15 16.6329C119.02 16.4993 118.956 16.3344 118.956 16.1383C118.956 15.9425 119.02 15.7797 119.15 15.6505C119.279 15.5216 119.441 15.4568 119.637 15.4568C119.887 15.4568 120.13 15.3922 120.366 15.2629C120.602 15.1338 120.793 14.9578 120.94 14.7349C121.088 14.5122 121.161 14.267 121.161 13.9998C121.161 13.6077 121.018 13.278 120.733 13.0107C120.448 12.7434 120.083 12.6097 119.637 12.6097C119.298 12.6097 118.989 12.6765 118.708 12.8102C118.427 12.9438 118.205 13.1222 118.04 13.3448C117.875 13.5676 117.793 13.8172 117.793 14.0932C117.793 14.2984 117.735 14.4698 117.619 14.6079C117.503 14.7462 117.356 14.815 117.178 14.815C116.999 14.815 116.852 14.7504 116.737 14.6212C116.621 14.4921 116.563 14.3294 116.563 14.1333C116.563 13.6254 116.696 13.1642 116.964 12.7499C117.231 12.3356 117.596 12.0104 118.06 11.7741C118.523 11.5381 119.04 11.4199 119.61 11.4199C120.127 11.4201 120.6 11.5336 121.027 11.7608Z" fill="#270A54"/>
<path d="M129.009 12.0481C129.49 12.467 129.855 13.0685 130.105 13.8526C130.354 14.6368 130.479 15.5681 130.479 16.6461C130.479 17.7244 130.354 18.6557 130.105 19.4396C129.855 20.2238 129.49 20.8253 129.009 21.244C128.527 21.663 127.953 21.8723 127.284 21.8723C126.269 21.8723 125.482 21.4135 124.925 20.4956C124.368 19.5778 124.09 18.2948 124.09 16.6461C124.09 14.9977 124.368 13.7145 124.925 12.7967C125.482 11.879 126.269 11.4199 127.284 11.4199C127.953 11.4199 128.528 11.6294 129.009 12.0481ZM125.928 13.8592C125.62 14.5676 125.467 15.4965 125.467 16.646C125.467 17.8045 125.622 18.7334 125.934 19.433C126.246 20.1325 126.696 20.4821 127.285 20.4821C127.881 20.4821 128.334 20.1302 128.641 19.4262C128.949 18.7223 129.102 17.7956 129.102 16.646C129.102 15.5055 128.946 14.5788 128.635 13.8658C128.323 13.153 127.873 12.7966 127.285 12.7966C126.687 12.7966 126.235 13.1508 125.928 13.8592Z" fill="#270A54"/>
<path d="M137.076 412.972H93.5391V416.865H137.076V412.972Z" fill="#D6D6D6"/>
<path d="M86.8564 412.972H29.9219V416.865H86.8564V412.972Z" fill="#D6D6D6"/>
<path d="M137.076 380.364H93.5391V384.257H137.076V380.364Z" fill="#D6D6D6"/>
<path d="M86.8564 380.364H29.9219V384.257H86.8564V380.364Z" fill="#D6D6D6"/>
<path d="M94.5948 396.668H29.9219V400.561H94.5948V396.668Z" fill="#D6D6D6"/>
<path d="M125.034 396.668H101.008V400.561H125.034V396.668Z" fill="#D6D6D6"/>
<path d="M125.032 428.771H60.3594V432.665H125.032V428.771Z" fill="#D6D6D6"/>
<path d="M53.9483 428.771H29.9219V432.665H53.9483V428.771Z" fill="#D6D6D6"/>
<path d="M51.6418 302.492H48.6662V292.097L37.6367 276.228H41.2472L50.1341 289.002L59.0211 276.228H62.6312L51.6416 292.097L51.6418 302.492Z" fill="#270A54"/>
<path d="M51.8605 302.71H48.4478V292.165L37.2188 276.009H41.3616L50.1344 288.619L58.9071 276.009H63.0488L51.8605 292.165V302.71ZM48.885 302.273H51.4232V292.029L51.4623 291.973L62.2142 276.446H59.1355L50.1342 289.385L41.133 276.446H38.0551L48.885 292.029V302.273Z" fill="#270A54"/>
<path d="M70.5657 282.337C73.5277 282.337 75.9347 283.329 77.7863 285.312C79.532 287.217 80.4048 289.637 80.4048 292.572C80.4048 295.509 79.532 297.929 77.7863 299.833C75.9347 301.817 73.5277 302.809 70.5657 302.809C67.6031 302.809 65.1961 301.817 63.345 299.833C61.5994 297.929 60.7266 295.509 60.7266 292.572C60.7266 289.637 61.5994 287.216 63.345 285.312C65.1961 283.329 67.6031 282.337 70.5657 282.337ZM70.5657 300.111C72.708 300.111 74.4004 299.371 75.644 297.889C76.8342 296.487 77.4294 294.715 77.4294 292.573C77.4294 290.43 76.8343 288.659 75.644 287.256C74.4005 285.775 72.708 285.035 70.5657 285.035C68.4234 285.035 66.7304 285.775 65.4873 287.256C64.2972 288.659 63.702 290.43 63.702 292.573C63.702 294.715 64.2971 296.487 65.4873 297.889C66.7304 299.371 68.4234 300.111 70.5657 300.111Z" fill="#270A54"/>
<path d="M70.5654 303.027C67.5536 303.027 65.0704 302.002 63.185 299.982C61.408 298.043 60.5078 295.551 60.5078 292.572C60.5078 289.594 61.408 287.102 63.1837 285.164C65.0707 283.143 67.5539 282.118 70.5656 282.118C73.5766 282.118 76.0598 283.143 77.9461 285.163C79.7231 287.101 80.6233 289.594 80.6233 292.572C80.6233 295.551 79.723 298.044 77.9474 299.981C76.0599 302.002 73.5767 303.027 70.5654 303.027ZM70.5654 282.555C67.6799 282.555 65.3043 283.533 63.5047 285.461C61.8067 287.314 60.945 289.707 60.945 292.572C60.945 295.438 61.8067 297.831 63.506 299.685C65.3041 301.612 67.6797 302.59 70.5654 302.59C73.4506 302.59 75.8262 301.612 77.6262 299.684C79.3242 297.832 80.1859 295.438 80.1859 292.572C80.1859 289.706 79.3242 287.313 77.6249 285.46C75.8262 283.533 73.4505 282.555 70.5654 282.555ZM70.5654 300.329C68.3649 300.329 66.6001 299.556 65.3197 298.029C64.1014 296.594 63.4832 294.758 63.4832 292.572C63.4832 290.387 64.1014 288.551 65.3205 287.115C66.6003 285.589 68.3653 284.816 70.5654 284.816C72.765 284.816 74.53 285.589 75.8112 287.115C77.0295 288.551 77.6477 290.387 77.6477 292.572C77.6477 294.758 77.0295 296.594 75.8104 298.03C74.5302 299.556 72.7654 300.329 70.5654 300.329ZM70.5654 285.253C68.5005 285.253 66.8484 285.974 65.6546 287.397C64.5036 288.753 63.9204 290.494 63.9204 292.572C63.9204 294.652 64.5036 296.393 65.6538 297.747C66.8479 299.171 68.5002 299.892 70.5653 299.892C72.6299 299.892 74.2822 299.171 75.4762 297.748C76.6272 296.393 77.2104 294.652 77.2104 292.572C77.2104 290.494 76.6272 288.753 75.477 287.398C74.2822 285.974 72.6299 285.253 70.5654 285.253Z" fill="#270A54"/>
<path d="M98.6572 302.492V299.397C97.9432 300.35 97.0704 301.157 96.0389 301.818C95.0072 302.479 93.8299 302.81 92.5077 302.81C91.1849 302.81 90.0479 302.624 89.0958 302.254C88.1436 301.884 87.3104 301.328 86.5964 300.588C84.9562 298.975 84.1367 296.845 84.1367 294.2V282.655H87.1123V294.121C87.1123 295.946 87.628 297.401 88.6596 298.485C89.691 299.57 91.0263 300.112 92.6665 300.112C94.3328 300.112 95.7475 299.556 96.9116 298.445C98.0752 297.308 98.6572 295.853 98.6572 294.081V282.655H101.633V302.492L98.6572 302.492Z" fill="#270A54"/>
<path d="M92.5077 303.028C91.1653 303.028 89.9907 302.836 89.0166 302.458C88.0391 302.077 87.1718 301.499 86.439 300.739C84.7675 299.096 83.918 296.894 83.918 294.2V282.437H87.3307V294.121C87.3307 295.879 87.8309 297.297 88.8177 298.334C89.801 299.369 91.096 299.893 92.6663 299.893C94.2662 299.893 95.6438 299.353 96.7605 298.287C97.8733 297.2 98.4384 295.784 98.4384 294.081V282.437H101.851V302.711H98.4384V300.02C97.7885 300.782 97.0232 301.447 96.1566 302.002C95.0947 302.683 93.8669 303.028 92.5077 303.028ZM84.3552 282.874V294.2C84.3552 296.772 85.1609 298.869 86.7497 300.432C87.4424 301.15 88.2569 301.693 89.175 302.05C90.0983 302.409 91.2196 302.591 92.5077 302.591C93.782 302.591 94.9303 302.269 95.9208 301.634C96.9252 300.99 97.787 300.194 98.4823 299.266L98.8757 298.742V302.273H101.414V282.874H98.8757V294.081C98.8757 295.906 98.2663 297.427 97.0643 298.602C95.8616 299.749 94.3827 300.33 92.6664 300.33C90.9716 300.33 89.5699 299.76 88.5011 298.635C87.4343 297.514 86.8935 295.995 86.8935 294.121V282.874L84.3552 282.874Z" fill="#270A54"/>
<path d="M117.263 282.337V285.312H116.906C114.764 285.312 113.018 286.172 111.669 287.891C110.399 289.532 109.765 291.489 109.765 293.763V302.491H106.789V282.654H109.765V287.534C110.4 285.471 111.774 283.95 113.891 282.971C114.764 282.549 115.821 282.337 117.065 282.337H117.263V282.337Z" fill="#270A54"/>
<path d="M109.983 302.71H106.57V282.436H109.983V286.378C110.745 284.804 112.024 283.594 113.799 282.773C114.695 282.339 115.794 282.118 117.064 282.118H117.481V285.531H116.906C114.844 285.531 113.14 286.37 111.841 288.026C110.608 289.618 109.983 291.549 109.983 293.763V302.71ZM107.007 302.272H109.546V293.763C109.546 291.45 110.202 289.429 111.496 287.757C112.883 285.989 114.703 285.093 116.906 285.093H117.044V282.555C115.849 282.558 114.82 282.764 113.986 283.168C111.935 284.117 110.586 285.607 109.973 287.598L109.546 288.987V282.873H107.007V302.272H107.007Z" fill="#270A54"/>
<path d="M132.538 276.228V299.635H146.86V302.492H129.562V276.228H132.538Z" fill="#270A54"/>
<path d="M147.079 302.71H129.344V276.009H132.757V299.416H147.079L147.079 302.71ZM129.781 302.273H146.642V299.853H132.319V276.446H129.781L129.781 302.273Z" fill="#270A54"/>
<path d="M153.167 275.435V279.323H149.953V275.435H153.167ZM150.072 282.655H153.048V302.492H150.072V282.655Z" fill="#270A54"/>
<path d="M153.266 302.711H149.853V282.437H153.266V302.711ZM150.291 302.273H152.829V282.874H150.291V302.273ZM153.385 279.541H149.734V275.216H153.385V279.541ZM150.172 279.104H152.948V275.653H150.172V279.104Z" fill="#270A54"/>
<path d="M166.734 277.219C165.331 277.219 164.28 277.53 163.579 278.151C162.878 278.773 162.528 279.772 162.528 281.147V282.655H167.13V285.273H162.528V302.491H159.553V285.273H156.141V282.655H159.553V280.909C159.553 278.74 160.2 277.114 161.497 276.029C162.792 274.945 164.591 274.402 166.892 274.402H167.13V277.219H166.734Z" fill="#270A54"/>
<path d="M162.747 302.71H159.334V285.491H155.922V282.436H159.334V280.909C159.334 278.683 160.014 276.985 161.356 275.861C162.686 274.748 164.549 274.184 166.892 274.184H167.349V277.438H166.733C165.393 277.438 164.381 277.733 163.724 278.315C163.075 278.89 162.747 279.843 162.747 281.147V282.436H167.349V285.491H162.747L162.747 302.71ZM159.771 302.273H162.31V285.054H166.912V282.873H162.31V281.147C162.31 279.713 162.688 278.65 163.434 277.988C164.173 277.333 165.283 277 166.734 277H166.912L166.892 274.621C164.654 274.621 162.886 275.151 161.637 276.196C160.399 277.233 159.771 278.818 159.771 280.909V282.873H156.359V285.054H159.771V302.273Z" fill="#270A54"/>
<path d="M178.835 300.111C181.506 300.111 183.424 299 184.588 296.778H187.841C187.153 298.577 186.062 300.031 184.568 301.142C183.073 302.253 181.149 302.809 178.795 302.809C175.806 302.809 173.373 301.817 171.495 299.833C169.67 297.903 168.758 295.482 168.758 292.572C168.758 289.637 169.631 287.216 171.376 285.312C173.227 283.329 175.634 282.337 178.597 282.337C181.559 282.337 183.966 283.329 185.818 285.312C187.563 287.217 188.436 289.637 188.436 292.572V293.763H171.813C172.024 295.588 172.751 297.096 173.995 298.285C175.265 299.503 176.877 300.111 178.835 300.111ZM178.597 285.035C176.772 285.035 175.238 285.604 173.995 286.741C172.831 287.826 172.117 289.24 171.852 290.986H185.342C185.077 289.24 184.363 287.826 183.199 286.741C181.956 285.604 180.422 285.035 178.597 285.035Z" fill="#270A54"/>
<path d="M178.795 303.027C175.758 303.027 173.248 302.003 171.336 299.983C169.48 298.02 168.539 295.527 168.539 292.572C168.539 289.594 169.439 287.102 171.215 285.164C173.102 283.143 175.585 282.118 178.597 282.118C181.608 282.118 184.091 283.143 185.977 285.163C187.754 287.101 188.654 289.594 188.654 292.572V293.981H172.061C172.301 295.639 173.002 297.033 174.146 298.128C175.367 299.299 176.945 299.892 178.835 299.892C181.442 299.892 183.26 298.84 184.394 296.676L184.455 296.559H188.159L188.045 296.856C187.345 298.685 186.219 300.186 184.698 301.317C183.172 302.452 181.186 303.027 178.795 303.027ZM178.597 282.555C175.711 282.555 173.336 283.533 171.536 285.461C169.838 287.314 168.976 289.707 168.976 292.572C168.976 295.411 169.877 297.803 171.654 299.683C173.48 301.612 175.883 302.59 178.795 302.59C181.09 302.59 182.988 302.044 184.437 300.967C185.808 299.948 186.843 298.613 187.518 296.997H184.718C183.513 299.208 181.534 300.329 178.835 300.329C176.828 300.329 175.149 299.695 173.843 298.443C172.568 297.223 171.812 295.657 171.596 293.788L171.567 293.544H188.217V292.573C188.217 289.707 187.356 287.313 185.656 285.46C183.857 283.533 181.482 282.555 178.597 282.555ZM185.595 291.204H171.598L171.636 290.953C171.906 289.166 172.65 287.695 173.845 286.58C175.126 285.409 176.724 284.816 178.597 284.816C180.469 284.816 182.067 285.409 183.346 286.579C184.543 287.695 185.286 289.166 185.557 290.953L185.595 291.204ZM172.11 290.767H185.083C184.798 289.193 184.115 287.894 183.05 286.9C181.855 285.808 180.356 285.253 178.597 285.253C176.837 285.253 175.338 285.808 174.142 286.902C173.078 287.893 172.395 289.193 172.11 290.767Z" fill="#270A54"/>
<path d="M70.6073 310.186V313.283H68.0469V310.186H70.6073ZM68.1416 315.938H70.5124V331.743H68.1416V315.938Z" fill="#FF3D3D"/>
<path d="M71.0284 332.261H67.622V315.421H71.0284V332.261ZM68.6576 331.226H69.9928V316.457H68.6576V331.226ZM71.1233 313.801H67.5273V309.668H71.1233V313.801ZM68.563 312.766H70.0878V310.704H68.563V312.766Z" fill="#FF3D3D"/>
<path d="M76.992 315.938V318.404C77.561 317.645 78.2563 317.003 79.0781 316.476C79.9 315.949 80.8373 315.686 81.8915 315.686C82.945 315.686 83.8512 315.833 84.6098 316.128C85.3685 316.424 86.0323 316.866 86.6011 317.456C87.9074 318.741 88.5608 320.438 88.5608 322.545V331.743H86.1901V322.608C86.1901 321.154 85.7793 319.995 84.9574 319.131C84.1355 318.267 83.0713 317.835 81.7647 317.835C80.4374 317.835 79.3097 318.278 78.3827 319.163C77.4552 320.069 76.9919 321.228 76.9919 322.64V331.743H74.6211V315.939L76.992 315.938Z" fill="#FF3D3D"/>
<path d="M89.0768 332.261H85.6706V322.608C85.6706 321.28 85.3141 320.259 84.5804 319.488C83.8541 318.724 82.9325 318.353 81.763 318.353C80.5626 318.353 79.5731 318.741 78.7385 319.537C77.9117 320.345 77.508 321.361 77.508 322.64V332.261H74.1016V315.421H77.508V317.048C77.9002 316.676 78.3307 316.339 78.7968 316.04C79.7002 315.461 80.7408 315.168 81.8896 315.168C83.0026 315.168 83.9805 315.329 84.7955 315.646C85.6211 315.967 86.3533 316.455 86.9718 317.096C88.3654 318.467 89.0767 320.304 89.0767 322.545L89.0768 332.261ZM86.7061 331.226H88.0412V322.545C88.0412 320.564 87.4507 319.02 86.2362 317.825C85.7127 317.283 85.1049 316.877 84.4201 316.611C83.7251 316.34 82.8737 316.204 81.8896 316.204C80.9422 316.204 80.0894 316.442 79.3555 316.912C78.5898 317.403 77.9333 318.01 77.4045 318.715L76.4725 319.957V316.456H75.1373V331.225H76.4725V322.64C76.4725 321.089 76.993 319.795 78.0193 318.793C79.0457 317.812 80.304 317.318 81.7631 317.318C83.211 317.318 84.4113 317.808 85.3308 318.774C86.2435 319.734 86.7063 321.024 86.7063 322.608L86.7061 331.226Z" fill="#FF3D3D"/>
<path d="M108.314 331.743H105.944V323.461L97.1562 310.817H100.033L107.113 320.996L114.194 310.817H117.07L108.314 323.461V331.743Z" fill="#FF3D3D"/>
<path d="M108.83 332.261H105.424V323.624L96.1641 310.3H100.301L107.111 320.089L113.921 310.3H118.056L108.83 323.623V332.261ZM106.46 331.225H107.795V323.3L116.08 311.336H114.462L107.111 321.903L99.7604 311.336H98.1448L106.46 323.299V331.225Z" fill="#FF3D3D"/>
<path d="M123.394 315.686C125.753 315.686 127.671 316.476 129.147 318.056C130.537 319.573 131.233 321.502 131.233 323.841C131.233 326.18 130.537 328.108 129.147 329.625C127.671 331.206 125.753 331.996 123.394 331.996C121.033 331.996 119.116 331.206 117.641 329.625C116.25 328.108 115.555 326.18 115.555 323.841C115.555 321.502 116.25 319.573 117.641 318.056C119.116 316.476 121.033 315.686 123.394 315.686ZM123.394 329.846C125.101 329.846 126.449 329.257 127.44 328.077C128.388 326.96 128.862 325.548 128.862 323.841C128.862 322.134 128.388 320.722 127.44 319.605C126.449 318.425 125.101 317.835 123.394 317.835C121.687 317.835 120.338 318.425 119.348 319.605C118.399 320.722 117.925 322.134 117.925 323.841C117.925 325.547 118.399 326.96 119.348 328.077C120.338 329.257 121.687 329.846 123.394 329.846Z" fill="#FF3D3D"/>
<path d="M123.392 332.514C120.893 332.514 118.83 331.661 117.261 329.979C115.783 328.367 115.035 326.303 115.035 323.841C115.035 321.379 115.783 319.315 117.257 317.707C118.831 316.021 120.893 315.168 123.392 315.168C125.89 315.168 127.953 316.021 129.523 317.703C131.001 319.315 131.749 321.379 131.749 323.841C131.749 326.303 131.001 328.367 129.527 329.975C127.953 331.661 125.89 332.514 123.392 332.514ZM123.392 316.204C121.161 316.204 119.403 316.925 118.017 318.41C116.727 319.818 116.071 321.646 116.071 323.841C116.071 326.036 116.727 327.864 118.021 329.276C119.403 330.757 121.161 331.478 123.392 331.478C125.623 331.478 127.381 330.757 128.766 329.272C130.057 327.864 130.713 326.035 130.713 323.841C130.713 321.646 130.057 319.818 128.763 318.406C127.38 316.925 125.622 316.204 123.392 316.204ZM123.392 330.364C121.532 330.364 120.038 329.707 118.949 328.409C117.926 327.204 117.406 325.666 117.406 323.841C117.406 322.016 117.926 320.478 118.951 319.271C120.038 317.975 121.533 317.318 123.392 317.318C125.251 317.318 126.745 317.975 127.834 319.272C128.858 320.478 129.378 322.016 129.378 323.841C129.378 325.666 128.858 327.204 127.832 328.412C126.745 329.707 125.251 330.364 123.392 330.364ZM123.392 318.353C121.831 318.353 120.638 318.872 119.743 319.938C118.878 320.956 118.441 322.268 118.441 323.841C118.441 325.414 118.878 326.726 119.741 327.742C120.637 328.811 121.831 329.329 123.392 329.329C124.952 329.329 126.146 328.811 127.041 327.744C127.905 326.726 128.342 325.414 128.342 323.841C128.342 322.268 127.905 320.956 127.043 319.941C126.146 318.872 124.952 318.353 123.392 318.353Z" fill="#FF3D3D"/>
<path d="M145.772 331.743V329.278C145.203 330.036 144.508 330.68 143.686 331.206C142.864 331.733 141.926 331.996 140.873 331.996C139.819 331.996 138.913 331.849 138.154 331.554C137.396 331.259 136.732 330.816 136.163 330.226C134.856 328.941 134.203 327.245 134.203 325.137V315.939H136.574V325.074C136.574 326.528 136.985 327.687 137.807 328.551C138.629 329.415 139.692 329.846 140.999 329.846C142.327 329.846 143.454 329.404 144.381 328.519C145.308 327.613 145.772 326.454 145.772 325.042V315.938H148.143V331.743H145.772V331.743Z" fill="#FF3D3D"/>
<path d="M140.871 332.514C139.758 332.514 138.78 332.353 137.965 332.036C137.139 331.716 136.407 331.228 135.788 330.585C134.395 329.216 133.684 327.379 133.684 325.137V315.421H137.09V325.074C137.09 326.402 137.446 327.423 138.18 328.194C138.906 328.958 139.828 329.329 140.997 329.329C142.198 329.329 143.187 328.941 144.022 328.145C144.848 327.337 145.252 326.321 145.252 325.042V315.421H148.659V332.261H145.252V330.634C144.86 331.007 144.429 331.343 143.963 331.642C143.061 332.221 142.021 332.514 140.871 332.514ZM134.719 316.457V325.137C134.719 327.119 135.31 328.663 136.524 329.857C137.048 330.4 137.655 330.805 138.34 331.071C139.035 331.342 139.887 331.478 140.871 331.478C141.819 331.478 142.672 331.241 143.405 330.771C144.17 330.28 144.827 329.673 145.356 328.967L146.288 327.725V331.226H147.623V316.457H146.288V325.042C146.288 326.592 145.768 327.887 144.741 328.89C143.715 329.87 142.456 330.365 140.997 330.365C139.549 330.365 138.349 329.875 137.43 328.908C136.517 327.949 136.054 326.659 136.054 325.074V316.457L134.719 316.457Z" fill="#FF3D3D"/>
<path d="M160.595 315.686V318.056H160.31C158.603 318.056 157.213 318.741 156.138 320.111C155.127 321.418 154.621 322.977 154.621 324.789V331.743H152.25V315.939H154.621V319.827C155.127 318.183 156.222 316.971 157.908 316.191C158.603 315.854 159.446 315.686 160.437 315.686L160.595 315.686Z" fill="#FF3D3D"/>
<path d="M155.137 332.261H151.73V315.421H155.137V317.697C155.771 316.875 156.624 316.215 157.689 315.721C158.444 315.356 159.371 315.168 160.435 315.168H161.111V318.574H160.309C158.755 318.574 157.524 319.181 156.543 320.431C155.611 321.635 155.137 323.103 155.137 324.789L155.137 332.261ZM152.766 331.225H154.101V324.789C154.101 322.868 154.648 321.187 155.727 319.794C156.852 318.36 158.314 317.604 160.075 317.543V316.212C159.322 316.247 158.67 316.397 158.132 316.657C156.563 317.383 155.578 318.469 155.114 319.979L154.101 323.271V316.456H152.766L152.766 331.225Z" fill="#FF3D3D"/>
<path d="M97.1691 360.995H94.5455L91.9851 354.926H81.6173L79.057 360.995H76.4336L85.3159 340.069H88.287L97.1691 360.995ZM91.0685 352.745L86.8014 342.535L82.5342 352.745H91.0685Z" fill="#FF3D3D"/>
<path d="M97.9523 361.513H94.2029L91.6425 355.444H81.9618L79.4015 361.513H75.6523L84.9741 339.552H88.6307L97.9523 361.513ZM94.8899 360.477H96.3879L87.9451 340.587H85.6594L77.2166 360.477H78.7143L81.2746 354.408H92.3294L94.8899 360.477ZM91.847 353.263H81.7577L86.8024 341.193L91.847 353.263ZM83.3126 352.227H90.292L86.8023 343.877L83.3126 352.227Z" fill="#FF3D3D"/>
<path d="M107.665 344.938V347.308H107.381C105.674 347.308 104.283 347.993 103.208 349.363C102.197 350.67 101.691 352.229 101.691 354.041V360.995H99.3203V345.19H101.691V349.078C102.197 347.435 103.292 346.223 104.978 345.443C105.674 345.106 106.516 344.938 107.507 344.938H107.665Z" fill="#FF3D3D"/>
<path d="M102.207 361.513H98.8008V344.673H102.207V346.949C102.841 346.127 103.694 345.466 104.759 344.973C105.514 344.608 106.441 344.42 107.506 344.42H108.181V347.826H107.379C105.826 347.826 104.594 348.434 103.614 349.683C102.681 350.888 102.207 352.355 102.207 354.041V361.513ZM99.8363 360.477H101.171V354.041C101.171 352.12 101.718 350.439 102.797 349.046C103.923 347.611 105.384 346.856 107.145 346.795V345.464C106.392 345.499 105.74 345.649 105.202 345.909C103.633 346.635 102.649 347.721 102.184 349.231L101.172 352.523V345.708H99.8364L99.8363 360.477Z" fill="#FF3D3D"/>
<path d="M112.597 347.593C113.651 345.823 115.252 344.938 117.402 344.938C118.455 344.938 119.43 345.217 120.326 345.775C121.221 346.334 121.922 347.119 122.428 348.13C123.144 346.802 124.261 345.854 125.778 345.285C126.389 345.054 127.079 344.938 127.849 344.938C128.618 344.938 129.355 345.091 130.061 345.396C130.767 345.702 131.394 346.139 131.942 346.708C133.122 347.972 133.712 349.553 133.712 351.449V360.995H131.341V351.512C131.341 350.206 130.972 349.131 130.235 348.288C129.497 347.487 128.56 347.087 127.422 347.087C126.221 347.087 125.22 347.477 124.419 348.256C123.576 349.057 123.155 350.153 123.155 351.544V360.995H120.784V351.512C120.784 350.206 120.415 349.131 119.678 348.288C118.94 347.487 118.002 347.087 116.865 347.087C115.663 347.087 114.662 347.477 113.862 348.256C113.019 349.057 112.597 350.153 112.597 351.544V360.995H110.227V345.19H112.597L112.597 347.593Z" fill="#FF3D3D"/>
<path d="M134.228 361.513H130.822V351.512C130.822 350.325 130.502 349.382 129.844 348.629C129.211 347.944 128.416 347.605 127.42 347.605C126.349 347.605 125.485 347.94 124.779 348.628C124.032 349.338 123.671 350.29 123.671 351.544V361.513H120.265V351.512C120.265 350.325 119.945 349.382 119.286 348.629C118.654 347.944 117.858 347.605 116.863 347.605C115.792 347.605 114.928 347.94 114.221 348.628C113.474 349.337 113.113 350.29 113.113 351.544V361.513H109.707V344.673H113.113V346.073C114.206 344.975 115.642 344.42 117.4 344.42C118.546 344.42 119.622 344.728 120.598 345.336C121.331 345.794 121.949 346.395 122.444 347.132C123.208 346.082 124.264 345.3 125.595 344.801C126.26 344.548 127.018 344.42 127.847 344.42C128.682 344.42 129.496 344.589 130.265 344.921C131.031 345.253 131.72 345.733 132.313 346.349C133.586 347.712 134.228 349.427 134.228 351.449V361.513ZM131.857 360.477H133.192V351.449C133.192 349.673 132.659 348.237 131.562 347.061C131.07 346.551 130.493 346.148 129.854 345.871C129.215 345.595 128.54 345.456 127.847 345.456C127.144 345.456 126.51 345.561 125.96 345.77C124.549 346.299 123.542 347.151 122.882 348.376L122.409 349.253L121.963 348.362C121.503 347.442 120.859 346.72 120.05 346.214C119.241 345.711 118.35 345.456 117.4 345.456C115.429 345.456 114.003 346.241 113.041 347.858L112.078 349.475V345.708H110.743V360.477H112.078V351.544C112.078 350.012 112.557 348.78 113.503 347.882C114.396 347.012 115.528 346.569 116.863 346.569C118.146 346.569 119.22 347.03 120.057 347.937C120.885 348.884 121.3 350.084 121.3 351.512V360.477H122.635V351.544C122.635 350.012 123.115 348.78 124.061 347.882C124.953 347.012 126.085 346.569 127.42 346.569C128.703 346.569 129.778 347.03 130.614 347.937C131.442 348.884 131.858 350.084 131.858 351.512V360.477H131.857Z" fill="#FF3D3D"/>
<path d="M146.954 349.426C146.743 347.782 145.421 346.96 142.987 346.96C140.553 346.96 139.336 347.719 139.336 349.236C139.336 349.868 139.594 350.348 140.111 350.674C140.627 351.001 141.275 351.27 142.055 351.48C142.834 351.691 143.683 351.886 144.599 352.065C145.516 352.245 146.364 352.497 147.144 352.824C147.923 353.151 148.571 353.598 149.088 354.167C149.604 354.736 149.862 355.516 149.862 356.506C149.862 358.045 149.282 359.22 148.123 360.031C146.964 360.842 145.394 361.248 143.414 361.248C141.306 361.248 139.631 360.721 138.388 359.667C137.25 358.74 136.639 357.529 136.555 356.032H139.02C139.167 357.486 139.989 358.466 141.486 358.972C142.033 359.14 142.576 359.225 143.113 359.225C143.651 359.225 144.151 359.193 144.615 359.13C145.078 359.066 145.532 358.951 145.974 358.782C146.986 358.382 147.492 357.697 147.492 356.728C147.492 356.074 147.233 355.574 146.717 355.226C146.2 354.879 145.552 354.594 144.773 354.373C143.993 354.152 143.145 353.952 142.228 353.772C141.312 353.593 140.463 353.345 139.684 353.029C138.904 352.713 138.256 352.281 137.74 351.733C137.223 351.186 136.966 350.427 136.966 349.457C136.966 348.025 137.487 346.913 138.53 346.123C139.573 345.332 141.117 344.938 143.161 344.938C145.1 344.938 146.627 345.401 147.744 346.328C148.671 347.108 149.209 348.141 149.356 349.426H146.954Z" fill="#FF3D3D"/>
<path d="M143.414 361.766C141.19 361.766 139.387 361.193 138.054 360.063C136.811 359.05 136.13 357.702 136.038 356.062L136.008 355.515H139.489L139.536 355.981C139.662 357.225 140.354 358.043 141.652 358.482C142.642 358.787 143.692 358.734 144.546 358.618C144.969 358.559 145.388 358.452 145.79 358.299C146.596 357.98 146.974 357.48 146.974 356.728C146.974 356.248 146.801 355.907 146.428 355.656C145.96 355.341 145.356 355.077 144.632 354.871C143.872 354.656 143.03 354.457 142.129 354.28C141.185 354.096 140.297 353.837 139.49 353.509C138.644 353.167 137.928 352.689 137.363 352.088C136.756 351.445 136.448 350.56 136.448 349.458C136.448 347.861 137.044 346.6 138.218 345.71C139.348 344.854 141.011 344.42 143.161 344.42C145.214 344.42 146.868 344.928 148.075 345.93C149.105 346.796 149.708 347.952 149.871 349.367L149.937 349.944H146.499L146.441 349.492C146.377 348.994 146.182 347.478 142.988 347.478C139.854 347.478 139.854 348.755 139.854 349.236C139.854 349.689 140.024 350.007 140.387 350.237C140.858 350.535 141.464 350.785 142.19 350.981C142.955 351.188 143.799 351.382 144.699 351.557C145.646 351.743 146.536 352.008 147.344 352.347C148.191 352.702 148.906 353.197 149.471 353.819C150.074 354.484 150.38 355.388 150.38 356.507C150.38 358.217 149.721 359.545 148.421 360.455C147.179 361.325 145.495 361.766 143.414 361.766ZM137.13 356.55C137.306 357.651 137.828 358.543 138.715 359.266C139.864 360.24 141.443 360.73 143.414 360.73C145.278 360.73 146.763 360.352 147.827 359.607C148.849 358.892 149.345 357.878 149.345 356.507C149.345 355.642 149.135 354.99 148.705 354.516C148.242 354.006 147.65 353.598 146.944 353.302C146.201 352.991 145.379 352.746 144.5 352.574C143.577 352.394 142.709 352.194 141.92 351.981C141.094 351.758 140.392 351.466 139.834 351.112C139.17 350.693 138.819 350.044 138.819 349.237C138.819 347.962 139.542 346.443 142.988 346.443C146.003 346.443 147.063 347.696 147.381 348.909H148.744C148.537 348.02 148.099 347.302 147.412 346.725C146.398 345.883 144.967 345.456 143.162 345.456C141.243 345.456 139.79 345.819 138.844 346.536C137.929 347.229 137.484 348.185 137.484 349.458C137.484 350.299 137.691 350.927 138.117 351.378C138.58 351.869 139.172 352.264 139.879 352.55C140.625 352.853 141.449 353.093 142.328 353.264C143.257 353.446 144.128 353.652 144.915 353.875C145.744 354.111 146.448 354.421 147.007 354.797C147.663 355.239 148.01 355.907 148.01 356.728C148.01 357.552 147.69 358.661 146.165 359.264C145.684 359.448 145.188 359.575 144.686 359.643C143.69 359.779 142.491 359.824 141.334 359.467C139.786 358.944 138.863 357.965 138.576 356.551H137.13V356.55Z" fill="#FF3D3D"/>
<mask id="mask0_630_7247" style="mask-type:luminance" maskUnits="userSpaceOnUse" x="10" y="54" width="208" height="207">
<path d="M114.227 260.667C171.244 260.667 217.465 214.446 217.465 157.429C217.465 100.412 171.244 54.1904 114.227 54.1904C57.2096 54.1904 10.9883 100.412 10.9883 157.429C10.9883 214.446 57.2096 260.667 114.227 260.667Z" fill="white"/>
</mask>
<g mask="url(#mask0_630_7247)">
<path d="M220.623 48.001H7.95703V260.667H220.623V48.001Z" fill="#C2E8FF"/>
<g opacity="0.4">
<path d="M220.623 67.8773C215.667 65.7006 208.61 64.3379 200.773 64.3379C185.779 64.3379 173.623 69.3197 173.623 75.465C173.623 76.1473 173.781 76.8142 174.068 77.4626C165.987 77.6456 158.83 78.7347 153.916 80.3659C151.103 78.9562 147.072 78.0723 142.593 78.0723C134.089 78.0723 127.195 81.2556 127.195 85.1823C127.195 89.109 134.089 92.2923 142.593 92.2923C146.526 92.2923 150.113 91.6103 152.834 90.4898C158.198 92.5001 166.795 93.8034 176.488 93.8034C183.561 93.8034 190.05 93.1091 195.126 91.953C199.871 93.0887 206.749 93.8034 214.403 93.8034C216.548 93.8034 218.63 93.7463 220.623 93.6406V67.8773Z" fill="white"/>
</g>
<g opacity="0.4">
<path d="M155.296 167.77C148.18 167.77 141.777 169.97 137.307 173.48C129.502 169.419 118.135 166.703 105.301 166.246C105.755 164.634 105.994 162.973 105.994 161.276C105.994 145.972 86.6812 133.565 62.8577 133.565C39.0342 133.565 19.7214 145.972 19.7214 161.276C19.7214 164.08 20.372 166.786 21.5773 169.337C16.7701 170.149 12.1314 171.308 7.95703 172.873V205.932C17.763 207.324 30.1442 206.946 41.2012 206.946C53.3624 206.946 64.2911 205.167 71.8302 202.339C79.8945 205.218 90.2051 206.946 101.443 206.946C116.843 206.946 130.503 203.701 139.025 198.695C143.349 201.485 149.047 203.183 155.296 203.183C168.807 203.183 179.76 195.255 179.76 185.476C179.76 175.697 168.807 167.77 155.296 167.77Z" fill="white"/>
</g>
<path d="M122.885 227.234H62.8594V260.667H122.885V227.234Z" fill="#95B0C6"/>
<path d="M27.8131 203.183H7.95703V260.667H27.8131V203.183Z" fill="#95B0C6"/>
<path d="M220.624 249.484H111.262V252.09H220.624V249.484Z" fill="#ABC6D8"/>
<path d="M220.625 238.934H186.844V249.484H220.625V238.934Z" fill="#ABC6D8"/>
<path d="M205.491 232.153H193.625V238.934H205.491V232.153Z" fill="#ABC6D8"/>
<path d="M220.624 252.09H116.32V260.666H220.624V252.09Z" fill="#ABC6D8"/>
<path d="M220.624 256.378L116.32 253.389V252.09H220.624V256.378Z" fill="#95B0C6"/>
<path d="M220.624 251.87H111.262V252.311H220.624V251.87Z" fill="#6B83AA"/>
<path d="M208.577 238.714H186.844V239.154H208.577V238.714Z" fill="#6B83AA"/>
<path d="M200.131 232.153H198.984V195.451C198.984 195.136 199.24 194.881 199.555 194.881H199.56C199.875 194.881 200.131 195.136 200.131 195.451V232.153Z" fill="#ABC6D8"/>
<path d="M200.817 219.613H198.293V232.102H200.817V219.613Z" fill="#ABC6D8"/>
<path d="M201.929 227.234H197.184V232.153H201.929V227.234Z" fill="#ABC6D8"/>
<path d="M198.985 249.264H170.5V249.704H198.985V249.264Z" fill="#6B83AA"/>
<path d="M156.25 97.1079L159.944 90.3013L166.64 87.6387C168.511 92.6142 169.557 97.0226 168.869 100.394C168.652 101.454 167.711 102.214 166.629 102.251L159.484 102.7L156.25 97.1079Z" fill="#A04E4E"/>
<path d="M157.089 95.1689L140.181 105.31C140.181 105.31 130.096 102.433 122.406 102.104L119.203 116.666C127.436 116.962 136.517 116.984 143.788 115.92L159.483 102.7L157.089 95.1689Z" fill="#A04E4E"/>
<path d="M133.629 116.754L136.501 113.642C139.342 113.642 141.153 113.133 143.154 112.487C145.709 111.661 146.103 110.389 145.484 108.79L149.946 108.416L159.482 102.7C153.935 107.959 148.574 112.715 143.787 115.921C140.307 116.388 136.918 116.673 133.629 116.754Z" fill="#843838"/>
<path d="M137.159 105.081C139.102 107.024 139.342 112.581 138.535 114.385L134.906 114.69L137.159 105.081Z" fill="#843838"/>
<path d="M166.832 260.666H160.73V65.3251C160.73 63.6489 162.089 62.29 163.765 62.29H163.797C165.473 62.29 166.832 63.6489 166.832 65.3251V260.666Z" fill="#BCB8C4"/>
<path d="M167.12 65.3252H166.547V187.441H167.12V65.3252Z" fill="white"/>
<path d="M160.73 260.666V65.3251C160.73 63.6489 162.089 62.29 163.765 62.29C160.73 68.7165 160.73 183.5 166.832 187.441V202.797L160.73 260.666Z" fill="#A19FAA"/>
<path d="M161.039 90.5541L166.831 89.0293V103.919C164.725 103.434 162.87 102.268 161.452 99.9208L161.039 90.5541Z" fill="#A19FAA"/>
<path d="M163.781 89.0297L165.832 99.487C167.068 99.5662 169.026 99.5855 168.828 98.3633L167.954 88.3212C167.855 87.7102 167.195 87.3678 166.638 87.6388L163.781 89.0297Z" fill="#A04E4E"/>
<path d="M163.78 89.0293C161.451 89.8692 161.203 92.0866 163.121 92.6361C161.62 93.249 162.531 95.1085 163.887 94.8053C162.231 95.4907 163.09 97.745 164.61 97.3587C162.783 97.9547 163.471 99.4865 165.831 99.4865L166.47 98.135L165.673 96.9119L165.882 95.836L165.522 94.4297L165.322 92.1741L163.78 89.0293Z" fill="#A04E4E"/>
<path d="M160.733 97.8425C162.161 96.3024 162.15 93.2374 162.035 91.5643C162.035 91.5643 164.597 90.5339 165.617 89.0098C166.179 88.1701 165.473 86.7256 165.473 86.7256L159.483 89.6561L156.25 97.1073C156.758 98.7196 158.673 98.1168 160.733 97.8425Z" fill="#A04E4E"/>
<path d="M161.668 96.5926L161.238 96.2146C161.928 95.4304 162.164 93.3318 161.755 91.632L161.697 91.3917L161.926 91.2992C161.951 91.2893 164.42 90.2827 165.378 88.8514C165.763 88.2748 165.391 87.2124 165.214 86.8518L165.729 86.6006C165.761 86.6655 166.5 88.2043 165.854 89.1697C164.966 90.4956 163.027 91.4401 162.364 91.7348C162.703 93.3967 162.545 95.5956 161.668 96.5926Z" fill="#5E1F1F"/>
<path d="M168.071 101.707C168.689 101.248 169.453 99.9664 169.453 98.1286L168.849 96.6495L169.36 95.0743L168.849 93.7685L169.453 92.343L168.254 90.6328L168.849 89.0293C168.849 88.0317 167.666 87.5443 167.055 87.5459L167.559 92.9789L168.071 101.707Z" fill="#A04E4E"/>
<path d="M168.83 96.3574L164.594 97.0674L164.688 97.6322L168.924 96.9223L168.83 96.3574Z" fill="#5E1F1F"/>
<path d="M168.775 93.4938L163.57 94.5635L163.686 95.1244L168.89 94.0548L168.775 93.4938Z" fill="#5E1F1F"/>
<path d="M168.127 90.3636L162.996 92.3662L163.204 92.8996L168.335 90.8969L168.127 90.3636Z" fill="#5E1F1F"/>
<path d="M146.012 109.958C144.606 107.829 142.335 106.28 139.262 105.355L139.427 104.807C142.632 105.772 145.008 107.399 146.489 109.642L146.012 109.958Z" fill="#5E1F1F"/>
<path d="M166.431 99.7682C165.941 99.7682 165.476 99.7122 165.059 99.6452L165.15 99.08C166.167 99.2434 167.491 99.337 168.692 98.6025L168.991 99.0907C168.139 99.6119 167.25 99.7682 166.431 99.7682Z" fill="#5E1F1F"/>
<path d="M170.502 193.925H157.066V260.396H170.502V193.925Z" fill="#BCB8C4"/>
<path d="M163.141 193.925C162.525 197.008 161.995 199.559 159.8 201.511C157.833 222.57 161.202 231.791 170.502 229.39V236.744H157.066V193.925L163.141 193.925Z" fill="#A19FAA"/>
<path d="M170.502 193.639H157.066V194.211H170.502V193.639Z" fill="#595268"/>
<path d="M176.411 234.489H151.156V260.667H176.411V234.489Z" fill="#BCB8C4"/>
<path d="M170.788 193.925H170.215V229.389H170.788V193.925Z" fill="white"/>
<path d="M176.698 234.489H176.125V260.667H176.698V234.489Z" fill="white"/>
<path d="M163.784 234.489C162.76 238.518 161.174 242.483 157.581 246.409L159.056 260.667H151.156V234.489H163.784Z" fill="#A19FAA"/>
<path d="M176.411 234.203H151.156V234.776H176.411V234.203Z" fill="#595268"/>
<path d="M156.244 237.814H154.691L153.914 239.159L154.691 240.504H156.244L157.02 239.159L156.244 237.814Z" fill="#595666"/>
<path d="M164.56 237.814H163.007L162.23 239.159L163.007 240.504H164.56L165.337 239.159L164.56 237.814Z" fill="#827D8C"/>
<path d="M172.83 237.814H171.277L170.5 239.159L171.277 240.504H172.83L173.606 239.159L172.83 237.814Z" fill="#827D8C"/>
<path d="M167.611 195.464H166.058L165.281 196.809L166.058 198.154H167.611L168.387 196.809L167.611 195.464Z" fill="#827D8C"/>
<path d="M162.017 195.464H160.464L159.688 196.809L160.464 198.154H162.017L162.794 196.809L162.017 195.464Z" fill="#827D8C"/>
<path d="M141.281 194.288L142.408 191.492L141.976 186.664L150.636 186.865L150.576 192.353L151.781 192.917L145.144 197.317C143.219 197.081 141.414 196.697 141.281 194.288Z" fill="#A04E4E"/>
<path d="M145.303 195.889C150.372 195.385 150.245 192.362 150.245 192.362C151.748 192.279 153.092 192.647 154.583 193.186C154.583 193.186 157.505 189.83 159.384 187.966C161.152 186.211 163.717 189.431 163.717 189.431C162.273 194.979 159.213 199.17 155.646 201.886C151.434 205.092 142.922 205.929 137.434 201.536C138.155 198.469 139.226 195.807 141.28 194.289C141.28 194.289 142.206 196.198 145.303 195.889Z" fill="#270A54"/>
<path d="M138.179 198.95C147.05 205.018 147.421 200.589 150.709 200.98C159.164 201.986 160.994 194.382 163.072 188.74C163.342 188.462 163.869 188.635 163.718 189.43C162.367 194.797 160.822 200.629 153.027 204.187C153.027 204.187 146.302 206.427 141.86 204.82C138.383 203.562 136.684 201.637 136.684 201.637C137.11 200.459 137.531 199.192 138.179 198.95Z" fill="white"/>
<path d="M145.712 205.692C144.352 205.692 142.979 205.53 141.762 205.09C138.257 203.821 136.54 201.908 136.469 201.827L136.898 201.448C136.914 201.467 138.599 203.336 141.957 204.551C146.255 206.107 152.87 203.939 152.936 203.917L153.117 204.46C152.914 204.527 149.36 205.692 145.712 205.692Z" fill="#270A54"/>
<path d="M140.906 180.274C144.719 182.011 147.736 182.011 150.996 180.828L150.634 186.865C148.882 188.616 144.129 188.198 141.974 186.664L140.906 180.274Z" fill="#9692A0"/>
<path d="M152.603 192.583C151.596 191.987 151.245 190.201 150.208 190.935C148.887 191.87 150.183 193.527 147.316 195.49C150.355 195.889 152.183 194.991 152.603 192.583Z" fill="#270A54"/>
<path d="M153.144 204.448L152.906 203.927C160.665 200.385 162.138 194.528 163.438 189.36L163.993 189.5C162.662 194.793 161.153 200.792 153.144 204.448Z" fill="#270A54"/>
<path d="M153.418 155.827C153.387 151.135 152.828 146.239 150.946 144.444C143.924 137.746 114.8 147.228 114.8 147.228L99.1094 157.945L120.653 171.606L133.692 165.866L136.798 165.353L138.807 163.614C138.836 164.2 138.356 166.374 138.403 167.007C138.475 167.978 139.128 167.429 139.197 168.462C139.491 172.911 138.879 178.245 140.909 180.274C142.094 182.214 149.116 182.71 150.998 180.828C153.449 179.128 153.524 171.708 153.418 155.827Z" fill="#827D8C"/>
<path d="M120.652 171.606L133.692 165.866L136.798 165.353L138.807 163.614C138.836 164.2 138.356 166.374 138.402 167.007C138.474 167.978 139.128 167.429 139.196 168.462C139.49 172.911 138.878 178.245 140.908 180.274L141.281 165.264H140.276L140.908 160.237L136.735 163.428L132.71 162.031L122.884 167.492L114.832 167.915L120.652 171.606Z" fill="#726D7C"/>
<path d="M145.74 159.265L138.68 163.378L138.968 163.873L146.028 159.76L145.74 159.265Z" fill="#595268"/>
<path d="M138.885 167.324L138.875 166.752C140.643 166.719 142.441 166.137 144.218 165.021L144.523 165.506C142.656 166.679 140.76 167.29 138.885 167.324Z" fill="#595268"/>
<path d="M134.608 165.475L134.223 165.051C138.671 161.009 141.674 156.407 143.672 150.566L144.214 150.752C142.211 156.606 139.069 161.422 134.608 165.475Z" fill="#595268"/>
<path d="M85.5391 167.214C86.7291 178.283 88.431 181.515 112.972 194.118C113.809 194.548 114.041 195.619 114.932 196.071C115.546 196.383 116.805 196.07 117.447 196.394C117.651 196.497 118.616 198.103 118.823 198.208C119.153 198.374 120.273 197.82 120.609 197.989C122.886 207.758 133.045 223.621 136.986 224.019L146.096 218.882C147.877 215.824 142.461 199.705 136.818 185.905C133.307 180.249 129.014 176.35 120.654 171.606L99.1107 157.944L85.5391 167.214Z" fill="#827D8C"/>
<path d="M85.5391 167.214C86.7291 178.283 88.431 181.515 112.972 194.118C113.809 194.548 114.041 195.619 114.932 196.071C115.546 196.383 116.805 196.07 117.447 196.393C117.651 196.497 118.616 198.103 118.823 198.207C119.153 198.373 120.273 197.82 120.609 197.988C122.886 207.758 133.045 223.62 136.986 224.019C130.208 217.24 125.22 205.208 120.275 192.548L119.961 195.617L115.623 191.67L116.133 193.925C90.0072 177.607 89.8503 165.01 85.5391 167.214Z" fill="#726D7C"/>
<path d="M122.726 173.147C118.909 170.543 117.27 169.778 112.664 167.754L112.895 167.229C117.435 169.226 119.201 170.05 123.049 172.674L122.726 173.147Z" fill="#595268"/>
<path d="M143.233 234.553L143.787 232.153L139.012 226.325L148.013 224.282L152.007 229.862L153.182 230.929L147.662 236.668C145.732 236.856 143.887 236.874 143.233 234.553Z" fill="#A04E4E"/>
<path d="M147.51 235.24C152.347 233.644 151.565 230.721 151.565 230.721C153.015 230.313 154.407 230.379 155.979 230.581C155.979 230.581 158.101 226.67 159.529 224.441C160.873 222.343 164.077 224.928 164.077 224.928C163.876 230.658 161.801 235.414 158.91 238.841C155.497 242.887 147.372 245.556 141.059 242.464C141.096 239.313 141.561 236.482 143.236 234.553C143.235 234.553 144.555 236.215 147.51 235.24Z" fill="#270A54"/>
<path d="M141.221 239.778C151.201 243.77 150.599 239.366 153.893 239.032C162.364 238.174 162.495 230.354 163.295 224.395C163.498 224.065 164.051 224.119 164.076 224.928C163.926 230.461 163.687 236.489 156.853 241.658C156.853 241.658 150.777 245.308 146.092 244.706C142.424 244.235 139.578 242.966 139.578 242.966C139.738 241.723 140.642 240.156 141.221 239.778Z" fill="white"/>
<path d="M157.025 241.887L156.68 241.43C163.481 236.285 163.644 230.247 163.789 224.92L164.361 224.935C164.213 230.391 164.045 236.575 157.025 241.887Z" fill="#270A54"/>
<path d="M147.193 245.06C146.808 245.06 146.428 245.038 146.054 244.99C142.387 244.519 139.579 243.28 139.461 243.228L139.694 242.705C139.722 242.717 142.548 243.962 146.128 244.422C150.655 245.002 156.646 241.449 156.705 241.413L157 241.904C156.769 242.043 151.689 245.06 147.193 245.06Z" fill="#270A54"/>
<path d="M136.988 224.019C135.554 220.699 143.713 215.465 146.098 218.881L148.646 225.165C145.669 224.019 142.817 226.516 141.208 229.39L136.988 224.019Z" fill="#9692A0"/>
<path d="M153.912 230.424C152.8 230.062 151.876 228.574 150.616 228.737C149.53 228.878 148.215 233.715 145.227 235.514C150.05 236.085 154.027 232.866 153.912 230.424Z" fill="#270A54"/>
<path d="M119.983 197.57C119.351 193.903 119.853 191.392 121.475 190.105L121.831 190.554C120.386 191.7 119.954 194.028 120.547 197.473L119.983 197.57Z" fill="#595268"/>
<path d="M116.842 195.448C115.361 194.015 114.959 191.524 115.645 188.043L116.207 188.154C115.561 191.432 115.908 193.747 117.241 195.036L116.842 195.448Z" fill="#595268"/>
<path d="M85.5391 167.213C85.9013 171.038 86.566 174.526 88.1244 177.022C103.446 171.206 111.639 162.95 114.834 152.239L85.5391 167.213Z" fill="#726D7C"/>
<path d="M87.1673 107.029C87.1673 107.029 77.4689 125.778 80.4053 154.322C80.5205 155.442 80.6959 159.125 80.9951 160.236C81.2687 161.253 80.6008 163.839 81.1325 164.774C81.9822 166.267 83.4472 167.839 83.4472 167.839C83.4472 167.839 83.1566 169.959 83.8483 171.281C85.1021 175.608 112.345 167.391 116.612 146.716C116.293 145.62 114.853 146.692 115.023 146.355C115.382 145.646 116.009 144.807 115.945 144.323C115.851 143.609 114.254 143.669 114.228 142.946C114.206 142.33 115.299 140.619 115.32 139.997C115.364 138.755 114.398 138.595 114.591 137.336C114.784 136.076 115.685 136.784 115.992 135.515C116.116 135 115.606 132.51 115.746 131.994C118.678 121.135 124.602 110.258 122.403 102.104C114.502 97.6223 101.486 100.978 101.486 100.978L87.1673 107.029Z" fill="#E5C3B7"/>
<path d="M77.468 184.552C78.1511 184.86 78.5407 185.792 79.4363 188.618C79.2083 190.608 77.2769 190.284 76.0039 189.586L77.4597 186.824L77.468 184.552Z" fill="#8E4242"/>
<path d="M70.1518 184.828L70.3098 186.549C74.5534 188.092 72.9077 188.089 74.0527 185.649L75.5866 184.063C74.6011 181.895 75.7676 178.005 75.7676 178.005C75.0251 168.551 74.243 159.938 73.5273 154.681C77.5639 149.814 79.0421 142.637 79.0421 142.637L68.1072 134.187C68.1072 134.187 67.341 136.446 66.5599 139.548C65.1771 145.04 63.2847 152.813 63.4124 153.742C64.3583 160.621 68.1393 172.689 68.0581 175.328C68.0804 176.955 70.1518 184.828 70.1518 184.828Z" fill="#A04E4E"/>
<path d="M68.0566 175.328L66.9459 183.592C66.9521 183.723 66.6976 185.541 67.6141 185.905C68.7191 186.343 69.09 186.065 69.2832 186.395C69.2832 186.395 69.7468 187.524 70.3366 187.747C71.1482 188.055 71.9418 187.676 72.325 187.865C72.7082 188.055 73.2299 189.03 73.656 189.113C74.2637 189.231 74.7601 189.011 74.7601 189.011C74.9672 189.009 75.4355 189.175 75.6033 189.296L76.0044 189.586C76.7678 189.964 78.7864 189.726 78.1094 187.346C76.5787 181.964 76.1471 180.492 76.25 175.41C76.25 175.41 73.4518 174.81 68.0566 175.328Z" fill="#A04E4E"/>
<path d="M76.0304 182.832L77.9766 183.574L79.1453 185.586C79.4644 186.135 80.1103 186.405 80.7252 186.245C81.1972 186.123 81.502 185.665 81.433 185.183C80.8855 184.196 80.6763 183.357 80.7386 182.636C80.7818 182.136 80.6011 181.653 80.2166 181.331C78.4646 179.864 79.0123 176.639 76.2522 175.409C75.4798 178.2 73.7589 181.06 76.0304 182.832Z" fill="#A04E4E"/>
<path d="M78.5426 189.332L77.9748 189.259C78.1198 188.137 77.5752 186.221 77.095 184.529C76.7406 183.282 76.4059 182.103 76.3672 181.326L76.9394 181.298C76.9746 182.009 77.3007 183.158 77.6457 184.373C78.1653 186.202 78.7026 188.094 78.5426 189.332Z" fill="#5E1F1F"/>
<path d="M74.255 187.457L73.8516 187.863L75.8032 189.801L76.2066 189.394L74.255 187.457Z" fill="#5E1F1F"/>
<path d="M78.0846 177.751C77.1705 176.185 76.2026 175.692 74.8398 175.37L74.9715 174.812C76.4474 175.162 77.5659 175.727 78.5794 177.462L78.0846 177.751Z" fill="#5E1F1F"/>
<path d="M67.765 175.296L66.8203 182.341L67.388 182.417L68.3328 175.372L67.765 175.296Z" fill="#5E1F1F"/>
<path d="M67.0462 168.637L66.4844 168.747L67.779 175.368L68.3408 175.258L67.0462 168.637Z" fill="#5E1F1F"/>
<path d="M75.1642 167.369L74.5938 167.417L75.2434 175.179L75.8138 175.131L75.1642 167.369Z" fill="#5E1F1F"/>
<path d="M68.1089 134.187L66.6445 139.231C66.9431 143.484 71.226 147.626 74.2174 148.573L71.7998 154.322L74.6617 165.01L73.529 154.681C75.987 151.878 77.8778 147.616 79.0438 142.637L68.1089 134.187Z" fill="#843838"/>
<path d="M88.1217 127.306L81.3867 147.096C75.9819 147.77 68.7837 143.952 66.9414 138.04C70.206 125.298 74.4254 106.212 94.3246 104.144C97.7185 103.791 88.1217 127.306 88.1217 127.306Z" fill="#E5C3B7"/>
<path d="M101.039 100.409L109.303 99.8408C111.452 100.428 114.809 110.769 105.295 114.648C94.3864 119.095 91.3358 109.8 90.9414 107.931L101.039 100.409Z" fill="#C99E91"/>
<path d="M108.131 101.167C110.316 104.373 109.536 110.607 103.22 112.615C95.8553 114.956 92.1442 107.931 92.9526 105.839L88.7773 91.1094L99.6033 93.2691C101.328 97.961 105.033 100.87 108.131 101.167Z" fill="#A04E4E"/>
<path d="M103.22 112.615C103.22 112.615 103.114 112.648 103.061 112.664C95.8021 114.855 92.15 107.916 92.9526 105.838L88.7773 91.1094L95.709 96.1646L95.9986 99.0041L98.3675 101.67C99.7548 103.122 97.8315 108.555 98.5318 109.8C100.388 113.101 103.22 112.615 103.22 112.615Z" fill="#843838"/>
<path d="M95.0577 106.61C93.8619 108.086 90.7315 111.252 89.6213 111.466C87.9398 111.79 87.6769 109.494 87.6769 109.494C86.9797 109.142 86.8148 109.622 86.3488 109.307C85.7629 108.91 86.1757 107.931 86.1757 107.931L85.237 107.414C84.8182 107.413 84.4445 107.395 83.9136 106.603C84.1447 105.861 84.0601 105.74 83.5816 105.325C83.5816 105.325 81.795 106.31 80.9718 105.276C80.3302 104.471 81.4092 103.622 80.4952 100.677C80.3028 100.313 78.9073 100.019 78.3938 99.1096C78.0705 98.5368 78.4081 97.3719 78.1974 97.0845C75.8121 93.8309 76.501 89.869 76.8817 88.6691C76.8817 88.6691 78.3134 85.078 83.3454 82.6555C88.3774 80.233 93.1645 83.3187 95.4569 87.4224C96.4931 89.2774 95.4377 91.5893 95.7096 93.2484C96.3729 97.2958 94.7152 99.2339 94.7152 99.2339C94.7152 99.2339 97.7922 102.157 96.9794 103.717C96.4413 104.75 95.787 105.71 95.0577 106.61Z" fill="#A04E4E"/>
<path d="M85.2383 107.414C86.4271 106.85 87.4641 105.247 87.94 104.143C88.4484 104.86 87.4733 107.038 86.177 107.931L85.2383 107.414Z" fill="white"/>
<path d="M83.1192 105.613L82.7188 105.204C83.0797 104.852 83.6028 104.744 84.2738 104.883L84.1568 105.444C83.6762 105.343 83.3381 105.399 83.1192 105.613Z" fill="black"/>
<path d="M85.2652 105.207L84.9314 104.742C85.3758 104.424 85.4971 104.019 85.2565 103.659C85.0165 103.3 84.4814 103.108 84.0021 103.406L83.6992 102.919C84.474 102.438 85.3417 102.756 85.7327 103.341C86.0773 103.856 86.0661 104.633 85.2652 105.207Z" fill="#5E1F1F"/>
<path d="M84.3956 100.29C84.5866 100.007 84.3639 99.5226 83.8982 99.2088C83.4324 98.895 82.9001 98.8704 82.7091 99.1538C82.5181 99.4372 82.7408 99.9214 83.2066 100.235C83.6723 100.549 84.2047 100.574 84.3956 100.29Z" fill="black"/>
<path d="M84.1496 98.645C84.3479 98.8489 84.3435 99.1748 84.1396 99.3732C83.9358 99.5715 83.6098 99.5671 83.4115 99.3633C83.2131 99.1594 83.2177 98.8334 83.4215 98.635C83.6252 98.4369 83.9513 98.4413 84.1496 98.645Z" fill="#A04E4E"/>
<path d="M84.8668 107.835L84.7188 107.282C86.134 106.903 86.5935 106.078 86.9982 105.35C87.0559 105.247 87.1117 105.146 87.169 105.05L87.662 105.341C87.6078 105.433 87.554 105.53 87.4986 105.629C87.061 106.415 86.5165 107.394 84.8668 107.835Z" fill="#5E1F1F"/>
<path d="M84.8548 106.597L84.4453 106.197C84.8595 105.774 85.3694 105.689 85.8622 105.608C86.6598 105.475 87.3485 105.361 87.7266 103.832L88.2823 103.969C87.8138 105.864 86.7836 106.035 85.9556 106.173C85.5169 106.245 85.1379 106.308 84.8548 106.597Z" fill="#5E1F1F"/>
<path d="M86.2987 109.694L85.9805 109.218C86.9647 108.559 87.1853 107.871 87.3992 107.207C87.5682 106.68 87.7429 106.137 88.2763 105.682L88.648 106.117C88.2385 106.467 88.1022 106.891 87.9443 107.382C87.7122 108.104 87.449 108.924 86.2987 109.694Z" fill="#5E1F1F"/>
<path d="M95.2535 106.819L94.8612 106.402C96.1508 105.189 96.7643 103.976 96.6842 102.797C96.5762 101.209 95.237 99.9393 94.1328 99.1528L94.4649 98.6865C95.6698 99.5442 97.1323 100.947 97.2553 102.758C97.3479 104.117 96.6743 105.484 95.2535 106.819Z" fill="#5E1F1F"/>
<path d="M88.1356 104.193C87.7954 104.193 87.5088 104.072 87.3298 103.996L87.2773 103.974L87.4968 103.445L87.5535 103.469C87.9247 103.626 88.2658 103.732 88.6702 103.428L89.0143 103.885C88.7056 104.118 88.4041 104.193 88.1356 104.193Z" fill="#5E1F1F"/>
<path d="M81.4003 97.6966L80.8789 97.9346L81.5539 99.4134L82.0752 99.1754L81.4003 97.6966Z" fill="#5E1F1F"/>
<path d="M81.5072 99.5143C81.4087 98.6038 82.3447 98.2507 83.097 97.967C83.5607 97.7919 84.04 97.611 84.1708 97.3652L84.6766 97.634C84.4444 98.0707 83.8881 98.2804 83.2992 98.5028C82.53 98.7929 82.0293 99.0157 82.0766 99.4523L81.5072 99.5143Z" fill="#5E1F1F"/>
<path d="M81.7802 82.3477C88.2971 78.2293 93.6037 79.5878 96.6343 83.2572C97.0762 83.7924 97.4704 84.3761 97.8122 84.9996C100.055 89.0923 99.9645 92.9092 99.9645 92.9092C99.951 93.6559 100.059 94.3737 100.389 95.0384C99.2626 96.1647 95.3432 96.3036 95.018 96.1647C92.9615 95.2862 91.8405 97.9253 89.9033 97.4997L89.2324 95.3115L87.9416 94.7046C87.9416 94.7046 87.4863 91.6495 86.4623 89.8288C86.1653 89.3007 85.6729 88.8498 84.8729 88.5546C81.3144 87.2417 76.4932 92.5336 76.4932 92.5336C76.4932 92.5336 75.2021 86.5048 81.7802 82.3477Z" fill="#5E1F1F"/>
<path d="M90.9025 97.4215C91.691 99.477 92.823 100.415 93.7852 100.027C95.0361 99.5219 96.0118 96.5403 95.3177 94.4509C94.5603 92.1711 92.2674 91.2587 90.6809 92.7301C89.6405 93.6953 90.114 95.366 90.9025 97.4215Z" fill="#A04E4E"/>
<path d="M92.3676 98.606L92.2739 97.5096L92.3457 97.4202C92.6644 97.0238 92.6851 96.7403 92.6059 96.6182C92.5341 96.508 92.3568 96.475 92.14 96.5311L91.9486 96.581L91.8341 96.4199C90.9944 95.2368 90.8078 93.9598 91.3812 93.3145C91.5654 93.1074 92.0999 92.6845 93.0923 93.2255L92.8179 93.7283C92.5573 93.5859 92.079 93.3919 91.8093 93.6947C91.4991 94.0438 91.5409 94.9353 92.1994 95.9392C92.5787 95.899 92.9083 96.0312 93.0864 96.307C93.3204 96.6686 93.2361 97.1778 92.8636 97.6858L92.938 98.5575L92.3676 98.606Z" fill="#5E1F1F"/>
<path d="M94.5379 99.9357L94.1172 99.5473C94.9035 98.6949 95.4288 97.1107 95.4254 96.1657L95.9984 96.1641C96.0017 97.2129 95.4442 98.9532 94.5379 99.9357Z" fill="#5E1F1F"/>
<path d="M94.8397 106.423L92.8711 108.566L93.2926 108.954L95.2612 106.81L94.8397 106.423Z" fill="#5E1F1F"/>
<path d="M79.0088 99.5874L78.8359 98.7236C80.0997 98.4703 80.5927 97.614 81.1154 96.7073C81.6449 95.7876 82.2454 94.7452 83.7029 94.5771L83.8036 95.4521C82.7875 95.5695 82.3866 96.2657 81.8786 97.1469C81.3094 98.1354 80.6637 99.2558 79.0088 99.5874Z" fill="black"/>
<path d="M114.797 99.9209C119.75 100.212 130.569 102.221 136.565 104.167C139.431 107.644 137.048 114.788 133.466 117.604L119.371 119.679L114.797 99.9209Z" fill="#E5C3B7"/>
<path d="M121.758 108.416C126.791 111.98 130.614 113.642 136.501 113.642C135.634 115.427 134.921 116.369 133.469 117.604L119.773 119.621C121.059 115.522 121.878 111.695 121.758 108.416Z" fill="#C99E91"/>
<path d="M122.604 111.413L117.43 125.597L117.967 125.793L123.142 111.609L122.604 111.413Z" fill="#A07A75"/>
<path d="M96.4089 143.502C95.0265 143.502 93.5922 143.416 92.1094 143.23L92.1808 142.662C104.073 144.155 112.802 139.1 115.769 135.338L116.219 135.692C113.544 139.084 106.333 143.502 96.4089 143.502Z" fill="#A07A75"/>
<path d="M80.9968 160.237C83.9792 154.951 86.2178 147.911 86.6566 141.618L91.3363 137.543L94.1752 135.179C89.9597 134.854 88.6649 130.757 88.6649 130.757L89.4059 125.684L85.5368 130.574L82.7601 129.578L83.5661 132.83L82.918 135.516L83.5661 140.693L79.9141 147.096C80.2212 152.235 80.5597 157.76 80.9968 160.237Z" fill="#C99E91"/>
<path d="M80.9958 160.236C80.9958 160.236 80.6701 163.272 80.7513 164.28C80.7866 164.721 82.9282 167.839 82.9282 167.839L83.8491 172.017C86.0775 172.709 88.6108 172.43 91.3129 171.617C89.0692 171.617 85.8658 169.756 85.8658 169.756C85.8658 169.756 81.3863 164.28 84.3232 152.71L80.9958 160.236Z" fill="#C99E91"/>
<path d="M94.2401 164.766L94.1094 164.208C102.486 162.238 106.729 157.287 110.067 152.23L110.545 152.546C107.142 157.701 102.812 162.75 94.2401 164.766Z" fill="#A07A75"/>
<path d="M81.6592 147.188L81.1172 147.003L84.4505 137.209L83.7477 135.46L85.4533 133.479L85.2446 130.482L87.8987 127.128L88.3478 127.483L85.8315 130.664L86.0409 133.674L84.4092 135.57L85.0613 137.192L81.6592 147.188Z" fill="#A07A75"/>
<path d="M88.077 131.062C85.1317 131.062 82.2896 130.256 79.4883 128.638L79.7747 128.142C84.1878 130.692 88.7058 131.157 93.5895 129.564L93.7667 130.109C91.8195 130.744 89.9281 131.062 88.077 131.062Z" fill="#A07A75"/>
<path d="M81.2967 138.045C79.62 138.045 78.0404 137.599 76.2031 136.675L76.4604 136.163C79.3967 137.641 81.5453 137.84 84.6713 136.926L84.8322 137.476C83.5448 137.852 82.3997 138.045 81.2967 138.045Z" fill="#A07A75"/>
<path d="M79.3562 147.514C78.7729 147.514 78.209 147.48 77.6562 147.41L77.7277 146.842C78.859 146.985 80.0449 146.975 81.3526 146.812L81.4231 147.38C80.7031 147.47 80.0175 147.514 79.3562 147.514Z" fill="#A07A75"/>
<path d="M70.9047 154.043L70.8281 154.61L73.4887 154.97L73.5653 154.402L70.9047 154.043Z" fill="#5E1F1F"/>
<path d="M109.036 146.221L108.934 145.658C111.109 145.263 112.79 144.316 114.07 142.764L114.512 143.128C113.142 144.789 111.351 145.801 109.036 146.221Z" fill="#A07A75"/>
<path d="M102.332 134.456L102.145 133.915C108.746 131.631 113.736 125.983 117.399 116.649L117.933 116.858C114.204 126.358 109.101 132.114 102.332 134.456Z" fill="#A07A75"/>
<path d="M88.1095 250.787L7.95703 260.666V239.159L36.7543 218.996L88.1095 250.787Z" fill="#ABC6D8"/>
<path d="M84.5517 250.787L36.7543 221.198L7.95703 241.361V243.881L34.518 225.431L74.6612 250.787H84.5517Z" fill="#95B0C6"/>
<path d="M84.4375 250.974L36.7632 221.462L8.08462 241.542L7.83203 241.181L36.7482 220.935L36.8715 221.011L84.6689 250.599L84.4375 250.974Z" fill="#6B83AA"/>
<path d="M92.0406 260.666H7.95703V250.787H93.4204V253.448H92.0406V260.666Z" fill="#ABC6D8"/>
<path d="M92.0406 254.726L7.95703 255.727V253.448H92.0406V254.726Z" fill="#95B0C6"/>
<path d="M93.4206 250.566H7.95703V251.007H93.4206V250.566Z" fill="#6B83AA"/>
<path d="M93.4206 253.229H7.95703V253.669H93.4206V253.229Z" fill="#6B83AA"/>
</g>
<path d="M206.747 433.083H143.711V436.36H206.747V433.083Z" fill="#ABC6D8"/>
<path d="M206.748 419.814H164.266V433.082H206.748V419.814Z" fill="#ABC6D8"/>
<path d="M187.716 411.287H172.793V419.815H187.716V411.287Z" fill="#ABC6D8"/>
<path d="M206.746 436.36H146.625V447.146H206.746V436.36Z" fill="#ABC6D8"/>
<path d="M206.746 441.753L146.625 437.995V436.36H206.746V441.753Z" fill="#95B0C6"/>
<path d="M206.747 436.083H143.711V436.637H206.747V436.083Z" fill="#6B83AA"/>
<path d="M191.597 419.538H164.266V420.092H191.597V419.538Z" fill="#6B83AA"/>
<path d="M180.973 411.287H179.531V365.132C179.531 364.736 179.852 364.415 180.248 364.415H180.256C180.652 364.415 180.973 364.736 180.973 365.132V411.287Z" fill="#ABC6D8"/>
<path d="M181.839 395.518H178.664V411.223H181.839V395.518Z" fill="#ABC6D8"/>
<path d="M183.237 405.103H177.27V411.288H183.237V405.103Z" fill="#ABC6D8"/>
<path d="M179.533 432.806H143.711V433.36H179.533V432.806Z" fill="#6B83AA"/>
</svg>
