<svg width="489" height="316" viewBox="0 0 489 316" fill="none" xmlns="http://www.w3.org/2000/svg">
<path d="M117.148 288.86C117.148 288.86 101.356 306.45 86.7973 294.342C72.238 282.233 84.3817 276.114 71.7538 267.35C59.1256 258.586 47.58 255.441 54.9735 246.712C62.3673 237.984 68.7197 240.56 61.3622 228.752C54.0048 216.945 32.3603 208.481 35.7958 197.579C39.2312 186.676 48.016 187.847 37.1254 172.728C26.2341 157.61 22.14 143.027 38.5895 141.557C55.0389 140.087 49.8483 167.612 63.789 171.159C77.7293 174.706 81.8989 166.947 86.7661 182.868C91.6332 198.788 83.1422 214.574 94.0245 214.634C101.041 214.672 100.915 200.828 113.717 209.888C126.513 218.942 109.071 235.547 120.965 241.168C132.858 246.787 156.224 277.894 117.148 288.86Z" fill="#E07ED0"/>
<path opacity="0.9" d="M96.4718 251.274C98.2741 248.723 107.024 235.6 105.747 222.977C105.704 222.554 105.281 222.301 104.803 222.411C104.325 222.521 103.97 222.953 104.014 223.377C105.122 234.323 98.0719 246.045 95.6026 249.768L72.0565 208.985C73.2797 206.85 78.432 196.9 75.7423 184.996C75.6501 184.588 75.1925 184.381 74.7214 184.534C74.2495 184.689 73.9427 185.144 74.0352 185.553C76.2615 195.407 72.7596 204.035 71.1136 207.35L51.8336 173.956C51.627 173.598 51.1075 173.511 50.6739 173.762C50.2403 174.012 50.056 174.506 50.2625 174.863L67.2607 204.305C63.7311 204.53 54.524 204.594 48.8916 199.834C48.5707 199.563 48.0194 199.619 47.663 199.961C47.3062 200.303 47.2774 200.801 47.599 201.073C54.3831 206.806 65.5244 206.069 68.1268 205.805L97.0125 255.837C92.5873 256.368 78.3014 257.415 68.3742 250.479C68.0252 250.235 67.4742 250.331 67.1445 250.695C66.8141 251.056 66.8288 251.548 67.1782 251.792C78.4731 259.684 94.5885 257.779 97.8521 257.291L110.375 278.982C107.412 279.982 98.4855 282.593 90.365 280.855C89.9205 280.759 89.4124 281.028 89.2311 281.454C89.0498 281.88 89.2639 282.303 89.7095 282.399C98.76 284.336 108.462 281.27 111.145 280.316L119.627 295.008C119.834 295.366 120.353 295.453 120.787 295.202C121.22 294.952 121.405 294.459 121.198 294.101L114.175 281.937C116.172 279.965 123.431 272.199 125.5 261.633C125.585 261.197 125.271 260.838 124.799 260.832C124.326 260.827 123.873 261.176 123.787 261.613C121.955 270.972 115.665 278.197 113.383 280.566L96.4718 251.274Z" fill="white"/>
<path d="M120.965 287.88C120.965 287.88 98.4942 295.218 91.94 277.452C85.3857 259.686 98.9623 260.458 92.408 246.555C85.8538 232.65 77.4274 224.154 88.1948 220.291C98.9623 216.429 103.175 221.837 102.707 207.932C102.239 194.028 87.7268 175.876 96.1532 168.152C104.58 160.428 111.602 165.834 109.73 147.296C107.857 128.757 111.603 114.081 126.583 121.032C141.564 127.984 123.306 149.226 133.606 159.269C143.905 169.31 151.395 164.676 147.65 180.897C143.905 197.118 128.659 206.543 138.053 212.037C144.11 215.578 150.923 203.526 157.481 217.773C164.035 232.012 140.627 237.671 148.117 248.486C155.608 259.299 160.289 297.921 120.965 287.88Z" fill="#7D80FF"/>
<path opacity="0.9" d="M121.853 244.992C124.69 243.684 138.829 236.695 144.034 225.124C144.208 224.736 143.969 224.306 143.5 224.162C143.031 224.018 142.508 224.215 142.333 224.604C137.82 234.638 125.854 241.264 121.853 243.254V196.161C123.98 194.924 133.417 188.883 137.04 177.229C137.164 176.83 136.871 176.422 136.387 176.319C135.901 176.217 135.407 176.458 135.283 176.858C132.284 186.505 124.937 192.226 121.854 194.274V155.714C121.854 155.301 121.448 154.966 120.947 154.966C120.447 154.966 120.04 155.301 120.04 155.714V189.71C116.871 188.14 108.866 183.592 106.368 176.654C106.225 176.259 105.72 176.031 105.24 176.15C104.76 176.267 104.486 176.684 104.629 177.08C107.637 185.438 117.655 190.37 120.04 191.443V249.214C115.942 247.462 103.047 241.225 97.9177 230.255C97.7372 229.87 97.212 229.677 96.7449 229.827C96.2778 229.975 96.0447 230.408 96.2252 230.795C102.061 243.276 116.97 249.684 120.04 250.893V275.94C116.974 275.325 107.938 273.122 101.774 267.557C101.437 267.252 100.863 267.23 100.493 267.509C100.123 267.787 100.096 268.261 100.435 268.566C107.304 274.769 117.239 276.965 120.039 277.481V294.445C120.039 294.858 120.446 295.193 120.946 295.193C121.447 295.193 121.853 294.858 121.853 294.445V280.399C124.569 279.69 134.738 276.594 141.813 268.478C142.105 268.142 142.012 267.675 141.606 267.434C141.2 267.193 140.633 267.268 140.34 267.604C134.073 274.793 125.014 277.905 121.853 278.815V244.992Z" fill="#A8DAFF"/>
<path d="M320.387 45.9082H218.711C211.745 45.9082 206.098 50.7078 206.098 56.6284V238.371C206.098 244.291 211.745 249.091 218.711 249.091H320.387C327.353 249.091 333 244.291 333 238.371V56.6277C332.999 50.7078 327.353 45.9082 320.387 45.9082Z" fill="#E6F1FF"/>
<path d="M320.393 49.4434H298.889C297.557 49.4434 296.338 50.0824 295.741 51.0941C294.72 52.8242 292.637 53.9167 290.359 53.9167H248.752C246.474 53.9167 244.391 52.8242 243.37 51.0941C242.772 50.0824 241.554 49.4434 240.222 49.4434H218.718C214.05 49.4434 210.266 52.6596 210.266 56.6271V238.369C210.266 242.337 214.05 245.553 218.718 245.553H320.393C325.061 245.553 328.845 242.337 328.845 238.369V56.6263C328.845 52.6596 325.061 49.4434 320.393 49.4434Z" fill="#7B1A8E"/>
<path d="M249.164 171.501C249.164 169.775 249.455 168.378 250.035 167.309C250.616 166.24 251.472 165.451 252.603 164.944C253.734 164.436 255.13 164.183 256.789 164.183C257.38 164.183 258.07 164.231 258.86 164.326V166.94C258.196 166.833 257.476 166.779 256.7 166.779C255.386 166.779 254.407 167.025 253.763 167.516C253.12 168.006 252.768 168.807 252.708 169.918H252.827C253.424 168.96 254.384 168.48 255.705 168.48C256.999 168.48 258.003 168.834 258.716 169.542C259.429 170.25 259.785 171.236 259.785 172.499C259.785 173.858 259.334 174.932 258.431 175.718C257.529 176.506 256.267 176.899 254.648 176.899C252.929 176.899 251.585 176.425 250.616 175.478C249.649 174.531 249.164 173.206 249.164 171.501ZM254.56 174.251C254.978 174.251 255.318 174.117 255.581 173.849C255.843 173.582 255.974 173.154 255.974 172.567C255.974 171.563 255.516 171.061 254.6 171.061C254.148 171.061 253.782 171.191 253.5 171.451C253.218 171.711 253.078 172.026 253.078 172.399C253.078 172.941 253.213 173.385 253.485 173.731C253.757 174.078 254.116 174.251 254.56 174.251Z" fill="white"/>
<path d="M262.492 176.731L267.49 167.143H261.188V164.377H271.691V166.349L266.563 176.731H262.492Z" fill="white"/>
<path d="M280.217 168.049C280.217 169.29 279.888 170.251 279.231 170.931C278.575 171.61 277.639 171.95 276.425 171.95C275.283 171.95 274.378 171.598 273.711 170.896C273.045 170.194 272.711 169.246 272.711 168.049C272.711 166.808 273.036 165.853 273.686 165.185C274.337 164.516 275.249 164.183 276.425 164.183C277.586 164.183 278.509 164.529 279.192 165.224C279.875 165.917 280.217 166.859 280.217 168.049ZM275.707 168.083C275.707 168.732 275.77 169.2 275.896 169.488C276.022 169.775 276.211 169.919 276.464 169.919C276.717 169.919 276.904 169.778 277.027 169.496C277.149 169.214 277.211 168.744 277.211 168.083C277.211 167.435 277.149 166.966 277.027 166.678C276.904 166.391 276.716 166.247 276.464 166.247C276.205 166.247 276.014 166.394 275.892 166.687C275.769 166.98 275.707 167.446 275.707 168.083ZM287.475 164.36L279.401 176.73H276.445L284.518 164.36H287.475ZM291.288 172.974C291.288 174.209 290.958 175.167 290.297 175.846C289.637 176.526 288.703 176.866 287.495 176.866C286.353 176.866 285.449 176.515 284.782 175.813C284.115 175.11 283.781 174.164 283.781 172.974C283.781 171.733 284.106 170.777 284.757 170.11C285.407 169.441 286.32 169.106 287.494 169.106C288.655 169.106 289.578 169.454 290.262 170.148C290.945 170.842 291.288 171.783 291.288 172.974ZM286.777 173.007C286.777 173.656 286.84 174.125 286.967 174.412C287.093 174.7 287.282 174.844 287.535 174.844C287.82 174.844 288.017 174.678 288.126 174.349C288.236 174.018 288.29 173.572 288.29 173.007C288.29 172.444 288.235 171.996 288.126 171.666C288.017 171.337 287.819 171.172 287.535 171.172C287.276 171.172 287.085 171.318 286.962 171.612C286.839 171.905 286.777 172.371 286.777 173.007Z" fill="white"/>
<path d="M269.947 108.263C254.017 92.9737 240.066 105.247 242.441 117.395C244.815 129.544 269.947 144.297 269.947 144.297C269.947 144.297 295.078 129.545 297.453 117.395C299.827 105.247 285.877 92.9737 269.947 108.263Z" fill="#E07ED0"/>
<path d="M268.937 129.704C268.547 129.704 268.184 129.536 267.972 129.258L262.134 121.601L260.211 124.124C259.998 124.403 259.635 124.57 259.246 124.57H237.228C236.592 124.57 236.078 124.133 236.078 123.593C236.078 123.053 236.593 122.616 237.228 122.616H258.62L261.17 119.273C261.382 118.995 261.746 118.827 262.135 118.827C262.525 118.827 262.889 118.995 263.1 119.273L268.938 126.93L276.446 117.086C276.869 116.53 277.952 116.53 278.376 117.086L282.327 122.266H300.453C301.088 122.266 301.603 122.703 301.603 123.243C301.603 123.783 301.088 124.22 300.453 124.22H281.7C281.31 124.22 280.946 124.053 280.735 123.774L277.41 119.415L269.903 129.259C269.691 129.536 269.327 129.704 268.937 129.704Z" fill="white"/>
<path d="M281.108 192.821H234.379C233.785 192.821 233.305 192.412 233.305 191.908C233.305 191.404 233.785 190.995 234.379 190.995H281.109C281.702 190.995 282.183 191.404 282.183 191.908C282.183 192.412 281.702 192.821 281.108 192.821Z" fill="white"/>
<path d="M307.123 198.501H234.379C233.785 198.501 233.305 198.092 233.305 197.588C233.305 197.083 233.785 196.675 234.379 196.675H307.123C307.716 196.675 308.197 197.083 308.197 197.588C308.197 198.092 307.716 198.501 307.123 198.501Z" fill="white"/>
<path d="M257.187 211.425H233.707V213.389H257.187V211.425Z" fill="#E07ED0"/>
<path d="M264.798 215.576H233.707V217.54H264.798V215.576Z" fill="#E07ED0"/>
<path d="M250.597 219.732H233.711V221.693H250.597V219.732Z" fill="#E07ED0"/>
<path d="M264.786 219.732H252.742V221.693H264.786V219.732Z" fill="#E07ED0"/>
<path d="M264.798 223.88H233.707V225.844H264.798V223.88Z" fill="#E07ED0"/>
<path d="M301.996 211.425H277.789V213.389H301.996V211.425Z" fill="#E07ED0"/>
<path d="M304.951 215.58H277.793V217.541H304.951V215.58Z" fill="#E07ED0"/>
<path d="M303.701 219.729H277.789V221.693H303.701V219.729Z" fill="#E07ED0"/>
<path d="M277.981 51.5574H258.158C257.6 51.5574 257.148 51.1728 257.148 50.6991C257.148 50.2247 257.601 49.8408 258.158 49.8408H277.981C278.539 49.8408 278.991 50.2254 278.991 50.6991C278.992 51.1728 278.539 51.5574 277.981 51.5574Z" fill="#7B1A8E"/>
<path d="M283.356 50.6991C283.356 51.1735 282.903 51.5574 282.346 51.5574C281.788 51.5574 281.336 51.1728 281.336 50.6991C281.336 50.2254 281.788 49.8408 282.346 49.8408C282.903 49.8401 283.356 50.2247 283.356 50.6991Z" fill="#7B1A8E"/>
<path opacity="0.45" d="M443.123 294.201C443.123 297.041 401.352 299.343 349.825 299.343C298.298 299.343 256.527 297.041 256.527 294.201C256.527 291.361 298.298 289.06 349.825 289.06C401.352 289.06 443.123 291.362 443.123 294.201Z" fill="url(#paint0_linear_690_3677)"/>
<path d="M283.65 271.98L280.754 274.044C280.754 274.044 277.243 270.797 277.857 268.203L278.733 268.255L281.192 268.062L283.65 271.98Z" fill="#F8C0BE"/>
<path d="M378.277 215.094C373.886 218.903 364.408 225.114 354.839 231.078C346.276 236.413 337.632 241.547 332.526 244.547V244.555C331.936 244.899 331.383 245.213 330.893 245.505C323.537 251.432 282.775 273.028 282.775 273.028C282.484 272.788 282.185 272.504 281.895 272.205C280.262 270.543 278.738 268.254 278.738 268.254C278.738 268.254 291.201 260.426 292.262 259.708C293.314 258.982 310.339 243.485 314.557 241.023C317.324 239.399 321.378 238.284 323.836 237.708C329.405 231.692 348.154 209.886 350.195 206.264C352.471 202.208 360.88 190.991 360.88 190.991L378.277 215.094Z" fill="#380094"/>
<path d="M378.243 215.096L360.841 190.994C360.841 190.994 359.245 193.123 357.255 195.861C357.165 196.194 357.11 196.392 357.11 196.392C357.11 196.392 353.138 202.506 354.542 217.314C355.112 223.334 354.542 226.538 354.542 226.538L338.039 238.269L332.487 244.543L333.947 240.251L310.772 255.143L281.855 272.204C282.146 272.503 282.445 272.788 282.735 273.027C282.735 273.027 323.498 251.431 330.854 245.504C331.343 245.213 332.486 244.547 332.486 244.547L332.487 244.544C343.297 238.194 369.92 222.306 378.243 215.096Z" fill="#170052"/>
<path d="M283.29 291.426C281.422 291.957 278.782 291.508 276.088 290.109C273.404 288.709 271 285.477 270.646 283.928C270.302 282.386 269.893 278.667 267.78 275.869C265.676 273.07 265.15 271.91 265.621 269.688C265.621 269.688 265.921 269.575 266.447 269.411C268.279 268.827 272.941 267.6 277.848 268.206C277.848 268.206 279.181 272.598 281.884 273.848C281.884 273.848 281.531 277.186 280.95 279.258C280.361 281.331 279.717 284.324 280.188 285.342C280.46 285.933 282.147 286.899 283.68 287.662C284.769 288.208 285.785 288.65 286.157 288.769C287.036 289.061 285.159 290.895 283.29 291.426Z" fill="#A0279B"/>
<path d="M283.29 291.426C281.422 291.958 278.782 291.509 276.088 290.109C273.404 288.71 271 285.477 270.646 283.928C270.302 282.387 269.893 278.668 267.78 275.869C265.676 273.07 265.15 271.91 265.621 269.688C265.621 269.688 265.921 269.576 266.447 269.411C266.528 271.447 267.662 274.313 269.857 276.198C272.333 278.323 272.17 282.566 273.775 284.4C275.381 286.241 278.374 288.845 281.304 289.062C283.245 289.204 283.644 288.291 283.68 287.662C284.769 288.209 285.785 288.65 286.157 288.77C287.036 289.062 285.159 290.895 283.29 291.426Z" fill="#78048B"/>
<path d="M453.243 159.044C453.469 162.816 452.653 177.782 452.299 179.226C452.018 180.408 451.265 184.277 449.533 186.14C449.524 186.155 449.506 186.178 449.488 186.193C449.107 186.589 448.689 186.889 448.209 187.046C445.515 187.914 441.415 187.63 441.415 187.63V187.622C440.453 187.532 438.821 186.739 436.807 185.489C427.755 179.922 410.875 165.42 410.875 165.42L417.895 155.086C417.895 155.086 418.322 155.482 419.084 156.186C423.301 160.129 437.696 173.576 443.175 179.301C444.154 177.071 445.814 173.397 446.884 171.376C447.556 170.104 448 167.635 448.281 165.203C448.689 161.85 448.789 158.565 448.789 158.565C448.789 158.565 445.778 156.006 445.342 154.195C444.898 152.384 443.755 149.488 443.147 148.837C443.147 148.837 444.018 148.254 444.807 148.98C445.605 149.705 446.132 151.225 446.132 151.225L447.347 152.452C447.265 152.25 445.95 149.084 445.868 147.678C445.778 146.233 445.515 142.679 446.304 142.462C446.413 142.432 446.549 142.417 446.712 142.417C446.875 142.402 447.066 142.409 447.274 142.432C447.719 142.462 448.245 142.544 448.789 142.664C448.971 142.701 449.152 142.746 449.333 142.799C449.814 142.926 450.286 143.09 450.712 143.278C450.857 143.345 450.993 143.412 451.129 143.48C451.157 143.495 451.175 143.509 451.202 143.524C452.1 144.071 452.68 145.68 453.061 147.176C453.061 147.176 453.061 147.176 453.061 147.184C453.297 148.074 453.46 148.927 453.587 149.488C453.941 151.008 453.243 159.044 453.243 159.044Z" fill="#FFB8B9"/>
<path d="M436.803 185.492C427.751 179.924 410.871 165.422 410.871 165.422L417.892 155.088C417.892 155.088 418.318 155.484 419.08 156.188L419.034 156.27L430.418 178.839L436.803 185.492Z" fill="#FFB5B6"/>
<path d="M448.258 165.203C448.666 161.85 448.766 158.565 448.766 158.565C448.766 158.565 449.385 159.029 449.821 159.172C450.148 159.284 449.129 163.265 448.258 165.203Z" fill="#FFB5B6"/>
<path d="M450.746 159.28L451.229 159.316L450.746 162.467V159.28Z" fill="#FFB5B6"/>
<path d="M451.525 144.871C451.425 144.378 451.316 143.899 451.216 143.524C451.189 143.509 451.171 143.495 451.144 143.48C451.008 143.412 450.872 143.345 450.727 143.278C450.917 144.041 451.271 145.5 451.307 145.739C451.352 146.061 451.525 147.55 451.525 147.55C451.525 147.55 451.742 145.919 451.525 144.871ZM449.729 144.692C449.593 144.146 449.448 143.345 449.348 142.799C449.166 142.746 448.985 142.701 448.804 142.664C449.003 143.457 449.384 144.916 449.511 145.231C449.674 145.635 450.146 148.306 450.201 148.635C450.173 148.284 449.928 145.53 449.729 144.692ZM447.842 143.966C447.724 143.704 447.461 142.933 447.289 142.432C447.08 142.409 446.89 142.402 446.727 142.417C447.035 142.926 447.597 144.295 447.661 144.617C447.752 145.014 448.368 147.55 448.368 147.55C448.368 147.55 448.015 144.363 447.842 143.966Z" fill="#FFB5B6"/>
<path d="M419.497 171.359C418.59 173.604 406.123 181.649 404.4 182.511C403.624 182.899 397.767 198.655 397.767 198.655C397.767 198.655 368.206 189.198 364.578 187.701C364.578 187.701 380.905 174.232 384.533 168.245L389.884 139.683L407.209 139.062C407.209 139.062 407.935 140.102 409.041 141.673C411.336 144.973 415.263 150.615 417.522 154.005C418.184 154.985 418.701 155.779 419 156.273C420.814 159.265 420.404 169.114 419.497 171.359Z" fill="#A0279B"/>
<path d="M419.497 171.359C418.59 173.604 406.123 181.649 404.4 182.511C403.624 182.899 397.767 198.655 397.767 198.655C397.767 198.655 368.206 189.198 364.578 187.701C364.578 187.701 380.905 174.232 384.533 168.245L389.884 139.683L407.209 139.062C407.209 139.062 407.935 140.102 409.041 141.673C411.336 144.973 415.263 150.615 417.522 154.005C418.184 154.985 418.701 155.779 419 156.273C420.814 159.265 420.404 169.114 419.497 171.359Z" fill="#A0279B"/>
<path d="M399.251 170.152C399.251 170.152 393.282 162.234 393.282 162.32C393.282 162.406 394.803 147.334 394.803 147.334L388.79 145.527L384.533 168.245C380.905 174.232 364.578 187.701 364.578 187.701C365.972 188.276 371.197 190.027 377.1 191.964L393.489 176.129L404.793 182.297C407.222 180.913 416.499 174.874 418.952 172.137C418.978 172.107 419.005 172.074 419.029 172.045L419.03 172.044L411.887 175.375L399.251 170.152Z" fill="#78048B"/>
<path d="M417.52 154.003C418.325 157.405 417.435 160.269 416.101 161.922C414.287 164.167 410.835 156.27 409.928 153.277C409.257 151.077 409.084 144.821 409.039 141.671C411.334 144.972 415.261 150.613 417.52 154.003Z" fill="#FFB8B9"/>
<path d="M422.288 145.529C422.288 145.529 421.045 146.899 419.549 148.523C417.898 150.319 415.93 152.421 415.005 153.282L409 141.668C409 141.668 412.22 141.548 415.739 139.169C415.957 139.027 416.166 138.87 416.383 138.712C416.764 138.428 417.136 138.114 417.517 137.77L422.288 145.529Z" fill="#FFB8B9"/>
<path d="M422.297 145.53C422.297 145.53 421.054 146.899 419.557 148.523C416.981 145.148 416.824 142.235 416.506 140.192C416.724 140.05 416.174 138.87 416.392 138.713L422.297 145.53Z" fill="#FFB5B6"/>
<path d="M437.458 131.08C437.467 131.364 437.467 131.656 437.449 131.955C437.385 133.123 437.131 134.305 436.814 135.39C436.796 135.45 436.777 135.51 436.759 135.57C436.75 135.57 436.75 135.57 436.75 135.57C436.115 137.635 435.272 139.319 435.163 139.812C434.991 140.576 435.78 142.596 435.78 142.596C435.78 142.596 435.653 142.791 435.29 143.21C435.145 143.374 434.954 143.584 434.709 143.831C434.292 144.28 433.712 144.856 432.923 145.567C430.673 147.587 424.977 149.398 424.977 149.398C424.977 149.398 423.58 148.538 421.648 146.727C419.716 144.916 417.158 141.945 417.158 141.945C417.158 141.945 415.671 139.797 414.891 137.77C415.226 137.403 415.943 136.782 415.943 136.782C415.943 136.782 419.045 134.814 420.269 134.32C420.269 134.32 422.147 135.136 427.526 133.983C432.913 132.823 433.82 130.504 437.458 131.08Z" fill="#FFB8B9"/>
<path d="M436.79 135.39C436.772 135.45 436.754 135.509 436.735 135.569C436.726 135.569 436.726 135.569 436.726 135.569C436.091 137.635 435.248 139.318 435.139 139.812C434.967 140.575 435.756 142.596 435.756 142.596C435.756 142.596 434.296 141.009 434.341 140.059C434.386 139.109 435.584 137.717 436.182 136.564C436.373 136.205 436.581 135.786 436.79 135.39Z" fill="#FFDADB"/>
<path d="M420.556 133.544C420.556 133.544 418.918 137.696 420.556 142.089C420.556 142.089 421.024 135.861 422.429 133.93L420.556 133.544Z" fill="#380094"/>
<path d="M437.447 131.078C437.447 131.078 435.447 131.335 432.908 133.363C430.368 135.391 425.062 135.813 421.898 134.594C421.898 134.594 426.858 134.992 429.93 133.942C433.002 132.893 433.002 131.55 434.977 130.683C436.952 129.814 437.447 131.078 437.447 131.078Z" fill="#380094"/>
<path d="M440.099 132.531C439.255 135.217 436.942 135.547 436.752 135.569C437.096 134.439 437.377 133.189 437.441 131.955C437.459 131.655 437.459 131.364 437.45 131.079C433.813 130.503 432.906 132.823 427.518 133.983C422.139 135.135 420.262 134.319 420.262 134.319C419.717 134.544 418.792 135.053 417.94 135.554C416.888 136.183 415.935 136.781 415.935 136.781C415.935 136.781 416.416 137.979 416.262 138.061C415.745 138.33 416.289 139.37 415.844 139.565C415.409 139.752 413.858 140.283 413.858 140.283C412.924 139.056 410.72 132.097 411.835 129.874C412.389 128.782 413.06 127.63 414.139 126.477C415.246 125.257 416.788 124.038 419.037 122.878C423.418 120.61 430.566 120.513 435.364 122.878C440.162 125.242 440.978 129.732 440.099 132.531Z" fill="#380094"/>
<path d="M420.245 134.316C420.245 134.316 418.84 133.078 417.377 133.069C415.914 133.06 415.036 135.957 415.973 137.647C416.909 139.336 419.191 140.061 419.191 140.061L420.245 134.316Z" fill="#FFB8B9"/>
<path d="M413.598 126.556C413.598 126.556 404.513 129.127 397.315 128.765C390.117 128.403 378.004 123.77 378.004 123.77C378.004 123.77 388.537 123.732 392.224 122.718C395.91 121.705 398.193 120.438 402.406 120.003C402.406 120.003 399.377 119.279 395.801 120.365C395.801 120.365 405.806 112.536 418.382 122.718C418.382 122.718 415.734 126.233 413.598 126.556Z" fill="#380094"/>
<path d="M413.578 126.556L414.325 126.991C414.325 126.991 416.826 125.868 419.196 123.334L418.363 122.718C418.363 122.718 414.676 125.505 413.578 126.556Z" fill="#DB72B3"/>
<path d="M402.712 152.529C396.49 157.662 388.526 149.858 389.923 139.681L407.247 139.06C407.247 139.06 409.061 147.291 402.712 152.529Z" fill="#F8C0BE"/>
<path d="M394.295 152.59C401.442 150.766 404.95 145.321 404.95 145.321L401.878 142.101C401.878 142.101 395.733 141.595 393.363 142.407C392.05 142.858 390.796 143.766 389.938 144.488C390.478 148.011 392.143 150.914 394.295 152.59Z" fill="#FFB5B6"/>
<path d="M399.878 147.025C391.406 148.17 364.866 145.857 356.44 144.495C353.12 146.112 346.454 149.284 342.526 150.549C342.299 150.624 342.054 150.706 341.791 150.796C337.156 152.353 326.68 156.334 321.964 158.129V158.137C321.964 158.137 321.954 158.137 321.954 158.144C320.803 159.866 317.573 164.692 316.92 165.343C316.131 166.144 314.29 167.087 312.276 167.521C310.254 167.955 306.571 169.182 306.571 169.182C306.571 169.182 305.864 167.955 308.149 167.087C310.426 166.211 311.134 165.927 311.134 165.927L312.449 163.315C312.449 163.315 305.51 165.852 304.285 166.436C303.052 167.012 300.068 169.182 300.068 169.182C300.068 169.182 299.859 168.688 299.65 167.962C299.587 167.745 299.523 167.506 299.469 167.251C299.387 166.885 299.315 166.488 299.279 166.084C299.26 165.934 299.251 165.777 299.251 165.627C299.233 165.156 299.26 164.677 299.36 164.228C299.396 164.064 299.451 163.906 299.514 163.749C299.587 163.547 299.687 163.353 299.805 163.173C299.805 163.173 303.496 160.277 304.811 159.701C305.945 159.2 316.131 156.588 318.871 155.885C322.626 153.565 335.397 145.663 338.78 143.695C342.308 141.637 351.805 137.828 353.909 136.99C354 136.952 354.091 136.915 354.191 136.878C354.281 136.848 354.327 136.825 354.327 136.825L354.345 136.833C354.825 136.661 355.361 136.526 355.987 136.451C357.982 136.212 362.708 135.905 368.622 135.755C380.867 135.441 398.236 135.83 407.152 139.025C407.216 139.048 407.252 139.055 407.252 139.055C407.252 139.055 409.529 145.723 399.878 147.025Z" fill="#FFB8B9"/>
<path d="M341.815 150.773L341.769 150.796C337.134 152.352 326.658 156.333 321.941 158.129L322.504 156.947L341.815 150.773Z" fill="#FFB5B6"/>
<path d="M299.513 163.75C299.45 163.907 299.395 164.064 299.359 164.229L300.756 163.301L302.824 162.179L299.513 163.75ZM299.876 164.925L299.25 165.628C299.25 165.778 299.259 165.935 299.277 166.085L300.057 165.329L304.529 163.481L299.876 164.925ZM300.139 166.519L299.468 167.252C299.522 167.507 299.586 167.746 299.649 167.963L300.32 166.811L303.132 164.925L300.139 166.519Z" fill="#FFB5B6"/>
<path d="M407.129 139.025C406.675 138.891 404.661 138.314 401.55 137.813C398.475 137.327 375.029 136.084 368.598 135.755C380.843 135.441 398.212 135.83 407.129 139.025Z" fill="#FFDADB"/>
<path d="M449.312 185.968C449.312 185.968 449.371 186.02 449.488 186.117C449.48 186.17 449.471 186.192 449.471 186.192L449.312 185.968Z" fill="url(#paint1_linear_690_3677)"/>
<path d="M453.237 159.043C453.464 162.815 452.647 177.781 452.294 179.225C452.012 180.407 451.26 184.276 449.527 186.139C449.518 186.124 449.509 186.124 449.5 186.117C449.763 185.219 452.294 176.524 452.294 172.064C452.294 167.357 452.557 156.709 452.738 156.058C452.883 155.511 453.219 150.019 453.056 147.183C453.291 148.073 453.455 148.926 453.582 149.487C453.935 151.006 453.237 159.043 453.237 159.043Z" fill="#FFDADB"/>
<path d="M439.026 211.254C438.472 210.565 437.81 209.727 437.275 209.046C436.704 208.313 434.063 207.86 434.063 207.86L406.363 198.959C417.112 201.915 437.747 207.707 437.747 207.707L437.738 207.722C437.774 207.811 438.409 209.465 439.026 211.254Z" fill="url(#paint2_linear_690_3677)"/>
<path d="M382.564 240.734H383.442L384.408 240.01L386.12 247.288L382.564 251.307L380.984 245.006L382.564 240.734Z" fill="#F8C0BE"/>
<path d="M437.775 207.706L437.766 207.721L437.303 209.045L435.489 214.224C435.489 214.224 426.056 214.665 416.115 215.256C415.117 215.316 414.119 215.376 413.122 215.443C406.01 215.877 399.099 216.379 395.643 216.835C394.019 217.052 392.078 217.187 390.001 217.254C380.858 217.561 368.813 216.618 366.672 215.675C364.042 214.516 355.615 210.318 355.788 201.914C355.96 193.511 364.595 187.696 364.595 187.696C364.595 187.696 395.289 196.032 400.904 197.477C401.938 197.746 403.852 198.262 406.283 198.928L406.391 198.958C417.14 201.914 437.775 207.706 437.775 207.706Z" fill="#380094"/>
<path d="M429.147 207.858L416.095 215.259C407.995 215.738 399.56 216.314 395.623 216.838C393.999 217.055 392.058 217.19 389.981 217.257H389.891L413.764 212.348L429.147 207.858Z" fill="#170052"/>
<path d="M440.239 215.383C440.42 217.127 432.692 222.776 430.407 224.512C428.13 226.248 385.291 249.423 385.291 249.423C385.291 249.423 383.54 242.472 384.411 240.01C384.411 240.01 393.898 233.058 396.175 230.738C398.461 228.418 408.638 217.561 409.871 216.977C410.162 216.835 411.404 216.251 413.137 215.443C418.67 212.824 429.182 207.855 429.182 207.855L436.23 207.735L437.781 207.713C437.781 207.713 437.781 207.713 437.781 207.72C437.817 207.81 438.452 209.464 439.069 211.252C439.622 212.861 440.157 214.575 440.239 215.383Z" fill="#380094"/>
<path d="M382.561 251.303C382.561 251.303 377.3 256.084 376.502 256.952C375.712 257.82 372.819 262.026 372.202 263.403C371.613 264.727 369.463 269.03 368.683 269.906C368.647 269.943 368.628 269.965 368.601 269.988C367.903 270.639 364.13 271.148 363.513 270.931C362.896 270.714 363.159 265.932 363.957 263.186C364.746 260.432 367.023 255.942 367.114 252.463C367.204 248.99 366.325 242.615 369.572 238.125C369.572 238.125 370.479 238.222 371.876 238.417C374.57 238.791 379.096 239.547 382.561 240.737C382.561 240.737 381.862 247.322 382.561 251.303Z" fill="#A0279B"/>
<path d="M367.731 259.107C367.023 261.375 366.207 267.75 366.207 267.75C366.207 267.75 367.821 269.225 368.683 269.906C368.647 269.943 368.628 269.965 368.601 269.988C367.903 270.639 364.13 271.148 363.513 270.931C362.896 270.714 363.159 265.932 363.957 263.186C364.746 260.432 367.023 255.942 367.114 252.463C367.204 248.99 366.325 242.615 369.572 238.125C369.572 238.125 370.479 238.222 371.876 238.417C371.123 239.487 370.116 241.021 369.545 242.353C368.547 244.673 369.662 247.471 369.889 249.836C370.125 252.201 368.429 256.84 367.731 259.107Z" fill="#78048B"/>
<path d="M460.14 88.3467H423.801V90.8086H460.14V88.3467Z" fill="#7B1A8E"/>
<path d="M452.416 94.2842H423.801V96.7461H452.416V94.2842Z" fill="#7B1A8E"/>
<path d="M433.161 100.223H423.801V102.685H433.161V100.223Z" fill="#7B1A8E"/>
<path d="M460.159 100.223H434.988V102.685H460.159V100.223Z" fill="#7B1A8E"/>
<path d="M318.927 6.51953H288.09V8.98145H318.927V6.51953Z" fill="#7B1A8E"/>
<path d="M332.708 18.3965H288.09V20.8584H332.708V18.3965Z" fill="#7B1A8E"/>
<path d="M324.106 30.2715H288.09V32.7334H324.106V30.2715Z" fill="#7B1A8E"/>
<path d="M272.506 12.4347L268.516 9.14212C267.984 8.70361 267.984 7.99272 268.516 7.55497C269.047 7.11646 269.909 7.11646 270.44 7.55497L272.506 9.2596L279.049 3.86208C279.581 3.42358 280.442 3.42358 280.973 3.86208C281.505 4.30059 281.505 5.01148 280.973 5.44924L272.506 12.4347Z" fill="#7D80FF"/>
<path d="M272.506 24.3109L268.516 21.0191C267.984 20.5813 267.984 19.8697 268.516 19.4319C269.047 18.9934 269.908 18.9934 270.44 19.4319L272.506 21.1366L279.049 15.739C279.581 15.3005 280.442 15.3005 280.973 15.739C281.505 16.1775 281.505 16.8884 280.973 17.3262L272.506 24.3109Z" fill="#7D80FF"/>
<path d="M272.506 36.1859L268.516 32.8941C267.984 32.4563 267.984 31.7447 268.516 31.3069C269.047 30.8684 269.908 30.8684 270.44 31.3069L272.506 33.0116L279.049 27.614C279.581 27.1755 280.442 27.1755 280.973 27.614C281.505 28.0525 281.505 28.7634 280.973 29.2012L272.506 36.1859Z" fill="#7D80FF"/>
<path d="M220.742 198.61H138.853C136.451 198.61 134.504 197.003 134.504 195.022V156.604C134.504 154.622 136.451 153.016 138.853 153.016H220.742C223.144 153.016 225.092 154.622 225.092 156.604V195.022C225.092 197.003 223.144 198.61 220.742 198.61Z" fill="#8BA5CD"/>
<path d="M219.32 197.588H137.431C135.029 197.588 133.082 195.982 133.082 194V155.582C133.082 153.601 135.029 151.994 137.431 151.994H219.32C221.722 151.994 223.67 153.601 223.67 155.582V194C223.669 195.982 221.722 197.588 219.32 197.588Z" fill="#E6F1FF"/>
<path d="M163.327 157.985H140.859V161.173H163.327V157.985Z" fill="#7B1A8E"/>
<path d="M176.853 157.985H166.93V161.173H176.853V157.985Z" fill="#7B1A8E"/>
<g opacity="0.35">
<path d="M149.332 191.274C149.144 191.274 148.992 191.149 148.992 190.994V167.281C148.992 167.126 149.144 167 149.332 167C149.519 167 149.672 167.126 149.672 167.281V190.994C149.672 191.149 149.519 191.274 149.332 191.274Z" fill="#762096"/>
<path d="M168.972 191.274C168.785 191.274 168.633 191.149 168.633 190.994V167.281C168.633 167.126 168.785 167 168.972 167C169.16 167 169.312 167.126 169.312 167.281V190.994C169.312 191.149 169.16 191.274 168.972 191.274Z" fill="#762096"/>
<path d="M188.648 191.274C188.461 191.274 188.309 191.149 188.309 190.994V167.281C188.309 167.126 188.461 167 188.648 167C188.836 167 188.988 167.126 188.988 167.281V190.994C188.988 191.149 188.836 191.274 188.648 191.274Z" fill="#762096"/>
<path d="M208.324 191.274C208.137 191.274 207.984 191.149 207.984 190.994V167.281C207.984 167.126 208.137 167 208.324 167C208.512 167 208.664 167.126 208.664 167.281V190.994C208.664 191.149 208.512 191.274 208.324 191.274Z" fill="#762096"/>
</g>
<path d="M195.618 182.371C190.832 182.371 188.435 180.396 186.115 178.487C183.868 176.636 181.745 174.888 177.447 174.888C173.148 174.888 171.026 176.636 168.779 178.487C166.461 180.397 164.064 182.371 159.278 182.371C154.492 182.371 152.095 180.396 149.777 178.487C147.53 176.636 145.408 174.888 141.109 174.888C140.783 174.888 140.52 174.67 140.52 174.401C140.52 174.133 140.783 173.915 141.109 173.915C145.895 173.915 148.292 175.89 150.61 177.799C152.857 179.65 154.98 181.398 159.278 181.398C163.576 181.398 165.699 179.65 167.946 177.799C170.264 175.889 172.66 173.915 177.447 173.915C182.233 173.915 184.631 175.89 186.949 177.799C189.197 179.65 191.319 181.398 195.618 181.398C199.918 181.398 202.04 179.65 204.288 177.799C206.606 175.889 209.004 173.915 213.79 173.915C214.116 173.915 214.38 174.133 214.38 174.401C214.38 174.67 214.116 174.888 213.79 174.888C209.491 174.888 207.368 176.636 205.121 178.487C202.803 180.396 200.405 182.371 195.618 182.371Z" fill="#8AA9FF"/>
<path d="M216.803 174.251C216.803 175.621 215.458 176.731 213.798 176.731C212.138 176.731 210.793 175.622 210.793 174.251C210.793 172.882 212.139 171.771 213.798 171.771C215.458 171.772 216.803 172.882 216.803 174.251Z" fill="white"/>
<path d="M228.089 118.577H148.775C146.373 118.577 144.426 116.971 144.426 114.989V66.2287C144.426 64.2472 146.373 62.6406 148.775 62.6406H228.089C230.491 62.6406 232.438 64.2472 232.438 66.2287V114.989C232.438 116.971 230.491 118.577 228.089 118.577Z" fill="#8BA5CD"/>
<path d="M226.667 117.49H147.353C144.951 117.49 143.004 115.884 143.004 113.902V65.1418C143.004 63.1603 144.951 61.5537 147.353 61.5537H226.667C229.069 61.5537 231.016 63.1603 231.016 65.1418V113.902C231.016 115.884 229.069 117.49 226.667 117.49Z" fill="#E6F1FF"/>
<path d="M147.365 114.497C146.967 114.497 146.645 114.231 146.645 113.902V65.1418C146.645 64.814 146.967 64.5469 147.365 64.5469H226.679C227.077 64.5469 227.4 64.8133 227.4 65.1418V113.902C227.4 114.23 227.077 114.497 226.679 114.497H147.365Z" fill="#8AA9FF"/>
<mask id="mask0_690_3677" style="mask-type:luminance" maskUnits="userSpaceOnUse" x="146" y="64" width="82" height="51">
<path d="M147.326 114.496C146.928 114.496 146.605 114.23 146.605 113.901V65.1408C146.605 64.813 146.928 64.5459 147.326 64.5459H226.64C227.038 64.5459 227.361 64.8123 227.361 65.1408V113.901C227.361 114.229 227.038 114.496 226.64 114.496H147.326Z" fill="white"/>
</mask>
<g mask="url(#mask0_690_3677)">
<path d="M247.627 114.191L211.506 106.979L243.588 61.1604L242.802 60.7863L233.063 74.6965L209.169 69.9261L215.306 61.1604L214.521 60.7863L206.556 72.1605L195.76 70.0047L202.779 59.9796L201.994 59.6055L194.841 69.8213L178.731 66.6051L182.543 61.1604L181.758 60.7863L173.478 72.6118L161.316 70.1835L167.634 61.1604L166.849 60.7863L153.772 79.4625L132.478 75.2106L132.265 75.938L153.3 80.1382L150.541 84.0773L127.345 79.446L127.132 80.1734L150.069 84.753L120.605 126.831L121.391 127.205L150.988 84.9363L156.558 86.0483L143.727 104.373L144.512 104.747L157.949 85.5567L151.459 84.2606L154.218 80.3215L166.379 82.7498L135.514 126.83L136.299 127.204L157.476 96.9608L185.301 102.516L168.276 126.83L169.061 127.204L186.22 102.7L210.114 107.471L196.558 126.83L197.344 127.204L211.033 107.654L247.413 114.918L247.627 114.191ZM232.59 75.3723L218.715 95.1881L194.821 90.4177L208.696 70.6018L232.59 75.3723ZM201.749 79.0262L195.597 87.8136L167.771 82.2582L173.924 73.4716L201.749 79.0262ZM206.083 72.8362L202.222 78.3513L191.425 76.1961L195.286 70.6811L206.083 72.8362ZM178.258 67.2808L194.368 70.4971L190.506 76.0121L174.396 72.7958L178.258 67.2808ZM154.689 79.6458L160.842 70.8592L173.003 73.2875L166.851 82.0741L154.689 79.6458ZM157.948 96.2859L167.298 82.9331L195.123 88.4885L185.773 101.841L157.948 96.2859ZM190.328 96.8329L203.546 99.4475L199.895 104.661L186.692 102.025L190.328 96.8329ZM200.815 104.844L204.94 98.9536L190.803 96.1564L194.348 91.0926L218.243 95.8631L210.588 106.795L200.815 104.844Z" fill="#DBF0FF"/>
</g>
<path d="M170.737 61.5537L168.871 70.0642L184.355 61.5537H170.737Z" fill="#7691FF"/>
<path d="M168.672 38.3806H145.508C143.706 38.3806 142.246 39.5854 142.246 41.0715V55.8221C142.246 57.3083 143.706 58.513 145.508 58.513H158.821C160.012 58.513 161.109 59.0488 161.681 59.9101L168.429 70.0646C168.534 70.2232 168.81 70.2232 168.916 70.0646L175.663 59.9101C176.235 59.0488 177.332 58.513 178.523 58.513H191.837C193.638 58.513 195.098 57.3083 195.098 55.8221V41.0708C195.098 39.5847 193.638 38.3799 191.837 38.3799L168.672 38.3806Z" fill="#E6F1FF"/>
<path d="M187.053 44.1787H164.586V47.3665H187.053V44.1787Z" fill="#7B1A8E"/>
<path d="M179.329 50.0264H164.586V53.2141H179.329V50.0264Z" fill="#7B1A8E"/>
<path d="M152.453 43.2048C150.865 43.3395 149.501 44.319 149.124 45.5986C148.906 46.3364 149.019 47.0353 149.342 47.64L152.096 52.9439C152.384 53.4977 153.335 53.4977 153.622 52.9439L156.379 47.6407C156.379 47.6407 156.707 46.8168 156.707 46.3611C156.707 44.4978 154.76 43.0094 152.453 43.2048ZM152.859 47.6415C152.003 47.6415 151.308 47.0683 151.308 46.3619C151.308 45.6555 152.003 45.0823 152.859 45.0823C153.716 45.0823 154.41 45.6555 154.41 46.3619C154.41 47.0683 153.716 47.6415 152.859 47.6415Z" fill="#E07ED0"/>
<path d="M387.622 36.5391C369.663 36.5391 355.105 48.5494 355.105 63.365C355.105 78.1807 369.663 90.191 387.622 90.191C405.58 90.191 420.138 78.1807 420.138 63.365C420.138 48.5494 405.58 36.5391 387.622 36.5391ZM387.622 82.3338C374.923 82.3338 364.629 73.8413 364.629 63.365C364.629 52.8888 374.923 44.3963 387.622 44.3963C400.32 44.3963 410.614 52.8888 410.614 63.365C410.614 73.8413 400.32 82.3338 387.622 82.3338Z" fill="#7B1A8E"/>
<path d="M387.637 79.6309C376.766 79.6309 367.922 72.3342 367.922 63.3657C367.922 54.3973 376.766 47.1006 387.637 47.1006C398.508 47.1006 407.353 54.3973 407.353 63.3657C407.354 72.3342 398.509 79.6309 387.637 79.6309ZM387.637 47.6611C377.141 47.6611 368.602 54.7064 368.602 63.365C368.602 72.0244 377.141 79.0689 387.637 79.0689C398.133 79.0689 406.672 72.0236 406.672 63.365C406.673 54.7064 398.134 47.6611 387.637 47.6611Z" fill="#7B1A8E"/>
<path d="M387.633 36.5391V44.3963C400.331 44.3963 410.625 52.8888 410.625 63.365C410.625 73.8413 400.331 82.3338 387.633 82.3338C378.74 82.3338 371.032 78.1658 367.207 72.0716L358.746 75.6776C364.155 84.2966 375.056 90.191 387.633 90.191C405.591 90.191 420.149 78.1807 420.149 63.365C420.149 48.5494 405.591 36.5391 387.633 36.5391Z" fill="#E07ED0"/>
<path d="M375.829 67.0009L378.814 61.4432H375.051V59.8389H381.323V60.9815L378.261 67.0001L375.829 67.0009Z" fill="#7B1A8E"/>
<path d="M388.391 67.0011H382.083V65.7252L384.206 63.9547C384.813 63.4316 385.208 63.074 385.395 62.8831C385.582 62.6916 385.712 62.5269 385.785 62.39C385.859 62.2531 385.895 62.1086 385.895 61.9582C385.895 61.7719 385.821 61.6245 385.675 61.5167C385.528 61.4082 385.322 61.3551 385.057 61.3551C384.783 61.3551 384.506 61.4195 384.227 61.5489C383.947 61.6784 383.632 61.8684 383.279 62.1206L381.988 60.8747C382.436 60.5447 382.813 60.3082 383.118 60.166C383.423 60.0239 383.755 59.9146 384.114 59.8398C384.474 59.765 384.876 59.7275 385.324 59.7275C385.887 59.7275 386.389 59.8091 386.831 59.973C387.273 60.1369 387.616 60.3696 387.86 60.6719C388.104 60.9742 388.226 61.3139 388.226 61.6896C388.226 61.971 388.182 62.2306 388.097 62.4693C388.012 62.708 387.88 62.943 387.702 63.1735C387.523 63.404 387.286 63.6464 386.992 63.9016C386.696 64.1568 386.066 64.6409 385.103 65.3533V65.4019H388.391V67.0011Z" fill="#7B1A8E"/>
<path d="M393.554 61.9677C393.554 62.6869 393.357 63.2443 392.965 63.6379C392.572 64.0323 392.014 64.2291 391.288 64.2291C390.606 64.2291 390.066 64.0256 389.668 63.6185C389.269 63.2114 389.07 62.6614 389.07 61.9677C389.07 61.2486 389.265 60.6949 389.654 60.3072C390.043 59.9196 390.587 59.7266 391.289 59.7266C391.983 59.7266 392.533 59.9279 392.942 60.3297C393.35 60.7315 393.554 61.2778 393.554 61.9677ZM390.86 61.9872C390.86 62.3636 390.897 62.6345 390.972 62.8013C391.048 62.9682 391.161 63.052 391.312 63.052C391.462 63.052 391.574 62.9705 391.647 62.8066C391.721 62.6427 391.757 62.3703 391.757 61.9872C391.757 61.6108 391.721 61.3392 391.647 61.173C391.574 61.0062 391.462 60.9231 391.312 60.9231C391.156 60.9231 391.043 61.0084 390.97 61.1783C390.897 61.3481 390.86 61.6175 390.86 61.9872ZM397.889 59.8291L393.067 67.0008H391.302L396.123 59.8291H397.889ZM400.165 64.8225C400.165 65.5386 399.967 66.0939 399.574 66.4882C399.179 66.8826 398.621 67.0794 397.899 67.0794C397.218 67.0794 396.678 66.8759 396.279 66.4688C395.881 66.0617 395.683 65.5132 395.683 64.8233C395.683 64.1041 395.877 63.5504 396.266 63.1628C396.654 62.7752 397.198 62.5813 397.9 62.5813C398.595 62.5813 399.146 62.7826 399.554 63.1845C399.961 63.5863 400.165 64.1326 400.165 64.8225ZM397.472 64.842C397.472 65.2176 397.51 65.4893 397.586 65.6561C397.661 65.823 397.773 65.9061 397.924 65.9061C398.094 65.9061 398.212 65.8103 398.279 65.6195C398.344 65.4279 398.376 65.169 398.376 64.842C398.376 64.515 398.344 64.256 398.279 64.0645C398.213 63.8737 398.095 63.7779 397.924 63.7779C397.77 63.7779 397.655 63.8632 397.582 64.0331C397.509 64.2029 397.472 64.4731 397.472 64.842Z" fill="#7B1A8E"/>
<defs>
<linearGradient id="paint0_linear_690_3677" x1="256.528" y1="294.201" x2="443.123" y2="294.201" gradientUnits="userSpaceOnUse">
<stop stop-color="#9431AF"/>
<stop offset="1" stop-color="#3D0067"/>
</linearGradient>
<linearGradient id="paint1_linear_690_3677" x1="449.476" y1="186.083" x2="449.357" y2="186.078" gradientUnits="userSpaceOnUse">
<stop stop-color="#FFDADB"/>
<stop offset="1" stop-color="#FFDADB" stop-opacity="0"/>
</linearGradient>
<linearGradient id="paint2_linear_690_3677" x1="439.659" y1="209.105" x2="420.669" y2="202.528" gradientUnits="userSpaceOnUse">
<stop stop-color="#432B99"/>
<stop offset="1" stop-color="#432B99" stop-opacity="0"/>
</linearGradient>
</defs>
</svg>
