<svg width="394" height="322" viewBox="0 0 394 322" fill="none" xmlns="http://www.w3.org/2000/svg">
<g filter="url(#filter0_f_495_11779)">
<circle cx="234.5" cy="159.5" r="87.5" fill="white" fill-opacity="0.56"/>
</g>
<path d="M78.4149 308.998C55.4342 304.521 25.7741 279.424 15.7862 250.354C9.90145 233.226 12.8776 203.252 19.1284 186.253C27.0211 164.79 48.7386 149.171 71.5978 148.517C94.457 147.864 117.031 162.217 126.137 183.194C129.868 191.79 131.425 201.728 128.301 210.562C125.178 219.397 116.601 226.616 107.238 226.223C99.1775 225.884 92.0856 220.121 88.2034 213.048C84.3211 205.976 83.1573 197.748 82.6363 189.697C80.9525 163.677 85.4908 136.951 97.9024 114.02C110.314 91.0888 130.937 72.2362 155.731 64.1617C180.524 56.0875 209.32 59.5867 230.169 75.2456C246.258 87.3292 256.802 105.578 263.298 124.622C269.707 143.413 272.551 163.759 268.812 183.257C265.073 202.756 254.276 221.307 237.611 232.099C230.039 237.002 219.257 239.922 212.549 233.891C208.042 229.839 207.109 222.899 208.736 217.061C210.363 211.223 214.108 206.237 217.876 201.49C232.202 183.44 250.8 170.031 273.777 168.266C292.305 166.843 311.191 172.734 321.64 186.758C353.301 229.253 325.66 307.192 311.749 311.259" stroke="black" stroke-width="1.5016" stroke-miterlimit="10" stroke-linecap="round" stroke-linejoin="round" stroke-dasharray="19.25 19.25"/>
<path d="M13.4991 214.679C13.2879 215.09 13.0959 215.497 12.8739 215.887C12.7025 216.187 12.5175 216.487 12.2913 216.746C12.1638 216.892 11.9363 217.043 11.7627 217.033C11.5023 217.019 11.4621 216.725 11.4354 216.505C11.3952 216.171 11.3717 215.832 11.3762 215.496C11.3824 215.046 11.4219 214.596 11.4489 214.119C11.1614 214.107 10.8739 214.092 10.5861 214.081C9.16002 214.028 7.73363 213.976 6.30724 213.923C5.88881 213.907 5.83061 213.818 5.97193 213.417C6.09386 213.071 6.19846 212.718 6.34637 212.384C6.40664 212.248 6.5407 212.1 6.67613 212.049C8.29269 211.44 9.91341 210.842 11.539 210.258C11.8105 210.16 11.9529 210.033 12.0225 209.733C12.5799 207.325 13.16 204.923 13.7326 202.519C13.7603 202.402 13.7839 202.284 13.8154 202.139C13.0367 202.109 12.2799 202.078 11.523 202.05C7.82611 201.911 4.12953 201.772 0.432602 201.633C-0.0253137 201.616 -0.0803932 201.532 0.0855234 201.101C0.281229 200.593 0.485943 200.087 0.672642 199.576C0.741572 199.386 0.855531 199.299 1.04881 199.248C5.73951 198.009 10.4281 196.764 15.1192 195.526C15.3315 195.47 15.4392 195.386 15.4922 195.157C15.9117 193.344 16.3235 191.529 16.7891 189.728C17.0814 188.597 17.5889 187.557 18.4957 186.772C19.5023 185.9 20.796 186.244 21.2325 187.497C21.6211 188.612 21.5452 189.751 21.2359 190.856C20.724 192.683 20.1445 194.492 19.5833 196.305C19.5251 196.494 19.558 196.608 19.6938 196.744C23.1043 200.169 26.5096 203.6 29.9211 207.023C30.1112 207.214 30.1926 207.391 30.1351 207.667C30.0281 208.181 29.9633 208.705 29.8785 209.224C29.8137 209.621 29.7042 209.676 29.3565 209.489C27.0634 208.26 24.7707 207.031 22.478 205.802C20.8972 204.954 19.3163 204.106 17.7354 203.259C17.6699 203.224 17.6027 203.192 17.5089 203.144C17.4711 203.261 17.4354 203.364 17.4039 203.469C16.6696 205.878 15.9384 208.287 15.1964 210.694C15.1334 210.898 15.1569 211.036 15.293 211.199C16.4032 212.535 17.5009 213.881 18.6128 215.215C18.779 215.415 18.8414 215.601 18.7756 215.855C18.6935 216.172 18.647 216.499 18.5847 216.823C18.4998 217.261 18.4112 217.304 18.025 217.096C16.6013 216.333 15.1777 215.569 13.7541 214.806C13.672 214.763 13.5882 214.723 13.4991 214.679Z" fill="#050504"/>
<path d="M233.294 75.9856C233.635 76.2991 233.975 76.5925 234.292 76.9105C234.536 77.1557 234.775 77.4141 234.964 77.7009C235.071 77.8623 235.156 78.1221 235.1 78.287C235.017 78.5343 234.723 78.4948 234.504 78.4616C234.172 78.4113 233.838 78.3435 233.515 78.2496C233.083 78.1238 232.661 77.9655 232.208 77.8124C232.12 78.0861 232.029 78.3594 231.942 78.6341C231.51 79.9943 231.08 81.3552 230.648 82.7158C230.522 83.1148 230.42 83.1474 230.071 82.9039C229.771 82.6943 229.458 82.4993 229.176 82.2676C229.061 82.1734 228.954 82.0043 228.94 81.8606C228.785 80.1401 228.641 78.4186 228.511 76.6964C228.489 76.4086 228.404 76.2375 228.133 76.0906C225.962 74.9115 223.801 73.712 221.637 72.519C221.532 72.4612 221.424 72.4072 221.293 72.3382C221.056 73.0805 220.825 73.8017 220.596 74.5236C219.476 78.0494 218.357 81.5755 217.238 85.1017C217.099 85.5385 217.003 85.569 216.632 85.2943C216.194 84.9701 215.762 84.6379 215.318 84.3216C215.154 84.2046 215.1 84.0716 215.103 83.8717C215.16 79.0206 215.209 74.1696 215.267 69.3185C215.27 69.0989 215.217 68.9728 215.011 68.8606C213.376 67.9728 211.736 67.0923 210.124 66.1633C209.112 65.5796 208.244 64.8135 207.729 63.73C207.158 62.5273 207.834 61.3725 209.158 61.2856C210.336 61.2083 211.414 61.5848 212.397 62.1778C214.021 63.1584 215.61 64.1993 217.207 65.2232C217.374 65.3299 217.493 65.3282 217.661 65.2336C221.871 62.8595 226.085 60.4923 230.294 58.1169C230.529 57.9845 230.721 57.9534 230.972 58.0819C231.439 58.3223 231.926 58.5242 232.404 58.7442C232.769 58.9125 232.793 59.0323 232.521 59.3181C230.725 61.2003 228.929 63.0822 227.133 64.9645C225.894 66.262 224.656 67.5596 223.417 68.8574C223.366 68.9111 223.318 68.9672 223.247 69.0455C223.349 69.1131 223.439 69.1747 223.531 69.2333C225.657 70.5831 227.785 71.9302 229.906 73.287C230.086 73.402 230.225 73.4162 230.419 73.3289C232.002 72.615 233.592 71.9156 235.175 71.2C235.412 71.093 235.607 71.0826 235.835 71.2139C236.12 71.3777 236.422 71.5097 236.717 71.6559C237.116 71.8543 237.134 71.9513 236.831 72.2683C235.716 73.4366 234.601 74.6053 233.486 75.774C233.422 75.8419 233.361 75.9118 233.294 75.9856Z" fill="#050504"/>
<path d="M83.2969 70.272V108.137C83.2969 114.106 88.1345 118.943 94.1026 118.943H157.803C163.771 118.943 168.609 114.105 168.609 108.137V70.272H83.2969Z" fill="white" stroke="#222221" stroke-width="1.6712" stroke-miterlimit="10"/>
<path d="M168.609 70.18C168.609 64.2122 163.771 59.3739 157.803 59.3739H94.1026C88.1348 59.3739 83.2969 64.2122 83.2969 70.18V70.2711H168.609V70.18Z" fill="#F0A100"/>
<path d="M168.609 70.18C168.609 64.2122 163.771 59.3739 157.803 59.3739H94.1026C88.1348 59.3739 83.2969 64.2122 83.2969 70.18V70.2711H168.609V70.18Z" stroke="#222221" stroke-width="1.8354" stroke-miterlimit="10"/>
<path d="M168.609 70.18C168.609 64.2122 163.771 59.3739 157.803 59.3739H94.1026C88.1348 59.3739 83.2969 64.2122 83.2969 70.18V70.2711H168.609V70.18Z" stroke="#222221" stroke-width="1.6712" stroke-miterlimit="10"/>
<path d="M91.7221 63.4873C92.6926 62.5168 94.2662 62.5168 95.2368 63.4873C96.2073 64.4579 96.2073 66.0315 95.2368 67.0021C94.2662 67.9726 92.6926 67.9726 91.7221 67.0021C90.7515 66.0315 90.7515 64.4579 91.7221 63.4873Z" fill="white" stroke="#222221" stroke-width="1.6712" stroke-miterlimit="10"/>
<path d="M100.017 63.4873C100.988 62.5168 102.561 62.5168 103.532 63.4873C104.502 64.4579 104.502 66.0315 103.532 67.0021C102.561 67.9726 100.988 67.9726 100.017 67.0021C99.0464 66.0315 99.0464 64.4579 100.017 63.4873Z" fill="white" stroke="#222221" stroke-width="1.6712" stroke-miterlimit="10"/>
<path d="M108.312 63.4873C109.282 62.5168 110.856 62.5168 111.827 63.4873C112.797 64.4579 112.797 66.0315 111.827 67.0021C110.856 67.9726 109.282 67.9726 108.312 67.0021C107.341 66.0315 107.341 64.4579 108.312 63.4873Z" fill="white" stroke="#222221" stroke-width="1.6712" stroke-miterlimit="10"/>
<path d="M128.165 113.133H94.3631C92.4635 113.133 90.9238 111.593 90.9238 109.693V76.9809C90.9238 75.0813 92.4635 73.5416 94.3631 73.5416H128.165C130.065 73.5416 131.605 75.0813 131.605 76.9809V109.693C131.605 111.593 130.065 113.133 128.165 113.133Z" fill="white" stroke="#222221" stroke-width="1.6712" stroke-miterlimit="10"/>
<path d="M162.797 77.3999H136.135V82.7127H162.797V77.3999Z" fill="#AAD0FF"/>
<path d="M162.797 85.343H136.135V90.6558H162.797V85.343Z" fill="#AAD0FF"/>
<path d="M162.797 93.2853H136.135V98.5981H162.797V93.2853Z" fill="#AAD0FF"/>
<path d="M161.708 101.776H155.941V105.544H161.708V101.776Z" fill="#C8B7FA"/>
<path d="M136.135 90.6558V85.343H162.797" fill="#AAD0FF"/>
<path d="M162.797 98.5984H136.135V93.2853" fill="#AAD0FF"/>
<path d="M161.708 101.776H155.941V105.544H161.708V101.776Z" fill="#C8B7FA"/>
<path d="M162.797 77.3999H136.135V82.7127H162.797V77.3999Z" stroke="#222221" stroke-width="1.6712" stroke-miterlimit="10"/>
<path d="M162.797 85.343H136.135V90.6558H162.797V85.343Z" stroke="#222221" stroke-width="1.6712" stroke-miterlimit="10"/>
<path d="M162.797 93.2853H136.135V98.5981H162.797V93.2853Z" stroke="#222221" stroke-width="1.6712" stroke-miterlimit="10"/>
<path d="M161.708 101.776H155.941V105.544H161.708V101.776Z" stroke="#222221" stroke-width="1.6712" stroke-miterlimit="10"/>
<path d="M136.135 77.3999H162.797" stroke="#222221" stroke-width="1.6712" stroke-miterlimit="10"/>
<path d="M136.135 90.6558V85.343H162.797" stroke="#222221" stroke-width="1.6712" stroke-miterlimit="10"/>
<path d="M162.797 98.5984H136.135V93.2853" stroke="#222221" stroke-width="1.6712" stroke-miterlimit="10"/>
<path d="M161.708 101.776H155.941V105.544H161.708V101.776Z" stroke="#222221" stroke-width="1.6712" stroke-miterlimit="10"/>
<path d="M120.601 80.1709H100.987L95.1035 91.8845H114.718L120.601 80.1709Z" fill="#F48EBE"/>
<path d="M120.601 80.1709H100.987L95.1035 91.8845H114.718L120.601 80.1709Z" stroke="#222221" stroke-width="1.6712" stroke-miterlimit="10"/>
<path d="M114.718 91.8834H95.1035V108.773H114.718V91.8834Z" fill="white" stroke="#222221" stroke-width="1.4846" stroke-miterlimit="10"/>
<path d="M120.6 80.1709L114.717 91.8845V108.774H128.338V90.7948L120.6 80.1709Z" fill="white" stroke="#222221" stroke-width="1.4846" stroke-miterlimit="10"/>
<path d="M266.082 114.13L269.245 120.538L276.316 121.565L271.199 126.553L272.407 133.596L266.082 130.271L259.757 133.596L260.965 126.553L255.848 121.565L262.919 120.538L266.082 114.13Z" fill="#F0A100"/>
<path d="M290.187 114.13L293.35 120.538L300.421 121.565L295.304 126.553L296.512 133.596L290.187 130.271L283.862 133.596L285.07 126.553L279.953 121.565L287.025 120.538L290.187 114.13Z" fill="#F0A100"/>
<path d="M314.293 114.13L317.455 120.538L324.527 121.565L319.41 126.553L320.618 133.596L314.293 130.271L307.968 133.596L309.176 126.553L304.059 121.565L311.13 120.538L314.293 114.13Z" fill="#F0A100"/>
<path d="M115.935 134.925C115.935 134.925 66.5218 220.172 130.672 288.236L132.359 252.723C132.359 252.723 104.278 198.47 138.428 139.939C140.949 135.62 136.289 130.501 131.254 131.595L115.935 134.925Z" fill="#F48EBE"/>
<path d="M115.936 134.923L131.423 192.511L152.415 176.18L146.062 138.117C145.214 133.035 140.064 129.678 134.853 130.811L115.936 134.923Z" fill="#F48EBE"/>
<path d="M244.694 135.249C244.694 135.249 294.107 220.496 229.956 288.56L228.269 253.047C228.269 253.047 256.35 198.795 222.2 140.264C219.68 135.945 224.34 130.825 229.375 131.92L244.694 135.249Z" fill="#F48EBE"/>
<path d="M115.935 134.925C115.935 134.925 66.5218 220.172 130.672 288.236L132.359 252.723C132.359 252.723 104.278 198.47 138.428 139.939C140.949 135.62 136.289 130.501 131.254 131.595L115.935 134.925Z" stroke="#222221" stroke-width="1.8354" stroke-miterlimit="10"/>
<path d="M244.694 135.249C244.694 135.249 294.107 220.496 229.956 288.56L228.269 253.047C228.269 253.047 256.35 198.795 222.2 140.264C219.68 135.945 224.34 130.825 229.375 131.92L244.694 135.249Z" stroke="#222221" stroke-width="1.8354" stroke-miterlimit="10"/>
<path d="M244.694 135.251L229.207 192.839L208.215 176.508L214.567 138.445C215.415 133.362 220.566 130.006 225.777 131.139L244.694 135.251Z" fill="#F48EBE"/>
<path d="M115.936 134.923L131.423 192.511L152.415 176.18L146.062 138.117C145.214 133.035 140.064 129.678 134.853 130.811L115.936 134.923Z" stroke="#222221" stroke-width="1.8354" stroke-miterlimit="10"/>
<path d="M244.694 135.251L229.207 192.839L208.215 176.508L214.567 138.445C215.415 133.362 220.566 130.006 225.777 131.139L244.694 135.251Z" stroke="#222221" stroke-width="1.8354" stroke-miterlimit="10"/>
<path d="M179.893 125.562C166.013 125.562 154.762 136.813 154.762 150.692C154.762 164.572 166.013 175.823 179.893 175.823C193.772 175.823 205.023 164.572 205.023 150.692C205.023 136.813 193.772 125.562 179.893 125.562ZM179.893 166.403C171.216 166.403 164.182 159.37 164.182 150.692C164.182 142.016 171.216 134.982 179.893 134.982C188.57 134.982 195.604 142.016 195.604 150.692C195.603 159.37 188.569 166.403 179.893 166.403Z" fill="black"/>
<path d="M216.617 312.249H143.163C126.614 312.249 113.7 298.858 114.308 282.615L117.886 186.973C118.42 172.711 131.126 161.329 146.273 161.329H213.507C228.654 161.329 241.36 172.711 241.893 186.973L245.472 282.615C246.08 298.858 233.165 312.249 216.617 312.249Z" fill="url(#paint0_linear_495_11779)"/>
<path d="M216.617 312.249H143.163C126.614 312.249 113.7 298.858 114.308 282.615L117.886 186.973C118.42 172.711 131.126 161.329 146.273 161.329H213.507C228.654 161.329 241.36 172.711 241.893 186.973L245.472 282.615C246.08 298.858 233.165 312.249 216.617 312.249Z" stroke="#222221" stroke-width="1.8354" stroke-miterlimit="10"/>
<path d="M128.774 240.842L127.649 272.236C127.165 285.751 137.452 296.893 150.634 296.893H209.144C222.326 296.893 232.613 285.751 232.129 272.236L231.004 240.842H128.774Z" fill="url(#paint1_linear_495_11779)"/>
<path d="M128.774 240.842L127.649 272.236C127.165 285.751 137.452 296.893 150.634 296.893H209.144C222.326 296.893 232.613 285.751 232.129 272.236L231.004 240.842H128.774Z" stroke="#222221" stroke-width="1.8354" stroke-miterlimit="10"/>
<path d="M211.597 220.816H146.987C130.13 220.816 116.465 207.151 116.465 190.294V162.542C116.465 153.355 123.913 145.907 133.1 145.907H225.484C234.671 145.907 242.119 153.355 242.119 162.542V190.294C242.119 207.151 228.454 220.816 211.597 220.816Z" fill="url(#paint2_linear_495_11779)"/>
<path d="M211.597 220.816H146.987C130.13 220.816 116.465 207.151 116.465 190.294V162.542C116.465 153.355 123.913 145.907 133.1 145.907H225.484C234.671 145.907 242.119 153.355 242.119 162.542V190.294C242.119 207.151 228.454 220.816 211.597 220.816Z" stroke="#222221" stroke-width="1.8354" stroke-miterlimit="10"/>
<path d="M213.437 274.613H145.885C134.164 274.613 124.662 265.111 124.662 253.39V245.938C124.662 239.55 129.841 234.371 136.229 234.371H223.093C229.481 234.371 234.66 239.55 234.66 245.938V253.39C234.66 265.111 225.158 274.613 213.437 274.613Z" fill="url(#paint3_linear_495_11779)"/>
<path d="M213.437 274.613H145.885C134.164 274.613 124.662 265.111 124.662 253.39V245.938C124.662 239.55 129.841 234.371 136.229 234.371H223.093C229.481 234.371 234.66 239.55 234.66 245.938V253.39C234.66 265.111 225.158 274.613 213.437 274.613Z" stroke="#222221" stroke-width="1.8354" stroke-miterlimit="10"/>
<path d="M162.494 195.769H147.336V284.325H162.494V195.769Z" fill="black"/>
<path d="M156.929 247.924H152.441V259.293H156.929V247.924Z" fill="#F0A100"/>
<path d="M162.268 246.042H147.104C143.539 246.042 140.648 248.933 140.648 252.498V260.729C140.648 264.294 143.539 267.184 147.104 267.184H162.268C165.833 267.184 168.724 264.294 168.724 260.729V252.498C168.724 248.933 165.833 246.042 162.268 246.042ZM163.785 259.318C163.785 261.378 161.862 263.049 159.489 263.049H150.282C147.91 263.049 145.986 261.378 145.986 259.318V254.561C145.986 252.5 147.91 250.829 150.282 250.829H159.489C161.862 250.829 163.785 252.5 163.785 254.561V259.318Z" fill="#F0A100"/>
<path d="M162.268 246.042H147.104C143.539 246.042 140.648 248.933 140.648 252.498V260.729C140.648 264.294 143.539 267.184 147.104 267.184H162.268C165.833 267.184 168.724 264.294 168.724 260.729V252.498C168.724 248.933 165.833 246.042 162.268 246.042ZM163.785 259.318C163.785 261.378 161.862 263.049 159.489 263.049H150.282C147.91 263.049 145.986 261.378 145.986 259.318V254.561C145.986 252.5 147.91 250.829 150.282 250.829H159.489C161.862 250.829 163.785 252.5 163.785 254.561V259.318Z" stroke="#222221" stroke-width="1.8354" stroke-miterlimit="10"/>
<path d="M160.102 208.964H157.345C157.219 208.964 157.116 208.861 157.116 208.735C157.116 208.609 157.219 208.505 157.345 208.505H159.872V205.852C159.872 205.726 159.976 205.623 160.102 205.623C160.228 205.623 160.332 205.726 160.332 205.852V208.609C160.332 208.632 160.33 208.652 160.323 208.673C160.33 208.691 160.332 208.712 160.332 208.735C160.332 208.861 160.228 208.964 160.102 208.964ZM154.587 208.964H151.83C151.704 208.964 151.6 208.861 151.6 208.735C151.6 208.609 151.704 208.505 151.83 208.505H154.587C154.713 208.505 154.816 208.609 154.816 208.735C154.816 208.861 154.713 208.964 154.587 208.964ZM149.73 208.306C149.604 208.306 149.5 208.203 149.5 208.077V205.32C149.5 205.194 149.604 205.09 149.73 205.09C149.856 205.09 149.959 205.194 149.959 205.32V208.077C149.959 208.203 149.856 208.306 149.73 208.306ZM160.102 203.323C159.976 203.323 159.872 203.22 159.872 203.094V200.337C159.872 200.211 159.976 200.107 160.102 200.107C160.228 200.107 160.332 200.211 160.332 200.337V203.094C160.332 203.22 160.228 203.323 160.102 203.323ZM149.73 202.791C149.604 202.791 149.5 202.688 149.5 202.562V199.805C149.5 199.679 149.604 199.575 149.73 199.575C149.856 199.575 149.959 199.679 149.959 199.805V202.562C149.959 202.688 149.856 202.791 149.73 202.791ZM159.317 198.592H156.561C156.435 198.592 156.331 198.489 156.331 198.363C156.331 198.237 156.435 198.133 156.561 198.133H159.317C159.444 198.133 159.547 198.237 159.547 198.363C159.547 198.489 159.444 198.592 159.317 198.592ZM153.802 198.592H151.046C150.919 198.592 150.816 198.489 150.816 198.363C150.816 198.237 150.92 198.133 151.046 198.133H153.802C153.929 198.133 154.032 198.237 154.032 198.363C154.032 198.489 153.928 198.592 153.802 198.592Z" fill="#F5EFE8"/>
<path d="M159.478 208.342C159.42 208.342 159.359 208.319 159.314 208.275L157.365 206.326C157.276 206.235 157.276 206.09 157.365 205.999C157.456 205.912 157.601 205.912 157.692 205.999L159.641 207.948C159.73 208.04 159.73 208.184 159.641 208.275C159.596 208.319 159.536 208.342 159.478 208.342ZM155.579 204.443C155.521 204.443 155.461 204.42 155.415 204.377L153.464 202.425C153.375 202.334 153.375 202.189 153.464 202.098C153.555 202.011 153.7 202.011 153.791 202.098L155.742 204.05C155.831 204.141 155.831 204.286 155.742 204.377C155.697 204.42 155.637 204.443 155.579 204.443ZM151.678 200.542C151.62 200.542 151.56 200.519 151.514 200.476L149.565 198.526C149.476 198.435 149.476 198.29 149.565 198.199C149.656 198.112 149.801 198.112 149.892 198.199L151.841 200.149C151.93 200.24 151.93 200.385 151.841 200.476C151.796 200.519 151.736 200.542 151.678 200.542Z" fill="#F5EFE8"/>
<path d="M150.349 208.342C150.292 208.342 150.231 208.319 150.186 208.275C150.097 208.184 150.097 208.04 150.186 207.948L152.135 205.999C152.226 205.912 152.371 205.912 152.462 205.999C152.551 206.09 152.551 206.235 152.462 206.326L150.513 208.275C150.468 208.319 150.407 208.342 150.349 208.342ZM154.248 204.443C154.19 204.443 154.131 204.42 154.085 204.377C153.996 204.286 153.996 204.141 154.085 204.05L156.036 202.098C156.127 202.011 156.272 202.011 156.363 202.098C156.452 202.189 156.452 202.334 156.363 202.425L154.412 204.377C154.366 204.42 154.306 204.443 154.248 204.443ZM158.15 200.542C158.092 200.542 158.032 200.519 157.986 200.476C157.897 200.385 157.897 200.24 157.986 200.149L159.936 198.199C160.027 198.112 160.171 198.112 160.263 198.199C160.352 198.29 160.352 198.435 160.263 198.526L158.313 200.476C158.267 200.519 158.207 200.542 158.15 200.542Z" fill="#F5EFE8"/>
<path d="M160.102 281.964H157.345C157.219 281.964 157.116 281.86 157.116 281.734C157.116 281.608 157.219 281.504 157.345 281.504H159.872V278.852C159.872 278.725 159.976 278.622 160.102 278.622C160.228 278.622 160.332 278.725 160.332 278.852V281.608C160.332 281.631 160.33 281.651 160.323 281.672C160.33 281.691 160.332 281.711 160.332 281.734C160.332 281.86 160.228 281.964 160.102 281.964ZM154.587 281.964H151.83C151.704 281.964 151.6 281.86 151.6 281.734C151.6 281.608 151.704 281.504 151.83 281.504H154.587C154.713 281.504 154.816 281.608 154.816 281.734C154.816 281.86 154.713 281.964 154.587 281.964ZM149.73 281.306C149.604 281.306 149.5 281.202 149.5 281.076V278.319C149.5 278.193 149.604 278.09 149.73 278.09C149.856 278.09 149.959 278.193 149.959 278.319V281.076C149.959 281.202 149.856 281.306 149.73 281.306ZM160.102 276.322C159.976 276.322 159.872 276.219 159.872 276.093V273.336C159.872 273.21 159.976 273.106 160.102 273.106C160.228 273.106 160.332 273.21 160.332 273.336V276.093C160.332 276.219 160.228 276.322 160.102 276.322ZM149.73 275.791C149.604 275.791 149.5 275.687 149.5 275.561V272.804C149.5 272.678 149.604 272.575 149.73 272.575C149.856 272.575 149.959 272.678 149.959 272.804V275.561C149.959 275.687 149.856 275.791 149.73 275.791ZM159.317 271.591H156.561C156.435 271.591 156.331 271.488 156.331 271.362C156.331 271.235 156.435 271.132 156.561 271.132H159.317C159.444 271.132 159.547 271.236 159.547 271.362C159.547 271.488 159.444 271.591 159.317 271.591ZM153.802 271.591H151.046C150.919 271.591 150.816 271.488 150.816 271.362C150.816 271.235 150.92 271.132 151.046 271.132H153.802C153.929 271.132 154.032 271.236 154.032 271.362C154.032 271.488 153.928 271.591 153.802 271.591Z" fill="#F5EFE8"/>
<path d="M159.478 281.341C159.42 281.341 159.359 281.318 159.314 281.275L157.365 279.325C157.276 279.234 157.276 279.09 157.365 278.998C157.456 278.911 157.601 278.911 157.692 278.998L159.641 280.948C159.73 281.039 159.73 281.184 159.641 281.275C159.596 281.318 159.536 281.341 159.478 281.341ZM155.579 277.442C155.521 277.442 155.461 277.419 155.415 277.376L153.464 275.424C153.375 275.333 153.375 275.188 153.464 275.097C153.555 275.01 153.7 275.01 153.791 275.097L155.742 277.049C155.831 277.14 155.831 277.285 155.742 277.376C155.697 277.419 155.637 277.442 155.579 277.442ZM151.678 273.541C151.62 273.541 151.56 273.518 151.514 273.475L149.565 271.525C149.476 271.434 149.476 271.289 149.565 271.198C149.656 271.111 149.801 271.111 149.892 271.198L151.841 273.148C151.93 273.239 151.93 273.384 151.841 273.475C151.796 273.518 151.736 273.541 151.678 273.541Z" fill="#F5EFE8"/>
<path d="M150.349 281.341C150.292 281.341 150.231 281.318 150.186 281.275C150.097 281.184 150.097 281.039 150.186 280.948L152.135 278.998C152.226 278.911 152.371 278.911 152.462 278.998C152.551 279.09 152.551 279.234 152.462 279.325L150.513 281.275C150.468 281.318 150.407 281.341 150.349 281.341ZM154.248 277.442C154.19 277.442 154.131 277.419 154.085 277.376C153.996 277.285 153.996 277.14 154.085 277.049L156.036 275.097C156.127 275.01 156.272 275.01 156.363 275.097C156.452 275.188 156.452 275.333 156.363 275.424L154.412 277.376C154.366 277.419 154.306 277.442 154.248 277.442ZM158.15 273.541C158.092 273.541 158.032 273.518 157.986 273.475C157.897 273.384 157.897 273.239 157.986 273.148L159.936 271.198C160.027 271.111 160.171 271.111 160.263 271.198C160.352 271.289 160.352 271.434 160.263 271.525L158.313 273.475C158.267 273.518 158.207 273.541 158.15 273.541Z" fill="#F5EFE8"/>
<path d="M216.545 195.769H201.387V284.325H216.545V195.769Z" fill="black"/>
<path d="M210.98 247.924H206.492V259.293H210.98V247.924Z" fill="#F0A100"/>
<path d="M216.319 246.042H201.155C197.589 246.042 194.699 248.933 194.699 252.498V260.729C194.699 264.294 197.589 267.184 201.155 267.184H216.319C219.884 267.184 222.774 264.294 222.774 260.729V252.498C222.774 248.933 219.884 246.042 216.319 246.042ZM217.835 259.318C217.835 261.378 215.912 263.049 213.539 263.049H204.332C201.96 263.049 200.037 261.378 200.037 259.318V254.561C200.037 252.5 201.96 250.829 204.332 250.829H213.539C215.912 250.829 217.835 252.5 217.835 254.561V259.318Z" fill="#F0A100"/>
<path d="M216.319 246.042H201.155C197.589 246.042 194.699 248.933 194.699 252.498V260.729C194.699 264.294 197.589 267.184 201.155 267.184H216.319C219.884 267.184 222.774 264.294 222.774 260.729V252.498C222.774 248.933 219.884 246.042 216.319 246.042ZM217.835 259.318C217.835 261.378 215.912 263.049 213.539 263.049H204.332C201.96 263.049 200.037 261.378 200.037 259.318V254.561C200.037 252.5 201.96 250.829 204.332 250.829H213.539C215.912 250.829 217.835 252.5 217.835 254.561V259.318Z" stroke="#222221" stroke-width="1.8354" stroke-miterlimit="10"/>
<path d="M214.151 208.965H211.394C211.268 208.965 211.165 208.862 211.165 208.736C211.165 208.61 211.268 208.506 211.394 208.506H213.921V205.853C213.921 205.727 214.025 205.623 214.151 205.623C214.277 205.623 214.381 205.727 214.381 205.853V208.61C214.381 208.632 214.378 208.653 214.372 208.674C214.378 208.692 214.381 208.713 214.381 208.736C214.381 208.862 214.277 208.965 214.151 208.965ZM208.636 208.965H205.879C205.753 208.965 205.65 208.862 205.65 208.736C205.65 208.61 205.753 208.506 205.879 208.506H208.636C208.762 208.506 208.865 208.61 208.865 208.736C208.865 208.862 208.762 208.965 208.636 208.965ZM203.778 208.307C203.652 208.307 203.549 208.204 203.549 208.078V205.321C203.549 205.195 203.652 205.091 203.778 205.091C203.905 205.091 204.008 205.195 204.008 205.321V208.078C204.008 208.204 203.905 208.307 203.778 208.307ZM214.151 203.324C214.024 203.324 213.921 203.221 213.921 203.095V200.338C213.921 200.212 214.025 200.108 214.151 200.108C214.277 200.108 214.381 200.212 214.381 200.338V203.095C214.381 203.221 214.277 203.324 214.151 203.324ZM203.778 202.792C203.652 202.792 203.549 202.689 203.549 202.563V199.806C203.549 199.68 203.652 199.576 203.778 199.576C203.905 199.576 204.008 199.68 204.008 199.806V202.563C204.008 202.689 203.905 202.792 203.778 202.792ZM213.367 198.593H210.61C210.484 198.593 210.381 198.49 210.381 198.364C210.381 198.238 210.484 198.134 210.61 198.134H213.367C213.493 198.134 213.596 198.238 213.596 198.364C213.596 198.49 213.493 198.593 213.367 198.593ZM207.851 198.593H205.095C204.968 198.593 204.865 198.49 204.865 198.364C204.865 198.238 204.969 198.134 205.095 198.134H207.851C207.977 198.134 208.081 198.238 208.081 198.364C208.081 198.49 207.978 198.593 207.851 198.593Z" fill="#F5EFE8"/>
<path d="M213.527 208.342C213.469 208.342 213.409 208.319 213.363 208.275L211.414 206.326C211.325 206.235 211.325 206.09 211.414 205.999C211.505 205.912 211.65 205.912 211.741 205.999L213.69 207.948C213.779 208.04 213.779 208.184 213.69 208.275C213.644 208.319 213.585 208.342 213.527 208.342ZM209.628 204.443C209.57 204.443 209.51 204.42 209.464 204.377L207.513 202.425C207.424 202.334 207.424 202.189 207.513 202.098C207.604 202.011 207.749 202.011 207.84 202.098L209.791 204.05C209.88 204.141 209.88 204.286 209.791 204.377C209.746 204.42 209.686 204.443 209.628 204.443ZM205.727 200.542C205.669 200.542 205.608 200.519 205.563 200.476L203.614 198.526C203.525 198.435 203.525 198.29 203.614 198.199C203.705 198.112 203.85 198.112 203.941 198.199L205.89 200.149C205.979 200.24 205.979 200.385 205.89 200.476C205.845 200.519 205.785 200.542 205.727 200.542Z" fill="#F5EFE8"/>
<path d="M204.402 208.342C204.344 208.342 204.284 208.319 204.239 208.275C204.15 208.184 204.15 208.04 204.239 207.948L206.188 205.999C206.279 205.912 206.424 205.912 206.515 205.999C206.604 206.09 206.604 206.235 206.515 206.326L204.566 208.275C204.52 208.319 204.46 208.342 204.402 208.342ZM208.301 204.443C208.243 204.443 208.183 204.42 208.138 204.377C208.048 204.286 208.048 204.141 208.138 204.05L210.089 202.098C210.18 202.011 210.325 202.011 210.416 202.098C210.505 202.189 210.505 202.334 210.416 202.425L208.465 204.377C208.419 204.42 208.359 204.443 208.301 204.443ZM212.202 200.542C212.144 200.542 212.084 200.519 212.038 200.476C211.949 200.385 211.949 200.24 212.038 200.149L213.988 198.199C214.079 198.112 214.224 198.112 214.315 198.199C214.404 198.29 214.404 198.435 214.315 198.526L212.365 200.476C212.32 200.519 212.26 200.542 212.202 200.542Z" fill="#F5EFE8"/>
<path d="M214.151 281.964H211.394C211.268 281.964 211.165 281.86 211.165 281.734C211.165 281.608 211.268 281.504 211.394 281.504H213.921V278.852C213.921 278.725 214.025 278.622 214.151 278.622C214.277 278.622 214.381 278.725 214.381 278.852V281.608C214.381 281.631 214.378 281.651 214.372 281.672C214.378 281.691 214.381 281.711 214.381 281.734C214.381 281.86 214.277 281.964 214.151 281.964ZM208.636 281.964H205.879C205.753 281.964 205.65 281.86 205.65 281.734C205.65 281.608 205.753 281.504 205.879 281.504H208.636C208.762 281.504 208.865 281.608 208.865 281.734C208.865 281.86 208.762 281.964 208.636 281.964ZM203.778 281.306C203.652 281.306 203.549 281.202 203.549 281.076V278.319C203.549 278.193 203.652 278.09 203.778 278.09C203.905 278.09 204.008 278.193 204.008 278.319V281.076C204.008 281.202 203.905 281.306 203.778 281.306ZM214.151 276.322C214.024 276.322 213.921 276.219 213.921 276.093V273.336C213.921 273.21 214.025 273.106 214.151 273.106C214.277 273.106 214.381 273.21 214.381 273.336V276.093C214.381 276.219 214.277 276.322 214.151 276.322ZM203.778 275.791C203.652 275.791 203.549 275.687 203.549 275.561V272.804C203.549 272.678 203.652 272.575 203.778 272.575C203.905 272.575 204.008 272.678 204.008 272.804V275.561C204.008 275.687 203.905 275.791 203.778 275.791ZM213.367 271.591H210.61C210.484 271.591 210.381 271.488 210.381 271.362C210.381 271.235 210.484 271.132 210.61 271.132H213.367C213.493 271.132 213.596 271.236 213.596 271.362C213.596 271.488 213.493 271.591 213.367 271.591ZM207.851 271.591H205.095C204.968 271.591 204.865 271.488 204.865 271.362C204.865 271.235 204.969 271.132 205.095 271.132H207.851C207.977 271.132 208.081 271.236 208.081 271.362C208.081 271.488 207.978 271.591 207.851 271.591Z" fill="#F5EFE8"/>
<path d="M213.527 281.341C213.469 281.341 213.409 281.318 213.363 281.275L211.414 279.326C211.325 279.234 211.325 279.09 211.414 278.999C211.505 278.912 211.65 278.912 211.741 278.999L213.69 280.948C213.779 281.039 213.779 281.184 213.69 281.275C213.644 281.318 213.585 281.341 213.527 281.341ZM209.628 277.442C209.57 277.442 209.51 277.419 209.464 277.376L207.513 275.424C207.424 275.333 207.424 275.188 207.513 275.097C207.604 275.01 207.749 275.01 207.84 275.097L209.791 277.049C209.88 277.14 209.88 277.285 209.791 277.376C209.746 277.419 209.686 277.442 209.628 277.442ZM205.727 273.541C205.669 273.541 205.608 273.518 205.563 273.475L203.614 271.525C203.525 271.434 203.525 271.289 203.614 271.198C203.705 271.111 203.85 271.111 203.941 271.198L205.89 273.148C205.979 273.239 205.979 273.384 205.89 273.475C205.845 273.518 205.785 273.541 205.727 273.541Z" fill="#F5EFE8"/>
<path d="M204.402 281.341C204.344 281.341 204.284 281.318 204.239 281.275C204.15 281.184 204.15 281.039 204.239 280.948L206.188 278.999C206.279 278.912 206.424 278.912 206.515 278.999C206.604 279.09 206.604 279.234 206.515 279.326L204.566 281.275C204.52 281.318 204.46 281.341 204.402 281.341ZM208.301 277.442C208.243 277.442 208.183 277.419 208.138 277.376C208.048 277.285 208.048 277.14 208.138 277.049L210.089 275.097C210.18 275.01 210.325 275.01 210.416 275.097C210.505 275.188 210.505 275.333 210.416 275.424L208.465 277.376C208.419 277.419 208.359 277.442 208.301 277.442ZM212.202 273.541C212.144 273.541 212.084 273.518 212.038 273.475C211.949 273.384 211.949 273.239 212.038 273.148L213.988 271.198C214.079 271.111 214.224 271.111 214.315 271.198C214.404 271.289 214.404 271.434 214.315 271.525L212.365 273.475C212.32 273.518 212.26 273.541 212.202 273.541Z" fill="#F5EFE8"/>
<path d="M196.963 175.583L184.318 162.938C182.202 160.821 178.77 160.821 176.654 162.938L164.009 175.583C161.893 177.699 161.893 181.13 164.009 183.247L176.654 195.891C178.77 198.008 182.202 198.008 184.318 195.891L196.963 183.247C199.079 181.13 199.079 177.699 196.963 175.583ZM177.817 183.143C177.817 184.471 176.74 185.548 175.412 185.548C174.083 185.548 173.007 184.471 173.007 183.143V175.687C173.007 174.359 174.083 173.282 175.412 173.282C176.74 173.282 177.817 174.359 177.817 175.687V183.143ZM187.965 183.143C187.965 184.471 186.888 185.548 185.56 185.548C184.232 185.548 183.155 184.471 183.155 183.143V175.687C183.155 174.359 184.232 173.282 185.56 173.282C186.888 173.282 187.965 174.359 187.965 175.687V183.143Z" fill="black"/>
<path d="M304.293 270.776C301.951 271.259 299.525 271.517 297.04 271.517C277.321 271.517 261.337 255.532 261.337 235.813C261.337 231.313 262.205 227.023 263.725 223.057L262.597 222.496L229.261 232.928L228.867 248.914C244.521 250.304 256.826 263.266 257.196 279.193C260.021 278.351 263.009 277.884 266.108 277.884C281.087 277.884 293.589 288.461 296.572 302.552C301.61 299.052 307.719 296.986 314.318 296.986C318.68 296.986 322.829 297.889 326.598 299.508L327.016 284.491C317.536 283.513 309.312 278.318 304.293 270.776Z" fill="#AAD0FF"/>
<path d="M297.039 271.515C299.525 271.515 301.95 271.258 304.292 270.774C309.311 278.316 317.536 283.511 327.015 284.489L328.544 229.598L291.684 236.954L263.724 223.055C262.204 227.021 261.336 231.311 261.336 235.812C261.336 255.53 277.321 271.515 297.039 271.515Z" fill="#C8B7FA"/>
<path d="M296.572 302.553C293.588 288.463 281.087 277.885 266.107 277.885C263.008 277.885 260.021 278.352 257.196 279.195C256.826 263.267 244.521 250.306 228.867 248.916L227.277 313.491L261.275 306.502L291.685 318.208L326.19 314.141L326.597 299.509C322.828 297.891 318.679 296.987 314.317 296.987C307.718 296.987 301.609 299.053 296.572 302.553Z" fill="#C8B7FA"/>
<path d="M229.26 232.933L262.597 222.501L291.685 236.961L328.545 229.605L326.189 314.145L291.685 318.211L261.275 306.506L227.277 313.495L229.26 232.933Z" stroke="#222221" stroke-width="2.4213" stroke-miterlimit="10"/>
<path d="M262.602 222.495L262.574 224.287" stroke="black" stroke-width="1.7246" stroke-linecap="round" stroke-linejoin="round"/>
<path d="M262.521 227.784L261.338 302.96" stroke="black" stroke-width="1.7246" stroke-linecap="round" stroke-linejoin="round" stroke-dasharray="10.1 10.1"/>
<path d="M261.309 304.709L261.281 306.5" stroke="black" stroke-width="1.7246" stroke-linecap="round" stroke-linejoin="round"/>
<path d="M291.689 318.21V236.96" stroke="black" stroke-width="1.7246" stroke-miterlimit="10" stroke-linecap="round" stroke-linejoin="round" stroke-dasharray="10.35 10.35"/>
<path d="M228.932 261.164L262.268 250.732L291.356 261.06L327.385 253.83" stroke="black" stroke-width="1.7246" stroke-miterlimit="10" stroke-linecap="round" stroke-linejoin="round" stroke-dasharray="10.35 10.35"/>
<path d="M227.277 292.494L261.605 286.882L292.015 299.277L327.053 291.014" stroke="black" stroke-width="1.7246" stroke-miterlimit="10" stroke-linecap="round" stroke-linejoin="round" stroke-dasharray="10.35 10.35"/>
<path d="M278.242 294.792C276.869 296.278 274.515 296.278 273.143 294.791C267.815 289.014 262.916 283.081 259.839 275.842C255.817 266.381 261.844 255.6 272.287 253.37C283.571 250.96 294.11 260.619 292.607 272.061C292.117 275.79 290.2 278.971 288.237 282.089C285.371 286.641 281.97 290.76 278.242 294.792ZM284.336 268.892C284.341 263.962 280.696 260.221 275.866 260.195C270.988 260.17 267.105 264.023 267.123 268.873C267.139 273.509 271.043 277.418 275.668 277.433C280.514 277.447 284.331 273.686 284.336 268.892Z" fill="black"/>
<path d="M112.82 275.704H88.5495C86.4359 275.704 84.7227 273.991 84.7227 271.877V260.077C84.7227 257.963 86.4359 256.25 88.5495 256.25H112.82C114.933 256.25 116.647 257.963 116.647 260.077V271.877C116.647 273.991 114.933 275.704 112.82 275.704Z" fill="black"/>
<path d="M110.118 271.079H90.7853C89.5058 271.079 88.4688 270.042 88.4688 268.763V261.62C88.4688 260.34 89.5058 259.303 90.7853 259.303H110.118C111.397 259.303 112.435 260.34 112.435 261.62V268.763C112.435 270.042 111.397 271.079 110.118 271.079Z" fill="#F0A100"/>
<path d="M132.322 312.843H68.4547C63.1381 312.843 58.8281 308.533 58.8281 303.216V277.667C58.8281 272.351 63.1381 268.041 68.4547 268.041H132.322C137.638 268.041 141.949 272.351 141.949 277.667V303.216C141.949 308.533 137.639 312.843 132.322 312.843Z" fill="black"/>
<path d="M124.857 306.369C133.49 297.736 133.49 283.739 124.857 275.106C116.224 266.473 102.227 266.473 93.5943 275.106C84.9613 283.739 84.9613 297.736 93.5943 306.369C102.227 315.002 116.224 315.002 124.857 306.369Z" fill="#5189FE"/>
<path d="M124.857 306.369C133.49 297.736 133.49 283.739 124.857 275.106C116.224 266.473 102.227 266.473 93.5943 275.106C84.9613 283.739 84.9613 297.736 93.5943 306.369C102.227 315.002 116.224 315.002 124.857 306.369Z" stroke="#222221" stroke-width="1.8083" stroke-miterlimit="10"/>
<path d="M109.232 307.148C118.297 307.148 125.646 299.799 125.646 290.734C125.646 281.669 118.297 274.32 109.232 274.32C100.167 274.32 92.8184 281.669 92.8184 290.734C92.8184 299.799 100.167 307.148 109.232 307.148Z" fill="#C8B7FA"/>
<path d="M109.232 307.148C118.297 307.148 125.646 299.799 125.646 290.734C125.646 281.669 118.297 274.32 109.232 274.32C100.167 274.32 92.8184 281.669 92.8184 290.734C92.8184 299.799 100.167 307.148 109.232 307.148Z" stroke="#222221" stroke-width="1.8083" stroke-miterlimit="10"/>
<path d="M118.147 299.659C123.074 294.732 123.074 286.743 118.147 281.816C113.22 276.889 105.231 276.889 100.304 281.816C95.3771 286.743 95.3771 294.732 100.304 299.659C105.231 304.586 113.22 304.586 118.147 299.659Z" fill="black"/>
<path d="M79.988 284.457H70.4421C68.1162 284.457 66.2305 282.572 66.2305 280.246V277.057C66.2305 274.731 68.1162 272.845 70.4421 272.845H79.988C82.314 272.845 84.1997 274.731 84.1997 277.057V280.246C84.1997 282.572 82.314 284.457 79.988 284.457Z" fill="#C8B7FA"/>
<path d="M79.988 284.457H70.4421C68.1162 284.457 66.2305 282.572 66.2305 280.246V277.057C66.2305 274.731 68.1162 272.845 70.4421 272.845H79.988C82.314 272.845 84.1997 274.731 84.1997 277.057V280.246C84.1997 282.572 82.314 284.457 79.988 284.457Z" stroke="#222221" stroke-width="1.8083" stroke-miterlimit="10"/>
<path d="M79.2574 282.778H71.4105C69.6706 282.778 68.2598 281.368 68.2598 279.628V277.676C68.2598 275.936 69.6702 274.525 71.4105 274.525H79.2574C80.9972 274.525 82.408 275.935 82.408 277.676V279.628C82.408 281.368 80.9972 282.778 79.2574 282.778Z" fill="black"/>
<path d="M102.01 291.917L112.326 282.632" stroke="#F5EFE8" stroke-width="1.5069" stroke-miterlimit="10" stroke-linecap="round"/>
<path d="M110.264 296.924L116.601 291.221" stroke="#F5EFE8" stroke-width="1.5069" stroke-miterlimit="10" stroke-linecap="round"/>
<path d="M110.754 291.069L116.897 285.431" stroke="#F5EFE8" stroke-width="1.5069" stroke-miterlimit="10" stroke-linecap="round"/>
<path d="M104.367 296.925L108.216 293.393" stroke="#F5EFE8" stroke-width="1.5069" stroke-miterlimit="10" stroke-linecap="round"/>
<path d="M58.9618 195.352C72.0693 194.045 83.7537 203.61 85.0613 216.718C85.6114 222.232 84.2186 227.484 81.4648 231.828L85.947 243.237L73.6075 239.505C70.6747 241.272 67.3294 242.455 63.6958 242.817C50.5884 244.124 38.9033 234.558 37.596 221.451C36.2891 208.345 45.8548 196.659 58.9618 195.352Z" fill="url(#paint4_linear_495_11779)"/>
<path d="M58.9618 195.352C72.0693 194.045 83.7537 203.61 85.0613 216.718C85.6114 222.232 84.2186 227.484 81.4648 231.828L85.947 243.237L73.6075 239.505C70.6747 241.272 67.3294 242.455 63.6958 242.817C50.5884 244.124 38.9033 234.558 37.596 221.451C36.2891 208.345 45.8548 196.659 58.9618 195.352Z" stroke="#222221" stroke-width="1.8354" stroke-miterlimit="10"/>
<path d="M61.1551 213.525C62.4748 212.276 63.9126 211.272 65.7 210.886C69.2486 210.119 72.496 212.444 72.9715 216.052C73.3477 218.907 72.3304 221.325 70.6601 223.527C68.5372 226.325 65.6723 228.194 62.6671 229.915C61.5458 230.557 60.6826 230.534 59.578 229.905C56.569 228.191 53.7186 226.307 51.5835 223.517C50.3189 221.865 49.4391 220.041 49.2316 217.938C48.9157 214.738 50.6722 211.472 54.0896 210.83C56.1475 210.444 57.9725 211.119 59.6321 212.303C60.1475 212.671 60.6224 213.095 61.1551 213.525Z" fill="black"/>
<defs>
<filter id="filter0_f_495_11779" x="75.8" y="0.800003" width="317.4" height="317.4" filterUnits="userSpaceOnUse" color-interpolation-filters="sRGB">
<feFlood flood-opacity="0" result="BackgroundImageFix"/>
<feBlend mode="normal" in="SourceGraphic" in2="BackgroundImageFix" result="shape"/>
<feGaussianBlur stdDeviation="35.6" result="effect1_foregroundBlur_495_11779"/>
</filter>
<linearGradient id="paint0_linear_495_11779" x1="135.682" y1="162.837" x2="222.593" y2="313.371" gradientUnits="userSpaceOnUse">
<stop stop-color="#F0A100"/>
<stop offset="0.998" stop-color="#F48EBE"/>
</linearGradient>
<linearGradient id="paint1_linear_495_11779" x1="155.638" y1="303.292" x2="201.522" y2="223.82" gradientUnits="userSpaceOnUse">
<stop stop-color="#C8B7FA"/>
<stop offset="0.0892" stop-color="#C9B6F3"/>
<stop offset="0.2193" stop-color="#CCB5DF"/>
<stop offset="0.3746" stop-color="#D1B2BF"/>
<stop offset="0.5492" stop-color="#D8AE93"/>
<stop offset="0.74" stop-color="#E2A95A"/>
<stop offset="0.9414" stop-color="#EDA315"/>
<stop offset="1" stop-color="#F0A100"/>
</linearGradient>
<linearGradient id="paint2_linear_495_11779" x1="116.465" y1="183.362" x2="242.119" y2="183.362" gradientUnits="userSpaceOnUse">
<stop stop-color="#F0A100"/>
<stop offset="0.998" stop-color="#F48EBE"/>
</linearGradient>
<linearGradient id="paint3_linear_495_11779" x1="159.551" y1="285.79" x2="198.478" y2="218.368" gradientUnits="userSpaceOnUse">
<stop stop-color="#C8B7FA"/>
<stop offset="0.0892" stop-color="#C9B6F3"/>
<stop offset="0.2193" stop-color="#CCB5DF"/>
<stop offset="0.3746" stop-color="#D1B2BF"/>
<stop offset="0.5492" stop-color="#D8AE93"/>
<stop offset="0.74" stop-color="#E2A95A"/>
<stop offset="0.9414" stop-color="#EDA315"/>
<stop offset="1" stop-color="#F0A100"/>
</linearGradient>
<linearGradient id="paint4_linear_495_11779" x1="37.4766" y1="219.235" x2="85.9471" y2="219.235" gradientUnits="userSpaceOnUse">
<stop offset="0.0055" stop-color="#AAD0FF"/>
<stop offset="1" stop-color="#5189FE"/>
</linearGradient>
</defs>
</svg>
