<svg width="392" height="360" viewBox="0 0 392 360" fill="none" xmlns="http://www.w3.org/2000/svg">
<path opacity="0.45" d="M391.078 302.034C391.078 308.929 303.532 359.423 195.539 359.423C87.546 359.423 0 308.929 0 302.034C0 295.139 87.546 289.55 195.538 289.55C303.53 289.55 391.078 295.14 391.078 302.034Z" fill="#D4E6FF"/>
<path opacity="0.72" d="M310.545 300.918C310.545 304.973 259.055 334.671 195.539 334.671C132.023 334.671 80.5332 304.973 80.5332 300.918C80.5332 296.863 132.023 293.576 195.539 293.576C259.055 293.576 310.545 296.862 310.545 300.918Z" fill="#BBD4F2"/>
<path d="M356.118 254.808L355.345 251.286C353.9 244.7 355.13 237.811 358.765 232.132C360.958 228.706 361.7 224.55 360.828 220.577L355.293 195.352L350.134 224.314C348.155 235.423 348.381 246.814 350.799 257.836" fill="url(#paint0_linear_495_11615)"/>
<path d="M356.187 269.825L357.341 266.962C359.499 261.609 363.694 257.333 369.005 255.073C372.209 253.71 374.74 251.13 376.042 247.901L384.306 227.398L366.678 245.38C359.916 252.278 354.578 260.438 350.967 269.397" fill="url(#paint1_linear_495_11615)"/>
<path d="M360.488 268.404V262.966C360.488 252.798 364.527 243.047 371.717 235.857C376.055 231.519 378.491 225.636 378.491 219.502V180.556L361.53 221.551C355.024 237.276 351.676 254.127 351.676 271.145" fill="url(#paint2_linear_495_11615)"/>
<path d="M344.55 268.404V262.966C344.55 252.798 340.511 243.047 333.321 235.857C328.984 231.519 326.547 225.636 326.547 219.502V180.556L343.508 221.551C350.014 237.276 353.362 254.127 353.362 271.145" fill="url(#paint3_linear_495_11615)"/>
<path d="M366.562 260.937H331.617V302.818H366.562V260.937Z" fill="url(#paint4_linear_495_11615)"/>
<path d="M27.6415 290.297L27.1745 288.171C26.3025 284.195 27.0445 280.036 29.2395 276.608C30.5635 274.54 31.0115 272.03 30.4855 269.632L27.1445 254.404L24.0295 271.889C22.8345 278.596 22.9715 285.472 24.4315 292.126" fill="url(#paint5_linear_495_11615)"/>
<path d="M27.6842 299.364L28.3812 297.636C29.6842 294.404 32.2162 291.823 35.4232 290.459C37.3572 289.636 38.8852 288.079 39.6712 286.129L44.6602 273.751L34.0182 284.607C29.9362 288.771 26.7132 293.698 24.5332 299.106" fill="url(#paint6_linear_495_11615)"/>
<path d="M30.2809 298.506V295.223C30.2809 289.085 32.7199 283.197 37.0599 278.857C39.6789 276.238 41.1499 272.687 41.1499 268.984V245.472L30.9099 270.221C26.9819 279.714 24.9609 289.888 24.9609 300.161" fill="url(#paint7_linear_495_11615)"/>
<path d="M20.6581 298.506V295.223C20.6581 289.085 18.2201 283.197 13.8791 278.857C11.2601 276.238 9.78906 272.687 9.78906 268.984V245.472L20.0291 270.221C23.9571 279.714 25.9781 289.888 25.9781 300.161" fill="url(#paint8_linear_495_11615)"/>
<path d="M32.3257 302.818H19.6297L15.4297 293.998H36.5257L32.3257 302.818Z" fill="url(#paint9_linear_495_11615)"/>
<path d="M102.936 245.323H77.1862C73.0352 245.323 69.6582 241.946 69.6582 237.795V220.22C69.6582 216.069 73.0352 212.692 77.1862 212.692H102.936C107.087 212.692 110.464 216.069 110.464 220.22V237.795C110.463 241.946 107.086 245.323 102.936 245.323ZM77.1862 217.035C75.4292 217.035 74.0002 218.464 74.0002 220.221V237.796C74.0002 239.553 75.4292 240.982 77.1862 240.982H102.936C104.692 240.982 106.122 239.553 106.122 237.796V220.221C106.122 218.464 104.693 217.035 102.936 217.035H77.1862Z" fill="url(#paint10_linear_495_11615)"/>
<path d="M138.03 306.332H42.0928C36.1328 306.332 31.3008 301.5 31.3008 295.54V239.8C31.3008 233.84 36.1328 229.008 42.0928 229.008H138.03C143.99 229.008 148.822 233.84 148.822 239.8V295.54C148.822 301.5 143.99 306.332 138.03 306.332Z" fill="url(#paint11_linear_495_11615)"/>
<path d="M64.192 229.008H54.666V306.332H64.192V229.008Z" fill="url(#paint12_linear_495_11615)"/>
<path d="M60.5943 274.402H58.2653C55.1903 274.402 52.6973 271.909 52.6973 268.834V266.505C52.6973 263.43 55.1903 260.937 58.2653 260.937H60.5943C63.6693 260.937 66.1623 263.43 66.1623 266.505V268.834C66.1613 271.909 63.6693 274.402 60.5943 274.402Z" stroke="white" stroke-width="1.4475" stroke-miterlimit="10"/>
<path d="M125.458 229.008H115.932V306.332H125.458V229.008Z" fill="url(#paint13_linear_495_11615)"/>
<path d="M121.86 274.402H119.531C116.456 274.402 113.963 271.909 113.963 268.834V266.505C113.963 263.43 116.456 260.937 119.531 260.937H121.86C124.935 260.937 127.428 263.43 127.428 266.505V268.834C127.427 271.909 124.935 274.402 121.86 274.402Z" stroke="white" stroke-width="1.4475" stroke-miterlimit="10"/>
<path d="M300.799 180.259H296.857V205.112H300.799V180.259Z" fill="url(#paint14_linear_495_11615)"/>
<path d="M326.546 180.259H322.604V205.112H326.546V180.259Z" fill="url(#paint15_linear_495_11615)"/>
<path d="M329.436 182.174H294.091C293.034 182.174 292.176 181.317 292.176 180.259C292.176 179.202 293.033 178.345 294.091 178.345H329.436C330.493 178.345 331.35 179.202 331.35 180.259C331.351 181.317 330.493 182.174 329.436 182.174Z" fill="url(#paint16_linear_495_11615)"/>
<path d="M287.988 312.398C286.763 312.398 285.771 311.405 285.771 310.181V302.789C285.771 301.565 286.764 300.572 287.988 300.572C289.212 300.572 290.205 301.565 290.205 302.789V310.181C290.205 311.405 289.212 312.398 287.988 312.398Z" fill="url(#paint17_linear_495_11615)"/>
<path d="M335.539 312.398C334.315 312.398 333.322 311.405 333.322 310.181V302.789C333.322 301.565 334.315 300.572 335.539 300.572C336.763 300.572 337.756 301.565 337.756 302.789V310.181C337.756 311.405 336.763 312.398 335.539 312.398Z" fill="url(#paint18_linear_495_11615)"/>
<path d="M333.321 301.393H290.205V306.485H333.321V301.393Z" fill="url(#paint19_linear_495_11615)"/>
<path d="M341.799 201.694H281.726C278.925 201.694 276.654 203.965 276.654 206.766V298.868C276.654 301.669 278.925 303.94 281.726 303.94H341.799C344.6 303.94 346.871 301.669 346.871 298.868V206.766C346.871 203.965 344.601 201.694 341.799 201.694Z" fill="url(#paint20_linear_495_11615)"/>
<path d="M334.498 214.12H289.027C286.907 214.12 285.188 215.839 285.188 217.959V287.673C285.188 289.793 286.907 291.512 289.027 291.512H334.498C336.618 291.512 338.337 289.793 338.337 287.673V217.959C338.337 215.839 336.619 214.12 334.498 214.12Z" fill="url(#paint21_linear_495_11615)"/>
<path d="M330.206 231.093H293.319C291.599 231.093 290.205 232.355 290.205 233.913V285.113C290.205 286.67 291.6 287.932 293.319 287.932H330.206C331.926 287.932 333.32 286.67 333.32 285.113V233.913C333.321 232.355 331.926 231.093 330.206 231.093Z" fill="url(#paint22_linear_495_11615)"/>
<path opacity="0.45" d="M295.256 249.306V245.241C295.256 243.37 296.773 241.853 298.644 241.853H324.883C326.754 241.853 328.271 243.37 328.271 245.241V249.306" stroke="black" stroke-width="0.965" stroke-miterlimit="10" stroke-linecap="round" stroke-linejoin="round"/>
<path d="M164.304 195.181L154.777 214.604L159.376 232.345L174.693 234.929L188.448 196.823L180.236 188.366" fill="url(#paint23_linear_495_11615)"/>
<path d="M264.17 146.308V185.737C264.17 185.737 263.297 196.776 262.288 210.344C262.162 212.062 262.032 213.823 261.902 215.603C261.781 217.253 261.661 218.918 261.545 220.592C261.415 222.343 261.289 224.1 261.169 225.851C261.053 227.53 260.937 229.2 260.822 230.845C260.701 232.63 260.581 234.391 260.47 236.104C260.354 237.817 260.248 239.486 260.147 241.093C260.031 242.936 259.925 244.697 259.829 246.352C259.757 247.616 259.689 248.817 259.631 249.946C246.58 255.562 220.825 263.364 207.339 263.837C188.889 264.484 181.917 262.901 180.146 259.085C180.122 259.027 180.098 258.969 180.074 258.911C178.926 256.161 180.339 250.289 182.076 244.258C182.1 244.181 182.119 244.108 182.143 244.031C182.63 242.352 183.142 240.663 183.624 239.032C183.87 238.193 184.116 237.372 184.343 236.571C184.551 235.847 184.724 235.003 184.869 234.067C185.105 232.528 185.269 230.733 185.366 228.813C185.453 227.211 185.496 225.518 185.506 223.81C185.52 222.049 185.501 220.264 185.463 218.541C185.444 217.706 185.42 216.881 185.395 216.08C185.366 215.202 185.332 214.348 185.299 213.537C185.202 211.453 185.101 209.624 185.014 208.263C184.913 206.656 184.835 205.691 184.835 205.691C183.87 201.908 181.945 199.395 179.648 197.749C173.376 193.238 164.305 195.177 164.305 195.177C164.305 195.177 167.919 187.129 172.695 173.827C177.472 160.52 181.057 151.16 194.691 153.297C200.384 154.19 205.793 155.251 210.864 155.893C217.937 156.786 224.359 156.858 230.004 154.494C232.161 153.592 234.26 152.665 236.397 151.778C243.862 148.668 251.785 145.995 264.17 146.308Z" fill="url(#paint24_linear_495_11615)"/>
<path d="M187.093 216.736L185.395 216.08C185.197 210.285 184.835 205.692 184.835 205.692C183.87 201.909 181.945 199.396 179.648 197.75C182.384 192.559 187.247 183.305 190.296 177.394C190.789 183.59 186.847 198.918 187.093 216.736Z" fill="url(#paint25_linear_495_11615)"/>
<path d="M218.753 166.684C207.945 164.677 209.378 158.815 210.864 155.896C217.937 156.789 224.359 156.861 230.004 154.497C232.161 153.595 234.26 152.668 236.397 151.781C236.972 158.81 231.611 169.067 218.753 166.684Z" fill="white"/>
<path d="M264.17 166.669V185.737C264.17 185.737 260.696 229.638 259.63 249.946C259.341 255.408 259.229 259.162 259.403 259.895C260.223 263.345 224.915 266.138 206.19 266.795C187.74 267.441 181.883 262.988 180.146 259.085C180.122 259.027 180.098 258.969 180.074 258.911C178.911 256.127 180.373 250.139 182.144 244.031C190.602 244.311 217.327 243.471 221.481 221.943C226.422 196.314 248.814 193.129 254.116 157.749L264.17 166.669Z" fill="url(#paint26_linear_495_11615)"/>
<path opacity="0.15" d="M260.146 241.092C260.03 242.935 259.924 244.696 259.828 246.351L182.076 244.257C182.1 244.18 182.119 244.107 182.143 244.03C182.63 242.351 183.142 240.662 183.624 239.031L260.146 241.092Z" fill="white"/>
<path opacity="0.15" d="M260.821 230.844C260.7 232.629 260.58 234.39 260.469 236.103L184.869 234.067C185.105 232.528 185.269 230.733 185.366 228.813L260.821 230.844Z" fill="white"/>
<path d="M238.4 150.965C234.768 179.906 249.755 240.35 260.822 237.065C263.347 234.93 262.362 230.313 257.434 221.945C252.507 213.577 242.504 166.587 243.81 149.02C240.311 147.918 238.4 150.965 238.4 150.965Z" fill="url(#paint27_linear_495_11615)"/>
<path opacity="0.15" d="M261.545 220.591C261.415 222.342 261.289 224.099 261.169 225.85L185.506 223.809C185.52 222.048 185.501 220.263 185.463 218.54L261.545 220.591Z" fill="white"/>
<path opacity="0.15" d="M262.289 210.344C262.163 212.062 262.033 213.823 261.903 215.603L185.299 213.538C185.202 211.454 185.101 209.625 185.014 208.264L262.289 210.344Z" fill="white"/>
<path d="M208.496 155.57C202.492 175.389 189.056 238.294 183.086 240.841C177.116 243.388 177.371 237.668 183.086 225.65C188.801 213.632 200.399 155.309 203.355 153.707C206.312 152.106 208.956 154.018 208.496 155.57Z" fill="url(#paint28_linear_495_11615)"/>
<path d="M240.352 203.229C240.352 203.229 252.671 152.64 260.062 147.466C267.453 142.292 290.941 152.968 264.168 208.485L240.352 203.229Z" fill="url(#paint29_linear_495_11615)"/>
<path d="M193.047 242.158L160.2 253.656L140.162 236.079L139.583 236.335L129.403 240.841L128.308 239.843L122.585 234.603L104.598 179.822L121.273 194.031L139.337 188.366L139.583 188.617L156.34 205.61L185.574 197.645L188.497 211.81L189.559 216.963L191.687 232.345L193.047 242.158Z" fill="url(#paint30_linear_495_11615)"/>
<path d="M193.047 242.158L160.2 253.656L156.34 205.61L185.574 197.645L188.497 211.81L189.559 216.963L191.687 232.345L193.047 242.158Z" fill="url(#paint31_linear_495_11615)"/>
<path d="M139.583 188.617V236.335L129.403 240.841L128.308 239.843L121.273 194.031L139.337 188.366L139.583 188.617Z" fill="url(#paint32_linear_495_11615)"/>
<path d="M191.686 232.345C191.208 232.297 190.706 232.203 190.171 232.138C174.816 230.249 169.723 218.093 174.394 217.755C179.06 217.417 188.039 213.331 188.323 211.545L188.497 211.81L189.558 216.963L191.686 232.345Z" fill="url(#paint33_linear_495_11615)"/>
<path d="M240.352 203.229L232.315 229.345L196.333 218.833L188.326 211.544L189.557 216.964C189.557 216.964 181.551 218.627 179.333 218.381C177.116 218.135 171.88 216.41 172.804 219.921C173.728 223.432 175.761 225.834 179.764 227.374C183.768 228.914 191.22 228.606 191.22 228.606L229.684 249.452C237.241 253.548 246.682 250.222 250.004 242.293L264.168 208.485C264.168 208.485 252.835 202.408 240.352 203.229Z" fill="url(#paint34_linear_495_11615)"/>
<path d="M113.547 207.076C116.508 210.579 126.157 210.415 127.02 213.248C127.882 216.081 127.02 220.27 123.283 221.173C119.546 222.076 113.551 220.557 112.648 215.137C111.745 209.717 113.547 207.076 113.547 207.076Z" fill="url(#paint35_linear_495_11615)"/>
<path d="M199.225 111.857L189.362 105.257C186.276 103.192 186.353 98.63 189.505 96.67L193.476 94.201L191.426 91.454C188.965 88.156 191.446 83.481 195.556 83.671L229.354 85.229C236.284 85.548 241.433 91.768 240.451 98.636L243.372 99.645C246.703 100.796 248.4 104.493 247.102 107.769L237.262 132.595C236.134 135.44 233.038 136.971 230.093 136.141L224.067 134.443L199.225 111.857Z" fill="url(#paint36_linear_495_11615)"/>
<path d="M233.223 154.858C233.223 154.858 228.852 162.833 221.479 162.833C214.102 162.833 213.455 160.001 213.455 160.001L212.727 153.801L211.912 146.882L231.621 132.099L232.316 141.985L233.223 154.858Z" fill="url(#paint37_linear_495_11615)"/>
<path d="M232.316 141.985C229.532 149.43 224.095 156.831 212.727 153.801L211.912 146.882L231.621 132.099L232.316 141.985Z" fill="#F98875"/>
<path d="M196.597 99.1271C205.056 109.228 226.655 114.32 235.853 109.639C235.853 109.639 235.525 122.204 236.264 122.861C237.003 123.518 239.467 116.291 239.467 116.291C239.467 116.291 247.351 113.088 247.597 120.808C247.843 128.528 237.003 127.05 237.003 127.05C237.003 127.05 226.429 148.71 213.043 148.71C199.657 148.71 195.55 139.019 195.386 129.657C195.221 120.295 195.693 116.456 196.597 99.1271Z" fill="url(#paint38_linear_495_11615)"/>
<path d="M208.033 120.767L205.369 129.715C205.07 130.721 205.823 131.731 206.872 131.731H209.758" stroke="#F98875" stroke-width="0.965" stroke-miterlimit="10" stroke-linecap="round" stroke-linejoin="round"/>
<path d="M239.877 124.186C239.877 124.186 238.953 120.152 242.218 119.012C245.482 117.873 245.144 121.599 244.004 122.369" stroke="#F98875" stroke-width="0.965" stroke-miterlimit="10" stroke-linecap="round" stroke-linejoin="round"/>
<path d="M220.782 123.093C220.782 123.977 220.065 124.694 219.181 124.694C218.297 124.694 217.58 123.977 217.58 123.093C217.58 122.209 218.297 121.492 219.181 121.492C220.065 121.491 220.782 122.208 220.782 123.093Z" fill="#391051"/>
<path d="M202.428 123.093C202.428 123.977 201.711 124.694 200.826 124.694C199.942 124.694 199.225 123.977 199.225 123.093C199.225 122.209 199.942 121.492 200.826 121.492C201.711 121.491 202.428 122.208 202.428 123.093Z" fill="#391051"/>
<path d="M215.527 117.564C215.527 117.564 219.797 114.731 224.068 118.016" stroke="#391051" stroke-width="0.965" stroke-miterlimit="10" stroke-linecap="round" stroke-linejoin="round"/>
<path d="M195.539 117.564C195.539 117.564 199.809 114.731 204.08 118.016" stroke="#391051" stroke-width="0.965" stroke-miterlimit="10" stroke-linecap="round" stroke-linejoin="round"/>
<path d="M217.311 135.142C217.578 137.577 215.82 139.767 213.385 140.033C210.95 140.3 208.761 138.542 208.494 136.107L217.311 135.142Z" fill="white"/>
<path d="M108.117 254.722C108.117 262.775 113.323 270.219 121.419 272.695L219.035 302.532L226.793 304.901L235.183 278.784L228.134 275.894L134.04 237.329C123.802 233.136 112.164 238.651 108.936 249.237C108.382 251.065 108.117 252.908 108.117 254.722Z" fill="url(#paint39_linear_495_11615)"/>
<path d="M219.035 302.532L226.794 304.901L235.184 278.784L228.135 275.894L219.035 302.532Z" fill="url(#paint40_linear_495_11615)"/>
<path d="M235.187 278.784L248.986 273.227C251.535 272.201 254.443 272.677 256.531 274.463L298.278 310.173C302.201 313.528 299.073 319.903 294.019 318.854L226.797 304.9L235.187 278.784Z" fill="url(#paint41_linear_495_11615)"/>
<path d="M293.837 254.722C293.837 262.775 288.631 270.219 280.535 272.695L182.919 302.532L175.161 304.901L166.771 278.784L173.82 275.894L267.914 237.329C278.152 233.136 289.79 238.651 293.018 249.237C293.572 251.065 293.837 252.908 293.837 254.722Z" fill="url(#paint42_linear_495_11615)"/>
<path d="M182.919 302.532L175.161 304.901L166.77 278.784L173.819 275.894L182.919 302.532Z" fill="url(#paint43_linear_495_11615)"/>
<path d="M166.769 278.784L152.97 273.227C150.421 272.201 147.513 272.677 145.425 274.463L103.678 310.173C99.7562 313.528 102.883 319.903 107.937 318.854L175.159 304.9L166.769 278.784Z" fill="url(#paint44_linear_495_11615)"/>
<path d="M127.777 154.755C122.077 155.874 118.358 161.403 119.478 167.108C119.513 167.288 119.554 167.472 119.599 167.65C121.658 176.558 129.764 177.352 132.581 181.534C132.824 181.894 133.364 181.788 133.452 181.363C134.479 176.426 141.684 172.627 140.222 163.602C140.196 163.42 140.165 163.235 140.129 163.055C139.01 157.349 133.478 153.636 127.777 154.755ZM130.552 168.887C128.45 169.3 126.411 167.93 125.998 165.828C125.935 165.506 125.911 165.186 125.928 164.873C126.02 163.139 127.276 161.619 129.056 161.269C130.836 160.92 132.573 161.852 133.314 163.423C133.448 163.706 133.548 164.011 133.611 164.333C134.023 166.436 132.654 168.475 130.552 168.887Z" fill="url(#paint45_linear_495_11615)"/>
<path d="M133.684 161.005C154.904 96.549 292.901 62.757 337.2 134.784" stroke="#BBD4F2" stroke-width="0.965" stroke-miterlimit="10" stroke-linecap="round" stroke-linejoin="round" stroke-dasharray="2.89 2.89"/>
<path d="M52.6953 134.784C52.9663 134.38 53.2383 133.981 53.5123 133.589" stroke="#BBD4F2" stroke-width="0.965" stroke-linecap="round" stroke-linejoin="round"/>
<path d="M55.1875 131.289C84.7635 92.397 130.15 120.609 130.494 156.537" stroke="#BBD4F2" stroke-width="0.965" stroke-linecap="round" stroke-linejoin="round" stroke-dasharray="2.85 2.85"/>
<path d="M130.485 157.961C130.474 158.442 130.454 158.924 130.426 159.407" stroke="#BBD4F2" stroke-width="0.965" stroke-linecap="round" stroke-linejoin="round"/>
<path d="M92.1738 50.129C134.634 54.181 133.685 157.748 133.685 157.748C133.685 157.748 142.648 53.666 279.762 55.945" stroke="#BBD4F2" stroke-width="0.965" stroke-miterlimit="10" stroke-linecap="round" stroke-linejoin="round" stroke-dasharray="2.89 2.89"/>
<path d="M373.453 134.842C373.453 135.199 373.448 135.556 373.434 135.908C373.41 136.719 373.352 137.515 373.26 138.306C372.932 141.22 372.198 144.009 371.118 146.614C370.828 147.323 370.505 148.018 370.163 148.698C367.572 153.836 363.587 158.15 358.699 161.132C357.941 161.6 357.16 162.029 356.359 162.43C353.99 163.607 351.447 164.49 348.779 165.026V165.031C348.311 165.127 347.838 165.209 347.365 165.282C345.831 165.518 344.258 165.639 342.656 165.639C341.049 165.639 339.476 165.518 337.942 165.282C337.469 165.21 337.001 165.128 336.533 165.031C333.865 164.491 331.317 163.608 328.948 162.43C328.147 162.03 327.366 161.6 326.608 161.132C320.953 157.673 316.5 152.442 314.025 146.204C313.813 145.683 313.615 145.147 313.436 144.602C313.233 144.004 313.055 143.391 312.891 142.773C312.823 142.513 312.756 142.252 312.698 141.987C312.143 139.695 311.854 137.302 311.854 134.841C311.854 117.829 325.643 104.044 342.656 104.044C359.664 104.045 373.453 117.83 373.453 134.842Z" fill="url(#paint46_linear_495_11615)"/>
<path d="M373.433 135.908C373.409 136.719 373.351 137.515 373.259 138.306C372.931 141.22 372.197 144.009 371.117 146.614C370.827 147.323 370.504 148.018 370.162 148.698C367.571 153.836 363.586 158.15 358.698 161.132C357.94 161.6 357.159 162.029 356.358 162.43C353.989 163.607 351.446 164.49 348.778 165.026V165.031C348.31 165.127 347.837 165.209 347.364 165.282C345.83 165.518 344.257 165.639 342.655 165.639C341.048 165.639 339.475 165.518 337.941 165.282C337.468 165.21 337 165.128 336.532 165.031C333.864 164.491 331.316 163.608 328.947 162.43C328.146 162.03 327.365 161.6 326.607 161.132C320.952 157.673 316.499 152.442 314.024 146.204C313.812 145.683 313.614 145.147 313.435 144.602C313.232 144.004 313.054 143.391 312.89 142.773C312.822 142.513 312.755 142.252 312.697 141.987H320.87V149.461H325.222V156.602H330.722V142.48H339.426V161.451H345.356V154.011H353.09V141.659H357.085V148.061H364.395V135.907L373.433 135.908Z" fill="url(#paint47_linear_495_11615)"/>
<path d="M351.676 143.95H334.676V147.39H351.676V143.95Z" fill="#02419C"/>
<path d="M334.615 126.641H329.934L331.192 116.786C331.262 116.241 331.725 115.833 332.274 115.833C332.823 115.833 333.287 116.241 333.356 116.786L334.615 126.641Z" fill="url(#paint48_linear_495_11615)"/>
<path d="M335.478 120.884H329.072V133.252H335.478V120.884Z" fill="url(#paint49_linear_495_11615)"/>
<path d="M336.216 123.594H328.332V140.561H336.216V123.594Z" fill="url(#paint50_linear_495_11615)"/>
<path d="M337.203 129.9H327.348V149.414H337.203V129.9Z" fill="url(#paint51_linear_495_11615)"/>
<path d="M337.943 141.365V165.282C337.47 165.21 337.002 165.128 336.534 165.031C333.866 164.491 331.318 163.608 328.949 162.43C328.148 162.03 327.367 161.6 326.609 161.132V141.365H337.943Z" fill="url(#paint52_linear_495_11615)"/>
<path d="M355.372 126.641H350.691L351.95 116.786C352.019 116.241 352.483 115.833 353.032 115.833C353.581 115.833 354.045 116.241 354.114 116.786L355.372 126.641Z" fill="url(#paint53_linear_495_11615)"/>
<path d="M356.234 120.884H349.828V133.252H356.234V120.884Z" fill="url(#paint54_linear_495_11615)"/>
<path d="M356.974 123.594H349.09V140.561H356.974V123.594Z" fill="url(#paint55_linear_495_11615)"/>
<path d="M357.959 129.9H348.104V149.414H357.959V129.9Z" fill="url(#paint56_linear_495_11615)"/>
<path d="M358.699 141.365V161.132C357.941 161.6 357.16 162.029 356.359 162.43C353.99 163.607 351.447 164.49 348.779 165.026V165.031C348.311 165.127 347.838 165.209 347.365 165.282V141.365H358.699Z" fill="url(#paint57_linear_495_11615)"/>
<path d="M378.055 97.9011C372.764 95.5041 366.527 97.8481 364.127 103.143C364.051 103.31 363.978 103.483 363.911 103.654C360.416 112.103 366.557 117.454 366.424 122.495C366.413 122.93 366.914 123.156 367.233 122.861C370.935 119.437 379.007 120.526 383.055 112.327C383.14 112.164 383.222 111.994 383.297 111.828C385.697 106.533 383.347 100.298 378.055 97.9011ZM372.112 111.019C370.161 110.135 369.295 107.836 370.18 105.885C370.315 105.586 370.482 105.312 370.678 105.067C371.76 103.708 373.664 103.199 375.317 103.948C376.969 104.697 377.843 106.464 377.534 108.173C377.479 108.482 377.383 108.788 377.247 109.087C376.362 111.038 374.063 111.903 372.112 111.019Z" fill="url(#paint58_linear_495_11615)"/>
<path d="M124.945 46.7841C124.945 47.1411 124.94 47.4981 124.926 47.8501C124.902 48.6611 124.844 49.4571 124.752 50.2481C124.424 53.1621 123.691 55.9511 122.61 58.5561C122.321 59.2651 121.997 59.9601 121.655 60.6401C118.659 66.5791 113.805 71.4091 107.851 74.3721C105.482 75.5491 102.939 76.4321 100.271 76.9681V76.9731C98.2927 77.3731 96.2467 77.5811 94.1477 77.5811C92.0487 77.5811 90.0027 77.3731 88.0247 76.9731C85.3567 76.4331 82.8087 75.5501 80.4397 74.3721C73.6757 70.9991 68.3247 65.2191 65.5167 58.1461C65.3047 57.6251 65.1067 57.0891 64.9277 56.5441C64.7247 55.9461 64.5467 55.3331 64.3827 54.7151C64.3147 54.4551 64.2477 54.1941 64.1897 53.9291C63.6347 51.6371 63.3457 49.2441 63.3457 46.7831C63.3457 29.7711 77.1347 15.9861 94.1477 15.9861C111.155 15.9871 124.945 29.7721 124.945 46.7841Z" fill="url(#paint59_linear_495_11615)"/>
<path d="M124.925 47.8501C124.901 48.6611 124.843 49.4571 124.751 50.2481C124.423 53.1621 123.69 55.9511 122.609 58.5561C122.32 59.2651 121.996 59.9601 121.654 60.6401C118.658 66.5791 113.804 71.4091 107.85 74.3721C105.481 75.5491 102.938 76.4321 100.27 76.9681V76.9731C98.2925 77.3731 96.2465 77.5811 94.1475 77.5811C92.0485 77.5811 90.0025 77.3731 88.0245 76.9731C85.3565 76.4331 82.8084 75.5501 80.4394 74.3721C73.6754 70.9991 68.3244 65.2191 65.5164 58.1461C65.3044 57.6251 65.1065 57.0891 64.9275 56.5441C64.7245 55.9461 64.5465 55.3331 64.3825 54.7151C64.3145 54.4551 64.2475 54.1941 64.1895 53.9291H72.3624V61.4031H76.7145V68.5441H82.2145V54.4221H90.9184V73.3931H96.8485V65.9531H104.582V53.6021H108.577V60.0041H115.887V47.8501H124.925Z" fill="url(#paint60_linear_495_11615)"/>
<path d="M104.568 65.9531C104.158 64.8581 103.733 63.7191 103.304 62.5421C103.116 62.0261 102.928 61.5051 102.74 60.9791C101.63 57.8911 100.496 54.5911 99.4304 51.2471C99.3144 50.8761 99.1934 50.5041 99.0834 50.1281C97.6644 45.5981 96.3914 41.0281 95.4934 36.8401C95.3294 36.0631 95.1754 35.3011 95.0354 34.5531H93.2554C93.1154 35.3011 92.9654 36.0631 92.7974 36.8401C91.9044 41.0281 90.6314 45.5971 89.2124 50.1281C89.0964 50.5041 88.9764 50.8761 88.8604 51.2471C88.5224 52.3131 88.1754 53.3701 87.8274 54.4221C87.0744 56.6701 86.3074 58.8751 85.5504 60.9791C85.3624 61.5051 85.1744 62.0261 84.9864 62.5421C83.2494 67.3091 81.6094 71.4781 80.4414 74.3731C82.8104 75.5501 85.3584 76.4331 88.0264 76.9741C88.5134 74.9281 89.4114 71.1261 90.4294 66.5571C90.4294 66.3591 90.4724 66.1661 90.5544 65.9881C90.6414 65.8051 90.7664 65.6411 90.9214 65.4861C92.4024 64.0481 96.7544 63.9611 97.7294 65.9541C97.8544 66.2151 97.9274 66.5041 97.9274 66.8321C98.9214 71.2761 99.7894 74.9571 100.272 76.9691C102.94 76.4341 105.483 75.5511 107.852 74.3731C106.966 72.1921 105.823 69.2871 104.568 65.9531ZM93.8284 50.1281C93.9394 49.5441 94.0454 48.9701 94.1474 48.3961C94.2484 48.9701 94.3544 49.5491 94.4614 50.1281C94.5334 50.5001 94.6014 50.8711 94.6734 51.2471C95.2864 54.4841 95.9714 57.8141 96.6464 60.9791C96.7144 61.2971 96.7814 61.6161 96.8494 61.9291L93.6024 61.7601L91.4554 61.8761C91.5184 61.5771 91.5814 61.2781 91.6484 60.9791C92.3234 57.8141 93.0044 54.4851 93.6164 51.2471C93.6884 50.8711 93.7614 50.4991 93.8284 50.1281Z" fill="url(#paint61_linear_495_11615)"/>
<path d="M90.4277 66.5581C90.4277 66.3571 90.4717 66.1641 90.5547 65.9901C90.5147 66.1821 90.4707 66.3701 90.4277 66.5581Z" fill="url(#paint62_linear_495_11615)"/>
<path d="M97.9236 66.8291C97.8576 66.5401 97.7926 66.2471 97.7266 65.9541C97.8536 66.2121 97.9236 66.5011 97.9236 66.8291Z" fill="url(#paint63_linear_495_11615)"/>
<path d="M100.191 51.2461H88.0971C87.7891 51.2461 87.5391 50.9961 87.5391 50.6881C87.5391 50.3801 87.7891 50.1301 88.0971 50.1301H100.191C100.499 50.1301 100.749 50.3801 100.749 50.6881C100.75 50.9961 100.5 51.2461 100.191 51.2461Z" fill="url(#paint64_linear_495_11615)"/>
<path d="M104.193 62.542H84.0965C83.6645 62.542 83.3145 62.192 83.3145 61.76C83.3145 61.328 83.6645 60.978 84.0965 60.978H104.193C104.625 60.978 104.975 61.328 104.975 61.76C104.974 62.192 104.624 62.542 104.193 62.542Z" fill="url(#paint65_linear_495_11615)"/>
<path d="M93.138 34.3291L92.457 30.6031C92.44 30.5091 92.451 30.4121 92.489 30.3241L93.907 27.0341C94.083 26.6271 94.668 26.6491 94.812 27.0681L95.815 29.9871C95.842 30.0651 95.848 30.1481 95.834 30.2291L95.111 34.3301L93.138 34.3291Z" fill="url(#paint66_linear_495_11615)"/>
<path d="M95.4929 36.8421H92.7389C92.4379 36.8421 92.1719 36.1971 92.1719 35.4001C92.1719 34.6041 92.4379 33.9581 92.7669 33.9581H95.5209C95.8489 33.9581 96.1159 34.6031 96.1159 35.4001C96.1159 36.1961 95.8489 36.8421 95.4929 36.8421Z" fill="url(#paint67_linear_495_11615)"/>
<path d="M70.0545 0.313031C64.4165 1.71403 60.9775 7.42103 62.3795 13.063C62.4235 13.241 62.4735 13.422 62.5275 13.598C65.0265 22.393 73.1625 22.783 76.1835 26.819C76.4435 27.167 76.9775 27.034 77.0455 26.605C77.8265 21.623 84.8335 17.471 82.9245 8.52903C82.8895 8.34903 82.8485 8.16503 82.8045 7.98703C81.4025 2.34503 75.6925 -1.08797 70.0545 0.313031ZM73.5275 14.29C71.4485 14.807 69.3445 13.54 68.8275 11.461C68.7485 11.143 68.7095 10.824 68.7105 10.511C68.7165 8.77403 69.8945 7.19402 71.6555 6.75602C73.4165 6.31802 75.1975 7.16403 76.0155 8.69503C76.1635 8.97103 76.2775 9.27102 76.3575 9.59002C76.8735 11.669 75.6065 13.773 73.5275 14.29Z" fill="url(#paint68_linear_495_11615)"/>
<path d="M323.38 46.3381C323.38 49.5901 322.835 52.7211 321.826 55.6311C319.472 62.4581 314.594 68.1031 308.307 71.4611C306.662 72.3441 304.915 73.0631 303.091 73.6081C300.505 74.3851 297.764 74.8001 294.923 74.8001C291.314 74.8001 287.859 74.1291 284.685 72.8991C283.373 72.3971 282.104 71.7941 280.897 71.1091C280.728 71.0131 280.559 70.9161 280.395 70.8151C280.082 70.6321 279.778 70.4431 279.474 70.2461C274.992 67.3461 271.383 63.2211 269.11 58.3431C267.407 54.6951 266.461 50.6281 266.461 46.3391C266.461 30.6201 279.203 17.8771 294.923 17.8771C310.638 17.8761 323.38 30.6181 323.38 46.3381Z" fill="url(#paint69_linear_495_11615)"/>
<path d="M321.825 55.6301C319.471 62.4571 314.593 68.1021 308.306 71.4601C306.661 72.3431 304.914 73.0621 303.09 73.6071C300.504 74.3841 297.763 74.7991 294.922 74.7991C291.313 74.7991 287.858 74.1281 284.684 72.8981C283.372 72.3961 282.103 71.7931 280.896 71.1081C280.727 71.0121 280.558 70.9151 280.394 70.8141C280.081 70.6311 279.777 70.4421 279.473 70.2451C274.991 67.3451 271.382 63.2201 269.109 58.3421C271.121 59.2391 272.747 61.0201 272.901 61.1891C272.833 61.0781 272.481 60.3211 275.207 59.5201C278.165 58.6521 281.204 64.4801 281.204 64.4801C281.204 64.4801 281.764 63.0041 284.398 63.1681C287.037 63.3321 289.498 68.4221 289.498 68.4221C289.498 68.4221 290.646 65.1361 292.002 64.5241C292.509 65.9671 291.462 68.3691 291.355 68.6111C291.466 68.4421 292.31 67.2261 293.685 67.1111C293.883 68.1191 293.087 69.2721 293 69.4031C293.179 69.3071 295.741 67.9021 297.955 68.1771C300.257 68.4671 300.792 69.9041 300.792 69.9041C300.792 69.9041 302.973 62.7631 307.383 62.7591C311.793 62.7591 312.29 63.8691 312.29 63.8691C312.29 63.8691 314.101 55.9971 321.825 55.6301Z" fill="url(#paint70_linear_495_11615)"/>
<path d="M283.77 43.8719H280.396V71.1079H283.77V43.8719Z" fill="url(#paint71_linear_495_11615)"/>
<path d="M284.689 43.87H279.477V48.359H284.689V43.87Z" fill="url(#paint72_linear_495_11615)"/>
<path d="M284.686 69.574V72.898C283.374 72.396 282.105 71.793 280.898 71.108H280.396V70.814C280.083 70.631 279.779 70.442 279.475 70.245V69.574H284.686Z" fill="url(#paint73_linear_495_11615)"/>
<path d="M284.401 55.9449H279.762V69.5719H284.401V55.9449Z" fill="url(#paint74_linear_495_11615)"/>
<path d="M307.388 43.87H304.014V71.109H307.388V43.87Z" fill="url(#paint75_linear_495_11615)"/>
<path d="M308.308 43.87H303.096V48.359H308.308V43.87Z" fill="url(#paint76_linear_495_11615)"/>
<path d="M308.308 69.574V71.46C306.663 72.343 304.916 73.062 303.092 73.607V69.574H308.308Z" fill="url(#paint77_linear_495_11615)"/>
<path d="M308.021 55.9449H303.381V69.5719H308.021V55.9449Z" fill="url(#paint78_linear_495_11615)"/>
<path d="M316.311 41.5881C302.168 48.5171 285.615 48.5171 271.471 41.5881C272.045 40.4161 272.62 39.243 273.194 38.071C286.251 44.467 301.531 44.467 314.587 38.071C315.162 39.243 315.737 40.4151 316.311 41.5881Z" fill="url(#paint79_linear_495_11615)"/>
<path d="M331.195 16.1511V23.6251C331.195 25.5981 329.598 27.2001 327.625 27.2001H316.33L312.716 30.8091V27.2001H308.325C306.352 27.2001 304.75 25.5981 304.75 23.6251V16.1511C304.75 14.1781 306.352 12.5811 308.325 12.5811H327.624C329.598 12.5811 331.195 14.1781 331.195 16.1511Z" fill="url(#paint80_linear_495_11615)"/>
<path d="M321.198 17.4331C321.536 17.7711 321.703 18.2111 321.703 18.6541C321.706 19.0941 321.539 19.5341 321.202 19.8721L317.541 23.5331L313.884 19.8761C313.208 19.2011 313.212 18.1051 313.884 17.4331C314.218 17.0991 314.662 16.9281 315.102 16.9321C315.546 16.9321 315.986 17.0991 316.323 17.4371L317.541 18.6551L318.762 17.4341C319.434 16.7611 320.526 16.7611 321.198 17.4331Z" fill="white"/>
<path d="M82.8731 146.342C82.8731 147.582 82.8051 148.807 82.6701 150.009C82.3231 153.092 81.5461 156.04 80.4021 158.8C80.0931 159.548 79.7561 160.286 79.3941 161.005C74.0291 171.639 63.0091 178.924 50.2911 178.924C36.5401 178.924 24.7821 170.413 20.0011 158.365C19.7741 157.81 19.5671 157.246 19.3791 156.672C19.1671 156.035 18.9741 155.389 18.8001 154.737C18.0861 152.059 17.7051 149.246 17.7051 146.342C17.7051 128.345 32.2951 113.76 50.2921 113.76C68.2821 113.76 82.8731 128.345 82.8731 146.342Z" fill="url(#paint81_linear_495_11615)"/>
<path d="M82.6703 150.009C82.3233 153.092 81.5463 156.04 80.4023 158.8C80.0933 159.548 79.7563 160.286 79.3943 161.005L60.5723 160.812L45.7363 160.672L49.2873 157.121L49.4653 156.943L70.4343 135.974L82.6703 150.009Z" fill="url(#paint82_linear_495_11615)"/>
<path d="M70.4324 135.975L60.5714 160.812L45.7344 160.673L70.4324 135.975Z" fill="url(#paint83_linear_495_11615)"/>
<path d="M50.6389 158.67L47.7679 158.641L28.1839 158.443L20.0009 158.366C19.7739 157.811 19.5669 157.247 19.3789 156.673L22.1049 153.947L35.1509 140.905L49.0419 156.837L49.2879 157.122L50.6389 158.67Z" fill="url(#paint84_linear_495_11615)"/>
<path d="M35.1509 140.905L30.2199 153.324H30.2149L28.1839 158.443L20.0009 158.366C19.7739 157.811 19.5669 157.247 19.3789 156.673L22.1049 153.947L35.1509 140.905Z" fill="url(#paint85_linear_495_11615)"/>
<path d="M80.4028 158.8C80.0938 159.548 79.7568 160.286 79.3948 161.005C75.3898 168.942 68.2348 175.016 59.5748 177.583C56.6318 178.456 53.5148 178.924 50.2918 178.924C36.5408 178.924 24.7828 170.413 20.0018 158.365C19.7748 157.81 19.5678 157.246 19.3798 156.672C19.1678 156.035 18.9748 155.389 18.8008 154.737C19.9198 154.414 21.0198 154.153 22.1058 153.946C24.7838 153.43 27.3458 153.251 29.8448 153.314H29.8788C29.9898 153.319 30.1058 153.319 30.2168 153.324H30.2218C36.6968 153.532 42.7178 155.293 49.0438 156.836C49.1838 156.87 49.3288 156.904 49.4688 156.942C52.2578 157.618 55.1088 158.245 58.0858 158.669C59.1568 158.823 60.2278 158.939 61.2848 159.021C68.2258 159.582 74.8208 158.814 80.4028 158.8Z" fill="url(#paint86_linear_495_11615)"/>
<path d="M59.5748 177.583C56.6318 178.456 53.5148 178.924 50.2918 178.924C36.5408 178.924 24.7828 170.413 20.0018 158.365C19.7748 157.81 19.5678 157.246 19.3798 156.672C19.1678 156.035 18.9748 155.389 18.8008 154.737C19.9198 154.414 21.0198 154.153 22.1058 153.946C24.7838 153.43 27.3458 153.251 29.8448 153.314H29.8788C41.6758 153.97 46.2638 158.481 41.3378 164.392C36.9118 169.699 54.6148 171.103 59.5748 177.583Z" fill="url(#paint87_linear_495_11615)"/>
<path opacity="0.25" d="M50.8017 132.238C50.8017 136.184 47.6027 139.383 43.6567 139.383C39.7107 139.383 36.5117 136.184 36.5117 132.238C36.5117 128.292 39.7107 125.093 43.6567 125.093C47.6027 125.093 50.8017 128.292 50.8017 132.238Z" fill="white"/>
<path opacity="0.45" d="M43.6573 137.073C46.3276 137.073 48.4923 134.908 48.4923 132.238C48.4923 129.568 46.3276 127.403 43.6573 127.403C40.987 127.403 38.8223 129.568 38.8223 132.238C38.8223 134.908 40.987 137.073 43.6573 137.073Z" fill="white"/>
<path d="M46.2033 132.238C46.2033 133.644 45.0633 134.784 43.6573 134.784C42.2513 134.784 41.1113 133.644 41.1113 132.238C41.1113 130.832 42.2513 129.692 43.6573 129.692C45.0633 129.692 46.2033 130.832 46.2033 132.238Z" fill="#F3FF70"/>
<path d="M30.4355 103.066V110.54C30.4355 112.513 32.0325 114.115 34.0055 114.115H45.3005L48.9145 117.724V114.115H53.3055C55.2785 114.115 56.8805 112.513 56.8805 110.54V103.066C56.8805 101.093 55.2785 99.496 53.3055 99.496H34.0055C32.0325 99.496 30.4355 101.093 30.4355 103.066Z" fill="url(#paint88_linear_495_11615)"/>
<path d="M40.4328 104.348C40.0948 104.686 39.9278 105.126 39.9278 105.569C39.9248 106.009 40.0918 106.449 40.4298 106.787L44.0908 110.448L47.7478 106.791C48.4228 106.116 48.4198 105.02 47.7478 104.348C47.4138 104.014 46.9698 103.843 46.5298 103.847C46.0858 103.847 45.6458 104.014 45.3088 104.352L44.0908 105.57L42.8698 104.349C42.1968 103.676 41.1048 103.676 40.4328 104.348Z" fill="white"/>
<defs>
<linearGradient id="paint0_linear_495_11615" x1="375.851" y1="199.948" x2="394.72" y2="176.409" gradientUnits="userSpaceOnUse">
<stop stop-color="#2CC7B8"/>
<stop offset="1" stop-color="#A9FFB3"/>
</linearGradient>
<linearGradient id="paint1_linear_495_11615" x1="351.131" y1="272.725" x2="374.39" y2="242.741" gradientUnits="userSpaceOnUse">
<stop stop-color="#2CC7B8"/>
<stop offset="1" stop-color="#A9FFB3"/>
</linearGradient>
<linearGradient id="paint2_linear_495_11615" x1="352.08" y1="261.554" x2="391.031" y2="178.607" gradientUnits="userSpaceOnUse">
<stop stop-color="#2CC7B8"/>
<stop offset="1" stop-color="#A9FFB3"/>
</linearGradient>
<linearGradient id="paint3_linear_495_11615" x1="352.957" y1="261.554" x2="314.006" y2="178.607" gradientUnits="userSpaceOnUse">
<stop stop-color="#2CC7B8"/>
<stop offset="1" stop-color="#A9FFB3"/>
</linearGradient>
<linearGradient id="paint4_linear_495_11615" x1="343.356" y1="256.157" x2="373.62" y2="391.927" gradientUnits="userSpaceOnUse">
<stop stop-color="#E5FFFF"/>
<stop offset="1" stop-color="#25DBFF"/>
</linearGradient>
<linearGradient id="paint5_linear_495_11615" x1="39.5547" y1="257.178" x2="50.9458" y2="242.967" gradientUnits="userSpaceOnUse">
<stop stop-color="#2CC7B8"/>
<stop offset="1" stop-color="#A9FFB3"/>
</linearGradient>
<linearGradient id="paint6_linear_495_11615" x1="24.6316" y1="301.114" x2="38.6732" y2="283.012" gradientUnits="userSpaceOnUse">
<stop stop-color="#2CC7B8"/>
<stop offset="1" stop-color="#A9FFB3"/>
</linearGradient>
<linearGradient id="paint7_linear_495_11615" x1="25.2052" y1="294.37" x2="48.7205" y2="244.294" gradientUnits="userSpaceOnUse">
<stop stop-color="#2CC7B8"/>
<stop offset="1" stop-color="#A9FFB3"/>
</linearGradient>
<linearGradient id="paint8_linear_495_11615" x1="25.7341" y1="294.37" x2="2.21877" y2="244.294" gradientUnits="userSpaceOnUse">
<stop stop-color="#2CC7B8"/>
<stop offset="1" stop-color="#A9FFB3"/>
</linearGradient>
<linearGradient id="paint9_linear_495_11615" x1="25.3619" y1="291.235" x2="33.0312" y2="325.641" gradientUnits="userSpaceOnUse">
<stop stop-color="#E5FFFF"/>
<stop offset="1" stop-color="#25DBFF"/>
</linearGradient>
<linearGradient id="paint10_linear_495_11615" x1="73.8787" y1="155.957" x2="113.11" y2="333.061" gradientUnits="userSpaceOnUse">
<stop stop-color="#302A7B"/>
<stop offset="0.9944" stop-color="#975189"/>
</linearGradient>
<linearGradient id="paint11_linear_495_11615" x1="60.0849" y1="219.789" x2="180.249" y2="411.726" gradientUnits="userSpaceOnUse">
<stop stop-color="#FFE099"/>
<stop offset="1" stop-color="#F34C70"/>
</linearGradient>
<linearGradient id="paint12_linear_495_11615" x1="46.7945" y1="167.044" x2="58.564" y2="260.78" gradientUnits="userSpaceOnUse">
<stop stop-color="#FFE099"/>
<stop offset="1" stop-color="#F34C70"/>
</linearGradient>
<linearGradient id="paint13_linear_495_11615" x1="107.109" y1="159.471" x2="118.879" y2="253.207" gradientUnits="userSpaceOnUse">
<stop stop-color="#FFE099"/>
<stop offset="1" stop-color="#F34C70"/>
</linearGradient>
<linearGradient id="paint14_linear_495_11615" x1="299.424" y1="149.82" x2="298.677" y2="203.623" gradientUnits="userSpaceOnUse">
<stop stop-color="#B3D3F1"/>
<stop offset="1" stop-color="#2C4CB6"/>
</linearGradient>
<linearGradient id="paint15_linear_495_11615" x1="325.165" y1="150.177" x2="324.418" y2="203.981" gradientUnits="userSpaceOnUse">
<stop stop-color="#B3D3F1"/>
<stop offset="1" stop-color="#2C4CB6"/>
</linearGradient>
<linearGradient id="paint16_linear_495_11615" x1="312.184" y1="149.997" x2="311.437" y2="203.8" gradientUnits="userSpaceOnUse">
<stop stop-color="#B3D3F1"/>
<stop offset="1" stop-color="#2C4CB6"/>
</linearGradient>
<linearGradient id="paint17_linear_495_11615" x1="283.295" y1="261.897" x2="290.975" y2="334.861" gradientUnits="userSpaceOnUse">
<stop stop-color="#A2D6E2"/>
<stop offset="1" stop-color="#7B99CB"/>
</linearGradient>
<linearGradient id="paint18_linear_495_11615" x1="328.811" y1="255.547" x2="335.35" y2="305.054" gradientUnits="userSpaceOnUse">
<stop stop-color="#B3D3F1"/>
<stop offset="1" stop-color="#2C4CB6"/>
</linearGradient>
<linearGradient id="paint19_linear_495_11615" x1="305.773" y1="258.59" x2="312.312" y2="308.096" gradientUnits="userSpaceOnUse">
<stop stop-color="#B3D3F1"/>
<stop offset="1" stop-color="#2C4CB6"/>
</linearGradient>
<linearGradient id="paint20_linear_495_11615" x1="289.151" y1="203.869" x2="358.086" y2="353.09" gradientUnits="userSpaceOnUse">
<stop stop-color="#B3D3F1"/>
<stop offset="1" stop-color="#5183E7"/>
</linearGradient>
<linearGradient id="paint21_linear_495_11615" x1="301.274" y1="159.866" x2="313.463" y2="267.893" gradientUnits="userSpaceOnUse">
<stop stop-color="#B3D3F1"/>
<stop offset="1" stop-color="#5183E7"/>
</linearGradient>
<linearGradient id="paint22_linear_495_11615" x1="292.949" y1="148.304" x2="311.865" y2="260.114" gradientUnits="userSpaceOnUse">
<stop stop-color="#B3D3F1"/>
<stop offset="1" stop-color="#2C4CB6"/>
</linearGradient>
<linearGradient id="paint23_linear_495_11615" x1="192.451" y1="216.531" x2="279.175" y2="240.183" gradientUnits="userSpaceOnUse">
<stop stop-color="#FFB39F"/>
<stop offset="1" stop-color="#FFDEC5"/>
</linearGradient>
<linearGradient id="paint24_linear_495_11615" x1="212.51" y1="159.124" x2="231.357" y2="285.881" gradientUnits="userSpaceOnUse">
<stop stop-color="#4FB2C6"/>
<stop offset="1" stop-color="#02419C"/>
</linearGradient>
<linearGradient id="paint25_linear_495_11615" x1="193.642" y1="83.0993" x2="172.946" y2="335.88" gradientUnits="userSpaceOnUse">
<stop stop-color="#4FB2C6"/>
<stop offset="1" stop-color="#02419C"/>
</linearGradient>
<linearGradient id="paint26_linear_495_11615" x1="76.0461" y1="28.2438" x2="289.811" y2="298.656" gradientUnits="userSpaceOnUse">
<stop stop-color="#4FB2C6"/>
<stop offset="1" stop-color="#02419C"/>
</linearGradient>
<linearGradient id="paint27_linear_495_11615" x1="245.253" y1="129.443" x2="255.601" y2="281.702" gradientUnits="userSpaceOnUse">
<stop stop-color="#FFE099"/>
<stop offset="1" stop-color="#F34C70"/>
</linearGradient>
<linearGradient id="paint28_linear_495_11615" x1="189.287" y1="133.246" x2="199.635" y2="285.506" gradientUnits="userSpaceOnUse">
<stop stop-color="#FFE099"/>
<stop offset="1" stop-color="#F34C70"/>
</linearGradient>
<linearGradient id="paint29_linear_495_11615" x1="254.017" y1="152.951" x2="272.864" y2="279.71" gradientUnits="userSpaceOnUse">
<stop stop-color="#4FB2C6"/>
<stop offset="1" stop-color="#02419C"/>
</linearGradient>
<linearGradient id="paint30_linear_495_11615" x1="160.422" y1="482.855" x2="144.653" y2="113.272" gradientUnits="userSpaceOnUse">
<stop stop-color="#63B3BB"/>
<stop offset="1" stop-color="#C7FFE4"/>
</linearGradient>
<linearGradient id="paint31_linear_495_11615" x1="164.985" y1="278.961" x2="184.038" y2="170.87" gradientUnits="userSpaceOnUse">
<stop stop-color="#63B3BB"/>
<stop offset="1" stop-color="#C7FFE4"/>
</linearGradient>
<linearGradient id="paint32_linear_495_11615" x1="122.262" y1="261.513" x2="139.344" y2="164.605" gradientUnits="userSpaceOnUse">
<stop stop-color="#63B3BB"/>
<stop offset="1" stop-color="#C7FFE4"/>
</linearGradient>
<linearGradient id="paint33_linear_495_11615" x1="180.793" y1="261.615" x2="184.982" y2="155.92" gradientUnits="userSpaceOnUse">
<stop stop-color="#63B3BB"/>
<stop offset="1" stop-color="#C7FFE4"/>
</linearGradient>
<linearGradient id="paint34_linear_495_11615" x1="319.398" y1="143.07" x2="199.291" y2="241.373" gradientUnits="userSpaceOnUse">
<stop stop-color="#FFB39F"/>
<stop offset="1" stop-color="#FFDEC5"/>
</linearGradient>
<linearGradient id="paint35_linear_495_11615" x1="78.8492" y1="216.026" x2="132.313" y2="213.562" gradientUnits="userSpaceOnUse">
<stop stop-color="#FFB39F"/>
<stop offset="1" stop-color="#FFDEC5"/>
</linearGradient>
<linearGradient id="paint36_linear_495_11615" x1="211.98" y1="73.9676" x2="220.973" y2="123.242" gradientUnits="userSpaceOnUse">
<stop stop-color="#5C4070"/>
<stop offset="1" stop-color="#391051"/>
</linearGradient>
<linearGradient id="paint37_linear_495_11615" x1="219.024" y1="137.625" x2="247.357" y2="205.626" gradientUnits="userSpaceOnUse">
<stop stop-color="#FFB39F"/>
<stop offset="1" stop-color="#FFDEC5"/>
</linearGradient>
<linearGradient id="paint38_linear_495_11615" x1="223.245" y1="103.667" x2="215.441" y2="149.477" gradientUnits="userSpaceOnUse">
<stop stop-color="#FFB39F"/>
<stop offset="1" stop-color="#FFDEC5"/>
</linearGradient>
<linearGradient id="paint39_linear_495_11615" x1="156.575" y1="337.936" x2="197.966" y2="139.851" gradientUnits="userSpaceOnUse">
<stop stop-color="#302A7B"/>
<stop offset="0.9944" stop-color="#975189"/>
</linearGradient>
<linearGradient id="paint40_linear_495_11615" x1="167.95" y1="230.673" x2="203.264" y2="266.479" gradientUnits="userSpaceOnUse">
<stop stop-color="#302A7B"/>
<stop offset="0.9944" stop-color="#975189"/>
</linearGradient>
<linearGradient id="paint41_linear_495_11615" x1="212.682" y1="152.577" x2="239.29" y2="234.619" gradientUnits="userSpaceOnUse">
<stop stop-color="#5C4070"/>
<stop offset="1" stop-color="#391051"/>
</linearGradient>
<linearGradient id="paint42_linear_495_11615" x1="307.322" y1="187.315" x2="145.699" y2="361.749" gradientUnits="userSpaceOnUse">
<stop stop-color="#302A7B"/>
<stop offset="0.9944" stop-color="#975189"/>
</linearGradient>
<linearGradient id="paint43_linear_495_11615" x1="234.004" y1="230.673" x2="198.69" y2="266.479" gradientUnits="userSpaceOnUse">
<stop stop-color="#302A7B"/>
<stop offset="0.9944" stop-color="#975189"/>
</linearGradient>
<linearGradient id="paint44_linear_495_11615" x1="189.273" y1="152.577" x2="162.665" y2="234.619" gradientUnits="userSpaceOnUse">
<stop stop-color="#5C4070"/>
<stop offset="1" stop-color="#391051"/>
</linearGradient>
<linearGradient id="paint45_linear_495_11615" x1="126.939" y1="157.592" x2="138.953" y2="189.38" gradientUnits="userSpaceOnUse">
<stop stop-color="#FF487C"/>
<stop offset="1" stop-color="#FFADAA"/>
</linearGradient>
<linearGradient id="paint46_linear_495_11615" x1="342.654" y1="134.849" x2="339.451" y2="37.7779" gradientUnits="userSpaceOnUse">
<stop stop-color="#E5FFFF"/>
<stop offset="1" stop-color="#25DBFF"/>
</linearGradient>
<linearGradient id="paint47_linear_495_11615" x1="337.94" y1="93.2269" x2="350.259" y2="203.113" gradientUnits="userSpaceOnUse">
<stop stop-color="#E5FFFF"/>
<stop offset="1" stop-color="#5EC0FF"/>
</linearGradient>
<linearGradient id="paint48_linear_495_11615" x1="332.274" y1="112.477" x2="332.274" y2="130.702" gradientUnits="userSpaceOnUse">
<stop stop-color="#4FB2C6"/>
<stop offset="1" stop-color="#02419C"/>
</linearGradient>
<linearGradient id="paint49_linear_495_11615" x1="332.275" y1="117.043" x2="332.275" y2="137.9" gradientUnits="userSpaceOnUse">
<stop stop-color="#4FB2C6"/>
<stop offset="1" stop-color="#02419C"/>
</linearGradient>
<linearGradient id="paint50_linear_495_11615" x1="332.274" y1="118.325" x2="332.274" y2="146.937" gradientUnits="userSpaceOnUse">
<stop stop-color="#4FB2C6"/>
<stop offset="1" stop-color="#02419C"/>
</linearGradient>
<linearGradient id="paint51_linear_495_11615" x1="332.275" y1="123.84" x2="332.275" y2="156.746" gradientUnits="userSpaceOnUse">
<stop stop-color="#4FB2C6"/>
<stop offset="1" stop-color="#02419C"/>
</linearGradient>
<linearGradient id="paint52_linear_495_11615" x1="332.276" y1="133.938" x2="332.276" y2="174.269" gradientUnits="userSpaceOnUse">
<stop stop-color="#4FB2C6"/>
<stop offset="1" stop-color="#02419C"/>
</linearGradient>
<linearGradient id="paint53_linear_495_11615" x1="353.032" y1="112.477" x2="353.032" y2="130.702" gradientUnits="userSpaceOnUse">
<stop stop-color="#4FB2C6"/>
<stop offset="1" stop-color="#02419C"/>
</linearGradient>
<linearGradient id="paint54_linear_495_11615" x1="353.031" y1="117.043" x2="353.031" y2="137.9" gradientUnits="userSpaceOnUse">
<stop stop-color="#4FB2C6"/>
<stop offset="1" stop-color="#02419C"/>
</linearGradient>
<linearGradient id="paint55_linear_495_11615" x1="353.032" y1="118.325" x2="353.032" y2="146.937" gradientUnits="userSpaceOnUse">
<stop stop-color="#4FB2C6"/>
<stop offset="1" stop-color="#02419C"/>
</linearGradient>
<linearGradient id="paint56_linear_495_11615" x1="353.031" y1="123.84" x2="353.031" y2="156.746" gradientUnits="userSpaceOnUse">
<stop stop-color="#4FB2C6"/>
<stop offset="1" stop-color="#02419C"/>
</linearGradient>
<linearGradient id="paint57_linear_495_11615" x1="353.033" y1="133.938" x2="353.033" y2="174.269" gradientUnits="userSpaceOnUse">
<stop stop-color="#4FB2C6"/>
<stop offset="1" stop-color="#02419C"/>
</linearGradient>
<linearGradient id="paint58_linear_495_11615" x1="375.725" y1="99.7243" x2="367.059" y2="132.583" gradientUnits="userSpaceOnUse">
<stop stop-color="#FF487C"/>
<stop offset="1" stop-color="#FFADAA"/>
</linearGradient>
<linearGradient id="paint59_linear_495_11615" x1="94.1451" y1="46.7912" x2="90.9422" y2="-50.2802" gradientUnits="userSpaceOnUse">
<stop stop-color="#E5FFFF"/>
<stop offset="1" stop-color="#25DBFF"/>
</linearGradient>
<linearGradient id="paint60_linear_495_11615" x1="89.4324" y1="5.1687" x2="101.752" y2="115.055" gradientUnits="userSpaceOnUse">
<stop stop-color="#E5FFFF"/>
<stop offset="1" stop-color="#5EC0FF"/>
</linearGradient>
<linearGradient id="paint61_linear_495_11615" x1="106.594" y1="39.099" x2="91.0352" y2="78.6626" gradientUnits="userSpaceOnUse">
<stop stop-color="#5C4070"/>
<stop offset="1" stop-color="#391051"/>
</linearGradient>
<linearGradient id="paint62_linear_495_11615" x1="90.4698" y1="66.2508" x2="90.7594" y2="66.5625" gradientUnits="userSpaceOnUse">
<stop stop-color="#5C4070"/>
<stop offset="1" stop-color="#391051"/>
</linearGradient>
<linearGradient id="paint63_linear_495_11615" x1="97.7754" y1="66.3383" x2="98.455" y2="67.0696" gradientUnits="userSpaceOnUse">
<stop stop-color="#5C4070"/>
<stop offset="1" stop-color="#391051"/>
</linearGradient>
<linearGradient id="paint64_linear_495_11615" x1="96.1291" y1="83.9639" x2="93.5982" y2="41.5332" gradientUnits="userSpaceOnUse">
<stop stop-color="#302A7B"/>
<stop offset="0.9944" stop-color="#975189"/>
</linearGradient>
<linearGradient id="paint65_linear_495_11615" x1="95.4647" y1="83.8908" x2="92.9465" y2="41.6744" gradientUnits="userSpaceOnUse">
<stop stop-color="#302A7B"/>
<stop offset="0.9944" stop-color="#975189"/>
</linearGradient>
<linearGradient id="paint66_linear_495_11615" x1="88.1096" y1="3.58896" x2="102.627" y2="68.7164" gradientUnits="userSpaceOnUse">
<stop stop-color="#5C4070"/>
<stop offset="1" stop-color="#391051"/>
</linearGradient>
<linearGradient id="paint67_linear_495_11615" x1="101.188" y1="60.7874" x2="93.6239" y2="33.5285" gradientUnits="userSpaceOnUse">
<stop stop-color="#302A7B"/>
<stop offset="0.9944" stop-color="#975189"/>
</linearGradient>
<linearGradient id="paint68_linear_495_11615" x1="69.3568" y1="3.18825" x2="82.9378" y2="34.3391" gradientUnits="userSpaceOnUse">
<stop stop-color="#FF487C"/>
<stop offset="1" stop-color="#FFADAA"/>
</linearGradient>
<linearGradient id="paint69_linear_495_11615" x1="286.519" y1="73.8504" x2="334.931" y2="-84.6891" gradientUnits="userSpaceOnUse">
<stop stop-color="#E5FFFF"/>
<stop offset="1" stop-color="#5EC0FF"/>
</linearGradient>
<linearGradient id="paint70_linear_495_11615" x1="297.83" y1="80.6104" x2="294.627" y2="48.5817" gradientUnits="userSpaceOnUse">
<stop stop-color="#2CEDB8"/>
<stop offset="1" stop-color="#A9FFB3"/>
</linearGradient>
<linearGradient id="paint71_linear_495_11615" x1="276.169" y1="76.8537" x2="299.155" y2="1.5787" gradientUnits="userSpaceOnUse">
<stop stop-color="#FF487C"/>
<stop offset="1" stop-color="#FFADAA"/>
</linearGradient>
<linearGradient id="paint72_linear_495_11615" x1="283.383" y1="41.8536" x2="288.328" y2="25.6609" gradientUnits="userSpaceOnUse">
<stop stop-color="#5C4070"/>
<stop offset="1" stop-color="#391051"/>
</linearGradient>
<linearGradient id="paint73_linear_495_11615" x1="283.014" y1="68.1789" x2="285.717" y2="59.326" gradientUnits="userSpaceOnUse">
<stop stop-color="#5C4070"/>
<stop offset="1" stop-color="#391051"/>
</linearGradient>
<linearGradient id="paint74_linear_495_11615" x1="288.31" y1="138.337" x2="280.587" y2="44.6284" gradientUnits="userSpaceOnUse">
<stop stop-color="#FF487C"/>
<stop offset="1" stop-color="#FFADAA"/>
</linearGradient>
<linearGradient id="paint75_linear_495_11615" x1="299.787" y1="76.8551" x2="322.776" y2="1.57142" gradientUnits="userSpaceOnUse">
<stop stop-color="#FF487C"/>
<stop offset="1" stop-color="#FFADAA"/>
</linearGradient>
<linearGradient id="paint76_linear_495_11615" x1="307.003" y1="41.8535" x2="311.947" y2="25.6608" gradientUnits="userSpaceOnUse">
<stop stop-color="#5C4070"/>
<stop offset="1" stop-color="#391051"/>
</linearGradient>
<linearGradient id="paint77_linear_495_11615" x1="306.604" y1="67.5568" x2="311.179" y2="52.5738" gradientUnits="userSpaceOnUse">
<stop stop-color="#5C4070"/>
<stop offset="1" stop-color="#391051"/>
</linearGradient>
<linearGradient id="paint78_linear_495_11615" x1="311.93" y1="138.337" x2="304.206" y2="44.6284" gradientUnits="userSpaceOnUse">
<stop stop-color="#FF487C"/>
<stop offset="1" stop-color="#FFADAA"/>
</linearGradient>
<linearGradient id="paint79_linear_495_11615" x1="290.584" y1="52.4186" x2="304.699" y2="6.19463" gradientUnits="userSpaceOnUse">
<stop stop-color="#FF487C"/>
<stop offset="1" stop-color="#FFADAA"/>
</linearGradient>
<linearGradient id="paint80_linear_495_11615" x1="312.845" y1="14.6464" x2="351.403" y2="54.0663" gradientUnits="userSpaceOnUse">
<stop stop-color="#FF487C"/>
<stop offset="1" stop-color="#FFADAA"/>
</linearGradient>
<linearGradient id="paint81_linear_495_11615" x1="24.0399" y1="105.24" x2="172.974" y2="338.434" gradientUnits="userSpaceOnUse">
<stop stop-color="#E5FFFF"/>
<stop offset="1" stop-color="#25DBFF"/>
</linearGradient>
<linearGradient id="paint82_linear_495_11615" x1="56.5746" y1="146.192" x2="93.1299" y2="190.03" gradientUnits="userSpaceOnUse">
<stop stop-color="#FFE099"/>
<stop offset="1" stop-color="#F34C70"/>
</linearGradient>
<linearGradient id="paint83_linear_495_11615" x1="51.1227" y1="135.202" x2="78.7573" y2="187.298" gradientUnits="userSpaceOnUse">
<stop stop-color="#FFE099"/>
<stop offset="1" stop-color="#F34C70"/>
</linearGradient>
<linearGradient id="paint84_linear_495_11615" x1="25.9658" y1="147.3" x2="60.4713" y2="188.679" gradientUnits="userSpaceOnUse">
<stop stop-color="#FFE099"/>
<stop offset="1" stop-color="#F34C70"/>
</linearGradient>
<linearGradient id="paint85_linear_495_11615" x1="22.4057" y1="139.888" x2="41.9168" y2="176.67" gradientUnits="userSpaceOnUse">
<stop stop-color="#FFE099"/>
<stop offset="1" stop-color="#F34C70"/>
</linearGradient>
<linearGradient id="paint86_linear_495_11615" x1="116.792" y1="146.419" x2="-22.6561" y2="181.897" gradientUnits="userSpaceOnUse">
<stop stop-color="#FFE099"/>
<stop offset="1" stop-color="#F34C70"/>
</linearGradient>
<linearGradient id="paint87_linear_495_11615" x1="46.3908" y1="156.617" x2="15.0332" y2="198.157" gradientUnits="userSpaceOnUse">
<stop stop-color="#FFE099"/>
<stop offset="1" stop-color="#F34C70"/>
</linearGradient>
<linearGradient id="paint88_linear_495_11615" x1="48.7849" y1="101.561" x2="10.2274" y2="140.981" gradientUnits="userSpaceOnUse">
<stop stop-color="#FF487C"/>
<stop offset="1" stop-color="#FFADAA"/>
</linearGradient>
</defs>
</svg>
