<svg width="29" height="37" viewBox="0 0 29 37" fill="none" xmlns="http://www.w3.org/2000/svg">
<path d="M14.058 32.5602C14.1783 32.6714 14.3362 32.7332 14.5001 32.7332C14.664 32.7332 14.8219 32.6714 14.9423 32.5602C19.105 28.5627 27.5568 19.2979 27.4964 13.5591C27.4998 11.8502 27.1661 10.1574 26.5145 8.57767C25.8629 6.9979 24.9061 5.56214 23.699 4.35258C22.4918 3.14302 21.058 2.18341 19.4795 1.52866C17.901 0.873917 16.2089 0.536898 14.5001 0.536896C12.7912 0.536894 11.0991 0.873908 9.52061 1.52865C7.94213 2.18339 6.50828 3.143 5.30112 4.35256C4.09396 5.56212 3.13719 6.99787 2.48559 8.57764C1.83398 10.1574 1.50032 11.8502 1.50371 13.559C1.43785 19.288 9.89891 28.5734 14.058 32.5602ZM8.96315 13.559C9.2574 6.21962 19.7438 6.22169 20.037 13.5591C20.037 15.0276 19.4536 16.4359 18.4153 17.4743C17.3769 18.5126 15.9685 19.096 14.5 19.096C13.0316 19.096 11.6232 18.5126 10.5849 17.4742C9.54649 16.4359 8.96314 15.0275 8.96315 13.559ZM28.6564 32.0923C28.6074 37.8861 0.392527 37.8861 0.34375 32.0923C0.34375 30.016 4.003 28.7663 8.14288 28.1703C8.43428 28.5225 8.85136 28.9738 9.16181 29.3239C4.02862 29.9391 1.62544 31.272 1.62544 32.0923C1.62544 33.3484 6.64328 35.1684 14.5001 35.1684C22.3569 35.1684 27.3747 33.3484 27.3747 32.0923C27.3747 31.272 24.9715 29.9391 19.8384 29.3239L20.287 28.824C20.4792 28.6061 20.6715 28.3882 20.8573 28.1703C24.9971 28.7664 28.6564 30.016 28.6564 32.0923Z" fill="url(#paint0_linear_495_4293)"/>
<defs>
<linearGradient id="paint0_linear_495_4293" x1="0.343539" y1="18.5002" x2="28.6566" y2="18.5002" gradientUnits="userSpaceOnUse">
<stop stop-color="#00C0FF"/>
<stop offset="1" stop-color="#5558FF"/>
</linearGradient>
</defs>
</svg>
