<svg width="57" height="70" viewBox="0 0 57 70" fill="none" xmlns="http://www.w3.org/2000/svg">
<path d="M50.3968 58.9387L50.5748 58.3037C50.6928 57.8829 50.7578 57.4424 50.7578 56.9856C50.7578 54.3069 48.5784 52.1262 45.8984 52.1262H43.8547H43.3033L43.3571 51.5774L46.7906 16.5455V16.5328L46.7922 16.5129C46.7956 16.4704 46.7969 16.4513 46.7969 16.4356V16.4355V16.4354V16.4352V16.4351V16.435V16.4349V16.4348V16.4347V16.4346V16.4345V16.4344V16.4343V16.4341V16.434V16.4339V16.4338V16.4337V16.4336V16.4335V16.4334V16.4333V16.4331V16.433V16.4329V16.4328V16.4327V16.4326V16.4325V16.4324V16.4323V16.4322V16.432V16.4319V16.4318V16.4317V16.4316V16.4315V16.4314V16.4313V16.4312V16.431V16.4309V16.4308V16.4307V16.4306V16.4305V16.4304V16.4303V16.4302V16.43V16.4299V16.4298V16.4297V16.4296V16.4295V16.4294V16.4293V16.4291V16.429V16.4289V16.4288V16.4287V16.4286V16.4285V16.4284V16.4283V16.4281V16.428V16.4279V16.4278V16.4277V16.4276V16.4275V16.4274V16.4272V16.4271V16.427V16.4269V16.4268V16.4267V16.4266V16.4265V16.4263V16.4262V16.4261V16.426V16.4259V16.4258V16.4257V16.4256V16.4254V16.4253V16.4252V16.4251V16.425V16.4249V16.4248V16.4247V16.4245V16.4244V16.4243V16.4242V16.4241V16.424V16.4239V16.4238V16.4236V16.4235V16.4234V16.4233V16.4232V16.4231V16.423V16.4229V16.4227V16.4226V16.4225V16.4224V16.4223V16.4222V16.4221V16.4219V16.4218V16.4217V16.4216V16.4215V16.4214V16.4213V16.4212V16.421V16.4209V16.4208V16.4207V16.4206V16.4205V16.4204V16.4202V16.4201V16.42V16.4199V16.4198V16.4197V16.4196V16.4195V16.4193V16.4192V16.4191V16.419V16.4189V16.4188V16.4187V16.4185V16.4184V16.4183V16.4182V16.4181V16.418V16.4179V16.4177V16.4176V16.4175V16.4174V16.4173V16.4172V16.4171V16.417V16.4168V16.4167V16.4166V16.4165V16.4164V16.4163V16.4162V16.416V16.4159V16.4158V16.4157V16.4156V16.4155V16.4154V16.4152V16.4151V16.415V16.4149V16.4148V16.4147V16.4146V16.4144V16.4143V16.4142V16.4141V16.414V16.4139V16.4138V16.4136V16.4135V16.4134V16.4133V16.4132V16.4131V16.413V16.4128V16.4127V16.4126V16.4125V16.4124V16.4123V16.4122V16.412V16.4119V16.4118V16.4117V16.4116V16.4115V16.4114V16.4112V16.4111V16.411V16.4109V16.4108V16.4107V16.4106V16.4104V16.4103V16.4102V16.4101V16.41V16.4099V16.4098V16.4096V16.4095V16.4094V16.4093V16.4092V16.4091V16.409V16.4088V16.4087V16.4086V16.4085V16.4084V16.4083V16.4082V16.408V16.4079V16.4078V16.4077V16.4076V16.4075V16.4074V16.4072V16.4071V16.407V16.4069V16.4068V16.4067V16.4066V16.4064V16.4063V16.4062V16.4061V16.406V16.4059V16.4058V16.4056V16.4055V16.4054V16.4053V16.4052V16.4051V16.405V16.4048V16.4047V16.4046V16.4045V16.4044V16.4043V16.4042V16.404V16.4039V16.4038V16.4037V16.4036V16.4035V16.4033V16.4032V16.4031V16.403V16.4029V16.4028V16.4027V16.4025V16.4024V16.4023V16.4022V16.4021V16.402V16.4019V16.4017V16.4016V16.4015V16.4014V16.4013V16.4012V16.4011V16.4009V16.4008V16.4007V16.4006V16.4005V16.4004V16.4003V16.4001V16.4V16.3999V16.3998V16.3997V16.3996V16.3995V16.3993V16.3992V16.3991V16.399V16.3989V16.3988V16.3987V16.3986V16.3984V16.3983V16.3982V16.3981V16.398V16.3979V16.3978V16.3976V16.3975V16.3974V16.3973V16.3972V16.3971V16.397V16.3968V16.3967V16.3966V16.3965V16.3964V16.3963V16.3962V16.396V16.3959V16.3958V16.3957V16.3956V16.3955V16.3954V16.3952V16.3951V16.395V16.3949V16.3948V16.3947V16.3946V16.3945V16.3943V16.3942V16.3941V16.394V16.3939V16.3938V16.3937V16.3935V16.3934V16.3933V16.3932V16.3931V16.393V16.3929V16.3927V16.3926V16.3925V16.3924V16.3923V16.3922V16.3921V16.392V16.3918V16.3917V16.3916V16.3915V16.3914V16.3913V16.3912V16.391V16.3909V16.3908V16.3907V16.3906V16.3905V16.3904V16.3903V16.3901V16.39V16.3899V16.3898V16.3897V16.3896V16.3895V16.3894V16.3892V16.3891V16.389V16.3889V16.3888V16.3887V16.3886V16.3885V16.3883V16.3882V16.3881V16.388V16.3879V16.3878V16.3877V16.3876V16.3874V16.3873V16.3872V16.3871V16.387V16.3869V16.3868V16.3867V16.3865V16.3864V16.3863V16.3862V16.3861V16.386V16.3859V16.3858V16.3856V16.3855V16.3854V16.3853V16.3852V16.3851V16.385V16.3849V16.3847V16.3846V16.3845V16.3844V16.3843V16.3842V16.3841V16.384V16.3839V16.3837V16.3836V16.3835V16.3834V16.3833V16.3832V16.3831V16.383V16.3829V16.3827V16.3826V16.3825V16.3824V16.3823V16.3822V16.3821V16.382V16.3818V16.3817V16.3816V16.3815V16.3814V16.3813V16.3812V16.3811V16.381V16.3809V16.3807V16.3806V16.3805V16.3804V16.3803V16.3802V16.3801V16.38V16.3799V16.3797V16.3796V16.3795V16.3794V16.3793V16.3792V16.3791V16.379V16.3789V16.3788V16.3786V16.3785V16.3784V16.3783V16.3782V16.3781V16.378V16.3779V16.3778C46.7969 16.3376 46.7966 16.3196 46.7953 16.3036L46.7937 16.2837V16.2757L46.793 16.2682C46.7924 16.2625 46.7916 16.2541 46.7908 16.2444M50.3968 58.9387L47.2891 16.2028M50.3968 58.9387H51.0563H51.5312C54.2114 58.9387 56.3906 61.118 56.3906 63.7981C56.3906 66.4781 54.2099 68.6574 51.5312 68.6574H7.42344C4.74333 68.6574 2.56406 66.4782 2.56406 63.7981C2.56406 61.1181 4.7448 58.9387 7.42344 58.9387H7.89844H8.55792L8.37987 58.3037C8.2619 57.883 8.19688 57.4409 8.19688 56.9856C8.19688 54.3056 10.3776 52.1262 13.0562 52.1262H15.2141H15.8189L15.7051 51.5321L12.2911 33.7056L12.2117 33.2909L11.7896 33.2997C11.7394 33.3008 11.7061 33.3022 11.6774 33.3033C11.6431 33.3047 11.6154 33.3059 11.5734 33.3059C5.46833 33.3059 0.5 28.3376 0.5 22.2325C0.5 17.4965 3.49054 13.4438 7.68539 11.8661L8.07971 11.7178L8.00045 11.304L6.26143 2.22614L50.3968 58.9387ZM46.7908 16.2444C46.7907 16.2433 46.7906 16.2423 46.7905 16.2411L47.2891 16.2028M46.7908 16.2444C46.7908 16.245 46.7909 16.2455 46.7909 16.2461L47.2891 16.2028M46.7908 16.2444C46.7875 16.2064 46.7859 16.1919 46.784 16.1806L46.7827 16.1731L46.7816 16.1656C46.7816 16.1659 46.7813 16.1638 46.78 16.1567L46.7774 16.144L46.7738 16.1258L46.7732 16.1232C46.7645 16.0779 46.7543 16.0333 46.7426 15.9878M47.2891 16.2028C47.2859 16.1668 47.2828 16.1309 47.2766 16.0949C47.2734 16.0731 47.2687 16.0512 47.2641 16.0278C47.2531 15.9715 47.2406 15.9168 47.2266 15.8621M46.7426 15.9878C46.7427 15.9883 46.7429 15.9888 46.743 15.9894L47.2266 15.8621M46.7426 15.9878C46.7359 15.9623 46.7315 15.9458 46.7273 15.9319C46.7255 15.927 46.7231 15.9208 46.7197 15.9118C46.7157 15.9012 46.7096 15.8853 46.7033 15.868C46.6952 15.8471 46.6913 15.8364 46.6884 15.8285C46.6852 15.8198 46.6832 15.8144 46.6783 15.8025C46.6734 15.7907 46.6665 15.7757 46.6575 15.7576C46.6495 15.7417 46.6445 15.7315 46.6409 15.7242C46.6356 15.7133 46.6335 15.7091 46.6298 15.7026L46.6236 15.6914L46.6237 15.6914C46.6135 15.6721 46.6055 15.658 46.5979 15.6459L46.593 15.6382L46.5931 15.6381C46.5908 15.6343 46.5882 15.6301 46.5843 15.6239C46.5824 15.6209 46.5802 15.6174 46.5776 15.6133L46.5766 15.6117C46.5716 15.6038 46.5648 15.5931 46.5576 15.5813C46.5538 15.5757 46.5502 15.5703 46.5468 15.5652C46.5424 15.5585 46.5384 15.5524 46.535 15.5473C46.5284 15.5371 46.5237 15.5301 46.5196 15.524L46.5192 15.5235L46.5126 15.515L46.5011 15.5007L46.485 15.4804L46.8781 15.1715L46.485 15.4804C46.4587 15.447 46.4314 15.4149 46.4029 15.3841C46.3833 15.3628 46.3711 15.3497 46.359 15.3376L46.3589 15.3376C46.3518 15.3304 46.342 15.3216 46.3163 15.2994L46.3104 15.2942L46.3046 15.2889C46.282 15.268 46.276 15.2629 46.2723 15.26L46.2689 15.2573C46.2432 15.2367 46.2337 15.2294 46.2261 15.2242L46.2198 15.2199L46.2137 15.2153C46.1925 15.1998 46.1766 15.1882 46.1612 15.1774C46.1545 15.1731 46.1486 15.1692 46.1436 15.1659L46.133 15.1589L46.125 15.1536C46.1204 15.1506 46.1179 15.149 46.1169 15.1484C46.1166 15.1481 46.1164 15.148 46.1164 15.148L46.1111 15.1451L46.1033 15.1403C46.0855 15.1294 46.0663 15.1187 46.0369 15.1023L46.0205 15.0934L46.0064 15.0857C46.0052 15.085 46.0042 15.0845 46.0035 15.0841L45.9994 15.0823L45.9914 15.0785C45.9649 15.0658 45.9352 15.0531 45.8927 15.0351L45.8844 15.0316L45.8844 15.0315C45.878 15.0287 45.8721 15.0259 45.8677 15.0239L45.8649 15.0228L30.9932 9.32564L30.9904 9.32461L30.9904 9.3246M46.7426 15.9878C46.7425 15.9874 46.7424 15.987 46.7423 15.9866L47.2266 15.8621M47.2266 15.8621L47.2264 15.8617C47.2187 15.8322 47.2109 15.8026 47.2016 15.7731C47.1969 15.7598 47.1918 15.7465 47.1867 15.7332C47.1816 15.7199 47.1766 15.7067 47.1719 15.6934C47.1677 15.6826 47.1637 15.672 47.1598 15.6616C47.1535 15.6449 47.1474 15.6285 47.1406 15.6121C47.1297 15.5856 47.1172 15.559 47.1047 15.534C47.1016 15.5278 47.0985 15.5215 47.0954 15.5152C47.0859 15.4959 47.0762 15.4762 47.0656 15.4574C47.0516 15.4309 47.0375 15.4059 47.0219 15.3809C47.0148 15.3692 47.0074 15.3574 47 15.3457C46.9926 15.334 46.9851 15.3223 46.9781 15.3106C46.9695 15.2981 46.9613 15.2856 46.9531 15.2731C46.9449 15.2606 46.9367 15.2481 46.9281 15.2356L30.9904 9.3246M43.8547 51.6262L43.9037 51.1262H43.8547V51.6262ZM43.8547 51.6262L44.3523 51.675L44.3571 51.6262H43.8547ZM51.0563 58.4387V57.9387H51.1717C51.1409 58.1082 51.1022 58.2749 51.0563 58.4387ZM51.0563 58.4387L51.5312 58.5719L51.5377 58.5737C51.5502 58.529 51.5623 58.484 51.5738 58.4389C51.5596 58.4388 51.5455 58.4387 51.5312 58.4387H51.0563ZM30.9904 9.3246C30.9875 9.32352 30.9812 9.32116 30.9727 9.31764L8.20868 0.596253C8.20866 0.596245 8.20864 0.596238 8.20862 0.596231C7.71648 0.407775 7.1597 0.499976 6.75576 0.838913L6.75566 0.839C6.35226 1.17729 6.16272 1.70883 6.26138 2.22588L30.9904 9.3246ZM15.4599 32.5988L15.0656 32.7471L15.1449 33.1609L18.6996 51.7202L18.7773 52.1262H19.1906H39.9359H40.3894L40.4336 51.6749L41.8132 37.589L41.8504 37.2097L41.4945 37.0734L27.9383 31.8796L27.9382 31.8796C27.1883 31.5924 26.8141 30.7535 27.1013 30.0034C27.3885 29.2536 28.2274 28.8794 28.9774 29.1666L41.5305 33.9759L42.1431 34.2106L42.207 33.5577L42.7851 27.6499L42.8222 27.2706L42.4664 27.1343L28.9586 21.9593L28.9585 21.9593C28.2087 21.6721 27.8344 20.8332 28.1216 20.0831C28.4088 19.3333 29.2492 18.9592 29.9975 19.2462L29.9977 19.2462L42.5024 24.0369L43.1149 24.2715L43.1789 23.6187L43.757 17.7203L43.7942 17.341L43.4382 17.2046L37.0961 14.7749L10.4461 4.56554L9.60724 4.2442L9.7761 5.12644L10.8542 10.7593L10.9336 11.1739L11.3557 11.1652C11.406 11.1641 11.4393 11.1627 11.468 11.1616C11.5022 11.1601 11.5299 11.159 11.5719 11.159C17.677 11.159 22.6453 16.1273 22.6453 22.2325C22.6453 26.9684 19.6548 31.0211 15.4599 32.5988ZM11.5734 14.0653C7.06917 14.0653 3.40625 17.7282 3.40625 22.2325C3.40625 26.7367 7.06917 30.3996 11.5734 30.3996C16.0777 30.3996 19.7406 26.7367 19.7406 22.2325C19.7406 17.7282 16.0777 14.0653 11.5734 14.0653ZM13.0562 55.0324C11.9785 55.0324 11.1031 55.9079 11.1031 56.9856C11.1031 58.0633 11.9785 58.9387 13.0562 58.9387H45.9C46.9777 58.9387 47.8531 58.0633 47.8531 56.9856C47.8531 55.9079 46.9777 55.0324 45.9 55.0324H41.7125H41.7125H41.7124H41.7124H41.7124H41.7123H41.7123H41.7122H41.7122H41.7122H41.7121H41.7121H41.712H41.712H41.712H41.7119H41.7119H41.7118H41.7118H41.7118H41.7117H41.7117H41.7116H41.7116H41.7115H41.7115H41.7115H41.7114H41.7114H41.7113H41.7113H41.7112H41.7112H41.7112H41.7111H41.7111H41.711H41.711H41.7109H41.7109H41.7108H41.7108H41.7108H41.7107H41.7107H41.7106H41.7106H41.7105H41.7105H41.7104H41.7104H41.7103H41.7103H41.7102H41.7102H41.7101H41.7101H41.7101H41.71H41.71H41.7099H41.7099H41.7098H41.7098H41.7097H41.7097H41.7096H41.7096H41.7095H41.7095H41.7094H41.7094H41.7093H41.7093H41.7092H41.7092H41.7091H41.7091H41.709H41.709H41.7089H41.7089H41.7088H41.7088H41.7087H41.7087H41.7086H41.7086H41.7086H41.7085H41.7085H41.7084H41.7084H41.7083H41.7083H41.7082H41.7082H41.7081H41.7081H41.708H41.708H41.7079H41.7079H41.7078H41.7078H41.7077H41.7077H41.7076H41.7076H41.7075H41.7075H41.7074H41.7074H41.7073H41.7073H41.7072H41.7072H41.7072H41.7071H41.7071H41.707H41.707H41.7069H41.7069H41.7068H41.7068H41.7067H41.7067H41.7066H41.7066H41.7066H41.7065H41.7065H41.7064H41.7064H41.7063H41.7063H41.7062H41.7062H41.7062H41.7061H41.7061H41.706H41.706H41.7059H41.7059H41.7058H41.7058H41.7058H41.7057H41.7057H41.7056H41.7056H41.7056H41.7055H41.7055H41.7054H41.7054H41.7053H41.7053H41.7053H41.7052H41.7052H41.7052H41.7051H41.7051H41.705H41.705H41.705H41.7049H41.7049H41.7049H41.7048H41.7048H41.7047H41.7047H41.7047H41.7046H41.7046H41.7046H41.7045H41.7045H41.7045H41.7044H41.7044H41.7044H41.7043H41.7043H41.7043H41.7042H41.7042H41.7042H41.7042H41.7041H41.7041H41.7041H41.704H41.704H41.7039H41.7039H41.7038H41.7038H41.7038H41.7037H41.7037H41.7037H41.7036H41.7036H41.7036H41.7035H41.7035H41.7035H41.7034H41.7034H41.7034H41.7033H41.7033H41.7033H41.7033H41.7032H41.7032H41.7031H17.5766H17.5765H17.5765H17.5765H17.5764H17.5764H17.5763H17.5763H17.5763H17.5762H17.5762H17.5761H17.5761H17.5761H17.576H17.576H17.5759H17.5759H17.5759H17.5758H17.5758H17.5757H17.5757H17.5757H17.5756H17.5756H17.5755H17.5755H17.5754H17.5754H17.5754H17.5753H17.5753H17.5752H17.5752H17.5751H17.5751H17.575H17.575H17.575H17.5749H17.5749H17.5748H17.5748H17.5747H17.5747H17.5746H17.5746H17.5745H17.5745H17.5744H17.5744H17.5744H17.5743H17.5743H17.5742H17.5742H17.5741H17.5741H17.574H17.574H17.5739H17.5739H17.5738H17.5738H17.5737H17.5737H17.5736H17.5736H17.5735H17.5735H17.5734H17.5734H17.5733H17.5733H17.5732H17.5732H17.5732H17.5731H17.5731H17.573H17.573H17.5729H17.5729H17.5728H17.5728H17.5727H17.5727H17.5726H17.5726H17.5725H17.5725H17.5724H17.5724H17.5723H17.5723H17.5722H17.5722H17.5721H17.5721H17.572H17.572H17.5719H17.5719H17.5718H17.5718H17.5717H17.5717H17.5716H17.5716H17.5715H17.5715H17.5715H17.5714H17.5714H17.5713H17.5713H17.5712H17.5712H17.5711H17.5711H17.571H17.571H17.5709H17.5709H17.5708H17.5708H17.5707H17.5707H17.5707H17.5706H17.5706H17.5705H17.5705H17.5704H17.5704H17.5703H17.5703H17.5703H17.5702H17.5702H17.5701H17.5701H17.57H17.57H17.57H17.5699H17.5699H17.5698H17.5698H17.5697H17.5697H17.5697H17.5696H17.5696H17.5695H17.5695H17.5695H17.5694H17.5694H17.5693H17.5693H17.5693H17.5692H17.5692H17.5691H17.5691H17.5691H17.569H17.569H17.5689H17.5689H17.5689H17.5688H17.5688H17.5688H17.5687H17.5687H17.5687H17.5686H17.5686H17.5686H17.5685H17.5685H17.5685H17.5684H17.5684H17.5684H17.5683H17.5683H17.5683H17.5682H17.5682H17.5682H17.5681H17.5681H17.568H17.568H17.568H17.5679H17.5679H17.5678H17.5678H17.5678H17.5677H17.5677H17.5677H17.5676H17.5676H17.5676H17.5675H17.5675H17.5675H17.5674H17.5674H17.5674H17.5673H17.5673H17.5673H17.5672H17.5672H13.0562ZM7.425 65.7496H51.5312C52.609 65.7496 53.4844 64.8742 53.4844 63.7965C53.4844 62.7188 52.609 61.8434 51.5312 61.8434H7.425C6.3473 61.8434 5.47188 62.7188 5.47188 63.7965C5.47188 64.8742 6.34729 65.7496 7.425 65.7496Z" fill="#1D1A45" stroke="#F1F3F7"/>
</svg>
